G04*
G04 #@! TF.GenerationSoftware,Altium Limited,Altium Designer,22.4.2 (48)*
G04*
G04 Layer_Color=8421504*
%FSLAX25Y25*%
%MOIN*%
G70*
G04*
G04 #@! TF.SameCoordinates,7D04F6A7-785E-49C2-8212-7A515D76B669*
G04*
G04*
G04 #@! TF.FilePolarity,Positive*
G04*
G01*
G75*
%ADD20R,0.03740X0.08465*%
%ADD21R,0.12795X0.08465*%
%ADD22R,0.08465X0.03740*%
%ADD23R,0.08465X0.12795*%
%ADD24R,0.09646X0.09252*%
%ADD25R,0.06890X0.03937*%
%ADD26R,0.03937X0.06890*%
%ADD27R,0.08858X0.09252*%
%ADD28R,0.09252X0.09646*%
%ADD29R,0.05512X0.03740*%
G04:AMPARAMS|DCode=30|XSize=59.06mil|YSize=157.48mil|CornerRadius=14.76mil|HoleSize=0mil|Usage=FLASHONLY|Rotation=270.000|XOffset=0mil|YOffset=0mil|HoleType=Round|Shape=RoundedRectangle|*
%AMROUNDEDRECTD30*
21,1,0.05906,0.12795,0,0,270.0*
21,1,0.02953,0.15748,0,0,270.0*
1,1,0.02953,-0.06398,-0.01476*
1,1,0.02953,-0.06398,0.01476*
1,1,0.02953,0.06398,0.01476*
1,1,0.02953,0.06398,-0.01476*
%
%ADD30ROUNDEDRECTD30*%
G04:AMPARAMS|DCode=31|XSize=40.16mil|YSize=125.98mil|CornerRadius=10.04mil|HoleSize=0mil|Usage=FLASHONLY|Rotation=270.000|XOffset=0mil|YOffset=0mil|HoleType=Round|Shape=RoundedRectangle|*
%AMROUNDEDRECTD31*
21,1,0.04016,0.10591,0,0,270.0*
21,1,0.02008,0.12598,0,0,270.0*
1,1,0.02008,-0.05295,-0.01004*
1,1,0.02008,-0.05295,0.01004*
1,1,0.02008,0.05295,0.01004*
1,1,0.02008,0.05295,-0.01004*
%
%ADD31ROUNDEDRECTD31*%
%ADD32R,0.01575X0.03150*%
G04:AMPARAMS|DCode=33|XSize=39.37mil|YSize=62.99mil|CornerRadius=9.84mil|HoleSize=0mil|Usage=FLASHONLY|Rotation=0.000|XOffset=0mil|YOffset=0mil|HoleType=Round|Shape=RoundedRectangle|*
%AMROUNDEDRECTD33*
21,1,0.03937,0.04331,0,0,0.0*
21,1,0.01968,0.06299,0,0,0.0*
1,1,0.01968,0.00984,-0.02165*
1,1,0.01968,-0.00984,-0.02165*
1,1,0.01968,-0.00984,0.02165*
1,1,0.01968,0.00984,0.02165*
%
%ADD33ROUNDEDRECTD33*%
G04:AMPARAMS|DCode=34|XSize=35.43mil|YSize=31.5mil|CornerRadius=7.87mil|HoleSize=0mil|Usage=FLASHONLY|Rotation=0.000|XOffset=0mil|YOffset=0mil|HoleType=Round|Shape=RoundedRectangle|*
%AMROUNDEDRECTD34*
21,1,0.03543,0.01575,0,0,0.0*
21,1,0.01968,0.03150,0,0,0.0*
1,1,0.01575,0.00984,-0.00787*
1,1,0.01575,-0.00984,-0.00787*
1,1,0.01575,-0.00984,0.00787*
1,1,0.01575,0.00984,0.00787*
%
%ADD34ROUNDEDRECTD34*%
G04:AMPARAMS|DCode=35|XSize=35.43mil|YSize=31.5mil|CornerRadius=7.87mil|HoleSize=0mil|Usage=FLASHONLY|Rotation=270.000|XOffset=0mil|YOffset=0mil|HoleType=Round|Shape=RoundedRectangle|*
%AMROUNDEDRECTD35*
21,1,0.03543,0.01575,0,0,270.0*
21,1,0.01968,0.03150,0,0,270.0*
1,1,0.01575,-0.00787,-0.00984*
1,1,0.01575,-0.00787,0.00984*
1,1,0.01575,0.00787,0.00984*
1,1,0.01575,0.00787,-0.00984*
%
%ADD35ROUNDEDRECTD35*%
%ADD36R,0.09449X0.03937*%
%ADD37R,0.09449X0.12992*%
%ADD38R,0.21260X0.24410*%
%ADD39R,0.03937X0.08268*%
%ADD40R,0.07087X0.04528*%
%ADD41R,0.04528X0.07087*%
%ADD42R,0.03740X0.05512*%
D20*
X-316976Y-111370D02*
D03*
X-307921D02*
D03*
X-298866D02*
D03*
D21*
X-307921Y-88535D02*
D03*
D22*
X-301685Y-163543D02*
D03*
Y-172598D02*
D03*
Y-181653D02*
D03*
X-145717Y-106095D02*
D03*
Y-115150D02*
D03*
Y-124205D02*
D03*
X-100474Y-43752D02*
D03*
Y-34697D02*
D03*
Y-25642D02*
D03*
X-208221Y-122189D02*
D03*
Y-113134D02*
D03*
Y-104079D02*
D03*
X-154299Y-58441D02*
D03*
Y-49386D02*
D03*
Y-40331D02*
D03*
D23*
X-278850Y-172598D02*
D03*
X-122882Y-115150D02*
D03*
X-123308Y-34697D02*
D03*
X-231055Y-113134D02*
D03*
X-177134Y-49386D02*
D03*
D24*
X-203842Y-40709D02*
D03*
Y-65118D02*
D03*
X-240630Y-174221D02*
D03*
Y-149811D02*
D03*
X-337638Y-180520D02*
D03*
Y-156110D02*
D03*
X-281449Y-140709D02*
D03*
Y-116299D02*
D03*
X-344189Y-121055D02*
D03*
Y-96646D02*
D03*
X-262047Y-181024D02*
D03*
Y-156614D02*
D03*
X-126992Y-65402D02*
D03*
Y-89811D02*
D03*
D25*
X-188472Y-38213D02*
D03*
Y-51992D02*
D03*
X-135055Y-27126D02*
D03*
Y-40905D02*
D03*
X-167811Y-106496D02*
D03*
Y-120276D02*
D03*
X-157228Y-113134D02*
D03*
Y-126913D02*
D03*
X-188472Y-106496D02*
D03*
Y-120276D02*
D03*
X-321512Y-169488D02*
D03*
Y-183268D02*
D03*
X-297323Y-122874D02*
D03*
Y-136653D02*
D03*
X-287496Y-88606D02*
D03*
Y-102386D02*
D03*
X-177890Y-120276D02*
D03*
Y-106496D02*
D03*
D26*
X-182875Y-69260D02*
D03*
X-169096D02*
D03*
X-111787Y-54425D02*
D03*
X-125567D02*
D03*
X-303031Y-153197D02*
D03*
X-316811D02*
D03*
D27*
X-100535Y-92150D02*
D03*
Y-111441D02*
D03*
X-254236Y-102984D02*
D03*
Y-122276D02*
D03*
X-100284Y-55614D02*
D03*
Y-74906D02*
D03*
X-145638Y-70480D02*
D03*
Y-89772D02*
D03*
X-84158Y-111441D02*
D03*
Y-92150D02*
D03*
X-83906Y-55685D02*
D03*
Y-74976D02*
D03*
X-84661Y-183504D02*
D03*
Y-164213D02*
D03*
X-144378Y-192071D02*
D03*
Y-172780D02*
D03*
D28*
X-171732Y-91465D02*
D03*
X-196142D02*
D03*
X-232457Y-86173D02*
D03*
X-256866D02*
D03*
X-333213Y-136819D02*
D03*
X-308803D02*
D03*
D29*
X-113134Y-118331D02*
D03*
Y-110457D02*
D03*
X-112630Y-64095D02*
D03*
Y-71969D02*
D03*
X-157732Y-98362D02*
D03*
Y-106236D02*
D03*
X-90205Y-36126D02*
D03*
Y-44000D02*
D03*
X-198047Y-117071D02*
D03*
Y-109197D02*
D03*
X-143883Y-50307D02*
D03*
Y-58181D02*
D03*
X-311937Y-172252D02*
D03*
Y-164378D02*
D03*
D30*
X-376842Y-169165D02*
D03*
Y-158260D02*
D03*
Y-147354D02*
D03*
Y-136449D02*
D03*
Y-125543D02*
D03*
Y-114638D02*
D03*
Y-103732D02*
D03*
Y-92827D02*
D03*
X-442276Y-98280D02*
D03*
Y-109185D02*
D03*
Y-120091D02*
D03*
Y-130996D02*
D03*
Y-141902D02*
D03*
Y-152807D02*
D03*
Y-163713D02*
D03*
D31*
X-490882Y-33161D02*
D03*
X-510882D02*
D03*
X-490882Y-43161D02*
D03*
X-510882D02*
D03*
X-490882Y-53161D02*
D03*
X-510882D02*
D03*
X-490882Y-63161D02*
D03*
X-510882D02*
D03*
X-490882Y-73161D02*
D03*
X-510882D02*
D03*
X-490882Y-83161D02*
D03*
X-510882D02*
D03*
X-490882Y-93161D02*
D03*
X-510882D02*
D03*
X-490882Y-103161D02*
D03*
X-510882D02*
D03*
X-490882Y-113161D02*
D03*
X-510882D02*
D03*
X-490882Y-123161D02*
D03*
X-510882D02*
D03*
X-490882Y-133161D02*
D03*
X-510882D02*
D03*
X-490882Y-143161D02*
D03*
X-510882D02*
D03*
X-490882Y-153161D02*
D03*
X-510882D02*
D03*
X-490882Y-163161D02*
D03*
X-510882D02*
D03*
X-490882Y-173161D02*
D03*
X-510882D02*
D03*
X-490882Y-183161D02*
D03*
X-510882D02*
D03*
X-490882Y-193161D02*
D03*
X-510882D02*
D03*
X-490882Y-203161D02*
D03*
X-510882D02*
D03*
X-52220D02*
D03*
X-32221D02*
D03*
X-52220Y-193161D02*
D03*
X-32221D02*
D03*
X-52220Y-183161D02*
D03*
X-32221D02*
D03*
X-52220Y-173161D02*
D03*
X-32221D02*
D03*
X-52220Y-163161D02*
D03*
X-32221D02*
D03*
X-52220Y-153161D02*
D03*
X-32221D02*
D03*
X-52220Y-143161D02*
D03*
X-32221D02*
D03*
X-52220Y-133161D02*
D03*
X-32221D02*
D03*
X-52220Y-123161D02*
D03*
X-32221D02*
D03*
X-52220Y-113161D02*
D03*
X-32221D02*
D03*
X-52220Y-103161D02*
D03*
X-32221D02*
D03*
X-52220Y-93161D02*
D03*
X-32221D02*
D03*
X-52220Y-83161D02*
D03*
X-32221D02*
D03*
X-52220Y-73161D02*
D03*
X-32221D02*
D03*
X-52220Y-63161D02*
D03*
X-32221D02*
D03*
X-52220Y-53161D02*
D03*
X-32221D02*
D03*
X-52220Y-43161D02*
D03*
X-32221D02*
D03*
X-52220Y-33161D02*
D03*
X-32221D02*
D03*
D32*
X-345260Y-61606D02*
D03*
X-348410D02*
D03*
X-351559D02*
D03*
X-354709D02*
D03*
Y-67905D02*
D03*
X-351559D02*
D03*
X-348410D02*
D03*
X-345260D02*
D03*
D33*
X-239764Y-49134D02*
D03*
X-251575D02*
D03*
Y-59716D02*
D03*
X-239764D02*
D03*
Y-70299D02*
D03*
X-251575D02*
D03*
D34*
X-217701Y-59701D02*
D03*
Y-54189D02*
D03*
X-132283Y-173118D02*
D03*
Y-178630D02*
D03*
X-184189Y-182945D02*
D03*
Y-188457D02*
D03*
D35*
X-270850Y-102299D02*
D03*
X-265339D02*
D03*
X-354031Y-81386D02*
D03*
X-359543D02*
D03*
X-342945Y-81638D02*
D03*
X-348457D02*
D03*
D36*
X-122283Y-165811D02*
D03*
Y-174866D02*
D03*
Y-183921D02*
D03*
D37*
X-99449Y-174866D02*
D03*
D38*
X-166803Y-167374D02*
D03*
D39*
X-157807Y-193949D02*
D03*
X-175799Y-193949D02*
D03*
D40*
X-241890Y-119095D02*
D03*
Y-107677D02*
D03*
X-160504Y-79535D02*
D03*
Y-68118D02*
D03*
X-327811Y-103646D02*
D03*
Y-115063D02*
D03*
D41*
X-277000Y-153197D02*
D03*
X-288417D02*
D03*
D42*
X-314110Y-121953D02*
D03*
X-306236D02*
D03*
M02*
