G04*
G04 #@! TF.GenerationSoftware,Altium Limited,Altium Designer,22.4.2 (48)*
G04*
G04 Layer_Color=16711935*
%FSLAX25Y25*%
%MOIN*%
G70*
G04*
G04 #@! TF.SameCoordinates,421A6CFD-42A5-4949-9806-1936DAB1B3F0*
G04*
G04*
G04 #@! TF.FilePolarity,Positive*
G04*
G01*
G75*
%ADD11C,0.00591*%
%ADD12C,0.01000*%
D11*
X241000Y28201D02*
G03*
X241000Y28201I-9252J0D01*
G01*
X344150D02*
G03*
X344150Y28201I-13976J0D01*
G01*
X462850Y39370D02*
G03*
X462850Y39370I-4134J0D01*
G01*
Y98425D02*
G03*
X462850Y98425I-4134J0D01*
G01*
Y157480D02*
G03*
X462850Y157480I-4134J0D01*
G01*
X-61024D02*
G03*
X-61024Y157480I-4134J0D01*
G01*
Y98425D02*
G03*
X-61024Y98425I-4134J0D01*
G01*
Y39370D02*
G03*
X-61024Y39370I-4134J0D01*
G01*
X363981Y-9843D02*
G03*
X363981Y-9843I-4134J0D01*
G01*
X255269D02*
G03*
X255269Y-9843I-4134J0D01*
G01*
X146557D02*
G03*
X146557Y-9843I-4134J0D01*
G01*
X37846D02*
G03*
X37846Y-9843I-4134J0D01*
G01*
Y206693D02*
G03*
X37846Y206693I-4134J0D01*
G01*
X146557D02*
G03*
X146557Y206693I-4134J0D01*
G01*
X255269D02*
G03*
X255269Y206693I-4134J0D01*
G01*
X363981D02*
G03*
X363981Y206693I-4134J0D01*
G01*
D12*
X66394Y19933D02*
X97890D01*
X66394Y36468D02*
X97890D01*
Y19933D02*
Y36468D01*
X66394Y19933D02*
Y36468D01*
X40063Y74079D02*
Y174110D01*
X321512D01*
Y74079D02*
Y174110D01*
X40063Y74079D02*
X321512D01*
X-75000Y216535D02*
X468559D01*
Y-19685D02*
Y216535D01*
X-75000Y-19685D02*
X468559D01*
X-75000D02*
Y216535D01*
M02*
