G04*
G04 #@! TF.GenerationSoftware,Altium Limited,Altium Designer,21.8.1 (53)*
G04*
G04 Layer_Physical_Order=1*
G04 Layer_Color=255*
%FSLAX25Y25*%
%MOIN*%
G70*
G04*
G04 #@! TF.SameCoordinates,924E8805-32EE-4984-9886-3D9EEA8973F8*
G04*
G04*
G04 #@! TF.FilePolarity,Positive*
G04*
G01*
G75*
%ADD21R,0.08858X0.09252*%
%ADD22R,0.05512X0.03740*%
%ADD23R,0.06890X0.03937*%
G04:AMPARAMS|DCode=24|XSize=59.06mil|YSize=157.48mil|CornerRadius=14.76mil|HoleSize=0mil|Usage=FLASHONLY|Rotation=270.000|XOffset=0mil|YOffset=0mil|HoleType=Round|Shape=RoundedRectangle|*
%AMROUNDEDRECTD24*
21,1,0.05906,0.12795,0,0,270.0*
21,1,0.02953,0.15748,0,0,270.0*
1,1,0.02953,-0.06398,-0.01476*
1,1,0.02953,-0.06398,0.01476*
1,1,0.02953,0.06398,0.01476*
1,1,0.02953,0.06398,-0.01476*
%
%ADD24ROUNDEDRECTD24*%
G04:AMPARAMS|DCode=25|XSize=40.16mil|YSize=125.98mil|CornerRadius=10.04mil|HoleSize=0mil|Usage=FLASHONLY|Rotation=270.000|XOffset=0mil|YOffset=0mil|HoleType=Round|Shape=RoundedRectangle|*
%AMROUNDEDRECTD25*
21,1,0.04016,0.10591,0,0,270.0*
21,1,0.02008,0.12598,0,0,270.0*
1,1,0.02008,-0.05295,-0.01004*
1,1,0.02008,-0.05295,0.01004*
1,1,0.02008,0.05295,0.01004*
1,1,0.02008,0.05295,-0.01004*
%
%ADD25ROUNDEDRECTD25*%
%ADD26R,0.03150X0.01575*%
G04:AMPARAMS|DCode=27|XSize=39.37mil|YSize=62.99mil|CornerRadius=9.84mil|HoleSize=0mil|Usage=FLASHONLY|Rotation=270.000|XOffset=0mil|YOffset=0mil|HoleType=Round|Shape=RoundedRectangle|*
%AMROUNDEDRECTD27*
21,1,0.03937,0.04331,0,0,270.0*
21,1,0.01968,0.06299,0,0,270.0*
1,1,0.01968,-0.02165,-0.00984*
1,1,0.01968,-0.02165,0.00984*
1,1,0.01968,0.02165,0.00984*
1,1,0.01968,0.02165,-0.00984*
%
%ADD27ROUNDEDRECTD27*%
G04:AMPARAMS|DCode=28|XSize=35.43mil|YSize=31.5mil|CornerRadius=7.87mil|HoleSize=0mil|Usage=FLASHONLY|Rotation=0.000|XOffset=0mil|YOffset=0mil|HoleType=Round|Shape=RoundedRectangle|*
%AMROUNDEDRECTD28*
21,1,0.03543,0.01575,0,0,0.0*
21,1,0.01968,0.03150,0,0,0.0*
1,1,0.01575,0.00984,-0.00787*
1,1,0.01575,-0.00984,-0.00787*
1,1,0.01575,-0.00984,0.00787*
1,1,0.01575,0.00984,0.00787*
%
%ADD28ROUNDEDRECTD28*%
%ADD29R,0.09252X0.08858*%
%ADD30R,0.03937X0.06890*%
%ADD31R,0.09449X0.03937*%
%ADD32R,0.09449X0.12992*%
%ADD33R,0.21260X0.24410*%
%ADD34R,0.03937X0.08268*%
%ADD35R,0.03543X0.03150*%
%ADD36R,0.07087X0.04528*%
%ADD37R,0.08465X0.03740*%
%ADD38R,0.08465X0.12795*%
%ADD39R,0.04528X0.07087*%
%ADD59C,0.03937*%
%ADD60C,0.01968*%
%ADD61C,0.01575*%
%ADD62C,0.05906*%
%ADD63C,0.07874*%
G36*
X-150972Y-42524D02*
X-154415D01*
Y-41110D01*
X-164454D01*
Y-42524D01*
X-177249D01*
Y-37047D01*
X-164454D01*
Y-37370D01*
X-162385D01*
X-162319Y-37398D01*
X-161600Y-37492D01*
X-159434D01*
X-158715Y-37398D01*
X-158649Y-37370D01*
X-154415D01*
Y-35874D01*
X-150972D01*
Y-42524D01*
D02*
G37*
G36*
X-116497Y-36336D02*
X-119110Y-38949D01*
X-120465D01*
X-120639Y-38984D01*
X-123126D01*
X-123396Y-38715D01*
X-123982Y-38323D01*
X-124673Y-38186D01*
X-131098D01*
Y-35874D01*
X-116688D01*
X-116497Y-36336D01*
D02*
G37*
G36*
X-218742Y-33943D02*
Y-40555D01*
X-219454D01*
Y-45870D01*
X-216649D01*
X-216583Y-45897D01*
X-215863Y-45992D01*
X-214434D01*
X-213715Y-45897D01*
X-213649Y-45870D01*
X-209415D01*
Y-40555D01*
X-213182D01*
Y-37047D01*
X-187289D01*
Y-50953D01*
X-177249D01*
Y-46137D01*
X-164454D01*
Y-46425D01*
X-154415D01*
Y-46137D01*
X-152709D01*
Y-47854D01*
X-145622D01*
Y-45094D01*
X-143812Y-43283D01*
X-143812Y-43283D01*
X-142327Y-41798D01*
X-141532D01*
Y-45406D01*
X-131098D01*
Y-41798D01*
X-125681D01*
Y-44496D01*
X-117217D01*
Y-42121D01*
X-117085Y-42033D01*
X-113194Y-38142D01*
X-25953D01*
Y-57496D01*
X-113134D01*
Y-57496D01*
X-117217D01*
Y-57496D01*
Y-52764D01*
X-123126D01*
X-124282Y-51609D01*
X-124868Y-51217D01*
X-125559Y-51079D01*
X-141478D01*
X-142169Y-51217D01*
X-142240Y-51265D01*
X-145622D01*
Y-50413D01*
X-152709D01*
Y-50707D01*
X-154415D01*
Y-50165D01*
X-164454D01*
Y-53534D01*
X-164489Y-53709D01*
Y-55981D01*
X-164935Y-56427D01*
X-165538Y-56377D01*
X-165798Y-56203D01*
X-166105Y-56142D01*
X-177935D01*
X-178243Y-56203D01*
X-178503Y-56377D01*
X-178677Y-56638D01*
X-178677Y-56638D01*
X-178868Y-57100D01*
X-178868Y-57100D01*
X-178929Y-57407D01*
X-178868Y-57714D01*
X-178694Y-57974D01*
X-177033Y-59636D01*
X-176688Y-60086D01*
X-176491Y-60561D01*
X-176474Y-60691D01*
X-176911Y-61191D01*
X-181069D01*
X-184269Y-57991D01*
X-184529Y-57818D01*
X-184836Y-57756D01*
X-197864D01*
X-197864Y-57756D01*
X-198171Y-57818D01*
X-198431Y-57991D01*
X-198431Y-57991D01*
X-198809Y-58369D01*
X-198809Y-58369D01*
X-198983Y-58629D01*
X-199044Y-58936D01*
X-199435Y-59398D01*
X-200308D01*
Y-58547D01*
X-207395D01*
Y-60172D01*
X-209415D01*
Y-58665D01*
X-219454D01*
Y-63980D01*
X-217768D01*
Y-66035D01*
X-218718D01*
Y-70020D01*
X-226986D01*
X-227293Y-70081D01*
X-227553Y-70255D01*
X-227727Y-70516D01*
X-227753Y-70646D01*
X-231730D01*
X-231756Y-70516D01*
X-231930Y-70255D01*
X-232190Y-70081D01*
X-232497Y-70020D01*
X-245689D01*
X-246192Y-69517D01*
X-246160Y-69469D01*
X-246099Y-69165D01*
X-245942Y-68786D01*
X-245848Y-68067D01*
Y-42974D01*
X-232476Y-29603D01*
X-223082D01*
X-218742Y-33943D01*
D02*
G37*
G36*
X-317161Y-55476D02*
Y-60598D01*
X-317627Y-60682D01*
X-322023D01*
X-326534Y-56172D01*
X-327120Y-55780D01*
X-327811Y-55642D01*
X-341827D01*
Y-54413D01*
X-318225D01*
X-317161Y-55476D01*
D02*
G37*
G36*
X-350291Y-55862D02*
X-347325D01*
X-347118Y-56362D01*
X-354207Y-63452D01*
X-354669Y-63261D01*
Y-55835D01*
X-352303D01*
Y-54899D01*
X-350291D01*
Y-55862D01*
D02*
G37*
G36*
X-126059Y-58299D02*
X-25953D01*
Y-78205D01*
X-113787D01*
X-122579Y-86996D01*
X-133559D01*
Y-86996D01*
X-134975Y-88412D01*
X-136705Y-90142D01*
X-174386D01*
X-174662Y-89783D01*
X-175238Y-89341D01*
X-175908Y-89063D01*
X-176627Y-88968D01*
X-187551D01*
X-188107Y-88412D01*
X-188682Y-87971D01*
X-189119Y-87790D01*
Y-87622D01*
X-189892D01*
X-190072Y-87598D01*
X-202210D01*
X-202929Y-87693D01*
X-203600Y-87971D01*
X-204175Y-88412D01*
X-204250Y-88487D01*
X-204659Y-88433D01*
X-204905D01*
X-205096Y-87971D01*
X-203622Y-86496D01*
X-203021Y-86417D01*
X-202350Y-86140D01*
X-202183Y-86011D01*
X-202141Y-86003D01*
X-201621Y-85655D01*
X-201273Y-85134D01*
X-201212Y-84830D01*
X-201055Y-84452D01*
X-200960Y-83732D01*
X-201055Y-83013D01*
X-201212Y-82634D01*
X-201273Y-82330D01*
X-201621Y-81810D01*
X-202141Y-81462D01*
X-202183Y-81453D01*
X-202350Y-81325D01*
X-203021Y-81047D01*
X-203740Y-80953D01*
X-204789D01*
X-205508Y-81047D01*
X-206179Y-81325D01*
X-206754Y-81767D01*
X-210969Y-85981D01*
X-213182Y-83768D01*
Y-82268D01*
X-213206Y-82087D01*
Y-78035D01*
X-218718D01*
Y-82087D01*
X-218742Y-82268D01*
Y-82323D01*
X-226986D01*
Y-78035D01*
X-232497D01*
Y-82323D01*
X-248447D01*
X-248627Y-82299D01*
X-249140D01*
X-249627Y-81812D01*
Y-70823D01*
X-248808D01*
X-248627Y-70847D01*
X-248447Y-70823D01*
X-232497D01*
Y-74500D01*
X-226986D01*
Y-70823D01*
X-218718D01*
Y-74500D01*
X-213206D01*
Y-72074D01*
X-208319D01*
Y-74378D01*
X-202217D01*
Y-65716D01*
X-204368D01*
X-204559Y-65255D01*
X-203167Y-63862D01*
X-200308D01*
Y-63011D01*
X-189197D01*
X-188299Y-63909D01*
Y-66079D01*
X-183181D01*
Y-61354D01*
X-185745D01*
X-187171Y-59927D01*
X-187758Y-59536D01*
X-188449Y-59398D01*
X-198050D01*
X-198241Y-58936D01*
X-197864Y-58559D01*
X-184836D01*
X-181173Y-62222D01*
Y-64089D01*
X-181079Y-64808D01*
X-180984Y-65038D01*
Y-65307D01*
X-180861Y-65922D01*
X-180513Y-66443D01*
X-179992Y-66790D01*
X-179378Y-66913D01*
X-177409D01*
X-176795Y-66790D01*
X-176274Y-66443D01*
X-175926Y-65922D01*
X-175804Y-65307D01*
Y-65038D01*
X-175709Y-64808D01*
X-175614Y-64089D01*
Y-61071D01*
X-175709Y-60351D01*
X-175986Y-59681D01*
X-176428Y-59105D01*
X-178127Y-57407D01*
X-177935Y-56945D01*
X-166105D01*
X-165914Y-57407D01*
X-168854Y-60347D01*
X-171417D01*
Y-65071D01*
X-166299D01*
Y-62901D01*
X-163753Y-60355D01*
X-163291Y-60546D01*
Y-64831D01*
X-156205D01*
Y-59516D01*
X-157942D01*
Y-56945D01*
X-126059D01*
Y-58299D01*
D02*
G37*
G36*
X-324049Y-63766D02*
X-323463Y-64157D01*
X-322772Y-64295D01*
X-306170D01*
X-304646Y-65818D01*
Y-68579D01*
X-303795D01*
Y-70358D01*
X-305433D01*
Y-74245D01*
X-307122D01*
Y-73394D01*
X-317161D01*
Y-75193D01*
X-351670Y-75193D01*
X-351977Y-75254D01*
X-352238Y-75428D01*
X-352238Y-75428D01*
X-352494Y-75685D01*
X-352654D01*
X-354669Y-73669D01*
Y-69614D01*
X-352303D01*
Y-66657D01*
X-344901Y-59255D01*
X-328559D01*
X-324049Y-63766D01*
D02*
G37*
G36*
X-267885Y-85410D02*
Y-95476D01*
X-267748Y-96168D01*
X-267356Y-96754D01*
X-264059Y-100051D01*
Y-101291D01*
X-270209D01*
X-271719Y-99782D01*
X-272305Y-99390D01*
X-272996Y-99253D01*
X-273302D01*
X-273993Y-99390D01*
X-274088Y-99453D01*
X-278152D01*
X-278152Y-99453D01*
X-278494Y-99521D01*
X-278677Y-99485D01*
X-288803D01*
X-290450Y-97838D01*
Y-97213D01*
X-290572Y-96598D01*
X-290920Y-96077D01*
X-291441Y-95729D01*
X-292055Y-95607D01*
X-294024D01*
X-294638Y-95729D01*
X-295159Y-96077D01*
X-295237Y-96194D01*
X-297022D01*
X-297559Y-95835D01*
Y-93941D01*
X-304646D01*
Y-94792D01*
X-307122D01*
Y-92839D01*
X-314595D01*
X-318724Y-88709D01*
X-318532Y-88247D01*
X-317161D01*
Y-89098D01*
X-307122D01*
Y-83784D01*
X-317161D01*
Y-84635D01*
X-343504D01*
X-344195Y-84772D01*
X-344781Y-85164D01*
X-345614Y-85996D01*
X-350059D01*
X-350089Y-86026D01*
X-353896Y-82219D01*
X-354482Y-81827D01*
X-355173Y-81690D01*
X-358197D01*
X-358888Y-81827D01*
X-359029Y-81921D01*
X-360559D01*
Y-85071D01*
X-359029D01*
X-358888Y-85165D01*
X-358197Y-85302D01*
X-355922D01*
X-352643Y-88580D01*
X-356465Y-92402D01*
X-360012D01*
Y-95949D01*
X-362559Y-98496D01*
X-363477D01*
X-363668Y-98034D01*
X-363219Y-97584D01*
X-362827Y-96998D01*
X-362690Y-96307D01*
Y-85071D01*
X-362134D01*
Y-82421D01*
X-362134Y-81921D01*
X-362134D01*
Y-81921D01*
X-362134D01*
Y-78772D01*
Y-75996D01*
X-360559D01*
Y-78772D01*
X-359029D01*
X-358888Y-78866D01*
X-358197Y-79003D01*
X-355425D01*
X-354734Y-78866D01*
X-354148Y-78474D01*
X-351670Y-75996D01*
X-317161Y-75996D01*
Y-78709D01*
X-307122D01*
Y-77858D01*
X-303482D01*
X-302791Y-77720D01*
X-302205Y-77328D01*
X-301597Y-76720D01*
X-301423Y-76461D01*
X-296772D01*
Y-75070D01*
X-295094D01*
Y-75480D01*
X-289976D01*
Y-70756D01*
X-295094D01*
Y-71457D01*
X-296772D01*
Y-70358D01*
X-300182D01*
Y-68579D01*
X-297559D01*
Y-63264D01*
X-300721D01*
X-300912Y-62802D01*
X-300095Y-61984D01*
X-291311D01*
X-267885Y-85410D01*
D02*
G37*
G36*
X-276658Y-62510D02*
X-276216Y-63085D01*
X-264059Y-75242D01*
Y-83595D01*
X-264559Y-83747D01*
X-264802Y-83384D01*
X-285739Y-62446D01*
X-285548Y-61984D01*
X-276875D01*
X-276658Y-62510D01*
D02*
G37*
G36*
X-227788Y-82323D02*
X-227727Y-82630D01*
X-227553Y-82890D01*
X-227293Y-83065D01*
X-226986Y-83126D01*
X-218742D01*
Y-88555D01*
X-219454D01*
Y-93870D01*
X-216649D01*
X-216583Y-93897D01*
X-215863Y-93992D01*
X-205317D01*
X-205260Y-94016D01*
X-204541Y-94110D01*
X-203163D01*
X-202443Y-94016D01*
X-202377Y-93988D01*
X-200308D01*
Y-93158D01*
X-191224D01*
X-190668Y-93713D01*
X-190092Y-94155D01*
X-189422Y-94433D01*
X-188702Y-94528D01*
X-187182D01*
Y-96017D01*
X-201584D01*
X-202275Y-96154D01*
X-202861Y-96545D01*
X-202863Y-96547D01*
X-207395D01*
Y-99916D01*
X-207430Y-100091D01*
Y-102126D01*
X-211969Y-106665D01*
X-219454D01*
Y-111980D01*
X-209415D01*
Y-109220D01*
X-206159Y-105964D01*
X-197584D01*
Y-106913D01*
X-189119D01*
Y-101402D01*
X-197584D01*
Y-102351D01*
X-200282D01*
X-200308Y-101862D01*
X-200308D01*
Y-99629D01*
X-187182D01*
Y-100528D01*
X-178521D01*
Y-99283D01*
X-173499D01*
X-172807Y-99145D01*
X-172221Y-98754D01*
X-170826Y-97358D01*
X-168400D01*
X-168143Y-97809D01*
X-179525Y-109191D01*
X-179917Y-109777D01*
X-179959Y-109988D01*
X-186516D01*
Y-111580D01*
X-206362D01*
X-207053Y-111717D01*
X-207640Y-112109D01*
X-211079Y-115548D01*
X-213441D01*
X-213615Y-115583D01*
X-218657D01*
Y-121095D01*
X-210193D01*
Y-119133D01*
X-209639Y-119023D01*
X-209053Y-118632D01*
X-205614Y-115192D01*
X-192127D01*
X-191877Y-115692D01*
X-192004Y-115862D01*
X-196299D01*
Y-121177D01*
X-189213D01*
Y-119348D01*
X-189178Y-119173D01*
Y-118382D01*
X-186099Y-115303D01*
X-176476D01*
Y-111934D01*
X-176442Y-111760D01*
Y-111217D01*
X-163542Y-98317D01*
X-163150Y-97731D01*
X-163113Y-97545D01*
X-162634Y-97420D01*
X-162605Y-97420D01*
X-161929Y-97554D01*
X-159764D01*
Y-98405D01*
X-153807D01*
X-149862Y-102351D01*
X-148587Y-103626D01*
Y-106705D01*
X-145508D01*
X-145176Y-107036D01*
Y-123220D01*
X-150906Y-128949D01*
X-176476D01*
Y-128098D01*
X-186516D01*
Y-128949D01*
X-187645D01*
X-189178Y-127417D01*
Y-127279D01*
X-189213Y-127105D01*
Y-123736D01*
X-196299D01*
Y-127105D01*
X-196334Y-127279D01*
Y-127417D01*
X-198139Y-129222D01*
X-198602Y-129362D01*
Y-129362D01*
X-198602Y-129362D01*
X-207067D01*
Y-130312D01*
X-210193D01*
Y-129362D01*
X-218657D01*
Y-130772D01*
X-224244D01*
X-248843Y-106173D01*
Y-85571D01*
X-248342Y-85364D01*
X-248194Y-85512D01*
X-232968D01*
Y-83126D01*
X-232497D01*
X-232190Y-83065D01*
X-231930Y-82890D01*
X-231756Y-82630D01*
X-231695Y-82323D01*
Y-78838D01*
X-227788D01*
Y-82323D01*
D02*
G37*
G36*
X-373795Y-75996D02*
X-371371Y-78420D01*
X-371309Y-78765D01*
Y-78980D01*
X-371443Y-79069D01*
X-375852Y-83479D01*
X-376244Y-84065D01*
X-376381Y-84756D01*
Y-89042D01*
X-381559D01*
Y-77996D01*
X-379559Y-75996D01*
X-373795D01*
D02*
G37*
G36*
X-25953Y-96641D02*
X-26308Y-96992D01*
X-151118Y-95748D01*
Y-90945D01*
X-136705D01*
X-136705Y-90945D01*
X-136398Y-90884D01*
X-136138Y-90710D01*
X-134408Y-88980D01*
X-134408Y-88980D01*
X-133227Y-87799D01*
X-122579D01*
X-122272Y-87738D01*
X-122011Y-87564D01*
X-122011Y-87564D01*
X-113455Y-79008D01*
X-25953D01*
Y-96641D01*
D02*
G37*
G36*
X-366858Y-85071D02*
X-366302D01*
Y-95559D01*
X-369240Y-98496D01*
X-381559D01*
Y-96611D01*
X-370445D01*
X-369562Y-96436D01*
X-368813Y-95935D01*
X-368313Y-95186D01*
X-368137Y-94303D01*
Y-91350D01*
X-368313Y-90467D01*
X-368813Y-89718D01*
X-369562Y-89218D01*
X-370445Y-89042D01*
X-372768D01*
Y-85504D01*
X-369417Y-82153D01*
X-366858D01*
Y-85071D01*
D02*
G37*
G36*
X-307741Y-98405D02*
X-304646D01*
Y-99256D01*
X-300391D01*
X-300217Y-99291D01*
X-299021D01*
X-298455Y-99669D01*
X-297764Y-99806D01*
X-295237D01*
X-295159Y-99923D01*
X-294638Y-100271D01*
X-294024Y-100393D01*
X-293004D01*
X-292568Y-100829D01*
X-292759Y-101291D01*
X-306142D01*
X-308783Y-98650D01*
X-308778Y-98638D01*
X-308432Y-98267D01*
X-307741Y-98405D01*
D02*
G37*
G36*
X-319527Y-88709D02*
X-319466Y-89016D01*
X-319291Y-89277D01*
X-315162Y-93406D01*
X-314902Y-93580D01*
X-314595Y-93641D01*
X-307925D01*
Y-94792D01*
X-307864Y-95099D01*
X-307690Y-95360D01*
X-307429Y-95534D01*
X-307122Y-95595D01*
X-304646D01*
X-304338Y-95534D01*
X-304078Y-95360D01*
X-303904Y-95099D01*
X-303843Y-94792D01*
Y-94744D01*
X-298362D01*
Y-95835D01*
X-298346Y-95912D01*
Y-95991D01*
X-298316Y-96065D01*
X-298301Y-96142D01*
X-298257Y-96208D01*
X-298227Y-96281D01*
X-298171Y-96337D01*
X-298127Y-96403D01*
X-298061Y-96447D01*
X-298005Y-96502D01*
X-297468Y-96861D01*
X-297395Y-96891D01*
X-297329Y-96935D01*
X-297252Y-96951D01*
X-297179Y-96981D01*
X-297100D01*
X-297022Y-96996D01*
X-295237D01*
X-295159Y-96981D01*
X-295080D01*
X-295007Y-96951D01*
X-294930Y-96935D01*
X-294864Y-96891D01*
X-294791Y-96861D01*
X-294735Y-96805D01*
X-294669Y-96761D01*
X-294625Y-96696D01*
X-294597Y-96667D01*
X-294325Y-96485D01*
X-293945Y-96410D01*
X-292134D01*
X-291754Y-96485D01*
X-291499Y-96656D01*
X-291328Y-96911D01*
X-291252Y-97292D01*
Y-97838D01*
X-291191Y-98146D01*
X-291017Y-98406D01*
X-289371Y-100053D01*
X-289110Y-100227D01*
X-288803Y-100288D01*
X-283374D01*
X-283183Y-100750D01*
X-286382Y-103949D01*
X-288803D01*
Y-105194D01*
X-296941D01*
X-297559Y-104575D01*
Y-102094D01*
X-292759D01*
X-292452Y-102033D01*
X-292191Y-101859D01*
X-292017Y-101599D01*
X-291826Y-101137D01*
X-291765Y-100829D01*
X-291826Y-100522D01*
X-292000Y-100262D01*
X-292436Y-99825D01*
X-292697Y-99651D01*
X-293004Y-99590D01*
X-293945D01*
X-294325Y-99515D01*
X-294597Y-99333D01*
X-294625Y-99304D01*
X-294669Y-99239D01*
X-294735Y-99195D01*
X-294791Y-99139D01*
X-294864Y-99109D01*
X-294930Y-99065D01*
X-295007Y-99049D01*
X-295080Y-99019D01*
X-295159D01*
X-295237Y-99003D01*
X-297685D01*
X-298142Y-98913D01*
X-298575Y-98623D01*
X-298648Y-98593D01*
X-298714Y-98549D01*
X-298792Y-98533D01*
X-298865Y-98503D01*
X-298944D01*
X-299021Y-98488D01*
X-300137D01*
X-300234Y-98469D01*
X-300313D01*
X-300391Y-98453D01*
X-303843D01*
Y-98405D01*
X-303904Y-98098D01*
X-304078Y-97837D01*
X-304338Y-97663D01*
X-304646Y-97602D01*
X-307662D01*
X-308275Y-97480D01*
X-308368D01*
X-308459Y-97465D01*
X-308523Y-97480D01*
X-308589D01*
X-308674Y-97515D01*
X-308764Y-97536D01*
X-308817Y-97575D01*
X-308878Y-97600D01*
X-308943Y-97665D01*
X-309019Y-97719D01*
X-309364Y-98090D01*
X-309440Y-98211D01*
X-309519Y-98330D01*
X-309524Y-98343D01*
X-309524Y-98343D01*
X-309525Y-98343D01*
X-309526Y-98351D01*
X-309529Y-98356D01*
X-309540Y-98420D01*
X-309556Y-98500D01*
X-309586Y-98650D01*
X-309586Y-98650D01*
X-309586Y-98650D01*
X-309556Y-98799D01*
X-309525Y-98957D01*
X-309525Y-98957D01*
X-309525Y-98957D01*
X-309441Y-99082D01*
X-309351Y-99218D01*
X-309351Y-99218D01*
X-309351Y-99218D01*
X-307175Y-101394D01*
X-307382Y-101894D01*
X-317161D01*
Y-107016D01*
X-317725Y-107580D01*
X-341827D01*
Y-106130D01*
X-350291D01*
Y-110457D01*
X-358197D01*
X-359205Y-109449D01*
Y-97913D01*
X-351547D01*
Y-94956D01*
X-348069Y-91478D01*
X-347847Y-91145D01*
X-347575D01*
X-346960Y-91023D01*
X-346439Y-90675D01*
X-346235Y-90368D01*
X-345625D01*
X-344934Y-90231D01*
X-344348Y-89839D01*
X-342756Y-88247D01*
X-319918D01*
X-319527Y-88709D01*
D02*
G37*
G36*
X-338059Y-138496D02*
X-304024D01*
Y-134646D01*
X-256402D01*
X-232968Y-158079D01*
X-133189D01*
X-122858Y-147748D01*
X-25953D01*
Y-170327D01*
X-259630D01*
Y-165213D01*
X-268494D01*
X-273279Y-160427D01*
Y-154713D01*
X-270146D01*
Y-144280D01*
X-280973D01*
Y-154713D01*
X-278839D01*
Y-161579D01*
X-278744Y-162298D01*
X-278466Y-162969D01*
X-278025Y-163544D01*
X-272314Y-169254D01*
X-272506Y-169716D01*
X-287976D01*
X-288157Y-169740D01*
X-293488D01*
Y-170327D01*
Y-170693D01*
X-353756D01*
Y-156496D01*
X-353756Y-156496D01*
X-353817Y-156189D01*
X-353991Y-155928D01*
X-353991Y-155928D01*
X-368491Y-141428D01*
X-368752Y-141254D01*
X-369059Y-141193D01*
X-381059D01*
Y-110996D01*
X-379059Y-108996D01*
X-367559D01*
X-338059Y-138496D01*
D02*
G37*
G36*
X-260433Y-170327D02*
X-260372Y-170635D01*
X-260198Y-170895D01*
X-259937Y-171069D01*
X-259630Y-171130D01*
X-25953D01*
X-25701Y-171337D01*
Y-186803D01*
X-274756D01*
Y-176996D01*
X-274817Y-176689D01*
X-274991Y-176428D01*
X-276059Y-175361D01*
Y-170519D01*
X-272506D01*
X-272199Y-170458D01*
X-271938Y-170284D01*
X-271764Y-170024D01*
X-271764Y-170024D01*
X-271637Y-169716D01*
X-260433D01*
Y-170327D01*
D02*
G37*
G36*
X-354559Y-156496D02*
Y-171496D01*
X-293488D01*
Y-175252D01*
X-288157D01*
X-287976Y-175276D01*
X-277279D01*
X-275559Y-176996D01*
Y-192996D01*
X-293605D01*
X-293734Y-192829D01*
X-305343Y-181220D01*
Y-175728D01*
X-315776D01*
Y-177602D01*
X-321022D01*
X-321307Y-177383D01*
Y-176650D01*
X-323556D01*
X-323866Y-176609D01*
X-324176Y-176650D01*
X-326819D01*
Y-177685D01*
X-327236Y-178005D01*
X-327432Y-178201D01*
X-328190Y-179188D01*
X-328666Y-180338D01*
X-328828Y-181571D01*
X-328666Y-182804D01*
X-328190Y-183953D01*
X-327432Y-184940D01*
X-326819Y-185411D01*
Y-186492D01*
X-321307D01*
Y-185411D01*
X-320962Y-185146D01*
X-315776D01*
Y-186555D01*
X-310678D01*
X-304698Y-192534D01*
X-304890Y-192996D01*
X-378559D01*
X-381059Y-190496D01*
Y-141996D01*
X-369059D01*
X-354559Y-156496D01*
D02*
G37*
G36*
X-294339Y-193359D02*
X-294243Y-193485D01*
X-294203Y-193520D01*
X-294173Y-193564D01*
X-294086Y-193622D01*
X-294007Y-193691D01*
X-293957Y-193708D01*
X-293913Y-193738D01*
X-293810Y-193758D01*
X-293710Y-193792D01*
X-293657Y-193789D01*
X-293605Y-193799D01*
X-275559D01*
X-275252Y-193738D01*
X-274991Y-193564D01*
X-274817Y-193303D01*
X-274756Y-192996D01*
Y-187606D01*
X-25953D01*
Y-205449D01*
X-308559D01*
Y-193799D01*
X-304890D01*
X-304583Y-193738D01*
X-304322Y-193564D01*
X-304148Y-193303D01*
X-304148Y-193303D01*
X-303957Y-192841D01*
X-303957Y-192841D01*
X-303896Y-192534D01*
X-303932Y-192350D01*
X-303957Y-192227D01*
X-304131Y-191966D01*
X-304131Y-191966D01*
X-308559Y-187538D01*
Y-186299D01*
X-301399D01*
X-294339Y-193359D01*
D02*
G37*
D21*
X-143370Y-101291D02*
D03*
Y-82000D02*
D03*
X-136315Y-39992D02*
D03*
Y-59284D02*
D03*
X-310559Y-181142D02*
D03*
Y-161850D02*
D03*
D22*
X-192756Y-126394D02*
D03*
Y-118520D02*
D03*
X-159748Y-62173D02*
D03*
Y-70047D02*
D03*
X-156220Y-87874D02*
D03*
Y-95748D02*
D03*
X-149165Y-45197D02*
D03*
Y-53071D02*
D03*
X-203852Y-99205D02*
D03*
Y-91331D02*
D03*
Y-53331D02*
D03*
Y-61205D02*
D03*
X-301102Y-96598D02*
D03*
Y-104472D02*
D03*
Y-65921D02*
D03*
Y-58047D02*
D03*
D23*
X-214425Y-118339D02*
D03*
Y-132118D02*
D03*
X-121449Y-55520D02*
D03*
Y-41740D02*
D03*
X-202835Y-118339D02*
D03*
Y-132118D02*
D03*
X-193352Y-90378D02*
D03*
Y-104157D02*
D03*
X-355780Y-108937D02*
D03*
Y-95157D02*
D03*
X-356535Y-53079D02*
D03*
Y-66858D02*
D03*
X-346059Y-66886D02*
D03*
Y-53106D02*
D03*
Y-108886D02*
D03*
Y-95106D02*
D03*
D24*
X-376842Y-169165D02*
D03*
Y-158260D02*
D03*
Y-147354D02*
D03*
Y-136449D02*
D03*
Y-125543D02*
D03*
Y-114638D02*
D03*
Y-103732D02*
D03*
Y-92827D02*
D03*
X-442276Y-98280D02*
D03*
Y-109185D02*
D03*
Y-120091D02*
D03*
Y-130996D02*
D03*
Y-141902D02*
D03*
Y-152807D02*
D03*
Y-163713D02*
D03*
D25*
X-490882Y-33161D02*
D03*
X-510882D02*
D03*
X-490882Y-43161D02*
D03*
X-510882D02*
D03*
X-490882Y-53161D02*
D03*
X-510882D02*
D03*
X-490882Y-63161D02*
D03*
X-510882D02*
D03*
X-490882Y-73161D02*
D03*
X-510882D02*
D03*
X-490882Y-83161D02*
D03*
X-510882D02*
D03*
X-490882Y-93161D02*
D03*
X-510882D02*
D03*
X-490882Y-103161D02*
D03*
X-510882D02*
D03*
X-490882Y-113161D02*
D03*
X-510882D02*
D03*
X-490882Y-123161D02*
D03*
X-510882D02*
D03*
X-490882Y-133161D02*
D03*
X-510882D02*
D03*
X-490882Y-143161D02*
D03*
X-510882D02*
D03*
X-490882Y-153161D02*
D03*
X-510882D02*
D03*
X-490882Y-163161D02*
D03*
X-510882D02*
D03*
X-490882Y-173161D02*
D03*
X-510882D02*
D03*
X-490882Y-183161D02*
D03*
X-510882D02*
D03*
X-490882Y-193161D02*
D03*
X-510882D02*
D03*
X-490882Y-203161D02*
D03*
X-510882D02*
D03*
X-52220D02*
D03*
X-32221D02*
D03*
X-52220Y-193161D02*
D03*
X-32221D02*
D03*
X-52220Y-183161D02*
D03*
X-32221D02*
D03*
X-52220Y-173161D02*
D03*
X-32221D02*
D03*
X-52220Y-163161D02*
D03*
X-32221D02*
D03*
X-52220Y-153161D02*
D03*
X-32221D02*
D03*
X-52220Y-143161D02*
D03*
X-32221D02*
D03*
X-52220Y-133161D02*
D03*
X-32221D02*
D03*
X-52220Y-123161D02*
D03*
X-32221D02*
D03*
X-52220Y-113161D02*
D03*
X-32221D02*
D03*
X-52220Y-103161D02*
D03*
X-32221D02*
D03*
X-52220Y-93161D02*
D03*
X-32221D02*
D03*
X-52220Y-83161D02*
D03*
X-32221D02*
D03*
X-52220Y-73161D02*
D03*
X-32221D02*
D03*
X-52220Y-63161D02*
D03*
X-32221D02*
D03*
X-52220Y-53161D02*
D03*
X-32221D02*
D03*
X-52220Y-43161D02*
D03*
X-32221D02*
D03*
X-52220Y-33161D02*
D03*
X-32221D02*
D03*
D26*
X-364496Y-74047D02*
D03*
Y-77197D02*
D03*
Y-80347D02*
D03*
Y-83496D02*
D03*
X-358197D02*
D03*
Y-80347D02*
D03*
Y-77197D02*
D03*
Y-74047D02*
D03*
D27*
X-254638Y-56646D02*
D03*
Y-44835D02*
D03*
X-264717Y-44835D02*
D03*
Y-56646D02*
D03*
X-274795Y-56646D02*
D03*
Y-44835D02*
D03*
D28*
X-203740Y-83732D02*
D03*
Y-78220D02*
D03*
X-178394Y-70031D02*
D03*
Y-64520D02*
D03*
X-248627Y-73579D02*
D03*
Y-68067D02*
D03*
Y-85079D02*
D03*
Y-79567D02*
D03*
X-348559Y-83240D02*
D03*
Y-88752D02*
D03*
Y-73240D02*
D03*
Y-78752D02*
D03*
X-298559Y-168240D02*
D03*
Y-173752D02*
D03*
X-350559Y-168996D02*
D03*
Y-174508D02*
D03*
X-293039Y-92488D02*
D03*
Y-98000D02*
D03*
Y-59228D02*
D03*
Y-64740D02*
D03*
D29*
X-275559Y-149496D02*
D03*
X-294850D02*
D03*
D30*
X-162962Y-25268D02*
D03*
X-176742D02*
D03*
X-229742Y-34268D02*
D03*
X-215962D02*
D03*
X-215962Y-70268D02*
D03*
X-229742D02*
D03*
X-229742Y-82268D02*
D03*
X-215962D02*
D03*
D31*
X-287976Y-163441D02*
D03*
Y-172496D02*
D03*
Y-181551D02*
D03*
D32*
X-265142Y-172496D02*
D03*
D33*
X-333059Y-154996D02*
D03*
D34*
X-324063Y-181571D02*
D03*
X-342055Y-181571D02*
D03*
D35*
X-185740Y-63717D02*
D03*
X-185701Y-70252D02*
D03*
X-168858Y-62709D02*
D03*
X-168819Y-69244D02*
D03*
X-170861Y-88461D02*
D03*
X-170821Y-94996D02*
D03*
X-164071Y-88457D02*
D03*
X-164032Y-94992D02*
D03*
X-275866Y-104347D02*
D03*
X-275905Y-97811D02*
D03*
X-292496Y-79654D02*
D03*
X-292535Y-73118D02*
D03*
D36*
X-182852Y-97476D02*
D03*
Y-86059D02*
D03*
X-284472Y-95583D02*
D03*
Y-107000D02*
D03*
X-301102Y-73409D02*
D03*
Y-84827D02*
D03*
D37*
X-181496Y-112646D02*
D03*
Y-121701D02*
D03*
Y-130756D02*
D03*
X-159434Y-52823D02*
D03*
Y-43768D02*
D03*
Y-34713D02*
D03*
X-312142Y-76051D02*
D03*
Y-66996D02*
D03*
Y-57941D02*
D03*
Y-104551D02*
D03*
Y-95496D02*
D03*
Y-86441D02*
D03*
X-214434Y-109323D02*
D03*
Y-100268D02*
D03*
Y-91213D02*
D03*
Y-61323D02*
D03*
Y-52268D02*
D03*
Y-43213D02*
D03*
D38*
X-158661Y-121701D02*
D03*
X-182269Y-43768D02*
D03*
X-334976Y-66996D02*
D03*
Y-95496D02*
D03*
X-237269Y-100268D02*
D03*
Y-52268D02*
D03*
D39*
X-193850Y-70047D02*
D03*
X-205268D02*
D03*
D59*
X-275976Y-44835D02*
X-274795D01*
X-455559Y-66465D02*
X-433284Y-44189D01*
X-276622D01*
X-275976Y-44835D01*
X-462866Y-65205D02*
X-436307Y-38646D01*
X-272087D01*
X-265898Y-44835D01*
X-455559Y-100823D02*
X-447197Y-109185D01*
X-455559Y-100823D02*
Y-66465D01*
X-462866Y-115327D02*
X-447197Y-130996D01*
X-462866Y-115327D02*
Y-65205D01*
X-469165Y-130260D02*
X-448181Y-151244D01*
X-469165Y-62937D02*
X-438323Y-32094D01*
X-469165Y-130260D02*
Y-62937D01*
X-237269Y-100268D02*
X-235005Y-102532D01*
X-178394Y-64089D02*
Y-61071D01*
X-200714Y-55779D02*
X-183685D01*
X-178394Y-61071D01*
X-203852Y-53331D02*
X-203753Y-53429D01*
X-203064D02*
X-200714Y-55779D01*
X-203753Y-53429D02*
X-203064D01*
X-250291Y-85079D02*
X-248627D01*
X-274250Y-61120D02*
Y-56646D01*
Y-61120D02*
X-250291Y-85079D01*
X-274795Y-56646D02*
X-274250D01*
X-249460Y-85911D02*
X-237269Y-98102D01*
X-444631Y-153791D02*
X-442276Y-152807D01*
X-445792Y-160681D02*
X-444639Y-161834D01*
X-443745Y-162728D02*
X-443260D01*
X-445792Y-153932D02*
X-444631Y-153791D01*
X-445792Y-160681D02*
Y-153932D01*
X-444639Y-161834D02*
X-443745Y-162728D01*
X-448181Y-151823D02*
X-447197Y-152807D01*
X-448181Y-151823D02*
Y-151244D01*
X-443260Y-162728D02*
X-442276Y-163713D01*
X-438323Y-32094D02*
X-268559D01*
X-255819Y-44835D02*
X-254638D01*
X-268559Y-32094D02*
X-255819Y-44835D01*
X-442276Y-141902D02*
Y-130996D01*
Y-120091D02*
Y-109185D01*
X-447197Y-130996D02*
X-442276D01*
X-265898Y-44835D02*
X-264717D01*
X-447197Y-109185D02*
X-442276D01*
X-254638Y-62056D02*
X-248627Y-68067D01*
X-254638Y-62056D02*
Y-56646D01*
X-263535Y-61496D02*
Y-56646D01*
X-264717D02*
X-263535D01*
Y-61496D02*
X-251453Y-73579D01*
X-248627D01*
X-211206Y-53331D02*
X-203852D01*
X-212269Y-91213D02*
X-204659D01*
X-212269D02*
X-204789Y-83732D01*
X-203740D01*
X-214434Y-91213D02*
X-212269D01*
X-214434Y-52268D02*
X-214336Y-52366D01*
X-212171D01*
X-211206Y-53331D01*
X-233627Y-26823D02*
X-221931D01*
X-248627Y-68067D02*
Y-41823D01*
X-233627Y-26823D01*
X-276059Y-149496D02*
X-273793Y-151762D01*
X-276059Y-161579D02*
X-265142Y-172496D01*
X-276059Y-161579D02*
Y-149496D01*
X-287976Y-172496D02*
X-266913D01*
X-237269Y-52268D02*
X-214434D01*
X-215962Y-43114D02*
X-215863Y-43213D01*
X-214434D01*
X-215962Y-43114D02*
Y-34268D01*
X-176574D01*
X-162045D02*
X-161822Y-34490D01*
X-161600Y-34713D01*
X-176574Y-34268D02*
X-162045D01*
X-161600Y-34713D02*
X-159434D01*
X-221931Y-26823D02*
X-215962Y-32791D01*
Y-34268D02*
Y-32791D01*
X-188702Y-91748D02*
X-176627D01*
X-190072Y-90378D02*
X-188702Y-91748D01*
X-193352Y-90378D02*
X-190072D01*
X-203852Y-91331D02*
X-203163D01*
X-202210Y-90378D01*
X-193352D01*
X-204659Y-91213D02*
X-204541Y-91331D01*
X-203852D01*
X-215962Y-91114D02*
Y-82268D01*
X-215863Y-91213D02*
X-214434D01*
X-215962Y-91114D02*
X-215863Y-91213D01*
X-237269Y-100268D02*
Y-98102D01*
X-229742Y-90437D02*
Y-82842D01*
X-237269Y-98102D02*
X-233127Y-93961D01*
Y-93823D01*
X-229742Y-90437D01*
X-237269Y-100268D02*
X-214434D01*
D60*
X-178248Y-110468D02*
X-164819Y-97039D01*
X-178248Y-111760D02*
Y-110468D01*
X-164819Y-97039D02*
Y-95583D01*
X-181496Y-112646D02*
X-179134D01*
X-178248Y-111760D01*
X-164819Y-95583D02*
X-164228Y-94992D01*
X-143370Y-101291D02*
X-141500Y-103161D01*
X-52220D01*
X-150157Y-130756D02*
X-143370Y-123969D01*
Y-101291D01*
X-181496Y-130756D02*
X-150157D01*
X-161929Y-95748D02*
X-156220D01*
X-164032Y-94992D02*
X-163441Y-95583D01*
X-162094D01*
X-161929Y-95748D01*
X-164228Y-94992D02*
X-164032D01*
X-206362Y-113386D02*
X-182528D01*
X-214425Y-118339D02*
X-213441Y-117354D01*
X-210331D01*
X-206362Y-113386D01*
X-206907Y-104157D02*
X-193352D01*
X-206907D02*
X-205623Y-102874D01*
X-212072Y-109323D02*
X-206907Y-104157D01*
X-214434Y-109323D02*
X-212072D01*
X-198480Y-132118D02*
X-194528Y-128165D01*
Y-127279D02*
X-193642Y-126394D01*
X-214425Y-132118D02*
X-198480D01*
X-194528Y-128165D02*
Y-127279D01*
X-193642Y-126394D02*
X-192756D01*
X-214425Y-132118D02*
X-214425Y-132118D01*
X-190984Y-128165D02*
X-188394Y-130756D01*
X-190984Y-128165D02*
Y-127279D01*
X-192756Y-126394D02*
X-191870D01*
X-188394Y-130756D02*
X-181496D01*
X-191870Y-126394D02*
X-190984Y-127279D01*
Y-119173D02*
Y-117634D01*
X-193642Y-119173D02*
X-192756D01*
X-190984Y-117634D02*
X-186882Y-113531D01*
X-191870Y-118520D02*
X-190984Y-117634D01*
X-192756Y-118520D02*
X-191870D01*
X-214425Y-132118D02*
X-214425Y-132118D01*
X-191870Y-119173D02*
X-190984D01*
X-193642Y-118520D02*
X-192756D01*
X-145089Y-42006D02*
Y-42006D01*
X-143075Y-39992D01*
X-124673D01*
X-148280Y-45197D02*
X-145089Y-42006D01*
X-181706Y-44331D02*
X-149352D01*
X-162962Y-25268D02*
X-157158D01*
X-149165Y-45197D02*
Y-33260D01*
X-157158Y-25268D02*
X-149165Y-33260D01*
X-120465Y-40756D02*
X-118362D01*
X-121449Y-41740D02*
X-120465Y-40756D01*
X-118362D02*
X-110768Y-33161D01*
X-52220D01*
X-122606Y-42661D02*
X-121831Y-41886D01*
X-122925Y-41740D02*
X-121449D01*
X-124673Y-39992D02*
X-122925Y-41740D01*
X-149165Y-45197D02*
X-148280D01*
X-149665Y-53071D02*
X-148779Y-53957D01*
X-141663Y-53071D02*
X-141478Y-52886D01*
X-125559D02*
X-122925Y-55520D01*
X-121449D01*
X-149165Y-53071D02*
X-141663D01*
X-141478Y-52886D02*
X-125559D01*
X-160616Y-52823D02*
X-159434D01*
X-161797D02*
X-160616D01*
X-159748Y-53690D01*
Y-62173D02*
Y-53690D01*
X-162682Y-56730D02*
Y-53709D01*
X-161797Y-52823D01*
X-168858Y-62709D02*
X-168661D01*
X-162682Y-56730D01*
X-203852Y-61205D02*
X-188449D01*
X-185937Y-63717D02*
X-185740D01*
X-188449Y-61205D02*
X-185937Y-63717D01*
X-215962Y-70268D02*
X-205488D01*
X-205268Y-70047D01*
X-266079Y-95476D02*
Y-84661D01*
Y-95476D02*
X-218595Y-142961D01*
X-290921Y-59819D02*
X-266079Y-84661D01*
X-292449Y-59819D02*
X-290921D01*
X-293039Y-59228D02*
X-292449Y-59819D01*
X-293039Y-59228D02*
X-292843D01*
X-270996Y-96559D02*
X-220311Y-147244D01*
X-32221Y-123161D02*
X-30740D01*
X-270996Y-96559D02*
X-270996D01*
X-220311Y-147244D02*
X-139740D01*
X-301988Y-74240D02*
Y-65921D01*
X-300957Y-73264D02*
X-292681D01*
X-301102Y-73409D02*
X-300957Y-73264D01*
X-292681D02*
X-292535Y-73118D01*
X-294417Y-58047D02*
X-293236Y-59228D01*
X-301102Y-58047D02*
X-294417D01*
X-302203Y-74455D02*
X-301988Y-74240D01*
X-303482Y-76051D02*
X-302874Y-75443D01*
X-312142Y-76051D02*
X-303482D01*
X-301570Y-57994D02*
X-301517Y-58047D01*
X-302403Y-57161D02*
X-301570Y-57994D01*
X-301155D01*
X-312089D02*
X-301570D01*
X-301155D02*
X-301102Y-58047D01*
X-312142Y-57941D02*
X-312089Y-57994D01*
X-305421Y-62488D02*
X-301988Y-65921D01*
X-327811Y-57449D02*
X-322772Y-62488D01*
X-305421D01*
X-345650Y-57449D02*
X-327811D01*
X-356535Y-66858D02*
X-355059D01*
X-345650Y-57449D01*
X-356522Y-53092D02*
X-346073D01*
X-356535Y-53079D02*
X-356522Y-53092D01*
X-346073D02*
X-346059Y-53106D01*
X-273302Y-101059D02*
X-272996D01*
X-289551Y-101291D02*
X-278677D01*
X-292843Y-98000D02*
X-289551Y-101291D01*
X-293039Y-98000D02*
X-292843D01*
X-276654Y-105134D02*
Y-104937D01*
X-276063Y-104347D01*
X-284472Y-107000D02*
X-278520D01*
X-276654Y-105134D01*
X-276063Y-104347D02*
X-275866D01*
X-300217Y-97484D02*
X-298280D01*
X-297764Y-98000D01*
X-301102Y-96598D02*
X-300217Y-97484D01*
X-297764Y-98000D02*
X-293039D01*
X-312102Y-104512D02*
X-301142D01*
X-297689Y-107000D02*
X-284472D01*
X-300217Y-104472D02*
X-297689Y-107000D01*
X-301102Y-104472D02*
X-300217D01*
X-311256Y-96382D02*
X-307957D01*
X-307741Y-96598D01*
X-301102D01*
X-312142Y-95496D02*
X-311256Y-96382D01*
X-348520Y-96091D02*
X-347925Y-95496D01*
X-353319Y-102756D02*
X-348520Y-97957D01*
Y-96091D01*
X-353319Y-107953D02*
Y-102756D01*
X-347925Y-95496D02*
X-346059D01*
X-355780Y-108937D02*
X-354303D01*
X-353319Y-107953D01*
X-349346Y-90201D02*
Y-88358D01*
X-348559Y-88752D02*
X-348369Y-88562D01*
X-349346Y-88358D02*
X-349150Y-88161D01*
X-355780Y-95157D02*
X-354303D01*
X-349346Y-90201D01*
X-272996Y-101059D02*
X-222276Y-151779D01*
X-312142Y-104551D02*
X-312102Y-104512D01*
X-301142D02*
X-301102Y-104472D01*
X-32221Y-33161D02*
X-30236D01*
X-52220D02*
X-32221D01*
Y-103161D02*
X-29228D01*
X-52220D02*
X-32221D01*
Y-113161D02*
X-30488D01*
X-52220D02*
X-32221D01*
X-112005D02*
X-52220D01*
Y-123161D02*
X-32221D01*
X-115657D02*
X-52220D01*
X-32221Y-133161D02*
X-30740D01*
X-52220D02*
X-32221D01*
X-119862D02*
X-52220D01*
X-317476Y-52606D02*
X-312142Y-57941D01*
X-344583Y-52606D02*
X-317476D01*
X-343504Y-86441D02*
X-312142D01*
X-345625Y-88562D02*
X-343504Y-86441D01*
X-316976Y-109386D02*
X-312142Y-104551D01*
X-344583Y-109386D02*
X-316976D01*
X-312142Y-104551D02*
X-309780D01*
X-348369Y-88562D02*
X-345625D01*
X-448862Y-96349D02*
X-446931Y-98280D01*
X-448906Y-94835D02*
X-448862Y-94879D01*
X-446931Y-98280D02*
X-442276D01*
X-448862Y-96349D02*
Y-94879D01*
X-448906Y-94835D02*
Y-67622D01*
X-430512Y-49228D01*
X-385661D01*
X-381378Y-53512D01*
Y-65858D02*
X-370039Y-77197D01*
X-381378Y-65858D02*
Y-53512D01*
X-370039Y-77197D02*
X-364496D01*
X-376506Y-92827D02*
X-374575Y-90896D01*
X-376842Y-92827D02*
X-376506D01*
X-374575Y-90896D02*
Y-84756D01*
X-370165Y-80347D01*
X-364496D01*
X-371921Y-103732D02*
X-364496Y-96307D01*
Y-83496D01*
X-376842Y-103732D02*
X-371921D01*
X-353284Y-80347D02*
X-350980Y-82650D01*
X-349150D01*
X-358197Y-80347D02*
X-353284D01*
X-349150Y-82650D02*
X-348559Y-83240D01*
X-355425Y-77197D02*
X-351576Y-73348D01*
X-348666D01*
X-358197Y-77197D02*
X-355425D01*
X-348666Y-73348D02*
X-348559Y-73240D01*
X-343559D01*
X-358197Y-83496D02*
X-355173D01*
X-350508Y-88161D01*
X-349150D02*
X-348559Y-88752D01*
X-350508Y-88161D02*
X-349150D01*
X-141804Y-142961D02*
X-112005Y-113161D01*
X-139740Y-147244D02*
X-115657Y-123161D01*
X-138480Y-151779D02*
X-119862Y-133161D01*
X-222276Y-151779D02*
X-138480D01*
X-218595Y-142961D02*
X-141804D01*
X-157072Y-52514D02*
X-150161D01*
X-159434Y-52823D02*
X-157072D01*
X-204625Y-61978D02*
X-203852Y-61205D01*
X-213779Y-61978D02*
X-204625D01*
X-214434Y-61323D02*
X-213779Y-61978D01*
X-292535Y-73118D02*
X-292337Y-72919D01*
X-176742Y-34100D02*
X-176574Y-34268D01*
X-176352Y-34490D02*
X-161822D01*
X-159657D01*
X-229742Y-82842D02*
Y-82268D01*
X-202966Y-99205D02*
X-201584Y-97823D01*
X-184478D01*
X-204738Y-99205D02*
X-202966D01*
X-184478Y-97823D02*
X-183492Y-96837D01*
X-182852Y-97476D02*
X-173499D01*
X-171018Y-94996D01*
X-170821D01*
X-346059Y-66386D02*
X-335587D01*
X-343559Y-73240D02*
X-343339Y-73020D01*
X-338835D01*
X-334976Y-69161D01*
Y-66996D01*
X-335587Y-66386D02*
X-334976Y-66996D01*
Y-95496D02*
X-312142D01*
X-334976Y-66996D02*
X-312142D01*
X-176742Y-34100D02*
Y-25268D01*
X-214434Y-43213D02*
X-212072D01*
X-237269Y-61618D02*
X-231080Y-67807D01*
X-230726D01*
X-229742Y-68791D01*
X-237269Y-61618D02*
Y-52268D01*
X-229742Y-70268D02*
Y-68791D01*
X-231080Y-36728D02*
X-230726D01*
X-229742Y-35744D01*
X-237269Y-52268D02*
Y-42917D01*
X-231080Y-36728D01*
X-229742Y-35744D02*
Y-34268D01*
X-215962Y-62209D02*
X-214944Y-61191D01*
X-215962Y-70268D02*
Y-62209D01*
X-159657Y-34490D02*
X-159434Y-34713D01*
X-205623Y-102874D02*
Y-100091D01*
X-204738Y-99205D01*
X-182269Y-43768D02*
X-181706Y-44331D01*
D61*
X-176627Y-91748D02*
X-58655D01*
X-53307Y-92075D02*
X-52220Y-93161D01*
X-278385Y-101291D02*
X-278152Y-101059D01*
X-273302D01*
X-278677Y-101291D02*
X-278385D01*
X-346059Y-95496D02*
X-334976D01*
D62*
X-310559Y-181339D02*
Y-181142D01*
Y-181339D02*
X-296402Y-195496D01*
X-323866Y-181374D02*
X-310791D01*
D63*
X-310559Y-181142D01*
X-324063Y-181571D02*
X-323866Y-181374D01*
M02*
