G04*
G04 #@! TF.GenerationSoftware,Altium Limited,Altium Designer,21.8.1 (53)*
G04*
G04 Layer_Color=8421504*
%FSLAX25Y25*%
%MOIN*%
G70*
G04*
G04 #@! TF.SameCoordinates,924E8805-32EE-4984-9886-3D9EEA8973F8*
G04*
G04*
G04 #@! TF.FilePolarity,Positive*
G04*
G01*
G75*
%ADD21R,0.08858X0.09252*%
%ADD22R,0.05512X0.03740*%
%ADD23R,0.06890X0.03937*%
G04:AMPARAMS|DCode=24|XSize=59.06mil|YSize=157.48mil|CornerRadius=14.76mil|HoleSize=0mil|Usage=FLASHONLY|Rotation=270.000|XOffset=0mil|YOffset=0mil|HoleType=Round|Shape=RoundedRectangle|*
%AMROUNDEDRECTD24*
21,1,0.05906,0.12795,0,0,270.0*
21,1,0.02953,0.15748,0,0,270.0*
1,1,0.02953,-0.06398,-0.01476*
1,1,0.02953,-0.06398,0.01476*
1,1,0.02953,0.06398,0.01476*
1,1,0.02953,0.06398,-0.01476*
%
%ADD24ROUNDEDRECTD24*%
G04:AMPARAMS|DCode=25|XSize=40.16mil|YSize=125.98mil|CornerRadius=10.04mil|HoleSize=0mil|Usage=FLASHONLY|Rotation=270.000|XOffset=0mil|YOffset=0mil|HoleType=Round|Shape=RoundedRectangle|*
%AMROUNDEDRECTD25*
21,1,0.04016,0.10591,0,0,270.0*
21,1,0.02008,0.12598,0,0,270.0*
1,1,0.02008,-0.05295,-0.01004*
1,1,0.02008,-0.05295,0.01004*
1,1,0.02008,0.05295,0.01004*
1,1,0.02008,0.05295,-0.01004*
%
%ADD25ROUNDEDRECTD25*%
%ADD26R,0.03150X0.01575*%
G04:AMPARAMS|DCode=27|XSize=39.37mil|YSize=62.99mil|CornerRadius=9.84mil|HoleSize=0mil|Usage=FLASHONLY|Rotation=270.000|XOffset=0mil|YOffset=0mil|HoleType=Round|Shape=RoundedRectangle|*
%AMROUNDEDRECTD27*
21,1,0.03937,0.04331,0,0,270.0*
21,1,0.01968,0.06299,0,0,270.0*
1,1,0.01968,-0.02165,-0.00984*
1,1,0.01968,-0.02165,0.00984*
1,1,0.01968,0.02165,0.00984*
1,1,0.01968,0.02165,-0.00984*
%
%ADD27ROUNDEDRECTD27*%
G04:AMPARAMS|DCode=28|XSize=35.43mil|YSize=31.5mil|CornerRadius=7.87mil|HoleSize=0mil|Usage=FLASHONLY|Rotation=0.000|XOffset=0mil|YOffset=0mil|HoleType=Round|Shape=RoundedRectangle|*
%AMROUNDEDRECTD28*
21,1,0.03543,0.01575,0,0,0.0*
21,1,0.01968,0.03150,0,0,0.0*
1,1,0.01575,0.00984,-0.00787*
1,1,0.01575,-0.00984,-0.00787*
1,1,0.01575,-0.00984,0.00787*
1,1,0.01575,0.00984,0.00787*
%
%ADD28ROUNDEDRECTD28*%
%ADD29R,0.09252X0.08858*%
%ADD30R,0.03937X0.06890*%
%ADD31R,0.09449X0.03937*%
%ADD32R,0.09449X0.12992*%
%ADD33R,0.21260X0.24410*%
%ADD34R,0.03937X0.08268*%
%ADD35R,0.03543X0.03150*%
%ADD36R,0.07087X0.04528*%
%ADD37R,0.08465X0.03740*%
%ADD38R,0.08465X0.12795*%
%ADD39R,0.04528X0.07087*%
D21*
X-143370Y-101291D02*
D03*
Y-82000D02*
D03*
X-136315Y-39992D02*
D03*
Y-59284D02*
D03*
X-310559Y-181142D02*
D03*
Y-161850D02*
D03*
D22*
X-192756Y-126394D02*
D03*
Y-118520D02*
D03*
X-159748Y-62173D02*
D03*
Y-70047D02*
D03*
X-156220Y-87874D02*
D03*
Y-95748D02*
D03*
X-149165Y-45197D02*
D03*
Y-53071D02*
D03*
X-203852Y-99205D02*
D03*
Y-91331D02*
D03*
Y-53331D02*
D03*
Y-61205D02*
D03*
X-301102Y-96598D02*
D03*
Y-104472D02*
D03*
Y-65921D02*
D03*
Y-58047D02*
D03*
D23*
X-214425Y-118339D02*
D03*
Y-132118D02*
D03*
X-121449Y-55520D02*
D03*
Y-41740D02*
D03*
X-202835Y-118339D02*
D03*
Y-132118D02*
D03*
X-193352Y-90378D02*
D03*
Y-104157D02*
D03*
X-355780Y-108937D02*
D03*
Y-95157D02*
D03*
X-356535Y-53079D02*
D03*
Y-66858D02*
D03*
X-346059Y-66886D02*
D03*
Y-53106D02*
D03*
Y-108886D02*
D03*
Y-95106D02*
D03*
D24*
X-376842Y-169165D02*
D03*
Y-158260D02*
D03*
Y-147354D02*
D03*
Y-136449D02*
D03*
Y-125543D02*
D03*
Y-114638D02*
D03*
Y-103732D02*
D03*
Y-92827D02*
D03*
X-442276Y-98280D02*
D03*
Y-109185D02*
D03*
Y-120091D02*
D03*
Y-130996D02*
D03*
Y-141902D02*
D03*
Y-152807D02*
D03*
Y-163713D02*
D03*
D25*
X-490882Y-33161D02*
D03*
X-510882D02*
D03*
X-490882Y-43161D02*
D03*
X-510882D02*
D03*
X-490882Y-53161D02*
D03*
X-510882D02*
D03*
X-490882Y-63161D02*
D03*
X-510882D02*
D03*
X-490882Y-73161D02*
D03*
X-510882D02*
D03*
X-490882Y-83161D02*
D03*
X-510882D02*
D03*
X-490882Y-93161D02*
D03*
X-510882D02*
D03*
X-490882Y-103161D02*
D03*
X-510882D02*
D03*
X-490882Y-113161D02*
D03*
X-510882D02*
D03*
X-490882Y-123161D02*
D03*
X-510882D02*
D03*
X-490882Y-133161D02*
D03*
X-510882D02*
D03*
X-490882Y-143161D02*
D03*
X-510882D02*
D03*
X-490882Y-153161D02*
D03*
X-510882D02*
D03*
X-490882Y-163161D02*
D03*
X-510882D02*
D03*
X-490882Y-173161D02*
D03*
X-510882D02*
D03*
X-490882Y-183161D02*
D03*
X-510882D02*
D03*
X-490882Y-193161D02*
D03*
X-510882D02*
D03*
X-490882Y-203161D02*
D03*
X-510882D02*
D03*
X-52220D02*
D03*
X-32221D02*
D03*
X-52220Y-193161D02*
D03*
X-32221D02*
D03*
X-52220Y-183161D02*
D03*
X-32221D02*
D03*
X-52220Y-173161D02*
D03*
X-32221D02*
D03*
X-52220Y-163161D02*
D03*
X-32221D02*
D03*
X-52220Y-153161D02*
D03*
X-32221D02*
D03*
X-52220Y-143161D02*
D03*
X-32221D02*
D03*
X-52220Y-133161D02*
D03*
X-32221D02*
D03*
X-52220Y-123161D02*
D03*
X-32221D02*
D03*
X-52220Y-113161D02*
D03*
X-32221D02*
D03*
X-52220Y-103161D02*
D03*
X-32221D02*
D03*
X-52220Y-93161D02*
D03*
X-32221D02*
D03*
X-52220Y-83161D02*
D03*
X-32221D02*
D03*
X-52220Y-73161D02*
D03*
X-32221D02*
D03*
X-52220Y-63161D02*
D03*
X-32221D02*
D03*
X-52220Y-53161D02*
D03*
X-32221D02*
D03*
X-52220Y-43161D02*
D03*
X-32221D02*
D03*
X-52220Y-33161D02*
D03*
X-32221D02*
D03*
D26*
X-364496Y-74047D02*
D03*
Y-77197D02*
D03*
Y-80347D02*
D03*
Y-83496D02*
D03*
X-358197D02*
D03*
Y-80347D02*
D03*
Y-77197D02*
D03*
Y-74047D02*
D03*
D27*
X-254638Y-56646D02*
D03*
Y-44835D02*
D03*
X-264717Y-44835D02*
D03*
Y-56646D02*
D03*
X-274795Y-56646D02*
D03*
Y-44835D02*
D03*
D28*
X-203740Y-83732D02*
D03*
Y-78220D02*
D03*
X-178394Y-70031D02*
D03*
Y-64520D02*
D03*
X-248627Y-73579D02*
D03*
Y-68067D02*
D03*
Y-85079D02*
D03*
Y-79567D02*
D03*
X-348559Y-83240D02*
D03*
Y-88752D02*
D03*
Y-73240D02*
D03*
Y-78752D02*
D03*
X-298559Y-168240D02*
D03*
Y-173752D02*
D03*
X-350559Y-168996D02*
D03*
Y-174508D02*
D03*
X-293039Y-92488D02*
D03*
Y-98000D02*
D03*
Y-59228D02*
D03*
Y-64740D02*
D03*
D29*
X-275559Y-149496D02*
D03*
X-294850D02*
D03*
D30*
X-162962Y-25268D02*
D03*
X-176742D02*
D03*
X-229742Y-34268D02*
D03*
X-215962D02*
D03*
X-215962Y-70268D02*
D03*
X-229742D02*
D03*
X-229742Y-82268D02*
D03*
X-215962D02*
D03*
D31*
X-287976Y-163441D02*
D03*
Y-172496D02*
D03*
Y-181551D02*
D03*
D32*
X-265142Y-172496D02*
D03*
D33*
X-333059Y-154996D02*
D03*
D34*
X-324063Y-181571D02*
D03*
X-342055Y-181571D02*
D03*
D35*
X-185740Y-63717D02*
D03*
X-185701Y-70252D02*
D03*
X-168858Y-62709D02*
D03*
X-168819Y-69244D02*
D03*
X-170861Y-88461D02*
D03*
X-170821Y-94996D02*
D03*
X-164071Y-88457D02*
D03*
X-164032Y-94992D02*
D03*
X-275866Y-104347D02*
D03*
X-275905Y-97811D02*
D03*
X-292496Y-79654D02*
D03*
X-292535Y-73118D02*
D03*
D36*
X-182852Y-97476D02*
D03*
Y-86059D02*
D03*
X-284472Y-95583D02*
D03*
Y-107000D02*
D03*
X-301102Y-73409D02*
D03*
Y-84827D02*
D03*
D37*
X-181496Y-112646D02*
D03*
Y-121701D02*
D03*
Y-130756D02*
D03*
X-159434Y-52823D02*
D03*
Y-43768D02*
D03*
Y-34713D02*
D03*
X-312142Y-76051D02*
D03*
Y-66996D02*
D03*
Y-57941D02*
D03*
Y-104551D02*
D03*
Y-95496D02*
D03*
Y-86441D02*
D03*
X-214434Y-109323D02*
D03*
Y-100268D02*
D03*
Y-91213D02*
D03*
Y-61323D02*
D03*
Y-52268D02*
D03*
Y-43213D02*
D03*
D38*
X-158661Y-121701D02*
D03*
X-182269Y-43768D02*
D03*
X-334976Y-66996D02*
D03*
Y-95496D02*
D03*
X-237269Y-100268D02*
D03*
Y-52268D02*
D03*
D39*
X-193850Y-70047D02*
D03*
X-205268D02*
D03*
M02*
