M48
;Layer_Color=9474304
;FILE_FORMAT=2:5
INCH,LZ
;TYPE=PLATED
T1F00S00C0.03150
T2F00S00C0.03543
T3F00S00C0.03937
T4F00S00C0.04291
T5F00S00C0.04331
T6F00S00C0.05118
T7F00S00C0.05512
T8F00S00C0.05906
T9F00S00C0.07874
T10F00S00C0.12520
%
T01
X0205Y00475
X02055Y00575
Y00665
X0257Y0004
T02
X-026837Y-0068
X-0229
X-02135
X-017413
T03
X-0155Y-0183555
X-006671Y-0185998
X-0001056Y-0202063
X0032445Y-0206
X0065748Y-0191781
X00915Y-0206
X0104
X0163055
X02665Y-01595
Y-0100445
Y-0087055
Y-0028
X0179563Y-0036556
X0163498Y-0102209
X0123531Y-0156717
X-0121217Y-0146031
X-0155Y-01245
X-0156281Y-0088248
X-01885Y-00475
X-01805Y-00165
X-0239555
X-02685Y-00475
X-0257185Y0021
X-02375
X-0217815
X0169281Y0030248
X0134217Y0088031
X007971Y0127998
X0051445Y0153
X01105Y0153
T04
X0101114Y0188319
X011202Y0188319
X0122925
X0133831
X0144736
X0155642
X0166547
X0177453Y0188319
X0172Y01995
X0161094
X0150189
X0139284
X0128378
X0117473
X0106567
T05
X01315Y-01855
X01515
Y-01655
X01315
X0204528Y-0145
X0226Y-0122
Y-0102
X0246
Y-0122
X0231528Y-00585
X0202
X0175Y-0145
X0179Y01215
X0149472
X0216472Y0088
X0246
X02455Y0014
X0215972
T06
X-0217Y006913
Y01085
X-0165819
Y006913
T07
X-0252Y00675
Y0158051
T08
X-026Y-013037
Y-0091
X-0186181
Y-013037
X-02165Y0126
X-0095441Y0135559
T09
X-0095441Y0156
X-0123
X-0150559
T10
X0204874Y019391
X0073693
M30
