G04*
G04 #@! TF.GenerationSoftware,Altium Limited,Altium Designer,21.8.1 (53)*
G04*
G04 Layer_Physical_Order=2*
G04 Layer_Color=16711680*
%FSLAX25Y25*%
%MOIN*%
G70*
G04*
G04 #@! TF.SameCoordinates,E78F759E-4530-471A-9806-BC5E2220268D*
G04*
G04*
G04 #@! TF.FilePolarity,Positive*
G04*
G01*
G75*
%ADD30C,0.07874*%
%ADD31C,0.05906*%
%ADD32R,0.04528X0.07087*%
%ADD33C,0.03937*%
%ADD34C,0.18898*%
%ADD35C,0.06653*%
%ADD36R,0.06653X0.06653*%
G04:AMPARAMS|DCode=37|XSize=118.11mil|YSize=118.11mil|CornerRadius=29.53mil|HoleSize=0mil|Usage=FLASHONLY|Rotation=0.000|XOffset=0mil|YOffset=0mil|HoleType=Round|Shape=RoundedRectangle|*
%AMROUNDEDRECTD37*
21,1,0.11811,0.05906,0,0,0.0*
21,1,0.05906,0.11811,0,0,0.0*
1,1,0.05906,0.02953,-0.02953*
1,1,0.05906,-0.02953,-0.02953*
1,1,0.05906,-0.02953,0.02953*
1,1,0.05906,0.02953,0.02953*
%
%ADD37ROUNDEDRECTD37*%
%ADD38C,0.07087*%
%ADD39R,0.07087X0.07087*%
G04:AMPARAMS|DCode=40|XSize=98.43mil|YSize=98.43mil|CornerRadius=24.61mil|HoleSize=0mil|Usage=FLASHONLY|Rotation=180.000|XOffset=0mil|YOffset=0mil|HoleType=Round|Shape=RoundedRectangle|*
%AMROUNDEDRECTD40*
21,1,0.09843,0.04921,0,0,180.0*
21,1,0.04921,0.09843,0,0,180.0*
1,1,0.04921,-0.02461,0.02461*
1,1,0.04921,0.02461,0.02461*
1,1,0.04921,0.02461,-0.02461*
1,1,0.04921,-0.02461,-0.02461*
%
%ADD40ROUNDEDRECTD40*%
%ADD41C,0.09843*%
G04:AMPARAMS|DCode=42|XSize=98.43mil|YSize=98.43mil|CornerRadius=24.61mil|HoleSize=0mil|Usage=FLASHONLY|Rotation=90.000|XOffset=0mil|YOffset=0mil|HoleType=Round|Shape=RoundedRectangle|*
%AMROUNDEDRECTD42*
21,1,0.09843,0.04921,0,0,90.0*
21,1,0.04921,0.09843,0,0,90.0*
1,1,0.04921,0.02461,0.02461*
1,1,0.04921,0.02461,-0.02461*
1,1,0.04921,-0.02461,-0.02461*
1,1,0.04921,-0.02461,0.02461*
%
%ADD42ROUNDEDRECTD42*%
%ADD43C,0.11811*%
G04:AMPARAMS|DCode=44|XSize=78.74mil|YSize=78.74mil|CornerRadius=19.68mil|HoleSize=0mil|Usage=FLASHONLY|Rotation=90.000|XOffset=0mil|YOffset=0mil|HoleType=Round|Shape=RoundedRectangle|*
%AMROUNDEDRECTD44*
21,1,0.07874,0.03937,0,0,90.0*
21,1,0.03937,0.07874,0,0,90.0*
1,1,0.03937,0.01968,0.01968*
1,1,0.03937,0.01968,-0.01968*
1,1,0.03937,-0.01968,-0.01968*
1,1,0.03937,-0.01968,0.01968*
%
%ADD44ROUNDEDRECTD44*%
%ADD45C,0.06693*%
G04:AMPARAMS|DCode=46|XSize=78.74mil|YSize=78.74mil|CornerRadius=19.68mil|HoleSize=0mil|Usage=FLASHONLY|Rotation=180.000|XOffset=0mil|YOffset=0mil|HoleType=Round|Shape=RoundedRectangle|*
%AMROUNDEDRECTD46*
21,1,0.07874,0.03937,0,0,180.0*
21,1,0.03937,0.07874,0,0,180.0*
1,1,0.03937,-0.01968,0.01968*
1,1,0.03937,0.01968,0.01968*
1,1,0.03937,0.01968,-0.01968*
1,1,0.03937,-0.01968,-0.01968*
%
%ADD46ROUNDEDRECTD46*%
G04:AMPARAMS|DCode=47|XSize=70.87mil|YSize=70.87mil|CornerRadius=17.72mil|HoleSize=0mil|Usage=FLASHONLY|Rotation=180.000|XOffset=0mil|YOffset=0mil|HoleType=Round|Shape=RoundedRectangle|*
%AMROUNDEDRECTD47*
21,1,0.07087,0.03543,0,0,180.0*
21,1,0.03543,0.07087,0,0,180.0*
1,1,0.03543,-0.01772,0.01772*
1,1,0.03543,0.01772,0.01772*
1,1,0.03543,0.01772,-0.01772*
1,1,0.03543,-0.01772,-0.01772*
%
%ADD47ROUNDEDRECTD47*%
%ADD48C,0.07874*%
%ADD49R,0.07087X0.04528*%
%ADD50R,0.07677X0.10433*%
%ADD51C,0.01968*%
D30*
X66858Y-206000D02*
G03*
X73925Y-203075I0J10000D01*
G01*
X-152610Y158051D02*
X-150559Y156000D01*
X-252000Y158051D02*
X-152610D01*
X-217000Y108500D02*
X-216750Y108750D01*
Y125750D01*
X-216500Y126000D01*
X-155000Y-179814D02*
X-127186Y-152000D01*
X-185000Y-147388D02*
Y-130370D01*
Y-147388D02*
X-180387Y-152000D01*
X-127186D02*
X-121217Y-146031D01*
X-180387Y-152000D02*
X-127186D01*
X-128000Y118500D02*
X-112500D01*
X-95441Y135559D01*
Y156000D01*
X-211000Y-178000D02*
Y-140750D01*
X-182500Y-206500D02*
X-87211D01*
X-211000Y-178000D02*
X-182500Y-206500D01*
X-87211D02*
X-66710Y-185998D01*
X-237685Y51815D02*
X-221123Y68377D01*
X-217753D01*
X-217000Y69130D01*
X-237685Y29815D02*
Y51815D01*
X-210500Y36500D02*
X-199000Y48000D01*
X-186949D01*
X-165819Y69130D01*
X-138000Y108500D02*
X-128000Y118500D01*
X-165819Y108500D02*
X-138000D01*
X-248500Y71000D02*
Y92500D01*
X-233253Y107747D02*
X-217753D01*
X-217000Y108500D01*
X-248500Y92500D02*
X-233253Y107747D01*
X-259016Y-131354D02*
Y-130370D01*
X-224000Y-127750D02*
Y-73000D01*
Y-127750D02*
X-211000Y-140750D01*
X-229000Y-68000D02*
X-224000Y-73000D01*
X-155000Y-183555D02*
Y-179814D01*
X-156281Y-123219D02*
Y-88248D01*
Y-123219D02*
X-155000Y-124500D01*
X163055Y-206000D02*
X164071Y-204984D01*
X151500Y-194445D02*
Y-185500D01*
Y-194445D02*
X163055Y-206000D01*
X73925Y-203075D02*
X82554Y-194446D01*
X102554D01*
X32445Y-206000D02*
X66858D01*
X-185630Y-72613D02*
X-181017Y-68000D01*
X-185630Y-90449D02*
Y-72613D01*
X-181017Y-68000D02*
X-174130D01*
X-188500Y-53630D02*
X-174130Y-68000D01*
X-259016Y-131354D02*
X-258910Y-131461D01*
X-186181Y-91000D02*
X-185630Y-90449D01*
X-268370Y-68000D02*
X-260984Y-75386D01*
Y-90016D02*
Y-75386D01*
Y-90016D02*
X-260000Y-91000D01*
X-268500Y-67870D02*
Y-47500D01*
Y-67870D02*
X-268370Y-68000D01*
X-268500Y-47500D02*
Y-20445D01*
X-265555Y-17500D01*
X-188500Y-53630D02*
Y-47500D01*
X-206500Y-29500D02*
Y-17500D01*
Y-29500D02*
X-188500Y-47500D01*
X-214500Y-9500D02*
Y33000D01*
Y-9500D02*
X-206500Y-17500D01*
X-218000Y36500D02*
X-210500D01*
X-218000D02*
X-214500Y33000D01*
X-265555Y-17500D02*
Y1945D01*
X-237685Y29815D01*
X-252000Y67500D02*
X-248500Y71000D01*
D31*
X266500Y21858D02*
G03*
X263571Y28929I-10000J0D01*
G01*
X256929Y35571D02*
G03*
X249858Y38500I-7071J-7071D01*
G01*
X181676D02*
G03*
X174605Y35571I0J-10000D01*
G01*
X204030Y-144794D02*
G03*
X204031Y-144795I497J497D01*
G01*
D02*
G03*
X204528Y-145000I497J498D01*
G01*
X179563Y-70921D02*
G03*
X182492Y-77992I10000J0D01*
G01*
X261379Y-157379D02*
G03*
X266500Y-159500I5121J5121D01*
G01*
X158972Y131000D02*
X184000D01*
X149472Y121500D02*
X158972Y131000D01*
X184000D02*
X187500Y127500D01*
Y106276D02*
Y127500D01*
X148500Y120208D02*
X149472Y121180D01*
Y121500D01*
X148500Y106276D02*
Y120208D01*
X174500Y117000D02*
X179000Y121500D01*
X174500Y106276D02*
Y117000D01*
X161500Y106276D02*
X174500D01*
X148500Y90724D02*
X161500D01*
X146276D02*
X148500D01*
X109002Y127998D02*
X146276Y90724D01*
X79710Y127998D02*
X109002D01*
X174500Y90724D02*
X187500D01*
X170000Y79000D02*
X173614Y82614D01*
Y89839D02*
X174500Y90724D01*
X173614Y82614D02*
Y89839D01*
X144314Y79000D02*
X170000D01*
X134217Y88031D02*
X135283D01*
X144314Y79000D01*
X181676Y38500D02*
X249858D01*
X169281Y30248D02*
X174605Y35571D01*
X256929D02*
X263571Y28929D01*
X266500Y-28000D02*
Y21858D01*
X117473Y199500D02*
X128378D01*
X150189D02*
X150391D01*
X139284D02*
X150189D01*
X250307Y3500D02*
X255500D01*
X256000Y4000D01*
X238807Y-8000D02*
X250307Y3500D01*
X238709Y-8000D02*
X238807D01*
X226791Y12000D02*
X227041Y11750D01*
Y-7750D02*
Y11750D01*
Y-7750D02*
X227291Y-8000D01*
X239717Y13409D02*
X244910D01*
X245500Y14000D01*
X238307Y12000D02*
X239717Y13409D01*
X238209Y12000D02*
X238307D01*
X216198Y13774D02*
X224919D01*
X226693Y12000D01*
X226791D01*
X215972Y14000D02*
X216198Y13774D01*
X179563Y-36556D02*
X215972Y-147D01*
Y14000D01*
X124597Y-156717D02*
X127961Y-153353D01*
X123531Y-156717D02*
X124597D01*
X132853Y-153353D02*
X133500Y-154000D01*
X127961Y-153353D02*
X132853D01*
X134000Y-154000D02*
X141500Y-161500D01*
X133500Y-154000D02*
X134000D01*
X141500Y-175500D02*
X151500Y-185500D01*
X141500Y-175500D02*
Y-161500D01*
X102554Y-194446D02*
X131500Y-165500D01*
X232709Y-56319D02*
Y-41000D01*
X230528Y-58500D02*
X232709Y-56319D01*
X202791Y-56389D02*
Y-41000D01*
X201000Y-58500D02*
Y-58180D01*
X202791Y-56389D01*
X266500Y-68000D02*
Y-28000D01*
X246000Y-102000D02*
Y-88500D01*
X266500Y-68000D01*
X254945Y-112000D02*
X266500Y-100445D01*
X182492Y-77992D02*
X216500Y-112000D01*
X254945D01*
X226000Y-122000D02*
X261379Y-157379D01*
X205394Y-122000D02*
X226000D01*
X185603Y-102209D02*
X205394Y-122000D01*
X163498Y-102209D02*
X185603D01*
X264531Y-157531D02*
X266500Y-159500D01*
X179563Y-70921D02*
Y-36556D01*
X214209Y-41000D02*
X221291D01*
X266500Y-100445D02*
Y-87055D01*
D32*
X176709Y-130500D02*
D03*
X165291D02*
D03*
X195709D02*
D03*
X184291D02*
D03*
X202791Y-41000D02*
D03*
X214209D02*
D03*
X221291D02*
D03*
X232709D02*
D03*
X238709Y-8000D02*
D03*
X227291D02*
D03*
X226791Y12000D02*
D03*
X238209D02*
D03*
D33*
X204528Y-143461D02*
G03*
X201599Y-136390I-10000J0D01*
G01*
X165291Y-131149D02*
G03*
X168220Y-138220I10000J0D01*
G01*
X-186091Y-130280D02*
Y-117299D01*
X-186000Y-117209D01*
X-186181Y-130370D02*
X-186091Y-130280D01*
X-186181Y-91000D02*
X-186091Y-91091D01*
Y-105701D02*
X-186000Y-105791D01*
X-186091Y-105701D02*
Y-91091D01*
X-260000Y-130370D02*
Y-115709D01*
Y-104291D02*
Y-91000D01*
X190500Y183000D02*
X246000Y127500D01*
X216472Y88000D02*
Y147028D01*
X246000Y88000D02*
Y127500D01*
X184500Y179000D02*
Y197000D01*
X190500Y183000D02*
Y197982D01*
X184500Y179000D02*
X216472Y147028D01*
X175500Y206000D02*
X184500Y197000D01*
X153969Y210937D02*
X177545D01*
X156891Y206000D02*
X175500D01*
X177545Y210937D02*
X190500Y197982D01*
X150031Y207000D02*
X153969Y210937D01*
X135878Y207000D02*
X150031D01*
X150391Y199500D02*
X156891Y206000D01*
X128378Y199500D02*
X135878Y207000D01*
X168220Y-138220D02*
X175000Y-145000D01*
X204528D02*
Y-143461D01*
X195709Y-130500D02*
X201599Y-136390D01*
X204030Y-144794D02*
X204031Y-144795D01*
X165291Y-131149D02*
Y-130500D01*
X176709D02*
X184291D01*
D34*
X204874Y193910D02*
D03*
X73693D02*
D03*
D35*
X177453Y188319D02*
D03*
X172000Y199500D02*
D03*
X166547Y188319D02*
D03*
X161094Y199500D02*
D03*
X155642Y188319D02*
D03*
X150189Y199500D02*
D03*
X144736Y188319D02*
D03*
X139284Y199500D02*
D03*
X133831Y188319D02*
D03*
X128378Y199500D02*
D03*
X122925Y188319D02*
D03*
X117473Y199500D02*
D03*
X112020Y188319D02*
D03*
X106567Y199500D02*
D03*
D36*
X101114Y188319D02*
D03*
D37*
X-123000Y156000D02*
D03*
X-95441D02*
D03*
X-150559D02*
D03*
D38*
X149472Y121500D02*
D03*
X226000Y-102000D02*
D03*
X246000D02*
D03*
Y-122000D02*
D03*
X226000D02*
D03*
X215972Y14000D02*
D03*
X202000Y-58500D02*
D03*
X246000Y88000D02*
D03*
X204528Y-145000D02*
D03*
X151500Y-165500D02*
D03*
Y-185500D02*
D03*
X131500D02*
D03*
Y-165500D02*
D03*
D39*
X179000Y121500D02*
D03*
X245500Y14000D02*
D03*
X231528Y-58500D02*
D03*
X216472Y88000D02*
D03*
X175000Y-145000D02*
D03*
D40*
X-260000Y-130370D02*
D03*
Y-91000D02*
D03*
X-186181D02*
D03*
Y-130370D02*
D03*
X110500Y153000D02*
D03*
X51445Y153000D02*
D03*
X163055Y-206000D02*
D03*
X104000D02*
D03*
X91500D02*
D03*
X32445D02*
D03*
D41*
X-156281Y-88248D02*
D03*
X-121217Y-146031D02*
D03*
X-66710Y-185998D02*
D03*
X-1056Y-202063D02*
D03*
X65748Y-191781D02*
D03*
X123531Y-156717D02*
D03*
X163498Y-102209D02*
D03*
X179563Y-36556D02*
D03*
X169281Y30248D02*
D03*
X134217Y88031D02*
D03*
X79710Y127998D02*
D03*
D42*
X266500Y-28000D02*
D03*
Y-87055D02*
D03*
Y-100445D02*
D03*
Y-159500D02*
D03*
D43*
X-95441Y135559D02*
D03*
X-216500Y126000D02*
D03*
X-252000Y67500D02*
D03*
Y158051D02*
D03*
X-217000Y69130D02*
D03*
Y108500D02*
D03*
X-165819Y69130D02*
D03*
Y108500D02*
D03*
D44*
X-155000Y-124500D02*
D03*
Y-183555D02*
D03*
D45*
X-188500Y-47500D02*
D03*
X-268500D02*
D03*
D46*
X-257370Y36500D02*
D03*
X-237685D02*
D03*
X-218000D02*
D03*
X-265555Y-17500D02*
D03*
X-206500D02*
D03*
D47*
X-268370Y-68000D02*
D03*
X-229000D02*
D03*
X-174130D02*
D03*
X-213500D02*
D03*
D48*
X205500Y66500D02*
D03*
Y57500D02*
D03*
X205000Y47500D02*
D03*
X257000Y4000D02*
D03*
D49*
X-186000Y-105791D02*
D03*
Y-117209D02*
D03*
X-260000Y-104291D02*
D03*
Y-115709D02*
D03*
D50*
X174500Y106276D02*
D03*
Y90724D02*
D03*
X161500Y106276D02*
D03*
Y90724D02*
D03*
X187500D02*
D03*
Y106276D02*
D03*
X148500Y90724D02*
D03*
Y106276D02*
D03*
D51*
X193000Y59500D02*
Y74000D01*
Y59500D02*
X205000Y47500D01*
X193000Y74000D02*
X199500Y80500D01*
Y142500D01*
X204500Y79000D02*
Y145000D01*
X197500Y72000D02*
X204500Y79000D01*
X197500Y65500D02*
Y72000D01*
Y65500D02*
X205500Y57500D01*
X181500Y160500D02*
X199500Y142500D01*
X123000Y160500D02*
X181500D01*
X184000Y165500D02*
X204500Y145000D01*
X187045Y168955D02*
X209000Y147000D01*
X131384Y168955D02*
X187045D01*
X209000Y71500D02*
Y147000D01*
X124567Y165500D02*
X184000D01*
X101114Y182386D02*
X123000Y160500D01*
X101114Y182386D02*
Y188319D01*
X106567Y183500D02*
Y199500D01*
Y183500D02*
X124567Y165500D01*
X205500Y66500D02*
Y68000D01*
X209000Y71500D01*
X112020Y188319D02*
X131384Y168955D01*
M02*
