G04*
G04 #@! TF.GenerationSoftware,Altium Limited,Altium Designer,21.8.1 (53)*
G04*
G04 Layer_Color=32896*
%FSLAX25Y25*%
%MOIN*%
G70*
G04*
G04 #@! TF.SameCoordinates,D4491EC1-A137-4559-8BF3-DD038A9F8487*
G04*
G04*
G04 #@! TF.FilePolarity,Positive*
G04*
G01*
G75*
%ADD10C,0.00787*%
%ADD12C,0.01000*%
G36*
X-68415Y209312D02*
Y198713D01*
X-98694D01*
D01*
X-68415D01*
Y188421D01*
D01*
Y174688D01*
X-177585D01*
Y188421D01*
D01*
Y198713D01*
X-126790D01*
D01*
X-177585D01*
Y209312D01*
X-68415D01*
D02*
G37*
%LPC*%
G36*
X-152516Y205657D02*
X-157026Y205657D01*
X-154981D01*
X-155048Y205650D01*
X-155129Y205643D01*
X-155225Y205628D01*
X-155335Y205613D01*
X-155446Y205591D01*
X-155572Y205561D01*
X-155697Y205525D01*
X-155830Y205480D01*
X-155955Y205429D01*
X-156088Y205362D01*
X-156214Y205288D01*
X-156332Y205207D01*
X-156442Y205111D01*
X-156450Y205104D01*
X-156465Y205089D01*
X-156494Y205052D01*
X-156531Y205015D01*
X-156575Y204964D01*
X-156627Y204897D01*
X-156679Y204823D01*
X-156730Y204735D01*
X-156782Y204646D01*
X-156834Y204543D01*
X-156885Y204432D01*
X-156930Y204314D01*
X-156966Y204181D01*
X-156996Y204049D01*
X-157011Y203908D01*
X-157018Y203761D01*
Y203753D01*
Y203746D01*
Y203724D01*
Y203694D01*
X-157011Y203613D01*
X-156996Y203510D01*
X-156974Y203384D01*
X-156944Y203252D01*
X-156907Y203104D01*
X-156848Y202956D01*
Y202949D01*
X-156841Y202942D01*
X-156834Y202919D01*
X-156819Y202890D01*
X-156775Y202809D01*
X-156716Y202705D01*
X-156634Y202580D01*
X-156538Y202440D01*
X-156428Y202292D01*
X-156288Y202130D01*
X-156280Y202122D01*
X-156273Y202108D01*
X-156243Y202085D01*
X-156214Y202049D01*
X-156169Y202004D01*
X-156118Y201953D01*
X-156059Y201886D01*
X-155985Y201820D01*
X-155896Y201739D01*
X-155800Y201650D01*
X-155697Y201547D01*
X-155579Y201443D01*
X-155454Y201325D01*
X-155313Y201207D01*
X-155158Y201074D01*
X-154996Y200934D01*
X-154989Y200927D01*
X-154966Y200905D01*
X-154922Y200875D01*
X-154878Y200831D01*
X-154812Y200779D01*
X-154745Y200720D01*
X-154590Y200587D01*
X-154428Y200447D01*
X-154273Y200300D01*
X-154199Y200233D01*
X-154132Y200174D01*
X-154074Y200115D01*
X-154029Y200071D01*
X-154022Y200063D01*
X-153992Y200034D01*
X-153955Y199990D01*
X-153904Y199931D01*
X-153845Y199864D01*
X-153786Y199790D01*
X-153668Y199628D01*
X-157026Y199628D01*
Y199628D01*
Y198823D01*
X-152516Y198823D01*
Y198934D01*
X-152524Y199008D01*
X-152531Y199097D01*
X-152553Y199193D01*
X-152575Y199296D01*
X-152612Y199399D01*
Y199407D01*
X-152620Y199421D01*
X-152627Y199443D01*
X-152642Y199480D01*
X-152664Y199517D01*
X-152686Y199569D01*
X-152745Y199687D01*
X-152819Y199827D01*
X-152915Y199982D01*
X-153025Y200145D01*
X-153158Y200307D01*
X-153166Y200314D01*
X-153173Y200329D01*
X-153195Y200351D01*
X-153232Y200388D01*
X-153269Y200425D01*
X-153321Y200477D01*
X-153372Y200536D01*
X-153439Y200602D01*
X-153513Y200676D01*
X-153594Y200750D01*
X-153682Y200838D01*
X-153786Y200927D01*
X-153889Y201023D01*
X-154007Y201119D01*
X-154125Y201222D01*
X-154258Y201333D01*
X-154273Y201340D01*
X-154310Y201377D01*
X-154361Y201421D01*
X-154435Y201488D01*
X-154524Y201561D01*
X-154627Y201650D01*
X-154745Y201746D01*
X-154863Y201857D01*
X-155114Y202085D01*
X-155358Y202329D01*
X-155476Y202447D01*
X-155586Y202565D01*
X-155682Y202676D01*
X-155763Y202779D01*
X-155771Y202787D01*
X-155778Y202801D01*
X-155800Y202831D01*
X-155823Y202868D01*
X-155859Y202919D01*
X-155889Y202971D01*
X-155963Y203104D01*
X-156037Y203259D01*
X-156103Y203429D01*
X-156147Y203606D01*
X-156155Y203694D01*
X-156162Y203783D01*
Y203790D01*
Y203805D01*
Y203835D01*
X-156155Y203864D01*
Y203908D01*
X-156140Y203960D01*
X-156118Y204071D01*
X-156073Y204204D01*
X-156007Y204344D01*
X-155970Y204418D01*
X-155919Y204484D01*
X-155867Y204550D01*
X-155800Y204617D01*
X-155793Y204624D01*
X-155786Y204632D01*
X-155763Y204646D01*
X-155734Y204668D01*
X-155697Y204698D01*
X-155653Y204728D01*
X-155550Y204794D01*
X-155409Y204853D01*
X-155254Y204912D01*
X-155070Y204949D01*
X-154966Y204964D01*
X-154804D01*
X-154760Y204956D01*
X-154708D01*
X-154649Y204942D01*
X-154516Y204919D01*
X-154361Y204875D01*
X-154199Y204809D01*
X-154118Y204764D01*
X-154037Y204720D01*
X-153963Y204661D01*
X-153889Y204595D01*
X-153882Y204587D01*
X-153874Y204580D01*
X-153859Y204558D01*
X-153830Y204528D01*
X-153808Y204491D01*
X-153778Y204447D01*
X-153741Y204395D01*
X-153712Y204336D01*
X-153675Y204270D01*
X-153646Y204196D01*
X-153586Y204019D01*
X-153542Y203827D01*
X-153535Y203716D01*
X-153527Y203598D01*
X-152671Y203687D01*
Y203702D01*
X-152679Y203731D01*
X-152686Y203776D01*
X-152693Y203842D01*
X-152708Y203923D01*
X-152730Y204019D01*
X-152752Y204122D01*
X-152789Y204233D01*
X-152826Y204344D01*
X-152871Y204469D01*
X-152930Y204587D01*
X-152989Y204705D01*
X-153062Y204831D01*
X-153144Y204942D01*
X-153232Y205052D01*
X-153335Y205148D01*
X-153343Y205156D01*
X-153365Y205170D01*
X-153394Y205192D01*
X-153439Y205229D01*
X-153498Y205266D01*
X-153572Y205311D01*
X-153653Y205355D01*
X-153749Y205406D01*
X-153852Y205451D01*
X-153970Y205495D01*
X-154096Y205539D01*
X-154236Y205576D01*
X-154383Y205613D01*
X-154538Y205635D01*
X-154708Y205650D01*
X-154885Y205657D01*
X-152516Y205657D01*
D02*
G37*
G36*
X-112155Y203871D02*
Y203761D01*
X-112908D01*
Y203052D01*
X-112915Y203060D01*
X-112930Y203089D01*
X-112967Y203126D01*
X-113011Y203178D01*
X-113063Y203244D01*
X-113129Y203311D01*
X-113210Y203384D01*
X-113306Y203466D01*
X-113410Y203539D01*
X-113528Y203613D01*
X-113653Y203680D01*
X-113794Y203746D01*
X-113948Y203798D01*
X-114111Y203835D01*
X-114288Y203864D01*
X-114472Y203871D01*
X-112155D01*
X-116162D01*
D01*
X-114546D01*
X-114591Y203864D01*
X-114635D01*
X-114745Y203849D01*
X-114871Y203835D01*
X-115011Y203805D01*
X-115151Y203761D01*
X-115292Y203709D01*
X-115299D01*
X-115306Y203702D01*
X-115351Y203680D01*
X-115417Y203643D01*
X-115506Y203598D01*
X-115594Y203532D01*
X-115690Y203466D01*
X-115779Y203384D01*
X-115852Y203288D01*
X-115860Y203274D01*
X-115882Y203244D01*
X-115911Y203185D01*
X-115956Y203111D01*
X-116000Y203023D01*
X-116037Y202919D01*
X-116081Y202801D01*
X-116111Y202668D01*
Y202661D01*
X-116118Y202624D01*
X-116126Y202565D01*
X-116140Y202484D01*
X-116148Y202373D01*
Y202307D01*
X-116155Y202233D01*
Y202152D01*
X-116162Y202056D01*
Y198823D01*
X-115329D01*
Y201827D01*
Y201835D01*
Y201849D01*
Y201879D01*
Y201908D01*
Y201953D01*
X-115321Y202004D01*
X-115314Y202115D01*
X-115306Y202240D01*
X-115284Y202366D01*
X-115262Y202484D01*
X-115225Y202587D01*
X-115218Y202602D01*
X-115203Y202632D01*
X-115181Y202676D01*
X-115144Y202735D01*
X-115100Y202801D01*
X-115041Y202868D01*
X-114967Y202934D01*
X-114878Y202993D01*
X-114871Y203001D01*
X-114834Y203015D01*
X-114782Y203045D01*
X-114716Y203074D01*
X-114627Y203097D01*
X-114531Y203126D01*
X-114421Y203141D01*
X-114295Y203148D01*
X-114244D01*
X-114207Y203141D01*
X-114162D01*
X-114103Y203134D01*
X-113978Y203104D01*
X-113838Y203067D01*
X-113683Y203008D01*
X-113528Y202919D01*
X-113447Y202868D01*
X-113373Y202809D01*
X-113365Y202801D01*
X-113358Y202794D01*
X-113336Y202772D01*
X-113314Y202742D01*
X-113284Y202698D01*
X-113255Y202654D01*
X-113218Y202595D01*
X-113181Y202521D01*
X-113144Y202440D01*
X-113107Y202344D01*
X-113078Y202240D01*
X-113048Y202122D01*
X-113026Y201990D01*
X-113004Y201849D01*
X-112996Y201687D01*
X-112989Y201517D01*
Y198823D01*
X-114159D01*
X-112155D01*
Y203871D01*
D02*
G37*
G36*
X-103690D02*
Y203761D01*
X-104443D01*
Y203015D01*
X-104458Y203030D01*
X-104472Y203060D01*
X-104495Y203089D01*
X-104546Y203185D01*
X-104620Y203288D01*
X-104701Y203407D01*
X-104790Y203525D01*
X-104878Y203621D01*
X-104930Y203665D01*
X-104974Y203702D01*
X-104989Y203709D01*
X-105019Y203731D01*
X-105070Y203753D01*
X-105129Y203790D01*
X-105210Y203820D01*
X-105299Y203842D01*
X-105402Y203864D01*
X-105506Y203871D01*
X-106369D01*
X-105550D01*
X-105579Y203864D01*
X-105616D01*
X-105661Y203857D01*
X-105771Y203835D01*
X-105904Y203805D01*
X-106044Y203753D01*
X-106207Y203687D01*
X-106369Y203598D01*
X-106074Y202823D01*
X-106059Y202831D01*
X-106022Y202853D01*
X-105963Y202883D01*
X-105882Y202919D01*
X-105793Y202949D01*
X-105690Y202978D01*
X-105579Y203001D01*
X-105461Y203008D01*
X-105417D01*
X-105366Y203001D01*
X-105299Y202986D01*
X-105218Y202964D01*
X-105137Y202934D01*
X-105055Y202897D01*
X-104967Y202838D01*
X-104960Y202831D01*
X-104930Y202809D01*
X-104893Y202772D01*
X-104849Y202720D01*
X-104797Y202654D01*
X-104746Y202580D01*
X-104701Y202484D01*
X-104657Y202381D01*
Y202373D01*
X-104650Y202359D01*
X-104642Y202336D01*
X-104635Y202307D01*
X-104628Y202263D01*
X-104613Y202211D01*
X-104591Y202093D01*
X-104569Y201945D01*
X-104546Y201783D01*
X-104532Y201598D01*
X-104524Y201407D01*
Y198823D01*
X-106369D01*
X-103690D01*
Y203871D01*
D02*
G37*
G36*
X-117114Y201709D02*
X-119690D01*
Y200868D01*
X-117114D01*
Y201709D01*
D02*
G37*
G36*
X-136044Y205635D02*
X-136967D01*
X-140546Y200285D01*
Y205635D01*
X-141409D01*
Y198823D01*
X-140480D01*
X-136908Y204167D01*
Y198823D01*
X-136044D01*
Y205635D01*
D02*
G37*
G36*
X-88974Y205635D02*
X-90325D01*
X-91941Y200809D01*
Y200801D01*
X-91949Y200779D01*
X-91963Y200742D01*
X-91978Y200698D01*
X-91993Y200646D01*
X-92015Y200580D01*
X-92067Y200432D01*
X-92118Y200270D01*
X-92170Y200100D01*
X-92222Y199945D01*
X-92244Y199872D01*
X-92266Y199805D01*
Y199812D01*
X-92273Y199820D01*
X-92281Y199842D01*
X-92288Y199872D01*
X-92303Y199916D01*
X-92318Y199960D01*
X-92332Y200019D01*
X-92355Y200078D01*
X-92377Y200152D01*
X-92406Y200233D01*
X-92436Y200322D01*
X-92465Y200425D01*
X-92502Y200528D01*
X-92539Y200646D01*
X-92583Y200764D01*
X-92628Y200897D01*
X-94266Y205635D01*
X-95484D01*
Y198824D01*
X-93340D01*
X-94613D01*
Y204528D01*
X-92620Y198824D01*
X-88974D01*
Y205635D01*
D02*
G37*
G36*
X-100930Y203871D02*
X-101011D01*
X-101063Y203864D01*
X-101129Y203857D01*
X-101211Y203849D01*
X-101299Y203835D01*
X-101395Y203820D01*
X-101602Y203768D01*
X-101823Y203694D01*
X-101934Y203650D01*
X-102044Y203598D01*
X-102148Y203532D01*
X-102244Y203458D01*
X-102251Y203451D01*
X-102266Y203436D01*
X-102295Y203414D01*
X-102325Y203384D01*
X-102369Y203340D01*
X-102413Y203288D01*
X-102465Y203229D01*
X-102517Y203163D01*
X-102576Y203082D01*
X-102628Y203001D01*
X-102687Y202905D01*
X-102738Y202801D01*
X-102782Y202691D01*
X-102827Y202573D01*
X-102871Y202440D01*
X-102901Y202307D01*
X-102089Y202181D01*
Y202189D01*
X-102081Y202204D01*
X-102074Y202226D01*
X-102067Y202263D01*
X-102037Y202351D01*
X-101993Y202462D01*
X-101934Y202580D01*
X-101867Y202705D01*
X-101779Y202823D01*
X-101675Y202927D01*
X-101661Y202942D01*
X-101624Y202971D01*
X-101557Y203008D01*
X-101476Y203060D01*
X-101373Y203104D01*
X-101255Y203148D01*
X-101115Y203178D01*
X-100967Y203185D01*
X-100908D01*
X-100864Y203178D01*
X-100805Y203170D01*
X-100746Y203163D01*
X-100598Y203126D01*
X-100436Y203074D01*
X-100355Y203038D01*
X-100266Y202993D01*
X-100185Y202942D01*
X-100096Y202875D01*
X-100015Y202809D01*
X-99941Y202728D01*
X-99934Y202720D01*
X-99926Y202705D01*
X-99904Y202683D01*
X-99882Y202639D01*
X-99853Y202595D01*
X-99816Y202536D01*
X-99779Y202462D01*
X-99749Y202381D01*
X-99712Y202285D01*
X-99676Y202181D01*
X-99639Y202063D01*
X-99609Y201930D01*
X-99587Y201790D01*
X-99565Y201643D01*
X-99557Y201473D01*
X-99550Y201296D01*
Y201289D01*
Y201252D01*
Y201200D01*
X-99557Y201133D01*
X-99565Y201052D01*
X-99572Y200956D01*
X-99580Y200853D01*
X-99594Y200742D01*
X-99639Y200506D01*
X-99712Y200263D01*
X-99749Y200152D01*
X-99801Y200041D01*
X-99860Y199938D01*
X-99926Y199849D01*
X-99934Y199842D01*
X-99941Y199827D01*
X-99963Y199805D01*
X-99993Y199783D01*
X-100037Y199746D01*
X-100081Y199709D01*
X-100133Y199665D01*
X-100192Y199628D01*
X-100340Y199539D01*
X-100510Y199473D01*
X-100605Y199443D01*
X-100701Y199421D01*
X-100812Y199407D01*
X-100923Y199399D01*
X-100967D01*
X-101004Y199407D01*
X-101048D01*
X-101093Y199414D01*
X-101211Y199436D01*
X-101336Y199473D01*
X-101476Y199525D01*
X-101609Y199598D01*
X-101742Y199694D01*
X-101749Y199702D01*
X-101757Y199709D01*
X-101794Y199753D01*
X-101853Y199827D01*
X-101882Y199872D01*
X-101919Y199923D01*
X-101956Y199990D01*
X-101993Y200056D01*
X-102022Y200130D01*
X-102059Y200218D01*
X-102089Y200307D01*
X-102118Y200410D01*
X-102140Y200514D01*
X-102163Y200632D01*
X-102982Y200521D01*
Y200573D01*
Y200514D01*
X-102974Y200484D01*
X-102967Y200440D01*
X-102952Y200381D01*
X-102930Y200307D01*
X-102908Y200226D01*
X-102878Y200137D01*
X-102841Y200034D01*
X-102753Y199827D01*
X-102694Y199716D01*
X-102628Y199606D01*
X-102561Y199495D01*
X-102480Y199384D01*
X-102384Y199288D01*
X-102288Y199193D01*
X-102281Y199185D01*
X-102266Y199170D01*
X-102229Y199148D01*
X-102192Y199119D01*
X-102133Y199082D01*
X-102074Y199038D01*
X-101993Y199001D01*
X-101912Y198956D01*
X-101816Y198905D01*
X-101712Y198868D01*
X-101602Y198823D01*
X-101484Y198787D01*
X-101351Y198757D01*
X-101218Y198735D01*
X-101078Y198720D01*
X-100930Y198713D01*
X-100886D01*
X-100834Y198720D01*
X-100760D01*
X-100679Y198735D01*
X-100576Y198750D01*
X-100465Y198765D01*
X-100347Y198794D01*
X-100222Y198831D01*
X-100089Y198875D01*
X-99956Y198927D01*
X-99816Y198993D01*
X-99683Y199067D01*
X-99550Y199156D01*
X-99425Y199252D01*
X-99306Y199370D01*
X-99299Y199377D01*
X-99277Y199399D01*
X-99247Y199436D01*
X-99211Y199495D01*
X-99166Y199562D01*
X-99115Y199643D01*
X-99056Y199746D01*
X-99004Y199857D01*
X-98945Y199982D01*
X-98886Y200122D01*
X-98834Y200277D01*
X-98790Y200447D01*
X-98753Y200632D01*
X-98724Y200831D01*
X-98701Y201045D01*
X-98694Y201266D01*
Y199547D01*
Y201347D01*
X-98701Y201399D01*
Y201473D01*
X-98709Y201554D01*
X-98716Y201643D01*
X-98724Y201746D01*
X-98760Y201960D01*
X-98805Y202196D01*
X-98864Y202440D01*
X-98952Y202668D01*
Y202676D01*
X-98967Y202698D01*
X-98982Y202728D01*
X-99004Y202765D01*
X-99033Y202816D01*
X-99063Y202875D01*
X-99151Y203008D01*
X-99262Y203148D01*
X-99402Y203303D01*
X-99565Y203443D01*
X-99757Y203569D01*
X-99764D01*
X-99779Y203584D01*
X-99808Y203598D01*
X-99853Y203613D01*
X-99904Y203643D01*
X-99963Y203665D01*
X-100030Y203694D01*
X-100103Y203724D01*
X-100192Y203746D01*
X-100281Y203776D01*
X-100480Y203827D01*
X-100701Y203857D01*
X-100930Y203871D01*
D02*
G37*
G36*
X-123897Y205753D02*
X-124022D01*
X-124089Y205746D01*
X-124162Y205739D01*
X-124243Y205731D01*
X-124339Y205724D01*
X-124546Y205694D01*
X-124775Y205650D01*
X-125004Y205591D01*
X-125232Y205510D01*
X-125240D01*
X-125262Y205502D01*
X-125292Y205488D01*
X-125328Y205466D01*
X-125380Y205443D01*
X-125439Y205414D01*
X-125572Y205340D01*
X-125727Y205244D01*
X-125882Y205133D01*
X-126030Y205001D01*
X-126170Y204846D01*
X-126177Y204838D01*
X-126184Y204823D01*
X-126199Y204801D01*
X-126229Y204772D01*
X-126251Y204728D01*
X-126288Y204676D01*
X-126325Y204617D01*
X-126362Y204543D01*
X-126406Y204469D01*
X-126443Y204388D01*
X-126487Y204292D01*
X-126531Y204196D01*
X-126612Y203975D01*
X-126686Y203731D01*
X-125867Y203510D01*
Y203517D01*
X-125860Y203532D01*
X-125852Y203561D01*
X-125838Y203598D01*
X-125823Y203635D01*
X-125808Y203687D01*
X-125764Y203805D01*
X-125705Y203938D01*
X-125638Y204071D01*
X-125565Y204204D01*
X-125483Y204322D01*
X-125476Y204336D01*
X-125439Y204373D01*
X-125387Y204425D01*
X-125321Y204499D01*
X-125225Y204573D01*
X-125114Y204654D01*
X-124981Y204728D01*
X-124834Y204801D01*
X-124827D01*
X-124812Y204809D01*
X-124790Y204816D01*
X-124760Y204831D01*
X-124723Y204846D01*
X-124672Y204860D01*
X-124561Y204897D01*
X-124421Y204927D01*
X-124266Y204956D01*
X-124089Y204978D01*
X-123904Y204986D01*
X-123801D01*
X-123749Y204978D01*
X-123683D01*
X-123616Y204971D01*
X-123535Y204964D01*
X-123373Y204942D01*
X-123188Y204905D01*
X-123011Y204860D01*
X-122834Y204794D01*
X-122827D01*
X-122812Y204787D01*
X-122790Y204772D01*
X-122760Y204757D01*
X-122679Y204720D01*
X-122576Y204661D01*
X-122458Y204587D01*
X-122339Y204499D01*
X-122214Y204403D01*
X-122103Y204292D01*
X-122089Y204277D01*
X-122059Y204240D01*
X-122007Y204174D01*
X-121948Y204093D01*
X-121882Y203997D01*
X-121808Y203879D01*
X-121742Y203753D01*
X-121683Y203621D01*
Y203613D01*
X-121675Y203591D01*
X-121660Y203561D01*
X-121646Y203510D01*
X-121624Y203451D01*
X-121601Y203384D01*
X-121579Y203303D01*
X-121557Y203215D01*
X-121528Y203119D01*
X-121505Y203008D01*
X-121469Y202779D01*
X-121439Y202521D01*
X-121424Y202248D01*
Y202240D01*
Y202211D01*
Y202159D01*
X-121432Y202100D01*
Y202019D01*
X-121439Y201930D01*
X-121454Y201827D01*
X-121461Y201716D01*
X-121498Y201473D01*
X-121557Y201222D01*
X-121631Y200964D01*
X-121734Y200720D01*
X-121742Y200713D01*
X-121749Y200691D01*
X-121764Y200661D01*
X-121793Y200617D01*
X-121823Y200573D01*
X-121867Y200514D01*
X-121963Y200381D01*
X-122096Y200233D01*
X-122251Y200078D01*
X-122428Y199938D01*
X-122531Y199872D01*
X-122642Y199812D01*
X-122650D01*
X-122672Y199798D01*
X-122701Y199783D01*
X-122745Y199768D01*
X-122804Y199746D01*
X-122871Y199716D01*
X-122945Y199694D01*
X-123026Y199665D01*
X-123114Y199635D01*
X-123218Y199613D01*
X-123432Y199562D01*
X-123668Y199532D01*
X-123919Y199517D01*
X-123978D01*
X-124022Y199525D01*
X-124074D01*
X-124133Y199532D01*
X-124199Y199539D01*
X-124280Y199547D01*
X-124450Y199569D01*
X-124642Y199613D01*
X-124849Y199665D01*
X-125055Y199739D01*
X-125063D01*
X-125077Y199746D01*
X-125107Y199761D01*
X-125151Y199776D01*
X-125196Y199798D01*
X-125247Y199827D01*
X-125373Y199886D01*
X-125513Y199960D01*
X-125653Y200041D01*
X-125786Y200122D01*
X-125904Y200218D01*
Y201495D01*
X-123904D01*
Y202299D01*
X-126790D01*
D01*
Y199768D01*
X-126782Y199761D01*
X-126760Y199746D01*
X-126723Y199716D01*
X-126672Y199680D01*
X-126612Y199635D01*
X-126539Y199591D01*
X-126458Y199532D01*
X-126369Y199473D01*
X-126273Y199414D01*
X-126162Y199347D01*
X-125934Y199215D01*
X-125683Y199089D01*
X-125417Y198978D01*
X-125410D01*
X-125387Y198964D01*
X-125350Y198956D01*
X-125292Y198934D01*
X-125232Y198919D01*
X-125151Y198897D01*
X-125070Y198868D01*
X-124974Y198846D01*
X-124863Y198823D01*
X-124753Y198794D01*
X-124509Y198757D01*
X-124243Y198728D01*
X-123971Y198713D01*
X-123874D01*
X-123801Y198720D01*
X-123712Y198728D01*
X-123609Y198735D01*
X-123491Y198750D01*
X-123365Y198765D01*
X-123232Y198787D01*
X-123085Y198816D01*
X-122937Y198853D01*
X-122775Y198897D01*
X-122620Y198942D01*
X-122465Y199001D01*
X-122303Y199067D01*
X-122148Y199141D01*
X-122140Y199148D01*
X-122111Y199163D01*
X-122066Y199185D01*
X-122015Y199222D01*
X-121948Y199266D01*
X-121867Y199318D01*
X-121779Y199384D01*
X-121683Y199458D01*
X-121587Y199539D01*
X-121483Y199635D01*
X-121380Y199731D01*
X-121277Y199842D01*
X-121181Y199967D01*
X-121085Y200093D01*
X-120989Y200233D01*
X-120908Y200381D01*
X-120900Y200388D01*
X-120893Y200418D01*
X-120871Y200462D01*
X-120841Y200521D01*
X-120812Y200602D01*
X-120775Y200691D01*
X-120738Y200794D01*
X-120701Y200912D01*
X-120664Y201038D01*
X-120627Y201178D01*
X-120590Y201333D01*
X-120561Y201488D01*
X-120531Y201658D01*
X-120509Y201827D01*
X-120502Y202012D01*
X-120494Y202196D01*
Y201547D01*
Y202196D01*
Y202292D01*
X-120502Y202366D01*
X-120509Y202454D01*
X-120517Y202558D01*
X-120531Y202676D01*
X-120546Y202801D01*
X-120568Y202942D01*
X-120598Y203089D01*
X-120672Y203399D01*
X-120716Y203561D01*
X-120775Y203724D01*
X-120834Y203886D01*
X-120908Y204049D01*
X-120915Y204056D01*
X-120930Y204085D01*
X-120952Y204130D01*
X-120982Y204189D01*
X-121026Y204263D01*
X-121078Y204344D01*
X-121144Y204432D01*
X-121210Y204536D01*
X-121291Y204639D01*
X-121380Y204742D01*
X-121476Y204846D01*
X-121587Y204956D01*
X-121697Y205060D01*
X-121823Y205156D01*
X-121956Y205252D01*
X-122096Y205333D01*
X-122103Y205340D01*
X-122133Y205347D01*
X-122177Y205370D01*
X-122236Y205399D01*
X-122310Y205429D01*
X-122398Y205466D01*
X-122502Y205502D01*
X-122613Y205547D01*
X-122738Y205584D01*
X-122878Y205621D01*
X-123026Y205657D01*
X-123188Y205687D01*
X-123351Y205716D01*
X-123528Y205739D01*
X-123712Y205746D01*
X-123897Y205753D01*
D02*
G37*
G36*
X-96834Y205635D02*
X-97668Y205635D01*
Y204683D01*
X-96834Y204683D01*
Y203761D01*
X-97668Y203761D01*
Y198823D01*
X-96834Y198824D01*
Y205635D01*
D02*
G37*
G36*
X-128081Y205635D02*
X-128981D01*
Y199628D01*
X-132339D01*
Y198823D01*
X-128081D01*
Y205635D01*
D02*
G37*
G36*
X-133564D02*
X-134465D01*
Y198823D01*
X-133564D01*
Y205635D01*
D02*
G37*
G36*
X-144944Y203761D02*
D01*
Y198823D01*
X-146812D01*
X-144944Y203761D01*
X-145830D01*
X-146893Y200801D01*
Y200794D01*
X-146900Y200779D01*
X-146907Y200757D01*
X-146922Y200720D01*
X-146937Y200676D01*
X-146952Y200624D01*
X-146996Y200499D01*
X-147048Y200351D01*
X-147099Y200182D01*
X-147151Y199997D01*
X-147210Y199805D01*
Y199812D01*
X-147218Y199820D01*
X-147225Y199842D01*
X-147232Y199872D01*
X-147240Y199916D01*
X-147254Y199960D01*
X-147291Y200071D01*
X-147336Y200204D01*
X-147387Y200366D01*
X-147446Y200543D01*
X-147520Y200742D01*
X-148620Y203761D01*
X-149483D01*
X-147609Y198823D01*
X-149483D01*
D01*
X-144944D01*
Y203761D01*
D02*
G37*
G36*
X-150457Y199776D02*
X-151409D01*
Y198823D01*
X-150457D01*
Y199776D01*
D02*
G37*
G36*
X-102982Y200418D02*
Y198713D01*
X-106554D01*
D01*
X-102982D01*
Y200418D01*
D02*
G37*
G36*
X-108864Y203871D02*
X-108908D01*
X-108959Y203864D01*
X-109033D01*
X-109122Y203849D01*
X-109218Y203835D01*
X-109328Y203812D01*
X-109454Y203790D01*
X-109580Y203753D01*
X-109720Y203709D01*
X-109853Y203650D01*
X-109993Y203591D01*
X-110133Y203510D01*
X-110266Y203421D01*
X-110399Y203318D01*
X-110524Y203200D01*
X-110531Y203192D01*
X-110554Y203170D01*
X-110583Y203134D01*
X-110627Y203074D01*
X-110672Y203008D01*
X-110731Y202927D01*
X-110790Y202831D01*
X-110849Y202720D01*
X-110908Y202595D01*
X-110967Y202454D01*
X-111026Y202307D01*
X-111070Y202145D01*
X-111115Y201967D01*
X-111144Y201776D01*
X-111166Y201569D01*
X-111174Y201355D01*
Y201266D01*
X-111166Y201200D01*
Y201119D01*
X-111159Y201023D01*
X-111151Y200920D01*
X-111137Y200809D01*
X-111107Y200573D01*
X-111056Y200322D01*
X-110982Y200078D01*
X-110937Y199967D01*
X-110886Y199857D01*
Y199849D01*
X-110871Y199835D01*
X-110856Y199805D01*
X-110834Y199768D01*
X-110804Y199724D01*
X-110768Y199665D01*
X-110672Y199547D01*
X-110554Y199407D01*
X-110413Y199266D01*
X-110244Y199134D01*
X-110052Y199008D01*
X-110044D01*
X-110030Y198993D01*
X-110000Y198978D01*
X-109956Y198964D01*
X-109904Y198942D01*
X-109845Y198912D01*
X-109779Y198890D01*
X-109698Y198860D01*
X-109616Y198831D01*
X-109520Y198809D01*
X-109321Y198757D01*
X-109100Y198728D01*
X-108864Y198713D01*
X-108819D01*
X-108768Y198720D01*
X-108694D01*
X-108605Y198735D01*
X-108502Y198750D01*
X-108391Y198772D01*
X-108266Y198794D01*
X-108133Y198831D01*
X-108000Y198875D01*
X-107860Y198927D01*
X-107720Y198993D01*
X-107580Y199067D01*
X-107447Y199156D01*
X-107314Y199259D01*
X-107188Y199377D01*
X-107181Y199384D01*
X-107159Y199407D01*
X-107129Y199443D01*
X-107092Y199503D01*
X-107041Y199569D01*
X-106989Y199650D01*
X-106930Y199753D01*
X-106871Y199864D01*
X-106812Y199997D01*
X-106753Y200137D01*
X-106701Y200292D01*
X-106650Y200462D01*
X-106613Y200646D01*
X-106583Y200846D01*
X-106561Y201060D01*
X-106554Y201289D01*
Y201407D01*
Y201347D01*
X-106561Y201421D01*
X-106568Y201510D01*
X-106576Y201628D01*
X-106591Y201761D01*
X-106620Y201901D01*
X-106650Y202056D01*
X-106686Y202218D01*
X-106738Y202388D01*
X-106805Y202558D01*
X-106871Y202728D01*
X-106960Y202890D01*
X-107063Y203045D01*
X-107181Y203185D01*
X-107314Y203318D01*
X-107321Y203325D01*
X-107343Y203340D01*
X-107380Y203370D01*
X-107424Y203407D01*
X-107491Y203443D01*
X-107565Y203495D01*
X-107646Y203547D01*
X-107749Y203598D01*
X-107852Y203650D01*
X-107971Y203694D01*
X-108096Y203746D01*
X-108236Y203783D01*
X-108384Y203820D01*
X-108531Y203849D01*
X-108694Y203864D01*
X-108864Y203871D01*
D02*
G37*
G36*
X-111174Y201200D02*
Y198713D01*
X-120494D01*
D01*
X-111174D01*
Y201200D01*
D02*
G37*
G36*
X-89071Y197232D02*
X-92089D01*
D01*
X-89071D01*
D02*
G37*
G36*
X-88082D02*
X-88915D01*
Y194782D01*
X-88923Y194790D01*
X-88945Y194812D01*
X-88974Y194849D01*
X-89019Y194893D01*
X-89078Y194945D01*
X-89144Y194996D01*
X-89225Y195063D01*
X-89321Y195129D01*
X-89417Y195188D01*
X-89528Y195255D01*
X-89653Y195306D01*
X-89779Y195365D01*
X-89919Y195402D01*
X-90067Y195439D01*
X-90222Y195461D01*
X-90384Y195469D01*
X-90473D01*
X-90524Y195461D01*
X-90576Y195454D01*
X-90709Y195439D01*
X-90856Y195417D01*
X-91011Y195373D01*
X-91174Y195321D01*
X-91329Y195247D01*
X-91336D01*
X-91343Y195240D01*
X-91366Y195225D01*
X-91395Y195210D01*
X-91469Y195159D01*
X-91558Y195092D01*
X-91646Y195011D01*
X-91749Y194908D01*
X-91838Y194782D01*
X-91912Y194649D01*
Y194642D01*
X-91919Y194635D01*
X-91926Y194613D01*
X-91941Y194583D01*
X-91956Y194539D01*
X-91971Y194494D01*
X-91986Y194435D01*
X-92000Y194369D01*
X-92015Y194295D01*
X-92030Y194214D01*
X-92045Y194125D01*
X-92059Y194022D01*
X-92074Y193919D01*
X-92081Y193801D01*
X-92089Y193675D01*
Y190421D01*
X-91255D01*
Y193542D01*
Y193550D01*
Y193572D01*
Y193602D01*
X-91248Y193646D01*
Y193697D01*
X-91240Y193756D01*
X-91218Y193889D01*
X-91189Y194044D01*
X-91137Y194192D01*
X-91070Y194340D01*
X-91034Y194398D01*
X-90982Y194457D01*
X-90967Y194472D01*
X-90930Y194502D01*
X-90871Y194546D01*
X-90783Y194605D01*
X-90672Y194657D01*
X-90547Y194701D01*
X-90391Y194731D01*
X-90214Y194745D01*
X-90155D01*
X-90082Y194738D01*
X-89986Y194723D01*
X-89882Y194694D01*
X-89764Y194664D01*
X-89639Y194613D01*
X-89513Y194546D01*
X-89499Y194539D01*
X-89462Y194509D01*
X-89403Y194465D01*
X-89336Y194406D01*
X-89255Y194332D01*
X-89181Y194244D01*
X-89107Y194140D01*
X-89048Y194022D01*
X-89041Y194007D01*
X-89034Y193985D01*
X-89026Y193963D01*
X-89004Y193889D01*
X-88982Y193786D01*
X-88960Y193660D01*
X-88938Y193506D01*
X-88923Y193321D01*
X-88915Y193114D01*
Y190421D01*
X-90085D01*
X-88082D01*
Y197232D01*
D02*
G37*
G36*
X-109247Y195469D02*
Y195358D01*
X-110000D01*
Y194649D01*
X-110008Y194657D01*
X-110022Y194686D01*
X-110059Y194723D01*
X-110103Y194775D01*
X-110155Y194841D01*
X-110222Y194908D01*
X-110303Y194982D01*
X-110399Y195063D01*
X-110502Y195136D01*
X-110620Y195210D01*
X-110746Y195277D01*
X-110886Y195343D01*
X-111041Y195395D01*
X-111203Y195432D01*
X-111380Y195461D01*
X-111565Y195469D01*
X-109247D01*
X-113255D01*
D01*
X-111638D01*
X-111683Y195461D01*
X-111727D01*
X-111838Y195447D01*
X-111963Y195432D01*
X-112103Y195402D01*
X-112244Y195358D01*
X-112384Y195306D01*
X-112391D01*
X-112399Y195299D01*
X-112443Y195277D01*
X-112509Y195240D01*
X-112598Y195195D01*
X-112686Y195129D01*
X-112782Y195063D01*
X-112871Y194982D01*
X-112945Y194886D01*
X-112952Y194871D01*
X-112974Y194841D01*
X-113004Y194782D01*
X-113048Y194708D01*
X-113092Y194620D01*
X-113129Y194517D01*
X-113173Y194398D01*
X-113203Y194266D01*
Y194258D01*
X-113210Y194221D01*
X-113218Y194162D01*
X-113233Y194081D01*
X-113240Y193971D01*
Y193904D01*
X-113247Y193830D01*
Y193749D01*
X-113255Y193653D01*
Y190421D01*
X-112421D01*
Y193424D01*
Y193432D01*
Y193447D01*
Y193476D01*
Y193506D01*
Y193550D01*
X-112413Y193601D01*
X-112406Y193712D01*
X-112399Y193838D01*
X-112376Y193963D01*
X-112354Y194081D01*
X-112318Y194185D01*
X-112310Y194199D01*
X-112295Y194229D01*
X-112273Y194273D01*
X-112236Y194332D01*
X-112192Y194398D01*
X-112133Y194465D01*
X-112059Y194531D01*
X-111971Y194590D01*
X-111963Y194598D01*
X-111926Y194613D01*
X-111875Y194642D01*
X-111808Y194672D01*
X-111720Y194694D01*
X-111624Y194723D01*
X-111513Y194738D01*
X-111388Y194745D01*
X-111336D01*
X-111299Y194738D01*
X-111255D01*
X-111196Y194731D01*
X-111070Y194701D01*
X-110930Y194664D01*
X-110775Y194605D01*
X-110620Y194517D01*
X-110539Y194465D01*
X-110465Y194406D01*
X-110458Y194398D01*
X-110450Y194391D01*
X-110428Y194369D01*
X-110406Y194340D01*
X-110377Y194295D01*
X-110347Y194251D01*
X-110310Y194192D01*
X-110273Y194118D01*
X-110236Y194037D01*
X-110199Y193941D01*
X-110170Y193838D01*
X-110140Y193719D01*
X-110118Y193587D01*
X-110096Y193447D01*
X-110089Y193284D01*
X-110081Y193114D01*
Y190421D01*
X-111251D01*
X-109247D01*
Y195469D01*
D02*
G37*
G36*
X-106044D02*
X-106148D01*
X-106199Y195461D01*
X-106266D01*
X-106406Y195447D01*
X-106568Y195432D01*
X-106738Y195402D01*
X-106908Y195365D01*
X-107063Y195314D01*
X-107070D01*
X-107078Y195306D01*
X-107100Y195299D01*
X-107129Y195284D01*
X-107196Y195255D01*
X-107284Y195210D01*
X-107380Y195159D01*
X-107476Y195092D01*
X-107565Y195018D01*
X-107646Y194937D01*
X-107653Y194930D01*
X-107675Y194900D01*
X-107712Y194849D01*
X-107749Y194782D01*
X-107793Y194701D01*
X-107838Y194605D01*
X-107882Y194494D01*
X-107912Y194369D01*
Y194362D01*
X-107919Y194325D01*
X-107926Y194273D01*
X-107934Y194192D01*
X-107941Y194088D01*
X-107949Y193956D01*
Y193875D01*
X-107956Y193793D01*
Y193705D01*
Y193601D01*
Y192487D01*
Y192472D01*
Y192435D01*
Y192376D01*
Y192303D01*
Y192207D01*
Y192103D01*
X-107963Y191985D01*
Y191867D01*
X-107971Y191616D01*
Y191491D01*
X-107978Y191373D01*
X-107985Y191262D01*
X-107993Y191166D01*
X-108000Y191077D01*
X-108008Y191011D01*
Y190996D01*
X-108015Y190959D01*
X-108030Y190900D01*
X-108052Y190819D01*
X-108081Y190731D01*
X-108118Y190635D01*
X-108162Y190524D01*
X-108214Y190421D01*
X-107343D01*
X-107336Y190435D01*
X-107321Y190465D01*
X-107299Y190524D01*
X-107277Y190598D01*
X-107247Y190686D01*
X-107218Y190790D01*
X-107196Y190908D01*
X-107181Y191041D01*
X-107174Y191033D01*
X-107159Y191026D01*
X-107137Y191004D01*
X-107100Y190974D01*
X-107055Y190945D01*
X-107011Y190900D01*
X-106893Y190819D01*
X-106753Y190723D01*
X-106605Y190627D01*
X-106443Y190546D01*
X-106281Y190472D01*
X-106273D01*
X-106258Y190465D01*
X-106236Y190458D01*
X-106207Y190450D01*
X-106170Y190435D01*
X-106118Y190421D01*
X-106008Y190391D01*
X-105867Y190362D01*
X-105712Y190332D01*
X-105543Y190317D01*
X-105358Y190310D01*
X-108214D01*
X-103675D01*
D01*
X-105277D01*
X-105225Y190317D01*
X-105159Y190325D01*
X-105078Y190332D01*
X-104989Y190340D01*
X-104901Y190362D01*
X-104694Y190406D01*
X-104487Y190472D01*
X-104391Y190517D01*
X-104288Y190576D01*
X-104200Y190635D01*
X-104111Y190701D01*
X-104104Y190708D01*
X-104089Y190723D01*
X-104074Y190745D01*
X-104044Y190775D01*
X-104008Y190812D01*
X-103971Y190864D01*
X-103934Y190915D01*
X-103897Y190981D01*
X-103816Y191122D01*
X-103742Y191299D01*
X-103712Y191395D01*
X-103698Y191498D01*
X-103683Y191609D01*
X-103675Y191720D01*
Y191779D01*
X-103683Y191852D01*
X-103698Y191941D01*
X-103712Y192044D01*
X-103742Y192155D01*
X-103786Y192266D01*
X-103838Y192384D01*
X-103845Y192399D01*
X-103867Y192435D01*
X-103904Y192487D01*
X-103956Y192561D01*
X-104015Y192635D01*
X-104089Y192716D01*
X-104170Y192790D01*
X-104266Y192863D01*
X-104281Y192871D01*
X-104317Y192893D01*
X-104369Y192930D01*
X-104443Y192967D01*
X-104532Y193011D01*
X-104635Y193055D01*
X-104753Y193100D01*
X-104871Y193137D01*
X-104886D01*
X-104915Y193151D01*
X-104974Y193159D01*
X-105055Y193181D01*
X-105159Y193196D01*
X-105292Y193218D01*
X-105439Y193240D01*
X-105616Y193262D01*
X-105631D01*
X-105661Y193269D01*
X-105712Y193277D01*
X-105779Y193284D01*
X-105867Y193299D01*
X-105963Y193314D01*
X-106067Y193328D01*
X-106185Y193343D01*
X-106428Y193387D01*
X-106672Y193439D01*
X-106790Y193469D01*
X-106908Y193498D01*
X-107011Y193528D01*
X-107107Y193557D01*
Y193565D01*
Y193587D01*
Y193616D01*
X-107115Y193646D01*
Y193719D01*
Y193749D01*
Y193771D01*
Y193779D01*
Y193793D01*
Y193823D01*
Y193852D01*
X-107100Y193941D01*
X-107085Y194052D01*
X-107055Y194170D01*
X-107011Y194288D01*
X-106952Y194398D01*
X-106871Y194487D01*
X-106856Y194502D01*
X-106842Y194517D01*
X-106812Y194531D01*
X-106775Y194553D01*
X-106738Y194576D01*
X-106635Y194635D01*
X-106502Y194686D01*
X-106340Y194731D01*
X-106148Y194760D01*
X-105926Y194775D01*
X-105830D01*
X-105779Y194767D01*
X-105727D01*
X-105594Y194753D01*
X-105454Y194723D01*
X-105314Y194686D01*
X-105174Y194635D01*
X-105055Y194568D01*
X-105041Y194561D01*
X-105011Y194531D01*
X-104960Y194472D01*
X-104901Y194398D01*
X-104834Y194302D01*
X-104760Y194170D01*
X-104701Y194022D01*
X-104672Y193933D01*
X-104642Y193838D01*
X-103823Y193948D01*
Y193956D01*
X-103830Y193971D01*
X-103838Y194000D01*
X-103845Y194037D01*
X-103860Y194081D01*
X-103875Y194133D01*
X-103912Y194251D01*
X-103963Y194384D01*
X-104022Y194524D01*
X-104096Y194664D01*
X-104185Y194790D01*
Y194797D01*
X-104200Y194804D01*
X-104236Y194841D01*
X-104295Y194900D01*
X-104377Y194974D01*
X-104480Y195055D01*
X-104605Y195136D01*
X-104753Y195218D01*
X-104923Y195291D01*
X-104930D01*
X-104945Y195299D01*
X-104974Y195306D01*
X-105011Y195321D01*
X-105055Y195336D01*
X-105107Y195351D01*
X-105174Y195365D01*
X-105247Y195380D01*
X-105321Y195395D01*
X-105410Y195410D01*
X-105602Y195439D01*
X-105816Y195461D01*
X-106044Y195469D01*
D02*
G37*
G36*
X-135646D02*
X-135749D01*
X-135801Y195461D01*
X-135867D01*
X-136007Y195447D01*
X-136170Y195432D01*
X-136339Y195402D01*
X-136509Y195365D01*
X-136664Y195314D01*
X-136671D01*
X-136679Y195306D01*
X-136701Y195299D01*
X-136731Y195284D01*
X-136797Y195255D01*
X-136885Y195210D01*
X-136981Y195159D01*
X-137077Y195092D01*
X-137166Y195018D01*
X-137247Y194937D01*
X-137255Y194930D01*
X-137277Y194900D01*
X-137313Y194849D01*
X-137350Y194782D01*
X-137395Y194701D01*
X-137439Y194605D01*
X-137483Y194494D01*
X-137513Y194369D01*
Y194362D01*
X-137520Y194325D01*
X-137528Y194273D01*
X-137535Y194192D01*
X-137542Y194088D01*
X-137550Y193956D01*
Y193875D01*
X-137557Y193793D01*
Y193705D01*
Y193601D01*
Y192487D01*
Y192472D01*
Y192435D01*
Y192376D01*
Y192303D01*
Y192207D01*
Y192103D01*
X-137564Y191985D01*
Y191867D01*
X-137572Y191616D01*
Y191491D01*
X-137579Y191373D01*
X-137587Y191262D01*
X-137594Y191166D01*
X-137601Y191077D01*
X-137609Y191011D01*
Y190996D01*
X-137616Y190959D01*
X-137631Y190900D01*
X-137653Y190819D01*
X-137682Y190731D01*
X-137719Y190635D01*
X-137764Y190524D01*
X-137815Y190421D01*
X-136944D01*
X-136937Y190435D01*
X-136922Y190465D01*
X-136900Y190524D01*
X-136878Y190598D01*
X-136849Y190686D01*
X-136819Y190790D01*
X-136797Y190908D01*
X-136782Y191041D01*
X-136775Y191033D01*
X-136760Y191026D01*
X-136738Y191004D01*
X-136701Y190974D01*
X-136657Y190945D01*
X-136612Y190900D01*
X-136494Y190819D01*
X-136354Y190723D01*
X-136206Y190627D01*
X-136044Y190546D01*
X-135882Y190472D01*
X-135874D01*
X-135860Y190465D01*
X-135837Y190458D01*
X-135808Y190450D01*
X-135771Y190435D01*
X-135719Y190421D01*
X-135609Y190391D01*
X-135468Y190362D01*
X-135313Y190332D01*
X-135144Y190317D01*
X-134959Y190310D01*
X-137815D01*
X-133277D01*
Y190384D01*
Y190310D01*
X-134878D01*
X-134826Y190317D01*
X-134760Y190325D01*
X-134679Y190332D01*
X-134590Y190340D01*
X-134502Y190362D01*
X-134295Y190406D01*
X-134088Y190472D01*
X-133993Y190517D01*
X-133889Y190576D01*
X-133801Y190635D01*
X-133712Y190701D01*
X-133705Y190708D01*
X-133690Y190723D01*
X-133675Y190745D01*
X-133646Y190775D01*
X-133609Y190812D01*
X-133572Y190864D01*
X-133535Y190915D01*
X-133498Y190981D01*
X-133417Y191122D01*
X-133343Y191299D01*
X-133314Y191395D01*
X-133299Y191498D01*
X-133284Y191609D01*
X-133277Y191720D01*
Y190384D01*
Y191720D01*
Y191779D01*
X-133284Y191852D01*
X-133299Y191941D01*
X-133314Y192044D01*
X-133343Y192155D01*
X-133387Y192266D01*
X-133439Y192384D01*
X-133446Y192399D01*
X-133468Y192435D01*
X-133505Y192487D01*
X-133557Y192561D01*
X-133616Y192635D01*
X-133690Y192716D01*
X-133771Y192790D01*
X-133867Y192863D01*
X-133882Y192871D01*
X-133919Y192893D01*
X-133970Y192930D01*
X-134044Y192967D01*
X-134133Y193011D01*
X-134236Y193055D01*
X-134354Y193100D01*
X-134472Y193137D01*
X-134487D01*
X-134517Y193151D01*
X-134575Y193159D01*
X-134657Y193181D01*
X-134760Y193196D01*
X-134893Y193218D01*
X-135040Y193240D01*
X-135218Y193262D01*
X-135232D01*
X-135262Y193269D01*
X-135313Y193277D01*
X-135380Y193284D01*
X-135468Y193299D01*
X-135564Y193314D01*
X-135668Y193328D01*
X-135786Y193343D01*
X-136029Y193387D01*
X-136273Y193439D01*
X-136391Y193469D01*
X-136509Y193498D01*
X-136612Y193528D01*
X-136708Y193557D01*
Y193565D01*
Y193587D01*
Y193616D01*
X-136716Y193646D01*
Y193719D01*
Y193749D01*
Y193771D01*
Y193779D01*
Y193793D01*
Y193823D01*
Y193852D01*
X-136701Y193941D01*
X-136686Y194052D01*
X-136657Y194170D01*
X-136612Y194288D01*
X-136553Y194398D01*
X-136472Y194487D01*
X-136457Y194502D01*
X-136443Y194517D01*
X-136413Y194531D01*
X-136376Y194553D01*
X-136339Y194576D01*
X-136236Y194635D01*
X-136103Y194686D01*
X-135941Y194731D01*
X-135749Y194760D01*
X-135528Y194775D01*
X-135432D01*
X-135380Y194767D01*
X-135328D01*
X-135196Y194753D01*
X-135055Y194723D01*
X-134915Y194686D01*
X-134775Y194635D01*
X-134657Y194568D01*
X-134642Y194561D01*
X-134612Y194531D01*
X-134561Y194472D01*
X-134502Y194398D01*
X-134435Y194302D01*
X-134362Y194170D01*
X-134302Y194022D01*
X-134273Y193933D01*
X-134243Y193838D01*
X-133424Y193948D01*
Y193956D01*
X-133432Y193971D01*
X-133439Y194000D01*
X-133446Y194037D01*
X-133461Y194081D01*
X-133476Y194133D01*
X-133513Y194251D01*
X-133564Y194384D01*
X-133624Y194524D01*
X-133697Y194664D01*
X-133786Y194790D01*
Y194797D01*
X-133801Y194804D01*
X-133837Y194841D01*
X-133897Y194900D01*
X-133978Y194974D01*
X-134081Y195055D01*
X-134206Y195136D01*
X-134354Y195218D01*
X-134524Y195291D01*
X-134531D01*
X-134546Y195299D01*
X-134575Y195306D01*
X-134612Y195321D01*
X-134657Y195336D01*
X-134708Y195351D01*
X-134775Y195365D01*
X-134849Y195380D01*
X-134922Y195395D01*
X-135011Y195410D01*
X-135203Y195439D01*
X-135417Y195461D01*
X-135646Y195469D01*
D02*
G37*
G36*
X-170014Y195469D02*
X-170118D01*
X-170169Y195461D01*
X-170236D01*
X-170376Y195446D01*
X-170538Y195432D01*
X-170708Y195402D01*
X-170878Y195365D01*
X-171033Y195314D01*
X-171040D01*
X-171047Y195306D01*
X-171070Y195299D01*
X-171099Y195284D01*
X-171166Y195255D01*
X-171254Y195210D01*
X-171350Y195159D01*
X-171446Y195092D01*
X-171535Y195018D01*
X-171616Y194937D01*
X-171623Y194930D01*
X-171645Y194900D01*
X-171682Y194849D01*
X-171719Y194782D01*
X-171763Y194701D01*
X-171808Y194605D01*
X-171852Y194494D01*
X-171881Y194369D01*
Y194362D01*
X-171889Y194325D01*
X-171896Y194273D01*
X-171904Y194192D01*
X-171911Y194088D01*
X-171918Y193956D01*
Y193875D01*
X-171926Y193793D01*
Y193705D01*
Y193601D01*
Y192487D01*
Y192472D01*
Y192435D01*
Y192376D01*
Y192303D01*
Y192207D01*
Y192103D01*
X-171933Y191985D01*
Y191867D01*
X-171941Y191616D01*
Y191491D01*
X-171948Y191373D01*
X-171955Y191262D01*
X-171963Y191166D01*
X-171970Y191077D01*
X-171977Y191011D01*
Y190996D01*
X-171985Y190959D01*
X-172000Y190900D01*
X-172022Y190819D01*
X-172051Y190731D01*
X-172088Y190635D01*
X-172132Y190524D01*
X-172184Y190421D01*
X-171313D01*
X-171306Y190435D01*
X-171291Y190465D01*
X-171269Y190524D01*
X-171247Y190598D01*
X-171217Y190686D01*
X-171188Y190790D01*
X-171166Y190908D01*
X-171151Y191041D01*
X-171143Y191033D01*
X-171129Y191026D01*
X-171107Y191004D01*
X-171070Y190974D01*
X-171025Y190945D01*
X-170981Y190900D01*
X-170863Y190819D01*
X-170723Y190723D01*
X-170575Y190627D01*
X-170413Y190546D01*
X-170250Y190472D01*
X-170243D01*
X-170228Y190465D01*
X-170206Y190458D01*
X-170177Y190450D01*
X-170140Y190435D01*
X-170088Y190421D01*
X-169977Y190391D01*
X-169837Y190362D01*
X-169682Y190332D01*
X-169512Y190317D01*
X-169328Y190310D01*
X-172184D01*
X-167645D01*
Y190340D01*
Y190310D01*
X-169247D01*
X-169195Y190317D01*
X-169129Y190325D01*
X-169047Y190332D01*
X-168959Y190340D01*
X-168870Y190362D01*
X-168664Y190406D01*
X-168457Y190472D01*
X-168361Y190517D01*
X-168258Y190576D01*
X-168169Y190635D01*
X-168081Y190701D01*
X-168073Y190708D01*
X-168059Y190723D01*
X-168044Y190745D01*
X-168014Y190775D01*
X-167977Y190812D01*
X-167940Y190864D01*
X-167904Y190915D01*
X-167867Y190981D01*
X-167786Y191122D01*
X-167712Y191299D01*
X-167682Y191395D01*
X-167667Y191498D01*
X-167653Y191609D01*
X-167645Y191719D01*
Y190340D01*
Y191719D01*
Y191779D01*
X-167653Y191852D01*
X-167667Y191941D01*
X-167682Y192044D01*
X-167712Y192155D01*
X-167756Y192266D01*
X-167808Y192384D01*
X-167815Y192399D01*
X-167837Y192435D01*
X-167874Y192487D01*
X-167926Y192561D01*
X-167985Y192635D01*
X-168059Y192716D01*
X-168140Y192790D01*
X-168236Y192863D01*
X-168251Y192871D01*
X-168287Y192893D01*
X-168339Y192930D01*
X-168413Y192967D01*
X-168501Y193011D01*
X-168605Y193055D01*
X-168723Y193100D01*
X-168841Y193137D01*
X-168856D01*
X-168885Y193151D01*
X-168944Y193159D01*
X-169025Y193181D01*
X-169129Y193195D01*
X-169262Y193218D01*
X-169409Y193240D01*
X-169586Y193262D01*
X-169601D01*
X-169631Y193269D01*
X-169682Y193277D01*
X-169749Y193284D01*
X-169837Y193299D01*
X-169933Y193314D01*
X-170036Y193328D01*
X-170155Y193343D01*
X-170398Y193387D01*
X-170642Y193439D01*
X-170760Y193469D01*
X-170878Y193498D01*
X-170981Y193528D01*
X-171077Y193557D01*
Y193564D01*
Y193587D01*
Y193616D01*
X-171084Y193646D01*
Y193719D01*
Y193749D01*
Y193771D01*
Y193779D01*
Y193793D01*
Y193823D01*
Y193852D01*
X-171070Y193941D01*
X-171055Y194052D01*
X-171025Y194170D01*
X-170981Y194288D01*
X-170922Y194398D01*
X-170841Y194487D01*
X-170826Y194502D01*
X-170811Y194517D01*
X-170782Y194531D01*
X-170745Y194553D01*
X-170708Y194576D01*
X-170605Y194635D01*
X-170472Y194686D01*
X-170309Y194731D01*
X-170118Y194760D01*
X-169896Y194775D01*
X-169800D01*
X-169749Y194767D01*
X-169697D01*
X-169564Y194753D01*
X-169424Y194723D01*
X-169284Y194686D01*
X-169143Y194635D01*
X-169025Y194568D01*
X-169011Y194561D01*
X-168981Y194531D01*
X-168929Y194472D01*
X-168870Y194398D01*
X-168804Y194302D01*
X-168730Y194170D01*
X-168671Y194022D01*
X-168642Y193933D01*
X-168612Y193838D01*
X-167793Y193948D01*
Y193956D01*
X-167800Y193970D01*
X-167808Y194000D01*
X-167815Y194037D01*
X-167830Y194081D01*
X-167845Y194133D01*
X-167882Y194251D01*
X-167933Y194384D01*
X-167992Y194524D01*
X-168066Y194664D01*
X-168155Y194790D01*
Y194797D01*
X-168169Y194804D01*
X-168206Y194841D01*
X-168265Y194900D01*
X-168346Y194974D01*
X-168450Y195055D01*
X-168575Y195136D01*
X-168723Y195218D01*
X-168893Y195291D01*
X-168900D01*
X-168915Y195299D01*
X-168944Y195306D01*
X-168981Y195321D01*
X-169025Y195336D01*
X-169077Y195351D01*
X-169143Y195365D01*
X-169217Y195380D01*
X-169291Y195395D01*
X-169380Y195410D01*
X-169571Y195439D01*
X-169785Y195461D01*
X-170014Y195469D01*
D02*
G37*
G36*
X-157919D02*
X-158014D01*
X-158066Y195461D01*
X-158125D01*
X-158265Y195446D01*
X-158420Y195424D01*
X-158597Y195395D01*
X-158767Y195358D01*
X-158937Y195299D01*
X-158944D01*
X-158959Y195291D01*
X-158981Y195284D01*
X-159011Y195269D01*
X-159084Y195232D01*
X-159188Y195181D01*
X-159291Y195114D01*
X-159395Y195033D01*
X-159498Y194945D01*
X-159586Y194841D01*
X-159594Y194826D01*
X-159623Y194790D01*
X-159660Y194723D01*
X-159704Y194642D01*
X-159756Y194531D01*
X-159800Y194398D01*
X-159845Y194251D01*
X-159881Y194081D01*
X-159062Y193970D01*
Y193978D01*
Y193985D01*
X-159048Y194029D01*
X-159033Y194103D01*
X-159003Y194185D01*
X-158959Y194280D01*
X-158900Y194376D01*
X-158826Y194472D01*
X-158738Y194561D01*
X-158723Y194568D01*
X-158686Y194598D01*
X-158627Y194635D01*
X-158546Y194671D01*
X-158435Y194716D01*
X-158302Y194745D01*
X-158155Y194775D01*
X-157977Y194782D01*
X-157882D01*
X-157837Y194775D01*
X-157786D01*
X-157660Y194760D01*
X-157527Y194738D01*
X-157387Y194701D01*
X-157262Y194657D01*
X-157210Y194627D01*
X-157158Y194590D01*
X-157151Y194583D01*
X-157121Y194553D01*
X-157085Y194517D01*
X-157040Y194465D01*
X-156989Y194398D01*
X-156952Y194317D01*
X-156922Y194236D01*
X-156915Y194140D01*
Y194133D01*
Y194111D01*
X-156922Y194081D01*
X-156930Y194044D01*
X-156959Y193948D01*
X-156981Y193897D01*
X-157011Y193845D01*
X-157018Y193838D01*
X-157033Y193823D01*
X-157055Y193801D01*
X-157092Y193771D01*
X-157136Y193734D01*
X-157195Y193697D01*
X-157262Y193660D01*
X-157335Y193624D01*
X-157343D01*
X-157365Y193616D01*
X-157409Y193601D01*
X-157476Y193579D01*
X-157520Y193564D01*
X-157572Y193550D01*
X-157631Y193535D01*
X-157697Y193513D01*
X-157778Y193491D01*
X-157867Y193469D01*
X-157963Y193439D01*
X-158073Y193410D01*
X-158081D01*
X-158110Y193402D01*
X-158155Y193387D01*
X-158221Y193373D01*
X-158288Y193351D01*
X-158369Y193328D01*
X-158465Y193299D01*
X-158561Y193269D01*
X-158767Y193210D01*
X-158966Y193144D01*
X-159062Y193114D01*
X-159151Y193078D01*
X-159232Y193048D01*
X-159306Y193018D01*
X-159313D01*
X-159321Y193011D01*
X-159365Y192989D01*
X-159431Y192959D01*
X-159505Y192908D01*
X-159594Y192849D01*
X-159690Y192775D01*
X-159778Y192686D01*
X-159859Y192583D01*
X-159867Y192568D01*
X-159889Y192531D01*
X-159926Y192472D01*
X-159963Y192384D01*
X-160000Y192280D01*
X-160037Y192162D01*
X-160059Y192022D01*
X-160066Y191867D01*
D01*
Y191793D01*
X-160051Y191712D01*
X-160037Y191609D01*
X-160007Y191491D01*
X-159963Y191358D01*
X-159896Y191218D01*
X-159815Y191077D01*
Y191070D01*
X-159800Y191063D01*
X-159771Y191018D01*
X-159712Y190952D01*
X-159638Y190871D01*
X-159535Y190775D01*
X-159417Y190679D01*
X-159276Y190590D01*
X-159114Y190509D01*
X-159107D01*
X-159092Y190502D01*
X-159070Y190495D01*
X-159033Y190480D01*
X-158989Y190465D01*
X-158937Y190443D01*
X-158878Y190428D01*
X-158811Y190413D01*
X-158657Y190376D01*
X-158479Y190340D01*
X-158288Y190317D01*
X-158073Y190310D01*
X-160066D01*
D01*
X-155963D01*
X-157977D01*
X-157911Y190317D01*
X-157837Y190325D01*
X-157741Y190332D01*
X-157638Y190340D01*
X-157527Y190362D01*
X-157291Y190406D01*
X-157040Y190472D01*
X-156922Y190517D01*
X-156804Y190576D01*
X-156701Y190635D01*
X-156597Y190701D01*
X-156590Y190708D01*
X-156575Y190723D01*
X-156553Y190745D01*
X-156516Y190775D01*
X-156479Y190819D01*
X-156435Y190871D01*
X-156383Y190930D01*
X-156332Y190996D01*
X-156273Y191077D01*
X-156221Y191166D01*
X-156169Y191262D01*
X-156118Y191373D01*
X-156073Y191483D01*
X-156029Y191609D01*
X-155992Y191749D01*
X-155963Y191889D01*
X-156789Y192022D01*
Y192015D01*
X-156797Y192000D01*
Y191978D01*
X-156804Y191941D01*
X-156811Y191897D01*
X-156826Y191852D01*
X-156863Y191742D01*
X-156915Y191616D01*
X-156981Y191483D01*
X-157062Y191365D01*
X-157173Y191255D01*
X-157181D01*
X-157188Y191247D01*
X-157232Y191218D01*
X-157306Y191173D01*
X-157409Y191129D01*
X-157535Y191077D01*
X-157690Y191041D01*
X-157867Y191011D01*
X-158066Y190996D01*
X-158125D01*
X-158162Y191004D01*
X-158214D01*
X-158265Y191011D01*
X-158391Y191026D01*
X-158531Y191055D01*
X-158679Y191092D01*
X-158811Y191151D01*
X-158930Y191225D01*
X-158944Y191233D01*
X-158974Y191269D01*
X-159018Y191314D01*
X-159070Y191380D01*
X-159121Y191461D01*
X-159166Y191557D01*
X-159195Y191660D01*
X-159210Y191779D01*
Y191793D01*
Y191823D01*
X-159195Y191882D01*
X-159180Y191941D01*
X-159151Y192015D01*
X-159107Y192088D01*
X-159040Y192162D01*
X-158959Y192229D01*
X-158952Y192236D01*
X-158922Y192251D01*
X-158870Y192273D01*
X-158834Y192288D01*
X-158789Y192303D01*
X-158730Y192325D01*
X-158671Y192347D01*
X-158605Y192369D01*
X-158524Y192391D01*
X-158435Y192421D01*
X-158332Y192450D01*
X-158221Y192480D01*
X-158103Y192509D01*
X-158096D01*
X-158066Y192517D01*
X-158014Y192531D01*
X-157955Y192546D01*
X-157882Y192568D01*
X-157793Y192590D01*
X-157697Y192620D01*
X-157594Y192649D01*
X-157387Y192716D01*
X-157173Y192782D01*
X-157070Y192812D01*
X-156981Y192849D01*
X-156893Y192886D01*
X-156819Y192915D01*
X-156811D01*
X-156804Y192922D01*
X-156760Y192945D01*
X-156701Y192982D01*
X-156620Y193041D01*
X-156531Y193107D01*
X-156442Y193181D01*
X-156354Y193277D01*
X-156280Y193380D01*
X-156273Y193395D01*
X-156251Y193432D01*
X-156221Y193498D01*
X-156192Y193579D01*
X-156162Y193675D01*
X-156132Y193786D01*
X-156110Y193911D01*
X-156103Y194044D01*
Y194052D01*
Y194059D01*
Y194103D01*
X-156110Y194162D01*
X-156125Y194244D01*
X-156140Y194339D01*
X-156162Y194443D01*
X-156199Y194553D01*
X-156251Y194657D01*
X-156258Y194671D01*
X-156280Y194701D01*
X-156310Y194753D01*
X-156361Y194819D01*
X-156413Y194893D01*
X-156487Y194974D01*
X-156568Y195048D01*
X-156664Y195122D01*
X-156671Y195129D01*
X-156701Y195144D01*
X-156745Y195173D01*
X-156804Y195203D01*
X-156878Y195240D01*
X-156966Y195284D01*
X-157077Y195328D01*
X-157195Y195365D01*
X-157203D01*
X-157210Y195373D01*
X-157254Y195380D01*
X-157321Y195395D01*
X-157417Y195417D01*
X-157520Y195439D01*
X-157645Y195454D01*
X-157778Y195461D01*
X-157919Y195469D01*
D02*
G37*
G36*
X-162679D02*
X-162775D01*
X-162826Y195461D01*
X-162885D01*
X-163025Y195446D01*
X-163180Y195424D01*
X-163357Y195395D01*
X-163527Y195358D01*
X-163697Y195299D01*
X-163704D01*
X-163719Y195291D01*
X-163741Y195284D01*
X-163771Y195269D01*
X-163845Y195232D01*
X-163948Y195181D01*
X-164051Y195114D01*
X-164155Y195033D01*
X-164258Y194945D01*
X-164347Y194841D01*
X-164354Y194826D01*
X-164383Y194790D01*
X-164420Y194723D01*
X-164464Y194642D01*
X-164516Y194531D01*
X-164560Y194398D01*
X-164605Y194251D01*
X-164642Y194081D01*
X-163822Y193970D01*
Y193978D01*
Y193985D01*
X-163808Y194029D01*
X-163793Y194103D01*
X-163763Y194185D01*
X-163719Y194280D01*
X-163660Y194376D01*
X-163586Y194472D01*
X-163498Y194561D01*
X-163483Y194568D01*
X-163446Y194598D01*
X-163387Y194635D01*
X-163306Y194671D01*
X-163195Y194716D01*
X-163062Y194745D01*
X-162915Y194775D01*
X-162738Y194782D01*
X-162642D01*
X-162597Y194775D01*
X-162546D01*
X-162420Y194760D01*
X-162287Y194738D01*
X-162147Y194701D01*
X-162022Y194657D01*
X-161970Y194627D01*
X-161918Y194590D01*
X-161911Y194583D01*
X-161881Y194553D01*
X-161845Y194517D01*
X-161800Y194465D01*
X-161749Y194398D01*
X-161712Y194317D01*
X-161682Y194236D01*
X-161675Y194140D01*
Y194133D01*
Y194111D01*
X-161682Y194081D01*
X-161690Y194044D01*
X-161719Y193948D01*
X-161741Y193897D01*
X-161771Y193845D01*
X-161778Y193838D01*
X-161793Y193823D01*
X-161815Y193801D01*
X-161852Y193771D01*
X-161896Y193734D01*
X-161955Y193697D01*
X-162022Y193660D01*
X-162096Y193624D01*
X-162103D01*
X-162125Y193616D01*
X-162169Y193601D01*
X-162236Y193579D01*
X-162280Y193564D01*
X-162332Y193550D01*
X-162391Y193535D01*
X-162457Y193513D01*
X-162538Y193491D01*
X-162627Y193469D01*
X-162723Y193439D01*
X-162833Y193410D01*
X-162841D01*
X-162871Y193402D01*
X-162915Y193387D01*
X-162981Y193373D01*
X-163048Y193351D01*
X-163129Y193328D01*
X-163225Y193299D01*
X-163321Y193269D01*
X-163527Y193210D01*
X-163726Y193144D01*
X-163822Y193114D01*
X-163911Y193078D01*
X-163992Y193048D01*
X-164066Y193018D01*
X-164073D01*
X-164081Y193011D01*
X-164125Y192989D01*
X-164191Y192959D01*
X-164265Y192908D01*
X-164354Y192849D01*
X-164450Y192775D01*
X-164538Y192686D01*
X-164620Y192583D01*
X-164627Y192568D01*
X-164649Y192531D01*
X-164686Y192472D01*
X-164723Y192384D01*
X-164760Y192280D01*
X-164797Y192162D01*
X-164819Y192022D01*
X-164826Y191867D01*
D01*
D01*
Y191793D01*
X-164811Y191712D01*
X-164797Y191609D01*
X-164767Y191491D01*
X-164723Y191358D01*
X-164656Y191218D01*
X-164575Y191077D01*
Y191070D01*
X-164560Y191063D01*
X-164531Y191018D01*
X-164472Y190952D01*
X-164398Y190871D01*
X-164295Y190775D01*
X-164177Y190679D01*
X-164037Y190590D01*
X-163874Y190509D01*
X-163867D01*
X-163852Y190502D01*
X-163830Y190495D01*
X-163793Y190480D01*
X-163749Y190465D01*
X-163697Y190443D01*
X-163638Y190428D01*
X-163572Y190413D01*
X-163417Y190376D01*
X-163240Y190340D01*
X-163048Y190317D01*
X-162833Y190310D01*
X-164826D01*
D01*
X-160723D01*
X-162738D01*
X-162671Y190317D01*
X-162597Y190325D01*
X-162501Y190332D01*
X-162398Y190340D01*
X-162287Y190362D01*
X-162051Y190406D01*
X-161800Y190472D01*
X-161682Y190517D01*
X-161564Y190576D01*
X-161461Y190635D01*
X-161357Y190701D01*
X-161350Y190708D01*
X-161335Y190723D01*
X-161313Y190745D01*
X-161276Y190775D01*
X-161240Y190819D01*
X-161195Y190871D01*
X-161144Y190930D01*
X-161092Y190996D01*
X-161033Y191077D01*
X-160981Y191166D01*
X-160930Y191262D01*
X-160878Y191373D01*
X-160834Y191483D01*
X-160789Y191609D01*
X-160752Y191749D01*
X-160723Y191889D01*
X-161549Y192022D01*
Y192015D01*
X-161557Y192000D01*
Y191978D01*
X-161564Y191941D01*
X-161572Y191897D01*
X-161586Y191852D01*
X-161623Y191742D01*
X-161675Y191616D01*
X-161741Y191483D01*
X-161822Y191365D01*
X-161933Y191255D01*
X-161941D01*
X-161948Y191247D01*
X-161992Y191218D01*
X-162066Y191173D01*
X-162169Y191129D01*
X-162295Y191077D01*
X-162450Y191041D01*
X-162627Y191011D01*
X-162826Y190996D01*
X-162885D01*
X-162922Y191004D01*
X-162974D01*
X-163025Y191011D01*
X-163151Y191026D01*
X-163291Y191055D01*
X-163439Y191092D01*
X-163572Y191151D01*
X-163690Y191225D01*
X-163704Y191233D01*
X-163734Y191269D01*
X-163778Y191314D01*
X-163830Y191380D01*
X-163882Y191461D01*
X-163926Y191557D01*
X-163955Y191660D01*
X-163970Y191779D01*
Y191793D01*
Y191823D01*
X-163955Y191882D01*
X-163941Y191941D01*
X-163911Y192015D01*
X-163867Y192088D01*
X-163800Y192162D01*
X-163719Y192229D01*
X-163712Y192236D01*
X-163682Y192251D01*
X-163631Y192273D01*
X-163594Y192288D01*
X-163549Y192303D01*
X-163490Y192325D01*
X-163431Y192347D01*
X-163365Y192369D01*
X-163284Y192391D01*
X-163195Y192421D01*
X-163092Y192450D01*
X-162981Y192480D01*
X-162863Y192509D01*
X-162856D01*
X-162826Y192517D01*
X-162775Y192531D01*
X-162715Y192546D01*
X-162642Y192568D01*
X-162553Y192590D01*
X-162457Y192620D01*
X-162354Y192649D01*
X-162147Y192716D01*
X-161933Y192782D01*
X-161830Y192812D01*
X-161741Y192849D01*
X-161653Y192886D01*
X-161579Y192915D01*
X-161572D01*
X-161564Y192922D01*
X-161520Y192945D01*
X-161461Y192982D01*
X-161380Y193041D01*
X-161291Y193107D01*
X-161203Y193181D01*
X-161114Y193277D01*
X-161040Y193380D01*
X-161033Y193395D01*
X-161011Y193432D01*
X-160981Y193498D01*
X-160952Y193579D01*
X-160922Y193675D01*
X-160893Y193786D01*
X-160871Y193911D01*
X-160863Y194044D01*
Y194052D01*
Y194059D01*
Y194103D01*
X-160871Y194162D01*
X-160885Y194244D01*
X-160900Y194339D01*
X-160922Y194443D01*
X-160959Y194553D01*
X-161011Y194657D01*
X-161018Y194671D01*
X-161040Y194701D01*
X-161070Y194753D01*
X-161121Y194819D01*
X-161173Y194893D01*
X-161247Y194974D01*
X-161328Y195048D01*
X-161424Y195122D01*
X-161431Y195129D01*
X-161461Y195144D01*
X-161505Y195173D01*
X-161564Y195203D01*
X-161638Y195240D01*
X-161726Y195284D01*
X-161837Y195328D01*
X-161955Y195365D01*
X-161963D01*
X-161970Y195373D01*
X-162014Y195380D01*
X-162081Y195395D01*
X-162177Y195417D01*
X-162280Y195439D01*
X-162406Y195454D01*
X-162538Y195461D01*
X-162679Y195469D01*
D02*
G37*
G36*
X-119941Y197232D02*
X-125328D01*
Y196428D01*
X-123085D01*
Y190421D01*
X-125328D01*
X-122185D01*
Y196428D01*
X-119941D01*
Y191373D01*
Y197232D01*
D02*
G37*
G36*
X-126133Y195358D02*
X-126967D01*
Y192620D01*
Y192613D01*
Y192590D01*
Y192561D01*
Y192517D01*
Y192457D01*
Y192399D01*
X-126974Y192266D01*
Y192118D01*
X-126989Y191971D01*
X-126996Y191838D01*
X-127004Y191779D01*
X-127011Y191734D01*
X-127018Y191720D01*
X-127026Y191683D01*
X-127048Y191616D01*
X-127085Y191542D01*
X-127129Y191461D01*
X-127188Y191380D01*
X-127262Y191291D01*
X-127350Y191218D01*
X-127365Y191210D01*
X-127395Y191188D01*
X-127454Y191159D01*
X-127528Y191129D01*
X-127616Y191092D01*
X-127727Y191063D01*
X-127852Y191041D01*
X-127985Y191033D01*
X-128052D01*
X-128118Y191041D01*
X-128214Y191055D01*
X-128325Y191077D01*
X-128443Y191114D01*
X-128561Y191159D01*
X-128686Y191225D01*
X-128694D01*
X-128701Y191233D01*
X-128738Y191262D01*
X-128797Y191306D01*
X-128871Y191365D01*
X-128945Y191439D01*
X-129026Y191528D01*
X-129100Y191631D01*
X-129159Y191749D01*
Y191756D01*
X-129166Y191764D01*
X-129173Y191786D01*
X-129181Y191808D01*
X-129188Y191845D01*
X-129203Y191889D01*
X-129218Y191934D01*
X-129232Y191993D01*
X-129254Y192133D01*
X-129277Y192295D01*
X-129291Y192487D01*
X-129299Y192709D01*
Y195358D01*
X-128133D01*
X-130133D01*
Y190421D01*
X-129387D01*
Y191144D01*
X-129380Y191137D01*
X-129358Y191107D01*
X-129328Y191070D01*
X-129284Y191011D01*
X-129225Y190952D01*
X-129151Y190878D01*
X-129070Y190804D01*
X-128974Y190731D01*
X-128863Y190649D01*
X-128745Y190576D01*
X-128620Y190502D01*
X-128480Y190443D01*
X-128325Y190384D01*
X-128170Y190347D01*
X-128000Y190317D01*
X-127815Y190310D01*
X-126133D01*
Y195358D01*
D02*
G37*
G36*
X-150981D02*
X-151815D01*
Y192620D01*
Y192613D01*
Y192590D01*
Y192561D01*
Y192517D01*
Y192457D01*
Y192399D01*
X-151823Y192266D01*
Y192118D01*
X-151837Y191971D01*
X-151845Y191838D01*
X-151852Y191779D01*
X-151859Y191734D01*
X-151867Y191720D01*
X-151874Y191683D01*
X-151896Y191616D01*
X-151933Y191542D01*
X-151978Y191461D01*
X-152037Y191380D01*
X-152110Y191291D01*
X-152199Y191218D01*
X-152214Y191210D01*
X-152243Y191188D01*
X-152302Y191159D01*
X-152376Y191129D01*
X-152465Y191092D01*
X-152575Y191063D01*
X-152701Y191041D01*
X-152834Y191033D01*
X-152900D01*
X-152966Y191041D01*
X-153062Y191055D01*
X-153173Y191077D01*
X-153291Y191114D01*
X-153409Y191159D01*
X-153535Y191225D01*
X-153542D01*
X-153550Y191233D01*
X-153586Y191262D01*
X-153646Y191306D01*
X-153719Y191365D01*
X-153793Y191439D01*
X-153874Y191528D01*
X-153948Y191631D01*
X-154007Y191749D01*
Y191756D01*
X-154015Y191764D01*
X-154022Y191786D01*
X-154029Y191808D01*
X-154037Y191845D01*
X-154051Y191889D01*
X-154066Y191934D01*
X-154081Y191993D01*
X-154103Y192133D01*
X-154125Y192295D01*
X-154140Y192487D01*
X-154147Y192709D01*
Y195358D01*
X-152981D01*
X-154981Y195358D01*
Y190421D01*
X-154236D01*
Y191144D01*
X-154228Y191137D01*
X-154206Y191107D01*
X-154177Y191070D01*
X-154132Y191011D01*
X-154074Y190952D01*
X-154000Y190878D01*
X-153919Y190804D01*
X-153823Y190731D01*
X-153712Y190649D01*
X-153594Y190576D01*
X-153468Y190502D01*
X-153328Y190443D01*
X-153173Y190384D01*
X-153018Y190347D01*
X-152848Y190317D01*
X-152664Y190310D01*
X-150981D01*
Y195358D01*
D02*
G37*
G36*
X-75801Y195469D02*
X-75882D01*
X-75934Y195461D01*
X-76000Y195454D01*
X-76082Y195447D01*
X-76170Y195432D01*
X-76266Y195417D01*
X-76473Y195365D01*
X-76694Y195291D01*
X-76805Y195247D01*
X-76916Y195195D01*
X-77019Y195129D01*
X-77115Y195055D01*
X-77122Y195048D01*
X-77137Y195033D01*
X-77166Y195011D01*
X-77196Y194982D01*
X-77240Y194937D01*
X-77285Y194886D01*
X-77336Y194826D01*
X-77388Y194760D01*
X-77447Y194679D01*
X-77499Y194598D01*
X-77558Y194502D01*
X-77609Y194398D01*
X-77654Y194288D01*
X-77698Y194170D01*
X-77742Y194037D01*
X-77772Y193904D01*
X-76960Y193779D01*
Y193786D01*
X-76952Y193801D01*
X-76945Y193823D01*
X-76938Y193860D01*
X-76908Y193948D01*
X-76864Y194059D01*
X-76805Y194177D01*
X-76739Y194303D01*
X-76650Y194421D01*
X-76547Y194524D01*
X-76532Y194539D01*
X-76495Y194568D01*
X-76429Y194605D01*
X-76347Y194657D01*
X-76244Y194701D01*
X-76126Y194745D01*
X-75986Y194775D01*
X-75838Y194782D01*
X-75779D01*
X-75735Y194775D01*
X-75676Y194767D01*
X-75617Y194760D01*
X-75469Y194723D01*
X-75307Y194672D01*
X-75226Y194635D01*
X-75137Y194590D01*
X-75056Y194539D01*
X-74967Y194472D01*
X-74886Y194406D01*
X-74812Y194325D01*
X-74805Y194317D01*
X-74797Y194303D01*
X-74775Y194280D01*
X-74753Y194236D01*
X-74724Y194192D01*
X-74687Y194133D01*
X-74650Y194059D01*
X-74620Y193978D01*
X-74584Y193882D01*
X-74547Y193779D01*
X-74510Y193660D01*
X-74480Y193528D01*
X-74458Y193387D01*
X-74436Y193240D01*
X-74428Y193070D01*
X-74421Y192893D01*
Y192886D01*
Y192849D01*
Y192797D01*
X-74428Y192731D01*
X-74436Y192649D01*
X-74443Y192553D01*
X-74451Y192450D01*
X-74465Y192340D01*
X-74510Y192103D01*
X-74584Y191860D01*
X-74620Y191749D01*
X-74672Y191638D01*
X-74731Y191535D01*
X-74797Y191446D01*
X-74805Y191439D01*
X-74812Y191424D01*
X-74834Y191402D01*
X-74864Y191380D01*
X-74908Y191343D01*
X-74953Y191306D01*
X-75004Y191262D01*
X-75063Y191225D01*
X-75211Y191137D01*
X-75381Y191070D01*
X-75476Y191041D01*
X-75572Y191018D01*
X-75683Y191004D01*
X-75794Y190996D01*
X-75838D01*
X-75875Y191004D01*
X-75919D01*
X-75964Y191011D01*
X-76082Y191033D01*
X-76207Y191070D01*
X-76347Y191122D01*
X-76480Y191196D01*
X-76613Y191291D01*
X-76620Y191299D01*
X-76628Y191306D01*
X-76665Y191351D01*
X-76724Y191424D01*
X-76753Y191469D01*
X-76790Y191520D01*
X-76827Y191587D01*
X-76864Y191653D01*
X-76893Y191727D01*
X-76930Y191815D01*
X-76960Y191904D01*
X-76989Y192007D01*
X-77012Y192111D01*
X-77034Y192229D01*
X-77853Y192118D01*
Y192133D01*
Y192111D01*
X-77846Y192081D01*
X-77838Y192037D01*
X-77823Y191978D01*
X-77801Y191904D01*
X-77779Y191823D01*
X-77750Y191734D01*
X-77713Y191631D01*
X-77624Y191424D01*
X-77565Y191314D01*
X-77499Y191203D01*
X-77432Y191092D01*
X-77351Y190982D01*
X-77255Y190886D01*
X-77159Y190790D01*
X-77152Y190782D01*
X-77137Y190768D01*
X-77100Y190745D01*
X-77063Y190716D01*
X-77004Y190679D01*
X-76945Y190635D01*
X-76864Y190598D01*
X-76783Y190553D01*
X-76687Y190502D01*
X-76583Y190465D01*
X-76473Y190421D01*
X-76355Y190384D01*
X-76222Y190354D01*
X-76089Y190332D01*
X-75949Y190317D01*
X-75801Y190310D01*
X-77853D01*
X-73565D01*
Y192945D01*
X-73572Y192996D01*
Y193070D01*
X-73580Y193151D01*
X-73587Y193240D01*
X-73595Y193343D01*
X-73632Y193557D01*
X-73676Y193793D01*
X-73735Y194037D01*
X-73823Y194266D01*
Y194273D01*
X-73838Y194295D01*
X-73853Y194325D01*
X-73875Y194362D01*
X-73905Y194413D01*
X-73934Y194472D01*
X-74023Y194605D01*
X-74133Y194745D01*
X-74274Y194900D01*
X-74436Y195041D01*
X-74628Y195166D01*
X-74635D01*
X-74650Y195181D01*
X-74679Y195195D01*
X-74724Y195210D01*
X-74775Y195240D01*
X-74834Y195262D01*
X-74901Y195291D01*
X-74975Y195321D01*
X-75063Y195343D01*
X-75152Y195373D01*
X-75351Y195424D01*
X-75572Y195454D01*
X-75801Y195469D01*
D02*
G37*
G36*
X-131424Y197232D02*
X-132258D01*
Y190421D01*
X-131424D01*
Y197232D01*
D02*
G37*
G36*
X-144251D02*
X-147417D01*
X-147498Y197225D01*
X-147579D01*
X-147675Y197218D01*
X-147786Y197210D01*
X-148007Y197188D01*
X-148236Y197151D01*
X-148457Y197107D01*
X-148553Y197077D01*
X-148649Y197048D01*
X-148657D01*
X-148671Y197040D01*
X-148694Y197026D01*
X-148730Y197011D01*
X-148819Y196967D01*
X-148922Y196900D01*
X-149048Y196812D01*
X-149173Y196694D01*
X-149299Y196561D01*
X-149409Y196398D01*
Y196391D01*
X-149424Y196376D01*
X-149439Y196354D01*
X-149454Y196317D01*
X-149476Y196273D01*
X-149498Y196221D01*
X-149527Y196162D01*
X-149557Y196096D01*
X-149609Y195941D01*
X-149653Y195771D01*
X-149682Y195579D01*
X-149697Y195373D01*
Y195365D01*
Y195343D01*
Y195299D01*
X-149690Y195255D01*
X-149682Y195188D01*
X-149675Y195114D01*
X-149660Y195033D01*
X-149638Y194945D01*
X-149579Y194753D01*
X-149542Y194649D01*
X-149498Y194546D01*
X-149446Y194443D01*
X-149380Y194340D01*
X-149306Y194244D01*
X-149225Y194148D01*
X-149217Y194140D01*
X-149203Y194125D01*
X-149173Y194103D01*
X-149136Y194066D01*
X-149085Y194029D01*
X-149026Y193985D01*
X-148952Y193933D01*
X-148863Y193882D01*
X-148767Y193830D01*
X-148664Y193779D01*
X-148546Y193727D01*
X-148413Y193675D01*
X-148273Y193631D01*
X-148118Y193587D01*
X-147948Y193550D01*
X-147771Y193520D01*
X-147778D01*
X-147786Y193513D01*
X-147830Y193491D01*
X-147896Y193454D01*
X-147978Y193410D01*
X-148066Y193358D01*
X-148155Y193306D01*
X-148243Y193240D01*
X-148317Y193181D01*
X-148325Y193173D01*
X-148332Y193166D01*
X-148354Y193144D01*
X-148383Y193114D01*
X-148420Y193078D01*
X-148465Y193033D01*
X-148561Y192930D01*
X-148671Y192797D01*
X-148797Y192642D01*
X-148930Y192465D01*
X-149063Y192273D01*
X-150243Y190421D01*
X-144251D01*
Y197232D01*
D02*
G37*
G36*
X-165823Y197232D02*
X-166656D01*
Y196280D01*
X-165823D01*
Y195358D01*
X-166656D01*
Y190421D01*
X-165823D01*
Y197232D01*
D02*
G37*
G36*
X-98355Y197232D02*
X-102635D01*
Y190421D01*
X-101860D01*
Y191041D01*
X-101853Y191033D01*
X-101838Y191011D01*
X-101808Y190974D01*
X-101771Y190930D01*
X-101720Y190871D01*
X-101661Y190812D01*
X-101594Y190745D01*
X-101513Y190679D01*
X-101417Y190605D01*
X-101314Y190539D01*
X-101203Y190480D01*
X-101078Y190428D01*
X-100937Y190376D01*
X-100797Y190340D01*
X-100642Y190317D01*
X-100473Y190310D01*
X-100414D01*
X-100369Y190317D01*
X-100318D01*
X-100259Y190325D01*
X-100192Y190340D01*
X-100118Y190354D01*
X-99949Y190391D01*
X-99764Y190450D01*
X-99580Y190531D01*
X-99484Y190576D01*
X-99388Y190635D01*
X-99380Y190642D01*
X-99366Y190649D01*
X-99343Y190672D01*
X-99306Y190694D01*
X-99262Y190731D01*
X-99218Y190768D01*
X-99107Y190871D01*
X-98982Y190996D01*
X-98856Y191151D01*
X-98731Y191336D01*
X-98620Y191542D01*
Y191550D01*
X-98605Y191572D01*
X-98598Y191602D01*
X-98576Y191646D01*
X-98561Y191697D01*
X-98539Y191764D01*
X-98510Y191845D01*
X-98487Y191926D01*
X-98465Y192022D01*
X-98436Y192125D01*
X-98413Y192236D01*
X-98399Y192354D01*
X-98369Y192605D01*
X-98355Y192878D01*
Y190376D01*
Y197232D01*
D02*
G37*
G36*
X-84192Y197351D02*
X-84318D01*
X-84384Y197343D01*
X-84465Y197336D01*
X-84547Y197328D01*
X-84642Y197321D01*
X-84849Y197292D01*
X-85078Y197247D01*
X-85307Y197181D01*
X-85528Y197100D01*
X-85535D01*
X-85550Y197085D01*
X-85587Y197077D01*
X-85624Y197055D01*
X-85668Y197026D01*
X-85727Y196996D01*
X-85853Y196923D01*
X-86000Y196819D01*
X-86148Y196694D01*
X-86288Y196554D01*
X-86414Y196384D01*
X-86421Y196376D01*
X-86428Y196362D01*
X-86443Y196339D01*
X-86465Y196302D01*
X-86488Y196258D01*
X-86517Y196207D01*
X-86539Y196140D01*
X-86576Y196074D01*
X-86635Y195919D01*
X-86687Y195734D01*
X-86731Y195535D01*
X-86753Y195314D01*
X-85890Y195247D01*
Y195255D01*
X-85882Y195277D01*
Y195306D01*
X-85875Y195351D01*
X-85860Y195410D01*
X-85845Y195469D01*
X-85801Y195609D01*
X-85742Y195764D01*
X-85654Y195926D01*
X-85550Y196081D01*
X-85484Y196148D01*
X-85410Y196214D01*
X-85403Y196221D01*
X-85395Y196229D01*
X-85366Y196244D01*
X-85336Y196266D01*
X-85292Y196288D01*
X-85240Y196317D01*
X-85181Y196347D01*
X-85115Y196384D01*
X-85034Y196413D01*
X-84945Y196443D01*
X-84849Y196472D01*
X-84746Y196494D01*
X-84628Y196517D01*
X-84502Y196531D01*
X-84369Y196546D01*
X-84155D01*
X-84096Y196539D01*
X-84030D01*
X-83956Y196531D01*
X-83868Y196524D01*
X-83779Y196509D01*
X-83580Y196472D01*
X-83388Y196421D01*
X-83203Y196347D01*
X-83115Y196295D01*
X-83041Y196244D01*
X-83034D01*
X-83026Y196229D01*
X-82982Y196192D01*
X-82923Y196125D01*
X-82857Y196037D01*
X-82790Y195933D01*
X-82731Y195808D01*
X-82687Y195675D01*
X-82679Y195601D01*
X-82672Y195520D01*
Y195513D01*
Y195505D01*
X-82679Y195461D01*
X-82687Y195395D01*
X-82701Y195314D01*
X-82738Y195218D01*
X-82783Y195114D01*
X-82842Y195018D01*
X-82930Y194922D01*
X-82945Y194915D01*
X-82960Y194900D01*
X-82989Y194878D01*
X-83026Y194856D01*
X-83070Y194834D01*
X-83130Y194804D01*
X-83196Y194767D01*
X-83277Y194731D01*
X-83373Y194694D01*
X-83484Y194657D01*
X-83609Y194613D01*
X-83757Y194568D01*
X-83912Y194524D01*
X-84089Y194472D01*
X-84288Y194428D01*
X-84303D01*
X-84340Y194421D01*
X-84391Y194406D01*
X-84465Y194384D01*
X-84554Y194369D01*
X-84657Y194340D01*
X-84768Y194317D01*
X-84886Y194280D01*
X-85137Y194214D01*
X-85388Y194148D01*
X-85506Y194111D01*
X-85609Y194074D01*
X-85712Y194037D01*
X-85794Y194000D01*
X-85801D01*
X-85823Y193985D01*
X-85853Y193971D01*
X-85890Y193948D01*
X-85941Y193926D01*
X-86000Y193889D01*
X-86126Y193808D01*
X-86273Y193712D01*
X-86414Y193594D01*
X-86554Y193454D01*
X-86613Y193380D01*
X-86672Y193306D01*
Y193299D01*
X-86687Y193284D01*
X-86702Y193262D01*
X-86716Y193233D01*
X-86738Y193196D01*
X-86760Y193144D01*
X-86820Y193026D01*
X-86871Y192886D01*
X-86915Y192723D01*
X-86945Y192539D01*
X-86960Y192340D01*
Y192288D01*
X-86952Y192251D01*
Y192199D01*
X-86945Y192148D01*
X-86923Y192007D01*
X-86886Y191852D01*
X-86827Y191683D01*
X-86746Y191506D01*
X-86702Y191410D01*
X-86642Y191321D01*
Y191314D01*
X-86628Y191299D01*
X-86613Y191277D01*
X-86583Y191240D01*
X-86517Y191159D01*
X-86414Y191048D01*
X-86288Y190930D01*
X-86133Y190804D01*
X-85956Y190686D01*
X-85750Y190576D01*
X-85742D01*
X-85720Y190561D01*
X-85690Y190553D01*
X-85646Y190531D01*
X-85594Y190517D01*
X-85528Y190495D01*
X-85454Y190465D01*
X-85366Y190443D01*
X-85277Y190421D01*
X-85174Y190391D01*
X-84952Y190354D01*
X-84709Y190325D01*
X-84443Y190310D01*
X-86960D01*
X-81543D01*
D01*
X-84355D01*
X-84288Y190317D01*
X-84207D01*
X-84118Y190325D01*
X-84015Y190332D01*
X-83897Y190347D01*
X-83653Y190376D01*
X-83395Y190421D01*
X-83137Y190487D01*
X-82886Y190576D01*
X-82879D01*
X-82857Y190590D01*
X-82827Y190605D01*
X-82783Y190627D01*
X-82731Y190657D01*
X-82672Y190686D01*
X-82532Y190775D01*
X-82377Y190886D01*
X-82214Y191026D01*
X-82052Y191188D01*
X-81912Y191380D01*
X-81905Y191387D01*
X-81897Y191402D01*
X-81882Y191432D01*
X-81860Y191476D01*
X-81831Y191528D01*
X-81801Y191587D01*
X-81764Y191660D01*
X-81735Y191742D01*
X-81698Y191823D01*
X-81668Y191919D01*
X-81609Y192133D01*
X-81565Y192362D01*
X-81550Y192487D01*
X-81543Y192613D01*
X-82392Y192686D01*
Y192679D01*
Y192664D01*
X-82399Y192635D01*
X-82406Y192598D01*
X-82414Y192553D01*
X-82421Y192509D01*
X-82451Y192384D01*
X-82487Y192251D01*
X-82532Y192111D01*
X-82591Y191971D01*
X-82665Y191838D01*
X-82672Y191823D01*
X-82709Y191786D01*
X-82761Y191727D01*
X-82834Y191653D01*
X-82930Y191565D01*
X-83048Y191483D01*
X-83189Y191395D01*
X-83351Y191314D01*
X-83358D01*
X-83373Y191306D01*
X-83395Y191299D01*
X-83432Y191284D01*
X-83476Y191269D01*
X-83528Y191247D01*
X-83587Y191233D01*
X-83653Y191218D01*
X-83808Y191181D01*
X-83993Y191144D01*
X-84185Y191122D01*
X-84399Y191114D01*
X-84487D01*
X-84532Y191122D01*
X-84583D01*
X-84702Y191137D01*
X-84842Y191151D01*
X-84997Y191173D01*
X-85152Y191210D01*
X-85299Y191262D01*
X-85307D01*
X-85314Y191269D01*
X-85336Y191277D01*
X-85366Y191291D01*
X-85432Y191328D01*
X-85521Y191373D01*
X-85617Y191432D01*
X-85720Y191506D01*
X-85808Y191587D01*
X-85890Y191683D01*
X-85897Y191697D01*
X-85919Y191727D01*
X-85956Y191786D01*
X-85993Y191860D01*
X-86023Y191948D01*
X-86059Y192044D01*
X-86082Y192155D01*
X-86089Y192266D01*
Y192273D01*
Y192280D01*
Y192317D01*
X-86082Y192384D01*
X-86067Y192458D01*
X-86045Y192546D01*
X-86008Y192642D01*
X-85963Y192738D01*
X-85897Y192827D01*
X-85890Y192834D01*
X-85860Y192864D01*
X-85816Y192908D01*
X-85750Y192967D01*
X-85668Y193026D01*
X-85558Y193092D01*
X-85432Y193159D01*
X-85285Y193225D01*
X-85270Y193233D01*
X-85255Y193240D01*
X-85225Y193247D01*
X-85196Y193255D01*
X-85152Y193269D01*
X-85093Y193291D01*
X-85034Y193306D01*
X-84952Y193328D01*
X-84871Y193358D01*
X-84768Y193380D01*
X-84657Y193410D01*
X-84532Y193447D01*
X-84399Y193476D01*
X-84244Y193520D01*
X-84074Y193557D01*
X-84067D01*
X-84037Y193565D01*
X-83986Y193579D01*
X-83927Y193594D01*
X-83845Y193616D01*
X-83757Y193638D01*
X-83668Y193668D01*
X-83565Y193697D01*
X-83344Y193764D01*
X-83130Y193838D01*
X-83026Y193875D01*
X-82930Y193911D01*
X-82842Y193948D01*
X-82768Y193985D01*
X-82761D01*
X-82746Y194000D01*
X-82724Y194015D01*
X-82687Y194029D01*
X-82598Y194081D01*
X-82495Y194155D01*
X-82369Y194251D01*
X-82251Y194354D01*
X-82133Y194480D01*
X-82037Y194613D01*
Y194620D01*
X-82030Y194627D01*
X-82015Y194649D01*
X-82000Y194679D01*
X-81963Y194760D01*
X-81919Y194863D01*
X-81875Y194989D01*
X-81838Y195136D01*
X-81809Y195299D01*
X-81801Y195469D01*
Y195476D01*
Y195491D01*
Y195520D01*
X-81809Y195557D01*
Y195601D01*
X-81816Y195653D01*
X-81838Y195786D01*
X-81875Y195933D01*
X-81919Y196089D01*
X-81993Y196258D01*
X-82089Y196428D01*
Y196435D01*
X-82104Y196450D01*
X-82118Y196472D01*
X-82141Y196502D01*
X-82214Y196583D01*
X-82310Y196686D01*
X-82428Y196797D01*
X-82576Y196908D01*
X-82746Y197018D01*
X-82945Y197114D01*
X-82952D01*
X-82967Y197122D01*
X-83004Y197136D01*
X-83041Y197151D01*
X-83093Y197166D01*
X-83159Y197188D01*
X-83233Y197210D01*
X-83314Y197232D01*
X-83403Y197255D01*
X-83499Y197277D01*
X-83705Y197314D01*
X-83941Y197343D01*
X-84192Y197351D01*
D02*
G37*
G36*
X-95373Y195469D02*
X-95417D01*
X-95469Y195461D01*
X-95543D01*
X-95631Y195447D01*
X-95727Y195432D01*
X-95838Y195410D01*
X-95963Y195387D01*
X-96089Y195351D01*
X-96229Y195306D01*
X-96362Y195247D01*
X-96502Y195188D01*
X-96642Y195107D01*
X-96775Y195018D01*
X-96908Y194915D01*
X-97034Y194797D01*
X-97041Y194790D01*
X-97063Y194767D01*
X-97092Y194731D01*
X-97137Y194672D01*
X-97181Y194605D01*
X-97240Y194524D01*
X-97299Y194428D01*
X-97358Y194317D01*
X-97417Y194192D01*
X-97476Y194052D01*
X-97535Y193904D01*
X-97580Y193742D01*
X-97624Y193565D01*
X-97653Y193373D01*
X-97676Y193166D01*
X-97683Y192952D01*
Y192863D01*
X-97676Y192797D01*
Y192716D01*
X-97668Y192620D01*
X-97661Y192517D01*
X-97646Y192406D01*
X-97616Y192170D01*
X-97565Y191919D01*
X-97491Y191675D01*
X-97447Y191565D01*
X-97395Y191454D01*
Y191446D01*
X-97380Y191432D01*
X-97366Y191402D01*
X-97343Y191365D01*
X-97314Y191321D01*
X-97277Y191262D01*
X-97181Y191144D01*
X-97063Y191004D01*
X-96923Y190864D01*
X-96753Y190731D01*
X-96561Y190605D01*
X-96554D01*
X-96539Y190590D01*
X-96509Y190576D01*
X-96465Y190561D01*
X-96413Y190539D01*
X-96355Y190509D01*
X-96288Y190487D01*
X-96207Y190458D01*
X-96126Y190428D01*
X-96030Y190406D01*
X-95831Y190354D01*
X-95609Y190325D01*
X-95373Y190310D01*
X-97683Y190310D01*
D01*
X-93063Y190310D01*
X-95329D01*
X-95277Y190317D01*
X-95203D01*
X-95115Y190332D01*
X-95011Y190347D01*
X-94901Y190369D01*
X-94775Y190391D01*
X-94642Y190428D01*
X-94510Y190472D01*
X-94369Y190524D01*
X-94229Y190590D01*
X-94089Y190664D01*
X-93956Y190753D01*
X-93823Y190856D01*
X-93698Y190974D01*
X-93690Y190982D01*
X-93668Y191004D01*
X-93639Y191041D01*
X-93602Y191100D01*
X-93550Y191166D01*
X-93498Y191247D01*
X-93439Y191351D01*
X-93380Y191461D01*
X-93321Y191594D01*
X-93262Y191734D01*
X-93211Y191889D01*
X-93159Y192059D01*
X-93122Y192244D01*
X-93093Y192443D01*
X-93070Y192657D01*
X-93063Y192886D01*
Y192945D01*
X-93070Y193018D01*
X-93078Y193107D01*
X-93085Y193225D01*
X-93100Y193358D01*
X-93129Y193498D01*
X-93159Y193653D01*
X-93196Y193816D01*
X-93247Y193985D01*
X-93314Y194155D01*
X-93380Y194325D01*
X-93469Y194487D01*
X-93572Y194642D01*
X-93690Y194782D01*
X-93823Y194915D01*
X-93831Y194922D01*
X-93853Y194937D01*
X-93890Y194967D01*
X-93934Y195004D01*
X-94000Y195041D01*
X-94074Y195092D01*
X-94155Y195144D01*
X-94259Y195195D01*
X-94362Y195247D01*
X-94480Y195291D01*
X-94605Y195343D01*
X-94746Y195380D01*
X-94893Y195417D01*
X-95041Y195447D01*
X-95203Y195461D01*
X-95373Y195469D01*
D02*
G37*
G36*
X-72237Y197343D02*
X-72834D01*
X-72827Y197336D01*
X-72812Y197299D01*
X-72783Y197255D01*
X-72746Y197188D01*
X-72694Y197107D01*
X-72643Y197018D01*
X-72591Y196915D01*
X-72532Y196812D01*
X-72406Y196583D01*
X-72281Y196354D01*
X-72222Y196244D01*
X-72170Y196140D01*
X-72126Y196044D01*
X-72089Y195963D01*
Y195956D01*
X-72074Y195933D01*
X-72060Y195897D01*
X-72045Y195852D01*
X-72023Y195793D01*
X-71993Y195727D01*
X-71964Y195646D01*
X-71927Y195557D01*
X-71897Y195461D01*
X-71860Y195358D01*
X-71786Y195129D01*
X-71713Y194886D01*
X-71646Y194627D01*
Y194620D01*
X-71639Y194590D01*
X-71631Y194539D01*
X-71617Y194480D01*
X-71602Y194398D01*
X-71580Y194303D01*
X-71565Y194199D01*
X-71550Y194081D01*
X-71528Y193956D01*
X-71513Y193816D01*
X-71491Y193675D01*
X-71477Y193520D01*
X-71454Y193203D01*
X-71447Y192878D01*
Y192871D01*
Y192856D01*
Y192819D01*
Y192775D01*
X-71454Y192723D01*
Y192657D01*
X-71462Y192583D01*
X-71469Y192494D01*
X-71477Y192399D01*
X-71491Y192295D01*
X-71506Y192177D01*
X-71521Y192052D01*
X-71543Y191919D01*
X-71565Y191786D01*
X-71624Y191483D01*
X-71690Y191159D01*
X-71786Y190804D01*
X-71897Y190435D01*
X-72030Y190052D01*
X-72192Y189661D01*
X-72377Y189247D01*
X-72480Y189041D01*
X-72591Y188834D01*
X-72709Y188627D01*
X-72834Y188421D01*
X-72237D01*
X-72229Y188428D01*
X-72207Y188458D01*
X-72170Y188509D01*
X-72119Y188576D01*
X-72060Y188657D01*
X-71993Y188760D01*
X-71912Y188878D01*
X-71831Y189004D01*
X-71742Y189151D01*
X-71646Y189306D01*
X-71550Y189476D01*
X-71447Y189653D01*
X-71351Y189845D01*
X-71255Y190044D01*
X-71159Y190251D01*
X-71063Y190465D01*
X-71056Y190480D01*
X-71041Y190517D01*
X-71019Y190583D01*
X-70989Y190664D01*
X-70952Y190775D01*
X-70916Y190900D01*
X-70871Y191048D01*
X-70827Y191203D01*
X-70783Y191380D01*
X-70739Y191572D01*
X-70702Y191771D01*
X-70665Y191978D01*
X-70635Y192199D01*
X-70613Y192421D01*
X-70598Y192649D01*
X-70591Y192886D01*
Y189919D01*
Y193026D01*
Y192996D01*
X-70598Y193070D01*
Y193173D01*
X-70613Y193284D01*
X-70621Y193417D01*
X-70635Y193565D01*
X-70657Y193719D01*
X-70679Y193882D01*
X-70709Y194059D01*
X-70739Y194244D01*
X-70827Y194613D01*
X-70886Y194804D01*
X-70945Y194996D01*
X-70952Y195011D01*
X-70967Y195048D01*
X-70989Y195114D01*
X-71026Y195203D01*
X-71071Y195306D01*
X-71122Y195432D01*
X-71189Y195572D01*
X-71263Y195734D01*
X-71344Y195904D01*
X-71440Y196089D01*
X-71550Y196280D01*
X-71661Y196487D01*
X-71794Y196694D01*
X-71927Y196908D01*
X-72074Y197122D01*
X-72237Y197343D01*
D02*
G37*
G36*
X-139011Y191373D02*
X-140022D01*
Y189070D01*
Y190332D01*
X-140015Y190288D01*
Y190236D01*
X-140000Y190118D01*
X-139978Y189985D01*
X-139941Y189845D01*
X-139897Y189705D01*
X-139830Y189572D01*
X-139823Y189557D01*
X-139793Y189520D01*
X-139749Y189461D01*
X-139690Y189388D01*
X-139609Y189306D01*
X-139505Y189225D01*
X-139380Y189144D01*
X-139240Y189070D01*
D01*
X-139011Y189424D01*
X-139026Y189432D01*
X-139055Y189446D01*
X-139100Y189476D01*
X-139158Y189513D01*
X-139225Y189565D01*
X-139291Y189624D01*
X-139350Y189690D01*
X-139402Y189771D01*
X-139409Y189779D01*
X-139424Y189815D01*
X-139446Y189867D01*
X-139469Y189941D01*
X-139491Y190030D01*
X-139513Y190140D01*
X-139535Y190273D01*
X-139542Y190421D01*
X-139070D01*
Y191373D01*
X-139011D01*
D01*
D02*
G37*
G36*
X-78517Y197343D02*
X-79115D01*
X-79122Y197328D01*
X-79152Y197292D01*
X-79196Y197225D01*
X-79255Y197144D01*
X-79329Y197040D01*
X-79410Y196915D01*
X-79506Y196767D01*
X-79602Y196613D01*
X-79705Y196443D01*
X-79809Y196258D01*
X-79919Y196066D01*
X-80023Y195860D01*
X-80222Y195439D01*
X-80318Y195218D01*
X-80399Y194996D01*
X-80406Y194982D01*
X-80414Y194952D01*
X-80436Y194893D01*
X-80458Y194819D01*
X-80480Y194731D01*
X-80517Y194620D01*
X-80547Y194494D01*
X-80584Y194354D01*
X-80613Y194199D01*
X-80650Y194037D01*
X-80679Y193860D01*
X-80702Y193683D01*
X-80731Y193491D01*
X-80746Y193291D01*
X-80753Y193092D01*
X-80761Y192886D01*
Y192760D01*
X-80753Y192672D01*
X-80746Y192561D01*
X-80738Y192428D01*
X-80724Y192280D01*
X-80702Y192111D01*
X-80672Y191934D01*
X-80642Y191742D01*
X-80606Y191542D01*
X-80554Y191336D01*
X-80502Y191122D01*
X-80436Y190900D01*
X-80362Y190686D01*
X-80273Y190465D01*
X-80266Y190450D01*
X-80251Y190413D01*
X-80222Y190354D01*
X-80185Y190266D01*
X-80141Y190170D01*
X-80089Y190052D01*
X-80023Y189919D01*
X-79949Y189771D01*
X-79868Y189616D01*
X-79779Y189454D01*
X-79580Y189114D01*
X-79358Y188760D01*
X-79115Y188421D01*
X-78517D01*
X-78524Y188428D01*
X-78532Y188443D01*
X-78554Y188480D01*
X-78576Y188524D01*
X-78606Y188576D01*
X-78642Y188642D01*
X-78687Y188716D01*
X-78731Y188804D01*
X-78783Y188900D01*
X-78842Y189004D01*
X-78893Y189122D01*
X-78960Y189240D01*
X-79019Y189373D01*
X-79078Y189513D01*
X-79211Y189808D01*
X-79344Y190140D01*
X-79469Y190487D01*
X-79580Y190856D01*
X-79690Y191240D01*
X-79779Y191638D01*
X-79845Y192044D01*
X-79890Y192458D01*
X-79897Y192672D01*
X-79905Y192878D01*
Y192886D01*
Y192915D01*
Y192967D01*
Y193026D01*
X-79897Y193107D01*
Y193203D01*
X-79890Y193306D01*
X-79882Y193424D01*
X-79868Y193550D01*
X-79853Y193683D01*
X-79838Y193830D01*
X-79816Y193978D01*
X-79764Y194288D01*
X-79698Y194613D01*
Y194620D01*
X-79690Y194642D01*
X-79683Y194679D01*
X-79668Y194731D01*
X-79654Y194790D01*
X-79631Y194863D01*
X-79609Y194952D01*
X-79587Y195041D01*
X-79558Y195136D01*
X-79521Y195247D01*
X-79447Y195469D01*
X-79358Y195705D01*
X-79262Y195948D01*
Y195956D01*
X-79255Y195970D01*
X-79240Y195993D01*
X-79225Y196029D01*
X-79203Y196074D01*
X-79174Y196133D01*
X-79137Y196199D01*
X-79100Y196280D01*
X-79056Y196369D01*
X-78997Y196472D01*
X-78938Y196583D01*
X-78871Y196708D01*
X-78798Y196849D01*
X-78709Y197004D01*
X-78620Y197166D01*
X-78517Y197343D01*
D02*
G37*
G36*
X-118775Y197343D02*
X-119373D01*
X-119365Y197336D01*
X-119351Y197299D01*
X-119321Y197255D01*
X-119284Y197188D01*
X-119232Y197107D01*
X-119181Y197018D01*
X-119129Y196915D01*
X-119070Y196812D01*
X-118945Y196583D01*
X-118819Y196354D01*
X-118760Y196244D01*
X-118709Y196140D01*
X-118664Y196044D01*
X-118627Y195963D01*
Y195956D01*
X-118613Y195933D01*
X-118598Y195897D01*
X-118583Y195852D01*
X-118561Y195793D01*
X-118531Y195727D01*
X-118502Y195646D01*
X-118465Y195557D01*
X-118436Y195461D01*
X-118399Y195358D01*
X-118325Y195129D01*
X-118251Y194886D01*
X-118184Y194627D01*
Y194620D01*
X-118177Y194590D01*
X-118170Y194539D01*
X-118155Y194480D01*
X-118140Y194398D01*
X-118118Y194302D01*
X-118103Y194199D01*
X-118089Y194081D01*
X-118067Y193956D01*
X-118052Y193816D01*
X-118030Y193675D01*
X-118015Y193520D01*
X-117993Y193203D01*
X-117985Y192878D01*
Y192871D01*
Y192856D01*
Y192819D01*
Y192775D01*
X-117993Y192723D01*
Y192657D01*
X-118000Y192583D01*
X-118007Y192494D01*
X-118015Y192399D01*
X-118030Y192295D01*
X-118044Y192177D01*
X-118059Y192052D01*
X-118081Y191919D01*
X-118103Y191786D01*
X-118162Y191483D01*
X-118229Y191159D01*
X-118325Y190804D01*
X-118436Y190435D01*
X-118568Y190052D01*
X-118731Y189661D01*
X-118915Y189247D01*
X-119018Y189041D01*
X-119129Y188834D01*
X-119247Y188627D01*
X-119373Y188421D01*
X-118775D01*
X-118768Y188428D01*
X-118745Y188458D01*
X-118709Y188509D01*
X-118657Y188576D01*
X-118598Y188657D01*
X-118531Y188760D01*
X-118450Y188878D01*
X-118369Y189004D01*
X-118280Y189151D01*
X-118184Y189306D01*
X-118089Y189476D01*
X-117985Y189653D01*
X-117889Y189845D01*
X-117793Y190044D01*
X-117698Y190251D01*
X-117602Y190465D01*
X-117594Y190480D01*
X-117579Y190517D01*
X-117557Y190583D01*
X-117528Y190664D01*
X-117491Y190775D01*
X-117454Y190900D01*
X-117410Y191048D01*
X-117365Y191203D01*
X-117321Y191380D01*
X-117277Y191572D01*
X-117240Y191771D01*
X-117203Y191978D01*
X-117174Y192199D01*
X-117151Y192421D01*
X-117137Y192649D01*
X-117129Y192886D01*
Y192996D01*
X-117137Y193070D01*
Y193173D01*
X-117151Y193284D01*
X-117159Y193417D01*
X-117174Y193565D01*
X-117196Y193719D01*
X-117218Y193882D01*
X-117247Y194059D01*
X-117277Y194244D01*
X-117365Y194613D01*
X-117424Y194804D01*
X-117483Y194996D01*
X-117491Y195011D01*
X-117506Y195048D01*
X-117528Y195114D01*
X-117565Y195203D01*
X-117609Y195306D01*
X-117661Y195432D01*
X-117727Y195572D01*
X-117801Y195734D01*
X-117882Y195904D01*
X-117978Y196089D01*
X-118089Y196280D01*
X-118199Y196487D01*
X-118332Y196694D01*
X-118465Y196908D01*
X-118613Y197122D01*
X-118775Y197343D01*
D02*
G37*
G36*
X-173166Y197343D02*
Y188421D01*
D01*
Y197343D01*
D02*
G37*
G36*
D02*
X-173763D01*
X-173771Y197328D01*
X-173800Y197291D01*
X-173845Y197225D01*
X-173904Y197144D01*
X-173977Y197040D01*
X-174058Y196915D01*
X-174154Y196767D01*
X-174250Y196613D01*
X-174354Y196443D01*
X-174457Y196258D01*
X-174568Y196066D01*
X-174671Y195860D01*
X-174870Y195439D01*
X-174966Y195218D01*
X-175048Y194996D01*
X-175055Y194982D01*
X-175062Y194952D01*
X-175084Y194893D01*
X-175107Y194819D01*
X-175129Y194731D01*
X-175165Y194620D01*
X-175195Y194494D01*
X-175232Y194354D01*
X-175261Y194199D01*
X-175298Y194037D01*
X-175328Y193860D01*
X-175350Y193683D01*
X-175380Y193491D01*
X-175394Y193291D01*
X-175402Y193092D01*
X-175409Y192886D01*
Y192760D01*
X-175402Y192672D01*
X-175394Y192561D01*
X-175387Y192428D01*
X-175372Y192280D01*
X-175350Y192111D01*
X-175320Y191934D01*
X-175291Y191742D01*
X-175254Y191542D01*
X-175202Y191336D01*
X-175151Y191122D01*
X-175084Y190900D01*
X-175011Y190686D01*
X-174922Y190465D01*
X-174915Y190450D01*
X-174900Y190413D01*
X-174870Y190354D01*
X-174833Y190266D01*
X-174789Y190170D01*
X-174738Y190052D01*
X-174671Y189919D01*
X-174597Y189771D01*
X-174516Y189616D01*
X-174427Y189454D01*
X-174228Y189114D01*
X-174007Y188760D01*
X-173763Y188421D01*
X-173166D01*
X-173173Y188428D01*
X-173180Y188443D01*
X-173202Y188480D01*
X-173225Y188524D01*
X-173254Y188576D01*
X-173291Y188642D01*
X-173335Y188716D01*
X-173380Y188804D01*
X-173431Y188900D01*
X-173490Y189004D01*
X-173542Y189122D01*
X-173608Y189240D01*
X-173667Y189373D01*
X-173726Y189513D01*
X-173859Y189808D01*
X-173992Y190140D01*
X-174118Y190487D01*
X-174228Y190856D01*
X-174339Y191240D01*
X-174427Y191638D01*
X-174494Y192044D01*
X-174538Y192457D01*
X-174546Y192672D01*
X-174553Y192878D01*
Y192886D01*
Y192915D01*
Y192967D01*
Y193026D01*
X-174546Y193107D01*
Y193203D01*
X-174538Y193306D01*
X-174531Y193424D01*
X-174516Y193550D01*
X-174501Y193683D01*
X-174487Y193830D01*
X-174464Y193978D01*
X-174413Y194288D01*
X-174346Y194613D01*
Y194620D01*
X-174339Y194642D01*
X-174332Y194679D01*
X-174317Y194731D01*
X-174302Y194790D01*
X-174280Y194863D01*
X-174258Y194952D01*
X-174236Y195041D01*
X-174206Y195136D01*
X-174169Y195247D01*
X-174095Y195469D01*
X-174007Y195705D01*
X-173911Y195948D01*
Y195956D01*
X-173904Y195970D01*
X-173889Y195993D01*
X-173874Y196029D01*
X-173852Y196074D01*
X-173822Y196133D01*
X-173785Y196199D01*
X-173749Y196280D01*
X-173704Y196369D01*
X-173645Y196472D01*
X-173586Y196583D01*
X-173520Y196708D01*
X-173446Y196849D01*
X-173357Y197004D01*
X-173269Y197166D01*
X-173166Y197343D01*
D02*
G37*
G36*
X-135118Y185073D02*
X-136284D01*
D01*
X-135118D01*
D02*
G37*
G36*
X-80786Y186948D02*
X-81620D01*
Y184497D01*
X-81628Y184505D01*
X-81650Y184527D01*
X-81679Y184564D01*
X-81724Y184608D01*
X-81783Y184660D01*
X-81849Y184712D01*
X-81930Y184778D01*
X-82026Y184844D01*
X-82122Y184903D01*
X-82233Y184970D01*
X-82358Y185021D01*
X-82484Y185081D01*
X-82624Y185117D01*
X-82772Y185154D01*
X-82927Y185176D01*
X-83089Y185184D01*
X-83178D01*
X-83229Y185176D01*
X-83281Y185169D01*
X-83414Y185154D01*
X-83561Y185132D01*
X-83716Y185088D01*
X-83879Y185036D01*
X-84034Y184962D01*
X-84041D01*
X-84048Y184955D01*
X-84070Y184940D01*
X-84100Y184925D01*
X-84174Y184874D01*
X-84262Y184807D01*
X-84351Y184726D01*
X-84454Y184623D01*
X-84543Y184497D01*
X-84617Y184365D01*
Y184357D01*
X-84624Y184350D01*
X-84631Y184328D01*
X-84646Y184298D01*
X-84661Y184254D01*
X-84676Y184210D01*
X-84690Y184151D01*
X-84705Y184084D01*
X-84720Y184010D01*
X-84735Y183929D01*
X-84750Y183841D01*
X-84764Y183737D01*
X-84779Y183634D01*
X-84786Y183516D01*
X-84794Y183390D01*
Y186948D01*
D01*
D01*
Y180136D01*
X-80786D01*
Y186948D01*
D02*
G37*
G36*
X-116867Y185184D02*
X-116956D01*
X-117007Y185176D01*
X-117059Y185169D01*
X-117185Y185154D01*
X-117325Y185125D01*
X-117472Y185088D01*
X-117620Y185029D01*
X-117760Y184955D01*
X-117768D01*
X-117775Y184948D01*
X-117819Y184911D01*
X-117878Y184859D01*
X-117959Y184793D01*
X-118041Y184697D01*
X-118122Y184593D01*
X-118196Y184468D01*
X-118262Y184320D01*
X-118269Y184328D01*
X-118292Y184357D01*
X-118321Y184402D01*
X-118373Y184453D01*
X-118424Y184520D01*
X-118498Y184593D01*
X-118579Y184675D01*
X-118675Y184756D01*
X-118779Y184830D01*
X-118897Y184911D01*
X-119022Y184985D01*
X-119155Y185051D01*
X-119303Y185103D01*
X-119458Y185147D01*
X-119620Y185176D01*
X-119790Y185184D01*
X-119863D01*
X-119908Y185176D01*
X-119974Y185169D01*
X-120041Y185162D01*
X-120122Y185147D01*
X-120210Y185132D01*
X-120387Y185081D01*
X-120579Y185007D01*
X-120668Y184962D01*
X-120756Y184911D01*
X-120845Y184844D01*
X-120919Y184771D01*
X-120926Y184763D01*
X-120934Y184748D01*
X-120956Y184726D01*
X-120978Y184697D01*
X-121015Y184652D01*
X-121044Y184601D01*
X-121081Y184534D01*
X-121118Y184461D01*
X-121155Y184379D01*
X-121192Y184291D01*
X-121229Y184187D01*
X-121258Y184077D01*
X-121281Y183951D01*
X-121303Y183818D01*
X-121310Y183678D01*
X-121317Y183523D01*
Y185184D01*
D01*
D01*
Y180136D01*
X-120483D01*
Y183243D01*
Y183250D01*
Y183265D01*
Y183294D01*
Y183324D01*
X-120476Y183413D01*
Y183523D01*
X-120461Y183641D01*
X-120447Y183759D01*
X-120432Y183870D01*
X-120402Y183966D01*
Y183974D01*
X-120387Y184003D01*
X-120365Y184040D01*
X-120336Y184092D01*
X-120291Y184151D01*
X-120247Y184210D01*
X-120181Y184269D01*
X-120107Y184320D01*
X-120100Y184328D01*
X-120070Y184343D01*
X-120026Y184365D01*
X-119967Y184394D01*
X-119893Y184416D01*
X-119805Y184438D01*
X-119709Y184453D01*
X-119605Y184461D01*
X-119553D01*
X-119517Y184453D01*
X-119472D01*
X-119421Y184446D01*
X-119303Y184416D01*
X-119162Y184379D01*
X-119015Y184313D01*
X-118875Y184232D01*
X-118801Y184173D01*
X-118734Y184114D01*
Y184106D01*
X-118720Y184099D01*
X-118705Y184077D01*
X-118683Y184047D01*
X-118653Y184010D01*
X-118624Y183966D01*
X-118594Y183907D01*
X-118565Y183848D01*
X-118528Y183774D01*
X-118498Y183693D01*
X-118469Y183597D01*
X-118439Y183501D01*
X-118417Y183390D01*
X-118402Y183265D01*
X-118395Y183140D01*
X-118387Y182999D01*
Y180136D01*
X-119086D01*
X-117554D01*
Y183339D01*
Y183346D01*
Y183361D01*
Y183390D01*
Y183435D01*
X-117546Y183479D01*
Y183531D01*
X-117531Y183656D01*
X-117502Y183789D01*
X-117465Y183929D01*
X-117413Y184062D01*
X-117347Y184180D01*
X-117340Y184195D01*
X-117310Y184224D01*
X-117258Y184269D01*
X-117192Y184320D01*
X-117096Y184372D01*
X-116985Y184416D01*
X-116845Y184446D01*
X-116683Y184461D01*
X-116624D01*
X-116557Y184453D01*
X-116469Y184438D01*
X-116365Y184416D01*
X-116255Y184379D01*
X-116144Y184335D01*
X-116026Y184269D01*
X-116011Y184261D01*
X-115974Y184232D01*
X-115923Y184195D01*
X-115864Y184128D01*
X-115790Y184055D01*
X-115716Y183959D01*
X-115649Y183848D01*
X-115591Y183723D01*
Y183715D01*
X-115583Y183708D01*
X-115576Y183686D01*
X-115568Y183656D01*
X-115561Y183619D01*
X-115546Y183575D01*
X-115539Y183523D01*
X-115524Y183464D01*
X-115509Y183390D01*
X-115502Y183317D01*
X-115487Y183236D01*
X-115480Y183140D01*
X-115472Y183044D01*
X-115465Y182933D01*
X-115458Y182822D01*
Y182697D01*
Y180136D01*
X-116855D01*
X-114624D01*
Y185073D01*
D01*
X-115369D01*
Y184387D01*
X-115384Y184394D01*
X-115413Y184438D01*
X-115465Y184505D01*
X-115539Y184586D01*
X-115627Y184682D01*
X-115731Y184778D01*
X-115849Y184874D01*
X-115989Y184962D01*
X-115996D01*
X-116004Y184970D01*
X-116026Y184985D01*
X-116055Y184999D01*
X-116092Y185014D01*
X-116137Y185036D01*
X-116240Y185073D01*
X-116373Y185117D01*
X-116520Y185147D01*
X-116690Y185176D01*
X-116867Y185184D01*
D02*
G37*
G36*
X-160764Y185184D02*
X-160852D01*
X-160904Y185176D01*
X-160955Y185169D01*
X-161081Y185154D01*
X-161221Y185125D01*
X-161369Y185088D01*
X-161516Y185029D01*
X-161656Y184955D01*
X-161664D01*
X-161671Y184948D01*
X-161715Y184911D01*
X-161775Y184859D01*
X-161856Y184793D01*
X-161937Y184697D01*
X-162018Y184593D01*
X-162092Y184468D01*
X-162158Y184320D01*
X-162166Y184328D01*
X-162188Y184357D01*
X-162217Y184402D01*
X-162269Y184453D01*
X-162321Y184520D01*
X-162394Y184593D01*
X-162476Y184675D01*
X-162572Y184756D01*
X-162675Y184830D01*
X-162793Y184911D01*
X-162918Y184985D01*
X-163051Y185051D01*
X-163199Y185103D01*
X-163354Y185147D01*
X-163516Y185176D01*
X-163686Y185184D01*
X-163760D01*
X-163804Y185176D01*
X-163870Y185169D01*
X-163937Y185162D01*
X-164018Y185147D01*
X-164107Y185132D01*
X-164284Y185081D01*
X-164476Y185007D01*
X-164564Y184962D01*
X-164653Y184911D01*
X-164741Y184844D01*
X-164815Y184771D01*
X-164822Y184763D01*
X-164830Y184748D01*
X-164852Y184726D01*
X-164874Y184697D01*
X-164911Y184652D01*
X-164941Y184601D01*
X-164977Y184534D01*
X-165014Y184461D01*
X-165051Y184379D01*
X-165088Y184291D01*
X-165125Y184187D01*
X-165155Y184077D01*
X-165177Y183951D01*
X-165199Y183818D01*
X-165206Y183678D01*
X-165214Y183523D01*
Y185184D01*
D01*
Y180136D01*
X-164380D01*
Y183243D01*
Y183250D01*
Y183265D01*
Y183294D01*
Y183324D01*
X-164372Y183413D01*
Y183523D01*
X-164357Y183641D01*
X-164343Y183759D01*
X-164328Y183870D01*
X-164298Y183966D01*
Y183974D01*
X-164284Y184003D01*
X-164262Y184040D01*
X-164232Y184092D01*
X-164188Y184151D01*
X-164144Y184210D01*
X-164077Y184269D01*
X-164003Y184320D01*
X-163996Y184328D01*
X-163966Y184343D01*
X-163922Y184365D01*
X-163863Y184394D01*
X-163789Y184416D01*
X-163701Y184438D01*
X-163605Y184453D01*
X-163501Y184461D01*
X-163450D01*
X-163413Y184453D01*
X-163369D01*
X-163317Y184446D01*
X-163199Y184416D01*
X-163059Y184379D01*
X-162911Y184313D01*
X-162771Y184232D01*
X-162697Y184173D01*
X-162631Y184114D01*
Y184106D01*
X-162616Y184099D01*
X-162601Y184077D01*
X-162579Y184047D01*
X-162549Y184010D01*
X-162520Y183966D01*
X-162490Y183907D01*
X-162461Y183848D01*
X-162424Y183774D01*
X-162394Y183693D01*
X-162365Y183597D01*
X-162335Y183501D01*
X-162313Y183390D01*
X-162299Y183265D01*
X-162291Y183140D01*
X-162284Y182999D01*
Y180136D01*
X-164265D01*
X-158520D01*
Y185073D01*
X-159265D01*
Y184387D01*
X-159280Y184394D01*
X-159310Y184438D01*
X-159361Y184505D01*
X-159435Y184586D01*
X-159524Y184682D01*
X-159627Y184778D01*
X-159745Y184874D01*
X-159885Y184962D01*
X-159893D01*
X-159900Y184970D01*
X-159922Y184985D01*
X-159952Y184999D01*
X-159989Y185014D01*
X-160033Y185036D01*
X-160136Y185073D01*
X-160269Y185117D01*
X-160417Y185147D01*
X-160586Y185176D01*
X-160764Y185184D01*
D02*
G37*
G36*
X-111428Y185184D02*
X-111531D01*
X-111583Y185176D01*
X-111650D01*
X-111790Y185162D01*
X-111952Y185147D01*
X-112122Y185117D01*
X-112292Y185081D01*
X-112447Y185029D01*
X-112454D01*
X-112461Y185021D01*
X-112484Y185014D01*
X-112513Y184999D01*
X-112579Y184970D01*
X-112668Y184925D01*
X-112764Y184874D01*
X-112860Y184807D01*
X-112948Y184734D01*
X-113030Y184652D01*
X-113037Y184645D01*
X-113059Y184616D01*
X-113096Y184564D01*
X-113133Y184497D01*
X-113177Y184416D01*
X-113222Y184320D01*
X-113266Y184210D01*
X-113295Y184084D01*
Y184077D01*
X-113303Y184040D01*
X-113310Y183988D01*
X-113317Y183907D01*
X-113325Y183804D01*
X-113332Y183671D01*
Y183590D01*
X-113340Y183509D01*
Y183420D01*
Y183317D01*
Y182202D01*
Y182187D01*
Y182151D01*
Y182092D01*
Y182018D01*
Y181922D01*
Y181818D01*
X-113347Y181701D01*
Y181582D01*
X-113354Y181332D01*
Y181206D01*
X-113362Y181088D01*
X-113369Y180977D01*
X-113376Y180881D01*
X-113384Y180793D01*
X-113391Y180726D01*
Y180711D01*
X-113399Y180675D01*
X-113413Y180616D01*
X-113435Y180534D01*
X-113465Y180446D01*
X-113502Y180350D01*
X-113546Y180239D01*
X-113598Y180136D01*
X-112727D01*
X-112720Y180151D01*
X-112705Y180180D01*
X-112683Y180239D01*
X-112661Y180313D01*
X-112631Y180402D01*
X-112602Y180505D01*
X-112579Y180623D01*
X-112565Y180756D01*
X-112557Y180748D01*
X-112542Y180741D01*
X-112520Y180719D01*
X-112484Y180689D01*
X-112439Y180660D01*
X-112395Y180616D01*
X-112277Y180534D01*
X-112137Y180438D01*
X-111989Y180342D01*
X-111827Y180261D01*
X-111664Y180188D01*
X-111657D01*
X-111642Y180180D01*
X-111620Y180173D01*
X-111591Y180165D01*
X-111554Y180151D01*
X-111502Y180136D01*
X-111391Y180106D01*
X-111251Y180077D01*
X-111096Y180047D01*
X-110926Y180033D01*
X-110742Y180025D01*
X-113598D01*
X-109059D01*
D01*
X-110661D01*
X-110609Y180033D01*
X-110543Y180040D01*
X-110461Y180047D01*
X-110373Y180055D01*
X-110284Y180077D01*
X-110078Y180121D01*
X-109871Y180188D01*
X-109775Y180232D01*
X-109672Y180291D01*
X-109583Y180350D01*
X-109495Y180416D01*
X-109487Y180424D01*
X-109473Y180438D01*
X-109458Y180461D01*
X-109428Y180490D01*
X-109391Y180527D01*
X-109354Y180579D01*
X-109318Y180630D01*
X-109281Y180697D01*
X-109199Y180837D01*
X-109126Y181014D01*
X-109096Y181110D01*
X-109081Y181213D01*
X-109067Y181324D01*
X-109059Y181435D01*
Y181494D01*
X-109067Y181568D01*
X-109081Y181656D01*
X-109096Y181760D01*
X-109126Y181870D01*
X-109170Y181981D01*
X-109221Y182099D01*
X-109229Y182114D01*
X-109251Y182151D01*
X-109288Y182202D01*
X-109340Y182276D01*
X-109399Y182350D01*
X-109473Y182431D01*
X-109554Y182505D01*
X-109650Y182579D01*
X-109664Y182586D01*
X-109701Y182608D01*
X-109753Y182645D01*
X-109827Y182682D01*
X-109915Y182726D01*
X-110019Y182771D01*
X-110137Y182815D01*
X-110255Y182852D01*
X-110269D01*
X-110299Y182867D01*
X-110358Y182874D01*
X-110439Y182896D01*
X-110543Y182911D01*
X-110675Y182933D01*
X-110823Y182955D01*
X-111000Y182977D01*
X-111015D01*
X-111044Y182985D01*
X-111096Y182992D01*
X-111162Y182999D01*
X-111251Y183014D01*
X-111347Y183029D01*
X-111450Y183044D01*
X-111568Y183058D01*
X-111812Y183103D01*
X-112056Y183154D01*
X-112173Y183184D01*
X-112292Y183213D01*
X-112395Y183243D01*
X-112491Y183272D01*
Y183280D01*
Y183302D01*
Y183331D01*
X-112498Y183361D01*
Y183435D01*
Y183464D01*
Y183486D01*
Y183494D01*
Y183509D01*
Y183538D01*
Y183568D01*
X-112484Y183656D01*
X-112469Y183767D01*
X-112439Y183885D01*
X-112395Y184003D01*
X-112336Y184114D01*
X-112255Y184202D01*
X-112240Y184217D01*
X-112225Y184232D01*
X-112196Y184247D01*
X-112159Y184269D01*
X-112122Y184291D01*
X-112019Y184350D01*
X-111886Y184402D01*
X-111723Y184446D01*
X-111531Y184475D01*
X-111310Y184490D01*
X-111214D01*
X-111162Y184483D01*
X-111111D01*
X-110978Y184468D01*
X-110838Y184438D01*
X-110697Y184402D01*
X-110557Y184350D01*
X-110439Y184283D01*
X-110424Y184276D01*
X-110395Y184247D01*
X-110343Y184187D01*
X-110284Y184114D01*
X-110218Y184018D01*
X-110144Y183885D01*
X-110085Y183737D01*
X-110055Y183649D01*
X-110026Y183553D01*
X-109207Y183663D01*
Y183671D01*
X-109214Y183686D01*
X-109221Y183715D01*
X-109229Y183752D01*
X-109244Y183796D01*
X-109258Y183848D01*
X-109295Y183966D01*
X-109347Y184099D01*
X-109406Y184239D01*
X-109480Y184379D01*
X-109568Y184505D01*
Y184512D01*
X-109583Y184520D01*
X-109620Y184556D01*
X-109679Y184616D01*
X-109760Y184689D01*
X-109864Y184771D01*
X-109989Y184852D01*
X-110137Y184933D01*
X-110306Y185007D01*
X-110314D01*
X-110328Y185014D01*
X-110358Y185021D01*
X-110395Y185036D01*
X-110439Y185051D01*
X-110491Y185066D01*
X-110557Y185081D01*
X-110631Y185095D01*
X-110705Y185110D01*
X-110793Y185125D01*
X-110985Y185154D01*
X-111199Y185176D01*
X-111428Y185184D01*
D02*
G37*
G36*
X-155236Y185184D02*
X-155280D01*
X-155332Y185176D01*
X-155406D01*
X-155494Y185162D01*
X-155590Y185147D01*
X-155701Y185125D01*
X-155826Y185103D01*
X-155952Y185066D01*
X-156092Y185021D01*
X-156225Y184962D01*
X-156365Y184903D01*
X-156505Y184822D01*
X-156638Y184734D01*
X-156771Y184630D01*
X-156896Y184512D01*
X-156904Y184505D01*
X-156926Y184483D01*
X-156955Y184446D01*
X-157000Y184387D01*
X-157044Y184320D01*
X-157103Y184239D01*
X-157162Y184143D01*
X-157221Y184032D01*
X-157280Y183907D01*
X-157339Y183767D01*
X-157398Y183619D01*
X-157442Y183457D01*
X-157487Y183280D01*
X-157516Y183088D01*
X-157538Y182881D01*
X-157546Y182667D01*
Y185184D01*
D01*
Y180025D01*
X-152926Y180025D01*
X-155192Y180025D01*
X-155140Y180033D01*
X-155066D01*
X-154978Y180047D01*
X-154874Y180062D01*
X-154763Y180084D01*
X-154638Y180106D01*
X-154505Y180143D01*
X-154372Y180188D01*
X-154232Y180239D01*
X-154092Y180306D01*
X-153952Y180379D01*
X-153819Y180468D01*
X-153686Y180571D01*
X-153561Y180689D01*
X-153553Y180697D01*
X-153531Y180719D01*
X-153501Y180756D01*
X-153465Y180815D01*
X-153413Y180881D01*
X-153361Y180963D01*
X-153302Y181066D01*
X-153243Y181176D01*
X-153184Y181309D01*
X-153125Y181449D01*
X-153074Y181605D01*
X-153022Y181774D01*
X-152985Y181959D01*
X-152955Y182158D01*
X-152933Y182372D01*
X-152926Y182601D01*
Y182660D01*
X-152933Y182734D01*
X-152941Y182822D01*
X-152948Y182940D01*
X-152963Y183073D01*
X-152992Y183213D01*
X-153022Y183368D01*
X-153059Y183531D01*
X-153110Y183700D01*
X-153177Y183870D01*
X-153243Y184040D01*
X-153332Y184202D01*
X-153435Y184357D01*
X-153553Y184497D01*
X-153686Y184630D01*
X-153693Y184638D01*
X-153716Y184652D01*
X-153753Y184682D01*
X-153797Y184719D01*
X-153863Y184756D01*
X-153937Y184807D01*
X-154018Y184859D01*
X-154121Y184911D01*
X-154225Y184962D01*
X-154343Y185007D01*
X-154468Y185058D01*
X-154609Y185095D01*
X-154756Y185132D01*
X-154904Y185162D01*
X-155066Y185176D01*
X-155236Y185184D01*
D02*
G37*
G36*
X-93546Y185184D02*
X-93606D01*
X-93650Y185176D01*
X-93709D01*
X-93775Y185169D01*
X-93842Y185154D01*
X-93923Y185140D01*
X-94100Y185103D01*
X-94284Y185044D01*
X-94476Y184962D01*
X-94572Y184911D01*
X-94661Y184852D01*
X-94668D01*
X-94683Y184837D01*
X-94705Y184815D01*
X-94742Y184793D01*
X-94831Y184719D01*
X-94934Y184616D01*
X-95052Y184483D01*
X-95177Y184328D01*
X-95288Y184143D01*
X-95391Y183937D01*
Y183929D01*
X-95399Y183907D01*
X-95414Y183878D01*
X-95428Y183833D01*
X-95451Y183782D01*
X-95473Y183715D01*
X-95495Y183634D01*
X-95517Y183553D01*
X-95539Y183457D01*
X-95561Y183361D01*
X-95605Y183140D01*
X-95635Y182896D01*
X-95642Y182638D01*
Y185184D01*
D01*
Y178247D01*
D01*
Y182564D01*
X-95635Y182512D01*
Y182446D01*
X-95628Y182365D01*
X-95620Y182276D01*
X-95605Y182180D01*
X-95576Y181974D01*
X-95524Y181745D01*
X-95458Y181509D01*
X-95369Y181272D01*
Y181265D01*
X-95354Y181243D01*
X-95340Y181213D01*
X-95318Y181176D01*
X-95288Y181125D01*
X-95259Y181066D01*
X-95170Y180933D01*
X-95059Y180778D01*
X-94919Y180623D01*
X-94764Y180475D01*
X-94580Y180343D01*
X-94572D01*
X-94557Y180328D01*
X-94528Y180313D01*
X-94491Y180291D01*
X-94439Y180269D01*
X-94388Y180239D01*
X-94321Y180217D01*
X-94248Y180188D01*
X-94085Y180129D01*
X-93901Y180077D01*
X-93701Y180040D01*
X-93598Y180033D01*
X-93487Y180025D01*
X-93414D01*
X-93340Y180033D01*
X-93237Y180047D01*
X-93118Y180069D01*
X-92993Y180099D01*
X-92860Y180136D01*
X-92735Y180195D01*
X-92720Y180202D01*
X-92683Y180225D01*
X-92616Y180269D01*
X-92543Y180320D01*
X-92454Y180379D01*
X-92366Y180461D01*
X-92277Y180549D01*
X-92196Y180645D01*
Y178247D01*
X-95642D01*
X-91362D01*
Y185073D01*
X-92122D01*
Y184431D01*
X-92137Y184438D01*
X-92166Y184483D01*
X-92225Y184556D01*
X-92299Y184638D01*
X-92388Y184726D01*
X-92491Y184822D01*
X-92602Y184911D01*
X-92727Y184992D01*
X-92735D01*
X-92742Y184999D01*
X-92786Y185021D01*
X-92860Y185051D01*
X-92956Y185088D01*
X-93074Y185125D01*
X-93214Y185154D01*
X-93377Y185176D01*
X-93546Y185184D01*
D02*
G37*
G36*
X-124742Y185184D02*
X-124801D01*
X-124845Y185176D01*
X-124904D01*
X-124970Y185169D01*
X-125037Y185154D01*
X-125118Y185140D01*
X-125295Y185103D01*
X-125480Y185044D01*
X-125672Y184962D01*
X-125768Y184911D01*
X-125856Y184852D01*
X-125863D01*
X-125878Y184837D01*
X-125900Y184815D01*
X-125937Y184793D01*
X-126026Y184719D01*
X-126129Y184616D01*
X-126247Y184483D01*
X-126373Y184328D01*
X-126483Y184143D01*
X-126587Y183937D01*
Y183929D01*
X-126594Y183907D01*
X-126609Y183878D01*
X-126624Y183833D01*
X-126646Y183782D01*
X-126668Y183715D01*
X-126690Y183634D01*
X-126712Y183553D01*
X-126734Y183457D01*
X-126756Y183361D01*
X-126801Y183140D01*
X-126830Y182896D01*
X-126838Y182638D01*
Y185184D01*
D01*
Y178247D01*
D01*
Y182564D01*
X-126830Y182512D01*
Y182446D01*
X-126823Y182365D01*
X-126815Y182276D01*
X-126801Y182180D01*
X-126771Y181974D01*
X-126719Y181745D01*
X-126653Y181509D01*
X-126565Y181272D01*
Y181265D01*
X-126550Y181243D01*
X-126535Y181213D01*
X-126513Y181176D01*
X-126483Y181125D01*
X-126454Y181066D01*
X-126365Y180933D01*
X-126255Y180778D01*
X-126114Y180623D01*
X-125959Y180475D01*
X-125775Y180342D01*
X-125768D01*
X-125753Y180328D01*
X-125723Y180313D01*
X-125686Y180291D01*
X-125635Y180269D01*
X-125583Y180239D01*
X-125517Y180217D01*
X-125443Y180188D01*
X-125280Y180129D01*
X-125096Y180077D01*
X-124897Y180040D01*
X-124793Y180033D01*
X-124683Y180025D01*
X-124609D01*
X-124535Y180033D01*
X-124432Y180047D01*
X-124314Y180069D01*
X-124188Y180099D01*
X-124055Y180136D01*
X-123930Y180195D01*
X-123915Y180202D01*
X-123878Y180225D01*
X-123812Y180269D01*
X-123738Y180320D01*
X-123649Y180379D01*
X-123561Y180461D01*
X-123472Y180549D01*
X-123391Y180645D01*
Y178247D01*
X-126838D01*
X-122557D01*
Y185073D01*
X-123317D01*
Y184431D01*
X-123332Y184438D01*
X-123362Y184483D01*
X-123421Y184556D01*
X-123495Y184638D01*
X-123583Y184726D01*
X-123686Y184822D01*
X-123797Y184911D01*
X-123923Y184992D01*
X-123930D01*
X-123937Y184999D01*
X-123981Y185021D01*
X-124055Y185051D01*
X-124151Y185088D01*
X-124269Y185125D01*
X-124410Y185154D01*
X-124572Y185176D01*
X-124742Y185184D01*
D02*
G37*
G36*
X-142697D02*
X-142793D01*
X-142845Y185176D01*
X-142904D01*
X-143044Y185162D01*
X-143199Y185140D01*
X-143376Y185110D01*
X-143546Y185073D01*
X-143716Y185014D01*
X-143723D01*
X-143738Y185007D01*
X-143760Y184999D01*
X-143790Y184985D01*
X-143863Y184948D01*
X-143967Y184896D01*
X-144070Y184830D01*
X-144173Y184748D01*
X-144276Y184660D01*
X-144365Y184556D01*
X-144372Y184542D01*
X-144402Y184505D01*
X-144439Y184438D01*
X-144483Y184357D01*
X-144535Y184247D01*
X-144579Y184114D01*
X-144623Y183966D01*
X-144660Y183796D01*
X-143841Y183686D01*
Y183693D01*
Y183700D01*
X-143826Y183745D01*
X-143812Y183818D01*
X-143782Y183900D01*
X-143738Y183996D01*
X-143679Y184092D01*
X-143605Y184187D01*
X-143516Y184276D01*
X-143502Y184283D01*
X-143465Y184313D01*
X-143406Y184350D01*
X-143324Y184387D01*
X-143214Y184431D01*
X-143081Y184461D01*
X-142933Y184490D01*
X-142756Y184497D01*
X-142660D01*
X-142616Y184490D01*
X-142564D01*
X-142439Y184475D01*
X-142306Y184453D01*
X-142166Y184416D01*
X-142040Y184372D01*
X-141989Y184343D01*
X-141937Y184306D01*
X-141930Y184298D01*
X-141900Y184269D01*
X-141863Y184232D01*
X-141819Y184180D01*
X-141767Y184114D01*
X-141730Y184032D01*
X-141701Y183951D01*
X-141693Y183855D01*
Y183848D01*
Y183826D01*
X-141701Y183796D01*
X-141708Y183759D01*
X-141738Y183663D01*
X-141760Y183612D01*
X-141789Y183560D01*
X-141797Y183553D01*
X-141812Y183538D01*
X-141834Y183516D01*
X-141871Y183486D01*
X-141915Y183449D01*
X-141974Y183413D01*
X-142040Y183376D01*
X-142114Y183339D01*
X-142122D01*
X-142144Y183331D01*
X-142188Y183317D01*
X-142254Y183294D01*
X-142299Y183280D01*
X-142350Y183265D01*
X-142409Y183250D01*
X-142476Y183228D01*
X-142557Y183206D01*
X-142646Y183184D01*
X-142742Y183154D01*
X-142852Y183125D01*
X-142860D01*
X-142889Y183117D01*
X-142933Y183103D01*
X-143000Y183088D01*
X-143066Y183066D01*
X-143147Y183044D01*
X-143243Y183014D01*
X-143339Y182985D01*
X-143546Y182925D01*
X-143745Y182859D01*
X-143841Y182830D01*
X-143930Y182793D01*
X-144011Y182763D01*
X-144085Y182734D01*
X-144092D01*
X-144099Y182726D01*
X-144144Y182704D01*
X-144210Y182675D01*
X-144284Y182623D01*
X-144372Y182564D01*
X-144468Y182490D01*
X-144557Y182402D01*
X-144638Y182298D01*
X-144646Y182283D01*
X-144668Y182247D01*
X-144705Y182187D01*
X-144741Y182099D01*
X-144778Y181996D01*
X-144815Y181878D01*
X-144837Y181737D01*
X-144845Y181582D01*
Y185184D01*
D01*
Y180025D01*
X-140742D01*
X-142756D01*
X-142690Y180033D01*
X-142616Y180040D01*
X-142520Y180047D01*
X-142417Y180055D01*
X-142306Y180077D01*
X-142070Y180121D01*
X-141819Y180188D01*
X-141701Y180232D01*
X-141583Y180291D01*
X-141480Y180350D01*
X-141376Y180416D01*
X-141369Y180424D01*
X-141354Y180438D01*
X-141332Y180461D01*
X-141295Y180490D01*
X-141258Y180534D01*
X-141214Y180586D01*
X-141162Y180645D01*
X-141111Y180711D01*
X-141051Y180793D01*
X-141000Y180881D01*
X-140948Y180977D01*
X-140896Y181088D01*
X-140852Y181199D01*
X-140808Y181324D01*
X-140771Y181464D01*
X-140742Y181605D01*
X-141568Y181737D01*
Y181730D01*
X-141576Y181715D01*
Y181693D01*
X-141583Y181656D01*
X-141590Y181612D01*
X-141605Y181568D01*
X-141642Y181457D01*
X-141693Y181332D01*
X-141760Y181199D01*
X-141841Y181080D01*
X-141952Y180970D01*
X-141959D01*
X-141967Y180963D01*
X-142011Y180933D01*
X-142085Y180889D01*
X-142188Y180844D01*
X-142314Y180793D01*
X-142468Y180756D01*
X-142646Y180726D01*
X-142845Y180711D01*
X-142904D01*
X-142941Y180719D01*
X-142992D01*
X-143044Y180726D01*
X-143169Y180741D01*
X-143310Y180771D01*
X-143457Y180807D01*
X-143590Y180867D01*
X-143708Y180940D01*
X-143723Y180948D01*
X-143753Y180985D01*
X-143797Y181029D01*
X-143849Y181095D01*
X-143900Y181176D01*
X-143944Y181272D01*
X-143974Y181376D01*
X-143989Y181494D01*
Y181509D01*
Y181538D01*
X-143974Y181597D01*
X-143959Y181656D01*
X-143930Y181730D01*
X-143885Y181804D01*
X-143819Y181878D01*
X-143738Y181944D01*
X-143730Y181951D01*
X-143701Y181966D01*
X-143649Y181988D01*
X-143612Y182003D01*
X-143568Y182018D01*
X-143509Y182040D01*
X-143450Y182062D01*
X-143384Y182084D01*
X-143302Y182106D01*
X-143214Y182136D01*
X-143111Y182165D01*
X-143000Y182195D01*
X-142882Y182224D01*
X-142874D01*
X-142845Y182232D01*
X-142793Y182247D01*
X-142734Y182261D01*
X-142660Y182283D01*
X-142572Y182306D01*
X-142476Y182335D01*
X-142373Y182365D01*
X-142166Y182431D01*
X-141952Y182498D01*
X-141849Y182527D01*
X-141760Y182564D01*
X-141671Y182601D01*
X-141598Y182630D01*
X-141590D01*
X-141583Y182638D01*
X-141539Y182660D01*
X-141480Y182697D01*
X-141398Y182756D01*
X-141310Y182822D01*
X-141221Y182896D01*
X-141133Y182992D01*
X-141059Y183095D01*
X-141051Y183110D01*
X-141029Y183147D01*
X-141000Y183213D01*
X-140970Y183294D01*
X-140941Y183390D01*
X-140911Y183501D01*
X-140889Y183627D01*
X-140882Y183759D01*
Y183767D01*
Y183774D01*
Y183818D01*
X-140889Y183878D01*
X-140904Y183959D01*
X-140919Y184055D01*
X-140941Y184158D01*
X-140978Y184269D01*
X-141029Y184372D01*
X-141037Y184387D01*
X-141059Y184416D01*
X-141088Y184468D01*
X-141140Y184534D01*
X-141192Y184608D01*
X-141265Y184689D01*
X-141347Y184763D01*
X-141443Y184837D01*
X-141450Y184844D01*
X-141480Y184859D01*
X-141524Y184889D01*
X-141583Y184918D01*
X-141657Y184955D01*
X-141745Y184999D01*
X-141856Y185044D01*
X-141974Y185081D01*
X-141981D01*
X-141989Y185088D01*
X-142033Y185095D01*
X-142099Y185110D01*
X-142195Y185132D01*
X-142299Y185154D01*
X-142424Y185169D01*
X-142557Y185176D01*
X-142697Y185184D01*
D02*
G37*
G36*
X-85598Y186793D02*
X-88011D01*
D01*
X-87052D01*
Y185073D01*
X-87901D01*
Y184424D01*
X-87052D01*
Y181531D01*
Y181523D01*
Y181516D01*
Y181472D01*
Y181413D01*
X-87059Y181339D01*
Y181265D01*
X-87074Y181191D01*
X-87081Y181125D01*
X-87096Y181073D01*
Y181066D01*
X-87104Y181058D01*
X-87133Y181014D01*
X-87177Y180963D01*
X-87236Y180911D01*
X-87244D01*
X-87259Y180903D01*
X-87281Y180896D01*
X-87310Y180881D01*
X-87355Y180874D01*
X-87399Y180859D01*
X-87458Y180852D01*
X-87583D01*
X-87628Y180859D01*
X-87679D01*
X-87746Y180867D01*
X-87819Y180874D01*
X-87901Y180881D01*
X-88011Y180143D01*
X-87997D01*
X-87952Y180129D01*
X-87886Y180121D01*
X-87797Y180106D01*
X-87701Y180092D01*
X-87598Y180084D01*
X-87377Y180069D01*
X-87303D01*
X-87222Y180077D01*
X-87118Y180084D01*
X-87000Y180106D01*
X-86882Y180129D01*
X-86772Y180165D01*
X-86668Y180210D01*
X-86661Y180217D01*
X-86631Y180239D01*
X-86587Y180269D01*
X-86528Y180313D01*
X-86469Y180365D01*
X-86410Y180431D01*
X-86358Y180505D01*
X-86314Y180586D01*
X-86307Y180601D01*
X-86299Y180638D01*
X-86292Y180667D01*
X-86285Y180704D01*
X-86277Y180748D01*
X-86270Y180800D01*
X-86255Y180859D01*
X-86248Y180933D01*
X-86240Y181014D01*
X-86233Y181103D01*
X-86225Y181206D01*
Y181317D01*
X-86218Y181442D01*
Y181575D01*
Y184424D01*
X-85598D01*
Y185081D01*
Y185073D01*
X-86218D01*
Y186291D01*
X-87052Y186793D01*
X-85598D01*
D02*
G37*
G36*
X-89694D02*
D01*
Y185073D01*
X-90543D01*
Y184424D01*
X-89694D01*
Y181531D01*
Y181523D01*
Y181516D01*
Y181472D01*
Y181413D01*
X-89701Y181339D01*
Y181265D01*
X-89716Y181191D01*
X-89724Y181125D01*
X-89738Y181073D01*
Y181066D01*
X-89746Y181058D01*
X-89775Y181014D01*
X-89820Y180963D01*
X-89879Y180911D01*
X-89886D01*
X-89901Y180903D01*
X-89923Y180896D01*
X-89952Y180881D01*
X-89997Y180874D01*
X-90041Y180859D01*
X-90100Y180852D01*
X-90225D01*
X-90270Y180859D01*
X-90321D01*
X-90388Y180867D01*
X-90462Y180874D01*
X-90543Y180881D01*
X-90654Y180143D01*
X-90639D01*
X-90594Y180129D01*
X-90528Y180121D01*
X-90439Y180106D01*
X-90343Y180092D01*
X-90240Y180084D01*
X-90019Y180069D01*
X-90654D01*
X-88240D01*
D01*
X-89945D01*
X-89864Y180077D01*
X-89761Y180084D01*
X-89642Y180106D01*
X-89524Y180129D01*
X-89414Y180165D01*
X-89310Y180210D01*
X-89303Y180217D01*
X-89273Y180239D01*
X-89229Y180269D01*
X-89170Y180313D01*
X-89111Y180365D01*
X-89052Y180431D01*
X-89000Y180505D01*
X-88956Y180586D01*
X-88949Y180601D01*
X-88941Y180638D01*
X-88934Y180667D01*
X-88927Y180704D01*
X-88919Y180748D01*
X-88912Y180800D01*
X-88897Y180859D01*
X-88890Y180933D01*
X-88882Y181014D01*
X-88875Y181103D01*
X-88867Y181206D01*
Y181317D01*
X-88860Y181442D01*
Y181575D01*
Y184424D01*
X-88240D01*
Y185073D01*
X-88860D01*
Y186291D01*
X-89694Y186793D01*
D02*
G37*
G36*
X-133118Y185073D02*
X-133952D01*
Y182335D01*
Y182328D01*
Y182306D01*
Y182276D01*
Y182232D01*
Y182173D01*
Y182114D01*
X-133959Y181981D01*
Y181833D01*
X-133974Y181686D01*
X-133981Y181553D01*
X-133989Y181494D01*
X-133996Y181449D01*
X-134004Y181435D01*
X-134011Y181398D01*
X-134033Y181332D01*
X-134070Y181258D01*
X-134114Y181176D01*
X-134173Y181095D01*
X-134247Y181007D01*
X-134336Y180933D01*
X-134350Y180926D01*
X-134380Y180903D01*
X-134439Y180874D01*
X-134513Y180844D01*
X-134601Y180807D01*
X-134712Y180778D01*
X-134837Y180756D01*
X-134970Y180748D01*
X-135037D01*
X-135103Y180756D01*
X-135199Y180771D01*
X-135310Y180793D01*
X-135428Y180830D01*
X-135546Y180874D01*
X-135671Y180940D01*
X-135679D01*
X-135686Y180948D01*
X-135723Y180977D01*
X-135782Y181021D01*
X-135856Y181080D01*
X-135930Y181154D01*
X-136011Y181243D01*
X-136085Y181346D01*
X-136144Y181464D01*
Y181472D01*
X-136151Y181479D01*
X-136159Y181501D01*
X-136166Y181523D01*
X-136173Y181560D01*
X-136188Y181605D01*
X-136203Y181649D01*
X-136218Y181708D01*
X-136240Y181848D01*
X-136262Y182010D01*
X-136277Y182202D01*
X-136284Y182424D01*
Y185073D01*
X-137118D01*
Y180025D01*
D01*
Y180136D01*
X-136373D01*
Y180859D01*
X-136365Y180852D01*
X-136343Y180822D01*
X-136313Y180785D01*
X-136269Y180726D01*
X-136210Y180667D01*
X-136136Y180594D01*
X-136055Y180520D01*
X-135959Y180446D01*
X-135849Y180365D01*
X-135731Y180291D01*
X-135605Y180217D01*
X-135465Y180158D01*
X-135310Y180099D01*
X-135155Y180062D01*
X-134985Y180033D01*
X-134801Y180025D01*
X-133118D01*
X-134727D01*
X-134646Y180033D01*
X-134535Y180047D01*
X-134409Y180062D01*
X-134269Y180092D01*
X-134129Y180136D01*
X-133981Y180188D01*
X-133974D01*
X-133967Y180195D01*
X-133922Y180217D01*
X-133856Y180254D01*
X-133767Y180306D01*
X-133679Y180365D01*
X-133583Y180438D01*
X-133494Y180520D01*
X-133421Y180608D01*
X-133413Y180623D01*
X-133391Y180652D01*
X-133361Y180711D01*
X-133325Y180785D01*
X-133280Y180874D01*
X-133236Y180977D01*
X-133199Y181095D01*
X-133162Y181228D01*
Y181243D01*
X-133155Y181272D01*
X-133148Y181339D01*
X-133140Y181420D01*
X-133133Y181531D01*
X-133125Y181664D01*
X-133118Y181826D01*
Y185073D01*
D02*
G37*
G36*
X-150468Y185184D02*
X-150549D01*
X-150601Y185176D01*
X-150668Y185169D01*
X-150749Y185162D01*
X-150837Y185147D01*
X-150933Y185132D01*
X-151140Y185081D01*
X-151361Y185007D01*
X-151472Y184962D01*
X-151583Y184911D01*
X-151686Y184844D01*
X-151782Y184771D01*
X-151789Y184763D01*
X-151804Y184748D01*
X-151834Y184726D01*
X-151863Y184697D01*
X-151908Y184652D01*
X-151952Y184601D01*
X-152003Y184542D01*
X-152055Y184475D01*
X-152114Y184394D01*
X-152166Y184313D01*
X-152225Y184217D01*
X-152277Y184114D01*
X-152321Y184003D01*
X-152365Y183885D01*
X-152409Y183752D01*
X-152439Y183619D01*
X-151627Y183494D01*
Y183501D01*
X-151620Y183516D01*
X-151612Y183538D01*
X-151605Y183575D01*
X-151575Y183663D01*
X-151531Y183774D01*
X-151472Y183892D01*
X-151406Y184018D01*
X-151317Y184136D01*
X-151214Y184239D01*
X-151199Y184254D01*
X-151162Y184283D01*
X-151096Y184320D01*
X-151014Y184372D01*
X-150911Y184416D01*
X-150793Y184461D01*
X-150653Y184490D01*
X-150505Y184497D01*
X-150446D01*
X-150402Y184490D01*
X-150343Y184483D01*
X-150284Y184475D01*
X-150136Y184438D01*
X-149974Y184387D01*
X-149893Y184350D01*
X-149804Y184306D01*
X-149723Y184254D01*
X-149634Y184187D01*
X-149553Y184121D01*
X-149479Y184040D01*
X-149472Y184032D01*
X-149465Y184018D01*
X-149443Y183996D01*
X-149420Y183951D01*
X-149391Y183907D01*
X-149354Y183848D01*
X-149317Y183774D01*
X-149288Y183693D01*
X-149251Y183597D01*
X-149214Y183494D01*
X-149177Y183376D01*
X-149147Y183243D01*
X-149125Y183103D01*
X-149103Y182955D01*
X-149096Y182785D01*
X-149088Y182608D01*
Y182601D01*
Y182564D01*
Y182512D01*
X-149096Y182446D01*
X-149103Y182365D01*
X-149110Y182269D01*
X-149118Y182165D01*
X-149133Y182055D01*
X-149177Y181818D01*
X-149251Y181575D01*
X-149288Y181464D01*
X-149339Y181354D01*
X-149398Y181250D01*
X-149465Y181162D01*
X-149472Y181154D01*
X-149479Y181140D01*
X-149502Y181117D01*
X-149531Y181095D01*
X-149575Y181058D01*
X-149620Y181021D01*
X-149671Y180977D01*
X-149730Y180940D01*
X-149878Y180852D01*
X-150048Y180785D01*
X-150144Y180756D01*
X-150240Y180734D01*
X-150350Y180719D01*
X-150461Y180711D01*
X-150505D01*
X-150542Y180719D01*
X-150586D01*
X-150631Y180726D01*
X-150749Y180748D01*
X-150874Y180785D01*
X-151014Y180837D01*
X-151147Y180911D01*
X-151280Y181007D01*
X-151287Y181014D01*
X-151295Y181021D01*
X-151332Y181066D01*
X-151391Y181140D01*
X-151420Y181184D01*
X-151457Y181236D01*
X-151494Y181302D01*
X-151531Y181368D01*
X-151561Y181442D01*
X-151597Y181531D01*
X-151627Y181619D01*
X-151656Y181723D01*
X-151679Y181826D01*
X-151701Y181944D01*
X-152520Y181833D01*
Y185184D01*
D01*
Y180025D01*
X-148232D01*
X-150424D01*
X-150372Y180033D01*
X-150299D01*
X-150217Y180047D01*
X-150114Y180062D01*
X-150003Y180077D01*
X-149885Y180106D01*
X-149760Y180143D01*
X-149627Y180188D01*
X-149494Y180239D01*
X-149354Y180306D01*
X-149221Y180379D01*
X-149088Y180468D01*
X-148963Y180564D01*
X-148845Y180682D01*
X-148837Y180689D01*
X-148815Y180711D01*
X-148786Y180748D01*
X-148749Y180807D01*
X-148705Y180874D01*
X-148653Y180955D01*
X-148594Y181058D01*
X-148542Y181169D01*
X-148483Y181295D01*
X-148424Y181435D01*
X-148372Y181590D01*
X-148328Y181760D01*
X-148291Y181944D01*
X-148262Y182143D01*
X-148240Y182357D01*
X-148232Y182579D01*
Y182660D01*
X-148240Y182712D01*
Y182785D01*
X-148247Y182867D01*
X-148254Y182955D01*
X-148262Y183058D01*
X-148299Y183272D01*
X-148343Y183509D01*
X-148402Y183752D01*
X-148491Y183981D01*
Y183988D01*
X-148505Y184010D01*
X-148520Y184040D01*
X-148542Y184077D01*
X-148572Y184128D01*
X-148601Y184187D01*
X-148690Y184320D01*
X-148801Y184461D01*
X-148941Y184616D01*
X-149103Y184756D01*
X-149295Y184881D01*
X-149302D01*
X-149317Y184896D01*
X-149347Y184911D01*
X-149391Y184925D01*
X-149443Y184955D01*
X-149502Y184977D01*
X-149568Y185007D01*
X-149642Y185036D01*
X-149730Y185058D01*
X-149819Y185088D01*
X-150018Y185140D01*
X-150240Y185169D01*
X-150468Y185184D01*
D02*
G37*
G36*
X-101642Y185073D02*
X-102594D01*
Y180136D01*
X-101642D01*
Y181088D01*
X-102594D01*
Y184121D01*
X-101642D01*
Y185073D01*
D02*
G37*
G36*
X-127849Y185184D02*
X-131856D01*
Y180136D01*
X-131022D01*
Y183140D01*
Y183147D01*
Y183162D01*
Y183191D01*
Y183221D01*
Y183265D01*
X-131015Y183317D01*
X-131007Y183427D01*
X-131000Y183553D01*
X-130978Y183678D01*
X-130956Y183796D01*
X-130919Y183900D01*
X-130911Y183914D01*
X-130897Y183944D01*
X-130875Y183988D01*
X-130838Y184047D01*
X-130793Y184114D01*
X-130734Y184180D01*
X-130660Y184247D01*
X-130572Y184306D01*
X-130564Y184313D01*
X-130528Y184328D01*
X-130476Y184357D01*
X-130410Y184387D01*
X-130321Y184409D01*
X-130225Y184438D01*
X-130114Y184453D01*
X-129989Y184461D01*
X-129937D01*
X-129900Y184453D01*
X-129856D01*
X-129797Y184446D01*
X-129672Y184416D01*
X-129531Y184379D01*
X-129376Y184320D01*
X-129221Y184232D01*
X-129140Y184180D01*
X-129066Y184121D01*
X-129059Y184114D01*
X-129052Y184106D01*
X-129030Y184084D01*
X-129007Y184055D01*
X-128978Y184010D01*
X-128948Y183966D01*
X-128911Y183907D01*
X-128875Y183833D01*
X-128838Y183752D01*
X-128801Y183656D01*
X-128771Y183553D01*
X-128742Y183435D01*
X-128719Y183302D01*
X-128697Y183162D01*
X-128690Y182999D01*
X-128683Y182830D01*
Y180136D01*
X-129852D01*
X-127849D01*
Y185073D01*
D01*
X-128601D01*
Y184365D01*
X-128609Y184372D01*
X-128624Y184402D01*
X-128661Y184438D01*
X-128705Y184490D01*
X-128756Y184556D01*
X-128823Y184623D01*
X-128904Y184697D01*
X-129000Y184778D01*
X-129103Y184852D01*
X-129221Y184925D01*
X-129347Y184992D01*
X-129487Y185058D01*
X-129642Y185110D01*
X-129804Y185147D01*
X-129982Y185176D01*
X-130166Y185184D01*
X-127849D01*
D02*
G37*
G36*
X-146070Y181088D02*
X-147022D01*
Y180136D01*
X-146070D01*
Y181088D01*
D02*
G37*
G36*
X-137952Y186793D02*
X-140365D01*
Y180069D01*
D01*
Y180143D01*
D01*
D01*
D01*
X-140350D01*
X-140306Y180129D01*
X-140240Y180121D01*
X-140151Y180106D01*
X-140055Y180092D01*
X-139952Y180084D01*
X-139731Y180069D01*
X-139657D01*
X-139576Y180077D01*
X-139472Y180084D01*
X-139354Y180106D01*
X-139236Y180129D01*
X-139125Y180165D01*
X-139022Y180210D01*
X-139015Y180217D01*
X-138985Y180239D01*
X-138941Y180269D01*
X-138882Y180313D01*
X-138823Y180365D01*
X-138764Y180431D01*
X-138712Y180505D01*
X-138668Y180586D01*
X-138660Y180601D01*
X-138653Y180638D01*
X-138646Y180667D01*
X-138638Y180704D01*
X-138631Y180748D01*
X-138623Y180800D01*
X-138609Y180859D01*
X-138601Y180933D01*
X-138594Y181014D01*
X-138587Y181103D01*
X-138579Y181206D01*
Y181317D01*
X-138572Y181442D01*
Y181575D01*
Y184424D01*
X-137952D01*
Y185088D01*
Y185073D01*
X-138572D01*
Y186291D01*
X-139406Y186793D01*
X-137952D01*
D02*
G37*
G36*
X-98277Y185184D02*
X-100425D01*
Y180025D01*
D01*
Y181509D01*
X-100410Y181427D01*
X-100395Y181324D01*
X-100365Y181206D01*
X-100321Y181073D01*
X-100255Y180933D01*
X-100174Y180793D01*
Y180785D01*
X-100159Y180778D01*
X-100129Y180734D01*
X-100070Y180667D01*
X-99997Y180586D01*
X-99893Y180490D01*
X-99775Y180394D01*
X-99635Y180306D01*
X-99473Y180225D01*
X-99465D01*
X-99450Y180217D01*
X-99428Y180210D01*
X-99391Y180195D01*
X-99347Y180180D01*
X-99295Y180158D01*
X-99236Y180143D01*
X-99170Y180129D01*
X-99015Y180092D01*
X-98838Y180055D01*
X-98646Y180033D01*
X-98432Y180025D01*
X-100425D01*
X-96321Y180025D01*
X-98336Y180025D01*
X-98270Y180033D01*
X-98196Y180040D01*
X-98100Y180047D01*
X-97997Y180055D01*
X-97886Y180077D01*
X-97650Y180121D01*
X-97399Y180188D01*
X-97281Y180232D01*
X-97163Y180291D01*
X-97059Y180350D01*
X-96956Y180416D01*
X-96949Y180424D01*
X-96934Y180438D01*
X-96912Y180461D01*
X-96875Y180490D01*
X-96838Y180534D01*
X-96794Y180586D01*
X-96742Y180645D01*
X-96690Y180712D01*
X-96631Y180793D01*
X-96580Y180881D01*
X-96528Y180977D01*
X-96476Y181088D01*
X-96432Y181199D01*
X-96388Y181324D01*
X-96351Y181464D01*
X-96321Y181605D01*
X-97148Y181737D01*
Y181730D01*
X-97155Y181715D01*
Y181693D01*
X-97163Y181656D01*
X-97170Y181612D01*
X-97185Y181568D01*
X-97222Y181457D01*
X-97273Y181332D01*
X-97340Y181199D01*
X-97421Y181080D01*
X-97532Y180970D01*
X-97539D01*
X-97546Y180963D01*
X-97591Y180933D01*
X-97664Y180889D01*
X-97768Y180844D01*
X-97893Y180793D01*
X-98048Y180756D01*
X-98225Y180726D01*
X-98425Y180711D01*
X-98484D01*
X-98520Y180719D01*
X-98572D01*
X-98624Y180726D01*
X-98749Y180741D01*
X-98889Y180771D01*
X-99037Y180807D01*
X-99170Y180867D01*
X-99288Y180940D01*
X-99303Y180948D01*
X-99332Y180985D01*
X-99377Y181029D01*
X-99428Y181095D01*
X-99480Y181176D01*
X-99524Y181272D01*
X-99554Y181376D01*
X-99568Y181494D01*
Y181509D01*
Y181538D01*
X-99554Y181597D01*
X-99539Y181656D01*
X-99510Y181730D01*
X-99465Y181804D01*
X-99399Y181878D01*
X-99318Y181944D01*
X-99310Y181951D01*
X-99281Y181966D01*
X-99229Y181988D01*
X-99192Y182003D01*
X-99148Y182018D01*
X-99089Y182040D01*
X-99030Y182062D01*
X-98963Y182084D01*
X-98882Y182106D01*
X-98794Y182136D01*
X-98690Y182165D01*
X-98580Y182195D01*
X-98462Y182224D01*
X-98454D01*
X-98425Y182232D01*
X-98373Y182247D01*
X-98314Y182261D01*
X-98240Y182283D01*
X-98151Y182306D01*
X-98056Y182335D01*
X-97952Y182365D01*
X-97746Y182431D01*
X-97532Y182498D01*
X-97428Y182527D01*
X-97340Y182564D01*
X-97251Y182601D01*
X-97177Y182630D01*
X-97170D01*
X-97163Y182638D01*
X-97118Y182660D01*
X-97059Y182697D01*
X-96978Y182756D01*
X-96890Y182822D01*
X-96801Y182896D01*
X-96712Y182992D01*
X-96639Y183095D01*
X-96631Y183110D01*
X-96609Y183147D01*
X-96580Y183213D01*
X-96550Y183295D01*
X-96521Y183390D01*
X-96491Y183501D01*
X-96469Y183627D01*
X-96461Y183759D01*
Y183767D01*
Y183774D01*
Y183818D01*
X-96469Y183878D01*
X-96484Y183959D01*
X-96498Y184055D01*
X-96521Y184158D01*
X-96557Y184269D01*
X-96609Y184372D01*
X-96617Y184387D01*
X-96639Y184416D01*
X-96668Y184468D01*
X-96720Y184534D01*
X-96772Y184608D01*
X-96845Y184689D01*
X-96926Y184763D01*
X-97022Y184837D01*
X-97030Y184844D01*
X-97059Y184859D01*
X-97104Y184889D01*
X-97163Y184918D01*
X-97236Y184955D01*
X-97325Y184999D01*
X-97436Y185044D01*
X-97554Y185081D01*
X-97561D01*
X-97569Y185088D01*
X-97613Y185095D01*
X-97679Y185110D01*
X-97775Y185132D01*
X-97878Y185154D01*
X-98004Y185169D01*
X-98137Y185176D01*
X-98277Y185184D01*
D02*
G37*
G36*
X-113598D02*
D01*
Y180025D01*
D01*
Y185184D01*
D01*
D02*
G37*
G36*
X-103428Y187058D02*
X-106078D01*
D01*
X-104100Y180018D01*
X-103428D01*
X-105406Y187058D01*
X-103428D01*
D02*
G37*
G36*
X-108048D02*
X-108720D01*
Y180018D01*
Y187058D01*
X-106742Y180018D01*
X-108720D01*
X-106070D01*
X-106078Y180044D01*
X-108048Y187058D01*
D02*
G37*
%LPD*%
G36*
X-89845Y198824D02*
X-91808D01*
X-89845Y204624D01*
Y198824D01*
D02*
G37*
G36*
X-108760Y203170D02*
X-108709Y203163D01*
X-108642Y203156D01*
X-108502Y203119D01*
X-108332Y203060D01*
X-108251Y203023D01*
X-108162Y202978D01*
X-108074Y202927D01*
X-107985Y202860D01*
X-107904Y202787D01*
X-107823Y202705D01*
X-107816Y202698D01*
X-107808Y202683D01*
X-107786Y202654D01*
X-107757Y202617D01*
X-107727Y202565D01*
X-107690Y202506D01*
X-107653Y202432D01*
X-107616Y202351D01*
X-107580Y202255D01*
X-107543Y202152D01*
X-107506Y202034D01*
X-107476Y201908D01*
X-107447Y201768D01*
X-107424Y201621D01*
X-107417Y201458D01*
X-107410Y201289D01*
Y201281D01*
Y201244D01*
Y201200D01*
X-107417Y201133D01*
X-107424Y201052D01*
X-107432Y200964D01*
X-107447Y200860D01*
X-107461Y200757D01*
X-107513Y200521D01*
X-107587Y200285D01*
X-107631Y200174D01*
X-107690Y200063D01*
X-107749Y199960D01*
X-107823Y199864D01*
X-107830Y199857D01*
X-107845Y199842D01*
X-107867Y199820D01*
X-107897Y199790D01*
X-107941Y199753D01*
X-107985Y199716D01*
X-108044Y199672D01*
X-108111Y199635D01*
X-108258Y199547D01*
X-108436Y199473D01*
X-108531Y199443D01*
X-108642Y199421D01*
X-108746Y199407D01*
X-108864Y199399D01*
X-108923D01*
X-108967Y199407D01*
X-109019Y199414D01*
X-109085Y199421D01*
X-109225Y199458D01*
X-109388Y199517D01*
X-109476Y199554D01*
X-109565Y199598D01*
X-109646Y199650D01*
X-109734Y199716D01*
X-109816Y199790D01*
X-109897Y199872D01*
X-109904Y199879D01*
X-109912Y199894D01*
X-109934Y199923D01*
X-109963Y199960D01*
X-109993Y200012D01*
X-110030Y200071D01*
X-110067Y200145D01*
X-110111Y200233D01*
X-110148Y200322D01*
X-110185Y200432D01*
X-110222Y200551D01*
X-110251Y200683D01*
X-110281Y200823D01*
X-110303Y200978D01*
X-110310Y201141D01*
X-110318Y201318D01*
Y201325D01*
Y201355D01*
Y201407D01*
X-110310Y201466D01*
X-110303Y201547D01*
X-110295Y201635D01*
X-110281Y201731D01*
X-110266Y201835D01*
X-110214Y202056D01*
X-110185Y202174D01*
X-110140Y202292D01*
X-110089Y202403D01*
X-110037Y202514D01*
X-109971Y202609D01*
X-109897Y202705D01*
X-109889Y202713D01*
X-109875Y202728D01*
X-109853Y202750D01*
X-109823Y202779D01*
X-109779Y202816D01*
X-109734Y202853D01*
X-109675Y202897D01*
X-109616Y202942D01*
X-109461Y203030D01*
X-109284Y203104D01*
X-109188Y203134D01*
X-109085Y203156D01*
X-108974Y203170D01*
X-108864Y203178D01*
X-108805D01*
X-108760Y203170D01*
D02*
G37*
G36*
X-107092Y192893D02*
X-107063Y192886D01*
X-107026Y192871D01*
X-106982Y192849D01*
X-106923Y192834D01*
X-106849Y192812D01*
X-106775Y192790D01*
X-106679Y192768D01*
X-106576Y192738D01*
X-106465Y192716D01*
X-106340Y192686D01*
X-106207Y192657D01*
X-106067Y192635D01*
X-105912Y192605D01*
X-105742Y192583D01*
X-105720D01*
X-105690Y192576D01*
X-105661Y192568D01*
X-105565Y192553D01*
X-105454Y192531D01*
X-105336Y192509D01*
X-105218Y192480D01*
X-105107Y192450D01*
X-105011Y192413D01*
X-105004Y192406D01*
X-104974Y192399D01*
X-104937Y192376D01*
X-104893Y192347D01*
X-104834Y192303D01*
X-104782Y192258D01*
X-104731Y192207D01*
X-104679Y192140D01*
X-104672Y192133D01*
X-104664Y192111D01*
X-104642Y192074D01*
X-104628Y192022D01*
X-104605Y191963D01*
X-104583Y191897D01*
X-104576Y191823D01*
X-104569Y191742D01*
Y191727D01*
X-104576Y191690D01*
X-104583Y191624D01*
X-104598Y191550D01*
X-104628Y191461D01*
X-104672Y191365D01*
X-104738Y191277D01*
X-104819Y191188D01*
X-104834Y191181D01*
X-104864Y191151D01*
X-104923Y191122D01*
X-105004Y191077D01*
X-105107Y191041D01*
X-105240Y191004D01*
X-105388Y190974D01*
X-105557Y190967D01*
X-105639D01*
X-105683Y190974D01*
X-105735Y190981D01*
X-105845Y190996D01*
X-105985Y191018D01*
X-106126Y191055D01*
X-106273Y191107D01*
X-106421Y191173D01*
X-106428D01*
X-106436Y191181D01*
X-106480Y191210D01*
X-106546Y191262D01*
X-106635Y191328D01*
X-106723Y191410D01*
X-106812Y191513D01*
X-106901Y191624D01*
X-106974Y191756D01*
X-106982Y191771D01*
X-106997Y191808D01*
X-107019Y191875D01*
X-107041Y191963D01*
X-107063Y192081D01*
X-107085Y192229D01*
X-107100Y192399D01*
X-107107Y192590D01*
X-107115Y192900D01*
X-107107D01*
X-107092Y192893D01*
D02*
G37*
G36*
X-136694D02*
X-136664Y192886D01*
X-136627Y192871D01*
X-136583Y192849D01*
X-136524Y192834D01*
X-136450Y192812D01*
X-136376Y192790D01*
X-136280Y192768D01*
X-136177Y192738D01*
X-136066Y192716D01*
X-135941Y192686D01*
X-135808Y192657D01*
X-135668Y192635D01*
X-135513Y192605D01*
X-135343Y192583D01*
X-135321D01*
X-135291Y192576D01*
X-135262Y192568D01*
X-135166Y192553D01*
X-135055Y192531D01*
X-134937Y192509D01*
X-134819Y192480D01*
X-134708Y192450D01*
X-134612Y192413D01*
X-134605Y192406D01*
X-134575Y192399D01*
X-134539Y192376D01*
X-134494Y192347D01*
X-134435Y192303D01*
X-134384Y192258D01*
X-134332Y192207D01*
X-134280Y192140D01*
X-134273Y192133D01*
X-134266Y192111D01*
X-134243Y192074D01*
X-134229Y192022D01*
X-134206Y191963D01*
X-134184Y191897D01*
X-134177Y191823D01*
X-134170Y191742D01*
Y191727D01*
X-134177Y191690D01*
X-134184Y191624D01*
X-134199Y191550D01*
X-134229Y191461D01*
X-134273Y191365D01*
X-134339Y191277D01*
X-134421Y191188D01*
X-134435Y191181D01*
X-134465Y191151D01*
X-134524Y191122D01*
X-134605Y191077D01*
X-134708Y191041D01*
X-134841Y191004D01*
X-134989Y190974D01*
X-135159Y190967D01*
X-135240D01*
X-135284Y190974D01*
X-135336Y190981D01*
X-135446Y190996D01*
X-135587Y191018D01*
X-135727Y191055D01*
X-135874Y191107D01*
X-136022Y191173D01*
X-136029D01*
X-136037Y191181D01*
X-136081Y191210D01*
X-136147Y191262D01*
X-136236Y191328D01*
X-136325Y191410D01*
X-136413Y191513D01*
X-136502Y191624D01*
X-136575Y191756D01*
X-136583Y191771D01*
X-136598Y191808D01*
X-136620Y191875D01*
X-136642Y191963D01*
X-136664Y192081D01*
X-136686Y192229D01*
X-136701Y192399D01*
X-136708Y192590D01*
X-136716Y192900D01*
X-136708D01*
X-136694Y192893D01*
D02*
G37*
G36*
X-171062Y192893D02*
X-171033Y192886D01*
X-170996Y192871D01*
X-170951Y192849D01*
X-170893Y192834D01*
X-170819Y192812D01*
X-170745Y192790D01*
X-170649Y192768D01*
X-170546Y192738D01*
X-170435Y192716D01*
X-170309Y192686D01*
X-170177Y192657D01*
X-170036Y192635D01*
X-169881Y192605D01*
X-169712Y192583D01*
X-169690D01*
X-169660Y192576D01*
X-169631Y192568D01*
X-169535Y192553D01*
X-169424Y192531D01*
X-169306Y192509D01*
X-169188Y192480D01*
X-169077Y192450D01*
X-168981Y192413D01*
X-168974Y192406D01*
X-168944Y192399D01*
X-168907Y192376D01*
X-168863Y192347D01*
X-168804Y192303D01*
X-168752Y192258D01*
X-168701Y192207D01*
X-168649Y192140D01*
X-168642Y192133D01*
X-168634Y192111D01*
X-168612Y192074D01*
X-168597Y192022D01*
X-168575Y191963D01*
X-168553Y191897D01*
X-168546Y191823D01*
X-168538Y191742D01*
Y191727D01*
X-168546Y191690D01*
X-168553Y191624D01*
X-168568Y191550D01*
X-168597Y191461D01*
X-168642Y191365D01*
X-168708Y191277D01*
X-168789Y191188D01*
X-168804Y191181D01*
X-168833Y191151D01*
X-168893Y191122D01*
X-168974Y191077D01*
X-169077Y191041D01*
X-169210Y191004D01*
X-169358Y190974D01*
X-169527Y190967D01*
X-169608D01*
X-169653Y190974D01*
X-169704Y190981D01*
X-169815Y190996D01*
X-169955Y191018D01*
X-170096Y191055D01*
X-170243Y191107D01*
X-170391Y191173D01*
X-170398D01*
X-170405Y191181D01*
X-170450Y191210D01*
X-170516Y191262D01*
X-170605Y191328D01*
X-170693Y191410D01*
X-170782Y191513D01*
X-170870Y191624D01*
X-170944Y191756D01*
X-170951Y191771D01*
X-170966Y191808D01*
X-170988Y191875D01*
X-171011Y191963D01*
X-171033Y192081D01*
X-171055Y192229D01*
X-171070Y192399D01*
X-171077Y192590D01*
X-171084Y192900D01*
X-171077D01*
X-171062Y192893D01*
D02*
G37*
G36*
X-126133Y190310D02*
X-127742D01*
X-127661Y190317D01*
X-127550Y190332D01*
X-127424Y190347D01*
X-127284Y190376D01*
X-127144Y190421D01*
X-126996Y190472D01*
X-126989D01*
X-126981Y190480D01*
X-126937Y190502D01*
X-126871Y190539D01*
X-126782Y190590D01*
X-126694Y190649D01*
X-126598Y190723D01*
X-126509Y190804D01*
X-126435Y190893D01*
X-126428Y190908D01*
X-126406Y190937D01*
X-126376Y190996D01*
X-126339Y191070D01*
X-126295Y191159D01*
X-126251Y191262D01*
X-126214Y191380D01*
X-126177Y191513D01*
Y191528D01*
X-126170Y191557D01*
X-126162Y191624D01*
X-126155Y191705D01*
X-126148Y191815D01*
X-126140Y191948D01*
X-126133Y192111D01*
Y190310D01*
D02*
G37*
G36*
X-150981D02*
X-152590D01*
X-152509Y190317D01*
X-152398Y190332D01*
X-152273Y190347D01*
X-152132Y190376D01*
X-151992Y190421D01*
X-151845Y190472D01*
X-151837D01*
X-151830Y190480D01*
X-151786Y190502D01*
X-151719Y190539D01*
X-151631Y190590D01*
X-151542Y190649D01*
X-151446Y190723D01*
X-151358Y190804D01*
X-151284Y190893D01*
X-151277Y190908D01*
X-151254Y190937D01*
X-151225Y190996D01*
X-151188Y191070D01*
X-151144Y191159D01*
X-151099Y191262D01*
X-151062Y191380D01*
X-151025Y191513D01*
Y191528D01*
X-151018Y191557D01*
X-151011Y191624D01*
X-151003Y191705D01*
X-150996Y191815D01*
X-150989Y191948D01*
X-150981Y192111D01*
Y190310D01*
D02*
G37*
G36*
X-73565Y190310D02*
X-75757D01*
X-75705Y190317D01*
X-75631D01*
X-75550Y190332D01*
X-75447Y190347D01*
X-75336Y190362D01*
X-75218Y190391D01*
X-75093Y190428D01*
X-74960Y190472D01*
X-74827Y190524D01*
X-74687Y190590D01*
X-74554Y190664D01*
X-74421Y190753D01*
X-74296Y190849D01*
X-74178Y190967D01*
X-74170Y190974D01*
X-74148Y190996D01*
X-74119Y191033D01*
X-74082Y191092D01*
X-74037Y191159D01*
X-73986Y191240D01*
X-73927Y191343D01*
X-73875Y191454D01*
X-73816Y191579D01*
X-73757Y191720D01*
X-73705Y191875D01*
X-73661Y192044D01*
X-73624Y192229D01*
X-73595Y192428D01*
X-73572Y192642D01*
X-73565Y192864D01*
Y190310D01*
D02*
G37*
G36*
X-145151Y194229D02*
X-147188D01*
X-147240Y194236D01*
X-147299D01*
X-147439Y194244D01*
X-147594Y194258D01*
X-147756Y194280D01*
X-147911Y194310D01*
X-148051Y194354D01*
X-148059D01*
X-148066Y194362D01*
X-148110Y194376D01*
X-148170Y194406D01*
X-148251Y194450D01*
X-148332Y194509D01*
X-148420Y194576D01*
X-148509Y194664D01*
X-148583Y194760D01*
X-148590Y194775D01*
X-148612Y194812D01*
X-148642Y194863D01*
X-148679Y194945D01*
X-148708Y195033D01*
X-148738Y195136D01*
X-148760Y195255D01*
X-148767Y195373D01*
Y195380D01*
Y195395D01*
Y195417D01*
X-148760Y195454D01*
Y195491D01*
X-148752Y195542D01*
X-148723Y195653D01*
X-148679Y195779D01*
X-148620Y195911D01*
X-148531Y196037D01*
X-148472Y196103D01*
X-148413Y196162D01*
X-148406Y196170D01*
X-148398Y196177D01*
X-148376Y196192D01*
X-148347Y196214D01*
X-148310Y196236D01*
X-148258Y196266D01*
X-148206Y196295D01*
X-148140Y196325D01*
X-148066Y196354D01*
X-147985Y196376D01*
X-147896Y196406D01*
X-147801Y196428D01*
X-147690Y196450D01*
X-147572Y196465D01*
X-147446Y196480D01*
X-145151D01*
Y194229D01*
D02*
G37*
G36*
Y190421D02*
X-149114D01*
X-148214Y191838D01*
X-148206Y191845D01*
X-148199Y191867D01*
X-148177Y191897D01*
X-148147Y191941D01*
X-148118Y191993D01*
X-148074Y192052D01*
X-147985Y192184D01*
X-147882Y192340D01*
X-147778Y192494D01*
X-147668Y192642D01*
X-147564Y192775D01*
Y192782D01*
X-147550Y192790D01*
X-147520Y192826D01*
X-147476Y192886D01*
X-147409Y192952D01*
X-147343Y193026D01*
X-147262Y193100D01*
X-147181Y193173D01*
X-147107Y193225D01*
X-147099Y193232D01*
X-147070Y193247D01*
X-147033Y193269D01*
X-146981Y193299D01*
X-146915Y193328D01*
X-146848Y193358D01*
X-146775Y193387D01*
X-146694Y193410D01*
X-146686D01*
X-146664Y193417D01*
X-146627Y193424D01*
X-146575Y193432D01*
X-146502D01*
X-146413Y193439D01*
X-146310Y193447D01*
X-145151D01*
Y190421D01*
D02*
G37*
G36*
X-98355Y192952D02*
X-98362Y193004D01*
Y193070D01*
X-98369Y193144D01*
X-98377Y193232D01*
X-98384Y193328D01*
X-98413Y193535D01*
X-98458Y193756D01*
X-98517Y193993D01*
X-98598Y194221D01*
Y194229D01*
X-98613Y194251D01*
X-98628Y194280D01*
X-98642Y194325D01*
X-98672Y194369D01*
X-98701Y194428D01*
X-98782Y194561D01*
X-98886Y194716D01*
X-99011Y194863D01*
X-99159Y195011D01*
X-99336Y195144D01*
X-99343Y195151D01*
X-99358Y195159D01*
X-99388Y195173D01*
X-99425Y195195D01*
X-99469Y195218D01*
X-99528Y195247D01*
X-99587Y195277D01*
X-99661Y195306D01*
X-99823Y195365D01*
X-100008Y195417D01*
X-100214Y195454D01*
X-100325Y195469D01*
X-100510D01*
X-100598Y195461D01*
X-100701Y195447D01*
X-100827Y195424D01*
X-100960Y195387D01*
X-101100Y195343D01*
X-101233Y195277D01*
X-101240D01*
X-101248Y195269D01*
X-101292Y195240D01*
X-101351Y195203D01*
X-101432Y195144D01*
X-101521Y195070D01*
X-101616Y194989D01*
X-101712Y194893D01*
X-101801Y194782D01*
Y197232D01*
X-98355D01*
Y192952D01*
D02*
G37*
G36*
X-100421Y194767D02*
X-100377Y194760D01*
X-100318Y194753D01*
X-100192Y194716D01*
X-100045Y194664D01*
X-99963Y194627D01*
X-99882Y194583D01*
X-99808Y194531D01*
X-99727Y194465D01*
X-99653Y194398D01*
X-99580Y194317D01*
X-99572Y194310D01*
X-99565Y194295D01*
X-99543Y194266D01*
X-99520Y194229D01*
X-99491Y194185D01*
X-99462Y194118D01*
X-99432Y194052D01*
X-99395Y193963D01*
X-99358Y193875D01*
X-99329Y193764D01*
X-99299Y193646D01*
X-99270Y193520D01*
X-99247Y193373D01*
X-99225Y193225D01*
X-99218Y193055D01*
X-99211Y192878D01*
Y192871D01*
Y192834D01*
Y192790D01*
X-99218Y192723D01*
X-99225Y192642D01*
X-99233Y192553D01*
X-99247Y192457D01*
X-99262Y192347D01*
X-99306Y192118D01*
X-99380Y191882D01*
X-99425Y191771D01*
X-99476Y191660D01*
X-99543Y191557D01*
X-99609Y191461D01*
X-99616Y191454D01*
X-99624Y191439D01*
X-99653Y191417D01*
X-99683Y191387D01*
X-99720Y191350D01*
X-99764Y191314D01*
X-99875Y191233D01*
X-100015Y191144D01*
X-100177Y191070D01*
X-100266Y191041D01*
X-100355Y191018D01*
X-100450Y191004D01*
X-100554Y190996D01*
X-100605D01*
X-100650Y191004D01*
X-100694Y191011D01*
X-100753Y191018D01*
X-100878Y191055D01*
X-101026Y191107D01*
X-101107Y191144D01*
X-101181Y191181D01*
X-101262Y191233D01*
X-101343Y191291D01*
X-101417Y191358D01*
X-101491Y191439D01*
X-101498Y191446D01*
X-101506Y191461D01*
X-101528Y191483D01*
X-101550Y191528D01*
X-101579Y191572D01*
X-101616Y191631D01*
X-101653Y191697D01*
X-101690Y191779D01*
X-101720Y191867D01*
X-101757Y191971D01*
X-101794Y192089D01*
X-101823Y192207D01*
X-101845Y192340D01*
X-101867Y192487D01*
X-101875Y192642D01*
X-101882Y192812D01*
Y192826D01*
Y192856D01*
Y192908D01*
X-101875Y192974D01*
X-101867Y193063D01*
X-101860Y193159D01*
X-101853Y193262D01*
X-101830Y193380D01*
X-101786Y193616D01*
X-101712Y193867D01*
X-101668Y193985D01*
X-101616Y194096D01*
X-101557Y194199D01*
X-101484Y194295D01*
X-101476Y194302D01*
X-101469Y194317D01*
X-101447Y194340D01*
X-101417Y194369D01*
X-101373Y194406D01*
X-101329Y194450D01*
X-101218Y194539D01*
X-101078Y194620D01*
X-100908Y194701D01*
X-100819Y194731D01*
X-100724Y194753D01*
X-100620Y194767D01*
X-100517Y194775D01*
X-100465D01*
X-100421Y194767D01*
D02*
G37*
G36*
X-95270Y194767D02*
X-95218Y194760D01*
X-95152Y194753D01*
X-95011Y194716D01*
X-94842Y194657D01*
X-94760Y194620D01*
X-94672Y194576D01*
X-94583Y194524D01*
X-94495Y194457D01*
X-94414Y194384D01*
X-94332Y194303D01*
X-94325Y194295D01*
X-94318Y194280D01*
X-94296Y194251D01*
X-94266Y194214D01*
X-94236Y194162D01*
X-94200Y194103D01*
X-94163Y194029D01*
X-94126Y193948D01*
X-94089Y193852D01*
X-94052Y193749D01*
X-94015Y193631D01*
X-93985Y193506D01*
X-93956Y193365D01*
X-93934Y193218D01*
X-93927Y193055D01*
X-93919Y192886D01*
Y192878D01*
Y192841D01*
Y192797D01*
X-93927Y192731D01*
X-93934Y192649D01*
X-93941Y192561D01*
X-93956Y192458D01*
X-93971Y192354D01*
X-94022Y192118D01*
X-94096Y191882D01*
X-94140Y191771D01*
X-94200Y191660D01*
X-94259Y191557D01*
X-94332Y191461D01*
X-94340Y191454D01*
X-94354Y191439D01*
X-94377Y191417D01*
X-94406Y191387D01*
X-94450Y191351D01*
X-94495Y191314D01*
X-94554Y191269D01*
X-94620Y191233D01*
X-94768Y191144D01*
X-94945Y191070D01*
X-95041Y191041D01*
X-95152Y191018D01*
X-95255Y191004D01*
X-95373Y190996D01*
X-95432D01*
X-95476Y191004D01*
X-95528Y191011D01*
X-95594Y191018D01*
X-95735Y191055D01*
X-95897Y191114D01*
X-95986Y191151D01*
X-96074Y191196D01*
X-96155Y191247D01*
X-96244Y191314D01*
X-96325Y191387D01*
X-96406Y191469D01*
X-96413Y191476D01*
X-96421Y191491D01*
X-96443Y191520D01*
X-96473Y191557D01*
X-96502Y191609D01*
X-96539Y191668D01*
X-96576Y191742D01*
X-96620Y191830D01*
X-96657Y191919D01*
X-96694Y192030D01*
X-96731Y192148D01*
X-96760Y192280D01*
X-96790Y192421D01*
X-96812Y192576D01*
X-96819Y192738D01*
X-96827Y192915D01*
Y192922D01*
Y192952D01*
Y193004D01*
X-96819Y193063D01*
X-96812Y193144D01*
X-96805Y193233D01*
X-96790Y193328D01*
X-96775Y193432D01*
X-96724Y193653D01*
X-96694Y193771D01*
X-96650Y193889D01*
X-96598Y194000D01*
X-96546Y194111D01*
X-96480Y194207D01*
X-96406Y194303D01*
X-96399Y194310D01*
X-96384Y194325D01*
X-96362Y194347D01*
X-96332Y194376D01*
X-96288Y194413D01*
X-96244Y194450D01*
X-96185Y194494D01*
X-96126Y194539D01*
X-95971Y194627D01*
X-95794Y194701D01*
X-95698Y194731D01*
X-95594Y194753D01*
X-95484Y194767D01*
X-95373Y194775D01*
X-95314D01*
X-95270Y194767D01*
D02*
G37*
G36*
X-82786Y184453D02*
X-82690Y184438D01*
X-82587Y184409D01*
X-82469Y184379D01*
X-82344Y184328D01*
X-82218Y184261D01*
X-82203Y184254D01*
X-82166Y184224D01*
X-82107Y184180D01*
X-82041Y184121D01*
X-81960Y184047D01*
X-81886Y183959D01*
X-81812Y183855D01*
X-81753Y183737D01*
X-81746Y183723D01*
X-81738Y183701D01*
X-81731Y183678D01*
X-81709Y183605D01*
X-81687Y183501D01*
X-81665Y183376D01*
X-81643Y183221D01*
X-81628Y183036D01*
X-81620Y182830D01*
Y180136D01*
X-83960D01*
Y183258D01*
Y183265D01*
Y183287D01*
Y183317D01*
X-83952Y183361D01*
Y183413D01*
X-83945Y183472D01*
X-83923Y183605D01*
X-83893Y183759D01*
X-83842Y183907D01*
X-83775Y184055D01*
X-83738Y184114D01*
X-83687Y184173D01*
X-83672Y184187D01*
X-83635Y184217D01*
X-83576Y184261D01*
X-83487Y184320D01*
X-83377Y184372D01*
X-83251Y184416D01*
X-83096Y184446D01*
X-82919Y184461D01*
X-82860D01*
X-82786Y184453D01*
D02*
G37*
G36*
X-160453Y184453D02*
X-160365Y184438D01*
X-160262Y184416D01*
X-160151Y184379D01*
X-160040Y184335D01*
X-159922Y184269D01*
X-159907Y184261D01*
X-159871Y184232D01*
X-159819Y184195D01*
X-159760Y184128D01*
X-159686Y184055D01*
X-159612Y183959D01*
X-159546Y183848D01*
X-159487Y183723D01*
Y183715D01*
X-159479Y183708D01*
X-159472Y183686D01*
X-159465Y183656D01*
X-159457Y183619D01*
X-159442Y183575D01*
X-159435Y183523D01*
X-159420Y183464D01*
X-159406Y183390D01*
X-159398Y183317D01*
X-159383Y183236D01*
X-159376Y183140D01*
X-159369Y183044D01*
X-159361Y182933D01*
X-159354Y182822D01*
Y182697D01*
Y180136D01*
X-161450D01*
Y183339D01*
Y183346D01*
Y183361D01*
Y183390D01*
Y183435D01*
X-161442Y183479D01*
Y183531D01*
X-161428Y183656D01*
X-161398Y183789D01*
X-161361Y183929D01*
X-161310Y184062D01*
X-161243Y184180D01*
X-161236Y184195D01*
X-161206Y184224D01*
X-161155Y184269D01*
X-161088Y184320D01*
X-160992Y184372D01*
X-160881Y184416D01*
X-160741Y184446D01*
X-160579Y184461D01*
X-160520D01*
X-160453Y184453D01*
D02*
G37*
G36*
X-112476Y182608D02*
X-112447Y182601D01*
X-112410Y182586D01*
X-112365Y182564D01*
X-112306Y182549D01*
X-112233Y182527D01*
X-112159Y182505D01*
X-112063Y182483D01*
X-111960Y182453D01*
X-111849Y182431D01*
X-111723Y182402D01*
X-111591Y182372D01*
X-111450Y182350D01*
X-111295Y182320D01*
X-111126Y182298D01*
X-111103D01*
X-111074Y182291D01*
X-111044Y182283D01*
X-110949Y182269D01*
X-110838Y182247D01*
X-110720Y182224D01*
X-110602Y182195D01*
X-110491Y182165D01*
X-110395Y182129D01*
X-110388Y182121D01*
X-110358Y182114D01*
X-110321Y182092D01*
X-110277Y182062D01*
X-110218Y182018D01*
X-110166Y181974D01*
X-110115Y181922D01*
X-110063Y181855D01*
X-110055Y181848D01*
X-110048Y181826D01*
X-110026Y181789D01*
X-110011Y181737D01*
X-109989Y181678D01*
X-109967Y181612D01*
X-109959Y181538D01*
X-109952Y181457D01*
Y181442D01*
X-109959Y181405D01*
X-109967Y181339D01*
X-109982Y181265D01*
X-110011Y181176D01*
X-110055Y181080D01*
X-110122Y180992D01*
X-110203Y180903D01*
X-110218Y180896D01*
X-110247Y180867D01*
X-110306Y180837D01*
X-110388Y180793D01*
X-110491Y180756D01*
X-110624Y180719D01*
X-110771Y180689D01*
X-110941Y180682D01*
X-111022D01*
X-111066Y180689D01*
X-111118Y180697D01*
X-111229Y180711D01*
X-111369Y180734D01*
X-111509Y180771D01*
X-111657Y180822D01*
X-111804Y180889D01*
X-111812D01*
X-111819Y180896D01*
X-111864Y180926D01*
X-111930Y180977D01*
X-112019Y181044D01*
X-112107Y181125D01*
X-112196Y181228D01*
X-112284Y181339D01*
X-112358Y181472D01*
X-112365Y181486D01*
X-112380Y181523D01*
X-112402Y181590D01*
X-112425Y181678D01*
X-112447Y181796D01*
X-112469Y181944D01*
X-112484Y182114D01*
X-112491Y182306D01*
X-112498Y182616D01*
X-112491D01*
X-112476Y182608D01*
D02*
G37*
G36*
X-155132Y184483D02*
X-155081Y184475D01*
X-155014Y184468D01*
X-154874Y184431D01*
X-154704Y184372D01*
X-154623Y184335D01*
X-154535Y184291D01*
X-154446Y184239D01*
X-154358Y184173D01*
X-154276Y184099D01*
X-154195Y184018D01*
X-154188Y184010D01*
X-154181Y183996D01*
X-154158Y183966D01*
X-154129Y183929D01*
X-154099Y183878D01*
X-154062Y183818D01*
X-154025Y183745D01*
X-153989Y183663D01*
X-153952Y183568D01*
X-153915Y183464D01*
X-153878Y183346D01*
X-153848Y183221D01*
X-153819Y183080D01*
X-153797Y182933D01*
X-153789Y182771D01*
X-153782Y182601D01*
Y182593D01*
Y182556D01*
Y182512D01*
X-153789Y182446D01*
X-153797Y182365D01*
X-153804Y182276D01*
X-153819Y182173D01*
X-153834Y182070D01*
X-153885Y181833D01*
X-153959Y181597D01*
X-154003Y181486D01*
X-154062Y181376D01*
X-154121Y181272D01*
X-154195Y181176D01*
X-154203Y181169D01*
X-154217Y181154D01*
X-154239Y181132D01*
X-154269Y181103D01*
X-154313Y181066D01*
X-154358Y181029D01*
X-154417Y180985D01*
X-154483Y180948D01*
X-154631Y180859D01*
X-154808Y180785D01*
X-154904Y180756D01*
X-155014Y180734D01*
X-155118Y180719D01*
X-155236Y180711D01*
X-155295D01*
X-155339Y180719D01*
X-155391Y180726D01*
X-155457Y180734D01*
X-155597Y180771D01*
X-155760Y180830D01*
X-155848Y180867D01*
X-155937Y180911D01*
X-156018Y180962D01*
X-156107Y181029D01*
X-156188Y181103D01*
X-156269Y181184D01*
X-156276Y181191D01*
X-156284Y181206D01*
X-156306Y181236D01*
X-156335Y181272D01*
X-156365Y181324D01*
X-156402Y181383D01*
X-156439Y181457D01*
X-156483Y181545D01*
X-156520Y181634D01*
X-156557Y181745D01*
X-156594Y181863D01*
X-156623Y181996D01*
X-156653Y182136D01*
X-156675Y182291D01*
X-156682Y182453D01*
X-156690Y182630D01*
Y182638D01*
Y182667D01*
Y182719D01*
X-156682Y182778D01*
X-156675Y182859D01*
X-156668Y182948D01*
X-156653Y183044D01*
X-156638Y183147D01*
X-156586Y183368D01*
X-156557Y183486D01*
X-156513Y183605D01*
X-156461Y183715D01*
X-156409Y183826D01*
X-156343Y183922D01*
X-156269Y184018D01*
X-156262Y184025D01*
X-156247Y184040D01*
X-156225Y184062D01*
X-156195Y184092D01*
X-156151Y184128D01*
X-156107Y184165D01*
X-156048Y184210D01*
X-155989Y184254D01*
X-155834Y184343D01*
X-155657Y184416D01*
X-155561Y184446D01*
X-155457Y184468D01*
X-155347Y184483D01*
X-155236Y184490D01*
X-155177D01*
X-155132Y184483D01*
D02*
G37*
G36*
X-157538Y182512D02*
Y182431D01*
X-157531Y182335D01*
X-157524Y182232D01*
X-157509Y182121D01*
X-157479Y181885D01*
X-157428Y181634D01*
X-157354Y181391D01*
X-157310Y181280D01*
X-157258Y181169D01*
Y181162D01*
X-157243Y181147D01*
X-157228Y181117D01*
X-157206Y181080D01*
X-157177Y181036D01*
X-157140Y180977D01*
X-157044Y180859D01*
X-156926Y180719D01*
X-156786Y180579D01*
X-156616Y180446D01*
X-156424Y180320D01*
X-156417D01*
X-156402Y180306D01*
X-156372Y180291D01*
X-156328Y180276D01*
X-156276Y180254D01*
X-156217Y180225D01*
X-156151Y180202D01*
X-156070Y180173D01*
X-155989Y180143D01*
X-155893Y180121D01*
X-155693Y180069D01*
X-155472Y180040D01*
X-155236Y180025D01*
X-157546D01*
Y182579D01*
X-157538Y182512D01*
D02*
G37*
G36*
X-93377Y184520D02*
X-93332Y184512D01*
X-93273Y184497D01*
X-93148Y184468D01*
X-93000Y184402D01*
X-92927Y184365D01*
X-92845Y184313D01*
X-92764Y184261D01*
X-92683Y184187D01*
X-92602Y184114D01*
X-92521Y184025D01*
X-92513Y184018D01*
X-92506Y184003D01*
X-92484Y183974D01*
X-92454Y183929D01*
X-92425Y183878D01*
X-92395Y183818D01*
X-92358Y183745D01*
X-92321Y183656D01*
X-92277Y183560D01*
X-92240Y183449D01*
X-92211Y183331D01*
X-92181Y183199D01*
X-92152Y183058D01*
X-92129Y182911D01*
X-92122Y182748D01*
X-92115Y182571D01*
Y182564D01*
Y182527D01*
Y182483D01*
X-92122Y182416D01*
X-92129Y182335D01*
X-92137Y182247D01*
X-92144Y182143D01*
X-92166Y182040D01*
X-92211Y181811D01*
X-92277Y181575D01*
X-92321Y181464D01*
X-92373Y181354D01*
X-92432Y181250D01*
X-92498Y181162D01*
X-92506Y181154D01*
X-92513Y181140D01*
X-92535Y181117D01*
X-92565Y181095D01*
X-92602Y181058D01*
X-92646Y181021D01*
X-92757Y180940D01*
X-92897Y180852D01*
X-93052Y180785D01*
X-93141Y180756D01*
X-93229Y180734D01*
X-93325Y180719D01*
X-93428Y180712D01*
X-93480D01*
X-93524Y180719D01*
X-93569Y180726D01*
X-93628Y180734D01*
X-93760Y180771D01*
X-93908Y180822D01*
X-93989Y180867D01*
X-94070Y180911D01*
X-94152Y180963D01*
X-94233Y181021D01*
X-94314Y181095D01*
X-94388Y181176D01*
X-94395Y181184D01*
X-94402Y181199D01*
X-94425Y181228D01*
X-94447Y181265D01*
X-94484Y181317D01*
X-94513Y181376D01*
X-94550Y181449D01*
X-94587Y181538D01*
X-94624Y181634D01*
X-94661Y181737D01*
X-94698Y181863D01*
X-94727Y181996D01*
X-94749Y182136D01*
X-94771Y182291D01*
X-94779Y182461D01*
X-94786Y182638D01*
Y182645D01*
Y182682D01*
Y182726D01*
X-94779Y182793D01*
X-94771Y182874D01*
X-94764Y182962D01*
X-94757Y183058D01*
X-94735Y183169D01*
X-94690Y183398D01*
X-94624Y183634D01*
X-94580Y183752D01*
X-94528Y183855D01*
X-94462Y183959D01*
X-94395Y184055D01*
X-94388Y184062D01*
X-94380Y184077D01*
X-94358Y184099D01*
X-94329Y184128D01*
X-94292Y184165D01*
X-94240Y184202D01*
X-94129Y184291D01*
X-93997Y184379D01*
X-93842Y184453D01*
X-93753Y184483D01*
X-93657Y184505D01*
X-93561Y184520D01*
X-93465Y184527D01*
X-93414D01*
X-93377Y184520D01*
D02*
G37*
G36*
X-124572Y184520D02*
X-124528Y184512D01*
X-124469Y184497D01*
X-124343Y184468D01*
X-124196Y184402D01*
X-124122Y184365D01*
X-124041Y184313D01*
X-123959Y184261D01*
X-123878Y184187D01*
X-123797Y184114D01*
X-123716Y184025D01*
X-123708Y184018D01*
X-123701Y184003D01*
X-123679Y183974D01*
X-123649Y183929D01*
X-123620Y183878D01*
X-123590Y183818D01*
X-123554Y183745D01*
X-123517Y183656D01*
X-123472Y183560D01*
X-123435Y183449D01*
X-123406Y183331D01*
X-123376Y183199D01*
X-123347Y183058D01*
X-123325Y182911D01*
X-123317Y182748D01*
X-123310Y182571D01*
Y182564D01*
Y182527D01*
Y182483D01*
X-123317Y182416D01*
X-123325Y182335D01*
X-123332Y182247D01*
X-123339Y182143D01*
X-123362Y182040D01*
X-123406Y181811D01*
X-123472Y181575D01*
X-123517Y181464D01*
X-123568Y181354D01*
X-123627Y181250D01*
X-123694Y181162D01*
X-123701Y181154D01*
X-123708Y181140D01*
X-123731Y181117D01*
X-123760Y181095D01*
X-123797Y181058D01*
X-123841Y181021D01*
X-123952Y180940D01*
X-124092Y180852D01*
X-124247Y180785D01*
X-124336Y180756D01*
X-124424Y180734D01*
X-124520Y180719D01*
X-124624Y180711D01*
X-124675D01*
X-124720Y180719D01*
X-124764Y180726D01*
X-124823Y180734D01*
X-124956Y180771D01*
X-125103Y180822D01*
X-125185Y180867D01*
X-125266Y180911D01*
X-125347Y180963D01*
X-125428Y181021D01*
X-125509Y181095D01*
X-125583Y181176D01*
X-125590Y181184D01*
X-125598Y181199D01*
X-125620Y181228D01*
X-125642Y181265D01*
X-125679Y181317D01*
X-125708Y181376D01*
X-125745Y181449D01*
X-125782Y181538D01*
X-125819Y181634D01*
X-125856Y181737D01*
X-125893Y181863D01*
X-125923Y181996D01*
X-125945Y182136D01*
X-125967Y182291D01*
X-125974Y182461D01*
X-125981Y182638D01*
Y182645D01*
Y182682D01*
Y182726D01*
X-125974Y182793D01*
X-125967Y182874D01*
X-125959Y182962D01*
X-125952Y183058D01*
X-125930Y183169D01*
X-125886Y183398D01*
X-125819Y183634D01*
X-125775Y183752D01*
X-125723Y183855D01*
X-125657Y183959D01*
X-125590Y184055D01*
X-125583Y184062D01*
X-125576Y184077D01*
X-125554Y184099D01*
X-125524Y184128D01*
X-125487Y184165D01*
X-125435Y184202D01*
X-125325Y184291D01*
X-125192Y184379D01*
X-125037Y184453D01*
X-124948Y184483D01*
X-124852Y184505D01*
X-124756Y184520D01*
X-124661Y184527D01*
X-124609D01*
X-124572Y184520D01*
D02*
G37*
G36*
X-144830Y181427D02*
X-144815Y181324D01*
X-144786Y181206D01*
X-144741Y181073D01*
X-144675Y180933D01*
X-144594Y180793D01*
Y180785D01*
X-144579Y180778D01*
X-144550Y180734D01*
X-144491Y180667D01*
X-144417Y180586D01*
X-144313Y180490D01*
X-144195Y180394D01*
X-144055Y180306D01*
X-143893Y180225D01*
X-143885D01*
X-143871Y180217D01*
X-143849Y180210D01*
X-143812Y180195D01*
X-143767Y180180D01*
X-143716Y180158D01*
X-143657Y180143D01*
X-143590Y180129D01*
X-143435Y180092D01*
X-143258Y180055D01*
X-143066Y180033D01*
X-142852Y180025D01*
X-144845D01*
Y181509D01*
X-144830Y181427D01*
D02*
G37*
G36*
X-152513Y181796D02*
X-152505Y181752D01*
X-152490Y181693D01*
X-152468Y181619D01*
X-152446Y181538D01*
X-152417Y181449D01*
X-152380Y181346D01*
X-152291Y181140D01*
X-152232Y181029D01*
X-152166Y180918D01*
X-152099Y180807D01*
X-152018Y180697D01*
X-151922Y180601D01*
X-151826Y180505D01*
X-151819Y180498D01*
X-151804Y180483D01*
X-151767Y180461D01*
X-151730Y180431D01*
X-151671Y180394D01*
X-151612Y180350D01*
X-151531Y180313D01*
X-151450Y180269D01*
X-151354Y180217D01*
X-151251Y180180D01*
X-151140Y180136D01*
X-151022Y180099D01*
X-150889Y180069D01*
X-150756Y180047D01*
X-150616Y180033D01*
X-150468Y180025D01*
X-152520D01*
Y181826D01*
X-152513Y181796D01*
D02*
G37*
G36*
X-130284Y185176D02*
X-130328D01*
X-130439Y185162D01*
X-130564Y185147D01*
X-130705Y185117D01*
X-130845Y185073D01*
X-130985Y185021D01*
X-130992D01*
X-131000Y185014D01*
X-131044Y184992D01*
X-131111Y184955D01*
X-131199Y184911D01*
X-131288Y184844D01*
X-131384Y184778D01*
X-131472Y184697D01*
X-131546Y184601D01*
X-131553Y184586D01*
X-131576Y184556D01*
X-131605Y184497D01*
X-131649Y184424D01*
X-131694Y184335D01*
X-131730Y184232D01*
X-131775Y184114D01*
X-131804Y183981D01*
Y183974D01*
X-131812Y183937D01*
X-131819Y183878D01*
X-131834Y183796D01*
X-131841Y183686D01*
Y183619D01*
X-131849Y183545D01*
Y183464D01*
X-131856Y183368D01*
Y185184D01*
X-130240D01*
X-130284Y185176D01*
D02*
G37*
G36*
X-139406Y185073D02*
X-140254D01*
Y184424D01*
X-139406D01*
Y181531D01*
Y181523D01*
Y181516D01*
Y181472D01*
Y181413D01*
X-139413Y181339D01*
Y181265D01*
X-139428Y181191D01*
X-139435Y181125D01*
X-139450Y181073D01*
Y181066D01*
X-139457Y181058D01*
X-139487Y181014D01*
X-139531Y180963D01*
X-139590Y180911D01*
X-139598D01*
X-139612Y180903D01*
X-139635Y180896D01*
X-139664Y180881D01*
X-139708Y180874D01*
X-139753Y180859D01*
X-139812Y180852D01*
X-139937D01*
X-139981Y180859D01*
X-140033D01*
X-140100Y180867D01*
X-140173Y180874D01*
X-140254Y180881D01*
X-140365Y180143D01*
Y186793D01*
X-139406D01*
Y185073D01*
D02*
G37*
G36*
X-98425Y185176D02*
X-98484D01*
X-98624Y185162D01*
X-98779Y185140D01*
X-98956Y185110D01*
X-99126Y185073D01*
X-99295Y185014D01*
X-99303D01*
X-99318Y185007D01*
X-99340Y184999D01*
X-99369Y184985D01*
X-99443Y184948D01*
X-99546Y184896D01*
X-99650Y184830D01*
X-99753Y184748D01*
X-99856Y184660D01*
X-99945Y184556D01*
X-99952Y184542D01*
X-99982Y184505D01*
X-100019Y184438D01*
X-100063Y184357D01*
X-100115Y184247D01*
X-100159Y184114D01*
X-100203Y183966D01*
X-100240Y183796D01*
X-99421Y183686D01*
Y183693D01*
Y183700D01*
X-99406Y183745D01*
X-99391Y183818D01*
X-99362Y183900D01*
X-99318Y183996D01*
X-99259Y184092D01*
X-99185Y184187D01*
X-99096Y184276D01*
X-99081Y184283D01*
X-99045Y184313D01*
X-98985Y184350D01*
X-98904Y184387D01*
X-98794Y184431D01*
X-98661Y184461D01*
X-98513Y184490D01*
X-98336Y184497D01*
X-98240D01*
X-98196Y184490D01*
X-98144D01*
X-98019Y184475D01*
X-97886Y184453D01*
X-97746Y184416D01*
X-97620Y184372D01*
X-97569Y184343D01*
X-97517Y184306D01*
X-97509Y184298D01*
X-97480Y184269D01*
X-97443Y184232D01*
X-97399Y184180D01*
X-97347Y184114D01*
X-97310Y184032D01*
X-97281Y183951D01*
X-97273Y183855D01*
Y183848D01*
Y183826D01*
X-97281Y183796D01*
X-97288Y183759D01*
X-97318Y183663D01*
X-97340Y183612D01*
X-97369Y183560D01*
X-97377Y183553D01*
X-97391Y183538D01*
X-97413Y183516D01*
X-97450Y183486D01*
X-97495Y183449D01*
X-97554Y183413D01*
X-97620Y183376D01*
X-97694Y183339D01*
X-97701D01*
X-97724Y183331D01*
X-97768Y183317D01*
X-97834Y183294D01*
X-97878Y183280D01*
X-97930Y183265D01*
X-97989Y183250D01*
X-98056Y183228D01*
X-98137Y183206D01*
X-98225Y183184D01*
X-98321Y183154D01*
X-98432Y183125D01*
X-98439D01*
X-98469Y183117D01*
X-98513Y183103D01*
X-98580Y183088D01*
X-98646Y183066D01*
X-98727Y183044D01*
X-98823Y183014D01*
X-98919Y182985D01*
X-99126Y182925D01*
X-99325Y182859D01*
X-99421Y182830D01*
X-99510Y182793D01*
X-99591Y182763D01*
X-99664Y182734D01*
X-99672D01*
X-99679Y182726D01*
X-99724Y182704D01*
X-99790Y182675D01*
X-99864Y182623D01*
X-99952Y182564D01*
X-100048Y182490D01*
X-100137Y182402D01*
X-100218Y182298D01*
X-100225Y182283D01*
X-100248Y182247D01*
X-100284Y182187D01*
X-100321Y182099D01*
X-100358Y181996D01*
X-100395Y181878D01*
X-100417Y181737D01*
X-100425Y181582D01*
Y185184D01*
X-98373D01*
X-98425Y185176D01*
D02*
G37*
D10*
X262957Y-71469D02*
Y-67532D01*
X270043Y-71469D02*
Y-67532D01*
X269543Y-119968D02*
Y-116032D01*
X262457Y-119968D02*
Y-116032D01*
X74532Y149457D02*
X78469D01*
X74532Y156543D02*
X78469D01*
X-189543Y-113469D02*
Y-109531D01*
X-182457Y-113469D02*
Y-109531D01*
X-263543Y-111969D02*
Y-108031D01*
X-256457Y-111969D02*
Y-108031D01*
X169032Y-126957D02*
X172968D01*
X169032Y-134043D02*
X172968D01*
X188031Y-126957D02*
X191969D01*
X188031Y-134043D02*
X191969D01*
X206532Y-44543D02*
X210469D01*
X206532Y-37457D02*
X210469D01*
X225031Y-44543D02*
X228969D01*
X225031Y-37457D02*
X228969D01*
X231031Y-4457D02*
X234968D01*
X231031Y-11543D02*
X234968D01*
X230532Y8457D02*
X234469D01*
X230532Y15543D02*
X234469D01*
X169972Y97516D02*
Y99484D01*
X179028Y97516D02*
Y99484D01*
X171055Y112673D02*
X177945D01*
X156972Y97516D02*
Y99484D01*
X166028Y97516D02*
Y99484D01*
X158055Y112673D02*
X164945D01*
X192028Y97516D02*
Y99484D01*
X182972Y97516D02*
Y99484D01*
X184055Y84327D02*
X190945D01*
X153028Y97516D02*
Y99484D01*
X143972Y97516D02*
Y99484D01*
X145055Y84327D02*
X151945D01*
D12*
X274498Y-56499D02*
Y-50501D01*
X271498D01*
X270499Y-51501D01*
Y-53500D01*
X271498Y-54500D01*
X274498D01*
X272498D02*
X270499Y-56499D01*
X268499D02*
X266500D01*
X267500D01*
Y-50501D01*
X268499Y-51501D01*
X259502Y-56499D02*
X263501D01*
X259502Y-52500D01*
Y-51501D01*
X260502Y-50501D01*
X262502D01*
X263501Y-51501D01*
X273998Y-136499D02*
Y-130501D01*
X270999D01*
X269999Y-131501D01*
Y-133500D01*
X270999Y-134500D01*
X273998D01*
X271998D02*
X269999Y-136499D01*
X268000D02*
X266000D01*
X267000D01*
Y-130501D01*
X268000Y-131501D01*
X263001D02*
X262001Y-130501D01*
X260002D01*
X259002Y-131501D01*
Y-132500D01*
X260002Y-133500D01*
X261002D01*
X260002D01*
X259002Y-134500D01*
Y-135499D01*
X260002Y-136499D01*
X262001D01*
X263001Y-135499D01*
X81300Y160600D02*
Y166598D01*
X78301D01*
X77301Y165598D01*
Y163599D01*
X78301Y162599D01*
X81300D01*
X79301D02*
X77301Y160600D01*
X75302D02*
X73303D01*
X74302D01*
Y166598D01*
X75302Y165598D01*
X70304Y160600D02*
X68304D01*
X69304D01*
Y166598D01*
X70304Y165598D01*
X-164502Y-113999D02*
Y-108001D01*
X-167501D01*
X-168501Y-109001D01*
Y-111000D01*
X-167501Y-112000D01*
X-164502D01*
X-166502D02*
X-168501Y-113999D01*
X-170501D02*
X-172500D01*
X-171500D01*
Y-108001D01*
X-170501Y-109001D01*
X-175499D02*
X-176499Y-108001D01*
X-178498D01*
X-179498Y-109001D01*
Y-112999D01*
X-178498Y-113999D01*
X-176499D01*
X-175499Y-112999D01*
Y-109001D01*
X-243502Y-112208D02*
Y-106210D01*
X-246501D01*
X-247500Y-107209D01*
Y-109209D01*
X-246501Y-110208D01*
X-243502D01*
X-245501D02*
X-247500Y-112208D01*
X-249500Y-111208D02*
X-250499Y-112208D01*
X-252499D01*
X-253498Y-111208D01*
Y-107209D01*
X-252499Y-106210D01*
X-250499D01*
X-249500Y-107209D01*
Y-108209D01*
X-250499Y-109209D01*
X-253498D01*
X194998Y-43499D02*
Y-37501D01*
X191999D01*
X191000Y-38501D01*
Y-40500D01*
X191999Y-41500D01*
X194998D01*
X192999D02*
X191000Y-43499D01*
X189000Y-38501D02*
X188001Y-37501D01*
X186001D01*
X185002Y-38501D01*
Y-39500D01*
X186001Y-40500D01*
X185002Y-41500D01*
Y-42499D01*
X186001Y-43499D01*
X188001D01*
X189000Y-42499D01*
Y-41500D01*
X188001Y-40500D01*
X189000Y-39500D01*
Y-38501D01*
X188001Y-40500D02*
X186001D01*
X251998Y-42999D02*
Y-37001D01*
X248999D01*
X248000Y-38001D01*
Y-40000D01*
X248999Y-41000D01*
X251998D01*
X249999D02*
X248000Y-42999D01*
X246000Y-37001D02*
X242002D01*
Y-38001D01*
X246000Y-41999D01*
Y-42999D01*
X220498Y-10999D02*
Y-5001D01*
X217499D01*
X216500Y-6001D01*
Y-8000D01*
X217499Y-9000D01*
X220498D01*
X218499D02*
X216500Y-10999D01*
X211501D02*
Y-5001D01*
X214500Y-8000D01*
X210502D01*
X237998Y22001D02*
Y27999D01*
X234999D01*
X234000Y26999D01*
Y25000D01*
X234999Y24000D01*
X237998D01*
X235999D02*
X234000Y22001D01*
X232000Y26999D02*
X231001Y27999D01*
X229001D01*
X228002Y26999D01*
Y26000D01*
X229001Y25000D01*
X230001D01*
X229001D01*
X228002Y24000D01*
Y23001D01*
X229001Y22001D01*
X231001D01*
X232000Y23001D01*
X211998Y-133499D02*
Y-127501D01*
X208999D01*
X208000Y-128501D01*
Y-130500D01*
X208999Y-131500D01*
X211998D01*
X209999D02*
X208000Y-133499D01*
X202002Y-127501D02*
X204001Y-128501D01*
X206000Y-130500D01*
Y-132499D01*
X205001Y-133499D01*
X203001D01*
X202002Y-132499D01*
Y-131500D01*
X203001Y-130500D01*
X206000D01*
X158998Y-133999D02*
Y-128001D01*
X155999D01*
X155000Y-129001D01*
Y-131000D01*
X155999Y-132000D01*
X158998D01*
X156999D02*
X155000Y-133999D01*
X149002Y-128001D02*
X153000D01*
Y-131000D01*
X151001Y-130000D01*
X150001D01*
X149002Y-131000D01*
Y-132999D01*
X150001Y-133999D01*
X152001D01*
X153000Y-132999D01*
X177999Y117002D02*
X172001D01*
Y120001D01*
X173001Y121000D01*
X176999D01*
X177999Y120001D01*
Y117002D01*
Y126998D02*
X176999Y124999D01*
X175000Y123000D01*
X173001D01*
X172001Y123999D01*
Y125999D01*
X173001Y126998D01*
X174000D01*
X175000Y125999D01*
Y123000D01*
X189999Y117002D02*
X184001D01*
Y120001D01*
X185001Y121000D01*
X188999D01*
X189999Y120001D01*
Y117002D01*
Y126998D02*
Y123000D01*
X187000D01*
X188000Y124999D01*
Y125999D01*
X187000Y126998D01*
X185001D01*
X184001Y125999D01*
Y123999D01*
X185001Y123000D01*
X163999Y116502D02*
X158001D01*
Y119501D01*
X159001Y120500D01*
X162999D01*
X163999Y119501D01*
Y116502D01*
X158001Y125499D02*
X163999D01*
X161000Y122500D01*
Y126498D01*
X149999Y117502D02*
X144001D01*
Y120501D01*
X145001Y121500D01*
X148999D01*
X149999Y120501D01*
Y117502D01*
X148999Y123500D02*
X149999Y124499D01*
Y126499D01*
X148999Y127498D01*
X148000D01*
X147000Y126499D01*
Y125499D01*
Y126499D01*
X146000Y127498D01*
X145001D01*
X144001Y126499D01*
Y124499D01*
X145001Y123500D01*
M02*
