G04*
G04 #@! TF.GenerationSoftware,Altium Limited,Altium Designer,22.4.2 (48)*
G04*
G04 Layer_Color=16711935*
%FSLAX25Y25*%
%MOIN*%
G70*
G04*
G04 #@! TF.SameCoordinates,23B923AA-DDFE-472D-9B1F-352181B22740*
G04*
G04*
G04 #@! TF.FilePolarity,Positive*
G04*
G01*
G75*
%ADD12C,0.01000*%
%ADD13C,0.00591*%
D12*
X-141000Y-195000D02*
G03*
X-143000Y-193000I-2000J0D01*
G01*
Y-199500D02*
G03*
X-141000Y-197500I0J2000D01*
G01*
X-168000D02*
G03*
X-166000Y-199500I2000J0D01*
G01*
X-165500Y-193000D02*
G03*
X-168000Y-195500I0J-2500D01*
G01*
X-197000Y-131000D02*
G03*
X-199500Y-128500I-2500J0D01*
G01*
X-201500D02*
G03*
X-203500Y-130500I0J-2000D01*
G01*
Y-153500D02*
G03*
X-201500Y-155500I2000J0D01*
G01*
X-199000D02*
G03*
X-197000Y-153500I0J2000D01*
G01*
X-226500Y7000D02*
G03*
X-224500Y9000I0J2000D01*
G01*
X-231000D02*
G03*
X-229000Y7000I2000J0D01*
G01*
Y34000D02*
G03*
X-231000Y32000I0J-2000D01*
G01*
X-224500Y31500D02*
G03*
X-227000Y34000I-2500J0D01*
G01*
X-156000Y-193000D02*
X-143000D01*
X-141000Y-197500D02*
Y-195000D01*
X-166000Y-199500D02*
X-143000D01*
X-168000Y-197500D02*
Y-195500D01*
X-165500Y-193000D02*
X-156000D01*
X-197000Y-140500D02*
Y-131000D01*
X-201500Y-128500D02*
X-199500D01*
X-203500Y-153500D02*
Y-130500D01*
X-201500Y-155500D02*
X-199000D01*
X-197000Y-153500D02*
Y-140500D01*
X-224500Y9000D02*
Y22000D01*
X-229000Y7000D02*
X-226500D01*
X-231000Y9000D02*
Y32000D01*
X-229000Y34000D02*
X-227000D01*
X-224500Y22000D02*
Y31500D01*
X278543Y-168000D02*
X278543Y168000D01*
X-220500Y-219488D02*
X220500D01*
Y168000D02*
X278500D01*
X220500Y-219500D02*
Y-168000D01*
X278500D01*
X-278543Y-168500D02*
X-278543Y168000D01*
X-220000Y219488D02*
X220500Y219488D01*
Y168000D02*
Y219500D01*
X-278500Y168000D02*
X-220000D01*
Y219500D01*
X-220500Y-219500D02*
Y-168500D01*
X-278500D02*
X-220500D01*
D13*
X-36779Y185134D02*
G03*
X-36779Y185134I-7480J0D01*
G01*
X-194260D02*
G03*
X-194260Y185134I-7480J0D01*
G01*
X171854Y-29000D02*
G03*
X171854Y-29000I-165354J0D01*
G01*
M02*
