G04*
G04 #@! TF.GenerationSoftware,Altium Limited,Altium Designer,21.8.1 (53)*
G04*
G04 Layer_Color=16711935*
%FSLAX25Y25*%
%MOIN*%
G70*
G04*
G04 #@! TF.SameCoordinates,BA8C8D60-F292-4EEE-BDFD-628FF9351DC8*
G04*
G04*
G04 #@! TF.FilePolarity,Positive*
G04*
G01*
G75*
%ADD12C,0.01000*%
%ADD14C,0.00591*%
D12*
X-195500Y-143000D02*
G03*
X-198000Y-140500I-2500J0D01*
G01*
X-200000D02*
G03*
X-202000Y-142500I0J-2000D01*
G01*
Y-165500D02*
G03*
X-200000Y-167500I2000J0D01*
G01*
X-197500D02*
G03*
X-195500Y-165500I0J2000D01*
G01*
X-226500Y22000D02*
G03*
X-224500Y24000I0J2000D01*
G01*
X-231000D02*
G03*
X-229000Y22000I2000J0D01*
G01*
Y49000D02*
G03*
X-231000Y47000I0J-2000D01*
G01*
X-224500Y46500D02*
G03*
X-227000Y49000I-2500J0D01*
G01*
X-195500Y-152500D02*
Y-143000D01*
X-200000Y-140500D02*
X-198000D01*
X-202000Y-165500D02*
Y-142500D01*
X-200000Y-167500D02*
X-197500D01*
X-195500Y-165500D02*
Y-152500D01*
X-224500Y24000D02*
Y37000D01*
X-229000Y22000D02*
X-226500D01*
X-231000Y24000D02*
Y47000D01*
X-229000Y49000D02*
X-227000D01*
X-224500Y37000D02*
Y46500D01*
X278543Y-168000D02*
X278543Y168000D01*
X-220500Y-219488D02*
X220500D01*
Y168000D02*
X278500D01*
X220500Y-219500D02*
Y-168000D01*
X278500D01*
X-278543Y-168500D02*
X-278543Y168000D01*
X-220000Y219488D02*
X220500Y219488D01*
Y168000D02*
Y219500D01*
X-278500Y168000D02*
X-220000D01*
Y219500D01*
X-220500Y-219500D02*
Y-168500D01*
X-278500D02*
X-220500D01*
D14*
X171854Y-29000D02*
G03*
X171854Y-29000I-165354J0D01*
G01*
M02*
