G04*
G04 #@! TF.GenerationSoftware,Altium Limited,Altium Designer,22.4.2 (48)*
G04*
G04 Layer_Color=65535*
%FSLAX25Y25*%
%MOIN*%
G70*
G04*
G04 #@! TF.SameCoordinates,23B923AA-DDFE-472D-9B1F-352181B22740*
G04*
G04*
G04 #@! TF.FilePolarity,Positive*
G04*
G01*
G75*
%ADD10C,0.00787*%
%ADD11C,0.00984*%
%ADD12C,0.01000*%
%ADD13C,0.00591*%
%ADD14C,0.02126*%
D10*
X92827Y254933D02*
G03*
X90091Y252197I0J-2736D01*
G01*
X188476D02*
G03*
X185740Y254933I-2736J0D01*
G01*
X87335Y231331D02*
G03*
X90071Y234067I0J2736D01*
G01*
X188496D02*
G03*
X191232Y231331I2736J0D01*
G01*
X200654Y121500D02*
G03*
X200654Y121500I-36417J0D01*
G01*
X232476Y-125346D02*
G03*
X232208Y-128398I1097J-1634D01*
G01*
X232555Y-125248D02*
G03*
X232294Y-122059I-1274J1501D01*
G01*
X220606Y-123822D02*
G03*
X220606Y-100178I15394J11822D01*
G01*
X239386Y-98516D02*
G03*
X239125Y-95327I-1274J1501D01*
G01*
X239307Y-98614D02*
G03*
X239039Y-101665I1097J-1634D01*
G01*
X267154Y14000D02*
G03*
X267154Y14000I-36417J0D01*
G01*
X253181Y-58500D02*
G03*
X253181Y-58500I-36417J0D01*
G01*
X267653Y88000D02*
G03*
X267653Y88000I-36417J0D01*
G01*
X226181Y-145000D02*
G03*
X226181Y-145000I-36417J0D01*
G01*
X128154Y-171976D02*
G03*
X125102Y-171708I-1634J-1097D01*
G01*
X128252Y-172055D02*
G03*
X131441Y-171794I1501J1274D01*
G01*
X129678Y-160106D02*
G03*
X153322Y-160106I11822J-15394D01*
G01*
X154984Y-178886D02*
G03*
X158173Y-178625I1501J1274D01*
G01*
X154886Y-178807D02*
G03*
X151834Y-178539I-1634J-1097D01*
G01*
X100543Y-186469D02*
Y-182531D01*
X93457Y-186469D02*
Y-182531D01*
X111543Y-186469D02*
Y-182531D01*
X104457Y-186469D02*
Y-182531D01*
X218024Y182098D02*
Y231311D01*
X60543Y182098D02*
Y231311D01*
X188496Y234067D02*
Y252177D01*
X90071Y234067D02*
Y252177D01*
X92827Y254933D02*
X185740D01*
X60543Y182098D02*
X218024D01*
X183142D02*
Y219500D01*
X60543Y231311D02*
X218024D01*
X95425Y182098D02*
Y219500D01*
X60543D02*
X218024D01*
X146531Y168043D02*
X150469D01*
X146531Y160957D02*
X150469D01*
X186087Y119532D02*
Y123468D01*
X184118Y121500D02*
X188055D01*
X220606Y-123822D02*
Y-100178D01*
X252587Y12032D02*
Y15969D01*
X250618Y14000D02*
X254555D01*
X238614Y-60469D02*
Y-56532D01*
X236646Y-58500D02*
X240583D01*
X209386Y86032D02*
Y89969D01*
X207417Y88000D02*
X211354D01*
X167913Y-146968D02*
Y-143032D01*
X165945Y-145000D02*
X169882D01*
X129678Y-160106D02*
X153322D01*
X-100953Y141071D02*
X-89929D01*
X-89929Y130047D02*
Y141071D01*
X-100953Y130047D02*
X-89929D01*
X-100953Y130047D02*
Y141071D01*
X-222012Y131512D02*
X-210988D01*
X-210988Y120488D02*
Y131512D01*
X-222012Y120488D02*
X-210988D01*
X-222012Y120488D02*
Y131512D01*
X-197004Y-58327D02*
Y-36673D01*
X-259996D02*
X-197004D01*
X-259996Y-58327D02*
Y-36673D01*
Y-58327D02*
X-197004D01*
Y-47500D02*
X-193421D01*
X-263579D02*
X-259996D01*
X225686Y-112394D02*
Y-107671D01*
X223325Y-110032D02*
X228048D01*
X245922Y-116350D02*
Y-111103D01*
X141106Y-165186D02*
X145829D01*
X143468Y-162825D02*
Y-167548D01*
X137150Y-185423D02*
X142397D01*
D11*
X-94949Y143630D02*
G03*
X-94949Y143630I-492J0D01*
G01*
X-216008Y134071D02*
G03*
X-216008Y134071I-492J0D01*
G01*
D12*
X-245510Y-33252D02*
X-174644D01*
Y213D01*
X-245510D02*
X-174644D01*
X-245510Y-33252D02*
Y213D01*
X-270965Y5646D02*
Y56433D01*
X-204035D01*
Y5252D02*
Y56433D01*
X-270965Y5252D02*
X-204035D01*
X-219457Y148126D02*
X-26543D01*
Y219386D01*
X-219457Y148126D02*
X-219063D01*
Y218992D01*
X256658Y-92961D02*
X276343D01*
X256658Y-22095D02*
X276343D01*
X256658Y-92961D02*
Y-22095D01*
X276343Y-92961D02*
Y-22095D01*
X116405Y135284D02*
Y170717D01*
X45539Y135284D02*
Y170717D01*
Y135284D02*
X116405D01*
X45539Y170717D02*
X116405D01*
X-171752Y-118545D02*
X-138287D01*
Y-189411D02*
Y-118545D01*
X-171752Y-189411D02*
X-138287Y-189411D01*
X-171752Y-118545D02*
X-171752Y-189411D01*
X256658Y-165405D02*
X276343D01*
X256658Y-94539D02*
X276343D01*
X256658Y-165405D02*
Y-94539D01*
X276343Y-165405D02*
Y-94539D01*
X98094Y-215843D02*
Y-196158D01*
X168961Y-215843D02*
Y-196158D01*
X98094D02*
X168961D01*
X98094Y-215843D02*
X168961D01*
X26539D02*
Y-196158D01*
X97405Y-215843D02*
Y-196158D01*
X26539D02*
X97405D01*
X26539Y-215843D02*
X97405D01*
X-222701Y-75874D02*
Y-60126D01*
X-273882Y-75874D02*
Y-60126D01*
Y-75874D02*
X-222701D01*
X-273882Y-60126D02*
X-222701D01*
X-219799Y-75874D02*
Y-60126D01*
X-168618Y-75874D02*
Y-60126D01*
X-219799D02*
X-168618D01*
X-219799Y-75874D02*
X-168618D01*
X113713Y-158969D02*
X113982Y-158872D01*
X114616Y-158945D01*
X114982Y-159116D01*
X115446Y-159555D01*
X115837Y-160628D01*
X115764Y-161263D01*
X115593Y-161629D01*
X115154Y-162093D01*
X114617Y-162288D01*
X113983Y-162215D01*
X112982Y-161971D01*
X109321Y-160264D01*
X110689Y-164022D01*
X117957Y-166453D02*
X116980Y-163769D01*
X114467Y-164380D01*
X114833Y-164550D01*
X115394Y-165258D01*
X115687Y-166063D01*
X115712Y-166966D01*
X115371Y-167699D01*
X114663Y-168260D01*
X114126Y-168456D01*
X113223Y-168480D01*
X112491Y-168139D01*
X111930Y-167431D01*
X111636Y-166626D01*
X111612Y-165723D01*
X111782Y-165357D01*
X112222Y-164893D01*
X118612Y-168252D02*
X113756Y-172451D01*
X120175Y-172547D02*
X113756Y-172451D01*
X-12713Y-199538D02*
X-12444Y-199441D01*
X-11810Y-199514D01*
X-11444Y-199684D01*
X-10980Y-200124D01*
X-10589Y-201197D01*
X-10662Y-201832D01*
X-10833Y-202198D01*
X-11272Y-202662D01*
X-11809Y-202857D01*
X-12443Y-202784D01*
X-13444Y-202540D01*
X-17105Y-200833D01*
X-15737Y-204591D01*
X-8469Y-207022D02*
X-9446Y-204338D01*
X-11959Y-204949D01*
X-11593Y-205119D01*
X-11032Y-205827D01*
X-10739Y-206632D01*
X-10714Y-207535D01*
X-11056Y-208267D01*
X-11763Y-208829D01*
X-12300Y-209024D01*
X-13203Y-209049D01*
X-13935Y-208708D01*
X-14497Y-208000D01*
X-14790Y-207195D01*
X-14815Y-206292D01*
X-14644Y-205926D01*
X-14205Y-205462D01*
X-7814Y-208821D02*
X-12670Y-213020D01*
X-6251Y-213115D02*
X-12670Y-213020D01*
X-78956Y-185401D02*
X-78614Y-184669D01*
X-78639Y-183766D01*
X-79030Y-182692D01*
X-79592Y-181984D01*
X-80324Y-181643D01*
X-80861Y-181838D01*
X-81300Y-182302D01*
X-81471Y-182668D01*
X-81543Y-183303D01*
X-81494Y-185109D01*
X-81567Y-185743D01*
X-81738Y-186109D01*
X-82177Y-186573D01*
X-82982Y-186866D01*
X-83715Y-186525D01*
X-84276Y-185817D01*
X-84667Y-184743D01*
X-84692Y-183841D01*
X-84350Y-183108D01*
X-77692Y-186369D02*
X-83328Y-188421D01*
X-80644Y-187444D02*
X-79546Y-187956D01*
X-79082Y-188395D01*
X-78789Y-189201D01*
X-78862Y-189835D01*
X-79570Y-190397D01*
X-82254Y-191374D01*
X-75884Y-191335D02*
X-76055Y-191701D01*
X-75689Y-191872D01*
X-75518Y-191506D01*
X-75884Y-191335D01*
X-77665Y-192288D02*
X-81423Y-193655D01*
X-78817Y-194135D02*
X-77644Y-197356D01*
X-77108Y-197161D01*
X-76668Y-196697D01*
X-76498Y-196331D01*
X-76425Y-195696D01*
X-76718Y-194891D01*
X-77182Y-194452D01*
X-77914Y-194111D01*
X-78817Y-194135D01*
X-79354Y-194331D01*
X-80061Y-194892D01*
X-80403Y-195624D01*
X-80476Y-196259D01*
X-80182Y-197064D01*
X-79719Y-197503D01*
X-78987Y-197845D01*
X-73715Y-197294D02*
X-79352Y-199346D01*
X-72113Y-201696D02*
X-77750Y-203748D01*
X-74797Y-202673D02*
X-74456Y-201941D01*
X-74383Y-201307D01*
X-74676Y-200501D01*
X-75140Y-200062D01*
X-75872Y-199721D01*
X-76775Y-199745D01*
X-77312Y-199941D01*
X-78019Y-200502D01*
X-78361Y-201235D01*
X-78434Y-201869D01*
X-78141Y-202674D01*
X-77677Y-203114D01*
X-76945Y-203455D01*
X183213Y-9111D02*
X177576Y-11163D01*
X183213Y-9111D02*
X178357Y-13311D01*
X184776Y-13406D02*
X178357Y-13311D01*
X184776Y-13406D02*
X179139Y-15458D01*
X185558Y-15554D02*
X185387Y-15920D01*
X185753Y-16091D01*
X185924Y-15724D01*
X185558Y-15554D01*
X183776Y-16506D02*
X180018Y-17874D01*
X187287Y-20305D02*
X181650Y-22356D01*
X184603Y-21282D02*
X184944Y-20550D01*
X185017Y-19915D01*
X184724Y-19110D01*
X184260Y-18671D01*
X183528Y-18329D01*
X182625Y-18354D01*
X182088Y-18549D01*
X181380Y-19111D01*
X181039Y-19843D01*
X180966Y-20478D01*
X181259Y-21283D01*
X181723Y-21722D01*
X182455Y-22063D01*
X189006Y-25029D02*
X183369Y-27081D01*
X186322Y-26006D02*
X186664Y-25274D01*
X186737Y-24639D01*
X186443Y-23834D01*
X185980Y-23395D01*
X185247Y-23054D01*
X184344Y-23078D01*
X183808Y-23273D01*
X183100Y-23835D01*
X182758Y-24567D01*
X182685Y-25202D01*
X182979Y-26007D01*
X183442Y-26446D01*
X184175Y-26788D01*
X189553Y-26532D02*
X183916Y-28584D01*
X186494Y-28984D02*
X187666Y-32205D01*
X188203Y-32009D01*
X188642Y-31545D01*
X188813Y-31179D01*
X188886Y-30545D01*
X188593Y-29739D01*
X188129Y-29300D01*
X187397Y-28959D01*
X186494Y-28984D01*
X185957Y-29179D01*
X185249Y-29740D01*
X184908Y-30473D01*
X184835Y-31107D01*
X185128Y-31912D01*
X185592Y-32352D01*
X186324Y-32693D01*
X-112448Y-153554D02*
X-112180Y-153457D01*
X-111545Y-153530D01*
X-111179Y-153700D01*
X-110715Y-154139D01*
X-110324Y-155213D01*
X-110397Y-155848D01*
X-110568Y-156214D01*
X-111007Y-156678D01*
X-111544Y-156873D01*
X-112179Y-156800D01*
X-113179Y-156556D01*
X-116841Y-154849D01*
X-115473Y-158607D01*
X-109181Y-158354D02*
X-108107Y-161307D01*
X-110840Y-160477D01*
X-110547Y-161283D01*
X-110620Y-161917D01*
X-110791Y-162284D01*
X-111498Y-162845D01*
X-112035Y-163040D01*
X-112938Y-163065D01*
X-113670Y-162724D01*
X-114232Y-162016D01*
X-114525Y-161211D01*
X-114550Y-160308D01*
X-114379Y-159942D01*
X-113940Y-159478D01*
X-106963Y-164447D02*
X-107525Y-163740D01*
X-108526Y-163496D01*
X-109966Y-163716D01*
X-110771Y-164009D01*
X-112015Y-164766D01*
X-112625Y-165596D01*
X-112600Y-166499D01*
X-112405Y-167036D01*
X-111844Y-167743D01*
X-110843Y-167987D01*
X-109403Y-167767D01*
X-108598Y-167474D01*
X-107353Y-166717D01*
X-106743Y-165887D01*
X-106768Y-164984D01*
X-106963Y-164447D01*
X-105723Y-167856D02*
X-110578Y-172055D01*
X-104159Y-172151D02*
X-110578Y-172055D01*
X156109Y-107705D02*
X156573Y-108144D01*
X157671Y-108656D01*
X152034Y-110708D01*
X159860Y-114669D02*
X158883Y-111985D01*
X156369Y-112596D01*
X156735Y-112767D01*
X157297Y-113474D01*
X157590Y-114279D01*
X157615Y-115182D01*
X157273Y-115915D01*
X156565Y-116476D01*
X156029Y-116672D01*
X155126Y-116696D01*
X154393Y-116355D01*
X153832Y-115647D01*
X153539Y-114842D01*
X153514Y-113939D01*
X153685Y-113573D01*
X154124Y-113109D01*
X160514Y-116468D02*
X155659Y-120667D01*
X162077Y-120762D02*
X155659Y-120667D01*
X56391Y-189953D02*
X50754Y-192004D01*
X56391Y-189953D02*
X51535Y-194151D01*
X57954Y-194247D02*
X51535Y-194151D01*
X57954Y-194247D02*
X52317Y-196299D01*
X58736Y-196395D02*
X58565Y-196761D01*
X58931Y-196932D01*
X59102Y-196565D01*
X58736Y-196395D01*
X56954Y-197347D02*
X53196Y-198715D01*
X60465Y-201146D02*
X54828Y-203198D01*
X57780Y-202123D02*
X58122Y-201391D01*
X58195Y-200756D01*
X57902Y-199951D01*
X57438Y-199512D01*
X56706Y-199170D01*
X55803Y-199195D01*
X55266Y-199390D01*
X54558Y-199952D01*
X54217Y-200684D01*
X54144Y-201319D01*
X54437Y-202124D01*
X54901Y-202563D01*
X55633Y-202904D01*
X62184Y-205870D02*
X56547Y-207922D01*
X59500Y-206847D02*
X59841Y-206115D01*
X59914Y-205480D01*
X59621Y-204675D01*
X59158Y-204236D01*
X58425Y-203894D01*
X57522Y-203919D01*
X56985Y-204115D01*
X56278Y-204676D01*
X55936Y-205408D01*
X55863Y-206043D01*
X56156Y-206848D01*
X56620Y-207287D01*
X57353Y-207629D01*
X62731Y-207373D02*
X57094Y-209425D01*
X59672Y-209824D02*
X60844Y-213046D01*
X61381Y-212850D01*
X61820Y-212386D01*
X61991Y-212020D01*
X62064Y-211386D01*
X61771Y-210580D01*
X61307Y-210141D01*
X60575Y-209800D01*
X59672Y-209824D01*
X59135Y-210020D01*
X58427Y-210581D01*
X58086Y-211314D01*
X58013Y-211948D01*
X58306Y-212754D01*
X58770Y-213193D01*
X59502Y-213534D01*
X-154948Y-95554D02*
X-154680Y-95457D01*
X-154045Y-95530D01*
X-153679Y-95700D01*
X-153215Y-96140D01*
X-152824Y-97213D01*
X-152897Y-97848D01*
X-153068Y-98214D01*
X-153507Y-98678D01*
X-154044Y-98873D01*
X-154679Y-98800D01*
X-155679Y-98556D01*
X-159341Y-96849D01*
X-157973Y-100607D01*
X-151681Y-100354D02*
X-150607Y-103306D01*
X-153340Y-102478D01*
X-153047Y-103283D01*
X-153120Y-103917D01*
X-153291Y-104283D01*
X-153998Y-104845D01*
X-154535Y-105040D01*
X-155438Y-105065D01*
X-156170Y-104724D01*
X-156732Y-104016D01*
X-157025Y-103211D01*
X-157050Y-102308D01*
X-156879Y-101942D01*
X-156440Y-101478D01*
X-149463Y-106447D02*
X-150025Y-105739D01*
X-151026Y-105496D01*
X-152465Y-105716D01*
X-153271Y-106009D01*
X-154515Y-106766D01*
X-155125Y-107596D01*
X-155100Y-108499D01*
X-154905Y-109036D01*
X-154343Y-109743D01*
X-153343Y-109987D01*
X-151903Y-109767D01*
X-151098Y-109474D01*
X-149853Y-108717D01*
X-149243Y-107887D01*
X-149268Y-106984D01*
X-149463Y-106447D01*
X-148223Y-109856D02*
X-153078Y-114055D01*
X-146660Y-114151D02*
X-153078Y-114055D01*
X172552Y24389D02*
X173016Y23950D01*
X174114Y23438D01*
X168477Y21386D01*
X176302Y17425D02*
X175325Y20109D01*
X172812Y19498D01*
X173178Y19327D01*
X173740Y18620D01*
X174033Y17815D01*
X174057Y16912D01*
X173716Y16179D01*
X173008Y15618D01*
X172471Y15423D01*
X171569Y15398D01*
X170836Y15739D01*
X170275Y16447D01*
X169982Y17252D01*
X169957Y18155D01*
X170128Y18521D01*
X170567Y18985D01*
X176957Y15626D02*
X172102Y11427D01*
X178520Y11332D02*
X172102Y11427D01*
X147296Y80962D02*
X146319Y83646D01*
X143805Y83035D01*
X144171Y82865D01*
X144733Y82157D01*
X145026Y81352D01*
X145051Y80449D01*
X144709Y79716D01*
X144002Y79155D01*
X143465Y78960D01*
X142562Y78935D01*
X141830Y79276D01*
X141268Y79984D01*
X140975Y80789D01*
X140950Y81692D01*
X141121Y82058D01*
X141560Y82522D01*
X147950Y79163D02*
X143095Y74964D01*
X149514Y74869D02*
X143095Y74964D01*
X90999Y-192498D02*
X85001D01*
Y-189499D01*
X86001Y-188499D01*
X88000D01*
X89000Y-189499D01*
Y-192498D01*
Y-190498D02*
X90999Y-188499D01*
Y-186500D02*
Y-184500D01*
Y-185500D01*
X85001D01*
X86001Y-186500D01*
X85001Y-177502D02*
Y-181501D01*
X88000D01*
X87000Y-179502D01*
Y-178502D01*
X88000Y-177502D01*
X89999D01*
X90999Y-178502D01*
Y-180501D01*
X89999Y-181501D01*
X119499Y-191998D02*
X113501D01*
Y-188999D01*
X114501Y-187999D01*
X116500D01*
X117500Y-188999D01*
Y-191998D01*
Y-189998D02*
X119499Y-187999D01*
Y-186000D02*
Y-184000D01*
Y-185000D01*
X113501D01*
X114501Y-186000D01*
X119499Y-178002D02*
X113501D01*
X116500Y-181001D01*
Y-177002D01*
X-23999Y203001D02*
Y208999D01*
X-21000D01*
X-20000Y207999D01*
Y206000D01*
X-21000Y205000D01*
X-23999D01*
X-18001Y203001D02*
X-16001D01*
X-17001D01*
Y208999D01*
X-18001Y207999D01*
X144002Y171001D02*
Y176999D01*
X147001D01*
X148000Y175999D01*
Y174000D01*
X147001Y173000D01*
X144002D01*
X146001D02*
X148000Y171001D01*
X153998D02*
X150000D01*
X153998Y175000D01*
Y175999D01*
X152999Y176999D01*
X150999D01*
X150000Y175999D01*
X-196497Y34999D02*
X-197497Y35999D01*
X-199496D01*
X-200496Y34999D01*
Y34000D01*
X-199496Y33000D01*
X-197497D01*
X-196497Y32000D01*
Y31001D01*
X-197497Y30001D01*
X-199496D01*
X-200496Y31001D01*
X-194498Y35999D02*
X-192499D01*
X-193498D01*
Y30001D01*
X-194498D01*
X-192499D01*
X-186501Y35999D02*
X-188500D01*
X-189499Y34999D01*
Y31001D01*
X-188500Y30001D01*
X-186501D01*
X-185501Y31001D01*
Y34999D01*
X-186501Y35999D01*
X-183501D02*
Y32000D01*
X-181502Y30001D01*
X-179503Y32000D01*
Y35999D01*
X-177503Y30001D02*
X-175504D01*
X-176504D01*
Y35999D01*
X-177503Y34999D01*
X-179999Y-50999D02*
Y-45001D01*
X-177000D01*
X-176000Y-46001D01*
Y-48000D01*
X-177000Y-49000D01*
X-179999D01*
X-177999D02*
X-176000Y-50999D01*
X-174001D02*
X-172001D01*
X-173001D01*
Y-45001D01*
X-174001Y-46001D01*
X-261994Y-141001D02*
Y-146999D01*
X-257995D01*
X-255996Y-147999D02*
X-251997D01*
X-249998Y-146999D02*
Y-141001D01*
X-246999D01*
X-245999Y-142001D01*
Y-144000D01*
X-246999Y-145000D01*
X-249998D01*
X-247998D02*
X-245999Y-146999D01*
X-240001Y-141001D02*
X-244000D01*
Y-144000D01*
X-242000D01*
X-244000D01*
Y-146999D01*
X-238001Y-141001D02*
X-236002D01*
X-237002D01*
Y-146999D01*
X-238001D01*
X-236002D01*
X-233003Y-147999D02*
X-229004D01*
X-223006Y-146999D02*
X-227005D01*
X-223006Y-143000D01*
Y-142001D01*
X-224006Y-141001D01*
X-226005D01*
X-227005Y-142001D01*
X-181494Y126499D02*
Y120501D01*
X-177495D01*
X-175496Y119501D02*
X-171497D01*
X-169498Y120501D02*
Y126499D01*
X-166499D01*
X-165499Y125499D01*
Y123500D01*
X-166499Y122500D01*
X-169498D01*
X-167499D02*
X-165499Y120501D01*
X-159501Y126499D02*
X-163500D01*
Y123500D01*
X-161501D01*
X-163500D01*
Y120501D01*
X-157502Y126499D02*
X-155502D01*
X-156502D01*
Y120501D01*
X-157502D01*
X-155502D01*
X-152503Y119501D02*
X-148505D01*
X-146505Y120501D02*
X-144506D01*
X-145506D01*
Y126499D01*
X-146505Y125499D01*
X49000Y209499D02*
X47001D01*
X48001D01*
Y204501D01*
X47001Y203501D01*
X46001D01*
X45002Y204501D01*
X51000Y208499D02*
X51999Y209499D01*
X53999D01*
X54998Y208499D01*
Y207500D01*
X53999Y206500D01*
X52999D01*
X53999D01*
X54998Y205500D01*
Y204501D01*
X53999Y203501D01*
X51999D01*
X51000Y204501D01*
X-110441Y140058D02*
X-112440D01*
X-111440D01*
Y135060D01*
X-112440Y134060D01*
X-113440D01*
X-114439Y135060D01*
X-104443Y134060D02*
X-108441D01*
X-104443Y138059D01*
Y139058D01*
X-105442Y140058D01*
X-107442D01*
X-108441Y139058D01*
X-202500Y128999D02*
X-204499D01*
X-203500D01*
Y124001D01*
X-204499Y123001D01*
X-205499D01*
X-206499Y124001D01*
X-200501Y123001D02*
X-198501D01*
X-199501D01*
Y128999D01*
X-200501Y127999D01*
X-252000Y128999D02*
X-255999D01*
Y126000D01*
X-253999D01*
X-255999D01*
Y123001D01*
X-250001D02*
X-248001D01*
X-249001D01*
Y128999D01*
X-250001Y127999D01*
X144499Y-170502D02*
X138501D01*
Y-173501D01*
X139501Y-174500D01*
X143499D01*
X144499Y-173501D01*
Y-170502D01*
X138501Y-180498D02*
Y-176500D01*
X142500Y-180498D01*
X143499D01*
X144499Y-179499D01*
Y-177499D01*
X143499Y-176500D01*
X233001Y-107501D02*
Y-113499D01*
X236000D01*
X237000Y-112499D01*
Y-108501D01*
X236000Y-107501D01*
X233001D01*
X238999Y-113499D02*
X240999D01*
X239999D01*
Y-107501D01*
X238999Y-108501D01*
X213265Y-56501D02*
X212265Y-55501D01*
X210266D01*
X209266Y-56501D01*
Y-60499D01*
X210266Y-61499D01*
X212265D01*
X213265Y-60499D01*
X215264Y-61499D02*
X217264D01*
X216264D01*
Y-55501D01*
X215264Y-56501D01*
X220263D02*
X221262Y-55501D01*
X223262D01*
X224261Y-56501D01*
Y-60499D01*
X223262Y-61499D01*
X221262D01*
X220263Y-60499D01*
Y-56501D01*
X188000Y-143001D02*
X187001Y-142001D01*
X185001D01*
X184002Y-143001D01*
Y-146999D01*
X185001Y-147999D01*
X187001D01*
X188000Y-146999D01*
X190000D02*
X190999Y-147999D01*
X192999D01*
X193998Y-146999D01*
Y-143001D01*
X192999Y-142001D01*
X190999D01*
X190000Y-143001D01*
Y-144000D01*
X190999Y-145000D01*
X193998D01*
X263500Y121499D02*
X262501Y122499D01*
X260501D01*
X259502Y121499D01*
Y117501D01*
X260501Y116501D01*
X262501D01*
X263500Y117501D01*
X265500Y121499D02*
X266499Y122499D01*
X268499D01*
X269498Y121499D01*
Y120500D01*
X268499Y119500D01*
X269498Y118500D01*
Y117501D01*
X268499Y116501D01*
X266499D01*
X265500Y117501D01*
Y118500D01*
X266499Y119500D01*
X265500Y120500D01*
Y121499D01*
X266499Y119500D02*
X268499D01*
X261500Y47499D02*
X260501Y48499D01*
X258501D01*
X257502Y47499D01*
Y43501D01*
X258501Y42501D01*
X260501D01*
X261500Y43501D01*
X263500Y48499D02*
X267498D01*
Y47499D01*
X263500Y43501D01*
Y42501D01*
X198000Y152499D02*
X197001Y153499D01*
X195001D01*
X194002Y152499D01*
Y148501D01*
X195001Y147501D01*
X197001D01*
X198000Y148501D01*
X203998Y153499D02*
X201999Y152499D01*
X200000Y150500D01*
Y148501D01*
X200999Y147501D01*
X202999D01*
X203998Y148501D01*
Y149500D01*
X202999Y150500D01*
X200000D01*
X49500Y178999D02*
X48501Y179999D01*
X46501D01*
X45502Y178999D01*
Y175001D01*
X46501Y174001D01*
X48501D01*
X49500Y175001D01*
X55498Y179999D02*
X51500D01*
Y177000D01*
X53499Y178000D01*
X54499D01*
X55498Y177000D01*
Y175001D01*
X54499Y174001D01*
X52499D01*
X51500Y175001D01*
X62445Y-203501D02*
X61445Y-202501D01*
X59446D01*
X58447Y-203501D01*
Y-207499D01*
X59446Y-208499D01*
X61445D01*
X62445Y-207499D01*
X67444Y-208499D02*
Y-202501D01*
X64445Y-205500D01*
X68443D01*
X-258497Y-66501D02*
X-259496Y-65501D01*
X-261496D01*
X-262495Y-66501D01*
Y-70499D01*
X-261496Y-71499D01*
X-259496D01*
X-258497Y-70499D01*
X-253498Y-71499D02*
Y-65501D01*
X-256497Y-68500D01*
X-252499D01*
X-250499Y-72499D02*
X-246501D01*
X-244501Y-65501D02*
Y-66501D01*
X-242502Y-68500D01*
X-240503Y-66501D01*
Y-65501D01*
X-242502Y-68500D02*
Y-71499D01*
X-234505D02*
X-238503D01*
X-234505Y-67501D01*
Y-66501D01*
X-235504Y-65501D01*
X-237504D01*
X-238503Y-66501D01*
X133000Y-204501D02*
X132001Y-203501D01*
X130001D01*
X129002Y-204501D01*
Y-208499D01*
X130001Y-209499D01*
X132001D01*
X133000Y-208499D01*
X135000Y-204501D02*
X135999Y-203501D01*
X137999D01*
X138998Y-204501D01*
Y-205500D01*
X137999Y-206500D01*
X136999D01*
X137999D01*
X138998Y-207500D01*
Y-208499D01*
X137999Y-209499D01*
X135999D01*
X135000Y-208499D01*
X268499Y-127500D02*
X269499Y-126501D01*
Y-124501D01*
X268499Y-123502D01*
X264501D01*
X263501Y-124501D01*
Y-126501D01*
X264501Y-127500D01*
X263501Y-133498D02*
Y-129500D01*
X267500Y-133498D01*
X268499D01*
X269499Y-132499D01*
Y-130499D01*
X268499Y-129500D01*
X-198497Y-173501D02*
X-199496Y-172501D01*
X-201496D01*
X-202496Y-173501D01*
Y-177499D01*
X-201496Y-178499D01*
X-199496D01*
X-198497Y-177499D01*
X-192499Y-178499D02*
X-196497D01*
X-192499Y-174501D01*
Y-173501D01*
X-193498Y-172501D01*
X-195498D01*
X-196497Y-173501D01*
X-190499Y-179499D02*
X-186501D01*
X-184501Y-172501D02*
X-180503Y-178499D01*
Y-172501D02*
X-184501Y-178499D01*
X-174504D02*
X-178503D01*
X-174504Y-174501D01*
Y-173501D01*
X-175504Y-172501D01*
X-177504D01*
X-178503Y-173501D01*
X269499Y-58000D02*
X270499Y-57000D01*
Y-55001D01*
X269499Y-54001D01*
X265501D01*
X264501Y-55001D01*
Y-57000D01*
X265501Y-58000D01*
X264501Y-59999D02*
Y-61999D01*
Y-60999D01*
X270499D01*
X269499Y-59999D01*
X-187997Y9999D02*
X-188997Y10999D01*
X-190996D01*
X-191996Y9999D01*
Y6001D01*
X-190996Y5001D01*
X-188997D01*
X-187997Y6001D01*
X-185998Y5001D02*
X-183998D01*
X-184998D01*
Y10999D01*
X-185998Y9999D01*
X-180999Y4001D02*
X-177000D01*
X-175001Y10999D02*
X-171002Y5001D01*
Y10999D02*
X-175001Y5001D01*
X-165004D02*
X-169003D01*
X-165004Y8999D01*
Y9999D01*
X-166004Y10999D01*
X-168003D01*
X-169003Y9999D01*
D13*
X100130Y174323D02*
X102098D01*
X101114D01*
Y180227D01*
X100130Y179243D01*
X177284D02*
X178267Y180227D01*
X180235D01*
X181219Y179243D01*
Y178259D01*
X180235Y177275D01*
X181219Y176291D01*
Y175307D01*
X180235Y174323D01*
X178267D01*
X177284Y175307D01*
Y176291D01*
X178267Y177275D01*
X177284Y178259D01*
Y179243D01*
X178267Y177275D02*
X180235D01*
X167571Y211724D02*
X169539D01*
X168555D01*
Y217628D01*
X167571Y216644D01*
X176426Y217628D02*
X172491D01*
Y214676D01*
X174458Y215660D01*
X175442D01*
X176426Y214676D01*
Y212708D01*
X175442Y211724D01*
X173475D01*
X172491Y212708D01*
X104598D02*
X105582Y211724D01*
X107550D01*
X108534Y212708D01*
Y216644D01*
X107550Y217628D01*
X105582D01*
X104598Y216644D01*
Y215660D01*
X105582Y214676D01*
X108534D01*
D14*
X-4495Y158871D02*
X6000D01*
X752D01*
Y143129D01*
X11248D02*
X16495D01*
X13871D01*
Y158871D01*
X11248Y156248D01*
M02*
