G04*
G04 #@! TF.GenerationSoftware,Altium Limited,Altium Designer,21.8.1 (53)*
G04*
G04 Layer_Color=8388736*
%FSLAX25Y25*%
%MOIN*%
G70*
G04*
G04 #@! TF.SameCoordinates,BA8C8D60-F292-4EEE-BDFD-628FF9351DC8*
G04*
G04*
G04 #@! TF.FilePolarity,Negative*
G04*
G01*
G75*
%ADD16R,0.05328X0.07887*%
%ADD17C,0.22847*%
%ADD18C,0.11233*%
%ADD19C,0.07887*%
%ADD20R,0.07887X0.07887*%
G04:AMPARAMS|DCode=21|XSize=106.42mil|YSize=106.42mil|CornerRadius=28.61mil|HoleSize=0mil|Usage=FLASHONLY|Rotation=180.000|XOffset=0mil|YOffset=0mil|HoleType=Round|Shape=RoundedRectangle|*
%AMROUNDEDRECTD21*
21,1,0.10642,0.04921,0,0,180.0*
21,1,0.04921,0.10642,0,0,180.0*
1,1,0.05721,-0.02461,0.02461*
1,1,0.05721,0.02461,0.02461*
1,1,0.05721,0.02461,-0.02461*
1,1,0.05721,-0.02461,-0.02461*
%
%ADD21ROUNDEDRECTD21*%
%ADD22C,0.10642*%
G04:AMPARAMS|DCode=23|XSize=106.42mil|YSize=106.42mil|CornerRadius=28.61mil|HoleSize=0mil|Usage=FLASHONLY|Rotation=90.000|XOffset=0mil|YOffset=0mil|HoleType=Round|Shape=RoundedRectangle|*
%AMROUNDEDRECTD23*
21,1,0.10642,0.04921,0,0,90.0*
21,1,0.04921,0.10642,0,0,90.0*
1,1,0.05721,0.02461,0.02461*
1,1,0.05721,0.02461,-0.02461*
1,1,0.05721,-0.02461,-0.02461*
1,1,0.05721,-0.02461,0.02461*
%
%ADD23ROUNDEDRECTD23*%
%ADD24C,0.12611*%
G04:AMPARAMS|DCode=25|XSize=86.74mil|YSize=86.74mil|CornerRadius=23.68mil|HoleSize=0mil|Usage=FLASHONLY|Rotation=90.000|XOffset=0mil|YOffset=0mil|HoleType=Round|Shape=RoundedRectangle|*
%AMROUNDEDRECTD25*
21,1,0.08674,0.03937,0,0,90.0*
21,1,0.03937,0.08674,0,0,90.0*
1,1,0.04737,0.01968,0.01968*
1,1,0.04737,0.01968,-0.01968*
1,1,0.04737,-0.01968,-0.01968*
1,1,0.04737,-0.01968,0.01968*
%
%ADD25ROUNDEDRECTD25*%
%ADD26C,0.07493*%
G04:AMPARAMS|DCode=27|XSize=86.74mil|YSize=86.74mil|CornerRadius=23.68mil|HoleSize=0mil|Usage=FLASHONLY|Rotation=180.000|XOffset=0mil|YOffset=0mil|HoleType=Round|Shape=RoundedRectangle|*
%AMROUNDEDRECTD27*
21,1,0.08674,0.03937,0,0,180.0*
21,1,0.03937,0.08674,0,0,180.0*
1,1,0.04737,-0.01968,0.01968*
1,1,0.04737,0.01968,0.01968*
1,1,0.04737,0.01968,-0.01968*
1,1,0.04737,-0.01968,-0.01968*
%
%ADD27ROUNDEDRECTD27*%
G04:AMPARAMS|DCode=28|XSize=78.87mil|YSize=78.87mil|CornerRadius=21.72mil|HoleSize=0mil|Usage=FLASHONLY|Rotation=180.000|XOffset=0mil|YOffset=0mil|HoleType=Round|Shape=RoundedRectangle|*
%AMROUNDEDRECTD28*
21,1,0.07887,0.03543,0,0,180.0*
21,1,0.03543,0.07887,0,0,180.0*
1,1,0.04343,-0.01772,0.01772*
1,1,0.04343,0.01772,0.01772*
1,1,0.04343,0.01772,-0.01772*
1,1,0.04343,-0.01772,-0.01772*
%
%ADD28ROUNDEDRECTD28*%
%ADD29R,0.07453X0.07453*%
%ADD30C,0.07453*%
%ADD31C,0.19698*%
D16*
X142791Y164500D02*
D03*
X154209D02*
D03*
D17*
X-42760Y185248D02*
D03*
X-200240D02*
D03*
D18*
X-157484Y147256D02*
D03*
X-121500Y147256D02*
D03*
X-85516Y147256D02*
D03*
D19*
X149472Y121500D02*
D03*
X226000Y-102000D02*
D03*
X246000D02*
D03*
Y-122000D02*
D03*
X226000D02*
D03*
X215972Y14000D02*
D03*
X202000Y-58500D02*
D03*
X246000Y88000D02*
D03*
X204528Y-145000D02*
D03*
X151500Y-165500D02*
D03*
Y-185500D02*
D03*
X131500D02*
D03*
Y-165500D02*
D03*
D20*
X179000Y121500D02*
D03*
X245500Y14000D02*
D03*
X231528Y-58500D02*
D03*
X216472Y88000D02*
D03*
X175000Y-145000D02*
D03*
D21*
X-260000Y-130370D02*
D03*
Y-91000D02*
D03*
X-186181D02*
D03*
Y-130370D02*
D03*
X110500Y153000D02*
D03*
X51445Y153000D02*
D03*
X163055Y-206000D02*
D03*
X104000D02*
D03*
X91500D02*
D03*
X32445D02*
D03*
D22*
X-156281Y-88248D02*
D03*
X-121217Y-146031D02*
D03*
X-66710Y-185998D02*
D03*
X-1056Y-202063D02*
D03*
X65748Y-191781D02*
D03*
X123531Y-156717D02*
D03*
X163498Y-102209D02*
D03*
X179563Y-36556D02*
D03*
X169281Y30248D02*
D03*
X134217Y88031D02*
D03*
X79710Y127998D02*
D03*
D23*
X266500Y-28000D02*
D03*
Y-87055D02*
D03*
Y-100445D02*
D03*
Y-159500D02*
D03*
D24*
X-182500Y-153000D02*
D03*
X-259000Y-148500D02*
D03*
X-252000Y67500D02*
D03*
Y158051D02*
D03*
X-217000Y69130D02*
D03*
Y108500D02*
D03*
X-165819Y69130D02*
D03*
Y108500D02*
D03*
D25*
X-155000Y-124500D02*
D03*
Y-183555D02*
D03*
D26*
X-188500Y-47500D02*
D03*
X-268500D02*
D03*
D27*
X-257370Y36500D02*
D03*
X-237685D02*
D03*
X-218000D02*
D03*
X-265555Y-17500D02*
D03*
X-206500D02*
D03*
D28*
X-268370Y-68000D02*
D03*
X-229000D02*
D03*
X-174130D02*
D03*
X-213500D02*
D03*
D29*
X101114Y188319D02*
D03*
D30*
X106567Y199500D02*
D03*
X112020Y188319D02*
D03*
X117473Y199500D02*
D03*
X122925Y188319D02*
D03*
X128378Y199500D02*
D03*
X133831Y188319D02*
D03*
X139284Y199500D02*
D03*
X144736Y188319D02*
D03*
X150189Y199500D02*
D03*
X155642Y188319D02*
D03*
X161094Y199500D02*
D03*
X166547Y188319D02*
D03*
X172000Y199500D02*
D03*
X177453Y188319D02*
D03*
D31*
X73693Y193910D02*
D03*
X204874D02*
D03*
M02*
