G04*
G04 #@! TF.GenerationSoftware,Altium Limited,Altium Designer,22.4.2 (48)*
G04*
G04 Layer_Physical_Order=4*
G04 Layer_Color=16711680*
%FSLAX25Y25*%
%MOIN*%
G70*
G04*
G04 #@! TF.SameCoordinates,939BD4DC-2458-4117-AFF9-AB81820ED622*
G04*
G04*
G04 #@! TF.FilePolarity,Positive*
G04*
G01*
G75*
%ADD36C,0.01000*%
%ADD38C,0.01614*%
%ADD39C,0.01575*%
%ADD40C,0.23622*%
%ADD41C,0.03543*%
G36*
X136683Y-136683D02*
X-136683D01*
Y136683D01*
X136683D01*
Y-136683D01*
D02*
G37*
%LPC*%
G36*
X119086Y130512D02*
X117134D01*
X115206Y130206D01*
X113350Y129603D01*
X111610Y128717D01*
X110031Y127570D01*
X108651Y126189D01*
X107503Y124610D01*
X106617Y122871D01*
X106014Y121014D01*
X105709Y119086D01*
Y117134D01*
X106014Y115206D01*
X106617Y113350D01*
X107503Y111610D01*
X108651Y110031D01*
X110031Y108651D01*
X111610Y107503D01*
X113350Y106617D01*
X115206Y106014D01*
X117134Y105709D01*
X119086D01*
X121014Y106014D01*
X122871Y106617D01*
X124610Y107503D01*
X126189Y108651D01*
X127570Y110031D01*
X128717Y111610D01*
X129603Y113350D01*
X130206Y115206D01*
X130512Y117134D01*
Y119086D01*
X130206Y121014D01*
X129603Y122871D01*
X128717Y124610D01*
X127570Y126189D01*
X126189Y127570D01*
X124610Y128717D01*
X122871Y129603D01*
X121014Y130206D01*
X119086Y130512D01*
D02*
G37*
G36*
X-117134D02*
X-119086D01*
X-121014Y130206D01*
X-122871Y129603D01*
X-124610Y128717D01*
X-126189Y127570D01*
X-127570Y126189D01*
X-128717Y124610D01*
X-129603Y122871D01*
X-130206Y121014D01*
X-130512Y119086D01*
Y117134D01*
X-130206Y115206D01*
X-129603Y113350D01*
X-128717Y111610D01*
X-127570Y110031D01*
X-126189Y108651D01*
X-124610Y107503D01*
X-122871Y106617D01*
X-121014Y106014D01*
X-119086Y105709D01*
X-117134D01*
X-115206Y106014D01*
X-113350Y106617D01*
X-111610Y107503D01*
X-110031Y108651D01*
X-108651Y110031D01*
X-107503Y111610D01*
X-106617Y113350D01*
X-106014Y115206D01*
X-105709Y117134D01*
Y119086D01*
X-106014Y121014D01*
X-106617Y122871D01*
X-107503Y124610D01*
X-108651Y126189D01*
X-110031Y127570D01*
X-111610Y128717D01*
X-113350Y129603D01*
X-115206Y130206D01*
X-117134Y130512D01*
D02*
G37*
G36*
X1308Y6966D02*
X-1714D01*
X-2840Y6742D01*
X-3901Y6303D01*
X-4855Y5665D01*
X-5667Y4853D01*
X-6305Y3898D01*
X-6745Y2837D01*
X-6969Y1711D01*
Y1137D01*
Y-156D01*
Y-830D01*
X-6706Y-2152D01*
X-6190Y-3398D01*
X-5441Y-4519D01*
X-4488Y-5472D01*
X-3367Y-6221D01*
X-2121Y-6737D01*
X-799Y-7000D01*
X689D01*
X2042Y-6731D01*
X3316Y-6203D01*
X4462Y-5437D01*
X5437Y-4462D01*
X6203Y-3316D01*
X6731Y-2042D01*
X7000Y-689D01*
Y0D01*
Y652D01*
Y1274D01*
X6757Y2494D01*
X6281Y3643D01*
X5590Y4677D01*
X4711Y5557D01*
X3677Y6248D01*
X2528Y6724D01*
X1308Y6966D01*
D02*
G37*
G36*
X119086Y-105709D02*
X117134D01*
X115206Y-106014D01*
X113350Y-106617D01*
X111610Y-107503D01*
X110031Y-108651D01*
X108651Y-110031D01*
X107503Y-111610D01*
X106617Y-113350D01*
X106014Y-115206D01*
X105709Y-117134D01*
Y-119086D01*
X106014Y-121014D01*
X106617Y-122871D01*
X107503Y-124610D01*
X108651Y-126189D01*
X110031Y-127570D01*
X111610Y-128717D01*
X113350Y-129603D01*
X115206Y-130206D01*
X117134Y-130512D01*
X119086D01*
X121014Y-130206D01*
X122871Y-129603D01*
X124610Y-128717D01*
X126189Y-127570D01*
X127570Y-126189D01*
X128717Y-124610D01*
X129603Y-122871D01*
X130206Y-121014D01*
X130512Y-119086D01*
Y-117134D01*
X130206Y-115206D01*
X129603Y-113350D01*
X128717Y-111610D01*
X127570Y-110031D01*
X126189Y-108651D01*
X124610Y-107503D01*
X122871Y-106617D01*
X121014Y-106014D01*
X119086Y-105709D01*
D02*
G37*
G36*
X-117134D02*
X-119086D01*
X-121014Y-106014D01*
X-122871Y-106617D01*
X-124610Y-107503D01*
X-126189Y-108651D01*
X-127570Y-110031D01*
X-128717Y-111610D01*
X-129603Y-113350D01*
X-130206Y-115206D01*
X-130512Y-117134D01*
Y-119086D01*
X-130206Y-121014D01*
X-129603Y-122871D01*
X-128717Y-124610D01*
X-127570Y-126189D01*
X-126189Y-127570D01*
X-124610Y-128717D01*
X-122871Y-129603D01*
X-121014Y-130206D01*
X-119086Y-130512D01*
X-117134D01*
X-115206Y-130206D01*
X-113350Y-129603D01*
X-111610Y-128717D01*
X-110031Y-127570D01*
X-108651Y-126189D01*
X-107503Y-124610D01*
X-106617Y-122871D01*
X-106014Y-121014D01*
X-105709Y-119086D01*
Y-117134D01*
X-106014Y-115206D01*
X-106617Y-113350D01*
X-107503Y-111610D01*
X-108651Y-110031D01*
X-110031Y-108651D01*
X-111610Y-107503D01*
X-113350Y-106617D01*
X-115206Y-106014D01*
X-117134Y-105709D01*
D02*
G37*
%LPD*%
D36*
X-137795Y-137795D02*
X137795D01*
X-137795Y137795D02*
X137795D01*
Y-137795D02*
Y137795D01*
X-137795Y-137795D02*
Y137795D01*
D38*
X-1375Y-28508D02*
D03*
X-1769Y-30073D02*
D03*
X-2063Y-31660D02*
D03*
Y-33275D02*
D03*
X4061Y-33379D02*
D03*
X4063Y-31765D02*
D03*
X3832Y-30168D02*
D03*
X3375Y-28620D02*
D03*
X3581Y-27018D02*
D03*
X3487Y-25407D02*
D03*
X-2810Y-60492D02*
D03*
Y-62106D02*
D03*
X-3314Y-63640D02*
D03*
X-3563Y-65234D02*
D03*
Y-66849D02*
D03*
X2560Y-66963D02*
D03*
X2563Y-65349D02*
D03*
X2384Y-63744D02*
D03*
X1940Y-62192D02*
D03*
Y-60578D02*
D03*
X2211Y-58987D02*
D03*
X2117Y-57376D02*
D03*
X-3563Y-69663D02*
D03*
X-3376Y-71267D02*
D03*
X-2970Y-72829D02*
D03*
X-3064Y-79035D02*
D03*
X-4016Y-80338D02*
D03*
X-5386Y-86220D02*
D03*
Y-87835D02*
D03*
X-4788Y-89334D02*
D03*
X-3253Y-89835D02*
D03*
X-1639D02*
D03*
X-25D02*
D03*
X1589D02*
D03*
X3188Y-89614D02*
D03*
X4141Y-88311D02*
D03*
X4205Y-86698D02*
D03*
X3262Y-80514D02*
D03*
X1686Y-80163D02*
D03*
X1755Y-78550D02*
D03*
X2335Y-77044D02*
D03*
Y-75430D02*
D03*
X2039Y-73843D02*
D03*
X1781Y-72249D02*
D03*
X2501Y-70805D02*
D03*
D39*
X1564Y8191D02*
D03*
X-1423Y8203D02*
D03*
X-3286Y7649D02*
D03*
X-4972Y6683D02*
D03*
X-6391Y5357D02*
D03*
X-7481Y3712D02*
D03*
X-8125Y1889D02*
D03*
X-8345Y-43D02*
D03*
X-8106Y-1995D02*
D03*
X-7413Y-3810D02*
D03*
X-6323Y-5419D02*
D03*
X-5032Y-6611D02*
D03*
X-4010Y-7861D02*
D03*
X-3150Y-23425D02*
D03*
Y-27756D02*
D03*
Y-25197D02*
D03*
X3279Y-23471D02*
D03*
X4684Y-6909D02*
D03*
X6163Y-5628D02*
D03*
X7283Y-4065D02*
D03*
X8047Y-2241D02*
D03*
X8333Y-319D02*
D03*
X8171Y1617D02*
D03*
X7570Y3465D02*
D03*
X6560Y5126D02*
D03*
X5197Y6511D02*
D03*
X3554Y7547D02*
D03*
X-2404Y-7698D02*
D03*
Y-9273D02*
D03*
Y-10848D02*
D03*
X-3120Y-12250D02*
D03*
X-3173Y-13824D02*
D03*
X-2901Y-15376D02*
D03*
X-2404Y-16870D02*
D03*
Y-18445D02*
D03*
Y-20019D02*
D03*
X-2603Y-21582D02*
D03*
X2415Y-22145D02*
D03*
X2274Y-20577D02*
D03*
Y-19002D02*
D03*
Y-17427D02*
D03*
Y-15852D02*
D03*
X2409Y-14283D02*
D03*
Y-12708D02*
D03*
X2274Y-11139D02*
D03*
Y-9565D02*
D03*
Y-7990D02*
D03*
X-2043Y-36529D02*
D03*
X-1659Y-38056D02*
D03*
X-1024Y-39497D02*
D03*
X3159Y-43419D02*
D03*
X3793Y-41977D02*
D03*
X3686Y-40406D02*
D03*
Y-38831D02*
D03*
X3985Y-37285D02*
D03*
X4043Y-35711D02*
D03*
X-4134Y-54331D02*
D03*
X-3740Y-50197D02*
D03*
Y-47835D02*
D03*
X-3686Y-52009D02*
D03*
X1061Y-54163D02*
D03*
X1024Y-52589D02*
D03*
Y-51014D02*
D03*
Y-49439D02*
D03*
Y-47865D02*
D03*
D40*
X-118110Y-118110D02*
D03*
X118110D02*
D03*
Y118110D02*
D03*
X-118110D02*
D03*
D41*
X123618Y93752D02*
D03*
Y81941D02*
D03*
Y70130D02*
D03*
Y58319D02*
D03*
Y46508D02*
D03*
Y34697D02*
D03*
Y22886D02*
D03*
Y11075D02*
D03*
Y-736D02*
D03*
Y-12547D02*
D03*
Y-24358D02*
D03*
Y-36169D02*
D03*
Y-47980D02*
D03*
Y-59791D02*
D03*
Y-71602D02*
D03*
Y-83413D02*
D03*
Y-95224D02*
D03*
X111807Y93752D02*
D03*
Y81941D02*
D03*
Y70130D02*
D03*
Y58319D02*
D03*
Y46508D02*
D03*
Y34697D02*
D03*
Y22886D02*
D03*
Y11075D02*
D03*
Y-736D02*
D03*
Y-12547D02*
D03*
Y-24358D02*
D03*
Y-36169D02*
D03*
Y-47980D02*
D03*
Y-59791D02*
D03*
Y-71602D02*
D03*
Y-83413D02*
D03*
Y-95224D02*
D03*
X99996Y129185D02*
D03*
Y117374D02*
D03*
Y105563D02*
D03*
Y93752D02*
D03*
Y81941D02*
D03*
Y70130D02*
D03*
Y58319D02*
D03*
Y46508D02*
D03*
Y34697D02*
D03*
Y22886D02*
D03*
Y11075D02*
D03*
Y-736D02*
D03*
Y-12547D02*
D03*
Y-24358D02*
D03*
Y-36169D02*
D03*
Y-47980D02*
D03*
Y-59791D02*
D03*
Y-71602D02*
D03*
Y-83413D02*
D03*
Y-95224D02*
D03*
Y-107036D02*
D03*
Y-118846D02*
D03*
Y-130658D02*
D03*
X88185Y129185D02*
D03*
Y117374D02*
D03*
Y105563D02*
D03*
Y93752D02*
D03*
Y81941D02*
D03*
Y70130D02*
D03*
Y58319D02*
D03*
Y46508D02*
D03*
Y34697D02*
D03*
Y22886D02*
D03*
Y11075D02*
D03*
Y-736D02*
D03*
Y-12547D02*
D03*
Y-24358D02*
D03*
Y-36169D02*
D03*
Y-47980D02*
D03*
Y-59791D02*
D03*
Y-71602D02*
D03*
Y-83413D02*
D03*
Y-95224D02*
D03*
Y-107036D02*
D03*
Y-118846D02*
D03*
Y-130658D02*
D03*
X76374Y129185D02*
D03*
Y117374D02*
D03*
Y105563D02*
D03*
Y93752D02*
D03*
Y81941D02*
D03*
Y70130D02*
D03*
Y58319D02*
D03*
Y46508D02*
D03*
Y34697D02*
D03*
Y22886D02*
D03*
Y11075D02*
D03*
Y-736D02*
D03*
Y-12547D02*
D03*
Y-24358D02*
D03*
Y-36169D02*
D03*
Y-47980D02*
D03*
Y-59791D02*
D03*
Y-71602D02*
D03*
Y-83413D02*
D03*
Y-95224D02*
D03*
Y-107036D02*
D03*
Y-118846D02*
D03*
Y-130658D02*
D03*
X64563Y129185D02*
D03*
Y117374D02*
D03*
Y105563D02*
D03*
Y93752D02*
D03*
Y81941D02*
D03*
Y70130D02*
D03*
Y58319D02*
D03*
Y46508D02*
D03*
Y34697D02*
D03*
Y22886D02*
D03*
Y11075D02*
D03*
Y-736D02*
D03*
Y-12547D02*
D03*
Y-24358D02*
D03*
Y-36169D02*
D03*
Y-47980D02*
D03*
Y-59791D02*
D03*
Y-71602D02*
D03*
Y-83413D02*
D03*
Y-95224D02*
D03*
Y-107036D02*
D03*
Y-118846D02*
D03*
Y-130658D02*
D03*
X52752Y129185D02*
D03*
Y117374D02*
D03*
Y105563D02*
D03*
Y93752D02*
D03*
Y81941D02*
D03*
Y70130D02*
D03*
Y58319D02*
D03*
Y46508D02*
D03*
Y34697D02*
D03*
Y22886D02*
D03*
Y11075D02*
D03*
Y-736D02*
D03*
Y-12547D02*
D03*
Y-24358D02*
D03*
Y-36169D02*
D03*
Y-47980D02*
D03*
Y-59791D02*
D03*
Y-71602D02*
D03*
Y-83413D02*
D03*
Y-95224D02*
D03*
Y-107036D02*
D03*
Y-118846D02*
D03*
Y-130658D02*
D03*
X40941Y129185D02*
D03*
Y117374D02*
D03*
Y105563D02*
D03*
Y93752D02*
D03*
Y81941D02*
D03*
Y70130D02*
D03*
Y58319D02*
D03*
Y46508D02*
D03*
Y34697D02*
D03*
Y22886D02*
D03*
Y11075D02*
D03*
Y-736D02*
D03*
Y-12547D02*
D03*
Y-24358D02*
D03*
Y-36169D02*
D03*
Y-47980D02*
D03*
Y-59791D02*
D03*
Y-71602D02*
D03*
Y-83413D02*
D03*
Y-95224D02*
D03*
Y-107036D02*
D03*
Y-118846D02*
D03*
Y-130658D02*
D03*
X29130Y129185D02*
D03*
Y117374D02*
D03*
Y105563D02*
D03*
Y93752D02*
D03*
Y81941D02*
D03*
Y70130D02*
D03*
Y58319D02*
D03*
Y46508D02*
D03*
Y34697D02*
D03*
Y22886D02*
D03*
Y11075D02*
D03*
Y-736D02*
D03*
Y-12547D02*
D03*
Y-24358D02*
D03*
Y-36169D02*
D03*
Y-47980D02*
D03*
Y-59791D02*
D03*
Y-71602D02*
D03*
Y-83413D02*
D03*
Y-95224D02*
D03*
Y-107036D02*
D03*
Y-118846D02*
D03*
Y-130658D02*
D03*
X17319Y129185D02*
D03*
Y117374D02*
D03*
Y105563D02*
D03*
Y93752D02*
D03*
Y81941D02*
D03*
Y70130D02*
D03*
Y58319D02*
D03*
Y46508D02*
D03*
Y34697D02*
D03*
Y22886D02*
D03*
Y11075D02*
D03*
Y-736D02*
D03*
Y-12547D02*
D03*
Y-24358D02*
D03*
Y-36169D02*
D03*
Y-47980D02*
D03*
Y-59791D02*
D03*
Y-71602D02*
D03*
Y-83413D02*
D03*
Y-95224D02*
D03*
Y-107036D02*
D03*
Y-118846D02*
D03*
Y-130658D02*
D03*
X5508Y129185D02*
D03*
Y117374D02*
D03*
Y105563D02*
D03*
Y93752D02*
D03*
Y81941D02*
D03*
Y70130D02*
D03*
Y58319D02*
D03*
Y46508D02*
D03*
Y34697D02*
D03*
Y22886D02*
D03*
Y11075D02*
D03*
Y-47980D02*
D03*
Y-59791D02*
D03*
Y-71602D02*
D03*
Y-83413D02*
D03*
Y-95224D02*
D03*
Y-107036D02*
D03*
Y-118846D02*
D03*
Y-130658D02*
D03*
X-6303Y129185D02*
D03*
Y117374D02*
D03*
Y105563D02*
D03*
Y93752D02*
D03*
Y81941D02*
D03*
Y70130D02*
D03*
Y58319D02*
D03*
Y46508D02*
D03*
Y34697D02*
D03*
Y22886D02*
D03*
Y11075D02*
D03*
Y-36169D02*
D03*
Y-59791D02*
D03*
Y-83413D02*
D03*
Y-95224D02*
D03*
Y-107036D02*
D03*
Y-118846D02*
D03*
Y-130658D02*
D03*
X-18114Y129185D02*
D03*
Y117374D02*
D03*
Y105563D02*
D03*
Y93752D02*
D03*
Y81941D02*
D03*
Y70130D02*
D03*
Y58319D02*
D03*
Y46508D02*
D03*
Y34697D02*
D03*
Y22886D02*
D03*
Y11075D02*
D03*
Y-736D02*
D03*
Y-12547D02*
D03*
Y-24358D02*
D03*
Y-36169D02*
D03*
Y-83413D02*
D03*
Y-95224D02*
D03*
Y-107036D02*
D03*
Y-118846D02*
D03*
Y-130658D02*
D03*
X-29925Y129185D02*
D03*
Y117374D02*
D03*
Y105563D02*
D03*
Y93752D02*
D03*
Y81941D02*
D03*
Y70130D02*
D03*
Y58319D02*
D03*
Y46508D02*
D03*
Y34697D02*
D03*
Y22886D02*
D03*
Y11075D02*
D03*
Y-736D02*
D03*
Y-12547D02*
D03*
Y-24358D02*
D03*
Y-36169D02*
D03*
Y-47980D02*
D03*
Y-59791D02*
D03*
Y-71602D02*
D03*
Y-83413D02*
D03*
Y-95224D02*
D03*
Y-107036D02*
D03*
Y-118846D02*
D03*
Y-130658D02*
D03*
X-41736Y129185D02*
D03*
Y117374D02*
D03*
Y105563D02*
D03*
Y93752D02*
D03*
Y81941D02*
D03*
Y70130D02*
D03*
Y58319D02*
D03*
Y46508D02*
D03*
Y34697D02*
D03*
Y22886D02*
D03*
Y11075D02*
D03*
Y-736D02*
D03*
Y-12547D02*
D03*
Y-24358D02*
D03*
Y-36169D02*
D03*
Y-47980D02*
D03*
Y-59791D02*
D03*
Y-71602D02*
D03*
Y-83413D02*
D03*
Y-95224D02*
D03*
Y-107036D02*
D03*
Y-118846D02*
D03*
Y-130658D02*
D03*
X-53547Y129185D02*
D03*
Y117374D02*
D03*
Y105563D02*
D03*
Y93752D02*
D03*
Y81941D02*
D03*
Y70130D02*
D03*
Y58319D02*
D03*
Y46508D02*
D03*
Y34697D02*
D03*
Y22886D02*
D03*
Y11075D02*
D03*
Y-736D02*
D03*
Y-12547D02*
D03*
Y-24358D02*
D03*
Y-36169D02*
D03*
Y-47980D02*
D03*
Y-59791D02*
D03*
Y-71602D02*
D03*
Y-83413D02*
D03*
Y-95224D02*
D03*
Y-107036D02*
D03*
Y-118846D02*
D03*
Y-130658D02*
D03*
X-65358Y129185D02*
D03*
Y117374D02*
D03*
Y105563D02*
D03*
Y93752D02*
D03*
Y81941D02*
D03*
Y70130D02*
D03*
Y58319D02*
D03*
Y46508D02*
D03*
Y34697D02*
D03*
Y22886D02*
D03*
Y11075D02*
D03*
Y-736D02*
D03*
Y-12547D02*
D03*
Y-24358D02*
D03*
Y-36169D02*
D03*
Y-47980D02*
D03*
Y-59791D02*
D03*
Y-71602D02*
D03*
Y-83413D02*
D03*
Y-95224D02*
D03*
Y-107036D02*
D03*
Y-118846D02*
D03*
Y-130658D02*
D03*
X-77169Y129185D02*
D03*
Y117374D02*
D03*
Y105563D02*
D03*
Y93752D02*
D03*
Y81941D02*
D03*
Y70130D02*
D03*
Y58319D02*
D03*
Y46508D02*
D03*
Y34697D02*
D03*
Y22886D02*
D03*
Y11075D02*
D03*
Y-736D02*
D03*
Y-12547D02*
D03*
Y-24358D02*
D03*
Y-36169D02*
D03*
Y-47980D02*
D03*
Y-59791D02*
D03*
Y-71602D02*
D03*
Y-83413D02*
D03*
Y-95224D02*
D03*
Y-107036D02*
D03*
Y-118846D02*
D03*
Y-130658D02*
D03*
X-88980Y129185D02*
D03*
Y117374D02*
D03*
Y105563D02*
D03*
Y93752D02*
D03*
Y81941D02*
D03*
Y70130D02*
D03*
Y58319D02*
D03*
Y46508D02*
D03*
Y34697D02*
D03*
Y22886D02*
D03*
Y11075D02*
D03*
Y-736D02*
D03*
Y-12547D02*
D03*
Y-24358D02*
D03*
Y-36169D02*
D03*
Y-47980D02*
D03*
Y-59791D02*
D03*
Y-71602D02*
D03*
Y-83413D02*
D03*
Y-95224D02*
D03*
Y-107036D02*
D03*
Y-118846D02*
D03*
Y-130658D02*
D03*
X-100791Y129185D02*
D03*
Y117374D02*
D03*
Y105563D02*
D03*
Y93752D02*
D03*
Y81941D02*
D03*
Y70130D02*
D03*
Y58319D02*
D03*
Y46508D02*
D03*
Y34697D02*
D03*
Y22886D02*
D03*
Y11075D02*
D03*
Y-736D02*
D03*
Y-12547D02*
D03*
Y-24358D02*
D03*
Y-36169D02*
D03*
Y-47980D02*
D03*
Y-59791D02*
D03*
Y-71602D02*
D03*
Y-83413D02*
D03*
Y-95224D02*
D03*
Y-107036D02*
D03*
Y-118846D02*
D03*
Y-130658D02*
D03*
X-112602Y93752D02*
D03*
Y81941D02*
D03*
Y70130D02*
D03*
Y58319D02*
D03*
Y46508D02*
D03*
Y34697D02*
D03*
Y22886D02*
D03*
Y11075D02*
D03*
Y-736D02*
D03*
Y-12547D02*
D03*
Y-24358D02*
D03*
Y-36169D02*
D03*
Y-47980D02*
D03*
Y-59791D02*
D03*
Y-71602D02*
D03*
Y-83413D02*
D03*
Y-95224D02*
D03*
X-124414Y93752D02*
D03*
Y81941D02*
D03*
Y70130D02*
D03*
Y58319D02*
D03*
Y46508D02*
D03*
Y34697D02*
D03*
Y22886D02*
D03*
Y11075D02*
D03*
Y-736D02*
D03*
Y-12547D02*
D03*
Y-24358D02*
D03*
Y-36169D02*
D03*
Y-47980D02*
D03*
Y-59791D02*
D03*
Y-71602D02*
D03*
Y-83413D02*
D03*
Y-95224D02*
D03*
M02*
