G04*
G04 #@! TF.GenerationSoftware,Altium Limited,Altium Designer,22.4.2 (48)*
G04*
G04 Layer_Physical_Order=1*
G04 Layer_Color=255*
%FSLAX25Y25*%
%MOIN*%
G70*
G04*
G04 #@! TF.SameCoordinates,8AB4A971-0839-457E-B64D-4FD5DF5DD75B*
G04*
G04*
G04 #@! TF.FilePolarity,Positive*
G04*
G01*
G75*
%ADD10C,0.00984*%
%ADD15R,0.03150X0.03937*%
%ADD16R,0.03937X0.03150*%
%ADD17R,0.03937X0.08268*%
%ADD18R,0.08268X0.03937*%
%ADD19R,0.03937X0.03937*%
%ADD20R,0.02441X0.02441*%
%ADD21R,0.03937X0.09449*%
%ADD22R,0.03937X0.05118*%
%ADD23R,0.02362X0.05906*%
%ADD24R,0.03543X0.01968*%
%ADD25R,0.01968X0.01968*%
%ADD26R,0.01476X0.01181*%
%ADD27R,0.01280X0.01063*%
%ADD28R,0.02362X0.02441*%
%ADD29R,0.02441X0.02362*%
%ADD50C,0.09843*%
%ADD51C,0.01968*%
%ADD52C,0.03543*%
%ADD53C,0.23622*%
G36*
X136650Y-136650D02*
X-136717D01*
Y136717D01*
X136650D01*
Y-136650D01*
D02*
G37*
%LPC*%
G36*
X32447Y11057D02*
X29592D01*
Y8203D01*
X32447D01*
Y11057D01*
X32447D01*
Y11057D01*
D02*
G37*
G36*
X28608D02*
X27427D01*
Y8203D01*
X28608D01*
Y11057D01*
D02*
G37*
G36*
X16305Y11057D02*
X13845D01*
Y8203D01*
X16305D01*
Y11057D01*
D02*
G37*
G36*
X12860D02*
X10400D01*
Y8203D01*
X12860D01*
Y11057D01*
D02*
G37*
G36*
X26443Y11057D02*
X25754D01*
Y11057D01*
X21423D01*
Y8203D01*
X26443D01*
Y11057D01*
D02*
G37*
G36*
X-11254Y11057D02*
X-13715D01*
Y8203D01*
X-11254D01*
Y11057D01*
D02*
G37*
G36*
X-14699D02*
X-17159D01*
Y8203D01*
X-14699D01*
Y11057D01*
D02*
G37*
G36*
X-26608D02*
X-27297D01*
Y8203D01*
X-22278D01*
Y11057D01*
X-26608D01*
Y11057D01*
D02*
G37*
G36*
X-28282D02*
X-29463D01*
Y8203D01*
X-28282D01*
Y11057D01*
D02*
G37*
G36*
X-30447D02*
X-33301D01*
Y11057D01*
X-33301D01*
Y8203D01*
X-30447D01*
Y11057D01*
D02*
G37*
G36*
X32447Y7219D02*
X29592D01*
Y6037D01*
X32447D01*
Y7219D01*
D02*
G37*
G36*
X-30447Y7218D02*
X-33301D01*
Y6037D01*
X-30447D01*
Y7218D01*
D02*
G37*
G36*
X16305Y7219D02*
X13845D01*
Y4364D01*
X16305D01*
Y7219D01*
D02*
G37*
G36*
X12860D02*
X10400D01*
Y4364D01*
X12860D01*
Y7219D01*
D02*
G37*
G36*
X-11254Y7219D02*
X-13715D01*
Y4364D01*
X-11254D01*
Y7219D01*
D02*
G37*
G36*
X-14699D02*
X-17159D01*
Y4364D01*
X-14699D01*
Y7219D01*
D02*
G37*
G36*
X32447Y5053D02*
X29592D01*
Y33D01*
X32447D01*
Y4364D01*
X32447D01*
Y5053D01*
D02*
G37*
G36*
X28608Y7219D02*
X26935D01*
X21423D01*
Y4364D01*
X25754D01*
Y33D01*
X28608D01*
Y5545D01*
Y7219D01*
D02*
G37*
G36*
X-22278Y7218D02*
X-29463D01*
Y5545D01*
Y33D01*
X-26608D01*
Y4364D01*
X-22278D01*
Y7218D01*
D02*
G37*
G36*
X-30447Y5053D02*
X-33301D01*
Y4364D01*
X-33301D01*
Y33D01*
X-30447D01*
Y5053D01*
D02*
G37*
G36*
X32447Y-5085D02*
X29592D01*
Y-7545D01*
X32447D01*
Y-5085D01*
D02*
G37*
G36*
X28608D02*
X25754D01*
Y-7545D01*
X28608D01*
Y-5085D01*
D02*
G37*
G36*
X-26608Y-5085D02*
X-29463D01*
Y-7545D01*
X-26608D01*
Y-5085D01*
D02*
G37*
G36*
X-30447D02*
X-33301D01*
Y-7545D01*
X-30447D01*
Y-5085D01*
D02*
G37*
G36*
X-7120Y-7644D02*
X-9778D01*
Y-9514D01*
X-7120D01*
Y-7644D01*
D02*
G37*
G36*
X-10762D02*
X-13419D01*
Y-9514D01*
X-10762D01*
Y-7644D01*
D02*
G37*
G36*
X32447Y-8529D02*
X29592D01*
Y-10990D01*
X32447D01*
Y-8529D01*
D02*
G37*
G36*
X28608D02*
X25754D01*
Y-10990D01*
X28608D01*
Y-8529D01*
D02*
G37*
G36*
X-26608Y-8530D02*
X-29463D01*
Y-10990D01*
X-26608D01*
Y-8530D01*
D02*
G37*
G36*
X-30447D02*
X-33301D01*
Y-10990D01*
X-30447D01*
Y-8530D01*
D02*
G37*
G36*
X-7120Y-10498D02*
X-9778D01*
Y-12368D01*
X-7120D01*
Y-10498D01*
D02*
G37*
G36*
X-10762D02*
X-13419D01*
Y-12368D01*
X-10762D01*
Y-10498D01*
D02*
G37*
G36*
X32480Y-17520D02*
X29626D01*
Y-23130D01*
X32480D01*
Y-17520D01*
D02*
G37*
G36*
X-26575D02*
X-29429D01*
Y-23130D01*
X-26575D01*
Y-17520D01*
D02*
G37*
G36*
X-30413D02*
X-33268D01*
Y-23130D01*
X-30413D01*
Y-17520D01*
D02*
G37*
G36*
X28642D02*
X25787D01*
Y-23130D01*
X28642D01*
Y-17520D01*
D02*
G37*
G36*
X612Y6957D02*
X-746D01*
X-2077Y6692D01*
X-3330Y6173D01*
X-4459Y5418D01*
X-5418Y4459D01*
X-6173Y3330D01*
X-6692Y2077D01*
X-6957Y746D01*
Y-612D01*
X-6692Y-1943D01*
X-6173Y-3197D01*
X-5418Y-4325D01*
X-4459Y-5285D01*
X-3330Y-6039D01*
X-2077Y-6558D01*
X-1917Y-6590D01*
Y-7989D01*
X-1997Y-8043D01*
X-2297Y-8492D01*
X-2402Y-9022D01*
Y-10990D01*
X-2297Y-11520D01*
X-1997Y-11969D01*
X-1917Y-12022D01*
Y-13994D01*
X-1984Y-14094D01*
X-2089Y-14624D01*
Y-15215D01*
X-3213D01*
Y-16691D01*
X-1746D01*
X-1684Y-16784D01*
X-1235Y-17084D01*
X-1096Y-17112D01*
Y-17675D01*
X-3213D01*
Y-18659D01*
X-1096D01*
Y-19644D01*
X-3213D01*
Y-21120D01*
X-1605D01*
X-1338Y-21620D01*
X-1352Y-21641D01*
X-1457Y-22171D01*
Y-24533D01*
X-1352Y-25063D01*
X-1285Y-25163D01*
X-1352Y-25264D01*
X-1457Y-25793D01*
Y-28155D01*
X-1352Y-28685D01*
X-1052Y-29135D01*
X-770Y-29323D01*
Y-30537D01*
X-2744D01*
Y-30556D01*
X-4222D01*
Y-30238D01*
X-7845D01*
Y-30945D01*
X-8459D01*
Y-30242D01*
X-12081D01*
Y-30949D01*
X-17160D01*
X-17582Y-31033D01*
X-17940Y-31273D01*
X-22468Y-35800D01*
X-22707Y-36158D01*
X-22791Y-36581D01*
Y-37762D01*
X-23459D01*
Y-44848D01*
X-19915D01*
Y-37762D01*
X-20583D01*
Y-37038D01*
X-16702Y-33157D01*
X-12868D01*
Y-35104D01*
X-10270D01*
Y-35596D01*
X-9778D01*
Y-38195D01*
X-7671D01*
Y-38191D01*
X-6526D01*
Y-35592D01*
X-5541D01*
Y-38191D01*
X-3435D01*
X-3431Y-38689D01*
Y-41968D01*
X-3534Y-42486D01*
Y-43077D01*
X-4657D01*
Y-44553D01*
X-3191D01*
X-3129Y-44646D01*
X-2679Y-44947D01*
X-2541Y-44974D01*
Y-45537D01*
X-4657D01*
Y-46522D01*
X-2541D01*
Y-47506D01*
X-4657D01*
Y-48982D01*
X-2745D01*
X-2705Y-49028D01*
X-2524Y-49482D01*
X-2730Y-49791D01*
X-2835Y-50321D01*
Y-52762D01*
X-2730Y-53292D01*
X-2716Y-53313D01*
X-2730Y-53334D01*
X-2835Y-53864D01*
Y-56305D01*
X-2730Y-56835D01*
X-2430Y-57284D01*
X-2108Y-57499D01*
X-2100Y-58032D01*
X-2351Y-58200D01*
X-2611Y-58589D01*
X-5557D01*
Y-56939D01*
X-8156D01*
Y-56447D01*
X-8648D01*
Y-53848D01*
X-10754D01*
Y-53864D01*
X-11943D01*
Y-56463D01*
X-12435D01*
Y-56955D01*
X-15033D01*
Y-58146D01*
X-15495Y-58337D01*
X-16843Y-56990D01*
Y-53904D01*
X-16175D01*
Y-46817D01*
X-19718D01*
Y-53904D01*
X-19051D01*
Y-57447D01*
X-18967Y-57869D01*
X-18727Y-58227D01*
X-16168Y-60786D01*
X-15810Y-61026D01*
X-15388Y-61110D01*
X-14246D01*
Y-61817D01*
X-10624D01*
Y-61110D01*
X-9967D01*
Y-61801D01*
X-6345D01*
Y-61110D01*
X-5585D01*
Y-62211D01*
X-2611D01*
X-2351Y-62599D01*
X-2248Y-62668D01*
X-2363Y-63182D01*
X-2729Y-63254D01*
X-3178Y-63554D01*
X-3478Y-64004D01*
X-3583Y-64534D01*
Y-68471D01*
X-3478Y-69000D01*
X-3178Y-69450D01*
X-2729Y-69750D01*
X-2199Y-69855D01*
X1738D01*
X2268Y-69750D01*
X2717Y-69450D01*
X3017Y-69000D01*
X3123Y-68471D01*
Y-64534D01*
X3017Y-64004D01*
X2717Y-63554D01*
X2268Y-63254D01*
X1942Y-63190D01*
X1870Y-62665D01*
X1969Y-62599D01*
X2269Y-62150D01*
X2375Y-61620D01*
Y-59179D01*
X2269Y-58649D01*
X1969Y-58200D01*
X1736Y-58044D01*
X1726Y-57447D01*
X1969Y-57284D01*
X2269Y-56835D01*
X2375Y-56305D01*
Y-53864D01*
X2269Y-53334D01*
X2255Y-53313D01*
X2269Y-53292D01*
X2375Y-52762D01*
Y-50321D01*
X2269Y-49791D01*
X1969Y-49342D01*
X1661Y-49136D01*
Y-48246D01*
X1736Y-48134D01*
X1841Y-47604D01*
Y-46423D01*
X1835Y-46390D01*
Y-43077D01*
X711D01*
Y-42486D01*
X606Y-41956D01*
X403Y-41653D01*
Y-37506D01*
X656D01*
Y-35596D01*
X1148D01*
Y-35104D01*
X3165D01*
Y-34120D01*
X1148D01*
Y-33577D01*
X1148D01*
X1154Y-33575D01*
X1787D01*
X2317Y-33470D01*
X2767Y-33170D01*
X2789Y-33136D01*
X3165D01*
Y-32224D01*
X3172Y-32191D01*
Y-31128D01*
X3067Y-30598D01*
X3065Y-30596D01*
Y-29323D01*
X3347Y-29135D01*
X3647Y-28685D01*
X3753Y-28155D01*
Y-25793D01*
X3647Y-25264D01*
X3580Y-25163D01*
X3647Y-25063D01*
X3753Y-24533D01*
Y-22171D01*
X3647Y-21641D01*
X3347Y-21192D01*
X3073Y-21009D01*
Y-20434D01*
X3181Y-20272D01*
X3286Y-19742D01*
Y-18561D01*
X3280Y-18528D01*
Y-15215D01*
X2156D01*
Y-14624D01*
X2051Y-14094D01*
X1917Y-13894D01*
Y-11978D01*
X1930Y-11969D01*
X2230Y-11520D01*
X2335Y-10990D01*
Y-9022D01*
X2230Y-8492D01*
X1930Y-8043D01*
X1917Y-8034D01*
Y-6563D01*
X1943Y-6558D01*
X3197Y-6039D01*
X4325Y-5285D01*
X5285Y-4325D01*
X6039Y-3197D01*
X6558Y-1943D01*
X6823Y-612D01*
Y746D01*
X6558Y2077D01*
X6039Y3330D01*
X5285Y4459D01*
X4325Y5418D01*
X3197Y6173D01*
X1943Y6692D01*
X612Y6957D01*
D02*
G37*
G36*
X32480Y-24114D02*
X29134D01*
X25787D01*
Y-29724D01*
Y-31594D01*
X29134D01*
X32480D01*
Y-29724D01*
Y-24114D01*
D02*
G37*
G36*
X-26575D02*
X-29921D01*
X-33268D01*
Y-29724D01*
Y-31594D01*
X-29921D01*
X-26575D01*
Y-29724D01*
Y-24114D01*
D02*
G37*
G36*
X3165Y-36089D02*
X1640D01*
Y-37506D01*
X3165D01*
Y-36089D01*
D02*
G37*
G36*
X32480Y-32579D02*
X29134D01*
X25787D01*
Y-36024D01*
Y-40059D01*
X29134D01*
X32480D01*
Y-36024D01*
Y-32579D01*
D02*
G37*
G36*
X-26575D02*
X-29921D01*
X-33268D01*
Y-36024D01*
Y-40059D01*
X-29921D01*
X-26575D01*
Y-36024D01*
Y-32579D01*
D02*
G37*
G36*
X-10762Y-36089D02*
X-12868D01*
Y-36974D01*
X-13715D01*
Y-40813D01*
X-11648D01*
Y-38195D01*
X-10762D01*
Y-36089D01*
D02*
G37*
G36*
X-14699Y-36974D02*
X-16766D01*
Y-40813D01*
X-14699D01*
Y-36974D01*
D02*
G37*
G36*
X-11648Y-41797D02*
X-13715D01*
Y-45636D01*
X-11648D01*
Y-41797D01*
D02*
G37*
G36*
X-14699D02*
X-16766D01*
Y-45636D01*
X-14699D01*
Y-41797D01*
D02*
G37*
G36*
X32480Y-41043D02*
X29626D01*
Y-46654D01*
X32480D01*
Y-41043D01*
D02*
G37*
G36*
X28642D02*
X25787D01*
Y-46654D01*
X28642D01*
Y-41043D01*
D02*
G37*
G36*
X-26575D02*
X-29429D01*
Y-46654D01*
X-26575D01*
Y-41043D01*
D02*
G37*
G36*
X-30413D02*
X-33268D01*
Y-46654D01*
X-30413D01*
Y-41043D01*
D02*
G37*
G36*
X-26608Y-52329D02*
X-29463D01*
Y-54789D01*
X-26608D01*
Y-52329D01*
D02*
G37*
G36*
X-30447D02*
X-33301D01*
Y-54789D01*
X-30447D01*
Y-52329D01*
D02*
G37*
G36*
X32447Y-52329D02*
X29592D01*
Y-54790D01*
X32447D01*
Y-52329D01*
D02*
G37*
G36*
X28608D02*
X25754D01*
Y-54790D01*
X28608D01*
Y-52329D01*
D02*
G37*
G36*
X-5557Y-53848D02*
X-7663D01*
Y-55955D01*
X-5557D01*
Y-53848D01*
D02*
G37*
G36*
X-12927Y-53864D02*
X-15033D01*
Y-55971D01*
X-12927D01*
Y-53864D01*
D02*
G37*
G36*
X-26608Y-55774D02*
X-29463D01*
Y-58234D01*
X-26608D01*
Y-55774D01*
D02*
G37*
G36*
X-30447D02*
X-33301D01*
Y-58234D01*
X-30447D01*
Y-55774D01*
D02*
G37*
G36*
X32447Y-55774D02*
X29592D01*
Y-58234D01*
X32447D01*
Y-55774D01*
D02*
G37*
G36*
X28608D02*
X25754D01*
Y-58234D01*
X28608D01*
Y-55774D01*
D02*
G37*
G36*
X32447Y-63352D02*
X29592D01*
Y-68372D01*
X32447D01*
Y-67683D01*
X32447D01*
Y-63352D01*
D02*
G37*
G36*
X-30447Y-63352D02*
X-33301D01*
Y-67683D01*
X-33301D01*
Y-68372D01*
X-30447D01*
Y-63352D01*
D02*
G37*
G36*
X-11254Y-67683D02*
X-13714D01*
Y-70538D01*
X-11254D01*
Y-67683D01*
D02*
G37*
G36*
X-26608Y-63352D02*
X-29463D01*
Y-68864D01*
Y-70538D01*
X-22277D01*
Y-67683D01*
X-26608D01*
Y-63352D01*
D02*
G37*
G36*
X-30447Y-69356D02*
X-33301D01*
Y-70538D01*
X-30447D01*
Y-69356D01*
D02*
G37*
G36*
X-14699Y-67683D02*
X-17159D01*
Y-70538D01*
X-14699D01*
Y-67683D01*
D02*
G37*
G36*
X16305Y-67683D02*
X13845D01*
Y-70538D01*
X16305D01*
Y-67683D01*
D02*
G37*
G36*
X12860D02*
X10400D01*
Y-70538D01*
X12860D01*
Y-67683D01*
D02*
G37*
G36*
X32447Y-69356D02*
X29592D01*
Y-70538D01*
X32447D01*
Y-69356D01*
D02*
G37*
G36*
X28608Y-63352D02*
X25754D01*
Y-67683D01*
X21423D01*
Y-70538D01*
X26935D01*
X28608D01*
Y-68864D01*
Y-63352D01*
D02*
G37*
G36*
X-11254Y-71522D02*
X-13714D01*
Y-74376D01*
X-11254D01*
Y-71522D01*
D02*
G37*
G36*
X-14699D02*
X-17159D01*
Y-74376D01*
X-14699D01*
Y-71522D01*
D02*
G37*
G36*
X-22277D02*
X-27297D01*
Y-74376D01*
X-26608D01*
Y-74376D01*
X-22277D01*
Y-71522D01*
D02*
G37*
G36*
X-28282D02*
X-29463D01*
Y-74376D01*
X-28282D01*
Y-71522D01*
D02*
G37*
G36*
X-30447D02*
X-33301D01*
Y-74376D01*
X-33301D01*
Y-74376D01*
X-30447D01*
Y-71522D01*
D02*
G37*
G36*
X32447Y-71522D02*
X29592D01*
Y-74376D01*
X32447D01*
Y-74376D01*
X32447D01*
Y-71522D01*
D02*
G37*
G36*
X28608D02*
X27427D01*
Y-74376D01*
X28608D01*
Y-71522D01*
D02*
G37*
G36*
X26443D02*
X21423D01*
Y-74376D01*
X25754D01*
Y-74376D01*
X26443D01*
Y-71522D01*
D02*
G37*
G36*
X16305Y-71522D02*
X13845D01*
Y-74376D01*
X16305D01*
Y-71522D01*
D02*
G37*
G36*
X12860D02*
X10400D01*
Y-74376D01*
X12860D01*
Y-71522D01*
D02*
G37*
%LPD*%
D10*
X-5093Y-31659D02*
G03*
X-6033Y-32049I0J-1331D01*
G01*
X-256Y-51516D02*
X-230Y-51541D01*
X-256Y-51516D02*
Y-47039D01*
X-282Y-47014D02*
X-256Y-47039D01*
X-2452Y-45135D02*
X-371D01*
X-2541Y-45045D02*
X-2452Y-45135D01*
X-371D02*
X-282Y-45045D01*
X1156Y-23345D02*
Y-19160D01*
X1163Y-19152D01*
Y-17183D02*
X4303D01*
Y-16160D01*
X-282Y-45045D02*
X1826D01*
X2850Y-44022D02*
X2858D01*
X2865Y-46518D02*
Y-44030D01*
X1826Y-45045D02*
X2850Y-44022D01*
X2858D02*
X2865Y-44030D01*
X0Y-15181D02*
X33Y-15215D01*
X-21687Y-36581D02*
X-17160Y-32053D01*
X-33Y33D02*
X0Y0D01*
Y-15181D02*
Y0D01*
X-1096Y-17183D02*
X1163D01*
X-21687Y-41305D02*
Y-36581D01*
X-17947Y-57447D02*
X-15388Y-60006D01*
X-17947Y-57447D02*
Y-50360D01*
X-15388Y-60006D02*
X-12435D01*
X-3813D01*
X-230Y-66502D02*
X-191D01*
Y-60400D01*
X-230Y-55085D02*
X-150Y-60005D01*
X-150Y-60006D01*
X-5093Y-31659D02*
X-1514D01*
X1148D02*
Y-26974D01*
Y-23352D02*
X1156Y-23345D01*
X-1514Y-42978D02*
Y-35596D01*
Y-33628D02*
Y-31659D01*
Y-42978D02*
X-1415Y-43077D01*
X-1411D01*
X-17160Y-32053D02*
X-10270D01*
X-10266Y-32049D01*
X-6033D01*
D15*
X13352Y7711D02*
D03*
X-14207Y-71030D02*
D03*
X-14207Y7711D02*
D03*
X13352Y-71030D02*
D03*
D16*
X29100Y-8037D02*
D03*
X-29955Y-55282D02*
D03*
X-29955Y-8038D02*
D03*
X29100Y-55282D02*
D03*
D17*
Y5545D02*
D03*
X-29955Y-68864D02*
D03*
X-29955Y5545D02*
D03*
X29100Y-68864D02*
D03*
D18*
X26935Y7711D02*
D03*
X-27789Y-71030D02*
D03*
X-27789Y7711D02*
D03*
X26935Y-71030D02*
D03*
D19*
X-230Y-66502D02*
D03*
D20*
X-12435Y-56463D02*
D03*
Y-60006D02*
D03*
X-8156Y-56447D02*
D03*
Y-59990D02*
D03*
X-10270Y-35596D02*
D03*
Y-32053D02*
D03*
X-6033Y-35592D02*
D03*
Y-32049D02*
D03*
X-230Y-51541D02*
D03*
Y-55085D02*
D03*
D21*
X-29921Y-40551D02*
D03*
Y-23622D02*
D03*
X29134Y-40551D02*
D03*
Y-23622D02*
D03*
D22*
X-29921Y-32087D02*
D03*
X29134D02*
D03*
D23*
X-17947Y-50360D02*
D03*
X-21687Y-41305D02*
D03*
X-14207D02*
D03*
D24*
X-10270Y-10006D02*
D03*
D25*
X-33D02*
D03*
D26*
X-282Y-45045D02*
D03*
Y-47014D02*
D03*
X-2541D02*
D03*
Y-45045D02*
D03*
X-1411Y-43077D02*
D03*
X1163Y-17183D02*
D03*
Y-19152D02*
D03*
X-1096D02*
D03*
Y-17183D02*
D03*
X33Y-15215D02*
D03*
D27*
X-1514Y-35596D02*
D03*
Y-33628D02*
D03*
Y-31659D02*
D03*
X1148D02*
D03*
Y-33628D02*
D03*
Y-35596D02*
D03*
D28*
X-3813Y-60400D02*
D03*
X-191D02*
D03*
D29*
X1148Y-26974D02*
D03*
Y-23352D02*
D03*
D50*
X-33Y33D02*
D03*
D51*
X8005Y-2153D02*
D03*
X-2986Y-7250D02*
D03*
X-3426Y-9975D02*
D03*
X2999Y-13713D02*
D03*
X-2941Y-12688D02*
D03*
X-8279Y-1052D02*
D03*
X8212Y1119D02*
D03*
X-7401Y-3867D02*
D03*
X6565Y-5029D02*
D03*
X-7026Y4582D02*
D03*
X2919Y-7447D02*
D03*
X-8133Y1991D02*
D03*
X-4582Y7026D02*
D03*
X7334Y3934D02*
D03*
X-1119Y8279D02*
D03*
X2352Y8018D02*
D03*
X3359Y-10981D02*
D03*
X-5610Y-6170D02*
D03*
X5544Y6237D02*
D03*
X1622Y-41915D02*
D03*
X1427Y-39166D02*
D03*
X4303Y-16160D02*
D03*
X4728Y-33889D02*
D03*
X-6693Y-42323D02*
D03*
X-5118Y-18898D02*
D03*
Y-15748D02*
D03*
X4528Y-36811D02*
D03*
X-2199Y-29494D02*
D03*
X-4455Y-40225D02*
D03*
X4622Y-21395D02*
D03*
X4310Y-18656D02*
D03*
X-6102Y-45079D02*
D03*
X-14173Y-47047D02*
D03*
X-6102Y-10039D02*
D03*
X2858Y-44022D02*
D03*
X-5906Y-47441D02*
D03*
X4691Y-25163D02*
D03*
X-14961Y-9843D02*
D03*
X-10236Y-6102D02*
D03*
X4680Y-28643D02*
D03*
X-10236Y-13780D02*
D03*
X-2744Y-26583D02*
D03*
X-15157Y-35039D02*
D03*
X-7283Y-39370D02*
D03*
X3391Y-51463D02*
D03*
X-18504Y-41339D02*
D03*
X-2744Y-23744D02*
D03*
X-8268Y-52559D02*
D03*
X-10039Y-41339D02*
D03*
X4196Y-31356D02*
D03*
X-3353Y-21292D02*
D03*
X-22084Y-4640D02*
D03*
X9412Y-12514D02*
D03*
Y-4640D02*
D03*
X-29958Y-59758D02*
D03*
X-22084Y-51884D02*
D03*
X9412Y-20388D02*
D03*
X-22084D02*
D03*
X-14210Y-4640D02*
D03*
Y3235D02*
D03*
X9412Y-36136D02*
D03*
Y-28262D02*
D03*
X17286Y-59758D02*
D03*
X25160Y-12514D02*
D03*
X-6336Y-28262D02*
D03*
X17286Y-51884D02*
D03*
Y-20388D02*
D03*
Y-36136D02*
D03*
X-14210Y-20388D02*
D03*
X9412Y-44010D02*
D03*
X17286Y-12514D02*
D03*
X-29958D02*
D03*
X9412Y-51884D02*
D03*
X-14210Y-28262D02*
D03*
X17286Y-4640D02*
D03*
X-22084Y3235D02*
D03*
Y-59758D02*
D03*
Y-28262D02*
D03*
X-14210Y-51884D02*
D03*
X17286Y-28262D02*
D03*
Y3235D02*
D03*
X25160Y-59758D02*
D03*
X-22084Y-12514D02*
D03*
X9412Y-59758D02*
D03*
X17286Y-44010D02*
D03*
X2865Y-46518D02*
D03*
X-4846Y-50321D02*
D03*
X3124Y-49262D02*
D03*
X-3686Y-52991D02*
D03*
X-2082Y-70879D02*
D03*
X673D02*
D03*
X3353Y-70233D02*
D03*
X-4413Y-69408D02*
D03*
X3317Y-56714D02*
D03*
X3399Y-53960D02*
D03*
X4147Y-67594D02*
D03*
X-4607Y-66659D02*
D03*
X4147Y-64838D02*
D03*
X-3859Y-55741D02*
D03*
X3399Y-59469D02*
D03*
X-4482Y-63906D02*
D03*
X3279Y-62222D02*
D03*
D52*
X40907Y81974D02*
D03*
X-85077D02*
D03*
X25159Y50478D02*
D03*
X56656Y81974D02*
D03*
X-100825Y-91254D02*
D03*
X25159Y-107002D02*
D03*
X9411Y97722D02*
D03*
X-53581Y-107002D02*
D03*
X88152Y34730D02*
D03*
X-132321Y18982D02*
D03*
X-100825Y66226D02*
D03*
X25159Y81974D02*
D03*
X-85077Y34730D02*
D03*
X-6337Y-91254D02*
D03*
X40907Y-107002D02*
D03*
X-22085D02*
D03*
X40907Y113470D02*
D03*
X88152Y-12514D02*
D03*
X-85077Y97722D02*
D03*
X103900Y3234D02*
D03*
X56656Y50478D02*
D03*
X-53581Y-75506D02*
D03*
X88152Y-44010D02*
D03*
Y-91254D02*
D03*
X-53581Y18982D02*
D03*
X-116573Y-44010D02*
D03*
X-132321Y3234D02*
D03*
Y-59758D02*
D03*
X-53581Y-28262D02*
D03*
X-37833D02*
D03*
X-69329Y113470D02*
D03*
X40907Y50478D02*
D03*
X56656Y-91254D02*
D03*
X-132321Y-28262D02*
D03*
X119648Y-91254D02*
D03*
X-37833Y66226D02*
D03*
X-132321D02*
D03*
X-85077Y-91254D02*
D03*
X-116573Y97722D02*
D03*
X56656Y-44010D02*
D03*
X-100825Y50478D02*
D03*
X-37833Y3234D02*
D03*
X-100825Y81974D02*
D03*
X72404Y-59758D02*
D03*
X103900Y97722D02*
D03*
X88152Y18982D02*
D03*
X119648Y-28262D02*
D03*
X-132321Y-122750D02*
D03*
X88152Y3234D02*
D03*
X103900Y-44010D02*
D03*
X119648Y-75506D02*
D03*
X56656Y-59758D02*
D03*
X103900Y-28262D02*
D03*
X-37833Y-44010D02*
D03*
X-53581Y50478D02*
D03*
X-116573Y81974D02*
D03*
X103900Y50478D02*
D03*
X-22085Y66226D02*
D03*
X-6337Y18982D02*
D03*
X88152Y-122750D02*
D03*
X-100825Y-12514D02*
D03*
X88152Y-28262D02*
D03*
X40907Y97722D02*
D03*
X-100825Y-75506D02*
D03*
X119648Y-12514D02*
D03*
X25159Y97722D02*
D03*
X-22085Y18982D02*
D03*
X119648Y-59758D02*
D03*
X-22085Y81974D02*
D03*
X40907Y-59758D02*
D03*
X-53581Y34730D02*
D03*
X103900Y-12514D02*
D03*
X56656Y34730D02*
D03*
X119648Y18982D02*
D03*
X-85077Y113470D02*
D03*
Y-12514D02*
D03*
X25159Y-122750D02*
D03*
X56656Y-28262D02*
D03*
X-116573Y-75506D02*
D03*
X-132321Y81974D02*
D03*
X56656Y-12514D02*
D03*
X-53581Y66226D02*
D03*
X40907Y-28262D02*
D03*
X72404Y66226D02*
D03*
X9411Y-122750D02*
D03*
X88152Y-75506D02*
D03*
X-85077Y-122750D02*
D03*
X40907Y18982D02*
D03*
X25159Y-91254D02*
D03*
X103900Y113470D02*
D03*
X-132321Y50478D02*
D03*
X-85077Y-59758D02*
D03*
X9411Y18982D02*
D03*
X-53581Y-12514D02*
D03*
X-69329Y18982D02*
D03*
X-22085Y97722D02*
D03*
X25159Y66226D02*
D03*
X-37833Y34730D02*
D03*
X40907Y66226D02*
D03*
X56656D02*
D03*
X-6337D02*
D03*
X-69329D02*
D03*
X-132321Y-75506D02*
D03*
X-6337Y-107002D02*
D03*
X-85077Y-28262D02*
D03*
X9411Y-107002D02*
D03*
X56656Y113470D02*
D03*
X88152Y66226D02*
D03*
X-37833Y81974D02*
D03*
X40907Y-12514D02*
D03*
X-100825Y-107002D02*
D03*
X-6337Y113470D02*
D03*
X72404Y-44010D02*
D03*
X9411Y113470D02*
D03*
X103900Y-59758D02*
D03*
X-69329Y81974D02*
D03*
X-116573Y50478D02*
D03*
X-69329Y-44010D02*
D03*
Y34730D02*
D03*
X-53581Y-122750D02*
D03*
X-132321Y97722D02*
D03*
X-22085Y-91254D02*
D03*
X-53581D02*
D03*
X-6337Y97722D02*
D03*
X56656Y-75506D02*
D03*
X-85077D02*
D03*
X-100825Y113470D02*
D03*
X119648Y34730D02*
D03*
X103900Y18982D02*
D03*
X-69329Y-107002D02*
D03*
X103900Y-75506D02*
D03*
X-100825Y-28262D02*
D03*
X88152Y-107002D02*
D03*
Y81974D02*
D03*
X103900Y-122750D02*
D03*
X-116573Y-28262D02*
D03*
X-132321Y-107002D02*
D03*
X-22085Y113470D02*
D03*
X-100825Y-122750D02*
D03*
X72404Y-91254D02*
D03*
Y3234D02*
D03*
X-132321Y113470D02*
D03*
X-6337Y34730D02*
D03*
X-53581Y-44010D02*
D03*
Y3234D02*
D03*
X119648Y66226D02*
D03*
X-69329Y-59758D02*
D03*
X9411Y-91254D02*
D03*
X-100825Y3234D02*
D03*
X88152Y113470D02*
D03*
X-6337Y-122750D02*
D03*
X40907Y-91254D02*
D03*
X9411Y34730D02*
D03*
X-69329Y-28262D02*
D03*
X72404Y-107002D02*
D03*
X-100825Y-59758D02*
D03*
X40907Y-44010D02*
D03*
X-22085Y34730D02*
D03*
X-37833Y-59758D02*
D03*
X103900Y66226D02*
D03*
X72404Y-12514D02*
D03*
X119648Y81974D02*
D03*
X-116573Y-12514D02*
D03*
X-85077Y66226D02*
D03*
X-100825Y97722D02*
D03*
X-53581Y-59758D02*
D03*
X40907Y3234D02*
D03*
X-69329Y50478D02*
D03*
X40907Y-122750D02*
D03*
X56656Y3234D02*
D03*
X-37833Y-75506D02*
D03*
X72404Y-122750D02*
D03*
Y-75506D02*
D03*
Y34730D02*
D03*
X-37833Y-122750D02*
D03*
X-53581Y113470D02*
D03*
X25159Y18982D02*
D03*
X9411Y50478D02*
D03*
X72404Y97722D02*
D03*
X56656D02*
D03*
X-85077Y18982D02*
D03*
X-100825Y34730D02*
D03*
X-85077Y3234D02*
D03*
X-53581Y81974D02*
D03*
X40907Y34730D02*
D03*
X119648Y97722D02*
D03*
X25159Y34730D02*
D03*
X-22085Y50478D02*
D03*
X103900Y-107002D02*
D03*
Y81974D02*
D03*
X9411Y66226D02*
D03*
X40907Y-75506D02*
D03*
X-53581Y97722D02*
D03*
X56656Y-107002D02*
D03*
X-132321Y-91254D02*
D03*
X-116573Y-59758D02*
D03*
Y66226D02*
D03*
X88152Y97722D02*
D03*
X-6337Y81974D02*
D03*
X-116573Y18982D02*
D03*
X-69329Y97722D02*
D03*
X119648Y-44010D02*
D03*
X56656Y-122750D02*
D03*
X-69329Y-75506D02*
D03*
X-37833Y-91254D02*
D03*
X72404Y-28262D02*
D03*
Y18982D02*
D03*
X-22085Y-122750D02*
D03*
X88152Y-59758D02*
D03*
X25159Y113470D02*
D03*
X-116573Y3234D02*
D03*
X-132321Y-44010D02*
D03*
X-116573Y-91254D02*
D03*
X-6337Y50478D02*
D03*
X-37833Y-107002D02*
D03*
Y50478D02*
D03*
X-116573Y34730D02*
D03*
X-132321Y-12514D02*
D03*
X-6337Y-75506D02*
D03*
X-85077Y-107002D02*
D03*
X-37833Y97722D02*
D03*
X103900Y34730D02*
D03*
Y-91254D02*
D03*
X-85077Y50478D02*
D03*
X72404Y113470D02*
D03*
X-37833Y18982D02*
D03*
X9411Y81974D02*
D03*
X119648Y3234D02*
D03*
X-85077Y-44010D02*
D03*
X-37833Y-12514D02*
D03*
X-69329Y-91254D02*
D03*
Y3234D02*
D03*
X119648Y50478D02*
D03*
X-69329Y-12514D02*
D03*
X88152Y50478D02*
D03*
X-100825Y-44010D02*
D03*
X72404Y50478D02*
D03*
X-132321Y34730D02*
D03*
X-100825Y18982D02*
D03*
X-69329Y-122750D02*
D03*
X56656Y18982D02*
D03*
X-37833Y113470D02*
D03*
X72404Y81974D02*
D03*
D53*
X-118144Y-118077D02*
D03*
X118077D02*
D03*
Y118144D02*
D03*
X-118144D02*
D03*
M02*
