M48
;Layer_Color=9474304
;FILE_FORMAT=2:5
INCH,LZ
;TYPE=PLATED
T1F00S00C0.00787
T2F00S00C0.01181
T3F00S00C0.04724
T4F00S00C0.12598
%
T01
X-0004788Y-0089334
X-0003253Y-0089835
X-0001639
X-0000025
X0001589
X0003188Y-0089614
X0004141Y-0088311
X0004205Y-0086698
X0003262Y-0080514
X0001686Y-0080163
X0001755Y-007855
X-0003064Y-0079035
X-0004016Y-0080338
X-0005386Y-008622
Y-0087835
X-000297Y-0072829
X-0003376Y-0071267
X-0003563Y-0069663
Y-0066849
Y-0065234
X-0003314Y-006364
X-000281Y-0062106
Y-0060492
X000194Y-0060578
Y-0062192
X0002384Y-0063744
X0002563Y-0065349
X000256Y-0066963
X0002501Y-0070805
X0001781Y-0072249
X0002039Y-0073843
X0002335Y-007543
Y-0077044
X0002211Y-0058987
X0002117Y-0057376
X0001061Y-0054163
X0001024Y-0052589
Y-0051014
Y-0049439
Y-0047865
X-000374Y-0047835
Y-0050197
X-0003686Y-0052009
X-0004134Y-0054331
X-0001024Y-0039497
X-0001659Y-0038056
X-0002043Y-0036529
X-0002063Y-0033275
Y-003166
X-0001769Y-0030073
X-0001375Y-0028508
X-000315Y-0027756
Y-0025197
Y-0023425
X-0002603Y-0021582
X-0002404Y-0020019
Y-0018445
Y-001687
X-0002901Y-0015376
X-0003173Y-0013824
X-000312Y-001225
X-0002404Y-0010848
Y-0009273
Y-0007698
X-000401Y-0007861
X-0005032Y-0006611
X-0006323Y-0005419
X-0007413Y-000381
X-0008106Y-0001995
X-0008345Y-0000043
X-0008125Y0001889
X-0007481Y0003712
X-0006391Y0005357
X-0004972Y0006683
X-0003286Y0007649
X-0001423Y0008203
X0001564Y0008191
X0003554Y0007547
X0005197Y0006511
X000656Y0005126
X000757Y0003465
X0008171Y0001617
X0008333Y-0000319
X0008047Y-0002241
X0007283Y-0004065
X0006163Y-0005628
X0004684Y-0006909
X0002274Y-000799
Y-0009565
Y-0011139
X0002409Y-0012708
Y-0014283
X0002274Y-0015852
Y-0017427
Y-0019002
Y-0020577
X0002415Y-0022145
X0003279Y-0023471
X0003487Y-0025407
X0003581Y-0027018
X0003375Y-002862
X0003832Y-0030168
X0004063Y-0031765
X0004061Y-0033379
X0004043Y-0035711
X0003985Y-0037285
X0003686Y-0038831
Y-0040406
X0003793Y-0041977
X0003159Y-0043419
T02
X0040941Y-0130658
X0052752
X0064563
X0076374
X0088185
X0099996
Y-0118846
Y-0107036
Y-0095224
X0111807
X0123618
Y-0083413
X0111807
X0099996
X0088185
Y-0095224
Y-0107036
Y-0118846
X0076374
Y-0107036
Y-0095224
Y-0083413
X0064563
Y-0095224
Y-0107036
Y-0118846
X0052752
Y-0107036
Y-0095224
Y-0083413
X0040941
Y-0095224
Y-0107036
Y-0118846
X002913
Y-0107036
Y-0095224
Y-0083413
X0017319
Y-0095224
Y-0107036
Y-0118846
Y-0130658
X002913
X0005508
Y-0118846
Y-0107036
Y-0095224
Y-0083413
X-0006303
Y-0095224
Y-0107036
Y-0118846
Y-0130658
X-0018114
Y-0118846
Y-0107036
Y-0095224
Y-0083413
X-0029925
Y-0095224
Y-0107036
Y-0118846
Y-0130658
X-0041736
Y-0118846
Y-0107036
Y-0095224
Y-0083413
X-0053547
Y-0095224
Y-0107036
Y-0118846
Y-0130658
X-0065358
Y-0118846
Y-0107036
Y-0095224
Y-0083413
X-0077169
Y-0095224
Y-0107036
Y-0118846
Y-0130658
X-008898
Y-0118846
Y-0107036
Y-0095224
Y-0083413
X-0100791
Y-0095224
Y-0107036
Y-0118846
Y-0130658
X-0112602Y-0095224
Y-0083413
X-0124414
Y-0095224
Y-0071602
Y-0059791
Y-004798
Y-0036169
Y-0024358
Y-0012547
Y-0000736
Y0011075
Y0022886
Y0034697
Y0046508
Y0058319
Y007013
X-0112602
X-0100791
X-008898
X-0077169
X-0065358
X-0053547
X-0041736
X-0029925
X-0018114
X-0006303
X0005508
X0017319
X002913
Y0058319
Y0046508
Y0034697
Y0022886
Y0011075
Y-0000736
Y-0012547
Y-0024358
Y-0036169
Y-004798
Y-0059791
Y-0071602
X0017319
Y-0059791
Y-004798
Y-0036169
Y-0024358
Y-0012547
Y-0000736
Y0011075
Y0022886
Y0034697
Y0046508
Y0058319
X0005508
Y0046508
Y0034697
Y0022886
Y0011075
X-0006303
Y0022886
Y0034697
Y0046508
Y0058319
X-0018114
Y0046508
Y0034697
Y0022886
Y0011075
Y-0000736
Y-0012547
Y-0024358
Y-0036169
X-0006303
X0005508Y-004798
Y-0059791
Y-0071602
X-0006303Y-0059791
X-0029925
Y-004798
Y-0036169
Y-0024358
Y-0012547
Y-0000736
Y0011075
Y0022886
Y0034697
Y0046508
Y0058319
X-0041736
Y0046508
Y0034697
Y0022886
Y0011075
Y-0000736
Y-0012547
Y-0024358
Y-0036169
Y-004798
Y-0059791
Y-0071602
X-0029925
X-0053547
Y-0059791
Y-004798
Y-0036169
Y-0024358
Y-0012547
Y-0000736
Y0011075
Y0022886
Y0034697
Y0046508
Y0058319
X-0065358
Y0046508
Y0034697
Y0022886
Y0011075
Y-0000736
Y-0012547
Y-0024358
Y-0036169
Y-004798
Y-0059791
Y-0071602
X-0077169
Y-0059791
Y-004798
Y-0036169
Y-0024358
Y-0012547
Y-0000736
Y0011075
Y0022886
Y0034697
Y0046508
Y0058319
X-008898
Y0046508
Y0034697
Y0022886
Y0011075
Y-0000736
Y-0012547
Y-0024358
Y-0036169
Y-004798
Y-0059791
Y-0071602
X-0100791
Y-0059791
Y-004798
Y-0036169
Y-0024358
Y-0012547
Y-0000736
Y0011075
Y0022886
Y0034697
Y0046508
Y0058319
X-0112602
Y0046508
Y0034697
Y0022886
Y0011075
Y-0000736
Y-0012547
Y-0024358
Y-0036169
Y-004798
Y-0059791
Y-0071602
X0040941
X0052752
X0064563
X0076374
X0088185
X0099996
X0111807
X0123618
Y-0059791
Y-004798
Y-0036169
Y-0024358
Y-0012547
Y-0000736
Y0011075
Y0022886
Y0034697
Y0046508
Y0058319
Y007013
X0111807
Y0058319
Y0046508
Y0034697
Y0022886
Y0011075
Y-0000736
Y-0012547
Y-0024358
Y-0036169
Y-004798
Y-0059791
X0099996
Y-004798
Y-0036169
Y-0024358
Y-0012547
Y-0000736
Y0011075
Y0022886
Y0034697
Y0046508
Y0058319
Y007013
X0088185
Y0058319
Y0046508
Y0034697
Y0022886
Y0011075
Y-0000736
Y-0012547
Y-0024358
Y-0036169
Y-004798
Y-0059791
X0076374
Y-004798
Y-0036169
Y-0024358
Y-0012547
Y-0000736
Y0011075
Y0022886
Y0034697
Y0046508
Y0058319
Y007013
X0064563
Y0058319
Y0046508
Y0034697
Y0022886
Y0011075
Y-0000736
Y-0012547
Y-0024358
Y-0036169
Y-004798
Y-0059791
X0052752
Y-004798
Y-0036169
Y-0024358
Y-0012547
Y-0000736
Y0011075
Y0022886
Y0034697
Y0046508
Y0058319
Y007013
X0040941
Y0058319
Y0046508
Y0034697
Y0022886
Y0011075
Y-0000736
Y-0012547
Y-0024358
Y-0036169
Y-004798
Y-0059791
Y0081941
X0052752
X0064563
X0076374
X0088185
X0099996
X0111807
X0123618
Y0093752
X0111807
X0099996
Y0105563
Y0117374
Y0129185
X0088185
Y0117374
Y0105563
Y0093752
X0076374
Y0105563
Y0117374
Y0129185
X0064563
Y0117374
Y0105563
Y0093752
X0052752
Y0105563
Y0117374
Y0129185
X0040941
Y0117374
Y0105563
Y0093752
X002913
Y0105563
Y0117374
Y0129185
X0017319
Y0117374
Y0105563
Y0093752
Y0081941
X002913
X0005508
Y0093752
Y0105563
Y0117374
Y0129185
X-0006303
Y0117374
Y0105563
Y0093752
Y0081941
X-0018114
Y0093752
Y0105563
Y0117374
Y0129185
X-0029925
Y0117374
Y0105563
Y0093752
Y0081941
X-0041736
Y0093752
Y0105563
Y0117374
Y0129185
X-0053547
Y0117374
Y0105563
Y0093752
Y0081941
X-0065358
Y0093752
Y0105563
Y0117374
Y0129185
X-0077169
Y0117374
Y0105563
Y0093752
Y0081941
X-008898
Y0093752
Y0105563
Y0117374
Y0129185
X-0100791
Y0117374
Y0105563
Y0093752
Y0081941
X-0112602
Y0093752
X-0124414
Y0081941
T03
X0Y0
T04
X011811Y-011811
X-011811
X011811Y011811
X-011811
M30
