M48
;Layer_Color=9474304
;FILE_FORMAT=2:5
INCH,LZ
;TYPE=PLATED
T1F00S00C0.01181
T2F00S00C0.03740
T3F00S00C0.12598
%
T01
X0040907Y-012275
Y-0107002
Y-0091254
X0056656
X0072404
X0088152
Y-0107002
Y-012275
X01039
Y-0107002
Y-0091254
X0119648
X0072404Y-0107002
Y-012275
X0056656
Y-0107002
X0025159
Y-012275
X0009411
Y-0107002
X-0006337
Y-0091254
X-0022085
Y-0107002
Y-012275
X-0006337
X-0037833
X-0053581
Y-0107002
Y-0091254
X-0037833
Y-0107002
X-0069329
X-0085077
Y-0091254
X-0100825
Y-0107002
Y-012275
X-0085077
X-0069329
Y-0091254
X-0116573
X0009411
X0025159
X-0132321
Y-0107002
Y-012275
Y-0075506
Y-0059758
Y-004401
Y-0028262
Y-0012514
Y0003234
Y0018982
Y003473
Y0050478
Y0066226
X-0116573
X-0100825
Y0050478
X-0116573
Y003473
X-0100825
X-0085077
X-0069329
X-0053581
Y0018982
X-0069329
X-0085077
Y0003234
Y-0012514
X-0100825
Y-0028262
X-0085077
X-0069329
X-0053581
X-0037833
Y-004401
X-0053581
X-0069329
Y-0059758
X-0085077
Y-0075506
X-0100825
X-0116573
Y-0059758
Y-004401
Y-0028262
Y-0012514
Y0003234
X-0100825
Y0018982
X-0116573
X-0085077Y0050478
Y0066226
X-0069329
X-0053581
X-0037833
X-0022085
X-0006337
X0009411
X0025159
Y0050478
X0009411
Y003473
Y0018982
X-0006337
X-0004903Y000638
X-0001928Y0007824
X0001981Y0007792
X0004836Y000638
X0006707Y0004389
X0007757Y0001928
X0007897Y-0001011
X0006707Y-0004322
X0009412Y-000464
X0004322Y-0006707
X0002961Y-0008636
X0002958Y-0011392
X0002763Y-0014141
X0005118Y-0016142
X0003989Y-0019069
X0004381Y-0021797
X0004789Y-0023936
X0004456Y-0026301
X0004234Y-0029048
X000476Y-0032987
X0005118Y-0035827
Y-0038976
X0002097Y-0039065
X00023Y-004169
X0003122Y-0044884
X0004331Y-0047441
X0002946Y-0049657
X0004724Y-0052165
X0003077Y-0054372
X0002906Y-0057122
X0003077Y-0059873
X0002788Y-0062614
X0003825Y-0065167
Y-0067923
X0002571Y-0070376
X-0000179Y-0070558
X-0002931Y-0070412
X-0004286Y-0068012
Y-0065256
X-000329Y-0057237
X-0003538Y-0054492
X-0003937Y-0050787
X-0005906Y-0047047
X-0006102Y-0044094
X-0004331Y-0039764
X-0007874Y-003937
X-0010236Y-0041732
X-0018504Y-0041535
X-0014764Y-0035236
X-001421Y-0028262
X-0006336
X-0001772Y-0029331
X-000216Y-0026202
X-0002494Y-0023936
X-0004528Y-0022441
X-0005118Y-0019685
X-0004921Y-0016732
X-0002663Y-0013973
X-0003054Y-0011246
X-0002999Y-000849
X-0004389Y-0006707
X-000638Y-0004836
X-0007672Y-0002429
X-0008049Y0000435
X-0007176Y0003693
X-001421Y0003235
Y-000464
X-0022084
Y0003235
X-0022085Y0018982
Y003473
X-0037833
Y0050478
X-0053581
X-0069329
X-0022085
X-0006337
Y003473
X0025159
Y0018982
X0017286Y0003235
Y-000464
Y-0012514
X0009412
Y-0020388
Y-0028262
Y-0036136
X0017286
Y-0028262
Y-0020388
X002516Y-0012514
X0017286Y-004401
Y-0051884
Y-0059758
X002516
X0009412
Y-0051884
Y-004401
X-0008268Y-0052559
X-001421Y-0051884
X-0014173Y-0047441
X-0022084Y-0051884
Y-0059758
X-0029958
X-0037833Y-0059758
X-0053581
Y-0075506
X-0037833
X-0069329
X-0100825Y-0059758
Y-004401
X-0085077
X-0069329Y-0012514
X-0053581
Y0003234
X-0037833
Y0018982
Y-0012514
X-0029958Y-0012514
X-0022084
Y-0020388
X-001421
X-0022084Y-0028262
X-0006337Y-0075506
X-0069329Y0003234
X0040907
Y0018982
Y003473
Y0050478
X0056656
Y003473
X0072404
X0088152
Y0018982
Y0003234
Y-0012514
Y-0028262
Y-004401
X01039
Y-0028262
X0119648
Y-0012514
X01039
Y0003234
Y0018982
X0119648
Y003473
X01039
Y0050478
Y0066226
X0088152
X0072404
X0056656
X0040907
X0072404Y0050478
X0088152
X0119648
Y0066226
Y0003234
X0072404
Y-0012514
X0056656
Y-0028262
Y-004401
Y-0059758
X0072404
Y-004401
Y-0028262
X0040907
Y-0012514
Y-004401
Y-0059758
Y-0075506
X0056656
X0072404
X0088152
X01039
X0119648
Y-0059758
X01039
X0088152
X0119648Y-004401
X0056656Y0003234
Y0018982
X0072404
Y0081974
X0056656
X0040907
Y0097722
Y011347
X0056656
Y0097722
X0072404
X0088152
X01039
Y011347
X0088152
X0072404
X0088152Y0081974
X01039
X0119648
Y0097722
X0025159
X0009411
Y011347
X-0006337
Y0097722
X-0022085
Y0081974
X-0037833
X-0053581
X-0069329
X-0085077
Y0097722
Y011347
X-0069329
X-0053581
Y0097722
X-0069329
X-0100825
X-0116573
Y0081974
X-0100825
Y011347
X-0037833
X-0022085
X-0037833Y0097722
X-0006337Y0081974
X0009411
X0025159
Y011347
X-0132321
Y0097722
Y0081974
T02
X-0000033Y0000033
T03
X0118077Y-0118077
X-0118144
X0118077Y0118144
X-0118144
M30
