G04*
G04 #@! TF.GenerationSoftware,Altium Limited,Altium Designer,22.4.2 (48)*
G04*
G04 Layer_Physical_Order=2*
G04 Layer_Color=36540*
%FSLAX25Y25*%
%MOIN*%
G70*
G04*
G04 #@! TF.SameCoordinates,8AB4A971-0839-457E-B64D-4FD5DF5DD75B*
G04*
G04*
G04 #@! TF.FilePolarity,Positive*
G04*
G01*
G75*
%ADD50C,0.09843*%
%ADD51C,0.01968*%
%ADD52C,0.03543*%
%ADD53C,0.23622*%
G36*
X136650Y-136650D02*
X-136717D01*
Y136717D01*
X136650D01*
Y-136650D01*
D02*
G37*
%LPC*%
G36*
X645Y6923D02*
X-712D01*
X-2043Y6658D01*
X-3297Y6139D01*
X-4425Y5385D01*
X-5385Y4425D01*
X-6139Y3297D01*
X-6658Y2043D01*
X-6923Y712D01*
Y33D01*
Y-645D01*
X-6658Y-1976D01*
X-6139Y-3230D01*
X-5385Y-4358D01*
X-4425Y-5318D01*
X-3297Y-6072D01*
X-2043Y-6592D01*
X-712Y-6856D01*
X645D01*
X1976Y-6592D01*
X3230Y-6072D01*
X4358Y-5318D01*
X5318Y-4358D01*
X6072Y-3230D01*
X6592Y-1976D01*
X6856Y-645D01*
Y33D01*
Y712D01*
X6592Y2043D01*
X6072Y3297D01*
X5318Y4425D01*
X4358Y5385D01*
X3230Y6139D01*
X1976Y6658D01*
X645Y6923D01*
D02*
G37*
%LPD*%
D50*
X-33Y33D02*
D03*
D51*
X8005Y-2153D02*
D03*
X-2986Y-7250D02*
D03*
X-3426Y-9975D02*
D03*
X2999Y-13713D02*
D03*
X-2941Y-12688D02*
D03*
X-8279Y-1052D02*
D03*
X8212Y1119D02*
D03*
X-7401Y-3867D02*
D03*
X6565Y-5029D02*
D03*
X-7026Y4582D02*
D03*
X2919Y-7447D02*
D03*
X-8133Y1991D02*
D03*
X-4582Y7026D02*
D03*
X7334Y3934D02*
D03*
X-1119Y8279D02*
D03*
X2352Y8018D02*
D03*
X3359Y-10981D02*
D03*
X-5610Y-6170D02*
D03*
X5544Y6237D02*
D03*
X1622Y-41915D02*
D03*
X1427Y-39166D02*
D03*
X4303Y-16160D02*
D03*
X4728Y-33889D02*
D03*
X-6693Y-42323D02*
D03*
X-5118Y-18898D02*
D03*
Y-15748D02*
D03*
X4528Y-36811D02*
D03*
X-2199Y-29494D02*
D03*
X-4455Y-40225D02*
D03*
X4622Y-21395D02*
D03*
X4310Y-18656D02*
D03*
X-6102Y-45079D02*
D03*
X-14173Y-47047D02*
D03*
X-6102Y-10039D02*
D03*
X2858Y-44022D02*
D03*
X-5906Y-47441D02*
D03*
X4691Y-25163D02*
D03*
X-14961Y-9843D02*
D03*
X-10236Y-6102D02*
D03*
X4680Y-28643D02*
D03*
X-10236Y-13780D02*
D03*
X-2744Y-26583D02*
D03*
X-15157Y-35039D02*
D03*
X-7283Y-39370D02*
D03*
X3391Y-51463D02*
D03*
X-18504Y-41339D02*
D03*
X-2744Y-23744D02*
D03*
X-8268Y-52559D02*
D03*
X-10039Y-41339D02*
D03*
X4196Y-31356D02*
D03*
X-3353Y-21292D02*
D03*
X-22084Y-4640D02*
D03*
X9412Y-12514D02*
D03*
Y-4640D02*
D03*
X-29958Y-59758D02*
D03*
X-22084Y-51884D02*
D03*
X9412Y-20388D02*
D03*
X-22084D02*
D03*
X-14210Y-4640D02*
D03*
Y3235D02*
D03*
X9412Y-36136D02*
D03*
Y-28262D02*
D03*
X17286Y-59758D02*
D03*
X25160Y-12514D02*
D03*
X-6336Y-28262D02*
D03*
X17286Y-51884D02*
D03*
Y-20388D02*
D03*
Y-36136D02*
D03*
X-14210Y-20388D02*
D03*
X9412Y-44010D02*
D03*
X17286Y-12514D02*
D03*
X-29958D02*
D03*
X9412Y-51884D02*
D03*
X-14210Y-28262D02*
D03*
X17286Y-4640D02*
D03*
X-22084Y3235D02*
D03*
Y-59758D02*
D03*
Y-28262D02*
D03*
X-14210Y-51884D02*
D03*
X17286Y-28262D02*
D03*
Y3235D02*
D03*
X25160Y-59758D02*
D03*
X-22084Y-12514D02*
D03*
X9412Y-59758D02*
D03*
X17286Y-44010D02*
D03*
X2865Y-46518D02*
D03*
X-4846Y-50321D02*
D03*
X3124Y-49262D02*
D03*
X-3686Y-52991D02*
D03*
X-2082Y-70879D02*
D03*
X673D02*
D03*
X3353Y-70233D02*
D03*
X-4413Y-69408D02*
D03*
X3317Y-56714D02*
D03*
X3399Y-53960D02*
D03*
X4147Y-67594D02*
D03*
X-4607Y-66659D02*
D03*
X4147Y-64838D02*
D03*
X-3859Y-55741D02*
D03*
X3399Y-59469D02*
D03*
X-4482Y-63906D02*
D03*
X3279Y-62222D02*
D03*
D52*
X40907Y81974D02*
D03*
X-85077D02*
D03*
X25159Y50478D02*
D03*
X56656Y81974D02*
D03*
X-100825Y-91254D02*
D03*
X25159Y-107002D02*
D03*
X9411Y97722D02*
D03*
X-53581Y-107002D02*
D03*
X88152Y34730D02*
D03*
X-132321Y18982D02*
D03*
X-100825Y66226D02*
D03*
X25159Y81974D02*
D03*
X-85077Y34730D02*
D03*
X-6337Y-91254D02*
D03*
X40907Y-107002D02*
D03*
X-22085D02*
D03*
X40907Y113470D02*
D03*
X88152Y-12514D02*
D03*
X-85077Y97722D02*
D03*
X103900Y3234D02*
D03*
X56656Y50478D02*
D03*
X-53581Y-75506D02*
D03*
X88152Y-44010D02*
D03*
Y-91254D02*
D03*
X-53581Y18982D02*
D03*
X-116573Y-44010D02*
D03*
X-132321Y3234D02*
D03*
Y-59758D02*
D03*
X-53581Y-28262D02*
D03*
X-37833D02*
D03*
X-69329Y113470D02*
D03*
X40907Y50478D02*
D03*
X56656Y-91254D02*
D03*
X-132321Y-28262D02*
D03*
X119648Y-91254D02*
D03*
X-37833Y66226D02*
D03*
X-132321D02*
D03*
X-85077Y-91254D02*
D03*
X-116573Y97722D02*
D03*
X56656Y-44010D02*
D03*
X-100825Y50478D02*
D03*
X-37833Y3234D02*
D03*
X-100825Y81974D02*
D03*
X72404Y-59758D02*
D03*
X103900Y97722D02*
D03*
X88152Y18982D02*
D03*
X119648Y-28262D02*
D03*
X-132321Y-122750D02*
D03*
X88152Y3234D02*
D03*
X103900Y-44010D02*
D03*
X119648Y-75506D02*
D03*
X56656Y-59758D02*
D03*
X103900Y-28262D02*
D03*
X-37833Y-44010D02*
D03*
X-53581Y50478D02*
D03*
X-116573Y81974D02*
D03*
X103900Y50478D02*
D03*
X-22085Y66226D02*
D03*
X-6337Y18982D02*
D03*
X88152Y-122750D02*
D03*
X-100825Y-12514D02*
D03*
X88152Y-28262D02*
D03*
X40907Y97722D02*
D03*
X-100825Y-75506D02*
D03*
X119648Y-12514D02*
D03*
X25159Y97722D02*
D03*
X-22085Y18982D02*
D03*
X119648Y-59758D02*
D03*
X-22085Y81974D02*
D03*
X40907Y-59758D02*
D03*
X-53581Y34730D02*
D03*
X103900Y-12514D02*
D03*
X56656Y34730D02*
D03*
X119648Y18982D02*
D03*
X-85077Y113470D02*
D03*
Y-12514D02*
D03*
X25159Y-122750D02*
D03*
X56656Y-28262D02*
D03*
X-116573Y-75506D02*
D03*
X-132321Y81974D02*
D03*
X56656Y-12514D02*
D03*
X-53581Y66226D02*
D03*
X40907Y-28262D02*
D03*
X72404Y66226D02*
D03*
X9411Y-122750D02*
D03*
X88152Y-75506D02*
D03*
X-85077Y-122750D02*
D03*
X40907Y18982D02*
D03*
X25159Y-91254D02*
D03*
X103900Y113470D02*
D03*
X-132321Y50478D02*
D03*
X-85077Y-59758D02*
D03*
X9411Y18982D02*
D03*
X-53581Y-12514D02*
D03*
X-69329Y18982D02*
D03*
X-22085Y97722D02*
D03*
X25159Y66226D02*
D03*
X-37833Y34730D02*
D03*
X40907Y66226D02*
D03*
X56656D02*
D03*
X-6337D02*
D03*
X-69329D02*
D03*
X-132321Y-75506D02*
D03*
X-6337Y-107002D02*
D03*
X-85077Y-28262D02*
D03*
X9411Y-107002D02*
D03*
X56656Y113470D02*
D03*
X88152Y66226D02*
D03*
X-37833Y81974D02*
D03*
X40907Y-12514D02*
D03*
X-100825Y-107002D02*
D03*
X-6337Y113470D02*
D03*
X72404Y-44010D02*
D03*
X9411Y113470D02*
D03*
X103900Y-59758D02*
D03*
X-69329Y81974D02*
D03*
X-116573Y50478D02*
D03*
X-69329Y-44010D02*
D03*
Y34730D02*
D03*
X-53581Y-122750D02*
D03*
X-132321Y97722D02*
D03*
X-22085Y-91254D02*
D03*
X-53581D02*
D03*
X-6337Y97722D02*
D03*
X56656Y-75506D02*
D03*
X-85077D02*
D03*
X-100825Y113470D02*
D03*
X119648Y34730D02*
D03*
X103900Y18982D02*
D03*
X-69329Y-107002D02*
D03*
X103900Y-75506D02*
D03*
X-100825Y-28262D02*
D03*
X88152Y-107002D02*
D03*
Y81974D02*
D03*
X103900Y-122750D02*
D03*
X-116573Y-28262D02*
D03*
X-132321Y-107002D02*
D03*
X-22085Y113470D02*
D03*
X-100825Y-122750D02*
D03*
X72404Y-91254D02*
D03*
Y3234D02*
D03*
X-132321Y113470D02*
D03*
X-6337Y34730D02*
D03*
X-53581Y-44010D02*
D03*
Y3234D02*
D03*
X119648Y66226D02*
D03*
X-69329Y-59758D02*
D03*
X9411Y-91254D02*
D03*
X-100825Y3234D02*
D03*
X88152Y113470D02*
D03*
X-6337Y-122750D02*
D03*
X40907Y-91254D02*
D03*
X9411Y34730D02*
D03*
X-69329Y-28262D02*
D03*
X72404Y-107002D02*
D03*
X-100825Y-59758D02*
D03*
X40907Y-44010D02*
D03*
X-22085Y34730D02*
D03*
X-37833Y-59758D02*
D03*
X103900Y66226D02*
D03*
X72404Y-12514D02*
D03*
X119648Y81974D02*
D03*
X-116573Y-12514D02*
D03*
X-85077Y66226D02*
D03*
X-100825Y97722D02*
D03*
X-53581Y-59758D02*
D03*
X40907Y3234D02*
D03*
X-69329Y50478D02*
D03*
X40907Y-122750D02*
D03*
X56656Y3234D02*
D03*
X-37833Y-75506D02*
D03*
X72404Y-122750D02*
D03*
Y-75506D02*
D03*
Y34730D02*
D03*
X-37833Y-122750D02*
D03*
X-53581Y113470D02*
D03*
X25159Y18982D02*
D03*
X9411Y50478D02*
D03*
X72404Y97722D02*
D03*
X56656D02*
D03*
X-85077Y18982D02*
D03*
X-100825Y34730D02*
D03*
X-85077Y3234D02*
D03*
X-53581Y81974D02*
D03*
X40907Y34730D02*
D03*
X119648Y97722D02*
D03*
X25159Y34730D02*
D03*
X-22085Y50478D02*
D03*
X103900Y-107002D02*
D03*
Y81974D02*
D03*
X9411Y66226D02*
D03*
X40907Y-75506D02*
D03*
X-53581Y97722D02*
D03*
X56656Y-107002D02*
D03*
X-132321Y-91254D02*
D03*
X-116573Y-59758D02*
D03*
Y66226D02*
D03*
X88152Y97722D02*
D03*
X-6337Y81974D02*
D03*
X-116573Y18982D02*
D03*
X-69329Y97722D02*
D03*
X119648Y-44010D02*
D03*
X56656Y-122750D02*
D03*
X-69329Y-75506D02*
D03*
X-37833Y-91254D02*
D03*
X72404Y-28262D02*
D03*
Y18982D02*
D03*
X-22085Y-122750D02*
D03*
X88152Y-59758D02*
D03*
X25159Y113470D02*
D03*
X-116573Y3234D02*
D03*
X-132321Y-44010D02*
D03*
X-116573Y-91254D02*
D03*
X-6337Y50478D02*
D03*
X-37833Y-107002D02*
D03*
Y50478D02*
D03*
X-116573Y34730D02*
D03*
X-132321Y-12514D02*
D03*
X-6337Y-75506D02*
D03*
X-85077Y-107002D02*
D03*
X-37833Y97722D02*
D03*
X103900Y34730D02*
D03*
Y-91254D02*
D03*
X-85077Y50478D02*
D03*
X72404Y113470D02*
D03*
X-37833Y18982D02*
D03*
X9411Y81974D02*
D03*
X119648Y3234D02*
D03*
X-85077Y-44010D02*
D03*
X-37833Y-12514D02*
D03*
X-69329Y-91254D02*
D03*
Y3234D02*
D03*
X119648Y50478D02*
D03*
X-69329Y-12514D02*
D03*
X88152Y50478D02*
D03*
X-100825Y-44010D02*
D03*
X72404Y50478D02*
D03*
X-132321Y34730D02*
D03*
X-100825Y18982D02*
D03*
X-69329Y-122750D02*
D03*
X56656Y18982D02*
D03*
X-37833Y113470D02*
D03*
X72404Y81974D02*
D03*
D53*
X-118144Y-118077D02*
D03*
X118077D02*
D03*
Y118144D02*
D03*
X-118144D02*
D03*
M02*
