M48
;Layer_Color=9474304
;FILE_FORMAT=2:5
INCH,LZ
;TYPE=PLATED
T1F00S00C0.01181
T2F00S00C0.03740
T3F00S00C0.12598
%
T01
X0040907Y-012275
Y-0107002
Y-0091254
X0056656
X0072404
X0088152
Y-0107002
Y-012275
X01039
Y-0107002
Y-0091254
X0119648
X0072404Y-0107002
Y-012275
X0056656
Y-0107002
X0025159
Y-012275
X0009411
Y-0107002
X-0006337
Y-0091254
X-0022085
Y-0107002
Y-012275
X-0006337
X-0037833
X-0053581
Y-0107002
Y-0091254
X-0037833
Y-0107002
X-0069329
X-0085077
Y-0091254
X-0100825
Y-0107002
Y-012275
X-0085077
X-0069329
Y-0091254
X-0116573
X0009411
X0025159
X-0132321
Y-0107002
Y-012275
Y-0075506
Y-0059758
Y-004401
Y-0028262
Y-0012514
Y0003234
Y0018982
Y003473
Y0050478
Y0066226
X-0116573
X-0100825
Y0050478
X-0116573
Y003473
X-0100825
X-0085077
X-0069329
X-0053581
Y0018982
X-0069329
X-0085077
Y0003234
Y-0012514
X-0100825
Y-0028262
X-0085077
X-0069329
X-0053581
X-0037833
Y-004401
X-0053581
X-0069329
Y-0059758
X-0085077
Y-0075506
X-0100825
X-0116573
Y-0059758
Y-004401
Y-0028262
Y-0012514
Y0003234
X-0100825
Y0018982
X-0116573
X-0085077Y0050478
Y0066226
X-0069329
X-0053581
X-0037833
X-0022085
X-0006337
X0009411
X0025159
Y0050478
X0009411
Y003473
Y0018982
X-0006337
X-0004582Y0007026
X-0001119Y0008279
X0002352Y0008018
X0005544Y0006237
X0007334Y0003934
X0008212Y0001119
X0008005Y-0002153
X0009412Y-000464
X0006565Y-0005029
X0002919Y-0007447
X0003359Y-0010981
X0002999Y-0013713
X0004303Y-001616
X000431Y-0018656
X0004622Y-0021395
X0004691Y-0025163
X000468Y-0028643
X0004196Y-0031356
X0004728Y-0033889
X0004528Y-0036811
X0001427Y-0039166
X0001622Y-0041915
X0002858Y-0044022
X0002865Y-0046518
X0003124Y-0049262
X0003391Y-0051463
X0003399Y-005396
X0003317Y-0056714
X0003399Y-0059469
X0003279Y-0062222
X0004147Y-0064838
Y-0067594
X0003353Y-0070233
X0000673Y-0070879
X-0002082
X-0004413Y-0069408
X-0004607Y-0066659
X-0004482Y-0063906
X-0003859Y-0055741
X-0003686Y-0052991
X-0004846Y-0050321
X-0005906Y-0047441
X-0006102Y-0045079
X-0006693Y-0042323
X-0007283Y-003937
X-0004455Y-0040225
X-0010039Y-0041339
X-0018504
X-0015157Y-0035039
X-001421Y-0028262
X-0006336
X-0002744Y-0026583
Y-0023744
X-0003353Y-0021292
X-0005118Y-0018898
Y-0015748
X-0002941Y-0012688
X-0003426Y-0009975
X-0006102Y-0010039
X-000561Y-000617
X-0002986Y-000725
X-0007401Y-0003867
X-0008279Y-0001052
X-0008133Y0001991
X-0007026Y0004582
X-001421Y0003235
Y-000464
X-0010236Y-0006102
Y-001378
X-0014961Y-0009843
X-0022084Y-0012514
Y-000464
Y0003235
X-0022085Y0018982
Y003473
X-0037833
Y0050478
X-0053581
X-0069329
X-0022085
X-0006337
Y003473
X0025159
Y0018982
X0017286Y0003235
Y-000464
Y-0012514
X0009412
Y-0020388
Y-0028262
Y-0036136
X0017286
Y-0028262
Y-0020388
X002516Y-0012514
X0017286Y-004401
Y-0051884
Y-0059758
X002516
X0009412
Y-0051884
Y-004401
X-0002199Y-0029494
X-001421Y-0020388
X-0022084
Y-0028262
Y-0051884
Y-0059758
X-0029958
X-0037833Y-0059758
X-0053581
Y-0075506
X-0037833
X-0069329
X-0100825Y-0059758
Y-004401
X-0085077
X-0069329Y-0012514
X-0053581
Y0003234
X-0037833
Y0018982
Y-0012514
X-0029958Y-0012514
X-0014173Y-0047047
X-001421Y-0051884
X-0008268Y-0052559
X-0006337Y-0075506
X-0069329Y0003234
X0040907
Y0018982
Y003473
Y0050478
X0056656
Y003473
X0072404
X0088152
Y0018982
Y0003234
Y-0012514
Y-0028262
Y-004401
X01039
Y-0028262
X0119648
Y-0012514
X01039
Y0003234
Y0018982
X0119648
Y003473
X01039
Y0050478
Y0066226
X0088152
X0072404
X0056656
X0040907
X0072404Y0050478
X0088152
X0119648
Y0066226
Y0003234
X0072404
Y-0012514
X0056656
Y-0028262
Y-004401
Y-0059758
X0072404
Y-004401
Y-0028262
X0040907
Y-0012514
Y-004401
Y-0059758
Y-0075506
X0056656
X0072404
X0088152
X01039
X0119648
Y-0059758
X01039
X0088152
X0119648Y-004401
X0056656Y0003234
Y0018982
X0072404
Y0081974
X0056656
X0040907
Y0097722
Y011347
X0056656
Y0097722
X0072404
X0088152
X01039
Y011347
X0088152
X0072404
X0088152Y0081974
X01039
X0119648
Y0097722
X0025159
X0009411
Y011347
X-0006337
Y0097722
X-0022085
Y0081974
X-0037833
X-0053581
X-0069329
X-0085077
Y0097722
Y011347
X-0069329
X-0053581
Y0097722
X-0069329
X-0100825
X-0116573
Y0081974
X-0100825
Y011347
X-0037833
X-0022085
X-0037833Y0097722
X-0006337Y0081974
X0009411
X0025159
Y011347
X-0132321
Y0097722
Y0081974
T02
X-0000033Y0000033
T03
X0118077Y-0118077
X-0118144
X0118077Y0118144
X-0118144
M30
