G04*
G04 #@! TF.GenerationSoftware,Altium Limited,Altium Designer,21.8.1 (53)*
G04*
G04 Layer_Physical_Order=3*
G04 Layer_Color=16440176*
%FSLAX24Y24*%
%MOIN*%
G70*
G04*
G04 #@! TF.SameCoordinates,EDC69185-3C86-4443-AEAC-3931C59231B4*
G04*
G04*
G04 #@! TF.FilePolarity,Positive*
G04*
G01*
G75*
%ADD11C,0.0157*%
%ADD40C,0.0197*%
%ADD41C,0.0591*%
%ADD44C,0.0478*%
%ADD45C,0.0276*%
%ADD47C,0.0787*%
%ADD48C,0.0512*%
%ADD49C,0.0394*%
G36*
X-9073Y-400D02*
X-9544Y-871D01*
X-9544Y-871D01*
X-9961Y-1287D01*
X-10009Y-1350D01*
X-10038Y-1422D01*
X-10049Y-1499D01*
Y-2089D01*
X-10049Y-2089D01*
Y-3289D01*
X-11999D01*
X-12077Y-3299D01*
X-12149Y-3329D01*
X-12211Y-3377D01*
X-12259Y-3439D01*
X-12288Y-3511D01*
X-12299Y-3589D01*
X-12288Y-3666D01*
X-12259Y-3738D01*
X-12211Y-3800D01*
X-12149Y-3848D01*
X-12077Y-3878D01*
X-11999Y-3888D01*
X-8749D01*
X-8745Y-3888D01*
X-8612Y-3901D01*
X-8481Y-3941D01*
X-8359Y-4005D01*
X-8256Y-4090D01*
X-8254Y-4093D01*
X-7499Y-4848D01*
Y-6727D01*
X-7543Y-6739D01*
X-7549Y-6739D01*
X-7615Y-6673D01*
X-7702Y-6637D01*
X-7797D01*
X-7884Y-6673D01*
X-7951Y-6740D01*
X-7987Y-6827D01*
Y-6922D01*
X-7951Y-7009D01*
X-7884Y-7076D01*
X-7797Y-7112D01*
X-7702D01*
X-7615Y-7076D01*
X-7549Y-7010D01*
X-7543Y-7010D01*
X-7499Y-7021D01*
Y-8871D01*
X-7500D01*
X-7485Y-9055D01*
X-7442Y-9236D01*
X-7371Y-9407D01*
X-7326Y-9481D01*
X-7350Y-9524D01*
X-12946D01*
Y-724D01*
X-12945Y-707D01*
X-12940Y-669D01*
X-12931Y-620D01*
X-12905Y-557D01*
X-12877Y-515D01*
X-12861Y-495D01*
X-12825Y-459D01*
X-12804Y-443D01*
X-12762Y-415D01*
X-12700Y-389D01*
X-12650Y-379D01*
X-12613Y-374D01*
X-12595Y-373D01*
X-12485D01*
X-12465Y-377D01*
X-12465Y-377D01*
Y-377D01*
X-10372D01*
X-10372Y-377D01*
X-10372Y-377D01*
X-10345Y-372D01*
X-10343Y-372D01*
X-10313Y-366D01*
X-10313Y-366D01*
X-10312Y-365D01*
X-10312Y-365D01*
X-10312Y-365D01*
X-10312Y-365D01*
X-10312Y-365D01*
X-10288Y-349D01*
X-10262Y-332D01*
X-10262Y-332D01*
X-10262Y-332D01*
X-10262Y-332D01*
X-10261Y-331D01*
X-10261Y-331D01*
X-10261Y-331D01*
X-10245Y-307D01*
X-10228Y-281D01*
X-10228Y-281D01*
X-10227Y-281D01*
X-10227Y-280D01*
X-10227Y-280D01*
X-10227Y-280D01*
X-10227Y-280D01*
X-10221Y-250D01*
X-10216Y-224D01*
X-9249D01*
X-9073Y-400D01*
D02*
G37*
G36*
X173Y15891D02*
X355Y15816D01*
X519Y15706D01*
X658Y15567D01*
X768Y15403D01*
X843Y15221D01*
X882Y15028D01*
Y14930D01*
Y2630D01*
Y2531D01*
X843Y2338D01*
X768Y2156D01*
X658Y1992D01*
X519Y1853D01*
X355Y1743D01*
X173Y1668D01*
X-20Y1630D01*
X-7268D01*
Y-224D01*
X-6848D01*
X-6836Y-266D01*
X-6836Y-274D01*
X-6901Y-340D01*
X-6937Y-427D01*
Y-522D01*
X-6901Y-609D01*
X-6834Y-676D01*
X-6747Y-712D01*
X-6652D01*
X-6565Y-676D01*
X-6498Y-609D01*
X-6461Y-522D01*
Y-427D01*
X-6498Y-340D01*
X-6563Y-274D01*
X-6563Y-266D01*
X-6551Y-224D01*
X-5821D01*
X-5810Y-279D01*
X-5777Y-329D01*
X-5727Y-362D01*
X-5669Y-373D01*
X-3253D01*
X-3236Y-374D01*
X-3198Y-379D01*
X-3149Y-389D01*
X-3086Y-415D01*
X-3044Y-443D01*
X-3023Y-459D01*
X-2988Y-495D01*
X-2972Y-515D01*
X-2944Y-557D01*
X-2918Y-620D01*
X-2908Y-670D01*
X-2903Y-707D01*
X-2902Y-724D01*
Y-9524D01*
X-4760D01*
X-4761Y-9522D01*
Y-9427D01*
X-4798Y-9340D01*
X-4865Y-9273D01*
X-4952Y-9237D01*
X-5047D01*
X-5134Y-9273D01*
X-5201Y-9340D01*
X-5237Y-9427D01*
Y-9522D01*
X-5239Y-9524D01*
X-5785D01*
X-5937Y-9461D01*
X-6104Y-9421D01*
X-6207Y-9413D01*
X-6226Y-9411D01*
X-6233Y-9410D01*
X-6273Y-9408D01*
X-6290Y-9404D01*
X-6311Y-9372D01*
Y-9277D01*
X-6348Y-9190D01*
X-6415Y-9123D01*
X-6502Y-9087D01*
X-6597D01*
X-6684Y-9123D01*
X-6745Y-9184D01*
X-6790Y-9195D01*
X-6799Y-9196D01*
X-6824Y-9163D01*
X-6882Y-9022D01*
X-6901Y-8880D01*
X-6900Y-8871D01*
Y-4748D01*
X-6245Y-4093D01*
X-6242Y-4090D01*
X-6139Y-4005D01*
X-6018Y-3941D01*
X-5886Y-3901D01*
X-5753Y-3888D01*
X-5749Y-3888D01*
X-5249D01*
X-5172Y-3878D01*
X-5100Y-3848D01*
X-5038Y-3800D01*
X-4990Y-3738D01*
X-4960Y-3666D01*
X-4950Y-3589D01*
X-4960Y-3511D01*
X-4990Y-3439D01*
X-5038Y-3377D01*
X-5100Y-3329D01*
X-5172Y-3299D01*
X-5249Y-3289D01*
X-5749D01*
Y-3288D01*
X-5953Y-3304D01*
X-6151Y-3351D01*
X-6340Y-3430D01*
X-6514Y-3536D01*
X-6669Y-3669D01*
X-6668Y-3670D01*
X-7249Y-4251D01*
X-7830Y-3670D01*
X-7829Y-3669D01*
X-7985Y-3536D01*
X-8159Y-3430D01*
X-8347Y-3351D01*
X-8546Y-3304D01*
X-8749Y-3288D01*
Y-3289D01*
X-9450D01*
Y-2985D01*
X-9408Y-2957D01*
X-9397Y-2962D01*
X-9302D01*
X-9215Y-2926D01*
X-9148Y-2859D01*
X-9111Y-2772D01*
Y-2677D01*
X-9148Y-2590D01*
X-9215Y-2523D01*
X-9302Y-2487D01*
X-9397D01*
X-9408Y-2491D01*
X-9450Y-2464D01*
Y-2089D01*
X-9450Y-2089D01*
Y-1623D01*
X-9121Y-1294D01*
X-9121Y-1294D01*
X-8438Y-612D01*
X-8391Y-550D01*
X-8361Y-477D01*
X-8351Y-400D01*
X-8361Y-323D01*
X-8362Y-320D01*
X-8391Y-250D01*
X-8418Y-214D01*
Y1630D01*
X-15767D01*
X-15960Y1668D01*
X-16142Y1743D01*
X-16306Y1853D01*
X-16445Y1992D01*
X-16555Y2156D01*
X-16630Y2338D01*
X-16668Y2531D01*
Y2630D01*
Y4730D01*
X-16618Y13630D01*
Y14930D01*
Y15028D01*
X-16580Y15221D01*
X-16505Y15403D01*
X-16395Y15567D01*
X-16256Y15706D01*
X-16092Y15816D01*
X-15910Y15891D01*
X-15717Y15930D01*
X-20D01*
X173Y15891D01*
D02*
G37*
%LPC*%
G36*
X-12052Y-1937D02*
X-12147D01*
X-12234Y-1973D01*
X-12301Y-2040D01*
X-12337Y-2127D01*
Y-2222D01*
X-12301Y-2309D01*
X-12234Y-2376D01*
X-12147Y-2412D01*
X-12052D01*
X-11965Y-2376D01*
X-11898Y-2309D01*
X-11861Y-2222D01*
Y-2127D01*
X-11898Y-2040D01*
X-11965Y-1973D01*
X-12052Y-1937D01*
D02*
G37*
G36*
X-10302Y-2437D02*
X-10397D01*
X-10484Y-2473D01*
X-10551Y-2540D01*
X-10587Y-2627D01*
Y-2722D01*
X-10551Y-2809D01*
X-10484Y-2876D01*
X-10397Y-2912D01*
X-10302D01*
X-10215Y-2876D01*
X-10148Y-2809D01*
X-10111Y-2722D01*
Y-2627D01*
X-10148Y-2540D01*
X-10215Y-2473D01*
X-10302Y-2437D01*
D02*
G37*
G36*
X-11552D02*
X-11647D01*
X-11734Y-2473D01*
X-11801Y-2540D01*
X-11837Y-2627D01*
Y-2722D01*
X-11801Y-2809D01*
X-11734Y-2876D01*
X-11647Y-2912D01*
X-11552D01*
X-11465Y-2876D01*
X-11398Y-2809D01*
X-11361Y-2722D01*
Y-2627D01*
X-11398Y-2540D01*
X-11465Y-2473D01*
X-11552Y-2437D01*
D02*
G37*
G36*
X-12602D02*
X-12697D01*
X-12784Y-2473D01*
X-12851Y-2540D01*
X-12887Y-2627D01*
Y-2722D01*
X-12851Y-2809D01*
X-12784Y-2876D01*
X-12697Y-2912D01*
X-12602D01*
X-12515Y-2876D01*
X-12448Y-2809D01*
X-12411Y-2722D01*
Y-2627D01*
X-12448Y-2540D01*
X-12515Y-2473D01*
X-12602Y-2437D01*
D02*
G37*
G36*
X-9607Y-5170D02*
X-9693D01*
X-9774Y-5203D01*
X-9835Y-5265D01*
X-9868Y-5345D01*
Y-5432D01*
X-9835Y-5512D01*
X-9774Y-5573D01*
X-9693Y-5606D01*
X-9607D01*
X-9526Y-5573D01*
X-9465Y-5512D01*
X-9432Y-5432D01*
Y-5345D01*
X-9465Y-5265D01*
X-9526Y-5203D01*
X-9607Y-5170D01*
D02*
G37*
G36*
X-11243Y-5218D02*
X-11330D01*
X-11410Y-5251D01*
X-11471Y-5312D01*
X-11504Y-5393D01*
Y-5479D01*
X-11471Y-5560D01*
X-11410Y-5621D01*
X-11330Y-5654D01*
X-11243D01*
X-11163Y-5621D01*
X-11101Y-5560D01*
X-11068Y-5479D01*
Y-5393D01*
X-11101Y-5312D01*
X-11163Y-5251D01*
X-11243Y-5218D01*
D02*
G37*
G36*
X-8802Y-6637D02*
X-8897D01*
X-8984Y-6673D01*
X-9051Y-6740D01*
X-9087Y-6827D01*
Y-6922D01*
X-9051Y-7009D01*
X-8984Y-7076D01*
X-8897Y-7112D01*
X-8802D01*
X-8715Y-7076D01*
X-8648Y-7009D01*
X-8611Y-6922D01*
Y-6827D01*
X-8648Y-6740D01*
X-8715Y-6673D01*
X-8802Y-6637D01*
D02*
G37*
G36*
X-11052Y-6837D02*
X-11147D01*
X-11234Y-6873D01*
X-11301Y-6940D01*
X-11337Y-7027D01*
Y-7122D01*
X-11301Y-7209D01*
X-11234Y-7276D01*
X-11147Y-7312D01*
X-11052D01*
X-10965Y-7276D01*
X-10898Y-7209D01*
X-10861Y-7122D01*
Y-7027D01*
X-10898Y-6940D01*
X-10965Y-6873D01*
X-11052Y-6837D01*
D02*
G37*
G36*
X-10602Y-7487D02*
X-10697D01*
X-10784Y-7523D01*
X-10851Y-7590D01*
X-10887Y-7677D01*
Y-7772D01*
X-10851Y-7859D01*
X-10784Y-7926D01*
X-10697Y-7962D01*
X-10602D01*
X-10515Y-7926D01*
X-10448Y-7859D01*
X-10411Y-7772D01*
Y-7677D01*
X-10448Y-7590D01*
X-10515Y-7523D01*
X-10602Y-7487D01*
D02*
G37*
G36*
X-8952Y-7687D02*
X-9047D01*
X-9134Y-7723D01*
X-9201Y-7790D01*
X-9237Y-7877D01*
Y-7972D01*
X-9201Y-8059D01*
X-9134Y-8126D01*
X-9047Y-8162D01*
X-8952D01*
X-8865Y-8126D01*
X-8798Y-8059D01*
X-8761Y-7972D01*
Y-7877D01*
X-8798Y-7790D01*
X-8865Y-7723D01*
X-8952Y-7687D01*
D02*
G37*
G36*
X-11771Y-8683D02*
X-11866D01*
X-11953Y-8719D01*
X-12020Y-8786D01*
X-12056Y-8873D01*
Y-8968D01*
X-12020Y-9055D01*
X-11953Y-9122D01*
X-11866Y-9158D01*
X-11771D01*
X-11684Y-9122D01*
X-11617Y-9055D01*
X-11581Y-8968D01*
Y-8873D01*
X-11617Y-8786D01*
X-11684Y-8719D01*
X-11771Y-8683D01*
D02*
G37*
G36*
X-7852Y-8687D02*
X-7947D01*
X-8034Y-8723D01*
X-8101Y-8790D01*
X-8137Y-8877D01*
Y-8972D01*
X-8101Y-9059D01*
X-8034Y-9126D01*
X-7947Y-9162D01*
X-7852D01*
X-7765Y-9126D01*
X-7698Y-9059D01*
X-7661Y-8972D01*
Y-8877D01*
X-7698Y-8790D01*
X-7765Y-8723D01*
X-7852Y-8687D01*
D02*
G37*
G36*
X-10852Y-8987D02*
X-10947D01*
X-11034Y-9023D01*
X-11101Y-9090D01*
X-11137Y-9177D01*
Y-9272D01*
X-11101Y-9359D01*
X-11034Y-9426D01*
X-10947Y-9462D01*
X-10852D01*
X-10765Y-9426D01*
X-10698Y-9359D01*
X-10661Y-9272D01*
Y-9177D01*
X-10698Y-9090D01*
X-10765Y-9023D01*
X-10852Y-8987D01*
D02*
G37*
G36*
X-437Y15559D02*
X-600D01*
X-615Y15556D01*
X-630D01*
X-790Y15525D01*
X-803Y15519D01*
X-818Y15516D01*
X-969Y15453D01*
X-981Y15445D01*
X-995Y15439D01*
X-1131Y15349D01*
X-1141Y15338D01*
X-1154Y15330D01*
X-1269Y15215D01*
X-1277Y15202D01*
X-1288Y15192D01*
X-1378Y15056D01*
X-1384Y15042D01*
X-1392Y15030D01*
X-1455Y14879D01*
X-1458Y14864D01*
X-1463Y14851D01*
X-1495Y14691D01*
Y14676D01*
X-1498Y14661D01*
Y14580D01*
Y14498D01*
X-1495Y14483D01*
Y14468D01*
X-1463Y14309D01*
X-1458Y14295D01*
X-1455Y14280D01*
X-1392Y14129D01*
X-1384Y14117D01*
X-1378Y14103D01*
X-1288Y13968D01*
X-1277Y13957D01*
X-1269Y13944D01*
X-1154Y13829D01*
X-1141Y13821D01*
X-1131Y13810D01*
X-995Y13720D01*
X-981Y13714D01*
X-969Y13706D01*
X-818Y13643D01*
X-803Y13640D01*
X-790Y13635D01*
X-630Y13603D01*
X-615D01*
X-600Y13600D01*
X-437D01*
X-422Y13603D01*
X-407D01*
X-248Y13635D01*
X-234Y13640D01*
X-219Y13643D01*
X-68Y13706D01*
X-56Y13714D01*
X-42Y13720D01*
X93Y13810D01*
X104Y13821D01*
X117Y13829D01*
X232Y13944D01*
X240Y13957D01*
X251Y13968D01*
X341Y14103D01*
X347Y14117D01*
X355Y14129D01*
X418Y14280D01*
X421Y14295D01*
X426Y14309D01*
X458Y14468D01*
Y14483D01*
X461Y14498D01*
Y14580D01*
Y14661D01*
X458Y14676D01*
Y14691D01*
X426Y14851D01*
X421Y14864D01*
X418Y14879D01*
X355Y15030D01*
X347Y15042D01*
X341Y15056D01*
X251Y15192D01*
X240Y15202D01*
X232Y15215D01*
X117Y15330D01*
X104Y15338D01*
X93Y15349D01*
X-42Y15439D01*
X-56Y15445D01*
X-68Y15453D01*
X-219Y15516D01*
X-234Y15519D01*
X-248Y15525D01*
X-407Y15556D01*
X-422D01*
X-437Y15559D01*
D02*
G37*
G36*
X-15237D02*
X-15400D01*
X-15415Y15556D01*
X-15430D01*
X-15589Y15525D01*
X-15603Y15519D01*
X-15618Y15516D01*
X-15769Y15453D01*
X-15781Y15445D01*
X-15795Y15439D01*
X-15931Y15349D01*
X-15941Y15338D01*
X-15954Y15330D01*
X-16069Y15215D01*
X-16077Y15202D01*
X-16088Y15192D01*
X-16178Y15056D01*
X-16184Y15042D01*
X-16192Y15030D01*
X-16255Y14879D01*
X-16258Y14864D01*
X-16264Y14851D01*
X-16295Y14691D01*
Y14676D01*
X-16298Y14661D01*
Y14580D01*
Y14498D01*
X-16295Y14483D01*
Y14468D01*
X-16264Y14309D01*
X-16258Y14295D01*
X-16255Y14280D01*
X-16192Y14129D01*
X-16184Y14117D01*
X-16178Y14103D01*
X-16088Y13968D01*
X-16077Y13957D01*
X-16069Y13944D01*
X-15954Y13829D01*
X-15941Y13821D01*
X-15931Y13810D01*
X-15795Y13720D01*
X-15781Y13714D01*
X-15769Y13706D01*
X-15618Y13643D01*
X-15603Y13640D01*
X-15589Y13635D01*
X-15430Y13603D01*
X-15415D01*
X-15400Y13600D01*
X-15237D01*
X-15222Y13603D01*
X-15207D01*
X-15048Y13635D01*
X-15034Y13640D01*
X-15019Y13643D01*
X-14868Y13706D01*
X-14856Y13714D01*
X-14842Y13720D01*
X-14706Y13810D01*
X-14696Y13821D01*
X-14683Y13829D01*
X-14568Y13944D01*
X-14560Y13957D01*
X-14549Y13968D01*
X-14459Y14103D01*
X-14453Y14117D01*
X-14445Y14129D01*
X-14382Y14280D01*
X-14379Y14295D01*
X-14374Y14309D01*
X-14342Y14468D01*
Y14483D01*
X-14339Y14498D01*
Y14580D01*
Y14661D01*
X-14342Y14676D01*
Y14691D01*
X-14374Y14851D01*
X-14379Y14864D01*
X-14382Y14879D01*
X-14445Y15030D01*
X-14453Y15042D01*
X-14459Y15056D01*
X-14549Y15192D01*
X-14560Y15202D01*
X-14568Y15215D01*
X-14683Y15330D01*
X-14696Y15338D01*
X-14706Y15349D01*
X-14842Y15439D01*
X-14856Y15445D01*
X-14868Y15453D01*
X-15019Y15516D01*
X-15034Y15519D01*
X-15048Y15525D01*
X-15207Y15556D01*
X-15222D01*
X-15237Y15559D01*
D02*
G37*
G36*
X-2168Y13333D02*
Y13332D01*
X-6769D01*
Y13333D01*
X-6771Y13332D01*
X-6818D01*
X-6833Y13330D01*
X-6848D01*
X-6894Y13320D01*
X-6896Y13320D01*
X-6898Y13320D01*
X-6944Y13310D01*
X-6958Y13305D01*
X-6973Y13302D01*
X-7016Y13284D01*
X-7018Y13283D01*
X-7020Y13282D01*
X-7064Y13264D01*
X-7076Y13256D01*
X-7090Y13250D01*
X-7130Y13224D01*
X-7131Y13223D01*
X-7133Y13221D01*
X-7172Y13195D01*
X-7183Y13184D01*
X-7195Y13176D01*
X-7229Y13143D01*
X-7230Y13141D01*
X-7232Y13140D01*
X-7265Y13106D01*
X-7273Y13094D01*
X-7284Y13083D01*
X-7310Y13044D01*
X-7312Y13042D01*
X-7313Y13041D01*
X-7339Y13001D01*
X-7345Y12987D01*
X-7353Y12975D01*
X-7371Y12931D01*
X-7372Y12929D01*
X-7373Y12927D01*
X-7391Y12884D01*
X-7394Y12869D01*
X-7399Y12855D01*
X-7408Y12809D01*
X-7409Y12807D01*
X-7409Y12805D01*
X-7419Y12759D01*
Y12744D01*
X-7421Y12729D01*
Y12682D01*
X-7422Y12680D01*
X-7421D01*
Y4780D01*
X-7422D01*
X-7421Y4777D01*
Y4730D01*
X-7419Y4716D01*
Y4700D01*
X-7409Y4654D01*
X-7409Y4652D01*
X-7408Y4650D01*
X-7399Y4604D01*
X-7394Y4590D01*
X-7391Y4575D01*
X-7373Y4532D01*
X-7372Y4530D01*
X-7371Y4528D01*
X-7353Y4484D01*
X-7345Y4472D01*
X-7339Y4458D01*
X-7313Y4419D01*
X-7312Y4417D01*
X-7310Y4415D01*
X-7284Y4376D01*
X-7273Y4365D01*
X-7265Y4353D01*
X-7232Y4319D01*
X-7230Y4318D01*
X-7229Y4316D01*
X-7195Y4283D01*
X-7183Y4275D01*
X-7172Y4264D01*
X-7133Y4238D01*
X-7131Y4236D01*
X-7130Y4235D01*
X-7090Y4209D01*
X-7076Y4204D01*
X-7064Y4195D01*
X-7020Y4177D01*
X-7018Y4176D01*
X-7016Y4175D01*
X-6973Y4157D01*
X-6958Y4155D01*
X-6944Y4149D01*
X-6898Y4140D01*
X-6896Y4139D01*
X-6894Y4139D01*
X-6848Y4130D01*
X-6833D01*
X-6818Y4127D01*
X-6771D01*
X-6769Y4126D01*
Y4127D01*
X-5619D01*
Y4126D01*
X-5616Y4127D01*
X-5569D01*
X-5554Y4130D01*
X-3398D01*
X-3398Y4130D01*
X-3383D01*
X-3368Y4127D01*
X-3321D01*
X-3318Y4126D01*
Y4127D01*
X-2168D01*
Y4126D01*
X-2166Y4127D01*
X-2119D01*
X-2104Y4130D01*
X-2089D01*
X-2043Y4139D01*
X-2041Y4139D01*
X-2039Y4140D01*
X-1993Y4149D01*
X-1979Y4155D01*
X-1964Y4157D01*
X-1921Y4175D01*
X-1919Y4176D01*
X-1917Y4177D01*
X-1873Y4195D01*
X-1861Y4204D01*
X-1847Y4209D01*
X-1807Y4235D01*
X-1806Y4236D01*
X-1804Y4238D01*
X-1765Y4264D01*
X-1754Y4275D01*
X-1742Y4283D01*
X-1708Y4316D01*
X-1707Y4318D01*
X-1705Y4319D01*
X-1672Y4353D01*
X-1664Y4365D01*
X-1653Y4376D01*
X-1627Y4415D01*
X-1625Y4417D01*
X-1624Y4419D01*
X-1598Y4458D01*
X-1592Y4472D01*
X-1584Y4484D01*
X-1566Y4528D01*
X-1565Y4530D01*
X-1564Y4532D01*
X-1546Y4575D01*
X-1543Y4590D01*
X-1538Y4604D01*
X-1529Y4650D01*
X-1528Y4652D01*
X-1528Y4654D01*
X-1519Y4700D01*
Y4716D01*
X-1516Y4730D01*
Y4777D01*
X-1515Y4780D01*
X-1516D01*
Y10330D01*
Y12680D01*
X-1515D01*
X-1516Y12682D01*
Y12729D01*
X-1519Y12744D01*
Y12759D01*
X-1528Y12805D01*
X-1528Y12807D01*
X-1529Y12809D01*
X-1538Y12855D01*
X-1543Y12869D01*
X-1546Y12884D01*
X-1564Y12927D01*
X-1565Y12929D01*
X-1566Y12931D01*
X-1584Y12975D01*
X-1592Y12987D01*
X-1598Y13001D01*
X-1624Y13041D01*
X-1625Y13042D01*
X-1627Y13044D01*
X-1653Y13083D01*
X-1664Y13094D01*
X-1672Y13106D01*
X-1705Y13140D01*
X-1707Y13141D01*
X-1708Y13143D01*
X-1742Y13176D01*
X-1754Y13184D01*
X-1765Y13195D01*
X-1804Y13221D01*
X-1806Y13223D01*
X-1807Y13224D01*
X-1847Y13250D01*
X-1861Y13256D01*
X-1873Y13264D01*
X-1917Y13282D01*
X-1919Y13283D01*
X-1921Y13284D01*
X-1964Y13302D01*
X-1979Y13305D01*
X-1993Y13310D01*
X-2039Y13320D01*
X-2041Y13320D01*
X-2043Y13320D01*
X-2089Y13330D01*
X-2104D01*
X-2119Y13332D01*
X-2166D01*
X-2168Y13333D01*
D02*
G37*
G36*
X-9068D02*
Y13332D01*
X-13669D01*
Y13333D01*
X-13671Y13332D01*
X-13718D01*
X-13733Y13330D01*
X-13748D01*
X-13794Y13320D01*
X-13796Y13320D01*
X-13798Y13320D01*
X-13844Y13310D01*
X-13858Y13305D01*
X-13873Y13302D01*
X-13916Y13284D01*
X-13918Y13283D01*
X-13920Y13282D01*
X-13964Y13264D01*
X-13976Y13256D01*
X-13990Y13250D01*
X-14030Y13224D01*
X-14031Y13223D01*
X-14033Y13221D01*
X-14072Y13195D01*
X-14083Y13184D01*
X-14095Y13176D01*
X-14129Y13143D01*
X-14130Y13141D01*
X-14132Y13140D01*
X-14165Y13106D01*
X-14173Y13094D01*
X-14184Y13083D01*
X-14210Y13044D01*
X-14212Y13042D01*
X-14213Y13041D01*
X-14239Y13001D01*
X-14245Y12987D01*
X-14253Y12975D01*
X-14271Y12931D01*
X-14272Y12929D01*
X-14273Y12927D01*
X-14291Y12884D01*
X-14294Y12869D01*
X-14299Y12855D01*
X-14308Y12809D01*
X-14309Y12807D01*
X-14309Y12805D01*
X-14319Y12759D01*
Y12744D01*
X-14321Y12729D01*
Y12682D01*
X-14322Y12680D01*
X-14321D01*
Y4780D01*
X-14322D01*
X-14321Y4777D01*
Y4730D01*
X-14318Y4716D01*
Y4700D01*
X-14309Y4654D01*
X-14309Y4652D01*
X-14308Y4650D01*
X-14299Y4604D01*
X-14294Y4590D01*
X-14291Y4575D01*
X-14273Y4532D01*
X-14272Y4530D01*
X-14271Y4528D01*
X-14253Y4484D01*
X-14245Y4472D01*
X-14239Y4458D01*
X-14213Y4419D01*
X-14212Y4417D01*
X-14210Y4415D01*
X-14184Y4376D01*
X-14173Y4365D01*
X-14165Y4353D01*
X-14132Y4319D01*
X-14130Y4318D01*
X-14129Y4316D01*
X-14095Y4283D01*
X-14083Y4275D01*
X-14072Y4264D01*
X-14033Y4238D01*
X-14031Y4236D01*
X-14030Y4235D01*
X-13990Y4209D01*
X-13976Y4204D01*
X-13964Y4195D01*
X-13920Y4177D01*
X-13918Y4176D01*
X-13916Y4175D01*
X-13873Y4157D01*
X-13858Y4155D01*
X-13844Y4149D01*
X-13798Y4140D01*
X-13796Y4139D01*
X-13794Y4139D01*
X-13748Y4130D01*
X-13733D01*
X-13718Y4127D01*
X-13671D01*
X-13669Y4126D01*
Y4127D01*
X-12519D01*
Y4126D01*
X-12516Y4127D01*
X-12469D01*
X-12454Y4130D01*
X-10298D01*
X-10298Y4130D01*
X-10283D01*
X-10268Y4127D01*
X-10221D01*
X-10218Y4126D01*
Y4127D01*
X-9068D01*
Y4126D01*
X-9066Y4127D01*
X-9019D01*
X-9004Y4130D01*
X-8989D01*
X-8943Y4139D01*
X-8941Y4139D01*
X-8939Y4140D01*
X-8893Y4149D01*
X-8879Y4155D01*
X-8864Y4157D01*
X-8821Y4175D01*
X-8819Y4176D01*
X-8817Y4177D01*
X-8773Y4195D01*
X-8761Y4204D01*
X-8747Y4209D01*
X-8707Y4235D01*
X-8706Y4236D01*
X-8704Y4238D01*
X-8665Y4264D01*
X-8654Y4275D01*
X-8642Y4283D01*
X-8608Y4316D01*
X-8607Y4318D01*
X-8605Y4319D01*
X-8572Y4353D01*
X-8564Y4365D01*
X-8553Y4376D01*
X-8527Y4415D01*
X-8525Y4417D01*
X-8524Y4419D01*
X-8498Y4458D01*
X-8492Y4472D01*
X-8484Y4484D01*
X-8466Y4528D01*
X-8465Y4530D01*
X-8464Y4532D01*
X-8446Y4575D01*
X-8443Y4590D01*
X-8438Y4604D01*
X-8429Y4650D01*
X-8428Y4652D01*
X-8428Y4654D01*
X-8418Y4700D01*
Y4716D01*
X-8416Y4730D01*
Y4777D01*
X-8415Y4780D01*
X-8416D01*
Y12680D01*
X-8415D01*
X-8416Y12682D01*
Y12729D01*
X-8418Y12744D01*
Y12759D01*
X-8428Y12805D01*
X-8428Y12807D01*
X-8429Y12809D01*
X-8438Y12855D01*
X-8443Y12869D01*
X-8446Y12884D01*
X-8464Y12927D01*
X-8465Y12929D01*
X-8466Y12931D01*
X-8484Y12975D01*
X-8492Y12987D01*
X-8498Y13001D01*
X-8524Y13041D01*
X-8525Y13042D01*
X-8527Y13044D01*
X-8553Y13083D01*
X-8564Y13094D01*
X-8572Y13106D01*
X-8605Y13140D01*
X-8607Y13141D01*
X-8608Y13143D01*
X-8642Y13176D01*
X-8654Y13184D01*
X-8665Y13195D01*
X-8704Y13221D01*
X-8706Y13223D01*
X-8708Y13224D01*
X-8747Y13250D01*
X-8761Y13256D01*
X-8773Y13264D01*
X-8817Y13282D01*
X-8819Y13283D01*
X-8821Y13284D01*
X-8864Y13302D01*
X-8879Y13305D01*
X-8893Y13310D01*
X-8939Y13320D01*
X-8941Y13320D01*
X-8943Y13320D01*
X-8989Y13330D01*
X-9004D01*
X-9019Y13332D01*
X-9066D01*
X-9068Y13333D01*
D02*
G37*
G36*
X-11721Y3467D02*
X-11816D01*
X-11903Y3431D01*
X-11970Y3364D01*
X-12006Y3277D01*
Y3182D01*
X-11970Y3095D01*
X-11903Y3028D01*
X-11816Y2992D01*
X-11721D01*
X-11634Y3028D01*
X-11567Y3095D01*
X-11531Y3182D01*
Y3277D01*
X-11567Y3364D01*
X-11634Y3431D01*
X-11721Y3467D01*
D02*
G37*
G36*
X-2972Y2935D02*
X-3065D01*
X-3156Y2911D01*
X-3237Y2864D01*
X-3303Y2798D01*
X-3350Y2717D01*
X-3374Y2626D01*
Y2533D01*
X-3350Y2442D01*
X-3303Y2361D01*
X-3237Y2295D01*
X-3156Y2248D01*
X-3065Y2224D01*
X-2972D01*
X-2881Y2248D01*
X-2800Y2295D01*
X-2734Y2361D01*
X-2687Y2442D01*
X-2663Y2533D01*
Y2626D01*
X-2687Y2717D01*
X-2734Y2798D01*
X-2800Y2864D01*
X-2881Y2911D01*
X-2972Y2935D01*
D02*
G37*
G36*
X-437Y4059D02*
X-600D01*
X-615Y4056D01*
X-630D01*
X-790Y4025D01*
X-803Y4019D01*
X-818Y4016D01*
X-969Y3954D01*
X-981Y3945D01*
X-995Y3939D01*
X-1131Y3849D01*
X-1141Y3838D01*
X-1154Y3830D01*
X-1269Y3715D01*
X-1277Y3702D01*
X-1288Y3692D01*
X-1378Y3556D01*
X-1384Y3542D01*
X-1392Y3530D01*
X-1455Y3379D01*
X-1458Y3364D01*
X-1463Y3351D01*
X-1495Y3191D01*
Y3176D01*
X-1498Y3161D01*
Y3080D01*
Y2998D01*
X-1495Y2983D01*
Y2968D01*
X-1463Y2809D01*
X-1458Y2795D01*
X-1455Y2780D01*
X-1392Y2629D01*
X-1384Y2617D01*
X-1378Y2603D01*
X-1288Y2468D01*
X-1277Y2457D01*
X-1269Y2444D01*
X-1154Y2329D01*
X-1141Y2321D01*
X-1131Y2310D01*
X-995Y2220D01*
X-981Y2214D01*
X-969Y2206D01*
X-818Y2143D01*
X-803Y2140D01*
X-790Y2135D01*
X-630Y2103D01*
X-615D01*
X-600Y2100D01*
X-437D01*
X-422Y2103D01*
X-407D01*
X-248Y2135D01*
X-234Y2140D01*
X-219Y2143D01*
X-68Y2206D01*
X-56Y2214D01*
X-42Y2220D01*
X93Y2310D01*
X104Y2321D01*
X117Y2329D01*
X232Y2444D01*
X240Y2457D01*
X251Y2468D01*
X341Y2603D01*
X347Y2617D01*
X355Y2629D01*
X418Y2780D01*
X421Y2795D01*
X426Y2809D01*
X458Y2968D01*
Y2983D01*
X461Y2998D01*
Y3080D01*
Y3161D01*
X458Y3176D01*
Y3191D01*
X426Y3351D01*
X421Y3364D01*
X418Y3379D01*
X355Y3530D01*
X347Y3542D01*
X341Y3556D01*
X251Y3692D01*
X240Y3702D01*
X232Y3715D01*
X117Y3830D01*
X104Y3838D01*
X93Y3849D01*
X-42Y3939D01*
X-56Y3945D01*
X-68Y3954D01*
X-219Y4016D01*
X-234Y4019D01*
X-248Y4025D01*
X-407Y4056D01*
X-422D01*
X-437Y4059D01*
D02*
G37*
G36*
X-15237D02*
X-15400D01*
X-15415Y4056D01*
X-15430D01*
X-15589Y4025D01*
X-15603Y4019D01*
X-15618Y4016D01*
X-15769Y3954D01*
X-15781Y3945D01*
X-15795Y3939D01*
X-15931Y3849D01*
X-15941Y3838D01*
X-15954Y3830D01*
X-16069Y3715D01*
X-16077Y3702D01*
X-16088Y3692D01*
X-16178Y3556D01*
X-16184Y3542D01*
X-16192Y3530D01*
X-16255Y3379D01*
X-16258Y3364D01*
X-16264Y3351D01*
X-16295Y3191D01*
Y3176D01*
X-16298Y3161D01*
Y3080D01*
Y2998D01*
X-16295Y2983D01*
Y2968D01*
X-16264Y2809D01*
X-16258Y2795D01*
X-16255Y2780D01*
X-16192Y2629D01*
X-16184Y2617D01*
X-16178Y2603D01*
X-16088Y2468D01*
X-16077Y2457D01*
X-16069Y2444D01*
X-15954Y2329D01*
X-15941Y2321D01*
X-15931Y2310D01*
X-15795Y2220D01*
X-15781Y2214D01*
X-15769Y2206D01*
X-15618Y2143D01*
X-15603Y2140D01*
X-15589Y2135D01*
X-15430Y2103D01*
X-15415D01*
X-15400Y2100D01*
X-15237D01*
X-15222Y2103D01*
X-15207D01*
X-15048Y2135D01*
X-15034Y2140D01*
X-15019Y2143D01*
X-14868Y2206D01*
X-14856Y2214D01*
X-14842Y2220D01*
X-14706Y2310D01*
X-14696Y2321D01*
X-14683Y2329D01*
X-14568Y2444D01*
X-14560Y2457D01*
X-14549Y2468D01*
X-14459Y2603D01*
X-14453Y2617D01*
X-14445Y2629D01*
X-14382Y2780D01*
X-14379Y2795D01*
X-14374Y2809D01*
X-14342Y2968D01*
Y2983D01*
X-14339Y2998D01*
Y3080D01*
Y3161D01*
X-14342Y3176D01*
Y3191D01*
X-14374Y3351D01*
X-14379Y3364D01*
X-14382Y3379D01*
X-14445Y3530D01*
X-14453Y3542D01*
X-14459Y3556D01*
X-14549Y3692D01*
X-14560Y3702D01*
X-14568Y3715D01*
X-14683Y3830D01*
X-14696Y3838D01*
X-14706Y3849D01*
X-14842Y3939D01*
X-14856Y3945D01*
X-14868Y3954D01*
X-15019Y4016D01*
X-15034Y4019D01*
X-15048Y4025D01*
X-15207Y4056D01*
X-15222D01*
X-15237Y4059D01*
D02*
G37*
G36*
X-9422Y2785D02*
X-9515D01*
X-9606Y2761D01*
X-9687Y2714D01*
X-9753Y2648D01*
X-9800Y2567D01*
X-9824Y2476D01*
Y2383D01*
X-9800Y2292D01*
X-9753Y2211D01*
X-9687Y2145D01*
X-9606Y2098D01*
X-9515Y2074D01*
X-9422D01*
X-9331Y2098D01*
X-9250Y2145D01*
X-9184Y2211D01*
X-9137Y2292D01*
X-9113Y2383D01*
Y2476D01*
X-9137Y2567D01*
X-9184Y2648D01*
X-9250Y2714D01*
X-9331Y2761D01*
X-9422Y2785D01*
D02*
G37*
G36*
X-7302Y-1237D02*
X-7397D01*
X-7484Y-1273D01*
X-7551Y-1340D01*
X-7587Y-1427D01*
Y-1522D01*
X-7551Y-1609D01*
X-7484Y-1676D01*
X-7397Y-1712D01*
X-7302D01*
X-7215Y-1676D01*
X-7148Y-1609D01*
X-7111Y-1522D01*
Y-1427D01*
X-7148Y-1340D01*
X-7215Y-1273D01*
X-7302Y-1237D01*
D02*
G37*
G36*
X-8703Y-1362D02*
X-8797D01*
X-8885Y-1398D01*
X-8952Y-1465D01*
X-8988Y-1553D01*
Y-1647D01*
X-8952Y-1735D01*
X-8885Y-1802D01*
X-8797Y-1838D01*
X-8703D01*
X-8615Y-1802D01*
X-8548Y-1735D01*
X-8512Y-1647D01*
Y-1553D01*
X-8548Y-1465D01*
X-8615Y-1398D01*
X-8703Y-1362D01*
D02*
G37*
G36*
X-7871Y6217D02*
X-7966D01*
X-8053Y6181D01*
X-8120Y6114D01*
X-8156Y6027D01*
Y5932D01*
X-8120Y5845D01*
X-8101Y5825D01*
Y1630D01*
Y-320D01*
Y-1781D01*
X-8101Y-1781D01*
X-8087Y-1851D01*
X-8047Y-1910D01*
X-7988Y-1970D01*
Y-1997D01*
X-7952Y-2085D01*
X-7885Y-2152D01*
X-7797Y-2188D01*
X-7703D01*
X-7615Y-2152D01*
X-7548Y-2085D01*
X-7512Y-1997D01*
Y-1903D01*
X-7548Y-1815D01*
X-7615Y-1748D01*
X-7703Y-1712D01*
X-7730D01*
X-7736Y-1706D01*
Y-320D01*
Y-224D01*
Y1630D01*
Y1757D01*
D01*
Y5825D01*
X-7717Y5845D01*
X-7681Y5932D01*
Y6027D01*
X-7717Y6114D01*
X-7784Y6181D01*
X-7871Y6217D01*
D02*
G37*
G36*
X-6802Y-1937D02*
X-6897D01*
X-6984Y-1973D01*
X-7051Y-2040D01*
X-7087Y-2127D01*
Y-2222D01*
X-7051Y-2309D01*
X-6984Y-2376D01*
X-6897Y-2412D01*
X-6802D01*
X-6715Y-2376D01*
X-6648Y-2309D01*
X-6611Y-2222D01*
Y-2127D01*
X-6648Y-2040D01*
X-6715Y-1973D01*
X-6802Y-1937D01*
D02*
G37*
G36*
X-5302Y-1987D02*
X-5397D01*
X-5484Y-2023D01*
X-5551Y-2090D01*
X-5587Y-2177D01*
Y-2272D01*
X-5551Y-2359D01*
X-5484Y-2426D01*
X-5397Y-2462D01*
X-5302D01*
X-5215Y-2426D01*
X-5148Y-2359D01*
X-5111Y-2272D01*
Y-2177D01*
X-5148Y-2090D01*
X-5215Y-2023D01*
X-5302Y-1987D01*
D02*
G37*
G36*
X-5752Y-2487D02*
X-5847D01*
X-5934Y-2523D01*
X-6001Y-2590D01*
X-6037Y-2677D01*
Y-2772D01*
X-6001Y-2859D01*
X-5934Y-2926D01*
X-5847Y-2962D01*
X-5752D01*
X-5665Y-2926D01*
X-5598Y-2859D01*
X-5561Y-2772D01*
Y-2677D01*
X-5598Y-2590D01*
X-5665Y-2523D01*
X-5752Y-2487D01*
D02*
G37*
G36*
X-4802Y-2537D02*
X-4897D01*
X-4984Y-2573D01*
X-5051Y-2640D01*
X-5087Y-2727D01*
Y-2822D01*
X-5051Y-2909D01*
X-4984Y-2976D01*
X-4897Y-3012D01*
X-4802D01*
X-4715Y-2976D01*
X-4648Y-2909D01*
X-4611Y-2822D01*
Y-2727D01*
X-4648Y-2640D01*
X-4715Y-2573D01*
X-4802Y-2537D01*
D02*
G37*
G36*
X-6852Y-3037D02*
X-6947D01*
X-7034Y-3073D01*
X-7101Y-3140D01*
X-7137Y-3227D01*
Y-3322D01*
X-7101Y-3409D01*
X-7034Y-3476D01*
X-6947Y-3512D01*
X-6852D01*
X-6765Y-3476D01*
X-6698Y-3409D01*
X-6661Y-3322D01*
Y-3227D01*
X-6698Y-3140D01*
X-6765Y-3073D01*
X-6852Y-3037D01*
D02*
G37*
G36*
X-6402Y-4837D02*
X-6497D01*
X-6584Y-4873D01*
X-6651Y-4940D01*
X-6687Y-5027D01*
Y-5122D01*
X-6651Y-5209D01*
X-6584Y-5276D01*
X-6497Y-5312D01*
X-6402D01*
X-6315Y-5276D01*
X-6248Y-5209D01*
X-6211Y-5122D01*
Y-5027D01*
X-6248Y-4940D01*
X-6315Y-4873D01*
X-6402Y-4837D01*
D02*
G37*
G36*
X-3302Y-6987D02*
X-3397D01*
X-3484Y-7023D01*
X-3551Y-7090D01*
X-3587Y-7177D01*
Y-7272D01*
X-3551Y-7359D01*
X-3484Y-7426D01*
X-3397Y-7462D01*
X-3302D01*
X-3215Y-7426D01*
X-3148Y-7359D01*
X-3111Y-7272D01*
Y-7177D01*
X-3148Y-7090D01*
X-3215Y-7023D01*
X-3302Y-6987D01*
D02*
G37*
G36*
X-4252D02*
X-4347D01*
X-4434Y-7023D01*
X-4501Y-7090D01*
X-4537Y-7177D01*
Y-7272D01*
X-4501Y-7359D01*
X-4434Y-7426D01*
X-4347Y-7462D01*
X-4252D01*
X-4165Y-7426D01*
X-4098Y-7359D01*
X-4061Y-7272D01*
Y-7177D01*
X-4098Y-7090D01*
X-4165Y-7023D01*
X-4252Y-6987D01*
D02*
G37*
G36*
X-6559Y-7037D02*
X-6653D01*
X-6741Y-7073D01*
X-6807Y-7140D01*
X-6844Y-7227D01*
Y-7322D01*
X-6807Y-7409D01*
X-6741Y-7476D01*
X-6653Y-7512D01*
X-6559D01*
X-6471Y-7476D01*
X-6404Y-7409D01*
X-6368Y-7322D01*
Y-7227D01*
X-6404Y-7140D01*
X-6471Y-7073D01*
X-6559Y-7037D01*
D02*
G37*
G36*
X-5902Y-7537D02*
X-5997D01*
X-6084Y-7573D01*
X-6151Y-7640D01*
X-6173Y-7694D01*
X-6212Y-7721D01*
X-6232Y-7715D01*
X-6302Y-7687D01*
X-6397D01*
X-6484Y-7723D01*
X-6551Y-7790D01*
X-6587Y-7877D01*
Y-7972D01*
X-6551Y-8059D01*
X-6484Y-8126D01*
X-6397Y-8162D01*
X-6302D01*
X-6215Y-8126D01*
X-6148Y-8059D01*
X-6125Y-8005D01*
X-6087Y-7978D01*
X-6066Y-7983D01*
X-5997Y-8012D01*
X-5902D01*
X-5815Y-7976D01*
X-5748Y-7909D01*
X-5711Y-7822D01*
Y-7727D01*
X-5748Y-7640D01*
X-5815Y-7573D01*
X-5902Y-7537D01*
D02*
G37*
G36*
X-3802D02*
X-3897D01*
X-3984Y-7573D01*
X-4051Y-7640D01*
X-4087Y-7727D01*
Y-7822D01*
X-4051Y-7909D01*
X-3984Y-7976D01*
X-3897Y-8012D01*
X-3802D01*
X-3715Y-7976D01*
X-3648Y-7909D01*
X-3611Y-7822D01*
Y-7727D01*
X-3648Y-7640D01*
X-3715Y-7573D01*
X-3802Y-7537D01*
D02*
G37*
%LPD*%
G36*
X-4511Y10360D02*
X-4558Y10341D01*
X-4560Y10344D01*
X-4638Y10388D01*
X-4724Y10411D01*
X-4813D01*
X-4899Y10388D01*
X-4977Y10344D01*
X-5040Y10281D01*
X-5084Y10203D01*
X-5107Y10117D01*
Y10028D01*
X-5084Y9942D01*
X-5040Y9864D01*
X-4977Y9801D01*
X-4899Y9757D01*
X-4813Y9733D01*
X-4724D01*
X-4638Y9757D01*
X-4560Y9801D01*
X-4558Y9804D01*
X-4511Y9785D01*
Y8330D01*
X-5318D01*
Y11130D01*
X-4511D01*
Y10360D01*
D02*
G37*
G36*
X-3519Y8330D02*
X-4311D01*
Y9780D01*
X-4261Y9796D01*
X-4192Y9757D01*
X-4106Y9733D01*
X-4017D01*
X-3931Y9757D01*
X-3853Y9801D01*
X-3790Y9864D01*
X-3746Y9942D01*
X-3722Y10028D01*
Y10117D01*
X-3746Y10203D01*
X-3790Y10281D01*
X-3853Y10344D01*
X-3931Y10388D01*
X-4017Y10411D01*
X-4106D01*
X-4192Y10388D01*
X-4261Y10348D01*
X-4311Y10365D01*
Y10680D01*
Y11130D01*
X-3519D01*
Y8330D01*
D02*
G37*
G36*
X-11418Y10360D02*
X-11465Y10341D01*
X-11467Y10344D01*
X-11545Y10388D01*
X-11631Y10411D01*
X-11720D01*
X-11806Y10388D01*
X-11884Y10344D01*
X-11947Y10281D01*
X-11991Y10203D01*
X-12015Y10117D01*
Y10028D01*
X-11991Y9942D01*
X-11947Y9864D01*
X-11884Y9801D01*
X-11806Y9757D01*
X-11720Y9733D01*
X-11631D01*
X-11545Y9757D01*
X-11467Y9801D01*
X-11465Y9804D01*
X-11418Y9785D01*
Y8330D01*
X-12169D01*
Y11080D01*
X-11418D01*
Y10360D01*
D02*
G37*
G36*
X-10468Y8330D02*
X-11219D01*
Y9780D01*
X-11169Y9796D01*
X-11099Y9757D01*
X-11013Y9733D01*
X-10924D01*
X-10838Y9757D01*
X-10760Y9801D01*
X-10697Y9864D01*
X-10653Y9942D01*
X-10630Y10028D01*
Y10117D01*
X-10653Y10203D01*
X-10697Y10281D01*
X-10760Y10344D01*
X-10838Y10388D01*
X-10924Y10411D01*
X-11013D01*
X-11099Y10388D01*
X-11169Y10348D01*
X-11219Y10365D01*
Y10680D01*
Y11080D01*
X-10468D01*
Y8330D01*
D02*
G37*
D11*
X-5507Y-10524D02*
G03*
X-5619Y-10570I0J-157D01*
G01*
X-5507Y-10524D02*
X-4999D01*
X-7918Y-1781D02*
Y5980D01*
Y-1781D02*
X-7750Y-1950D01*
D40*
X-3380Y-15317D02*
X-3298Y-15682D01*
X-3206Y-15952D01*
X-3380Y-15317D02*
X-3318Y-15220D01*
D41*
X-5376Y-17703D02*
D03*
X-4376D02*
D03*
X-3376D02*
D03*
X-2376D02*
D03*
X-1376D02*
D03*
X-376D02*
D03*
D44*
X-11676Y10780D02*
D03*
X-10969D02*
D03*
X-4769D02*
D03*
X-4061D02*
D03*
D45*
X-7800Y-3000D02*
D03*
X-7700Y-7950D02*
D03*
X-6700Y-7900D02*
D03*
X-7750Y-1950D02*
D03*
X-8650Y-400D02*
D03*
X-3918Y9180D02*
D03*
X-4868D02*
D03*
X-11768D02*
D03*
X-10819D02*
D03*
X-4999Y-8924D02*
D03*
X-12019Y-11820D02*
D03*
X-7446Y-16120D02*
D03*
X-7918Y5980D02*
D03*
X-4999Y-10524D02*
D03*
X-11999Y-3589D02*
D03*
X-4149Y-6424D02*
D03*
X-6399D02*
D03*
X-7249Y-1924D02*
D03*
Y-4674D02*
D03*
X-5249Y-3589D02*
D03*
X-10899Y-6374D02*
D03*
X-8649Y-6424D02*
D03*
X-9749Y-3589D02*
D03*
D47*
X-9118Y630D02*
D03*
D48*
X-1819Y3630D02*
D03*
X-8669Y3780D02*
D03*
D49*
X-8042Y-3882D02*
G03*
X-8749Y-3589I-707J-707D01*
G01*
X-5749D02*
G03*
X-6456Y-3882I0J-1000D01*
G01*
X-6508Y-9708D02*
G03*
X-6528Y-9708I1J-394D01*
G01*
X-6233Y-9709D02*
G03*
X-6276Y-9708I-43J-795D01*
G01*
X-6840Y-9577D02*
G03*
X-6941Y-9493I-297J-259D01*
G01*
X-4116Y-16963D02*
G03*
X-4823Y-16670I-707J-707D01*
G01*
X-5619Y-10320D02*
G03*
X-5713Y-9941I-810J0D01*
G01*
X-5713Y-9941D02*
G03*
X-6233Y-9709I-563J-563D01*
G01*
X-6326Y-11278D02*
G03*
X-6618Y-11985I707J-707D01*
G01*
X-5816Y-16423D02*
G03*
X-5218Y-16670I597J597D01*
G01*
X-7199Y-8871D02*
G03*
X-6941Y-9493I880J0D01*
G01*
X-3318Y-9462D02*
G03*
X-3419Y-9220I-341J0D01*
G01*
X-3319Y-15380D02*
G03*
X-3318Y-15379I-394J2D01*
G01*
X-3006Y-16073D02*
G03*
X-3150Y-15982I-278J-279D01*
G01*
X-3005Y-16074D02*
G03*
X-3006Y-16073I-279J-278D01*
G01*
X-3210Y-15954D02*
G03*
X-3150Y-15982I192J333D01*
G01*
X-12019Y-11820D02*
G03*
X-11983Y-11906I121J0D01*
G01*
X-6666Y-16413D02*
G03*
X-7373Y-16120I-707J-707D01*
G01*
X-9761Y-15828D02*
G03*
X-9054Y-16120I707J707D01*
G01*
X-11319Y-13856D02*
G03*
X-11026Y-14563I1000J0D01*
G01*
X-6549Y-9709D02*
G03*
X-6528Y-9708I0J385D01*
G01*
X-6840Y-9577D02*
G03*
X-6549Y-9709I290J252D01*
G01*
X-9749Y-3589D02*
X-8749D01*
X-5749D02*
X-5249D01*
X-6508Y-9708D02*
X-6276D01*
X-6941Y-9493D02*
X-6941Y-9493D01*
X-5218Y-16670D02*
X-4823D01*
X-4116Y-16963D02*
X-3376Y-17703D01*
X-5619Y-10570D02*
Y-10320D01*
X-6326Y-11278D02*
X-5619Y-10570D01*
X-6618Y-15620D02*
Y-11985D01*
X-7249Y-4674D02*
X-6456Y-3882D01*
X-8042D02*
X-7249Y-4674D01*
X-7199Y-8871D02*
Y-4724D01*
X-9097Y47D02*
Y608D01*
Y47D02*
X-8650Y-400D01*
X-9118Y630D02*
X-9097Y608D01*
X-9332Y-1082D02*
X-9332D01*
X-9749Y-1499D02*
X-9332Y-1082D01*
X-9332D02*
X-8650Y-400D01*
X-9749Y-2089D02*
Y-1499D01*
X-9749Y-3589D02*
Y-2089D01*
X-3318Y-15220D02*
Y-9462D01*
Y-15379D02*
Y-15379D01*
Y-15220D01*
X-3319Y-15380D02*
X-3319Y-15380D01*
X-2889Y-16191D02*
X-1376Y-17703D01*
X-3005Y-16074D02*
X-2889Y-16191D01*
X-6618Y-15620D02*
X-5816Y-16423D01*
X-6666Y-16413D02*
X-5376Y-17703D01*
X-11319Y-13856D02*
Y-12570D01*
X-6310Y-9709D02*
X-6310D01*
X-11983Y-11906D02*
X-11319Y-12570D01*
X-7446Y-16120D02*
X-7373D01*
X-5376Y-17703D02*
X-4376D01*
X-9054Y-16120D02*
X-7446D01*
X-11026Y-14563D02*
X-9761Y-15828D01*
X-7249Y-4674D02*
X-7199Y-4724D01*
X-11999Y-3589D02*
X-9749D01*
X-3376Y-17703D02*
X-2376D01*
X-1376D02*
X-376D01*
M02*
