G04*
G04 #@! TF.GenerationSoftware,Altium Limited,Altium Designer,21.8.1 (53)*
G04*
G04 Layer_Color=65535*
%FSLAX24Y24*%
%MOIN*%
G70*
G04*
G04 #@! TF.SameCoordinates,EDC69185-3C86-4443-AEAC-3931C59231B4*
G04*
G04*
G04 #@! TF.FilePolarity,Positive*
G04*
G01*
G75*
%ADD10C,0.0098*%
%ADD11C,0.0157*%
%ADD12C,0.0100*%
%ADD13C,0.0039*%
%ADD14C,0.0079*%
%ADD15C,0.0060*%
%ADD16C,0.0030*%
%ADD17C,0.0059*%
G36*
X-10791Y-10477D02*
Y-10327D01*
X-10891D01*
Y-10477D01*
X-10791D01*
D02*
G37*
G36*
X-9356Y-8057D02*
Y-7957D01*
X-9506D01*
Y-8057D01*
X-9356D01*
D02*
G37*
G36*
X-8765Y-12157D02*
Y-12257D01*
X-8915D01*
Y-12157D01*
X-8765D01*
D02*
G37*
G36*
X-6691Y-10674D02*
Y-10524D01*
X-6591D01*
Y-10674D01*
X-6691D01*
D02*
G37*
G36*
X120Y-1737D02*
X152Y-1739D01*
X168Y-1741D01*
X182Y-1743D01*
X196Y-1744D01*
X208Y-1747D01*
X220Y-1748D01*
X230Y-1750D01*
X240Y-1752D01*
X248Y-1753D01*
X254Y-1755D01*
X259Y-1755D01*
X262Y-1756D01*
X263D01*
X289Y-1763D01*
X313Y-1770D01*
X336Y-1778D01*
X346Y-1781D01*
X356Y-1784D01*
X365Y-1788D01*
X373Y-1791D01*
X379Y-1794D01*
X385Y-1796D01*
X390Y-1797D01*
X393Y-1799D01*
X396Y-1800D01*
X396D01*
X404Y-1804D01*
X414Y-1809D01*
X424Y-1814D01*
X435Y-1820D01*
X458Y-1832D01*
X481Y-1845D01*
X492Y-1851D01*
X502Y-1856D01*
X511Y-1861D01*
X519Y-1866D01*
X525Y-1870D01*
X530Y-1873D01*
X534Y-1874D01*
X534Y-1875D01*
X-358D01*
X-337Y-1862D01*
X-317Y-1851D01*
X-296Y-1840D01*
X-275Y-1829D01*
X-234Y-1811D01*
X-195Y-1795D01*
X-156Y-1781D01*
X-120Y-1770D01*
X-84Y-1761D01*
X-52Y-1754D01*
X-21Y-1748D01*
X-8Y-1746D01*
X5Y-1744D01*
X18Y-1742D01*
X30Y-1741D01*
X40Y-1739D01*
X49Y-1738D01*
X58Y-1738D01*
X66Y-1737D01*
X72D01*
X77Y-1736D01*
X82D01*
X86D01*
X87D01*
X88D01*
X120Y-1737D01*
D02*
G37*
G36*
X534Y-2668D02*
X89D01*
X109Y-2667D01*
X129Y-2666D01*
X149Y-2665D01*
X168Y-2662D01*
X186Y-2659D01*
X204Y-2657D01*
X220Y-2653D01*
X235Y-2650D01*
X249Y-2646D01*
X262Y-2643D01*
X273Y-2640D01*
X282Y-2637D01*
X289Y-2635D01*
X295Y-2633D01*
X298Y-2632D01*
X300Y-2631D01*
X322Y-2623D01*
X344Y-2614D01*
X386Y-2594D01*
X407Y-2583D01*
X426Y-2572D01*
X444Y-2562D01*
X461Y-2552D01*
X477Y-2542D01*
X492Y-2533D01*
X504Y-2524D01*
X514Y-2517D01*
X523Y-2511D01*
X529Y-2507D01*
X533Y-2504D01*
X534Y-2503D01*
Y-2668D01*
D02*
G37*
G36*
X671Y-1433D02*
X1731D01*
Y-12350D01*
X671D01*
Y-12350D01*
X-358D01*
Y-12132D01*
X-358D01*
Y-11968D01*
X-324Y-11992D01*
X-289Y-12014D01*
X-255Y-12034D01*
X-238Y-12043D01*
X-223Y-12051D01*
X-208Y-12059D01*
X-195Y-12065D01*
X-183Y-12070D01*
X-173Y-12075D01*
X-165Y-12079D01*
X-159Y-12082D01*
X-155Y-12083D01*
X-154Y-12084D01*
X-131Y-12093D01*
X-110Y-12100D01*
X-88Y-12107D01*
X-66Y-12112D01*
X-46Y-12117D01*
X-26Y-12121D01*
X-7Y-12124D01*
X11Y-12127D01*
X28Y-12129D01*
X43Y-12130D01*
X56Y-12131D01*
X67Y-12132D01*
X76Y-12132D01*
X-144D01*
X534D01*
Y-11908D01*
X517Y-11918D01*
X500Y-11927D01*
X485Y-11936D01*
X471Y-11943D01*
X458Y-11950D01*
X447Y-11956D01*
X437Y-11962D01*
X428Y-11966D01*
X420Y-11970D01*
X413Y-11974D01*
X407Y-11977D01*
X403Y-11979D01*
X399Y-11980D01*
X397Y-11982D01*
X396Y-11983D01*
X395D01*
X370Y-11992D01*
X347Y-12001D01*
X325Y-12008D01*
X314Y-12012D01*
X304Y-12015D01*
X295Y-12017D01*
X286Y-12019D01*
X279Y-12022D01*
X273Y-12023D01*
X268Y-12025D01*
X264Y-12025D01*
X262Y-12026D01*
X261D01*
X229Y-12033D01*
X198Y-12038D01*
X183Y-12040D01*
X168Y-12042D01*
X155Y-12043D01*
X142Y-12045D01*
X131Y-12045D01*
X120Y-12046D01*
X111D01*
X103Y-12047D01*
X97D01*
X92D01*
X89D01*
X88D01*
X67Y-12046D01*
X46Y-12045D01*
X4Y-12041D01*
X-36Y-12034D01*
X-76Y-12025D01*
X-114Y-12014D01*
X-151Y-12003D01*
X-186Y-11991D01*
X-219Y-11977D01*
X-249Y-11964D01*
X-263Y-11958D01*
X-276Y-11952D01*
X-288Y-11946D01*
X-300Y-11941D01*
X-310Y-11935D01*
X-320Y-11929D01*
X-328Y-11925D01*
X-336Y-11921D01*
X-342Y-11917D01*
X-348Y-11914D01*
X-352Y-11912D01*
X-356Y-11910D01*
X-357Y-11909D01*
X-358Y-11908D01*
X534D01*
X-358D01*
Y-6529D01*
X534D01*
Y-6304D01*
D01*
Y-6469D01*
X512Y-6453D01*
X491Y-6438D01*
X469Y-6425D01*
X449Y-6411D01*
X428Y-6400D01*
X409Y-6389D01*
X390Y-6380D01*
X373Y-6372D01*
X357Y-6364D01*
X343Y-6358D01*
X331Y-6352D01*
X320Y-6348D01*
X311Y-6344D01*
X305Y-6342D01*
X301Y-6341D01*
X300Y-6340D01*
X280Y-6334D01*
X261Y-6328D01*
X224Y-6319D01*
X206Y-6316D01*
X188Y-6313D01*
X172Y-6311D01*
X156Y-6309D01*
X142Y-6307D01*
X128Y-6307D01*
X117Y-6305D01*
X107D01*
X100Y-6304D01*
X89D01*
X65Y-6305D01*
X42Y-6307D01*
X20Y-6309D01*
X-2Y-6312D01*
X-23Y-6316D01*
X-43Y-6319D01*
X-62Y-6324D01*
X-80Y-6328D01*
X-95Y-6332D01*
X-110Y-6337D01*
X-123Y-6341D01*
X-134Y-6344D01*
X-142Y-6347D01*
X-148Y-6349D01*
X-152Y-6351D01*
X-154Y-6352D01*
X-175Y-6361D01*
X-196Y-6371D01*
X-215Y-6380D01*
X-235Y-6390D01*
X-252Y-6400D01*
X-269Y-6410D01*
X-285Y-6420D01*
X-300Y-6428D01*
X-312Y-6437D01*
X-324Y-6445D01*
X-334Y-6451D01*
X-342Y-6457D01*
X-349Y-6462D01*
X-354Y-6466D01*
X-357Y-6468D01*
X-358Y-6469D01*
Y-6304D01*
X-358D01*
Y-2668D01*
X-97D01*
X-358D01*
Y-2503D01*
X-324Y-2527D01*
X-289Y-2549D01*
X-255Y-2569D01*
X-238Y-2578D01*
X-223Y-2586D01*
X-208Y-2594D01*
X-195Y-2600D01*
X-183Y-2606D01*
X-173Y-2610D01*
X-165Y-2614D01*
X-159Y-2617D01*
X-155Y-2618D01*
X-154Y-2619D01*
X-131Y-2628D01*
X-110Y-2635D01*
X-88Y-2642D01*
X-66Y-2647D01*
X-46Y-2652D01*
X-26Y-2656D01*
X-7Y-2659D01*
X11Y-2662D01*
X28Y-2664D01*
X43Y-2665D01*
X56Y-2666D01*
X67Y-2667D01*
X76Y-2668D01*
X534D01*
Y-2443D01*
X517Y-2454D01*
X500Y-2462D01*
X485Y-2471D01*
X471Y-2479D01*
X458Y-2485D01*
X447Y-2491D01*
X437Y-2497D01*
X428Y-2502D01*
X420Y-2505D01*
X413Y-2509D01*
X407Y-2512D01*
X403Y-2514D01*
X399Y-2516D01*
X397Y-2517D01*
X396Y-2518D01*
X395D01*
X370Y-2527D01*
X347Y-2536D01*
X325Y-2544D01*
X314Y-2547D01*
X304Y-2550D01*
X295Y-2552D01*
X286Y-2555D01*
X279Y-2557D01*
X273Y-2558D01*
X268Y-2560D01*
X264Y-2561D01*
X262Y-2561D01*
X261D01*
X229Y-2568D01*
X198Y-2573D01*
X183Y-2575D01*
X168Y-2577D01*
X155Y-2578D01*
X142Y-2580D01*
X131Y-2580D01*
X120Y-2581D01*
X111D01*
X103Y-2582D01*
X97D01*
X92D01*
X89D01*
X88D01*
X67Y-2581D01*
X46Y-2580D01*
X4Y-2576D01*
X-36Y-2569D01*
X-76Y-2561D01*
X-114Y-2549D01*
X-151Y-2538D01*
X-186Y-2526D01*
X-219Y-2513D01*
X-249Y-2499D01*
X-263Y-2493D01*
X-276Y-2488D01*
X-288Y-2481D01*
X-300Y-2476D01*
X-310Y-2470D01*
X-320Y-2465D01*
X-328Y-2460D01*
X-336Y-2456D01*
X-342Y-2452D01*
X-348Y-2449D01*
X-352Y-2447D01*
X-356Y-2445D01*
X-357Y-2444D01*
X-358Y-2443D01*
X-358D01*
Y-1875D01*
X534D01*
Y-1651D01*
D01*
Y-1815D01*
X512Y-1799D01*
X491Y-1784D01*
X469Y-1771D01*
X449Y-1758D01*
X428Y-1747D01*
X409Y-1735D01*
X390Y-1726D01*
X373Y-1718D01*
X357Y-1710D01*
X343Y-1704D01*
X331Y-1699D01*
X320Y-1694D01*
X311Y-1690D01*
X305Y-1688D01*
X301Y-1687D01*
X300Y-1686D01*
X280Y-1680D01*
X261Y-1674D01*
X224Y-1665D01*
X206Y-1662D01*
X188Y-1659D01*
X172Y-1657D01*
X156Y-1655D01*
X142Y-1654D01*
X128Y-1653D01*
X117Y-1651D01*
X107D01*
X100Y-1651D01*
X89D01*
X65Y-1651D01*
X42Y-1653D01*
X20Y-1655D01*
X-2Y-1658D01*
X-23Y-1662D01*
X-43Y-1665D01*
X-62Y-1670D01*
X-80Y-1674D01*
X-95Y-1679D01*
X-110Y-1683D01*
X-123Y-1687D01*
X-134Y-1690D01*
X-142Y-1693D01*
X-148Y-1696D01*
X-152Y-1697D01*
X-154Y-1698D01*
X-175Y-1707D01*
X-196Y-1717D01*
X-215Y-1727D01*
X-235Y-1736D01*
X-252Y-1747D01*
X-269Y-1756D01*
X-285Y-1766D01*
X-300Y-1775D01*
X-312Y-1783D01*
X-324Y-1791D01*
X-334Y-1797D01*
X-342Y-1803D01*
X-349Y-1809D01*
X-354Y-1812D01*
X-357Y-1814D01*
X-358Y-1815D01*
Y-1651D01*
X-358D01*
Y-1433D01*
X671D01*
Y-1433D01*
D02*
G37*
G36*
X120Y-6391D02*
X152Y-6393D01*
X168Y-6394D01*
X182Y-6397D01*
X196Y-6398D01*
X208Y-6400D01*
X220Y-6402D01*
X230Y-6403D01*
X240Y-6406D01*
X248Y-6407D01*
X254Y-6408D01*
X259Y-6409D01*
X262Y-6410D01*
X263D01*
X289Y-6417D01*
X313Y-6424D01*
X336Y-6431D01*
X346Y-6435D01*
X356Y-6438D01*
X365Y-6442D01*
X373Y-6445D01*
X379Y-6448D01*
X385Y-6450D01*
X390Y-6451D01*
X393Y-6453D01*
X396Y-6454D01*
X396D01*
X404Y-6458D01*
X414Y-6462D01*
X424Y-6468D01*
X435Y-6473D01*
X458Y-6486D01*
X481Y-6499D01*
X492Y-6504D01*
X502Y-6510D01*
X511Y-6515D01*
X519Y-6520D01*
X525Y-6524D01*
X530Y-6527D01*
X534Y-6528D01*
X534Y-6529D01*
X-358D01*
X-337Y-6516D01*
X-317Y-6504D01*
X-296Y-6493D01*
X-275Y-6483D01*
X-234Y-6465D01*
X-195Y-6448D01*
X-156Y-6435D01*
X-120Y-6424D01*
X-84Y-6414D01*
X-52Y-6408D01*
X-21Y-6402D01*
X-8Y-6400D01*
X5Y-6397D01*
X18Y-6396D01*
X30Y-6394D01*
X40Y-6393D01*
X49Y-6392D01*
X58Y-6392D01*
X66Y-6391D01*
X72D01*
X77Y-6390D01*
X82D01*
X86D01*
X87D01*
X88D01*
X120Y-6391D01*
D02*
G37*
G36*
X534Y-12132D02*
X89D01*
X109Y-12132D01*
X129Y-12131D01*
X149Y-12129D01*
X168Y-12127D01*
X186Y-12124D01*
X204Y-12121D01*
X220Y-12118D01*
X235Y-12115D01*
X249Y-12111D01*
X262Y-12108D01*
X273Y-12104D01*
X282Y-12102D01*
X289Y-12100D01*
X295Y-12098D01*
X298Y-12097D01*
X300Y-12096D01*
X322Y-12088D01*
X344Y-12079D01*
X386Y-12059D01*
X407Y-12048D01*
X426Y-12037D01*
X444Y-12027D01*
X461Y-12017D01*
X477Y-12007D01*
X492Y-11997D01*
X504Y-11989D01*
X514Y-11982D01*
X523Y-11976D01*
X529Y-11972D01*
X533Y-11969D01*
X534Y-11968D01*
Y-12132D01*
D02*
G37*
G36*
X-358Y-12350D02*
X-1731D01*
Y-1433D01*
X-358D01*
Y-12350D01*
D02*
G37*
%LPC*%
G36*
X347Y-1948D02*
D01*
Y-2172D01*
X345Y-2149D01*
X342Y-2127D01*
X337Y-2107D01*
X334Y-2098D01*
X332Y-2089D01*
X329Y-2082D01*
X326Y-2075D01*
X324Y-2069D01*
X321Y-2064D01*
X320Y-2059D01*
X318Y-2057D01*
X317Y-2055D01*
Y-2054D01*
X304Y-2035D01*
X290Y-2019D01*
X275Y-2005D01*
X261Y-1994D01*
X247Y-1985D01*
X241Y-1982D01*
X236Y-1979D01*
X232Y-1977D01*
X230Y-1975D01*
X227Y-1974D01*
X227D01*
X204Y-1965D01*
X179Y-1959D01*
X156Y-1955D01*
X134Y-1951D01*
X124Y-1950D01*
X115Y-1949D01*
X107Y-1949D01*
X100D01*
X94Y-1948D01*
X86D01*
X64Y-1949D01*
X43Y-1951D01*
X23Y-1954D01*
X4Y-1958D01*
X-13Y-1962D01*
X-28Y-1967D01*
X-42Y-1973D01*
X-55Y-1979D01*
X-66Y-1984D01*
X-76Y-1990D01*
X-84Y-1995D01*
X-91Y-2000D01*
X-97Y-2003D01*
X-100Y-2006D01*
X-103Y-2009D01*
X-103Y-2009D01*
X-115Y-2021D01*
X-125Y-2034D01*
X-134Y-2047D01*
X-141Y-2060D01*
X-148Y-2074D01*
X-153Y-2087D01*
X-157Y-2101D01*
X-161Y-2113D01*
X-164Y-2125D01*
X-165Y-2136D01*
X-167Y-2147D01*
X-168Y-2155D01*
Y-2162D01*
X-169Y-2167D01*
Y-2172D01*
X-168Y-2186D01*
X-167Y-2200D01*
X-165Y-2214D01*
X-162Y-2227D01*
X-158Y-2239D01*
X-154Y-2250D01*
X-150Y-2260D01*
X-145Y-2270D01*
X-140Y-2278D01*
X-137Y-2286D01*
X-132Y-2292D01*
X-128Y-2298D01*
X-125Y-2302D01*
X-123Y-2305D01*
X-122Y-2307D01*
X-121Y-2307D01*
X-111Y-2317D01*
X-102Y-2327D01*
X-91Y-2335D01*
X-80Y-2341D01*
X-69Y-2348D01*
X-58Y-2354D01*
X-37Y-2363D01*
X-27Y-2366D01*
X-18Y-2369D01*
X-10Y-2372D01*
X-2Y-2374D01*
X4Y-2375D01*
X8Y-2376D01*
X11Y-2377D01*
X-169D01*
X347D01*
X12D01*
X23Y-2295D01*
X11Y-2293D01*
X1Y-2290D01*
X-10Y-2288D01*
X-18Y-2285D01*
X-27Y-2281D01*
X-35Y-2278D01*
X-41Y-2274D01*
X-48Y-2271D01*
X-53Y-2267D01*
X-58Y-2264D01*
X-65Y-2258D01*
X-69Y-2254D01*
X-70Y-2254D01*
X-71Y-2253D01*
X-80Y-2240D01*
X-88Y-2226D01*
X-93Y-2212D01*
X-97Y-2200D01*
X-99Y-2188D01*
X-100Y-2183D01*
Y-2179D01*
X-100Y-2175D01*
Y-2171D01*
X-100Y-2160D01*
X-98Y-2149D01*
X-96Y-2139D01*
X-93Y-2130D01*
X-86Y-2113D01*
X-77Y-2098D01*
X-74Y-2092D01*
X-69Y-2087D01*
X-66Y-2082D01*
X-62Y-2078D01*
X-60Y-2075D01*
X-58Y-2073D01*
X-56Y-2072D01*
X-55Y-2071D01*
X-46Y-2065D01*
X-36Y-2059D01*
X-25Y-2054D01*
X-14Y-2050D01*
X10Y-2042D01*
X34Y-2038D01*
X45Y-2037D01*
X55Y-2036D01*
X65Y-2035D01*
X73Y-2034D01*
X80Y-2034D01*
X85D01*
X89D01*
X89D01*
X107Y-2034D01*
X124Y-2035D01*
X139Y-2037D01*
X153Y-2040D01*
X166Y-2042D01*
X178Y-2046D01*
X188Y-2050D01*
X198Y-2054D01*
X206Y-2057D01*
X213Y-2060D01*
X219Y-2064D01*
X224Y-2067D01*
X228Y-2069D01*
X230Y-2071D01*
X232Y-2072D01*
X232Y-2073D01*
X241Y-2080D01*
X247Y-2088D01*
X254Y-2097D01*
X259Y-2105D01*
X263Y-2114D01*
X267Y-2122D01*
X272Y-2138D01*
X276Y-2153D01*
X277Y-2159D01*
X277Y-2165D01*
X278Y-2169D01*
Y-2175D01*
X277Y-2190D01*
X275Y-2204D01*
X270Y-2216D01*
X266Y-2226D01*
X261Y-2234D01*
X257Y-2241D01*
X254Y-2245D01*
X252Y-2246D01*
X242Y-2256D01*
X230Y-2265D01*
X218Y-2272D01*
X206Y-2278D01*
X195Y-2282D01*
X186Y-2285D01*
X182Y-2286D01*
X180Y-2287D01*
X179Y-2288D01*
X178D01*
X190Y-2369D01*
X204Y-2366D01*
X217Y-2361D01*
X229Y-2357D01*
X240Y-2352D01*
X250Y-2347D01*
X260Y-2341D01*
X268Y-2336D01*
X276Y-2330D01*
X283Y-2325D01*
X289Y-2320D01*
X294Y-2316D01*
X298Y-2311D01*
X301Y-2308D01*
X303Y-2305D01*
X305Y-2304D01*
X306Y-2303D01*
X313Y-2293D01*
X320Y-2283D01*
X325Y-2272D01*
X329Y-2261D01*
X337Y-2239D01*
X342Y-2218D01*
X343Y-2209D01*
X345Y-2200D01*
X345Y-2192D01*
X346Y-2185D01*
X347Y-2180D01*
Y-1948D01*
D02*
G37*
G36*
X535Y-2746D02*
X61D01*
D01*
X535D01*
D01*
D02*
G37*
G36*
X61D02*
X-169D01*
Y-3287D01*
D01*
Y-3036D01*
X-168Y-3062D01*
X-165Y-3087D01*
X-161Y-3109D01*
X-158Y-3119D01*
X-156Y-3128D01*
X-154Y-3137D01*
X-151Y-3144D01*
X-148Y-3151D01*
X-147Y-3156D01*
X-145Y-3161D01*
X-144Y-3164D01*
X-142Y-3166D01*
Y-3166D01*
X-131Y-3187D01*
X-120Y-3205D01*
X-107Y-3220D01*
X-95Y-3233D01*
X-84Y-3243D01*
X-76Y-3250D01*
X-72Y-3253D01*
X-70Y-3254D01*
X-69Y-3256D01*
X-68D01*
X-59Y-3262D01*
X-49Y-3266D01*
X-32Y-3274D01*
X-15Y-3280D01*
X1Y-3284D01*
X15Y-3286D01*
X20Y-3287D01*
X25D01*
X29Y-3287D01*
X-169D01*
X535D01*
X34D01*
X54Y-3286D01*
X72Y-3283D01*
X89Y-3279D01*
X103Y-3273D01*
X114Y-3268D01*
X120Y-3265D01*
X123Y-3263D01*
X126Y-3262D01*
X128Y-3260D01*
X130Y-3259D01*
X131D01*
X138Y-3253D01*
X145Y-3247D01*
X159Y-3233D01*
X171Y-3219D01*
X181Y-3204D01*
X189Y-3192D01*
X193Y-3186D01*
X195Y-3180D01*
X197Y-3177D01*
X199Y-3174D01*
X200Y-3172D01*
Y-3171D01*
X204Y-3163D01*
X207Y-3152D01*
X211Y-3142D01*
X215Y-3130D01*
X221Y-3105D01*
X228Y-3080D01*
X232Y-3068D01*
X234Y-3057D01*
X237Y-3047D01*
X238Y-3038D01*
X241Y-3031D01*
X242Y-3025D01*
X243Y-3022D01*
Y-3020D01*
X247Y-3000D01*
X252Y-2983D01*
X257Y-2967D01*
X261Y-2952D01*
X266Y-2940D01*
X269Y-2929D01*
X273Y-2919D01*
X277Y-2911D01*
X280Y-2904D01*
X283Y-2899D01*
X286Y-2894D01*
X288Y-2890D01*
X290Y-2887D01*
X292Y-2886D01*
X292Y-2885D01*
X302Y-2876D01*
X311Y-2870D01*
X322Y-2865D01*
X331Y-2862D01*
X339Y-2860D01*
X346Y-2859D01*
X351Y-2859D01*
X351D01*
X352D01*
X360Y-2859D01*
X368Y-2860D01*
X381Y-2865D01*
X393Y-2871D01*
X404Y-2877D01*
X413Y-2884D01*
X419Y-2890D01*
X423Y-2894D01*
X424Y-2895D01*
Y-2896D01*
X430Y-2903D01*
X435Y-2912D01*
X442Y-2930D01*
X447Y-2949D01*
X451Y-2969D01*
X452Y-2978D01*
X453Y-2987D01*
X454Y-2995D01*
Y-3001D01*
X455Y-3007D01*
Y-3028D01*
X453Y-3042D01*
X452Y-3054D01*
X449Y-3066D01*
X447Y-3076D01*
X444Y-3086D01*
X441Y-3095D01*
X438Y-3103D01*
X435Y-3110D01*
X432Y-3116D01*
X429Y-3121D01*
X427Y-3125D01*
X424Y-3128D01*
X423Y-3131D01*
X422Y-3132D01*
X421Y-3133D01*
X415Y-3140D01*
X408Y-3147D01*
X393Y-3157D01*
X376Y-3166D01*
X361Y-3172D01*
X347Y-3176D01*
X341Y-3178D01*
X335Y-3179D01*
X331Y-3180D01*
X328D01*
X325Y-3180D01*
X325D01*
X331Y-3267D01*
X353Y-3265D01*
X373Y-3260D01*
X392Y-3255D01*
X407Y-3249D01*
X414Y-3245D01*
X421Y-3243D01*
X426Y-3240D01*
X430Y-3238D01*
X434Y-3236D01*
X436Y-3234D01*
X438Y-3234D01*
X438Y-3233D01*
X455Y-3220D01*
X469Y-3206D01*
X482Y-3192D01*
X492Y-3177D01*
X500Y-3164D01*
X503Y-3158D01*
X506Y-3154D01*
X508Y-3150D01*
X508Y-3147D01*
X510Y-3145D01*
Y-3144D01*
X518Y-3122D01*
X525Y-3099D01*
X529Y-3076D01*
X532Y-3056D01*
X533Y-3046D01*
X534Y-3038D01*
X534Y-3030D01*
X535Y-3023D01*
Y-3011D01*
X534Y-2986D01*
X531Y-2962D01*
X528Y-2941D01*
X525Y-2932D01*
X523Y-2923D01*
X521Y-2915D01*
X519Y-2907D01*
X517Y-2901D01*
X515Y-2896D01*
X514Y-2892D01*
X512Y-2888D01*
X511Y-2887D01*
Y-2886D01*
X502Y-2866D01*
X491Y-2849D01*
X480Y-2834D01*
X469Y-2823D01*
X458Y-2813D01*
X450Y-2806D01*
X447Y-2803D01*
X445Y-2802D01*
X444Y-2800D01*
X443D01*
X426Y-2791D01*
X409Y-2783D01*
X393Y-2779D01*
X379Y-2775D01*
X365Y-2773D01*
X360Y-2772D01*
X356D01*
X352Y-2772D01*
X349D01*
X348D01*
X347D01*
X330Y-2772D01*
X314Y-2775D01*
X299Y-2779D01*
X286Y-2783D01*
X276Y-2788D01*
X268Y-2792D01*
X265Y-2793D01*
X263Y-2794D01*
X262Y-2795D01*
X261D01*
X248Y-2805D01*
X235Y-2817D01*
X225Y-2828D01*
X215Y-2841D01*
X208Y-2851D01*
X203Y-2860D01*
X201Y-2864D01*
X200Y-2866D01*
X199Y-2868D01*
Y-2868D01*
X195Y-2876D01*
X191Y-2885D01*
X187Y-2894D01*
X184Y-2904D01*
X176Y-2926D01*
X170Y-2948D01*
X167Y-2958D01*
X164Y-2967D01*
X162Y-2976D01*
X159Y-2984D01*
X158Y-2990D01*
X156Y-2995D01*
X156Y-2998D01*
Y-2999D01*
X152Y-3016D01*
X148Y-3031D01*
X145Y-3045D01*
X141Y-3057D01*
X138Y-3068D01*
X136Y-3079D01*
X133Y-3087D01*
X131Y-3095D01*
X129Y-3101D01*
X127Y-3107D01*
X125Y-3111D01*
X125Y-3114D01*
X124Y-3117D01*
X123Y-3118D01*
X123Y-3120D01*
X116Y-3135D01*
X109Y-3147D01*
X103Y-3158D01*
X97Y-3166D01*
X91Y-3173D01*
X86Y-3178D01*
X83Y-3180D01*
X83Y-3181D01*
X74Y-3188D01*
X64Y-3192D01*
X55Y-3196D01*
X46Y-3198D01*
X38Y-3200D01*
X32Y-3200D01*
X28D01*
X27D01*
X27D01*
X16Y-3200D01*
X4Y-3197D01*
X-5Y-3194D01*
X-14Y-3191D01*
X-21Y-3187D01*
X-27Y-3183D01*
X-30Y-3181D01*
X-32Y-3180D01*
X-41Y-3172D01*
X-49Y-3164D01*
X-57Y-3153D01*
X-63Y-3144D01*
X-67Y-3135D01*
X-71Y-3128D01*
X-72Y-3125D01*
X-73Y-3123D01*
X-74Y-3122D01*
Y-3121D01*
X-79Y-3107D01*
X-83Y-3091D01*
X-85Y-3076D01*
X-86Y-3062D01*
X-88Y-3050D01*
Y-3045D01*
X-89Y-3040D01*
Y-3031D01*
X-88Y-3010D01*
X-86Y-2991D01*
X-82Y-2972D01*
X-78Y-2957D01*
X-77Y-2950D01*
X-75Y-2944D01*
X-73Y-2939D01*
X-72Y-2935D01*
X-70Y-2931D01*
X-69Y-2929D01*
X-69Y-2927D01*
Y-2927D01*
X-61Y-2910D01*
X-52Y-2896D01*
X-44Y-2885D01*
X-35Y-2875D01*
X-27Y-2868D01*
X-21Y-2862D01*
X-18Y-2859D01*
X-16Y-2858D01*
X-3Y-2851D01*
X11Y-2845D01*
X25Y-2840D01*
X38Y-2837D01*
X51Y-2834D01*
X55Y-2833D01*
X60Y-2832D01*
X63Y-2831D01*
X66Y-2831D01*
X68D01*
X69D01*
X61Y-2746D01*
D01*
X49Y-2747D01*
X36Y-2748D01*
X13Y-2752D01*
X-8Y-2758D01*
X-18Y-2761D01*
X-26Y-2765D01*
X-34Y-2768D01*
X-41Y-2772D01*
X-47Y-2775D01*
X-52Y-2778D01*
X-57Y-2780D01*
X-60Y-2781D01*
X-61Y-2782D01*
X-62Y-2783D01*
X-81Y-2797D01*
X-97Y-2813D01*
X-111Y-2829D01*
X-123Y-2845D01*
X-131Y-2859D01*
X-134Y-2865D01*
X-137Y-2870D01*
X-139Y-2874D01*
X-141Y-2877D01*
X-142Y-2879D01*
Y-2880D01*
X-151Y-2905D01*
X-158Y-2931D01*
X-162Y-2957D01*
X-165Y-2981D01*
X-167Y-2993D01*
X-168Y-3003D01*
X-168Y-3012D01*
Y-3020D01*
X-169Y-3027D01*
Y-2746D01*
X61D01*
D01*
D02*
G37*
G36*
X523Y-3400D02*
X-158D01*
Y-3483D01*
X111D01*
X132Y-3484D01*
X151Y-3485D01*
X166Y-3487D01*
X179Y-3490D01*
X189Y-3492D01*
X196Y-3494D01*
X199Y-3495D01*
X201Y-3496D01*
X202Y-3496D01*
X214Y-3502D01*
X224Y-3510D01*
X233Y-3517D01*
X241Y-3525D01*
X246Y-3532D01*
X251Y-3538D01*
X254Y-3541D01*
X255Y-3543D01*
X261Y-3555D01*
X266Y-3568D01*
X269Y-3580D01*
X272Y-3590D01*
X274Y-3600D01*
X275Y-3607D01*
Y-3613D01*
X273Y-3631D01*
X270Y-3646D01*
X266Y-3659D01*
X261Y-3670D01*
X255Y-3679D01*
X250Y-3685D01*
X247Y-3688D01*
X246Y-3690D01*
X240Y-3695D01*
X234Y-3699D01*
X219Y-3705D01*
X204Y-3710D01*
X189Y-3713D01*
X176Y-3716D01*
X170Y-3716D01*
X165D01*
X160Y-3717D01*
X157D01*
X155D01*
X154D01*
X-158D01*
Y-3800D01*
X523D01*
X168D01*
X180Y-3800D01*
X192Y-3799D01*
X202Y-3797D01*
X213Y-3796D01*
X221Y-3794D01*
X230Y-3793D01*
X237Y-3792D01*
X244Y-3790D01*
X249Y-3789D01*
X254Y-3787D01*
X258Y-3786D01*
X261Y-3784D01*
X263Y-3783D01*
X264Y-3783D01*
X265D01*
X278Y-3775D01*
X291Y-3766D01*
X301Y-3756D01*
X309Y-3747D01*
X316Y-3738D01*
X321Y-3731D01*
X323Y-3728D01*
X324Y-3726D01*
X325Y-3725D01*
Y-3724D01*
X332Y-3709D01*
X337Y-3693D01*
X342Y-3677D01*
X344Y-3662D01*
X345Y-3649D01*
X346Y-3644D01*
X347Y-3639D01*
Y-3630D01*
X346Y-3614D01*
X344Y-3598D01*
X340Y-3583D01*
X337Y-3569D01*
X331Y-3557D01*
X325Y-3544D01*
X319Y-3533D01*
X313Y-3524D01*
X306Y-3514D01*
X300Y-3506D01*
X294Y-3499D01*
X289Y-3493D01*
X285Y-3489D01*
X281Y-3486D01*
X279Y-3484D01*
X278Y-3483D01*
X523D01*
Y-3400D01*
D02*
G37*
G36*
X1364Y-3837D02*
Y-3838D01*
D01*
Y-3837D01*
D02*
G37*
G36*
Y-3904D02*
Y-3906D01*
D01*
Y-3904D01*
D02*
G37*
G36*
Y-3489D02*
X682D01*
Y-3766D01*
Y-3576D01*
X1262D01*
X682Y-3772D01*
Y-3854D01*
X1253Y-4053D01*
X682D01*
Y-4050D01*
Y-4140D01*
X1364D01*
Y-4018D01*
X890Y-3854D01*
X876Y-3850D01*
X865Y-3845D01*
X853Y-3842D01*
X843Y-3838D01*
X832Y-3835D01*
X823Y-3832D01*
X815Y-3829D01*
X808Y-3827D01*
X802Y-3825D01*
X796Y-3823D01*
X792Y-3822D01*
X787Y-3820D01*
X784Y-3820D01*
X782Y-3819D01*
X781Y-3818D01*
X781D01*
X787Y-3816D01*
X795Y-3814D01*
X810Y-3809D01*
X827Y-3803D01*
X843Y-3798D01*
X858Y-3793D01*
X865Y-3791D01*
X870Y-3789D01*
X874Y-3788D01*
X878Y-3786D01*
X880Y-3786D01*
X881D01*
X1364Y-3624D01*
Y-3489D01*
D02*
G37*
G36*
X94Y-3898D02*
X89D01*
X66Y-3899D01*
X44Y-3901D01*
X24Y-3904D01*
X6Y-3907D01*
X-11Y-3913D01*
X-27Y-3918D01*
X-41Y-3924D01*
X-54Y-3930D01*
X-65Y-3935D01*
X-75Y-3941D01*
X-83Y-3947D01*
X-90Y-3952D01*
X-96Y-3955D01*
X-100Y-3958D01*
X-102Y-3961D01*
X-103Y-3961D01*
X-114Y-3974D01*
X-125Y-3987D01*
X-134Y-4000D01*
X-141Y-4014D01*
X-148Y-4028D01*
X-153Y-4042D01*
X-157Y-4056D01*
X-161Y-4069D01*
X-163Y-4082D01*
X-165Y-4093D01*
X-167Y-4103D01*
X-168Y-4112D01*
Y-4119D01*
X-169Y-4124D01*
Y-4129D01*
X-168Y-4152D01*
X-165Y-4175D01*
X-159Y-4194D01*
X-157Y-4204D01*
X-154Y-4212D01*
X-151Y-4220D01*
X-149Y-4227D01*
X-146Y-4233D01*
X-144Y-4238D01*
X-142Y-4242D01*
X-141Y-4245D01*
X-139Y-4247D01*
Y-4248D01*
X-127Y-4267D01*
X-114Y-4284D01*
X-100Y-4298D01*
X-86Y-4310D01*
X-74Y-4319D01*
X-68Y-4323D01*
X-63Y-4326D01*
X-60Y-4328D01*
X-57Y-4330D01*
X-55Y-4331D01*
X-55D01*
X-44Y-4336D01*
X-32Y-4341D01*
X-8Y-4348D01*
X17Y-4353D01*
X41Y-4356D01*
X52Y-4358D01*
X62Y-4358D01*
X72Y-4359D01*
X80D01*
X86Y-4360D01*
X-169D01*
X95D01*
X117Y-4359D01*
X137Y-4357D01*
X156Y-4354D01*
X174Y-4349D01*
X190Y-4345D01*
X205Y-4339D01*
X219Y-4333D01*
X232Y-4327D01*
X243Y-4321D01*
X252Y-4316D01*
X261Y-4310D01*
X267Y-4305D01*
X273Y-4301D01*
X277Y-4298D01*
X279Y-4296D01*
X280Y-4295D01*
X292Y-4282D01*
X302Y-4269D01*
X311Y-4256D01*
X319Y-4242D01*
X325Y-4228D01*
X331Y-4214D01*
X335Y-4200D01*
X339Y-4188D01*
X341Y-4175D01*
X343Y-4164D01*
X345Y-4155D01*
X346Y-4146D01*
Y-4138D01*
X347Y-4133D01*
Y-4317D01*
Y-4129D01*
X346Y-4112D01*
X345Y-4096D01*
X342Y-4081D01*
X338Y-4066D01*
X334Y-4052D01*
X329Y-4040D01*
X325Y-4028D01*
X320Y-4017D01*
X314Y-4007D01*
X309Y-3999D01*
X304Y-3992D01*
X300Y-3985D01*
X297Y-3980D01*
X294Y-3977D01*
X292Y-3975D01*
X292Y-3974D01*
X278Y-3961D01*
X264Y-3949D01*
X249Y-3938D01*
X232Y-3930D01*
X215Y-3923D01*
X199Y-3916D01*
X182Y-3911D01*
X165Y-3907D01*
X150Y-3904D01*
X136Y-3902D01*
X123Y-3900D01*
X111Y-3899D01*
X102Y-3899D01*
X94Y-3898D01*
D02*
G37*
G36*
X1364Y-4275D02*
X1268D01*
Y-4358D01*
X1176D01*
Y-4275D01*
X682D01*
Y-4358D01*
X1364D01*
Y-4275D01*
D02*
G37*
G36*
X523Y-4427D02*
Y-4772D01*
X278D01*
X289Y-4763D01*
X299Y-4753D01*
X307Y-4744D01*
X314Y-4735D01*
X320Y-4727D01*
X324Y-4721D01*
X327Y-4716D01*
X328Y-4716D01*
Y-4715D01*
X334Y-4701D01*
X339Y-4687D01*
X342Y-4674D01*
X345Y-4662D01*
X346Y-4651D01*
X347Y-4642D01*
Y-4624D01*
X345Y-4613D01*
X342Y-4592D01*
X337Y-4574D01*
X331Y-4558D01*
X328Y-4550D01*
X325Y-4544D01*
X322Y-4538D01*
X320Y-4534D01*
X317Y-4530D01*
X316Y-4527D01*
X315Y-4526D01*
X314Y-4525D01*
X301Y-4507D01*
X286Y-4493D01*
X272Y-4480D01*
X256Y-4470D01*
X243Y-4462D01*
X237Y-4459D01*
X232Y-4456D01*
X228Y-4454D01*
X225Y-4453D01*
X223Y-4451D01*
X222D01*
X199Y-4443D01*
X176Y-4437D01*
X154Y-4433D01*
X133Y-4430D01*
X123Y-4429D01*
X114Y-4428D01*
X107Y-4428D01*
X100D01*
X95Y-4427D01*
X523D01*
X-169D01*
X88D01*
X61Y-4428D01*
X35Y-4431D01*
X24Y-4433D01*
X13Y-4435D01*
X2Y-4438D01*
X-7Y-4440D01*
X-16Y-4442D01*
X-24Y-4445D01*
X-30Y-4448D01*
X-35Y-4449D01*
X-40Y-4451D01*
X-43Y-4452D01*
X-45Y-4454D01*
X-46D01*
X-66Y-4465D01*
X-85Y-4477D01*
X-100Y-4490D01*
X-113Y-4502D01*
X-123Y-4513D01*
X-127Y-4518D01*
X-131Y-4522D01*
X-133Y-4526D01*
X-135Y-4528D01*
X-136Y-4530D01*
X-137Y-4530D01*
X-142Y-4540D01*
X-147Y-4549D01*
X-155Y-4568D01*
X-161Y-4586D01*
X-165Y-4603D01*
X-166Y-4611D01*
X-168Y-4617D01*
X-168Y-4623D01*
Y-4628D01*
X-169Y-4633D01*
Y-4628D01*
Y-4639D01*
X-168Y-4656D01*
X-166Y-4671D01*
X-162Y-4685D01*
X-157Y-4699D01*
X-152Y-4712D01*
X-146Y-4723D01*
X-139Y-4733D01*
X-132Y-4743D01*
X-125Y-4751D01*
X-119Y-4758D01*
X-113Y-4763D01*
X-107Y-4769D01*
X-103Y-4772D01*
X-99Y-4775D01*
X-97Y-4777D01*
X-96Y-4778D01*
X-158D01*
Y-4855D01*
X-169D01*
X523D01*
Y-4427D01*
D02*
G37*
G36*
X935Y-4461D02*
X927D01*
X904Y-4462D01*
X883Y-4464D01*
X863Y-4467D01*
X845Y-4471D01*
X828Y-4475D01*
X812Y-4480D01*
X798Y-4486D01*
X786Y-4492D01*
X775Y-4497D01*
X764Y-4503D01*
X756Y-4508D01*
X750Y-4513D01*
X744Y-4516D01*
X740Y-4519D01*
X738Y-4521D01*
X737Y-4522D01*
X725Y-4534D01*
X716Y-4547D01*
X707Y-4560D01*
X699Y-4573D01*
X693Y-4587D01*
X688Y-4600D01*
X683Y-4614D01*
X679Y-4626D01*
X676Y-4638D01*
X675Y-4649D01*
X674Y-4659D01*
X672Y-4668D01*
Y-4675D01*
X671Y-4680D01*
Y-4685D01*
X672Y-4699D01*
X674Y-4713D01*
X676Y-4727D01*
X679Y-4740D01*
X682Y-4752D01*
X687Y-4763D01*
X690Y-4773D01*
X696Y-4783D01*
X700Y-4791D01*
X704Y-4799D01*
X708Y-4805D01*
X712Y-4811D01*
X715Y-4814D01*
X717Y-4818D01*
X719Y-4820D01*
X719Y-4820D01*
X729Y-4830D01*
X738Y-4839D01*
X750Y-4848D01*
X761Y-4854D01*
X772Y-4861D01*
X783Y-4867D01*
X803Y-4876D01*
X814Y-4879D01*
X823Y-4882D01*
X831Y-4885D01*
X838Y-4887D01*
X844Y-4888D01*
X848Y-4889D01*
X851Y-4890D01*
X671D01*
X1187D01*
X852D01*
X863Y-4808D01*
X851Y-4806D01*
X841Y-4803D01*
X831Y-4800D01*
X822Y-4797D01*
X813Y-4794D01*
X806Y-4791D01*
X799Y-4787D01*
X792Y-4783D01*
X787Y-4780D01*
X783Y-4777D01*
X775Y-4771D01*
X771Y-4767D01*
X770Y-4766D01*
X769Y-4766D01*
X760Y-4752D01*
X752Y-4739D01*
X747Y-4725D01*
X744Y-4713D01*
X741Y-4701D01*
X741Y-4696D01*
Y-4692D01*
X740Y-4688D01*
Y-4684D01*
X741Y-4673D01*
X742Y-4662D01*
X744Y-4652D01*
X747Y-4642D01*
X754Y-4625D01*
X763Y-4611D01*
X766Y-4605D01*
X771Y-4600D01*
X775Y-4595D01*
X778Y-4591D01*
X781Y-4588D01*
X783Y-4586D01*
X784Y-4585D01*
X785Y-4584D01*
X794Y-4578D01*
X804Y-4572D01*
X815Y-4566D01*
X826Y-4563D01*
X851Y-4555D01*
X874Y-4551D01*
X885Y-4549D01*
X896Y-4549D01*
X905Y-4548D01*
X913Y-4547D01*
X920Y-4547D01*
X925D01*
X929D01*
X930D01*
X947Y-4547D01*
X964Y-4548D01*
X979Y-4550D01*
X993Y-4552D01*
X1006Y-4555D01*
X1018Y-4559D01*
X1028Y-4563D01*
X1038Y-4566D01*
X1046Y-4569D01*
X1054Y-4573D01*
X1059Y-4577D01*
X1064Y-4580D01*
X1068Y-4582D01*
X1071Y-4584D01*
X1072Y-4585D01*
X1073Y-4586D01*
X1081Y-4593D01*
X1088Y-4601D01*
X1094Y-4610D01*
X1099Y-4618D01*
X1104Y-4627D01*
X1107Y-4635D01*
X1113Y-4651D01*
X1116Y-4666D01*
X1117Y-4672D01*
X1118Y-4678D01*
X1119Y-4682D01*
Y-4688D01*
X1118Y-4703D01*
X1115Y-4717D01*
X1110Y-4729D01*
X1106Y-4739D01*
X1101Y-4747D01*
X1097Y-4754D01*
X1094Y-4758D01*
X1093Y-4759D01*
X1082Y-4769D01*
X1071Y-4778D01*
X1058Y-4785D01*
X1046Y-4791D01*
X1035Y-4795D01*
X1026Y-4798D01*
X1023Y-4799D01*
X1020Y-4800D01*
X1019Y-4800D01*
X1018D01*
X1031Y-4882D01*
X1044Y-4879D01*
X1057Y-4874D01*
X1069Y-4870D01*
X1080Y-4865D01*
X1090Y-4860D01*
X1100Y-4854D01*
X1108Y-4849D01*
X1116Y-4843D01*
X1123Y-4838D01*
X1129Y-4833D01*
X1134Y-4828D01*
X1138Y-4824D01*
X1141Y-4821D01*
X1144Y-4818D01*
X1145Y-4817D01*
X1146Y-4816D01*
X1153Y-4806D01*
X1160Y-4796D01*
X1165Y-4785D01*
X1169Y-4774D01*
X1177Y-4752D01*
X1182Y-4731D01*
X1183Y-4721D01*
X1185Y-4713D01*
X1186Y-4704D01*
X1186Y-4698D01*
X1187Y-4693D01*
Y-4678D01*
Y-4685D01*
X1186Y-4662D01*
X1183Y-4640D01*
X1178Y-4620D01*
X1175Y-4611D01*
X1172Y-4602D01*
X1169Y-4594D01*
X1166Y-4588D01*
X1164Y-4582D01*
X1161Y-4577D01*
X1160Y-4572D01*
X1158Y-4569D01*
X1157Y-4568D01*
Y-4567D01*
X1144Y-4548D01*
X1130Y-4532D01*
X1115Y-4518D01*
X1101Y-4507D01*
X1088Y-4498D01*
X1082Y-4495D01*
X1076Y-4492D01*
X1073Y-4490D01*
X1070Y-4488D01*
X1068Y-4487D01*
X1067D01*
X1044Y-4478D01*
X1020Y-4472D01*
X996Y-4468D01*
X975Y-4464D01*
X964Y-4463D01*
X955Y-4462D01*
X947Y-4462D01*
X940D01*
X935Y-4461D01*
D02*
G37*
G36*
X1187Y-4961D02*
X682D01*
Y-5228D01*
Y-5044D01*
X941D01*
X960Y-5045D01*
X978Y-5046D01*
X995Y-5048D01*
X1009Y-5051D01*
X1021Y-5053D01*
X1026Y-5054D01*
X1031Y-5055D01*
X1034Y-5056D01*
X1036Y-5056D01*
X1037Y-5057D01*
X1038D01*
X1048Y-5062D01*
X1058Y-5066D01*
X1065Y-5071D01*
X1072Y-5076D01*
X1077Y-5081D01*
X1081Y-5085D01*
X1083Y-5087D01*
X1084Y-5088D01*
X1090Y-5097D01*
X1093Y-5105D01*
X1096Y-5113D01*
X1099Y-5121D01*
X1100Y-5128D01*
X1101Y-5133D01*
Y-5138D01*
X1100Y-5149D01*
X1098Y-5161D01*
X1095Y-5171D01*
X1092Y-5180D01*
X1088Y-5188D01*
X1085Y-5194D01*
X1083Y-5197D01*
X1082Y-5199D01*
X1160Y-5228D01*
X1169Y-5212D01*
X1175Y-5196D01*
X1181Y-5182D01*
X1183Y-5169D01*
X1186Y-5158D01*
X1186Y-5153D01*
Y-5149D01*
X1187Y-5147D01*
Y-5220D01*
Y-5142D01*
X1186Y-5132D01*
X1184Y-5121D01*
X1182Y-5113D01*
X1179Y-5104D01*
X1175Y-5099D01*
X1173Y-5093D01*
X1171Y-5090D01*
X1170Y-5089D01*
X1166Y-5085D01*
X1162Y-5079D01*
X1152Y-5070D01*
X1141Y-5062D01*
X1129Y-5054D01*
X1119Y-5046D01*
X1109Y-5041D01*
X1106Y-5039D01*
X1103Y-5037D01*
X1102Y-5036D01*
X1176D01*
Y-4961D01*
X1187D01*
D02*
G37*
G36*
X347Y-4959D02*
X-169D01*
X-28D01*
X-39Y-4960D01*
X-50Y-4961D01*
X-61Y-4963D01*
X-70Y-4966D01*
X-88Y-4973D01*
X-102Y-4981D01*
X-108Y-4985D01*
X-114Y-4989D01*
X-119Y-4992D01*
X-123Y-4996D01*
X-125Y-4999D01*
X-128Y-5000D01*
X-129Y-5002D01*
X-130Y-5003D01*
X-137Y-5011D01*
X-142Y-5020D01*
X-148Y-5031D01*
X-153Y-5040D01*
X-159Y-5061D01*
X-164Y-5082D01*
X-166Y-5090D01*
X-167Y-5099D01*
X-168Y-5107D01*
X-168Y-5114D01*
X-169Y-5119D01*
Y-5127D01*
X-168Y-5146D01*
X-167Y-5163D01*
X-164Y-5178D01*
X-161Y-5192D01*
X-158Y-5203D01*
X-156Y-5209D01*
X-155Y-5212D01*
X-154Y-5215D01*
X-154Y-5217D01*
X-153Y-5219D01*
Y-5220D01*
X-145Y-5236D01*
X-137Y-5252D01*
X-128Y-5267D01*
X-118Y-5281D01*
X-110Y-5293D01*
X-106Y-5297D01*
X-103Y-5301D01*
X-100Y-5305D01*
X-97Y-5307D01*
X-97Y-5309D01*
X-96Y-5310D01*
X-109Y-5311D01*
X-121Y-5313D01*
X-131Y-5316D01*
X-140Y-5319D01*
X-148Y-5321D01*
X-154Y-5324D01*
X-156Y-5325D01*
X-158Y-5326D01*
Y-5413D01*
X-148Y-5408D01*
X-137Y-5403D01*
X-127Y-5400D01*
X-118Y-5397D01*
X-110Y-5394D01*
X-104Y-5393D01*
X-100Y-5392D01*
X-99D01*
X-92Y-5392D01*
X-83Y-5391D01*
X-74Y-5390D01*
X-63Y-5389D01*
X-51Y-5389D01*
X-38D01*
X-13Y-5388D01*
X-1D01*
X10Y-5387D01*
X21D01*
X30D01*
X38D01*
X44D01*
X47D01*
X49D01*
X160D01*
X170D01*
X179D01*
X187Y-5386D01*
X196D01*
X209Y-5386D01*
X219Y-5385D01*
X227Y-5384D01*
X232Y-5383D01*
X236Y-5383D01*
X237D01*
X249Y-5380D01*
X261Y-5375D01*
X270Y-5371D01*
X278Y-5366D01*
X285Y-5363D01*
X290Y-5359D01*
X293Y-5357D01*
X294Y-5356D01*
X302Y-5348D01*
X309Y-5339D01*
X316Y-5330D01*
X321Y-5320D01*
X325Y-5311D01*
X328Y-5304D01*
X330Y-5301D01*
X331Y-5299D01*
X331Y-5299D01*
Y-5298D01*
X337Y-5282D01*
X340Y-5265D01*
X343Y-5248D01*
X345Y-5232D01*
X346Y-5218D01*
Y-5211D01*
X347Y-5206D01*
Y-5196D01*
X346Y-5173D01*
X344Y-5152D01*
X341Y-5132D01*
X339Y-5124D01*
X338Y-5116D01*
X337Y-5109D01*
X335Y-5102D01*
X334Y-5097D01*
X332Y-5093D01*
X331Y-5089D01*
X330Y-5086D01*
X329Y-5085D01*
Y-5084D01*
X322Y-5067D01*
X314Y-5052D01*
X306Y-5039D01*
X297Y-5029D01*
X290Y-5021D01*
X284Y-5015D01*
X280Y-5011D01*
X280Y-5010D01*
X279D01*
X266Y-5001D01*
X252Y-4994D01*
X238Y-4988D01*
X225Y-4983D01*
X213Y-4979D01*
X208Y-4978D01*
X204Y-4976D01*
X200Y-4975D01*
X197Y-4975D01*
X196Y-4974D01*
X195D01*
X184Y-5056D01*
X193Y-5059D01*
X202Y-5062D01*
X217Y-5068D01*
X230Y-5075D01*
X240Y-5082D01*
X247Y-5087D01*
X253Y-5093D01*
X256Y-5096D01*
X257Y-5097D01*
X263Y-5109D01*
X269Y-5123D01*
X272Y-5137D01*
X275Y-5151D01*
X277Y-5164D01*
Y-5169D01*
X277Y-5175D01*
Y-5184D01*
X276Y-5206D01*
X273Y-5225D01*
X269Y-5242D01*
X263Y-5255D01*
X258Y-5265D01*
X255Y-5269D01*
X253Y-5273D01*
X252Y-5276D01*
X250Y-5277D01*
X249Y-5279D01*
X240Y-5287D01*
X229Y-5293D01*
X217Y-5297D01*
X205Y-5300D01*
X194Y-5301D01*
X185Y-5303D01*
X182D01*
X179D01*
X178D01*
X177D01*
X175D01*
X172D01*
X165D01*
X162Y-5302D01*
X159D01*
X156D01*
X156D01*
X153Y-5293D01*
X150Y-5282D01*
X147Y-5270D01*
X144Y-5259D01*
X139Y-5234D01*
X134Y-5210D01*
X133Y-5198D01*
X131Y-5188D01*
X130Y-5178D01*
X128Y-5169D01*
X128Y-5163D01*
X127Y-5158D01*
X126Y-5155D01*
Y-5153D01*
X124Y-5135D01*
X122Y-5121D01*
X120Y-5107D01*
X118Y-5097D01*
X116Y-5089D01*
X115Y-5083D01*
X114Y-5080D01*
Y-5079D01*
X110Y-5067D01*
X106Y-5055D01*
X101Y-5045D01*
X97Y-5036D01*
X93Y-5028D01*
X89Y-5023D01*
X87Y-5020D01*
X86Y-5018D01*
X79Y-5009D01*
X72Y-5000D01*
X63Y-4993D01*
X56Y-4987D01*
X49Y-4982D01*
X44Y-4978D01*
X40Y-4976D01*
X38Y-4975D01*
X27Y-4970D01*
X16Y-4966D01*
X4Y-4963D01*
X-6Y-4961D01*
X-15Y-4960D01*
X-22Y-4959D01*
X347D01*
D02*
G37*
G36*
X935Y-5247D02*
X929D01*
X906Y-5248D01*
X885Y-5250D01*
X865Y-5253D01*
X846Y-5256D01*
X829Y-5262D01*
X814Y-5267D01*
X800Y-5273D01*
X786Y-5279D01*
X775Y-5285D01*
X765Y-5290D01*
X757Y-5296D01*
X750Y-5301D01*
X744Y-5304D01*
X741Y-5307D01*
X738Y-5310D01*
X738Y-5310D01*
X726Y-5323D01*
X716Y-5336D01*
X707Y-5349D01*
X699Y-5363D01*
X693Y-5378D01*
X688Y-5392D01*
X683Y-5405D01*
X679Y-5418D01*
X677Y-5431D01*
X675Y-5442D01*
X674Y-5452D01*
X672Y-5461D01*
Y-5468D01*
X671Y-5473D01*
Y-5478D01*
X673Y-5501D01*
X676Y-5524D01*
X681Y-5544D01*
X683Y-5553D01*
X686Y-5561D01*
X689Y-5569D01*
X691Y-5576D01*
X694Y-5582D01*
X696Y-5587D01*
X698Y-5592D01*
X699Y-5594D01*
X701Y-5596D01*
Y-5597D01*
X713Y-5616D01*
X727Y-5633D01*
X741Y-5647D01*
X755Y-5659D01*
X766Y-5668D01*
X772Y-5672D01*
X777Y-5675D01*
X781Y-5677D01*
X783Y-5679D01*
X785Y-5680D01*
X786D01*
X797Y-5685D01*
X808Y-5690D01*
X832Y-5697D01*
X857Y-5702D01*
X881Y-5705D01*
X892Y-5707D01*
X902Y-5707D01*
X912Y-5708D01*
X920D01*
X927Y-5709D01*
X671D01*
X935D01*
X957Y-5708D01*
X978Y-5706D01*
X997Y-5703D01*
X1014Y-5699D01*
X1031Y-5694D01*
X1045Y-5688D01*
X1059Y-5682D01*
X1072Y-5676D01*
X1083Y-5670D01*
X1093Y-5665D01*
X1101Y-5659D01*
X1107Y-5654D01*
X1113Y-5650D01*
X1117Y-5647D01*
X1119Y-5645D01*
X1120Y-5644D01*
X1132Y-5631D01*
X1142Y-5618D01*
X1151Y-5605D01*
X1159Y-5591D01*
X1165Y-5577D01*
X1171Y-5563D01*
X1175Y-5549D01*
X1179Y-5537D01*
X1181Y-5524D01*
X1183Y-5513D01*
X1185Y-5504D01*
X1186Y-5495D01*
Y-5487D01*
X1187Y-5482D01*
Y-5666D01*
Y-5478D01*
X1186Y-5461D01*
X1185Y-5445D01*
X1182Y-5430D01*
X1178Y-5415D01*
X1175Y-5401D01*
X1169Y-5389D01*
X1165Y-5377D01*
X1160Y-5366D01*
X1155Y-5356D01*
X1150Y-5348D01*
X1144Y-5341D01*
X1141Y-5334D01*
X1137Y-5330D01*
X1134Y-5326D01*
X1133Y-5324D01*
X1132Y-5323D01*
X1119Y-5310D01*
X1104Y-5298D01*
X1089Y-5287D01*
X1073Y-5279D01*
X1056Y-5272D01*
X1039Y-5265D01*
X1022Y-5260D01*
X1006Y-5256D01*
X990Y-5254D01*
X976Y-5251D01*
X963Y-5249D01*
X951Y-5248D01*
X942Y-5248D01*
X935Y-5247D01*
D02*
G37*
G36*
X347Y-5516D02*
X-158D01*
Y-5600D01*
X111D01*
X128Y-5600D01*
X145Y-5601D01*
X159Y-5603D01*
X172Y-5606D01*
X184Y-5609D01*
X194Y-5611D01*
X204Y-5615D01*
X212Y-5619D01*
X219Y-5623D01*
X225Y-5626D01*
X230Y-5629D01*
X234Y-5632D01*
X237Y-5634D01*
X239Y-5637D01*
X240Y-5637D01*
X241Y-5638D01*
X246Y-5645D01*
X252Y-5654D01*
X261Y-5669D01*
X266Y-5685D01*
X270Y-5699D01*
X273Y-5711D01*
X274Y-5717D01*
Y-5721D01*
X275Y-5725D01*
Y-5730D01*
X274Y-5743D01*
X272Y-5754D01*
X269Y-5763D01*
X267Y-5772D01*
X264Y-5779D01*
X261Y-5784D01*
X260Y-5788D01*
X259Y-5789D01*
X253Y-5797D01*
X246Y-5805D01*
X240Y-5811D01*
X233Y-5815D01*
X227Y-5819D01*
X223Y-5821D01*
X220Y-5823D01*
X218Y-5823D01*
X208Y-5827D01*
X196Y-5829D01*
X184Y-5831D01*
X171Y-5832D01*
X160Y-5833D01*
X155Y-5834D01*
X151D01*
X148D01*
X145D01*
X143D01*
X142D01*
X-158D01*
Y-5917D01*
X347D01*
X165D01*
X175Y-5916D01*
X183D01*
X190Y-5916D01*
X197D01*
X208Y-5915D01*
X216Y-5913D01*
X222Y-5913D01*
X226Y-5912D01*
X227D01*
X240Y-5909D01*
X252Y-5904D01*
X262Y-5901D01*
X271Y-5896D01*
X278Y-5892D01*
X284Y-5889D01*
X287Y-5887D01*
X289Y-5886D01*
X298Y-5879D01*
X306Y-5870D01*
X313Y-5860D01*
X320Y-5851D01*
X324Y-5842D01*
X328Y-5836D01*
X330Y-5831D01*
X331Y-5831D01*
Y-5830D01*
X336Y-5816D01*
X340Y-5802D01*
X343Y-5788D01*
X345Y-5775D01*
X346Y-5764D01*
Y-5760D01*
X347Y-5755D01*
Y-5748D01*
X346Y-5730D01*
X343Y-5712D01*
X339Y-5696D01*
X334Y-5680D01*
X328Y-5666D01*
X321Y-5654D01*
X314Y-5642D01*
X306Y-5631D01*
X298Y-5622D01*
X291Y-5614D01*
X284Y-5607D01*
X277Y-5602D01*
X272Y-5597D01*
X269Y-5594D01*
X266Y-5592D01*
X265Y-5592D01*
X336D01*
Y-5516D01*
X347D01*
D02*
G37*
G36*
X1187Y-5807D02*
D01*
Y-6039D01*
X1186Y-6020D01*
X1183Y-6003D01*
X1180Y-5986D01*
X1175Y-5971D01*
X1168Y-5957D01*
X1161Y-5944D01*
X1154Y-5932D01*
X1147Y-5922D01*
X1138Y-5913D01*
X1131Y-5904D01*
X1124Y-5898D01*
X1118Y-5893D01*
X1113Y-5888D01*
X1109Y-5885D01*
X1106Y-5883D01*
X1105Y-5882D01*
X1176D01*
Y-5807D01*
X1187D01*
X682D01*
Y-5890D01*
X952D01*
X969Y-5891D01*
X985Y-5892D01*
X999Y-5894D01*
X1012Y-5896D01*
X1024Y-5899D01*
X1034Y-5902D01*
X1044Y-5906D01*
X1052Y-5910D01*
X1059Y-5913D01*
X1065Y-5917D01*
X1070Y-5920D01*
X1074Y-5923D01*
X1077Y-5925D01*
X1079Y-5927D01*
X1080Y-5928D01*
X1081Y-5929D01*
X1087Y-5936D01*
X1092Y-5944D01*
X1101Y-5960D01*
X1107Y-5975D01*
X1110Y-5989D01*
X1113Y-6002D01*
X1114Y-6008D01*
Y-6012D01*
X1115Y-6016D01*
Y-6021D01*
X1114Y-6034D01*
X1113Y-6045D01*
X1110Y-6054D01*
X1107Y-6063D01*
X1104Y-6070D01*
X1102Y-6075D01*
X1100Y-6079D01*
X1099Y-6079D01*
X1093Y-6088D01*
X1087Y-6096D01*
X1080Y-6101D01*
X1073Y-6106D01*
X1068Y-6110D01*
X1063Y-6112D01*
X1060Y-6113D01*
X1059Y-6114D01*
X1048Y-6118D01*
X1037Y-6120D01*
X1024Y-6122D01*
X1012Y-6123D01*
X1000Y-6124D01*
X995Y-6124D01*
X991D01*
X988D01*
X985D01*
X983D01*
X983D01*
X682D01*
Y-6208D01*
X1187D01*
Y-5807D01*
D02*
G37*
G36*
X971Y-6303D02*
X887D01*
Y-6561D01*
X971D01*
Y-6303D01*
D02*
G37*
G36*
X523Y-6586D02*
X443D01*
Y-6810D01*
X-158D01*
Y-7124D01*
Y-6900D01*
X443D01*
Y-7124D01*
X-158D01*
X523D01*
Y-6586D01*
D02*
G37*
G36*
X1375Y-6641D02*
X681D01*
X1020D01*
X1001Y-6642D01*
X983Y-6642D01*
X966Y-6645D01*
X949Y-6648D01*
X933Y-6651D01*
X918Y-6654D01*
X904Y-6658D01*
X891Y-6662D01*
X879Y-6665D01*
X869Y-6669D01*
X860Y-6673D01*
X852Y-6676D01*
X846Y-6679D01*
X842Y-6681D01*
X839Y-6682D01*
X838Y-6682D01*
X823Y-6690D01*
X809Y-6700D01*
X797Y-6710D01*
X784Y-6719D01*
X773Y-6730D01*
X764Y-6740D01*
X754Y-6750D01*
X746Y-6760D01*
X738Y-6769D01*
X732Y-6778D01*
X727Y-6786D01*
X722Y-6793D01*
X719Y-6798D01*
X716Y-6803D01*
X715Y-6806D01*
X714Y-6806D01*
X707Y-6822D01*
X700Y-6838D01*
X694Y-6854D01*
X690Y-6869D01*
X685Y-6885D01*
X682Y-6900D01*
X679Y-6915D01*
X676Y-6928D01*
X675Y-6941D01*
X674Y-6952D01*
X673Y-6963D01*
X672Y-6972D01*
X671Y-6979D01*
Y-6989D01*
X673Y-7016D01*
X676Y-7042D01*
X679Y-7067D01*
X682Y-7078D01*
X685Y-7089D01*
X687Y-7099D01*
X690Y-7107D01*
X692Y-7115D01*
X693Y-7121D01*
X696Y-7127D01*
X696Y-7130D01*
X698Y-7132D01*
Y-7133D01*
X709Y-7160D01*
X721Y-7185D01*
X735Y-7208D01*
X741Y-7219D01*
X747Y-7228D01*
X753Y-7237D01*
X759Y-7245D01*
X764Y-7253D01*
X768Y-7259D01*
X772Y-7264D01*
X775Y-7268D01*
X776Y-7270D01*
X777Y-7270D01*
X688D01*
X1030D01*
Y-6982D01*
X950D01*
Y-7182D01*
X822D01*
X812Y-7170D01*
X804Y-7157D01*
X796Y-7143D01*
X789Y-7129D01*
X783Y-7116D01*
X780Y-7111D01*
X778Y-7107D01*
X776Y-7102D01*
X775Y-7099D01*
X774Y-7098D01*
Y-7097D01*
X766Y-7076D01*
X761Y-7056D01*
X757Y-7037D01*
X755Y-7020D01*
X754Y-7011D01*
X753Y-7005D01*
X752Y-6999D01*
Y-6994D01*
X752Y-6989D01*
Y-6983D01*
X753Y-6958D01*
X756Y-6935D01*
X761Y-6913D01*
X764Y-6903D01*
X766Y-6894D01*
X769Y-6886D01*
X772Y-6879D01*
X775Y-6872D01*
X777Y-6866D01*
X778Y-6862D01*
X780Y-6859D01*
X781Y-6856D01*
Y-6856D01*
X787Y-6845D01*
X794Y-6834D01*
X808Y-6817D01*
X823Y-6801D01*
X838Y-6788D01*
X851Y-6778D01*
X857Y-6774D01*
X862Y-6771D01*
X866Y-6768D01*
X869Y-6766D01*
X871Y-6766D01*
X872Y-6765D01*
X896Y-6755D01*
X922Y-6747D01*
X947Y-6741D01*
X972Y-6738D01*
X983Y-6737D01*
X993Y-6735D01*
X1002Y-6735D01*
X1010D01*
X1016Y-6734D01*
X1021D01*
X1024D01*
X1025D01*
X1052Y-6735D01*
X1078Y-6738D01*
X1101Y-6742D01*
X1112Y-6744D01*
X1121Y-6747D01*
X1130Y-6749D01*
X1138Y-6752D01*
X1145Y-6754D01*
X1151Y-6756D01*
X1156Y-6758D01*
X1159Y-6759D01*
X1161Y-6760D01*
X1162D01*
X1175Y-6766D01*
X1188Y-6772D01*
X1200Y-6780D01*
X1209Y-6786D01*
X1217Y-6792D01*
X1224Y-6797D01*
X1228Y-6800D01*
X1229Y-6802D01*
X1240Y-6813D01*
X1250Y-6825D01*
X1259Y-6837D01*
X1266Y-6849D01*
X1272Y-6859D01*
X1276Y-6868D01*
X1277Y-6870D01*
X1279Y-6873D01*
X1279Y-6874D01*
Y-6875D01*
X1286Y-6893D01*
X1290Y-6910D01*
X1294Y-6929D01*
X1296Y-6945D01*
X1297Y-6953D01*
X1298Y-6960D01*
Y-6966D01*
X1299Y-6972D01*
Y-6982D01*
X1298Y-7000D01*
X1296Y-7018D01*
X1293Y-7034D01*
X1290Y-7048D01*
X1286Y-7059D01*
X1285Y-7064D01*
X1283Y-7068D01*
X1282Y-7070D01*
X1281Y-7073D01*
X1280Y-7074D01*
Y-7075D01*
X1273Y-7090D01*
X1265Y-7103D01*
X1257Y-7114D01*
X1250Y-7124D01*
X1243Y-7130D01*
X1237Y-7135D01*
X1234Y-7139D01*
X1232Y-7140D01*
X1220Y-7148D01*
X1207Y-7155D01*
X1194Y-7162D01*
X1181Y-7168D01*
X1169Y-7172D01*
X1164Y-7174D01*
X1160Y-7175D01*
X1156Y-7177D01*
X1153Y-7177D01*
X1152Y-7178D01*
X1151D01*
X1173Y-7260D01*
X1197Y-7253D01*
X1220Y-7245D01*
X1229Y-7240D01*
X1239Y-7236D01*
X1247Y-7232D01*
X1254Y-7228D01*
X1262Y-7224D01*
X1268Y-7220D01*
X1273Y-7217D01*
X1277Y-7214D01*
X1280Y-7211D01*
X1282Y-7210D01*
X1284Y-7209D01*
X1285Y-7208D01*
X1300Y-7194D01*
X1313Y-7180D01*
X1324Y-7164D01*
X1334Y-7149D01*
X1341Y-7135D01*
X1344Y-7130D01*
X1347Y-7124D01*
X1349Y-7121D01*
X1350Y-7118D01*
X1351Y-7115D01*
Y-7115D01*
X1359Y-7092D01*
X1365Y-7069D01*
X1369Y-7046D01*
X1372Y-7025D01*
X1373Y-7016D01*
X1374Y-7008D01*
X1375Y-7000D01*
X1375Y-6994D01*
Y-7270D01*
D01*
Y-6641D01*
D02*
G37*
G36*
X336Y-7205D02*
X11D01*
X-5Y-7206D01*
X-18Y-7206D01*
X-30Y-7207D01*
X-38Y-7208D01*
X-44Y-7208D01*
X-47Y-7209D01*
X-49D01*
X-62Y-7213D01*
X-74Y-7217D01*
X-84Y-7221D01*
X-93Y-7225D01*
X-100Y-7229D01*
X-106Y-7232D01*
X-109Y-7234D01*
X-111Y-7235D01*
X-120Y-7242D01*
X-128Y-7251D01*
X-135Y-7261D01*
X-141Y-7270D01*
X-146Y-7279D01*
X-150Y-7285D01*
X-152Y-7290D01*
X-153Y-7290D01*
Y-7291D01*
X-158Y-7306D01*
X-162Y-7320D01*
X-165Y-7334D01*
X-167Y-7346D01*
X-168Y-7358D01*
X-169Y-7366D01*
Y-7373D01*
X-168Y-7392D01*
X-165Y-7408D01*
X-162Y-7424D01*
X-156Y-7439D01*
X-150Y-7454D01*
X-142Y-7466D01*
X-135Y-7478D01*
X-127Y-7489D01*
X-120Y-7499D01*
X-112Y-7507D01*
X-105Y-7514D01*
X-99Y-7520D01*
X-93Y-7524D01*
X-89Y-7527D01*
X-86Y-7530D01*
X-86Y-7530D01*
X-158D01*
Y-7605D01*
X-169D01*
X336D01*
Y-7366D01*
Y-7521D01*
X71D01*
X49Y-7521D01*
X30Y-7519D01*
X13Y-7517D01*
X-1Y-7515D01*
X-7Y-7513D01*
X-11Y-7512D01*
X-16Y-7510D01*
X-19Y-7510D01*
X-21Y-7509D01*
X-24Y-7508D01*
X-24Y-7507D01*
X-25D01*
X-37Y-7501D01*
X-47Y-7494D01*
X-56Y-7486D01*
X-63Y-7479D01*
X-69Y-7471D01*
X-74Y-7465D01*
X-77Y-7462D01*
X-77Y-7461D01*
Y-7460D01*
X-84Y-7448D01*
X-89Y-7436D01*
X-92Y-7424D01*
X-94Y-7413D01*
X-96Y-7403D01*
X-97Y-7397D01*
Y-7390D01*
X-96Y-7377D01*
X-94Y-7364D01*
X-91Y-7353D01*
X-87Y-7344D01*
X-84Y-7337D01*
X-81Y-7331D01*
X-79Y-7328D01*
X-78Y-7327D01*
X-71Y-7318D01*
X-62Y-7310D01*
X-54Y-7304D01*
X-46Y-7300D01*
X-38Y-7296D01*
X-32Y-7294D01*
X-28Y-7293D01*
X-27Y-7293D01*
X-22Y-7292D01*
X-16Y-7291D01*
X-3Y-7290D01*
X12Y-7289D01*
X27D01*
X40Y-7288D01*
X46D01*
X52D01*
X56D01*
X59D01*
X61D01*
X62D01*
X336D01*
Y-7205D01*
D02*
G37*
G36*
X523Y-7734D02*
X-158D01*
Y-7817D01*
X523D01*
Y-7734D01*
D02*
G37*
G36*
X1364Y-7400D02*
X682D01*
Y-7825D01*
X1364D01*
Y-7400D01*
D02*
G37*
G36*
Y-7948D02*
X682D01*
Y-8038D01*
X1364D01*
Y-7948D01*
D02*
G37*
G36*
X347Y-7919D02*
D01*
Y-8156D01*
X346Y-8133D01*
X344Y-8112D01*
X341Y-8093D01*
X339Y-8084D01*
X338Y-8076D01*
X337Y-8069D01*
X335Y-8062D01*
X334Y-8057D01*
X332Y-8053D01*
X331Y-8049D01*
X330Y-8046D01*
X329Y-8045D01*
Y-8044D01*
X322Y-8027D01*
X314Y-8012D01*
X306Y-8000D01*
X297Y-7989D01*
X290Y-7981D01*
X284Y-7975D01*
X280Y-7972D01*
X280Y-7970D01*
X279D01*
X266Y-7961D01*
X252Y-7954D01*
X238Y-7948D01*
X225Y-7943D01*
X213Y-7939D01*
X208Y-7938D01*
X204Y-7936D01*
X200Y-7935D01*
X197Y-7935D01*
X196Y-7934D01*
X195D01*
X184Y-8016D01*
X193Y-8019D01*
X202Y-8022D01*
X217Y-8028D01*
X230Y-8035D01*
X240Y-8042D01*
X247Y-8048D01*
X253Y-8053D01*
X256Y-8056D01*
X257Y-8057D01*
X263Y-8069D01*
X269Y-8083D01*
X272Y-8097D01*
X275Y-8111D01*
X277Y-8124D01*
Y-8130D01*
X277Y-8135D01*
Y-8144D01*
X276Y-8166D01*
X273Y-8186D01*
X269Y-8202D01*
X263Y-8215D01*
X258Y-8225D01*
X255Y-8229D01*
X253Y-8233D01*
X252Y-8236D01*
X250Y-8237D01*
X249Y-8239D01*
X240Y-8247D01*
X229Y-8253D01*
X217Y-8257D01*
X205Y-8260D01*
X194Y-8262D01*
X185Y-8263D01*
X182D01*
X179D01*
X178D01*
X177D01*
X175D01*
X172D01*
X165D01*
X162Y-8262D01*
X159D01*
X156D01*
X156D01*
X153Y-8253D01*
X150Y-8242D01*
X147Y-8231D01*
X144Y-8219D01*
X139Y-8194D01*
X134Y-8170D01*
X133Y-8158D01*
X131Y-8148D01*
X130Y-8138D01*
X128Y-8130D01*
X128Y-8123D01*
X127Y-8118D01*
X126Y-8115D01*
Y-8113D01*
X124Y-8096D01*
X122Y-8081D01*
X120Y-8068D01*
X118Y-8057D01*
X116Y-8049D01*
X115Y-8043D01*
X114Y-8040D01*
Y-8039D01*
X110Y-8027D01*
X106Y-8015D01*
X101Y-8005D01*
X97Y-7996D01*
X93Y-7989D01*
X89Y-7983D01*
X87Y-7980D01*
X86Y-7978D01*
X79Y-7969D01*
X72Y-7961D01*
X63Y-7953D01*
X56Y-7947D01*
X49Y-7942D01*
X44Y-7938D01*
X40Y-7936D01*
X38Y-7935D01*
X27Y-7930D01*
X16Y-7926D01*
X4Y-7923D01*
X-6Y-7921D01*
X-15Y-7920D01*
X-22Y-7919D01*
X347D01*
X-169D01*
X-28D01*
X-39Y-7920D01*
X-50Y-7921D01*
X-61Y-7923D01*
X-70Y-7926D01*
X-88Y-7933D01*
X-102Y-7941D01*
X-108Y-7945D01*
X-114Y-7949D01*
X-119Y-7952D01*
X-123Y-7956D01*
X-125Y-7959D01*
X-128Y-7961D01*
X-129Y-7962D01*
X-130Y-7963D01*
X-137Y-7972D01*
X-142Y-7980D01*
X-148Y-7991D01*
X-153Y-8000D01*
X-159Y-8021D01*
X-164Y-8042D01*
X-166Y-8051D01*
X-167Y-8059D01*
X-168Y-8068D01*
X-168Y-8074D01*
X-169Y-8079D01*
Y-8087D01*
X-168Y-8106D01*
X-167Y-8123D01*
X-164Y-8138D01*
X-161Y-8152D01*
X-158Y-8163D01*
X-156Y-8169D01*
X-155Y-8172D01*
X-154Y-8175D01*
X-154Y-8177D01*
X-153Y-8179D01*
Y-8180D01*
X-145Y-8196D01*
X-137Y-8212D01*
X-128Y-8227D01*
X-118Y-8241D01*
X-110Y-8253D01*
X-106Y-8257D01*
X-103Y-8262D01*
X-100Y-8265D01*
X-97Y-8268D01*
X-97Y-8269D01*
X-96Y-8270D01*
X-109Y-8271D01*
X-121Y-8273D01*
X-131Y-8276D01*
X-140Y-8279D01*
X-148Y-8282D01*
X-154Y-8284D01*
X-156Y-8285D01*
X-158Y-8286D01*
Y-8373D01*
X-148Y-8368D01*
X-137Y-8363D01*
X-127Y-8360D01*
X-118Y-8357D01*
X-110Y-8355D01*
X-104Y-8353D01*
X-100Y-8352D01*
X-99D01*
X-92Y-8352D01*
X-83Y-8351D01*
X-74Y-8350D01*
X-63Y-8349D01*
X-51Y-8349D01*
X-38D01*
X-13Y-8348D01*
X-1D01*
X10Y-8347D01*
X21D01*
X30D01*
X38D01*
X44D01*
X47D01*
X49D01*
X160D01*
X170D01*
X179D01*
X187Y-8346D01*
X196D01*
X209Y-8346D01*
X219Y-8345D01*
X227Y-8344D01*
X232Y-8344D01*
X236Y-8343D01*
X237D01*
X249Y-8340D01*
X261Y-8335D01*
X270Y-8331D01*
X278Y-8327D01*
X285Y-8323D01*
X290Y-8319D01*
X293Y-8317D01*
X294Y-8316D01*
X302Y-8308D01*
X309Y-8299D01*
X316Y-8290D01*
X321Y-8280D01*
X325Y-8271D01*
X328Y-8265D01*
X330Y-8262D01*
X331Y-8259D01*
X331Y-8259D01*
Y-8258D01*
X337Y-8242D01*
X340Y-8225D01*
X343Y-8208D01*
X345Y-8192D01*
X346Y-8178D01*
Y-8172D01*
X347Y-8166D01*
Y-7919D01*
D02*
G37*
G36*
X-63Y-8493D02*
X-293D01*
X-63D01*
Y-8499D01*
X-158D01*
Y-8546D01*
X-173Y-8545D01*
X-186Y-8543D01*
X-197Y-8541D01*
X-206Y-8538D01*
X-213Y-8536D01*
X-218Y-8534D01*
X-222Y-8532D01*
X-223Y-8532D01*
X-231Y-8527D01*
X-238Y-8521D01*
X-244Y-8514D01*
X-249Y-8507D01*
X-252Y-8501D01*
X-255Y-8497D01*
X-257Y-8494D01*
X-258Y-8493D01*
X-293Y-8515D01*
D01*
X-286Y-8529D01*
X-277Y-8542D01*
X-269Y-8552D01*
X-261Y-8561D01*
X-254Y-8566D01*
X-248Y-8571D01*
X-244Y-8574D01*
X-243Y-8575D01*
X-230Y-8581D01*
X-215Y-8586D01*
X-201Y-8589D01*
X-188Y-8591D01*
X-176Y-8593D01*
X-171D01*
X-167Y-8594D01*
X-63D01*
Y-8493D01*
D02*
G37*
G36*
X1364Y-8196D02*
X682D01*
Y-8282D01*
X1217D01*
X682Y-8639D01*
Y-8732D01*
X1364D01*
Y-8196D01*
D02*
G37*
G36*
X1176Y-9086D02*
X682Y-9273D01*
Y-9352D01*
X1176Y-9540D01*
Y-9086D01*
D02*
G37*
G36*
X523Y-9017D02*
X-158D01*
Y-9616D01*
D01*
X27Y-9498D01*
X47Y-9484D01*
X64Y-9471D01*
X80Y-9459D01*
X93Y-9448D01*
X103Y-9438D01*
X108Y-9434D01*
X111Y-9430D01*
X114Y-9427D01*
X117Y-9425D01*
X117Y-9424D01*
X118Y-9423D01*
X124Y-9416D01*
X131Y-9407D01*
X136Y-9398D01*
X141Y-9389D01*
X145Y-9381D01*
X149Y-9375D01*
X151Y-9370D01*
X152Y-9369D01*
Y-9369D01*
X155Y-9386D01*
X159Y-9403D01*
X163Y-9419D01*
X168Y-9433D01*
X173Y-9446D01*
X178Y-9458D01*
X183Y-9468D01*
X188Y-9478D01*
X193Y-9487D01*
X199Y-9494D01*
X203Y-9500D01*
X207Y-9505D01*
X210Y-9509D01*
X213Y-9512D01*
X214Y-9513D01*
X215Y-9514D01*
X224Y-9522D01*
X234Y-9529D01*
X244Y-9536D01*
X255Y-9541D01*
X265Y-9546D01*
X275Y-9549D01*
X294Y-9555D01*
X303Y-9558D01*
X311Y-9559D01*
X319Y-9560D01*
X325Y-9560D01*
X330Y-9561D01*
X334D01*
X337D01*
X337D01*
X358Y-9560D01*
X377Y-9557D01*
X394Y-9552D01*
X410Y-9547D01*
X416Y-9544D01*
X422Y-9541D01*
X427Y-9539D01*
X432Y-9537D01*
X435Y-9535D01*
X438Y-9534D01*
X439Y-9532D01*
X440D01*
X456Y-9521D01*
X469Y-9509D01*
X481Y-9496D01*
X490Y-9484D01*
X497Y-9473D01*
X501Y-9465D01*
X503Y-9461D01*
X504Y-9459D01*
X505Y-9457D01*
Y-9456D01*
X508Y-9447D01*
X511Y-9437D01*
X515Y-9415D01*
X519Y-9392D01*
X521Y-9370D01*
X522Y-9359D01*
X523Y-9349D01*
Y-9341D01*
X523Y-9333D01*
Y-9547D01*
Y-9017D01*
D02*
G37*
G36*
X778Y-9637D02*
X682D01*
Y-9732D01*
X778D01*
Y-9637D01*
D02*
G37*
G36*
X1366Y-9843D02*
D01*
Y-10080D01*
X1365Y-10062D01*
X1364Y-10045D01*
X1361Y-10030D01*
X1358Y-10015D01*
X1354Y-10001D01*
X1350Y-9989D01*
X1345Y-9977D01*
X1341Y-9966D01*
X1335Y-9957D01*
X1331Y-9949D01*
X1327Y-9941D01*
X1323Y-9935D01*
X1319Y-9931D01*
X1317Y-9928D01*
X1316Y-9926D01*
X1315Y-9925D01*
X1305Y-9915D01*
X1294Y-9906D01*
X1283Y-9898D01*
X1271Y-9890D01*
X1259Y-9884D01*
X1247Y-9879D01*
X1234Y-9874D01*
X1223Y-9870D01*
X1212Y-9867D01*
X1202Y-9865D01*
X1192Y-9862D01*
X1184Y-9861D01*
X1178Y-9860D01*
X1173Y-9859D01*
X1170Y-9859D01*
X1169D01*
X1160Y-9944D01*
X1172Y-9945D01*
X1183Y-9946D01*
X1202Y-9950D01*
X1220Y-9956D01*
X1227Y-9959D01*
X1234Y-9963D01*
X1240Y-9966D01*
X1245Y-9969D01*
X1249Y-9972D01*
X1253Y-9975D01*
X1256Y-9977D01*
X1258Y-9979D01*
X1259Y-9980D01*
X1259Y-9980D01*
X1266Y-9988D01*
X1272Y-9995D01*
X1276Y-10003D01*
X1281Y-10011D01*
X1288Y-10028D01*
X1292Y-10043D01*
X1294Y-10056D01*
X1296Y-10062D01*
Y-10067D01*
X1296Y-10072D01*
Y-10088D01*
X1295Y-10098D01*
X1291Y-10117D01*
X1285Y-10132D01*
X1279Y-10146D01*
X1273Y-10157D01*
X1270Y-10161D01*
X1267Y-10165D01*
X1265Y-10168D01*
X1263Y-10170D01*
X1262Y-10171D01*
X1262Y-10172D01*
X1255Y-10178D01*
X1248Y-10183D01*
X1242Y-10189D01*
X1234Y-10192D01*
X1220Y-10199D01*
X1207Y-10203D01*
X1196Y-10206D01*
X1191Y-10207D01*
X1186D01*
X1183Y-10208D01*
X1181D01*
X1179D01*
X1178D01*
X1169Y-10207D01*
X1161Y-10206D01*
X1143Y-10202D01*
X1126Y-10195D01*
X1110Y-10188D01*
X1097Y-10180D01*
X1092Y-10177D01*
X1087Y-10174D01*
X1083Y-10172D01*
X1080Y-10169D01*
X1079Y-10169D01*
X1078Y-10168D01*
X1068Y-10160D01*
X1057Y-10150D01*
X1045Y-10139D01*
X1033Y-10127D01*
X1009Y-10103D01*
X986Y-10078D01*
X975Y-10066D01*
X965Y-10054D01*
X956Y-10044D01*
X949Y-10035D01*
X942Y-10028D01*
X938Y-10022D01*
X934Y-10019D01*
X933Y-10017D01*
X922Y-10004D01*
X912Y-9992D01*
X902Y-9980D01*
X893Y-9970D01*
X884Y-9960D01*
X875Y-9951D01*
X868Y-9943D01*
X860Y-9935D01*
X854Y-9929D01*
X848Y-9924D01*
X843Y-9918D01*
X839Y-9915D01*
X835Y-9911D01*
X833Y-9909D01*
X831Y-9908D01*
X831Y-9907D01*
X814Y-9894D01*
X798Y-9883D01*
X783Y-9873D01*
X769Y-9866D01*
X757Y-9860D01*
X752Y-9858D01*
X748Y-9856D01*
X744Y-9854D01*
X742Y-9853D01*
X741Y-9853D01*
X740D01*
X730Y-9849D01*
X719Y-9847D01*
X710Y-9845D01*
X701Y-9844D01*
X693Y-9843D01*
X682D01*
Y-10294D01*
X1366D01*
Y-9843D01*
D02*
G37*
G36*
X336Y-9690D02*
X11D01*
X-5Y-9690D01*
X-18Y-9691D01*
X-30Y-9692D01*
X-38Y-9693D01*
X-44Y-9693D01*
X-47Y-9694D01*
X-49D01*
X-62Y-9698D01*
X-74Y-9701D01*
X-84Y-9706D01*
X-93Y-9710D01*
X-100Y-9714D01*
X-106Y-9717D01*
X-109Y-9719D01*
X-111Y-9720D01*
X-120Y-9727D01*
X-128Y-9736D01*
X-135Y-9746D01*
X-141Y-9755D01*
X-146Y-9763D01*
X-150Y-9770D01*
X-152Y-9775D01*
X-153Y-9775D01*
Y-9776D01*
X-158Y-9791D01*
X-162Y-9805D01*
X-165Y-9819D01*
X-167Y-9831D01*
X-168Y-9842D01*
X-169Y-9851D01*
Y-9858D01*
X-168Y-9876D01*
X-165Y-9893D01*
X-162Y-9909D01*
X-156Y-9924D01*
X-150Y-9938D01*
X-142Y-9951D01*
X-135Y-9963D01*
X-127Y-9974D01*
X-120Y-9983D01*
X-112Y-9991D01*
X-105Y-9999D01*
X-99Y-10005D01*
X-93Y-10009D01*
X-89Y-10012D01*
X-86Y-10014D01*
X-86Y-10015D01*
X-158D01*
Y-10090D01*
X-169D01*
X336D01*
Y-9690D01*
D02*
G37*
G36*
X-11Y-10188D02*
X-25Y-10191D01*
X-39Y-10194D01*
X-52Y-10199D01*
X-63Y-10203D01*
X-74Y-10208D01*
X-83Y-10214D01*
X-92Y-10219D01*
X-100Y-10225D01*
X-107Y-10230D01*
X-113Y-10235D01*
X-118Y-10239D01*
X-123Y-10243D01*
X-125Y-10247D01*
X-128Y-10249D01*
X-129Y-10251D01*
X-130Y-10251D01*
X-137Y-10262D01*
X-142Y-10272D01*
X-148Y-10284D01*
X-153Y-10296D01*
X-159Y-10321D01*
X-164Y-10344D01*
X-166Y-10355D01*
X-167Y-10366D01*
X-168Y-10375D01*
X-168Y-10383D01*
X-169Y-10389D01*
Y-10598D01*
Y-10399D01*
X-168Y-10420D01*
X-166Y-10439D01*
X-162Y-10457D01*
X-159Y-10473D01*
X-157Y-10479D01*
X-156Y-10485D01*
X-154Y-10490D01*
X-152Y-10495D01*
X-151Y-10498D01*
X-150Y-10501D01*
X-149Y-10502D01*
Y-10503D01*
X-141Y-10519D01*
X-132Y-10533D01*
X-123Y-10545D01*
X-113Y-10555D01*
X-105Y-10563D01*
X-98Y-10569D01*
X-94Y-10572D01*
X-93Y-10573D01*
X-92D01*
X-78Y-10581D01*
X-64Y-10588D01*
X-51Y-10592D01*
X-39Y-10595D01*
X-29Y-10597D01*
X-21Y-10598D01*
X-13D01*
X2Y-10597D01*
X16Y-10595D01*
X28Y-10591D01*
X38Y-10588D01*
X47Y-10584D01*
X53Y-10580D01*
X57Y-10578D01*
X58Y-10577D01*
X69Y-10569D01*
X77Y-10560D01*
X85Y-10551D01*
X91Y-10542D01*
X96Y-10535D01*
X99Y-10528D01*
X101Y-10524D01*
X102Y-10523D01*
Y-10522D01*
X105Y-10515D01*
X108Y-10507D01*
X111Y-10498D01*
X114Y-10488D01*
X121Y-10468D01*
X127Y-10448D01*
X130Y-10438D01*
X133Y-10428D01*
X135Y-10420D01*
X137Y-10414D01*
X139Y-10407D01*
X140Y-10403D01*
X141Y-10400D01*
Y-10399D01*
X144Y-10388D01*
X147Y-10378D01*
X149Y-10369D01*
X151Y-10361D01*
X154Y-10355D01*
X155Y-10349D01*
X156Y-10344D01*
X158Y-10339D01*
X160Y-10332D01*
X162Y-10328D01*
X162Y-10326D01*
Y-10325D01*
X166Y-10318D01*
X170Y-10311D01*
X173Y-10305D01*
X177Y-10301D01*
X180Y-10297D01*
X182Y-10295D01*
X184Y-10293D01*
X184Y-10293D01*
X190Y-10290D01*
X195Y-10287D01*
X204Y-10284D01*
X208Y-10284D01*
X211Y-10283D01*
X213D01*
X214D01*
X224Y-10284D01*
X232Y-10287D01*
X240Y-10290D01*
X246Y-10296D01*
X252Y-10300D01*
X255Y-10304D01*
X258Y-10307D01*
X259Y-10307D01*
X263Y-10313D01*
X266Y-10318D01*
X270Y-10330D01*
X274Y-10344D01*
X276Y-10358D01*
X277Y-10370D01*
Y-10375D01*
X278Y-10380D01*
Y-10389D01*
X277Y-10407D01*
X275Y-10422D01*
X272Y-10435D01*
X267Y-10446D01*
X263Y-10454D01*
X260Y-10460D01*
X257Y-10464D01*
X256Y-10465D01*
X247Y-10474D01*
X238Y-10482D01*
X228Y-10487D01*
X218Y-10492D01*
X210Y-10495D01*
X203Y-10496D01*
X199Y-10498D01*
X198D01*
X197D01*
X208Y-10580D01*
X225Y-10576D01*
X240Y-10572D01*
X253Y-10567D01*
X264Y-10562D01*
X272Y-10558D01*
X279Y-10554D01*
X283Y-10551D01*
X284Y-10550D01*
X294Y-10541D01*
X303Y-10531D01*
X311Y-10521D01*
X318Y-10510D01*
X323Y-10500D01*
X327Y-10493D01*
X328Y-10490D01*
X329Y-10487D01*
X330Y-10486D01*
Y-10485D01*
X336Y-10468D01*
X339Y-10451D01*
X342Y-10434D01*
X345Y-10418D01*
X346Y-10404D01*
Y-10398D01*
X347Y-10393D01*
Y-10383D01*
X346Y-10369D01*
X345Y-10356D01*
X344Y-10344D01*
X342Y-10333D01*
X339Y-10324D01*
X338Y-10317D01*
X337Y-10313D01*
X337Y-10312D01*
Y-10311D01*
X333Y-10299D01*
X328Y-10288D01*
X324Y-10279D01*
X320Y-10272D01*
X317Y-10266D01*
X314Y-10262D01*
X313Y-10259D01*
X312Y-10258D01*
X305Y-10248D01*
X297Y-10240D01*
X289Y-10233D01*
X282Y-10228D01*
X275Y-10222D01*
X270Y-10220D01*
X267Y-10217D01*
X266Y-10217D01*
X255Y-10211D01*
X244Y-10208D01*
X234Y-10206D01*
X224Y-10204D01*
X216Y-10203D01*
X210Y-10202D01*
X206D01*
X205D01*
X204D01*
X191Y-10203D01*
X179Y-10205D01*
X168Y-10208D01*
X158Y-10211D01*
X150Y-10214D01*
X143Y-10217D01*
X139Y-10219D01*
X138Y-10220D01*
X128Y-10227D01*
X118Y-10236D01*
X111Y-10245D01*
X104Y-10253D01*
X98Y-10262D01*
X94Y-10267D01*
X92Y-10272D01*
X92Y-10273D01*
Y-10273D01*
X89Y-10281D01*
X85Y-10290D01*
X81Y-10298D01*
X78Y-10309D01*
X72Y-10330D01*
X65Y-10351D01*
X62Y-10361D01*
X59Y-10371D01*
X57Y-10380D01*
X55Y-10387D01*
X53Y-10393D01*
X52Y-10398D01*
X51Y-10401D01*
Y-10402D01*
X48Y-10414D01*
X45Y-10425D01*
X42Y-10435D01*
X39Y-10444D01*
X37Y-10452D01*
X35Y-10459D01*
X32Y-10465D01*
X30Y-10470D01*
X29Y-10475D01*
X27Y-10479D01*
X25Y-10484D01*
X24Y-10487D01*
X23Y-10487D01*
X16Y-10496D01*
X9Y-10502D01*
X1Y-10507D01*
X-6Y-10510D01*
X-12Y-10511D01*
X-18Y-10513D01*
X-21D01*
X-22D01*
X-34Y-10511D01*
X-44Y-10508D01*
X-54Y-10504D01*
X-62Y-10498D01*
X-69Y-10493D01*
X-73Y-10489D01*
X-77Y-10486D01*
X-77Y-10484D01*
X-85Y-10473D01*
X-91Y-10459D01*
X-94Y-10445D01*
X-97Y-10431D01*
X-99Y-10418D01*
X-100Y-10413D01*
Y-10408D01*
X-100Y-10404D01*
Y-10398D01*
X-99Y-10378D01*
X-96Y-10360D01*
X-92Y-10345D01*
X-87Y-10332D01*
X-83Y-10322D01*
X-78Y-10315D01*
X-75Y-10310D01*
X-75Y-10310D01*
Y-10309D01*
X-63Y-10298D01*
X-52Y-10290D01*
X-38Y-10283D01*
X-26Y-10278D01*
X-15Y-10274D01*
X-10Y-10273D01*
X-6Y-10272D01*
X-2Y-10271D01*
X0D01*
X1Y-10270D01*
X2D01*
X-11Y-10188D01*
D02*
G37*
G36*
Y-10664D02*
X-25Y-10667D01*
X-39Y-10670D01*
X-52Y-10675D01*
X-63Y-10679D01*
X-74Y-10684D01*
X-83Y-10690D01*
X-92Y-10695D01*
X-100Y-10701D01*
X-107Y-10706D01*
X-113Y-10711D01*
X-118Y-10715D01*
X-123Y-10719D01*
X-125Y-10723D01*
X-128Y-10725D01*
X-129Y-10727D01*
X-130Y-10727D01*
X-137Y-10738D01*
X-142Y-10748D01*
X-148Y-10760D01*
X-153Y-10772D01*
X-159Y-10797D01*
X-164Y-10820D01*
X-166Y-10831D01*
X-167Y-10842D01*
X-168Y-10851D01*
X-168Y-10859D01*
X-169Y-10865D01*
Y-10875D01*
X-168Y-10896D01*
X-166Y-10915D01*
X-162Y-10933D01*
X-159Y-10949D01*
X-157Y-10955D01*
X-156Y-10961D01*
X-154Y-10966D01*
X-152Y-10971D01*
X-151Y-10975D01*
X-150Y-10977D01*
X-149Y-10978D01*
Y-10979D01*
X-141Y-10995D01*
X-132Y-11009D01*
X-123Y-11021D01*
X-113Y-11031D01*
X-105Y-11039D01*
X-98Y-11045D01*
X-94Y-11048D01*
X-93Y-11049D01*
X-92D01*
X-78Y-11057D01*
X-64Y-11064D01*
X-51Y-11068D01*
X-39Y-11071D01*
X-29Y-11073D01*
X-21Y-11074D01*
X-13D01*
X2Y-11073D01*
X16Y-11071D01*
X28Y-11067D01*
X38Y-11064D01*
X47Y-11060D01*
X53Y-11056D01*
X57Y-11054D01*
X58Y-11053D01*
X69Y-11045D01*
X77Y-11036D01*
X85Y-11027D01*
X91Y-11018D01*
X96Y-11011D01*
X99Y-11004D01*
X101Y-11000D01*
X102Y-10999D01*
Y-10998D01*
X105Y-10991D01*
X108Y-10983D01*
X111Y-10974D01*
X114Y-10964D01*
X121Y-10944D01*
X127Y-10924D01*
X130Y-10914D01*
X133Y-10904D01*
X135Y-10896D01*
X137Y-10890D01*
X139Y-10883D01*
X140Y-10879D01*
X141Y-10876D01*
Y-10875D01*
X144Y-10864D01*
X147Y-10854D01*
X149Y-10845D01*
X151Y-10837D01*
X154Y-10831D01*
X155Y-10825D01*
X156Y-10820D01*
X158Y-10815D01*
X160Y-10808D01*
X162Y-10804D01*
X162Y-10802D01*
Y-10801D01*
X166Y-10794D01*
X170Y-10787D01*
X173Y-10781D01*
X177Y-10777D01*
X180Y-10773D01*
X182Y-10771D01*
X184Y-10769D01*
X184Y-10769D01*
X190Y-10766D01*
X195Y-10763D01*
X204Y-10760D01*
X208Y-10760D01*
X211Y-10759D01*
X213D01*
X214D01*
X224Y-10760D01*
X232Y-10763D01*
X240Y-10766D01*
X246Y-10772D01*
X252Y-10776D01*
X255Y-10780D01*
X258Y-10783D01*
X259Y-10783D01*
X263Y-10789D01*
X266Y-10794D01*
X270Y-10806D01*
X274Y-10820D01*
X276Y-10834D01*
X277Y-10846D01*
Y-10851D01*
X278Y-10856D01*
Y-10865D01*
X277Y-10883D01*
X275Y-10898D01*
X272Y-10911D01*
X267Y-10922D01*
X263Y-10930D01*
X260Y-10936D01*
X257Y-10940D01*
X256Y-10941D01*
X247Y-10950D01*
X238Y-10958D01*
X228Y-10963D01*
X218Y-10968D01*
X210Y-10971D01*
X203Y-10972D01*
X199Y-10974D01*
X198D01*
X197D01*
X208Y-11056D01*
X225Y-11052D01*
X240Y-11048D01*
X253Y-11043D01*
X264Y-11038D01*
X272Y-11034D01*
X279Y-11030D01*
X283Y-11027D01*
X284Y-11026D01*
X294Y-11017D01*
X303Y-11007D01*
X311Y-10997D01*
X318Y-10986D01*
X323Y-10976D01*
X327Y-10969D01*
X328Y-10966D01*
X329Y-10963D01*
X330Y-10962D01*
Y-10961D01*
X336Y-10944D01*
X339Y-10927D01*
X342Y-10910D01*
X345Y-10894D01*
X346Y-10880D01*
Y-10874D01*
X347Y-10869D01*
Y-11039D01*
Y-10859D01*
X346Y-10845D01*
X345Y-10832D01*
X344Y-10820D01*
X342Y-10809D01*
X339Y-10800D01*
X338Y-10793D01*
X337Y-10789D01*
X337Y-10788D01*
Y-10787D01*
X333Y-10775D01*
X328Y-10764D01*
X324Y-10755D01*
X320Y-10748D01*
X317Y-10742D01*
X314Y-10738D01*
X313Y-10735D01*
X312Y-10734D01*
X305Y-10724D01*
X297Y-10716D01*
X289Y-10709D01*
X282Y-10704D01*
X275Y-10698D01*
X270Y-10696D01*
X267Y-10693D01*
X266Y-10693D01*
X255Y-10687D01*
X244Y-10684D01*
X234Y-10682D01*
X224Y-10680D01*
X216Y-10679D01*
X210Y-10678D01*
X206D01*
X205D01*
X204D01*
X191Y-10679D01*
X179Y-10681D01*
X168Y-10684D01*
X158Y-10687D01*
X150Y-10690D01*
X143Y-10693D01*
X139Y-10695D01*
X138Y-10696D01*
X128Y-10703D01*
X118Y-10712D01*
X111Y-10721D01*
X104Y-10729D01*
X98Y-10738D01*
X94Y-10743D01*
X92Y-10748D01*
X92Y-10749D01*
Y-10749D01*
X89Y-10757D01*
X85Y-10766D01*
X81Y-10775D01*
X78Y-10785D01*
X72Y-10806D01*
X65Y-10827D01*
X62Y-10837D01*
X59Y-10847D01*
X57Y-10856D01*
X55Y-10863D01*
X53Y-10869D01*
X52Y-10874D01*
X51Y-10877D01*
Y-10878D01*
X48Y-10890D01*
X45Y-10901D01*
X42Y-10911D01*
X39Y-10920D01*
X37Y-10928D01*
X35Y-10935D01*
X32Y-10941D01*
X30Y-10946D01*
X29Y-10951D01*
X27Y-10955D01*
X25Y-10960D01*
X24Y-10963D01*
X23Y-10963D01*
X16Y-10972D01*
X9Y-10978D01*
X1Y-10983D01*
X-6Y-10986D01*
X-12Y-10987D01*
X-18Y-10989D01*
X-21D01*
X-22D01*
X-34Y-10987D01*
X-44Y-10984D01*
X-54Y-10980D01*
X-62Y-10975D01*
X-69Y-10969D01*
X-73Y-10965D01*
X-77Y-10962D01*
X-77Y-10960D01*
X-85Y-10949D01*
X-91Y-10935D01*
X-94Y-10921D01*
X-97Y-10907D01*
X-99Y-10894D01*
X-100Y-10889D01*
Y-10884D01*
X-100Y-10880D01*
Y-10874D01*
X-99Y-10854D01*
X-96Y-10836D01*
X-92Y-10821D01*
X-87Y-10808D01*
X-83Y-10798D01*
X-78Y-10791D01*
X-75Y-10786D01*
X-75Y-10786D01*
Y-10785D01*
X-63Y-10774D01*
X-52Y-10766D01*
X-38Y-10759D01*
X-26Y-10754D01*
X-15Y-10750D01*
X-10Y-10749D01*
X-6Y-10748D01*
X-2Y-10747D01*
X0D01*
X1Y-10746D01*
X2D01*
X-11Y-10664D01*
D02*
G37*
G36*
X523Y-11174D02*
X-158D01*
Y-11257D01*
X336D01*
Y-11174D01*
X428D01*
Y-11257D01*
X523D01*
Y-11174D01*
D02*
G37*
G36*
X347Y-11356D02*
Y-11593D01*
X346Y-11570D01*
X344Y-11549D01*
X341Y-11529D01*
X339Y-11521D01*
X338Y-11513D01*
X337Y-11506D01*
X335Y-11499D01*
X334Y-11494D01*
X332Y-11490D01*
X331Y-11486D01*
X330Y-11483D01*
X329Y-11481D01*
Y-11481D01*
X322Y-11464D01*
X314Y-11449D01*
X306Y-11436D01*
X297Y-11426D01*
X290Y-11418D01*
X284Y-11412D01*
X280Y-11408D01*
X280Y-11407D01*
X279D01*
X266Y-11398D01*
X252Y-11391D01*
X238Y-11385D01*
X225Y-11380D01*
X213Y-11376D01*
X208Y-11374D01*
X204Y-11373D01*
X200Y-11372D01*
X197Y-11372D01*
X196Y-11371D01*
X195D01*
X184Y-11453D01*
X193Y-11456D01*
X202Y-11459D01*
X217Y-11465D01*
X230Y-11472D01*
X240Y-11479D01*
X247Y-11484D01*
X253Y-11490D01*
X256Y-11493D01*
X257Y-11494D01*
X263Y-11506D01*
X269Y-11520D01*
X272Y-11534D01*
X275Y-11548D01*
X277Y-11561D01*
Y-11566D01*
X277Y-11572D01*
Y-11581D01*
X276Y-11603D01*
X273Y-11622D01*
X269Y-11639D01*
X263Y-11652D01*
X258Y-11662D01*
X255Y-11666D01*
X253Y-11670D01*
X252Y-11673D01*
X250Y-11674D01*
X249Y-11676D01*
X240Y-11684D01*
X229Y-11690D01*
X217Y-11694D01*
X205Y-11697D01*
X194Y-11698D01*
X185Y-11700D01*
X182D01*
X179D01*
X178D01*
X177D01*
X175D01*
X172D01*
X165D01*
X162Y-11699D01*
X159D01*
X156D01*
X156D01*
X153Y-11690D01*
X150Y-11679D01*
X147Y-11667D01*
X144Y-11656D01*
X139Y-11631D01*
X134Y-11607D01*
X133Y-11595D01*
X131Y-11585D01*
X130Y-11575D01*
X128Y-11566D01*
X128Y-11560D01*
X127Y-11555D01*
X126Y-11552D01*
Y-11550D01*
X124Y-11532D01*
X122Y-11518D01*
X120Y-11504D01*
X118Y-11494D01*
X116Y-11486D01*
X115Y-11480D01*
X114Y-11477D01*
Y-11476D01*
X110Y-11464D01*
X106Y-11452D01*
X101Y-11442D01*
X97Y-11433D01*
X93Y-11425D01*
X89Y-11420D01*
X87Y-11417D01*
X86Y-11415D01*
X79Y-11405D01*
X72Y-11397D01*
X63Y-11390D01*
X56Y-11384D01*
X49Y-11379D01*
X44Y-11375D01*
X40Y-11373D01*
X38Y-11372D01*
X27Y-11367D01*
X16Y-11363D01*
X4Y-11360D01*
X-6Y-11358D01*
X-15Y-11357D01*
X-22Y-11356D01*
X347D01*
X-169D01*
X-28D01*
X-39Y-11357D01*
X-50Y-11358D01*
X-61Y-11360D01*
X-70Y-11363D01*
X-88Y-11370D01*
X-102Y-11378D01*
X-108Y-11382D01*
X-114Y-11386D01*
X-119Y-11389D01*
X-123Y-11393D01*
X-125Y-11396D01*
X-128Y-11397D01*
X-129Y-11399D01*
X-130Y-11400D01*
X-137Y-11408D01*
X-142Y-11417D01*
X-148Y-11428D01*
X-153Y-11437D01*
X-159Y-11458D01*
X-164Y-11479D01*
X-166Y-11487D01*
X-167Y-11496D01*
X-168Y-11504D01*
X-168Y-11511D01*
X-169Y-11516D01*
Y-11524D01*
X-168Y-11543D01*
X-167Y-11560D01*
X-164Y-11575D01*
X-161Y-11589D01*
X-158Y-11600D01*
X-156Y-11605D01*
X-155Y-11609D01*
X-154Y-11612D01*
X-154Y-11614D01*
X-153Y-11616D01*
Y-11617D01*
X-145Y-11633D01*
X-137Y-11649D01*
X-128Y-11664D01*
X-118Y-11678D01*
X-110Y-11690D01*
X-106Y-11694D01*
X-103Y-11698D01*
X-100Y-11702D01*
X-97Y-11704D01*
X-97Y-11706D01*
X-96Y-11707D01*
X-109Y-11708D01*
X-121Y-11710D01*
X-131Y-11713D01*
X-140Y-11716D01*
X-148Y-11718D01*
X-154Y-11721D01*
X-156Y-11722D01*
X-158Y-11723D01*
Y-11810D01*
X-148Y-11805D01*
X-137Y-11800D01*
X-127Y-11797D01*
X-118Y-11794D01*
X-110Y-11791D01*
X-104Y-11790D01*
X-100Y-11789D01*
X-99D01*
X-92Y-11789D01*
X-83Y-11788D01*
X-74Y-11787D01*
X-63Y-11786D01*
X-51Y-11786D01*
X-38D01*
X-13Y-11785D01*
X-1D01*
X10Y-11784D01*
X21D01*
X30D01*
X38D01*
X44D01*
X47D01*
X49D01*
X160D01*
X170D01*
X179D01*
X187Y-11783D01*
X196D01*
X209Y-11783D01*
X219Y-11782D01*
X227Y-11781D01*
X232Y-11780D01*
X236Y-11780D01*
X237D01*
X249Y-11777D01*
X261Y-11772D01*
X270Y-11768D01*
X278Y-11763D01*
X285Y-11760D01*
X290Y-11756D01*
X293Y-11754D01*
X294Y-11753D01*
X302Y-11745D01*
X309Y-11736D01*
X316Y-11727D01*
X321Y-11717D01*
X325Y-11708D01*
X328Y-11701D01*
X330Y-11698D01*
X331Y-11696D01*
X331Y-11696D01*
Y-11695D01*
X337Y-11679D01*
X340Y-11662D01*
X343Y-11645D01*
X345Y-11629D01*
X346Y-11615D01*
Y-11608D01*
X347Y-11603D01*
Y-11782D01*
Y-11356D01*
D02*
G37*
%LPD*%
G36*
X106Y-3984D02*
X122Y-3985D01*
X137Y-3987D01*
X151Y-3990D01*
X163Y-3993D01*
X175Y-3997D01*
X185Y-4000D01*
X195Y-4004D01*
X203Y-4008D01*
X210Y-4011D01*
X216Y-4015D01*
X221Y-4018D01*
X225Y-4021D01*
X228Y-4023D01*
X230Y-4024D01*
X230Y-4025D01*
X238Y-4033D01*
X246Y-4041D01*
X252Y-4050D01*
X258Y-4059D01*
X262Y-4068D01*
X266Y-4076D01*
X272Y-4093D01*
X275Y-4107D01*
X276Y-4113D01*
X277Y-4118D01*
X277Y-4123D01*
Y-4129D01*
X277Y-4140D01*
X275Y-4151D01*
X273Y-4161D01*
X270Y-4171D01*
X263Y-4189D01*
X254Y-4204D01*
X249Y-4210D01*
X245Y-4216D01*
X241Y-4220D01*
X238Y-4225D01*
X235Y-4228D01*
X232Y-4230D01*
X231Y-4231D01*
X230Y-4232D01*
X221Y-4240D01*
X211Y-4246D01*
X200Y-4251D01*
X189Y-4256D01*
X177Y-4261D01*
X165Y-4264D01*
X143Y-4269D01*
X133Y-4270D01*
X123Y-4272D01*
X114Y-4273D01*
X106Y-4273D01*
X100Y-4274D01*
X95D01*
X92D01*
X92D01*
X74Y-4273D01*
X58Y-4273D01*
X42Y-4270D01*
X28Y-4268D01*
X15Y-4265D01*
X3Y-4261D01*
X-8Y-4257D01*
X-17Y-4254D01*
X-26Y-4249D01*
X-33Y-4245D01*
X-39Y-4242D01*
X-44Y-4239D01*
X-48Y-4236D01*
X-51Y-4234D01*
X-52Y-4233D01*
X-53Y-4232D01*
X-61Y-4224D01*
X-69Y-4216D01*
X-75Y-4207D01*
X-80Y-4199D01*
X-85Y-4190D01*
X-89Y-4181D01*
X-94Y-4165D01*
X-98Y-4151D01*
X-99Y-4144D01*
X-100Y-4139D01*
X-100Y-4135D01*
Y-4129D01*
X-100Y-4117D01*
X-98Y-4107D01*
X-96Y-4096D01*
X-93Y-4086D01*
X-86Y-4068D01*
X-77Y-4054D01*
X-73Y-4047D01*
X-69Y-4041D01*
X-65Y-4037D01*
X-61Y-4032D01*
X-58Y-4029D01*
X-56Y-4027D01*
X-55Y-4025D01*
X-54Y-4025D01*
X-44Y-4017D01*
X-34Y-4011D01*
X-23Y-4006D01*
X-12Y-4001D01*
X12Y-3994D01*
X35Y-3989D01*
X46Y-3987D01*
X56Y-3986D01*
X65Y-3985D01*
X73Y-3984D01*
X80Y-3983D01*
X84D01*
X88D01*
X89D01*
X106Y-3984D01*
D02*
G37*
G36*
Y-4513D02*
X123Y-4514D01*
X137Y-4516D01*
X152Y-4518D01*
X165Y-4521D01*
X176Y-4524D01*
X187Y-4527D01*
X196Y-4531D01*
X205Y-4535D01*
X212Y-4538D01*
X218Y-4541D01*
X223Y-4544D01*
X227Y-4546D01*
X230Y-4548D01*
X231Y-4549D01*
X232Y-4549D01*
X240Y-4557D01*
X246Y-4564D01*
X253Y-4572D01*
X258Y-4580D01*
X263Y-4588D01*
X266Y-4596D01*
X272Y-4611D01*
X275Y-4623D01*
X276Y-4629D01*
X277Y-4634D01*
X277Y-4638D01*
Y-4643D01*
X277Y-4654D01*
X275Y-4664D01*
X273Y-4673D01*
X270Y-4682D01*
X262Y-4699D01*
X254Y-4713D01*
X245Y-4724D01*
X241Y-4729D01*
X237Y-4733D01*
X234Y-4736D01*
X232Y-4738D01*
X230Y-4739D01*
X230Y-4740D01*
X220Y-4747D01*
X210Y-4753D01*
X199Y-4758D01*
X187Y-4763D01*
X162Y-4770D01*
X138Y-4775D01*
X126Y-4777D01*
X116Y-4778D01*
X106Y-4778D01*
X97Y-4779D01*
X91Y-4780D01*
X86D01*
X83D01*
X81D01*
X64Y-4779D01*
X49Y-4778D01*
X34Y-4776D01*
X21Y-4774D01*
X9Y-4771D01*
X-3Y-4767D01*
X-13Y-4763D01*
X-22Y-4761D01*
X-30Y-4757D01*
X-37Y-4753D01*
X-43Y-4749D01*
X-47Y-4747D01*
X-52Y-4744D01*
X-54Y-4742D01*
X-55Y-4741D01*
X-56Y-4741D01*
X-64Y-4733D01*
X-71Y-4726D01*
X-77Y-4718D01*
X-82Y-4710D01*
X-86Y-4702D01*
X-89Y-4694D01*
X-94Y-4679D01*
X-98Y-4667D01*
X-99Y-4661D01*
X-100Y-4656D01*
X-100Y-4652D01*
Y-4647D01*
X-100Y-4637D01*
X-98Y-4627D01*
X-96Y-4618D01*
X-93Y-4609D01*
X-86Y-4593D01*
X-77Y-4579D01*
X-69Y-4568D01*
X-65Y-4563D01*
X-61Y-4560D01*
X-58Y-4557D01*
X-56Y-4554D01*
X-55Y-4553D01*
X-54Y-4552D01*
X-44Y-4546D01*
X-34Y-4539D01*
X-23Y-4534D01*
X-12Y-4530D01*
X12Y-4522D01*
X35Y-4518D01*
X46Y-4516D01*
X55Y-4515D01*
X64Y-4514D01*
X72Y-4513D01*
X79Y-4513D01*
X83D01*
X87D01*
X88D01*
X106Y-4513D01*
D02*
G37*
G36*
X-18Y-5049D02*
X-10Y-5050D01*
X-4Y-5052D01*
X2Y-5054D01*
X7Y-5056D01*
X11Y-5058D01*
X13Y-5059D01*
X14Y-5059D01*
X21Y-5065D01*
X26Y-5070D01*
X30Y-5075D01*
X35Y-5081D01*
X38Y-5085D01*
X40Y-5089D01*
X41Y-5092D01*
X41Y-5093D01*
X45Y-5102D01*
X48Y-5113D01*
X51Y-5125D01*
X53Y-5137D01*
X55Y-5148D01*
X57Y-5158D01*
X58Y-5161D01*
X58Y-5163D01*
Y-5166D01*
X61Y-5183D01*
X63Y-5198D01*
X66Y-5212D01*
X69Y-5225D01*
X72Y-5238D01*
X74Y-5249D01*
X77Y-5259D01*
X79Y-5269D01*
X81Y-5276D01*
X83Y-5284D01*
X85Y-5290D01*
X87Y-5294D01*
X89Y-5298D01*
X89Y-5301D01*
X90Y-5302D01*
Y-5303D01*
X59Y-5302D01*
X40Y-5301D01*
X23Y-5300D01*
X8Y-5298D01*
X-4Y-5296D01*
X-13Y-5293D01*
X-19Y-5291D01*
X-23Y-5290D01*
X-24Y-5289D01*
X-38Y-5282D01*
X-49Y-5273D01*
X-59Y-5264D01*
X-67Y-5255D01*
X-74Y-5246D01*
X-79Y-5239D01*
X-82Y-5235D01*
X-83Y-5234D01*
Y-5234D01*
X-89Y-5219D01*
X-94Y-5204D01*
X-98Y-5190D01*
X-100Y-5176D01*
X-102Y-5165D01*
X-103Y-5160D01*
X-103Y-5155D01*
Y-5147D01*
X-103Y-5130D01*
X-100Y-5116D01*
X-96Y-5102D01*
X-92Y-5092D01*
X-88Y-5084D01*
X-85Y-5078D01*
X-82Y-5075D01*
X-81Y-5073D01*
X-72Y-5065D01*
X-63Y-5059D01*
X-54Y-5054D01*
X-45Y-5051D01*
X-38Y-5050D01*
X-31Y-5049D01*
X-27Y-5048D01*
X-26D01*
X-18Y-5049D01*
D02*
G37*
G36*
X946Y-5333D02*
X962Y-5334D01*
X977Y-5336D01*
X991Y-5339D01*
X1003Y-5342D01*
X1015Y-5346D01*
X1026Y-5349D01*
X1035Y-5353D01*
X1043Y-5357D01*
X1051Y-5361D01*
X1057Y-5364D01*
X1062Y-5367D01*
X1065Y-5370D01*
X1068Y-5372D01*
X1070Y-5373D01*
X1071Y-5374D01*
X1079Y-5382D01*
X1086Y-5390D01*
X1093Y-5399D01*
X1098Y-5408D01*
X1102Y-5417D01*
X1106Y-5425D01*
X1112Y-5442D01*
X1116Y-5456D01*
X1116Y-5462D01*
X1117Y-5468D01*
X1118Y-5472D01*
Y-5478D01*
X1117Y-5489D01*
X1116Y-5500D01*
X1113Y-5510D01*
X1110Y-5520D01*
X1103Y-5538D01*
X1094Y-5553D01*
X1090Y-5559D01*
X1085Y-5565D01*
X1082Y-5569D01*
X1078Y-5574D01*
X1075Y-5577D01*
X1073Y-5579D01*
X1071Y-5580D01*
X1071Y-5581D01*
X1061Y-5589D01*
X1051Y-5595D01*
X1040Y-5600D01*
X1029Y-5606D01*
X1017Y-5610D01*
X1006Y-5613D01*
X983Y-5618D01*
X973Y-5620D01*
X964Y-5621D01*
X955Y-5622D01*
X947Y-5623D01*
X941Y-5623D01*
X935D01*
X933D01*
X932D01*
X914Y-5623D01*
X898Y-5622D01*
X882Y-5620D01*
X868Y-5617D01*
X855Y-5614D01*
X843Y-5610D01*
X832Y-5606D01*
X823Y-5603D01*
X814Y-5598D01*
X807Y-5594D01*
X801Y-5591D01*
X796Y-5588D01*
X792Y-5585D01*
X789Y-5583D01*
X788Y-5582D01*
X787Y-5581D01*
X779Y-5573D01*
X772Y-5565D01*
X765Y-5556D01*
X760Y-5548D01*
X755Y-5539D01*
X752Y-5530D01*
X746Y-5514D01*
X742Y-5500D01*
X741Y-5493D01*
X741Y-5488D01*
X740Y-5484D01*
Y-5478D01*
X741Y-5466D01*
X742Y-5456D01*
X744Y-5445D01*
X747Y-5435D01*
X755Y-5417D01*
X764Y-5403D01*
X767Y-5396D01*
X772Y-5390D01*
X775Y-5386D01*
X779Y-5381D01*
X782Y-5378D01*
X784Y-5376D01*
X786Y-5375D01*
X786Y-5374D01*
X796Y-5366D01*
X806Y-5361D01*
X817Y-5355D01*
X828Y-5350D01*
X852Y-5343D01*
X876Y-5338D01*
X886Y-5336D01*
X896Y-5335D01*
X905Y-5334D01*
X913Y-5333D01*
X920Y-5332D01*
X924D01*
X928D01*
X929D01*
X946Y-5333D01*
D02*
G37*
G36*
X1187Y-6208D02*
X1006D01*
X1015Y-6207D01*
X1023D01*
X1031Y-6206D01*
X1037D01*
X1048Y-6206D01*
X1057Y-6204D01*
X1062Y-6203D01*
X1066Y-6203D01*
X1067D01*
X1080Y-6200D01*
X1092Y-6195D01*
X1102Y-6192D01*
X1111Y-6187D01*
X1119Y-6183D01*
X1124Y-6180D01*
X1127Y-6177D01*
X1129Y-6177D01*
X1138Y-6169D01*
X1147Y-6161D01*
X1153Y-6151D01*
X1160Y-6142D01*
X1164Y-6133D01*
X1168Y-6127D01*
X1170Y-6122D01*
X1171Y-6121D01*
Y-6121D01*
X1176Y-6107D01*
X1181Y-6093D01*
X1183Y-6079D01*
X1185Y-6066D01*
X1186Y-6055D01*
Y-6051D01*
X1187Y-6046D01*
Y-6208D01*
D02*
G37*
G36*
X1375Y-6981D02*
X1375Y-6963D01*
X1374Y-6944D01*
X1372Y-6927D01*
X1369Y-6910D01*
X1366Y-6894D01*
X1362Y-6879D01*
X1358Y-6865D01*
X1355Y-6853D01*
X1350Y-6842D01*
X1347Y-6831D01*
X1343Y-6823D01*
X1340Y-6815D01*
X1337Y-6809D01*
X1335Y-6805D01*
X1334Y-6802D01*
X1333Y-6801D01*
X1325Y-6787D01*
X1316Y-6774D01*
X1306Y-6761D01*
X1296Y-6750D01*
X1285Y-6739D01*
X1274Y-6730D01*
X1264Y-6721D01*
X1254Y-6713D01*
X1243Y-6706D01*
X1234Y-6699D01*
X1226Y-6694D01*
X1219Y-6690D01*
X1213Y-6687D01*
X1209Y-6684D01*
X1206Y-6683D01*
X1205Y-6682D01*
X1189Y-6675D01*
X1172Y-6669D01*
X1156Y-6663D01*
X1140Y-6659D01*
X1109Y-6651D01*
X1094Y-6648D01*
X1080Y-6646D01*
X1068Y-6645D01*
X1056Y-6643D01*
X1045Y-6642D01*
X1037Y-6642D01*
X1029Y-6641D01*
X1375D01*
Y-6981D01*
D02*
G37*
G36*
X1364Y-7825D02*
X763D01*
Y-7490D01*
X1364D01*
Y-7825D01*
D02*
G37*
G36*
X-18Y-8009D02*
X-10Y-8010D01*
X-4Y-8012D01*
X2Y-8014D01*
X7Y-8016D01*
X11Y-8018D01*
X13Y-8019D01*
X14Y-8020D01*
X21Y-8025D01*
X26Y-8030D01*
X30Y-8035D01*
X35Y-8041D01*
X38Y-8045D01*
X40Y-8049D01*
X41Y-8052D01*
X41Y-8053D01*
X45Y-8062D01*
X48Y-8073D01*
X51Y-8085D01*
X53Y-8097D01*
X55Y-8108D01*
X57Y-8118D01*
X58Y-8121D01*
X58Y-8124D01*
Y-8126D01*
X61Y-8143D01*
X63Y-8158D01*
X66Y-8172D01*
X69Y-8186D01*
X72Y-8198D01*
X74Y-8209D01*
X77Y-8220D01*
X79Y-8229D01*
X81Y-8237D01*
X83Y-8244D01*
X85Y-8250D01*
X87Y-8254D01*
X89Y-8258D01*
X89Y-8261D01*
X90Y-8262D01*
Y-8263D01*
X59Y-8262D01*
X40Y-8262D01*
X23Y-8260D01*
X8Y-8258D01*
X-4Y-8256D01*
X-13Y-8253D01*
X-19Y-8251D01*
X-23Y-8250D01*
X-24Y-8249D01*
X-38Y-8242D01*
X-49Y-8233D01*
X-59Y-8224D01*
X-67Y-8215D01*
X-74Y-8206D01*
X-79Y-8200D01*
X-82Y-8195D01*
X-83Y-8194D01*
Y-8194D01*
X-89Y-8179D01*
X-94Y-8164D01*
X-98Y-8150D01*
X-100Y-8136D01*
X-102Y-8125D01*
X-103Y-8120D01*
X-103Y-8115D01*
Y-8107D01*
X-103Y-8090D01*
X-100Y-8076D01*
X-96Y-8062D01*
X-92Y-8052D01*
X-88Y-8044D01*
X-85Y-8038D01*
X-82Y-8035D01*
X-81Y-8034D01*
X-72Y-8025D01*
X-63Y-8019D01*
X-54Y-8014D01*
X-45Y-8011D01*
X-38Y-8010D01*
X-31Y-8009D01*
X-27Y-8008D01*
X-26D01*
X-18Y-8009D01*
D02*
G37*
G36*
X1364Y-8646D02*
X828D01*
X1364Y-8288D01*
Y-8646D01*
D02*
G37*
G36*
X1176Y-9453D02*
X874Y-9344D01*
X854Y-9336D01*
X837Y-9330D01*
X820Y-9325D01*
X807Y-9321D01*
X796Y-9317D01*
X792Y-9315D01*
X787Y-9315D01*
X784Y-9314D01*
X782Y-9313D01*
X781Y-9313D01*
X781D01*
X800Y-9307D01*
X818Y-9301D01*
X835Y-9296D01*
X850Y-9291D01*
X862Y-9287D01*
X868Y-9285D01*
X872Y-9284D01*
X876Y-9282D01*
X878Y-9282D01*
X879Y-9281D01*
X880D01*
X1176Y-9175D01*
Y-9453D01*
D02*
G37*
G36*
X448Y-9336D02*
X446Y-9349D01*
X445Y-9360D01*
X443Y-9372D01*
X441Y-9381D01*
X438Y-9390D01*
X435Y-9398D01*
X432Y-9406D01*
X430Y-9412D01*
X427Y-9417D01*
X424Y-9422D01*
X421Y-9426D01*
X419Y-9429D01*
X418Y-9431D01*
X417Y-9432D01*
X416Y-9433D01*
X410Y-9439D01*
X404Y-9445D01*
X391Y-9453D01*
X378Y-9459D01*
X365Y-9464D01*
X354Y-9467D01*
X349Y-9467D01*
X345D01*
X342Y-9468D01*
X339D01*
X338D01*
X337D01*
X325Y-9467D01*
X314Y-9465D01*
X303Y-9462D01*
X294Y-9459D01*
X286Y-9456D01*
X281Y-9453D01*
X277Y-9451D01*
X276Y-9450D01*
X266Y-9442D01*
X258Y-9434D01*
X251Y-9425D01*
X245Y-9417D01*
X241Y-9408D01*
X238Y-9403D01*
X236Y-9398D01*
X235Y-9397D01*
Y-9397D01*
X231Y-9383D01*
X228Y-9367D01*
X226Y-9351D01*
X224Y-9335D01*
X224Y-9321D01*
Y-9315D01*
X223Y-9310D01*
Y-9107D01*
X448D01*
Y-9336D01*
D02*
G37*
G36*
X145Y-9222D02*
X144Y-9233D01*
X143Y-9242D01*
Y-9249D01*
X142Y-9254D01*
X142Y-9258D01*
X141Y-9260D01*
Y-9261D01*
X139Y-9269D01*
X136Y-9276D01*
X133Y-9283D01*
X130Y-9290D01*
X127Y-9295D01*
X125Y-9298D01*
X123Y-9301D01*
X123Y-9302D01*
X117Y-9310D01*
X110Y-9318D01*
X103Y-9326D01*
X95Y-9332D01*
X89Y-9339D01*
X83Y-9344D01*
X79Y-9346D01*
X78Y-9348D01*
X77D01*
X64Y-9358D01*
X49Y-9369D01*
X34Y-9380D01*
X18Y-9390D01*
X5Y-9399D01*
X-1Y-9403D01*
X-6Y-9406D01*
X-10Y-9409D01*
X-13Y-9411D01*
X-16Y-9412D01*
X-16Y-9413D01*
X-158Y-9503D01*
Y-9107D01*
X145D01*
Y-9222D01*
D02*
G37*
G36*
X779Y-9970D02*
X786Y-9976D01*
X793Y-9982D01*
X799Y-9987D01*
X803Y-9991D01*
X806Y-9994D01*
X807Y-9994D01*
X812Y-9999D01*
X817Y-10005D01*
X823Y-10011D01*
X830Y-10019D01*
X845Y-10034D01*
X859Y-10051D01*
X872Y-10066D01*
X878Y-10073D01*
X883Y-10079D01*
X888Y-10084D01*
X890Y-10088D01*
X893Y-10090D01*
X893Y-10091D01*
X907Y-10107D01*
X921Y-10123D01*
X933Y-10137D01*
X944Y-10149D01*
X955Y-10161D01*
X965Y-10172D01*
X974Y-10181D01*
X982Y-10190D01*
X989Y-10197D01*
X995Y-10203D01*
X1000Y-10208D01*
X1005Y-10213D01*
X1009Y-10216D01*
X1011Y-10219D01*
X1012Y-10220D01*
X1013Y-10220D01*
X1029Y-10234D01*
X1044Y-10245D01*
X1058Y-10255D01*
X1071Y-10263D01*
X1081Y-10269D01*
X1089Y-10273D01*
X1092Y-10275D01*
X1094Y-10276D01*
X1095Y-10276D01*
X1096D01*
X1110Y-10282D01*
X1125Y-10286D01*
X1138Y-10289D01*
X1151Y-10291D01*
X1161Y-10293D01*
X1169Y-10293D01*
X1172D01*
X1175D01*
X1175D01*
X1176D01*
X1191Y-10293D01*
X1205Y-10291D01*
X1218Y-10288D01*
X1231Y-10284D01*
X1243Y-10280D01*
X1254Y-10275D01*
X1265Y-10270D01*
X1274Y-10265D01*
X1282Y-10259D01*
X1290Y-10254D01*
X1296Y-10249D01*
X1302Y-10245D01*
X1305Y-10241D01*
X1309Y-10238D01*
X1310Y-10237D01*
X1311Y-10236D01*
X1321Y-10225D01*
X1329Y-10213D01*
X1336Y-10200D01*
X1343Y-10187D01*
X1348Y-10175D01*
X1352Y-10161D01*
X1356Y-10149D01*
X1359Y-10136D01*
X1361Y-10125D01*
X1363Y-10114D01*
X1364Y-10104D01*
X1365Y-10096D01*
X1366Y-10090D01*
Y-10294D01*
X763D01*
Y-9958D01*
X779Y-9970D01*
D02*
G37*
G36*
X336Y-10006D02*
X71D01*
X49Y-10006D01*
X30Y-10004D01*
X13Y-10002D01*
X-1Y-10000D01*
X-7Y-9998D01*
X-11Y-9997D01*
X-16Y-9995D01*
X-19Y-9994D01*
X-21Y-9994D01*
X-24Y-9993D01*
X-24Y-9992D01*
X-25D01*
X-37Y-9986D01*
X-47Y-9979D01*
X-56Y-9971D01*
X-63Y-9963D01*
X-69Y-9956D01*
X-74Y-9950D01*
X-77Y-9946D01*
X-77Y-9946D01*
Y-9945D01*
X-84Y-9932D01*
X-89Y-9921D01*
X-92Y-9909D01*
X-94Y-9898D01*
X-96Y-9888D01*
X-97Y-9882D01*
Y-9875D01*
X-96Y-9862D01*
X-94Y-9849D01*
X-91Y-9838D01*
X-87Y-9829D01*
X-84Y-9822D01*
X-81Y-9816D01*
X-79Y-9813D01*
X-78Y-9811D01*
X-71Y-9803D01*
X-62Y-9795D01*
X-54Y-9789D01*
X-46Y-9785D01*
X-38Y-9781D01*
X-32Y-9779D01*
X-28Y-9778D01*
X-27Y-9777D01*
X-22Y-9777D01*
X-16Y-9776D01*
X-3Y-9775D01*
X12Y-9774D01*
X27D01*
X40Y-9773D01*
X46D01*
X52D01*
X56D01*
X59D01*
X61D01*
X62D01*
X336D01*
Y-10006D01*
D02*
G37*
G36*
X-18Y-11446D02*
X-10Y-11447D01*
X-4Y-11449D01*
X2Y-11451D01*
X7Y-11453D01*
X11Y-11455D01*
X13Y-11456D01*
X14Y-11456D01*
X21Y-11462D01*
X26Y-11467D01*
X30Y-11472D01*
X35Y-11478D01*
X38Y-11482D01*
X40Y-11486D01*
X41Y-11489D01*
X41Y-11490D01*
X45Y-11499D01*
X48Y-11510D01*
X51Y-11522D01*
X53Y-11534D01*
X55Y-11545D01*
X57Y-11555D01*
X58Y-11558D01*
X58Y-11560D01*
Y-11563D01*
X61Y-11580D01*
X63Y-11595D01*
X66Y-11609D01*
X69Y-11622D01*
X72Y-11635D01*
X74Y-11646D01*
X77Y-11656D01*
X79Y-11666D01*
X81Y-11673D01*
X83Y-11681D01*
X85Y-11687D01*
X87Y-11691D01*
X89Y-11695D01*
X89Y-11698D01*
X90Y-11699D01*
Y-11700D01*
X59Y-11699D01*
X40Y-11698D01*
X23Y-11697D01*
X8Y-11695D01*
X-4Y-11693D01*
X-13Y-11690D01*
X-19Y-11688D01*
X-23Y-11687D01*
X-24Y-11686D01*
X-38Y-11679D01*
X-49Y-11670D01*
X-59Y-11661D01*
X-67Y-11652D01*
X-74Y-11643D01*
X-79Y-11636D01*
X-82Y-11632D01*
X-83Y-11631D01*
Y-11631D01*
X-89Y-11616D01*
X-94Y-11601D01*
X-98Y-11587D01*
X-100Y-11573D01*
X-102Y-11562D01*
X-103Y-11557D01*
X-103Y-11552D01*
Y-11544D01*
X-103Y-11527D01*
X-100Y-11513D01*
X-96Y-11499D01*
X-92Y-11489D01*
X-88Y-11481D01*
X-85Y-11475D01*
X-82Y-11472D01*
X-81Y-11470D01*
X-72Y-11462D01*
X-63Y-11456D01*
X-54Y-11451D01*
X-45Y-11448D01*
X-38Y-11447D01*
X-31Y-11446D01*
X-27Y-11445D01*
X-26D01*
X-18Y-11446D01*
D02*
G37*
%LPC*%
G36*
X-505Y-2670D02*
X-1186D01*
Y-3071D01*
X-505D01*
X-861D01*
X-848Y-3070D01*
X-837Y-3069D01*
X-826Y-3068D01*
X-816Y-3066D01*
X-807Y-3065D01*
X-799Y-3064D01*
X-792Y-3062D01*
X-785Y-3061D01*
X-779Y-3059D01*
X-775Y-3058D01*
X-770Y-3056D01*
X-767Y-3055D01*
X-765Y-3054D01*
X-764Y-3053D01*
X-764D01*
X-750Y-3046D01*
X-738Y-3037D01*
X-727Y-3027D01*
X-719Y-3018D01*
X-713Y-3009D01*
X-707Y-3002D01*
X-706Y-2999D01*
X-704Y-2996D01*
X-704Y-2996D01*
Y-2995D01*
X-696Y-2979D01*
X-691Y-2963D01*
X-687Y-2948D01*
X-685Y-2933D01*
X-683Y-2920D01*
X-682Y-2914D01*
X-682Y-2909D01*
Y-2900D01*
X-682Y-2884D01*
X-685Y-2869D01*
X-688Y-2854D01*
X-692Y-2840D01*
X-698Y-2827D01*
X-703Y-2815D01*
X-710Y-2804D01*
X-716Y-2794D01*
X-722Y-2785D01*
X-729Y-2776D01*
X-734Y-2770D01*
X-739Y-2764D01*
X-744Y-2759D01*
X-747Y-2756D01*
X-750Y-2754D01*
X-750Y-2754D01*
X-505D01*
Y-2670D01*
D02*
G37*
G36*
X-521Y-3151D02*
Y-3297D01*
X-571Y-3213D01*
X-693D01*
Y-3151D01*
X-758D01*
Y-3213D01*
X-1042D01*
X-1056D01*
X-1068Y-3214D01*
X-1079D01*
X-1090Y-3215D01*
X-1099Y-3216D01*
X-1107Y-3216D01*
X-1114Y-3217D01*
X-1120Y-3218D01*
X-1125Y-3219D01*
X-1130Y-3220D01*
X-1133Y-3221D01*
X-1136Y-3221D01*
X-1140Y-3222D01*
X-1141Y-3223D01*
X-1150Y-3227D01*
X-1157Y-3233D01*
X-1164Y-3238D01*
X-1169Y-3244D01*
X-1173Y-3250D01*
X-1176Y-3255D01*
X-1178Y-3258D01*
X-1179Y-3258D01*
X-1183Y-3269D01*
X-1187Y-3280D01*
X-1189Y-3292D01*
X-1192Y-3303D01*
X-1192Y-3314D01*
X-1193Y-3322D01*
Y-3309D01*
Y-3329D01*
X-1192Y-3351D01*
X-1191Y-3362D01*
X-1189Y-3371D01*
X-1188Y-3380D01*
X-1187Y-3387D01*
X-1186Y-3391D01*
Y-3393D01*
X-1193D01*
D01*
X-521D01*
Y-3151D01*
D02*
G37*
G36*
Y-3416D02*
Y-3561D01*
X-571Y-3478D01*
X-693D01*
Y-3416D01*
X-758D01*
Y-3478D01*
X-1042D01*
X-1056D01*
X-1068Y-3478D01*
X-1079D01*
X-1090Y-3479D01*
X-1099Y-3480D01*
X-1107Y-3480D01*
X-1114Y-3481D01*
X-1120Y-3483D01*
X-1125Y-3483D01*
X-1130Y-3484D01*
X-1133Y-3485D01*
X-1136Y-3486D01*
X-1140Y-3486D01*
X-1141Y-3487D01*
X-1150Y-3492D01*
X-1157Y-3497D01*
X-1164Y-3503D01*
X-1169Y-3509D01*
X-1173Y-3514D01*
X-1176Y-3519D01*
X-1178Y-3522D01*
X-1179Y-3523D01*
X-1183Y-3533D01*
X-1187Y-3544D01*
X-1189Y-3556D01*
X-1192Y-3568D01*
X-1192Y-3578D01*
X-1193Y-3586D01*
Y-3573D01*
Y-3593D01*
X-1192Y-3616D01*
X-1191Y-3626D01*
X-1189Y-3635D01*
X-1188Y-3644D01*
X-1187Y-3651D01*
X-1186Y-3655D01*
Y-3657D01*
X-1193D01*
D01*
X-521D01*
Y-3416D01*
D02*
G37*
G36*
X-693Y-3728D02*
X-1375D01*
Y-3811D01*
X-1135D01*
X-1145Y-3819D01*
X-1154Y-3828D01*
X-1162Y-3837D01*
X-1168Y-3846D01*
X-1173Y-3853D01*
X-1178Y-3860D01*
X-1180Y-3864D01*
X-1181Y-3865D01*
X-1186Y-3878D01*
X-1190Y-3891D01*
X-1193Y-3903D01*
X-1195Y-3915D01*
X-1197Y-3925D01*
X-1197Y-3933D01*
Y-3940D01*
X-1197Y-3951D01*
X-1196Y-3962D01*
X-1192Y-3982D01*
X-1187Y-4000D01*
X-1181Y-4016D01*
X-1178Y-4024D01*
X-1176Y-4030D01*
X-1173Y-4035D01*
X-1171Y-4041D01*
X-1169Y-4044D01*
X-1167Y-4047D01*
X-1166Y-4049D01*
Y-4049D01*
X-1152Y-4068D01*
X-1138Y-4083D01*
X-1122Y-4097D01*
X-1107Y-4109D01*
X-1093Y-4117D01*
X-1088Y-4120D01*
X-1082Y-4123D01*
X-1079Y-4125D01*
X-1076Y-4127D01*
X-1073Y-4128D01*
X-1073D01*
X-1049Y-4137D01*
X-1026Y-4144D01*
X-1003Y-4149D01*
X-982Y-4152D01*
X-972Y-4154D01*
X-964Y-4154D01*
X-955Y-4155D01*
X-949D01*
X-944Y-4156D01*
X-1375D01*
D01*
X-682D01*
Y-3946D01*
X-682Y-3929D01*
X-685Y-3913D01*
X-688Y-3899D01*
X-691Y-3887D01*
X-695Y-3878D01*
X-698Y-3870D01*
X-700Y-3866D01*
X-701Y-3865D01*
Y-3864D01*
X-709Y-3852D01*
X-718Y-3841D01*
X-727Y-3830D01*
X-736Y-3821D01*
X-744Y-3814D01*
X-752Y-3808D01*
X-756Y-3805D01*
X-757Y-3804D01*
X-693D01*
Y-3728D01*
D02*
G37*
G36*
X-1040Y-4224D02*
D01*
X-1054Y-4227D01*
X-1068Y-4230D01*
X-1080Y-4235D01*
X-1091Y-4239D01*
X-1102Y-4244D01*
X-1112Y-4249D01*
X-1121Y-4255D01*
X-1129Y-4261D01*
X-1135Y-4266D01*
X-1141Y-4271D01*
X-1147Y-4275D01*
X-1151Y-4279D01*
X-1154Y-4283D01*
X-1156Y-4285D01*
X-1158Y-4286D01*
X-1158Y-4287D01*
X-1165Y-4297D01*
X-1171Y-4308D01*
X-1177Y-4320D01*
X-1181Y-4331D01*
X-1188Y-4356D01*
X-1192Y-4380D01*
X-1195Y-4391D01*
X-1195Y-4401D01*
X-1196Y-4411D01*
X-1197Y-4418D01*
X-1197Y-4425D01*
Y-4634D01*
Y-4435D01*
X-1197Y-4456D01*
X-1195Y-4475D01*
X-1191Y-4493D01*
X-1187Y-4509D01*
X-1186Y-4515D01*
X-1184Y-4521D01*
X-1182Y-4526D01*
X-1181Y-4531D01*
X-1179Y-4534D01*
X-1178Y-4537D01*
X-1178Y-4538D01*
Y-4539D01*
X-1169Y-4555D01*
X-1161Y-4569D01*
X-1151Y-4581D01*
X-1141Y-4591D01*
X-1133Y-4599D01*
X-1127Y-4604D01*
X-1122Y-4607D01*
X-1121Y-4609D01*
X-1121D01*
X-1107Y-4617D01*
X-1093Y-4624D01*
X-1079Y-4628D01*
X-1068Y-4631D01*
X-1057Y-4632D01*
X-1049Y-4634D01*
X-1197D01*
X-682D01*
D01*
X-1042D01*
X-1026Y-4633D01*
X-1012Y-4631D01*
X-1000Y-4627D01*
X-990Y-4624D01*
X-981Y-4620D01*
X-975Y-4616D01*
X-972Y-4614D01*
X-970Y-4613D01*
X-960Y-4605D01*
X-951Y-4596D01*
X-944Y-4587D01*
X-938Y-4578D01*
X-933Y-4570D01*
X-930Y-4564D01*
X-927Y-4559D01*
X-927Y-4559D01*
Y-4558D01*
X-924Y-4551D01*
X-921Y-4542D01*
X-917Y-4534D01*
X-914Y-4524D01*
X-907Y-4504D01*
X-902Y-4483D01*
X-899Y-4474D01*
X-896Y-4464D01*
X-893Y-4456D01*
X-891Y-4449D01*
X-890Y-4443D01*
X-888Y-4438D01*
X-888Y-4435D01*
Y-4435D01*
X-885Y-4424D01*
X-882Y-4414D01*
X-879Y-4405D01*
X-877Y-4397D01*
X-875Y-4390D01*
X-873Y-4385D01*
X-872Y-4379D01*
X-871Y-4375D01*
X-868Y-4368D01*
X-867Y-4364D01*
X-866Y-4362D01*
Y-4361D01*
X-862Y-4354D01*
X-859Y-4347D01*
X-855Y-4341D01*
X-851Y-4337D01*
X-848Y-4333D01*
X-846Y-4331D01*
X-845Y-4329D01*
X-844Y-4328D01*
X-839Y-4325D01*
X-834Y-4323D01*
X-824Y-4320D01*
X-820Y-4320D01*
X-817Y-4319D01*
X-815D01*
X-814D01*
X-805Y-4320D01*
X-797Y-4323D01*
X-789Y-4326D01*
X-782Y-4331D01*
X-777Y-4336D01*
X-773Y-4340D01*
X-770Y-4342D01*
X-769Y-4343D01*
X-766Y-4348D01*
X-763Y-4354D01*
X-758Y-4366D01*
X-755Y-4380D01*
X-752Y-4393D01*
X-751Y-4406D01*
Y-4411D01*
X-750Y-4416D01*
Y-4425D01*
X-751Y-4443D01*
X-754Y-4458D01*
X-757Y-4471D01*
X-761Y-4482D01*
X-765Y-4490D01*
X-769Y-4496D01*
X-772Y-4500D01*
X-772Y-4501D01*
X-781Y-4510D01*
X-791Y-4517D01*
X-800Y-4523D01*
X-810Y-4528D01*
X-818Y-4531D01*
X-826Y-4532D01*
X-830Y-4534D01*
X-831D01*
X-831D01*
X-820Y-4616D01*
X-803Y-4612D01*
X-789Y-4607D01*
X-775Y-4603D01*
X-764Y-4598D01*
X-756Y-4593D01*
X-750Y-4590D01*
X-746Y-4587D01*
X-744Y-4586D01*
X-734Y-4577D01*
X-725Y-4567D01*
X-717Y-4556D01*
X-710Y-4546D01*
X-705Y-4536D01*
X-702Y-4528D01*
X-700Y-4525D01*
X-699Y-4523D01*
X-699Y-4522D01*
Y-4521D01*
X-693Y-4504D01*
X-689Y-4487D01*
X-686Y-4469D01*
X-684Y-4454D01*
X-682Y-4440D01*
Y-4434D01*
X-682Y-4429D01*
Y-4419D01*
X-682Y-4405D01*
X-683Y-4392D01*
X-685Y-4379D01*
X-687Y-4369D01*
X-689Y-4359D01*
X-690Y-4353D01*
X-691Y-4348D01*
X-692Y-4348D01*
Y-4347D01*
X-696Y-4335D01*
X-700Y-4324D01*
X-704Y-4315D01*
X-708Y-4308D01*
X-711Y-4302D01*
X-714Y-4297D01*
X-716Y-4294D01*
X-716Y-4294D01*
X-724Y-4284D01*
X-731Y-4276D01*
X-739Y-4269D01*
X-747Y-4263D01*
X-753Y-4258D01*
X-758Y-4255D01*
X-761Y-4253D01*
X-763Y-4252D01*
X-773Y-4247D01*
X-784Y-4244D01*
X-795Y-4241D01*
X-804Y-4240D01*
X-812Y-4238D01*
X-818Y-4238D01*
X-823D01*
X-823D01*
X-824D01*
X-837Y-4238D01*
X-850Y-4241D01*
X-861Y-4244D01*
X-871Y-4247D01*
X-879Y-4249D01*
X-885Y-4252D01*
X-889Y-4255D01*
X-890Y-4255D01*
X-901Y-4263D01*
X-910Y-4272D01*
X-918Y-4280D01*
X-924Y-4289D01*
X-930Y-4297D01*
X-934Y-4303D01*
X-936Y-4308D01*
X-937Y-4309D01*
Y-4309D01*
X-940Y-4317D01*
X-944Y-4325D01*
X-947Y-4334D01*
X-950Y-4345D01*
X-957Y-4366D01*
X-964Y-4387D01*
X-966Y-4397D01*
X-969Y-4407D01*
X-972Y-4416D01*
X-974Y-4423D01*
X-975Y-4429D01*
X-977Y-4434D01*
X-978Y-4437D01*
Y-4438D01*
X-980Y-4449D01*
X-983Y-4461D01*
X-986Y-4471D01*
X-989Y-4480D01*
X-992Y-4488D01*
X-994Y-4494D01*
X-996Y-4500D01*
X-998Y-4506D01*
X-1000Y-4511D01*
X-1001Y-4514D01*
X-1003Y-4520D01*
X-1005Y-4523D01*
X-1006Y-4523D01*
X-1012Y-4531D01*
X-1020Y-4538D01*
X-1027Y-4542D01*
X-1034Y-4545D01*
X-1040Y-4547D01*
X-1046Y-4548D01*
X-1049D01*
X-1051D01*
X-1062Y-4547D01*
X-1073Y-4544D01*
X-1082Y-4540D01*
X-1090Y-4534D01*
X-1097Y-4529D01*
X-1102Y-4525D01*
X-1105Y-4522D01*
X-1106Y-4520D01*
X-1113Y-4509D01*
X-1119Y-4495D01*
X-1123Y-4480D01*
X-1126Y-4466D01*
X-1127Y-4454D01*
X-1128Y-4449D01*
Y-4444D01*
X-1129Y-4440D01*
Y-4434D01*
X-1127Y-4414D01*
X-1124Y-4396D01*
X-1121Y-4381D01*
X-1116Y-4368D01*
X-1111Y-4358D01*
X-1107Y-4351D01*
X-1104Y-4346D01*
X-1103Y-4345D01*
Y-4345D01*
X-1092Y-4334D01*
X-1080Y-4325D01*
X-1067Y-4319D01*
X-1054Y-4314D01*
X-1043Y-4310D01*
X-1039Y-4309D01*
X-1034Y-4308D01*
X-1031Y-4307D01*
X-1028D01*
X-1027Y-4306D01*
X-1026D01*
X-1040Y-4224D01*
D02*
G37*
G36*
X-693Y-4756D02*
X-788D01*
Y-4851D01*
X-940D01*
X-693D01*
Y-4756D01*
D02*
G37*
G36*
X-940D02*
X-1186D01*
Y-4851D01*
X-1091D01*
Y-4756D01*
X-940D01*
D02*
G37*
G36*
X-1198Y-4934D02*
D01*
Y-5463D01*
X-494D01*
Y-5396D01*
X-1196Y-5199D01*
D01*
X-1198Y-5199D01*
Y-5001D01*
X-497Y-5199D01*
D01*
X-494Y-5199D01*
Y-5218D01*
Y-5132D01*
X-1198Y-4934D01*
D02*
G37*
G36*
X-1046Y-5497D02*
X-1051D01*
D01*
X-1057D01*
X-1068Y-5498D01*
X-1079Y-5500D01*
X-1089Y-5501D01*
X-1099Y-5504D01*
X-1116Y-5511D01*
X-1130Y-5520D01*
X-1137Y-5523D01*
X-1142Y-5527D01*
X-1147Y-5531D01*
X-1151Y-5534D01*
X-1154Y-5537D01*
X-1156Y-5539D01*
X-1158Y-5540D01*
X-1158Y-5541D01*
X-1165Y-5550D01*
X-1171Y-5559D01*
X-1177Y-5569D01*
X-1181Y-5579D01*
X-1188Y-5599D01*
X-1192Y-5620D01*
X-1195Y-5629D01*
X-1195Y-5638D01*
X-1196Y-5646D01*
X-1197Y-5652D01*
X-1197Y-5658D01*
Y-5666D01*
X-1197Y-5684D01*
X-1195Y-5701D01*
X-1192Y-5717D01*
X-1189Y-5731D01*
X-1186Y-5742D01*
X-1185Y-5747D01*
X-1183Y-5751D01*
X-1183Y-5754D01*
X-1182Y-5756D01*
X-1181Y-5757D01*
Y-5758D01*
X-1174Y-5774D01*
X-1166Y-5790D01*
X-1156Y-5805D01*
X-1147Y-5819D01*
X-1138Y-5831D01*
X-1134Y-5835D01*
X-1131Y-5840D01*
X-1128Y-5844D01*
X-1126Y-5846D01*
X-1125Y-5847D01*
X-1124Y-5848D01*
X-1138Y-5849D01*
X-1150Y-5852D01*
X-1160Y-5855D01*
X-1169Y-5858D01*
X-1176Y-5860D01*
X-1182Y-5862D01*
X-1185Y-5863D01*
X-1186Y-5864D01*
Y-5951D01*
X-1176Y-5946D01*
X-1165Y-5942D01*
X-1155Y-5938D01*
X-1147Y-5935D01*
X-1138Y-5933D01*
X-1133Y-5931D01*
X-1129Y-5931D01*
X-1127D01*
X-1121Y-5930D01*
X-1112Y-5929D01*
X-1102Y-5928D01*
X-1091Y-5928D01*
X-1079Y-5927D01*
X-1067D01*
X-1042Y-5926D01*
X-1030D01*
X-1018Y-5925D01*
X-1008D01*
X-998D01*
X-991D01*
X-985D01*
X-981D01*
X-980D01*
X-868D01*
X-858D01*
X-849D01*
X-841Y-5925D01*
X-833D01*
X-820Y-5924D01*
X-809Y-5923D01*
X-801Y-5923D01*
X-796Y-5922D01*
X-792Y-5921D01*
X-792D01*
X-779Y-5918D01*
X-768Y-5914D01*
X-758Y-5909D01*
X-750Y-5905D01*
X-744Y-5901D01*
X-738Y-5897D01*
X-735Y-5895D01*
X-735Y-5894D01*
X-727Y-5886D01*
X-719Y-5878D01*
X-713Y-5868D01*
X-707Y-5858D01*
X-703Y-5849D01*
X-700Y-5843D01*
X-699Y-5840D01*
X-698Y-5838D01*
X-697Y-5837D01*
Y-5836D01*
X-692Y-5821D01*
X-688Y-5804D01*
X-685Y-5787D01*
X-684Y-5770D01*
X-682Y-5756D01*
Y-5750D01*
X-682Y-5745D01*
Y-5728D01*
Y-5734D01*
X-682Y-5711D01*
X-685Y-5690D01*
X-688Y-5671D01*
X-689Y-5662D01*
X-690Y-5655D01*
X-692Y-5647D01*
X-693Y-5641D01*
X-695Y-5635D01*
X-696Y-5631D01*
X-698Y-5627D01*
X-699Y-5624D01*
X-699Y-5623D01*
Y-5622D01*
X-707Y-5605D01*
X-715Y-5590D01*
X-723Y-5578D01*
X-731Y-5568D01*
X-738Y-5559D01*
X-744Y-5554D01*
X-748Y-5550D01*
X-749Y-5548D01*
X-750D01*
X-762Y-5540D01*
X-776Y-5532D01*
X-790Y-5526D01*
X-803Y-5521D01*
X-815Y-5517D01*
X-820Y-5516D01*
X-825Y-5514D01*
X-828Y-5514D01*
X-831Y-5513D01*
X-833Y-5512D01*
X-834D01*
X-845Y-5594D01*
X-835Y-5597D01*
X-826Y-5600D01*
X-812Y-5606D01*
X-798Y-5613D01*
X-789Y-5620D01*
X-781Y-5626D01*
X-775Y-5631D01*
X-772Y-5634D01*
X-772Y-5635D01*
X-765Y-5647D01*
X-760Y-5661D01*
X-756Y-5675D01*
X-753Y-5689D01*
X-752Y-5703D01*
Y-5708D01*
X-751Y-5713D01*
Y-5723D01*
X-752Y-5745D01*
X-755Y-5764D01*
X-760Y-5780D01*
X-765Y-5793D01*
X-771Y-5804D01*
X-773Y-5807D01*
X-775Y-5811D01*
X-777Y-5814D01*
X-778Y-5816D01*
X-780Y-5817D01*
X-789Y-5825D01*
X-800Y-5831D01*
X-812Y-5835D01*
X-823Y-5838D01*
X-834Y-5840D01*
X-843Y-5841D01*
X-846D01*
X-849D01*
X-851D01*
X-851D01*
X-854D01*
X-857D01*
X-864D01*
X-867Y-5841D01*
X-870D01*
X-872D01*
X-873D01*
X-876Y-5831D01*
X-879Y-5821D01*
X-882Y-5809D01*
X-885Y-5797D01*
X-890Y-5773D01*
X-894Y-5748D01*
X-896Y-5737D01*
X-897Y-5726D01*
X-899Y-5717D01*
X-900Y-5708D01*
X-901Y-5701D01*
X-902Y-5696D01*
X-902Y-5693D01*
Y-5692D01*
X-904Y-5674D01*
X-907Y-5659D01*
X-909Y-5646D01*
X-910Y-5635D01*
X-913Y-5627D01*
X-913Y-5621D01*
X-915Y-5618D01*
Y-5617D01*
X-919Y-5605D01*
X-923Y-5593D01*
X-927Y-5583D01*
X-932Y-5574D01*
X-935Y-5567D01*
X-939Y-5562D01*
X-941Y-5558D01*
X-942Y-5556D01*
X-950Y-5547D01*
X-957Y-5539D01*
X-965Y-5531D01*
X-972Y-5525D01*
X-980Y-5520D01*
X-985Y-5517D01*
X-989Y-5514D01*
X-990Y-5514D01*
X-1002Y-5508D01*
X-1013Y-5504D01*
X-1024Y-5501D01*
X-1034Y-5500D01*
X-1043Y-5498D01*
X-1051Y-5497D01*
X-1046D01*
D02*
G37*
G36*
X-682Y-5951D02*
X-1197D01*
X-682D01*
D01*
D02*
G37*
G36*
X-693Y-6054D02*
X-1186D01*
Y-6137D01*
X-930D01*
X-918D01*
X-907Y-6138D01*
X-896Y-6139D01*
X-886Y-6139D01*
X-876Y-6140D01*
X-868Y-6142D01*
X-861Y-6142D01*
X-854Y-6144D01*
X-848Y-6145D01*
X-843Y-6146D01*
X-838Y-6148D01*
X-834Y-6148D01*
X-831Y-6149D01*
X-829Y-6150D01*
X-828Y-6151D01*
X-828D01*
X-815Y-6156D01*
X-804Y-6163D01*
X-795Y-6170D01*
X-787Y-6178D01*
X-781Y-6184D01*
X-777Y-6189D01*
X-774Y-6193D01*
X-773Y-6194D01*
X-766Y-6206D01*
X-762Y-6217D01*
X-758Y-6228D01*
X-756Y-6238D01*
X-755Y-6247D01*
X-754Y-6254D01*
Y-6260D01*
X-755Y-6276D01*
X-758Y-6290D01*
X-763Y-6301D01*
X-768Y-6311D01*
X-773Y-6317D01*
X-778Y-6323D01*
X-781Y-6325D01*
X-782Y-6326D01*
X-794Y-6333D01*
X-807Y-6338D01*
X-821Y-6342D01*
X-834Y-6345D01*
X-847Y-6346D01*
X-852D01*
X-857Y-6347D01*
X-861D01*
X-864D01*
X-865D01*
X-866D01*
X-1186D01*
Y-6430D01*
X-900D01*
X-886Y-6431D01*
X-873Y-6432D01*
X-861Y-6433D01*
X-850Y-6435D01*
X-840Y-6438D01*
X-831Y-6441D01*
X-823Y-6444D01*
X-815Y-6448D01*
X-809Y-6451D01*
X-803Y-6454D01*
X-799Y-6457D01*
X-795Y-6460D01*
X-792Y-6462D01*
X-790Y-6463D01*
X-789Y-6465D01*
X-789D01*
X-783Y-6472D01*
X-777Y-6479D01*
X-769Y-6493D01*
X-762Y-6508D01*
X-758Y-6522D01*
X-755Y-6534D01*
X-755Y-6539D01*
Y-6543D01*
X-754Y-6547D01*
Y-6552D01*
X-755Y-6562D01*
X-756Y-6572D01*
X-758Y-6581D01*
X-761Y-6588D01*
X-764Y-6594D01*
X-766Y-6599D01*
X-767Y-6601D01*
X-768Y-6602D01*
X-773Y-6610D01*
X-779Y-6616D01*
X-785Y-6621D01*
X-791Y-6625D01*
X-796Y-6628D01*
X-800Y-6630D01*
X-803Y-6632D01*
X-803D01*
X-813Y-6635D01*
X-824Y-6636D01*
X-836Y-6638D01*
X-848Y-6639D01*
X-859D01*
X-868Y-6640D01*
X-871D01*
X-873D01*
X-875D01*
X-876D01*
X-1186D01*
Y-6723D01*
X-682D01*
Y-6278D01*
X-682Y-6261D01*
X-685Y-6244D01*
X-688Y-6229D01*
X-693Y-6216D01*
X-696Y-6205D01*
X-699Y-6201D01*
X-700Y-6197D01*
X-702Y-6194D01*
X-703Y-6192D01*
X-704Y-6191D01*
Y-6190D01*
X-713Y-6176D01*
X-722Y-6165D01*
X-732Y-6154D01*
X-741Y-6145D01*
X-750Y-6138D01*
X-756Y-6133D01*
X-761Y-6130D01*
X-761Y-6128D01*
X-693D01*
Y-6054D01*
D02*
G37*
G36*
Y-6847D02*
X-1375D01*
Y-6931D01*
X-1135D01*
X-1145Y-6939D01*
X-1154Y-6948D01*
X-1162Y-6956D01*
X-1168Y-6965D01*
X-1173Y-6973D01*
X-1178Y-6979D01*
X-1180Y-6983D01*
X-1181Y-6985D01*
X-1186Y-6997D01*
X-1190Y-7010D01*
X-1193Y-7023D01*
X-1195Y-7035D01*
X-1197Y-7045D01*
X-1197Y-7052D01*
Y-7060D01*
X-1197Y-7071D01*
X-1196Y-7081D01*
X-1192Y-7101D01*
X-1187Y-7120D01*
X-1181Y-7136D01*
X-1178Y-7143D01*
X-1176Y-7150D01*
X-1173Y-7155D01*
X-1171Y-7160D01*
X-1169Y-7164D01*
X-1167Y-7167D01*
X-1166Y-7168D01*
Y-7169D01*
X-1152Y-7187D01*
X-1138Y-7203D01*
X-1122Y-7217D01*
X-1107Y-7228D01*
X-1093Y-7237D01*
X-1088Y-7240D01*
X-1082Y-7243D01*
X-1079Y-7245D01*
X-1076Y-7246D01*
X-1073Y-7248D01*
X-1073D01*
X-1049Y-7257D01*
X-1026Y-7263D01*
X-1003Y-7269D01*
X-982Y-7272D01*
X-972Y-7273D01*
X-964Y-7274D01*
X-955Y-7275D01*
X-949D01*
X-944Y-7275D01*
X-1375D01*
X-682D01*
Y-7066D01*
X-682Y-7049D01*
X-685Y-7032D01*
X-688Y-7018D01*
X-691Y-7007D01*
X-695Y-6997D01*
X-698Y-6990D01*
X-700Y-6985D01*
X-701Y-6985D01*
Y-6984D01*
X-709Y-6971D01*
X-718Y-6960D01*
X-727Y-6950D01*
X-736Y-6941D01*
X-744Y-6934D01*
X-752Y-6928D01*
X-756Y-6925D01*
X-757Y-6923D01*
X-693D01*
Y-6847D01*
D02*
G37*
G36*
Y-7376D02*
X-1186D01*
Y-7460D01*
X-917D01*
X-900Y-7461D01*
X-884Y-7461D01*
X-870Y-7463D01*
X-857Y-7466D01*
X-845Y-7469D01*
X-834Y-7472D01*
X-825Y-7475D01*
X-817Y-7479D01*
X-809Y-7483D01*
X-803Y-7486D01*
X-799Y-7489D01*
X-795Y-7492D01*
X-792Y-7494D01*
X-789Y-7497D01*
X-789Y-7497D01*
X-788Y-7498D01*
X-782Y-7506D01*
X-777Y-7514D01*
X-768Y-7529D01*
X-762Y-7545D01*
X-758Y-7559D01*
X-755Y-7571D01*
X-755Y-7577D01*
Y-7582D01*
X-754Y-7585D01*
Y-7590D01*
X-755Y-7603D01*
X-756Y-7614D01*
X-759Y-7624D01*
X-761Y-7632D01*
X-764Y-7639D01*
X-767Y-7644D01*
X-769Y-7648D01*
X-769Y-7649D01*
X-775Y-7658D01*
X-782Y-7665D01*
X-789Y-7671D01*
X-795Y-7675D01*
X-801Y-7679D01*
X-806Y-7681D01*
X-809Y-7683D01*
X-810Y-7683D01*
X-820Y-7687D01*
X-832Y-7689D01*
X-845Y-7692D01*
X-857Y-7692D01*
X-868Y-7693D01*
X-873Y-7694D01*
X-878D01*
X-881D01*
X-884D01*
X-885D01*
X-886D01*
X-1186D01*
Y-7777D01*
X-682D01*
D01*
X-863D01*
X-854Y-7776D01*
X-845D01*
X-838Y-7776D01*
X-831D01*
X-820Y-7775D01*
X-812Y-7773D01*
X-806Y-7773D01*
X-803Y-7772D01*
X-802D01*
X-789Y-7769D01*
X-777Y-7765D01*
X-766Y-7761D01*
X-758Y-7756D01*
X-750Y-7752D01*
X-744Y-7749D01*
X-741Y-7747D01*
X-740Y-7746D01*
X-730Y-7739D01*
X-722Y-7730D01*
X-716Y-7720D01*
X-709Y-7711D01*
X-704Y-7703D01*
X-701Y-7696D01*
X-699Y-7692D01*
X-698Y-7691D01*
Y-7690D01*
X-693Y-7676D01*
X-688Y-7662D01*
X-685Y-7648D01*
X-684Y-7635D01*
X-682Y-7624D01*
Y-7620D01*
X-682Y-7615D01*
Y-7608D01*
X-682Y-7590D01*
X-685Y-7572D01*
X-689Y-7556D01*
X-694Y-7540D01*
X-701Y-7526D01*
X-707Y-7514D01*
X-715Y-7502D01*
X-722Y-7492D01*
X-730Y-7482D01*
X-738Y-7474D01*
X-744Y-7467D01*
X-751Y-7462D01*
X-756Y-7458D01*
X-760Y-7454D01*
X-763Y-7452D01*
X-764Y-7452D01*
X-693D01*
Y-7376D01*
D02*
G37*
G36*
Y-7903D02*
X-1017D01*
X-1034Y-7904D01*
X-1047Y-7905D01*
X-1058Y-7906D01*
X-1066Y-7906D01*
X-1073Y-7907D01*
X-1076Y-7908D01*
X-1077D01*
X-1090Y-7911D01*
X-1102Y-7915D01*
X-1113Y-7920D01*
X-1121Y-7924D01*
X-1129Y-7928D01*
X-1135Y-7931D01*
X-1138Y-7933D01*
X-1139Y-7934D01*
X-1148Y-7941D01*
X-1156Y-7950D01*
X-1164Y-7959D01*
X-1169Y-7968D01*
X-1175Y-7977D01*
X-1178Y-7984D01*
X-1181Y-7988D01*
X-1181Y-7989D01*
Y-7990D01*
X-1186Y-8004D01*
X-1191Y-8018D01*
X-1194Y-8032D01*
X-1195Y-8045D01*
X-1197Y-8056D01*
X-1197Y-8064D01*
Y-8072D01*
X-1197Y-8090D01*
X-1194Y-8107D01*
X-1190Y-8123D01*
X-1184Y-8138D01*
X-1178Y-8152D01*
X-1171Y-8165D01*
X-1164Y-8176D01*
X-1155Y-8187D01*
X-1148Y-8197D01*
X-1141Y-8205D01*
X-1133Y-8213D01*
X-1127Y-8218D01*
X-1121Y-8223D01*
X-1118Y-8226D01*
X-1115Y-8228D01*
X-1114Y-8229D01*
X-1186D01*
Y-8303D01*
X-1197D01*
X-693D01*
Y-8220D01*
Y-8220D01*
X-958D01*
X-980Y-8219D01*
X-999Y-8218D01*
X-1015Y-8215D01*
X-1029Y-8213D01*
X-1035Y-8212D01*
X-1040Y-8210D01*
X-1044Y-8209D01*
X-1048Y-8208D01*
X-1050Y-8207D01*
X-1052Y-8207D01*
X-1053Y-8206D01*
X-1054D01*
X-1065Y-8200D01*
X-1076Y-8193D01*
X-1085Y-8184D01*
X-1092Y-8177D01*
X-1098Y-8170D01*
X-1102Y-8164D01*
X-1105Y-8160D01*
X-1106Y-8159D01*
Y-8159D01*
X-1113Y-8146D01*
X-1117Y-8134D01*
X-1121Y-8123D01*
X-1123Y-8111D01*
X-1124Y-8102D01*
X-1125Y-8095D01*
Y-8089D01*
X-1124Y-8075D01*
X-1122Y-8063D01*
X-1119Y-8052D01*
X-1116Y-8043D01*
X-1113Y-8035D01*
X-1110Y-8030D01*
X-1107Y-8027D01*
X-1107Y-8025D01*
X-1099Y-8016D01*
X-1090Y-8009D01*
X-1082Y-8003D01*
X-1074Y-7999D01*
X-1067Y-7995D01*
X-1060Y-7993D01*
X-1057Y-7992D01*
X-1055Y-7991D01*
X-1051Y-7990D01*
X-1045Y-7990D01*
X-1031Y-7989D01*
X-1017Y-7987D01*
X-1002D01*
X-989Y-7987D01*
X-983D01*
X-977D01*
X-972D01*
X-969D01*
X-967D01*
X-966D01*
X-693D01*
Y-8064D01*
Y-7903D01*
D02*
G37*
G36*
X-521Y-8387D02*
Y-8532D01*
X-571Y-8449D01*
X-693D01*
Y-8387D01*
X-758D01*
D01*
X-769D01*
X-758D01*
Y-8449D01*
X-1042D01*
X-1056D01*
X-1068Y-8449D01*
X-1079D01*
X-1090Y-8450D01*
X-1099Y-8451D01*
X-1107Y-8452D01*
X-1114Y-8452D01*
X-1120Y-8454D01*
X-1125Y-8455D01*
X-1130Y-8455D01*
X-1133Y-8456D01*
X-1136Y-8457D01*
X-1140Y-8458D01*
X-1141Y-8458D01*
X-1150Y-8463D01*
X-1157Y-8468D01*
X-1164Y-8474D01*
X-1169Y-8480D01*
X-1173Y-8486D01*
X-1176Y-8490D01*
X-1178Y-8493D01*
X-1179Y-8494D01*
X-1183Y-8504D01*
X-1187Y-8515D01*
X-1189Y-8527D01*
X-1192Y-8539D01*
X-1192Y-8549D01*
X-1193Y-8557D01*
Y-8553D01*
Y-8565D01*
X-1192Y-8587D01*
X-1191Y-8597D01*
X-1189Y-8607D01*
X-1188Y-8615D01*
X-1187Y-8622D01*
X-1186Y-8627D01*
Y-8628D01*
X-1193D01*
D01*
X-521D01*
Y-8387D01*
D02*
G37*
G36*
X-1040Y-8666D02*
D01*
X-1054Y-8669D01*
X-1068Y-8672D01*
X-1080Y-8677D01*
X-1091Y-8681D01*
X-1102Y-8686D01*
X-1112Y-8691D01*
X-1121Y-8697D01*
X-1129Y-8703D01*
X-1135Y-8708D01*
X-1141Y-8713D01*
X-1147Y-8717D01*
X-1151Y-8721D01*
X-1154Y-8725D01*
X-1156Y-8727D01*
X-1158Y-8728D01*
X-1158Y-8729D01*
X-1165Y-8739D01*
X-1171Y-8750D01*
X-1177Y-8762D01*
X-1181Y-8773D01*
X-1188Y-8798D01*
X-1192Y-8822D01*
X-1195Y-8833D01*
X-1195Y-8844D01*
X-1196Y-8853D01*
X-1197Y-8860D01*
X-1197Y-8867D01*
Y-9076D01*
Y-8877D01*
X-1197Y-8898D01*
X-1195Y-8917D01*
X-1191Y-8935D01*
X-1187Y-8951D01*
X-1186Y-8957D01*
X-1184Y-8963D01*
X-1182Y-8968D01*
X-1181Y-8973D01*
X-1179Y-8976D01*
X-1178Y-8979D01*
X-1178Y-8980D01*
Y-8981D01*
X-1169Y-8997D01*
X-1161Y-9011D01*
X-1151Y-9023D01*
X-1141Y-9033D01*
X-1133Y-9041D01*
X-1127Y-9046D01*
X-1122Y-9049D01*
X-1121Y-9051D01*
X-1121D01*
X-1107Y-9059D01*
X-1093Y-9066D01*
X-1079Y-9070D01*
X-1068Y-9073D01*
X-1057Y-9075D01*
X-1049Y-9076D01*
X-1197D01*
X-682D01*
D01*
X-1042D01*
X-1026Y-9075D01*
X-1012Y-9073D01*
X-1000Y-9069D01*
X-990Y-9066D01*
X-981Y-9062D01*
X-975Y-9058D01*
X-972Y-9056D01*
X-970Y-9055D01*
X-960Y-9047D01*
X-951Y-9038D01*
X-944Y-9029D01*
X-938Y-9020D01*
X-933Y-9013D01*
X-930Y-9006D01*
X-927Y-9001D01*
X-927Y-9001D01*
Y-9000D01*
X-924Y-8993D01*
X-921Y-8984D01*
X-917Y-8976D01*
X-914Y-8966D01*
X-907Y-8946D01*
X-902Y-8925D01*
X-899Y-8916D01*
X-896Y-8906D01*
X-893Y-8898D01*
X-891Y-8891D01*
X-890Y-8885D01*
X-888Y-8880D01*
X-888Y-8877D01*
Y-8877D01*
X-885Y-8866D01*
X-882Y-8856D01*
X-879Y-8847D01*
X-877Y-8839D01*
X-875Y-8832D01*
X-873Y-8827D01*
X-872Y-8821D01*
X-871Y-8817D01*
X-868Y-8810D01*
X-867Y-8806D01*
X-866Y-8804D01*
Y-8803D01*
X-862Y-8796D01*
X-859Y-8789D01*
X-855Y-8783D01*
X-851Y-8779D01*
X-848Y-8775D01*
X-846Y-8773D01*
X-845Y-8771D01*
X-844Y-8770D01*
X-839Y-8768D01*
X-834Y-8765D01*
X-824Y-8762D01*
X-820Y-8762D01*
X-817Y-8761D01*
X-815D01*
X-814D01*
X-805Y-8762D01*
X-797Y-8765D01*
X-789Y-8768D01*
X-782Y-8773D01*
X-777Y-8778D01*
X-773Y-8782D01*
X-770Y-8784D01*
X-769Y-8785D01*
X-766Y-8790D01*
X-763Y-8796D01*
X-758Y-8808D01*
X-755Y-8822D01*
X-752Y-8835D01*
X-751Y-8848D01*
Y-8853D01*
X-750Y-8858D01*
Y-8867D01*
X-751Y-8885D01*
X-754Y-8900D01*
X-757Y-8913D01*
X-761Y-8924D01*
X-765Y-8932D01*
X-769Y-8938D01*
X-772Y-8942D01*
X-772Y-8943D01*
X-781Y-8952D01*
X-791Y-8959D01*
X-800Y-8965D01*
X-810Y-8970D01*
X-818Y-8973D01*
X-826Y-8974D01*
X-830Y-8976D01*
X-831D01*
X-831D01*
X-820Y-9058D01*
X-803Y-9054D01*
X-789Y-9049D01*
X-775Y-9045D01*
X-764Y-9040D01*
X-756Y-9035D01*
X-750Y-9032D01*
X-746Y-9029D01*
X-744Y-9028D01*
X-734Y-9019D01*
X-725Y-9009D01*
X-717Y-8999D01*
X-710Y-8988D01*
X-705Y-8978D01*
X-702Y-8970D01*
X-700Y-8968D01*
X-699Y-8965D01*
X-699Y-8964D01*
Y-8963D01*
X-693Y-8946D01*
X-689Y-8929D01*
X-686Y-8911D01*
X-684Y-8896D01*
X-682Y-8882D01*
Y-8876D01*
X-682Y-8871D01*
Y-8861D01*
X-682Y-8847D01*
X-683Y-8834D01*
X-685Y-8821D01*
X-687Y-8811D01*
X-689Y-8801D01*
X-690Y-8795D01*
X-691Y-8790D01*
X-692Y-8790D01*
Y-8789D01*
X-696Y-8777D01*
X-700Y-8766D01*
X-704Y-8757D01*
X-708Y-8750D01*
X-711Y-8744D01*
X-714Y-8739D01*
X-716Y-8737D01*
X-716Y-8736D01*
X-724Y-8726D01*
X-731Y-8718D01*
X-739Y-8711D01*
X-747Y-8706D01*
X-753Y-8700D01*
X-758Y-8697D01*
X-761Y-8695D01*
X-763Y-8694D01*
X-773Y-8689D01*
X-784Y-8686D01*
X-795Y-8683D01*
X-804Y-8682D01*
X-812Y-8680D01*
X-818Y-8680D01*
X-823D01*
X-823D01*
X-824D01*
X-837Y-8680D01*
X-850Y-8683D01*
X-861Y-8686D01*
X-871Y-8689D01*
X-879Y-8691D01*
X-885Y-8694D01*
X-889Y-8697D01*
X-890Y-8697D01*
X-901Y-8705D01*
X-910Y-8714D01*
X-918Y-8722D01*
X-924Y-8731D01*
X-930Y-8739D01*
X-934Y-8745D01*
X-936Y-8750D01*
X-937Y-8751D01*
Y-8751D01*
X-940Y-8759D01*
X-944Y-8768D01*
X-947Y-8776D01*
X-950Y-8787D01*
X-957Y-8808D01*
X-964Y-8829D01*
X-966Y-8839D01*
X-969Y-8849D01*
X-972Y-8858D01*
X-974Y-8865D01*
X-975Y-8871D01*
X-977Y-8876D01*
X-978Y-8879D01*
Y-8880D01*
X-980Y-8891D01*
X-983Y-8903D01*
X-986Y-8913D01*
X-989Y-8922D01*
X-992Y-8930D01*
X-994Y-8937D01*
X-996Y-8942D01*
X-998Y-8948D01*
X-1000Y-8953D01*
X-1001Y-8956D01*
X-1003Y-8962D01*
X-1005Y-8965D01*
X-1006Y-8965D01*
X-1012Y-8973D01*
X-1020Y-8980D01*
X-1027Y-8984D01*
X-1034Y-8987D01*
X-1040Y-8989D01*
X-1046Y-8990D01*
X-1049D01*
X-1051D01*
X-1062Y-8989D01*
X-1073Y-8986D01*
X-1082Y-8982D01*
X-1090Y-8976D01*
X-1097Y-8971D01*
X-1102Y-8967D01*
X-1105Y-8964D01*
X-1106Y-8962D01*
X-1113Y-8951D01*
X-1119Y-8937D01*
X-1123Y-8922D01*
X-1126Y-8908D01*
X-1127Y-8896D01*
X-1128Y-8891D01*
Y-8886D01*
X-1129Y-8882D01*
Y-8876D01*
X-1127Y-8856D01*
X-1124Y-8838D01*
X-1121Y-8823D01*
X-1116Y-8810D01*
X-1111Y-8800D01*
X-1107Y-8793D01*
X-1104Y-8788D01*
X-1103Y-8787D01*
Y-8787D01*
X-1092Y-8776D01*
X-1080Y-8768D01*
X-1067Y-8761D01*
X-1054Y-8756D01*
X-1043Y-8752D01*
X-1039Y-8751D01*
X-1034Y-8750D01*
X-1031Y-8749D01*
X-1028D01*
X-1027Y-8748D01*
X-1026D01*
X-1040Y-8666D01*
D02*
G37*
G36*
X-1091Y-9198D02*
X-1186D01*
Y-9294D01*
X-1091D01*
Y-9198D01*
D02*
G37*
G36*
X-934Y-9415D02*
X-942D01*
X-964Y-9415D01*
X-986Y-9418D01*
X-1006Y-9421D01*
X-1024Y-9424D01*
X-1041Y-9429D01*
X-1057Y-9434D01*
X-1071Y-9440D01*
X-1083Y-9446D01*
X-1094Y-9451D01*
X-1104Y-9457D01*
X-1113Y-9462D01*
X-1119Y-9466D01*
X-1125Y-9470D01*
X-1129Y-9473D01*
X-1131Y-9475D01*
X-1132Y-9476D01*
X-1144Y-9488D01*
X-1153Y-9500D01*
X-1162Y-9514D01*
X-1169Y-9527D01*
X-1176Y-9541D01*
X-1181Y-9554D01*
X-1186Y-9567D01*
X-1189Y-9580D01*
X-1192Y-9592D01*
X-1194Y-9603D01*
X-1195Y-9613D01*
X-1197Y-9621D01*
Y-9629D01*
X-1197Y-9634D01*
Y-9415D01*
Y-9844D01*
Y-9638D01*
X-1197Y-9653D01*
X-1195Y-9667D01*
X-1193Y-9680D01*
X-1190Y-9694D01*
X-1186Y-9706D01*
X-1182Y-9717D01*
X-1178Y-9727D01*
X-1173Y-9736D01*
X-1169Y-9745D01*
X-1165Y-9753D01*
X-1161Y-9759D01*
X-1157Y-9765D01*
X-1154Y-9768D01*
X-1152Y-9772D01*
X-1150Y-9773D01*
X-1150Y-9774D01*
X-1140Y-9784D01*
X-1130Y-9793D01*
X-1119Y-9801D01*
X-1108Y-9808D01*
X-1097Y-9815D01*
X-1086Y-9821D01*
X-1065Y-9829D01*
X-1055Y-9833D01*
X-1046Y-9836D01*
X-1038Y-9838D01*
X-1031Y-9841D01*
X-1025Y-9842D01*
X-1020Y-9843D01*
X-1017Y-9844D01*
X-1197D01*
X-682D01*
X-1017D01*
X-1006Y-9762D01*
X-1017Y-9759D01*
X-1028Y-9757D01*
X-1038Y-9754D01*
X-1047Y-9751D01*
X-1056Y-9748D01*
X-1063Y-9745D01*
X-1070Y-9741D01*
X-1076Y-9737D01*
X-1082Y-9734D01*
X-1086Y-9731D01*
X-1093Y-9725D01*
X-1098Y-9721D01*
X-1099Y-9720D01*
X-1099Y-9720D01*
X-1109Y-9706D01*
X-1116Y-9693D01*
X-1121Y-9679D01*
X-1125Y-9666D01*
X-1127Y-9655D01*
X-1128Y-9650D01*
Y-9646D01*
X-1129Y-9642D01*
Y-9638D01*
X-1128Y-9627D01*
X-1127Y-9615D01*
X-1124Y-9606D01*
X-1121Y-9596D01*
X-1115Y-9579D01*
X-1106Y-9565D01*
X-1102Y-9559D01*
X-1098Y-9553D01*
X-1094Y-9549D01*
X-1090Y-9545D01*
X-1088Y-9542D01*
X-1086Y-9539D01*
X-1085Y-9539D01*
X-1084Y-9538D01*
X-1075Y-9531D01*
X-1065Y-9525D01*
X-1054Y-9520D01*
X-1042Y-9517D01*
X-1018Y-9509D01*
X-995Y-9505D01*
X-983Y-9503D01*
X-973Y-9503D01*
X-964Y-9502D01*
X-955Y-9501D01*
X-949Y-9500D01*
X-944D01*
X-940D01*
X-939D01*
X-921Y-9501D01*
X-904Y-9502D01*
X-890Y-9504D01*
X-876Y-9506D01*
X-862Y-9509D01*
X-851Y-9513D01*
X-840Y-9517D01*
X-831Y-9520D01*
X-823Y-9523D01*
X-815Y-9527D01*
X-809Y-9531D01*
X-805Y-9534D01*
X-800Y-9536D01*
X-798Y-9538D01*
X-797Y-9539D01*
X-796Y-9539D01*
X-788Y-9547D01*
X-781Y-9555D01*
X-775Y-9564D01*
X-769Y-9572D01*
X-765Y-9581D01*
X-761Y-9589D01*
X-756Y-9605D01*
X-752Y-9620D01*
X-752Y-9626D01*
X-751Y-9632D01*
X-750Y-9636D01*
Y-9642D01*
X-751Y-9657D01*
X-754Y-9671D01*
X-758Y-9683D01*
X-763Y-9693D01*
X-768Y-9701D01*
X-772Y-9708D01*
X-775Y-9711D01*
X-776Y-9713D01*
X-786Y-9723D01*
X-798Y-9732D01*
X-811Y-9739D01*
X-823Y-9745D01*
X-834Y-9749D01*
X-843Y-9752D01*
X-846Y-9753D01*
X-848Y-9753D01*
X-850Y-9754D01*
X-851D01*
X-838Y-9835D01*
X-825Y-9832D01*
X-812Y-9828D01*
X-800Y-9824D01*
X-789Y-9819D01*
X-778Y-9814D01*
X-769Y-9808D01*
X-761Y-9803D01*
X-752Y-9797D01*
X-746Y-9792D01*
X-740Y-9787D01*
X-735Y-9782D01*
X-730Y-9778D01*
X-727Y-9775D01*
X-725Y-9772D01*
X-724Y-9770D01*
X-723Y-9770D01*
X-716Y-9760D01*
X-709Y-9750D01*
X-704Y-9739D01*
X-699Y-9728D01*
X-692Y-9706D01*
X-687Y-9685D01*
X-685Y-9675D01*
X-684Y-9666D01*
X-683Y-9658D01*
X-682Y-9652D01*
X-682Y-9646D01*
Y-9638D01*
X-683Y-9615D01*
X-686Y-9593D01*
X-691Y-9573D01*
X-694Y-9565D01*
X-696Y-9556D01*
X-699Y-9548D01*
X-702Y-9542D01*
X-704Y-9536D01*
X-707Y-9531D01*
X-709Y-9526D01*
X-710Y-9523D01*
X-712Y-9522D01*
Y-9521D01*
X-724Y-9502D01*
X-738Y-9486D01*
X-754Y-9472D01*
X-768Y-9460D01*
X-781Y-9452D01*
X-787Y-9449D01*
X-792Y-9446D01*
X-796Y-9444D01*
X-799Y-9442D01*
X-801Y-9441D01*
X-802D01*
X-825Y-9432D01*
X-849Y-9426D01*
X-873Y-9421D01*
X-894Y-9418D01*
X-904Y-9417D01*
X-913Y-9416D01*
X-921Y-9415D01*
X-929D01*
X-934Y-9415D01*
D02*
G37*
G36*
Y-9884D02*
X-940D01*
X-963Y-9885D01*
X-984Y-9887D01*
X-1004Y-9890D01*
X-1023Y-9894D01*
X-1040Y-9899D01*
X-1055Y-9904D01*
X-1069Y-9910D01*
X-1082Y-9916D01*
X-1093Y-9922D01*
X-1104Y-9928D01*
X-1112Y-9933D01*
X-1119Y-9938D01*
X-1124Y-9942D01*
X-1128Y-9945D01*
X-1130Y-9947D01*
X-1131Y-9948D01*
X-1143Y-9960D01*
X-1153Y-9973D01*
X-1162Y-9987D01*
X-1169Y-10001D01*
X-1176Y-10015D01*
X-1181Y-10029D01*
X-1186Y-10042D01*
X-1189Y-10055D01*
X-1192Y-10068D01*
X-1194Y-10079D01*
X-1195Y-10089D01*
X-1197Y-10098D01*
Y-10106D01*
X-1197Y-10111D01*
Y-10115D01*
X-1196Y-10139D01*
X-1193Y-10161D01*
X-1188Y-10181D01*
X-1186Y-10190D01*
X-1183Y-10198D01*
X-1180Y-10207D01*
X-1178Y-10213D01*
X-1175Y-10219D01*
X-1172Y-10224D01*
X-1171Y-10229D01*
X-1169Y-10232D01*
X-1168Y-10233D01*
Y-10234D01*
X-1155Y-10253D01*
X-1142Y-10270D01*
X-1128Y-10284D01*
X-1114Y-10296D01*
X-1102Y-10306D01*
X-1096Y-10309D01*
X-1092Y-10312D01*
X-1088Y-10314D01*
X-1085Y-10316D01*
X-1084Y-10317D01*
X-1083D01*
X-1072Y-10322D01*
X-1061Y-10327D01*
X-1037Y-10334D01*
X-1011Y-10339D01*
X-988Y-10342D01*
X-977Y-10344D01*
X-966Y-10345D01*
X-957Y-10345D01*
X-949D01*
X-942Y-10346D01*
X-1197D01*
X-933D01*
X-912Y-10345D01*
X-891Y-10343D01*
X-872Y-10340D01*
X-854Y-10336D01*
X-838Y-10331D01*
X-823Y-10325D01*
X-809Y-10320D01*
X-797Y-10314D01*
X-786Y-10308D01*
X-776Y-10302D01*
X-768Y-10296D01*
X-761Y-10291D01*
X-755Y-10287D01*
X-752Y-10284D01*
X-750Y-10282D01*
X-749Y-10281D01*
X-737Y-10269D01*
X-727Y-10255D01*
X-718Y-10242D01*
X-710Y-10228D01*
X-704Y-10214D01*
X-698Y-10201D01*
X-693Y-10187D01*
X-690Y-10174D01*
X-688Y-10162D01*
X-685Y-10151D01*
X-684Y-10141D01*
X-682Y-10132D01*
Y-10125D01*
X-682Y-10120D01*
Y-10115D01*
X-682Y-10098D01*
X-684Y-10082D01*
X-687Y-10067D01*
X-690Y-10052D01*
X-694Y-10038D01*
X-699Y-10026D01*
X-704Y-10014D01*
X-709Y-10004D01*
X-714Y-9993D01*
X-719Y-9985D01*
X-724Y-9978D01*
X-728Y-9971D01*
X-732Y-9967D01*
X-735Y-9963D01*
X-736Y-9961D01*
X-737Y-9960D01*
X-750Y-9947D01*
X-764Y-9935D01*
X-780Y-9925D01*
X-796Y-9916D01*
X-813Y-9909D01*
X-830Y-9903D01*
X-847Y-9897D01*
X-863Y-9894D01*
X-879Y-9891D01*
X-893Y-9888D01*
X-906Y-9886D01*
X-918Y-9886D01*
X-927Y-9885D01*
X-934Y-9884D01*
D02*
G37*
G36*
X-682Y-10444D02*
D01*
Y-10668D01*
X-682Y-10650D01*
X-685Y-10633D01*
X-688Y-10618D01*
X-693Y-10605D01*
X-696Y-10595D01*
X-699Y-10590D01*
X-700Y-10587D01*
X-702Y-10584D01*
X-703Y-10582D01*
X-704Y-10581D01*
Y-10580D01*
X-713Y-10566D01*
X-722Y-10554D01*
X-732Y-10544D01*
X-741Y-10535D01*
X-750Y-10528D01*
X-756Y-10522D01*
X-761Y-10520D01*
X-761Y-10518D01*
X-693D01*
Y-10444D01*
X-1186D01*
Y-10527D01*
X-930D01*
X-918D01*
X-907Y-10528D01*
X-896Y-10528D01*
X-886Y-10529D01*
X-876Y-10530D01*
X-868Y-10531D01*
X-861Y-10532D01*
X-854Y-10534D01*
X-848Y-10535D01*
X-843Y-10536D01*
X-838Y-10537D01*
X-834Y-10538D01*
X-831Y-10539D01*
X-829Y-10539D01*
X-828Y-10540D01*
X-828D01*
X-815Y-10546D01*
X-804Y-10553D01*
X-795Y-10560D01*
X-787Y-10567D01*
X-781Y-10573D01*
X-777Y-10579D01*
X-774Y-10582D01*
X-773Y-10584D01*
X-766Y-10596D01*
X-762Y-10607D01*
X-758Y-10618D01*
X-756Y-10628D01*
X-755Y-10637D01*
X-754Y-10644D01*
Y-10649D01*
X-755Y-10666D01*
X-758Y-10680D01*
X-763Y-10691D01*
X-768Y-10700D01*
X-773Y-10707D01*
X-778Y-10712D01*
X-781Y-10715D01*
X-782Y-10716D01*
X-794Y-10722D01*
X-807Y-10728D01*
X-821Y-10731D01*
X-834Y-10734D01*
X-847Y-10736D01*
X-852D01*
X-857Y-10736D01*
X-861D01*
X-864D01*
X-865D01*
X-866D01*
X-1186D01*
Y-10820D01*
X-900D01*
X-886Y-10821D01*
X-873Y-10821D01*
X-861Y-10823D01*
X-850Y-10825D01*
X-840Y-10828D01*
X-831Y-10831D01*
X-823Y-10834D01*
X-815Y-10838D01*
X-809Y-10841D01*
X-803Y-10843D01*
X-799Y-10846D01*
X-795Y-10849D01*
X-792Y-10852D01*
X-790Y-10853D01*
X-789Y-10855D01*
X-789D01*
X-783Y-10861D01*
X-777Y-10869D01*
X-769Y-10883D01*
X-762Y-10897D01*
X-758Y-10911D01*
X-755Y-10923D01*
X-755Y-10928D01*
Y-10933D01*
X-754Y-10936D01*
Y-10942D01*
X-755Y-10952D01*
X-756Y-10962D01*
X-758Y-10970D01*
X-761Y-10978D01*
X-764Y-10984D01*
X-766Y-10988D01*
X-767Y-10991D01*
X-768Y-10992D01*
X-773Y-10999D01*
X-779Y-11006D01*
X-785Y-11010D01*
X-791Y-11015D01*
X-796Y-11018D01*
X-800Y-11020D01*
X-803Y-11021D01*
X-803D01*
X-813Y-11024D01*
X-824Y-11026D01*
X-836Y-11027D01*
X-848Y-11029D01*
X-859D01*
X-868Y-11029D01*
X-871D01*
X-873D01*
X-875D01*
X-876D01*
X-1186D01*
Y-11113D01*
X-682D01*
Y-10444D01*
D02*
G37*
%LPD*%
G36*
X-896Y-2754D02*
X-878Y-2756D01*
X-862Y-2758D01*
X-850Y-2760D01*
X-840Y-2762D01*
X-832Y-2765D01*
X-830Y-2765D01*
X-828Y-2766D01*
X-826Y-2767D01*
X-814Y-2773D01*
X-804Y-2780D01*
X-795Y-2787D01*
X-788Y-2796D01*
X-782Y-2802D01*
X-778Y-2808D01*
X-775Y-2812D01*
X-774Y-2813D01*
X-767Y-2826D01*
X-762Y-2838D01*
X-759Y-2850D01*
X-756Y-2861D01*
X-755Y-2870D01*
X-754Y-2878D01*
Y-2883D01*
X-755Y-2901D01*
X-758Y-2917D01*
X-763Y-2929D01*
X-768Y-2940D01*
X-774Y-2949D01*
X-778Y-2955D01*
X-781Y-2959D01*
X-783Y-2960D01*
X-789Y-2965D01*
X-795Y-2969D01*
X-809Y-2976D01*
X-824Y-2981D01*
X-840Y-2984D01*
X-853Y-2986D01*
X-859Y-2987D01*
X-864D01*
X-868Y-2987D01*
X-871D01*
X-873D01*
X-874D01*
X-1186D01*
Y-2754D01*
X-917D01*
X-896Y-2754D01*
D02*
G37*
G36*
X-521Y-3393D02*
X-1186D01*
X-1112Y-3382D01*
X-1113Y-3373D01*
X-1113Y-3366D01*
X-1114Y-3359D01*
Y-3354D01*
X-1115Y-3350D01*
Y-3337D01*
X-1114Y-3331D01*
X-1113Y-3327D01*
X-1112Y-3323D01*
X-1110Y-3320D01*
X-1110Y-3317D01*
X-1109Y-3316D01*
Y-3315D01*
X-1104Y-3309D01*
X-1099Y-3305D01*
X-1094Y-3302D01*
X-1093Y-3301D01*
X-1093D01*
X-1088Y-3300D01*
X-1081Y-3299D01*
X-1073Y-3297D01*
X-1066D01*
X-1059Y-3297D01*
X-1053D01*
X-1048D01*
X-1048D01*
X-1047D01*
X-758D01*
Y-3382D01*
X-693D01*
Y-3297D01*
X-521D01*
Y-3393D01*
D02*
G37*
G36*
X-1186D02*
D01*
D01*
D01*
D02*
G37*
G36*
X-521Y-3657D02*
X-1186D01*
X-1112Y-3646D01*
X-1113Y-3638D01*
X-1113Y-3630D01*
X-1114Y-3624D01*
Y-3618D01*
X-1115Y-3614D01*
Y-3602D01*
X-1114Y-3596D01*
X-1113Y-3591D01*
X-1112Y-3587D01*
X-1110Y-3584D01*
X-1110Y-3582D01*
X-1109Y-3580D01*
Y-3579D01*
X-1104Y-3573D01*
X-1099Y-3569D01*
X-1094Y-3566D01*
X-1093Y-3565D01*
X-1093D01*
X-1088Y-3564D01*
X-1081Y-3563D01*
X-1073Y-3562D01*
X-1066D01*
X-1059Y-3561D01*
X-1053D01*
X-1048D01*
X-1048D01*
X-1047D01*
X-758D01*
Y-3646D01*
X-693D01*
Y-3561D01*
X-521D01*
Y-3657D01*
D02*
G37*
G36*
X-1186D02*
D01*
D01*
D01*
D02*
G37*
G36*
X-925Y-3804D02*
X-909Y-3804D01*
X-894Y-3807D01*
X-880Y-3810D01*
X-867Y-3813D01*
X-855Y-3816D01*
X-844Y-3819D01*
X-834Y-3824D01*
X-826Y-3827D01*
X-818Y-3831D01*
X-812Y-3834D01*
X-807Y-3837D01*
X-803Y-3840D01*
X-800Y-3842D01*
X-798Y-3843D01*
X-797Y-3844D01*
X-789Y-3852D01*
X-781Y-3860D01*
X-774Y-3868D01*
X-769Y-3876D01*
X-764Y-3884D01*
X-760Y-3892D01*
X-753Y-3906D01*
X-750Y-3919D01*
X-749Y-3925D01*
X-748Y-3929D01*
X-747Y-3933D01*
Y-3938D01*
X-748Y-3948D01*
X-750Y-3957D01*
X-752Y-3967D01*
X-755Y-3976D01*
X-762Y-3991D01*
X-771Y-4004D01*
X-780Y-4016D01*
X-783Y-4021D01*
X-787Y-4024D01*
X-790Y-4027D01*
X-792Y-4030D01*
X-794Y-4030D01*
X-795Y-4031D01*
X-804Y-4038D01*
X-814Y-4044D01*
X-825Y-4049D01*
X-837Y-4054D01*
X-860Y-4061D01*
X-883Y-4065D01*
X-894Y-4067D01*
X-904Y-4068D01*
X-913Y-4069D01*
X-921Y-4069D01*
X-927Y-4070D01*
X-932D01*
X-935D01*
X-936D01*
X-954Y-4069D01*
X-971Y-4069D01*
X-986Y-4066D01*
X-1000Y-4064D01*
X-1014Y-4061D01*
X-1026Y-4058D01*
X-1037Y-4054D01*
X-1046Y-4050D01*
X-1055Y-4047D01*
X-1062Y-4043D01*
X-1068Y-4040D01*
X-1073Y-4036D01*
X-1077Y-4034D01*
X-1080Y-4032D01*
X-1082Y-4031D01*
X-1082Y-4030D01*
X-1090Y-4023D01*
X-1098Y-4015D01*
X-1104Y-4007D01*
X-1109Y-3999D01*
X-1113Y-3990D01*
X-1118Y-3982D01*
X-1123Y-3968D01*
X-1127Y-3954D01*
X-1127Y-3948D01*
X-1128Y-3944D01*
X-1129Y-3940D01*
Y-3934D01*
X-1128Y-3924D01*
X-1127Y-3914D01*
X-1124Y-3906D01*
X-1121Y-3897D01*
X-1115Y-3881D01*
X-1106Y-3867D01*
X-1098Y-3856D01*
X-1094Y-3852D01*
X-1090Y-3848D01*
X-1088Y-3845D01*
X-1086Y-3843D01*
X-1085Y-3842D01*
X-1084Y-3841D01*
X-1075Y-3835D01*
X-1065Y-3829D01*
X-1054Y-3824D01*
X-1042Y-3819D01*
X-1019Y-3813D01*
X-996Y-3808D01*
X-986Y-3806D01*
X-975Y-3805D01*
X-966Y-3804D01*
X-958Y-3804D01*
X-952Y-3803D01*
X-947D01*
X-944D01*
X-943D01*
X-925Y-3804D01*
D02*
G37*
G36*
X-682Y-4156D02*
X-936D01*
X-910Y-4155D01*
X-886Y-4152D01*
X-864Y-4148D01*
X-854Y-4145D01*
X-845Y-4143D01*
X-837Y-4141D01*
X-828Y-4139D01*
X-822Y-4137D01*
X-817Y-4134D01*
X-812Y-4133D01*
X-809Y-4131D01*
X-807Y-4131D01*
X-806D01*
X-786Y-4120D01*
X-767Y-4109D01*
X-752Y-4097D01*
X-738Y-4085D01*
X-728Y-4075D01*
X-721Y-4066D01*
X-719Y-4062D01*
X-716Y-4060D01*
X-715Y-4058D01*
Y-4058D01*
X-709Y-4049D01*
X-704Y-4039D01*
X-696Y-4020D01*
X-690Y-4002D01*
X-686Y-3984D01*
X-685Y-3976D01*
X-683Y-3969D01*
X-682Y-3962D01*
Y-3956D01*
X-682Y-3952D01*
Y-4156D01*
D02*
G37*
G36*
X-494Y-5463D02*
X-1198D01*
Y-5266D01*
X-494Y-5463D01*
D02*
G37*
G36*
X-1046Y-5587D02*
X-1039Y-5588D01*
X-1032Y-5590D01*
X-1026Y-5593D01*
X-1021Y-5594D01*
X-1017Y-5596D01*
X-1015Y-5597D01*
X-1014Y-5598D01*
X-1008Y-5603D01*
X-1003Y-5608D01*
X-998Y-5613D01*
X-994Y-5619D01*
X-991Y-5624D01*
X-989Y-5627D01*
X-988Y-5630D01*
X-987Y-5631D01*
X-983Y-5641D01*
X-980Y-5652D01*
X-978Y-5663D01*
X-975Y-5675D01*
X-973Y-5686D01*
X-972Y-5696D01*
X-971Y-5699D01*
X-970Y-5702D01*
Y-5704D01*
X-968Y-5721D01*
X-965Y-5737D01*
X-963Y-5751D01*
X-960Y-5764D01*
X-957Y-5776D01*
X-955Y-5787D01*
X-952Y-5798D01*
X-950Y-5807D01*
X-947Y-5815D01*
X-945Y-5822D01*
X-944Y-5828D01*
X-941Y-5832D01*
X-940Y-5836D01*
X-939Y-5839D01*
X-938Y-5841D01*
Y-5841D01*
X-969Y-5841D01*
X-989Y-5840D01*
X-1006Y-5838D01*
X-1020Y-5836D01*
X-1032Y-5834D01*
X-1041Y-5832D01*
X-1048Y-5830D01*
X-1051Y-5828D01*
X-1053Y-5827D01*
X-1066Y-5820D01*
X-1077Y-5811D01*
X-1088Y-5802D01*
X-1096Y-5793D01*
X-1102Y-5785D01*
X-1107Y-5778D01*
X-1110Y-5773D01*
X-1111Y-5773D01*
Y-5772D01*
X-1118Y-5757D01*
X-1123Y-5742D01*
X-1127Y-5728D01*
X-1129Y-5714D01*
X-1130Y-5703D01*
X-1131Y-5698D01*
X-1132Y-5694D01*
Y-5686D01*
X-1131Y-5669D01*
X-1128Y-5654D01*
X-1124Y-5641D01*
X-1121Y-5630D01*
X-1116Y-5622D01*
X-1113Y-5616D01*
X-1110Y-5613D01*
X-1110Y-5612D01*
X-1101Y-5604D01*
X-1092Y-5597D01*
X-1082Y-5593D01*
X-1073Y-5590D01*
X-1066Y-5588D01*
X-1059Y-5587D01*
X-1056Y-5587D01*
X-1054D01*
X-1046Y-5587D01*
D02*
G37*
G36*
X-682Y-6570D02*
X-682Y-6554D01*
X-685Y-6537D01*
X-690Y-6522D01*
X-695Y-6507D01*
X-702Y-6494D01*
X-709Y-6481D01*
X-717Y-6469D01*
X-724Y-6459D01*
X-733Y-6449D01*
X-741Y-6441D01*
X-748Y-6434D01*
X-755Y-6429D01*
X-760Y-6424D01*
X-764Y-6421D01*
X-767Y-6418D01*
X-768Y-6418D01*
X-753Y-6411D01*
X-741Y-6404D01*
X-730Y-6396D01*
X-721Y-6387D01*
X-714Y-6379D01*
X-709Y-6373D01*
X-705Y-6369D01*
X-704Y-6368D01*
Y-6368D01*
X-697Y-6354D01*
X-691Y-6339D01*
X-688Y-6324D01*
X-685Y-6310D01*
X-683Y-6297D01*
X-682Y-6292D01*
X-682Y-6287D01*
Y-6570D01*
D02*
G37*
G36*
Y-6723D02*
X-848D01*
X-832Y-6723D01*
X-818Y-6722D01*
X-805Y-6720D01*
X-792Y-6717D01*
X-781Y-6714D01*
X-771Y-6711D01*
X-762Y-6707D01*
X-754Y-6703D01*
X-747Y-6700D01*
X-740Y-6696D01*
X-735Y-6693D01*
X-730Y-6689D01*
X-727Y-6687D01*
X-725Y-6685D01*
X-724Y-6684D01*
X-723Y-6683D01*
X-716Y-6676D01*
X-709Y-6667D01*
X-704Y-6658D01*
X-699Y-6649D01*
X-692Y-6630D01*
X-687Y-6613D01*
X-685Y-6604D01*
X-684Y-6596D01*
X-683Y-6589D01*
X-682Y-6582D01*
X-682Y-6578D01*
Y-6723D01*
D02*
G37*
G36*
X-925Y-6923D02*
X-909Y-6924D01*
X-894Y-6926D01*
X-880Y-6929D01*
X-867Y-6932D01*
X-855Y-6935D01*
X-844Y-6939D01*
X-834Y-6943D01*
X-826Y-6947D01*
X-818Y-6951D01*
X-812Y-6953D01*
X-807Y-6956D01*
X-803Y-6959D01*
X-800Y-6962D01*
X-798Y-6962D01*
X-797Y-6963D01*
X-789Y-6971D01*
X-781Y-6979D01*
X-774Y-6987D01*
X-769Y-6996D01*
X-764Y-7004D01*
X-760Y-7011D01*
X-753Y-7026D01*
X-750Y-7038D01*
X-749Y-7044D01*
X-748Y-7049D01*
X-747Y-7052D01*
Y-7058D01*
X-748Y-7067D01*
X-750Y-7077D01*
X-752Y-7086D01*
X-755Y-7095D01*
X-762Y-7111D01*
X-771Y-7124D01*
X-780Y-7135D01*
X-783Y-7140D01*
X-787Y-7144D01*
X-790Y-7147D01*
X-792Y-7149D01*
X-794Y-7150D01*
X-795Y-7151D01*
X-804Y-7157D01*
X-814Y-7164D01*
X-825Y-7169D01*
X-837Y-7173D01*
X-860Y-7180D01*
X-883Y-7185D01*
X-894Y-7187D01*
X-904Y-7187D01*
X-913Y-7188D01*
X-921Y-7189D01*
X-927Y-7190D01*
X-932D01*
X-935D01*
X-936D01*
X-954Y-7189D01*
X-971Y-7188D01*
X-986Y-7186D01*
X-1000Y-7184D01*
X-1014Y-7181D01*
X-1026Y-7177D01*
X-1037Y-7173D01*
X-1046Y-7170D01*
X-1055Y-7166D01*
X-1062Y-7162D01*
X-1068Y-7159D01*
X-1073Y-7156D01*
X-1077Y-7153D01*
X-1080Y-7151D01*
X-1082Y-7151D01*
X-1082Y-7150D01*
X-1090Y-7142D01*
X-1098Y-7134D01*
X-1104Y-7126D01*
X-1109Y-7118D01*
X-1113Y-7110D01*
X-1118Y-7102D01*
X-1123Y-7087D01*
X-1127Y-7074D01*
X-1127Y-7068D01*
X-1128Y-7063D01*
X-1129Y-7059D01*
Y-7054D01*
X-1128Y-7044D01*
X-1127Y-7034D01*
X-1124Y-7025D01*
X-1121Y-7016D01*
X-1115Y-7001D01*
X-1106Y-6987D01*
X-1098Y-6976D01*
X-1094Y-6971D01*
X-1090Y-6968D01*
X-1088Y-6965D01*
X-1086Y-6962D01*
X-1085Y-6962D01*
X-1084Y-6961D01*
X-1075Y-6954D01*
X-1065Y-6948D01*
X-1054Y-6943D01*
X-1042Y-6939D01*
X-1019Y-6932D01*
X-996Y-6928D01*
X-986Y-6925D01*
X-975Y-6925D01*
X-966Y-6924D01*
X-958Y-6923D01*
X-952Y-6923D01*
X-947D01*
X-944D01*
X-943D01*
X-925Y-6923D01*
D02*
G37*
G36*
X-682Y-7275D02*
X-936D01*
X-910Y-7275D01*
X-886Y-7272D01*
X-864Y-7267D01*
X-854Y-7265D01*
X-845Y-7263D01*
X-837Y-7261D01*
X-828Y-7258D01*
X-822Y-7256D01*
X-817Y-7254D01*
X-812Y-7252D01*
X-809Y-7251D01*
X-807Y-7250D01*
X-806D01*
X-786Y-7240D01*
X-767Y-7229D01*
X-752Y-7216D01*
X-738Y-7204D01*
X-728Y-7194D01*
X-721Y-7185D01*
X-719Y-7182D01*
X-716Y-7179D01*
X-715Y-7178D01*
Y-7177D01*
X-709Y-7168D01*
X-704Y-7159D01*
X-696Y-7139D01*
X-690Y-7121D01*
X-686Y-7103D01*
X-685Y-7095D01*
X-683Y-7089D01*
X-682Y-7082D01*
Y-7076D01*
X-682Y-7072D01*
Y-7275D01*
D02*
G37*
G36*
X-521Y-8628D02*
X-1186D01*
X-1112Y-8617D01*
X-1113Y-8609D01*
X-1113Y-8601D01*
X-1114Y-8595D01*
Y-8590D01*
X-1115Y-8585D01*
Y-8573D01*
X-1114Y-8567D01*
X-1113Y-8562D01*
X-1112Y-8558D01*
X-1110Y-8555D01*
X-1110Y-8553D01*
X-1109Y-8551D01*
Y-8551D01*
X-1104Y-8545D01*
X-1099Y-8540D01*
X-1094Y-8537D01*
X-1093Y-8537D01*
X-1093D01*
X-1088Y-8535D01*
X-1081Y-8534D01*
X-1073Y-8533D01*
X-1066D01*
X-1059Y-8532D01*
X-1053D01*
X-1048D01*
X-1048D01*
X-1047D01*
X-758D01*
Y-8617D01*
X-693D01*
Y-8532D01*
X-521D01*
Y-8628D01*
D02*
G37*
G36*
X-1186D02*
D01*
D01*
D01*
D02*
G37*
G36*
X-923Y-9970D02*
X-907Y-9971D01*
X-892Y-9973D01*
X-878Y-9976D01*
X-865Y-9979D01*
X-854Y-9983D01*
X-843Y-9987D01*
X-834Y-9990D01*
X-826Y-9994D01*
X-818Y-9998D01*
X-812Y-10001D01*
X-807Y-10004D01*
X-803Y-10007D01*
X-800Y-10010D01*
X-799Y-10010D01*
X-798Y-10011D01*
X-790Y-10019D01*
X-783Y-10027D01*
X-776Y-10036D01*
X-771Y-10045D01*
X-766Y-10054D01*
X-763Y-10062D01*
X-757Y-10079D01*
X-753Y-10093D01*
X-752Y-10100D01*
X-752Y-10105D01*
X-751Y-10109D01*
Y-10115D01*
X-752Y-10126D01*
X-753Y-10137D01*
X-755Y-10148D01*
X-758Y-10157D01*
X-766Y-10175D01*
X-775Y-10190D01*
X-779Y-10196D01*
X-783Y-10202D01*
X-787Y-10207D01*
X-791Y-10211D01*
X-794Y-10214D01*
X-796Y-10216D01*
X-797Y-10218D01*
X-798Y-10218D01*
X-808Y-10226D01*
X-817Y-10232D01*
X-828Y-10238D01*
X-840Y-10243D01*
X-851Y-10247D01*
X-863Y-10250D01*
X-885Y-10255D01*
X-896Y-10257D01*
X-905Y-10258D01*
X-914Y-10259D01*
X-922Y-10260D01*
X-928Y-10260D01*
X-933D01*
X-936D01*
X-937D01*
X-955Y-10260D01*
X-971Y-10259D01*
X-986Y-10257D01*
X-1000Y-10254D01*
X-1014Y-10251D01*
X-1026Y-10247D01*
X-1037Y-10244D01*
X-1045Y-10240D01*
X-1054Y-10235D01*
X-1062Y-10232D01*
X-1068Y-10228D01*
X-1073Y-10225D01*
X-1076Y-10222D01*
X-1079Y-10220D01*
X-1081Y-10219D01*
X-1082Y-10218D01*
X-1090Y-10210D01*
X-1097Y-10202D01*
X-1104Y-10193D01*
X-1109Y-10185D01*
X-1113Y-10176D01*
X-1117Y-10167D01*
X-1123Y-10151D01*
X-1127Y-10137D01*
X-1127Y-10131D01*
X-1128Y-10125D01*
X-1129Y-10121D01*
Y-10115D01*
X-1128Y-10103D01*
X-1127Y-10093D01*
X-1124Y-10082D01*
X-1121Y-10072D01*
X-1114Y-10055D01*
X-1105Y-10040D01*
X-1102Y-10033D01*
X-1097Y-10027D01*
X-1093Y-10023D01*
X-1090Y-10018D01*
X-1087Y-10015D01*
X-1085Y-10013D01*
X-1083Y-10012D01*
X-1082Y-10011D01*
X-1073Y-10004D01*
X-1062Y-9998D01*
X-1051Y-9992D01*
X-1040Y-9987D01*
X-1017Y-9980D01*
X-993Y-9975D01*
X-983Y-9973D01*
X-972Y-9972D01*
X-964Y-9971D01*
X-955Y-9970D01*
X-949Y-9970D01*
X-944D01*
X-941D01*
X-940D01*
X-923Y-9970D01*
D02*
G37*
G36*
X-682Y-10960D02*
X-682Y-10943D01*
X-685Y-10927D01*
X-690Y-10911D01*
X-695Y-10897D01*
X-702Y-10883D01*
X-709Y-10871D01*
X-717Y-10859D01*
X-724Y-10849D01*
X-733Y-10839D01*
X-741Y-10831D01*
X-748Y-10824D01*
X-755Y-10818D01*
X-760Y-10813D01*
X-764Y-10810D01*
X-767Y-10808D01*
X-768Y-10807D01*
X-753Y-10801D01*
X-741Y-10793D01*
X-730Y-10785D01*
X-721Y-10777D01*
X-714Y-10769D01*
X-709Y-10763D01*
X-705Y-10759D01*
X-704Y-10758D01*
Y-10757D01*
X-697Y-10743D01*
X-691Y-10728D01*
X-688Y-10714D01*
X-685Y-10700D01*
X-683Y-10687D01*
X-682Y-10682D01*
X-682Y-10677D01*
Y-10960D01*
D02*
G37*
G36*
Y-11113D02*
X-848D01*
X-832Y-11112D01*
X-818Y-11111D01*
X-805Y-11109D01*
X-792Y-11107D01*
X-781Y-11104D01*
X-771Y-11100D01*
X-762Y-11097D01*
X-754Y-11093D01*
X-747Y-11089D01*
X-740Y-11086D01*
X-735Y-11083D01*
X-730Y-11079D01*
X-727Y-11077D01*
X-725Y-11075D01*
X-724Y-11074D01*
X-723Y-11073D01*
X-716Y-11066D01*
X-709Y-11057D01*
X-704Y-11048D01*
X-699Y-11039D01*
X-692Y-11020D01*
X-687Y-11002D01*
X-685Y-10993D01*
X-684Y-10985D01*
X-683Y-10979D01*
X-682Y-10972D01*
X-682Y-10967D01*
Y-11113D01*
D02*
G37*
D10*
X-7865Y-4062D02*
G03*
X-7865Y-4062I-49J0D01*
G01*
X-10115Y-4049D02*
G03*
X-10115Y-4049I-49J0D01*
G01*
X-3365D02*
G03*
X-3365Y-4049I-49J0D01*
G01*
X-5615Y-4062D02*
G03*
X-5615Y-4062I-49J0D01*
G01*
X-6750Y-862D02*
G03*
X-6750Y-862I-49J0D01*
G01*
D11*
X-8251Y-4909D02*
G03*
X-8251Y-4909I-79J0D01*
G01*
X-10501Y-4896D02*
G03*
X-10501Y-4896I-79J0D01*
G01*
X-3751D02*
G03*
X-3751Y-4896I-79J0D01*
G01*
X-6001Y-4909D02*
G03*
X-6001Y-4909I-79J0D01*
G01*
X-7136Y-1709D02*
G03*
X-7136Y-1709I-79J0D01*
G01*
D12*
X-7752Y15130D02*
G03*
X-7752Y15130I-316J0D01*
G01*
X-16119Y15930D02*
G03*
X-16618Y15430I0J-500D01*
G01*
Y2130D02*
G03*
X-16119Y1630I500J0D01*
G01*
X382D02*
G03*
X882Y2130I0J500D01*
G01*
Y15430D02*
G03*
X382Y15930I-500J0D01*
G01*
X-16119D02*
X-15769D01*
X-16618Y2130D02*
Y15430D01*
X-16119Y1630D02*
X382D01*
X882Y2130D02*
Y15430D01*
X-15769Y15930D02*
X382Y15930D01*
X-14269Y-2070D02*
X-14869D01*
Y-2470D01*
Y-2670D02*
Y-2870D01*
Y-2770D01*
X-14469D01*
Y-2670D01*
X-14869Y-3170D02*
X-14469D01*
Y-3470D01*
X-14569Y-3570D01*
X-14869D01*
Y-4070D02*
Y-3870D01*
X-14769Y-3770D01*
X-14569D01*
X-14469Y-3870D01*
Y-4070D01*
X-14569Y-4170D01*
X-14669D01*
Y-3770D01*
X-14469Y-4470D02*
Y-4670D01*
X-14569Y-4770D01*
X-14869D01*
Y-4470D01*
X-14769Y-4370D01*
X-14669Y-4470D01*
Y-4770D01*
X-14469Y-4970D02*
X-14869D01*
X-14669D01*
X-14569Y-5070D01*
X-14469Y-5169D01*
Y-5269D01*
X-14869Y-5569D02*
Y-5769D01*
Y-5669D01*
X-14469D01*
Y-5569D01*
X-14369Y-6169D02*
X-14469D01*
Y-6069D01*
Y-6269D01*
Y-6169D01*
X-14769D01*
X-14869Y-6269D01*
X-14469Y-6569D02*
X-14769D01*
X-14869Y-6669D01*
Y-6969D01*
X-14969D01*
X-15069Y-6869D01*
Y-6769D01*
X-14869Y-6969D02*
X-14469D01*
Y-7769D02*
X-14869D01*
X-14669D01*
X-14569Y-7869D01*
X-14469Y-7969D01*
Y-8069D01*
X-14869Y-8668D02*
Y-8468D01*
X-14769Y-8368D01*
X-14569D01*
X-14469Y-8468D01*
Y-8668D01*
X-14569Y-8768D01*
X-14669D01*
Y-8368D01*
X-14869Y-9068D02*
X-14369D01*
X-14569D01*
Y-8968D01*
Y-9168D01*
Y-9068D01*
X-14369D01*
X-14269Y-9168D01*
X-14869Y-9768D02*
Y-9568D01*
X-14769Y-9468D01*
X-14569D01*
X-14469Y-9568D01*
Y-9768D01*
X-14569Y-9868D01*
X-14669D01*
Y-9468D01*
X-14469Y-10068D02*
X-14869D01*
X-14669D01*
X-14569Y-10168D01*
X-14469Y-10268D01*
Y-10368D01*
X-14869Y-10968D02*
Y-10768D01*
X-14769Y-10668D01*
X-14569D01*
X-14469Y-10768D01*
Y-10968D01*
X-14569Y-11068D01*
X-14669D01*
Y-10668D01*
X-14869Y-11267D02*
X-14469D01*
Y-11567D01*
X-14569Y-11667D01*
X-14869D01*
X-14469Y-12267D02*
Y-11967D01*
X-14569Y-11867D01*
X-14769D01*
X-14869Y-11967D01*
Y-12267D01*
Y-12767D02*
Y-12567D01*
X-14769Y-12467D01*
X-14569D01*
X-14469Y-12567D01*
Y-12767D01*
X-14569Y-12867D01*
X-14669D01*
Y-12467D01*
X-15568Y16879D02*
Y16279D01*
X-15169D01*
X-14869D02*
X-14669D01*
X-14569Y16379D01*
Y16579D01*
X-14669Y16679D01*
X-14869D01*
X-14969Y16579D01*
Y16379D01*
X-14869Y16279D01*
X-14369Y16679D02*
Y16379D01*
X-14269Y16279D01*
X-14169Y16379D01*
X-14069Y16279D01*
X-13969Y16379D01*
Y16679D01*
X-13169Y16279D02*
Y16679D01*
X-12869D01*
X-12769Y16579D01*
Y16279D01*
X-12470D02*
X-12270D01*
X-12170Y16379D01*
Y16579D01*
X-12270Y16679D01*
X-12470D01*
X-12569Y16579D01*
Y16379D01*
X-12470Y16279D01*
X-11970D02*
X-11770D01*
X-11870D01*
Y16679D01*
X-11970D01*
X-11470Y16279D02*
X-11170D01*
X-11070Y16379D01*
X-11170Y16479D01*
X-11370D01*
X-11470Y16579D01*
X-11370Y16679D01*
X-11070D01*
X-10570Y16279D02*
X-10770D01*
X-10870Y16379D01*
Y16579D01*
X-10770Y16679D01*
X-10570D01*
X-10470Y16579D01*
Y16479D01*
X-10870D01*
X-9670Y16679D02*
X-9470Y16279D01*
X-9271Y16679D01*
X-8971Y16279D02*
X-8771D01*
X-8671Y16379D01*
Y16579D01*
X-8771Y16679D01*
X-8971D01*
X-9071Y16579D01*
Y16379D01*
X-8971Y16279D01*
X-8471D02*
X-8271D01*
X-8371D01*
Y16879D01*
X-8471D01*
X-7871Y16779D02*
Y16679D01*
X-7971D01*
X-7771D01*
X-7871D01*
Y16379D01*
X-7771Y16279D01*
X-7371Y16679D02*
X-7171D01*
X-7071Y16579D01*
Y16279D01*
X-7371D01*
X-7471Y16379D01*
X-7371Y16479D01*
X-7071D01*
X-6671Y16080D02*
X-6571D01*
X-6471Y16179D01*
Y16679D01*
X-6771D01*
X-6871Y16579D01*
Y16379D01*
X-6771Y16279D01*
X-6471D01*
X-5972D02*
X-6172D01*
X-6272Y16379D01*
Y16579D01*
X-6172Y16679D01*
X-5972D01*
X-5872Y16579D01*
Y16479D01*
X-6272D01*
X-5072Y16679D02*
Y16279D01*
Y16479D01*
X-4972Y16579D01*
X-4872Y16679D01*
X-4772D01*
X-4172Y16279D02*
X-4372D01*
X-4472Y16379D01*
Y16579D01*
X-4372Y16679D01*
X-4172D01*
X-4072Y16579D01*
Y16479D01*
X-4472D01*
X-3772Y16279D02*
Y16779D01*
Y16579D01*
X-3872D01*
X-3672D01*
X-3772D01*
Y16779D01*
X-3672Y16879D01*
X-3073Y16279D02*
X-3272D01*
X-3372Y16379D01*
Y16579D01*
X-3272Y16679D01*
X-3073D01*
X-2973Y16579D01*
Y16479D01*
X-3372D01*
X-2773Y16679D02*
Y16279D01*
Y16479D01*
X-2673Y16579D01*
X-2573Y16679D01*
X-2473D01*
X-1873Y16279D02*
X-2073D01*
X-2173Y16379D01*
Y16579D01*
X-2073Y16679D01*
X-1873D01*
X-1773Y16579D01*
Y16479D01*
X-2173D01*
X-1573Y16279D02*
Y16679D01*
X-1273D01*
X-1173Y16579D01*
Y16279D01*
X-573Y16679D02*
X-873D01*
X-973Y16579D01*
Y16379D01*
X-873Y16279D01*
X-573D01*
X-74D02*
X-273D01*
X-373Y16379D01*
Y16579D01*
X-273Y16679D01*
X-74D01*
X26Y16579D01*
Y16479D01*
X-373D01*
D13*
X-12205Y9543D02*
G03*
X-12232Y9516I-14J-14D01*
G01*
D02*
G03*
X-12205Y9543I14J14D01*
G01*
X-5297D02*
G03*
X-5325Y9516I-14J-14D01*
G01*
D02*
G03*
X-5297Y9543I14J14D01*
G01*
D14*
X-10565Y11183D02*
G03*
X-12079Y9669I-757J-757D01*
G01*
D02*
G03*
X-10565Y11183I757J757D01*
G01*
X-3658D02*
G03*
X-5172Y9669I-757J-757D01*
G01*
D02*
G03*
X-3658Y11183I757J757D01*
G01*
X-9983Y-4594D02*
X-8015D01*
X-9983Y-5381D02*
X-8015D01*
Y-4594D01*
X-9983Y-5381D02*
Y-4594D01*
X-11635Y-12239D02*
X-11163D01*
X-11635Y-12810D02*
X-11163D01*
X-11635Y-13089D02*
X-11163D01*
X-11635Y-13660D02*
X-11163D01*
X-4606Y-14613D02*
X-4393D01*
X-4606Y-13235D02*
X-4393D01*
X-3810Y-14031D02*
Y-13818D01*
X-5188Y-14031D02*
Y-13818D01*
X-12233Y-5368D02*
Y-4581D01*
X-10265Y-5368D02*
Y-4581D01*
X-12233Y-5368D02*
X-10265D01*
X-12233Y-4581D02*
X-10265D01*
X-5483Y-5368D02*
Y-4581D01*
X-3515Y-5368D02*
Y-4581D01*
X-5483Y-5368D02*
X-3515D01*
X-5483Y-4581D02*
X-3515D01*
X-7733Y-5381D02*
Y-4594D01*
X-5765Y-5381D02*
Y-4594D01*
X-7733Y-5381D02*
X-5765D01*
X-7733Y-4594D02*
X-5765D01*
X-8868Y-2181D02*
Y-1394D01*
X-6899Y-2181D02*
Y-1394D01*
X-8868Y-2181D02*
X-6899D01*
X-8868Y-1394D02*
X-6899D01*
X-5715Y7525D02*
X-5322D01*
X-5715Y8234D02*
X-5322D01*
X-12615Y7475D02*
X-12222D01*
X-12615Y8184D02*
X-12222D01*
X-3465Y7525D02*
X-3072D01*
X-3465Y8234D02*
X-3072D01*
X-10365Y7475D02*
X-9972D01*
X-10365Y8184D02*
X-9972D01*
D15*
X-7483Y-11572D02*
X-7276D01*
X-10206D02*
Y-11366D01*
Y-8642D02*
X-10000D01*
X-7483D02*
X-7276D01*
Y-11572D02*
Y-11366D01*
X-10206Y-11572D02*
X-10000D01*
X-10206Y-8848D02*
Y-8642D01*
X-7276Y-8848D02*
Y-8642D01*
D16*
X-7102Y-7770D02*
X-7435Y-8104D01*
Y-7770D02*
X-7102Y-8104D01*
X-7269Y-7770D02*
Y-8104D01*
X-7435Y-7937D02*
X-7102D01*
D17*
X-11852Y-8444D02*
X-11901Y-8395D01*
X-11999D01*
X-12048Y-8444D01*
Y-8641D01*
X-11999Y-8690D01*
X-11901D01*
X-11852Y-8641D01*
X-11753Y-8690D02*
X-11655D01*
X-11704D01*
Y-8395D01*
X-11753Y-8444D01*
X-4898Y-11026D02*
X-4948Y-10977D01*
X-5046D01*
X-5095Y-11026D01*
Y-11223D01*
X-5046Y-11272D01*
X-4948D01*
X-4898Y-11223D01*
X-4603Y-11272D02*
X-4800D01*
X-4603Y-11075D01*
Y-11026D01*
X-4652Y-10977D01*
X-4751D01*
X-4800Y-11026D01*
X-9148Y-12376D02*
X-9198Y-12327D01*
X-9296D01*
X-9345Y-12376D01*
Y-12573D01*
X-9296Y-12622D01*
X-9198D01*
X-9148Y-12573D01*
X-9050Y-12376D02*
X-9001Y-12327D01*
X-8902D01*
X-8853Y-12376D01*
Y-12425D01*
X-8902Y-12474D01*
X-8952D01*
X-8902D01*
X-8853Y-12524D01*
Y-12573D01*
X-8902Y-12622D01*
X-9001D01*
X-9050Y-12573D01*
X-12452Y-9894D02*
X-12501Y-9845D01*
X-12599D01*
X-12649Y-9894D01*
Y-10091D01*
X-12599Y-10140D01*
X-12501D01*
X-12452Y-10091D01*
X-12206Y-10140D02*
Y-9845D01*
X-12353Y-9993D01*
X-12157D01*
X-9148Y-12926D02*
X-9198Y-12877D01*
X-9296D01*
X-9345Y-12926D01*
Y-13123D01*
X-9296Y-13172D01*
X-9198D01*
X-9148Y-13123D01*
X-8853Y-12877D02*
X-9050D01*
Y-13024D01*
X-8952Y-12975D01*
X-8902D01*
X-8853Y-13024D01*
Y-13123D01*
X-8902Y-13172D01*
X-9001D01*
X-9050Y-13123D01*
X-12202Y-14194D02*
X-12251Y-14145D01*
X-12349D01*
X-12399Y-14194D01*
Y-14391D01*
X-12349Y-14440D01*
X-12251D01*
X-12202Y-14391D01*
X-11907Y-14145D02*
X-12005Y-14194D01*
X-12103Y-14293D01*
Y-14391D01*
X-12054Y-14440D01*
X-11956D01*
X-11907Y-14391D01*
Y-14342D01*
X-11956Y-14293D01*
X-12103D01*
X-3520Y-15421D02*
X-3471Y-15372D01*
Y-15274D01*
X-3520Y-15224D01*
X-3717D01*
X-3766Y-15274D01*
Y-15372D01*
X-3717Y-15421D01*
X-3471Y-15520D02*
Y-15716D01*
X-3520D01*
X-3717Y-15520D01*
X-3766D01*
X-2470Y-16221D02*
X-2421Y-16172D01*
Y-16074D01*
X-2470Y-16024D01*
X-2667D01*
X-2716Y-16074D01*
Y-16172D01*
X-2667Y-16221D01*
X-2470Y-16320D02*
X-2421Y-16369D01*
Y-16467D01*
X-2470Y-16516D01*
X-2519D01*
X-2569Y-16467D01*
X-2618Y-16516D01*
X-2667D01*
X-2716Y-16467D01*
Y-16369D01*
X-2667Y-16320D01*
X-2618D01*
X-2569Y-16369D01*
X-2519Y-16320D01*
X-2470D01*
X-2569Y-16369D02*
Y-16467D01*
X-4720Y-15471D02*
X-4671Y-15422D01*
Y-15324D01*
X-4720Y-15274D01*
X-4917D01*
X-4966Y-15324D01*
Y-15422D01*
X-4917Y-15471D01*
Y-15570D02*
X-4966Y-15619D01*
Y-15717D01*
X-4917Y-15766D01*
X-4720D01*
X-4671Y-15717D01*
Y-15619D01*
X-4720Y-15570D01*
X-4769D01*
X-4818Y-15619D01*
Y-15766D01*
X-4120Y-15198D02*
X-4071Y-15149D01*
Y-15051D01*
X-4120Y-15001D01*
X-4317D01*
X-4366Y-15051D01*
Y-15149D01*
X-4317Y-15198D01*
X-4366Y-15297D02*
Y-15395D01*
Y-15346D01*
X-4071D01*
X-4120Y-15297D01*
Y-15543D02*
X-4071Y-15592D01*
Y-15690D01*
X-4120Y-15739D01*
X-4317D01*
X-4366Y-15690D01*
Y-15592D01*
X-4317Y-15543D01*
X-4120D01*
X-5320Y-15297D02*
X-5271Y-15248D01*
Y-15150D01*
X-5320Y-15101D01*
X-5517D01*
X-5566Y-15150D01*
Y-15248D01*
X-5517Y-15297D01*
X-5566Y-15396D02*
Y-15494D01*
Y-15445D01*
X-5271D01*
X-5320Y-15396D01*
X-5566Y-15642D02*
Y-15740D01*
Y-15691D01*
X-5271D01*
X-5320Y-15642D01*
X-5920Y-15198D02*
X-5871Y-15149D01*
Y-15051D01*
X-5920Y-15001D01*
X-6117D01*
X-6166Y-15051D01*
Y-15149D01*
X-6117Y-15198D01*
X-6166Y-15297D02*
Y-15395D01*
Y-15346D01*
X-5871D01*
X-5920Y-15297D01*
X-6166Y-15739D02*
Y-15543D01*
X-5969Y-15739D01*
X-5920D01*
X-5871Y-15690D01*
Y-15592D01*
X-5920Y-15543D01*
X-10051Y-6802D02*
X-10002Y-6753D01*
Y-6655D01*
X-10051Y-6605D01*
X-10248D01*
X-10297Y-6655D01*
Y-6753D01*
X-10248Y-6802D01*
X-10297Y-6901D02*
Y-6999D01*
Y-6950D01*
X-10002D01*
X-10051Y-6901D01*
X-10297Y-7294D02*
X-10002D01*
X-10149Y-7147D01*
Y-7343D01*
X-7801Y-6752D02*
X-7752Y-6703D01*
Y-6605D01*
X-7801Y-6555D01*
X-7998D01*
X-8047Y-6605D01*
Y-6703D01*
X-7998Y-6752D01*
X-8047Y-6851D02*
Y-6949D01*
Y-6900D01*
X-7752D01*
X-7801Y-6851D01*
X-7752Y-7293D02*
Y-7097D01*
X-7899D01*
X-7850Y-7195D01*
Y-7244D01*
X-7899Y-7293D01*
X-7998D01*
X-8047Y-7244D01*
Y-7146D01*
X-7998Y-7097D01*
X-5551Y-6752D02*
X-5502Y-6703D01*
Y-6605D01*
X-5551Y-6555D01*
X-5748D01*
X-5797Y-6605D01*
Y-6703D01*
X-5748Y-6752D01*
X-5797Y-6851D02*
Y-6949D01*
Y-6900D01*
X-5502D01*
X-5551Y-6851D01*
X-5502Y-7293D02*
X-5551Y-7195D01*
X-5649Y-7097D01*
X-5748D01*
X-5797Y-7146D01*
Y-7244D01*
X-5748Y-7293D01*
X-5698D01*
X-5649Y-7244D01*
Y-7097D01*
X-3301Y-6752D02*
X-3252Y-6703D01*
Y-6605D01*
X-3301Y-6555D01*
X-3498D01*
X-3547Y-6605D01*
Y-6703D01*
X-3498Y-6752D01*
X-3547Y-6851D02*
Y-6949D01*
Y-6900D01*
X-3252D01*
X-3301Y-6851D01*
X-3252Y-7097D02*
Y-7293D01*
X-3301D01*
X-3498Y-7097D01*
X-3547D01*
X-5901Y-1602D02*
X-5852Y-1553D01*
Y-1455D01*
X-5901Y-1405D01*
X-6098D01*
X-6147Y-1455D01*
Y-1553D01*
X-6098Y-1602D01*
X-6147Y-1701D02*
Y-1799D01*
Y-1750D01*
X-5852D01*
X-5901Y-1701D01*
Y-1947D02*
X-5852Y-1996D01*
Y-2094D01*
X-5901Y-2143D01*
X-5950D01*
X-5999Y-2094D01*
X-6048Y-2143D01*
X-6098D01*
X-6147Y-2094D01*
Y-1996D01*
X-6098Y-1947D01*
X-6048D01*
X-5999Y-1996D01*
X-5950Y-1947D01*
X-5901D01*
X-5999Y-1996D02*
Y-2094D01*
X-12451Y-2828D02*
X-12402Y-2778D01*
Y-2680D01*
X-12451Y-2631D01*
X-12648D01*
X-12697Y-2680D01*
Y-2778D01*
X-12648Y-2828D01*
X-12697Y-3123D02*
Y-2926D01*
X-12500Y-3123D01*
X-12451D01*
X-12402Y-3074D01*
Y-2975D01*
X-12451Y-2926D01*
X-12697Y-3369D02*
X-12402D01*
X-12549Y-3221D01*
Y-3418D01*
X-10201Y-2828D02*
X-10152Y-2778D01*
Y-2680D01*
X-10201Y-2631D01*
X-10398D01*
X-10447Y-2680D01*
Y-2778D01*
X-10398Y-2828D01*
X-10447Y-3123D02*
Y-2926D01*
X-10250Y-3123D01*
X-10201D01*
X-10152Y-3074D01*
Y-2975D01*
X-10201Y-2926D01*
X-10152Y-3418D02*
Y-3221D01*
X-10299D01*
X-10250Y-3320D01*
Y-3369D01*
X-10299Y-3418D01*
X-10398D01*
X-10447Y-3369D01*
Y-3270D01*
X-10398Y-3221D01*
X-5901Y-2728D02*
X-5852Y-2678D01*
Y-2580D01*
X-5901Y-2531D01*
X-6098D01*
X-6147Y-2580D01*
Y-2678D01*
X-6098Y-2728D01*
X-6147Y-3023D02*
Y-2826D01*
X-5950Y-3023D01*
X-5901D01*
X-5852Y-2974D01*
Y-2875D01*
X-5901Y-2826D01*
X-5852Y-3318D02*
X-5901Y-3220D01*
X-5999Y-3121D01*
X-6098D01*
X-6147Y-3170D01*
Y-3269D01*
X-6098Y-3318D01*
X-6048D01*
X-5999Y-3269D01*
Y-3121D01*
X-4801Y-2828D02*
X-4752Y-2778D01*
Y-2680D01*
X-4801Y-2631D01*
X-4998D01*
X-5047Y-2680D01*
Y-2778D01*
X-4998Y-2828D01*
X-5047Y-3123D02*
Y-2926D01*
X-4850Y-3123D01*
X-4801D01*
X-4752Y-3074D01*
Y-2975D01*
X-4801Y-2926D01*
X-4752Y-3221D02*
Y-3418D01*
X-4801D01*
X-4998Y-3221D01*
X-5047D01*
X-4865Y-9422D02*
X-4914Y-9373D01*
X-5013D01*
X-5062Y-9422D01*
Y-9619D01*
X-5013Y-9668D01*
X-4914D01*
X-4865Y-9619D01*
X-4767Y-9422D02*
X-4718Y-9373D01*
X-4619D01*
X-4570Y-9422D01*
Y-9471D01*
X-4619Y-9520D01*
X-4669D01*
X-4619D01*
X-4570Y-9570D01*
Y-9619D01*
X-4619Y-9668D01*
X-4718D01*
X-4767Y-9619D01*
X-4275Y-9373D02*
X-4472D01*
Y-9520D01*
X-4373Y-9471D01*
X-4324D01*
X-4275Y-9520D01*
Y-9619D01*
X-4324Y-9668D01*
X-4423D01*
X-4472Y-9619D01*
X-4865Y-9972D02*
X-4914Y-9923D01*
X-5013D01*
X-5062Y-9972D01*
Y-10169D01*
X-5013Y-10218D01*
X-4914D01*
X-4865Y-10169D01*
X-4767Y-9972D02*
X-4718Y-9923D01*
X-4619D01*
X-4570Y-9972D01*
Y-10021D01*
X-4619Y-10070D01*
X-4669D01*
X-4619D01*
X-4570Y-10120D01*
Y-10169D01*
X-4619Y-10218D01*
X-4718D01*
X-4767Y-10169D01*
X-4472Y-9923D02*
X-4275D01*
Y-9972D01*
X-4472Y-10169D01*
Y-10218D01*
X-8015Y428D02*
X-8064Y477D01*
X-8163D01*
X-8212Y428D01*
Y231D01*
X-8163Y182D01*
X-8064D01*
X-8015Y231D01*
X-7720Y182D02*
X-7917D01*
X-7720Y379D01*
Y428D01*
X-7769Y477D01*
X-7868D01*
X-7917Y428D01*
X-7622D02*
X-7573Y477D01*
X-7474D01*
X-7425Y428D01*
Y379D01*
X-7474Y330D01*
X-7425Y280D01*
Y231D01*
X-7474Y182D01*
X-7573D01*
X-7622Y231D01*
Y280D01*
X-7573Y330D01*
X-7622Y379D01*
Y428D01*
X-7573Y330D02*
X-7474D01*
X-12715Y-12718D02*
Y-12423D01*
X-12568D01*
X-12519Y-12472D01*
Y-12570D01*
X-12568Y-12620D01*
X-12715D01*
X-12617D02*
X-12519Y-12718D01*
X-12420D02*
X-12322D01*
X-12371D01*
Y-12423D01*
X-12420Y-12472D01*
X-7114Y-15418D02*
Y-15123D01*
X-6967D01*
X-6918Y-15172D01*
Y-15270D01*
X-6967Y-15320D01*
X-7114D01*
X-7016D02*
X-6918Y-15418D01*
X-6623D02*
X-6819D01*
X-6623Y-15221D01*
Y-15172D01*
X-6672Y-15123D01*
X-6770D01*
X-6819Y-15172D01*
X-12814Y-13518D02*
Y-13223D01*
X-12667D01*
X-12618Y-13272D01*
Y-13370D01*
X-12667Y-13420D01*
X-12814D01*
X-12716D02*
X-12618Y-13518D01*
X-12519Y-13272D02*
X-12470Y-13223D01*
X-12372D01*
X-12323Y-13272D01*
Y-13321D01*
X-12372Y-13370D01*
X-12421D01*
X-12372D01*
X-12323Y-13420D01*
Y-13469D01*
X-12372Y-13518D01*
X-12470D01*
X-12519Y-13469D01*
X-5045Y-9122D02*
Y-8827D01*
X-4898D01*
X-4848Y-8876D01*
Y-8974D01*
X-4898Y-9024D01*
X-5045D01*
X-4947D02*
X-4848Y-9122D01*
X-4602D02*
Y-8827D01*
X-4750Y-8974D01*
X-4553D01*
X-4995Y-10722D02*
Y-10427D01*
X-4848D01*
X-4798Y-10476D01*
Y-10574D01*
X-4848Y-10624D01*
X-4995D01*
X-4897D02*
X-4798Y-10722D01*
X-4503Y-10427D02*
X-4700D01*
Y-10574D01*
X-4602Y-10525D01*
X-4552D01*
X-4503Y-10574D01*
Y-10673D01*
X-4552Y-10722D01*
X-4651D01*
X-4700Y-10673D01*
X-6487Y-12618D02*
Y-12323D01*
X-6340D01*
X-6291Y-12372D01*
Y-12470D01*
X-6340Y-12520D01*
X-6487D01*
X-6389D02*
X-6291Y-12618D01*
X-6192D02*
X-6094D01*
X-6143D01*
Y-12323D01*
X-6192Y-12372D01*
X-5946D02*
X-5897Y-12323D01*
X-5799D01*
X-5750Y-12372D01*
Y-12421D01*
X-5799Y-12470D01*
X-5848D01*
X-5799D01*
X-5750Y-12520D01*
Y-12569D01*
X-5799Y-12618D01*
X-5897D01*
X-5946Y-12569D01*
X-8164Y6032D02*
Y6327D01*
X-8017D01*
X-7968Y6278D01*
Y6180D01*
X-8017Y6130D01*
X-8164D01*
X-8066D02*
X-7968Y6032D01*
X-7869Y6327D02*
X-7673D01*
Y6278D01*
X-7869Y6081D01*
Y6032D01*
X-4037Y-12668D02*
Y-12373D01*
X-3890D01*
X-3841Y-12422D01*
Y-12520D01*
X-3890Y-12570D01*
X-4037D01*
X-3939D02*
X-3841Y-12668D01*
X-3742D02*
X-3644D01*
X-3693D01*
Y-12373D01*
X-3742Y-12422D01*
X-3496D02*
X-3447Y-12373D01*
X-3349D01*
X-3300Y-12422D01*
Y-12619D01*
X-3349Y-12668D01*
X-3447D01*
X-3496Y-12619D01*
Y-12422D01*
X-11495Y-3177D02*
Y-3423D01*
X-11446Y-3472D01*
X-11348D01*
X-11298Y-3423D01*
Y-3177D01*
X-11003D02*
X-11102Y-3226D01*
X-11200Y-3324D01*
Y-3423D01*
X-11151Y-3472D01*
X-11052D01*
X-11003Y-3423D01*
Y-3374D01*
X-11052Y-3324D01*
X-11200D01*
X-9195Y-3277D02*
Y-3523D01*
X-9146Y-3572D01*
X-9048D01*
X-8998Y-3523D01*
Y-3277D01*
X-8703D02*
X-8900D01*
Y-3424D01*
X-8802Y-3375D01*
X-8752D01*
X-8703Y-3424D01*
Y-3523D01*
X-8752Y-3572D01*
X-8851D01*
X-8900Y-3523D01*
X-6864Y-73D02*
Y-319D01*
X-6815Y-368D01*
X-6717D01*
X-6668Y-319D01*
Y-73D01*
X-6569Y-122D02*
X-6520Y-73D01*
X-6422D01*
X-6373Y-122D01*
Y-171D01*
X-6422Y-220D01*
X-6471D01*
X-6422D01*
X-6373Y-270D01*
Y-319D01*
X-6422Y-368D01*
X-6520D01*
X-6569Y-319D01*
X-7445Y-3227D02*
Y-3473D01*
X-7396Y-3522D01*
X-7298D01*
X-7248Y-3473D01*
Y-3227D01*
X-6953Y-3522D02*
X-7150D01*
X-6953Y-3325D01*
Y-3276D01*
X-7002Y-3227D01*
X-7101D01*
X-7150Y-3276D01*
X-10147Y-528D02*
X-9852D01*
Y-676D01*
X-9901Y-725D01*
X-9999D01*
X-10048Y-676D01*
Y-528D01*
Y-627D02*
X-10147Y-725D01*
X-10098Y-824D02*
X-10147Y-873D01*
Y-971D01*
X-10098Y-1020D01*
X-9901D01*
X-9852Y-971D01*
Y-873D01*
X-9901Y-824D01*
X-9950D01*
X-9999Y-873D01*
Y-1020D01*
X-9497Y-528D02*
X-9202D01*
Y-676D01*
X-9251Y-725D01*
X-9349D01*
X-9398Y-676D01*
Y-528D01*
Y-627D02*
X-9497Y-725D01*
X-9251Y-824D02*
X-9202Y-873D01*
Y-971D01*
X-9251Y-1020D01*
X-9300D01*
X-9349Y-971D01*
X-9398Y-1020D01*
X-9448D01*
X-9497Y-971D01*
Y-873D01*
X-9448Y-824D01*
X-9398D01*
X-9349Y-873D01*
X-9300Y-824D01*
X-9251D01*
X-9349Y-873D02*
Y-971D01*
X-9646Y-7026D02*
X-9695Y-6977D01*
X-9794D01*
X-9843Y-7026D01*
Y-7223D01*
X-9794Y-7272D01*
X-9695D01*
X-9646Y-7223D01*
X-9400Y-7272D02*
Y-6977D01*
X-9548Y-7124D01*
X-9351D01*
X-9252Y-7026D02*
X-9203Y-6977D01*
X-9105D01*
X-9056Y-7026D01*
Y-7075D01*
X-9105Y-7124D01*
X-9154D01*
X-9105D01*
X-9056Y-7174D01*
Y-7223D01*
X-9105Y-7272D01*
X-9203D01*
X-9252Y-7223D01*
X-7015Y-8323D02*
Y-8569D01*
X-6966Y-8618D01*
X-6868D01*
X-6819Y-8569D01*
Y-8323D01*
X-6720Y-8618D02*
X-6622D01*
X-6671D01*
Y-8323D01*
X-6720Y-8372D01*
X-5887Y7032D02*
Y7327D01*
X-5740D01*
X-5691Y7278D01*
Y7180D01*
X-5740Y7130D01*
X-5887D01*
X-5789D02*
X-5691Y7032D01*
X-5592D02*
X-5494D01*
X-5543D01*
Y7327D01*
X-5592Y7278D01*
X-5150Y7032D02*
X-5346D01*
X-5150Y7229D01*
Y7278D01*
X-5199Y7327D01*
X-5297D01*
X-5346Y7278D01*
X-12738Y6982D02*
Y7277D01*
X-12591D01*
X-12542Y7228D01*
Y7130D01*
X-12591Y7080D01*
X-12738D01*
X-12640D02*
X-12542Y6982D01*
X-12443D02*
X-12345D01*
X-12394D01*
Y7277D01*
X-12443Y7228D01*
X-12197Y6982D02*
X-12099D01*
X-12148D01*
Y7277D01*
X-12197Y7228D01*
X-3465Y7278D02*
X-3514Y7327D01*
X-3613D01*
X-3662Y7278D01*
Y7081D01*
X-3613Y7032D01*
X-3514D01*
X-3465Y7081D01*
X-3219Y7032D02*
Y7327D01*
X-3367Y7180D01*
X-3170D01*
X-2875Y7032D02*
X-3072D01*
X-2875Y7229D01*
Y7278D01*
X-2924Y7327D01*
X-3023D01*
X-3072Y7278D01*
X-10316D02*
X-10365Y7327D01*
X-10464D01*
X-10513Y7278D01*
Y7081D01*
X-10464Y7032D01*
X-10365D01*
X-10316Y7081D01*
X-10070Y7032D02*
Y7327D01*
X-10218Y7180D01*
X-10021D01*
X-9923Y7032D02*
X-9824D01*
X-9873D01*
Y7327D01*
X-9923Y7278D01*
X-4195Y-3227D02*
Y-3473D01*
X-4146Y-3522D01*
X-4048D01*
X-3998Y-3473D01*
Y-3227D01*
X-3752Y-3522D02*
Y-3227D01*
X-3900Y-3374D01*
X-3703D01*
X-11412Y-14718D02*
Y-14423D01*
X-11264D01*
X-11215Y-14472D01*
Y-14570D01*
X-11264Y-14620D01*
X-11412D01*
X-11314D02*
X-11215Y-14718D01*
X-11117D02*
Y-14423D01*
X-10920Y-14718D01*
Y-14423D01*
X-10625Y-14718D02*
X-10822D01*
X-10625Y-14521D01*
Y-14472D01*
X-10674Y-14423D01*
X-10773D01*
X-10822Y-14472D01*
X-9963Y-14668D02*
Y-14373D01*
X-9815D01*
X-9766Y-14422D01*
Y-14520D01*
X-9815Y-14570D01*
X-9963D01*
X-9864D02*
X-9766Y-14668D01*
X-9668D02*
Y-14373D01*
X-9471Y-14668D01*
Y-14373D01*
X-9373Y-14668D02*
X-9274D01*
X-9323D01*
Y-14373D01*
X-9373Y-14422D01*
X-3446Y-14022D02*
Y-13727D01*
X-3298D01*
X-3249Y-13776D01*
Y-13874D01*
X-3298Y-13924D01*
X-3446D01*
X-3151Y-14022D02*
X-3052D01*
X-3102D01*
Y-13727D01*
X-3151Y-13776D01*
X-10087Y11427D02*
X-9989D01*
X-10038D01*
Y11132D01*
X-10087D01*
X-9989D01*
X-9645Y11378D02*
X-9694Y11427D01*
X-9792D01*
X-9841Y11378D01*
Y11181D01*
X-9792Y11132D01*
X-9694D01*
X-9645Y11181D01*
X-9350Y11132D02*
X-9546D01*
X-9350Y11329D01*
Y11378D01*
X-9399Y11427D01*
X-9497D01*
X-9546Y11378D01*
X-3188Y11227D02*
X-3090D01*
X-3139D01*
Y10932D01*
X-3188D01*
X-3090D01*
X-2746Y11178D02*
X-2795Y11227D01*
X-2893D01*
X-2942Y11178D01*
Y10981D01*
X-2893Y10932D01*
X-2795D01*
X-2746Y10981D01*
X-2647Y10932D02*
X-2549D01*
X-2598D01*
Y11227D01*
X-2647Y11178D01*
X-7446Y-7026D02*
X-7495Y-6977D01*
X-7594D01*
X-7643Y-7026D01*
Y-7223D01*
X-7594Y-7272D01*
X-7495D01*
X-7446Y-7223D01*
X-7348Y-7026D02*
X-7298Y-6977D01*
X-7200D01*
X-7151Y-7026D01*
Y-7075D01*
X-7200Y-7124D01*
X-7249D01*
X-7200D01*
X-7151Y-7174D01*
Y-7223D01*
X-7200Y-7272D01*
X-7298D01*
X-7348Y-7223D01*
X-7052D02*
X-7003Y-7272D01*
X-6905D01*
X-6856Y-7223D01*
Y-7026D01*
X-6905Y-6977D01*
X-7003D01*
X-7052Y-7026D01*
Y-7075D01*
X-7003Y-7124D01*
X-6856D01*
M02*
