G04*
G04 #@! TF.GenerationSoftware,Altium Limited,Altium Designer,21.8.1 (53)*
G04*
G04 Layer_Color=16711935*
%FSLAX24Y24*%
%MOIN*%
G70*
G04*
G04 #@! TF.SameCoordinates,EDC69185-3C86-4443-AEAC-3931C59231B4*
G04*
G04*
G04 #@! TF.FilePolarity,Negative*
G04*
G01*
G75*
%ADD18O,0.0286X0.0798*%
%ADD19R,0.0404X0.0365*%
%ADD20R,0.0365X0.0404*%
%ADD26R,0.0503X0.0759*%
%ADD27C,0.0641*%
%ADD28R,0.0641X0.0641*%
%ADD29C,0.0601*%
%ADD30C,0.0528*%
%ADD40C,0.0197*%
%ADD53R,0.0483X0.0267*%
%ADD54R,0.0483X0.0719*%
G04:AMPARAMS|DCode=55|XSize=24.7mil|YSize=28.6mil|CornerRadius=7.4mil|HoleSize=0mil|Usage=FLASHONLY|Rotation=180.000|XOffset=0mil|YOffset=0mil|HoleType=Round|Shape=RoundedRectangle|*
%AMROUNDEDRECTD55*
21,1,0.0247,0.0138,0,0,180.0*
21,1,0.0098,0.0286,0,0,180.0*
1,1,0.0148,-0.0049,0.0069*
1,1,0.0148,0.0049,0.0069*
1,1,0.0148,0.0049,-0.0069*
1,1,0.0148,-0.0049,-0.0069*
%
%ADD55ROUNDEDRECTD55*%
G36*
X142Y15862D02*
X324Y15786D01*
X487Y15677D01*
X627Y15537D01*
X736Y15374D01*
X812Y15192D01*
X850Y14998D01*
Y14900D01*
Y4600D01*
X-1488D01*
X-1529Y4650D01*
X-1519Y4700D01*
Y4716D01*
X-1516Y4730D01*
Y4780D01*
Y12680D01*
Y12729D01*
X-1519Y12744D01*
Y12759D01*
X-1538Y12855D01*
X-1543Y12869D01*
X-1546Y12884D01*
X-1584Y12975D01*
X-1592Y12987D01*
X-1598Y13001D01*
X-1653Y13083D01*
X-1664Y13094D01*
X-1672Y13106D01*
X-1742Y13176D01*
X-1754Y13184D01*
X-1765Y13195D01*
X-1847Y13250D01*
X-1861Y13256D01*
X-1873Y13264D01*
X-1964Y13302D01*
X-1979Y13305D01*
X-1993Y13310D01*
X-2089Y13330D01*
X-2104D01*
X-2119Y13332D01*
X-6818D01*
X-6833Y13330D01*
X-6848D01*
X-6944Y13310D01*
X-6958Y13305D01*
X-6973Y13302D01*
X-6977Y13300D01*
X-8860D01*
X-8864Y13302D01*
X-8879Y13305D01*
X-8893Y13310D01*
X-8989Y13330D01*
X-9004D01*
X-9019Y13332D01*
X-13718D01*
X-13733Y13330D01*
X-13748D01*
X-13844Y13310D01*
X-13858Y13305D01*
X-13873Y13302D01*
X-13917Y13283D01*
X-13931Y13281D01*
X-14012Y13247D01*
X-14085Y13198D01*
X-14148Y13135D01*
X-14180Y13087D01*
X-14184Y13083D01*
X-14239Y13001D01*
X-14245Y12987D01*
X-14253Y12975D01*
X-14291Y12884D01*
X-14294Y12869D01*
X-14299Y12855D01*
X-14319Y12759D01*
Y12744D01*
X-14321Y12729D01*
Y12680D01*
Y4780D01*
Y4730D01*
X-14318Y4716D01*
Y4700D01*
X-14308Y4650D01*
X-14350Y4600D01*
X-16650D01*
Y14900D01*
Y14998D01*
X-16612Y15192D01*
X-16536Y15374D01*
X-16427Y15537D01*
X-16287Y15677D01*
X-16124Y15786D01*
X-15942Y15862D01*
X-15748Y15900D01*
X-52D01*
X142Y15862D01*
D02*
G37*
G36*
X-11117Y1275D02*
X-11087Y1235D01*
X-11101Y1190D01*
X-11128Y1013D01*
X-11121Y835D01*
X-11104Y768D01*
X-11135Y729D01*
X-13448D01*
X-13463Y726D01*
X-13478D01*
X-13575Y706D01*
X-13589Y701D01*
X-13604Y698D01*
X-13695Y660D01*
X-13707Y652D01*
X-13721Y646D01*
X-13803Y591D01*
X-13814Y580D01*
X-13826Y572D01*
X-13896Y502D01*
X-13904Y490D01*
X-13915Y479D01*
X-13969Y397D01*
X-13975Y383D01*
X-13984Y371D01*
X-14021Y280D01*
X-14024Y265D01*
X-14030Y251D01*
X-14049Y155D01*
Y140D01*
X-14052Y125D01*
Y76D01*
Y-12550D01*
X-17260D01*
X-17278Y-12542D01*
X-17292Y-12528D01*
X-17300Y-12510D01*
Y-12500D01*
Y300D01*
Y398D01*
X-17262Y592D01*
X-17186Y774D01*
X-17077Y937D01*
X-16937Y1077D01*
X-16774Y1186D01*
X-16592Y1262D01*
X-16398Y1300D01*
X-16300Y1300D01*
X-16300Y1300D01*
X-11117Y1275D01*
D02*
G37*
G36*
X1211Y1300D02*
Y1300D01*
X1251Y1265D01*
X1323Y1187D01*
X1386Y1101D01*
X1440Y1010D01*
X1483Y913D01*
X1516Y812D01*
X1539Y709D01*
X1550Y603D01*
X1550Y550D01*
X1550Y-12400D01*
X-1796D01*
Y76D01*
Y125D01*
X-1799Y140D01*
Y155D01*
X-1818Y251D01*
X-1824Y265D01*
X-1827Y280D01*
X-1865Y371D01*
X-1873Y383D01*
X-1879Y397D01*
X-1934Y479D01*
X-1944Y490D01*
X-1953Y502D01*
X-2022Y572D01*
X-2035Y580D01*
X-2046Y591D01*
X-2127Y646D01*
X-2141Y652D01*
X-2154Y660D01*
X-2245Y698D01*
X-2260Y701D01*
X-2274Y706D01*
X-2370Y726D01*
X-2385D01*
X-2400Y729D01*
X-5400D01*
Y1300D01*
X1211D01*
X1211Y1300D01*
D02*
G37*
%LPC*%
G36*
X-437Y15559D02*
X-600D01*
X-615Y15556D01*
X-630D01*
X-790Y15525D01*
X-803Y15519D01*
X-818Y15516D01*
X-969Y15453D01*
X-981Y15445D01*
X-995Y15439D01*
X-1131Y15349D01*
X-1141Y15338D01*
X-1154Y15330D01*
X-1269Y15215D01*
X-1277Y15202D01*
X-1288Y15192D01*
X-1378Y15056D01*
X-1384Y15042D01*
X-1392Y15030D01*
X-1455Y14879D01*
X-1458Y14864D01*
X-1463Y14851D01*
X-1495Y14691D01*
Y14676D01*
X-1498Y14661D01*
Y14498D01*
X-1495Y14483D01*
Y14468D01*
X-1463Y14309D01*
X-1458Y14295D01*
X-1455Y14280D01*
X-1392Y14129D01*
X-1384Y14117D01*
X-1378Y14103D01*
X-1288Y13968D01*
X-1277Y13957D01*
X-1269Y13944D01*
X-1154Y13829D01*
X-1141Y13821D01*
X-1131Y13810D01*
X-995Y13720D01*
X-981Y13714D01*
X-969Y13706D01*
X-818Y13643D01*
X-803Y13640D01*
X-790Y13635D01*
X-630Y13603D01*
X-615D01*
X-600Y13600D01*
X-437D01*
X-422Y13603D01*
X-407D01*
X-248Y13635D01*
X-234Y13640D01*
X-219Y13643D01*
X-68Y13706D01*
X-56Y13714D01*
X-42Y13720D01*
X93Y13810D01*
X104Y13821D01*
X117Y13829D01*
X232Y13944D01*
X240Y13957D01*
X251Y13968D01*
X341Y14103D01*
X347Y14117D01*
X355Y14129D01*
X418Y14280D01*
X421Y14295D01*
X426Y14309D01*
X458Y14468D01*
Y14483D01*
X461Y14498D01*
Y14661D01*
X458Y14676D01*
Y14691D01*
X426Y14851D01*
X421Y14864D01*
X418Y14879D01*
X355Y15030D01*
X347Y15042D01*
X341Y15056D01*
X251Y15192D01*
X240Y15202D01*
X232Y15215D01*
X117Y15330D01*
X104Y15338D01*
X93Y15349D01*
X-42Y15439D01*
X-56Y15445D01*
X-68Y15453D01*
X-219Y15516D01*
X-234Y15519D01*
X-248Y15525D01*
X-407Y15556D01*
X-422D01*
X-437Y15559D01*
D02*
G37*
G36*
X-15237D02*
X-15400D01*
X-15415Y15556D01*
X-15430D01*
X-15589Y15525D01*
X-15603Y15519D01*
X-15618Y15516D01*
X-15769Y15453D01*
X-15781Y15445D01*
X-15795Y15439D01*
X-15931Y15349D01*
X-15941Y15338D01*
X-15954Y15330D01*
X-16069Y15215D01*
X-16077Y15202D01*
X-16088Y15192D01*
X-16178Y15056D01*
X-16184Y15042D01*
X-16192Y15030D01*
X-16255Y14879D01*
X-16258Y14864D01*
X-16264Y14851D01*
X-16295Y14691D01*
Y14676D01*
X-16298Y14661D01*
Y14498D01*
X-16295Y14483D01*
Y14468D01*
X-16264Y14309D01*
X-16258Y14295D01*
X-16255Y14280D01*
X-16192Y14129D01*
X-16184Y14117D01*
X-16178Y14103D01*
X-16088Y13968D01*
X-16077Y13957D01*
X-16069Y13944D01*
X-15954Y13829D01*
X-15941Y13821D01*
X-15931Y13810D01*
X-15795Y13720D01*
X-15781Y13714D01*
X-15769Y13706D01*
X-15618Y13643D01*
X-15603Y13640D01*
X-15589Y13635D01*
X-15430Y13603D01*
X-15415D01*
X-15400Y13600D01*
X-15237D01*
X-15222Y13603D01*
X-15207D01*
X-15048Y13635D01*
X-15034Y13640D01*
X-15019Y13643D01*
X-14868Y13706D01*
X-14856Y13714D01*
X-14842Y13720D01*
X-14706Y13810D01*
X-14696Y13821D01*
X-14683Y13829D01*
X-14568Y13944D01*
X-14560Y13957D01*
X-14549Y13968D01*
X-14459Y14103D01*
X-14453Y14117D01*
X-14445Y14129D01*
X-14382Y14280D01*
X-14379Y14295D01*
X-14374Y14309D01*
X-14342Y14468D01*
Y14483D01*
X-14339Y14498D01*
Y14661D01*
X-14342Y14676D01*
Y14691D01*
X-14374Y14851D01*
X-14379Y14864D01*
X-14382Y14879D01*
X-14445Y15030D01*
X-14453Y15042D01*
X-14459Y15056D01*
X-14549Y15192D01*
X-14560Y15202D01*
X-14568Y15215D01*
X-14683Y15330D01*
X-14696Y15338D01*
X-14706Y15349D01*
X-14842Y15439D01*
X-14856Y15445D01*
X-14868Y15453D01*
X-15019Y15516D01*
X-15034Y15519D01*
X-15048Y15525D01*
X-15207Y15556D01*
X-15222D01*
X-15237Y15559D01*
D02*
G37*
G36*
X-15668Y963D02*
X-15832D01*
X-15847Y960D01*
X-15862D01*
X-16022Y928D01*
X-16036Y923D01*
X-16051Y920D01*
X-16202Y857D01*
X-16215Y849D01*
X-16228Y843D01*
X-16365Y752D01*
X-16375Y741D01*
X-16388Y733D01*
X-16503Y617D01*
X-16512Y605D01*
X-16522Y594D01*
X-16613Y458D01*
X-16619Y444D01*
X-16628Y432D01*
X-16690Y280D01*
X-16693Y266D01*
X-16699Y252D01*
X-16731Y91D01*
Y76D01*
X-16734Y61D01*
Y-102D01*
X-16731Y-117D01*
Y-132D01*
X-16699Y-293D01*
X-16693Y-307D01*
X-16690Y-321D01*
X-16628Y-473D01*
X-16619Y-485D01*
X-16613Y-499D01*
X-16522Y-635D01*
X-16512Y-646D01*
X-16503Y-658D01*
X-16388Y-774D01*
X-16375Y-782D01*
X-16365Y-793D01*
X-16228Y-884D01*
X-16215Y-890D01*
X-16202Y-898D01*
X-16051Y-961D01*
X-16036Y-964D01*
X-16022Y-969D01*
X-15862Y-1001D01*
X-15847D01*
X-15832Y-1004D01*
X-15668D01*
X-15653Y-1001D01*
X-15638D01*
X-15478Y-969D01*
X-15464Y-964D01*
X-15449Y-961D01*
X-15298Y-898D01*
X-15285Y-890D01*
X-15272Y-884D01*
X-15135Y-793D01*
X-15125Y-782D01*
X-15112Y-774D01*
X-14997Y-658D01*
X-14988Y-646D01*
X-14978Y-635D01*
X-14887Y-499D01*
X-14881Y-485D01*
X-14872Y-473D01*
X-14810Y-321D01*
X-14807Y-307D01*
X-14801Y-293D01*
X-14769Y-132D01*
Y-117D01*
X-14766Y-102D01*
Y61D01*
X-14769Y76D01*
Y91D01*
X-14801Y252D01*
X-14807Y266D01*
X-14810Y280D01*
X-14872Y432D01*
X-14881Y444D01*
X-14887Y458D01*
X-14978Y594D01*
X-14988Y605D01*
X-14997Y617D01*
X-15112Y733D01*
X-15125Y741D01*
X-15135Y752D01*
X-15272Y843D01*
X-15285Y849D01*
X-15298Y857D01*
X-15449Y920D01*
X-15464Y923D01*
X-15478Y928D01*
X-15638Y960D01*
X-15653D01*
X-15668Y963D01*
D02*
G37*
G36*
X79Y959D02*
X-83D01*
X-98Y956D01*
X-113D01*
X-273Y925D01*
X-287Y919D01*
X-302Y916D01*
X-452Y853D01*
X-465Y845D01*
X-479Y839D01*
X-614Y749D01*
X-625Y738D01*
X-637Y730D01*
X-752Y615D01*
X-761Y602D01*
X-771Y592D01*
X-862Y456D01*
X-868Y442D01*
X-876Y430D01*
X-938Y279D01*
X-941Y264D01*
X-947Y251D01*
X-979Y91D01*
Y76D01*
X-982Y61D01*
Y-102D01*
X-979Y-117D01*
Y-132D01*
X-947Y-291D01*
X-941Y-305D01*
X-938Y-320D01*
X-876Y-471D01*
X-868Y-483D01*
X-862Y-497D01*
X-771Y-632D01*
X-761Y-643D01*
X-752Y-656D01*
X-637Y-771D01*
X-625Y-779D01*
X-614Y-790D01*
X-479Y-880D01*
X-465Y-886D01*
X-452Y-894D01*
X-302Y-957D01*
X-287Y-960D01*
X-273Y-965D01*
X-113Y-997D01*
X-98D01*
X-83Y-1000D01*
X79D01*
X94Y-997D01*
X109D01*
X269Y-965D01*
X283Y-960D01*
X298Y-957D01*
X448Y-894D01*
X461Y-886D01*
X475Y-880D01*
X610Y-790D01*
X621Y-779D01*
X633Y-771D01*
X748Y-656D01*
X757Y-643D01*
X767Y-632D01*
X858Y-497D01*
X864Y-483D01*
X872Y-471D01*
X934Y-320D01*
X937Y-305D01*
X943Y-291D01*
X975Y-132D01*
Y-117D01*
X978Y-102D01*
Y61D01*
X975Y76D01*
Y91D01*
X943Y251D01*
X937Y264D01*
X934Y279D01*
X872Y430D01*
X864Y442D01*
X858Y456D01*
X767Y592D01*
X757Y602D01*
X748Y615D01*
X633Y730D01*
X621Y738D01*
X610Y749D01*
X475Y839D01*
X461Y845D01*
X448Y853D01*
X298Y916D01*
X283Y919D01*
X269Y925D01*
X109Y956D01*
X94D01*
X79Y959D01*
D02*
G37*
%LPD*%
D18*
X-8800Y-3675D02*
D03*
X-8300D02*
D03*
X-7800D02*
D03*
X-7300D02*
D03*
X-8800Y-5525D02*
D03*
X-8300D02*
D03*
X-7800D02*
D03*
X-7300D02*
D03*
D19*
X-9600Y-7176D02*
D03*
Y-6624D02*
D03*
X-3853Y-7255D02*
D03*
X-3849Y-6602D02*
D03*
X-6103Y-7255D02*
D03*
X-6099Y-6602D02*
D03*
X-8353Y-7255D02*
D03*
X-8349Y-6602D02*
D03*
X-10603Y-7255D02*
D03*
X-10599Y-6602D02*
D03*
X-6403Y-2055D02*
D03*
X-6399Y-1402D02*
D03*
X-5345Y-2694D02*
D03*
X-5349Y-3347D02*
D03*
X-6495Y-2694D02*
D03*
X-6499Y-3347D02*
D03*
X-9845Y-2694D02*
D03*
X-9849Y-3347D02*
D03*
X-12095Y-2694D02*
D03*
X-12099Y-3347D02*
D03*
X-7919Y5555D02*
D03*
Y5004D02*
D03*
D20*
X-7588Y-174D02*
D03*
X-8241Y-170D02*
D03*
D26*
X-10728Y8380D02*
D03*
X-11909D02*
D03*
X-3828D02*
D03*
X-5009D02*
D03*
D27*
X-16376Y19092D02*
D03*
Y18092D02*
D03*
X-15376Y19092D02*
D03*
Y18092D02*
D03*
X-14376Y19092D02*
D03*
Y18092D02*
D03*
X-13376Y19092D02*
D03*
Y18092D02*
D03*
X-12376Y19092D02*
D03*
Y18092D02*
D03*
X-11376Y19092D02*
D03*
Y18092D02*
D03*
X-10376Y19092D02*
D03*
Y18092D02*
D03*
X-9376Y19092D02*
D03*
Y18092D02*
D03*
X-8376Y19092D02*
D03*
Y18092D02*
D03*
X-7376Y19092D02*
D03*
Y18092D02*
D03*
X-6376Y19092D02*
D03*
Y18092D02*
D03*
X-5376Y19092D02*
D03*
Y18092D02*
D03*
X-4376Y19092D02*
D03*
Y18092D02*
D03*
X-3376Y19092D02*
D03*
Y18092D02*
D03*
X-2376Y19092D02*
D03*
Y18092D02*
D03*
X-1376Y19092D02*
D03*
Y18092D02*
D03*
X-376Y19092D02*
D03*
Y18092D02*
D03*
X624Y19092D02*
D03*
X-16376Y-17703D02*
D03*
Y-18703D02*
D03*
X-15376Y-17703D02*
D03*
Y-18703D02*
D03*
X-14376Y-17703D02*
D03*
Y-18703D02*
D03*
X-13376Y-17703D02*
D03*
Y-18703D02*
D03*
X-12376Y-17703D02*
D03*
Y-18703D02*
D03*
X-11376Y-17703D02*
D03*
Y-18703D02*
D03*
X-10376Y-17703D02*
D03*
Y-18703D02*
D03*
X-9376Y-17703D02*
D03*
Y-18703D02*
D03*
X-8376Y-17703D02*
D03*
Y-18703D02*
D03*
X-7376Y-17703D02*
D03*
Y-18703D02*
D03*
X-6376Y-17703D02*
D03*
Y-18703D02*
D03*
X-5376Y-17703D02*
D03*
Y-18703D02*
D03*
X-4376Y-17703D02*
D03*
Y-18703D02*
D03*
X-3376Y-17703D02*
D03*
Y-18703D02*
D03*
X-2376Y-17703D02*
D03*
Y-18703D02*
D03*
X-1376Y-17703D02*
D03*
Y-18703D02*
D03*
X-376Y-17703D02*
D03*
Y-18703D02*
D03*
X624Y-17703D02*
D03*
D28*
Y18092D02*
D03*
Y-18703D02*
D03*
D29*
X-4499Y-13924D02*
D03*
X-3999Y-14424D02*
D03*
Y-13424D02*
D03*
X-4999D02*
D03*
Y-14424D02*
D03*
D30*
X-11676Y10780D02*
D03*
X-10969D02*
D03*
Y10072D02*
D03*
X-11676D02*
D03*
X-4769Y10780D02*
D03*
X-4061D02*
D03*
Y10072D02*
D03*
X-4769D02*
D03*
D40*
X-8349Y-10751D02*
Y-10298D01*
X-8359Y-10751D02*
X-8349D01*
X-8359D02*
X-8349D01*
D53*
X-5059Y-4176D02*
D03*
X-5079Y-4924D02*
D03*
X-5949Y-4550D02*
D03*
D54*
X-5968Y-9131D02*
D03*
X-7031D02*
D03*
X-5968Y-10318D02*
D03*
X-7031D02*
D03*
D55*
X-8349Y-10739D02*
D03*
Y-10310D02*
D03*
M02*
