G04*
G04 #@! TF.GenerationSoftware,Altium Limited,Altium Designer,21.8.1 (53)*
G04*
G04 Layer_Color=8388736*
%FSLAX24Y24*%
%MOIN*%
G70*
G04*
G04 #@! TF.SameCoordinates,EDC69185-3C86-4443-AEAC-3931C59231B4*
G04*
G04*
G04 #@! TF.FilePolarity,Negative*
G04*
G01*
G75*
%ADD18O,0.0286X0.0798*%
%ADD19R,0.0404X0.0365*%
%ADD20R,0.0365X0.0404*%
G04:AMPARAMS|DCode=21|XSize=70mil|YSize=40.4mil|CornerRadius=11.4mil|HoleSize=0mil|Usage=FLASHONLY|Rotation=270.000|XOffset=0mil|YOffset=0mil|HoleType=Round|Shape=RoundedRectangle|*
%AMROUNDEDRECTD21*
21,1,0.0700,0.0177,0,0,270.0*
21,1,0.0472,0.0404,0,0,270.0*
1,1,0.0227,-0.0089,-0.0236*
1,1,0.0227,-0.0089,0.0236*
1,1,0.0227,0.0089,0.0236*
1,1,0.0227,0.0089,-0.0236*
%
%ADD21ROUNDEDRECTD21*%
%ADD22R,0.0227X0.0385*%
%ADD23R,0.0090X0.0535*%
%ADD24R,0.0535X0.0090*%
%ADD25R,0.0286X0.0247*%
%ADD26R,0.0503X0.0759*%
%ADD27C,0.0641*%
%ADD28R,0.0641X0.0641*%
%ADD29C,0.0601*%
%ADD30C,0.0528*%
D18*
X-8249Y-4062D02*
D03*
X-8749D02*
D03*
X-9249D02*
D03*
X-9749D02*
D03*
X-8249Y-5913D02*
D03*
X-8749D02*
D03*
X-9249D02*
D03*
X-9749D02*
D03*
X-11999Y-5900D02*
D03*
X-11499D02*
D03*
X-10999D02*
D03*
X-10499D02*
D03*
X-11999Y-4049D02*
D03*
X-11499D02*
D03*
X-10999D02*
D03*
X-10499D02*
D03*
X-5249Y-5900D02*
D03*
X-4749D02*
D03*
X-4249D02*
D03*
X-3749D02*
D03*
X-5249Y-4049D02*
D03*
X-4749D02*
D03*
X-4249D02*
D03*
X-3749D02*
D03*
X-7499Y-5913D02*
D03*
X-6999D02*
D03*
X-6499D02*
D03*
X-5999D02*
D03*
X-7499Y-4062D02*
D03*
X-6999D02*
D03*
X-6499D02*
D03*
X-5999D02*
D03*
X-8634Y-2713D02*
D03*
X-8134D02*
D03*
X-7634D02*
D03*
X-7134D02*
D03*
X-8634Y-862D02*
D03*
X-8134D02*
D03*
X-7634D02*
D03*
X-7134D02*
D03*
D19*
X-3018Y-16693D02*
D03*
X-3022Y-16040D02*
D03*
X-3618Y-16693D02*
D03*
X-3622Y-16040D02*
D03*
X-4218Y-16693D02*
D03*
X-4222Y-16040D02*
D03*
X-4818Y-16693D02*
D03*
X-4822Y-16040D02*
D03*
X-5418Y-16693D02*
D03*
X-5422Y-16040D02*
D03*
X-6018Y-16693D02*
D03*
X-6022Y-16040D02*
D03*
X-11815Y-9901D02*
D03*
X-11818Y-9248D02*
D03*
X-12415Y-11351D02*
D03*
X-12419Y-10698D02*
D03*
X-12165Y-15651D02*
D03*
X-12169Y-14998D02*
D03*
X-10595Y-7255D02*
D03*
X-10599Y-6602D02*
D03*
X-8345Y-7255D02*
D03*
X-8349Y-6602D02*
D03*
X-6095Y-7255D02*
D03*
X-6099Y-6602D02*
D03*
X-3845Y-7255D02*
D03*
X-3849Y-6602D02*
D03*
X-6445Y-2055D02*
D03*
X-6449Y-1402D02*
D03*
X-12103Y-2694D02*
D03*
X-12099Y-3347D02*
D03*
X-9853Y-2694D02*
D03*
X-9849Y-3347D02*
D03*
X-6453Y-2644D02*
D03*
X-6449Y-3297D02*
D03*
X-5353Y-2694D02*
D03*
X-5349Y-3347D02*
D03*
X-7569Y-14995D02*
D03*
Y-15546D02*
D03*
X-5369Y-12746D02*
D03*
Y-12195D02*
D03*
X-4449Y-12750D02*
D03*
Y-12199D02*
D03*
X-7918Y5555D02*
D03*
Y5004D02*
D03*
X-9999Y-2050D02*
D03*
Y-1499D02*
D03*
X-9349Y-2050D02*
D03*
Y-1499D02*
D03*
D20*
X-6030Y-11098D02*
D03*
X-5376Y-11094D02*
D03*
X-9618Y-12420D02*
D03*
X-10272Y-12424D02*
D03*
X-9618Y-13020D02*
D03*
X-10272Y-13024D02*
D03*
X-6030Y-9508D02*
D03*
X-5376Y-9504D02*
D03*
X-6030Y-10038D02*
D03*
X-5376Y-10034D02*
D03*
X-7588Y-167D02*
D03*
X-8241Y-170D02*
D03*
X-5979Y-8974D02*
D03*
X-5428D02*
D03*
X-5979Y-10564D02*
D03*
X-5428D02*
D03*
D21*
X-10828Y-12524D02*
D03*
X-11970D02*
D03*
X-10828Y-13374D02*
D03*
X-11970D02*
D03*
D22*
X-11529Y-15674D02*
D03*
Y-15044D02*
D03*
X-11214Y-15674D02*
D03*
X-10584D02*
D03*
X-10899D02*
D03*
Y-15044D02*
D03*
X-10584D02*
D03*
X-11214D02*
D03*
X-10129Y-15674D02*
D03*
X-9814D02*
D03*
X-9184D02*
D03*
X-9499D02*
D03*
Y-15044D02*
D03*
X-9184D02*
D03*
X-9814D02*
D03*
X-10129D02*
D03*
D23*
X-7855Y-8424D02*
D03*
X-9037D02*
D03*
X-9431Y-11789D02*
D03*
X-9234D02*
D03*
X-7855D02*
D03*
X-7659D02*
D03*
X-8052D02*
D03*
X-8249D02*
D03*
X-8446D02*
D03*
X-8643D02*
D03*
X-8840D02*
D03*
X-9037D02*
D03*
X-9628D02*
D03*
X-9824D02*
D03*
Y-8424D02*
D03*
X-9628D02*
D03*
X-9431D02*
D03*
X-9234D02*
D03*
X-8840D02*
D03*
X-8643D02*
D03*
X-8446D02*
D03*
X-8249D02*
D03*
X-8052D02*
D03*
X-7659D02*
D03*
D24*
X-10424Y-9221D02*
D03*
Y-9615D02*
D03*
Y-9812D02*
D03*
Y-10402D02*
D03*
Y-10599D02*
D03*
Y-10796D02*
D03*
Y-10993D02*
D03*
X-7059D02*
D03*
Y-10796D02*
D03*
Y-10599D02*
D03*
Y-10402D02*
D03*
Y-10205D02*
D03*
Y-10008D02*
D03*
Y-9812D02*
D03*
Y-9615D02*
D03*
Y-9418D02*
D03*
Y-9221D02*
D03*
Y-9024D02*
D03*
Y-11190D02*
D03*
X-10424D02*
D03*
Y-10205D02*
D03*
Y-10008D02*
D03*
Y-9418D02*
D03*
Y-9024D02*
D03*
D25*
X-7396Y-6724D02*
D03*
X-7002D02*
D03*
X-9646Y-6724D02*
D03*
X-9252D02*
D03*
D26*
X-4948Y7880D02*
D03*
X-6089D02*
D03*
X-11848Y7830D02*
D03*
X-12989D02*
D03*
X-2678Y7880D02*
D03*
X-3859D02*
D03*
X-9578Y7830D02*
D03*
X-10759D02*
D03*
D27*
X-16376Y19092D02*
D03*
Y18092D02*
D03*
X-15376Y19092D02*
D03*
Y18092D02*
D03*
X-14376Y19092D02*
D03*
Y18092D02*
D03*
X-13376Y19092D02*
D03*
Y18092D02*
D03*
X-12376Y19092D02*
D03*
Y18092D02*
D03*
X-11376Y19092D02*
D03*
Y18092D02*
D03*
X-10376Y19092D02*
D03*
Y18092D02*
D03*
X-9376Y19092D02*
D03*
Y18092D02*
D03*
X-8376Y19092D02*
D03*
Y18092D02*
D03*
X-7376Y19092D02*
D03*
Y18092D02*
D03*
X-6376Y19092D02*
D03*
Y18092D02*
D03*
X-5376Y19092D02*
D03*
Y18092D02*
D03*
X-4376Y19092D02*
D03*
Y18092D02*
D03*
X-3376Y19092D02*
D03*
Y18092D02*
D03*
X-2376Y19092D02*
D03*
Y18092D02*
D03*
X-1376Y19092D02*
D03*
Y18092D02*
D03*
X-376Y19092D02*
D03*
Y18092D02*
D03*
X624Y19092D02*
D03*
X-16376Y-17703D02*
D03*
Y-18703D02*
D03*
X-15376Y-17703D02*
D03*
Y-18703D02*
D03*
X-14376Y-17703D02*
D03*
Y-18703D02*
D03*
X-13376Y-17703D02*
D03*
Y-18703D02*
D03*
X-12376Y-17703D02*
D03*
Y-18703D02*
D03*
X-11376Y-17703D02*
D03*
Y-18703D02*
D03*
X-10376Y-17703D02*
D03*
Y-18703D02*
D03*
X-9376Y-17703D02*
D03*
Y-18703D02*
D03*
X-8376Y-17703D02*
D03*
Y-18703D02*
D03*
X-7376Y-17703D02*
D03*
Y-18703D02*
D03*
X-6376Y-17703D02*
D03*
Y-18703D02*
D03*
X-5376Y-17703D02*
D03*
Y-18703D02*
D03*
X-4376Y-17703D02*
D03*
Y-18703D02*
D03*
X-3376Y-17703D02*
D03*
Y-18703D02*
D03*
X-2376Y-17703D02*
D03*
Y-18703D02*
D03*
X-1376Y-17703D02*
D03*
Y-18703D02*
D03*
X-376Y-17703D02*
D03*
Y-18703D02*
D03*
X624Y-17703D02*
D03*
D28*
Y18092D02*
D03*
Y-18703D02*
D03*
D29*
X-4499Y-13924D02*
D03*
X-3999Y-14424D02*
D03*
Y-13424D02*
D03*
X-4999D02*
D03*
Y-14424D02*
D03*
D30*
X-11676Y10780D02*
D03*
X-10969D02*
D03*
Y10072D02*
D03*
X-11676D02*
D03*
X-4769Y10780D02*
D03*
X-4061D02*
D03*
Y10072D02*
D03*
X-4769D02*
D03*
M02*
