M48
;Layer_Color=9474304
;FILE_FORMAT=2:4
INCH
;TYPE=PLATED
T1F00S00C0.0100
T2F00S00C0.0118
T3F00S00C0.0197
T4F00S00C0.0279
T5F00S00C0.0335
T6F00S00C0.0354
T7F00S00C0.0394
%
T01
X-011286Y-005436
X-009650Y-005388
T02
X-012569Y-015670
X-012019Y-011820
X-010249Y-011974
X-010299Y-013424
X-007699Y-012374
X-007446Y-016120
X-006018Y-015620
X-005418
X-004818
X-004218
X-003618
X-002919
X-004999Y-011074
Y-010524
Y-010024
Y-009474
Y-008924
X-006549Y-009324
Y-010124
Y-010674
X-007549Y-011024
X-009649Y-011274
X-010999Y-010924
Y-010524
Y-009774
X-010899Y-009224
X-011818Y-008920
X-012419Y-010270
X-010649Y-007724
X-011099Y-007074
X-010899Y-006374
X-008649Y-006424
X-008849Y-006874
X-007749
X-007700Y-007950
X-006700Y-007900
X-006349Y-007924
X-005949Y-007774
X-006606Y-007274
X-006399Y-006424
X-006449Y-005074
X-007249Y-004674
X-006899Y-003274
X-006849Y-002174
X-007249Y-001924
X-007750Y-001950
X-007349Y-001474
X-008750Y-001600
X-008650Y-000400
X-006699Y-000474
X-005349Y-002224
X-005799Y-002724
X-004849Y-002774
X-005249Y-003589
X-007800Y-003000
X-009349Y-002724
X-010349Y-002674
X-011599
X-012099Y-002174
X-012649Y-002674
X-011999Y-003589
X-009749
X-008999Y-007924
X-007899Y-008924
X-003849Y-007774
X-004299Y-007224
X-003349
X-004149Y-006424
X-011768Y003230
X-012811Y007244
X-011768Y009180
X-010819
X-009776Y007230
X-007918Y005980
X-005904Y007244
X-004868Y009180
X-003918
X-002869Y007230
T03
X-001819Y003630
X-003018Y002580
X-009469Y002430
X-008669Y003780
T04
X-011676Y010072
Y010780
X-010969
Y010072
X-004769
Y010780
X-004061
Y010072
T05
X-004999Y-014424
X-004499Y-013924
X-003999Y-014424
Y-013424
X-004999
T06
X-016376Y-018703
Y-017703
X-015376
Y-018703
X-014376
Y-017703
X-013376
Y-018703
X-012376
Y-017703
X-011376
Y-018703
X-010376
Y-017703
X-009376
Y-018703
X-008376
Y-017703
X-007376
Y-018703
X-006376
Y-017703
X-005376
Y-018703
X-004376
Y-017703
X-003376
Y-018703
X-002376
Y-017703
X-001376
Y-018703
X-000376
Y-017703
X000624
Y-018703
X-002376Y018092
X-003376
X-004376
X-005376
X-006376
X-007376
X-008376
X-009376
X-010376
X-011376
X-012376
X-013376
X-014376
X-015376
X-016376
Y019092
X-015376
X-014376
X-013376
X-012376
X-011376
X-010376
X-009376
X-008376
X-007376
X-006376
X-005376
X-004376
X-003376
X-002376
X-001376
Y018092
X-000376
Y019092
X000624
Y018092
T07
X-009118Y000630
M30
