G04*
G04 #@! TF.GenerationSoftware,Altium Limited,Altium Designer,21.8.1 (53)*
G04*
G04 Layer_Physical_Order=4*
G04 Layer_Color=16711680*
%FSLAX24Y24*%
%MOIN*%
G70*
G04*
G04 #@! TF.SameCoordinates,EDC69185-3C86-4443-AEAC-3931C59231B4*
G04*
G04*
G04 #@! TF.FilePolarity,Positive*
G04*
G01*
G75*
%ADD11C,0.0157*%
%ADD31C,0.0080*%
%ADD33O,0.0236X0.0748*%
%ADD34R,0.0354X0.0315*%
%ADD35R,0.0315X0.0354*%
%ADD39R,0.0453X0.0709*%
%ADD40C,0.0197*%
%ADD41C,0.0591*%
%ADD42R,0.0591X0.0591*%
%ADD43C,0.0551*%
%ADD44C,0.0478*%
%ADD45C,0.0276*%
%ADD46C,0.0236*%
%ADD47C,0.0787*%
%ADD48C,0.0512*%
%ADD50R,0.0433X0.0217*%
%ADD51R,0.0433X0.0669*%
G04:AMPARAMS|DCode=52|XSize=19.7mil|YSize=23.6mil|CornerRadius=4.9mil|HoleSize=0mil|Usage=FLASHONLY|Rotation=180.000|XOffset=0mil|YOffset=0mil|HoleType=Round|Shape=RoundedRectangle|*
%AMROUNDEDRECTD52*
21,1,0.0197,0.0138,0,0,180.0*
21,1,0.0098,0.0236,0,0,180.0*
1,1,0.0098,-0.0049,0.0069*
1,1,0.0098,0.0049,0.0069*
1,1,0.0098,0.0049,-0.0069*
1,1,0.0098,-0.0049,-0.0069*
%
%ADD52ROUNDEDRECTD52*%
G36*
X-4511Y10360D02*
X-4558Y10341D01*
X-4560Y10344D01*
X-4638Y10388D01*
X-4724Y10411D01*
X-4813D01*
X-4899Y10388D01*
X-4977Y10344D01*
X-5040Y10281D01*
X-5084Y10203D01*
X-5107Y10117D01*
Y10028D01*
X-5084Y9942D01*
X-5040Y9864D01*
X-4977Y9801D01*
X-4899Y9757D01*
X-4813Y9733D01*
X-4724D01*
X-4638Y9757D01*
X-4560Y9801D01*
X-4558Y9804D01*
X-4511Y9785D01*
Y8330D01*
X-5009D01*
Y8380D01*
X-5059D01*
Y8794D01*
X-5295D01*
X-5303Y8841D01*
Y11130D01*
X-4511D01*
Y10360D01*
D02*
G37*
G36*
X-11418D02*
X-11465Y10341D01*
X-11467Y10344D01*
X-11545Y10388D01*
X-11631Y10411D01*
X-11720D01*
X-11806Y10388D01*
X-11884Y10344D01*
X-11947Y10281D01*
X-11991Y10203D01*
X-12015Y10117D01*
Y10028D01*
X-11991Y9942D01*
X-11947Y9864D01*
X-11884Y9801D01*
X-11806Y9757D01*
X-11720Y9733D01*
X-11631D01*
X-11545Y9757D01*
X-11467Y9801D01*
X-11465Y9804D01*
X-11418Y9785D01*
Y8330D01*
X-11909D01*
Y8380D01*
X-11959D01*
Y8794D01*
X-12169D01*
Y11180D01*
X-11418D01*
Y10360D01*
D02*
G37*
G36*
X-3519Y8834D02*
X-3542Y8794D01*
X-3778D01*
Y8380D01*
X-3828D01*
Y8330D01*
X-4114D01*
Y8280D01*
X-4311D01*
Y9780D01*
X-4261Y9796D01*
X-4192Y9757D01*
X-4106Y9733D01*
X-4017D01*
X-3931Y9757D01*
X-3853Y9801D01*
X-3790Y9864D01*
X-3746Y9942D01*
X-3722Y10028D01*
Y10117D01*
X-3746Y10203D01*
X-3790Y10281D01*
X-3853Y10344D01*
X-3931Y10388D01*
X-4017Y10411D01*
X-4106D01*
X-4192Y10388D01*
X-4261Y10348D01*
X-4311Y10365D01*
Y10630D01*
Y11130D01*
X-3519D01*
Y8834D01*
D02*
G37*
G36*
X-10468Y8794D02*
X-10678D01*
Y8380D01*
X-10728D01*
Y8330D01*
X-11219D01*
Y9780D01*
X-11169Y9796D01*
X-11099Y9757D01*
X-11013Y9733D01*
X-10924D01*
X-10838Y9757D01*
X-10760Y9801D01*
X-10697Y9864D01*
X-10653Y9942D01*
X-10630Y10028D01*
Y10117D01*
X-10653Y10203D01*
X-10697Y10281D01*
X-10760Y10344D01*
X-10838Y10388D01*
X-10924Y10411D01*
X-11013D01*
X-11099Y10388D01*
X-11169Y10348D01*
X-11219Y10365D01*
Y10680D01*
Y11180D01*
X-10468D01*
Y8794D01*
D02*
G37*
G36*
X173Y15891D02*
X355Y15816D01*
X519Y15706D01*
X658Y15567D01*
X768Y15403D01*
X843Y15221D01*
X882Y15028D01*
Y14930D01*
Y2630D01*
Y2531D01*
X843Y2338D01*
X768Y2156D01*
X658Y1992D01*
X519Y1853D01*
X355Y1743D01*
X173Y1668D01*
X-20Y1630D01*
X-6045D01*
X-6065Y1676D01*
X-4818Y2922D01*
X-4782Y2958D01*
X-4782Y2958D01*
X-4662Y3099D01*
X-4565Y3257D01*
X-4494Y3428D01*
X-4451Y3609D01*
X-4436Y3794D01*
X-4436D01*
Y4100D01*
X-4387Y4106D01*
X-4348Y3976D01*
X-4284Y3856D01*
X-4198Y3752D01*
X-4197Y3751D01*
X-4198Y3750D01*
X-4041Y3621D01*
X-3862Y3525D01*
X-3667Y3466D01*
X-3465Y3446D01*
Y3447D01*
X-2124D01*
X-2103Y3411D01*
X-2037Y3345D01*
X-1956Y3298D01*
X-1865Y3274D01*
X-1772D01*
X-1681Y3298D01*
X-1600Y3345D01*
X-1534Y3411D01*
X-1487Y3492D01*
X-1463Y3583D01*
Y3676D01*
X-1487Y3767D01*
X-1534Y3848D01*
X-1600Y3914D01*
X-1681Y3961D01*
X-1772Y3985D01*
X-1865D01*
X-1956Y3961D01*
X-2037Y3914D01*
X-2103Y3848D01*
X-2124Y3812D01*
X-3465D01*
X-3470Y3811D01*
X-3596Y3823D01*
X-3722Y3861D01*
X-3839Y3924D01*
X-3937Y4004D01*
X-3940Y4008D01*
X-3943Y4010D01*
X-3993Y4076D01*
X-3998Y4088D01*
X-3970Y4130D01*
X-3398D01*
X-3398Y4130D01*
X-3383D01*
X-3368Y4127D01*
X-3321D01*
X-3318Y4126D01*
Y4127D01*
X-2168D01*
Y4126D01*
X-2166Y4127D01*
X-2119D01*
X-2104Y4130D01*
X-2089D01*
X-2043Y4139D01*
X-2041Y4139D01*
X-2039Y4140D01*
X-1993Y4149D01*
X-1979Y4155D01*
X-1964Y4157D01*
X-1921Y4175D01*
X-1919Y4176D01*
X-1917Y4177D01*
X-1873Y4195D01*
X-1861Y4204D01*
X-1847Y4209D01*
X-1807Y4235D01*
X-1806Y4236D01*
X-1804Y4238D01*
X-1765Y4264D01*
X-1754Y4275D01*
X-1742Y4283D01*
X-1708Y4316D01*
X-1707Y4318D01*
X-1705Y4319D01*
X-1672Y4353D01*
X-1664Y4365D01*
X-1653Y4376D01*
X-1627Y4415D01*
X-1625Y4417D01*
X-1624Y4419D01*
X-1598Y4458D01*
X-1592Y4472D01*
X-1584Y4484D01*
X-1566Y4528D01*
X-1565Y4530D01*
X-1564Y4532D01*
X-1546Y4575D01*
X-1543Y4590D01*
X-1538Y4604D01*
X-1529Y4650D01*
X-1528Y4652D01*
X-1528Y4654D01*
X-1519Y4700D01*
Y4716D01*
X-1516Y4730D01*
Y4777D01*
X-1515Y4780D01*
X-1516D01*
Y10330D01*
Y12680D01*
X-1515D01*
X-1516Y12682D01*
Y12729D01*
X-1519Y12744D01*
Y12759D01*
X-1528Y12805D01*
X-1528Y12807D01*
X-1529Y12809D01*
X-1538Y12855D01*
X-1543Y12869D01*
X-1546Y12884D01*
X-1564Y12927D01*
X-1565Y12929D01*
X-1566Y12931D01*
X-1584Y12975D01*
X-1592Y12987D01*
X-1598Y13001D01*
X-1624Y13041D01*
X-1625Y13042D01*
X-1627Y13044D01*
X-1653Y13083D01*
X-1664Y13094D01*
X-1672Y13106D01*
X-1705Y13140D01*
X-1707Y13141D01*
X-1708Y13143D01*
X-1742Y13176D01*
X-1754Y13184D01*
X-1765Y13195D01*
X-1804Y13221D01*
X-1806Y13223D01*
X-1807Y13224D01*
X-1847Y13250D01*
X-1861Y13256D01*
X-1873Y13264D01*
X-1917Y13282D01*
X-1919Y13283D01*
X-1921Y13284D01*
X-1964Y13302D01*
X-1979Y13305D01*
X-1993Y13310D01*
X-2039Y13320D01*
X-2041Y13320D01*
X-2043Y13320D01*
X-2089Y13330D01*
X-2104D01*
X-2119Y13332D01*
X-2166D01*
X-2168Y13333D01*
Y13332D01*
X-6769D01*
Y13333D01*
X-6771Y13332D01*
X-6818D01*
X-6833Y13330D01*
X-6848D01*
X-6894Y13320D01*
X-6896Y13320D01*
X-6898Y13320D01*
X-6944Y13310D01*
X-6958Y13305D01*
X-6973Y13302D01*
X-7016Y13284D01*
X-7018Y13283D01*
X-7020Y13282D01*
X-7064Y13264D01*
X-7076Y13256D01*
X-7090Y13250D01*
X-7130Y13224D01*
X-7131Y13223D01*
X-7133Y13221D01*
X-7172Y13195D01*
X-7183Y13184D01*
X-7195Y13176D01*
X-7229Y13143D01*
X-7230Y13141D01*
X-7232Y13140D01*
X-7265Y13106D01*
X-7273Y13094D01*
X-7284Y13083D01*
X-7310Y13044D01*
X-7312Y13042D01*
X-7313Y13041D01*
X-7339Y13001D01*
X-7345Y12987D01*
X-7353Y12975D01*
X-7371Y12931D01*
X-7372Y12929D01*
X-7373Y12927D01*
X-7391Y12884D01*
X-7394Y12869D01*
X-7399Y12855D01*
X-7408Y12809D01*
X-7409Y12807D01*
X-7409Y12805D01*
X-7419Y12759D01*
Y12744D01*
X-7421Y12729D01*
Y12682D01*
X-7422Y12680D01*
X-7421D01*
Y4780D01*
X-7422D01*
X-7421Y4777D01*
Y4730D01*
X-7419Y4716D01*
Y4700D01*
X-7409Y4654D01*
X-7409Y4652D01*
X-7408Y4650D01*
X-7399Y4604D01*
X-7394Y4590D01*
X-7391Y4575D01*
X-7373Y4532D01*
X-7372Y4530D01*
X-7371Y4528D01*
X-7353Y4484D01*
X-7345Y4472D01*
X-7339Y4458D01*
X-7313Y4419D01*
X-7312Y4417D01*
X-7310Y4415D01*
X-7284Y4376D01*
X-7273Y4365D01*
X-7265Y4353D01*
X-7232Y4319D01*
X-7230Y4318D01*
X-7229Y4316D01*
X-7195Y4283D01*
X-7183Y4275D01*
X-7172Y4264D01*
X-7133Y4238D01*
X-7131Y4236D01*
X-7130Y4235D01*
X-7090Y4209D01*
X-7076Y4204D01*
X-7064Y4195D01*
X-7020Y4177D01*
X-7018Y4176D01*
X-7016Y4175D01*
X-6973Y4157D01*
X-6958Y4155D01*
X-6944Y4149D01*
X-6898Y4140D01*
X-6896Y4139D01*
X-6894Y4139D01*
X-6848Y4130D01*
X-6833D01*
X-6818Y4127D01*
X-6771D01*
X-6769Y4126D01*
Y4127D01*
X-5619D01*
Y4126D01*
X-5616Y4127D01*
X-5569D01*
X-5554Y4130D01*
X-4801D01*
Y3794D01*
X-4799Y3786D01*
X-4814Y3634D01*
X-4861Y3480D01*
X-4937Y3338D01*
X-5007Y3252D01*
X-5040Y3216D01*
X-5040Y3216D01*
X-6626Y1630D01*
X-9861D01*
X-10669Y2438D01*
X-10669Y2438D01*
X-10810Y2558D01*
X-10967Y2654D01*
X-11137Y2725D01*
X-11316Y2768D01*
X-11500Y2782D01*
Y2782D01*
X-11667D01*
X-11675Y2781D01*
X-11797Y2797D01*
X-11919Y2847D01*
X-11984Y2897D01*
X-12021Y2929D01*
X-12041Y2949D01*
X-12044Y2951D01*
X-12094Y3015D01*
X-12126Y3094D01*
X-12137Y3175D01*
X-12136Y3179D01*
X-12138Y3185D01*
X-12124Y3320D01*
X-12083Y3455D01*
X-12016Y3580D01*
X-11958Y3652D01*
X-11925Y3688D01*
X-11890Y3724D01*
X-11718Y3896D01*
X-11682Y3931D01*
X-11682Y3931D01*
X-11562Y4072D01*
X-11527Y4130D01*
X-11249D01*
X-11246Y4118D01*
X-11179Y3956D01*
X-11088Y3807D01*
X-10974Y3674D01*
X-10841Y3560D01*
X-10692Y3469D01*
X-10672Y3461D01*
X-10682Y3412D01*
X-11614D01*
X-11634Y3431D01*
X-11721Y3467D01*
X-11816D01*
X-11903Y3431D01*
X-11970Y3364D01*
X-12006Y3277D01*
Y3182D01*
X-11970Y3095D01*
X-11903Y3028D01*
X-11816Y2992D01*
X-11721D01*
X-11634Y3028D01*
X-11614Y3047D01*
X-8513D01*
Y3047D01*
X-8369Y3061D01*
X-8230Y3103D01*
X-8102Y3172D01*
X-7990Y3264D01*
X-7990Y3264D01*
X-7962Y3299D01*
X-7960Y3301D01*
X-7946Y3325D01*
X-7865Y3457D01*
X-7794Y3628D01*
X-7751Y3809D01*
X-7736Y3994D01*
X-7736D01*
Y4746D01*
X-7641D01*
Y5248D01*
X-7641Y5261D01*
Y5298D01*
X-7641Y5311D01*
Y5813D01*
X-7680D01*
X-7687Y5818D01*
X-7710Y5863D01*
X-7681Y5932D01*
Y6027D01*
X-7717Y6114D01*
X-7784Y6181D01*
X-7871Y6217D01*
X-7966D01*
X-8053Y6181D01*
X-8120Y6114D01*
X-8156Y6027D01*
Y5932D01*
X-8127Y5863D01*
X-8150Y5818D01*
X-8157Y5813D01*
X-8196D01*
Y5311D01*
X-8196Y5298D01*
Y5261D01*
X-8196Y5248D01*
Y4746D01*
X-8101D01*
Y3994D01*
X-8099Y3986D01*
X-8114Y3834D01*
X-8161Y3680D01*
X-8237Y3538D01*
X-8258Y3512D01*
X-8325Y3461D01*
X-8416Y3423D01*
X-8492Y3413D01*
X-8508Y3461D01*
X-8450Y3495D01*
X-8384Y3561D01*
X-8337Y3642D01*
X-8313Y3733D01*
Y3826D01*
X-8337Y3917D01*
X-8384Y3998D01*
X-8450Y4064D01*
X-8531Y4111D01*
X-8622Y4135D01*
X-8715D01*
X-8806Y4111D01*
X-8887Y4064D01*
X-8953Y3998D01*
X-9000Y3917D01*
X-9024Y3826D01*
Y3733D01*
X-9040Y3712D01*
X-10186D01*
X-10192Y3710D01*
X-10332Y3724D01*
X-10474Y3767D01*
X-10604Y3837D01*
X-10718Y3930D01*
X-10811Y4044D01*
X-10834Y4087D01*
X-10808Y4130D01*
X-10298D01*
X-10298Y4130D01*
X-10283D01*
X-10268Y4127D01*
X-10221D01*
X-10218Y4126D01*
Y4127D01*
X-9068D01*
Y4126D01*
X-9066Y4127D01*
X-9019D01*
X-9004Y4130D01*
X-8989D01*
X-8943Y4139D01*
X-8941Y4139D01*
X-8939Y4140D01*
X-8893Y4149D01*
X-8879Y4155D01*
X-8864Y4157D01*
X-8821Y4175D01*
X-8819Y4176D01*
X-8817Y4177D01*
X-8773Y4195D01*
X-8761Y4204D01*
X-8747Y4209D01*
X-8707Y4235D01*
X-8706Y4236D01*
X-8704Y4238D01*
X-8665Y4264D01*
X-8654Y4275D01*
X-8642Y4283D01*
X-8608Y4316D01*
X-8607Y4318D01*
X-8605Y4319D01*
X-8572Y4353D01*
X-8564Y4365D01*
X-8553Y4376D01*
X-8527Y4415D01*
X-8525Y4417D01*
X-8524Y4419D01*
X-8498Y4458D01*
X-8492Y4472D01*
X-8484Y4484D01*
X-8466Y4528D01*
X-8465Y4530D01*
X-8464Y4532D01*
X-8446Y4575D01*
X-8443Y4590D01*
X-8438Y4604D01*
X-8429Y4650D01*
X-8428Y4652D01*
X-8428Y4654D01*
X-8418Y4700D01*
Y4716D01*
X-8416Y4730D01*
Y4777D01*
X-8415Y4780D01*
X-8416D01*
Y12680D01*
X-8415D01*
X-8416Y12682D01*
Y12729D01*
X-8418Y12744D01*
Y12759D01*
X-8428Y12805D01*
X-8428Y12807D01*
X-8429Y12809D01*
X-8438Y12855D01*
X-8443Y12869D01*
X-8446Y12884D01*
X-8464Y12927D01*
X-8465Y12929D01*
X-8466Y12931D01*
X-8484Y12975D01*
X-8492Y12987D01*
X-8498Y13001D01*
X-8524Y13041D01*
X-8525Y13042D01*
X-8527Y13044D01*
X-8553Y13083D01*
X-8564Y13094D01*
X-8572Y13106D01*
X-8605Y13140D01*
X-8607Y13141D01*
X-8608Y13143D01*
X-8642Y13176D01*
X-8654Y13184D01*
X-8665Y13195D01*
X-8704Y13221D01*
X-8706Y13223D01*
X-8708Y13224D01*
X-8747Y13250D01*
X-8761Y13256D01*
X-8773Y13264D01*
X-8817Y13282D01*
X-8819Y13283D01*
X-8821Y13284D01*
X-8864Y13302D01*
X-8879Y13305D01*
X-8893Y13310D01*
X-8939Y13320D01*
X-8941Y13320D01*
X-8943Y13320D01*
X-8989Y13330D01*
X-9004D01*
X-9019Y13332D01*
X-9066D01*
X-9068Y13333D01*
Y13332D01*
X-13669D01*
Y13333D01*
X-13671Y13332D01*
X-13718D01*
X-13733Y13330D01*
X-13748D01*
X-13794Y13320D01*
X-13796Y13320D01*
X-13798Y13320D01*
X-13844Y13310D01*
X-13858Y13305D01*
X-13873Y13302D01*
X-13916Y13284D01*
X-13918Y13283D01*
X-13920Y13282D01*
X-13964Y13264D01*
X-13976Y13256D01*
X-13990Y13250D01*
X-14030Y13224D01*
X-14031Y13223D01*
X-14033Y13221D01*
X-14072Y13195D01*
X-14083Y13184D01*
X-14095Y13176D01*
X-14129Y13143D01*
X-14130Y13141D01*
X-14132Y13140D01*
X-14165Y13106D01*
X-14173Y13094D01*
X-14184Y13083D01*
X-14210Y13044D01*
X-14212Y13042D01*
X-14213Y13041D01*
X-14239Y13001D01*
X-14245Y12987D01*
X-14253Y12975D01*
X-14271Y12931D01*
X-14272Y12929D01*
X-14273Y12927D01*
X-14291Y12884D01*
X-14294Y12869D01*
X-14299Y12855D01*
X-14308Y12809D01*
X-14309Y12807D01*
X-14309Y12805D01*
X-14319Y12759D01*
Y12744D01*
X-14321Y12729D01*
Y12682D01*
X-14322Y12680D01*
X-14321D01*
Y4780D01*
X-14322D01*
X-14321Y4777D01*
Y4730D01*
X-14318Y4716D01*
Y4700D01*
X-14309Y4654D01*
X-14309Y4652D01*
X-14308Y4650D01*
X-14299Y4604D01*
X-14294Y4590D01*
X-14291Y4575D01*
X-14273Y4532D01*
X-14272Y4530D01*
X-14271Y4528D01*
X-14253Y4484D01*
X-14245Y4472D01*
X-14239Y4458D01*
X-14213Y4419D01*
X-14212Y4417D01*
X-14210Y4415D01*
X-14184Y4376D01*
X-14173Y4365D01*
X-14165Y4353D01*
X-14132Y4319D01*
X-14130Y4318D01*
X-14129Y4316D01*
X-14095Y4283D01*
X-14083Y4275D01*
X-14072Y4264D01*
X-14033Y4238D01*
X-14031Y4236D01*
X-14030Y4235D01*
X-13990Y4209D01*
X-13976Y4204D01*
X-13964Y4195D01*
X-13920Y4177D01*
X-13918Y4176D01*
X-13916Y4175D01*
X-13873Y4157D01*
X-13858Y4155D01*
X-13844Y4149D01*
X-13798Y4140D01*
X-13796Y4139D01*
X-13794Y4139D01*
X-13748Y4130D01*
X-13733D01*
X-13718Y4127D01*
X-13671D01*
X-13669Y4126D01*
Y4127D01*
X-12519D01*
Y4126D01*
X-12516Y4127D01*
X-12469D01*
X-12454Y4130D01*
X-12065D01*
X-12046Y4083D01*
X-12183Y3946D01*
X-12184Y3945D01*
X-12293Y3816D01*
X-12382Y3671D01*
X-12448Y3514D01*
X-12487Y3349D01*
X-12500Y3180D01*
X-12501Y3179D01*
X-12500Y3177D01*
X-12487Y3044D01*
X-12448Y2915D01*
X-12384Y2796D01*
X-12300Y2692D01*
X-12299Y2691D01*
Y2691D01*
X-12279Y2671D01*
X-12263Y2657D01*
X-12148Y2563D01*
X-11998Y2483D01*
X-11836Y2434D01*
X-11667Y2417D01*
Y2418D01*
X-11500D01*
X-11492Y2419D01*
X-11342Y2404D01*
X-11189Y2358D01*
X-11049Y2283D01*
X-10932Y2187D01*
X-10927Y2181D01*
X-10422Y1676D01*
X-10442Y1630D01*
X-15767D01*
X-15960Y1668D01*
X-16142Y1743D01*
X-16306Y1853D01*
X-16445Y1992D01*
X-16555Y2156D01*
X-16630Y2338D01*
X-16668Y2531D01*
Y2630D01*
Y4730D01*
X-16618Y13630D01*
Y14930D01*
Y15028D01*
X-16580Y15221D01*
X-16505Y15403D01*
X-16395Y15567D01*
X-16256Y15706D01*
X-16092Y15816D01*
X-15910Y15891D01*
X-15717Y15930D01*
X-20D01*
X173Y15891D01*
D02*
G37*
G36*
X-11120Y1280D02*
Y729D01*
X-13399D01*
Y729D01*
X-13401Y729D01*
X-13448D01*
X-13463Y726D01*
X-13478D01*
X-13525Y716D01*
X-13527Y716D01*
X-13529Y716D01*
X-13575Y706D01*
X-13589Y701D01*
X-13604Y698D01*
X-13647Y680D01*
X-13649Y679D01*
X-13651Y678D01*
X-13695Y660D01*
X-13707Y652D01*
X-13721Y646D01*
X-13760Y620D01*
X-13762Y619D01*
X-13764Y617D01*
X-13803Y591D01*
X-13814Y580D01*
X-13826Y572D01*
X-13859Y539D01*
X-13861Y537D01*
X-13862Y536D01*
X-13896Y502D01*
X-13904Y490D01*
X-13915Y479D01*
X-13941Y440D01*
X-13942Y438D01*
X-13943Y437D01*
X-13969Y397D01*
X-13975Y383D01*
X-13984Y371D01*
X-14002Y327D01*
X-14003Y326D01*
X-14003Y324D01*
X-14021Y280D01*
X-14024Y265D01*
X-14030Y251D01*
X-14039Y205D01*
X-14040Y203D01*
X-14040Y201D01*
X-14049Y155D01*
Y140D01*
X-14052Y125D01*
Y78D01*
X-14052Y76D01*
X-14052D01*
Y-774D01*
Y-12550D01*
X-17260D01*
X-17278Y-12542D01*
X-17292Y-12528D01*
X-17300Y-12510D01*
Y-12500D01*
Y300D01*
Y398D01*
X-17262Y592D01*
X-17186Y774D01*
X-17077Y937D01*
X-16937Y1077D01*
X-16774Y1186D01*
X-16592Y1262D01*
X-16398Y1300D01*
X-16300Y1300D01*
X-16300Y1300D01*
X-11120Y1280D01*
D02*
G37*
G36*
X-7538Y-412D02*
X-7370D01*
Y-224D01*
X-5821D01*
X-5810Y-279D01*
X-5777Y-329D01*
X-5727Y-362D01*
X-5669Y-373D01*
X-3253D01*
X-3236Y-374D01*
X-3198Y-379D01*
X-3149Y-389D01*
X-3086Y-415D01*
X-3044Y-443D01*
X-3023Y-459D01*
X-2988Y-495D01*
X-2972Y-515D01*
X-2944Y-557D01*
X-2918Y-620D01*
X-2908Y-670D01*
X-2903Y-707D01*
X-2902Y-724D01*
Y-9524D01*
Y-15190D01*
X-2902Y-15190D01*
X-2902Y-15192D01*
X-2900Y-15203D01*
X-2900Y-15204D01*
X-2899Y-15207D01*
Y-15274D01*
X-7899D01*
Y-10474D01*
X-8172D01*
X-8199Y-10424D01*
X-8197Y-10421D01*
X-8189Y-10379D01*
Y-10360D01*
X-8237D01*
X-8248Y-10344D01*
X-8281Y-10322D01*
X-8320Y-10314D01*
X-8349D01*
X-8389D01*
X-8406Y-10318D01*
X-8423Y-10320D01*
X-8425Y-10321D01*
X-8428Y-10322D01*
X-8442Y-10332D01*
X-8457Y-10341D01*
X-8459Y-10343D01*
X-8461Y-10344D01*
X-8470Y-10359D01*
X-8471Y-10360D01*
X-8510D01*
Y-10379D01*
X-8501Y-10421D01*
X-8499Y-10424D01*
X-8517Y-10474D01*
X-8989D01*
X-8998Y-10473D01*
X-8999Y-10471D01*
Y-9626D01*
Y-9524D01*
X-12946D01*
Y-724D01*
X-12945Y-707D01*
X-12940Y-669D01*
X-12931Y-620D01*
X-12905Y-557D01*
X-12877Y-515D01*
X-12861Y-495D01*
X-12825Y-459D01*
X-12804Y-443D01*
X-12762Y-415D01*
X-12700Y-389D01*
X-12650Y-379D01*
X-12613Y-374D01*
X-12595Y-373D01*
X-12485D01*
X-12465Y-377D01*
X-12465Y-377D01*
Y-377D01*
X-10372D01*
X-10372Y-377D01*
X-10372Y-377D01*
X-10345Y-372D01*
X-10343Y-372D01*
X-10313Y-366D01*
X-10313Y-366D01*
X-10312Y-365D01*
X-10312Y-365D01*
X-10312Y-365D01*
X-10312Y-365D01*
X-10312Y-365D01*
X-10288Y-349D01*
X-10262Y-332D01*
X-10262Y-332D01*
X-10262Y-332D01*
X-10262Y-332D01*
X-10261Y-331D01*
X-10261Y-331D01*
X-10261Y-331D01*
X-10245Y-307D01*
X-10228Y-281D01*
X-10228Y-281D01*
X-10227Y-281D01*
X-10227Y-280D01*
X-10227Y-280D01*
X-10227Y-280D01*
X-10227Y-280D01*
X-10221Y-250D01*
X-10216Y-224D01*
X-8876D01*
X-8855Y-274D01*
X-8888Y-353D01*
Y-447D01*
X-8852Y-535D01*
X-8785Y-602D01*
X-8697Y-638D01*
X-8603D01*
X-8515Y-602D01*
X-8448Y-535D01*
X-8415Y-455D01*
X-8411Y-451D01*
X-8320D01*
X-8320Y-451D01*
X-8302Y-448D01*
X-7984D01*
Y-224D01*
X-7805D01*
Y-412D01*
X-7638D01*
Y-174D01*
X-7538D01*
Y-412D01*
D02*
G37*
G36*
X-8320Y-10633D02*
X-8398D01*
X-8389Y-10416D01*
X-8320D01*
Y-10633D01*
D02*
G37*
G36*
X1211Y1300D02*
X1211Y1300D01*
X1251Y1265D01*
X1323Y1187D01*
X1386Y1101D01*
X1440Y1010D01*
X1483Y913D01*
X1516Y812D01*
X1539Y709D01*
X1550Y603D01*
X1550Y550D01*
X1550Y-12400D01*
X-1796D01*
Y-420D01*
Y76D01*
X-1796D01*
X-1796Y78D01*
Y125D01*
X-1799Y140D01*
Y155D01*
X-1808Y201D01*
X-1809Y203D01*
X-1809Y205D01*
X-1818Y251D01*
X-1824Y265D01*
X-1827Y280D01*
X-1845Y324D01*
X-1846Y326D01*
X-1847Y327D01*
X-1865Y371D01*
X-1873Y383D01*
X-1879Y397D01*
X-1905Y437D01*
X-1906Y438D01*
X-1907Y440D01*
X-1934Y479D01*
X-1944Y490D01*
X-1953Y502D01*
X-1986Y536D01*
X-1987Y537D01*
X-1989Y539D01*
X-2022Y572D01*
X-2035Y580D01*
X-2046Y591D01*
X-2085Y617D01*
X-2086Y619D01*
X-2088Y620D01*
X-2127Y646D01*
X-2141Y652D01*
X-2154Y660D01*
X-2197Y678D01*
X-2199Y679D01*
X-2201Y680D01*
X-2245Y698D01*
X-2260Y701D01*
X-2274Y706D01*
X-2320Y716D01*
X-2322Y716D01*
X-2324Y716D01*
X-2370Y726D01*
X-2385D01*
X-2400Y729D01*
X-2447D01*
X-2449Y729D01*
Y729D01*
X-5400D01*
Y1300D01*
X1165D01*
X1211Y1300D01*
D02*
G37*
G36*
X-9101Y-10474D02*
X-9099Y-10484D01*
Y-10524D01*
X-9086D01*
X-9071Y-10546D01*
X-9038Y-10569D01*
X-8999Y-10576D01*
X-8548D01*
X-8501Y-10618D01*
X-8500Y-10622D01*
X-8500Y-10626D01*
X-8501Y-10627D01*
X-8510Y-10670D01*
Y-10689D01*
X-8481D01*
X-8474Y-10701D01*
X-8472Y-10703D01*
X-8471Y-10705D01*
X-8456Y-10715D01*
X-8442Y-10725D01*
X-8439Y-10726D01*
X-8437Y-10727D01*
X-8420Y-10730D01*
X-8403Y-10735D01*
X-8401Y-10734D01*
X-8398Y-10735D01*
X-8349D01*
X-8320D01*
X-8281Y-10727D01*
X-8248Y-10705D01*
X-8237Y-10689D01*
X-8189D01*
Y-10670D01*
X-8197Y-10627D01*
X-8201Y-10622D01*
X-8197Y-10610D01*
X-8176Y-10581D01*
X-8171Y-10576D01*
X-8001D01*
Y-15274D01*
X-12917D01*
X-12949Y-15236D01*
X-12946Y-15224D01*
Y-9626D01*
X-9101D01*
Y-10474D01*
D02*
G37*
%LPC*%
G36*
X-4959Y8794D02*
Y8430D01*
X-4723D01*
Y8794D01*
X-4959D01*
D02*
G37*
G36*
X-11623D02*
X-11859D01*
Y8430D01*
X-11623D01*
Y8794D01*
D02*
G37*
G36*
X-3878D02*
X-4114D01*
Y8430D01*
X-3878D01*
Y8794D01*
D02*
G37*
G36*
X-10778D02*
X-11014D01*
Y8430D01*
X-10778D01*
Y8794D01*
D02*
G37*
G36*
X-437Y15559D02*
X-600D01*
X-615Y15556D01*
X-630D01*
X-790Y15525D01*
X-803Y15519D01*
X-818Y15516D01*
X-969Y15453D01*
X-981Y15445D01*
X-995Y15439D01*
X-1131Y15349D01*
X-1141Y15338D01*
X-1154Y15330D01*
X-1269Y15215D01*
X-1277Y15202D01*
X-1288Y15192D01*
X-1378Y15056D01*
X-1384Y15042D01*
X-1392Y15030D01*
X-1455Y14879D01*
X-1458Y14864D01*
X-1463Y14851D01*
X-1495Y14691D01*
Y14676D01*
X-1498Y14661D01*
Y14498D01*
X-1495Y14483D01*
Y14468D01*
X-1463Y14309D01*
X-1458Y14295D01*
X-1455Y14280D01*
X-1392Y14129D01*
X-1384Y14117D01*
X-1378Y14103D01*
X-1288Y13968D01*
X-1277Y13957D01*
X-1269Y13944D01*
X-1154Y13829D01*
X-1141Y13821D01*
X-1131Y13810D01*
X-995Y13720D01*
X-981Y13714D01*
X-969Y13706D01*
X-818Y13643D01*
X-803Y13640D01*
X-790Y13635D01*
X-630Y13603D01*
X-615D01*
X-600Y13600D01*
X-437D01*
X-422Y13603D01*
X-407D01*
X-248Y13635D01*
X-234Y13640D01*
X-219Y13643D01*
X-68Y13706D01*
X-56Y13714D01*
X-42Y13720D01*
X93Y13810D01*
X104Y13821D01*
X117Y13829D01*
X232Y13944D01*
X240Y13957D01*
X251Y13968D01*
X341Y14103D01*
X347Y14117D01*
X355Y14129D01*
X418Y14280D01*
X421Y14295D01*
X426Y14309D01*
X458Y14468D01*
Y14483D01*
X461Y14498D01*
Y14661D01*
X458Y14676D01*
Y14691D01*
X426Y14851D01*
X421Y14864D01*
X418Y14879D01*
X355Y15030D01*
X347Y15042D01*
X341Y15056D01*
X251Y15192D01*
X240Y15202D01*
X232Y15215D01*
X117Y15330D01*
X104Y15338D01*
X93Y15349D01*
X-42Y15439D01*
X-56Y15445D01*
X-68Y15453D01*
X-219Y15516D01*
X-234Y15519D01*
X-248Y15525D01*
X-407Y15556D01*
X-422D01*
X-437Y15559D01*
D02*
G37*
G36*
X-15237D02*
X-15400D01*
X-15415Y15556D01*
X-15430D01*
X-15589Y15525D01*
X-15603Y15519D01*
X-15618Y15516D01*
X-15769Y15453D01*
X-15781Y15445D01*
X-15795Y15439D01*
X-15931Y15349D01*
X-15941Y15338D01*
X-15954Y15330D01*
X-16069Y15215D01*
X-16077Y15202D01*
X-16088Y15192D01*
X-16178Y15056D01*
X-16184Y15042D01*
X-16192Y15030D01*
X-16255Y14879D01*
X-16258Y14864D01*
X-16264Y14851D01*
X-16295Y14691D01*
Y14676D01*
X-16298Y14661D01*
Y14498D01*
X-16295Y14483D01*
Y14468D01*
X-16264Y14309D01*
X-16258Y14295D01*
X-16255Y14280D01*
X-16192Y14129D01*
X-16184Y14117D01*
X-16178Y14103D01*
X-16088Y13968D01*
X-16077Y13957D01*
X-16069Y13944D01*
X-15954Y13829D01*
X-15941Y13821D01*
X-15931Y13810D01*
X-15795Y13720D01*
X-15781Y13714D01*
X-15769Y13706D01*
X-15618Y13643D01*
X-15603Y13640D01*
X-15589Y13635D01*
X-15430Y13603D01*
X-15415D01*
X-15400Y13600D01*
X-15237D01*
X-15222Y13603D01*
X-15207D01*
X-15048Y13635D01*
X-15034Y13640D01*
X-15019Y13643D01*
X-14868Y13706D01*
X-14856Y13714D01*
X-14842Y13720D01*
X-14706Y13810D01*
X-14696Y13821D01*
X-14683Y13829D01*
X-14568Y13944D01*
X-14560Y13957D01*
X-14549Y13968D01*
X-14459Y14103D01*
X-14453Y14117D01*
X-14445Y14129D01*
X-14382Y14280D01*
X-14379Y14295D01*
X-14374Y14309D01*
X-14342Y14468D01*
Y14483D01*
X-14339Y14498D01*
Y14661D01*
X-14342Y14676D01*
Y14691D01*
X-14374Y14851D01*
X-14379Y14864D01*
X-14382Y14879D01*
X-14445Y15030D01*
X-14453Y15042D01*
X-14459Y15056D01*
X-14549Y15192D01*
X-14560Y15202D01*
X-14568Y15215D01*
X-14683Y15330D01*
X-14696Y15338D01*
X-14706Y15349D01*
X-14842Y15439D01*
X-14856Y15445D01*
X-14868Y15453D01*
X-15019Y15516D01*
X-15034Y15519D01*
X-15048Y15525D01*
X-15207Y15556D01*
X-15222D01*
X-15237Y15559D01*
D02*
G37*
G36*
X-437Y4059D02*
X-600D01*
X-615Y4056D01*
X-630D01*
X-790Y4025D01*
X-803Y4019D01*
X-818Y4016D01*
X-969Y3954D01*
X-981Y3945D01*
X-995Y3939D01*
X-1131Y3849D01*
X-1141Y3838D01*
X-1154Y3830D01*
X-1269Y3715D01*
X-1277Y3702D01*
X-1288Y3692D01*
X-1378Y3556D01*
X-1384Y3542D01*
X-1392Y3530D01*
X-1455Y3379D01*
X-1458Y3364D01*
X-1463Y3351D01*
X-1495Y3191D01*
Y3176D01*
X-1498Y3161D01*
Y2998D01*
X-1495Y2983D01*
Y2968D01*
X-1463Y2809D01*
X-1458Y2795D01*
X-1455Y2780D01*
X-1392Y2629D01*
X-1384Y2617D01*
X-1378Y2603D01*
X-1288Y2468D01*
X-1277Y2457D01*
X-1269Y2444D01*
X-1154Y2329D01*
X-1141Y2321D01*
X-1131Y2310D01*
X-995Y2220D01*
X-981Y2214D01*
X-969Y2206D01*
X-818Y2143D01*
X-803Y2140D01*
X-790Y2135D01*
X-630Y2103D01*
X-615D01*
X-600Y2100D01*
X-437D01*
X-422Y2103D01*
X-407D01*
X-248Y2135D01*
X-234Y2140D01*
X-219Y2143D01*
X-68Y2206D01*
X-56Y2214D01*
X-42Y2220D01*
X93Y2310D01*
X104Y2321D01*
X117Y2329D01*
X232Y2444D01*
X240Y2457D01*
X251Y2468D01*
X341Y2603D01*
X347Y2617D01*
X355Y2629D01*
X418Y2780D01*
X421Y2795D01*
X426Y2809D01*
X458Y2968D01*
Y2983D01*
X461Y2998D01*
Y3161D01*
X458Y3176D01*
Y3191D01*
X426Y3351D01*
X421Y3364D01*
X418Y3379D01*
X355Y3530D01*
X347Y3542D01*
X341Y3556D01*
X251Y3692D01*
X240Y3702D01*
X232Y3715D01*
X117Y3830D01*
X104Y3838D01*
X93Y3849D01*
X-42Y3939D01*
X-56Y3945D01*
X-68Y3954D01*
X-219Y4016D01*
X-234Y4019D01*
X-248Y4025D01*
X-407Y4056D01*
X-422D01*
X-437Y4059D01*
D02*
G37*
G36*
X-15237D02*
X-15400D01*
X-15415Y4056D01*
X-15430D01*
X-15589Y4025D01*
X-15603Y4019D01*
X-15618Y4016D01*
X-15769Y3954D01*
X-15781Y3945D01*
X-15795Y3939D01*
X-15931Y3849D01*
X-15941Y3838D01*
X-15954Y3830D01*
X-16069Y3715D01*
X-16077Y3702D01*
X-16088Y3692D01*
X-16178Y3556D01*
X-16184Y3542D01*
X-16192Y3530D01*
X-16255Y3379D01*
X-16258Y3364D01*
X-16264Y3351D01*
X-16295Y3191D01*
Y3176D01*
X-16298Y3161D01*
Y2998D01*
X-16295Y2983D01*
Y2968D01*
X-16264Y2809D01*
X-16258Y2795D01*
X-16255Y2780D01*
X-16192Y2629D01*
X-16184Y2617D01*
X-16178Y2603D01*
X-16088Y2468D01*
X-16077Y2457D01*
X-16069Y2444D01*
X-15954Y2329D01*
X-15941Y2321D01*
X-15931Y2310D01*
X-15795Y2220D01*
X-15781Y2214D01*
X-15769Y2206D01*
X-15618Y2143D01*
X-15603Y2140D01*
X-15589Y2135D01*
X-15430Y2103D01*
X-15415D01*
X-15400Y2100D01*
X-15237D01*
X-15222Y2103D01*
X-15207D01*
X-15048Y2135D01*
X-15034Y2140D01*
X-15019Y2143D01*
X-14868Y2206D01*
X-14856Y2214D01*
X-14842Y2220D01*
X-14706Y2310D01*
X-14696Y2321D01*
X-14683Y2329D01*
X-14568Y2444D01*
X-14560Y2457D01*
X-14549Y2468D01*
X-14459Y2603D01*
X-14453Y2617D01*
X-14445Y2629D01*
X-14382Y2780D01*
X-14379Y2795D01*
X-14374Y2809D01*
X-14342Y2968D01*
Y2983D01*
X-14339Y2998D01*
Y3161D01*
X-14342Y3176D01*
Y3191D01*
X-14374Y3351D01*
X-14379Y3364D01*
X-14382Y3379D01*
X-14445Y3530D01*
X-14453Y3542D01*
X-14459Y3556D01*
X-14549Y3692D01*
X-14560Y3702D01*
X-14568Y3715D01*
X-14683Y3830D01*
X-14696Y3838D01*
X-14706Y3849D01*
X-14842Y3939D01*
X-14856Y3945D01*
X-14868Y3954D01*
X-15019Y4016D01*
X-15034Y4019D01*
X-15048Y4025D01*
X-15207Y4056D01*
X-15222D01*
X-15237Y4059D01*
D02*
G37*
G36*
X-15668Y963D02*
X-15832D01*
X-15847Y960D01*
X-15862D01*
X-16022Y928D01*
X-16036Y923D01*
X-16051Y920D01*
X-16202Y857D01*
X-16215Y849D01*
X-16228Y843D01*
X-16365Y752D01*
X-16375Y741D01*
X-16388Y733D01*
X-16503Y617D01*
X-16512Y605D01*
X-16522Y594D01*
X-16613Y458D01*
X-16619Y444D01*
X-16628Y432D01*
X-16690Y280D01*
X-16693Y266D01*
X-16699Y252D01*
X-16731Y91D01*
Y76D01*
X-16734Y61D01*
Y-20D01*
Y-102D01*
X-16731Y-117D01*
Y-132D01*
X-16699Y-293D01*
X-16693Y-307D01*
X-16690Y-321D01*
X-16628Y-473D01*
X-16619Y-485D01*
X-16613Y-499D01*
X-16522Y-635D01*
X-16512Y-646D01*
X-16503Y-658D01*
X-16388Y-774D01*
X-16375Y-782D01*
X-16365Y-793D01*
X-16228Y-884D01*
X-16215Y-890D01*
X-16202Y-898D01*
X-16051Y-961D01*
X-16036Y-964D01*
X-16022Y-969D01*
X-15862Y-1001D01*
X-15847D01*
X-15832Y-1004D01*
X-15668D01*
X-15653Y-1001D01*
X-15638D01*
X-15478Y-969D01*
X-15464Y-964D01*
X-15449Y-961D01*
X-15298Y-898D01*
X-15285Y-890D01*
X-15272Y-884D01*
X-15135Y-793D01*
X-15125Y-782D01*
X-15112Y-774D01*
X-14997Y-658D01*
X-14988Y-646D01*
X-14978Y-635D01*
X-14887Y-499D01*
X-14881Y-485D01*
X-14872Y-473D01*
X-14810Y-321D01*
X-14807Y-307D01*
X-14801Y-293D01*
X-14769Y-132D01*
Y-117D01*
X-14766Y-102D01*
Y-20D01*
Y61D01*
X-14769Y76D01*
Y91D01*
X-14801Y252D01*
X-14807Y266D01*
X-14810Y280D01*
X-14872Y432D01*
X-14881Y444D01*
X-14887Y458D01*
X-14978Y594D01*
X-14988Y605D01*
X-14997Y617D01*
X-15112Y733D01*
X-15125Y741D01*
X-15135Y752D01*
X-15272Y843D01*
X-15285Y849D01*
X-15298Y857D01*
X-15449Y920D01*
X-15464Y923D01*
X-15478Y928D01*
X-15638Y960D01*
X-15653D01*
X-15668Y963D01*
D02*
G37*
G36*
X-6122Y-1144D02*
X-6676D01*
Y-1401D01*
X-6995Y-1720D01*
X-7122D01*
X-7202Y-1687D01*
X-7297D01*
X-7384Y-1723D01*
X-7451Y-1790D01*
X-7478Y-1855D01*
X-7532D01*
X-7548Y-1815D01*
X-7615Y-1748D01*
X-7703Y-1712D01*
X-7797D01*
X-7885Y-1748D01*
X-7952Y-1815D01*
X-7988Y-1903D01*
Y-1930D01*
X-8429Y-2371D01*
X-8468Y-2430D01*
X-8482Y-2500D01*
X-8482Y-2500D01*
Y-3299D01*
X-8505Y-3334D01*
X-8522Y-3419D01*
Y-3931D01*
X-8505Y-4016D01*
X-8482Y-4051D01*
Y-4153D01*
X-8482Y-4153D01*
X-8468Y-4223D01*
X-8429Y-4282D01*
X-8282Y-4429D01*
X-8282Y-4429D01*
X-8223Y-4468D01*
X-8153Y-4482D01*
X-8153Y-4482D01*
X-7459D01*
X-7440Y-4528D01*
X-7451Y-4540D01*
X-7487Y-4627D01*
Y-4722D01*
X-7487Y-4722D01*
X-7510Y-4766D01*
X-7541Y-4773D01*
X-7601Y-4812D01*
X-7601Y-4812D01*
X-7844Y-5056D01*
X-7885Y-5064D01*
X-7957Y-5112D01*
X-8005Y-5184D01*
X-8022Y-5269D01*
Y-5781D01*
X-8005Y-5866D01*
X-7957Y-5938D01*
X-7885Y-5987D01*
X-7800Y-6003D01*
X-7715Y-5987D01*
X-7643Y-5938D01*
X-7595Y-5866D01*
X-7578Y-5781D01*
Y-5351D01*
X-7572Y-5348D01*
X-7522Y-5375D01*
Y-5781D01*
X-7505Y-5866D01*
X-7457Y-5938D01*
X-7385Y-5987D01*
X-7300Y-6003D01*
X-7215Y-5987D01*
X-7143Y-5938D01*
X-7095Y-5866D01*
X-7078Y-5781D01*
Y-5269D01*
X-7095Y-5184D01*
X-7106Y-5167D01*
X-7082Y-5123D01*
X-6841D01*
X-6841Y-5123D01*
X-6771Y-5109D01*
X-6712Y-5070D01*
X-6375Y-4732D01*
X-6265D01*
Y-4758D01*
X-5632D01*
Y-4358D01*
X-5376D01*
Y-4384D01*
X-4743D01*
Y-3968D01*
X-5376D01*
Y-3994D01*
X-6776D01*
X-6776Y-3994D01*
X-6846Y-4008D01*
X-6905Y-4047D01*
X-6905Y-4047D01*
X-6975Y-4118D01*
X-7104D01*
X-7129Y-4068D01*
X-7095Y-4016D01*
X-7078Y-3931D01*
Y-3419D01*
X-7095Y-3334D01*
X-7143Y-3262D01*
X-7215Y-3213D01*
X-7300Y-3197D01*
X-7385Y-3213D01*
X-7457Y-3262D01*
X-7505Y-3334D01*
X-7522Y-3419D01*
Y-3931D01*
X-7505Y-4016D01*
X-7471Y-4068D01*
X-7496Y-4118D01*
X-7604D01*
X-7629Y-4068D01*
X-7595Y-4016D01*
X-7578Y-3931D01*
Y-3419D01*
X-7595Y-3334D01*
X-7618Y-3299D01*
Y-3154D01*
X-7598Y-3135D01*
X-7562Y-3047D01*
Y-2953D01*
X-7598Y-2865D01*
X-7665Y-2798D01*
X-7753Y-2762D01*
X-7847D01*
X-7935Y-2798D01*
X-8002Y-2865D01*
X-8038Y-2953D01*
Y-3047D01*
X-8002Y-3135D01*
X-7982Y-3154D01*
Y-3299D01*
X-8005Y-3334D01*
X-8022Y-3419D01*
Y-3931D01*
X-8005Y-4016D01*
X-7971Y-4068D01*
X-7996Y-4118D01*
X-8078D01*
X-8118Y-4078D01*
Y-4051D01*
X-8095Y-4016D01*
X-8078Y-3931D01*
Y-3419D01*
X-8095Y-3334D01*
X-8118Y-3299D01*
Y-2575D01*
X-7730Y-2188D01*
X-7703D01*
X-7615Y-2152D01*
X-7548Y-2085D01*
X-7521Y-2019D01*
X-7467D01*
X-7451Y-2059D01*
X-7384Y-2126D01*
X-7297Y-2162D01*
X-7202D01*
X-7115Y-2126D01*
X-7073Y-2084D01*
X-6919D01*
X-6919Y-2084D01*
X-6849Y-2070D01*
X-6790Y-2031D01*
X-6687Y-1927D01*
X-6640Y-1946D01*
Y-2005D01*
X-6453D01*
Y-1838D01*
X-6532D01*
X-6551Y-1791D01*
X-6419Y-1659D01*
X-6122D01*
Y-1144D01*
D02*
G37*
G36*
X-6166Y-1838D02*
X-6353D01*
Y-2005D01*
X-6166D01*
Y-1838D01*
D02*
G37*
G36*
Y-2105D02*
X-6353D01*
Y-2273D01*
X-6166D01*
Y-2105D01*
D02*
G37*
G36*
X-6453D02*
X-6640D01*
Y-2273D01*
X-6453D01*
Y-2105D01*
D02*
G37*
G36*
X-9608Y-2476D02*
X-9795D01*
Y-2644D01*
X-9608D01*
Y-2476D01*
D02*
G37*
G36*
X-6258D02*
X-6445D01*
Y-2644D01*
X-6258D01*
Y-2476D01*
D02*
G37*
G36*
X-5108D02*
X-5295D01*
Y-2644D01*
X-5108D01*
Y-2476D01*
D02*
G37*
G36*
X-11858D02*
X-12045D01*
Y-2644D01*
X-11858D01*
Y-2476D01*
D02*
G37*
G36*
X-9895D02*
X-10082D01*
Y-2644D01*
X-9895D01*
Y-2476D01*
D02*
G37*
G36*
X-5395D02*
X-5582D01*
Y-2644D01*
X-5395D01*
Y-2476D01*
D02*
G37*
G36*
X-6545D02*
X-6732D01*
Y-2644D01*
X-6545D01*
Y-2476D01*
D02*
G37*
G36*
X-12145D02*
X-12332D01*
Y-2644D01*
X-12145D01*
Y-2476D01*
D02*
G37*
G36*
X-5108Y-2744D02*
X-5295D01*
Y-2911D01*
X-5108D01*
Y-2744D01*
D02*
G37*
G36*
X-5395D02*
X-5582D01*
Y-2911D01*
X-5395D01*
Y-2744D01*
D02*
G37*
G36*
X-6258D02*
X-6445D01*
Y-2911D01*
X-6258D01*
Y-2744D01*
D02*
G37*
G36*
X-6545D02*
X-6732D01*
Y-2911D01*
X-6545D01*
Y-2744D01*
D02*
G37*
G36*
X-9608D02*
X-9795D01*
Y-2911D01*
X-9608D01*
Y-2744D01*
D02*
G37*
G36*
X-9895D02*
X-10082D01*
Y-2911D01*
X-9895D01*
Y-2744D01*
D02*
G37*
G36*
X-11858D02*
X-12045D01*
Y-2911D01*
X-11858D01*
Y-2744D01*
D02*
G37*
G36*
X-12145D02*
X-12332D01*
Y-2911D01*
X-12145D01*
Y-2744D01*
D02*
G37*
G36*
X-5072Y-3090D02*
X-5626D01*
Y-3165D01*
X-6222D01*
Y-3090D01*
X-6776D01*
Y-3605D01*
X-6222D01*
Y-3529D01*
X-5626D01*
Y-3605D01*
X-5523D01*
X-5484Y-3644D01*
X-5451Y-3723D01*
X-5384Y-3790D01*
X-5297Y-3826D01*
X-5202D01*
X-5115Y-3790D01*
X-5048Y-3723D01*
X-5011Y-3636D01*
Y-3541D01*
X-5048Y-3454D01*
X-5072Y-3430D01*
Y-3090D01*
D02*
G37*
G36*
X-9572D02*
X-10126D01*
Y-3605D01*
X-9987D01*
Y-3636D01*
X-9951Y-3723D01*
X-9884Y-3790D01*
X-9797Y-3826D01*
X-9702D01*
X-9615Y-3790D01*
X-9548Y-3723D01*
X-9511Y-3636D01*
Y-3541D01*
X-9548Y-3454D01*
X-9572Y-3430D01*
Y-3090D01*
D02*
G37*
G36*
X-11822D02*
X-12376D01*
Y-3605D01*
X-12237D01*
Y-3636D01*
X-12201Y-3723D01*
X-12134Y-3790D01*
X-12047Y-3826D01*
X-11952D01*
X-11865Y-3790D01*
X-11798Y-3723D01*
X-11761Y-3636D01*
Y-3541D01*
X-11798Y-3454D01*
X-11822Y-3430D01*
Y-3090D01*
D02*
G37*
G36*
X-4802Y-4756D02*
X-5029D01*
Y-4874D01*
X-4802D01*
Y-4756D01*
D02*
G37*
G36*
X-5129D02*
X-5355D01*
Y-4874D01*
X-5129D01*
Y-4756D01*
D02*
G37*
G36*
X-4802Y-4974D02*
X-5029D01*
Y-5092D01*
X-4802D01*
Y-4974D01*
D02*
G37*
G36*
X-5129D02*
X-5355D01*
Y-5092D01*
X-5129D01*
Y-4974D01*
D02*
G37*
G36*
X-9607Y-5170D02*
X-9693D01*
X-9774Y-5203D01*
X-9835Y-5265D01*
X-9837Y-5269D01*
X-11144D01*
X-11163Y-5251D01*
X-11243Y-5218D01*
X-11330D01*
X-11410Y-5251D01*
X-11471Y-5312D01*
X-11504Y-5393D01*
Y-5479D01*
X-11471Y-5560D01*
X-11410Y-5621D01*
X-11330Y-5654D01*
X-11243D01*
X-11163Y-5621D01*
X-11101Y-5560D01*
X-11099Y-5555D01*
X-9792D01*
X-9774Y-5573D01*
X-9693Y-5606D01*
X-9607D01*
X-9526Y-5573D01*
X-9465Y-5512D01*
X-9432Y-5432D01*
Y-5345D01*
X-9465Y-5265D01*
X-9526Y-5203D01*
X-9607Y-5170D01*
D02*
G37*
G36*
X-8750Y-5098D02*
Y-5475D01*
X-8618D01*
Y-5269D01*
X-8632Y-5200D01*
X-8672Y-5141D01*
X-8731Y-5102D01*
X-8750Y-5098D01*
D02*
G37*
G36*
X-8850D02*
X-8869Y-5102D01*
X-8928Y-5141D01*
X-8968Y-5200D01*
X-8982Y-5269D01*
Y-5475D01*
X-8850D01*
Y-5098D01*
D02*
G37*
G36*
X-8703Y-1362D02*
X-8797D01*
X-8885Y-1398D01*
X-8952Y-1465D01*
X-8988Y-1553D01*
Y-1647D01*
X-8970Y-1690D01*
X-8982Y-1750D01*
X-8982Y-1750D01*
Y-2725D01*
X-9329Y-3071D01*
X-9368Y-3130D01*
X-9382Y-3200D01*
X-9382Y-3200D01*
Y-4000D01*
X-9382Y-4000D01*
X-9368Y-4070D01*
X-9329Y-4129D01*
X-8482Y-4975D01*
Y-5149D01*
X-8505Y-5184D01*
X-8522Y-5269D01*
Y-5664D01*
X-8527Y-5667D01*
X-8527Y-5667D01*
X-8572Y-5713D01*
X-8618Y-5694D01*
Y-5575D01*
X-8982D01*
Y-5781D01*
X-8968Y-5851D01*
X-8928Y-5910D01*
X-8875Y-5945D01*
X-8862Y-5973D01*
X-8855Y-5996D01*
X-9121Y-6261D01*
X-9124Y-6267D01*
X-9273Y-6415D01*
X-9323Y-6394D01*
Y-6367D01*
X-9877D01*
Y-6367D01*
X-9925Y-6362D01*
X-9932Y-6330D01*
X-9971Y-6271D01*
X-9971Y-6271D01*
X-10171Y-6071D01*
X-10230Y-6032D01*
X-10300Y-6018D01*
X-10300Y-6018D01*
X-10693D01*
X-10693Y-6018D01*
X-10763Y-6032D01*
X-10822Y-6071D01*
X-10822Y-6071D01*
X-10887Y-6137D01*
X-10947D01*
X-11034Y-6173D01*
X-11101Y-6240D01*
X-11137Y-6327D01*
Y-6422D01*
X-11101Y-6509D01*
X-11034Y-6576D01*
X-10947Y-6612D01*
X-10876D01*
Y-6859D01*
X-10322D01*
Y-6751D01*
X-10272Y-6747D01*
X-10268Y-6765D01*
X-10229Y-6824D01*
X-9877Y-7176D01*
Y-7433D01*
X-9323D01*
Y-6932D01*
X-9323Y-6918D01*
X-9323D01*
Y-6882D01*
X-9323D01*
Y-6807D01*
X-9224D01*
X-9224Y-6807D01*
X-9155Y-6793D01*
X-9096Y-6753D01*
X-8900Y-6558D01*
X-8841Y-6569D01*
X-8784Y-6626D01*
X-8697Y-6662D01*
X-8626D01*
Y-6859D01*
X-8072D01*
Y-6344D01*
X-8369D01*
X-8395Y-6318D01*
X-8454Y-6279D01*
X-8460Y-6277D01*
X-8515Y-6223D01*
X-8523Y-6179D01*
X-8340Y-5996D01*
X-8300Y-6003D01*
X-8215Y-5987D01*
X-8143Y-5938D01*
X-8095Y-5866D01*
X-8078Y-5781D01*
Y-5269D01*
X-8095Y-5184D01*
X-8118Y-5149D01*
Y-4900D01*
X-8132Y-4830D01*
X-8171Y-4771D01*
X-8171Y-4771D01*
X-8753Y-4189D01*
X-8739Y-4141D01*
X-8715Y-4136D01*
X-8643Y-4088D01*
X-8595Y-4016D01*
X-8578Y-3931D01*
Y-3419D01*
X-8595Y-3334D01*
X-8643Y-3262D01*
X-8715Y-3213D01*
X-8800Y-3197D01*
X-8885Y-3213D01*
X-8917Y-3174D01*
X-8671Y-2929D01*
X-8671Y-2929D01*
X-8632Y-2870D01*
X-8618Y-2800D01*
Y-1824D01*
X-8582Y-1770D01*
X-8581Y-1767D01*
X-8548Y-1735D01*
X-8512Y-1647D01*
Y-1553D01*
X-8548Y-1465D01*
X-8615Y-1398D01*
X-8703Y-1362D01*
D02*
G37*
G36*
X-4102Y-6187D02*
X-4197D01*
X-4284Y-6223D01*
X-4351Y-6290D01*
X-4387Y-6377D01*
Y-6472D01*
X-4351Y-6559D01*
X-4284Y-6626D01*
X-4197Y-6662D01*
X-4126D01*
Y-6859D01*
X-3572D01*
Y-6344D01*
X-3869D01*
X-3895Y-6318D01*
X-3954Y-6279D01*
X-3960Y-6277D01*
X-4015Y-6223D01*
X-4102Y-6187D01*
D02*
G37*
G36*
X-6352D02*
X-6447D01*
X-6534Y-6223D01*
X-6601Y-6290D01*
X-6637Y-6377D01*
Y-6472D01*
X-6601Y-6559D01*
X-6534Y-6626D01*
X-6447Y-6662D01*
X-6376D01*
Y-6859D01*
X-5822D01*
Y-6344D01*
X-6119D01*
X-6145Y-6318D01*
X-6204Y-6279D01*
X-6210Y-6277D01*
X-6265Y-6223D01*
X-6352Y-6187D01*
D02*
G37*
G36*
X-3616Y-7038D02*
X-3803D01*
Y-7205D01*
X-3616D01*
Y-7038D01*
D02*
G37*
G36*
X-3903D02*
X-4090D01*
Y-7205D01*
X-3903D01*
Y-7038D01*
D02*
G37*
G36*
X-5866D02*
X-6053D01*
Y-7205D01*
X-5866D01*
Y-7038D01*
D02*
G37*
G36*
X-6153D02*
X-6340D01*
Y-7205D01*
X-6153D01*
Y-7038D01*
D02*
G37*
G36*
X-8116D02*
X-8303D01*
Y-7205D01*
X-8116D01*
Y-7038D01*
D02*
G37*
G36*
X-8403D02*
X-8590D01*
Y-7205D01*
X-8403D01*
Y-7038D01*
D02*
G37*
G36*
X-10366D02*
X-10553D01*
Y-7205D01*
X-10366D01*
Y-7038D01*
D02*
G37*
G36*
X-10653D02*
X-10840D01*
Y-7205D01*
X-10653D01*
Y-7038D01*
D02*
G37*
G36*
X-3616Y-7305D02*
X-3803D01*
Y-7473D01*
X-3616D01*
Y-7305D01*
D02*
G37*
G36*
X-3903D02*
X-4090D01*
Y-7473D01*
X-3903D01*
Y-7305D01*
D02*
G37*
G36*
X-5866D02*
X-6053D01*
Y-7473D01*
X-5866D01*
Y-7305D01*
D02*
G37*
G36*
X-6153D02*
X-6340D01*
Y-7473D01*
X-6153D01*
Y-7305D01*
D02*
G37*
G36*
X-8116D02*
X-8303D01*
Y-7473D01*
X-8116D01*
Y-7305D01*
D02*
G37*
G36*
X-8403D02*
X-8590D01*
Y-7473D01*
X-8403D01*
Y-7305D01*
D02*
G37*
G36*
X-10366D02*
X-10553D01*
Y-7473D01*
X-10366D01*
Y-7305D01*
D02*
G37*
G36*
X-10653D02*
X-10840D01*
Y-7473D01*
X-10653D01*
Y-7305D01*
D02*
G37*
G36*
X-6653Y-7662D02*
X-6747D01*
X-6835Y-7698D01*
X-6902Y-7765D01*
X-6903Y-7768D01*
X-7546D01*
X-7565Y-7748D01*
X-7653Y-7712D01*
X-7747D01*
X-7835Y-7748D01*
X-7902Y-7815D01*
X-7938Y-7903D01*
Y-7997D01*
X-7902Y-8085D01*
X-7835Y-8152D01*
X-7747Y-8188D01*
X-7653D01*
X-7565Y-8152D01*
X-7546Y-8132D01*
X-6782D01*
X-6782Y-8132D01*
X-6768Y-8129D01*
X-6747Y-8138D01*
X-6653D01*
X-6565Y-8102D01*
X-6498Y-8035D01*
X-6462Y-7947D01*
Y-7853D01*
X-6498Y-7765D01*
X-6565Y-7698D01*
X-6653Y-7662D01*
D02*
G37*
G36*
X-4952Y-8687D02*
X-5047D01*
X-5134Y-8723D01*
X-5153Y-8742D01*
X-5651D01*
Y-8696D01*
X-6284D01*
Y-9524D01*
Y-9566D01*
X-5651D01*
Y-9524D01*
Y-9447D01*
D01*
Y-9107D01*
X-5153D01*
X-5134Y-9126D01*
X-5047Y-9162D01*
X-4952D01*
X-4865Y-9126D01*
X-4798Y-9059D01*
X-4761Y-8972D01*
Y-8877D01*
X-4798Y-8790D01*
X-4865Y-8723D01*
X-4952Y-8687D01*
D02*
G37*
G36*
X-6754Y-8736D02*
X-6981D01*
Y-9081D01*
X-6754D01*
Y-8736D01*
D02*
G37*
G36*
X-7081D02*
X-7307D01*
Y-9081D01*
X-7081D01*
Y-8736D01*
D02*
G37*
G36*
X-6754Y-9181D02*
X-6981D01*
Y-9526D01*
X-6754D01*
Y-9524D01*
Y-9456D01*
D01*
Y-9181D01*
D02*
G37*
G36*
X-7081D02*
X-7307D01*
Y-9524D01*
Y-9526D01*
X-7081D01*
Y-9181D01*
D02*
G37*
G36*
X-8299Y-10130D02*
Y-10260D01*
X-8189D01*
Y-10241D01*
X-8197Y-10198D01*
X-8221Y-10162D01*
X-8257Y-10138D01*
X-8299Y-10130D01*
D02*
G37*
G36*
X-8399D02*
X-8441Y-10138D01*
X-8477Y-10162D01*
X-8501Y-10198D01*
X-8510Y-10241D01*
Y-10260D01*
X-8399D01*
Y-10130D01*
D02*
G37*
G36*
X-6754Y-9923D02*
X-6981D01*
Y-10268D01*
X-6754D01*
Y-9923D01*
D02*
G37*
G36*
X-7081D02*
X-7307D01*
Y-10268D01*
X-7081D01*
Y-9923D01*
D02*
G37*
G36*
X-6754Y-10368D02*
X-6981D01*
Y-10712D01*
X-6754D01*
Y-10368D01*
D02*
G37*
G36*
X-7081D02*
X-7307D01*
Y-10712D01*
X-7081D01*
Y-10368D01*
D02*
G37*
G36*
X-5651Y-9883D02*
X-6284D01*
Y-10752D01*
X-5651D01*
Y-10707D01*
X-5153D01*
X-5134Y-10726D01*
X-5047Y-10762D01*
X-4952D01*
X-4865Y-10726D01*
X-4798Y-10659D01*
X-4761Y-10572D01*
Y-10477D01*
X-4798Y-10390D01*
X-4865Y-10323D01*
X-4952Y-10287D01*
X-5047D01*
X-5134Y-10323D01*
X-5153Y-10342D01*
X-5651D01*
Y-9883D01*
D02*
G37*
G36*
X-4450Y-13549D02*
X-4549D01*
X-4644Y-13574D01*
X-4730Y-13624D01*
X-4800Y-13694D01*
X-4849Y-13779D01*
X-4875Y-13875D01*
Y-13974D01*
X-4849Y-14069D01*
X-4800Y-14155D01*
X-4730Y-14225D01*
X-4644Y-14274D01*
X-4549Y-14300D01*
X-4450D01*
X-4354Y-14274D01*
X-4269Y-14225D01*
X-4199Y-14155D01*
X-4149Y-14069D01*
X-4124Y-13974D01*
Y-13875D01*
X-4149Y-13779D01*
X-4199Y-13694D01*
X-4269Y-13624D01*
X-4354Y-13574D01*
X-4450Y-13549D01*
D02*
G37*
G36*
X79Y959D02*
X-83D01*
X-98Y956D01*
X-113D01*
X-273Y925D01*
X-287Y919D01*
X-302Y916D01*
X-452Y853D01*
X-465Y845D01*
X-479Y839D01*
X-614Y749D01*
X-625Y738D01*
X-637Y730D01*
X-752Y615D01*
X-761Y602D01*
X-771Y592D01*
X-862Y456D01*
X-868Y442D01*
X-876Y430D01*
X-938Y279D01*
X-941Y264D01*
X-947Y251D01*
X-979Y91D01*
Y76D01*
X-982Y61D01*
Y-102D01*
X-979Y-117D01*
Y-132D01*
X-947Y-291D01*
X-941Y-305D01*
X-938Y-320D01*
X-876Y-471D01*
X-868Y-483D01*
X-862Y-497D01*
X-771Y-632D01*
X-761Y-643D01*
X-752Y-656D01*
X-637Y-771D01*
X-625Y-779D01*
X-614Y-790D01*
X-479Y-880D01*
X-465Y-886D01*
X-452Y-894D01*
X-302Y-957D01*
X-287Y-960D01*
X-273Y-965D01*
X-113Y-997D01*
X-98D01*
X-83Y-1000D01*
X79D01*
X94Y-997D01*
X109D01*
X269Y-965D01*
X283Y-960D01*
X298Y-957D01*
X448Y-894D01*
X461Y-886D01*
X475Y-880D01*
X610Y-790D01*
X621Y-779D01*
X633Y-771D01*
X748Y-656D01*
X757Y-643D01*
X767Y-632D01*
X858Y-497D01*
X864Y-483D01*
X872Y-471D01*
X934Y-320D01*
X937Y-305D01*
X943Y-291D01*
X975Y-132D01*
Y-117D01*
X978Y-102D01*
Y61D01*
X975Y76D01*
Y91D01*
X943Y251D01*
X937Y264D01*
X934Y279D01*
X872Y430D01*
X864Y442D01*
X858Y456D01*
X767Y592D01*
X757Y602D01*
X748Y615D01*
X633Y730D01*
X621Y738D01*
X610Y749D01*
X475Y839D01*
X461Y845D01*
X448Y853D01*
X298Y916D01*
X283Y919D01*
X269Y925D01*
X109Y956D01*
X94D01*
X79Y959D01*
D02*
G37*
G36*
X-8189Y-10789D02*
X-8299D01*
Y-10919D01*
X-8257Y-10911D01*
X-8221Y-10887D01*
X-8197Y-10850D01*
X-8189Y-10808D01*
Y-10789D01*
D02*
G37*
G36*
X-8399D02*
X-8510D01*
Y-10808D01*
X-8501Y-10850D01*
X-8477Y-10887D01*
X-8441Y-10911D01*
X-8399Y-10919D01*
Y-10789D01*
D02*
G37*
G36*
X-11971Y-11583D02*
X-12066D01*
X-12153Y-11619D01*
X-12220Y-11686D01*
X-12256Y-11773D01*
Y-11868D01*
X-12220Y-11955D01*
X-12153Y-12022D01*
X-12066Y-12058D01*
X-11971D01*
X-11884Y-12022D01*
X-11817Y-11955D01*
X-11781Y-11868D01*
Y-11773D01*
X-11817Y-11686D01*
X-11884Y-11619D01*
X-11971Y-11583D01*
D02*
G37*
%LPD*%
D11*
X-4911Y3087D02*
G03*
X-4618Y3794I-707J707D01*
G01*
X-5968Y-10318D02*
G03*
X-5761Y-10524I207J0D01*
G01*
X-7783Y630D02*
G03*
X-7076Y922I0J1000D01*
G01*
X-10798Y2309D02*
G03*
X-11500Y2600I-702J-702D01*
G01*
X-11811Y4060D02*
G03*
X-11520Y4719I-707J707D01*
G01*
X-12054Y3817D02*
G03*
X-12319Y3179I638J-638D01*
G01*
D02*
G03*
X-12170Y2820I508J0D01*
G01*
X-12150Y2800D02*
G03*
X-11667Y2600I483J483D01*
G01*
X-11520Y4719D02*
G03*
X-11518Y4767I-999J48D01*
G01*
X-11119Y4462D02*
G03*
X-10186Y3530I933J0D01*
G01*
X-4069Y3880D02*
G03*
X-3465Y3630I604J604D01*
G01*
X-4218Y4242D02*
G03*
X-4069Y3880I512J0D01*
G01*
X-5761Y-8924D02*
G03*
X-5968Y-9131I0J-207D01*
G01*
X-8119Y3393D02*
G03*
X-7919Y3994I-799J601D01*
G01*
X-8513Y3230D02*
G03*
X-8119Y3393I0J557D01*
G01*
X-8487Y-269D02*
X-8320D01*
X-8650Y-400D02*
X-8618D01*
X-8241Y-190D02*
Y-170D01*
X-8320Y-269D02*
X-8241Y-190D01*
X-8618Y-400D02*
X-8487Y-269D01*
X-8300Y-5760D02*
Y-4900D01*
X-9200Y-4000D02*
X-8300Y-4900D01*
X-9200Y-4000D02*
Y-3200D01*
X-8398Y-5796D02*
X-8336D01*
X-8992Y-6390D02*
X-8398Y-5796D01*
X-8336D02*
X-8300Y-5760D01*
X-9749Y-3589D02*
X-9739Y-3599D01*
X-9224Y-6624D02*
X-8992Y-6392D01*
Y-6390D01*
X-9600Y-6624D02*
X-9224D01*
X-9620Y-7176D02*
X-9600D01*
X-10100Y-6695D02*
X-9620Y-7176D01*
X-10100Y-6695D02*
Y-6400D01*
X-10300Y-6200D02*
X-10100Y-6400D01*
X-10867Y-6374D02*
X-10693Y-6200D01*
X-10300D01*
X-10899Y-6374D02*
X-10867D01*
X-7800Y-3675D02*
Y-3000D01*
X-5089Y8350D02*
X-5009Y8270D01*
X-7076Y922D02*
X-4911Y3087D01*
X-5523Y-3347D02*
X-5281Y-3589D01*
X-5761Y-10524D02*
X-4999D01*
X-9118Y630D02*
X-7783D01*
X-11989Y8350D02*
X-11909Y8270D01*
X-11667Y2600D02*
X-11500D01*
X-12054Y3817D02*
X-11811Y4060D01*
X-12170Y2820D02*
X-12150Y2800D01*
X-6732Y-7900D02*
X-6700D01*
X-6782Y-7950D02*
X-6732Y-7900D01*
X-7700Y-7950D02*
X-6782D01*
X-8800Y-2800D02*
Y-1750D01*
X-8750Y-1700D01*
X-9200Y-3200D02*
X-8800Y-2800D01*
X-8153Y-4300D02*
X-6900D01*
X-8300Y-4153D02*
X-8153Y-4300D01*
X-6776Y-4176D02*
X-5059D01*
X-6900Y-4300D02*
X-6776Y-4176D01*
X-6450Y-4550D02*
X-5949D01*
X-6841Y-4941D02*
X-6450Y-4550D01*
X-7472Y-4941D02*
X-6841D01*
X-7800Y-5269D02*
X-7472Y-4941D01*
X-7800Y-5525D02*
Y-5269D01*
X-8300Y-4153D02*
Y-3675D01*
Y-2500D01*
X-7750Y-1950D01*
X-10798Y2309D02*
X-9118Y630D01*
X-4618Y3794D02*
Y7880D01*
X-11518Y4767D02*
Y7880D01*
X-8938Y3530D02*
X-8688Y3780D01*
X-8669D01*
X-10186Y3530D02*
X-8938D01*
X-11768Y3230D02*
X-8513D01*
X-3465Y3630D02*
X-1819D01*
X-4218Y7930D02*
X-3798Y8350D01*
X-4218Y4242D02*
Y7930D01*
X-5761Y-8924D02*
X-4999D01*
X-11119Y7930D02*
X-10698Y8350D01*
X-11119Y4462D02*
Y7930D01*
X-5009Y8252D02*
Y8270D01*
X-4861Y8104D02*
X-4843D01*
X-5009Y8252D02*
X-4861Y8104D01*
X-4843D02*
X-4618Y7880D01*
X-11909Y8252D02*
X-11761Y8104D01*
X-11743D01*
X-11518Y7880D01*
X-11909Y8252D02*
Y8270D01*
X-7919Y3994D02*
Y5004D01*
Y5980D02*
X-7918Y5980D01*
X-7919Y5555D02*
Y5980D01*
X-7249Y-1924D02*
X-7227Y-1902D01*
X-6919D01*
X-6419Y-1402D01*
X-8627Y-6447D02*
X-8523D01*
X-6119Y-6602D02*
X-6099D01*
X-8369D02*
X-8349D01*
X-8649Y-6424D02*
X-8627Y-6447D01*
X-8523D02*
X-8369Y-6602D01*
X-6377Y-6447D02*
X-6273D01*
X-6399Y-6424D02*
X-6377Y-6447D01*
X-6273D02*
X-6119Y-6602D01*
X-6499Y-3347D02*
X-5523D01*
X-10619Y-6602D02*
X-10599D01*
X-6419Y-1402D02*
X-6399D01*
X-5281Y-3589D02*
X-5249D01*
X-4127Y-6447D02*
X-4023D01*
X-3869Y-6602D02*
X-3849D01*
X-4023Y-6447D02*
X-3869Y-6602D01*
X-4149Y-6424D02*
X-4127Y-6447D01*
X-10899Y-6374D02*
X-10877Y-6397D01*
X-10823D02*
X-10619Y-6602D01*
X-10877Y-6397D02*
X-10823D01*
D31*
X-11262Y-5412D02*
X-9674D01*
X-11286Y-5436D02*
X-11262Y-5412D01*
X-9674D02*
X-9650Y-5388D01*
D33*
X-8800Y-3675D02*
D03*
X-8300D02*
D03*
X-7800D02*
D03*
X-7300D02*
D03*
X-8800Y-5525D02*
D03*
X-8300D02*
D03*
X-7800D02*
D03*
X-7300D02*
D03*
D34*
X-9600Y-7176D02*
D03*
Y-6624D02*
D03*
X-3853Y-7255D02*
D03*
X-3849Y-6602D02*
D03*
X-6103Y-7255D02*
D03*
X-6099Y-6602D02*
D03*
X-8353Y-7255D02*
D03*
X-8349Y-6602D02*
D03*
X-10603Y-7255D02*
D03*
X-10599Y-6602D02*
D03*
X-6403Y-2055D02*
D03*
X-6399Y-1402D02*
D03*
X-5345Y-2694D02*
D03*
X-5349Y-3347D02*
D03*
X-6495Y-2694D02*
D03*
X-6499Y-3347D02*
D03*
X-9845Y-2694D02*
D03*
X-9849Y-3347D02*
D03*
X-12095Y-2694D02*
D03*
X-12099Y-3347D02*
D03*
X-7919Y5555D02*
D03*
Y5004D02*
D03*
D35*
X-7588Y-174D02*
D03*
X-8241Y-170D02*
D03*
D39*
X-10728Y8380D02*
D03*
X-11909D02*
D03*
X-3828D02*
D03*
X-5009D02*
D03*
D40*
X-10100Y1150D02*
G03*
X-10221Y1200I-121J-121D01*
G01*
X-9750Y386D02*
G03*
X-10043Y1093I-1000J0D01*
G01*
X-6300Y-600D02*
G03*
X-6200Y-700I100J0D01*
G01*
X-5850Y1150D02*
G03*
X-6300Y700I0J-450D01*
G01*
X-11750Y1200D02*
X-10221D01*
X-10100Y1150D02*
X-10043Y1093D01*
X-9750Y-650D02*
Y386D01*
X-6300Y-600D02*
Y700D01*
X-5850Y1150D02*
X-5000D01*
D41*
X-16376Y19092D02*
D03*
Y18092D02*
D03*
X-15376Y19092D02*
D03*
Y18092D02*
D03*
X-14376Y19092D02*
D03*
Y18092D02*
D03*
X-13376Y19092D02*
D03*
Y18092D02*
D03*
X-12376Y19092D02*
D03*
Y18092D02*
D03*
X-11376Y19092D02*
D03*
Y18092D02*
D03*
X-10376Y19092D02*
D03*
Y18092D02*
D03*
X-9376Y19092D02*
D03*
Y18092D02*
D03*
X-8376Y19092D02*
D03*
Y18092D02*
D03*
X-7376Y19092D02*
D03*
Y18092D02*
D03*
X-6376Y19092D02*
D03*
Y18092D02*
D03*
X-5376Y19092D02*
D03*
Y18092D02*
D03*
X-4376Y19092D02*
D03*
Y18092D02*
D03*
X-3376Y19092D02*
D03*
Y18092D02*
D03*
X-2376Y19092D02*
D03*
Y18092D02*
D03*
X-1376Y19092D02*
D03*
Y18092D02*
D03*
X-376Y19092D02*
D03*
Y18092D02*
D03*
X624Y19092D02*
D03*
X-16376Y-17703D02*
D03*
Y-18703D02*
D03*
X-15376Y-17703D02*
D03*
Y-18703D02*
D03*
X-14376Y-17703D02*
D03*
Y-18703D02*
D03*
X-13376Y-17703D02*
D03*
Y-18703D02*
D03*
X-12376Y-17703D02*
D03*
Y-18703D02*
D03*
X-11376Y-17703D02*
D03*
Y-18703D02*
D03*
X-10376Y-17703D02*
D03*
Y-18703D02*
D03*
X-9376Y-17703D02*
D03*
Y-18703D02*
D03*
X-8376Y-17703D02*
D03*
Y-18703D02*
D03*
X-7376Y-17703D02*
D03*
Y-18703D02*
D03*
X-6376Y-17703D02*
D03*
Y-18703D02*
D03*
X-5376Y-17703D02*
D03*
Y-18703D02*
D03*
X-4376Y-17703D02*
D03*
Y-18703D02*
D03*
X-3376Y-17703D02*
D03*
Y-18703D02*
D03*
X-2376Y-17703D02*
D03*
Y-18703D02*
D03*
X-1376Y-17703D02*
D03*
Y-18703D02*
D03*
X-376Y-17703D02*
D03*
Y-18703D02*
D03*
X624Y-17703D02*
D03*
D42*
Y18092D02*
D03*
Y-18703D02*
D03*
D43*
X-4499Y-13924D02*
D03*
X-3999Y-14424D02*
D03*
Y-13424D02*
D03*
X-4999D02*
D03*
Y-14424D02*
D03*
D44*
X-11676Y10780D02*
D03*
X-10969D02*
D03*
Y10072D02*
D03*
X-11676D02*
D03*
X-4769Y10780D02*
D03*
X-4061D02*
D03*
Y10072D02*
D03*
X-4769D02*
D03*
D45*
X-7800Y-3000D02*
D03*
X-7700Y-7950D02*
D03*
X-6700Y-7900D02*
D03*
X-8750Y-1600D02*
D03*
X-7750Y-1950D02*
D03*
X-8650Y-400D02*
D03*
X-3918Y9180D02*
D03*
X-4868D02*
D03*
X-11768D02*
D03*
X-10819D02*
D03*
X-12811Y7244D02*
D03*
X-9776Y7230D02*
D03*
X-5904Y7244D02*
D03*
X-2869Y7230D02*
D03*
X-11768Y3230D02*
D03*
X-2919Y-15620D02*
D03*
X-3618D02*
D03*
X-4218D02*
D03*
X-4818D02*
D03*
X-5418D02*
D03*
X-6018D02*
D03*
X-12569Y-15670D02*
D03*
X-11818Y-8920D02*
D03*
X-12419Y-10270D02*
D03*
X-6549Y-10124D02*
D03*
Y-9324D02*
D03*
X-4999Y-9474D02*
D03*
X-10999Y-10524D02*
D03*
X-10899Y-9224D02*
D03*
X-7699Y-12374D02*
D03*
X-10249Y-11974D02*
D03*
X-6699Y-474D02*
D03*
X-8999Y-7924D02*
D03*
X-6549Y-10674D02*
D03*
X-7899Y-8924D02*
D03*
X-10999Y-10924D02*
D03*
X-4999Y-8924D02*
D03*
X-10999Y-9774D02*
D03*
X-10299Y-13424D02*
D03*
X-7549Y-11024D02*
D03*
X-4999Y-11074D02*
D03*
Y-10024D02*
D03*
X-12019Y-11820D02*
D03*
X-7446Y-16120D02*
D03*
X-7918Y5980D02*
D03*
X-4999Y-10524D02*
D03*
X-11999Y-3589D02*
D03*
X-7349Y-1474D02*
D03*
X-3349Y-7224D02*
D03*
X-3849Y-7774D02*
D03*
X-4299Y-7224D02*
D03*
X-12649Y-2674D02*
D03*
X-12099Y-2174D02*
D03*
X-11599Y-2674D02*
D03*
X-11099Y-7074D02*
D03*
X-9649Y-11274D02*
D03*
X-4149Y-6424D02*
D03*
X-6399D02*
D03*
X-7249Y-1924D02*
D03*
Y-4674D02*
D03*
X-5249Y-3589D02*
D03*
X-5799Y-2724D02*
D03*
X-6899Y-3274D02*
D03*
X-7749Y-6874D02*
D03*
X-6449Y-5074D02*
D03*
X-10899Y-6374D02*
D03*
X-8649Y-6424D02*
D03*
X-9749Y-3589D02*
D03*
X-9349Y-2724D02*
D03*
X-10349Y-2674D02*
D03*
X-10649Y-7724D02*
D03*
X-8849Y-6874D02*
D03*
X-6849Y-2174D02*
D03*
X-5349Y-2224D02*
D03*
X-4849Y-2774D02*
D03*
X-5949Y-7774D02*
D03*
X-6606Y-7274D02*
D03*
X-6349Y-7924D02*
D03*
D46*
X-11286Y-5436D02*
D03*
X-9650Y-5388D02*
D03*
D47*
X-9118Y630D02*
D03*
D48*
X-1819Y3630D02*
D03*
X-8669Y3780D02*
D03*
X-3018Y2580D02*
D03*
X-9469Y2430D02*
D03*
D50*
X-5059Y-4176D02*
D03*
X-5079Y-4924D02*
D03*
X-5949Y-4550D02*
D03*
D51*
X-5968Y-9131D02*
D03*
X-7031D02*
D03*
X-5968Y-10318D02*
D03*
X-7031D02*
D03*
D52*
X-8349Y-10739D02*
D03*
Y-10310D02*
D03*
M02*
