G04*
G04 #@! TF.GenerationSoftware,Altium Limited,Altium Designer,21.8.1 (53)*
G04*
G04 Layer_Physical_Order=1*
G04 Layer_Color=255*
%FSLAX24Y24*%
%MOIN*%
G70*
G04*
G04 #@! TF.SameCoordinates,EDC69185-3C86-4443-AEAC-3931C59231B4*
G04*
G04*
G04 #@! TF.FilePolarity,Positive*
G04*
G01*
G75*
%ADD11C,0.0157*%
%ADD14C,0.0079*%
%ADD15C,0.0060*%
%ADD23R,0.0090X0.0535*%
%ADD24R,0.0535X0.0090*%
%ADD31C,0.0080*%
%ADD32C,0.0080*%
%ADD33O,0.0236X0.0748*%
%ADD34R,0.0354X0.0315*%
%ADD35R,0.0315X0.0354*%
G04:AMPARAMS|DCode=36|XSize=65mil|YSize=35.4mil|CornerRadius=8.9mil|HoleSize=0mil|Usage=FLASHONLY|Rotation=270.000|XOffset=0mil|YOffset=0mil|HoleType=Round|Shape=RoundedRectangle|*
%AMROUNDEDRECTD36*
21,1,0.0650,0.0177,0,0,270.0*
21,1,0.0472,0.0354,0,0,270.0*
1,1,0.0177,-0.0089,-0.0236*
1,1,0.0177,-0.0089,0.0236*
1,1,0.0177,0.0089,0.0236*
1,1,0.0177,0.0089,-0.0236*
%
%ADD36ROUNDEDRECTD36*%
%ADD37R,0.0177X0.0335*%
%ADD38R,0.0236X0.0197*%
%ADD39R,0.0453X0.0709*%
%ADD40C,0.0197*%
%ADD41C,0.0591*%
%ADD42R,0.0591X0.0591*%
%ADD43C,0.0551*%
%ADD44C,0.0478*%
%ADD45C,0.0276*%
%ADD46C,0.0236*%
%ADD47C,0.0787*%
%ADD48C,0.0512*%
G36*
X-4511Y10360D02*
X-4558Y10341D01*
X-4560Y10344D01*
X-4638Y10388D01*
X-4724Y10411D01*
X-4813D01*
X-4899Y10388D01*
X-4977Y10344D01*
X-5040Y10281D01*
X-5084Y10203D01*
X-5107Y10117D01*
Y10028D01*
X-5084Y9942D01*
X-5040Y9864D01*
X-4977Y9801D01*
X-4899Y9757D01*
X-4813Y9733D01*
X-4725D01*
X-4704Y9713D01*
Y8334D01*
X-5274D01*
X-5274Y8334D01*
Y8334D01*
X-5274Y8334D01*
X-5318Y8347D01*
Y11130D01*
X-4511D01*
Y10360D01*
D02*
G37*
G36*
X-11418D02*
X-11465Y10341D01*
X-11467Y10344D01*
X-11545Y10388D01*
X-11631Y10411D01*
X-11720D01*
X-11806Y10388D01*
X-11884Y10344D01*
X-11947Y10281D01*
X-11991Y10203D01*
X-12015Y10117D01*
Y10028D01*
X-11991Y9942D01*
X-11947Y9864D01*
X-11884Y9801D01*
X-11806Y9757D01*
X-11720Y9733D01*
X-11632D01*
X-11611Y9713D01*
Y8330D01*
X-12169D01*
Y11080D01*
X-11418D01*
Y10360D01*
D02*
G37*
G36*
X-3519Y8378D02*
X-3533Y8334D01*
X-4103D01*
Y9722D01*
X-4091Y9733D01*
X-4017D01*
X-3931Y9757D01*
X-3853Y9801D01*
X-3790Y9864D01*
X-3746Y9942D01*
X-3722Y10028D01*
Y10117D01*
X-3746Y10203D01*
X-3790Y10281D01*
X-3853Y10344D01*
X-3931Y10388D01*
X-4017Y10411D01*
X-4106D01*
X-4192Y10388D01*
X-4261Y10348D01*
X-4311Y10365D01*
Y10680D01*
Y11130D01*
X-3519D01*
Y8378D01*
D02*
G37*
G36*
X-10468Y8330D02*
X-11010D01*
Y9722D01*
X-10998Y9733D01*
X-10924D01*
X-10838Y9757D01*
X-10760Y9801D01*
X-10697Y9864D01*
X-10653Y9942D01*
X-10630Y10028D01*
Y10117D01*
X-10653Y10203D01*
X-10697Y10281D01*
X-10760Y10344D01*
X-10838Y10388D01*
X-10924Y10411D01*
X-11013D01*
X-11099Y10388D01*
X-11169Y10348D01*
X-11219Y10365D01*
Y10680D01*
Y11080D01*
X-10468D01*
Y8330D01*
D02*
G37*
G36*
X-4463Y1680D02*
X-6861D01*
Y4093D01*
X-6818Y4127D01*
X-6771D01*
X-6769Y4126D01*
Y4127D01*
X-5619D01*
Y4126D01*
X-5616Y4127D01*
X-5569D01*
X-5554Y4130D01*
X-5539D01*
X-5493Y4139D01*
X-5491Y4139D01*
X-5489Y4140D01*
X-5443Y4149D01*
X-5429Y4155D01*
X-5414Y4157D01*
X-5371Y4175D01*
X-5369Y4176D01*
X-5367Y4177D01*
X-5361Y4180D01*
X-4463D01*
Y1680D01*
D02*
G37*
G36*
X-11420Y1681D02*
X-11422Y1680D01*
X-13819D01*
Y4097D01*
X-13816Y4101D01*
X-13769Y4134D01*
X-13748Y4130D01*
X-13733D01*
X-13718Y4127D01*
X-13671D01*
X-13669Y4126D01*
Y4127D01*
X-12519D01*
Y4126D01*
X-12516Y4127D01*
X-12469D01*
X-12454Y4130D01*
X-12439D01*
X-12393Y4139D01*
X-12391Y4139D01*
X-12389Y4140D01*
X-12343Y4149D01*
X-12329Y4155D01*
X-12314Y4157D01*
X-12271Y4175D01*
X-12269Y4176D01*
X-12267Y4177D01*
X-12261Y4180D01*
X-11420D01*
Y1681D01*
D02*
G37*
G36*
X-3570Y4177D02*
X-3568Y4176D01*
X-3566Y4175D01*
X-3523Y4157D01*
X-3508Y4155D01*
X-3494Y4149D01*
X-3448Y4140D01*
X-3446Y4139D01*
X-3444Y4139D01*
X-3398Y4130D01*
X-3383D01*
X-3368Y4127D01*
X-3321D01*
X-3318Y4126D01*
Y4127D01*
X-2168D01*
Y4126D01*
X-2166Y4127D01*
X-2119D01*
X-2104Y4130D01*
X-2089D01*
X-2043Y4139D01*
X-2041Y4139D01*
X-2039Y4140D01*
X-2011Y4145D01*
X-1971Y4120D01*
X-1962Y4108D01*
X-1961Y4107D01*
Y3958D01*
X-2037Y3914D01*
X-2103Y3848D01*
X-2150Y3767D01*
X-2174Y3676D01*
Y3583D01*
X-2150Y3492D01*
X-2103Y3411D01*
X-2037Y3345D01*
X-1961Y3301D01*
Y1680D01*
X-4361D01*
Y4180D01*
X-3576D01*
X-3570Y4177D01*
D02*
G37*
G36*
X-10470D02*
X-10468Y4176D01*
X-10466Y4175D01*
X-10423Y4157D01*
X-10408Y4155D01*
X-10394Y4149D01*
X-10348Y4140D01*
X-10346Y4139D01*
X-10344Y4139D01*
X-10298Y4130D01*
X-10283D01*
X-10268Y4127D01*
X-10221D01*
X-10218Y4126D01*
Y4127D01*
X-9068D01*
Y4126D01*
X-9066Y4127D01*
X-9019D01*
X-9004Y4130D01*
X-8989D01*
X-8969Y4134D01*
X-8921Y4101D01*
X-8918Y4097D01*
Y4033D01*
X-8953Y3998D01*
X-9000Y3917D01*
X-9024Y3826D01*
Y3733D01*
X-9000Y3642D01*
X-8953Y3561D01*
X-8918Y3526D01*
Y1680D01*
X-11315D01*
X-11319Y1681D01*
Y4180D01*
X-10476D01*
X-10470Y4177D01*
D02*
G37*
G36*
X-9612Y565D02*
X-9579Y439D01*
X-9514Y326D01*
X-9422Y234D01*
X-9309Y169D01*
X-9183Y136D01*
X-9085D01*
X-9064Y86D01*
X-9807Y-657D01*
X-9808Y-657D01*
X-9924Y-793D01*
X-10018Y-946D01*
X-10087Y-1112D01*
X-10118Y-1241D01*
X-10276D01*
Y-1756D01*
X-10276D01*
Y-1793D01*
X-10276D01*
Y-2307D01*
X-9722D01*
Y-2193D01*
X-9626D01*
Y-2307D01*
X-9072D01*
Y-2193D01*
X-8681D01*
Y-2193D01*
X-8681Y-2193D01*
X-8674Y-2242D01*
X-8719Y-2251D01*
X-8791Y-2299D01*
X-8839Y-2372D01*
X-8856Y-2457D01*
Y-2968D01*
X-8839Y-3054D01*
X-8791Y-3126D01*
X-8719Y-3174D01*
X-8680Y-3182D01*
X-8685Y-3232D01*
X-8966D01*
Y-3230D01*
X-9128Y-3246D01*
X-9283Y-3293D01*
X-9426Y-3370D01*
X-9448Y-3388D01*
X-9486Y-3418D01*
X-9499Y-3425D01*
X-9506Y-3434D01*
X-9568Y-3433D01*
X-9572Y-3430D01*
Y-3090D01*
X-10126D01*
Y-3605D01*
X-9987D01*
Y-3636D01*
X-9953Y-3718D01*
X-9955Y-3721D01*
X-9972Y-3806D01*
Y-4318D01*
X-9955Y-4403D01*
X-9906Y-4475D01*
X-9834Y-4524D01*
X-9804Y-4530D01*
X-9787Y-4584D01*
X-10004Y-4801D01*
X-10004Y-4801D01*
X-10005Y-4800D01*
X-10106Y-4923D01*
X-10167Y-5037D01*
X-10224D01*
X-10245Y-4998D01*
X-10347Y-4873D01*
X-10347Y-4873D01*
X-10384Y-4838D01*
X-10723Y-4498D01*
X-10723Y-4498D01*
X-10724Y-4498D01*
X-10728Y-4495D01*
X-10797Y-4405D01*
X-10800Y-4399D01*
X-10794Y-4390D01*
X-10777Y-4305D01*
Y-3793D01*
X-10794Y-3708D01*
X-10842Y-3636D01*
X-10914Y-3588D01*
X-10999Y-3571D01*
X-11084Y-3588D01*
X-11156Y-3636D01*
X-11205Y-3708D01*
X-11222Y-3793D01*
Y-4305D01*
X-11205Y-4390D01*
X-11156Y-4462D01*
X-11084Y-4511D01*
X-11057Y-4516D01*
X-11018Y-4589D01*
X-10957Y-4663D01*
X-10926Y-4700D01*
X-10926Y-4701D01*
X-10925Y-4700D01*
X-10585Y-5041D01*
X-10550Y-5075D01*
X-10519Y-5112D01*
X-10462Y-5186D01*
X-10408Y-5317D01*
X-10398Y-5393D01*
X-10443Y-5432D01*
X-10499Y-5421D01*
X-10584Y-5438D01*
X-10656Y-5486D01*
X-10705Y-5559D01*
X-10722Y-5644D01*
Y-6046D01*
X-10772Y-6069D01*
X-10777Y-6064D01*
Y-5644D01*
X-10794Y-5559D01*
X-10842Y-5486D01*
X-10914Y-5438D01*
X-10999Y-5421D01*
X-11029Y-5427D01*
X-11068Y-5396D01*
Y-5393D01*
X-11101Y-5312D01*
X-11163Y-5251D01*
X-11243Y-5218D01*
X-11330D01*
X-11410Y-5251D01*
X-11471Y-5312D01*
X-11504Y-5393D01*
Y-5422D01*
X-11584Y-5438D01*
X-11656Y-5486D01*
X-11705Y-5559D01*
X-11722Y-5644D01*
Y-6156D01*
X-11705Y-6241D01*
X-11656Y-6313D01*
X-11584Y-6361D01*
X-11499Y-6378D01*
X-11414Y-6361D01*
X-11342Y-6313D01*
X-11294Y-6241D01*
X-11277Y-6156D01*
Y-5686D01*
X-11272Y-5684D01*
X-11222Y-5717D01*
Y-6156D01*
X-11205Y-6241D01*
X-11156Y-6313D01*
X-11137Y-6326D01*
X-11137Y-6327D01*
Y-6422D01*
X-11101Y-6509D01*
X-11034Y-6576D01*
X-10947Y-6612D01*
X-10876D01*
Y-6859D01*
X-10386D01*
X-10376Y-6965D01*
X-10369Y-6988D01*
X-10406Y-7038D01*
X-10545D01*
Y-7205D01*
X-10358D01*
Y-7179D01*
X-10308Y-7167D01*
X-10237Y-7299D01*
X-10153Y-7401D01*
X-10123Y-7439D01*
X-10122Y-7439D01*
X-10121Y-7438D01*
X-9892Y-7667D01*
X-9892Y-7667D01*
X-9892Y-7667D01*
X-9862Y-7705D01*
X-9825Y-7753D01*
X-9783Y-7853D01*
X-9769Y-7957D01*
X-9770Y-7961D01*
Y-8057D01*
X-9969D01*
Y-8224D01*
X-12946D01*
Y-724D01*
X-12945Y-707D01*
X-12940Y-669D01*
X-12931Y-620D01*
X-12921Y-596D01*
X-12724Y-399D01*
X-12700Y-389D01*
X-12650Y-379D01*
X-12613Y-374D01*
X-12595Y-373D01*
X-12485D01*
X-12465Y-377D01*
X-12465Y-377D01*
Y-377D01*
X-10372D01*
X-10372Y-377D01*
X-10372Y-377D01*
X-10345Y-372D01*
X-10343Y-372D01*
X-10313Y-366D01*
X-10313Y-366D01*
X-10312Y-365D01*
X-10312Y-365D01*
X-10312Y-365D01*
X-10312Y-365D01*
X-10312Y-365D01*
X-10288Y-349D01*
X-10262Y-332D01*
X-10262Y-332D01*
X-10262Y-332D01*
X-10262Y-332D01*
X-10261Y-331D01*
X-10261Y-331D01*
X-10261Y-331D01*
X-10245Y-307D01*
X-10228Y-281D01*
X-10228Y-281D01*
X-10227Y-281D01*
X-10227Y-280D01*
X-10227Y-280D01*
X-10227Y-280D01*
X-10227Y-280D01*
X-10221Y-250D01*
X-10221Y-249D01*
X-10216Y-221D01*
X-10215Y-220D01*
X-10216D01*
Y176D01*
Y576D01*
X-10212Y580D01*
X-9612D01*
Y565D01*
D02*
G37*
G36*
X-8326Y-501D02*
X-8339Y-521D01*
X-8356Y-606D01*
Y-1118D01*
X-8339Y-1203D01*
X-8291Y-1275D01*
X-8276Y-1285D01*
Y-1354D01*
X-8276Y-1357D01*
X-8288Y-1482D01*
X-8326Y-1606D01*
X-8387Y-1720D01*
X-8467Y-1818D01*
X-8469Y-1820D01*
X-8470Y-1820D01*
X-8531Y-1867D01*
X-8604Y-1897D01*
X-8680Y-1907D01*
X-8681Y-1907D01*
X-9072D01*
Y-1793D01*
X-9072D01*
Y-1756D01*
X-9072D01*
Y-1545D01*
X-9026Y-1526D01*
X-8988Y-1564D01*
Y-1647D01*
X-8952Y-1735D01*
X-8885Y-1802D01*
X-8797Y-1838D01*
X-8703D01*
X-8615Y-1802D01*
X-8548Y-1735D01*
X-8512Y-1647D01*
Y-1553D01*
X-8548Y-1465D01*
X-8615Y-1398D01*
X-8618Y-1388D01*
X-8581Y-1330D01*
X-8549Y-1324D01*
X-8476Y-1275D01*
X-8428Y-1203D01*
X-8411Y-1118D01*
Y-606D01*
X-8428Y-521D01*
X-8437Y-508D01*
X-8415Y-455D01*
X-8411Y-451D01*
X-8352D01*
X-8326Y-501D01*
D02*
G37*
G36*
X-5821Y576D02*
Y180D01*
Y-220D01*
X-5810Y-279D01*
X-5777Y-329D01*
X-5727Y-362D01*
X-5669Y-373D01*
X-3253D01*
X-3236Y-374D01*
X-3198Y-379D01*
X-3149Y-389D01*
X-3086Y-415D01*
X-3044Y-443D01*
X-3023Y-459D01*
X-2988Y-495D01*
X-2972Y-515D01*
X-2944Y-557D01*
X-2918Y-620D01*
X-2908Y-670D01*
X-2903Y-707D01*
X-2902Y-724D01*
Y-8224D01*
X-4311D01*
X-4320Y-8110D01*
X-4362Y-7935D01*
X-4430Y-7769D01*
X-4524Y-7617D01*
X-4551Y-7585D01*
X-4555Y-7579D01*
X-4582Y-7540D01*
X-4594Y-7522D01*
X-4607Y-7458D01*
X-4607Y-7455D01*
Y-6322D01*
X-4592Y-6313D01*
X-4544Y-6241D01*
X-4527Y-6156D01*
Y-5644D01*
X-4544Y-5559D01*
X-4592Y-5486D01*
X-4603Y-5479D01*
X-4594Y-5389D01*
X-4553Y-5255D01*
X-4488Y-5132D01*
X-4430Y-5063D01*
X-4397Y-5026D01*
X-4397Y-5026D01*
X-4284Y-4888D01*
X-4200Y-4731D01*
X-4148Y-4560D01*
X-4142Y-4496D01*
X-4092Y-4462D01*
X-4044Y-4390D01*
X-4027Y-4305D01*
Y-3793D01*
X-4044Y-3708D01*
X-4092Y-3636D01*
X-4164Y-3588D01*
X-4249Y-3571D01*
X-4334Y-3588D01*
X-4406Y-3636D01*
X-4455Y-3708D01*
X-4472Y-3793D01*
Y-4305D01*
X-4455Y-4390D01*
X-4422Y-4439D01*
X-4429Y-4504D01*
X-4464Y-4622D01*
X-4522Y-4729D01*
X-4568Y-4786D01*
X-4602Y-4822D01*
X-4602Y-4822D01*
X-4726Y-4973D01*
X-4818Y-5146D01*
X-4875Y-5333D01*
X-4889Y-5475D01*
X-4906Y-5486D01*
X-4955Y-5559D01*
X-4972Y-5644D01*
Y-6156D01*
X-4955Y-6241D01*
X-4906Y-6313D01*
X-4892Y-6322D01*
Y-7455D01*
X-4893D01*
X-4877Y-7574D01*
X-4831Y-7686D01*
X-4804Y-7722D01*
X-4802Y-7724D01*
X-4805Y-7726D01*
X-4735Y-7811D01*
X-4655Y-7960D01*
X-4607Y-8121D01*
X-4600Y-8187D01*
X-4634Y-8224D01*
X-5597D01*
X-5622Y-8182D01*
X-5580Y-8103D01*
X-5524Y-7916D01*
X-5504Y-7721D01*
X-5507D01*
Y-6236D01*
X-5457Y-6231D01*
X-5455Y-6241D01*
X-5406Y-6313D01*
X-5334Y-6361D01*
X-5249Y-6378D01*
X-5164Y-6361D01*
X-5092Y-6313D01*
X-5044Y-6241D01*
X-5027Y-6156D01*
Y-5644D01*
X-5044Y-5559D01*
X-5092Y-5486D01*
X-5164Y-5438D01*
X-5249Y-5421D01*
X-5334Y-5438D01*
X-5374Y-5465D01*
X-5412Y-5430D01*
X-5336Y-5287D01*
X-5213Y-5138D01*
X-5205Y-5132D01*
X-4941Y-4868D01*
X-4941Y-4869D01*
X-4824Y-4732D01*
X-4730Y-4579D01*
X-4705Y-4519D01*
X-4664Y-4511D01*
X-4592Y-4462D01*
X-4544Y-4390D01*
X-4527Y-4305D01*
Y-3793D01*
X-4544Y-3708D01*
X-4592Y-3636D01*
X-4664Y-3588D01*
X-4749Y-3571D01*
X-4834Y-3588D01*
X-4906Y-3636D01*
X-4955Y-3708D01*
X-4972Y-3793D01*
Y-4305D01*
X-4955Y-4388D01*
X-4955Y-4389D01*
X-5035Y-4538D01*
X-5138Y-4663D01*
X-5143Y-4666D01*
X-5407Y-4931D01*
X-5407Y-4931D01*
X-5408Y-4930D01*
X-5542Y-5087D01*
X-5650Y-5262D01*
X-5729Y-5453D01*
X-5752Y-5547D01*
X-5805Y-5555D01*
X-5842Y-5499D01*
X-5914Y-5451D01*
X-5999Y-5434D01*
X-6084Y-5451D01*
X-6156Y-5499D01*
X-6205Y-5572D01*
X-6222Y-5657D01*
Y-6052D01*
X-6272Y-6075D01*
X-6277Y-6071D01*
Y-5657D01*
X-6294Y-5572D01*
X-6342Y-5499D01*
X-6414Y-5451D01*
X-6499Y-5434D01*
X-6584Y-5451D01*
X-6656Y-5499D01*
X-6705Y-5572D01*
X-6722Y-5657D01*
Y-6169D01*
X-6705Y-6254D01*
X-6656Y-6326D01*
X-6625Y-6347D01*
X-6637Y-6377D01*
Y-6472D01*
X-6601Y-6559D01*
X-6534Y-6626D01*
X-6447Y-6662D01*
X-6376D01*
Y-6859D01*
X-5822D01*
X-5792Y-6897D01*
Y-7721D01*
X-5791Y-7725D01*
X-5804Y-7860D01*
X-5845Y-7993D01*
X-5911Y-8116D01*
X-5968Y-8187D01*
X-6000Y-8224D01*
X-6000Y-8224D01*
X-6001Y-8224D01*
X-7514D01*
Y-8100D01*
X-7498Y-8085D01*
X-7462Y-7997D01*
Y-7903D01*
X-7498Y-7815D01*
X-7565Y-7748D01*
X-7627Y-7723D01*
X-7628Y-7722D01*
X-7639Y-7666D01*
X-7010Y-7037D01*
X-6974Y-7002D01*
X-6963Y-6989D01*
X-6958Y-6981D01*
X-6958Y-6981D01*
X-6954Y-6976D01*
X-6945Y-6964D01*
X-6913Y-6923D01*
X-6784D01*
Y-6526D01*
X-6857D01*
Y-6335D01*
X-6842Y-6326D01*
X-6794Y-6254D01*
X-6777Y-6169D01*
Y-5657D01*
X-6794Y-5572D01*
X-6842Y-5499D01*
X-6914Y-5451D01*
X-6933Y-5447D01*
X-6949Y-5393D01*
X-6861Y-5286D01*
X-6855Y-5282D01*
X-6684Y-5111D01*
X-6647Y-5077D01*
X-6647Y-5077D01*
X-6523Y-4925D01*
X-6430Y-4753D01*
X-6374Y-4566D01*
X-6366Y-4492D01*
X-6342Y-4475D01*
X-6294Y-4403D01*
X-6277Y-4318D01*
Y-3806D01*
X-6294Y-3721D01*
X-6342Y-3649D01*
X-6368Y-3631D01*
X-6379Y-3564D01*
X-6371Y-3555D01*
X-6172D01*
Y-3040D01*
X-6726D01*
Y-3436D01*
X-6758Y-3475D01*
X-6815Y-3580D01*
X-6866Y-3571D01*
X-6867Y-3564D01*
X-6899Y-3488D01*
X-6948Y-3424D01*
X-6948Y-3424D01*
X-6948Y-3423D01*
X-7047Y-3342D01*
X-7161Y-3281D01*
X-7284Y-3244D01*
X-7411Y-3231D01*
Y-3232D01*
X-7583D01*
X-7588Y-3182D01*
X-7549Y-3174D01*
X-7476Y-3126D01*
X-7428Y-3054D01*
X-7411Y-2968D01*
Y-2518D01*
X-7406Y-2513D01*
X-7356Y-2534D01*
Y-2968D01*
X-7339Y-3054D01*
X-7291Y-3126D01*
X-7219Y-3174D01*
X-7134Y-3191D01*
X-7049Y-3174D01*
X-6976Y-3126D01*
X-6928Y-3054D01*
X-6911Y-2968D01*
Y-2457D01*
X-6928Y-2372D01*
X-6976Y-2299D01*
X-7049Y-2251D01*
X-7134Y-2234D01*
X-7192Y-2246D01*
X-7217Y-2200D01*
X-7163Y-2146D01*
X-7115Y-2126D01*
X-7048Y-2059D01*
X-7027Y-2010D01*
X-6676Y-1659D01*
X-6172D01*
Y-1144D01*
X-6726D01*
Y-1283D01*
X-6735Y-1284D01*
X-6839Y-1327D01*
X-6928Y-1395D01*
X-6928Y-1396D01*
X-7219Y-1687D01*
X-7297D01*
X-7384Y-1723D01*
X-7451Y-1790D01*
X-7478Y-1855D01*
X-7532D01*
X-7548Y-1815D01*
X-7615Y-1748D01*
X-7667Y-1727D01*
X-7682Y-1666D01*
X-7673Y-1655D01*
X-7580Y-1482D01*
X-7528Y-1310D01*
X-7476Y-1275D01*
X-7428Y-1203D01*
X-7411Y-1118D01*
Y-606D01*
X-7428Y-521D01*
X-7473Y-454D01*
X-7461Y-404D01*
X-7370D01*
Y-217D01*
X-7588D01*
X-7805D01*
Y-404D01*
X-7805D01*
X-7794Y-454D01*
X-7839Y-521D01*
X-7856Y-606D01*
Y-1118D01*
X-7839Y-1203D01*
X-7808Y-1250D01*
X-7845Y-1373D01*
X-7911Y-1496D01*
X-7952Y-1547D01*
X-8003Y-1538D01*
X-8007Y-1534D01*
X-7989Y-1354D01*
X-7991D01*
Y-1285D01*
X-7976Y-1275D01*
X-7928Y-1203D01*
X-7911Y-1118D01*
Y-606D01*
X-7928Y-521D01*
X-7976Y-449D01*
X-7984Y-444D01*
Y107D01*
X-8224D01*
X-8243Y153D01*
X-7817Y580D01*
X-5825D01*
X-5821Y576D01*
D02*
G37*
G36*
X-8966Y-3517D02*
X-7411D01*
X-7409Y-3517D01*
X-7315Y-3529D01*
X-7226Y-3566D01*
X-7188Y-3595D01*
X-7177Y-3604D01*
X-7156Y-3649D01*
X-7205Y-3721D01*
X-7222Y-3806D01*
Y-4287D01*
X-7223Y-4289D01*
X-7272Y-4311D01*
X-7277Y-4307D01*
Y-3806D01*
X-7294Y-3721D01*
X-7342Y-3649D01*
X-7414Y-3601D01*
X-7499Y-3584D01*
X-7584Y-3601D01*
X-7656Y-3649D01*
X-7705Y-3721D01*
X-7722Y-3806D01*
Y-4318D01*
X-7705Y-4403D01*
X-7656Y-4475D01*
X-7584Y-4524D01*
X-7502Y-4540D01*
X-7472Y-4579D01*
X-7477Y-4604D01*
X-7487Y-4627D01*
Y-4722D01*
X-7451Y-4809D01*
X-7384Y-4876D01*
X-7297Y-4912D01*
X-7202D01*
X-7115Y-4876D01*
X-7048Y-4809D01*
X-7011Y-4722D01*
Y-4716D01*
X-6909Y-4702D01*
X-6794Y-4654D01*
X-6737Y-4611D01*
X-6694Y-4641D01*
X-6695Y-4643D01*
X-6761Y-4766D01*
X-6818Y-4837D01*
X-6850Y-4873D01*
X-6850Y-4874D01*
X-7057Y-5081D01*
X-7058Y-5080D01*
X-7174Y-5217D01*
X-7268Y-5369D01*
X-7308Y-5467D01*
X-7369Y-5482D01*
X-7414Y-5451D01*
X-7499Y-5434D01*
X-7584Y-5451D01*
X-7656Y-5499D01*
X-7705Y-5572D01*
X-7722Y-5657D01*
Y-6169D01*
X-7705Y-6254D01*
X-7656Y-6326D01*
X-7584Y-6374D01*
X-7499Y-6391D01*
X-7443Y-6380D01*
X-7397Y-6418D01*
X-7403Y-6463D01*
X-7429Y-6526D01*
X-7614D01*
Y-6919D01*
X-7630Y-6948D01*
X-7639Y-6963D01*
X-8057Y-7381D01*
X-8058Y-7380D01*
X-8061Y-7384D01*
X-8108Y-7367D01*
Y-7305D01*
X-8345D01*
X-8582D01*
Y-7374D01*
X-8629Y-7393D01*
X-8942Y-7080D01*
X-8977Y-7045D01*
X-9008Y-7008D01*
X-9034Y-6973D01*
X-9034Y-6923D01*
X-9034Y-6923D01*
X-9034Y-6923D01*
Y-6526D01*
X-9107D01*
Y-6335D01*
X-9092Y-6326D01*
X-9044Y-6254D01*
X-9027Y-6169D01*
Y-5657D01*
X-9044Y-5572D01*
X-9092Y-5499D01*
X-9164Y-5451D01*
X-9183Y-5447D01*
X-9199Y-5393D01*
X-9111Y-5286D01*
X-9105Y-5282D01*
X-8934Y-5111D01*
X-8897Y-5077D01*
X-8897Y-5077D01*
X-8773Y-4925D01*
X-8680Y-4753D01*
X-8624Y-4566D01*
X-8616Y-4492D01*
X-8592Y-4475D01*
X-8544Y-4403D01*
X-8527Y-4318D01*
Y-3806D01*
X-8544Y-3721D01*
X-8592Y-3649D01*
X-8664Y-3601D01*
X-8749Y-3584D01*
X-8834Y-3601D01*
X-8906Y-3649D01*
X-8955Y-3721D01*
X-8972Y-3806D01*
Y-4318D01*
X-8955Y-4403D01*
X-8906Y-4475D01*
X-8901Y-4479D01*
X-8904Y-4510D01*
X-8945Y-4643D01*
X-9011Y-4766D01*
X-9068Y-4837D01*
X-9100Y-4873D01*
X-9100Y-4874D01*
X-9307Y-5081D01*
X-9308Y-5080D01*
X-9420Y-5211D01*
X-9458Y-5217D01*
X-9476Y-5217D01*
X-9507Y-5190D01*
Y-5051D01*
X-9507Y-5051D01*
X-9518Y-4996D01*
X-9549Y-4950D01*
X-9524Y-4908D01*
X-9343Y-4727D01*
X-9329Y-4713D01*
X-9327Y-4711D01*
X-9304Y-4694D01*
X-9303Y-4690D01*
X-9277Y-4647D01*
X-9243Y-4606D01*
X-9203Y-4531D01*
X-9164Y-4524D01*
X-9092Y-4475D01*
X-9044Y-4403D01*
X-9027Y-4318D01*
Y-3806D01*
X-9044Y-3721D01*
X-9092Y-3649D01*
X-9155Y-3607D01*
X-9159Y-3555D01*
X-9107Y-3533D01*
X-8974Y-3516D01*
X-8966Y-3517D01*
D02*
G37*
%LPC*%
G36*
X-9616Y-2476D02*
X-9803D01*
Y-2644D01*
X-9616D01*
Y-2476D01*
D02*
G37*
G36*
X-9903D02*
X-10090D01*
Y-2644D01*
X-9903D01*
Y-2476D01*
D02*
G37*
G36*
X-11866D02*
X-12053D01*
Y-2644D01*
X-11866D01*
Y-2476D01*
D02*
G37*
G36*
X-12153D02*
X-12340D01*
Y-2644D01*
X-12153D01*
Y-2476D01*
D02*
G37*
G36*
X-9616Y-2744D02*
X-9803D01*
Y-2911D01*
X-9616D01*
Y-2744D01*
D02*
G37*
G36*
X-9903D02*
X-10090D01*
Y-2911D01*
X-9903D01*
Y-2744D01*
D02*
G37*
G36*
X-11866D02*
X-12053D01*
Y-2911D01*
X-11866D01*
Y-2744D01*
D02*
G37*
G36*
X-12153D02*
X-12340D01*
Y-2911D01*
X-12153D01*
Y-2744D01*
D02*
G37*
G36*
X-11449Y-3622D02*
Y-3999D01*
X-11318D01*
Y-3793D01*
X-11331Y-3724D01*
X-11371Y-3665D01*
X-11430Y-3626D01*
X-11449Y-3622D01*
D02*
G37*
G36*
X-11549D02*
X-11569Y-3626D01*
X-11628Y-3665D01*
X-11667Y-3724D01*
X-11681Y-3793D01*
Y-3999D01*
X-11549D01*
Y-3622D01*
D02*
G37*
G36*
X-11318Y-4099D02*
X-11449D01*
Y-4477D01*
X-11430Y-4473D01*
X-11371Y-4434D01*
X-11331Y-4375D01*
X-11318Y-4305D01*
Y-4099D01*
D02*
G37*
G36*
X-11549D02*
X-11681D01*
Y-4305D01*
X-11667Y-4375D01*
X-11628Y-4434D01*
X-11569Y-4473D01*
X-11549Y-4477D01*
Y-4099D01*
D02*
G37*
G36*
X-10499Y-3571D02*
X-10584Y-3588D01*
X-10656Y-3636D01*
X-10705Y-3708D01*
X-10722Y-3793D01*
Y-4305D01*
X-10705Y-4390D01*
X-10656Y-4462D01*
X-10584Y-4511D01*
X-10499Y-4527D01*
X-10414Y-4511D01*
X-10342Y-4462D01*
X-10294Y-4390D01*
X-10277Y-4305D01*
Y-3793D01*
X-10294Y-3708D01*
X-10342Y-3636D01*
X-10414Y-3588D01*
X-10499Y-3571D01*
D02*
G37*
G36*
X-11822Y-3090D02*
X-12376D01*
Y-3605D01*
X-12237D01*
Y-3636D01*
X-12205Y-3712D01*
X-12222Y-3793D01*
Y-4305D01*
X-12205Y-4390D01*
X-12156Y-4462D01*
X-12084Y-4511D01*
X-11999Y-4527D01*
X-11914Y-4511D01*
X-11842Y-4462D01*
X-11794Y-4390D01*
X-11777Y-4305D01*
Y-3793D01*
X-11793Y-3712D01*
X-11761Y-3636D01*
Y-3541D01*
X-11798Y-3454D01*
X-11822Y-3430D01*
Y-3090D01*
D02*
G37*
G36*
X-11999Y-5421D02*
X-12084Y-5438D01*
X-12156Y-5486D01*
X-12205Y-5559D01*
X-12222Y-5644D01*
Y-6156D01*
X-12205Y-6241D01*
X-12156Y-6313D01*
X-12084Y-6361D01*
X-11999Y-6378D01*
X-11914Y-6361D01*
X-11842Y-6313D01*
X-11794Y-6241D01*
X-11777Y-6156D01*
Y-5644D01*
X-11794Y-5559D01*
X-11842Y-5486D01*
X-11914Y-5438D01*
X-11999Y-5421D01*
D02*
G37*
G36*
X-10645Y-7038D02*
X-10832D01*
Y-7205D01*
X-10645D01*
Y-7038D01*
D02*
G37*
G36*
X-10358Y-7305D02*
X-10545D01*
Y-7473D01*
X-10358D01*
Y-7305D01*
D02*
G37*
G36*
X-10645D02*
X-10832D01*
Y-7473D01*
X-10645D01*
Y-7305D01*
D02*
G37*
G36*
X-7370Y71D02*
X-7538D01*
Y-117D01*
X-7370D01*
Y71D01*
D02*
G37*
G36*
X-7638D02*
X-7805D01*
Y-117D01*
X-7638D01*
Y71D01*
D02*
G37*
G36*
X-7134Y-384D02*
X-7219Y-401D01*
X-7291Y-449D01*
X-7339Y-521D01*
X-7356Y-606D01*
Y-1118D01*
X-7339Y-1203D01*
X-7291Y-1275D01*
X-7219Y-1324D01*
X-7134Y-1340D01*
X-7049Y-1324D01*
X-6976Y-1275D01*
X-6928Y-1203D01*
X-6911Y-1118D01*
Y-606D01*
X-6928Y-521D01*
X-6976Y-449D01*
X-7049Y-401D01*
X-7134Y-384D01*
D02*
G37*
G36*
X-6208Y-1838D02*
X-6395D01*
Y-2005D01*
X-6208D01*
Y-1838D01*
D02*
G37*
G36*
X-6495D02*
X-6682D01*
Y-2005D01*
X-6495D01*
Y-1838D01*
D02*
G37*
G36*
X-6208Y-2105D02*
X-6395D01*
Y-2273D01*
X-6208D01*
Y-2105D01*
D02*
G37*
G36*
X-6495D02*
X-6682D01*
Y-2273D01*
X-6495D01*
Y-2105D01*
D02*
G37*
G36*
X-6216Y-2426D02*
X-6403D01*
Y-2594D01*
X-6216D01*
Y-2426D01*
D02*
G37*
G36*
X-6503D02*
X-6690D01*
Y-2594D01*
X-6503D01*
Y-2426D01*
D02*
G37*
G36*
X-5116Y-2476D02*
X-5303D01*
Y-2644D01*
X-5116D01*
Y-2476D01*
D02*
G37*
G36*
X-5403D02*
X-5590D01*
Y-2644D01*
X-5403D01*
Y-2476D01*
D02*
G37*
G36*
X-6216Y-2694D02*
X-6403D01*
Y-2861D01*
X-6216D01*
Y-2694D01*
D02*
G37*
G36*
X-6503D02*
X-6690D01*
Y-2861D01*
X-6503D01*
Y-2694D01*
D02*
G37*
G36*
X-5116Y-2744D02*
X-5303D01*
Y-2911D01*
X-5116D01*
Y-2744D01*
D02*
G37*
G36*
X-5403D02*
X-5590D01*
Y-2911D01*
X-5403D01*
Y-2744D01*
D02*
G37*
G36*
X-3749Y-3571D02*
X-3834Y-3588D01*
X-3906Y-3636D01*
X-3955Y-3708D01*
X-3972Y-3793D01*
Y-4305D01*
X-3955Y-4390D01*
X-3906Y-4462D01*
X-3834Y-4511D01*
X-3749Y-4527D01*
X-3664Y-4511D01*
X-3592Y-4462D01*
X-3544Y-4390D01*
X-3527Y-4305D01*
Y-3793D01*
X-3544Y-3708D01*
X-3592Y-3636D01*
X-3664Y-3588D01*
X-3749Y-3571D01*
D02*
G37*
G36*
X-5072Y-3090D02*
X-5626D01*
Y-3605D01*
X-5487D01*
Y-3636D01*
X-5455Y-3712D01*
X-5472Y-3793D01*
Y-4305D01*
X-5455Y-4390D01*
X-5406Y-4462D01*
X-5334Y-4511D01*
X-5249Y-4527D01*
X-5164Y-4511D01*
X-5092Y-4462D01*
X-5044Y-4390D01*
X-5027Y-4305D01*
Y-3793D01*
X-5043Y-3712D01*
X-5011Y-3636D01*
Y-3541D01*
X-5048Y-3454D01*
X-5072Y-3430D01*
Y-3090D01*
D02*
G37*
G36*
X-5999Y-3584D02*
X-6084Y-3601D01*
X-6156Y-3649D01*
X-6205Y-3721D01*
X-6222Y-3806D01*
Y-4318D01*
X-6205Y-4403D01*
X-6156Y-4475D01*
X-6084Y-4524D01*
X-5999Y-4540D01*
X-5914Y-4524D01*
X-5842Y-4475D01*
X-5794Y-4403D01*
X-5777Y-4318D01*
Y-3806D01*
X-5794Y-3721D01*
X-5842Y-3649D01*
X-5914Y-3601D01*
X-5999Y-3584D01*
D02*
G37*
G36*
X-3749Y-5421D02*
X-3834Y-5438D01*
X-3906Y-5486D01*
X-3955Y-5559D01*
X-3972Y-5644D01*
Y-6046D01*
X-4022Y-6069D01*
X-4027Y-6064D01*
Y-5644D01*
X-4044Y-5559D01*
X-4092Y-5486D01*
X-4164Y-5438D01*
X-4249Y-5421D01*
X-4334Y-5438D01*
X-4406Y-5486D01*
X-4455Y-5559D01*
X-4472Y-5644D01*
Y-6156D01*
X-4455Y-6241D01*
X-4406Y-6313D01*
X-4370Y-6337D01*
X-4387Y-6377D01*
Y-6472D01*
X-4351Y-6559D01*
X-4284Y-6626D01*
X-4197Y-6662D01*
X-4126D01*
Y-6859D01*
X-3572D01*
Y-6344D01*
X-3572Y-6344D01*
X-3572D01*
X-3579Y-6294D01*
X-3544Y-6241D01*
X-3527Y-6156D01*
Y-5644D01*
X-3544Y-5559D01*
X-3592Y-5486D01*
X-3664Y-5438D01*
X-3749Y-5421D01*
D02*
G37*
G36*
X-5858Y-7038D02*
X-6045D01*
Y-7205D01*
X-5858D01*
Y-7038D01*
D02*
G37*
G36*
X-3608D02*
X-3795D01*
Y-7205D01*
X-3608D01*
Y-7038D01*
D02*
G37*
G36*
X-6145D02*
X-6332D01*
Y-7205D01*
X-6145D01*
Y-7038D01*
D02*
G37*
G36*
X-3895D02*
X-4082D01*
Y-7205D01*
X-3895D01*
Y-7038D01*
D02*
G37*
G36*
X-3608Y-7305D02*
X-3795D01*
Y-7473D01*
X-3608D01*
Y-7305D01*
D02*
G37*
G36*
X-3895D02*
X-4082D01*
Y-7473D01*
X-3895D01*
Y-7305D01*
D02*
G37*
G36*
X-5858D02*
X-6045D01*
Y-7473D01*
X-5858D01*
Y-7305D01*
D02*
G37*
G36*
X-6145D02*
X-6332D01*
Y-7473D01*
X-6145D01*
Y-7305D01*
D02*
G37*
G36*
X-6653Y-7662D02*
X-6747D01*
X-6835Y-7698D01*
X-6902Y-7765D01*
X-6938Y-7853D01*
Y-7947D01*
X-6902Y-8035D01*
X-6835Y-8102D01*
X-6747Y-8138D01*
X-6653D01*
X-6565Y-8102D01*
X-6498Y-8035D01*
X-6462Y-7947D01*
Y-7853D01*
X-6498Y-7765D01*
X-6565Y-7698D01*
X-6653Y-7662D01*
D02*
G37*
G36*
X-8249Y-3584D02*
X-8334Y-3601D01*
X-8406Y-3649D01*
X-8455Y-3721D01*
X-8472Y-3806D01*
Y-4318D01*
X-8455Y-4403D01*
X-8406Y-4475D01*
X-8334Y-4524D01*
X-8249Y-4540D01*
X-8164Y-4524D01*
X-8092Y-4475D01*
X-8044Y-4403D01*
X-8027Y-4318D01*
Y-3806D01*
X-8044Y-3721D01*
X-8092Y-3649D01*
X-8164Y-3601D01*
X-8249Y-3584D01*
D02*
G37*
G36*
Y-5434D02*
X-8334Y-5451D01*
X-8406Y-5499D01*
X-8455Y-5572D01*
X-8472Y-5657D01*
Y-6052D01*
X-8522Y-6075D01*
X-8527Y-6071D01*
Y-5657D01*
X-8544Y-5572D01*
X-8592Y-5499D01*
X-8664Y-5451D01*
X-8749Y-5434D01*
X-8834Y-5451D01*
X-8906Y-5499D01*
X-8955Y-5572D01*
X-8972Y-5657D01*
Y-6169D01*
X-8955Y-6254D01*
X-8906Y-6326D01*
X-8875Y-6347D01*
X-8887Y-6377D01*
Y-6472D01*
X-8851Y-6559D01*
X-8784Y-6626D01*
X-8697Y-6662D01*
X-8626D01*
Y-6859D01*
X-8072D01*
Y-6344D01*
X-8072Y-6344D01*
X-8072D01*
X-8071Y-6294D01*
X-8044Y-6254D01*
X-8027Y-6169D01*
Y-5657D01*
X-8044Y-5572D01*
X-8092Y-5499D01*
X-8164Y-5451D01*
X-8249Y-5434D01*
D02*
G37*
G36*
X-8108Y-7038D02*
X-8295D01*
Y-7205D01*
X-8108D01*
Y-7038D01*
D02*
G37*
G36*
X-8395D02*
X-8582D01*
Y-7205D01*
X-8395D01*
Y-7038D01*
D02*
G37*
%LPD*%
D11*
X-10999Y-5900D02*
G03*
X-10786Y-6415I729J0D01*
G01*
X-5096Y-10564D02*
G03*
X-4999Y-10524I0J137D01*
G01*
X-5120Y-8974D02*
G03*
X-4999Y-8924I0J171D01*
G01*
X-6623Y-1452D02*
G03*
X-6799Y-1524I0J-249D01*
G01*
X-6714Y-459D02*
G03*
X-7421Y-167I-707J-707D01*
G01*
X-7918Y4967D02*
G03*
X-7715Y4476I695J0D01*
G01*
X-7511Y4272D02*
G03*
X-6804Y3980I707J707D01*
G01*
X-5023Y-10034D02*
G03*
X-4999Y-10024I0J34D01*
G01*
X-5304Y-9474D02*
G03*
X-5376Y-9504I0J-102D01*
G01*
X-3618Y-15620D02*
G03*
X-3622Y-15630I10J-10D01*
G01*
X-2919Y-15620D02*
G03*
X-3022Y-15871I251J-251D01*
G01*
X-4218Y-15620D02*
G03*
X-4222Y-15630I10J-10D01*
G01*
X-5048Y-11094D02*
G03*
X-4999Y-11074I0J68D01*
G01*
X-5418Y-15620D02*
G03*
X-5422Y-15630I10J-10D01*
G01*
X-4818Y-15620D02*
G03*
X-4822Y-15630I10J-10D01*
G01*
X-6018Y-15620D02*
G03*
X-6022Y-15630I10J-10D01*
G01*
X-7446Y-15843D02*
G03*
X-7569Y-15546I-419J0D01*
G01*
X-8749Y-5913D02*
G03*
X-8545Y-6406I698J0D01*
G01*
X-4249Y-5900D02*
G03*
X-4036Y-6415I729J0D01*
G01*
X-7384Y-2109D02*
G03*
X-7634Y-2713I604J-604D01*
G01*
X-6499Y-5913D02*
G03*
X-6078Y-6553I698J0D01*
G01*
X-10786Y-6415D02*
X-10599Y-6602D01*
X-5428Y-10564D02*
X-5096D01*
X-8650Y-400D02*
X-8642Y-408D01*
X-8320Y-269D02*
X-8241Y-190D01*
X-8487Y-269D02*
X-8320D01*
X-8650Y-400D02*
X-8618D01*
X-8241Y-190D02*
Y-170D01*
X-8618Y-400D02*
X-8487Y-269D01*
X-8642Y-854D02*
X-8634Y-862D01*
X-8642Y-854D02*
Y-408D01*
X-7384Y-2109D02*
X-6799Y-1524D01*
X-5428Y-8974D02*
X-5120D01*
X-6623Y-1452D02*
X-6449D01*
X-7588Y-167D02*
X-7421D01*
X-7918Y4967D02*
Y5004D01*
X-7715Y4476D02*
X-7511Y4272D01*
X-6804Y3980D02*
X-6618D01*
X-5304Y-9474D02*
X-4999D01*
X-5376Y-10034D02*
X-5023D01*
X-6714Y-459D02*
X-6699Y-474D01*
X-3022Y-16040D02*
Y-15871D01*
X-3622Y-16040D02*
Y-15630D01*
X-4222Y-16040D02*
Y-15630D01*
X-5376Y-11094D02*
X-5048D01*
X-5422Y-16040D02*
Y-15630D01*
X-4822Y-16040D02*
Y-15630D01*
X-6022Y-16040D02*
Y-15630D01*
X-14443Y-15770D02*
X-13218D01*
X-12207Y-15036D02*
X-12169Y-14998D01*
X-13218Y-15770D02*
X-12484Y-15036D01*
X-12207D01*
X-12097Y-15049D02*
X-11970Y-14922D01*
X-11818Y-9248D02*
Y-8970D01*
X-11815Y-11585D02*
Y-9901D01*
X-12019Y-11789D02*
X-11815Y-11585D01*
X-12019Y-11820D02*
Y-11789D01*
X-12415Y-12782D02*
X-11970Y-13227D01*
X-12415Y-12782D02*
Y-11351D01*
X-11970Y-13374D02*
Y-13227D01*
X-7446Y-16120D02*
Y-15843D01*
X-11970Y-12524D02*
Y-11901D01*
X-12019Y-11852D02*
X-11970Y-11901D01*
X-12019Y-11852D02*
Y-11820D01*
X-16376Y-17703D02*
X-14443Y-15770D01*
X-11970Y-14922D02*
Y-13374D01*
X-13793Y-16120D02*
X-11418D01*
X-15376Y-17703D02*
X-13793Y-16120D01*
X-11418D02*
X-11224Y-15926D01*
X-12493Y-16820D02*
X-11219D01*
X-10584Y-16186D01*
X-13376Y-17703D02*
X-12493Y-16820D01*
X-13193Y-16520D02*
X-11319D01*
X-10899Y-16101D01*
X-14376Y-17703D02*
X-13193Y-16520D01*
X-10584Y-16186D02*
Y-15674D01*
X-11224Y-15684D02*
X-11214Y-15674D01*
X-11224Y-15926D02*
Y-15684D01*
X-10129Y-16181D02*
Y-15674D01*
X-11793Y-17120D02*
X-11069D01*
X-10129Y-16181D01*
X-11376Y-17703D02*
X-11293Y-17620D01*
X-11068D01*
X-9814Y-16366D02*
Y-15674D01*
X-11068Y-17620D02*
X-9814Y-16366D01*
X-10376Y-17703D02*
Y-17586D01*
X-10245Y-17455D01*
Y-17397D01*
X-9499Y-16651D02*
Y-15674D01*
X-10245Y-17397D02*
X-9499Y-16651D01*
X-9369Y-17020D02*
X-9184Y-16836D01*
Y-15674D01*
X-9369Y-17696D02*
Y-17020D01*
X-9376Y-17703D02*
X-9369Y-17696D01*
X-12376Y-17703D02*
X-12376D01*
X-11793Y-17120D01*
X-10899Y-16101D02*
Y-15674D01*
X-7918Y5980D02*
X-7918Y5980D01*
Y5555D02*
Y5980D01*
D14*
X-12989Y7830D02*
X-12811Y7651D01*
Y7244D02*
Y7651D01*
X-11468Y4080D02*
Y6417D01*
X-4561Y4080D02*
Y6417D01*
D15*
X-11468Y4080D02*
Y6417D01*
D23*
X-7855Y-8424D02*
D03*
X-9037D02*
D03*
X-9431Y-11789D02*
D03*
X-9234D02*
D03*
X-7855D02*
D03*
X-7659D02*
D03*
X-8052D02*
D03*
X-8249D02*
D03*
X-8446D02*
D03*
X-8643D02*
D03*
X-8840D02*
D03*
X-9037D02*
D03*
X-9628D02*
D03*
X-9824D02*
D03*
Y-8424D02*
D03*
X-9628D02*
D03*
X-9431D02*
D03*
X-9234D02*
D03*
X-8840D02*
D03*
X-8643D02*
D03*
X-8446D02*
D03*
X-8249D02*
D03*
X-8052D02*
D03*
X-7659D02*
D03*
D24*
X-10424Y-9221D02*
D03*
Y-9615D02*
D03*
Y-9812D02*
D03*
Y-10402D02*
D03*
Y-10599D02*
D03*
Y-10796D02*
D03*
Y-10993D02*
D03*
X-7059D02*
D03*
Y-10796D02*
D03*
Y-10599D02*
D03*
Y-10402D02*
D03*
Y-10205D02*
D03*
Y-10008D02*
D03*
Y-9812D02*
D03*
Y-9615D02*
D03*
Y-9418D02*
D03*
Y-9221D02*
D03*
Y-9024D02*
D03*
Y-11190D02*
D03*
X-10424D02*
D03*
Y-10205D02*
D03*
Y-10008D02*
D03*
Y-9418D02*
D03*
Y-9024D02*
D03*
D31*
X-6558Y-3456D02*
G03*
X-6749Y-3918I463J-463D01*
G01*
X-6796Y-4476D02*
G03*
X-6749Y-4262I-465J214D01*
G01*
X-7034Y-4574D02*
G03*
X-6796Y-4476I0J336D01*
G01*
X-9056Y-458D02*
G03*
X-9349Y-1165I707J-707D01*
G01*
X-7051Y1547D02*
G03*
X-6769Y2230I-683J683D01*
G01*
X-9793Y-4975D02*
G03*
X-9957Y-5372I398J-398D01*
G01*
X-9206Y-5182D02*
G03*
X-9499Y-5889I707J-707D01*
G01*
X-9792Y-4974D02*
G03*
X-9793Y-4975I398J-398D01*
G01*
X-9430Y-4612D02*
G03*
X-9429Y-4611I-92J92D01*
G01*
X-8681Y-2050D02*
G03*
X-8368Y-1920I0J442D01*
G01*
D02*
G03*
X-8134Y-1354I-567J567D01*
G01*
X-8468Y938D02*
G03*
X-8569Y1180I-341J0D01*
G01*
X-8494Y642D02*
G03*
X-8468Y855I-880J213D01*
G01*
X-8596Y392D02*
G03*
X-8494Y642I-778J463D01*
G01*
X-8734Y214D02*
G03*
X-8596Y392I-640J640D01*
G01*
X-8569Y1180D02*
G03*
X-9172Y1430I-604J-604D01*
G01*
X-11611Y1722D02*
G03*
X-10904Y1430I707J707D01*
G01*
X-9706Y-758D02*
G03*
X-9999Y-1465I707J-707D01*
G01*
X-6549Y-10124D02*
G03*
X-6665Y-10008I-116J0D01*
G01*
X-6630Y-10205D02*
G03*
X-6549Y-10124I0J81D01*
G01*
Y-10674D02*
G03*
X-6624Y-10599I-75J0D01*
G01*
X-6549Y-9324D02*
G03*
X-6799Y-9221I-250J-250D01*
G01*
X-6775Y-9418D02*
G03*
X-6549Y-9324I0J319D01*
G01*
X-7518Y-10993D02*
G03*
X-7549Y-11024I0J-31D01*
G01*
X-7855Y-12218D02*
G03*
X-7699Y-12374I156J0D01*
G01*
X-8999Y-7924D02*
G03*
X-9037Y-8015I91J-91D01*
G01*
X-6264Y-12239D02*
G03*
X-6030Y-11674I-565J565D01*
G01*
X-7276Y-13251D02*
G03*
X-7569Y-13958I707J-707D01*
G01*
X-6030Y-10028D02*
G03*
X-6553Y-9812I-523J-523D01*
G01*
X-6030Y-10441D02*
G03*
X-5979Y-10564I175J0D01*
G01*
X-10877Y-10402D02*
G03*
X-10999Y-10524I0J-122D01*
G01*
D02*
G03*
X-10924Y-10599I75J0D01*
G01*
X-10828Y-12674D02*
G03*
X-10778Y-12724I50J0D01*
G01*
X-9922D02*
G03*
X-9618Y-12420I0J304D01*
G01*
D02*
G03*
X-9431Y-12233I0J188D01*
G01*
X-6359Y-9615D02*
G03*
X-6030Y-9478I0J465D01*
G01*
X-5979Y-8974D02*
G03*
X-6030Y-9098I124J-124D01*
G01*
X-10249Y-11974D02*
G03*
X-10272Y-11997I0J-23D01*
G01*
X-7899Y-8924D02*
G03*
X-7855Y-8819I-106J106D01*
G01*
X-10999Y-10924D02*
G03*
X-10931Y-10993I69J0D01*
G01*
X-10871Y-10796D02*
G03*
X-10999Y-10924I0J-128D01*
G01*
X-9618Y-12970D02*
G03*
X-9234Y-12586I0J385D01*
G01*
X-10272Y-13674D02*
G03*
X-9633Y-13158I0J654D01*
G01*
X-10703Y-13649D02*
G03*
X-10599Y-13674I104J204D01*
G01*
X-10803Y-13549D02*
G03*
X-10703Y-13649I204J104D01*
G01*
X-10828Y-13445D02*
G03*
X-10803Y-13549I229J0D01*
G01*
X-10999Y-9774D02*
G03*
X-10962Y-9812I37J0D01*
G01*
X-10839Y-9615D02*
G03*
X-10999Y-9774I0J-160D01*
G01*
X-10272Y-13024D02*
G03*
X-10299Y-13052I0J-27D01*
G01*
X-6083Y-13461D02*
G03*
X-6376Y-14168I707J-707D01*
G01*
X-5369Y-12195D02*
G03*
X-5359Y-12199I10J10D01*
G01*
X-9628Y-11296D02*
G03*
X-9649Y-11274I-22J0D01*
G01*
X-9957Y-6828D02*
G03*
X-9824Y-7149I454J0D01*
G01*
X-10099Y-6792D02*
G03*
X-9899Y-7274I683J0D01*
G01*
X-10249Y-6784D02*
G03*
X-10020Y-7337I782J0D01*
G01*
X-9399Y-7575D02*
G03*
X-9399Y-7574I-400J-399D01*
G01*
X-9252Y-6724D02*
G03*
X-9078Y-7146I596J0D01*
G01*
X-9646Y-6724D02*
G03*
X-9538Y-6986I370J0D01*
G01*
X-9302Y-6724D02*
G03*
X-9249Y-6596I-128J128D01*
G01*
X-9646Y-6724D02*
G03*
X-9499Y-6370I-355J355D01*
G01*
X-7956Y-7482D02*
G03*
X-8249Y-8189I707J-707D01*
G01*
X-7759Y-7585D02*
G03*
X-8052Y-8292I707J-707D01*
G01*
X-8446Y-8065D02*
G03*
X-8649Y-7574I-693J0D01*
G01*
X-7396Y-6724D02*
G03*
X-7249Y-6370I-355J355D01*
G01*
X-7535Y-7060D02*
G03*
X-7396Y-6724I-336J336D01*
G01*
X-9903Y-4902D02*
G03*
X-10099Y-5374I473J-473D01*
G01*
X-10249Y-5457D02*
G03*
X-10449Y-4974I-683J0D01*
G01*
X-9628Y-7961D02*
G03*
X-9791Y-7566I-558J0D01*
G01*
X-9431Y-7974D02*
G03*
X-9594Y-7579I-559J0D01*
G01*
X-9234Y-7974D02*
G03*
X-9399Y-7575I-565J0D01*
G01*
X-8643Y-8243D02*
G03*
X-8899Y-7624I-875J0D01*
G01*
X-9632Y-4630D02*
G03*
X-9631Y-4630I-320J320D01*
G01*
X-9416Y-4596D02*
G03*
X-9261Y-4280I-504J443D01*
G01*
X-9429Y-4611D02*
G03*
X-9419Y-4599I-92J92D01*
G01*
X-9261Y-4280D02*
G03*
X-9249Y-4153I-659J127D01*
G01*
X-8999Y-4974D02*
G03*
X-8749Y-4371I-604J604D01*
G01*
X-9416Y-4596D02*
G03*
X-9419Y-4599I60J-52D01*
G01*
X-9631Y-4630D02*
G03*
X-9499Y-4310I-320J319D01*
G01*
X-10999Y-4177D02*
G03*
X-10970Y-4360I597J0D01*
G01*
D02*
G03*
X-10825Y-4599I569J183D01*
G01*
D02*
G03*
X-10824Y-4599I423J422D01*
G01*
X-4449Y-8289D02*
G03*
X-4696Y-7631I-1000J0D01*
G01*
X-4749Y-7455D02*
G03*
X-4696Y-7631I318J0D01*
G01*
D02*
G03*
X-4656Y-7680I265J176D01*
G01*
X-4499Y-13924D02*
G03*
X-4449Y-13804I-121J121D01*
G01*
X-5042Y-4767D02*
G03*
X-4749Y-4060I-707J707D01*
G01*
X-4499Y-4924D02*
G03*
X-4749Y-5528I604J-604D01*
G01*
X-5306Y-5032D02*
G03*
X-5649Y-5859I828J-828D01*
G01*
X-4499Y-4924D02*
G03*
X-4275Y-4383I-542J542D01*
G01*
X-8966Y-3374D02*
G03*
X-9397Y-3527I0J-683D01*
G01*
D02*
G03*
X-9499Y-3774I247J-247D01*
G01*
X-6956Y-5182D02*
G03*
X-7249Y-5889I707J-707D01*
G01*
X-7049Y-3524D02*
G03*
X-7411Y-3374I-362J-362D01*
G01*
X-6999Y-3645D02*
G03*
X-7049Y-3524I-171J0D01*
G01*
X-6749Y-4974D02*
G03*
X-6499Y-4371I-604J604D01*
G01*
X-7899Y-9224D02*
G03*
X-7643Y-9118I0J362D01*
G01*
X-8640Y-9060D02*
G03*
X-8090Y-9224I549J836D01*
G01*
X-8840Y-8784D02*
G03*
X-8803Y-8926I291J0D01*
G01*
X-8797Y-8932D02*
G03*
X-8640Y-9060I707J707D01*
G01*
X-7899Y-1704D02*
G03*
X-7649Y-1100I-604J604D01*
G01*
X-7899Y-1704D02*
G03*
X-8149Y-2307I604J-604D01*
G01*
X-7064Y-6888D02*
G03*
X-7002Y-6724I-187J164D01*
G01*
X-7499Y-4137D02*
G03*
X-7367Y-4457I452J0D01*
G01*
X-7075Y-6901D02*
G03*
X-7064Y-6888I-176J176D01*
G01*
X-6613Y-8624D02*
G03*
X-5906Y-8332I0J1000D01*
G01*
X-5899Y-8324D02*
G03*
X-5649Y-7721I-604J604D01*
G01*
X-6866Y-8624D02*
G03*
X-7349Y-8824I0J-683D01*
G01*
X-6749Y-4262D02*
Y-3918D01*
X-7191Y-4574D02*
X-7034D01*
X-9056Y-458D02*
X-7051Y1547D01*
X-9056Y-1294D02*
Y-458D01*
Y-1294D02*
X-8750Y-1600D01*
X-9957Y-6828D02*
Y-5372D01*
X-11499Y-5646D02*
X-11289Y-5436D01*
X-11286D01*
X-11499Y-5900D02*
Y-5646D01*
X-9650Y-5388D02*
Y-5051D01*
X-9726Y-4974D02*
X-9650Y-5051D01*
X-9792Y-4974D02*
X-9726D01*
X-9206Y-5182D02*
X-8999Y-4974D01*
X-9538Y-6986D02*
X-9538Y-6986D01*
X-9792Y-4974D02*
X-9430Y-4612D01*
X-9429Y-4611D01*
X-7054Y-10801D02*
X-6788D01*
X-6628Y-10961D02*
X-6147D01*
X-6788Y-10801D02*
X-6628Y-10961D01*
X-7059Y-10796D02*
X-7054Y-10801D01*
X-6471Y-10402D02*
X-6279Y-10595D01*
Y-10830D02*
Y-10595D01*
X-6147Y-10961D02*
X-6030Y-11079D01*
X-6279Y-10830D02*
X-6147Y-10961D01*
X-6030Y-11098D02*
Y-11079D01*
X-7059Y-10402D02*
X-6471D01*
X-6030Y-11674D02*
Y-11098D01*
X-11429Y-13978D02*
Y-10404D01*
X-11033Y-10008D01*
X-9764Y7480D02*
Y7643D01*
X-9776Y7230D02*
Y7468D01*
X-9764Y7643D02*
X-9578Y7830D01*
X-9776Y7468D02*
X-9764Y7480D01*
X-6089Y7880D02*
X-5904Y7694D01*
Y7244D02*
Y7694D01*
X-2869Y7487D02*
X-2864Y7491D01*
X-2869Y7230D02*
Y7487D01*
X-2864Y7693D02*
X-2678Y7880D01*
X-2864Y7491D02*
Y7693D01*
X-4245Y4153D02*
Y7365D01*
Y9781D01*
X-3909Y7752D02*
Y7880D01*
X-4245Y7365D02*
X-3859Y7752D01*
X-4561Y7365D02*
Y9772D01*
Y6417D02*
Y7365D01*
X-4948Y7752D02*
Y7880D01*
Y7752D02*
X-4561Y7365D01*
X-4769Y9979D02*
Y10072D01*
Y9979D02*
X-4561Y9772D01*
X-4268Y3830D02*
Y4130D01*
X-4245Y4153D01*
X-11153D02*
Y7308D01*
X-10759Y7702D02*
Y7830D01*
X-11153Y7308D02*
X-10759Y7702D01*
X-11468Y7322D02*
Y9772D01*
Y6417D02*
Y7322D01*
X-11848Y7702D02*
X-11468Y7322D01*
X-11848Y7702D02*
Y7830D01*
X-11676Y9979D02*
Y10072D01*
Y9979D02*
X-11468Y9772D01*
X-11153Y7308D02*
Y9781D01*
X-9349Y-2050D02*
X-8681D01*
X-8134Y-1354D02*
Y-862D01*
X-8468Y855D02*
Y938D01*
X-9706Y-758D02*
X-8734Y214D01*
X-10904Y1430D02*
X-9172D01*
X-11768Y1880D02*
X-11611Y1722D01*
X-11618Y1780D02*
X-11611Y1772D01*
X-9999Y-1499D02*
Y-1465D01*
X-9349Y-1499D02*
Y-1165D01*
X-11153Y9781D02*
X-10969Y9965D01*
X-4245Y9781D02*
X-4061Y9965D01*
X-7059Y-9418D02*
X-6775D01*
X-7059Y-9221D02*
X-6799D01*
X-7059Y-10008D02*
X-6665D01*
X-7059Y-10205D02*
X-6630D01*
X-7059Y-10599D02*
X-6624D01*
X-7518Y-10993D02*
X-7059D01*
X-9037Y-8424D02*
Y-8015D01*
X-7855Y-12218D02*
Y-11789D01*
X-5918Y7230D02*
X-5904Y7244D01*
X-4561Y3687D02*
Y4080D01*
X-4719Y3530D02*
X-4561Y3687D01*
X-4061Y9965D02*
Y10072D01*
X-11768Y2030D02*
Y3230D01*
X-7276Y-13251D02*
X-6264Y-12239D01*
X-7569Y-14995D02*
Y-13958D01*
X-6030Y-10441D02*
Y-10038D01*
X-7059Y-9812D02*
X-6553D01*
X-10877Y-10402D02*
X-10424D01*
X-10924Y-10599D02*
X-10424D01*
X-10778Y-12724D02*
X-9922D01*
X-9431Y-12233D02*
Y-11789D01*
X-10896Y-9221D02*
X-10424D01*
X-10899Y-9224D02*
X-10896Y-9221D01*
X-6030Y-9508D02*
Y-9478D01*
Y-9098D01*
X-7059Y-9615D02*
X-6359D01*
X-10272Y-12424D02*
Y-11997D01*
X-7855Y-8819D02*
Y-8424D01*
X-10931Y-10993D02*
X-10424D01*
X-10871Y-10796D02*
X-10424D01*
X-9234Y-12586D02*
Y-11789D01*
X-9633Y-13158D02*
X-9618Y-13020D01*
X-10599Y-13674D02*
X-10272D01*
X-10828Y-13445D02*
Y-13374D01*
X-10962Y-9812D02*
X-10424D01*
X-10839Y-9615D02*
X-10424D01*
X-10299Y-13424D02*
Y-13052D01*
X-6083Y-13461D02*
X-5369Y-12746D01*
X-6376Y-17703D02*
Y-14168D01*
X-4449Y-12199D02*
Y-8289D01*
X-5359Y-12199D02*
X-4449D01*
X-8643Y-12818D02*
Y-11789D01*
X-8052Y-12828D02*
Y-11789D01*
X-8446Y-12821D02*
Y-11789D01*
X-8249Y-12824D02*
Y-11789D01*
X-8840Y-12815D02*
Y-11789D01*
X-10584Y-15044D02*
Y-14559D01*
X-9499Y-15044D02*
Y-14074D01*
X-10129Y-15044D02*
Y-14304D01*
X-9814Y-15044D02*
Y-14189D01*
X-9184Y-15044D02*
Y-13959D01*
X-10899Y-15044D02*
Y-14324D01*
X-11216Y-15043D02*
Y-14191D01*
Y-15043D02*
X-11214Y-15044D01*
X-10129Y-14304D02*
X-8643Y-12818D01*
X-9499Y-14074D02*
X-8249Y-12824D01*
X-9184Y-13959D02*
X-8052Y-12828D01*
X-9814Y-14189D02*
X-8446Y-12821D01*
X-10584Y-14559D02*
X-8840Y-12815D01*
X-9628Y-11789D02*
Y-11296D01*
X-11429Y-13978D02*
X-11216Y-14191D01*
X-11299Y-10474D02*
X-11030Y-10205D01*
X-11299Y-13924D02*
Y-10474D01*
Y-13924D02*
X-10899Y-14324D01*
X-11033Y-10008D02*
X-10424D01*
X-11030Y-10205D02*
X-10424D01*
X-10249Y-6784D02*
Y-5457D01*
X-10099Y-6792D02*
Y-5374D01*
X-7956Y-7482D02*
X-7535Y-7060D01*
X-9078Y-7146D02*
X-8649Y-7574D01*
X-9538Y-6986D02*
X-8899Y-7624D01*
X-9249Y-6596D02*
Y-6037D01*
X-9499Y-6370D02*
Y-5889D01*
X-9824Y-7149D02*
X-9399Y-7574D01*
X-9899Y-7274D02*
X-9594Y-7579D01*
X-10020Y-7337D02*
X-9791Y-7566D01*
X-8052Y-8421D02*
X-8049Y-8424D01*
X-8052Y-8424D02*
Y-8421D01*
Y-8292D01*
X-8446Y-8424D02*
Y-8065D01*
X-8249Y-8424D02*
Y-8189D01*
X-7249Y-6370D02*
Y-5889D01*
X-7367Y-4457D02*
X-7290Y-4534D01*
X-9628Y-8424D02*
Y-7961D01*
X-9431Y-8424D02*
Y-7974D01*
X-9234Y-8424D02*
Y-7974D01*
X-8643Y-8424D02*
Y-8243D01*
X-9903Y-4902D02*
X-9632Y-4630D01*
X-10824Y-4599D02*
X-10449Y-4974D01*
X-4749Y-7455D02*
Y-5900D01*
X-4499Y-12774D02*
X-4449Y-12824D01*
X-4449Y-12824D01*
X-4449Y-12824D02*
Y-12750D01*
Y-13804D02*
Y-12824D01*
X-4749Y-5900D02*
Y-5528D01*
Y-4060D02*
Y-4049D01*
X-5306Y-5032D02*
X-5042Y-4767D01*
X-9999Y-2050D02*
X-9349D01*
X-8749Y-4371D02*
Y-3911D01*
X-9261Y-4074D02*
X-9249Y-4062D01*
Y-4153D02*
Y-4062D01*
X-9261Y-4280D02*
Y-4074D01*
X-8966Y-3374D02*
X-7899D01*
X-8134Y-3337D02*
Y-2713D01*
X-10999Y-4177D02*
Y-4049D01*
X-9499Y-4310D02*
Y-3774D01*
X-6956Y-5182D02*
X-6749Y-4974D01*
X-6499Y-4371D02*
Y-3924D01*
X-7899Y-3374D02*
X-7411D01*
X-6999Y-4062D02*
Y-3645D01*
X-7759Y-7585D02*
X-7075Y-6901D01*
X-8149Y-2780D02*
Y-2307D01*
X-7643Y-9118D02*
X-7349Y-8824D01*
X-8090Y-9224D02*
X-7899D01*
X-8840Y-8784D02*
Y-8424D01*
X-8803Y-8926D02*
X-8797Y-8932D01*
X-8803Y-8926D02*
X-8803Y-8926D01*
X-8134Y-862D02*
Y-574D01*
X-6558Y-3456D02*
X-6449Y-3347D01*
X-7002Y-6724D02*
X-6999Y-6721D01*
Y-6050D01*
X-5649Y-7721D02*
Y-5859D01*
X-5906Y-8332D02*
X-5899Y-8324D01*
X-6866Y-8624D02*
X-6613D01*
D32*
X-10020Y-7337D02*
D03*
X-9538Y-6986D02*
D03*
X-9791Y-7566D02*
D03*
D33*
X-8249Y-4062D02*
D03*
X-8749D02*
D03*
X-9249D02*
D03*
X-9749D02*
D03*
X-8249Y-5913D02*
D03*
X-8749D02*
D03*
X-9249D02*
D03*
X-9749D02*
D03*
X-11999Y-5900D02*
D03*
X-11499D02*
D03*
X-10999D02*
D03*
X-10499D02*
D03*
X-11999Y-4049D02*
D03*
X-11499D02*
D03*
X-10999D02*
D03*
X-10499D02*
D03*
X-5249Y-5900D02*
D03*
X-4749D02*
D03*
X-4249D02*
D03*
X-3749D02*
D03*
X-5249Y-4049D02*
D03*
X-4749D02*
D03*
X-4249D02*
D03*
X-3749D02*
D03*
X-7499Y-5913D02*
D03*
X-6999D02*
D03*
X-6499D02*
D03*
X-5999D02*
D03*
X-7499Y-4062D02*
D03*
X-6999D02*
D03*
X-6499D02*
D03*
X-5999D02*
D03*
X-8634Y-2713D02*
D03*
X-8134D02*
D03*
X-7634D02*
D03*
X-7134D02*
D03*
X-8634Y-862D02*
D03*
X-8134D02*
D03*
X-7634D02*
D03*
X-7134D02*
D03*
D34*
X-3018Y-16693D02*
D03*
X-3022Y-16040D02*
D03*
X-3618Y-16693D02*
D03*
X-3622Y-16040D02*
D03*
X-4218Y-16693D02*
D03*
X-4222Y-16040D02*
D03*
X-4818Y-16693D02*
D03*
X-4822Y-16040D02*
D03*
X-5418Y-16693D02*
D03*
X-5422Y-16040D02*
D03*
X-6018Y-16693D02*
D03*
X-6022Y-16040D02*
D03*
X-11815Y-9901D02*
D03*
X-11818Y-9248D02*
D03*
X-12415Y-11351D02*
D03*
X-12419Y-10698D02*
D03*
X-12165Y-15651D02*
D03*
X-12169Y-14998D02*
D03*
X-10595Y-7255D02*
D03*
X-10599Y-6602D02*
D03*
X-8345Y-7255D02*
D03*
X-8349Y-6602D02*
D03*
X-6095Y-7255D02*
D03*
X-6099Y-6602D02*
D03*
X-3845Y-7255D02*
D03*
X-3849Y-6602D02*
D03*
X-6445Y-2055D02*
D03*
X-6449Y-1402D02*
D03*
X-12103Y-2694D02*
D03*
X-12099Y-3347D02*
D03*
X-9853Y-2694D02*
D03*
X-9849Y-3347D02*
D03*
X-6453Y-2644D02*
D03*
X-6449Y-3297D02*
D03*
X-5353Y-2694D02*
D03*
X-5349Y-3347D02*
D03*
X-7569Y-14995D02*
D03*
Y-15546D02*
D03*
X-5369Y-12746D02*
D03*
Y-12195D02*
D03*
X-4449Y-12750D02*
D03*
Y-12199D02*
D03*
X-7918Y5555D02*
D03*
Y5004D02*
D03*
X-9999Y-2050D02*
D03*
Y-1499D02*
D03*
X-9349Y-2050D02*
D03*
Y-1499D02*
D03*
D35*
X-6030Y-11098D02*
D03*
X-5376Y-11094D02*
D03*
X-9618Y-12420D02*
D03*
X-10272Y-12424D02*
D03*
X-9618Y-13020D02*
D03*
X-10272Y-13024D02*
D03*
X-6030Y-9508D02*
D03*
X-5376Y-9504D02*
D03*
X-6030Y-10038D02*
D03*
X-5376Y-10034D02*
D03*
X-7588Y-167D02*
D03*
X-8241Y-170D02*
D03*
X-5979Y-8974D02*
D03*
X-5428D02*
D03*
X-5979Y-10564D02*
D03*
X-5428D02*
D03*
D36*
X-10828Y-12524D02*
D03*
X-11970D02*
D03*
X-10828Y-13374D02*
D03*
X-11970D02*
D03*
D37*
X-11529Y-15674D02*
D03*
Y-15044D02*
D03*
X-11214Y-15674D02*
D03*
X-10584D02*
D03*
X-10899D02*
D03*
Y-15044D02*
D03*
X-10584D02*
D03*
X-11214D02*
D03*
X-10129Y-15674D02*
D03*
X-9814D02*
D03*
X-9184D02*
D03*
X-9499D02*
D03*
Y-15044D02*
D03*
X-9184D02*
D03*
X-9814D02*
D03*
X-10129D02*
D03*
D38*
X-7396Y-6724D02*
D03*
X-7002D02*
D03*
X-9646Y-6724D02*
D03*
X-9252D02*
D03*
D39*
X-4948Y7880D02*
D03*
X-6089D02*
D03*
X-11848Y7830D02*
D03*
X-12989D02*
D03*
X-2678Y7880D02*
D03*
X-3859D02*
D03*
X-9578Y7830D02*
D03*
X-10759D02*
D03*
D40*
X-4199Y-16693D02*
X-3189Y-17703D01*
X-2376D01*
X-4218Y-16693D02*
X-4199D01*
X-4322Y-17170D02*
X-3909D01*
X-3376Y-17703D01*
X-4818Y-16693D02*
X-4799D01*
X-4322Y-17170D01*
X-5399Y-16693D02*
X-4389Y-17703D01*
X-5418Y-16693D02*
X-5399D01*
X-4389Y-17703D02*
X-4376D01*
X-6018Y-17061D02*
X-5376Y-17703D01*
X-6018Y-17061D02*
Y-16693D01*
X-3599D02*
X-3122Y-17170D01*
X-1969D01*
X-3618Y-16693D02*
X-3599D01*
X-1969Y-17170D02*
X-1436Y-17703D01*
X-1376D01*
X-1386Y-16693D02*
X-376Y-17703D01*
X-3018Y-16693D02*
X-1386D01*
X-5376Y-17703D02*
Y-17597D01*
X-12569Y-15670D02*
X-12559Y-15661D01*
X-12174D02*
X-12165Y-15651D01*
X-12559Y-15661D02*
X-12174D01*
X-12419Y-10698D02*
Y-10270D01*
D41*
X-16376Y19092D02*
D03*
Y18092D02*
D03*
X-15376Y19092D02*
D03*
Y18092D02*
D03*
X-14376Y19092D02*
D03*
Y18092D02*
D03*
X-13376Y19092D02*
D03*
Y18092D02*
D03*
X-12376Y19092D02*
D03*
Y18092D02*
D03*
X-11376Y19092D02*
D03*
Y18092D02*
D03*
X-10376Y19092D02*
D03*
Y18092D02*
D03*
X-9376Y19092D02*
D03*
Y18092D02*
D03*
X-8376Y19092D02*
D03*
Y18092D02*
D03*
X-7376Y19092D02*
D03*
Y18092D02*
D03*
X-6376Y19092D02*
D03*
Y18092D02*
D03*
X-5376Y19092D02*
D03*
Y18092D02*
D03*
X-4376Y19092D02*
D03*
Y18092D02*
D03*
X-3376Y19092D02*
D03*
Y18092D02*
D03*
X-2376Y19092D02*
D03*
Y18092D02*
D03*
X-1376Y19092D02*
D03*
Y18092D02*
D03*
X-376Y19092D02*
D03*
Y18092D02*
D03*
X624Y19092D02*
D03*
X-16376Y-17703D02*
D03*
Y-18703D02*
D03*
X-15376Y-17703D02*
D03*
Y-18703D02*
D03*
X-14376Y-17703D02*
D03*
Y-18703D02*
D03*
X-13376Y-17703D02*
D03*
Y-18703D02*
D03*
X-12376Y-17703D02*
D03*
Y-18703D02*
D03*
X-11376Y-17703D02*
D03*
Y-18703D02*
D03*
X-10376Y-17703D02*
D03*
Y-18703D02*
D03*
X-9376Y-17703D02*
D03*
Y-18703D02*
D03*
X-8376Y-17703D02*
D03*
Y-18703D02*
D03*
X-7376Y-17703D02*
D03*
Y-18703D02*
D03*
X-6376Y-17703D02*
D03*
Y-18703D02*
D03*
X-5376Y-17703D02*
D03*
Y-18703D02*
D03*
X-4376Y-17703D02*
D03*
Y-18703D02*
D03*
X-3376Y-17703D02*
D03*
Y-18703D02*
D03*
X-2376Y-17703D02*
D03*
Y-18703D02*
D03*
X-1376Y-17703D02*
D03*
Y-18703D02*
D03*
X-376Y-17703D02*
D03*
Y-18703D02*
D03*
X624Y-17703D02*
D03*
D42*
Y18092D02*
D03*
Y-18703D02*
D03*
D43*
X-4499Y-13924D02*
D03*
X-3999Y-14424D02*
D03*
Y-13424D02*
D03*
X-4999D02*
D03*
Y-14424D02*
D03*
D44*
X-11676Y10780D02*
D03*
X-10969D02*
D03*
Y10072D02*
D03*
X-11676D02*
D03*
X-4769Y10780D02*
D03*
X-4061D02*
D03*
Y10072D02*
D03*
X-4769D02*
D03*
D45*
X-7800Y-3000D02*
D03*
X-7700Y-7950D02*
D03*
X-6700Y-7900D02*
D03*
X-8750Y-1600D02*
D03*
X-7750Y-1950D02*
D03*
X-8650Y-400D02*
D03*
X-3918Y9180D02*
D03*
X-4868D02*
D03*
X-11768D02*
D03*
X-10819D02*
D03*
X-12811Y7244D02*
D03*
X-9776Y7230D02*
D03*
X-5904Y7244D02*
D03*
X-2869Y7230D02*
D03*
X-11768Y3230D02*
D03*
X-2919Y-15620D02*
D03*
X-3618D02*
D03*
X-4218D02*
D03*
X-4818D02*
D03*
X-5418D02*
D03*
X-6018D02*
D03*
X-12569Y-15670D02*
D03*
X-11818Y-8920D02*
D03*
X-12419Y-10270D02*
D03*
X-6549Y-10124D02*
D03*
Y-9324D02*
D03*
X-4999Y-9474D02*
D03*
X-10999Y-10524D02*
D03*
X-10899Y-9224D02*
D03*
X-7699Y-12374D02*
D03*
X-10249Y-11974D02*
D03*
X-6699Y-474D02*
D03*
X-8999Y-7924D02*
D03*
X-6549Y-10674D02*
D03*
X-7899Y-8924D02*
D03*
X-10999Y-10924D02*
D03*
X-4999Y-8924D02*
D03*
X-10999Y-9774D02*
D03*
X-10299Y-13424D02*
D03*
X-7549Y-11024D02*
D03*
X-4999Y-11074D02*
D03*
Y-10024D02*
D03*
X-12019Y-11820D02*
D03*
X-7446Y-16120D02*
D03*
X-7918Y5980D02*
D03*
X-4999Y-10524D02*
D03*
X-11999Y-3589D02*
D03*
X-7349Y-1474D02*
D03*
X-3349Y-7224D02*
D03*
X-3849Y-7774D02*
D03*
X-4299Y-7224D02*
D03*
X-12649Y-2674D02*
D03*
X-12099Y-2174D02*
D03*
X-11599Y-2674D02*
D03*
X-11099Y-7074D02*
D03*
X-9649Y-11274D02*
D03*
X-4149Y-6424D02*
D03*
X-6399D02*
D03*
X-7249Y-1924D02*
D03*
Y-4674D02*
D03*
X-5249Y-3589D02*
D03*
X-5799Y-2724D02*
D03*
X-6899Y-3274D02*
D03*
X-7749Y-6874D02*
D03*
X-6449Y-5074D02*
D03*
X-10899Y-6374D02*
D03*
X-8649Y-6424D02*
D03*
X-9749Y-3589D02*
D03*
X-9349Y-2724D02*
D03*
X-10349Y-2674D02*
D03*
X-10649Y-7724D02*
D03*
X-8849Y-6874D02*
D03*
X-6849Y-2174D02*
D03*
X-5349Y-2224D02*
D03*
X-4849Y-2774D02*
D03*
X-5949Y-7774D02*
D03*
X-6606Y-7274D02*
D03*
X-6349Y-7924D02*
D03*
D46*
X-11286Y-5436D02*
D03*
X-9650Y-5388D02*
D03*
D47*
X-9118Y630D02*
D03*
D48*
X-1819Y3630D02*
D03*
X-8669Y3780D02*
D03*
X-3018Y2580D02*
D03*
X-9469Y2430D02*
D03*
M02*
