G04*
G04 #@! TF.GenerationSoftware,Altium Limited,Altium Designer,22.4.2 (48)*
G04*
G04 Layer_Color=32896*
%FSLAX25Y25*%
%MOIN*%
G70*
G04*
G04 #@! TF.SameCoordinates,7C60A1AE-4728-4251-9105-166ECD4517EE*
G04*
G04*
G04 #@! TF.FilePolarity,Positive*
G04*
G01*
G75*
%ADD11C,0.00787*%
%ADD14C,0.00591*%
%ADD66C,0.00606*%
D11*
X14961Y-303929D02*
Y-285827D01*
X7087Y-303929D02*
Y-285827D01*
X14961D01*
X11024Y-305118D02*
Y-304134D01*
Y-285433D02*
Y-284449D01*
X7087Y-303929D02*
X14961D01*
X16535Y-303937D02*
Y-285835D01*
X24409Y-303937D02*
Y-285835D01*
X16535Y-303937D02*
X24409D01*
X20472Y-285630D02*
Y-284646D01*
Y-305315D02*
Y-304331D01*
X16535Y-285835D02*
X24409D01*
X161677Y-41238D02*
Y-39112D01*
X147898Y-41238D02*
Y-39112D01*
X153724Y-33285D02*
X155850D01*
X153724Y-47065D02*
X155850D01*
X131220Y-62795D02*
X133346D01*
X131220Y-49016D02*
X133346D01*
X139173Y-56968D02*
Y-54843D01*
X125394Y-56968D02*
Y-54843D01*
X46063Y-288799D02*
Y-274232D01*
X58268Y-288799D02*
Y-274232D01*
X8425Y-390827D02*
Y-370827D01*
X188425Y-390827D02*
Y-370827D01*
X8425D02*
X188425D01*
X8425Y-390827D02*
X188425D01*
X8425Y-22874D02*
X188425D01*
X8425Y-2874D02*
X188425D01*
Y-22874D02*
Y-2874D01*
X8425Y-22874D02*
Y-2874D01*
D14*
X16535Y-296063D02*
X24409D01*
X7087Y-289764D02*
X14961D01*
X190957Y-376827D02*
X192925D01*
X190957Y-374859D01*
Y-374367D01*
X191449Y-373875D01*
X192433D01*
X192925Y-374367D01*
X192425Y-386327D02*
X191441D01*
X191933D01*
Y-383375D01*
X192425Y-383867D01*
X7425Y-385367D02*
X6933Y-384875D01*
X5949D01*
X5457Y-385367D01*
Y-385859D01*
X5949Y-386351D01*
X6441D01*
X5949D01*
X5457Y-386843D01*
Y-387335D01*
X5949Y-387827D01*
X6933D01*
X7425Y-387335D01*
X2506Y-384875D02*
X4473D01*
Y-386351D01*
X3489Y-385859D01*
X2998D01*
X2506Y-386351D01*
Y-387335D01*
X2998Y-387827D01*
X3981D01*
X4473Y-387335D01*
X7425Y-375367D02*
X6933Y-374875D01*
X5949D01*
X5457Y-375367D01*
Y-375859D01*
X5949Y-376351D01*
X6441D01*
X5949D01*
X5457Y-376843D01*
Y-377335D01*
X5949Y-377827D01*
X6933D01*
X7425Y-377335D01*
X2506Y-374875D02*
X3489Y-375367D01*
X4473Y-376351D01*
Y-377335D01*
X3981Y-377827D01*
X2998D01*
X2506Y-377335D01*
Y-376843D01*
X2998Y-376351D01*
X4473D01*
X7425Y-7414D02*
X6933Y-6922D01*
X5949D01*
X5457Y-7414D01*
Y-7906D01*
X5949Y-8398D01*
X6441D01*
X5949D01*
X5457Y-8890D01*
Y-9382D01*
X5949Y-9874D01*
X6933D01*
X7425Y-9382D01*
X2506Y-6922D02*
X3489Y-7414D01*
X4473Y-8398D01*
Y-9382D01*
X3981Y-9874D01*
X2998D01*
X2506Y-9382D01*
Y-8890D01*
X2998Y-8398D01*
X4473D01*
X7425Y-17414D02*
X6933Y-16922D01*
X5949D01*
X5457Y-17414D01*
Y-17906D01*
X5949Y-18398D01*
X6441D01*
X5949D01*
X5457Y-18890D01*
Y-19382D01*
X5949Y-19874D01*
X6933D01*
X7425Y-19382D01*
X2506Y-16922D02*
X4473D01*
Y-18398D01*
X3489Y-17906D01*
X2998D01*
X2506Y-18398D01*
Y-19382D01*
X2998Y-19874D01*
X3981D01*
X4473Y-19382D01*
X193425Y-19874D02*
X192441D01*
X192933D01*
Y-16922D01*
X193425Y-17414D01*
X193457Y-9874D02*
X195425D01*
X193457Y-7906D01*
Y-7414D01*
X193949Y-6922D01*
X194933D01*
X195425Y-7414D01*
X39689Y-283491D02*
X42641D01*
Y-282015D01*
X42149Y-281523D01*
X41165D01*
X40673Y-282015D01*
Y-283491D01*
Y-282507D02*
X39689Y-281523D01*
X42149Y-280539D02*
X42641Y-280048D01*
Y-279064D01*
X42149Y-278572D01*
X41657D01*
X41165Y-279064D01*
X40673Y-278572D01*
X40181D01*
X39689Y-279064D01*
Y-280048D01*
X40181Y-280539D01*
X40673D01*
X41165Y-280048D01*
X41657Y-280539D01*
X42149D01*
X41165Y-280048D02*
Y-279064D01*
X22932Y-271359D02*
X20964D01*
Y-271851D01*
X22932Y-273819D01*
Y-274311D01*
X20964D01*
X18013D02*
X19981D01*
X18013Y-272343D01*
Y-271851D01*
X18505Y-271359D01*
X19489D01*
X19981Y-271851D01*
X186460Y-28976D02*
Y-26024D01*
X184984D01*
X184492Y-26516D01*
Y-27500D01*
X184984Y-27992D01*
X186460D01*
X181540Y-28976D02*
X183508D01*
X181540Y-27008D01*
Y-26516D01*
X182032Y-26024D01*
X183016D01*
X183508Y-26516D01*
X6468Y-382976D02*
Y-380024D01*
X4992D01*
X4500Y-380516D01*
Y-381500D01*
X4992Y-381992D01*
X6468D01*
X3516Y-382976D02*
X2532D01*
X3024D01*
Y-380024D01*
X3516Y-380516D01*
X176771Y-191252D02*
Y-188300D01*
X175295D01*
X174803Y-188792D01*
Y-189776D01*
X175295Y-190268D01*
X176771D01*
X175787D02*
X174803Y-191252D01*
X173819D02*
X172835D01*
X173327D01*
Y-188300D01*
X173819Y-188792D01*
X37749Y-295669D02*
X40700D01*
Y-294193D01*
X40208Y-293701D01*
X39224D01*
X38732Y-294193D01*
Y-295669D01*
Y-294685D02*
X37749Y-293701D01*
X38241Y-292717D02*
X37749Y-292225D01*
Y-291241D01*
X38241Y-290749D01*
X40208D01*
X40700Y-291241D01*
Y-292225D01*
X40208Y-292717D01*
X39716D01*
X39224Y-292225D01*
Y-290749D01*
X9449Y-274311D02*
X11417D01*
Y-273819D01*
X9449Y-271851D01*
Y-271359D01*
X11417D01*
X12401D02*
X13385D01*
X12893D01*
Y-274311D01*
X12401Y-273819D01*
X143799Y-168307D02*
X144291Y-167815D01*
X145275D01*
X145767Y-168307D01*
Y-170275D01*
X145275Y-170767D01*
X144291D01*
X143799Y-170275D01*
X140847Y-167815D02*
X142815D01*
Y-169291D01*
X141831Y-168799D01*
X141339D01*
X140847Y-169291D01*
Y-170275D01*
X141339Y-170767D01*
X142323D01*
X142815Y-170275D01*
D66*
X148913Y-66388D02*
Y-68356D01*
X147929Y-69340D01*
X146945Y-68356D01*
Y-66388D01*
X145469Y-69340D02*
X144485D01*
X143993Y-68848D01*
Y-67864D01*
X144485Y-67372D01*
X145469D01*
X145961Y-67864D01*
Y-68848D01*
X145469Y-69340D01*
X142517D02*
Y-66880D01*
Y-67864D01*
X143009D01*
X142025D01*
X142517D01*
Y-66880D01*
X142025Y-66388D01*
X140057Y-69340D02*
Y-66880D01*
Y-67864D01*
X140549D01*
X139565D01*
X140057D01*
Y-66880D01*
X139565Y-66388D01*
X138090Y-69340D02*
X136614D01*
X136122Y-68848D01*
X136614Y-68356D01*
X137598D01*
X138090Y-67864D01*
X137598Y-67372D01*
X136122D01*
X133662Y-69340D02*
X134646D01*
X135138Y-68848D01*
Y-67864D01*
X134646Y-67372D01*
X133662D01*
X133170Y-67864D01*
Y-68356D01*
X135138D01*
X131694Y-66880D02*
Y-67372D01*
X132186D01*
X131202D01*
X131694D01*
Y-68848D01*
X131202Y-69340D01*
X129726Y-69832D02*
X127758D01*
X126774Y-69340D02*
X125790D01*
X126282D01*
Y-67372D01*
X126774D01*
X124314Y-69340D02*
Y-67372D01*
X122838D01*
X122346Y-67864D01*
Y-69340D01*
X121362D02*
X120379D01*
X120871D01*
Y-66388D01*
X121362Y-66880D01*
X170467Y-27018D02*
Y-28986D01*
X169483Y-29970D01*
X168500Y-28986D01*
Y-27018D01*
X167024Y-29970D02*
X166040D01*
X165548Y-29478D01*
Y-28494D01*
X166040Y-28002D01*
X167024D01*
X167516Y-28494D01*
Y-29478D01*
X167024Y-29970D01*
X164072D02*
Y-27510D01*
Y-28494D01*
X164564D01*
X163580D01*
X164072D01*
Y-27510D01*
X163580Y-27018D01*
X161612Y-29970D02*
Y-27510D01*
Y-28494D01*
X162104D01*
X161120D01*
X161612D01*
Y-27510D01*
X161120Y-27018D01*
X159644Y-29970D02*
X158168D01*
X157676Y-29478D01*
X158168Y-28986D01*
X159152D01*
X159644Y-28494D01*
X159152Y-28002D01*
X157676D01*
X155216Y-29970D02*
X156200D01*
X156692Y-29478D01*
Y-28494D01*
X156200Y-28002D01*
X155216D01*
X154724Y-28494D01*
Y-28986D01*
X156692D01*
X153249Y-27510D02*
Y-28002D01*
X153741D01*
X152757D01*
X153249D01*
Y-29478D01*
X152757Y-29970D01*
X151281Y-30462D02*
X149313D01*
X147837Y-29970D02*
X146853D01*
X146361Y-29478D01*
Y-28494D01*
X146853Y-28002D01*
X147837D01*
X148329Y-28494D01*
Y-29478D01*
X147837Y-29970D01*
X145377Y-28002D02*
Y-29478D01*
X144885Y-29970D01*
X143409D01*
Y-28002D01*
X141933Y-27510D02*
Y-28002D01*
X142425D01*
X141441D01*
X141933D01*
Y-29478D01*
X141441Y-29970D01*
X139965D02*
X138981D01*
X139473D01*
Y-27018D01*
X139965Y-27510D01*
M02*
