G04*
G04 #@! TF.GenerationSoftware,Altium Limited,Altium Designer,22.4.2 (48)*
G04*
G04 Layer_Color=8421504*
%FSLAX25Y25*%
%MOIN*%
G70*
G04*
G04 #@! TF.SameCoordinates,7C60A1AE-4728-4251-9105-166ECD4517EE*
G04*
G04*
G04 #@! TF.FilePolarity,Positive*
G04*
G01*
G75*
%ADD15R,0.12992X0.05315*%
%ADD16R,0.03937X0.03150*%
%ADD17R,0.03150X0.03937*%
%ADD18R,0.08268X0.03937*%
%ADD19R,0.03937X0.08268*%
%ADD20R,0.03150X0.03543*%
%ADD21R,0.06004X0.02559*%
%ADD22R,0.03543X0.03150*%
%ADD23R,0.01772X0.05709*%
%ADD24R,0.16535X0.12205*%
%ADD25O,0.07480X0.01181*%
%ADD26R,0.05610X0.01772*%
%ADD27R,0.06614X0.07402*%
%ADD28R,0.02362X0.04134*%
G04:AMPARAMS|DCode=29|XSize=35.43mil|YSize=31.5mil|CornerRadius=7.87mil|HoleSize=0mil|Usage=FLASHONLY|Rotation=180.000|XOffset=0mil|YOffset=0mil|HoleType=Round|Shape=RoundedRectangle|*
%AMROUNDEDRECTD29*
21,1,0.03543,0.01575,0,0,180.0*
21,1,0.01968,0.03150,0,0,180.0*
1,1,0.01575,-0.00984,0.00787*
1,1,0.01575,0.00984,0.00787*
1,1,0.01575,0.00984,-0.00787*
1,1,0.01575,-0.00984,-0.00787*
%
%ADD29ROUNDEDRECTD29*%
%ADD30R,0.04134X0.02362*%
D15*
X42126Y-264665D02*
D03*
Y-241634D02*
D03*
D16*
X111356Y-42126D02*
D03*
X111356Y-69685D02*
D03*
X190096Y-42126D02*
D03*
X190096Y-69685D02*
D03*
D17*
X127104Y-26378D02*
D03*
X127104Y-85433D02*
D03*
X174348Y-26378D02*
D03*
X174348Y-85433D02*
D03*
D18*
X113522Y-26378D02*
D03*
X113522Y-85433D02*
D03*
X187931Y-26378D02*
D03*
X187931Y-85433D02*
D03*
D19*
X111356Y-28543D02*
D03*
X111356Y-83268D02*
D03*
X190096Y-28543D02*
D03*
X190096Y-83268D02*
D03*
D20*
X155585Y-76768D02*
D03*
X149049Y-76807D02*
D03*
X136128Y-76768D02*
D03*
X142663Y-76728D02*
D03*
X173356Y-76768D02*
D03*
X166821Y-76807D02*
D03*
X160817Y-284146D02*
D03*
X167353Y-284106D02*
D03*
X160817Y-289646D02*
D03*
X167353Y-289606D02*
D03*
D21*
X150356Y-55768D02*
D03*
Y-60768D02*
D03*
Y-65768D02*
D03*
Y-70768D02*
D03*
X171711D02*
D03*
Y-65768D02*
D03*
Y-60768D02*
D03*
Y-55768D02*
D03*
D22*
X179856Y-76496D02*
D03*
X179817Y-69961D02*
D03*
X112702Y-220079D02*
D03*
Y-225590D02*
D03*
X148851Y-220079D02*
D03*
Y-225590D02*
D03*
X177770Y-220079D02*
D03*
Y-225590D02*
D03*
X170540Y-220079D02*
D03*
Y-225590D02*
D03*
X119932Y-220079D02*
D03*
Y-225590D02*
D03*
X141621Y-220079D02*
D03*
Y-225590D02*
D03*
X106299Y-138976D02*
D03*
Y-144488D02*
D03*
Y-128347D02*
D03*
Y-133858D02*
D03*
X106299Y-117717D02*
D03*
Y-123228D02*
D03*
X111850Y-102126D02*
D03*
X111811Y-95591D02*
D03*
X164555Y-105138D02*
D03*
X164594Y-111673D02*
D03*
X159055Y-105138D02*
D03*
X159095Y-111673D02*
D03*
X164469Y-124429D02*
D03*
X164508Y-130965D02*
D03*
X158968Y-124429D02*
D03*
X159008Y-130965D02*
D03*
X120552Y-130850D02*
D03*
X120513Y-124315D02*
D03*
X126071Y-130850D02*
D03*
X126031Y-124315D02*
D03*
X125839Y-105811D02*
D03*
X125878Y-112346D02*
D03*
X120339Y-105811D02*
D03*
X120378Y-112346D02*
D03*
X114567Y-124803D02*
D03*
Y-130315D02*
D03*
X185000Y-219567D02*
D03*
X185039Y-226102D02*
D03*
X105512D02*
D03*
X105472Y-219567D02*
D03*
X127201Y-226102D02*
D03*
X127162Y-219567D02*
D03*
X156120Y-226102D02*
D03*
X156081Y-219567D02*
D03*
X163311D02*
D03*
X163350Y-226102D02*
D03*
X134431D02*
D03*
X134391Y-219567D02*
D03*
X14293Y-258724D02*
D03*
X14332Y-265260D02*
D03*
X18959Y-258724D02*
D03*
X18999Y-265260D02*
D03*
X23665Y-259315D02*
D03*
Y-264827D02*
D03*
X9665D02*
D03*
Y-259315D02*
D03*
D23*
X164028Y-274606D02*
D03*
X166587D02*
D03*
X169147D02*
D03*
X171705D02*
D03*
X174265D02*
D03*
X176824D02*
D03*
X179383D02*
D03*
X181942D02*
D03*
X184501D02*
D03*
X187060D02*
D03*
Y-251575D02*
D03*
X184501D02*
D03*
X181942D02*
D03*
X179383D02*
D03*
X176824D02*
D03*
X174265D02*
D03*
X171705D02*
D03*
X169147D02*
D03*
X166587D02*
D03*
X164028D02*
D03*
D24*
X175544Y-263091D02*
D03*
D25*
X151083Y-107480D02*
D03*
Y-105512D02*
D03*
Y-103543D02*
D03*
Y-101575D02*
D03*
Y-99606D02*
D03*
X133957Y-107480D02*
D03*
Y-105512D02*
D03*
Y-103543D02*
D03*
Y-101575D02*
D03*
Y-99606D02*
D03*
X151083Y-126378D02*
D03*
Y-124409D02*
D03*
Y-122441D02*
D03*
Y-120472D02*
D03*
Y-118504D02*
D03*
X133957Y-126378D02*
D03*
Y-124409D02*
D03*
Y-122441D02*
D03*
Y-120472D02*
D03*
Y-118504D02*
D03*
D26*
X150835Y-145177D02*
D03*
Y-142618D02*
D03*
Y-140059D02*
D03*
Y-137500D02*
D03*
X133417D02*
D03*
Y-140059D02*
D03*
Y-142618D02*
D03*
Y-145177D02*
D03*
D27*
X142126Y-141339D02*
D03*
D28*
X32165Y-270004D02*
D03*
X35906Y-279059D02*
D03*
X28425D02*
D03*
D29*
X28665Y-259276D02*
D03*
Y-264787D02*
D03*
D30*
X13976Y-286024D02*
D03*
Y-293504D02*
D03*
X23031Y-289764D02*
D03*
M02*
