G04*
G04 #@! TF.GenerationSoftware,Altium Limited,Altium Designer,22.4.2 (48)*
G04*
G04 Layer_Physical_Order=1*
G04 Layer_Color=255*
%FSLAX25Y25*%
%MOIN*%
G70*
G04*
G04 #@! TF.SameCoordinates,2E2B2F14-C775-4052-8AD3-083FCFC3520C*
G04*
G04*
G04 #@! TF.FilePolarity,Positive*
G04*
G01*
G75*
%ADD15R,0.12992X0.05315*%
%ADD16R,0.03937X0.03150*%
%ADD17R,0.03150X0.03937*%
%ADD18R,0.08268X0.03937*%
%ADD19R,0.03937X0.08268*%
%ADD20R,0.03150X0.03543*%
%ADD21R,0.06004X0.02559*%
%ADD22R,0.03543X0.03150*%
%ADD23R,0.01772X0.05709*%
%ADD24R,0.16535X0.12205*%
%ADD25O,0.07480X0.01181*%
%ADD26R,0.05610X0.01772*%
%ADD27R,0.06614X0.07402*%
%ADD28R,0.02362X0.04134*%
G04:AMPARAMS|DCode=29|XSize=35.43mil|YSize=31.5mil|CornerRadius=7.87mil|HoleSize=0mil|Usage=FLASHONLY|Rotation=180.000|XOffset=0mil|YOffset=0mil|HoleType=Round|Shape=RoundedRectangle|*
%AMROUNDEDRECTD29*
21,1,0.03543,0.01575,0,0,180.0*
21,1,0.01968,0.03150,0,0,180.0*
1,1,0.01575,-0.00984,0.00787*
1,1,0.01575,0.00984,0.00787*
1,1,0.01575,0.00984,-0.00787*
1,1,0.01575,-0.00984,-0.00787*
%
%ADD29ROUNDEDRECTD29*%
%ADD30R,0.04134X0.02362*%
%ADD31C,0.01181*%
%ADD53C,0.01968*%
%ADD54C,0.01575*%
%ADD55C,0.03150*%
%ADD56C,0.05906*%
%ADD57C,0.05512*%
%ADD58C,0.07480*%
%ADD59C,0.07874*%
%ADD60R,0.05906X0.05906*%
%ADD61C,0.02756*%
%ADD62C,0.03937*%
%ADD63C,0.06693*%
G36*
X183197Y-25878D02*
X187931D01*
Y-26878D01*
X183197D01*
Y-28946D01*
X187528D01*
Y-33277D01*
X189596D01*
Y-28543D01*
X190596D01*
Y-33277D01*
X192356D01*
Y-39951D01*
X190597D01*
Y-42126D01*
Y-44301D01*
X192356D01*
Y-67510D01*
X190596D01*
Y-69685D01*
Y-71860D01*
X192356D01*
Y-78534D01*
X190596D01*
Y-83268D01*
X189596D01*
Y-78534D01*
X187528D01*
Y-82864D01*
X183197D01*
Y-84933D01*
X187931D01*
Y-85933D01*
X183197D01*
Y-87768D01*
X176523D01*
Y-85933D01*
X174348D01*
X172174D01*
Y-87768D01*
X129279D01*
Y-85933D01*
X127104D01*
X124930D01*
Y-87768D01*
X118256D01*
Y-85933D01*
X113522D01*
Y-84933D01*
X118256D01*
Y-82865D01*
X113925D01*
Y-78534D01*
X111856D01*
Y-83268D01*
X110856D01*
Y-78534D01*
X109356D01*
Y-71860D01*
X110856D01*
Y-69685D01*
Y-67510D01*
X109356D01*
Y-44301D01*
X110856D01*
Y-42126D01*
Y-39951D01*
X109356D01*
Y-33277D01*
X110856D01*
Y-28543D01*
X111856D01*
Y-33277D01*
X113925D01*
Y-28946D01*
X118255D01*
Y-26878D01*
X113522D01*
Y-25878D01*
X118255D01*
Y-24268D01*
X124929D01*
Y-25878D01*
X129279D01*
Y-24268D01*
X172174D01*
Y-25878D01*
X176523D01*
Y-24268D01*
X183197D01*
Y-25878D01*
D02*
G37*
G36*
X195321Y-392171D02*
X103543D01*
Y-379780D01*
X103946D01*
X104951Y-379510D01*
X105852Y-378990D01*
X106588Y-378254D01*
X107109Y-377352D01*
X107378Y-376347D01*
Y-375306D01*
X107109Y-374301D01*
X106588Y-373400D01*
X105852Y-372664D01*
X104951Y-372143D01*
X103946Y-371874D01*
X103543D01*
Y-228277D01*
X105012D01*
Y-226102D01*
Y-223928D01*
X103543D01*
Y-222142D01*
X105304D01*
X105472Y-222164D01*
X105641Y-222142D01*
X108244D01*
Y-216992D01*
X108070D01*
Y-213518D01*
X107981Y-212846D01*
X107721Y-212220D01*
X107309Y-211682D01*
X107193Y-211566D01*
X107224Y-211511D01*
X107547Y-210305D01*
Y-209057D01*
X107224Y-207852D01*
X106600Y-206771D01*
X105718Y-205888D01*
X105205Y-205592D01*
X105140Y-205096D01*
X105512Y-204724D01*
X109896D01*
Y-219291D01*
X109896Y-219291D01*
X109931Y-219467D01*
Y-222516D01*
X109931Y-222654D01*
Y-223016D01*
X109931Y-223153D01*
Y-228165D01*
X110776D01*
Y-231102D01*
X110776Y-231102D01*
X110915Y-231800D01*
X111310Y-232391D01*
X122168Y-243249D01*
X122168Y-243249D01*
X122759Y-243644D01*
X123457Y-243783D01*
X158876D01*
X162206Y-247113D01*
Y-247721D01*
X162143D01*
Y-255429D01*
X168473D01*
Y-255029D01*
X168647D01*
Y-251575D01*
X169647D01*
Y-255029D01*
X169820D01*
Y-255429D01*
X183828D01*
Y-255029D01*
X184001D01*
Y-251575D01*
Y-248120D01*
X183828D01*
Y-247721D01*
X183764D01*
Y-229565D01*
X183625Y-228868D01*
X183525Y-228718D01*
X183761Y-228277D01*
X184539D01*
Y-226602D01*
X182668D01*
Y-227061D01*
X182206Y-227252D01*
X180542Y-225588D01*
Y-223153D01*
X180542Y-223016D01*
Y-222654D01*
X180542Y-222516D01*
Y-217504D01*
X177773D01*
X177019Y-216751D01*
Y-204724D01*
X183059D01*
X183125Y-205224D01*
X182977Y-205264D01*
X181897Y-205888D01*
X181014Y-206771D01*
X180390Y-207852D01*
X180067Y-209057D01*
Y-210305D01*
X180390Y-211511D01*
X181014Y-212592D01*
X181897Y-213474D01*
X182307Y-213711D01*
Y-216992D01*
X182228D01*
Y-222142D01*
X184735D01*
X184904Y-222164D01*
X185000D01*
X185169Y-222142D01*
X187772D01*
Y-216992D01*
X187501D01*
Y-213599D01*
X187718Y-213474D01*
X188600Y-212592D01*
X189224Y-211511D01*
X189547Y-210305D01*
Y-209057D01*
X189224Y-207852D01*
X188600Y-206771D01*
X187718Y-205888D01*
X186637Y-205264D01*
X186489Y-205224D01*
X186555Y-204724D01*
X195321D01*
Y-392171D01*
D02*
G37*
G36*
X171012Y-217504D02*
X167769D01*
Y-222516D01*
X167769Y-222654D01*
Y-223016D01*
X167769Y-223153D01*
Y-228165D01*
X170735D01*
X174438Y-231869D01*
X174155Y-232292D01*
X174095Y-232268D01*
X173149D01*
X172275Y-232630D01*
X171606Y-233299D01*
X171244Y-234173D01*
Y-234889D01*
X170744Y-235096D01*
X170096Y-234448D01*
X169504Y-234052D01*
X168807Y-233914D01*
X168807Y-233914D01*
X153420D01*
X150641Y-231135D01*
Y-228165D01*
X151623D01*
Y-223153D01*
X151623Y-223016D01*
Y-222654D01*
X151623Y-222516D01*
Y-217504D01*
X148854D01*
X147885Y-216536D01*
Y-204724D01*
X152059D01*
X152125Y-205224D01*
X151978Y-205264D01*
X150897Y-205888D01*
X150014Y-206771D01*
X149390Y-207852D01*
X149067Y-209057D01*
Y-210305D01*
X149390Y-211511D01*
X150014Y-212592D01*
X150897Y-213474D01*
X151978Y-214098D01*
X153183Y-214421D01*
X153484D01*
Y-216992D01*
X153309D01*
Y-222142D01*
X155912D01*
X156081Y-222164D01*
X156250Y-222142D01*
X158853D01*
Y-216992D01*
X158678D01*
Y-213127D01*
X158589Y-212455D01*
X158330Y-211828D01*
X158165Y-211613D01*
X158224Y-211511D01*
X158547Y-210305D01*
Y-209057D01*
X158224Y-207852D01*
X157600Y-206771D01*
X156718Y-205888D01*
X155637Y-205264D01*
X155489Y-205224D01*
X155555Y-204724D01*
X163059D01*
X163125Y-205224D01*
X162978Y-205264D01*
X161897Y-205888D01*
X161014Y-206771D01*
X160390Y-207852D01*
X160067Y-209057D01*
Y-210305D01*
X160390Y-211511D01*
X160743Y-212123D01*
X160714Y-212350D01*
Y-216992D01*
X160539D01*
Y-222142D01*
X163142D01*
X163311Y-222164D01*
X163479Y-222142D01*
X166082D01*
Y-216992D01*
X165908D01*
Y-214294D01*
X166637Y-214098D01*
X167718Y-213474D01*
X168600Y-212592D01*
X169224Y-211511D01*
X169547Y-210305D01*
Y-209057D01*
X169224Y-207852D01*
X168600Y-206771D01*
X167718Y-205888D01*
X166637Y-205264D01*
X166489Y-205224D01*
X166555Y-204724D01*
X171012D01*
Y-217504D01*
D02*
G37*
G36*
X141878Y-217441D02*
X141816Y-217504D01*
X138850D01*
Y-222516D01*
X138850Y-222654D01*
Y-223016D01*
X138850Y-223153D01*
Y-228165D01*
X140304D01*
Y-230315D01*
X140304Y-230315D01*
X140442Y-231012D01*
X140837Y-231604D01*
X146835Y-237601D01*
X146644Y-238063D01*
X127255D01*
X121754Y-232563D01*
Y-228165D01*
X122704D01*
Y-223153D01*
X122704Y-223016D01*
Y-222654D01*
X122704Y-222516D01*
Y-217504D01*
X119934D01*
X115615Y-213185D01*
Y-204724D01*
X121059D01*
X121125Y-205224D01*
X120977Y-205264D01*
X119897Y-205888D01*
X119014Y-206771D01*
X118390Y-207852D01*
X118067Y-209057D01*
Y-210305D01*
X118390Y-211511D01*
X119014Y-212592D01*
X119897Y-213474D01*
X120977Y-214098D01*
X122183Y-214421D01*
X123431D01*
X123781Y-214328D01*
X124565Y-215111D01*
Y-216992D01*
X124390D01*
Y-222142D01*
X126993D01*
X127162Y-222164D01*
X127331Y-222142D01*
X129933D01*
Y-216992D01*
X129759D01*
Y-214036D01*
X129670Y-213364D01*
X129411Y-212737D01*
X128998Y-212199D01*
X127454Y-210655D01*
X127547Y-210305D01*
Y-209057D01*
X127224Y-207852D01*
X126600Y-206771D01*
X125718Y-205888D01*
X124637Y-205264D01*
X124489Y-205224D01*
X124555Y-204724D01*
X132059D01*
X132125Y-205224D01*
X131977Y-205264D01*
X130897Y-205888D01*
X130014Y-206771D01*
X129390Y-207852D01*
X129067Y-209057D01*
Y-210305D01*
X129390Y-211511D01*
X130014Y-212592D01*
X130897Y-213474D01*
X131598Y-213879D01*
Y-219567D01*
X131620Y-219736D01*
Y-222142D01*
X134026D01*
X134195Y-222164D01*
X134391D01*
X134560Y-222142D01*
X137163D01*
Y-216992D01*
X136792D01*
Y-213400D01*
X137600Y-212592D01*
X138224Y-211511D01*
X138547Y-210305D01*
Y-209057D01*
X138224Y-207852D01*
X137600Y-206771D01*
X136718Y-205888D01*
X135637Y-205264D01*
X135489Y-205224D01*
X135555Y-204724D01*
X141878D01*
Y-217441D01*
D02*
G37*
G36*
X117160Y-219884D02*
Y-222516D01*
X117160Y-222654D01*
Y-223016D01*
X117160Y-223153D01*
Y-228165D01*
X118110D01*
Y-233318D01*
X118110Y-233318D01*
X118112Y-233332D01*
X117651Y-233578D01*
X114421Y-230347D01*
Y-228165D01*
X115474D01*
Y-223153D01*
X115474Y-223016D01*
Y-222654D01*
X115474Y-222516D01*
Y-218851D01*
X115936Y-218660D01*
X117160Y-219884D01*
D02*
G37*
G36*
X69165Y-256963D02*
X68665Y-257170D01*
X68175Y-256680D01*
X67274Y-256159D01*
X66268Y-255890D01*
X65228D01*
X64222Y-256159D01*
X63321Y-256680D01*
X62585Y-257416D01*
X62065Y-258317D01*
X61795Y-259322D01*
Y-260363D01*
X61915Y-260811D01*
X60935Y-261616D01*
X59551Y-262356D01*
X58049Y-262811D01*
X56580Y-262956D01*
X56488Y-262937D01*
X49622D01*
Y-261008D01*
X37955D01*
X37763Y-260546D01*
X42879Y-255430D01*
X43231Y-254904D01*
X43354Y-254283D01*
Y-249532D01*
X69165D01*
Y-256963D01*
D02*
G37*
G36*
X31949Y-255863D02*
X31530Y-256281D01*
X31179Y-256807D01*
X31091Y-257248D01*
X30890Y-257358D01*
X30658Y-257426D01*
X30556Y-257425D01*
X30191Y-257181D01*
X29650Y-257074D01*
X29165D01*
Y-259276D01*
X28165D01*
Y-257074D01*
X27681D01*
X27140Y-257181D01*
X27103Y-257206D01*
X26575Y-257027D01*
X26437Y-256740D01*
X26394Y-256254D01*
Y-255433D01*
X26032Y-254558D01*
X25363Y-253890D01*
X24489Y-253528D01*
X23543D01*
X22669Y-253890D01*
X22000Y-254558D01*
X21638Y-255433D01*
Y-256150D01*
X11688D01*
Y-255679D01*
X11977Y-255559D01*
X12646Y-254890D01*
X13008Y-254016D01*
Y-253070D01*
X12646Y-252196D01*
X11977Y-251527D01*
X11103Y-251165D01*
X10157D01*
X9283Y-251527D01*
X8614Y-252196D01*
X8259Y-253053D01*
X8235Y-253077D01*
X7796Y-253734D01*
X7642Y-254508D01*
Y-256740D01*
X6894D01*
Y-261890D01*
X6894Y-261890D01*
Y-262252D01*
X6894D01*
X6894Y-262390D01*
Y-267402D01*
X9848D01*
Y-276105D01*
X9498Y-276199D01*
X8597Y-276719D01*
X7861Y-277455D01*
X7340Y-278356D01*
X7071Y-279362D01*
Y-280402D01*
X7340Y-281408D01*
X7861Y-282309D01*
X8597Y-283045D01*
X9197Y-283392D01*
Y-287656D01*
X9321Y-288277D01*
X9672Y-288803D01*
X11119Y-290250D01*
X11646Y-290602D01*
X11741Y-290823D01*
X11441Y-291323D01*
X10909D01*
Y-295685D01*
X17043D01*
Y-291323D01*
X15598D01*
Y-290551D01*
X15475Y-289931D01*
X15123Y-289404D01*
X14385Y-288667D01*
X14577Y-288205D01*
X17043D01*
Y-286136D01*
X19473Y-283706D01*
X19952Y-283835D01*
X20993D01*
X21998Y-283565D01*
X22899Y-283045D01*
X23635Y-282309D01*
X24156Y-281408D01*
X24425Y-280402D01*
Y-279362D01*
X24156Y-278356D01*
X23953Y-278005D01*
X24615Y-277343D01*
X24967Y-276817D01*
X25090Y-276197D01*
Y-267402D01*
X26437D01*
X26803Y-267724D01*
Y-275992D01*
X26244D01*
Y-282126D01*
X27313D01*
X27554Y-282920D01*
X28486Y-284664D01*
X28728Y-284958D01*
X28627Y-285133D01*
X28331Y-286239D01*
Y-287383D01*
X28362Y-287500D01*
X27720Y-288142D01*
X26098D01*
Y-287583D01*
X19965D01*
Y-291945D01*
X26098D01*
Y-291386D01*
X28392D01*
X29012Y-291262D01*
X29539Y-290911D01*
X30105Y-290345D01*
X30999Y-290861D01*
X32105Y-291158D01*
X33249D01*
X34355Y-290861D01*
X35346Y-290289D01*
X36155Y-289480D01*
X36727Y-288489D01*
X37024Y-287383D01*
Y-286239D01*
X36727Y-285133D01*
X36358Y-284493D01*
X36963Y-283033D01*
X37181Y-282126D01*
X38087D01*
Y-275992D01*
X33724D01*
Y-282074D01*
X33491Y-282529D01*
X33249Y-282465D01*
X32105D01*
X31116Y-282730D01*
X30606Y-281776D01*
Y-275992D01*
X30047D01*
Y-273071D01*
X34346D01*
Y-269570D01*
X34378Y-269413D01*
Y-268718D01*
X34630Y-268323D01*
X49622D01*
Y-266984D01*
X56488D01*
X56503Y-266981D01*
X58368Y-266834D01*
X60203Y-266394D01*
X61945Y-265672D01*
X63554Y-264686D01*
X64747Y-263667D01*
X65228Y-263795D01*
X66268D01*
X67274Y-263526D01*
X68175Y-263005D01*
X68665Y-262515D01*
X69165Y-262722D01*
Y-345130D01*
X6520Y-345529D01*
X6165Y-345177D01*
Y-249532D01*
X31949D01*
Y-255863D01*
D02*
G37*
G36*
X40111Y-253612D02*
X34781Y-258942D01*
X34299Y-258716D01*
Y-258100D01*
X34718Y-257681D01*
X35069Y-257155D01*
X35193Y-256534D01*
Y-249532D01*
X40111D01*
Y-253612D01*
D02*
G37*
G36*
X19499Y-267435D02*
X21370D01*
X21370Y-267435D01*
Y-267435D01*
X21847Y-267492D01*
Y-275525D01*
X21348Y-276024D01*
X20993Y-275929D01*
X19952D01*
X18947Y-276199D01*
X18045Y-276719D01*
X17310Y-277455D01*
X16789Y-278356D01*
X16520Y-279362D01*
Y-280402D01*
X16789Y-281408D01*
X16934Y-281659D01*
X14750Y-283842D01*
X13069D01*
X12935Y-283343D01*
X13451Y-283045D01*
X14187Y-282309D01*
X14707Y-281408D01*
X14976Y-280402D01*
Y-279362D01*
X14707Y-278356D01*
X14187Y-277455D01*
X13451Y-276719D01*
X13092Y-276512D01*
Y-267435D01*
X13832D01*
Y-265260D01*
X14832D01*
Y-267435D01*
X18499D01*
Y-265260D01*
X19499D01*
Y-267435D01*
D02*
G37*
%LPC*%
G36*
X129279Y-26878D02*
X127604D01*
Y-28946D01*
X129279D01*
Y-26878D01*
D02*
G37*
G36*
X126604D02*
X124929D01*
Y-28946D01*
X126604D01*
Y-26878D01*
D02*
G37*
G36*
X176523Y-26878D02*
X174848D01*
Y-28946D01*
X176523D01*
Y-26878D01*
D02*
G37*
G36*
X173848D02*
X172174D01*
Y-28946D01*
X173848D01*
Y-26878D01*
D02*
G37*
G36*
X189597Y-39951D02*
X187528D01*
Y-41626D01*
X189597D01*
Y-39951D01*
D02*
G37*
G36*
X113925Y-39951D02*
X111856D01*
Y-41626D01*
X113925D01*
Y-39951D01*
D02*
G37*
G36*
Y-42626D02*
X111856D01*
Y-44301D01*
X113925D01*
Y-42626D01*
D02*
G37*
G36*
X189597Y-42626D02*
X187528D01*
Y-44301D01*
X189597D01*
Y-42626D01*
D02*
G37*
G36*
X155282Y-36419D02*
X154293D01*
X153338Y-36675D01*
X152481Y-37169D01*
X151782Y-37869D01*
X151287Y-38725D01*
X151031Y-39680D01*
Y-40669D01*
X151287Y-41625D01*
X151782Y-42481D01*
X152481Y-43180D01*
X153338Y-43675D01*
X154293Y-43931D01*
X155282D01*
X156237Y-43675D01*
X157094Y-43180D01*
X157793Y-42481D01*
X158188Y-41796D01*
X169592D01*
X178703Y-50908D01*
Y-52219D01*
X178234Y-52295D01*
X177872Y-51421D01*
X177203Y-50752D01*
X176329Y-50390D01*
X175383D01*
X174509Y-50752D01*
X174474Y-50787D01*
X173980Y-50681D01*
X173872Y-50421D01*
X173203Y-49752D01*
X172329Y-49390D01*
X171383D01*
X170509Y-49752D01*
X170115Y-50146D01*
X169598D01*
X169203Y-49752D01*
X168329Y-49390D01*
X167383D01*
X166509Y-49752D01*
X166115Y-50146D01*
X166098D01*
X165703Y-49752D01*
X164829Y-49390D01*
X163883D01*
X163009Y-49752D01*
X162615Y-50146D01*
X162098D01*
X161703Y-49752D01*
X160829Y-49390D01*
X159883D01*
X159009Y-49752D01*
X158615Y-50146D01*
X158598D01*
X158203Y-49752D01*
X157329Y-49390D01*
X156383D01*
X155509Y-49752D01*
X155115Y-50146D01*
X155098D01*
X154703Y-49752D01*
X153829Y-49390D01*
X152883D01*
X152009Y-49752D01*
X151615Y-50146D01*
X151098D01*
X150703Y-49752D01*
X149829Y-49390D01*
X148883D01*
X148009Y-49752D01*
X147615Y-50146D01*
X147098D01*
X146703Y-49752D01*
X145829Y-49390D01*
X144883D01*
X144009Y-49752D01*
X143615Y-50146D01*
X142720D01*
X142100Y-50270D01*
X141574Y-50621D01*
X140192Y-52003D01*
X139840Y-52529D01*
X139717Y-53150D01*
X139781Y-53475D01*
X139421Y-53975D01*
X137284D01*
Y-50906D01*
X127284D01*
Y-60905D01*
X137284D01*
Y-57218D01*
X139012D01*
X139290Y-57634D01*
X139273Y-57674D01*
Y-58620D01*
X139635Y-59494D01*
X140304Y-60163D01*
X141178Y-60525D01*
X142124D01*
X142398Y-60412D01*
X142898Y-60709D01*
X143260Y-61583D01*
X143929Y-62252D01*
X144803Y-62614D01*
X145749D01*
X145939Y-62536D01*
X146354Y-62813D01*
Y-62988D01*
X146354Y-63047D01*
Y-63488D01*
X146354Y-63547D01*
Y-67988D01*
X146354Y-68047D01*
Y-68488D01*
X146354Y-68547D01*
Y-73047D01*
X148735D01*
Y-73651D01*
X148428Y-74035D01*
X146475D01*
Y-75185D01*
X145238D01*
Y-73957D01*
X140089D01*
Y-79500D01*
X142377D01*
X143016Y-80139D01*
X142915Y-80515D01*
Y-81296D01*
X143118Y-82051D01*
X143509Y-82728D01*
X144061Y-83281D01*
X144738Y-83672D01*
X145493Y-83874D01*
X146275D01*
X147030Y-83672D01*
X147707Y-83281D01*
X148259Y-82728D01*
X148650Y-82051D01*
X148852Y-81296D01*
Y-80515D01*
X148736Y-80079D01*
X149093Y-79579D01*
X151624D01*
Y-75614D01*
X151859Y-74838D01*
X151974Y-73670D01*
X151978Y-73651D01*
Y-73047D01*
X154358D01*
Y-68547D01*
X154358Y-68488D01*
Y-68047D01*
X154358Y-67988D01*
Y-63547D01*
X154358Y-63488D01*
Y-63047D01*
X154358Y-62988D01*
Y-62389D01*
X161615D01*
X162009Y-62784D01*
X162883Y-63146D01*
X163829D01*
X164235Y-63416D01*
Y-64268D01*
X164358Y-64888D01*
X164710Y-65414D01*
X166210Y-66914D01*
X166736Y-67266D01*
X167356Y-67389D01*
X167709D01*
Y-67988D01*
X167709Y-68047D01*
Y-68488D01*
X167709Y-68547D01*
Y-73047D01*
X171342D01*
X171528Y-73496D01*
X171254Y-73996D01*
X170782D01*
Y-79539D01*
X175931D01*
Y-78118D01*
X177085D01*
Y-79071D01*
X177085D01*
X177200Y-79348D01*
X176973Y-79575D01*
X176582Y-80252D01*
X176380Y-81007D01*
Y-81788D01*
X176536Y-82370D01*
X176298Y-82776D01*
X176190Y-82864D01*
X174848D01*
Y-84933D01*
X176523D01*
Y-83441D01*
X176809Y-83301D01*
X177023Y-83271D01*
X177526Y-83773D01*
X178203Y-84164D01*
X178958Y-84366D01*
X179739D01*
X180494Y-84164D01*
X181171Y-83773D01*
X181724Y-83220D01*
X182115Y-82543D01*
X182317Y-81788D01*
Y-81007D01*
X182115Y-80252D01*
X181724Y-79575D01*
X181720Y-79571D01*
X181853Y-79071D01*
X182628D01*
Y-73921D01*
X177085D01*
Y-74874D01*
X175931D01*
Y-73996D01*
X174978D01*
Y-73047D01*
X175713D01*
Y-68547D01*
X175713Y-68488D01*
Y-68047D01*
X175713Y-67988D01*
Y-67389D01*
X176278D01*
X176898Y-67266D01*
X177424Y-66914D01*
X181472Y-62867D01*
X181823Y-62341D01*
X181947Y-61721D01*
Y-50236D01*
X181823Y-49616D01*
X181472Y-49090D01*
X171410Y-39028D01*
X170884Y-38677D01*
X170264Y-38553D01*
X158188D01*
X157793Y-37869D01*
X157094Y-37169D01*
X156237Y-36675D01*
X155282Y-36419D01*
D02*
G37*
G36*
X189596Y-67510D02*
X187528D01*
Y-69185D01*
X189596D01*
Y-67510D01*
D02*
G37*
G36*
X113925Y-67510D02*
X111856D01*
Y-69185D01*
X113925D01*
Y-67510D01*
D02*
G37*
G36*
X182189Y-67786D02*
X180317D01*
Y-69461D01*
X182189D01*
Y-67786D01*
D02*
G37*
G36*
X179317D02*
X177445D01*
Y-69461D01*
X179317D01*
Y-67786D01*
D02*
G37*
G36*
X189596Y-70185D02*
X187528D01*
Y-71860D01*
X189596D01*
Y-70185D01*
D02*
G37*
G36*
X113925Y-70185D02*
X111856D01*
Y-71860D01*
X113925D01*
Y-70185D01*
D02*
G37*
G36*
X182189Y-70461D02*
X180317D01*
Y-72135D01*
X182189D01*
Y-70461D01*
D02*
G37*
G36*
X179317D02*
X177445D01*
Y-72135D01*
X179317D01*
Y-70461D01*
D02*
G37*
G36*
X157759Y-74396D02*
X156085D01*
Y-76268D01*
X157759D01*
Y-74396D01*
D02*
G37*
G36*
X138303D02*
X136628D01*
Y-76268D01*
X138303D01*
Y-74396D01*
D02*
G37*
G36*
X135628D02*
X133953D01*
Y-76268D01*
X135628D01*
Y-74396D01*
D02*
G37*
G36*
X155085D02*
X153410D01*
Y-76268D01*
X155085D01*
Y-74396D01*
D02*
G37*
G36*
X168996Y-74435D02*
X167321D01*
Y-76307D01*
X168996D01*
Y-74435D01*
D02*
G37*
G36*
X166321D02*
X164646D01*
Y-76307D01*
X166321D01*
Y-74435D01*
D02*
G37*
G36*
X157759Y-77268D02*
X156085D01*
Y-79139D01*
X157759D01*
Y-77268D01*
D02*
G37*
G36*
X155085D02*
X153410D01*
Y-79139D01*
X155085D01*
Y-77268D01*
D02*
G37*
G36*
X138303D02*
X136628D01*
Y-79139D01*
X138303D01*
Y-77268D01*
D02*
G37*
G36*
X135628D02*
X133953D01*
Y-79139D01*
X135628D01*
Y-77268D01*
D02*
G37*
G36*
X168996Y-77307D02*
X167321D01*
Y-79179D01*
X168996D01*
Y-77307D01*
D02*
G37*
G36*
X166321D02*
X164646D01*
Y-79179D01*
X166321D01*
Y-77307D01*
D02*
G37*
G36*
X129279Y-82865D02*
X127604D01*
Y-84933D01*
X129279D01*
Y-82865D01*
D02*
G37*
G36*
X126604D02*
X124930D01*
Y-84933D01*
X126604D01*
Y-82865D01*
D02*
G37*
G36*
X173848Y-82864D02*
X172174D01*
Y-84933D01*
X173848D01*
Y-82864D01*
D02*
G37*
G36*
X187411Y-223928D02*
X185539D01*
Y-225602D01*
X187411D01*
Y-223928D01*
D02*
G37*
G36*
X184539D02*
X182668D01*
Y-225602D01*
X184539D01*
Y-223928D01*
D02*
G37*
G36*
X107884D02*
X106012D01*
Y-225602D01*
X107884D01*
Y-223928D01*
D02*
G37*
G36*
X187411Y-226602D02*
X185539D01*
Y-228277D01*
X187411D01*
Y-226602D01*
D02*
G37*
G36*
X107884D02*
X106012D01*
Y-228277D01*
X107884D01*
Y-226602D01*
D02*
G37*
G36*
X188946Y-247721D02*
X185174D01*
Y-248120D01*
X185001D01*
Y-251575D01*
Y-255029D01*
X185174D01*
Y-255429D01*
X188946D01*
Y-247721D01*
D02*
G37*
G36*
X184412Y-256388D02*
X176044D01*
Y-262591D01*
X184412D01*
Y-256388D01*
D02*
G37*
G36*
X175044D02*
X166676D01*
Y-262591D01*
X175044D01*
Y-256388D01*
D02*
G37*
G36*
X184412Y-263591D02*
X176044D01*
Y-269793D01*
X184412D01*
Y-263591D01*
D02*
G37*
G36*
X175044D02*
X166676D01*
Y-269793D01*
X175044D01*
Y-263591D01*
D02*
G37*
G36*
X188946Y-270752D02*
X185174D01*
Y-271152D01*
X185001D01*
Y-274606D01*
Y-278061D01*
X185174D01*
Y-278461D01*
X188946D01*
Y-270752D01*
D02*
G37*
G36*
X160317Y-281774D02*
X158642D01*
Y-283646D01*
X160317D01*
Y-281774D01*
D02*
G37*
G36*
X162992Y-284646D02*
X161317D01*
Y-286517D01*
X162992D01*
Y-284646D01*
D02*
G37*
G36*
X160317D02*
X158642D01*
Y-286517D01*
X160317D01*
Y-284646D01*
D02*
G37*
G36*
X162992Y-287274D02*
X161317D01*
Y-289146D01*
X162992D01*
Y-287274D01*
D02*
G37*
G36*
X160317D02*
X158642D01*
Y-289146D01*
X160317D01*
Y-287274D01*
D02*
G37*
G36*
X162992Y-290146D02*
X161317D01*
Y-292017D01*
X162992D01*
Y-290146D01*
D02*
G37*
G36*
X160317D02*
X158642D01*
Y-292017D01*
X160317D01*
Y-290146D01*
D02*
G37*
G36*
X183828Y-270752D02*
X162143D01*
Y-278461D01*
X162206D01*
Y-280585D01*
X162206Y-280585D01*
X162345Y-281282D01*
X162379Y-281333D01*
X162143Y-281774D01*
X161317D01*
Y-283646D01*
X162992D01*
Y-282779D01*
X163454Y-282588D01*
X164778Y-283912D01*
Y-286878D01*
Y-292378D01*
X167324D01*
Y-319351D01*
X114620Y-372055D01*
X113946Y-371874D01*
X112905D01*
X111899Y-372143D01*
X110998Y-372664D01*
X110262Y-373400D01*
X109742Y-374301D01*
X109473Y-375306D01*
Y-376347D01*
X109742Y-377352D01*
X110262Y-378254D01*
X110998Y-378990D01*
X111899Y-379510D01*
X112905Y-379780D01*
X113946D01*
X114951Y-379510D01*
X115852Y-378990D01*
X116588Y-378254D01*
X117109Y-377352D01*
X117378Y-376347D01*
Y-375306D01*
X117197Y-374632D01*
X169421Y-322408D01*
X169883Y-322599D01*
Y-326792D01*
X124620Y-372055D01*
X123946Y-371874D01*
X122905D01*
X121899Y-372143D01*
X120998Y-372664D01*
X120262Y-373400D01*
X119742Y-374301D01*
X119473Y-375306D01*
Y-376347D01*
X119742Y-377352D01*
X120262Y-378254D01*
X120998Y-378990D01*
X121899Y-379510D01*
X122905Y-379780D01*
X123946D01*
X124951Y-379510D01*
X125852Y-378990D01*
X126588Y-378254D01*
X127109Y-377352D01*
X127378Y-376347D01*
Y-375306D01*
X127197Y-374632D01*
X171980Y-329849D01*
X172442Y-330040D01*
Y-334232D01*
X134620Y-372055D01*
X133946Y-371874D01*
X132905D01*
X131899Y-372143D01*
X130998Y-372664D01*
X130262Y-373400D01*
X129742Y-374301D01*
X129472Y-375306D01*
Y-376347D01*
X129742Y-377352D01*
X130262Y-378254D01*
X130998Y-378990D01*
X131899Y-379510D01*
X132905Y-379780D01*
X133946D01*
X134951Y-379510D01*
X135852Y-378990D01*
X136588Y-378254D01*
X137109Y-377352D01*
X137378Y-376347D01*
Y-375306D01*
X137197Y-374632D01*
X174539Y-337290D01*
X175001Y-337481D01*
Y-341673D01*
X144620Y-372055D01*
X143946Y-371874D01*
X142905D01*
X141900Y-372143D01*
X140998Y-372664D01*
X140262Y-373400D01*
X139742Y-374301D01*
X139472Y-375306D01*
Y-376347D01*
X139742Y-377352D01*
X140262Y-378254D01*
X140998Y-378990D01*
X141900Y-379510D01*
X142905Y-379780D01*
X143946D01*
X144951Y-379510D01*
X145852Y-378990D01*
X146588Y-378254D01*
X147109Y-377352D01*
X147378Y-376347D01*
Y-375306D01*
X147197Y-374632D01*
X177098Y-344731D01*
X177560Y-344922D01*
Y-349114D01*
X154620Y-372055D01*
X153946Y-371874D01*
X152905D01*
X151900Y-372143D01*
X150998Y-372664D01*
X150262Y-373400D01*
X149742Y-374301D01*
X149472Y-375306D01*
Y-376347D01*
X149742Y-377352D01*
X150262Y-378254D01*
X150998Y-378990D01*
X151900Y-379510D01*
X152905Y-379780D01*
X153946D01*
X154951Y-379510D01*
X155852Y-378990D01*
X156588Y-378254D01*
X157109Y-377352D01*
X157378Y-376347D01*
Y-375306D01*
X157197Y-374632D01*
X179657Y-352172D01*
X180119Y-352363D01*
Y-356555D01*
X164620Y-372055D01*
X163946Y-371874D01*
X162905D01*
X161899Y-372143D01*
X160998Y-372664D01*
X160262Y-373400D01*
X159742Y-374301D01*
X159473Y-375306D01*
Y-376347D01*
X159742Y-377352D01*
X160262Y-378254D01*
X160998Y-378990D01*
X161899Y-379510D01*
X162905Y-379780D01*
X163946D01*
X164951Y-379510D01*
X165852Y-378990D01*
X166588Y-378254D01*
X167109Y-377352D01*
X167378Y-376347D01*
Y-375306D01*
X167197Y-374632D01*
X183230Y-358599D01*
X183625Y-358008D01*
X183764Y-357310D01*
X183764Y-357310D01*
Y-278461D01*
X183828D01*
Y-278061D01*
X184001D01*
Y-274606D01*
Y-271152D01*
X183828D01*
Y-270752D01*
D02*
G37*
G36*
X183946Y-371874D02*
X182905D01*
X181899Y-372143D01*
X180998Y-372664D01*
X180262Y-373400D01*
X179742Y-374301D01*
X179472Y-375306D01*
Y-376347D01*
X179742Y-377352D01*
X180262Y-378254D01*
X180998Y-378990D01*
X181899Y-379510D01*
X182905Y-379780D01*
X183946D01*
X184951Y-379510D01*
X185852Y-378990D01*
X186588Y-378254D01*
X187109Y-377352D01*
X187378Y-376347D01*
Y-375306D01*
X187109Y-374301D01*
X186588Y-373400D01*
X185852Y-372664D01*
X184951Y-372143D01*
X183946Y-371874D01*
D02*
G37*
G36*
X173946D02*
X172905D01*
X171899Y-372143D01*
X170998Y-372664D01*
X170262Y-373400D01*
X169742Y-374301D01*
X169473Y-375306D01*
Y-376347D01*
X169742Y-377352D01*
X170262Y-378254D01*
X170998Y-378990D01*
X171899Y-379510D01*
X172905Y-379780D01*
X173946D01*
X174951Y-379510D01*
X175852Y-378990D01*
X176588Y-378254D01*
X177109Y-377352D01*
X177378Y-376347D01*
Y-375306D01*
X177109Y-374301D01*
X176588Y-373400D01*
X175852Y-372664D01*
X174951Y-372143D01*
X173946Y-371874D01*
D02*
G37*
G36*
X165722Y-223928D02*
X163850D01*
Y-225602D01*
X165722D01*
Y-223928D01*
D02*
G37*
G36*
X162850D02*
X160978D01*
Y-225602D01*
X162850D01*
Y-223928D01*
D02*
G37*
G36*
X158492D02*
X156620D01*
Y-225602D01*
X158492D01*
Y-223928D01*
D02*
G37*
G36*
X155620D02*
X153749D01*
Y-225602D01*
X155620D01*
Y-223928D01*
D02*
G37*
G36*
X165722Y-226602D02*
X163850D01*
Y-228277D01*
X165722D01*
Y-226602D01*
D02*
G37*
G36*
X162850D02*
X160978D01*
Y-228277D01*
X162850D01*
Y-226602D01*
D02*
G37*
G36*
X158492D02*
X156620D01*
Y-228277D01*
X158492D01*
Y-226602D01*
D02*
G37*
G36*
X155620D02*
X153749D01*
Y-228277D01*
X155620D01*
Y-226602D01*
D02*
G37*
G36*
X136802Y-223928D02*
X134931D01*
Y-225602D01*
X136802D01*
Y-223928D01*
D02*
G37*
G36*
X133931D02*
X132059D01*
Y-225602D01*
X133931D01*
Y-223928D01*
D02*
G37*
G36*
X129573D02*
X127701D01*
Y-225602D01*
X129573D01*
Y-223928D01*
D02*
G37*
G36*
X126701D02*
X124829D01*
Y-225602D01*
X126701D01*
Y-223928D01*
D02*
G37*
G36*
X136802Y-226602D02*
X134931D01*
Y-228277D01*
X136802D01*
Y-226602D01*
D02*
G37*
G36*
X133931D02*
X132059D01*
Y-228277D01*
X133931D01*
Y-226602D01*
D02*
G37*
G36*
X129573D02*
X127701D01*
Y-228277D01*
X129573D01*
Y-226602D01*
D02*
G37*
G36*
X126701D02*
X124829D01*
Y-228277D01*
X126701D01*
Y-226602D01*
D02*
G37*
G36*
X44638Y-296596D02*
Y-296601D01*
X21508D01*
Y-296596D01*
X21472Y-296601D01*
X21018D01*
X20433Y-296717D01*
X19529Y-297092D01*
X19033Y-297423D01*
X18712Y-297743D01*
X18683Y-297766D01*
X18661Y-297795D01*
X18340Y-298115D01*
X18009Y-298611D01*
X17634Y-299516D01*
X17518Y-300101D01*
Y-300554D01*
X17513Y-300590D01*
X17518Y-300627D01*
Y-301080D01*
X17634Y-301665D01*
X18009Y-302570D01*
X18340Y-303066D01*
X18661Y-303386D01*
X18683Y-303415D01*
X18712Y-303438D01*
X19033Y-303758D01*
X19529Y-304090D01*
X20433Y-304464D01*
X21018Y-304581D01*
X21472D01*
X21508Y-304585D01*
Y-304581D01*
X44638D01*
Y-304585D01*
X44674Y-304581D01*
X45127D01*
X45713Y-304464D01*
X46617Y-304090D01*
X47113Y-303758D01*
X47433Y-303438D01*
X47462Y-303415D01*
X47485Y-303386D01*
X47805Y-303066D01*
X48137Y-302570D01*
X48511Y-301665D01*
X48628Y-301080D01*
Y-300627D01*
X48633Y-300590D01*
X48628Y-300554D01*
Y-300101D01*
X48511Y-299516D01*
X48137Y-298611D01*
X47805Y-298115D01*
X47485Y-297795D01*
X47462Y-297766D01*
X47433Y-297743D01*
X47113Y-297423D01*
X46617Y-297092D01*
X45713Y-296717D01*
X45127Y-296601D01*
X44674D01*
X44638Y-296596D01*
D02*
G37*
G36*
X33172Y-317504D02*
X32183D01*
X31227Y-317760D01*
X30371Y-318254D01*
X29672Y-318954D01*
X29177Y-319810D01*
X28921Y-320765D01*
Y-321754D01*
X29177Y-322710D01*
X29672Y-323566D01*
X30371Y-324265D01*
X31227Y-324760D01*
X32183Y-325016D01*
X33172D01*
X34127Y-324760D01*
X34983Y-324265D01*
X35683Y-323566D01*
X36177Y-322710D01*
X36433Y-321754D01*
Y-320765D01*
X36177Y-319810D01*
X35683Y-318954D01*
X34983Y-318254D01*
X34127Y-317760D01*
X33172Y-317504D01*
D02*
G37*
%LPD*%
D15*
X42126Y-264665D02*
D03*
Y-241634D02*
D03*
D16*
X111356Y-42126D02*
D03*
X111356Y-69685D02*
D03*
X190096Y-42126D02*
D03*
X190096Y-69685D02*
D03*
D17*
X127104Y-26378D02*
D03*
X127104Y-85433D02*
D03*
X174348Y-26378D02*
D03*
X174348Y-85433D02*
D03*
D18*
X113522Y-26378D02*
D03*
X113522Y-85433D02*
D03*
X187931Y-26378D02*
D03*
X187931Y-85433D02*
D03*
D19*
X111356Y-28543D02*
D03*
X111356Y-83268D02*
D03*
X190096Y-28543D02*
D03*
X190096Y-83268D02*
D03*
D20*
X155585Y-76768D02*
D03*
X149049Y-76807D02*
D03*
X136128Y-76768D02*
D03*
X142663Y-76728D02*
D03*
X173356Y-76768D02*
D03*
X166821Y-76807D02*
D03*
X160817Y-284146D02*
D03*
X167353Y-284106D02*
D03*
X160817Y-289646D02*
D03*
X167353Y-289606D02*
D03*
D21*
X150356Y-55768D02*
D03*
Y-60768D02*
D03*
Y-65768D02*
D03*
Y-70768D02*
D03*
X171711D02*
D03*
Y-65768D02*
D03*
Y-60768D02*
D03*
Y-55768D02*
D03*
D22*
X179856Y-76496D02*
D03*
X179817Y-69961D02*
D03*
X112702Y-220079D02*
D03*
Y-225590D02*
D03*
X148851Y-220079D02*
D03*
Y-225590D02*
D03*
X177770Y-220079D02*
D03*
Y-225590D02*
D03*
X170540Y-220079D02*
D03*
Y-225590D02*
D03*
X119932Y-220079D02*
D03*
Y-225590D02*
D03*
X141621Y-220079D02*
D03*
Y-225590D02*
D03*
X106299Y-138976D02*
D03*
Y-144488D02*
D03*
Y-128347D02*
D03*
Y-133858D02*
D03*
X106299Y-117717D02*
D03*
Y-123228D02*
D03*
X111850Y-102126D02*
D03*
X111811Y-95591D02*
D03*
X164555Y-105138D02*
D03*
X164594Y-111673D02*
D03*
X159055Y-105138D02*
D03*
X159095Y-111673D02*
D03*
X164469Y-124429D02*
D03*
X164508Y-130965D02*
D03*
X158968Y-124429D02*
D03*
X159008Y-130965D02*
D03*
X120552Y-130850D02*
D03*
X120513Y-124315D02*
D03*
X126071Y-130850D02*
D03*
X126031Y-124315D02*
D03*
X125839Y-105811D02*
D03*
X125878Y-112346D02*
D03*
X120339Y-105811D02*
D03*
X120378Y-112346D02*
D03*
X114567Y-124803D02*
D03*
Y-130315D02*
D03*
X185000Y-219567D02*
D03*
X185039Y-226102D02*
D03*
X105512D02*
D03*
X105472Y-219567D02*
D03*
X127201Y-226102D02*
D03*
X127162Y-219567D02*
D03*
X156120Y-226102D02*
D03*
X156081Y-219567D02*
D03*
X163311D02*
D03*
X163350Y-226102D02*
D03*
X134431D02*
D03*
X134391Y-219567D02*
D03*
X14293Y-258724D02*
D03*
X14332Y-265260D02*
D03*
X18959Y-258724D02*
D03*
X18999Y-265260D02*
D03*
X23665Y-259315D02*
D03*
Y-264827D02*
D03*
X9665D02*
D03*
Y-259315D02*
D03*
D23*
X164028Y-274606D02*
D03*
X166587D02*
D03*
X169147D02*
D03*
X171705D02*
D03*
X174265D02*
D03*
X176824D02*
D03*
X179383D02*
D03*
X181942D02*
D03*
X184501D02*
D03*
X187060D02*
D03*
Y-251575D02*
D03*
X184501D02*
D03*
X181942D02*
D03*
X179383D02*
D03*
X176824D02*
D03*
X174265D02*
D03*
X171705D02*
D03*
X169147D02*
D03*
X166587D02*
D03*
X164028D02*
D03*
D24*
X175544Y-263091D02*
D03*
D25*
X151083Y-107480D02*
D03*
Y-105512D02*
D03*
Y-103543D02*
D03*
Y-101575D02*
D03*
Y-99606D02*
D03*
X133957Y-107480D02*
D03*
Y-105512D02*
D03*
Y-103543D02*
D03*
Y-101575D02*
D03*
Y-99606D02*
D03*
X151083Y-126378D02*
D03*
Y-124409D02*
D03*
Y-122441D02*
D03*
Y-120472D02*
D03*
Y-118504D02*
D03*
X133957Y-126378D02*
D03*
Y-124409D02*
D03*
Y-122441D02*
D03*
Y-120472D02*
D03*
Y-118504D02*
D03*
D26*
X150835Y-145177D02*
D03*
Y-142618D02*
D03*
Y-140059D02*
D03*
Y-137500D02*
D03*
X133417D02*
D03*
Y-140059D02*
D03*
Y-142618D02*
D03*
Y-145177D02*
D03*
D27*
X142126Y-141339D02*
D03*
D28*
X32165Y-270004D02*
D03*
X35906Y-279059D02*
D03*
X28425D02*
D03*
D29*
X28665Y-259276D02*
D03*
Y-264787D02*
D03*
D30*
X13976Y-286024D02*
D03*
Y-293504D02*
D03*
X23031Y-289764D02*
D03*
D31*
X32977Y-286512D02*
G03*
X35906Y-279440I-7071J7071D01*
G01*
X28425Y-279059D02*
G03*
X30898Y-285031I8450J0D01*
G01*
X177856Y-57268D02*
G03*
X172856Y-52268I-5000J0D01*
G01*
X144356Y-59268D02*
G03*
X143149Y-58768I-1207J-1207D01*
G01*
X144356Y-59268D02*
G03*
X147978Y-60768I3621J3621D01*
G01*
X149049Y-76807D02*
G03*
X150356Y-73651I-3156J3156D01*
G01*
X173356Y-74741D02*
G03*
X171711Y-70768I-5619J0D01*
G01*
X175033Y-60768D02*
G03*
X177856Y-57945I0J2823D01*
G01*
X31351Y-262102D02*
G03*
X32677Y-258898I-3207J3204D01*
G01*
X13112Y-261577D02*
G03*
X14293Y-258724I-2855J2853D01*
G01*
X13110Y-261579D02*
G03*
X13112Y-261577I-2854J2854D01*
G01*
X31349Y-262104D02*
G03*
X31351Y-262102I-3206J3206D01*
G01*
X30898Y-285031D02*
G03*
X30900Y-285034I5977J5972D01*
G01*
X125835Y-124315D02*
X126031D01*
X120513D02*
X125835D01*
X126031D02*
X126228D01*
X128291Y-126378D02*
X133957D01*
X126228Y-124315D02*
X128291Y-126378D01*
X159012Y-121653D02*
X159055D01*
X158968D02*
X159012D01*
X158968Y-124429D02*
Y-121653D01*
X155905Y-122441D02*
X156074Y-122610D01*
X151083Y-122441D02*
X155905D01*
X156952Y-122610D02*
X158772Y-124429D01*
X158968D01*
X156074Y-122610D02*
X156952D01*
X125705Y-106071D02*
X126295D01*
X120339Y-105811D02*
X125839D01*
X126295Y-106071D02*
X127705Y-107480D01*
X133957D01*
X159055Y-105138D02*
X164555D01*
X158858D02*
X159055D01*
X151083Y-103543D02*
X157264D01*
X158858Y-105138D01*
X36220Y-232677D02*
X57874D01*
X84646Y-205906D01*
X33465Y-235433D02*
X36220Y-232677D01*
X33465Y-248819D02*
Y-235433D01*
X33571Y-256534D02*
Y-248925D01*
X32677Y-258898D02*
Y-257428D01*
X33571Y-256534D01*
X33465Y-248819D02*
X33571Y-248925D01*
X41732Y-254283D02*
Y-242028D01*
X42126Y-241634D01*
X32165Y-263850D02*
X41732Y-254283D01*
X32165Y-270004D02*
Y-263850D01*
X11470Y-278709D02*
Y-266434D01*
X10819Y-282152D02*
X11811Y-281160D01*
X11425Y-279882D02*
Y-278709D01*
X12529Y-289104D02*
X13976Y-290551D01*
X11811Y-281160D02*
Y-279882D01*
X13976Y-293504D02*
Y-290551D01*
X12266Y-289104D02*
X12529D01*
X10819Y-287656D02*
X12266Y-289104D01*
X10819Y-287656D02*
Y-282152D01*
X9665Y-264827D02*
X9862D01*
X11470Y-279541D02*
X11811Y-279882D01*
X11470Y-279541D02*
Y-278709D01*
X9862Y-264827D02*
X11470Y-266434D01*
X23469Y-276197D02*
Y-264827D01*
X20472Y-279882D02*
Y-279193D01*
X23469Y-276197D01*
X14862Y-286024D02*
X20472Y-280413D01*
Y-279882D01*
X13976Y-286024D02*
X14862D01*
X32677Y-286811D02*
X32977Y-286512D01*
X28392Y-289764D02*
X31345Y-286811D01*
X32677D01*
X23031Y-289764D02*
X28392D01*
X117647Y-106795D02*
X119354D01*
X116962Y-107480D02*
X117647Y-106795D01*
X119354D02*
X120339Y-105811D01*
X116535Y-107480D02*
X116962D01*
X123530Y-122010D02*
X125835Y-124315D01*
X123530Y-122010D02*
Y-121561D01*
X123228Y-121260D02*
X123530Y-121561D01*
X114567Y-121653D02*
X117717Y-118504D01*
X125984D01*
X129921Y-122441D01*
X159055Y-105138D02*
Y-101969D01*
X139002Y-105118D02*
X145276D01*
X154787Y-40175D02*
X170264D01*
X180325Y-50236D01*
X167856Y-51768D02*
X171856D01*
X164356D02*
X167856D01*
X160356D02*
X164356D01*
X156856D02*
X160356D01*
X153356D02*
X156856D01*
X149356D02*
X153356D01*
X145356D02*
X149356D01*
X142720D02*
X145356D01*
X141339Y-53150D02*
X142720Y-51768D01*
X138091Y-103437D02*
X141839D01*
X142913Y-102362D01*
Y-98440D01*
X139844Y-95371D02*
X142913Y-98440D01*
X91339Y-142520D02*
Y-115748D01*
X98819D01*
X103150Y-111417D02*
Y-102362D01*
X98819Y-115748D02*
X103150Y-111417D01*
Y-102362D02*
X108937Y-96575D01*
X110827D02*
X111811Y-95591D01*
X108937Y-96575D02*
X110827D01*
X110236Y-98819D02*
X118110D01*
X106299Y-102756D02*
X110236Y-98819D01*
X106299Y-117717D02*
Y-102756D01*
X112284Y-96063D02*
X125591D01*
X111811Y-95591D02*
X112284Y-96063D01*
X125591D02*
X128347Y-93307D01*
X140157D01*
X129432Y-95371D02*
X139844D01*
X144882Y-104724D02*
Y-98032D01*
X140157Y-93307D02*
X144882Y-98032D01*
X139764Y-100394D02*
Y-98330D01*
X130315Y-97638D02*
X139072D01*
X139764Y-98330D01*
X118110Y-98819D02*
X118898Y-98032D01*
X126772D01*
X129432Y-95371D01*
X138583Y-101575D02*
X139764Y-100394D01*
X133957Y-101575D02*
X138583D01*
X111850Y-102126D02*
X115575D01*
X116914Y-100787D01*
X127165D01*
X130315Y-97638D01*
X165856Y-57268D02*
X167356Y-55768D01*
X165856Y-64268D02*
Y-57268D01*
X159356Y-60768D02*
X164175D01*
X150356D02*
X164175D01*
X150356D02*
X155356D01*
X165856Y-64268D02*
X167356Y-65768D01*
X176278D02*
X180325Y-61721D01*
X130185Y-55597D02*
X150185D01*
X180325Y-61721D02*
Y-50236D01*
X167356Y-55768D02*
X171711D01*
X167356Y-65768D02*
X171711D01*
Y-60768D02*
X175033D01*
X142853Y-76807D02*
X149049D01*
X150356Y-73651D02*
Y-70768D01*
X171711D02*
X172667D01*
X173356Y-71457D01*
Y-74741D02*
Y-71457D01*
Y-76768D02*
X173628Y-76496D01*
X173356Y-76768D02*
Y-74741D01*
X150185Y-55597D02*
X150356Y-55768D01*
X171711Y-65768D02*
X176278D01*
X173628Y-76496D02*
X179856D01*
X114173Y-134646D02*
X114567Y-134252D01*
X113779Y-135039D02*
X114173Y-134646D01*
X114567Y-134252D02*
Y-130315D01*
X139338Y-120866D02*
X139764D01*
X133957Y-120472D02*
X138944D01*
X139338Y-120866D01*
X146850Y-150394D02*
Y-140157D01*
X133957Y-103543D02*
X137985D01*
X138091Y-103437D01*
X145276Y-106670D02*
Y-105118D01*
X146086Y-107480D02*
X147072D01*
X143061D02*
X146086D01*
X147072D02*
X151083D01*
X145276Y-106670D02*
X146086Y-107480D01*
X127953Y-102756D02*
X129028Y-103831D01*
X117323Y-102756D02*
X127953D01*
X110630Y-109449D02*
X117323Y-102756D01*
X110630Y-110928D02*
Y-109449D01*
Y-117717D02*
Y-110928D01*
X91339Y-142520D02*
X94095Y-145276D01*
X100394D01*
X103937Y-141732D01*
X109055D02*
X110630Y-140157D01*
X103937Y-141732D02*
X109055D01*
X110630Y-140157D02*
Y-117717D01*
X111811Y-116535D01*
X129134D01*
X130315Y-115354D01*
X135187D01*
X143061Y-107480D01*
X132677Y-131890D02*
X145443D01*
X125591Y-138976D02*
X132677Y-131890D01*
X142126Y-135207D02*
X145443Y-131890D01*
X148524Y-128809D01*
X125591Y-144488D02*
Y-138976D01*
X137402Y-150787D02*
Y-142692D01*
X164181Y-105512D02*
X164555Y-105138D01*
X126279Y-145177D02*
X133417D01*
X106299Y-144488D02*
X125591D01*
X142126Y-141339D02*
Y-135207D01*
X148524Y-128809D02*
Y-126378D01*
X151083D01*
X158968Y-124429D02*
X158988Y-124409D01*
X164449D01*
X164469Y-124429D01*
X129921Y-122441D02*
X133957D01*
X114567Y-124803D02*
Y-121653D01*
X120513Y-124315D02*
X120607Y-124409D01*
X125705Y-106071D02*
X125839Y-106205D01*
X146850Y-140157D02*
Y-138192D01*
X146949Y-140059D02*
X150835D01*
X146850Y-140157D02*
X146949Y-140059D01*
X146850Y-138192D02*
X147247Y-137795D01*
X150539D02*
X150835Y-137500D01*
X147247Y-137795D02*
X150539D01*
X133417Y-140059D02*
X133713Y-140354D01*
X137350D01*
X137402Y-140406D01*
Y-142692D02*
Y-140406D01*
X133417Y-142618D02*
X137328D01*
X137402Y-142692D01*
X9862Y-264827D02*
X13110Y-261579D01*
X18959Y-258724D02*
X19156D01*
X20140Y-261007D02*
X22484Y-263350D01*
Y-263843D02*
X23469Y-264827D01*
X28425Y-279059D02*
Y-264787D01*
X28665D02*
X31349Y-262104D01*
X32756Y-269413D02*
Y-267043D01*
X35906Y-279440D02*
Y-279059D01*
X30900Y-285034D02*
X32677Y-286811D01*
X32559Y-269610D02*
X32756Y-269413D01*
X22484Y-263843D02*
Y-263350D01*
X19156Y-258724D02*
X20140Y-259709D01*
Y-261007D02*
Y-259709D01*
D53*
X56488Y-264961D02*
G03*
X63559Y-262032I0J10000D01*
G01*
X9665Y-254508D02*
X10630Y-253543D01*
X9665Y-259315D02*
Y-254508D01*
X24016Y-258964D02*
Y-255906D01*
X23665Y-259315D02*
X24016Y-258964D01*
X153425Y-375827D02*
Y-374761D01*
X63559Y-262032D02*
X65748Y-259842D01*
X38583Y-264961D02*
X56488D01*
X142853Y-77115D02*
Y-76807D01*
Y-77115D02*
X145507Y-79769D01*
Y-80529D02*
X145884Y-80905D01*
X145507Y-80529D02*
Y-79769D01*
X179602Y-81144D02*
Y-76750D01*
X179349Y-81398D02*
X179602Y-81144D01*
Y-76750D02*
X179856Y-76496D01*
X9665Y-259315D02*
X9862D01*
X10453Y-258724D01*
X23698Y-259315D02*
X24289Y-258724D01*
X23665Y-259315D02*
X23698D01*
D54*
X61516Y-241634D02*
X88976Y-214173D01*
X42126Y-241634D02*
X61516D01*
X166929Y-241339D02*
X169147Y-243556D01*
Y-251575D02*
Y-243556D01*
X166587Y-251575D02*
Y-245056D01*
X161417Y-239886D02*
X166587Y-245056D01*
X126500Y-239886D02*
X161417D01*
X123457Y-241961D02*
X159631D01*
X164028Y-251575D02*
Y-246358D01*
X159631Y-241961D02*
X164028Y-246358D01*
X112598Y-231102D02*
Y-225694D01*
X112702Y-225590D01*
X112598Y-231102D02*
X123457Y-241961D01*
X119932Y-233318D02*
Y-225590D01*
Y-233318D02*
X126500Y-239886D01*
X149622Y-237811D02*
X167339D01*
X171705Y-251575D02*
Y-242178D01*
X167339Y-237811D02*
X171705Y-242178D01*
X152665Y-235736D02*
X168807D01*
X174265Y-251575D02*
Y-241194D01*
X168807Y-235736D02*
X174265Y-241194D01*
X173622Y-234646D02*
X176824Y-237847D01*
Y-251575D02*
Y-237847D01*
X142126Y-230315D02*
Y-226095D01*
X141621Y-225590D02*
X142126Y-226095D01*
Y-230315D02*
X149622Y-237811D01*
X148819Y-231890D02*
X152665Y-235736D01*
X148819Y-231890D02*
Y-225623D01*
X170737Y-225590D02*
X179383Y-234236D01*
X170540Y-225590D02*
X170737D01*
X179383Y-251575D02*
Y-234236D01*
X177770Y-225590D02*
X177967D01*
X177573D02*
X177770D01*
X181942Y-251575D02*
Y-229565D01*
X177967Y-225590D02*
X181942Y-229565D01*
X169147Y-320106D02*
Y-274606D01*
X113425Y-375827D02*
X169147Y-320106D01*
X133425Y-375827D02*
X174265Y-334987D01*
X123425Y-375827D02*
X171705Y-327546D01*
X174265Y-334987D02*
Y-274606D01*
X171705Y-327546D02*
Y-274606D01*
X143425Y-375827D02*
X176824Y-342428D01*
Y-274606D01*
X179383Y-349869D02*
Y-274606D01*
X153425Y-375827D02*
X179383Y-349869D01*
X163425Y-375827D02*
X181942Y-357310D01*
Y-274606D01*
X166686Y-283243D02*
X167353Y-283910D01*
X164028Y-280585D02*
X166686Y-283243D01*
Y-274705D01*
X164028Y-280585D02*
Y-274606D01*
X167353Y-284106D02*
Y-283910D01*
X166587Y-274606D02*
X166686Y-274705D01*
X126279Y-145177D02*
X127953Y-146850D01*
X125591Y-144488D02*
X126279Y-145177D01*
X127953Y-184535D02*
Y-146850D01*
X122807Y-189681D02*
X127953Y-184535D01*
X92638Y-158937D02*
X103937Y-147638D01*
X113779D01*
X92638Y-375039D02*
X93425Y-375827D01*
X92638Y-375039D02*
Y-158937D01*
X134153Y-137500D02*
X134252Y-137402D01*
X133417Y-137500D02*
X134153D01*
X134252Y-137402D02*
Y-134646D01*
X120472Y-135039D02*
X120552Y-134959D01*
Y-130850D01*
X126071D02*
X128992D01*
X120552D02*
X126071D01*
X128992D02*
X130315Y-129528D01*
X164508Y-130965D02*
X168760D01*
X168898Y-131102D01*
X159008Y-130965D02*
X164508D01*
X154469D02*
X159008D01*
X154331Y-131102D02*
X154469Y-130965D01*
X154862Y-111673D02*
X159095D01*
X154724Y-111811D02*
X154862Y-111673D01*
X164594D02*
X168366D01*
X168504Y-111811D01*
X159095Y-111673D02*
X164594D01*
X129386Y-112346D02*
X129528Y-112205D01*
X125878Y-112346D02*
X129386D01*
X116142D02*
X120378D01*
X116142D02*
Y-112205D01*
X120378Y-112346D02*
X125878D01*
X148819Y-225623D02*
X148851Y-225590D01*
X111718Y-219291D02*
Y-168592D01*
X102807Y-159681D02*
X111718Y-168592D01*
X113793Y-213939D02*
X118948Y-219094D01*
X113793Y-168695D02*
X122807Y-159681D01*
X113793Y-213939D02*
Y-168695D01*
X112505Y-220079D02*
X112702D01*
X118948Y-219291D02*
X119735Y-220079D01*
X119932D01*
X118948Y-219291D02*
Y-219094D01*
X111718Y-219291D02*
X112505Y-220079D01*
X135405Y-159681D02*
X137216Y-161492D01*
X137476D01*
X143701Y-218196D02*
Y-167717D01*
X133807Y-159681D02*
X135405D01*
X137476Y-161492D02*
X143701Y-167717D01*
X141818Y-220079D02*
X143701Y-218196D01*
X141621Y-220079D02*
X141818D01*
X147867Y-219291D02*
Y-219094D01*
X146063Y-217291D02*
Y-167425D01*
X153807Y-159681D01*
X148654Y-220079D02*
X148851D01*
X147867Y-219291D02*
X148654Y-220079D01*
X146063Y-217291D02*
X147867Y-219094D01*
X175197Y-167717D02*
X183232Y-159681D01*
X175197Y-217506D02*
Y-167717D01*
X183232Y-159681D02*
X184807D01*
X164807D02*
X172835Y-167709D01*
X171912Y-219291D02*
X172835Y-218369D01*
X170540Y-220079D02*
X171328Y-219291D01*
X171912D01*
X172835Y-218369D02*
Y-167709D01*
X176786Y-219291D02*
X177573Y-220079D01*
X177770D01*
X176786Y-219291D02*
Y-219094D01*
X175197Y-217506D02*
X176786Y-219094D01*
X97862Y-139465D02*
X98106Y-139220D01*
X106055D02*
X106299Y-138976D01*
X98106Y-139220D02*
X106055D01*
X106299Y-138976D02*
Y-133858D01*
X106299Y-128347D02*
Y-123228D01*
Y-128347D02*
X106299Y-128347D01*
X106299Y-123228D02*
X106299Y-123228D01*
X98055Y-122909D02*
X105980D01*
X97736Y-122591D02*
X98055Y-122909D01*
X105980D02*
X106299Y-123228D01*
X150835Y-145177D02*
Y-142618D01*
D55*
X105472Y-219567D02*
Y-213518D01*
X102807Y-210853D02*
X105472Y-213518D01*
X102807Y-210853D02*
Y-209681D01*
X127162Y-219567D02*
Y-214036D01*
X122807Y-209681D02*
X127162Y-214036D01*
X134195Y-219567D02*
Y-210069D01*
Y-219567D02*
X134391D01*
X133807Y-209681D02*
X134195Y-210069D01*
X153807Y-210853D02*
X156081Y-213127D01*
Y-219567D02*
Y-213127D01*
X153807Y-210853D02*
Y-209681D01*
X163311Y-219567D02*
Y-212350D01*
X164807Y-210853D01*
Y-209681D01*
X184904Y-219567D02*
Y-209777D01*
X184807Y-209681D02*
X184904Y-209777D01*
Y-219567D02*
X185000D01*
D56*
X11024Y-309882D02*
D03*
Y-279882D02*
D03*
X20472D02*
D03*
Y-309882D02*
D03*
X65748Y-318898D02*
D03*
Y-259842D02*
D03*
X173425Y-385827D02*
D03*
X163425D02*
D03*
X153425D02*
D03*
X143425D02*
D03*
X133425D02*
D03*
X123425D02*
D03*
X113425D02*
D03*
X103425D02*
D03*
Y-375827D02*
D03*
X123425D02*
D03*
X133425D02*
D03*
X143425D02*
D03*
X183425D02*
D03*
X173425D02*
D03*
X163425D02*
D03*
X153425D02*
D03*
X113425D02*
D03*
X93425Y-385827D02*
D03*
Y-375827D02*
D03*
X83425Y-385827D02*
D03*
Y-375827D02*
D03*
X73425Y-385827D02*
D03*
Y-375827D02*
D03*
X63425Y-385827D02*
D03*
Y-375827D02*
D03*
X53425Y-385827D02*
D03*
Y-375827D02*
D03*
X43425Y-385827D02*
D03*
Y-375827D02*
D03*
X33425Y-385827D02*
D03*
Y-375827D02*
D03*
X23425Y-385827D02*
D03*
Y-375827D02*
D03*
X13425Y-385827D02*
D03*
Y-375827D02*
D03*
Y-7874D02*
D03*
Y-17874D02*
D03*
X23425Y-7874D02*
D03*
Y-17874D02*
D03*
X33425Y-7874D02*
D03*
Y-17874D02*
D03*
X43425Y-7874D02*
D03*
Y-17874D02*
D03*
X53425Y-7874D02*
D03*
Y-17874D02*
D03*
X63425Y-7874D02*
D03*
Y-17874D02*
D03*
X73425Y-7874D02*
D03*
Y-17874D02*
D03*
X83425Y-7874D02*
D03*
Y-17874D02*
D03*
X93425Y-7874D02*
D03*
Y-17874D02*
D03*
X103425Y-7874D02*
D03*
Y-17874D02*
D03*
X113425Y-7874D02*
D03*
Y-17874D02*
D03*
X123425Y-7874D02*
D03*
Y-17874D02*
D03*
X133425Y-7874D02*
D03*
Y-17874D02*
D03*
X143425Y-7874D02*
D03*
Y-17874D02*
D03*
X153425Y-7874D02*
D03*
Y-17874D02*
D03*
X163425Y-7874D02*
D03*
Y-17874D02*
D03*
X173425Y-7874D02*
D03*
Y-17874D02*
D03*
X183425Y-7874D02*
D03*
D57*
X27677Y-326260D02*
D03*
Y-316260D02*
D03*
X37677D02*
D03*
Y-326260D02*
D03*
X32677Y-321260D02*
D03*
X159787Y-45175D02*
D03*
Y-35175D02*
D03*
X149787D02*
D03*
Y-45175D02*
D03*
X154787Y-40175D02*
D03*
X127284Y-60905D02*
D03*
X137284D02*
D03*
Y-50906D02*
D03*
X127284D02*
D03*
X132283Y-55905D02*
D03*
D58*
X153807Y-209681D02*
D03*
Y-189681D02*
D03*
Y-179681D02*
D03*
Y-169681D02*
D03*
Y-159681D02*
D03*
X133807D02*
D03*
Y-179681D02*
D03*
Y-209681D02*
D03*
Y-189681D02*
D03*
Y-169681D02*
D03*
X164807Y-209681D02*
D03*
Y-189681D02*
D03*
Y-179681D02*
D03*
Y-169681D02*
D03*
Y-159681D02*
D03*
X184807D02*
D03*
Y-169681D02*
D03*
Y-179681D02*
D03*
Y-189681D02*
D03*
Y-209681D02*
D03*
X102807D02*
D03*
Y-189681D02*
D03*
Y-179681D02*
D03*
Y-169681D02*
D03*
Y-159681D02*
D03*
X122807D02*
D03*
Y-169681D02*
D03*
Y-179681D02*
D03*
Y-189681D02*
D03*
Y-209681D02*
D03*
D59*
X97736Y-122591D02*
D03*
Y-34008D02*
D03*
X97862Y-228047D02*
D03*
Y-139465D02*
D03*
D60*
X183425Y-385827D02*
D03*
Y-17874D02*
D03*
D61*
X185827Y-246063D02*
D03*
X166929Y-241339D02*
D03*
X173622Y-234646D02*
D03*
X160630Y-295276D02*
D03*
X19291Y-293307D02*
D03*
X19685Y-269291D02*
D03*
X14173Y-270079D02*
D03*
X185827Y-281496D02*
D03*
X155512Y-287008D02*
D03*
X159055Y-278740D02*
D03*
X175044Y-263591D02*
D03*
X168898Y-267323D02*
D03*
X182283D02*
D03*
Y-259055D02*
D03*
X168504D02*
D03*
X184646Y-233858D02*
D03*
X162598Y-233071D02*
D03*
X155905D02*
D03*
X134646Y-231890D02*
D03*
X127165D02*
D03*
X105905Y-231102D02*
D03*
X88976Y-214173D02*
D03*
X72835Y-251575D02*
D03*
X10630Y-253543D02*
D03*
X24016Y-255906D02*
D03*
X113779Y-147638D02*
D03*
X116535Y-107480D02*
D03*
X123228Y-121260D02*
D03*
X159012Y-121653D02*
D03*
X159055Y-101969D02*
D03*
X31102Y-255512D02*
D03*
X84646Y-205906D02*
D03*
X183071Y-65354D02*
D03*
X166535Y-81890D02*
D03*
X161417Y-77165D02*
D03*
X155512Y-81890D02*
D03*
X157087Y-71260D02*
D03*
X136221Y-81496D02*
D03*
X130709Y-76772D02*
D03*
X136221Y-72047D02*
D03*
X141651Y-58147D02*
D03*
X145276Y-60236D02*
D03*
X139764Y-100394D02*
D03*
X114173Y-134646D02*
D03*
X139764Y-120866D02*
D03*
X146850Y-150394D02*
D03*
X137402Y-150787D02*
D03*
X144882Y-104724D02*
D03*
X134252Y-134646D02*
D03*
X120552Y-134959D02*
D03*
X130315Y-129528D02*
D03*
X154400Y-131034D02*
D03*
X168760Y-130965D02*
D03*
X154793Y-111742D02*
D03*
X168366Y-111673D02*
D03*
X129528Y-112205D02*
D03*
X116142Y-112346D02*
D03*
X160356Y-51768D02*
D03*
X156856D02*
D03*
X153356D02*
D03*
X149356D02*
D03*
X145356D02*
D03*
X163356Y-60768D02*
D03*
X164356Y-51768D02*
D03*
X177856Y-56268D02*
D03*
X177356Y-60268D02*
D03*
X175856Y-52768D02*
D03*
X171856Y-51768D02*
D03*
X167856D02*
D03*
D62*
X145884Y-80905D02*
D03*
X179349Y-81398D02*
D03*
D63*
X32677Y-286811D02*
D03*
M02*
