G04*
G04 #@! TF.GenerationSoftware,Altium Limited,Altium Designer,22.4.2 (48)*
G04*
G04 Layer_Physical_Order=1*
G04 Layer_Color=255*
%FSLAX25Y25*%
%MOIN*%
G70*
G04*
G04 #@! TF.SameCoordinates,458C2FD2-8C51-46BC-9C2C-7D212ABF5546*
G04*
G04*
G04 #@! TF.FilePolarity,Positive*
G04*
G01*
G75*
%ADD15R,0.07087X0.04528*%
%ADD16R,0.04528X0.07087*%
%ADD33C,0.07874*%
%ADD34C,0.05906*%
%ADD35C,0.03937*%
%ADD36C,0.11811*%
G04:AMPARAMS|DCode=37|XSize=78.74mil|YSize=78.74mil|CornerRadius=19.68mil|HoleSize=0mil|Usage=FLASHONLY|Rotation=180.000|XOffset=0mil|YOffset=0mil|HoleType=Round|Shape=RoundedRectangle|*
%AMROUNDEDRECTD37*
21,1,0.07874,0.03937,0,0,180.0*
21,1,0.03937,0.07874,0,0,180.0*
1,1,0.03937,-0.01968,0.01968*
1,1,0.03937,0.01968,0.01968*
1,1,0.03937,0.01968,-0.01968*
1,1,0.03937,-0.01968,-0.01968*
%
%ADD37ROUNDEDRECTD37*%
%ADD38C,0.18898*%
%ADD39C,0.06653*%
%ADD40R,0.06653X0.06653*%
G04:AMPARAMS|DCode=41|XSize=118.11mil|YSize=118.11mil|CornerRadius=29.53mil|HoleSize=0mil|Usage=FLASHONLY|Rotation=0.000|XOffset=0mil|YOffset=0mil|HoleType=Round|Shape=RoundedRectangle|*
%AMROUNDEDRECTD41*
21,1,0.11811,0.05906,0,0,0.0*
21,1,0.05906,0.11811,0,0,0.0*
1,1,0.05906,0.02953,-0.02953*
1,1,0.05906,-0.02953,-0.02953*
1,1,0.05906,-0.02953,0.02953*
1,1,0.05906,0.02953,0.02953*
%
%ADD41ROUNDEDRECTD41*%
%ADD42C,0.07087*%
%ADD43R,0.07087X0.07087*%
G04:AMPARAMS|DCode=44|XSize=98.43mil|YSize=98.43mil|CornerRadius=24.61mil|HoleSize=0mil|Usage=FLASHONLY|Rotation=180.000|XOffset=0mil|YOffset=0mil|HoleType=Round|Shape=RoundedRectangle|*
%AMROUNDEDRECTD44*
21,1,0.09843,0.04921,0,0,180.0*
21,1,0.04921,0.09843,0,0,180.0*
1,1,0.04921,-0.02461,0.02461*
1,1,0.04921,0.02461,0.02461*
1,1,0.04921,0.02461,-0.02461*
1,1,0.04921,-0.02461,-0.02461*
%
%ADD44ROUNDEDRECTD44*%
%ADD45C,0.09843*%
G04:AMPARAMS|DCode=46|XSize=98.43mil|YSize=98.43mil|CornerRadius=24.61mil|HoleSize=0mil|Usage=FLASHONLY|Rotation=90.000|XOffset=0mil|YOffset=0mil|HoleType=Round|Shape=RoundedRectangle|*
%AMROUNDEDRECTD46*
21,1,0.09843,0.04921,0,0,90.0*
21,1,0.04921,0.09843,0,0,90.0*
1,1,0.04921,0.02461,0.02461*
1,1,0.04921,0.02461,-0.02461*
1,1,0.04921,-0.02461,-0.02461*
1,1,0.04921,-0.02461,0.02461*
%
%ADD46ROUNDEDRECTD46*%
G04:AMPARAMS|DCode=47|XSize=78.74mil|YSize=78.74mil|CornerRadius=19.68mil|HoleSize=0mil|Usage=FLASHONLY|Rotation=90.000|XOffset=0mil|YOffset=0mil|HoleType=Round|Shape=RoundedRectangle|*
%AMROUNDEDRECTD47*
21,1,0.07874,0.03937,0,0,90.0*
21,1,0.03937,0.07874,0,0,90.0*
1,1,0.03937,0.01968,0.01968*
1,1,0.03937,0.01968,-0.01968*
1,1,0.03937,-0.01968,-0.01968*
1,1,0.03937,-0.01968,0.01968*
%
%ADD47ROUNDEDRECTD47*%
%ADD48C,0.06693*%
G04:AMPARAMS|DCode=49|XSize=70.87mil|YSize=70.87mil|CornerRadius=17.72mil|HoleSize=0mil|Usage=FLASHONLY|Rotation=180.000|XOffset=0mil|YOffset=0mil|HoleType=Round|Shape=RoundedRectangle|*
%AMROUNDEDRECTD49*
21,1,0.07087,0.03543,0,0,180.0*
21,1,0.03543,0.07087,0,0,180.0*
1,1,0.03543,-0.01772,0.01772*
1,1,0.03543,0.01772,0.01772*
1,1,0.03543,0.01772,-0.01772*
1,1,0.03543,-0.01772,-0.01772*
%
%ADD49ROUNDEDRECTD49*%
%ADD50C,0.07874*%
G36*
X148980Y190621D02*
X148480Y190487D01*
X148199Y190976D01*
X147393Y191781D01*
X146406Y192351D01*
X145306Y192646D01*
X145236D01*
Y188319D01*
Y183992D01*
X145306D01*
X146406Y184287D01*
X147393Y184857D01*
X148199Y185662D01*
X148480Y186150D01*
X148980Y186016D01*
Y138500D01*
X149058Y138110D01*
X149279Y137779D01*
X171096Y115962D01*
X170905Y115500D01*
X137000D01*
X117500Y135000D01*
Y194000D01*
X118000Y194500D01*
X148980D01*
Y190621D01*
D02*
G37*
G36*
X183500Y191000D02*
Y170000D01*
X186000Y167500D01*
Y115500D01*
X173000D01*
X150000Y138500D01*
Y194500D01*
X180000D01*
X183500Y191000D01*
D02*
G37*
%LPC*%
G36*
X123495Y192646D02*
X123425D01*
Y188819D01*
X127252D01*
Y188889D01*
X126957Y189989D01*
X126388Y190976D01*
X125582Y191781D01*
X124595Y192351D01*
X123495Y192646D01*
D02*
G37*
G36*
X122425D02*
X122356D01*
X121255Y192351D01*
X120268Y191781D01*
X119463Y190976D01*
X118893Y189989D01*
X118598Y188889D01*
Y188819D01*
X122425D01*
Y192646D01*
D02*
G37*
G36*
X134400D02*
X134331D01*
Y188819D01*
X138157D01*
Y188889D01*
X137863Y189989D01*
X137293Y190976D01*
X136487Y191781D01*
X135501Y192351D01*
X134400Y192646D01*
D02*
G37*
G36*
X144236D02*
X144167D01*
X143066Y192351D01*
X142080Y191781D01*
X141274Y190976D01*
X140704Y189989D01*
X140410Y188889D01*
Y188819D01*
X144236D01*
Y192646D01*
D02*
G37*
G36*
X133331D02*
X133261D01*
X132161Y192351D01*
X131174Y191781D01*
X130368Y190976D01*
X129799Y189989D01*
X129504Y188889D01*
Y188819D01*
X133331D01*
Y192646D01*
D02*
G37*
G36*
X144236Y187819D02*
X140410D01*
Y187749D01*
X140704Y186649D01*
X141274Y185662D01*
X142080Y184857D01*
X143066Y184287D01*
X144167Y183992D01*
X144236D01*
Y187819D01*
D02*
G37*
G36*
X138157D02*
X134331D01*
Y183992D01*
X134400D01*
X135501Y184287D01*
X136487Y184857D01*
X137293Y185662D01*
X137863Y186649D01*
X138157Y187749D01*
Y187819D01*
D02*
G37*
G36*
X133331D02*
X129504D01*
Y187749D01*
X129799Y186649D01*
X130368Y185662D01*
X131174Y184857D01*
X132161Y184287D01*
X133261Y183992D01*
X133331D01*
Y187819D01*
D02*
G37*
G36*
X127252Y187819D02*
X123425D01*
Y183992D01*
X123495D01*
X124595Y184287D01*
X125582Y184857D01*
X126388Y185662D01*
X126957Y186649D01*
X127252Y187749D01*
Y187819D01*
D02*
G37*
G36*
X122425D02*
X118598D01*
Y187749D01*
X118893Y186649D01*
X119463Y185662D01*
X120268Y184857D01*
X121255Y184287D01*
X122356Y183992D01*
X122425D01*
Y187819D01*
D02*
G37*
G36*
X146055Y169043D02*
X143291D01*
Y165000D01*
X146055D01*
Y169043D01*
D02*
G37*
G36*
X142291D02*
X139528D01*
Y165000D01*
X142291D01*
Y169043D01*
D02*
G37*
G36*
X146055Y164000D02*
X143291D01*
Y159957D01*
X146055D01*
Y164000D01*
D02*
G37*
G36*
X142291D02*
X139528D01*
Y159957D01*
X142291D01*
Y164000D01*
D02*
G37*
G36*
X150071Y126043D02*
X149972D01*
Y122000D01*
X154016D01*
Y122098D01*
X153706Y123254D01*
X153108Y124290D01*
X152262Y125136D01*
X151226Y125734D01*
X150071Y126043D01*
D02*
G37*
G36*
X148972D02*
X148874D01*
X147719Y125734D01*
X146683Y125136D01*
X145837Y124290D01*
X145239Y123254D01*
X144929Y122098D01*
Y122000D01*
X148972D01*
Y126043D01*
D02*
G37*
G36*
X154016Y121000D02*
X149972D01*
Y116957D01*
X150071D01*
X151226Y117266D01*
X152262Y117865D01*
X153108Y118710D01*
X153706Y119746D01*
X154016Y120902D01*
Y121000D01*
D02*
G37*
G36*
X148972D02*
X144929D01*
Y120902D01*
X145239Y119746D01*
X145837Y118710D01*
X146683Y117865D01*
X147719Y117266D01*
X148874Y116957D01*
X148972D01*
Y121000D01*
D02*
G37*
G36*
X167117Y192646D02*
X167047D01*
Y188819D01*
X170874D01*
Y188889D01*
X170579Y189989D01*
X170010Y190976D01*
X169204Y191781D01*
X168217Y192351D01*
X167117Y192646D01*
D02*
G37*
G36*
X166047D02*
X165978D01*
X164877Y192351D01*
X163891Y191781D01*
X163085Y190976D01*
X162515Y189989D01*
X162221Y188889D01*
Y188819D01*
X166047D01*
Y192646D01*
D02*
G37*
G36*
X156211D02*
X156142D01*
Y188819D01*
X159969D01*
Y188889D01*
X159674Y189989D01*
X159104Y190976D01*
X158299Y191781D01*
X157312Y192351D01*
X156211Y192646D01*
D02*
G37*
G36*
X155142D02*
X155072D01*
X153972Y192351D01*
X152985Y191781D01*
X152180Y190976D01*
X151610Y189989D01*
X151315Y188889D01*
Y188819D01*
X155142D01*
Y192646D01*
D02*
G37*
G36*
X178022Y192646D02*
X177953D01*
Y188819D01*
X181780D01*
Y188889D01*
X181485Y189989D01*
X180915Y190976D01*
X180110Y191781D01*
X179123Y192351D01*
X178022Y192646D01*
D02*
G37*
G36*
X176953D02*
X176883D01*
X175783Y192351D01*
X174796Y191781D01*
X173990Y190976D01*
X173421Y189989D01*
X173126Y188889D01*
Y188819D01*
X176953D01*
Y192646D01*
D02*
G37*
G36*
X170874Y187819D02*
X167047D01*
Y183992D01*
X167117D01*
X168217Y184287D01*
X169204Y184857D01*
X170010Y185662D01*
X170579Y186649D01*
X170874Y187749D01*
Y187819D01*
D02*
G37*
G36*
X166047D02*
X162221D01*
Y187749D01*
X162515Y186649D01*
X163085Y185662D01*
X163891Y184857D01*
X164877Y184287D01*
X165978Y183992D01*
X166047D01*
Y187819D01*
D02*
G37*
G36*
X159969Y187819D02*
X156142D01*
Y183992D01*
X156211D01*
X157312Y184287D01*
X158299Y184857D01*
X159104Y185662D01*
X159674Y186649D01*
X159969Y187749D01*
Y187819D01*
D02*
G37*
G36*
X155142D02*
X151315D01*
Y187749D01*
X151610Y186649D01*
X152180Y185662D01*
X152985Y184857D01*
X153972Y184287D01*
X155072Y183992D01*
X155142D01*
Y187819D01*
D02*
G37*
G36*
X181780Y187819D02*
X177953D01*
Y183992D01*
X178022D01*
X179123Y184287D01*
X180110Y184857D01*
X180915Y185662D01*
X181485Y186649D01*
X181780Y187749D01*
Y187819D01*
D02*
G37*
G36*
X176953D02*
X173126D01*
Y187749D01*
X173421Y186649D01*
X173990Y185662D01*
X174796Y184857D01*
X175783Y184287D01*
X176883Y183992D01*
X176953D01*
Y187819D01*
D02*
G37*
G36*
X157472Y169043D02*
X154709D01*
Y165000D01*
X157472D01*
Y169043D01*
D02*
G37*
G36*
X153709D02*
X150945D01*
Y165000D01*
X153709D01*
Y169043D01*
D02*
G37*
G36*
X157472Y164000D02*
X154709D01*
Y159957D01*
X157472D01*
Y164000D01*
D02*
G37*
G36*
X153709D02*
X150945D01*
Y159957D01*
X153709D01*
Y164000D01*
D02*
G37*
G36*
X183543Y126043D02*
X179500D01*
Y122000D01*
X183543D01*
Y126043D01*
D02*
G37*
G36*
X178500D02*
X174457D01*
Y122000D01*
X178500D01*
Y126043D01*
D02*
G37*
G36*
X183543Y121000D02*
X179500D01*
Y116957D01*
X183543D01*
Y121000D01*
D02*
G37*
G36*
X178500D02*
X174457D01*
Y116957D01*
X178500D01*
Y121000D01*
D02*
G37*
%LPD*%
D15*
X97000Y-178791D02*
D03*
Y-190209D02*
D03*
X108000Y-178791D02*
D03*
Y-190209D02*
D03*
D16*
X142791Y164500D02*
D03*
X154209D02*
D03*
D33*
X-216500Y-60858D02*
G03*
X-213571Y-67929I10000J0D01*
G01*
Y-11571D02*
G03*
X-216500Y-18642I7071J-7071D01*
G01*
X-158708Y43292D02*
G03*
X-121500Y147256I-91289J91312D01*
G01*
X-48Y-203071D02*
G03*
X7023Y-206000I7071J7071D01*
G01*
X-216500Y-60858D02*
Y-18642D01*
X-213571Y-67929D02*
X-213500Y-68000D01*
X-229000D02*
X-213500D01*
X-213571Y-11571D02*
X-158708Y43292D01*
X-121500Y147256D02*
Y183000D01*
X104984Y-205016D02*
Y-199516D01*
X108000Y-196500D01*
Y-190209D01*
X104000Y-206000D02*
X104984Y-205016D01*
X92484D02*
Y-194724D01*
X91500Y-206000D02*
X92484Y-205016D01*
Y-194724D02*
X97000Y-190209D01*
X204874Y193910D02*
Y196892D01*
X199362Y202404D02*
X204874Y196892D01*
X190500Y211500D02*
X199362Y202638D01*
X91284Y211500D02*
X190500D01*
X199362Y202404D02*
Y202638D01*
X73693Y193910D02*
X91284Y211500D01*
X-7850Y193910D02*
X73693D01*
X-19940Y206000D02*
X-7850Y193910D01*
X-98500Y206000D02*
X-19940D01*
X-121500Y183000D02*
X-98500Y206000D01*
X7023Y-206000D02*
X32445D01*
X-1056Y-202063D02*
X-48Y-203071D01*
D34*
X257000Y707D02*
G03*
X255000Y-4121I4828J-4828D01*
G01*
X201599Y-158901D02*
G03*
X204528Y-151830I-7071J7071D01*
G01*
X162858Y-176000D02*
G03*
X169929Y-173071I0J10000D01*
G01*
X145142Y-176000D02*
G03*
X138071Y-178929I0J-10000D01*
G01*
X151500Y-165500D02*
G03*
X156621Y-163379I0J7243D01*
G01*
X124709Y-195500D02*
X165000D01*
X108000Y-178791D02*
X124709Y-195500D01*
X165000D02*
X201599Y-158901D01*
X102000Y-178791D02*
X108000D01*
X81219Y-191781D02*
X94209Y-178791D01*
X65748Y-191781D02*
X81219D01*
X94209Y-178791D02*
X102000D01*
X-156281Y-98781D02*
Y-88248D01*
X-168500Y-111000D02*
X-156281Y-98781D01*
X-240630Y-111000D02*
X-168500D01*
X-260000Y-130370D02*
X-240630Y-111000D01*
X185500Y59500D02*
X192500Y66500D01*
X205500D01*
X194500Y-3000D02*
Y53000D01*
X199000Y57500D01*
X205500D01*
X110500Y127000D02*
Y153000D01*
X134217Y88031D02*
Y103283D01*
X110500Y127000D02*
X134217Y103283D01*
X185500Y-12500D02*
Y59500D01*
Y-12500D02*
X201500Y-28500D01*
X215972Y14000D02*
Y87500D01*
X216472Y88000D01*
X231500Y87500D02*
X245500Y73500D01*
Y14000D02*
Y73500D01*
X257000Y707D02*
Y4000D01*
Y77000D01*
X246000Y88000D02*
X257000Y77000D01*
X161094Y199500D02*
X172000D01*
X257000Y707D02*
Y707D01*
X255000Y-4121D02*
Y-4121D01*
Y-4121D02*
X255000Y-113000D01*
X205000Y2000D02*
Y47500D01*
X201500Y-45000D02*
Y-28500D01*
X181500Y-65000D02*
X201500Y-45000D01*
X219500Y-40000D02*
Y-28000D01*
X201000Y-58500D02*
X219500Y-40000D01*
X194500Y-3000D02*
X219500Y-28000D01*
X205000Y2000D02*
X230528Y-23528D01*
Y-58500D02*
Y-23528D01*
X244500Y-83500D02*
Y14000D01*
X246000Y-122000D02*
X255000Y-113000D01*
X192500Y-150500D02*
Y-78000D01*
X201000Y-69500D02*
Y-58500D01*
X192500Y-78000D02*
X201000Y-69500D01*
X169929Y-173071D02*
X192500Y-150500D01*
X156621Y-163379D02*
X181500Y-138500D01*
Y-65000D01*
X204528Y-151830D02*
Y-145000D01*
Y-84500D01*
X230528Y-58500D01*
X226000Y-102000D02*
X244500Y-83500D01*
X145142Y-176000D02*
X162858D01*
X131500Y-185500D02*
X138071Y-178929D01*
D35*
X172000Y199500D02*
X184500D01*
X190500Y193500D01*
Y183000D02*
Y193500D01*
X231500Y87500D02*
Y142000D01*
X190500Y183000D02*
X231500Y142000D01*
D36*
X-252000Y158051D02*
D03*
Y67500D02*
D03*
X-165819Y108500D02*
D03*
Y69130D02*
D03*
X-217000Y108500D02*
D03*
Y69130D02*
D03*
X-95441Y135559D02*
D03*
X-216500Y126000D02*
D03*
D37*
X-180500Y-16500D02*
D03*
X-239555D02*
D03*
X-217815Y21000D02*
D03*
X-237500D02*
D03*
X-257185D02*
D03*
D38*
X204874Y193910D02*
D03*
X73693D02*
D03*
D39*
X177453Y188319D02*
D03*
X172000Y199500D02*
D03*
X166547Y188319D02*
D03*
X161094Y199500D02*
D03*
X155642Y188319D02*
D03*
X150189Y199500D02*
D03*
X144736Y188319D02*
D03*
X139284Y199500D02*
D03*
X133831Y188319D02*
D03*
X128378Y199500D02*
D03*
X122925Y188319D02*
D03*
X117473Y199500D02*
D03*
X112020Y188319D02*
D03*
X106567Y199500D02*
D03*
D40*
X101114Y188319D02*
D03*
D41*
X-123000Y156000D02*
D03*
X-95441D02*
D03*
X-150559D02*
D03*
D42*
X149472Y121500D02*
D03*
X226000Y-102000D02*
D03*
X246000D02*
D03*
Y-122000D02*
D03*
X226000D02*
D03*
X215972Y14000D02*
D03*
X202000Y-58500D02*
D03*
X246000Y88000D02*
D03*
X204528Y-145000D02*
D03*
X151500Y-165500D02*
D03*
Y-185500D02*
D03*
X131500D02*
D03*
Y-165500D02*
D03*
D43*
X179000Y121500D02*
D03*
X245500Y14000D02*
D03*
X231528Y-58500D02*
D03*
X216472Y88000D02*
D03*
X175000Y-145000D02*
D03*
D44*
X-260000Y-130370D02*
D03*
Y-91000D02*
D03*
X-186181D02*
D03*
Y-130370D02*
D03*
X110500Y153000D02*
D03*
X51445Y153000D02*
D03*
X163055Y-206000D02*
D03*
X104000D02*
D03*
X91500D02*
D03*
X32445D02*
D03*
D45*
X-156281Y-88248D02*
D03*
X-121217Y-146031D02*
D03*
X-66710Y-185998D02*
D03*
X-1056Y-202063D02*
D03*
X65748Y-191781D02*
D03*
X123531Y-156717D02*
D03*
X163498Y-102209D02*
D03*
X179563Y-36556D02*
D03*
X169281Y30248D02*
D03*
X134217Y88031D02*
D03*
X79710Y127998D02*
D03*
D46*
X266500Y-28000D02*
D03*
Y-87055D02*
D03*
Y-100445D02*
D03*
Y-159500D02*
D03*
D47*
X-155000Y-124500D02*
D03*
Y-183555D02*
D03*
D48*
X-188500Y-47500D02*
D03*
X-268500D02*
D03*
D49*
X-268370Y-68000D02*
D03*
X-229000D02*
D03*
X-174130D02*
D03*
X-213500D02*
D03*
D50*
X205500Y66500D02*
D03*
Y57500D02*
D03*
X205000Y47500D02*
D03*
X257000Y4000D02*
D03*
M02*
