G04*
G04 #@! TF.GenerationSoftware,Altium Limited,Altium Designer,22.4.2 (48)*
G04*
G04 Layer_Physical_Order=2*
G04 Layer_Color=36540*
%FSLAX25Y25*%
%MOIN*%
G70*
G04*
G04 #@! TF.SameCoordinates,153A9C53-5A63-4743-AA9A-0FD6701F73E5*
G04*
G04*
G04 #@! TF.FilePolarity,Positive*
G04*
G01*
G75*
%ADD47R,0.05906X0.05906*%
%ADD48C,0.05906*%
%ADD49C,0.04685*%
%ADD50C,0.05512*%
%ADD51C,0.05878*%
%ADD52R,0.05906X0.05906*%
%ADD53C,0.02362*%
%ADD54C,0.05000*%
%ADD55C,0.02756*%
G36*
X188167Y190346D02*
X188895Y190045D01*
X189550Y189607D01*
X190107Y189050D01*
X190545Y188395D01*
X190846Y187667D01*
X191000Y186894D01*
Y186500D01*
Y11000D01*
Y10458D01*
X190789Y9396D01*
X190374Y8395D01*
X189772Y7494D01*
X189278Y7000D01*
X190000D01*
Y-159500D01*
X5500D01*
Y7000D01*
X7722D01*
X7228Y7494D01*
X6626Y8395D01*
X6211Y9396D01*
X6000Y10458D01*
Y18500D01*
X5500Y186000D01*
Y186443D01*
X5673Y187313D01*
X6012Y188131D01*
X6505Y188869D01*
X7131Y189495D01*
X7868Y189988D01*
X8687Y190327D01*
X9557Y190500D01*
X187394D01*
X188167Y190346D01*
D02*
G37*
%LPC*%
G36*
X177795Y186297D02*
X176166D01*
X176018Y186268D01*
X175868D01*
X174270Y185950D01*
X174131Y185892D01*
X173983Y185863D01*
X172479Y185240D01*
X172353Y185156D01*
X172214Y185098D01*
X170860Y184194D01*
X170754Y184087D01*
X170628Y184003D01*
X169477Y182852D01*
X169393Y182727D01*
X169287Y182620D01*
X168382Y181266D01*
X168324Y181127D01*
X168241Y181001D01*
X167617Y179497D01*
X167588Y179349D01*
X167530Y179210D01*
X167213Y177613D01*
Y177462D01*
X167183Y177314D01*
Y175686D01*
X167213Y175538D01*
Y175387D01*
X167530Y173790D01*
X167588Y173651D01*
X167617Y173503D01*
X168241Y171999D01*
X168324Y171873D01*
X168382Y171734D01*
X169287Y170380D01*
X169393Y170273D01*
X169477Y170148D01*
X170628Y168997D01*
X170754Y168913D01*
X170860Y168806D01*
X172214Y167902D01*
X172353Y167844D01*
X172479Y167760D01*
X173983Y167137D01*
X174131Y167108D01*
X174270Y167050D01*
X175868Y166732D01*
X176018D01*
X176166Y166703D01*
X177795D01*
X177942Y166732D01*
X178093D01*
X179690Y167050D01*
X179829Y167108D01*
X179977Y167137D01*
X181482Y167760D01*
X181607Y167844D01*
X181746Y167902D01*
X183100Y168806D01*
X183207Y168913D01*
X183332Y168997D01*
X184484Y170148D01*
X184567Y170273D01*
X184674Y170380D01*
X185579Y171734D01*
X185636Y171873D01*
X185720Y171999D01*
X186343Y173503D01*
X186373Y173651D01*
X186430Y173790D01*
X186748Y175387D01*
Y175538D01*
X186777Y175686D01*
Y177314D01*
X186748Y177462D01*
Y177613D01*
X186430Y179210D01*
X186373Y179349D01*
X186343Y179497D01*
X185720Y181001D01*
X185636Y181127D01*
X185579Y181266D01*
X184674Y182620D01*
X184567Y182727D01*
X184484Y182852D01*
X183332Y184003D01*
X183207Y184087D01*
X183100Y184194D01*
X181746Y185098D01*
X181607Y185156D01*
X181482Y185240D01*
X179977Y185863D01*
X179829Y185892D01*
X179690Y185950D01*
X178093Y186268D01*
X177942D01*
X177795Y186297D01*
D02*
G37*
G36*
X20314D02*
X18686D01*
X18538Y186268D01*
X18387D01*
X16790Y185950D01*
X16651Y185892D01*
X16503Y185863D01*
X14999Y185240D01*
X14873Y185156D01*
X14734Y185098D01*
X13380Y184194D01*
X13273Y184087D01*
X13148Y184003D01*
X11997Y182852D01*
X11913Y182727D01*
X11806Y182620D01*
X10902Y181266D01*
X10844Y181127D01*
X10760Y181001D01*
X10137Y179497D01*
X10108Y179349D01*
X10050Y179210D01*
X9732Y177613D01*
Y177462D01*
X9703Y177314D01*
Y175686D01*
X9732Y175538D01*
Y175387D01*
X10050Y173790D01*
X10108Y173651D01*
X10137Y173503D01*
X10760Y171999D01*
X10844Y171873D01*
X10902Y171734D01*
X11806Y170380D01*
X11913Y170273D01*
X11997Y170148D01*
X13148Y168997D01*
X13273Y168913D01*
X13380Y168806D01*
X14734Y167902D01*
X14873Y167844D01*
X14999Y167760D01*
X16503Y167137D01*
X16651Y167108D01*
X16790Y167050D01*
X18387Y166732D01*
X18538D01*
X18686Y166703D01*
X20314D01*
X20462Y166732D01*
X20613D01*
X22210Y167050D01*
X22349Y167108D01*
X22497Y167137D01*
X24002Y167760D01*
X24127Y167844D01*
X24266Y167902D01*
X25620Y168806D01*
X25727Y168913D01*
X25852Y168997D01*
X27003Y170148D01*
X27087Y170273D01*
X27194Y170380D01*
X28098Y171734D01*
X28156Y171873D01*
X28240Y171999D01*
X28863Y173503D01*
X28892Y173651D01*
X28950Y173790D01*
X29268Y175387D01*
Y175538D01*
X29297Y175686D01*
Y177314D01*
X29268Y177462D01*
Y177613D01*
X28950Y179210D01*
X28892Y179349D01*
X28863Y179497D01*
X28240Y181001D01*
X28156Y181127D01*
X28098Y181266D01*
X27194Y182620D01*
X27087Y182727D01*
X27003Y182852D01*
X25852Y184003D01*
X25727Y184087D01*
X25620Y184194D01*
X24266Y185098D01*
X24127Y185156D01*
X24002Y185240D01*
X22497Y185863D01*
X22349Y185892D01*
X22210Y185950D01*
X20613Y186268D01*
X20462D01*
X20314Y186297D01*
D02*
G37*
G36*
X136771Y139187D02*
X135733D01*
X134732Y138919D01*
X133833Y138400D01*
X133100Y137667D01*
X132581Y136768D01*
X132313Y135767D01*
Y134729D01*
X132581Y133728D01*
X133100Y132829D01*
X133833Y132096D01*
X134732Y131578D01*
X135733Y131309D01*
X136771D01*
X137772Y131578D01*
X138671Y132096D01*
X139404Y132829D01*
X139922Y133728D01*
X140191Y134729D01*
Y135767D01*
X139922Y136768D01*
X139404Y137667D01*
X138671Y138400D01*
X137772Y138919D01*
X136771Y139187D01*
D02*
G37*
G36*
X61771D02*
X60733D01*
X59732Y138919D01*
X58833Y138400D01*
X58100Y137667D01*
X57581Y136768D01*
X57313Y135767D01*
Y134729D01*
X57581Y133728D01*
X58100Y132829D01*
X58833Y132096D01*
X59732Y131578D01*
X60733Y131309D01*
X61771D01*
X62772Y131578D01*
X63671Y132096D01*
X64404Y132829D01*
X64922Y133728D01*
X65191Y134729D01*
Y135767D01*
X64922Y136768D01*
X64404Y137667D01*
X63671Y138400D01*
X62772Y138919D01*
X61771Y139187D01*
D02*
G37*
G36*
X136771Y64187D02*
X135733D01*
X134732Y63919D01*
X133833Y63400D01*
X133100Y62667D01*
X132581Y61768D01*
X132313Y60767D01*
Y59729D01*
X132581Y58728D01*
X133100Y57829D01*
X133833Y57096D01*
X134732Y56577D01*
X135733Y56309D01*
X136771D01*
X137772Y56577D01*
X138671Y57096D01*
X139404Y57829D01*
X139922Y58728D01*
X140191Y59729D01*
Y60767D01*
X139922Y61768D01*
X139404Y62667D01*
X138671Y63400D01*
X137772Y63919D01*
X136771Y64187D01*
D02*
G37*
G36*
X61771D02*
X60733D01*
X59732Y63919D01*
X58833Y63400D01*
X58100Y62667D01*
X57581Y61768D01*
X57313Y60767D01*
Y59729D01*
X57581Y58728D01*
X58100Y57829D01*
X58833Y57096D01*
X59732Y56577D01*
X60733Y56309D01*
X61771D01*
X62772Y56577D01*
X63671Y57096D01*
X64404Y57829D01*
X64922Y58728D01*
X65191Y59729D01*
Y60767D01*
X64922Y61768D01*
X64404Y62667D01*
X63671Y63400D01*
X62772Y63919D01*
X61771Y64187D01*
D02*
G37*
G36*
X137752Y45290D02*
Y45277D01*
X58752D01*
Y45290D01*
X58592Y45277D01*
X58159D01*
X58084Y45263D01*
X58009Y45270D01*
X56829Y45154D01*
X56761Y45133D01*
X56742Y45132D01*
X56680D01*
X56640Y45124D01*
X56622Y45122D01*
X56571Y45110D01*
X55517Y44900D01*
X55447Y44871D01*
X55371Y44864D01*
X54710Y44663D01*
X54545Y44624D01*
X54452Y44585D01*
X54237Y44520D01*
X54170Y44484D01*
X54095Y44469D01*
X52999Y44015D01*
X52936Y43973D01*
X52864Y43951D01*
X52666Y43845D01*
X52572Y43806D01*
X52428Y43718D01*
X51818Y43392D01*
X51759Y43344D01*
X51689Y43315D01*
X50795Y42718D01*
X50750Y42690D01*
X50737Y42679D01*
X50703Y42656D01*
X50659Y42612D01*
X50645Y42600D01*
X50582Y42566D01*
X49665Y41814D01*
X49617Y41755D01*
X49554Y41713D01*
X49248Y41407D01*
X49126Y41303D01*
X49135Y41294D01*
X38170Y30329D01*
X37839Y29833D01*
X37723Y29248D01*
X37839Y28663D01*
X38170Y28167D01*
X38667Y27835D01*
X39252Y27719D01*
X157252D01*
X157837Y27835D01*
X158333Y28167D01*
X158665Y28663D01*
X158781Y29248D01*
X158665Y29833D01*
X158333Y30329D01*
X147369Y41294D01*
X147378Y41303D01*
X147256Y41407D01*
X146950Y41713D01*
X146887Y41755D01*
X146838Y41814D01*
X145922Y42566D01*
X145859Y42600D01*
X145844Y42612D01*
X145801Y42656D01*
X145767Y42679D01*
X145754Y42690D01*
X145708Y42718D01*
X144815Y43315D01*
X144745Y43344D01*
X144686Y43392D01*
X144076Y43718D01*
X143932Y43806D01*
X143838Y43845D01*
X143640Y43951D01*
X143568Y43973D01*
X143505Y44015D01*
X142409Y44469D01*
X142334Y44484D01*
X142267Y44520D01*
X142052Y44585D01*
X141959Y44624D01*
X141794Y44663D01*
X141132Y44864D01*
X141057Y44871D01*
X140987Y44900D01*
X139933Y45110D01*
X139882Y45122D01*
X139864Y45124D01*
X139824Y45132D01*
X139762D01*
X139743Y45133D01*
X139675Y45154D01*
X138495Y45270D01*
X138419Y45263D01*
X138345Y45277D01*
X137912D01*
X137752Y45290D01*
D02*
G37*
G36*
X157252Y167277D02*
X39252D01*
X38667Y167161D01*
X38170Y166830D01*
X37839Y166333D01*
X37723Y165748D01*
X37747Y165625D01*
X36627Y165402D01*
X34989Y164724D01*
X33515Y163739D01*
X32261Y162485D01*
X31276Y161011D01*
X30598Y159373D01*
X30400Y158376D01*
X30252Y158277D01*
X29667Y158161D01*
X29171Y157829D01*
X28839Y157333D01*
X28723Y156748D01*
Y38248D01*
X28839Y37663D01*
X29171Y37167D01*
X29667Y36835D01*
X30252Y36719D01*
X30837Y36835D01*
X31333Y37167D01*
X36566Y42399D01*
X41798Y47631D01*
X41807Y47622D01*
X41911Y47744D01*
X42217Y48050D01*
X42259Y48114D01*
X42318Y48162D01*
X43070Y49078D01*
X43104Y49141D01*
X43116Y49155D01*
X43160Y49199D01*
X43183Y49233D01*
X43194Y49246D01*
X43222Y49292D01*
X43819Y50185D01*
X43848Y50255D01*
X43896Y50314D01*
X44222Y50924D01*
X44310Y51068D01*
X44349Y51162D01*
X44455Y51360D01*
X44477Y51432D01*
X44519Y51495D01*
X44973Y52591D01*
X44988Y52666D01*
X45024Y52733D01*
X45089Y52948D01*
X45128Y53041D01*
X45167Y53206D01*
X45368Y53868D01*
X45375Y53943D01*
X45404Y54013D01*
X45614Y55067D01*
X45626Y55119D01*
X45628Y55136D01*
X45636Y55176D01*
Y55238D01*
X45637Y55257D01*
X45658Y55325D01*
X45774Y56505D01*
X45767Y56581D01*
X45781Y56655D01*
Y57088D01*
X45794Y57248D01*
X45781D01*
Y137748D01*
X45794D01*
X45781Y137908D01*
Y138341D01*
X45767Y138416D01*
X45774Y138491D01*
X45658Y139671D01*
X45637Y139739D01*
X45636Y139758D01*
Y139820D01*
X45628Y139860D01*
X45626Y139878D01*
X45614Y139929D01*
X45481Y140596D01*
X45798Y140983D01*
X46269D01*
X47964Y141320D01*
X49561Y141982D01*
X50999Y142942D01*
X52221Y144165D01*
X53182Y145602D01*
X53843Y147199D01*
X54180Y148895D01*
Y150319D01*
X54680Y150690D01*
X54871Y150632D01*
X54947Y150625D01*
X55017Y150596D01*
X56071Y150386D01*
X56122Y150374D01*
X56140Y150372D01*
X56180Y150364D01*
X56242D01*
X56261Y150363D01*
X56329Y150342D01*
X57509Y150226D01*
X57585Y150233D01*
X57659Y150219D01*
X58092D01*
X58252Y150206D01*
Y150219D01*
X138252D01*
Y150206D01*
X138412Y150219D01*
X138845D01*
X138919Y150233D01*
X138995Y150226D01*
X140175Y150342D01*
X140243Y150363D01*
X140262Y150364D01*
X140324D01*
X140364Y150372D01*
X140382Y150374D01*
X140433Y150386D01*
X141487Y150596D01*
X141557Y150625D01*
X141632Y150632D01*
X142295Y150833D01*
X142459Y150872D01*
X142552Y150911D01*
X143052Y150674D01*
X143089Y150634D01*
X143108Y150605D01*
X143211Y150091D01*
X143877Y148483D01*
X144843Y147037D01*
X146073Y145806D01*
X147520Y144840D01*
X149127Y144174D01*
X150834Y143834D01*
X151607D01*
X151712Y143741D01*
X151916Y143334D01*
X151531Y142405D01*
X151516Y142330D01*
X151480Y142263D01*
X151415Y142048D01*
X151376Y141955D01*
X151337Y141791D01*
X151136Y141129D01*
X151129Y141053D01*
X151100Y140983D01*
X150890Y139929D01*
X150878Y139878D01*
X150876Y139860D01*
X150868Y139820D01*
Y139758D01*
X150867Y139739D01*
X150846Y139671D01*
X150730Y138491D01*
X150737Y138415D01*
X150723Y138341D01*
Y137908D01*
X150710Y137748D01*
X150723D01*
Y57248D01*
X150710D01*
X150723Y57088D01*
Y56655D01*
X150737Y56581D01*
X150730Y56505D01*
X150846Y55325D01*
X150867Y55257D01*
X150868Y55238D01*
Y55176D01*
X150876Y55136D01*
X150878Y55119D01*
X150890Y55067D01*
X151100Y54013D01*
X151129Y53943D01*
X151136Y53868D01*
X151337Y53205D01*
X151376Y53041D01*
X151415Y52948D01*
X151480Y52733D01*
X151516Y52666D01*
X151531Y52591D01*
X151985Y51495D01*
X152027Y51432D01*
X152049Y51360D01*
X152155Y51161D01*
X152194Y51068D01*
X152282Y50924D01*
X152608Y50314D01*
X152656Y50255D01*
X152685Y50185D01*
X153282Y49291D01*
X153310Y49246D01*
X153321Y49233D01*
X153344Y49199D01*
X153388Y49155D01*
X153400Y49141D01*
X153434Y49078D01*
X154186Y48162D01*
X154245Y48114D01*
X154287Y48050D01*
X154593Y47744D01*
X154697Y47622D01*
X154706Y47631D01*
X159938Y42399D01*
X165171Y37167D01*
X165667Y36835D01*
X166252Y36719D01*
X166837Y36835D01*
X167333Y37167D01*
X167665Y37663D01*
X167781Y38248D01*
Y156748D01*
X167665Y157333D01*
X167333Y157829D01*
X166837Y158161D01*
X166252Y158277D01*
X166129Y158253D01*
X165906Y159373D01*
X165228Y161011D01*
X164243Y162485D01*
X162989Y163739D01*
X161515Y164724D01*
X159877Y165402D01*
X158757Y165625D01*
X158781Y165748D01*
X158665Y166333D01*
X158333Y166830D01*
X157837Y167161D01*
X157252Y167277D01*
D02*
G37*
G36*
X177795Y28817D02*
X176166D01*
X176018Y28787D01*
X175868D01*
X174270Y28470D01*
X174131Y28412D01*
X173983Y28383D01*
X172479Y27759D01*
X172353Y27676D01*
X172214Y27618D01*
X170860Y26713D01*
X170754Y26607D01*
X170628Y26523D01*
X169477Y25372D01*
X169393Y25246D01*
X169287Y25140D01*
X168382Y23786D01*
X168324Y23646D01*
X168241Y23521D01*
X167617Y22017D01*
X167588Y21869D01*
X167530Y21730D01*
X167213Y20132D01*
Y19982D01*
X167183Y19834D01*
Y18205D01*
X167213Y18058D01*
Y17907D01*
X167530Y16310D01*
X167588Y16171D01*
X167617Y16023D01*
X168241Y14518D01*
X168324Y14393D01*
X168382Y14254D01*
X169287Y12900D01*
X169393Y12793D01*
X169477Y12668D01*
X170628Y11516D01*
X170754Y11433D01*
X170860Y11326D01*
X172214Y10421D01*
X172353Y10364D01*
X172479Y10280D01*
X173983Y9657D01*
X174131Y9627D01*
X174270Y9570D01*
X175868Y9252D01*
X176018D01*
X176166Y9223D01*
X177795D01*
X177942Y9252D01*
X178093D01*
X179690Y9570D01*
X179829Y9627D01*
X179977Y9657D01*
X181482Y10280D01*
X181607Y10364D01*
X181746Y10421D01*
X183100Y11326D01*
X183207Y11433D01*
X183332Y11516D01*
X184484Y12668D01*
X184567Y12793D01*
X184674Y12900D01*
X185579Y14254D01*
X185636Y14393D01*
X185720Y14518D01*
X186343Y16023D01*
X186373Y16171D01*
X186430Y16310D01*
X186748Y17907D01*
Y18058D01*
X186777Y18205D01*
Y19834D01*
X186748Y19982D01*
Y20132D01*
X186430Y21730D01*
X186373Y21869D01*
X186343Y22017D01*
X185720Y23521D01*
X185636Y23646D01*
X185579Y23786D01*
X184674Y25140D01*
X184567Y25246D01*
X184484Y25372D01*
X183332Y26523D01*
X183207Y26607D01*
X183100Y26713D01*
X181746Y27618D01*
X181607Y27676D01*
X181482Y27759D01*
X179977Y28383D01*
X179829Y28412D01*
X179690Y28470D01*
X178093Y28787D01*
X177942D01*
X177795Y28817D01*
D02*
G37*
G36*
X20314D02*
X18686D01*
X18538Y28787D01*
X18387D01*
X16790Y28470D01*
X16651Y28412D01*
X16503Y28383D01*
X14999Y27759D01*
X14873Y27676D01*
X14734Y27618D01*
X13380Y26713D01*
X13273Y26607D01*
X13148Y26523D01*
X11997Y25372D01*
X11913Y25246D01*
X11806Y25140D01*
X10902Y23786D01*
X10844Y23646D01*
X10760Y23521D01*
X10137Y22017D01*
X10108Y21869D01*
X10050Y21730D01*
X9732Y20132D01*
Y19982D01*
X9703Y19834D01*
Y18205D01*
X9732Y18058D01*
Y17907D01*
X10050Y16310D01*
X10108Y16171D01*
X10137Y16023D01*
X10760Y14518D01*
X10844Y14393D01*
X10902Y14254D01*
X11806Y12900D01*
X11913Y12793D01*
X11997Y12668D01*
X13148Y11516D01*
X13273Y11433D01*
X13380Y11326D01*
X14734Y10421D01*
X14873Y10364D01*
X14999Y10280D01*
X16503Y9657D01*
X16651Y9627D01*
X16790Y9570D01*
X18387Y9252D01*
X18538D01*
X18686Y9223D01*
X20314D01*
X20462Y9252D01*
X20613D01*
X22210Y9570D01*
X22349Y9627D01*
X22497Y9657D01*
X24002Y10280D01*
X24127Y10364D01*
X24266Y10421D01*
X25620Y11326D01*
X25727Y11433D01*
X25852Y11516D01*
X27003Y12668D01*
X27087Y12793D01*
X27194Y12900D01*
X28098Y14254D01*
X28156Y14393D01*
X28240Y14518D01*
X28863Y16023D01*
X28892Y16171D01*
X28950Y16310D01*
X29268Y17907D01*
Y18058D01*
X29297Y18205D01*
Y19834D01*
X29268Y19982D01*
Y20132D01*
X28950Y21730D01*
X28892Y21869D01*
X28863Y22017D01*
X28240Y23521D01*
X28156Y23646D01*
X28098Y23786D01*
X27194Y25140D01*
X27087Y25246D01*
X27003Y25372D01*
X25852Y26523D01*
X25727Y26607D01*
X25620Y26713D01*
X24266Y27618D01*
X24127Y27676D01*
X24002Y27759D01*
X22497Y28383D01*
X22349Y28412D01*
X22210Y28470D01*
X20613Y28787D01*
X20462D01*
X20314Y28817D01*
D02*
G37*
G36*
X81973Y2378D02*
X81027D01*
X80153Y2016D01*
X79484Y1347D01*
X79122Y473D01*
Y-473D01*
X79484Y-1347D01*
X80153Y-2016D01*
X81027Y-2378D01*
X81973D01*
X82847Y-2016D01*
X83516Y-1347D01*
X83878Y-473D01*
Y473D01*
X83516Y1347D01*
X82847Y2016D01*
X81973Y2378D01*
D02*
G37*
G36*
X153440Y1843D02*
X152560D01*
X151710Y1615D01*
X150948Y1175D01*
X150325Y552D01*
X149885Y-210D01*
X149657Y-1060D01*
Y-1940D01*
X149885Y-2790D01*
X150325Y-3552D01*
X150948Y-4175D01*
X151710Y-4615D01*
X152560Y-4843D01*
X153440D01*
X154290Y-4615D01*
X155052Y-4175D01*
X155675Y-3552D01*
X156115Y-2790D01*
X156342Y-1940D01*
Y-1060D01*
X156115Y-210D01*
X155675Y552D01*
X155052Y1175D01*
X154290Y1615D01*
X153440Y1843D01*
D02*
G37*
G36*
X112995Y-4744D02*
X112005D01*
X111050Y-5000D01*
X110194Y-5494D01*
X109494Y-6194D01*
X109000Y-7050D01*
X108744Y-8005D01*
Y-8995D01*
X109000Y-9950D01*
X109494Y-10806D01*
X110194Y-11506D01*
X111050Y-12000D01*
X112005Y-12256D01*
X112995D01*
X113950Y-12000D01*
X114806Y-11506D01*
X115506Y-10806D01*
X116000Y-9950D01*
X116256Y-8995D01*
Y-8005D01*
X116000Y-7050D01*
X115506Y-6194D01*
X114806Y-5494D01*
X113950Y-5000D01*
X112995Y-4744D01*
D02*
G37*
G36*
X163440Y-8157D02*
X162560D01*
X161710Y-8385D01*
X160948Y-8825D01*
X160325Y-9448D01*
X159885Y-10210D01*
X159658Y-11060D01*
Y-11940D01*
X159885Y-12790D01*
X160325Y-13552D01*
X160948Y-14175D01*
X161710Y-14615D01*
X162560Y-14842D01*
X163440D01*
X164290Y-14615D01*
X165052Y-14175D01*
X165675Y-13552D01*
X166115Y-12790D01*
X166342Y-11940D01*
Y-11060D01*
X166115Y-10210D01*
X165675Y-9448D01*
X165052Y-8825D01*
X164290Y-8385D01*
X163440Y-8157D01*
D02*
G37*
G36*
X47473Y-13122D02*
X46527D01*
X45653Y-13484D01*
X44984Y-14153D01*
X44622Y-15027D01*
Y-15973D01*
X44984Y-16847D01*
X45653Y-17516D01*
X46527Y-17878D01*
X47473D01*
X48347Y-17516D01*
X49016Y-16847D01*
X49378Y-15973D01*
Y-15027D01*
X49016Y-14153D01*
X48347Y-13484D01*
X47473Y-13122D01*
D02*
G37*
G36*
X63973Y-19122D02*
X63027D01*
X62153Y-19484D01*
X61484Y-20153D01*
X61122Y-21027D01*
Y-21973D01*
X61484Y-22847D01*
X62153Y-23516D01*
X63027Y-23878D01*
X63973D01*
X64847Y-23516D01*
X65516Y-22847D01*
X65878Y-21973D01*
Y-21027D01*
X65516Y-20153D01*
X64847Y-19484D01*
X63973Y-19122D01*
D02*
G37*
G36*
X21973Y-35622D02*
X21027D01*
X20153Y-35984D01*
X19484Y-36653D01*
X19122Y-37527D01*
Y-38473D01*
X19484Y-39347D01*
X20153Y-40016D01*
X21027Y-40378D01*
X21973D01*
X22847Y-40016D01*
X23516Y-39347D01*
X23878Y-38473D01*
Y-37527D01*
X23516Y-36653D01*
X22847Y-35984D01*
X21973Y-35622D01*
D02*
G37*
G36*
X66473Y-38122D02*
X65527D01*
X64653Y-38484D01*
X63984Y-39153D01*
X63622Y-40027D01*
Y-40973D01*
X63984Y-41847D01*
X64653Y-42516D01*
X65527Y-42878D01*
X66473D01*
X67347Y-42516D01*
X68016Y-41847D01*
X68378Y-40973D01*
Y-40027D01*
X68016Y-39153D01*
X67347Y-38484D01*
X66473Y-38122D01*
D02*
G37*
G36*
X71473Y-42122D02*
X70527D01*
X69653Y-42484D01*
X68984Y-43153D01*
X68622Y-44027D01*
Y-44973D01*
X68984Y-45847D01*
X69653Y-46516D01*
X70527Y-46878D01*
X71473D01*
X72347Y-46516D01*
X73016Y-45847D01*
X73378Y-44973D01*
Y-44027D01*
X73016Y-43153D01*
X72347Y-42484D01*
X71473Y-42122D01*
D02*
G37*
G36*
X124973Y-75122D02*
X124027D01*
X123153Y-75484D01*
X122484Y-76153D01*
X122122Y-77027D01*
Y-77973D01*
X122484Y-78847D01*
X123153Y-79516D01*
X124027Y-79878D01*
X124973D01*
X125847Y-79516D01*
X126516Y-78847D01*
X126878Y-77973D01*
Y-77027D01*
X126516Y-76153D01*
X125847Y-75484D01*
X124973Y-75122D01*
D02*
G37*
G36*
X32520Y-76547D02*
X31480D01*
X30474Y-76817D01*
X29573Y-77337D01*
X28837Y-78073D01*
X28317Y-78974D01*
X28047Y-79980D01*
Y-81020D01*
X28317Y-82026D01*
X28837Y-82927D01*
X29573Y-83663D01*
X30474Y-84183D01*
X31480Y-84453D01*
X32520D01*
X33526Y-84183D01*
X34427Y-83663D01*
X35163Y-82927D01*
X35683Y-82026D01*
X35953Y-81020D01*
Y-79980D01*
X35683Y-78974D01*
X35163Y-78073D01*
X34427Y-77337D01*
X33526Y-76817D01*
X32520Y-76547D01*
D02*
G37*
G36*
Y-86547D02*
X31480D01*
X30474Y-86817D01*
X29573Y-87337D01*
X28837Y-88073D01*
X28317Y-88974D01*
X28047Y-89980D01*
Y-91020D01*
X28317Y-92026D01*
X28837Y-92927D01*
X29573Y-93663D01*
X30474Y-94183D01*
X31480Y-94453D01*
X32520D01*
X33526Y-94183D01*
X34427Y-93663D01*
X35163Y-92927D01*
X35683Y-92026D01*
X35953Y-91020D01*
Y-89980D01*
X35683Y-88974D01*
X35163Y-88073D01*
X34427Y-87337D01*
X33526Y-86817D01*
X32520Y-86547D01*
D02*
G37*
G36*
Y-96547D02*
X31480D01*
X30474Y-96817D01*
X29573Y-97337D01*
X28837Y-98073D01*
X28317Y-98974D01*
X28047Y-99980D01*
Y-101020D01*
X28317Y-102026D01*
X28837Y-102927D01*
X29573Y-103663D01*
X30474Y-104183D01*
X31480Y-104453D01*
X32520D01*
X33526Y-104183D01*
X34427Y-103663D01*
X35163Y-102927D01*
X35683Y-102026D01*
X35953Y-101020D01*
Y-99980D01*
X35683Y-98974D01*
X35163Y-98073D01*
X34427Y-97337D01*
X33526Y-96817D01*
X32520Y-96547D01*
D02*
G37*
G36*
X72683Y-101140D02*
X71737D01*
X70863Y-101502D01*
X70194Y-102171D01*
X69832Y-103045D01*
Y-103991D01*
X70194Y-104865D01*
X70863Y-105534D01*
X71737Y-105896D01*
X72683D01*
X73557Y-105534D01*
X74226Y-104865D01*
X74588Y-103991D01*
Y-103045D01*
X74226Y-102171D01*
X73557Y-101502D01*
X72683Y-101140D01*
D02*
G37*
G36*
X112473Y-109122D02*
X111527D01*
X110653Y-109484D01*
X109984Y-110153D01*
X109622Y-111027D01*
Y-111973D01*
X109984Y-112847D01*
X110653Y-113516D01*
X111527Y-113878D01*
X112473D01*
X113347Y-113516D01*
X114016Y-112847D01*
X114378Y-111973D01*
Y-111027D01*
X114016Y-110153D01*
X113347Y-109484D01*
X112473Y-109122D01*
D02*
G37*
G36*
X32520Y-106547D02*
X31480D01*
X30474Y-106817D01*
X29573Y-107337D01*
X28837Y-108073D01*
X28317Y-108974D01*
X28047Y-109980D01*
Y-111020D01*
X28317Y-112026D01*
X28837Y-112927D01*
X29573Y-113663D01*
X30474Y-114183D01*
X31480Y-114453D01*
X32520D01*
X33526Y-114183D01*
X34427Y-113663D01*
X35163Y-112927D01*
X35683Y-112026D01*
X35953Y-111020D01*
Y-109980D01*
X35683Y-108974D01*
X35163Y-108073D01*
X34427Y-107337D01*
X33526Y-106817D01*
X32520Y-106547D01*
D02*
G37*
G36*
X107473Y-119122D02*
X106527D01*
X105653Y-119484D01*
X104984Y-120153D01*
X104622Y-121027D01*
Y-121973D01*
X104984Y-122847D01*
X105653Y-123516D01*
X106527Y-123878D01*
X107473D01*
X108347Y-123516D01*
X109016Y-122847D01*
X109378Y-121973D01*
Y-121027D01*
X109016Y-120153D01*
X108347Y-119484D01*
X107473Y-119122D01*
D02*
G37*
G36*
X35953Y-116547D02*
X28047D01*
Y-124453D01*
X35953D01*
Y-116547D01*
D02*
G37*
G36*
X183698Y-140126D02*
X182657D01*
X181651Y-140395D01*
X180750Y-140916D01*
X180014Y-141652D01*
X179494Y-142553D01*
X179224Y-143558D01*
Y-144599D01*
X179494Y-145604D01*
X180014Y-146506D01*
X180750Y-147242D01*
X181651Y-147762D01*
X182657Y-148031D01*
X183698D01*
X184703Y-147762D01*
X185604Y-147242D01*
X186340Y-146506D01*
X186861Y-145604D01*
X187130Y-144599D01*
Y-143558D01*
X186861Y-142553D01*
X186340Y-141652D01*
X185604Y-140916D01*
X184703Y-140395D01*
X183698Y-140126D01*
D02*
G37*
G36*
X173698D02*
X172657D01*
X171651Y-140395D01*
X170750Y-140916D01*
X170014Y-141652D01*
X169494Y-142553D01*
X169224Y-143558D01*
Y-144599D01*
X169494Y-145604D01*
X170014Y-146506D01*
X170750Y-147242D01*
X171651Y-147762D01*
X172657Y-148031D01*
X173698D01*
X174703Y-147762D01*
X175604Y-147242D01*
X176340Y-146506D01*
X176860Y-145604D01*
X177130Y-144599D01*
Y-143558D01*
X176860Y-142553D01*
X176340Y-141652D01*
X175604Y-140916D01*
X174703Y-140395D01*
X173698Y-140126D01*
D02*
G37*
G36*
X163698D02*
X162657D01*
X161652Y-140395D01*
X160750Y-140916D01*
X160014Y-141652D01*
X159494Y-142553D01*
X159224Y-143558D01*
Y-144599D01*
X159494Y-145604D01*
X160014Y-146506D01*
X160750Y-147242D01*
X161652Y-147762D01*
X162657Y-148031D01*
X163698D01*
X164703Y-147762D01*
X165604Y-147242D01*
X166340Y-146506D01*
X166860Y-145604D01*
X167130Y-144599D01*
Y-143558D01*
X166860Y-142553D01*
X166340Y-141652D01*
X165604Y-140916D01*
X164703Y-140395D01*
X163698Y-140126D01*
D02*
G37*
G36*
X153698D02*
X152657D01*
X151652Y-140395D01*
X150750Y-140916D01*
X150014Y-141652D01*
X149494Y-142553D01*
X149224Y-143558D01*
Y-144599D01*
X149494Y-145604D01*
X150014Y-146506D01*
X150750Y-147242D01*
X151652Y-147762D01*
X152657Y-148031D01*
X153698D01*
X154703Y-147762D01*
X155604Y-147242D01*
X156340Y-146506D01*
X156860Y-145604D01*
X157130Y-144599D01*
Y-143558D01*
X156860Y-142553D01*
X156340Y-141652D01*
X155604Y-140916D01*
X154703Y-140395D01*
X153698Y-140126D01*
D02*
G37*
G36*
X143698D02*
X142657D01*
X141651Y-140395D01*
X140750Y-140916D01*
X140014Y-141652D01*
X139494Y-142553D01*
X139224Y-143558D01*
Y-144599D01*
X139494Y-145604D01*
X140014Y-146506D01*
X140750Y-147242D01*
X141651Y-147762D01*
X142657Y-148031D01*
X143698D01*
X144703Y-147762D01*
X145604Y-147242D01*
X146340Y-146506D01*
X146861Y-145604D01*
X147130Y-144599D01*
Y-143558D01*
X146861Y-142553D01*
X146340Y-141652D01*
X145604Y-140916D01*
X144703Y-140395D01*
X143698Y-140126D01*
D02*
G37*
G36*
X133698D02*
X132657D01*
X131651Y-140395D01*
X130750Y-140916D01*
X130014Y-141652D01*
X129494Y-142553D01*
X129224Y-143558D01*
Y-144599D01*
X129494Y-145604D01*
X130014Y-146506D01*
X130750Y-147242D01*
X131651Y-147762D01*
X132657Y-148031D01*
X133698D01*
X134703Y-147762D01*
X135604Y-147242D01*
X136340Y-146506D01*
X136861Y-145604D01*
X137130Y-144599D01*
Y-143558D01*
X136861Y-142553D01*
X136340Y-141652D01*
X135604Y-140916D01*
X134703Y-140395D01*
X133698Y-140126D01*
D02*
G37*
G36*
X123698D02*
X122657D01*
X121651Y-140395D01*
X120750Y-140916D01*
X120014Y-141652D01*
X119494Y-142553D01*
X119224Y-143558D01*
Y-144599D01*
X119494Y-145604D01*
X120014Y-146506D01*
X120750Y-147242D01*
X121651Y-147762D01*
X122657Y-148031D01*
X123698D01*
X124703Y-147762D01*
X125604Y-147242D01*
X126340Y-146506D01*
X126860Y-145604D01*
X127130Y-144599D01*
Y-143558D01*
X126860Y-142553D01*
X126340Y-141652D01*
X125604Y-140916D01*
X124703Y-140395D01*
X123698Y-140126D01*
D02*
G37*
G36*
X113698D02*
X112657D01*
X111652Y-140395D01*
X110750Y-140916D01*
X110014Y-141652D01*
X109494Y-142553D01*
X109224Y-143558D01*
Y-144599D01*
X109494Y-145604D01*
X110014Y-146506D01*
X110750Y-147242D01*
X111652Y-147762D01*
X112657Y-148031D01*
X113698D01*
X114703Y-147762D01*
X115604Y-147242D01*
X116340Y-146506D01*
X116860Y-145604D01*
X117130Y-144599D01*
Y-143558D01*
X116860Y-142553D01*
X116340Y-141652D01*
X115604Y-140916D01*
X114703Y-140395D01*
X113698Y-140126D01*
D02*
G37*
G36*
X103698D02*
X102657D01*
X101652Y-140395D01*
X100750Y-140916D01*
X100014Y-141652D01*
X99494Y-142553D01*
X99224Y-143558D01*
Y-144599D01*
X99494Y-145604D01*
X100014Y-146506D01*
X100750Y-147242D01*
X101652Y-147762D01*
X102657Y-148031D01*
X103698D01*
X104703Y-147762D01*
X105604Y-147242D01*
X106340Y-146506D01*
X106860Y-145604D01*
X107130Y-144599D01*
Y-143558D01*
X106860Y-142553D01*
X106340Y-141652D01*
X105604Y-140916D01*
X104703Y-140395D01*
X103698Y-140126D01*
D02*
G37*
G36*
X93698D02*
X92657D01*
X91651Y-140395D01*
X90750Y-140916D01*
X90014Y-141652D01*
X89494Y-142553D01*
X89224Y-143558D01*
Y-144599D01*
X89494Y-145604D01*
X90014Y-146506D01*
X90750Y-147242D01*
X91651Y-147762D01*
X92657Y-148031D01*
X93698D01*
X94703Y-147762D01*
X95604Y-147242D01*
X96340Y-146506D01*
X96861Y-145604D01*
X97130Y-144599D01*
Y-143558D01*
X96861Y-142553D01*
X96340Y-141652D01*
X95604Y-140916D01*
X94703Y-140395D01*
X93698Y-140126D01*
D02*
G37*
G36*
X83698D02*
X82657D01*
X81652Y-140395D01*
X80750Y-140916D01*
X80014Y-141652D01*
X79494Y-142553D01*
X79224Y-143558D01*
Y-144599D01*
X79494Y-145604D01*
X80014Y-146506D01*
X80750Y-147242D01*
X81652Y-147762D01*
X82657Y-148031D01*
X83698D01*
X84703Y-147762D01*
X85604Y-147242D01*
X86340Y-146506D01*
X86861Y-145604D01*
X87130Y-144599D01*
Y-143558D01*
X86861Y-142553D01*
X86340Y-141652D01*
X85604Y-140916D01*
X84703Y-140395D01*
X83698Y-140126D01*
D02*
G37*
G36*
X73698D02*
X72657D01*
X71652Y-140395D01*
X70750Y-140916D01*
X70014Y-141652D01*
X69494Y-142553D01*
X69224Y-143558D01*
Y-144599D01*
X69494Y-145604D01*
X70014Y-146506D01*
X70750Y-147242D01*
X71652Y-147762D01*
X72657Y-148031D01*
X73698D01*
X74703Y-147762D01*
X75604Y-147242D01*
X76340Y-146506D01*
X76861Y-145604D01*
X77130Y-144599D01*
Y-143558D01*
X76861Y-142553D01*
X76340Y-141652D01*
X75604Y-140916D01*
X74703Y-140395D01*
X73698Y-140126D01*
D02*
G37*
G36*
X63698D02*
X62657D01*
X61651Y-140395D01*
X60750Y-140916D01*
X60014Y-141652D01*
X59494Y-142553D01*
X59224Y-143558D01*
Y-144599D01*
X59494Y-145604D01*
X60014Y-146506D01*
X60750Y-147242D01*
X61651Y-147762D01*
X62657Y-148031D01*
X63698D01*
X64703Y-147762D01*
X65604Y-147242D01*
X66340Y-146506D01*
X66861Y-145604D01*
X67130Y-144599D01*
Y-143558D01*
X66861Y-142553D01*
X66340Y-141652D01*
X65604Y-140916D01*
X64703Y-140395D01*
X63698Y-140126D01*
D02*
G37*
G36*
X43698D02*
X42657D01*
X41651Y-140395D01*
X40750Y-140916D01*
X40014Y-141652D01*
X39494Y-142553D01*
X39224Y-143558D01*
Y-144599D01*
X39494Y-145604D01*
X40014Y-146506D01*
X40750Y-147242D01*
X41651Y-147762D01*
X42657Y-148031D01*
X43698D01*
X44703Y-147762D01*
X45604Y-147242D01*
X46340Y-146506D01*
X46861Y-145604D01*
X47130Y-144599D01*
Y-143558D01*
X46861Y-142553D01*
X46340Y-141652D01*
X45604Y-140916D01*
X44703Y-140395D01*
X43698Y-140126D01*
D02*
G37*
G36*
X33698D02*
X32657D01*
X31651Y-140395D01*
X30750Y-140916D01*
X30014Y-141652D01*
X29494Y-142553D01*
X29224Y-143558D01*
Y-144599D01*
X29494Y-145604D01*
X30014Y-146506D01*
X30750Y-147242D01*
X31651Y-147762D01*
X32657Y-148031D01*
X33698D01*
X34703Y-147762D01*
X35604Y-147242D01*
X36340Y-146506D01*
X36861Y-145604D01*
X37130Y-144599D01*
Y-143558D01*
X36861Y-142553D01*
X36340Y-141652D01*
X35604Y-140916D01*
X34703Y-140395D01*
X33698Y-140126D01*
D02*
G37*
G36*
X23698D02*
X22657D01*
X21652Y-140395D01*
X20750Y-140916D01*
X20014Y-141652D01*
X19494Y-142553D01*
X19224Y-143558D01*
Y-144599D01*
X19494Y-145604D01*
X20014Y-146506D01*
X20750Y-147242D01*
X21652Y-147762D01*
X22657Y-148031D01*
X23698D01*
X24703Y-147762D01*
X25604Y-147242D01*
X26340Y-146506D01*
X26861Y-145604D01*
X27130Y-144599D01*
Y-143558D01*
X26861Y-142553D01*
X26340Y-141652D01*
X25604Y-140916D01*
X24703Y-140395D01*
X23698Y-140126D01*
D02*
G37*
G36*
X13698D02*
X12657D01*
X11652Y-140395D01*
X10750Y-140916D01*
X10014Y-141652D01*
X9494Y-142553D01*
X9224Y-143558D01*
Y-144599D01*
X9494Y-145604D01*
X10014Y-146506D01*
X10750Y-147242D01*
X11652Y-147762D01*
X12657Y-148031D01*
X13698D01*
X14703Y-147762D01*
X15604Y-147242D01*
X16340Y-146506D01*
X16861Y-145604D01*
X17130Y-144599D01*
Y-143558D01*
X16861Y-142553D01*
X16340Y-141652D01*
X15604Y-140916D01*
X14703Y-140395D01*
X13698Y-140126D01*
D02*
G37*
%LPD*%
D47*
X32000Y-120500D02*
D03*
D48*
Y-110500D02*
D03*
Y-100500D02*
D03*
Y-90500D02*
D03*
Y-80500D02*
D03*
Y-70500D02*
D03*
X13177Y223874D02*
D03*
Y213874D02*
D03*
X23177Y223874D02*
D03*
Y213874D02*
D03*
X33177Y223874D02*
D03*
Y213874D02*
D03*
X43177Y223874D02*
D03*
Y213874D02*
D03*
X53177Y223874D02*
D03*
Y213874D02*
D03*
X63177Y223874D02*
D03*
Y213874D02*
D03*
X73177Y223874D02*
D03*
Y213874D02*
D03*
X83177Y223874D02*
D03*
Y213874D02*
D03*
X93177Y223874D02*
D03*
Y213874D02*
D03*
X103177Y223874D02*
D03*
Y213874D02*
D03*
X113177Y223874D02*
D03*
Y213874D02*
D03*
X123177Y223874D02*
D03*
Y213874D02*
D03*
X133177Y223874D02*
D03*
Y213874D02*
D03*
X143177Y223874D02*
D03*
Y213874D02*
D03*
X153177Y223874D02*
D03*
Y213874D02*
D03*
X163177Y223874D02*
D03*
Y213874D02*
D03*
X173177Y223874D02*
D03*
Y213874D02*
D03*
X183177Y223874D02*
D03*
X13177Y-144079D02*
D03*
Y-154079D02*
D03*
X23177Y-144079D02*
D03*
Y-154079D02*
D03*
X33177Y-144079D02*
D03*
Y-154079D02*
D03*
X43177Y-144079D02*
D03*
Y-154079D02*
D03*
X53177Y-144079D02*
D03*
Y-154079D02*
D03*
X63177Y-144079D02*
D03*
Y-154079D02*
D03*
X73177Y-144079D02*
D03*
Y-154079D02*
D03*
X83177Y-144079D02*
D03*
Y-154079D02*
D03*
X93177Y-144079D02*
D03*
Y-154079D02*
D03*
X103177Y-144079D02*
D03*
Y-154079D02*
D03*
X113177Y-144079D02*
D03*
Y-154079D02*
D03*
X123177Y-144079D02*
D03*
Y-154079D02*
D03*
X133177Y-144079D02*
D03*
Y-154079D02*
D03*
X143177Y-144079D02*
D03*
Y-154079D02*
D03*
X153177Y-144079D02*
D03*
Y-154079D02*
D03*
X163177Y-144079D02*
D03*
Y-154079D02*
D03*
X173177Y-144079D02*
D03*
Y-154079D02*
D03*
X183177Y-144079D02*
D03*
D49*
X163000Y-11500D02*
D03*
X153000Y-1500D02*
D03*
X143000Y-11500D02*
D03*
D50*
X107500Y-13500D02*
D03*
Y-3500D02*
D03*
X117500D02*
D03*
Y-13500D02*
D03*
X112500Y-8500D02*
D03*
D51*
X61252Y60248D02*
D03*
X98752D02*
D03*
X136252D02*
D03*
Y135248D02*
D03*
X61252D02*
D03*
D52*
X183177Y213874D02*
D03*
Y-154079D02*
D03*
D53*
X101452Y-5844D02*
D03*
X98089D02*
D03*
X94727D02*
D03*
X91365D02*
D03*
X88003D02*
D03*
X84659Y-6192D02*
D03*
X78777Y-9319D02*
D03*
X75524Y-10166D02*
D03*
X74511Y-16303D02*
D03*
X77823Y-16885D02*
D03*
X81183Y-16790D02*
D03*
X82929Y-13916D02*
D03*
X85275Y-11508D02*
D03*
X88619Y-11156D02*
D03*
X91981D02*
D03*
X95343D02*
D03*
X98705D02*
D03*
X102068D02*
D03*
X109367Y-18276D02*
D03*
X108392Y-21493D02*
D03*
X108344Y-24855D02*
D03*
Y-28218D02*
D03*
Y-31580D02*
D03*
Y-34942D02*
D03*
Y-38304D02*
D03*
Y-41666D02*
D03*
Y-45028D02*
D03*
Y-48391D02*
D03*
Y-51753D02*
D03*
X107610Y-55034D02*
D03*
X105551Y-57692D02*
D03*
X109993Y-60742D02*
D03*
X112010Y-58052D02*
D03*
X113246Y-54925D02*
D03*
X113656Y-51588D02*
D03*
Y-48226D02*
D03*
Y-44864D02*
D03*
Y-41501D02*
D03*
Y-38139D02*
D03*
Y-34777D02*
D03*
Y-31415D02*
D03*
Y-28052D02*
D03*
Y-24690D02*
D03*
X113799Y-21331D02*
D03*
X115085Y-18225D02*
D03*
X117469Y-8549D02*
D03*
X78335Y-37307D02*
D03*
X80751Y-39645D02*
D03*
X84113D02*
D03*
X87344Y-38713D02*
D03*
Y-42075D02*
D03*
Y-45437D02*
D03*
Y-48800D02*
D03*
Y-52162D02*
D03*
Y-55524D02*
D03*
X87188Y-58883D02*
D03*
X96487Y-64809D02*
D03*
X96695Y-61453D02*
D03*
X94460Y-58941D02*
D03*
X92656Y-56104D02*
D03*
Y-52741D02*
D03*
Y-49379D02*
D03*
Y-46017D02*
D03*
Y-42655D02*
D03*
Y-39293D02*
D03*
X58333Y64516D02*
D03*
X56325Y61820D02*
D03*
X55754Y58506D02*
D03*
X53376Y56129D02*
D03*
X50999Y53751D02*
D03*
X48621Y51374D02*
D03*
X46244Y48997D02*
D03*
X43867Y46619D02*
D03*
X41489Y44242D02*
D03*
X39112Y41864D02*
D03*
X36734Y39487D02*
D03*
X34357Y37109D02*
D03*
X32291Y34456D02*
D03*
X31086Y31318D02*
D03*
X30844Y27964D02*
D03*
Y24602D02*
D03*
Y21240D02*
D03*
Y17878D02*
D03*
Y14515D02*
D03*
X30887Y11153D02*
D03*
X31433Y7836D02*
D03*
X32754Y4744D02*
D03*
X34744Y2034D02*
D03*
X36975Y-482D02*
D03*
X40099Y-11665D02*
D03*
X46503Y-3691D02*
D03*
X49812Y-4288D02*
D03*
X52522Y-6278D02*
D03*
X54899Y-8656D02*
D03*
X57549Y-10725D02*
D03*
X60658Y-12005D02*
D03*
X63997Y-12397D02*
D03*
X73086Y-10841D02*
D03*
X72773Y-7494D02*
D03*
X62967Y-7035D02*
D03*
X59802Y-5899D02*
D03*
X57353Y-3596D02*
D03*
X54912Y-1283D02*
D03*
X52056Y490D02*
D03*
X48833Y1448D02*
D03*
X45475Y1622D02*
D03*
X42157Y2166D02*
D03*
X39747Y4510D02*
D03*
X37550Y7055D02*
D03*
X36317Y10183D02*
D03*
X36156Y13541D02*
D03*
Y16904D02*
D03*
Y20266D02*
D03*
Y23628D02*
D03*
Y26990D02*
D03*
X36305Y30349D02*
D03*
X38008Y33248D02*
D03*
X40386Y35625D02*
D03*
X42763Y38003D02*
D03*
X45141Y40380D02*
D03*
X47518Y42757D02*
D03*
X49896Y45135D02*
D03*
X52273Y47512D02*
D03*
X54650Y49890D02*
D03*
X57028Y52267D02*
D03*
X59405Y54645D02*
D03*
X62704Y55297D02*
D03*
X65449Y57237D02*
D03*
X66416Y60458D02*
D03*
X65195Y63590D02*
D03*
X62309Y65316D02*
D03*
X60448Y-26312D02*
D03*
X57165Y-27035D02*
D03*
X44901Y-35270D02*
D03*
X75563Y-25379D02*
D03*
X72225Y-24979D02*
D03*
X68923Y-24344D02*
D03*
X65561D02*
D03*
X81604Y-25355D02*
D03*
X78523Y-26701D02*
D03*
X78905Y-32754D02*
D03*
X99612Y-30416D02*
D03*
X98895Y-27131D02*
D03*
X95756Y-25927D02*
D03*
X92417Y-26326D02*
D03*
X89079Y-25927D02*
D03*
X85741Y-25524D02*
D03*
X33249Y-13371D02*
D03*
X32855Y-16710D02*
D03*
X33011Y-20069D02*
D03*
X33604Y-23379D02*
D03*
Y-26741D02*
D03*
Y-30103D02*
D03*
Y-33465D02*
D03*
X33572Y-36827D02*
D03*
X22239Y-41751D02*
D03*
X34072Y-43829D02*
D03*
X36832Y-41909D02*
D03*
X38520Y-39001D02*
D03*
X38916Y-35662D02*
D03*
Y-32300D02*
D03*
Y-28938D02*
D03*
Y-25576D02*
D03*
Y-22214D02*
D03*
X39665Y-18936D02*
D03*
Y-15574D02*
D03*
D54*
X183319Y154949D02*
D03*
X178398Y145106D02*
D03*
X183319Y135264D02*
D03*
X178398Y125421D02*
D03*
X183319Y115579D02*
D03*
X178398Y105736D02*
D03*
X183319Y95894D02*
D03*
X178398Y86051D02*
D03*
X183319Y76209D02*
D03*
X178398Y66366D02*
D03*
X183319Y56524D02*
D03*
X178398Y46681D02*
D03*
X183319Y36839D02*
D03*
X168555Y164791D02*
D03*
X173476Y154949D02*
D03*
Y135264D02*
D03*
Y115579D02*
D03*
Y95894D02*
D03*
Y76209D02*
D03*
Y56524D02*
D03*
Y36839D02*
D03*
X158713Y184476D02*
D03*
X163634Y174634D02*
D03*
X158713Y-32059D02*
D03*
Y-51744D02*
D03*
Y-71429D02*
D03*
Y-91114D02*
D03*
Y-110799D02*
D03*
X148870Y184476D02*
D03*
X153791Y174634D02*
D03*
Y17154D02*
D03*
X148870Y-12374D02*
D03*
X153791Y-22217D02*
D03*
X148870Y-32059D02*
D03*
X153791Y-41902D02*
D03*
X148870Y-51744D02*
D03*
X153791Y-61587D02*
D03*
X148870Y-71429D02*
D03*
X153791Y-81272D02*
D03*
X148870Y-91114D02*
D03*
X153791Y-100957D02*
D03*
X148870Y-110799D02*
D03*
X153791Y-120642D02*
D03*
X139028Y184476D02*
D03*
X143949Y174634D02*
D03*
X139028Y145106D02*
D03*
X143949Y135264D02*
D03*
Y17154D02*
D03*
Y-2531D02*
D03*
Y-22217D02*
D03*
X139028Y-32059D02*
D03*
X143949Y-41902D02*
D03*
X139028Y-51744D02*
D03*
X143949Y-61587D02*
D03*
Y-81272D02*
D03*
X139028Y-91114D02*
D03*
X143949Y-100957D02*
D03*
X139028Y-110799D02*
D03*
X143949Y-120642D02*
D03*
X129185Y184476D02*
D03*
X134106Y174634D02*
D03*
X129185Y145106D02*
D03*
Y125421D02*
D03*
X134106Y115579D02*
D03*
X129185Y105736D02*
D03*
X134106Y95894D02*
D03*
X129185Y66366D02*
D03*
X134106Y17154D02*
D03*
Y-2531D02*
D03*
X129185Y-12374D02*
D03*
X134106Y-22217D02*
D03*
X129185Y-32059D02*
D03*
X134106Y-41902D02*
D03*
X129185Y-51744D02*
D03*
X134106Y-61587D02*
D03*
X129185Y-91114D02*
D03*
X134106Y-100957D02*
D03*
Y-120642D02*
D03*
X129185Y-130484D02*
D03*
X119343Y184476D02*
D03*
X124264Y174634D02*
D03*
X119343Y145106D02*
D03*
X124264Y135264D02*
D03*
X119343Y125421D02*
D03*
X124264Y115579D02*
D03*
X119343Y105736D02*
D03*
Y86051D02*
D03*
X124264Y76209D02*
D03*
X119343Y66366D02*
D03*
X124264Y56524D02*
D03*
Y17154D02*
D03*
Y-2531D02*
D03*
Y-22217D02*
D03*
X119343Y-32059D02*
D03*
X124264Y-41902D02*
D03*
X119343Y-51744D02*
D03*
X124264Y-61587D02*
D03*
X109500Y184476D02*
D03*
X114421Y174634D02*
D03*
X109500Y145106D02*
D03*
X114421Y135264D02*
D03*
X109500Y125421D02*
D03*
X114421Y115579D02*
D03*
X109500Y86051D02*
D03*
X114421Y76209D02*
D03*
X109500Y66366D02*
D03*
X114421Y56524D02*
D03*
Y17154D02*
D03*
X109500Y-91114D02*
D03*
X99657Y184476D02*
D03*
X104579Y174634D02*
D03*
X99657Y145106D02*
D03*
X104579Y135264D02*
D03*
X99657Y125421D02*
D03*
Y105736D02*
D03*
X104579Y95894D02*
D03*
X99657Y86051D02*
D03*
X104579Y76209D02*
D03*
Y56524D02*
D03*
Y17154D02*
D03*
X99657Y-51744D02*
D03*
Y-71429D02*
D03*
X104579Y-81272D02*
D03*
X99657Y-91114D02*
D03*
X104579Y-100957D02*
D03*
X89815Y184476D02*
D03*
X94736Y174634D02*
D03*
X89815Y145106D02*
D03*
X94736Y135264D02*
D03*
X89815Y105736D02*
D03*
X94736Y95894D02*
D03*
X89815Y86051D02*
D03*
X94736Y76209D02*
D03*
X89815Y66366D02*
D03*
X94736Y17154D02*
D03*
Y-81272D02*
D03*
X89815Y-91114D02*
D03*
X94736Y-100957D02*
D03*
X79972Y184476D02*
D03*
X84894Y174634D02*
D03*
X79972Y145106D02*
D03*
Y125421D02*
D03*
X84894Y115579D02*
D03*
X79972Y105736D02*
D03*
X84894Y95894D02*
D03*
X79972Y86051D02*
D03*
X84894Y76209D02*
D03*
X79972Y66366D02*
D03*
X84894Y56524D02*
D03*
Y17154D02*
D03*
Y-81272D02*
D03*
X79972Y-91114D02*
D03*
X70130Y184476D02*
D03*
X75051Y174634D02*
D03*
X70130Y145106D02*
D03*
X75051Y115579D02*
D03*
X70130Y105736D02*
D03*
X75051Y95894D02*
D03*
X70130Y86051D02*
D03*
X75051Y76209D02*
D03*
X70130Y66366D02*
D03*
X75051Y56524D02*
D03*
Y17154D02*
D03*
X70130Y-51744D02*
D03*
X75051Y-61587D02*
D03*
X70130Y-71429D02*
D03*
X60287Y184476D02*
D03*
X65209Y174634D02*
D03*
X60287Y145106D02*
D03*
Y125421D02*
D03*
X65209Y115579D02*
D03*
X60287Y105736D02*
D03*
X65209Y95894D02*
D03*
X60287Y86051D02*
D03*
X65209Y76209D02*
D03*
Y17154D02*
D03*
X60287Y-51744D02*
D03*
X65209Y-61587D02*
D03*
X60287Y-71429D02*
D03*
X65209Y-100957D02*
D03*
X50445Y184476D02*
D03*
X55366Y174634D02*
D03*
X50445Y125421D02*
D03*
X55366Y115579D02*
D03*
X50445Y105736D02*
D03*
X55366Y95894D02*
D03*
X50445Y86051D02*
D03*
X55366Y76209D02*
D03*
Y17154D02*
D03*
X50445Y-51744D02*
D03*
X55366Y-61587D02*
D03*
X50445Y-71429D02*
D03*
Y-130484D02*
D03*
X40602Y184476D02*
D03*
X45524Y174634D02*
D03*
Y17154D02*
D03*
X40602Y-51744D02*
D03*
X45524Y-61587D02*
D03*
X40602Y-71429D02*
D03*
X45524Y-120642D02*
D03*
X40602Y-130484D02*
D03*
X30760Y184476D02*
D03*
X35681Y174634D02*
D03*
Y-61587D02*
D03*
X25839Y154949D02*
D03*
X20917Y145106D02*
D03*
X25839Y135264D02*
D03*
X20917Y125421D02*
D03*
X25839Y115579D02*
D03*
X20917Y105736D02*
D03*
X25839Y95894D02*
D03*
X20917Y86051D02*
D03*
X25839Y76209D02*
D03*
X20917Y66366D02*
D03*
X25839Y56524D02*
D03*
X20917Y46681D02*
D03*
X25839Y36839D02*
D03*
Y-2531D02*
D03*
X20917Y-12374D02*
D03*
X25839Y-22217D02*
D03*
X11075Y164791D02*
D03*
X15996Y154949D02*
D03*
X11075Y145106D02*
D03*
X15996Y135264D02*
D03*
X11075Y125421D02*
D03*
X15996Y115579D02*
D03*
X11075Y105736D02*
D03*
X15996Y95894D02*
D03*
X11075Y86051D02*
D03*
X15996Y76209D02*
D03*
X11075Y66366D02*
D03*
X15996Y56524D02*
D03*
X11075Y46681D02*
D03*
X15996Y36839D02*
D03*
Y-2531D02*
D03*
X11075Y-12374D02*
D03*
X15996Y-61587D02*
D03*
X11075Y-71429D02*
D03*
X15996Y-81272D02*
D03*
X11075Y-91114D02*
D03*
X15996Y-100957D02*
D03*
X11075Y-110799D02*
D03*
X15996Y-120642D02*
D03*
D55*
X21500Y-38000D02*
D03*
X71000Y-44500D02*
D03*
X66000Y-40500D02*
D03*
X63500Y-21500D02*
D03*
X47000Y-15500D02*
D03*
X81500Y0D02*
D03*
X71000Y4500D02*
D03*
X66000Y-500D02*
D03*
X47000Y-11000D02*
D03*
X32000Y-8000D02*
D03*
Y-3000D02*
D03*
X44500Y-44000D02*
D03*
Y-40000D02*
D03*
X56000Y-36500D02*
D03*
X56500Y-40000D02*
D03*
Y-43500D02*
D03*
X9000Y-40500D02*
D03*
X13000Y-40000D02*
D03*
X17500Y-54000D02*
D03*
X12000Y-49500D02*
D03*
X99500Y-37000D02*
D03*
X82000Y-49000D02*
D03*
X129500Y-83000D02*
D03*
X111000Y-123500D02*
D03*
X76500Y-112500D02*
D03*
X107000Y-121500D02*
D03*
X135000Y-82000D02*
D03*
X124500Y-77500D02*
D03*
X72210Y-103518D02*
D03*
X76789Y-106888D02*
D03*
X109500Y-114500D02*
D03*
X112000Y-111500D02*
D03*
M02*
