G04*
G04 #@! TF.GenerationSoftware,Altium Limited,Altium Designer,22.4.2 (48)*
G04*
G04 Layer_Physical_Order=1*
G04 Layer_Color=255*
%FSLAX25Y25*%
%MOIN*%
G70*
G04*
G04 #@! TF.SameCoordinates,EE9FD93B-DFF2-4F26-82DF-D5074B5D0FFF*
G04*
G04*
G04 #@! TF.FilePolarity,Positive*
G04*
G01*
G75*
%ADD20R,0.03543X0.03150*%
%ADD21R,0.08858X0.09252*%
%ADD22R,0.03150X0.03543*%
%ADD23R,0.02362X0.05906*%
%ADD24R,0.02362X0.04724*%
G04:AMPARAMS|DCode=25|XSize=37.4mil|YSize=37.4mil|CornerRadius=9.35mil|HoleSize=0mil|Usage=FLASHONLY|Rotation=180.000|XOffset=0mil|YOffset=0mil|HoleType=Round|Shape=RoundedRectangle|*
%AMROUNDEDRECTD25*
21,1,0.03740,0.01870,0,0,180.0*
21,1,0.01870,0.03740,0,0,180.0*
1,1,0.01870,-0.00935,0.00935*
1,1,0.01870,0.00935,0.00935*
1,1,0.01870,0.00935,-0.00935*
1,1,0.01870,-0.00935,-0.00935*
%
%ADD25ROUNDEDRECTD25*%
%ADD26R,0.04724X0.02362*%
%ADD27R,0.05315X0.01575*%
%ADD28R,0.05512X0.06299*%
%ADD29R,0.06299X0.07480*%
%ADD30R,0.04134X0.02362*%
%ADD31O,0.01575X0.06299*%
%ADD32O,0.06890X0.02165*%
%ADD33O,0.02165X0.06890*%
%ADD34R,0.02362X0.04724*%
%ADD35O,0.06693X0.01378*%
G04:AMPARAMS|DCode=36|XSize=37.4mil|YSize=37.4mil|CornerRadius=9.35mil|HoleSize=0mil|Usage=FLASHONLY|Rotation=270.000|XOffset=0mil|YOffset=0mil|HoleType=Round|Shape=RoundedRectangle|*
%AMROUNDEDRECTD36*
21,1,0.03740,0.01870,0,0,270.0*
21,1,0.01870,0.03740,0,0,270.0*
1,1,0.01870,-0.00935,-0.00935*
1,1,0.01870,-0.00935,0.00935*
1,1,0.01870,0.00935,0.00935*
1,1,0.01870,0.00935,-0.00935*
%
%ADD36ROUNDEDRECTD36*%
%ADD37R,0.04331X0.02362*%
%ADD65C,0.01575*%
%ADD66C,0.00799*%
%ADD67R,0.07087X0.03150*%
%ADD68C,0.00965*%
%ADD69C,0.02756*%
%ADD70C,0.05512*%
%ADD71C,0.07677*%
%ADD72C,0.05906*%
%ADD73R,0.05906X0.05906*%
%ADD74C,0.05878*%
%ADD75R,0.05906X0.05906*%
%ADD76C,0.03543*%
%ADD77C,0.01968*%
%ADD78C,0.03150*%
%ADD79C,0.07087*%
G36*
X188167Y190346D02*
X188895Y190045D01*
X189550Y189607D01*
X190107Y189050D01*
X190545Y188395D01*
X190846Y187667D01*
X191000Y186894D01*
Y186500D01*
Y11000D01*
Y10458D01*
X190789Y9396D01*
X190374Y8395D01*
X190110Y8000D01*
X195073D01*
Y-20471D01*
X189000D01*
X188415Y-20587D01*
X187919Y-20919D01*
X187587Y-21415D01*
X187471Y-22000D01*
Y-52000D01*
Y-83000D01*
Y-113000D01*
X187587Y-113585D01*
X187919Y-114081D01*
X188415Y-114413D01*
X189000Y-114529D01*
X194615D01*
X194969Y-114883D01*
X194925Y-160423D01*
X1281D01*
Y-79252D01*
Y-46007D01*
X1781Y-45799D01*
X4029Y-48047D01*
X3822Y-48547D01*
X2547D01*
Y-56453D01*
X9774D01*
Y-62038D01*
X9774Y-62038D01*
X9499Y-62373D01*
X5894D01*
X5081Y-62534D01*
X4392Y-62994D01*
X3932Y-63683D01*
X3770Y-64496D01*
X3932Y-65309D01*
X4182Y-65683D01*
X4359Y-66071D01*
X4182Y-66459D01*
X3932Y-66833D01*
X3770Y-67646D01*
X3932Y-68458D01*
X4182Y-68833D01*
X4359Y-69221D01*
X4182Y-69608D01*
X3932Y-69983D01*
X3770Y-70795D01*
X3932Y-71608D01*
X4392Y-72297D01*
Y-72443D01*
X3932Y-73132D01*
X3770Y-73945D01*
X3932Y-74757D01*
X4182Y-75132D01*
X4359Y-75520D01*
X4182Y-75907D01*
X3932Y-76282D01*
X3770Y-77095D01*
X3932Y-77907D01*
X4392Y-78596D01*
X5081Y-79056D01*
X5894Y-79218D01*
X10618D01*
X11431Y-79056D01*
X12120Y-78596D01*
X12580Y-77907D01*
X12742Y-77095D01*
X12693Y-76849D01*
X13018Y-76544D01*
X13137Y-76520D01*
X13784D01*
X14439Y-76344D01*
X15026Y-76005D01*
X15505Y-75526D01*
X15844Y-74939D01*
X15974Y-74452D01*
X16475Y-74518D01*
Y-98171D01*
X15974Y-98438D01*
X15565Y-98164D01*
X14752Y-98002D01*
X13939Y-98164D01*
X13250Y-98624D01*
X12790Y-99313D01*
X12629Y-100126D01*
Y-104850D01*
X12790Y-105663D01*
X13250Y-106352D01*
X13325Y-106402D01*
Y-108252D01*
X13325Y-108252D01*
X13434Y-108798D01*
X13743Y-109261D01*
X17817Y-113335D01*
Y-114228D01*
X16669D01*
Y-119772D01*
X21681D01*
X21819Y-119772D01*
X22181D01*
X22319Y-119772D01*
X25313D01*
X27246Y-121705D01*
X27079Y-122110D01*
X27079D01*
Y-128835D01*
X38527D01*
X38734Y-129335D01*
X36903Y-131165D01*
X34559D01*
Y-137890D01*
X38921D01*
Y-133184D01*
X43178Y-128927D01*
X45994D01*
X46000Y-128950D01*
X46494Y-129806D01*
X47194Y-130506D01*
X48050Y-131000D01*
X49005Y-131256D01*
X49995D01*
X50950Y-131000D01*
X51806Y-130506D01*
X52505Y-129806D01*
X53000Y-128950D01*
X53256Y-127995D01*
Y-127006D01*
X53000Y-126050D01*
X52505Y-125194D01*
X51806Y-124495D01*
X50950Y-124000D01*
X49995Y-123744D01*
X49005D01*
X48050Y-124000D01*
X47194Y-124495D01*
X46494Y-125194D01*
X46000Y-126050D01*
X45994Y-126073D01*
X42587D01*
X42587Y-126073D01*
X42041Y-126182D01*
X41578Y-126491D01*
X41578Y-126491D01*
X39421Y-128647D01*
X38921Y-128440D01*
Y-124128D01*
X39765Y-123285D01*
X39765Y-123285D01*
X40074Y-122822D01*
X40183Y-122276D01*
X40183Y-122275D01*
Y-119772D01*
X41331D01*
Y-114228D01*
X36181D01*
Y-114228D01*
X35819D01*
Y-114228D01*
X32687D01*
X29502Y-111043D01*
X29515Y-110919D01*
X30053Y-110546D01*
X30161Y-110575D01*
X30839D01*
X30903Y-110558D01*
X31075Y-110689D01*
X31250Y-111344D01*
X31589Y-111931D01*
X32069Y-112411D01*
X32656Y-112750D01*
X33311Y-112925D01*
X33989D01*
X34643Y-112750D01*
X35231Y-112411D01*
X35710Y-111931D01*
X36049Y-111344D01*
X36157Y-110940D01*
X36661Y-111075D01*
X37339D01*
X37374Y-111102D01*
Y-111288D01*
X37549Y-111943D01*
X37889Y-112530D01*
X38368Y-113009D01*
X38955Y-113348D01*
X39610Y-113524D01*
X40288D01*
X40943Y-113348D01*
X41530Y-113009D01*
X42009Y-112530D01*
X42348Y-111943D01*
X42488Y-111421D01*
X42759Y-110976D01*
X43437D01*
X43758Y-111408D01*
X43849Y-111746D01*
X44188Y-112333D01*
X44667Y-112812D01*
X45254Y-113151D01*
X45909Y-113327D01*
X46587D01*
X47242Y-113151D01*
X47829Y-112812D01*
X48308Y-112333D01*
X48647Y-111746D01*
X48823Y-111091D01*
Y-110413D01*
X48647Y-109758D01*
X48308Y-109171D01*
X47829Y-108692D01*
X47675Y-108603D01*
Y-106402D01*
X47750Y-106352D01*
X48210Y-105663D01*
X48371Y-104850D01*
Y-101049D01*
X48833Y-100858D01*
X52488Y-104512D01*
X52488Y-104512D01*
X52812Y-104729D01*
X52834Y-104738D01*
X52954Y-104818D01*
X53096Y-104847D01*
X53118Y-104856D01*
X53500Y-104932D01*
X59957D01*
Y-110406D01*
Y-114736D01*
Y-119067D01*
X69043D01*
Y-115045D01*
X69488Y-114670D01*
X69543Y-114661D01*
X69822Y-114736D01*
X70500D01*
X71155Y-114561D01*
X71742Y-114222D01*
X72222Y-113742D01*
X72561Y-113155D01*
X72736Y-112500D01*
Y-111822D01*
X72561Y-111168D01*
X72222Y-110580D01*
X71742Y-110101D01*
X71155Y-109762D01*
X70500Y-109587D01*
X69822D01*
X69543Y-109661D01*
X69488Y-109653D01*
X69043Y-109278D01*
Y-106075D01*
Y-100925D01*
X59957D01*
Y-102068D01*
X57201D01*
X57067Y-101568D01*
X57081Y-101560D01*
X57560Y-101081D01*
X57899Y-100494D01*
X58075Y-99839D01*
Y-99161D01*
X57899Y-98506D01*
X57560Y-97919D01*
X57081Y-97440D01*
X56968Y-96955D01*
X57068Y-96805D01*
X57138Y-96453D01*
X57694Y-96219D01*
X58006Y-96399D01*
X58661Y-96575D01*
X59339D01*
X59994Y-96399D01*
X60581Y-96060D01*
X61060Y-95581D01*
X61399Y-94994D01*
X61575Y-94339D01*
Y-93661D01*
X61399Y-93006D01*
X61060Y-92419D01*
X60581Y-91940D01*
X59994Y-91601D01*
X60110Y-91114D01*
X60422Y-91114D01*
X60422Y-91114D01*
X60440Y-91114D01*
X69043D01*
Y-85965D01*
X59957D01*
Y-90671D01*
X59957Y-91073D01*
X59796Y-91548D01*
X59339Y-91425D01*
X58943D01*
X57227Y-89709D01*
X57230Y-89693D01*
X57068Y-88880D01*
X56818Y-88506D01*
X56641Y-88118D01*
X56818Y-87730D01*
X57068Y-87356D01*
X57230Y-86543D01*
X57068Y-85731D01*
X56818Y-85356D01*
X56641Y-84969D01*
X56818Y-84581D01*
X57068Y-84206D01*
X57230Y-83394D01*
X57068Y-82581D01*
X56608Y-81892D01*
Y-81746D01*
X57068Y-81057D01*
X57230Y-80244D01*
X57068Y-79431D01*
X56608Y-78743D01*
X56818Y-78282D01*
X57068Y-77907D01*
X57230Y-77095D01*
X57068Y-76282D01*
X56608Y-75593D01*
Y-75446D01*
X57068Y-74757D01*
X57230Y-73945D01*
X57204Y-73814D01*
X58375Y-72644D01*
X59957D01*
Y-78122D01*
Y-82453D01*
X69043D01*
Y-82453D01*
X69172Y-82354D01*
X69539Y-82453D01*
X70217D01*
X70872Y-82277D01*
X71459Y-81938D01*
X71938Y-81459D01*
X72277Y-80872D01*
X72453Y-80217D01*
Y-79539D01*
X72277Y-78884D01*
X71938Y-78297D01*
X71459Y-77818D01*
X70872Y-77479D01*
X70217Y-77303D01*
X69539D01*
X69440Y-77330D01*
X69043Y-77025D01*
Y-73791D01*
Y-69461D01*
Y-65130D01*
Y-60799D01*
Y-55650D01*
X59957D01*
Y-60799D01*
Y-65130D01*
Y-66623D01*
X58950D01*
X58403Y-66732D01*
X57941Y-67041D01*
X57941Y-67041D01*
X57673Y-67309D01*
X57130Y-67145D01*
X57068Y-66833D01*
X56608Y-66144D01*
Y-65998D01*
X57068Y-65309D01*
X57230Y-64496D01*
X57068Y-63683D01*
X56608Y-62995D01*
X56138Y-62681D01*
Y-47386D01*
X66593Y-36932D01*
X112500D01*
X112882Y-36856D01*
X112882Y-36856D01*
X112904Y-36847D01*
X113046Y-36818D01*
X113166Y-36738D01*
X113188Y-36729D01*
X113512Y-36512D01*
X113512Y-36512D01*
X120012Y-30012D01*
X120012Y-30012D01*
X120229Y-29688D01*
X120238Y-29666D01*
X120318Y-29546D01*
X120347Y-29404D01*
X120356Y-29382D01*
X120432Y-29000D01*
Y-25770D01*
X120690Y-25718D01*
X121330Y-25291D01*
X121758Y-24651D01*
X121908Y-23896D01*
Y-22026D01*
X121758Y-21271D01*
X121330Y-20630D01*
Y-20369D01*
X121738Y-19759D01*
X121970Y-19729D01*
X122030D01*
X122262Y-19759D01*
X122670Y-20369D01*
X123310Y-20797D01*
X124065Y-20947D01*
X125935D01*
X126690Y-20797D01*
X127330Y-20369D01*
X127758Y-19729D01*
X127908Y-18974D01*
Y-17104D01*
X127758Y-16349D01*
X127330Y-15709D01*
X126690Y-15282D01*
X125935Y-15131D01*
X124065D01*
X123310Y-15282D01*
X122670Y-15709D01*
X122262Y-16320D01*
X122030Y-16349D01*
X121970D01*
X121738Y-16320D01*
X121330Y-15709D01*
X120690Y-15282D01*
X119935Y-15131D01*
X118065D01*
X117310Y-15282D01*
X117233Y-15333D01*
X115890D01*
Y-14579D01*
X114151D01*
Y-12764D01*
X114156D01*
X114030Y-11807D01*
X113661Y-10916D01*
X113369Y-10536D01*
Y-9565D01*
X113218Y-8810D01*
X112791Y-8170D01*
X112151Y-7742D01*
X111396Y-7592D01*
X109526D01*
X108771Y-7742D01*
X108131Y-8170D01*
X107870D01*
X107229Y-7742D01*
X106474Y-7592D01*
X104604D01*
X103849Y-7742D01*
X103209Y-8170D01*
X102782Y-8810D01*
X102631Y-9565D01*
Y-11435D01*
X102782Y-12190D01*
X103209Y-12830D01*
X103849Y-13258D01*
X104604Y-13408D01*
X104869D01*
X105157Y-13908D01*
X105101Y-14006D01*
X104947Y-14579D01*
X100110D01*
Y-18684D01*
X99610Y-18933D01*
X99258Y-18771D01*
X98830Y-18131D01*
Y-17869D01*
X99258Y-17229D01*
X99408Y-16474D01*
Y-14604D01*
X99258Y-13849D01*
X98830Y-13209D01*
X98190Y-12782D01*
X97435Y-12631D01*
X95565D01*
X94810Y-12782D01*
X94170Y-13209D01*
X93819Y-13734D01*
X93181D01*
X92830Y-13209D01*
X92190Y-12782D01*
X91435Y-12631D01*
X89565D01*
X88810Y-12782D01*
X88170Y-13209D01*
X88059Y-13376D01*
X87939Y-13370D01*
X87551Y-12850D01*
X87600Y-12602D01*
X87469Y-11943D01*
X87316Y-11715D01*
X87126Y-11323D01*
X87316Y-10931D01*
X87469Y-10702D01*
X87600Y-10043D01*
X87469Y-9384D01*
X87096Y-8826D01*
X86537Y-8452D01*
X85962Y-8338D01*
Y-6732D01*
X87110D01*
Y-1189D01*
X81961D01*
Y-6732D01*
X83108D01*
Y-8321D01*
X81030D01*
X80575Y-8089D01*
Y-7411D01*
X80448Y-6937D01*
X80575Y-6772D01*
X80575D01*
Y-1228D01*
X75425D01*
Y-6772D01*
X75425D01*
X75552Y-6937D01*
X75425Y-7411D01*
Y-8089D01*
X75601Y-8744D01*
X75940Y-9331D01*
X76419Y-9810D01*
X76573Y-9899D01*
Y-11500D01*
X76553D01*
X76740Y-12436D01*
X77270Y-13230D01*
X78064Y-13760D01*
X78772Y-13901D01*
X79011Y-14368D01*
X79013Y-14441D01*
X78972Y-14502D01*
X78841Y-15161D01*
X78972Y-15820D01*
X79345Y-16379D01*
X79904Y-16752D01*
X80563Y-16883D01*
X85878D01*
X86537Y-16752D01*
X86782Y-16588D01*
X87615D01*
X87742Y-17229D01*
X88170Y-17869D01*
X88810Y-18297D01*
X89565Y-18447D01*
X91435D01*
X92190Y-18297D01*
X92830Y-17869D01*
X93238Y-17259D01*
X93470Y-17229D01*
X93530D01*
X93762Y-17259D01*
X94170Y-17869D01*
Y-18131D01*
X93742Y-18771D01*
X93592Y-19526D01*
Y-21396D01*
X93742Y-22151D01*
X94170Y-22791D01*
X94299Y-22877D01*
X94653Y-23228D01*
Y-28772D01*
X99803D01*
X100197Y-29028D01*
Y-33272D01*
X105347D01*
Y-27728D01*
X104199D01*
Y-26421D01*
X106441D01*
Y-23596D01*
X106468Y-23459D01*
Y-22050D01*
X108009Y-20509D01*
X108009Y-20509D01*
X108318Y-20046D01*
X108427Y-19500D01*
Y-17417D01*
X108494Y-17399D01*
X109059Y-17073D01*
X109324Y-17138D01*
X109559Y-17236D01*
Y-18941D01*
X115890D01*
X116162Y-19328D01*
X116242Y-19729D01*
X116670Y-20369D01*
Y-20630D01*
X116242Y-21271D01*
X116162Y-21672D01*
X115890Y-22059D01*
X109559D01*
Y-26421D01*
X115890D01*
Y-25672D01*
X117240D01*
X117310Y-25718D01*
X117568Y-25770D01*
Y-28407D01*
X111907Y-34068D01*
X66000D01*
X66000Y-34068D01*
X65618Y-34144D01*
X65618Y-34144D01*
X65596Y-34153D01*
X65454Y-34182D01*
X65334Y-34262D01*
X65312Y-34271D01*
X64988Y-34488D01*
X64988Y-34488D01*
X53694Y-45781D01*
X53694Y-45781D01*
X53478Y-46105D01*
X53469Y-46127D01*
X53388Y-46247D01*
X53360Y-46389D01*
X53351Y-46411D01*
X53275Y-46793D01*
Y-62373D01*
X51305D01*
X51114Y-61911D01*
X52012Y-61012D01*
X52012Y-61012D01*
X52229Y-60688D01*
X52238Y-60666D01*
X52318Y-60546D01*
X52347Y-60404D01*
X52356Y-60382D01*
X52432Y-60000D01*
Y-30554D01*
X56328Y-26658D01*
X56741Y-26952D01*
X56684Y-27069D01*
X56531Y-27298D01*
X56400Y-27957D01*
X56531Y-28616D01*
X56904Y-29174D01*
X57463Y-29548D01*
X58122Y-29679D01*
X63437D01*
X64096Y-29548D01*
X64341Y-29384D01*
X64482D01*
X64925Y-29661D01*
Y-30339D01*
X65101Y-30994D01*
X65440Y-31581D01*
X65919Y-32060D01*
X66506Y-32399D01*
X67161Y-32575D01*
X67839D01*
X68494Y-32399D01*
X69081Y-32060D01*
X69560Y-31581D01*
X69899Y-30994D01*
X70075Y-30339D01*
Y-29661D01*
X69899Y-29006D01*
X69560Y-28419D01*
X69081Y-27940D01*
X68842Y-27802D01*
X68760Y-27177D01*
X68958Y-26979D01*
X69297Y-26392D01*
X69472Y-25737D01*
Y-25059D01*
X69297Y-24404D01*
X68958Y-23817D01*
X68479Y-23337D01*
X67892Y-22998D01*
X67237Y-22823D01*
X66559D01*
X65904Y-22998D01*
X65602Y-23172D01*
X65156Y-22852D01*
X65159Y-22839D01*
X65028Y-22180D01*
X64655Y-21621D01*
X64096Y-21248D01*
X63437Y-21116D01*
X58122D01*
X57463Y-21248D01*
X56904Y-21621D01*
X56531Y-22180D01*
X56475Y-22461D01*
X49988Y-28948D01*
X49988Y-28948D01*
X49771Y-29272D01*
X49762Y-29294D01*
X49682Y-29414D01*
X49653Y-29556D01*
X49644Y-29578D01*
X49568Y-29961D01*
Y-59407D01*
X48871Y-60104D01*
X48371Y-59897D01*
Y-55638D01*
X48210Y-54825D01*
X47750Y-54136D01*
X47680Y-54090D01*
Y-50748D01*
X47604Y-50366D01*
X47604Y-50366D01*
X47595Y-50344D01*
X47566Y-50202D01*
X47486Y-50082D01*
X47477Y-50060D01*
X47260Y-49736D01*
X47260Y-49736D01*
X31192Y-33667D01*
Y-21783D01*
X31941D01*
Y-15059D01*
X27579D01*
Y-21783D01*
X28328D01*
Y-34260D01*
X28404Y-34642D01*
X28404Y-34642D01*
X28413Y-34664D01*
X28441Y-34806D01*
X28522Y-34926D01*
X28531Y-34948D01*
X28747Y-35272D01*
X28747Y-35272D01*
X44816Y-51341D01*
Y-53680D01*
X44316Y-53947D01*
X43911Y-53676D01*
X43098Y-53514D01*
X42286Y-53676D01*
X41597Y-54136D01*
X41450D01*
X40761Y-53676D01*
X39949Y-53514D01*
X39136Y-53676D01*
X38447Y-54136D01*
X37987Y-54825D01*
X37825Y-55638D01*
Y-60362D01*
X37987Y-61175D01*
X38447Y-61864D01*
X39136Y-62324D01*
X39949Y-62486D01*
X40761Y-62324D01*
X41450Y-61864D01*
X41597D01*
X42286Y-62324D01*
X42760Y-62418D01*
X44354Y-64012D01*
X44354Y-64012D01*
X44678Y-64229D01*
X44700Y-64238D01*
X44820Y-64318D01*
X44962Y-64347D01*
X44984Y-64356D01*
X45366Y-64432D01*
X45367Y-64432D01*
X47775D01*
X48258Y-64496D01*
X48420Y-65309D01*
X48691Y-65714D01*
X48424Y-66214D01*
X47854D01*
X47854Y-66214D01*
X47472Y-66290D01*
X47472Y-66290D01*
X47450Y-66299D01*
X47308Y-66327D01*
X47188Y-66408D01*
X47166Y-66417D01*
X46842Y-66633D01*
X46842Y-66633D01*
X39988Y-73488D01*
X39988Y-73488D01*
X39771Y-73812D01*
X39762Y-73834D01*
X39682Y-73954D01*
X39653Y-74096D01*
X39644Y-74118D01*
X39568Y-74500D01*
Y-91000D01*
X39644Y-91382D01*
X39644Y-91382D01*
X39653Y-91404D01*
X39682Y-91546D01*
X39762Y-91666D01*
X39771Y-91688D01*
X39988Y-92012D01*
X39988Y-92012D01*
X45648Y-97672D01*
X45502Y-98151D01*
X45435Y-98164D01*
X45061Y-98414D01*
X44673Y-98591D01*
X44286Y-98414D01*
X43911Y-98164D01*
X43098Y-98002D01*
X42286Y-98164D01*
X41911Y-98414D01*
X41524Y-98591D01*
X41136Y-98414D01*
X40761Y-98164D01*
X39949Y-98002D01*
X39136Y-98164D01*
X38447Y-98624D01*
X38301D01*
X37612Y-98164D01*
X36799Y-98002D01*
X35987Y-98164D01*
X35612Y-98414D01*
X35224Y-98591D01*
X34837Y-98414D01*
X34462Y-98164D01*
X33650Y-98002D01*
X32837Y-98164D01*
X32462Y-98414D01*
X32002Y-98624D01*
X31313Y-98164D01*
X30500Y-98002D01*
X29687Y-98164D01*
X29313Y-98414D01*
X28925Y-98591D01*
X28537Y-98414D01*
X28163Y-98164D01*
X27350Y-98002D01*
X27104Y-98051D01*
X26800Y-97726D01*
X26776Y-97607D01*
Y-96960D01*
X26600Y-96305D01*
X26261Y-95718D01*
X25782Y-95239D01*
X25195Y-94900D01*
X24540Y-94724D01*
X23862D01*
X23207Y-94900D01*
X22620Y-95239D01*
X22140Y-95718D01*
X21801Y-96305D01*
X21626Y-96960D01*
Y-97638D01*
X21801Y-98293D01*
X22140Y-98880D01*
X22373Y-99113D01*
X22239Y-99313D01*
X22077Y-100126D01*
Y-104850D01*
X22239Y-105663D01*
X22699Y-106352D01*
X23388Y-106812D01*
X24201Y-106974D01*
X25013Y-106812D01*
X25388Y-106562D01*
X25431Y-106542D01*
X25923Y-106806D01*
Y-110909D01*
X25923Y-110909D01*
X26032Y-111456D01*
X26341Y-111918D01*
X30669Y-116246D01*
Y-119189D01*
X30440Y-119419D01*
X30170Y-119886D01*
X29629Y-120052D01*
X27331Y-117754D01*
Y-114228D01*
X22319D01*
X22181Y-114228D01*
X21819D01*
X21681Y-114228D01*
X20671D01*
Y-112744D01*
X20671Y-112744D01*
X20562Y-112198D01*
X20253Y-111735D01*
X20253Y-111735D01*
X16179Y-107661D01*
Y-106806D01*
X16679Y-106538D01*
X17089Y-106812D01*
X17902Y-106974D01*
X18714Y-106812D01*
X19403Y-106352D01*
X19863Y-105663D01*
X20025Y-104850D01*
Y-100126D01*
X19863Y-99313D01*
X19403Y-98624D01*
X19329Y-98575D01*
Y-68739D01*
X19220Y-68193D01*
X18911Y-67730D01*
X18911Y-67730D01*
X16070Y-64889D01*
X16261Y-64427D01*
X18413D01*
X18413Y-64427D01*
X18959Y-64318D01*
X19422Y-64009D01*
X20963Y-62468D01*
X21051Y-62486D01*
X21864Y-62324D01*
X22553Y-61864D01*
X22699D01*
X23388Y-62324D01*
X24201Y-62486D01*
X25013Y-62324D01*
X25702Y-61864D01*
X25849D01*
X26538Y-62324D01*
X27350Y-62486D01*
X28163Y-62324D01*
X28852Y-61864D01*
X28999D01*
X29687Y-62324D01*
X30500Y-62486D01*
X31313Y-62324D01*
X32002Y-61864D01*
X32148D01*
X32837Y-62324D01*
X33650Y-62486D01*
X34462Y-62324D01*
X35151Y-61864D01*
X35611Y-61175D01*
X35773Y-60362D01*
Y-55638D01*
X35611Y-54825D01*
X35151Y-54136D01*
X34462Y-53676D01*
X33650Y-53514D01*
X32837Y-53676D01*
X32148Y-54136D01*
X32002D01*
X31313Y-53676D01*
X30500Y-53514D01*
X29687Y-53676D01*
X28999Y-54136D01*
X28852D01*
X28163Y-53676D01*
X27350Y-53514D01*
X26538Y-53676D01*
X25849Y-54136D01*
X25702D01*
X25013Y-53676D01*
X24201Y-53514D01*
X23388Y-53676D01*
X22699Y-54136D01*
X22553D01*
X21864Y-53676D01*
X21051Y-53514D01*
X20239Y-53676D01*
X19829Y-53950D01*
X19329Y-53683D01*
Y-23902D01*
X19220Y-23356D01*
X18911Y-22893D01*
X18911Y-22893D01*
X10132Y-14114D01*
X10183Y-14026D01*
X10453Y-13020D01*
Y-11980D01*
X10183Y-10974D01*
X9663Y-10073D01*
X8927Y-9337D01*
X8026Y-8817D01*
X7020Y-8547D01*
X5980D01*
X4974Y-8817D01*
X4073Y-9337D01*
X3337Y-10073D01*
X2817Y-10974D01*
X2547Y-11980D01*
Y-13020D01*
X2817Y-14026D01*
X3337Y-14927D01*
X4073Y-15663D01*
X4974Y-16183D01*
X5980Y-16453D01*
X7020D01*
X8026Y-16183D01*
X8114Y-16132D01*
X16475Y-24493D01*
Y-29911D01*
X15974Y-30062D01*
X15761Y-29743D01*
X15761Y-29743D01*
X10132Y-24114D01*
X10183Y-24026D01*
X10453Y-23020D01*
Y-21980D01*
X10183Y-20974D01*
X9663Y-20073D01*
X8927Y-19337D01*
X8026Y-18817D01*
X7020Y-18547D01*
X5980D01*
X4974Y-18817D01*
X4073Y-19337D01*
X3337Y-20073D01*
X2817Y-20974D01*
X2547Y-21980D01*
Y-23020D01*
X2817Y-24026D01*
X3337Y-24927D01*
X4073Y-25663D01*
X4974Y-26183D01*
X5980Y-26453D01*
X7020D01*
X8026Y-26183D01*
X8114Y-26132D01*
X13325Y-31343D01*
Y-46654D01*
X12863Y-46845D01*
X10132Y-44114D01*
X10183Y-44026D01*
X10453Y-43020D01*
Y-41980D01*
X10183Y-40974D01*
X9663Y-40073D01*
X8927Y-39337D01*
X8026Y-38817D01*
X7492Y-38674D01*
X7343Y-38116D01*
X7509Y-37950D01*
X7509Y-37950D01*
X7818Y-37487D01*
X7927Y-36941D01*
Y-36210D01*
X8026Y-36183D01*
X8927Y-35663D01*
X9663Y-34927D01*
X10183Y-34026D01*
X10453Y-33020D01*
Y-31980D01*
X10183Y-30974D01*
X9663Y-30073D01*
X8927Y-29337D01*
X8026Y-28817D01*
X7020Y-28547D01*
X5980D01*
X4974Y-28817D01*
X4073Y-29337D01*
X3337Y-30073D01*
X2817Y-30974D01*
X2547Y-31980D01*
Y-33020D01*
X2817Y-34026D01*
X3337Y-34927D01*
X4073Y-35663D01*
X4694Y-36022D01*
X4797Y-36624D01*
X4795Y-36628D01*
X1781Y-39641D01*
X1281Y-39434D01*
Y8000D01*
X6890D01*
X6626Y8395D01*
X6211Y9396D01*
X6000Y10458D01*
Y18500D01*
X5500Y186000D01*
Y186443D01*
X5673Y187313D01*
X6012Y188131D01*
X6505Y188869D01*
X7131Y189495D01*
X7868Y189988D01*
X8687Y190327D01*
X9557Y190500D01*
X187394D01*
X188167Y190346D01*
D02*
G37*
G36*
X48179Y-69444D02*
X48420Y-69983D01*
X48258Y-70795D01*
X48420Y-71608D01*
X48880Y-72297D01*
Y-72443D01*
X48420Y-73132D01*
X48258Y-73945D01*
X48296Y-74133D01*
X47979Y-74520D01*
X47756D01*
X47101Y-74695D01*
X46514Y-75034D01*
X46034Y-75513D01*
X45695Y-76101D01*
X45520Y-76755D01*
Y-77434D01*
X45605Y-77750D01*
X45250Y-77845D01*
X44663Y-78184D01*
X44184Y-78663D01*
X43845Y-79250D01*
X43669Y-79905D01*
Y-80583D01*
X43845Y-81238D01*
X44184Y-81825D01*
X44663Y-82304D01*
X45250Y-82643D01*
X45616Y-82741D01*
X45531Y-83055D01*
Y-83733D01*
X45707Y-84387D01*
X46046Y-84975D01*
X46525Y-85454D01*
X47113Y-85793D01*
X47767Y-85969D01*
X47979D01*
X48296Y-86355D01*
X48258Y-86543D01*
X48420Y-87356D01*
X48670Y-87730D01*
X48847Y-88118D01*
X48670Y-88506D01*
X48420Y-88880D01*
X48258Y-89693D01*
X48298Y-89893D01*
X47863Y-90268D01*
X47319D01*
X46664Y-90443D01*
X46077Y-90782D01*
X45597Y-91262D01*
X45258Y-91849D01*
X45115Y-92383D01*
X44630Y-92605D01*
X42432Y-90407D01*
Y-75093D01*
X48098Y-69426D01*
X48179Y-69444D01*
D02*
G37*
G36*
X53098Y-98571D02*
X52991Y-98828D01*
X52903Y-99500D01*
X52991Y-100172D01*
X53053Y-100321D01*
X52629Y-100605D01*
X50640Y-98616D01*
X50848Y-98116D01*
X52756D01*
X53098Y-98571D01*
D02*
G37*
%LPC*%
G36*
X177795Y186297D02*
X176166D01*
X176018Y186268D01*
X175868D01*
X174270Y185950D01*
X174131Y185892D01*
X173983Y185863D01*
X172479Y185240D01*
X172353Y185156D01*
X172214Y185098D01*
X170860Y184194D01*
X170754Y184087D01*
X170628Y184003D01*
X169477Y182852D01*
X169393Y182727D01*
X169287Y182620D01*
X168382Y181266D01*
X168324Y181127D01*
X168241Y181001D01*
X167617Y179497D01*
X167588Y179349D01*
X167530Y179210D01*
X167213Y177613D01*
Y177462D01*
X167183Y177314D01*
Y175686D01*
X167213Y175538D01*
Y175387D01*
X167530Y173790D01*
X167588Y173651D01*
X167617Y173503D01*
X168241Y171999D01*
X168324Y171873D01*
X168382Y171734D01*
X169287Y170380D01*
X169393Y170273D01*
X169477Y170148D01*
X170628Y168997D01*
X170754Y168913D01*
X170860Y168806D01*
X172214Y167902D01*
X172353Y167844D01*
X172479Y167760D01*
X173983Y167137D01*
X174131Y167108D01*
X174270Y167050D01*
X175868Y166732D01*
X176018D01*
X176166Y166703D01*
X177795D01*
X177942Y166732D01*
X178093D01*
X179690Y167050D01*
X179829Y167108D01*
X179977Y167137D01*
X181482Y167760D01*
X181607Y167844D01*
X181746Y167902D01*
X183100Y168806D01*
X183207Y168913D01*
X183332Y168997D01*
X184484Y170148D01*
X184567Y170273D01*
X184674Y170380D01*
X185579Y171734D01*
X185636Y171873D01*
X185720Y171999D01*
X186343Y173503D01*
X186373Y173651D01*
X186430Y173790D01*
X186748Y175387D01*
Y175538D01*
X186777Y175686D01*
Y177314D01*
X186748Y177462D01*
Y177613D01*
X186430Y179210D01*
X186373Y179349D01*
X186343Y179497D01*
X185720Y181001D01*
X185636Y181127D01*
X185579Y181266D01*
X184674Y182620D01*
X184567Y182727D01*
X184484Y182852D01*
X183332Y184003D01*
X183207Y184087D01*
X183100Y184194D01*
X181746Y185098D01*
X181607Y185156D01*
X181482Y185240D01*
X179977Y185863D01*
X179829Y185892D01*
X179690Y185950D01*
X178093Y186268D01*
X177942D01*
X177795Y186297D01*
D02*
G37*
G36*
X20314D02*
X18686D01*
X18538Y186268D01*
X18387D01*
X16790Y185950D01*
X16651Y185892D01*
X16503Y185863D01*
X14999Y185240D01*
X14873Y185156D01*
X14734Y185098D01*
X13380Y184194D01*
X13273Y184087D01*
X13148Y184003D01*
X11997Y182852D01*
X11913Y182727D01*
X11806Y182620D01*
X10902Y181266D01*
X10844Y181127D01*
X10760Y181001D01*
X10137Y179497D01*
X10108Y179349D01*
X10050Y179210D01*
X9732Y177613D01*
Y177462D01*
X9703Y177314D01*
Y175686D01*
X9732Y175538D01*
Y175387D01*
X10050Y173790D01*
X10108Y173651D01*
X10137Y173503D01*
X10760Y171999D01*
X10844Y171873D01*
X10902Y171734D01*
X11806Y170380D01*
X11913Y170273D01*
X11997Y170148D01*
X13148Y168997D01*
X13273Y168913D01*
X13380Y168806D01*
X14734Y167902D01*
X14873Y167844D01*
X14999Y167760D01*
X16503Y167137D01*
X16651Y167108D01*
X16790Y167050D01*
X18387Y166732D01*
X18538D01*
X18686Y166703D01*
X20314D01*
X20462Y166732D01*
X20613D01*
X22210Y167050D01*
X22349Y167108D01*
X22497Y167137D01*
X24002Y167760D01*
X24127Y167844D01*
X24266Y167902D01*
X25620Y168806D01*
X25727Y168913D01*
X25852Y168997D01*
X27003Y170148D01*
X27087Y170273D01*
X27194Y170380D01*
X28098Y171734D01*
X28156Y171873D01*
X28240Y171999D01*
X28863Y173503D01*
X28892Y173651D01*
X28950Y173790D01*
X29268Y175387D01*
Y175538D01*
X29297Y175686D01*
Y177314D01*
X29268Y177462D01*
Y177613D01*
X28950Y179210D01*
X28892Y179349D01*
X28863Y179497D01*
X28240Y181001D01*
X28156Y181127D01*
X28098Y181266D01*
X27194Y182620D01*
X27087Y182727D01*
X27003Y182852D01*
X25852Y184003D01*
X25727Y184087D01*
X25620Y184194D01*
X24266Y185098D01*
X24127Y185156D01*
X24002Y185240D01*
X22497Y185863D01*
X22349Y185892D01*
X22210Y185950D01*
X20613Y186268D01*
X20462D01*
X20314Y186297D01*
D02*
G37*
G36*
X157252Y167277D02*
X39252D01*
X38667Y167161D01*
X38170Y166830D01*
X37839Y166333D01*
X37725Y165762D01*
X37577Y165772D01*
X36360Y165648D01*
X35180Y165329D01*
X34068Y164822D01*
X33052Y164140D01*
X32161Y163303D01*
X31418Y162332D01*
X30843Y161253D01*
X30451Y160095D01*
X30252Y158889D01*
Y158277D01*
X29667Y158161D01*
X29171Y157829D01*
X28839Y157333D01*
X28723Y156748D01*
Y38248D01*
X28839Y37663D01*
X29171Y37167D01*
X29667Y36835D01*
X30252Y36719D01*
X30837Y36835D01*
X31333Y37167D01*
X41776Y47609D01*
X41785Y47600D01*
X41888Y47722D01*
X42217Y48050D01*
X42259Y48114D01*
X42318Y48162D01*
X43070Y49078D01*
X43106Y49145D01*
X43160Y49199D01*
X43819Y50185D01*
X43848Y50255D01*
X43896Y50314D01*
X44281Y51034D01*
X44288Y51046D01*
X44291Y51053D01*
X44455Y51360D01*
X44477Y51432D01*
X44519Y51495D01*
X44973Y52591D01*
X44988Y52666D01*
X45024Y52733D01*
X45368Y53868D01*
X45375Y53943D01*
X45404Y54013D01*
X45636Y55176D01*
Y55252D01*
X45658Y55325D01*
X45774Y56505D01*
X45767Y56581D01*
X45781Y56655D01*
Y57248D01*
Y137748D01*
Y138341D01*
X45767Y138416D01*
X45774Y138491D01*
X45658Y139671D01*
X45636Y139744D01*
Y139820D01*
X45475Y140629D01*
X45862Y141127D01*
X45866Y141129D01*
X46236D01*
X47938Y141467D01*
X49542Y142131D01*
X50985Y143096D01*
X52213Y144323D01*
X53177Y145767D01*
X53842Y147371D01*
X54180Y149073D01*
X54180Y149941D01*
X54180Y149941D01*
Y150319D01*
X54680Y150690D01*
X54871Y150632D01*
X54947Y150625D01*
X55017Y150596D01*
X56071Y150386D01*
X56122Y150374D01*
X56140Y150372D01*
X56180Y150364D01*
X56242D01*
X56261Y150363D01*
X56329Y150342D01*
X57509Y150226D01*
X57585Y150233D01*
X57659Y150219D01*
X58092D01*
X58252Y150206D01*
Y150219D01*
X138252D01*
Y150206D01*
X138412Y150219D01*
X138845D01*
X138919Y150233D01*
X138995Y150226D01*
X140175Y150342D01*
X140243Y150363D01*
X140262Y150364D01*
X140324D01*
X140364Y150372D01*
X140382Y150374D01*
X140433Y150386D01*
X141487Y150596D01*
X141557Y150625D01*
X141632Y150632D01*
X142295Y150833D01*
X142459Y150872D01*
X142552Y150911D01*
X143054Y150675D01*
X143089Y150639D01*
X143111Y150606D01*
X143206Y150127D01*
X143862Y148543D01*
X144815Y147117D01*
X146028Y145905D01*
X147453Y144952D01*
X149038Y144296D01*
X150719Y143961D01*
X151656D01*
X151830Y143817D01*
X151854Y143787D01*
X151969Y143461D01*
X151531Y142405D01*
X151516Y142330D01*
X151480Y142263D01*
X151415Y142048D01*
X151376Y141955D01*
X151337Y141791D01*
X151136Y141129D01*
X151129Y141053D01*
X151100Y140983D01*
X150890Y139929D01*
X150878Y139878D01*
X150876Y139860D01*
X150868Y139820D01*
Y139758D01*
X150867Y139739D01*
X150846Y139671D01*
X150730Y138491D01*
X150737Y138415D01*
X150723Y138341D01*
Y137908D01*
X150710Y137748D01*
X150723D01*
Y57248D01*
X150710D01*
X150723Y57088D01*
Y56655D01*
X150737Y56581D01*
X150730Y56505D01*
X150846Y55325D01*
X150867Y55257D01*
X150868Y55238D01*
Y55176D01*
X150876Y55136D01*
X150878Y55119D01*
X150890Y55067D01*
X151100Y54013D01*
X151129Y53943D01*
X151136Y53868D01*
X151337Y53205D01*
X151376Y53041D01*
X151415Y52948D01*
X151480Y52733D01*
X151516Y52666D01*
X151531Y52591D01*
X151985Y51495D01*
X152027Y51432D01*
X152049Y51360D01*
X152155Y51161D01*
X152194Y51068D01*
X152282Y50924D01*
X152608Y50314D01*
X152656Y50255D01*
X152685Y50185D01*
X153282Y49291D01*
X153310Y49246D01*
X153321Y49233D01*
X153344Y49199D01*
X153388Y49155D01*
X153400Y49141D01*
X153434Y49078D01*
X154186Y48162D01*
X154245Y48114D01*
X154287Y48050D01*
X154593Y47744D01*
X154697Y47622D01*
X154706Y47631D01*
X159938Y42399D01*
X165171Y37167D01*
X165667Y36835D01*
X166252Y36719D01*
X166837Y36835D01*
X167333Y37167D01*
X167665Y37663D01*
X167781Y38248D01*
Y156748D01*
X167665Y157333D01*
X167333Y157829D01*
X166837Y158161D01*
X166252Y158277D01*
X166129Y158253D01*
X165906Y159373D01*
X165228Y161011D01*
X164243Y162485D01*
X162989Y163739D01*
X161515Y164724D01*
X159877Y165402D01*
X158757Y165625D01*
X158781Y165748D01*
X158665Y166333D01*
X158333Y166830D01*
X157837Y167161D01*
X157252Y167277D01*
D02*
G37*
G36*
X61771Y139187D02*
X60733D01*
X59732Y138919D01*
X58833Y138400D01*
X58100Y137667D01*
X57581Y136768D01*
X57313Y135767D01*
Y134729D01*
X57581Y133728D01*
X58100Y132829D01*
X58833Y132096D01*
X59732Y131578D01*
X60733Y131309D01*
X61771D01*
X62772Y131578D01*
X63671Y132096D01*
X64404Y132829D01*
X64922Y133728D01*
X65191Y134729D01*
Y135767D01*
X64922Y136768D01*
X64404Y137667D01*
X63671Y138400D01*
X62772Y138919D01*
X61771Y139187D01*
D02*
G37*
G36*
X61382Y64203D02*
X61252Y64195D01*
X61121Y64203D01*
X61000Y64187D01*
X60733D01*
X60476Y64118D01*
X60354Y64102D01*
X60231Y64060D01*
X60102Y64034D01*
X59989Y63988D01*
X59732Y63919D01*
X59501Y63785D01*
X59387Y63738D01*
X59279Y63666D01*
X59162Y63608D01*
X59064Y63533D01*
X58833Y63400D01*
X58645Y63212D01*
X58548Y63137D01*
X58461Y63039D01*
X58363Y62952D01*
X58289Y62855D01*
X58100Y62667D01*
X57967Y62436D01*
X57892Y62339D01*
X57834Y62221D01*
X57762Y62113D01*
X57715Y61999D01*
X57581Y61768D01*
X57512Y61511D01*
X57465Y61398D01*
X57440Y61269D01*
X57398Y61146D01*
X57382Y61024D01*
X57313Y60767D01*
Y60500D01*
X57297Y60378D01*
X57306Y60248D01*
X57297Y60118D01*
X57313Y59996D01*
Y59729D01*
X57382Y59472D01*
X57398Y59350D01*
X57440Y59227D01*
X57465Y59098D01*
X57512Y58985D01*
X57581Y58728D01*
X57627Y58648D01*
X35261Y36281D01*
X34900Y35938D01*
X34882Y35923D01*
X34588Y35565D01*
X33681Y34460D01*
X32789Y32791D01*
X32239Y30979D01*
X32101Y29570D01*
X32054Y29096D01*
X32055Y29087D01*
X32068Y28590D01*
Y5500D01*
Y-5217D01*
X31319D01*
Y-11941D01*
X39421D01*
Y-5217D01*
X34932D01*
Y5500D01*
Y29084D01*
X34931Y29086D01*
X34932Y29088D01*
X34932Y29092D01*
X34922Y29142D01*
X35047Y30421D01*
X35434Y31695D01*
X36062Y32869D01*
X36883Y33870D01*
X36928Y33900D01*
X36929Y33901D01*
X36931Y33902D01*
X59652Y56623D01*
X59732Y56577D01*
X59989Y56508D01*
X60102Y56462D01*
X60231Y56436D01*
X60354Y56394D01*
X60476Y56378D01*
X60733Y56309D01*
X61000D01*
X61122Y56293D01*
X61252Y56302D01*
X61382Y56293D01*
X61504Y56309D01*
X61771D01*
X62028Y56378D01*
X62150Y56394D01*
X62273Y56436D01*
X62402Y56462D01*
X62515Y56508D01*
X62772Y56577D01*
X63003Y56711D01*
X63117Y56758D01*
X63225Y56830D01*
X63342Y56888D01*
X63440Y56963D01*
X63671Y57096D01*
X63859Y57284D01*
X63956Y57359D01*
X64043Y57458D01*
X64141Y57544D01*
X64215Y57641D01*
X64404Y57829D01*
X64537Y58060D01*
X64612Y58158D01*
X64670Y58275D01*
X64742Y58384D01*
X64789Y58497D01*
X64922Y58728D01*
X64991Y58985D01*
X65038Y59098D01*
X65064Y59227D01*
X65106Y59350D01*
X65122Y59472D01*
X65191Y59729D01*
Y59996D01*
X65207Y60118D01*
X65198Y60248D01*
X65207Y60378D01*
X65191Y60500D01*
Y60767D01*
X65122Y61024D01*
X65106Y61146D01*
X65064Y61269D01*
X65038Y61398D01*
X64991Y61511D01*
X64922Y61768D01*
X64789Y61999D01*
X64742Y62113D01*
X64670Y62221D01*
X64612Y62339D01*
X64537Y62436D01*
X64404Y62667D01*
X64215Y62855D01*
X64141Y62952D01*
X64043Y63039D01*
X63956Y63137D01*
X63859Y63212D01*
X63671Y63400D01*
X63440Y63533D01*
X63342Y63608D01*
X63225Y63666D01*
X63117Y63738D01*
X63003Y63785D01*
X62772Y63919D01*
X62515Y63988D01*
X62402Y64034D01*
X62273Y64060D01*
X62150Y64102D01*
X62028Y64118D01*
X61771Y64187D01*
X61504D01*
X61382Y64203D01*
D02*
G37*
G36*
X136771Y139187D02*
X135733D01*
X134732Y138919D01*
X133833Y138400D01*
X133100Y137667D01*
X132581Y136768D01*
X132313Y135767D01*
Y134729D01*
X132581Y133728D01*
X133100Y132829D01*
X133833Y132096D01*
X134732Y131578D01*
X135733Y131309D01*
X136771D01*
X137772Y131578D01*
X137856Y131626D01*
X138062Y131420D01*
X138116Y131384D01*
X139144Y130131D01*
X139938Y128646D01*
X140427Y127034D01*
X140585Y125421D01*
X140573Y125358D01*
Y61273D01*
X140073Y61207D01*
X139922Y61768D01*
X139404Y62667D01*
X138671Y63400D01*
X137772Y63919D01*
X136771Y64187D01*
X135733D01*
X134732Y63919D01*
X133833Y63400D01*
X133100Y62667D01*
X132581Y61768D01*
X132313Y60767D01*
Y59729D01*
X132581Y58728D01*
X133100Y57829D01*
X133833Y57096D01*
X134732Y56577D01*
X135733Y56309D01*
X135801D01*
X136274Y55423D01*
X137354Y54107D01*
X137364Y54118D01*
X157987Y33495D01*
X158334Y33148D01*
X158658Y32783D01*
X159415Y31859D01*
X160209Y30374D01*
X160698Y28762D01*
X160857Y27149D01*
X160845Y27086D01*
Y5500D01*
Y2772D01*
X159697D01*
Y2772D01*
X159272Y2952D01*
Y3331D01*
X153728D01*
Y-1819D01*
X153728D01*
Y-2181D01*
X153728D01*
Y-7331D01*
X154197D01*
Y-12669D01*
X153728D01*
Y-17819D01*
X153728D01*
Y-18181D01*
X153728D01*
Y-23331D01*
X154734D01*
Y-24288D01*
X154478Y-24673D01*
X154339Y-25370D01*
Y-30095D01*
X154478Y-30792D01*
X154873Y-31383D01*
X155464Y-31778D01*
X156161Y-31917D01*
X156859Y-31778D01*
X157441Y-31389D01*
X158023Y-31778D01*
X158721Y-31917D01*
X159418Y-31778D01*
X160000Y-31389D01*
X160582Y-31778D01*
X161279Y-31917D01*
X161977Y-31778D01*
X162559Y-31389D01*
X163141Y-31778D01*
X163594Y-31868D01*
X164331Y-32605D01*
X164331Y-32605D01*
X164794Y-32915D01*
X165340Y-33024D01*
X167228D01*
Y-35346D01*
X172772D01*
Y-32215D01*
X177480Y-27507D01*
X177480Y-27507D01*
X177789Y-27044D01*
X177802Y-26980D01*
X185929D01*
Y-17747D01*
X186009Y-17667D01*
X186009Y-17666D01*
X186318Y-17204D01*
X186427Y-16657D01*
X186427Y-16657D01*
Y-10681D01*
X188067D01*
Y-6319D01*
X187313D01*
X187106Y-5819D01*
X187636Y-5290D01*
X188234Y-4254D01*
X188543Y-3098D01*
Y-1902D01*
X188234Y-746D01*
X187636Y290D01*
X186790Y1135D01*
X185754Y1734D01*
X184598Y2043D01*
X183402D01*
X182246Y1734D01*
X181210Y1135D01*
X180365Y290D01*
X179766Y-746D01*
X179457Y-1902D01*
Y-2446D01*
X179012Y-2579D01*
Y-2579D01*
X172878D01*
Y-3241D01*
X172772Y-3697D01*
X167228D01*
Y-8846D01*
X172772D01*
Y-8094D01*
X173743D01*
X173743Y-8094D01*
X174440Y-7955D01*
X175031Y-7560D01*
X175651Y-6941D01*
X179012D01*
Y-6582D01*
X180374D01*
X180374Y-6582D01*
X181071Y-6443D01*
X181383Y-6235D01*
X181933Y-6553D01*
Y-10681D01*
X183573D01*
Y-15728D01*
X175071D01*
Y-25246D01*
X175043Y-25384D01*
X175043Y-25384D01*
Y-25907D01*
X170754Y-30197D01*
X168963D01*
X168825Y-30169D01*
X168825Y-30169D01*
X165932D01*
X165661Y-29899D01*
Y-25370D01*
X165522Y-24673D01*
X165127Y-24081D01*
X164536Y-23686D01*
X163839Y-23548D01*
X163207Y-23673D01*
X162961Y-23590D01*
X162706Y-23454D01*
Y-17089D01*
X162729D01*
X162531Y-15583D01*
X161983Y-14262D01*
X161983Y-14262D01*
X161693Y-13884D01*
X161509Y-13610D01*
X161429Y-13208D01*
X161427D01*
Y-8000D01*
X161418Y-7956D01*
X161569Y-7200D01*
X162022Y-6522D01*
X162700Y-6069D01*
X163031Y-6003D01*
X163500Y-5929D01*
Y-5929D01*
X164388Y-5812D01*
X165215Y-5470D01*
X165925Y-4925D01*
X166470Y-4214D01*
X166812Y-3387D01*
X166929Y-2500D01*
X166927D01*
Y4586D01*
X166941D01*
X166821Y5500D01*
X166776Y5843D01*
X166291Y7013D01*
X165878Y7552D01*
D01*
X165519Y8019D01*
X165427Y8481D01*
Y27858D01*
X165435D01*
X165294Y29647D01*
X164875Y31391D01*
X164189Y33049D01*
X163251Y34579D01*
X162086Y35943D01*
X162086Y35943D01*
X161727Y36292D01*
X145938Y52080D01*
X145884Y52116D01*
X144856Y53369D01*
X144062Y54854D01*
X143573Y56466D01*
X143414Y58079D01*
X143427Y58142D01*
Y125358D01*
X143435D01*
X143294Y127147D01*
X142875Y128891D01*
X142189Y130549D01*
X141251Y132079D01*
X140086Y133443D01*
X139967Y133895D01*
X140191Y134729D01*
Y135767D01*
X139922Y136768D01*
X139404Y137667D01*
X138671Y138400D01*
X137772Y138919D01*
X136771Y139187D01*
D02*
G37*
G36*
X137752Y45290D02*
Y45277D01*
X58752D01*
Y45290D01*
X58592Y45277D01*
X58159D01*
X58084Y45263D01*
X58009Y45270D01*
X56829Y45154D01*
X56761Y45133D01*
X56742Y45132D01*
X56680D01*
X56640Y45124D01*
X56622Y45122D01*
X56571Y45110D01*
X55517Y44900D01*
X55447Y44871D01*
X55371Y44864D01*
X54710Y44663D01*
X54545Y44624D01*
X54452Y44585D01*
X54237Y44520D01*
X54170Y44484D01*
X54095Y44469D01*
X52999Y44015D01*
X52936Y43973D01*
X52864Y43951D01*
X52666Y43845D01*
X52572Y43806D01*
X52428Y43718D01*
X51818Y43392D01*
X51759Y43344D01*
X51689Y43315D01*
X50795Y42718D01*
X50750Y42690D01*
X50737Y42679D01*
X50703Y42656D01*
X50659Y42612D01*
X50645Y42600D01*
X50582Y42566D01*
X49665Y41814D01*
X49617Y41755D01*
X49554Y41713D01*
X49248Y41407D01*
X49126Y41303D01*
X49135Y41294D01*
X38170Y30329D01*
X37839Y29833D01*
X37723Y29248D01*
X37839Y28663D01*
X38170Y28167D01*
X38667Y27835D01*
X39252Y27719D01*
X157252D01*
X157837Y27835D01*
X158333Y28167D01*
X158665Y28663D01*
X158781Y29248D01*
X158665Y29833D01*
X158333Y30329D01*
X147369Y41294D01*
X147378Y41303D01*
X147256Y41407D01*
X146950Y41713D01*
X146887Y41755D01*
X146838Y41814D01*
X145922Y42566D01*
X145859Y42600D01*
X145844Y42612D01*
X145801Y42656D01*
X145767Y42679D01*
X145754Y42690D01*
X145708Y42718D01*
X144815Y43315D01*
X144745Y43344D01*
X144686Y43392D01*
X144076Y43718D01*
X143932Y43806D01*
X143838Y43845D01*
X143640Y43951D01*
X143568Y43973D01*
X143505Y44015D01*
X142409Y44469D01*
X142334Y44484D01*
X142267Y44520D01*
X142052Y44585D01*
X141959Y44624D01*
X141794Y44663D01*
X141132Y44864D01*
X141057Y44871D01*
X140987Y44900D01*
X139933Y45110D01*
X139882Y45122D01*
X139864Y45124D01*
X139824Y45132D01*
X139762D01*
X139743Y45133D01*
X139675Y45154D01*
X138495Y45270D01*
X138419Y45263D01*
X138345Y45277D01*
X137912D01*
X137752Y45290D01*
D02*
G37*
G36*
X177795Y28817D02*
X176166D01*
X176018Y28787D01*
X175868D01*
X174270Y28470D01*
X174131Y28412D01*
X173983Y28383D01*
X172479Y27759D01*
X172353Y27676D01*
X172214Y27618D01*
X170860Y26713D01*
X170754Y26607D01*
X170628Y26523D01*
X169477Y25372D01*
X169393Y25246D01*
X169287Y25140D01*
X168382Y23786D01*
X168324Y23646D01*
X168241Y23521D01*
X167617Y22017D01*
X167588Y21869D01*
X167530Y21730D01*
X167213Y20132D01*
Y19982D01*
X167183Y19834D01*
Y18205D01*
X167213Y18058D01*
Y17907D01*
X167530Y16310D01*
X167588Y16171D01*
X167617Y16023D01*
X168241Y14518D01*
X168324Y14393D01*
X168382Y14254D01*
X169287Y12900D01*
X169393Y12793D01*
X169477Y12668D01*
X170628Y11516D01*
X170754Y11433D01*
X170860Y11326D01*
X172214Y10421D01*
X172353Y10364D01*
X172479Y10280D01*
X173983Y9657D01*
X174131Y9627D01*
X174270Y9570D01*
X175868Y9252D01*
X176018D01*
X176166Y9223D01*
X177795D01*
X177942Y9252D01*
X178093D01*
X179690Y9570D01*
X179829Y9627D01*
X179977Y9657D01*
X181482Y10280D01*
X181607Y10364D01*
X181746Y10421D01*
X183100Y11326D01*
X183207Y11433D01*
X183332Y11516D01*
X184484Y12668D01*
X184567Y12793D01*
X184674Y12900D01*
X185579Y14254D01*
X185636Y14393D01*
X185720Y14518D01*
X186343Y16023D01*
X186373Y16171D01*
X186430Y16310D01*
X186748Y17907D01*
Y18058D01*
X186777Y18205D01*
Y19834D01*
X186748Y19982D01*
Y20132D01*
X186430Y21730D01*
X186373Y21869D01*
X186343Y22017D01*
X185720Y23521D01*
X185636Y23646D01*
X185579Y23786D01*
X184674Y25140D01*
X184567Y25246D01*
X184484Y25372D01*
X183332Y26523D01*
X183207Y26607D01*
X183100Y26713D01*
X181746Y27618D01*
X181607Y27676D01*
X181482Y27759D01*
X179977Y28383D01*
X179829Y28412D01*
X179690Y28470D01*
X178093Y28787D01*
X177942D01*
X177795Y28817D01*
D02*
G37*
G36*
X20314D02*
X18686D01*
X18538Y28787D01*
X18387D01*
X16790Y28470D01*
X16651Y28412D01*
X16503Y28383D01*
X14999Y27759D01*
X14873Y27676D01*
X14734Y27618D01*
X13380Y26713D01*
X13273Y26607D01*
X13148Y26523D01*
X11997Y25372D01*
X11913Y25246D01*
X11806Y25140D01*
X10902Y23786D01*
X10844Y23646D01*
X10760Y23521D01*
X10137Y22017D01*
X10108Y21869D01*
X10050Y21730D01*
X9732Y20132D01*
Y19982D01*
X9703Y19834D01*
Y18205D01*
X9732Y18058D01*
Y17907D01*
X10050Y16310D01*
X10108Y16171D01*
X10137Y16023D01*
X10760Y14518D01*
X10844Y14393D01*
X10902Y14254D01*
X11806Y12900D01*
X11913Y12793D01*
X11997Y12668D01*
X13148Y11516D01*
X13273Y11433D01*
X13380Y11326D01*
X14734Y10421D01*
X14873Y10364D01*
X14999Y10280D01*
X16503Y9657D01*
X16651Y9627D01*
X16790Y9570D01*
X18387Y9252D01*
X18538D01*
X18686Y9223D01*
X20314D01*
X20462Y9252D01*
X20613D01*
X22210Y9570D01*
X22349Y9627D01*
X22497Y9657D01*
X24002Y10280D01*
X24127Y10364D01*
X24266Y10421D01*
X25620Y11326D01*
X25727Y11433D01*
X25852Y11516D01*
X27003Y12668D01*
X27087Y12793D01*
X27194Y12900D01*
X28098Y14254D01*
X28156Y14393D01*
X28240Y14518D01*
X28863Y16023D01*
X28892Y16171D01*
X28950Y16310D01*
X29268Y17907D01*
Y18058D01*
X29297Y18205D01*
Y19834D01*
X29268Y19982D01*
Y20132D01*
X28950Y21730D01*
X28892Y21869D01*
X28863Y22017D01*
X28240Y23521D01*
X28156Y23646D01*
X28098Y23786D01*
X27194Y25140D01*
X27087Y25246D01*
X27003Y25372D01*
X25852Y26523D01*
X25727Y26607D01*
X25620Y26713D01*
X24266Y27618D01*
X24127Y27676D01*
X24002Y27759D01*
X22497Y28383D01*
X22349Y28412D01*
X22210Y28470D01*
X20613Y28787D01*
X20462D01*
X20314Y28817D01*
D02*
G37*
G36*
X60819Y-1228D02*
X55669D01*
Y-6772D01*
X56817D01*
Y-8956D01*
X56531Y-9384D01*
X56400Y-10043D01*
X56526Y-10675D01*
X56528Y-10763D01*
X56272Y-11175D01*
X55311D01*
Y-8232D01*
X49768D01*
Y-13213D01*
X49728Y-13697D01*
X49728Y-13697D01*
X49728D01*
Y-18846D01*
X54415D01*
X54506Y-18899D01*
X55161Y-19075D01*
X55839D01*
X56494Y-18899D01*
X56771Y-18739D01*
X56904Y-18938D01*
X57463Y-19311D01*
X58122Y-19443D01*
X63437D01*
X64096Y-19311D01*
X64655Y-18938D01*
X65028Y-18380D01*
X65159Y-17720D01*
X65028Y-17062D01*
X64875Y-16833D01*
X64685Y-16441D01*
X64875Y-16049D01*
X65028Y-15820D01*
X65159Y-15161D01*
X65028Y-14502D01*
X64875Y-14274D01*
X64685Y-13882D01*
X64875Y-13490D01*
X65028Y-13261D01*
X65159Y-12602D01*
X65028Y-11943D01*
X64875Y-11715D01*
X64685Y-11323D01*
X64875Y-10931D01*
X65028Y-10702D01*
X65159Y-10043D01*
X65028Y-9384D01*
X64655Y-8826D01*
X64096Y-8452D01*
X63437Y-8321D01*
X59671D01*
Y-6772D01*
X60819D01*
Y-1228D01*
D02*
G37*
G36*
X179012Y-10059D02*
X172878D01*
Y-14421D01*
X179012D01*
Y-10059D01*
D02*
G37*
G36*
X39421Y-15059D02*
X35059D01*
Y-21783D01*
X39421D01*
Y-19848D01*
X40728D01*
Y-20803D01*
X40728D01*
X40945Y-21086D01*
X40925Y-21161D01*
Y-21839D01*
X41101Y-22494D01*
X41440Y-23081D01*
X41919Y-23560D01*
X42362Y-23816D01*
X42491Y-24009D01*
X42954Y-24318D01*
X43500Y-24427D01*
X44046Y-24318D01*
X44509Y-24009D01*
X44638Y-23816D01*
X45081Y-23560D01*
X45560Y-23081D01*
X45899Y-22494D01*
X46075Y-21839D01*
Y-21161D01*
X46055Y-21086D01*
X46272Y-20803D01*
X46272D01*
Y-15654D01*
X40728D01*
Y-16994D01*
X39421D01*
Y-15059D01*
D02*
G37*
G36*
X77882Y-25382D02*
X77204D01*
X76550Y-25557D01*
X75962Y-25896D01*
X75483Y-26376D01*
X75144Y-26963D01*
X74968Y-27618D01*
Y-28296D01*
X75144Y-28951D01*
X75483Y-29538D01*
X75962Y-30017D01*
X76550Y-30356D01*
X77204Y-30531D01*
X77882D01*
X78537Y-30356D01*
X79124Y-30017D01*
X79604Y-29538D01*
X79815Y-29488D01*
X79904Y-29548D01*
X80563Y-29679D01*
X85878D01*
X86537Y-29548D01*
X87096Y-29174D01*
X87469Y-28616D01*
X87600Y-27957D01*
X87469Y-27298D01*
X87096Y-26739D01*
X86537Y-26366D01*
X85878Y-26235D01*
X80563D01*
X79904Y-26366D01*
X79815Y-26425D01*
X79604Y-26376D01*
X79124Y-25896D01*
X78537Y-25557D01*
X77882Y-25382D01*
D02*
G37*
G36*
X152772Y-36181D02*
X147228D01*
Y-41331D01*
X152772D01*
X152772Y-41331D01*
Y-41331D01*
X153168Y-41568D01*
X153270Y-41647D01*
X153859Y-42415D01*
X154229Y-43308D01*
X154339Y-44141D01*
Y-46630D01*
X154478Y-47327D01*
X154873Y-47919D01*
X155101Y-48071D01*
X155152Y-48707D01*
X154940Y-48919D01*
X154601Y-49506D01*
X154425Y-50161D01*
Y-50839D01*
X154601Y-51494D01*
X154940Y-52081D01*
X155419Y-52560D01*
X156006Y-52899D01*
X156661Y-53075D01*
X157339D01*
X157994Y-52899D01*
X158581Y-52560D01*
X159060Y-52081D01*
X159399Y-51494D01*
X159491Y-51151D01*
X160009D01*
X160101Y-51494D01*
X160440Y-52081D01*
X160919Y-52560D01*
X161506Y-52899D01*
X162161Y-53075D01*
X162839D01*
X163494Y-52899D01*
X164081Y-52560D01*
X164560Y-52081D01*
X164899Y-51494D01*
X165075Y-50839D01*
Y-50161D01*
X164899Y-49506D01*
X164560Y-48919D01*
X164081Y-48440D01*
X163494Y-48101D01*
X163110Y-47998D01*
X162883Y-47465D01*
X162885Y-47444D01*
X162963Y-47327D01*
X163102Y-46630D01*
Y-41906D01*
X162963Y-41208D01*
X162568Y-40617D01*
X161977Y-40222D01*
X161279Y-40083D01*
X160582Y-40222D01*
X160000Y-40611D01*
X159418Y-40222D01*
X158721Y-40083D01*
X158023Y-40222D01*
X157441Y-40611D01*
X156859Y-40222D01*
X156752Y-40201D01*
X156748Y-40193D01*
X155836Y-39081D01*
X154725Y-38169D01*
X153456Y-37492D01*
X152772Y-37284D01*
Y-36181D01*
D02*
G37*
G36*
X74839Y-71925D02*
X74161D01*
X73506Y-72101D01*
X72919Y-72440D01*
X72440Y-72919D01*
X72101Y-73506D01*
X71925Y-74161D01*
Y-74839D01*
X72101Y-75494D01*
X72440Y-76081D01*
X72919Y-76560D01*
X73506Y-76899D01*
X74161Y-77075D01*
X74839D01*
X75494Y-76899D01*
X76081Y-76560D01*
X76560Y-76081D01*
X76899Y-75494D01*
X77075Y-74839D01*
Y-74161D01*
X76899Y-73506D01*
X76560Y-72919D01*
X76081Y-72440D01*
X75494Y-72101D01*
X74839Y-71925D01*
D02*
G37*
G36*
X123839Y-55425D02*
X123161D01*
X122506Y-55601D01*
X121919Y-55940D01*
X121440Y-56419D01*
X121101Y-57006D01*
X120925Y-57661D01*
Y-58339D01*
X121101Y-58994D01*
X121440Y-59581D01*
X121793Y-59935D01*
X121872Y-60250D01*
X121793Y-60565D01*
X121440Y-60919D01*
X121101Y-61506D01*
X120925Y-62161D01*
Y-62839D01*
X121101Y-63494D01*
X121440Y-64081D01*
X121919Y-64560D01*
X122506Y-64899D01*
X123161Y-65075D01*
X123839D01*
X124494Y-64899D01*
X125081Y-64560D01*
X125560Y-64081D01*
X125649Y-63927D01*
X126457D01*
Y-69461D01*
Y-73791D01*
Y-77158D01*
X125957Y-77436D01*
X125461Y-77303D01*
X124783D01*
X124128Y-77479D01*
X123541Y-77818D01*
X123062Y-78297D01*
X122723Y-78884D01*
X122547Y-79539D01*
Y-80217D01*
X122723Y-80872D01*
X123062Y-81459D01*
X123399Y-81796D01*
X123538Y-81953D01*
X123416Y-82443D01*
X123231Y-82628D01*
X122892Y-83215D01*
X122716Y-83870D01*
Y-84548D01*
X122892Y-85202D01*
X123231Y-85790D01*
X123346Y-85905D01*
X123419Y-86440D01*
X123328Y-86530D01*
X122940Y-86919D01*
X122601Y-87506D01*
X122425Y-88161D01*
Y-88839D01*
X122601Y-89494D01*
X122940Y-90081D01*
X123419Y-90560D01*
X124006Y-90899D01*
X124661Y-91075D01*
X125339D01*
X125957Y-90909D01*
X126041Y-90912D01*
X126457Y-91114D01*
X126457Y-91114D01*
X126457Y-91114D01*
X135543D01*
Y-86783D01*
Y-82453D01*
Y-78149D01*
X137728D01*
Y-80847D01*
X141537D01*
X141675Y-80874D01*
X143428D01*
X144063Y-81509D01*
X144063Y-81509D01*
X144526Y-81818D01*
X145072Y-81927D01*
X145072Y-81927D01*
X145819D01*
Y-84453D01*
X146573D01*
Y-94228D01*
X145669D01*
Y-99772D01*
X150819D01*
Y-94228D01*
X149799D01*
X149664Y-94008D01*
X149909Y-93542D01*
X149945Y-93508D01*
X153921D01*
Y-88429D01*
X156073D01*
X156073Y-88429D01*
X156619Y-88320D01*
X157082Y-88011D01*
X162247Y-82846D01*
X165772D01*
Y-79234D01*
X165799Y-79097D01*
Y-78731D01*
X170124Y-74405D01*
X175421D01*
Y-71846D01*
Y-69287D01*
Y-66728D01*
Y-63153D01*
X168106D01*
Y-64435D01*
X167644Y-64626D01*
X167269Y-64251D01*
X166806Y-63942D01*
X166260Y-63833D01*
X165890Y-63525D01*
Y-63079D01*
X159165D01*
Y-67441D01*
X165890D01*
Y-67441D01*
X166267Y-67285D01*
X167103Y-68121D01*
X167103Y-68121D01*
X167566Y-68431D01*
X168106Y-68538D01*
Y-69109D01*
X168007Y-69129D01*
X167544Y-69438D01*
X166267Y-70715D01*
X165890Y-70559D01*
Y-70559D01*
X159165D01*
Y-70920D01*
X158665Y-71071D01*
X158509Y-70837D01*
X158509Y-70837D01*
X156835Y-69163D01*
Y-67441D01*
Y-63079D01*
X150110D01*
Y-63833D01*
X147331D01*
Y-63228D01*
X142319D01*
X142181Y-63228D01*
X141819D01*
X141681Y-63228D01*
X136669D01*
Y-65459D01*
X135543D01*
Y-60799D01*
Y-55650D01*
X126457D01*
Y-56573D01*
X125649D01*
X125560Y-56419D01*
X125081Y-55940D01*
X124494Y-55601D01*
X123839Y-55425D01*
D02*
G37*
G36*
X25839Y-78425D02*
X25161D01*
X24506Y-78601D01*
X23919Y-78940D01*
X23440Y-79419D01*
X23101Y-80006D01*
X22925Y-80661D01*
Y-81339D01*
X23101Y-81994D01*
X23440Y-82581D01*
X23919Y-83060D01*
X24506Y-83399D01*
X25161Y-83575D01*
X25839D01*
X26494Y-83399D01*
X27081Y-83060D01*
X27560Y-82581D01*
X27899Y-81994D01*
X28075Y-81339D01*
Y-80661D01*
X27899Y-80006D01*
X27560Y-79419D01*
X27081Y-78940D01*
X26494Y-78601D01*
X25839Y-78425D01*
D02*
G37*
G36*
X10618Y-81270D02*
X5894D01*
X5081Y-81432D01*
X4392Y-81892D01*
X3932Y-82581D01*
X3770Y-83394D01*
X3932Y-84206D01*
X4182Y-84581D01*
X4359Y-84969D01*
X4182Y-85356D01*
X3932Y-85731D01*
X3770Y-86543D01*
X3932Y-87356D01*
X4392Y-88045D01*
Y-88191D01*
X3932Y-88880D01*
X3770Y-89693D01*
X3932Y-90505D01*
X4182Y-90880D01*
X4359Y-91268D01*
X4182Y-91655D01*
X3932Y-92030D01*
X3770Y-92843D01*
X3932Y-93655D01*
X4182Y-94030D01*
X4359Y-94417D01*
X4182Y-94805D01*
X3932Y-95179D01*
X3770Y-95992D01*
X3932Y-96805D01*
X4392Y-97494D01*
X5081Y-97954D01*
X5894Y-98116D01*
X10618D01*
X11431Y-97954D01*
X12120Y-97494D01*
X12580Y-96805D01*
X12742Y-95992D01*
X12580Y-95179D01*
X12120Y-94491D01*
Y-94344D01*
X12580Y-93655D01*
X12742Y-92843D01*
X12580Y-92030D01*
X12120Y-91341D01*
Y-91194D01*
X12580Y-90505D01*
X12742Y-89693D01*
X12580Y-88880D01*
X12120Y-88191D01*
Y-88045D01*
X12580Y-87356D01*
X12742Y-86543D01*
X12580Y-85731D01*
X12120Y-85042D01*
Y-84895D01*
X12580Y-84206D01*
X12742Y-83394D01*
X12580Y-82581D01*
X12120Y-81892D01*
X11431Y-81432D01*
X10618Y-81270D01*
D02*
G37*
G36*
X135543Y-100925D02*
X126457D01*
Y-106075D01*
Y-110406D01*
Y-114736D01*
X135543D01*
Y-112407D01*
X136060Y-112305D01*
X136523Y-111995D01*
X137335Y-111183D01*
X138728D01*
Y-112331D01*
X144272D01*
Y-107181D01*
X144272D01*
Y-106819D01*
X144272D01*
Y-101669D01*
X138728D01*
Y-102823D01*
X138210Y-102926D01*
X137747Y-103235D01*
X137747Y-103235D01*
X136043Y-104939D01*
X135543Y-104732D01*
Y-100925D01*
D02*
G37*
G36*
X147494Y-116744D02*
X146505D01*
X145550Y-117000D01*
X144694Y-117494D01*
X143994Y-118194D01*
X143536Y-118989D01*
X135543D01*
Y-118248D01*
X126457D01*
Y-123398D01*
X135543D01*
Y-122011D01*
X143536D01*
X143994Y-122806D01*
X144694Y-123505D01*
X145550Y-124000D01*
X146505Y-124256D01*
X147494D01*
X148450Y-124000D01*
X149306Y-123505D01*
X150005Y-122806D01*
X150500Y-121950D01*
X150756Y-120994D01*
Y-120006D01*
X150500Y-119050D01*
X150005Y-118194D01*
X149306Y-117494D01*
X148450Y-117000D01*
X147494Y-116744D01*
D02*
G37*
G36*
X15994Y-124244D02*
X15006D01*
X14050Y-124500D01*
X13194Y-124995D01*
X12494Y-125694D01*
X12000Y-126550D01*
X11744Y-127506D01*
Y-128495D01*
X12000Y-129450D01*
X12494Y-130306D01*
X13194Y-131006D01*
X14050Y-131500D01*
X15006Y-131756D01*
X15994D01*
X16950Y-131500D01*
X17806Y-131006D01*
X18506Y-130306D01*
X19000Y-129450D01*
X19006Y-129427D01*
X22141D01*
X26431Y-133716D01*
X26431Y-133716D01*
X26894Y-134026D01*
X27079Y-134063D01*
Y-137890D01*
X31441D01*
Y-131165D01*
X27916D01*
X23741Y-126991D01*
X23278Y-126682D01*
X22732Y-126573D01*
X22732Y-126573D01*
X19006D01*
X19000Y-126550D01*
X18506Y-125694D01*
X17806Y-124995D01*
X16950Y-124500D01*
X15994Y-124244D01*
D02*
G37*
G36*
X183698Y-140126D02*
X182657D01*
X181651Y-140395D01*
X180750Y-140916D01*
X180014Y-141652D01*
X179494Y-142553D01*
X179224Y-143558D01*
Y-144599D01*
X179494Y-145604D01*
X180014Y-146506D01*
X180750Y-147242D01*
X181651Y-147762D01*
X182657Y-148031D01*
X183698D01*
X184703Y-147762D01*
X185604Y-147242D01*
X186340Y-146506D01*
X186861Y-145604D01*
X187130Y-144599D01*
Y-143558D01*
X186861Y-142553D01*
X186340Y-141652D01*
X185604Y-140916D01*
X184703Y-140395D01*
X183698Y-140126D01*
D02*
G37*
G36*
X173698D02*
X172657D01*
X171651Y-140395D01*
X170750Y-140916D01*
X170014Y-141652D01*
X169494Y-142553D01*
X169224Y-143558D01*
Y-144599D01*
X169494Y-145604D01*
X170014Y-146506D01*
X170750Y-147242D01*
X171651Y-147762D01*
X172657Y-148031D01*
X173698D01*
X174703Y-147762D01*
X175604Y-147242D01*
X176340Y-146506D01*
X176860Y-145604D01*
X177130Y-144599D01*
Y-143558D01*
X176860Y-142553D01*
X176340Y-141652D01*
X175604Y-140916D01*
X174703Y-140395D01*
X173698Y-140126D01*
D02*
G37*
G36*
X163698D02*
X162657D01*
X161652Y-140395D01*
X160750Y-140916D01*
X160014Y-141652D01*
X159494Y-142553D01*
X159224Y-143558D01*
Y-144599D01*
X159494Y-145604D01*
X160014Y-146506D01*
X160750Y-147242D01*
X161652Y-147762D01*
X162657Y-148031D01*
X163698D01*
X164703Y-147762D01*
X165604Y-147242D01*
X166340Y-146506D01*
X166860Y-145604D01*
X167130Y-144599D01*
Y-143558D01*
X166860Y-142553D01*
X166340Y-141652D01*
X165604Y-140916D01*
X164703Y-140395D01*
X163698Y-140126D01*
D02*
G37*
G36*
X153698D02*
X152657D01*
X151652Y-140395D01*
X150750Y-140916D01*
X150014Y-141652D01*
X149494Y-142553D01*
X149224Y-143558D01*
Y-144599D01*
X149494Y-145604D01*
X150014Y-146506D01*
X150750Y-147242D01*
X151652Y-147762D01*
X152657Y-148031D01*
X153698D01*
X154703Y-147762D01*
X155604Y-147242D01*
X156340Y-146506D01*
X156860Y-145604D01*
X157130Y-144599D01*
Y-143558D01*
X156860Y-142553D01*
X156340Y-141652D01*
X155604Y-140916D01*
X154703Y-140395D01*
X153698Y-140126D01*
D02*
G37*
G36*
X143698D02*
X142657D01*
X141651Y-140395D01*
X140750Y-140916D01*
X140014Y-141652D01*
X139494Y-142553D01*
X139224Y-143558D01*
Y-144599D01*
X139494Y-145604D01*
X140014Y-146506D01*
X140750Y-147242D01*
X141651Y-147762D01*
X142657Y-148031D01*
X143698D01*
X144703Y-147762D01*
X145604Y-147242D01*
X146340Y-146506D01*
X146861Y-145604D01*
X147130Y-144599D01*
Y-143558D01*
X146861Y-142553D01*
X146340Y-141652D01*
X145604Y-140916D01*
X144703Y-140395D01*
X143698Y-140126D01*
D02*
G37*
G36*
X133698D02*
X132657D01*
X131651Y-140395D01*
X130750Y-140916D01*
X130014Y-141652D01*
X129494Y-142553D01*
X129224Y-143558D01*
Y-144599D01*
X129494Y-145604D01*
X130014Y-146506D01*
X130750Y-147242D01*
X131651Y-147762D01*
X132657Y-148031D01*
X133698D01*
X134703Y-147762D01*
X135604Y-147242D01*
X136340Y-146506D01*
X136861Y-145604D01*
X137130Y-144599D01*
Y-143558D01*
X136861Y-142553D01*
X136340Y-141652D01*
X135604Y-140916D01*
X134703Y-140395D01*
X133698Y-140126D01*
D02*
G37*
G36*
X123698D02*
X122657D01*
X121651Y-140395D01*
X120750Y-140916D01*
X120014Y-141652D01*
X119494Y-142553D01*
X119224Y-143558D01*
Y-144599D01*
X119494Y-145604D01*
X120014Y-146506D01*
X120750Y-147242D01*
X121651Y-147762D01*
X122657Y-148031D01*
X123698D01*
X124703Y-147762D01*
X125604Y-147242D01*
X126340Y-146506D01*
X126860Y-145604D01*
X127130Y-144599D01*
Y-143558D01*
X126860Y-142553D01*
X126340Y-141652D01*
X125604Y-140916D01*
X124703Y-140395D01*
X123698Y-140126D01*
D02*
G37*
G36*
X113698D02*
X112657D01*
X111652Y-140395D01*
X110750Y-140916D01*
X110014Y-141652D01*
X109494Y-142553D01*
X109224Y-143558D01*
Y-144599D01*
X109494Y-145604D01*
X110014Y-146506D01*
X110750Y-147242D01*
X111652Y-147762D01*
X112657Y-148031D01*
X113698D01*
X114703Y-147762D01*
X115604Y-147242D01*
X116340Y-146506D01*
X116860Y-145604D01*
X117130Y-144599D01*
Y-143558D01*
X116860Y-142553D01*
X116340Y-141652D01*
X115604Y-140916D01*
X114703Y-140395D01*
X113698Y-140126D01*
D02*
G37*
G36*
X103698D02*
X102657D01*
X101652Y-140395D01*
X100750Y-140916D01*
X100014Y-141652D01*
X99494Y-142553D01*
X99224Y-143558D01*
Y-144599D01*
X99494Y-145604D01*
X100014Y-146506D01*
X100750Y-147242D01*
X101652Y-147762D01*
X102657Y-148031D01*
X103698D01*
X104703Y-147762D01*
X105604Y-147242D01*
X106340Y-146506D01*
X106860Y-145604D01*
X107130Y-144599D01*
Y-143558D01*
X106860Y-142553D01*
X106340Y-141652D01*
X105604Y-140916D01*
X104703Y-140395D01*
X103698Y-140126D01*
D02*
G37*
G36*
X93698D02*
X92657D01*
X91651Y-140395D01*
X90750Y-140916D01*
X90014Y-141652D01*
X89494Y-142553D01*
X89224Y-143558D01*
Y-144599D01*
X89494Y-145604D01*
X90014Y-146506D01*
X90750Y-147242D01*
X91651Y-147762D01*
X92657Y-148031D01*
X93698D01*
X94703Y-147762D01*
X95604Y-147242D01*
X96340Y-146506D01*
X96861Y-145604D01*
X97130Y-144599D01*
Y-143558D01*
X96861Y-142553D01*
X96340Y-141652D01*
X95604Y-140916D01*
X94703Y-140395D01*
X93698Y-140126D01*
D02*
G37*
G36*
X83698D02*
X82657D01*
X81652Y-140395D01*
X80750Y-140916D01*
X80014Y-141652D01*
X79494Y-142553D01*
X79224Y-143558D01*
Y-144599D01*
X79494Y-145604D01*
X80014Y-146506D01*
X80750Y-147242D01*
X81652Y-147762D01*
X82657Y-148031D01*
X83698D01*
X84703Y-147762D01*
X85604Y-147242D01*
X86340Y-146506D01*
X86861Y-145604D01*
X87130Y-144599D01*
Y-143558D01*
X86861Y-142553D01*
X86340Y-141652D01*
X85604Y-140916D01*
X84703Y-140395D01*
X83698Y-140126D01*
D02*
G37*
G36*
X73698D02*
X72657D01*
X71652Y-140395D01*
X70750Y-140916D01*
X70014Y-141652D01*
X69494Y-142553D01*
X69224Y-143558D01*
Y-144599D01*
X69494Y-145604D01*
X70014Y-146506D01*
X70750Y-147242D01*
X71652Y-147762D01*
X72657Y-148031D01*
X73698D01*
X74703Y-147762D01*
X75604Y-147242D01*
X76340Y-146506D01*
X76861Y-145604D01*
X77130Y-144599D01*
Y-143558D01*
X76861Y-142553D01*
X76340Y-141652D01*
X75604Y-140916D01*
X74703Y-140395D01*
X73698Y-140126D01*
D02*
G37*
G36*
X63698D02*
X62657D01*
X61651Y-140395D01*
X60750Y-140916D01*
X60014Y-141652D01*
X59494Y-142553D01*
X59224Y-143558D01*
Y-144599D01*
X59494Y-145604D01*
X60014Y-146506D01*
X60750Y-147242D01*
X61651Y-147762D01*
X62657Y-148031D01*
X63698D01*
X64703Y-147762D01*
X65604Y-147242D01*
X66340Y-146506D01*
X66861Y-145604D01*
X67130Y-144599D01*
Y-143558D01*
X66861Y-142553D01*
X66340Y-141652D01*
X65604Y-140916D01*
X64703Y-140395D01*
X63698Y-140126D01*
D02*
G37*
G36*
X43698D02*
X42657D01*
X41651Y-140395D01*
X40750Y-140916D01*
X40014Y-141652D01*
X39494Y-142553D01*
X39224Y-143558D01*
Y-144599D01*
X39494Y-145604D01*
X40014Y-146506D01*
X40750Y-147242D01*
X41651Y-147762D01*
X42657Y-148031D01*
X43698D01*
X44703Y-147762D01*
X45604Y-147242D01*
X46340Y-146506D01*
X46861Y-145604D01*
X47130Y-144599D01*
Y-143558D01*
X46861Y-142553D01*
X46340Y-141652D01*
X45604Y-140916D01*
X44703Y-140395D01*
X43698Y-140126D01*
D02*
G37*
G36*
X33698D02*
X32657D01*
X31651Y-140395D01*
X30750Y-140916D01*
X30014Y-141652D01*
X29494Y-142553D01*
X29224Y-143558D01*
Y-144599D01*
X29494Y-145604D01*
X30014Y-146506D01*
X30750Y-147242D01*
X31651Y-147762D01*
X32657Y-148031D01*
X33698D01*
X34703Y-147762D01*
X35604Y-147242D01*
X36340Y-146506D01*
X36861Y-145604D01*
X37130Y-144599D01*
Y-143558D01*
X36861Y-142553D01*
X36340Y-141652D01*
X35604Y-140916D01*
X34703Y-140395D01*
X33698Y-140126D01*
D02*
G37*
G36*
X23698D02*
X22657D01*
X21652Y-140395D01*
X20750Y-140916D01*
X20014Y-141652D01*
X19494Y-142553D01*
X19224Y-143558D01*
Y-144599D01*
X19494Y-145604D01*
X20014Y-146506D01*
X20750Y-147242D01*
X21652Y-147762D01*
X22657Y-148031D01*
X23698D01*
X24703Y-147762D01*
X25604Y-147242D01*
X26340Y-146506D01*
X26861Y-145604D01*
X27130Y-144599D01*
Y-143558D01*
X26861Y-142553D01*
X26340Y-141652D01*
X25604Y-140916D01*
X24703Y-140395D01*
X23698Y-140126D01*
D02*
G37*
G36*
X13698D02*
X12657D01*
X11652Y-140395D01*
X10750Y-140916D01*
X10014Y-141652D01*
X9494Y-142553D01*
X9224Y-143558D01*
Y-144599D01*
X9494Y-145604D01*
X10014Y-146506D01*
X10750Y-147242D01*
X11652Y-147762D01*
X12657Y-148031D01*
X13698D01*
X14703Y-147762D01*
X15604Y-147242D01*
X16340Y-146506D01*
X16861Y-145604D01*
X17130Y-144599D01*
Y-143558D01*
X16861Y-142553D01*
X16340Y-141652D01*
X15604Y-140916D01*
X14703Y-140395D01*
X13698Y-140126D01*
D02*
G37*
%LPD*%
G36*
X136669Y-74772D02*
X141681D01*
X141819Y-74772D01*
X142181D01*
X142319Y-74772D01*
X147331D01*
Y-74167D01*
X150110D01*
Y-74921D01*
X156103D01*
X156182Y-75318D01*
X156491Y-75781D01*
X160228Y-79518D01*
Y-80828D01*
X155482Y-85575D01*
X152522D01*
X152384Y-85602D01*
X149559Y-85602D01*
X149427Y-85157D01*
Y-84453D01*
X150181D01*
Y-76547D01*
X145819D01*
Y-78522D01*
X145319Y-78729D01*
X145028Y-78438D01*
X144565Y-78128D01*
X144019Y-78020D01*
X144019Y-78020D01*
X143272D01*
Y-75697D01*
X139738D01*
X139300Y-75404D01*
X138754Y-75295D01*
X138754Y-75295D01*
X135543D01*
Y-72644D01*
X136669D01*
Y-74772D01*
D02*
G37*
D20*
X170000Y-6272D02*
D03*
X170039Y-12807D02*
D03*
X43461Y-11693D02*
D03*
X43500Y-18228D02*
D03*
X140539Y-84807D02*
D03*
X140500Y-78272D02*
D03*
X163039Y-86807D02*
D03*
X163000Y-80272D02*
D03*
X141500Y-104244D02*
D03*
Y-109756D02*
D03*
X170039Y-39307D02*
D03*
X170000Y-32772D02*
D03*
X150000Y-38756D02*
D03*
Y-33244D02*
D03*
X156500Y-15244D02*
D03*
Y-20756D02*
D03*
Y756D02*
D03*
Y-4756D02*
D03*
X52500Y-16272D02*
D03*
X52539Y-22807D02*
D03*
X52500Y-4272D02*
D03*
X52539Y-10807D02*
D03*
D21*
X180500Y-21354D02*
D03*
Y-40646D02*
D03*
D22*
X148244Y-97000D02*
D03*
X153756D02*
D03*
X139244Y-66000D02*
D03*
X144756D02*
D03*
X33244Y-117000D02*
D03*
X38756D02*
D03*
X19244D02*
D03*
X24756D02*
D03*
X90693Y-26039D02*
D03*
X97228Y-26000D02*
D03*
X139244Y-72000D02*
D03*
X144756D02*
D03*
X163307Y-9961D02*
D03*
X156772Y-10000D02*
D03*
X168807Y39D02*
D03*
X162272Y0D02*
D03*
X102772Y-30500D02*
D03*
X109307Y-30461D02*
D03*
X63756Y-4000D02*
D03*
X58244D02*
D03*
X84535Y-3961D02*
D03*
X78000Y-4000D02*
D03*
D23*
X155480Y-80500D02*
D03*
X148000D02*
D03*
X151740Y-89555D02*
D03*
D24*
X29260Y-134528D02*
D03*
X33000D02*
D03*
X36740D02*
D03*
Y-125472D02*
D03*
X33000D02*
D03*
X29260D02*
D03*
D25*
X96500Y-15539D02*
D03*
Y-20461D02*
D03*
X119000Y-22961D02*
D03*
Y-18039D02*
D03*
X125000D02*
D03*
Y-22961D02*
D03*
X90500Y-20461D02*
D03*
Y-15539D02*
D03*
D26*
X162528Y-72740D02*
D03*
Y-69000D02*
D03*
Y-65260D02*
D03*
X153472D02*
D03*
Y-69000D02*
D03*
Y-72740D02*
D03*
D27*
X171764Y-72618D02*
D03*
Y-70059D02*
D03*
Y-67500D02*
D03*
Y-64941D02*
D03*
Y-62382D02*
D03*
D28*
X172650Y-80098D02*
D03*
Y-54902D02*
D03*
D29*
X182295Y-72224D02*
D03*
Y-62776D02*
D03*
D30*
X175945Y-4760D02*
D03*
Y-12240D02*
D03*
X185000Y-8500D02*
D03*
D31*
X156161Y-44268D02*
D03*
X158721D02*
D03*
X161279D02*
D03*
X163839D02*
D03*
X156161Y-27732D02*
D03*
X158721D02*
D03*
X161279D02*
D03*
X163839D02*
D03*
D32*
X52744Y-67646D02*
D03*
Y-70795D02*
D03*
Y-73945D02*
D03*
Y-77095D02*
D03*
X52744Y-80244D02*
D03*
Y-83394D02*
D03*
X52744Y-86543D02*
D03*
Y-89693D02*
D03*
Y-92843D02*
D03*
Y-95992D02*
D03*
X8256D02*
D03*
Y-92843D02*
D03*
Y-89693D02*
D03*
Y-86543D02*
D03*
Y-83394D02*
D03*
Y-80244D02*
D03*
Y-77095D02*
D03*
Y-73945D02*
D03*
Y-70795D02*
D03*
Y-67646D02*
D03*
Y-64496D02*
D03*
X52744Y-64496D02*
D03*
D33*
X46248Y-102488D02*
D03*
X43098D02*
D03*
X39949D02*
D03*
X36799D02*
D03*
X33650Y-102488D02*
D03*
X30500Y-102488D02*
D03*
X27350D02*
D03*
X24201D02*
D03*
X21051D02*
D03*
X17902D02*
D03*
X14752D02*
D03*
X14752Y-58000D02*
D03*
X17902D02*
D03*
X21051D02*
D03*
X24201D02*
D03*
X27350D02*
D03*
X30500D02*
D03*
X33650D02*
D03*
X36799D02*
D03*
X39949D02*
D03*
X43098D02*
D03*
X46248D02*
D03*
D34*
X37240Y-8579D02*
D03*
X33500D02*
D03*
X29760D02*
D03*
Y-18421D02*
D03*
X37240D02*
D03*
D35*
X83220Y-27957D02*
D03*
Y-25398D02*
D03*
Y-22839D02*
D03*
Y-20279D02*
D03*
Y-17720D02*
D03*
Y-15161D02*
D03*
Y-12602D02*
D03*
Y-10043D02*
D03*
X60780Y-27957D02*
D03*
Y-25398D02*
D03*
Y-22839D02*
D03*
Y-20279D02*
D03*
Y-17720D02*
D03*
Y-15161D02*
D03*
Y-12602D02*
D03*
Y-10043D02*
D03*
D36*
X110461Y-10500D02*
D03*
X105539D02*
D03*
D37*
X112724Y-24240D02*
D03*
Y-20500D02*
D03*
Y-16760D02*
D03*
X103276D02*
D03*
Y-24240D02*
D03*
D65*
X90500Y-25846D02*
G03*
X90693Y-26039I193J0D01*
G01*
X156161Y-44268D02*
G03*
X150650Y-38756I-5512J0D01*
G01*
X83220Y-20279D02*
G03*
X83402Y-20461I181J0D01*
G01*
X21051Y-102488D02*
Y-97500D01*
X182634Y-2500D02*
X184000D01*
X175945Y-4760D02*
X180374D01*
X182634Y-2500D01*
X173743Y-6272D02*
X174665Y-5349D01*
Y-5153D02*
X175059Y-4760D01*
X170000Y-6272D02*
X173743D01*
X174665Y-5349D02*
Y-5153D01*
X175059Y-4760D02*
X175945D01*
X109307Y-30461D02*
X112539D01*
X90500Y-25846D02*
Y-20461D01*
X90693Y-29307D02*
Y-26039D01*
X63756Y-4000D02*
X67500D01*
X49272Y-4272D02*
X52500D01*
X43461Y-11693D02*
Y-7961D01*
X29760Y-8579D02*
Y-3760D01*
X64500Y-125154D02*
X70346D01*
X64500Y-120823D02*
X70323D01*
X64500Y-84209D02*
X69791D01*
X36912Y-62912D02*
Y-58113D01*
X36799Y-58000D02*
X36912Y-58113D01*
X8256Y-80244D02*
X13256D01*
X150000Y-38756D02*
X150650D01*
X83220Y-20279D02*
Y-17720D01*
Y-22839D02*
Y-20279D01*
X83402Y-20461D02*
X90500D01*
X83220Y-25398D02*
Y-22839D01*
X53524Y-21827D02*
X55071Y-20279D01*
X52539Y-22807D02*
X52736D01*
X55071Y-20279D02*
X60780D01*
X53524Y-22020D02*
Y-21827D01*
X52736Y-22807D02*
X53524Y-22020D01*
X132974Y-143876D02*
X133177Y-144079D01*
X103056Y-143958D02*
X103177Y-144079D01*
X93177D02*
Y-142907D01*
D66*
X83220Y-12602D02*
G03*
X83118Y-12500I-102J0D01*
G01*
X78000Y-11500D02*
G03*
X79000Y-12500I1000J0D01*
G01*
X83220Y-10043D02*
G03*
X84535Y-8728I0J1315D01*
G01*
X96500Y-15539D02*
G03*
X96122Y-15161I-378J0D01*
G01*
X96500Y-25272D02*
G03*
X97228Y-26000I728J0D01*
G01*
X99575Y-20461D02*
G03*
X103276Y-16760I0J3701D01*
G01*
X107000Y-11961D02*
G03*
X105539Y-10500I-1461J0D01*
G01*
X112724Y-12764D02*
G03*
X110461Y-10500I-2264J0D01*
G01*
X119000Y-18039D02*
G03*
X117720Y-16760I-1280J0D01*
G01*
X117720Y-24240D02*
G03*
X118680Y-23280I0J960D01*
G01*
X161279Y-17089D02*
G03*
X160727Y-14962I-4369J0D01*
G01*
X160228Y-14246D02*
G03*
X160727Y-14962I2253J1038D01*
G01*
X160000Y-13208D02*
G03*
X160228Y-14246I2481J0D01*
G01*
X163500Y-4500D02*
G03*
X160000Y-8000I0J-3500D01*
G01*
X163500Y-4500D02*
G03*
X165500Y-2500I0J2000D01*
G01*
Y4586D02*
G03*
X164500Y7000I-3414J0D01*
G01*
X164000Y8207D02*
G03*
X164500Y7000I1707J0D01*
G01*
X142000Y125358D02*
G03*
X139071Y132429I-10000J0D01*
G01*
X142000Y58142D02*
G03*
X144929Y51071I10000J0D01*
G01*
X164000Y27858D02*
G03*
X161071Y34929I-10000J0D01*
G01*
X136252Y60248D02*
G03*
X138373Y55127I7243J0D01*
G01*
X162272Y27086D02*
G03*
X159343Y34157I-10000J0D01*
G01*
X162272Y0D02*
G03*
X160447Y756I-1825J-1825D01*
G01*
X157000Y-5963D02*
G03*
X156500Y-4756I-1707J0D01*
G01*
X157000Y-20756D02*
G03*
X156161Y-22781I2025J-2025D01*
G01*
X158721Y-24909D02*
G03*
X157000Y-20756I-5874J0D01*
G01*
X35919Y34915D02*
G03*
X33500Y29088I5791J-5819D01*
G01*
X41000Y-91000D02*
Y-74500D01*
X47854Y-67646D02*
X52744D01*
X41000Y-74500D02*
X47854Y-67646D01*
X41000Y-91000D02*
X53500Y-103500D01*
X77543Y-27957D02*
X83220D01*
X65457D02*
X67500Y-30000D01*
X60780Y-27957D02*
X65457D01*
X60780Y-25398D02*
X66898D01*
X102772Y-30500D02*
Y-24744D01*
X103276Y-24240D01*
X22732Y-128000D02*
X27440Y-132707D01*
X15500Y-128000D02*
X22732D01*
X29260Y-134528D02*
Y-133489D01*
X28478Y-132707D02*
X29260Y-133489D01*
X27440Y-132707D02*
X28478D01*
X32500Y-121000D02*
X33000Y-121500D01*
Y-125472D02*
Y-121500D01*
X43500Y-23000D02*
Y-18228D01*
X37240Y-18421D02*
X43307D01*
X43500Y-18228D01*
X52728Y-16500D02*
X55500D01*
X57195Y-16950D02*
X57965Y-17720D01*
X55500Y-16500D02*
X55950Y-16950D01*
X52500Y-16272D02*
X52728Y-16500D01*
X57965Y-17720D02*
X60780D01*
X55950Y-16950D02*
X57195D01*
X29000Y-139709D02*
X33000Y-135709D01*
Y-134528D01*
X107000Y-19500D02*
Y-11961D01*
X103276Y-24240D02*
X104260D01*
X105041Y-23459D01*
Y-21459D02*
X107000Y-19500D01*
X105041Y-23459D02*
Y-21459D01*
X111740Y-20500D02*
X112724D01*
X108740Y-23500D02*
X111740Y-20500D01*
X153756Y-97000D02*
X157000D01*
X163039Y-89961D02*
Y-86807D01*
X140539Y-87461D02*
Y-84807D01*
X155480Y-80500D02*
Y-76480D01*
X158500Y-69000D02*
X162528D01*
X168807Y39D02*
X171461D01*
X163307Y-9961D02*
X165961D01*
X170039Y-15461D02*
Y-12807D01*
X180500Y-21354D02*
Y-21158D01*
X185000Y-16657D02*
Y-8500D01*
X180500Y-21158D02*
X185000Y-16657D01*
X170197Y-32772D02*
X176470Y-26498D01*
Y-25384D01*
X170000Y-32772D02*
X170197D01*
X176470Y-25384D02*
X180500Y-21354D01*
X165340Y-31596D02*
X168825D01*
X170000Y-32772D01*
X163839Y-30095D02*
X165340Y-31596D01*
X163839Y-30095D02*
Y-27732D01*
Y-44268D02*
X164071Y-44500D01*
X168000D01*
X170039Y-42461D01*
Y-39307D01*
X150000Y-33244D02*
Y-30000D01*
X125000Y-27000D02*
Y-22961D01*
X64500Y-112161D02*
X70161D01*
X64500Y-79878D02*
X69878D01*
X24201Y-102488D02*
Y-97299D01*
X47657Y-92843D02*
X52744D01*
X8256Y-73945D02*
X13445D01*
X11201Y-62038D02*
X17902Y-68739D01*
Y-102488D02*
Y-68739D01*
X131000Y-120823D02*
X131323Y-120500D01*
X131105Y-107726D02*
X135274D01*
X138756Y-104244D02*
X141500D01*
X131000Y-107831D02*
X131105Y-107726D01*
X135274D02*
X138756Y-104244D01*
X135514Y-110986D02*
X136744Y-109756D01*
X141500D01*
X131000Y-112161D02*
X132175Y-110986D01*
X135514D01*
X161279Y-49279D02*
X162500Y-50500D01*
X161279Y-49279D02*
Y-44268D01*
X157000Y-50500D02*
X158721Y-48779D01*
Y-44268D01*
X125000Y-88500D02*
X130961D01*
X131000Y-88539D01*
X125122Y-79878D02*
X131000D01*
X125291Y-84209D02*
X131000D01*
X123500Y-58000D02*
X130776D01*
X131000Y-58224D01*
X123500Y-62500D02*
X130945D01*
X131000Y-62555D01*
X48106Y-83394D02*
X52744D01*
X46244Y-80244D02*
X52744D01*
X48094Y-77095D02*
X52744D01*
X58950Y-68050D02*
X63335D01*
X51244Y-71295D02*
X52005Y-70534D01*
X56466D01*
X58950Y-68050D01*
X54555Y-74445D02*
X57784Y-71216D01*
X64500D01*
X63325Y-72392D02*
X64500Y-71216D01*
X51244Y-74445D02*
X54555D01*
X43098Y-60732D02*
X45366Y-63000D01*
X48000D01*
X51000Y-60000D01*
X43098Y-60732D02*
Y-58000D01*
X53500Y-103500D02*
X64500D01*
X55193Y-89693D02*
X58500Y-93000D01*
X52744Y-89693D02*
X55193D01*
X54707Y-98707D02*
X55500Y-99500D01*
X54076Y-95992D02*
X54707Y-96623D01*
Y-98707D02*
Y-96623D01*
X52744Y-95992D02*
X54076D01*
X46248Y-110752D02*
Y-102488D01*
X36740Y-133346D02*
X42587Y-127500D01*
X49500D01*
X29260Y-125472D02*
Y-121701D01*
X24756Y-117197D02*
X29260Y-121701D01*
X24756Y-117197D02*
Y-117000D01*
X36740Y-124291D02*
X38756Y-122276D01*
Y-117000D01*
X36740Y-125472D02*
Y-124291D01*
X27350Y-110909D02*
Y-102488D01*
Y-110909D02*
X33244Y-116803D01*
Y-117000D02*
Y-116803D01*
X43098Y-108402D02*
Y-102488D01*
X39949Y-110949D02*
Y-102488D01*
X36799Y-107701D02*
Y-102488D01*
X33650Y-110350D02*
Y-102488D01*
X30500Y-108000D02*
Y-102488D01*
X58122Y-22839D02*
X60780D01*
X51000Y-29961D02*
X58122Y-22839D01*
X51000Y-60000D02*
Y-29961D01*
X119000Y-29000D02*
Y-22961D01*
X66000Y-35500D02*
X112500D01*
X119000Y-29000D01*
X54707Y-46793D02*
X66000Y-35500D01*
X54076Y-64496D02*
X54707Y-63865D01*
Y-46793D01*
X52744Y-64496D02*
X54076D01*
X29760Y-34260D02*
Y-18421D01*
X46248Y-58000D02*
Y-50748D01*
X29760Y-34260D02*
X46248Y-50748D01*
X14752Y-108252D02*
Y-102488D01*
Y-108252D02*
X19244Y-112744D01*
Y-117000D02*
Y-112744D01*
X11201Y-62038D02*
Y-49201D01*
X12500Y-61500D02*
X14000Y-63000D01*
X12500Y-61500D02*
Y-48500D01*
X14000Y-63000D02*
X18413D01*
X9500Y-47500D02*
X11201Y-49201D01*
X7500Y-43500D02*
X12500Y-48500D01*
X5500Y-47500D02*
X9500D01*
X2500Y-44500D02*
X5500Y-47500D01*
X2500Y-44500D02*
Y-40941D01*
X6500Y-36941D02*
Y-32500D01*
X2500Y-40941D02*
X6500Y-36941D01*
X18413Y-63000D02*
X21051Y-60362D01*
Y-58000D01*
X7500Y-43500D02*
Y-42500D01*
X6500D02*
X7500D01*
X6500Y-22500D02*
X14752Y-30752D01*
Y-58000D02*
Y-30752D01*
X6500Y-12500D02*
X17902Y-23902D01*
Y-58000D02*
Y-23902D01*
X63335Y-68050D02*
X64500Y-66886D01*
X161628Y-79097D02*
X162803Y-80272D01*
X157500Y-74772D02*
X161628Y-78900D01*
X157500Y-74772D02*
Y-71846D01*
X162803Y-80272D02*
X163000D01*
X161628Y-79097D02*
Y-78900D01*
X153472Y-69000D02*
X154654D01*
X157500Y-71846D01*
X164372Y-78140D02*
X169894Y-72618D01*
X163197Y-80272D02*
X164372Y-79097D01*
X169894Y-72618D02*
X171764D01*
X164372Y-79097D02*
Y-78140D01*
X163000Y-80272D02*
X163197D01*
X156073Y-87002D02*
X162803Y-80272D01*
X152522Y-87002D02*
X156073D01*
X151740Y-89555D02*
Y-87783D01*
X152522Y-87002D01*
X148000Y-96756D02*
X148244Y-97000D01*
X148000Y-96756D02*
Y-80500D01*
X141675Y-79447D02*
X144019D01*
X145072Y-80500D01*
X140500Y-78272D02*
X141675Y-79447D01*
X145072Y-80500D02*
X148000D01*
X131000Y-75547D02*
X132175Y-76722D01*
X138754D01*
X140303Y-78272D01*
X140500D01*
X36740Y-134528D02*
Y-133346D01*
X79000Y-12500D02*
X83118D01*
X78000Y-11500D02*
Y-4000D01*
X84535Y-8728D02*
Y-3961D01*
X83220Y-15161D02*
X96122D01*
X96500Y-20461D02*
X99575D01*
X96500Y-25272D02*
Y-20461D01*
X105150Y-10500D02*
X105539D01*
X112724Y-16760D02*
X117720D01*
X112724D02*
Y-12764D01*
X119000Y-18039D02*
X125000D01*
X118680Y-23280D02*
X119000Y-22961D01*
X112724Y-24240D02*
X117720D01*
X54532Y-12602D02*
X60780D01*
X52736Y-10807D02*
X54532Y-12602D01*
X52539Y-10807D02*
X52736D01*
X60780Y-15161D02*
Y-12602D01*
X57183Y-3939D02*
X57744Y-4500D01*
X58511Y-10043D02*
X60780D01*
X58244Y-9776D02*
Y-4000D01*
Y-9776D02*
X58511Y-10043D01*
X160000Y-13208D02*
Y-8000D01*
X161279Y-27732D02*
Y-17089D01*
X165500Y-2500D02*
Y4586D01*
X157000Y-10000D02*
Y-5963D01*
X164000Y8207D02*
Y27858D01*
X136252Y135248D02*
X139071Y132429D01*
X142000Y58142D02*
Y125358D01*
X144929Y51071D02*
X161071Y34929D01*
X138373Y55127D02*
X159343Y34157D01*
X162272Y0D02*
Y27086D01*
X156500Y756D02*
X160447D01*
X157000Y-15244D02*
Y-10000D01*
X158721Y-27732D02*
Y-24909D01*
X156161Y-27732D02*
Y-22781D01*
X33500Y-8579D02*
Y29084D01*
X145496Y-72740D02*
X153472D01*
X144756Y-72000D02*
X145496Y-72740D01*
X145496Y-65260D02*
X153472D01*
X144756Y-66000D02*
X145496Y-65260D01*
X162528D02*
X166260D01*
X168112Y-67112D01*
X171376D01*
X171764Y-67500D01*
X162528Y-72740D02*
X166260D01*
X168553Y-70447D01*
X171376D02*
X171764Y-70059D01*
X168553Y-70447D02*
X171376D01*
X131000Y-71216D02*
X140461D01*
X131000Y-66886D02*
X140358D01*
X22200Y-143102D02*
X23177Y-144079D01*
X60000Y-28150D02*
X60193Y-27957D01*
X58122Y-25398D02*
X60780D01*
X101657Y-29386D02*
X102772Y-30500D01*
X35919Y34915D02*
X61252Y60248D01*
X33500Y29088D02*
X33500Y29084D01*
X60669Y-9933D02*
X60780Y-10043D01*
X124470Y-22431D02*
X125000Y-22961D01*
D67*
X131000Y-58224D02*
D03*
Y-62555D02*
D03*
Y-66886D02*
D03*
Y-71216D02*
D03*
Y-75547D02*
D03*
Y-79878D02*
D03*
Y-84209D02*
D03*
Y-88539D02*
D03*
Y-103500D02*
D03*
Y-107831D02*
D03*
Y-112161D02*
D03*
Y-116492D02*
D03*
Y-120823D02*
D03*
Y-125154D02*
D03*
X64500D02*
D03*
Y-120823D02*
D03*
Y-116492D02*
D03*
Y-112161D02*
D03*
Y-107831D02*
D03*
Y-103500D02*
D03*
Y-88539D02*
D03*
Y-84209D02*
D03*
Y-79878D02*
D03*
Y-75547D02*
D03*
Y-71216D02*
D03*
Y-66886D02*
D03*
Y-62555D02*
D03*
Y-58224D02*
D03*
D68*
X131323Y-120500D02*
X147000D01*
D69*
X153177Y-144079D02*
X153224Y-144032D01*
D70*
X44500Y-132500D02*
D03*
Y-122500D02*
D03*
X54500D02*
D03*
Y-132500D02*
D03*
X49500Y-127500D02*
D03*
X20500Y-133000D02*
D03*
X10500D02*
D03*
Y-123000D02*
D03*
X20500D02*
D03*
X15500Y-128000D02*
D03*
X152000Y-125500D02*
D03*
X142000D02*
D03*
Y-115500D02*
D03*
X152000D02*
D03*
X147000Y-120500D02*
D03*
D71*
X182295Y-80492D02*
D03*
Y-54508D02*
D03*
D72*
X6500Y-2500D02*
D03*
Y-12500D02*
D03*
Y-22500D02*
D03*
Y-32500D02*
D03*
Y-42500D02*
D03*
X13177Y223874D02*
D03*
Y213874D02*
D03*
X23177Y223874D02*
D03*
Y213874D02*
D03*
X33177Y223874D02*
D03*
Y213874D02*
D03*
X43177Y223874D02*
D03*
Y213874D02*
D03*
X53177Y223874D02*
D03*
Y213874D02*
D03*
X63177Y223874D02*
D03*
Y213874D02*
D03*
X73177Y223874D02*
D03*
Y213874D02*
D03*
X83177Y223874D02*
D03*
Y213874D02*
D03*
X93177Y223874D02*
D03*
Y213874D02*
D03*
X103177Y223874D02*
D03*
Y213874D02*
D03*
X113177Y223874D02*
D03*
Y213874D02*
D03*
X123177Y223874D02*
D03*
Y213874D02*
D03*
X133177Y223874D02*
D03*
Y213874D02*
D03*
X143177Y223874D02*
D03*
Y213874D02*
D03*
X153177Y223874D02*
D03*
Y213874D02*
D03*
X163177Y223874D02*
D03*
Y213874D02*
D03*
X173177Y223874D02*
D03*
Y213874D02*
D03*
X183177Y223874D02*
D03*
X13177Y-144079D02*
D03*
Y-154079D02*
D03*
X23177Y-144079D02*
D03*
Y-154079D02*
D03*
X33177Y-144079D02*
D03*
Y-154079D02*
D03*
X43177Y-144079D02*
D03*
Y-154079D02*
D03*
X53177Y-144079D02*
D03*
Y-154079D02*
D03*
X63177Y-144079D02*
D03*
Y-154079D02*
D03*
X73177Y-144079D02*
D03*
Y-154079D02*
D03*
X83177Y-144079D02*
D03*
Y-154079D02*
D03*
X93177Y-144079D02*
D03*
Y-154079D02*
D03*
X103177Y-144079D02*
D03*
Y-154079D02*
D03*
X113177Y-144079D02*
D03*
Y-154079D02*
D03*
X123177Y-144079D02*
D03*
Y-154079D02*
D03*
X133177Y-144079D02*
D03*
Y-154079D02*
D03*
X143177Y-144079D02*
D03*
Y-154079D02*
D03*
X153177Y-144079D02*
D03*
Y-154079D02*
D03*
X163177Y-144079D02*
D03*
Y-154079D02*
D03*
X173177Y-144079D02*
D03*
Y-154079D02*
D03*
X183177Y-144079D02*
D03*
D73*
X6500Y-52500D02*
D03*
D74*
X61252Y60248D02*
D03*
X98752D02*
D03*
X136252D02*
D03*
Y135248D02*
D03*
X61252D02*
D03*
D75*
X183177Y213874D02*
D03*
Y-154079D02*
D03*
D76*
X182335Y162823D02*
D03*
Y154949D02*
D03*
Y147075D02*
D03*
Y139201D02*
D03*
Y131327D02*
D03*
Y123453D02*
D03*
Y115579D02*
D03*
Y107705D02*
D03*
Y99831D02*
D03*
Y91957D02*
D03*
Y84083D02*
D03*
Y76209D02*
D03*
Y68335D02*
D03*
Y60461D02*
D03*
Y52587D02*
D03*
Y44713D02*
D03*
Y36839D02*
D03*
Y-89146D02*
D03*
Y-104894D02*
D03*
Y-112768D02*
D03*
Y-120642D02*
D03*
X174461Y162823D02*
D03*
Y154949D02*
D03*
Y147075D02*
D03*
Y139201D02*
D03*
Y131327D02*
D03*
Y123453D02*
D03*
Y115579D02*
D03*
Y107705D02*
D03*
Y99831D02*
D03*
Y91957D02*
D03*
Y84083D02*
D03*
Y76209D02*
D03*
Y68335D02*
D03*
Y60461D02*
D03*
Y52587D02*
D03*
Y44713D02*
D03*
Y36839D02*
D03*
Y-89146D02*
D03*
Y-104894D02*
D03*
Y-112768D02*
D03*
X166587Y186445D02*
D03*
Y170697D02*
D03*
Y162823D02*
D03*
Y-18279D02*
D03*
Y-57649D02*
D03*
Y-104894D02*
D03*
Y-112768D02*
D03*
Y-120642D02*
D03*
X158713Y186445D02*
D03*
Y178571D02*
D03*
Y170697D02*
D03*
Y21091D02*
D03*
Y13217D02*
D03*
Y-34027D02*
D03*
Y-57649D02*
D03*
Y-89146D02*
D03*
Y-104894D02*
D03*
Y-112768D02*
D03*
Y-120642D02*
D03*
Y-128516D02*
D03*
X150839Y186445D02*
D03*
Y178571D02*
D03*
Y170697D02*
D03*
Y21091D02*
D03*
Y13217D02*
D03*
Y-2531D02*
D03*
Y-10405D02*
D03*
Y-18279D02*
D03*
Y-49775D02*
D03*
Y-104894D02*
D03*
X142965Y186445D02*
D03*
Y178571D02*
D03*
Y170697D02*
D03*
Y139201D02*
D03*
Y21091D02*
D03*
Y13217D02*
D03*
Y-2531D02*
D03*
Y-10405D02*
D03*
Y-18279D02*
D03*
Y-26153D02*
D03*
Y-34027D02*
D03*
Y-41901D02*
D03*
Y-49775D02*
D03*
Y-57649D02*
D03*
X135091Y186445D02*
D03*
Y178571D02*
D03*
Y170697D02*
D03*
Y147075D02*
D03*
Y123453D02*
D03*
Y115579D02*
D03*
Y107705D02*
D03*
Y99831D02*
D03*
Y91957D02*
D03*
Y68335D02*
D03*
Y52587D02*
D03*
Y21091D02*
D03*
Y13217D02*
D03*
Y-2531D02*
D03*
Y-10405D02*
D03*
Y-18279D02*
D03*
Y-26153D02*
D03*
Y-34027D02*
D03*
Y-41901D02*
D03*
Y-49775D02*
D03*
X127217Y186445D02*
D03*
Y178571D02*
D03*
Y170697D02*
D03*
Y147075D02*
D03*
Y139201D02*
D03*
Y131327D02*
D03*
Y123453D02*
D03*
Y115579D02*
D03*
Y107705D02*
D03*
Y99831D02*
D03*
Y76209D02*
D03*
Y68335D02*
D03*
Y60461D02*
D03*
Y52587D02*
D03*
Y21091D02*
D03*
Y13217D02*
D03*
Y-2531D02*
D03*
Y-10405D02*
D03*
Y-34027D02*
D03*
Y-41901D02*
D03*
Y-49775D02*
D03*
X119343Y186445D02*
D03*
Y178571D02*
D03*
Y170697D02*
D03*
Y147075D02*
D03*
Y139201D02*
D03*
Y131327D02*
D03*
Y123453D02*
D03*
Y115579D02*
D03*
Y107705D02*
D03*
Y84083D02*
D03*
Y76209D02*
D03*
Y68335D02*
D03*
Y60461D02*
D03*
Y52587D02*
D03*
Y21091D02*
D03*
Y13217D02*
D03*
Y-2531D02*
D03*
Y-10405D02*
D03*
Y-41901D02*
D03*
Y-49775D02*
D03*
Y-104894D02*
D03*
Y-112768D02*
D03*
Y-120642D02*
D03*
Y-128516D02*
D03*
X111469Y186445D02*
D03*
Y178571D02*
D03*
Y170697D02*
D03*
Y147075D02*
D03*
Y139201D02*
D03*
Y131327D02*
D03*
Y123453D02*
D03*
Y115579D02*
D03*
Y91957D02*
D03*
Y84083D02*
D03*
Y76209D02*
D03*
Y68335D02*
D03*
Y60461D02*
D03*
Y52587D02*
D03*
Y21091D02*
D03*
Y13217D02*
D03*
Y-2531D02*
D03*
Y-41901D02*
D03*
Y-49775D02*
D03*
Y-65523D02*
D03*
Y-73398D02*
D03*
Y-81272D02*
D03*
Y-89146D02*
D03*
Y-97020D02*
D03*
Y-104894D02*
D03*
Y-112768D02*
D03*
Y-120642D02*
D03*
Y-128516D02*
D03*
X103595Y186445D02*
D03*
Y178571D02*
D03*
Y170697D02*
D03*
Y147075D02*
D03*
Y139201D02*
D03*
Y131327D02*
D03*
Y123453D02*
D03*
Y99831D02*
D03*
Y91957D02*
D03*
Y84083D02*
D03*
Y76209D02*
D03*
Y68335D02*
D03*
Y52587D02*
D03*
Y21091D02*
D03*
Y13217D02*
D03*
Y-2531D02*
D03*
Y-41901D02*
D03*
Y-49775D02*
D03*
Y-65523D02*
D03*
Y-73398D02*
D03*
Y-81272D02*
D03*
Y-89146D02*
D03*
Y-97020D02*
D03*
Y-104894D02*
D03*
Y-112768D02*
D03*
Y-120642D02*
D03*
Y-128516D02*
D03*
X95721Y186445D02*
D03*
Y178571D02*
D03*
Y170697D02*
D03*
Y147075D02*
D03*
Y139201D02*
D03*
Y131327D02*
D03*
Y107705D02*
D03*
Y99831D02*
D03*
Y91957D02*
D03*
Y84083D02*
D03*
Y76209D02*
D03*
Y68335D02*
D03*
Y52587D02*
D03*
Y21091D02*
D03*
Y13217D02*
D03*
Y-2531D02*
D03*
Y-10405D02*
D03*
Y-41901D02*
D03*
Y-49775D02*
D03*
Y-65523D02*
D03*
Y-73398D02*
D03*
Y-81272D02*
D03*
Y-89146D02*
D03*
Y-97020D02*
D03*
Y-104894D02*
D03*
Y-112768D02*
D03*
Y-120642D02*
D03*
Y-128516D02*
D03*
X87847Y186445D02*
D03*
Y178571D02*
D03*
Y170697D02*
D03*
Y147075D02*
D03*
Y139201D02*
D03*
Y115579D02*
D03*
Y107705D02*
D03*
Y99831D02*
D03*
Y91957D02*
D03*
Y84083D02*
D03*
Y76209D02*
D03*
Y68335D02*
D03*
Y60461D02*
D03*
Y52587D02*
D03*
Y21091D02*
D03*
Y13217D02*
D03*
Y-41901D02*
D03*
Y-49775D02*
D03*
Y-65523D02*
D03*
Y-73398D02*
D03*
Y-81272D02*
D03*
Y-89146D02*
D03*
Y-97020D02*
D03*
Y-104894D02*
D03*
Y-112768D02*
D03*
Y-120642D02*
D03*
Y-128516D02*
D03*
X79973Y186445D02*
D03*
Y178571D02*
D03*
Y170697D02*
D03*
Y147075D02*
D03*
Y123453D02*
D03*
Y115579D02*
D03*
Y107705D02*
D03*
Y99831D02*
D03*
Y91957D02*
D03*
Y84083D02*
D03*
Y76209D02*
D03*
Y68335D02*
D03*
Y60461D02*
D03*
Y52587D02*
D03*
Y21091D02*
D03*
Y13217D02*
D03*
Y-41901D02*
D03*
Y-49775D02*
D03*
Y-65523D02*
D03*
Y-73398D02*
D03*
Y-81272D02*
D03*
Y-89146D02*
D03*
Y-97020D02*
D03*
Y-104894D02*
D03*
Y-112768D02*
D03*
Y-120642D02*
D03*
Y-128516D02*
D03*
X72099Y186445D02*
D03*
Y178571D02*
D03*
Y170697D02*
D03*
Y147075D02*
D03*
Y123453D02*
D03*
Y115579D02*
D03*
Y107705D02*
D03*
Y99831D02*
D03*
Y91957D02*
D03*
Y84083D02*
D03*
Y76209D02*
D03*
Y68335D02*
D03*
Y60461D02*
D03*
Y52587D02*
D03*
Y21091D02*
D03*
Y13217D02*
D03*
Y-2531D02*
D03*
Y-10405D02*
D03*
Y-18279D02*
D03*
Y-26153D02*
D03*
Y-41901D02*
D03*
Y-49775D02*
D03*
Y-65523D02*
D03*
Y-97020D02*
D03*
X64224Y186445D02*
D03*
Y178571D02*
D03*
Y170697D02*
D03*
Y147075D02*
D03*
Y123453D02*
D03*
Y115579D02*
D03*
Y107705D02*
D03*
Y99831D02*
D03*
Y91957D02*
D03*
Y84083D02*
D03*
Y76209D02*
D03*
Y68335D02*
D03*
Y21091D02*
D03*
Y13217D02*
D03*
Y-49775D02*
D03*
X56350Y186445D02*
D03*
Y178571D02*
D03*
Y170697D02*
D03*
Y147075D02*
D03*
Y139201D02*
D03*
Y131327D02*
D03*
Y123453D02*
D03*
Y115579D02*
D03*
Y107705D02*
D03*
Y99831D02*
D03*
Y91957D02*
D03*
Y84083D02*
D03*
Y76209D02*
D03*
Y68335D02*
D03*
Y21091D02*
D03*
Y13217D02*
D03*
X48476Y186445D02*
D03*
Y178571D02*
D03*
Y170697D02*
D03*
Y139201D02*
D03*
Y131327D02*
D03*
Y123453D02*
D03*
Y115579D02*
D03*
Y21091D02*
D03*
Y13217D02*
D03*
X40602Y186445D02*
D03*
Y178571D02*
D03*
Y170697D02*
D03*
Y21091D02*
D03*
Y13217D02*
D03*
Y-2531D02*
D03*
Y-26153D02*
D03*
Y-34027D02*
D03*
X32728Y186445D02*
D03*
Y178571D02*
D03*
Y170697D02*
D03*
Y-49775D02*
D03*
Y-65523D02*
D03*
X24854Y162823D02*
D03*
Y154949D02*
D03*
Y147075D02*
D03*
Y139201D02*
D03*
Y131327D02*
D03*
Y123453D02*
D03*
Y115579D02*
D03*
Y107705D02*
D03*
Y99831D02*
D03*
Y91957D02*
D03*
Y84083D02*
D03*
Y76209D02*
D03*
Y68335D02*
D03*
Y60461D02*
D03*
Y52587D02*
D03*
Y44713D02*
D03*
Y36839D02*
D03*
Y-2531D02*
D03*
Y-10405D02*
D03*
Y-41901D02*
D03*
Y-49775D02*
D03*
Y-65523D02*
D03*
Y-73398D02*
D03*
X16980Y162823D02*
D03*
Y154949D02*
D03*
Y147075D02*
D03*
Y139201D02*
D03*
Y131327D02*
D03*
Y123453D02*
D03*
Y115579D02*
D03*
Y107705D02*
D03*
Y99831D02*
D03*
Y91957D02*
D03*
Y84083D02*
D03*
Y76209D02*
D03*
Y68335D02*
D03*
Y60461D02*
D03*
Y52587D02*
D03*
Y44713D02*
D03*
Y36839D02*
D03*
Y-2531D02*
D03*
Y-10405D02*
D03*
Y-18279D02*
D03*
X9106Y186445D02*
D03*
Y170697D02*
D03*
Y162823D02*
D03*
Y154949D02*
D03*
Y147075D02*
D03*
Y139201D02*
D03*
Y131327D02*
D03*
Y123453D02*
D03*
Y115579D02*
D03*
Y107705D02*
D03*
Y99831D02*
D03*
Y91957D02*
D03*
Y84083D02*
D03*
Y76209D02*
D03*
Y68335D02*
D03*
Y60461D02*
D03*
Y52587D02*
D03*
Y44713D02*
D03*
Y36839D02*
D03*
Y28965D02*
D03*
Y13217D02*
D03*
Y-104894D02*
D03*
Y-112768D02*
D03*
D77*
X57429Y63417D02*
D03*
X56303Y60670D02*
D03*
X55380Y57849D02*
D03*
X53281Y55750D02*
D03*
X51182Y53650D02*
D03*
X49083Y51552D02*
D03*
X46984Y49452D02*
D03*
X44884Y47353D02*
D03*
X42786Y45254D02*
D03*
X40686Y43155D02*
D03*
X38587Y41056D02*
D03*
X36488Y38957D02*
D03*
X34389Y36858D02*
D03*
X32555Y34524D02*
D03*
X31414Y31784D02*
D03*
X31044Y28838D02*
D03*
Y25870D02*
D03*
Y22901D02*
D03*
Y19933D02*
D03*
Y16964D02*
D03*
Y13996D02*
D03*
Y11027D02*
D03*
Y8059D02*
D03*
Y5090D02*
D03*
Y2122D02*
D03*
Y-847D02*
D03*
X31101Y-12514D02*
D03*
X34035Y-12964D02*
D03*
X35956Y-2632D02*
D03*
Y337D02*
D03*
Y3305D02*
D03*
Y6274D02*
D03*
Y9242D02*
D03*
Y12211D02*
D03*
Y15179D02*
D03*
Y18148D02*
D03*
Y21116D02*
D03*
Y24085D02*
D03*
Y27053D02*
D03*
X36036Y30020D02*
D03*
X37265Y32723D02*
D03*
X39331Y34854D02*
D03*
X41430Y36953D02*
D03*
X43529Y39052D02*
D03*
X45628Y41151D02*
D03*
X47727Y43250D02*
D03*
X49826Y45349D02*
D03*
X51925Y47449D02*
D03*
X54024Y49547D02*
D03*
X56123Y51647D02*
D03*
X58222Y53746D02*
D03*
X60745Y55310D02*
D03*
X63653Y55908D02*
D03*
X65711Y58047D02*
D03*
X66160Y60982D02*
D03*
X64865Y63653D02*
D03*
X62283Y65117D02*
D03*
X42533Y-69494D02*
D03*
X40434Y-71593D02*
D03*
X38651Y-73966D02*
D03*
X38544Y-76932D02*
D03*
Y-79901D02*
D03*
Y-82869D02*
D03*
Y-85838D02*
D03*
Y-88806D02*
D03*
X48984Y-102456D02*
D03*
X51083Y-104555D02*
D03*
X53700Y-105956D02*
D03*
X70066Y-104544D02*
D03*
X69997Y-101576D02*
D03*
X67545Y-99902D02*
D03*
X64577D02*
D03*
X61608D02*
D03*
X43456Y-88727D02*
D03*
Y-85758D02*
D03*
Y-82790D02*
D03*
Y-76853D02*
D03*
X44778Y-74195D02*
D03*
X46877Y-72096D02*
D03*
X112949Y-27444D02*
D03*
X115383Y-29144D02*
D03*
X99051Y-33044D02*
D03*
X96082D02*
D03*
X93114D02*
D03*
X90145D02*
D03*
X87177D02*
D03*
X84208D02*
D03*
X81240D02*
D03*
X78271D02*
D03*
X69366D02*
D03*
X61615Y-36413D02*
D03*
X59516Y-38511D02*
D03*
X57417Y-40611D02*
D03*
X57253Y-62275D02*
D03*
X57162Y-59308D02*
D03*
Y-56339D02*
D03*
X74607Y-37956D02*
D03*
X77575D02*
D03*
X80544D02*
D03*
X83512D02*
D03*
X86481D02*
D03*
X89449D02*
D03*
X92418D02*
D03*
X95386D02*
D03*
X98355D02*
D03*
X101323D02*
D03*
X104292D02*
D03*
X107260D02*
D03*
X110229D02*
D03*
X113194Y-37818D02*
D03*
X115511Y-35962D02*
D03*
X117610Y-33863D02*
D03*
X119709Y-31764D02*
D03*
X121392Y-29319D02*
D03*
X121577Y-26356D02*
D03*
X50633Y-26854D02*
D03*
X48723Y-29127D02*
D03*
X48544Y-32090D02*
D03*
Y-35058D02*
D03*
Y-38027D02*
D03*
Y-40995D02*
D03*
Y-43964D02*
D03*
X41054Y-53315D02*
D03*
X45257Y-65434D02*
D03*
X52787Y-61660D02*
D03*
X53456Y-43925D02*
D03*
Y-40957D02*
D03*
Y-37988D02*
D03*
Y-35020D02*
D03*
Y-32052D02*
D03*
X54948Y-29485D02*
D03*
X65983Y-21965D02*
D03*
X28272Y-14097D02*
D03*
X26556Y-16519D02*
D03*
Y-19487D02*
D03*
X27304Y-22360D02*
D03*
Y-25328D02*
D03*
Y-28297D02*
D03*
Y-31265D02*
D03*
Y-34234D02*
D03*
X28816Y-36788D02*
D03*
X30915Y-38888D02*
D03*
X33014Y-40987D02*
D03*
X35113Y-43086D02*
D03*
X37212Y-45185D02*
D03*
X39311Y-47284D02*
D03*
X41410Y-49383D02*
D03*
X43509Y-51482D02*
D03*
X48704Y-51969D02*
D03*
X48029Y-49078D02*
D03*
X45941Y-46968D02*
D03*
X43842Y-44869D02*
D03*
X41743Y-42770D02*
D03*
X39644Y-40671D02*
D03*
X37545Y-38572D02*
D03*
X35446Y-36473D02*
D03*
X33347Y-34374D02*
D03*
X32215Y-31629D02*
D03*
Y-28661D02*
D03*
Y-25692D02*
D03*
Y-22724D02*
D03*
X32964Y-19851D02*
D03*
Y-16883D02*
D03*
D78*
X137000Y-127000D02*
D03*
X133500Y-128500D02*
D03*
X130000D02*
D03*
X126500D02*
D03*
X125000Y-114500D02*
D03*
Y-118000D02*
D03*
Y-121500D02*
D03*
Y-125000D02*
D03*
X147000Y-126000D02*
D03*
X152500Y-120500D02*
D03*
X147000Y-115000D02*
D03*
X137000Y-123500D02*
D03*
Y-117500D02*
D03*
X25500Y-81000D02*
D03*
X66898Y-25398D02*
D03*
X67500Y-30000D02*
D03*
X77543Y-27957D02*
D03*
X26004Y-127000D02*
D03*
X32500Y-121000D02*
D03*
X78000Y-7750D02*
D03*
X43500Y-21500D02*
D03*
X55500Y-16500D02*
D03*
X107500Y-15000D02*
D03*
X74461Y-89039D02*
D03*
X74500Y-74500D02*
D03*
X15000Y-93000D02*
D03*
X32500D02*
D03*
X30039Y-70039D02*
D03*
X185000Y-130500D02*
D03*
X171500Y-131000D02*
D03*
X29000Y-139709D02*
D03*
X108000Y-24000D02*
D03*
X157000Y-97000D02*
D03*
X163039Y-89961D02*
D03*
X140539Y-87461D02*
D03*
X155480Y-76480D02*
D03*
X158500Y-69000D02*
D03*
X181000Y-39500D02*
D03*
X170039Y-15461D02*
D03*
X165961Y-9961D02*
D03*
X171461Y39D02*
D03*
X168000Y-44500D02*
D03*
X150000Y-30000D02*
D03*
X124500Y-28000D02*
D03*
X112539Y-30461D02*
D03*
X90500Y-30000D02*
D03*
X55500Y-21000D02*
D03*
X67500Y-4000D02*
D03*
X48500Y-4500D02*
D03*
X43461Y-7961D02*
D03*
X29760Y-3760D02*
D03*
X69878Y-79878D02*
D03*
X69791Y-84209D02*
D03*
X70346Y-125154D02*
D03*
X70323Y-120823D02*
D03*
X70161Y-112161D02*
D03*
X13256Y-80244D02*
D03*
X13445Y-73945D02*
D03*
X36912Y-62912D02*
D03*
X47657Y-92843D02*
D03*
X20500Y-97500D02*
D03*
X24201Y-97299D02*
D03*
X157000Y-50500D02*
D03*
X162500D02*
D03*
X125000Y-88500D02*
D03*
X125291Y-84209D02*
D03*
X125122Y-79878D02*
D03*
X123500Y-62500D02*
D03*
Y-58000D02*
D03*
X46244Y-80244D02*
D03*
X48106Y-83394D02*
D03*
X48094Y-77095D02*
D03*
X59000Y-94000D02*
D03*
X55500Y-99500D02*
D03*
X46248Y-110752D02*
D03*
X43098Y-108402D02*
D03*
X39949Y-110949D02*
D03*
X37000Y-108500D02*
D03*
X33650Y-110350D02*
D03*
X30500Y-108000D02*
D03*
D79*
X184000Y-2500D02*
D03*
M02*
