M48
;Layer_Color=9474304
;FILE_FORMAT=2:5
INCH,LZ
;TYPE=PLATED
T1F00S00C0.01181
T2F00S00C0.02717
T3F00S00C0.02800
T4F00S00C0.03346
T5F00S00C0.03543
T6F00S00C0.03780
%
T01
X00765Y-01125
X0076789Y-0106888
X007221Y-0103518
X0112Y-01115
X01095Y-01145
X0107Y-01215
X0111Y-01235
X01295Y-0083
X0135Y-0082
X01245Y-00775
X0109993Y-0060742
X011201Y-0058052
X0113246Y-0054925
X0113656Y-0051588
Y-0048226
Y-0044864
Y-0041501
Y-0038139
Y-0034777
Y-0031415
Y-0028052
Y-002469
X0113799Y-0021331
X0115085Y-0018225
X0109367Y-0018276
X0108392Y-0021493
X0108344Y-0024855
Y-0028218
Y-003158
Y-0034942
Y-0038304
Y-0041666
Y-0045028
Y-0048391
Y-0051753
X010761Y-0055034
X0105551Y-0057692
X009446Y-0058941
X0092656Y-0056104
Y-0052741
Y-0049379
Y-0046017
Y-0042655
Y-0039293
X0087344Y-0038713
Y-0042075
Y-0045437
Y-00488
Y-0052162
Y-0055524
X0087188Y-0058883
X0096695Y-0061453
X0096487Y-0064809
X0082Y-0049
X0080751Y-0039645
X0084113
X0078335Y-0037307
X0078905Y-0032754
X0078523Y-0026701
X0075563Y-0025379
X0072225Y-0024979
X0068923Y-0024344
X0065561
X00635Y-00215
X0060448Y-0026312
X0057165Y-0027035
X0056Y-00365
X00565Y-004
Y-00435
X0066Y-00405
X0071Y-00445
X00445Y-0044
Y-004
X0044901Y-003527
X0038916Y-0035662
Y-00323
Y-0028938
Y-0025576
Y-0022214
X0039665Y-0018936
Y-0015574
X0040099Y-0011665
X0047Y-0011
Y-00155
X0046503Y-0003691
X0049812Y-0004288
X0052522Y-0006278
X0054899Y-0008656
X0057549Y-0010725
X0060658Y-0012005
X0063997Y-0012397
X0062967Y-0007035
X0059802Y-0005899
X0057353Y-0003596
X0054912Y-0001283
X0052056Y000049
X0048833Y0001448
X0045475Y0001622
X0042157Y0002166
X0039747Y000451
X003755Y0007055
X0036317Y0010183
X0036156Y0013541
Y0016904
Y0020266
Y0023628
Y002699
X0036305Y0030349
X0038008Y0033248
X0040386Y0035625
X0042763Y0038003
X0045141Y004038
X0047518Y0042757
X0049896Y0045135
X0052273Y0047512
X005465Y004989
X0057028Y0052267
X0059405Y0054645
X0062704Y0055297
X0065449Y0057237
X0066416Y0060458
X0065195Y006359
X0062309Y0065316
X0058333Y0064516
X0056325Y006182
X0055754Y0058506
X0053376Y0056129
X0050999Y0053751
X0048621Y0051374
X0046244Y0048997
X0043867Y0046619
X0041489Y0044242
X0039112Y0041864
X0036734Y0039487
X0034357Y0037109
X0032291Y0034456
X0031086Y0031318
X0030844Y0027964
Y0024602
Y002124
Y0017878
Y0014515
X0030887Y0011153
X0031433Y0007836
X0032754Y0004744
X0034744Y0002034
X0036975Y-0000482
X0032Y-0003
Y-0008
X0033249Y-0013371
X0032855Y-001671
X0033011Y-0020069
X0033604Y-0023379
Y-0026741
Y-0030103
Y-0033465
X0033572Y-0036827
X003852Y-0039001
X0036832Y-0041909
X0034072Y-0043829
X0022239Y-0041751
X00215Y-0038
X0013Y-004
X0009Y-00405
X0012Y-00495
X00175Y-0054
X0081604Y-0025355
X0085741Y-0025524
X0089079Y-0025927
X0092417Y-0026326
X0095756Y-0025927
X0098895Y-0027131
X0099612Y-0030416
X00995Y-0037
X0098705Y-0011156
X0095343
X0091981
X0088619
X0085275Y-0011508
X0082929Y-0013916
X0081183Y-001679
X0077823Y-0016885
X0074511Y-0016303
X0073086Y-0010841
X0075524Y-0010166
X0078777Y-0009319
X0072773Y-0007494
X0084659Y-0006192
X0088003Y-0005844
X0091365
X0094727
X0098089
X0101452
X0102068Y-0011156
X0117469Y-0008549
X00815Y0
X0071Y00045
X0066Y-00005
T02
X0163Y-00115
X0153Y-00015
X0143Y-00115
T03
X0015996Y-0120642
X0011075Y-0110799
X0015996Y-0100957
X0011075Y-0091114
X0065209Y-0100957
X0079972Y-0091114
X0089815
X0099657
X01095
X0104579Y-0100957
X0094736
X0134106
X0143949
X0153791
X014887Y-0091114
X0139028
X0129185
X0139028Y-0110799
X014887
X0153791Y-0120642
X0143949
X0134106
X0129185Y-0130484
X0050445
X0040602
X0045524Y-0120642
X0158713Y-0110799
Y-0091114
Y-0071429
Y-0051744
Y-0032059
X0173476Y0036839
X0183319
X0178398Y0046681
X0183319Y0056524
X0173476
X0178398Y0066366
X0129185
X0119343
X01095
X0114421Y0056524
X0124264
X0104579
X0084894
X0075051
X0079972Y0066366
X0089815
X007013
X0020917
X0011075
X0015996Y0056524
X0025839
X0020917Y0046681
X0011075
X0015996Y0036839
X0025839
X0045524Y0017154
X0055366
X0065209
X0075051
X0084894
X0094736
X0104579
X0114421
X0124264
X0134106
X0143949
X0153791
X0143949Y-0002531
X0134106
X0124264
X0129185Y-0012374
X0134106Y-0022217
X0143949
X0153791
X014887Y-0012374
Y-0032059
X0139028
X0129185
X0119343
X0124264Y-0022217
Y-0041902
X0134106
X0143949
X0153791
X014887Y-0051744
X0139028
X0129185
X0119343
X0124264Y-0061587
X0134106
X0143949
X0153791
X014887Y-0071429
X0153791Y-0081272
X0143949
X0104579
X0094736
X0084894
X0099657Y-0071429
Y-0051744
X007013
X0060287
X0050445
X0040602
X0045524Y-0061587
X0055366
X0065209
X0075051
X007013Y-0071429
X0060287
X0050445
X0040602
X0035681Y-0061587
X0015996
X0011075Y-0071429
X0015996Y-0081272
X0025839Y-0022217
X0020917Y-0012374
X0011075
X0015996Y-0002531
X0025839
Y0076209
X0015996
X0020917Y0086051
X0011075
X0015996Y0095894
X0025839
X0020917Y0105736
X0011075
X0015996Y0115579
X0025839
X0020917Y0125421
X0011075
X0015996Y0135264
X0025839
X0020917Y0145106
X0011075
X0015996Y0154949
X0025839
X0011075Y0164791
X0035681Y0174634
X0045524
X0055366
X0065209
X0075051
X0084894
X0094736
X0104579
X0114421
X0124264
X0134106
X0143949
X0153791
X014887Y0184476
X0139028
X0129185
X0119343
X01095
X0099657
X0089815
X0079972
X007013
X0060287
X0050445
X0040602
X003076
X0060287Y0145106
X007013
X0079972
X0089815
X0099657
X01095
X0119343
X0129185
X0139028
X0143949Y0135264
X0124264
X0114421
X0104579
X0094736
X0099657Y0125421
X01095
X0119343
X0129185
X0134106Y0115579
X0124264
X0114421
X0119343Y0105736
X0129185
X0134106Y0095894
X0119343Y0086051
X01095
X0099657
X0089815
X0079972
X007013
X0060287
X0050445
X0055366Y0095894
X0065209
X0075051
X0084894
X0094736
X0104579
X0099657Y0105736
X0089815
X0079972
X007013
X0060287
X0050445
X0055366Y0115579
X0065209
X0075051
X0084894
X0079972Y0125421
X0060287
X0050445
X0055366Y0076209
X0065209
X0075051
X0084894
X0094736
X0104579
X0114421
X0124264
X0173476
X0183319
X0178398Y0086051
X0183319Y0095894
X0173476
X0178398Y0105736
X0183319Y0115579
X0173476
X0178398Y0125421
X0183319Y0135264
X0173476
X0178398Y0145106
X0183319Y0154949
X0173476
X0168555Y0164791
X0163634Y0174634
X0158713Y0184476
T04
X01075Y-00135
Y-00035
X01175
Y-00135
X01125Y-00085
T05
X0013177Y-0154079
Y-0144079
X0023177
Y-0154079
X0033177
Y-0144079
X0043177
Y-0154079
X0053177
Y-0144079
X0063177
Y-0154079
X0073177
Y-0144079
X0083177
Y-0154079
X0093177
Y-0144079
X0103177
Y-0154079
X0113177
Y-0144079
X0123177
Y-0154079
X0133177
Y-0144079
X0143177
Y-0154079
X0153177
Y-0144079
X0032Y-01205
Y-01105
Y-01005
Y-00905
X0163177Y-0144079
Y-0154079
X0173177
Y-0144079
X0183177
Y-0154079
X0032Y-00805
Y-00705
X0033177Y0213874
X0023177
X0013177
Y0223874
X0023177
X0033177
X0043177
Y0213874
X0053177
Y0223874
X0063177
Y0213874
X0073177
Y0223874
X0083177
Y0213874
X0093177
Y0223874
X0103177
Y0213874
X0113177
Y0223874
X0123177
Y0213874
X0133177
Y0223874
X0143177
Y0213874
X0153177
Y0223874
X0163177
Y0213874
X0173177
Y0223874
X0183177
Y0213874
T06
X0061252Y0060248
X0098752
X0136252
Y0135248
X0061252
M30
