M48
;Layer_Color=9474304
;FILE_FORMAT=2:5
INCH,LZ
;TYPE=PLATED
T1F00S00C0.01000
T2F00S00C0.01181
T3F00S00C0.01575
T4F00S00C0.03346
T5F00S00C0.03543
T6F00S00C0.03780
T7F00S00C0.03937
T8F00S00C0.05118
%
T01
X0048984Y-0102456
X0051083Y-0104555
X00537Y-0105956
X0061608Y-0099902
X0064577
X0067545
X0069997Y-0101576
X0070066Y-0104544
X0043456Y-0088727
Y-0085758
Y-008279
X0038544Y-0082869
Y-0085838
Y-0088806
Y-0079901
Y-0076932
X0038651Y-0073966
X0040434Y-0071593
X0042533Y-0069494
X0045257Y-0065434
X0046877Y-0072096
X0044778Y-0074195
X0043456Y-0076853
X0052787Y-006166
X0057253Y-0062275
X0057162Y-0059308
Y-0056339
X0048704Y-0051969
X0048029Y-0049078
X0045941Y-0046968
X0043842Y-0044869
X0041743Y-004277
X0039644Y-0040671
X0037545Y-0038572
X0035446Y-0036473
X0033347Y-0034374
X0032215Y-0031629
Y-0028661
Y-0025692
Y-0022724
X0032964Y-0019851
Y-0016883
X0034035Y-0012964
X0031101Y-0012514
X0028272Y-0014097
X0026556Y-0016519
Y-0019487
X0027304Y-002236
Y-0025328
Y-0028297
Y-0031265
Y-0034234
X0028816Y-0036788
X0030915Y-0038888
X0033014Y-0040987
X0035113Y-0043086
X0037212Y-0045185
X0039311Y-0047284
X004141Y-0049383
X0043509Y-0051482
X0041054Y-0053315
X0048544Y-0043964
Y-0040995
Y-0038027
Y-0035058
Y-003209
X0048723Y-0029127
X0050633Y-0026854
X0054948Y-0029485
X0053456Y-0032052
Y-003502
Y-0037988
Y-0040957
Y-0043925
X0057417Y-0040611
X0059516Y-0038511
X0061615Y-0036413
X0069366Y-0033044
X0078271
X008124
X0084208
X0087177
X0090145
X0093114
X0096082
X0099051
X0098355Y-0037956
X0095386
X0092418
X0089449
X0086481
X0083512
X0080544
X0077575
X0074607
X0065983Y-0021965
X0035956Y-0002632
Y0000337
Y0003305
Y0006274
Y0009242
Y0012211
Y0015179
Y0018148
Y0021116
Y0024085
Y0027053
X0036036Y003002
X0037265Y0032723
X0039331Y0034854
X004143Y0036953
X0043529Y0039052
X0045628Y0041151
X0047727Y004325
X0049826Y0045349
X0051925Y0047449
X0054024Y0049547
X0056123Y0051647
X0058222Y0053746
X0060745Y005531
X0063653Y0055908
X0065711Y0058047
X006616Y0060982
X0064865Y0063653
X0062283Y0065117
X0057429Y0063417
X0056303Y006067
X005538Y0057849
X0053281Y005575
X0051182Y005365
X0049083Y0051552
X0046984Y0049452
X0044884Y0047353
X0042786Y0045254
X0040686Y0043155
X0038587Y0041056
X0036488Y0038957
X0034389Y0036858
X0032555Y0034524
X0031414Y0031784
X0031044Y0028838
Y002587
Y0022901
Y0019933
Y0016964
Y0013996
Y0011027
Y0008059
Y000509
Y0002122
Y-0000847
X0101323Y-0037956
X0104292
X010726
X0110229
X0113194Y-0037818
X0115511Y-0035962
X011761Y-0033863
X0119709Y-0031764
X0121392Y-0029319
X0121577Y-0026356
X0115383Y-0029144
X0112949Y-0027444
T02
X0029Y-0139709
X0026004Y-0127
X00325Y-0121
X003365Y-011035
X0037Y-01085
X0039949Y-0110949
X0043098Y-0108402
X0046248Y-0110752
X00305Y-0108
X00325Y-0093
X0024201Y-0097299
X00205Y-00975
X0015Y-0093
X0047657Y-0092843
X0048106Y-0083394
X0059Y-0094
X00555Y-00995
X0070161Y-0112161
X0070323Y-0120823
X0070346Y-0125154
X0074461Y-0089039
X0069791Y-0084209
X0125291
X0125Y-00885
X0140539Y-0087461
X0137Y-01175
Y-01235
Y-0127
X01335Y-01285
X013
X01265
X0125Y-0125
Y-01215
Y-0118
Y-01145
X0147Y-0115
Y-0126
X01525Y-01205
X0157Y-0097
X0163039Y-0089961
X01715Y-0131
X0185Y-01305
X01585Y-0069
X0157Y-00505
X01625
X0168Y-00445
X0181Y-00395
X0170039Y-0015461
X0165961Y-0009961
X0171461Y0000039
X015Y-003
X01245Y-0028
X0112539Y-0030461
X0108Y-0024
X01075Y-0015
X00905Y-003
X0077543Y-0027957
X00675Y-003
X0066898Y-0025398
X00555Y-0021
Y-00165
X00435Y-00215
X0043461Y-0007961
X00485Y-00045
X002976Y-000376
X00675Y-0004
X0078Y-000775
X00745Y-00745
X0069878Y-0079878
X0046244Y-0080244
X0048094Y-0077095
X0030039Y-0070039
X0036912Y-0062912
X00255Y-0081
X0013256Y-0080244
X0013445Y-0073945
X0125122Y-0079878
X01235Y-00625
Y-0058
X015548Y-007648
T03
X0009106Y-0112768
Y-0104894
X0079973
X0087847
X0095721
X0103595
X0111469
X0119343
Y-0112768
Y-0120642
Y-0128516
X0111469
Y-0120642
Y-0112768
X0103595
Y-0120642
Y-0128516
X0095721
Y-0120642
Y-0112768
X0087847
Y-0120642
Y-0128516
X0079973
Y-0120642
Y-0112768
Y-009702
X0087847
X0095721
X0103595
X0111469
Y-0089146
X0103595
X0095721
X0087847
X0079973
X0072099Y-009702
X0150839Y-0104894
X0158713
X0166587
X0174461
X0182335
Y-0112768
Y-0120642
X0174461Y-0112768
X0166587
Y-0120642
X0158713
Y-0112768
Y-0128516
Y-0089146
X0174461
X0182335
X0166587Y-0057649
X0158713
Y-0034027
X0166587Y-0018279
X0158713Y0013217
Y0021091
X0174461Y0036839
X0182335
Y0044713
Y0052587
Y0060461
Y0068335
X0174461
Y0060461
Y0052587
Y0044713
X0150839Y0021091
Y0013217
X0142965
Y0021091
X0135091
Y0013217
X0127217
Y0021091
X0119343
Y0013217
X0111469
Y0021091
X0103595
Y0013217
X0095721
Y0021091
X0087847
Y0013217
X0079973
Y0021091
X0072099
Y0013217
X0064224
Y0021091
X005635
Y0013217
X0048476
Y0021091
X0040602
Y0013217
Y-0002531
X0024854
Y-0010405
X001698
Y-0002531
Y-0018279
X0040602Y-0026153
Y-0034027
X0032728Y-0049775
X0024854
Y-0041901
Y-0065523
X0032728
X0024854Y-0073398
X0079973
X0087847
X0095721
X0103595
X0111469
Y-0065523
X0103595
X0095721
X0087847
X0079973
X0072099
Y-0049775
X0079973
X0087847
X0095721
X0103595
X0111469
X0119343
X0127217
X0135091
X0142965
X0150839
X0142965Y-0041901
Y-0034027
Y-0026153
Y-0018279
X0150839
Y-0010405
Y-0002531
X0142965
Y-0010405
X0135091
Y-0002531
X0127217
Y-0010405
X0119343
Y-0002531
X0111469
X0103595
X0095721
Y-0010405
X0072099
Y-0002531
Y-0018279
Y-0026153
Y-0041901
X0079973
X0087847
X0095721
X0103595
X0111469
X0119343
X0127217
X0135091
Y-0034027
Y-0026153
Y-0018279
X0127217Y-0034027
X0142965Y-0057649
X0111469Y-0081272
X0103595
X0095721
X0087847
X0079973
X0064224Y-0049775
X0072099Y0052587
X0079973
X0087847
X0095721
X0103595
X0111469
X0119343
X0127217
X0135091
Y0068335
X0127217
Y0060461
X0119343
Y0068335
X0111469
Y0060461
X0103595Y0068335
X0095721
X0087847
Y0060461
X0079973
Y0068335
X0072099
Y0060461
X0064224Y0068335
X005635
X0024854
Y0060461
Y0052587
Y0044713
Y0036839
X001698
Y0044713
Y0052587
Y0060461
Y0068335
X0009106
Y0060461
Y0052587
Y0044713
Y0036839
Y0028965
Y0013217
Y0076209
X001698
X0024854
Y0084083
Y0091957
Y0099831
Y0107705
Y0115579
Y0123453
Y0131327
Y0139201
Y0147075
Y0154949
Y0162823
X001698
Y0154949
Y0147075
Y0139201
Y0131327
Y0123453
Y0115579
Y0107705
Y0099831
Y0091957
Y0084083
X0009106
Y0091957
Y0099831
Y0107705
Y0115579
Y0123453
Y0131327
Y0139201
Y0147075
Y0154949
Y0162823
Y0170697
Y0186445
X0032728
X0040602
X0048476
X005635
X0064224
X0072099
X0079973
X0087847
X0095721
X0103595
X0111469
X0119343
X0127217
X0135091
X0142965
X0150839
Y0178571
Y0170697
X0142965
Y0178571
X0135091
Y0170697
X0127217
Y0178571
X0119343
Y0170697
X0111469
Y0178571
X0103595
Y0170697
X0095721
Y0178571
X0087847
Y0170697
X0079973
Y0178571
X0072099
Y0170697
X0064224
Y0178571
X005635
Y0170697
X0048476
Y0178571
X0040602
Y0170697
X0032728
Y0178571
X005635Y0147075
X0064224
X0072099
X0079973
X0087847
X0095721
X0103595
X0111469
X0119343
X0127217
X0135091
X0142965Y0139201
X0127217
Y0131327
Y0123453
X0135091
Y0115579
Y0107705
Y0099831
Y0091957
X0127217Y0099831
Y0107705
Y0115579
X0119343
Y0123453
Y0131327
Y0139201
X0111469
Y0131327
Y0123453
Y0115579
X0119343Y0107705
Y0084083
Y0076209
X0127217
X0111469
Y0084083
Y0091957
X0103595
Y0099831
X0095721
Y0107705
X0087847
Y0115579
X0079973
Y0123453
X0072099
Y0115579
Y0107705
X0079973
Y0099831
X0087847
Y0091957
X0095721
Y0084083
X0103595
Y0076209
X0095721
X0087847
Y0084083
X0079973
Y0091957
X0072099
Y0099831
X0064224
Y0107705
Y0115579
Y0123453
X005635
Y0131327
Y0139201
X0048476
Y0131327
Y0123453
Y0115579
X005635
Y0107705
Y0099831
Y0091957
X0064224
Y0084083
X0072099
Y0076209
X0079973
X0064224
X005635
Y0084083
X0103595Y0123453
Y0131327
Y0139201
X0095721
Y0131327
X0087847Y0139201
X0174461
X0182335
Y0147075
Y0154949
Y0162823
X0174461
Y0154949
Y0147075
Y0131327
X0182335
Y0123453
Y0115579
Y0107705
Y0099831
Y0091957
Y0084083
Y0076209
X0174461
Y0084083
Y0091957
Y0099831
Y0107705
Y0115579
Y0123453
X0166587Y0162823
Y0170697
X0158713
Y0178571
Y0186445
X0166587
T04
X00105Y-0133
X00205
Y-0123
X00105
X00155Y-0128
X00445Y-01325
Y-01225
X00545
Y-01325
X00495Y-01275
X0142Y-01255
X0152
Y-01155
X0142
X0147Y-01205
T05
X0013177Y-0154079
Y-0144079
X0023177
Y-0154079
X0033177
Y-0144079
X0043177
Y-0154079
X0053177
Y-0144079
X0063177
Y-0154079
X0073177
Y-0144079
X0083177
Y-0154079
X0093177
Y-0144079
X0103177
Y-0154079
X0113177
Y-0144079
X0123177
Y-0154079
X0133177
Y-0144079
X0143177
Y-0154079
X0153177
Y-0144079
X0163177
Y-0154079
X0173177
Y-0144079
X0183177
Y-0154079
X00065Y-00525
Y-00425
Y-00325
Y-00225
Y-00125
Y-00025
X0013177Y0213874
Y0223874
X0023177
Y0213874
X0033177
Y0223874
X0043177
Y0213874
X0053177
Y0223874
X0063177
Y0213874
X0073177
Y0223874
X0083177
Y0213874
X0093177
Y0223874
X0103177
Y0213874
X0113177
Y0223874
X0123177
Y0213874
X0133177
Y0223874
X0143177
Y0213874
X0153177
Y0223874
X0163177
Y0213874
X0173177
Y0223874
X0183177
Y0213874
T06
X0061252Y0060248
X0098752
X0136252
Y0135248
X0061252
T07
X0184Y-00025
T08
X0182295Y-0080492
Y-0054508
M30
