G04*
G04 #@! TF.GenerationSoftware,Altium Limited,Altium Designer,22.4.2 (48)*
G04*
G04 Layer_Color=8388736*
%FSLAX25Y25*%
%MOIN*%
G70*
G04*
G04 #@! TF.SameCoordinates,EE9FD93B-DFF2-4F26-82DF-D5074B5D0FFF*
G04*
G04*
G04 #@! TF.FilePolarity,Negative*
G04*
G01*
G75*
%ADD38R,0.31500X0.12500*%
%ADD39R,0.04043X0.03650*%
%ADD40R,0.09358X0.09752*%
%ADD41R,0.03650X0.04043*%
%ADD42R,0.02862X0.06406*%
%ADD43R,0.02862X0.05224*%
G04:AMPARAMS|DCode=44|XSize=42.4mil|YSize=42.4mil|CornerRadius=11.85mil|HoleSize=0mil|Usage=FLASHONLY|Rotation=180.000|XOffset=0mil|YOffset=0mil|HoleType=Round|Shape=RoundedRectangle|*
%AMROUNDEDRECTD44*
21,1,0.04240,0.01870,0,0,180.0*
21,1,0.01870,0.04240,0,0,180.0*
1,1,0.02370,-0.00935,0.00935*
1,1,0.02370,0.00935,0.00935*
1,1,0.02370,0.00935,-0.00935*
1,1,0.02370,-0.00935,-0.00935*
%
%ADD44ROUNDEDRECTD44*%
%ADD45R,0.07887X0.03950*%
%ADD46R,0.07587X0.03650*%
%ADD47R,0.05224X0.02862*%
%ADD48R,0.05815X0.02075*%
%ADD49R,0.06012X0.06799*%
%ADD50R,0.06799X0.07980*%
%ADD51R,0.04634X0.02862*%
%ADD52O,0.02075X0.06799*%
%ADD53O,0.07390X0.02665*%
%ADD54O,0.02665X0.07390*%
%ADD55R,0.02862X0.05224*%
%ADD56O,0.07193X0.01878*%
G04:AMPARAMS|DCode=57|XSize=42.4mil|YSize=42.4mil|CornerRadius=11.85mil|HoleSize=0mil|Usage=FLASHONLY|Rotation=270.000|XOffset=0mil|YOffset=0mil|HoleType=Round|Shape=RoundedRectangle|*
%AMROUNDEDRECTD57*
21,1,0.04240,0.01870,0,0,270.0*
21,1,0.01870,0.04240,0,0,270.0*
1,1,0.02370,-0.00935,-0.00935*
1,1,0.02370,-0.00935,0.00935*
1,1,0.02370,0.00935,0.00935*
1,1,0.02370,0.00935,-0.00935*
%
%ADD57ROUNDEDRECTD57*%
%ADD58R,0.04831X0.02862*%
%ADD59C,0.06012*%
%ADD60C,0.08177*%
%ADD61C,0.06406*%
%ADD62R,0.06406X0.06406*%
%ADD63C,0.06378*%
%ADD64R,0.06406X0.06406*%
D38*
X139750Y-120750D02*
D03*
D39*
X170000Y-6272D02*
D03*
X170039Y-12807D02*
D03*
X43461Y-11693D02*
D03*
X43500Y-18228D02*
D03*
X140539Y-84807D02*
D03*
X140500Y-78272D02*
D03*
X163039Y-86807D02*
D03*
X163000Y-80272D02*
D03*
X141500Y-104244D02*
D03*
Y-109756D02*
D03*
X170039Y-39307D02*
D03*
X170000Y-32772D02*
D03*
X150000Y-38756D02*
D03*
Y-33244D02*
D03*
X156500Y-15244D02*
D03*
Y-20756D02*
D03*
Y756D02*
D03*
Y-4756D02*
D03*
X52500Y-16272D02*
D03*
X52539Y-22807D02*
D03*
X52500Y-4272D02*
D03*
X52539Y-10807D02*
D03*
D40*
X180500Y-21354D02*
D03*
Y-40646D02*
D03*
D41*
X148244Y-97000D02*
D03*
X153756D02*
D03*
X139244Y-66000D02*
D03*
X144756D02*
D03*
X33244Y-117000D02*
D03*
X38756D02*
D03*
X19244D02*
D03*
X24756D02*
D03*
X90693Y-26039D02*
D03*
X97228Y-26000D02*
D03*
X139244Y-72000D02*
D03*
X144756D02*
D03*
X163307Y-9961D02*
D03*
X156772Y-10000D02*
D03*
X168807Y39D02*
D03*
X162272Y0D02*
D03*
X102772Y-30500D02*
D03*
X109307Y-30461D02*
D03*
X63756Y-4000D02*
D03*
X58244D02*
D03*
X84535Y-3961D02*
D03*
X78000Y-4000D02*
D03*
D42*
X155480Y-80500D02*
D03*
X148000D02*
D03*
X151740Y-89555D02*
D03*
D43*
X29260Y-134528D02*
D03*
X33000D02*
D03*
X36740D02*
D03*
Y-125472D02*
D03*
X33000D02*
D03*
X29260D02*
D03*
D44*
X96500Y-15539D02*
D03*
Y-20461D02*
D03*
X119000Y-22961D02*
D03*
Y-18039D02*
D03*
X125000D02*
D03*
Y-22961D02*
D03*
X90500Y-20461D02*
D03*
Y-15539D02*
D03*
D45*
X131000Y-58224D02*
D03*
Y-62555D02*
D03*
Y-66886D02*
D03*
Y-71216D02*
D03*
Y-75547D02*
D03*
Y-79878D02*
D03*
Y-84209D02*
D03*
Y-88539D02*
D03*
Y-103500D02*
D03*
Y-107831D02*
D03*
Y-112161D02*
D03*
Y-116492D02*
D03*
Y-120823D02*
D03*
X64500Y-125154D02*
D03*
Y-120823D02*
D03*
Y-116492D02*
D03*
Y-112161D02*
D03*
Y-107831D02*
D03*
Y-103500D02*
D03*
Y-88539D02*
D03*
Y-84209D02*
D03*
Y-79878D02*
D03*
Y-75547D02*
D03*
Y-71216D02*
D03*
Y-66886D02*
D03*
Y-62555D02*
D03*
D46*
X131000Y-125154D02*
D03*
X64500Y-58224D02*
D03*
D47*
X162528Y-72740D02*
D03*
Y-69000D02*
D03*
Y-65260D02*
D03*
X153472D02*
D03*
Y-69000D02*
D03*
Y-72740D02*
D03*
D48*
X171764Y-72618D02*
D03*
Y-70059D02*
D03*
Y-67500D02*
D03*
Y-64941D02*
D03*
Y-62382D02*
D03*
D49*
X172650Y-80098D02*
D03*
Y-54902D02*
D03*
D50*
X182295Y-72224D02*
D03*
Y-62776D02*
D03*
D51*
X175945Y-4760D02*
D03*
Y-12240D02*
D03*
X185000Y-8500D02*
D03*
D52*
X156161Y-44268D02*
D03*
X158721D02*
D03*
X161279D02*
D03*
X163839D02*
D03*
X156161Y-27732D02*
D03*
X158721D02*
D03*
X161279D02*
D03*
X163839D02*
D03*
D53*
X52744Y-67646D02*
D03*
Y-70795D02*
D03*
Y-73945D02*
D03*
Y-77095D02*
D03*
X52744Y-80244D02*
D03*
Y-83394D02*
D03*
X52744Y-86543D02*
D03*
Y-89693D02*
D03*
Y-92843D02*
D03*
Y-95992D02*
D03*
X8256D02*
D03*
Y-92843D02*
D03*
Y-89693D02*
D03*
Y-86543D02*
D03*
Y-83394D02*
D03*
Y-80244D02*
D03*
Y-77095D02*
D03*
Y-73945D02*
D03*
Y-70795D02*
D03*
Y-67646D02*
D03*
Y-64496D02*
D03*
X52744Y-64496D02*
D03*
D54*
X46248Y-102488D02*
D03*
X43098D02*
D03*
X39949D02*
D03*
X36799D02*
D03*
X33650Y-102488D02*
D03*
X30500Y-102488D02*
D03*
X27350D02*
D03*
X24201D02*
D03*
X21051D02*
D03*
X17902D02*
D03*
X14752D02*
D03*
X14752Y-58000D02*
D03*
X17902D02*
D03*
X21051D02*
D03*
X24201D02*
D03*
X27350D02*
D03*
X30500D02*
D03*
X33650D02*
D03*
X36799D02*
D03*
X39949D02*
D03*
X43098D02*
D03*
X46248D02*
D03*
D55*
X37240Y-8579D02*
D03*
X33500D02*
D03*
X29760D02*
D03*
Y-18421D02*
D03*
X37240D02*
D03*
D56*
X83220Y-27957D02*
D03*
Y-25398D02*
D03*
Y-22839D02*
D03*
Y-20279D02*
D03*
Y-17720D02*
D03*
Y-15161D02*
D03*
Y-12602D02*
D03*
Y-10043D02*
D03*
X60780Y-27957D02*
D03*
Y-25398D02*
D03*
Y-22839D02*
D03*
Y-20279D02*
D03*
Y-17720D02*
D03*
Y-15161D02*
D03*
Y-12602D02*
D03*
Y-10043D02*
D03*
D57*
X110461Y-10500D02*
D03*
X105539D02*
D03*
D58*
X112724Y-24240D02*
D03*
Y-20500D02*
D03*
Y-16760D02*
D03*
X103276D02*
D03*
Y-24240D02*
D03*
D59*
X44500Y-132500D02*
D03*
Y-122500D02*
D03*
X54500D02*
D03*
Y-132500D02*
D03*
X49500Y-127500D02*
D03*
X20500Y-133000D02*
D03*
X10500D02*
D03*
Y-123000D02*
D03*
X20500D02*
D03*
X15500Y-128000D02*
D03*
X152000Y-125500D02*
D03*
X142000D02*
D03*
Y-115500D02*
D03*
X152000D02*
D03*
X147000Y-120500D02*
D03*
D60*
X182295Y-80492D02*
D03*
Y-54508D02*
D03*
D61*
X6500Y-2500D02*
D03*
Y-12500D02*
D03*
Y-22500D02*
D03*
Y-32500D02*
D03*
Y-42500D02*
D03*
X13177Y223874D02*
D03*
Y213874D02*
D03*
X23177Y223874D02*
D03*
Y213874D02*
D03*
X33177Y223874D02*
D03*
Y213874D02*
D03*
X43177Y223874D02*
D03*
Y213874D02*
D03*
X53177Y223874D02*
D03*
Y213874D02*
D03*
X63177Y223874D02*
D03*
Y213874D02*
D03*
X73177Y223874D02*
D03*
Y213874D02*
D03*
X83177Y223874D02*
D03*
Y213874D02*
D03*
X93177Y223874D02*
D03*
Y213874D02*
D03*
X103177Y223874D02*
D03*
Y213874D02*
D03*
X113177Y223874D02*
D03*
Y213874D02*
D03*
X123177Y223874D02*
D03*
Y213874D02*
D03*
X133177Y223874D02*
D03*
Y213874D02*
D03*
X143177Y223874D02*
D03*
Y213874D02*
D03*
X153177Y223874D02*
D03*
Y213874D02*
D03*
X163177Y223874D02*
D03*
Y213874D02*
D03*
X173177Y223874D02*
D03*
Y213874D02*
D03*
X183177Y223874D02*
D03*
X13177Y-144079D02*
D03*
Y-154079D02*
D03*
X23177Y-144079D02*
D03*
Y-154079D02*
D03*
X33177Y-144079D02*
D03*
Y-154079D02*
D03*
X43177Y-144079D02*
D03*
Y-154079D02*
D03*
X53177Y-144079D02*
D03*
Y-154079D02*
D03*
X63177Y-144079D02*
D03*
Y-154079D02*
D03*
X73177Y-144079D02*
D03*
Y-154079D02*
D03*
X83177Y-144079D02*
D03*
Y-154079D02*
D03*
X93177Y-144079D02*
D03*
Y-154079D02*
D03*
X103177Y-144079D02*
D03*
Y-154079D02*
D03*
X113177Y-144079D02*
D03*
Y-154079D02*
D03*
X123177Y-144079D02*
D03*
Y-154079D02*
D03*
X133177Y-144079D02*
D03*
Y-154079D02*
D03*
X143177Y-144079D02*
D03*
Y-154079D02*
D03*
X153177Y-144079D02*
D03*
Y-154079D02*
D03*
X163177Y-144079D02*
D03*
Y-154079D02*
D03*
X173177Y-144079D02*
D03*
Y-154079D02*
D03*
X183177Y-144079D02*
D03*
D62*
X6500Y-52500D02*
D03*
D63*
X61252Y60248D02*
D03*
X98752D02*
D03*
X136252D02*
D03*
Y135248D02*
D03*
X61252D02*
D03*
D64*
X183177Y213874D02*
D03*
Y-154079D02*
D03*
M02*
