G04*
G04 #@! TF.GenerationSoftware,Altium Limited,Altium Designer,22.4.2 (48)*
G04*
G04 Layer_Physical_Order=1*
G04 Layer_Color=255*
%FSLAX25Y25*%
%MOIN*%
G70*
G04*
G04 #@! TF.SameCoordinates,153A9C53-5A63-4743-AA9A-0FD6701F73E5*
G04*
G04*
G04 #@! TF.FilePolarity,Positive*
G04*
G01*
G75*
%ADD15R,0.03543X0.03150*%
G04:AMPARAMS|DCode=16|XSize=21.65mil|YSize=68.9mil|CornerRadius=0mil|HoleSize=0mil|Usage=FLASHONLY|Rotation=315.000|XOffset=0mil|YOffset=0mil|HoleType=Round|Shape=Round|*
%AMOVALD16*
21,1,0.04724,0.02165,0.00000,0.00000,45.0*
1,1,0.02165,-0.01670,-0.01670*
1,1,0.02165,0.01670,0.01670*
%
%ADD16OVALD16*%

G04:AMPARAMS|DCode=17|XSize=21.65mil|YSize=68.9mil|CornerRadius=0mil|HoleSize=0mil|Usage=FLASHONLY|Rotation=45.000|XOffset=0mil|YOffset=0mil|HoleType=Round|Shape=Round|*
%AMOVALD17*
21,1,0.04724,0.02165,0.00000,0.00000,135.0*
1,1,0.02165,0.01670,-0.01670*
1,1,0.02165,-0.01670,0.01670*
%
%ADD17OVALD17*%

%ADD18R,0.03150X0.03543*%
G04:AMPARAMS|DCode=19|XSize=35.43mil|YSize=31.5mil|CornerRadius=0mil|HoleSize=0mil|Usage=FLASHONLY|Rotation=225.000|XOffset=0mil|YOffset=0mil|HoleType=Round|Shape=Rectangle|*
%AMROTATEDRECTD19*
4,1,4,0.00139,0.02366,0.02366,0.00139,-0.00139,-0.02366,-0.02366,-0.00139,0.00139,0.02366,0.0*
%
%ADD19ROTATEDRECTD19*%

G04:AMPARAMS|DCode=20|XSize=35.43mil|YSize=31.5mil|CornerRadius=0mil|HoleSize=0mil|Usage=FLASHONLY|Rotation=135.000|XOffset=0mil|YOffset=0mil|HoleType=Round|Shape=Rectangle|*
%AMROTATEDRECTD20*
4,1,4,0.02366,-0.00139,0.00139,-0.02366,-0.02366,0.00139,-0.00139,0.02366,0.02366,-0.00139,0.0*
%
%ADD20ROTATEDRECTD20*%

%ADD21R,0.04724X0.02362*%
%ADD22R,0.02362X0.04724*%
%ADD23O,0.06693X0.01378*%
G04:AMPARAMS|DCode=24|XSize=37.4mil|YSize=37.4mil|CornerRadius=9.35mil|HoleSize=0mil|Usage=FLASHONLY|Rotation=0.000|XOffset=0mil|YOffset=0mil|HoleType=Round|Shape=RoundedRectangle|*
%AMROUNDEDRECTD24*
21,1,0.03740,0.01870,0,0,0.0*
21,1,0.01870,0.03740,0,0,0.0*
1,1,0.01870,0.00935,-0.00935*
1,1,0.01870,-0.00935,-0.00935*
1,1,0.01870,-0.00935,0.00935*
1,1,0.01870,0.00935,0.00935*
%
%ADD24ROUNDEDRECTD24*%
%ADD25R,0.04331X0.02362*%
%ADD43C,0.00799*%
%ADD44C,0.01575*%
%ADD45C,0.01575*%
%ADD46C,0.02756*%
%ADD47R,0.05906X0.05906*%
%ADD48C,0.05906*%
%ADD49C,0.04685*%
%ADD50C,0.05512*%
%ADD51C,0.05878*%
%ADD52R,0.05906X0.05906*%
%ADD53C,0.02362*%
%ADD54C,0.05000*%
%ADD55C,0.02756*%
G36*
X188167Y190346D02*
X188895Y190045D01*
X189550Y189607D01*
X190107Y189050D01*
X190545Y188395D01*
X190846Y187667D01*
X191000Y186894D01*
Y186500D01*
Y11000D01*
Y10458D01*
X190789Y9396D01*
X190374Y8395D01*
X189772Y7494D01*
X189278Y7000D01*
X190000D01*
Y-159500D01*
X5500D01*
Y7000D01*
X7722D01*
X7228Y7494D01*
X6626Y8395D01*
X6211Y9396D01*
X6000Y10458D01*
Y18500D01*
X5500Y186000D01*
Y186443D01*
X5673Y187313D01*
X6012Y188131D01*
X6505Y188869D01*
X7131Y189495D01*
X7868Y189988D01*
X8687Y190327D01*
X9557Y190500D01*
X187394D01*
X188167Y190346D01*
D02*
G37*
%LPC*%
G36*
X177795Y186297D02*
X176166D01*
X176018Y186268D01*
X175868D01*
X174270Y185950D01*
X174131Y185892D01*
X173983Y185863D01*
X172479Y185240D01*
X172353Y185156D01*
X172214Y185098D01*
X170860Y184194D01*
X170754Y184087D01*
X170628Y184003D01*
X169477Y182852D01*
X169393Y182727D01*
X169287Y182620D01*
X168382Y181266D01*
X168324Y181127D01*
X168241Y181001D01*
X167617Y179497D01*
X167588Y179349D01*
X167530Y179210D01*
X167213Y177613D01*
Y177462D01*
X167183Y177314D01*
Y175686D01*
X167213Y175538D01*
Y175387D01*
X167530Y173790D01*
X167588Y173651D01*
X167617Y173503D01*
X168241Y171999D01*
X168324Y171873D01*
X168382Y171734D01*
X169287Y170380D01*
X169393Y170273D01*
X169477Y170148D01*
X170628Y168997D01*
X170754Y168913D01*
X170860Y168806D01*
X172214Y167902D01*
X172353Y167844D01*
X172479Y167760D01*
X173983Y167137D01*
X174131Y167108D01*
X174270Y167050D01*
X175868Y166732D01*
X176018D01*
X176166Y166703D01*
X177795D01*
X177942Y166732D01*
X178093D01*
X179690Y167050D01*
X179829Y167108D01*
X179977Y167137D01*
X181482Y167760D01*
X181607Y167844D01*
X181746Y167902D01*
X183100Y168806D01*
X183207Y168913D01*
X183332Y168997D01*
X184484Y170148D01*
X184567Y170273D01*
X184674Y170380D01*
X185579Y171734D01*
X185636Y171873D01*
X185720Y171999D01*
X186343Y173503D01*
X186373Y173651D01*
X186430Y173790D01*
X186748Y175387D01*
Y175538D01*
X186777Y175686D01*
Y177314D01*
X186748Y177462D01*
Y177613D01*
X186430Y179210D01*
X186373Y179349D01*
X186343Y179497D01*
X185720Y181001D01*
X185636Y181127D01*
X185579Y181266D01*
X184674Y182620D01*
X184567Y182727D01*
X184484Y182852D01*
X183332Y184003D01*
X183207Y184087D01*
X183100Y184194D01*
X181746Y185098D01*
X181607Y185156D01*
X181482Y185240D01*
X179977Y185863D01*
X179829Y185892D01*
X179690Y185950D01*
X178093Y186268D01*
X177942D01*
X177795Y186297D01*
D02*
G37*
G36*
X20314D02*
X18686D01*
X18538Y186268D01*
X18387D01*
X16790Y185950D01*
X16651Y185892D01*
X16503Y185863D01*
X14999Y185240D01*
X14873Y185156D01*
X14734Y185098D01*
X13380Y184194D01*
X13273Y184087D01*
X13148Y184003D01*
X11997Y182852D01*
X11913Y182727D01*
X11806Y182620D01*
X10902Y181266D01*
X10844Y181127D01*
X10760Y181001D01*
X10137Y179497D01*
X10108Y179349D01*
X10050Y179210D01*
X9732Y177613D01*
Y177462D01*
X9703Y177314D01*
Y175686D01*
X9732Y175538D01*
Y175387D01*
X10050Y173790D01*
X10108Y173651D01*
X10137Y173503D01*
X10760Y171999D01*
X10844Y171873D01*
X10902Y171734D01*
X11806Y170380D01*
X11913Y170273D01*
X11997Y170148D01*
X13148Y168997D01*
X13273Y168913D01*
X13380Y168806D01*
X14734Y167902D01*
X14873Y167844D01*
X14999Y167760D01*
X16503Y167137D01*
X16651Y167108D01*
X16790Y167050D01*
X18387Y166732D01*
X18538D01*
X18686Y166703D01*
X20314D01*
X20462Y166732D01*
X20613D01*
X22210Y167050D01*
X22349Y167108D01*
X22497Y167137D01*
X24002Y167760D01*
X24127Y167844D01*
X24266Y167902D01*
X25620Y168806D01*
X25727Y168913D01*
X25852Y168997D01*
X27003Y170148D01*
X27087Y170273D01*
X27194Y170380D01*
X28098Y171734D01*
X28156Y171873D01*
X28240Y171999D01*
X28863Y173503D01*
X28892Y173651D01*
X28950Y173790D01*
X29268Y175387D01*
Y175538D01*
X29297Y175686D01*
Y177314D01*
X29268Y177462D01*
Y177613D01*
X28950Y179210D01*
X28892Y179349D01*
X28863Y179497D01*
X28240Y181001D01*
X28156Y181127D01*
X28098Y181266D01*
X27194Y182620D01*
X27087Y182727D01*
X27003Y182852D01*
X25852Y184003D01*
X25727Y184087D01*
X25620Y184194D01*
X24266Y185098D01*
X24127Y185156D01*
X24002Y185240D01*
X22497Y185863D01*
X22349Y185892D01*
X22210Y185950D01*
X20613Y186268D01*
X20462D01*
X20314Y186297D01*
D02*
G37*
G36*
X157252Y167277D02*
X39252D01*
X38667Y167161D01*
X38170Y166830D01*
X37839Y166333D01*
X37725Y165762D01*
X37577Y165772D01*
X36360Y165648D01*
X35180Y165329D01*
X34068Y164822D01*
X33052Y164140D01*
X32161Y163303D01*
X31418Y162332D01*
X30843Y161253D01*
X30451Y160095D01*
X30252Y158889D01*
Y158277D01*
X29667Y158161D01*
X29171Y157829D01*
X28839Y157333D01*
X28723Y156748D01*
Y38248D01*
X28839Y37663D01*
X29171Y37167D01*
X29667Y36835D01*
X30252Y36719D01*
X30837Y36835D01*
X31333Y37167D01*
X36566Y42399D01*
X41798Y47631D01*
X41807Y47622D01*
X41911Y47744D01*
X42217Y48050D01*
X42259Y48114D01*
X42318Y48162D01*
X43070Y49078D01*
X43104Y49141D01*
X43116Y49155D01*
X43160Y49199D01*
X43183Y49233D01*
X43194Y49246D01*
X43222Y49292D01*
X43819Y50185D01*
X43848Y50255D01*
X43896Y50314D01*
X44222Y50924D01*
X44310Y51068D01*
X44349Y51162D01*
X44455Y51360D01*
X44477Y51432D01*
X44519Y51495D01*
X44973Y52591D01*
X44988Y52666D01*
X45024Y52733D01*
X45089Y52948D01*
X45128Y53041D01*
X45167Y53206D01*
X45368Y53868D01*
X45375Y53943D01*
X45404Y54013D01*
X45614Y55067D01*
X45626Y55119D01*
X45628Y55136D01*
X45636Y55176D01*
Y55238D01*
X45637Y55257D01*
X45658Y55325D01*
X45774Y56505D01*
X45767Y56581D01*
X45781Y56655D01*
Y57088D01*
X45794Y57248D01*
X45781D01*
Y137748D01*
X45794D01*
X45781Y137908D01*
Y138341D01*
X45767Y138416D01*
X45774Y138491D01*
X45658Y139671D01*
X45637Y139739D01*
X45636Y139758D01*
Y139820D01*
X45628Y139860D01*
X45626Y139878D01*
X45614Y139929D01*
X45475Y140629D01*
X45862Y141127D01*
X45866Y141129D01*
X46236D01*
X47938Y141467D01*
X49542Y142131D01*
X50985Y143096D01*
X52213Y144323D01*
X53177Y145767D01*
X53842Y147371D01*
X54180Y149073D01*
X54180Y149941D01*
X54180Y149941D01*
Y150319D01*
X54680Y150690D01*
X54871Y150632D01*
X54947Y150625D01*
X55017Y150596D01*
X56071Y150386D01*
X56122Y150374D01*
X56140Y150372D01*
X56180Y150364D01*
X56242D01*
X56261Y150363D01*
X56329Y150342D01*
X57509Y150226D01*
X57585Y150233D01*
X57659Y150219D01*
X58092D01*
X58252Y150206D01*
Y150219D01*
X138252D01*
Y150206D01*
X138412Y150219D01*
X138845D01*
X138919Y150233D01*
X138995Y150226D01*
X140175Y150342D01*
X140243Y150363D01*
X140262Y150364D01*
X140324D01*
X140364Y150372D01*
X140382Y150374D01*
X140433Y150386D01*
X141487Y150596D01*
X141557Y150625D01*
X141632Y150632D01*
X142295Y150833D01*
X142459Y150872D01*
X142552Y150911D01*
X143054Y150675D01*
X143089Y150639D01*
X143111Y150606D01*
X143206Y150127D01*
X143862Y148543D01*
X144815Y147117D01*
X146028Y145905D01*
X147453Y144952D01*
X149038Y144296D01*
X150719Y143961D01*
X151656D01*
X151830Y143817D01*
X151854Y143787D01*
X151969Y143461D01*
X151531Y142405D01*
X151516Y142330D01*
X151480Y142263D01*
X151415Y142048D01*
X151376Y141955D01*
X151337Y141791D01*
X151136Y141129D01*
X151129Y141053D01*
X151100Y140983D01*
X150890Y139929D01*
X150878Y139878D01*
X150876Y139860D01*
X150868Y139820D01*
Y139758D01*
X150867Y139739D01*
X150846Y139671D01*
X150730Y138491D01*
X150737Y138415D01*
X150723Y138341D01*
Y137908D01*
X150710Y137748D01*
X150723D01*
Y57248D01*
X150710D01*
X150723Y57088D01*
Y56655D01*
X150737Y56581D01*
X150730Y56505D01*
X150846Y55325D01*
X150867Y55257D01*
X150868Y55238D01*
Y55176D01*
X150876Y55136D01*
X150878Y55119D01*
X150890Y55067D01*
X151100Y54013D01*
X151129Y53943D01*
X151136Y53868D01*
X151337Y53205D01*
X151376Y53041D01*
X151415Y52948D01*
X151480Y52733D01*
X151516Y52666D01*
X151531Y52591D01*
X151985Y51495D01*
X152027Y51432D01*
X152049Y51360D01*
X152155Y51161D01*
X152194Y51068D01*
X152282Y50924D01*
X152608Y50314D01*
X152656Y50255D01*
X152685Y50185D01*
X153282Y49291D01*
X153310Y49246D01*
X153321Y49233D01*
X153344Y49199D01*
X153388Y49155D01*
X153400Y49141D01*
X153434Y49078D01*
X154186Y48162D01*
X154245Y48114D01*
X154287Y48050D01*
X154593Y47744D01*
X154697Y47622D01*
X154706Y47631D01*
X159938Y42399D01*
X165171Y37167D01*
X165667Y36835D01*
X166252Y36719D01*
X166837Y36835D01*
X167333Y37167D01*
X167665Y37663D01*
X167781Y38248D01*
Y156748D01*
X167665Y157333D01*
X167333Y157829D01*
X166837Y158161D01*
X166252Y158277D01*
X166129Y158253D01*
X165906Y159373D01*
X165228Y161011D01*
X164243Y162485D01*
X162989Y163739D01*
X161515Y164724D01*
X159877Y165402D01*
X158757Y165625D01*
X158781Y165748D01*
X158665Y166333D01*
X158333Y166830D01*
X157837Y167161D01*
X157252Y167277D01*
D02*
G37*
G36*
X61771Y139187D02*
X60733D01*
X59732Y138919D01*
X58833Y138400D01*
X58100Y137667D01*
X57581Y136768D01*
X57313Y135767D01*
Y134729D01*
X57581Y133728D01*
X58100Y132829D01*
X58833Y132096D01*
X59732Y131578D01*
X60733Y131309D01*
X61771D01*
X62772Y131578D01*
X63671Y132096D01*
X64404Y132829D01*
X64922Y133728D01*
X65191Y134729D01*
Y135767D01*
X64922Y136768D01*
X64404Y137667D01*
X63671Y138400D01*
X62772Y138919D01*
X61771Y139187D01*
D02*
G37*
G36*
X61382Y64203D02*
X61252Y64195D01*
X61121Y64203D01*
X61000Y64187D01*
X60733D01*
X60476Y64118D01*
X60354Y64102D01*
X60231Y64060D01*
X60102Y64034D01*
X59989Y63988D01*
X59732Y63919D01*
X59501Y63785D01*
X59387Y63738D01*
X59279Y63666D01*
X59162Y63608D01*
X59064Y63533D01*
X58833Y63400D01*
X58645Y63212D01*
X58548Y63137D01*
X58461Y63039D01*
X58363Y62952D01*
X58289Y62855D01*
X58100Y62667D01*
X57967Y62436D01*
X57892Y62339D01*
X57834Y62221D01*
X57762Y62113D01*
X57715Y61999D01*
X57581Y61768D01*
X57512Y61511D01*
X57465Y61398D01*
X57440Y61269D01*
X57398Y61146D01*
X57382Y61024D01*
X57313Y60767D01*
Y60500D01*
X57297Y60378D01*
X57306Y60248D01*
X57297Y60118D01*
X57313Y59996D01*
Y59729D01*
X57382Y59472D01*
X57398Y59350D01*
X57440Y59227D01*
X57465Y59098D01*
X57512Y58985D01*
X57581Y58728D01*
X57627Y58648D01*
X35261Y36281D01*
X34900Y35938D01*
X34882Y35923D01*
X34588Y35565D01*
X33681Y34460D01*
X32789Y32791D01*
X32239Y30979D01*
X32101Y29570D01*
X32054Y29096D01*
X32055Y29087D01*
X32068Y28590D01*
Y12348D01*
X32060Y11849D01*
X32060Y11849D01*
X32098Y11364D01*
X32222Y9792D01*
X32703Y7786D01*
X33291Y6369D01*
X33493Y5881D01*
X34571Y4121D01*
X35911Y2553D01*
X35913Y2555D01*
X35933Y2543D01*
X37220Y1255D01*
X37220Y1255D01*
X37275Y1218D01*
X37970Y313D01*
X38432Y-803D01*
X38581Y-1934D01*
X38568Y-2000D01*
Y-3717D01*
X37819D01*
Y-4117D01*
X36760D01*
Y-7079D01*
Y-10041D01*
X37819D01*
Y-10441D01*
X45921D01*
Y-3717D01*
X41432D01*
Y-2568D01*
X41818Y-2253D01*
X41932Y-2221D01*
X42000Y-2234D01*
X42124Y-2276D01*
X42323Y-2303D01*
X42434Y-2336D01*
X43013Y-2393D01*
X43633Y-2475D01*
X43699Y-2471D01*
X43764Y-2483D01*
X43849Y-2467D01*
X46494D01*
X48188Y-2633D01*
X50129Y-3222D01*
X51917Y-4178D01*
X53233Y-5258D01*
X55937Y-7962D01*
X55977Y-8022D01*
X56019Y-8050D01*
X56050Y-8088D01*
X56680Y-8605D01*
X57274Y-9113D01*
X57370Y-9171D01*
X57536Y-9307D01*
X57622Y-9354D01*
X57699Y-9416D01*
X58254Y-9713D01*
X58718Y-9997D01*
X59019Y-10122D01*
X59393Y-10322D01*
X59487Y-10351D01*
X59574Y-10397D01*
X59980Y-10520D01*
X60282Y-10645D01*
X60810Y-10772D01*
X61413Y-10955D01*
X61511Y-10964D01*
X61605Y-10993D01*
X61819Y-11014D01*
X61928Y-11040D01*
X62707Y-11101D01*
X63517Y-11181D01*
X63567Y-11176D01*
X63615Y-11186D01*
X63687Y-11172D01*
X65138D01*
Y-11921D01*
X65538D01*
Y-12980D01*
X71462D01*
Y-11921D01*
X71862D01*
Y-8181D01*
Y-3819D01*
X65138D01*
Y-8308D01*
X63615D01*
X63547Y-8322D01*
X62066Y-8176D01*
X60575Y-7724D01*
X59202Y-6990D01*
X58051Y-6046D01*
X58012Y-5988D01*
X58012Y-5988D01*
X55498Y-3474D01*
X55498Y-3462D01*
X55493Y-3457D01*
X55411Y-3387D01*
X55411Y-3386D01*
X54976Y-2952D01*
X54976Y-2951D01*
X54941Y-2928D01*
X54918Y-2899D01*
X53673Y-1836D01*
X53604Y-1797D01*
X53546Y-1743D01*
X52151Y-888D01*
X52077Y-861D01*
X52011Y-817D01*
X50499Y-190D01*
X50421Y-175D01*
X50350Y-142D01*
X48758Y240D01*
X48679Y243D01*
X48603Y265D01*
X46971Y393D01*
X46934Y389D01*
X46893Y397D01*
X46660D01*
X46180Y405D01*
X46170Y405D01*
X46164Y405D01*
X45667Y397D01*
X43764D01*
X43715Y387D01*
X42737Y516D01*
X41781Y912D01*
X40999Y1512D01*
X40971Y1553D01*
X40012Y2512D01*
X40012Y2512D01*
X39718Y2709D01*
X39247Y3283D01*
X39247Y3283D01*
X38891Y3634D01*
X37941Y4583D01*
X37941Y4583D01*
X37896Y4613D01*
X37368Y5233D01*
X36826Y5892D01*
X36454Y6500D01*
D01*
X36310Y6735D01*
X35919Y7465D01*
X35540Y8382D01*
X35300Y9174D01*
X35069Y10135D01*
X34985Y10985D01*
X34921Y11796D01*
X34932Y11849D01*
Y29084D01*
X34931Y29086D01*
X34932Y29088D01*
X34932Y29092D01*
X34922Y29142D01*
X35047Y30421D01*
X35434Y31695D01*
X36062Y32869D01*
X36883Y33870D01*
X36928Y33900D01*
X36929Y33901D01*
X36931Y33902D01*
X59652Y56623D01*
X59732Y56577D01*
X59989Y56508D01*
X60102Y56462D01*
X60231Y56436D01*
X60354Y56394D01*
X60476Y56378D01*
X60733Y56309D01*
X61000D01*
X61122Y56293D01*
X61252Y56302D01*
X61382Y56293D01*
X61504Y56309D01*
X61771D01*
X62028Y56378D01*
X62150Y56394D01*
X62273Y56436D01*
X62402Y56462D01*
X62515Y56508D01*
X62772Y56577D01*
X63003Y56711D01*
X63117Y56758D01*
X63225Y56830D01*
X63342Y56888D01*
X63440Y56963D01*
X63671Y57096D01*
X63859Y57284D01*
X63956Y57359D01*
X64043Y57458D01*
X64141Y57544D01*
X64215Y57641D01*
X64404Y57829D01*
X64537Y58060D01*
X64612Y58158D01*
X64670Y58275D01*
X64742Y58384D01*
X64789Y58497D01*
X64922Y58728D01*
X64991Y58985D01*
X65038Y59098D01*
X65064Y59227D01*
X65106Y59350D01*
X65122Y59472D01*
X65191Y59729D01*
Y59996D01*
X65207Y60118D01*
X65198Y60248D01*
X65207Y60378D01*
X65191Y60500D01*
Y60767D01*
X65122Y61024D01*
X65106Y61146D01*
X65064Y61269D01*
X65038Y61398D01*
X64991Y61511D01*
X64922Y61768D01*
X64789Y61999D01*
X64742Y62113D01*
X64670Y62221D01*
X64612Y62339D01*
X64537Y62436D01*
X64404Y62667D01*
X64215Y62855D01*
X64141Y62952D01*
X64043Y63039D01*
X63956Y63137D01*
X63859Y63212D01*
X63671Y63400D01*
X63440Y63533D01*
X63342Y63608D01*
X63225Y63666D01*
X63117Y63738D01*
X63003Y63785D01*
X62772Y63919D01*
X62515Y63988D01*
X62402Y64034D01*
X62273Y64060D01*
X62150Y64102D01*
X62028Y64118D01*
X61771Y64187D01*
X61504D01*
X61382Y64203D01*
D02*
G37*
G36*
X136771Y139187D02*
X135733D01*
X134732Y138919D01*
X133833Y138400D01*
X133100Y137667D01*
X132581Y136768D01*
X132313Y135767D01*
Y134729D01*
X132581Y133728D01*
X133100Y132829D01*
X133833Y132096D01*
X134732Y131578D01*
X135733Y131309D01*
X136771D01*
X137772Y131578D01*
X137856Y131626D01*
X138562Y130920D01*
X138562Y130920D01*
X138886Y130554D01*
X139644Y129631D01*
X140438Y128146D01*
X140927Y126534D01*
X141086Y124921D01*
X141073Y124858D01*
Y58142D01*
X141065D01*
X141206Y56353D01*
X141469Y55256D01*
X141016Y55002D01*
X139029Y56989D01*
X139029Y56989D01*
X139054Y57479D01*
X139404Y57829D01*
X139922Y58728D01*
X140191Y59729D01*
Y60767D01*
X139922Y61768D01*
X139404Y62667D01*
X138671Y63400D01*
X137772Y63919D01*
X136771Y64187D01*
X135733D01*
X134732Y63919D01*
X133833Y63400D01*
X133100Y62667D01*
X132581Y61768D01*
X132313Y60767D01*
Y59729D01*
X132581Y58728D01*
X133100Y57829D01*
X133833Y57096D01*
X134732Y56577D01*
X135733Y56309D01*
X135962D01*
X136075Y56097D01*
X137005Y54965D01*
X137011Y54971D01*
X137011Y54971D01*
X159330Y32652D01*
X159330Y32652D01*
X159330D01*
X159387Y32614D01*
X159905Y31839D01*
X160086Y30925D01*
X160073Y30858D01*
Y11142D01*
X160085Y11079D01*
X159927Y9466D01*
X159438Y7854D01*
X158644Y6369D01*
X157931Y5500D01*
X157891Y5452D01*
X157562Y5080D01*
Y5080D01*
X157215Y4733D01*
X154138Y1656D01*
X153440Y1843D01*
X152560D01*
X151710Y1615D01*
X150948Y1175D01*
X150325Y552D01*
X149885Y-210D01*
X149657Y-1060D01*
Y-1940D01*
X149885Y-2790D01*
X150325Y-3552D01*
X150948Y-4175D01*
X151710Y-4615D01*
X152560Y-4843D01*
X153440D01*
X154290Y-4615D01*
X155052Y-4175D01*
X155675Y-3552D01*
X156115Y-2790D01*
X156342Y-1940D01*
Y-1060D01*
X156156Y-362D01*
X159227Y2709D01*
X159586Y3056D01*
X159586Y3056D01*
X160751Y4421D01*
X161092Y4977D01*
X161573Y4841D01*
Y-8464D01*
X160948Y-8825D01*
X160325Y-9448D01*
X159885Y-10210D01*
X159658Y-11060D01*
Y-11940D01*
X159885Y-12790D01*
X160325Y-13552D01*
X160948Y-14175D01*
X161710Y-14615D01*
X162560Y-14842D01*
X163440D01*
X164290Y-14615D01*
X165052Y-14175D01*
X165675Y-13552D01*
X166115Y-12790D01*
X166342Y-11940D01*
Y-11060D01*
X166115Y-10210D01*
X165675Y-9448D01*
X165052Y-8825D01*
X164427Y-8464D01*
Y5500D01*
Y31500D01*
X164430D01*
X164310Y32721D01*
X163953Y33895D01*
X163375Y34977D01*
X162597Y35925D01*
X162597Y35925D01*
X162241Y36277D01*
X146438Y52080D01*
X146384Y52116D01*
X145356Y53369D01*
X144562Y54854D01*
X144073Y56466D01*
X143914Y58079D01*
X143927Y58142D01*
Y124858D01*
X143935D01*
X143794Y126647D01*
X143375Y128391D01*
X142689Y130049D01*
X141751Y131579D01*
X140586Y132943D01*
X140586Y132943D01*
X140227Y133291D01*
X139874Y133644D01*
X139922Y133728D01*
X140191Y134729D01*
Y135767D01*
X139922Y136768D01*
X139404Y137667D01*
X138671Y138400D01*
X137772Y138919D01*
X136771Y139187D01*
D02*
G37*
G36*
X137752Y45290D02*
Y45277D01*
X58752D01*
Y45290D01*
X58592Y45277D01*
X58159D01*
X58084Y45263D01*
X58009Y45270D01*
X56829Y45154D01*
X56761Y45133D01*
X56742Y45132D01*
X56680D01*
X56640Y45124D01*
X56622Y45122D01*
X56571Y45110D01*
X55517Y44900D01*
X55447Y44871D01*
X55371Y44864D01*
X54710Y44663D01*
X54545Y44624D01*
X54452Y44585D01*
X54237Y44520D01*
X54170Y44484D01*
X54095Y44469D01*
X52999Y44015D01*
X52936Y43973D01*
X52864Y43951D01*
X52666Y43845D01*
X52572Y43806D01*
X52428Y43718D01*
X51818Y43392D01*
X51759Y43344D01*
X51689Y43315D01*
X50795Y42718D01*
X50750Y42690D01*
X50737Y42679D01*
X50703Y42656D01*
X50659Y42612D01*
X50645Y42600D01*
X50582Y42566D01*
X49665Y41814D01*
X49617Y41755D01*
X49554Y41713D01*
X49248Y41407D01*
X49126Y41303D01*
X49135Y41294D01*
X38170Y30329D01*
X37839Y29833D01*
X37723Y29248D01*
X37839Y28663D01*
X38170Y28167D01*
X38667Y27835D01*
X39252Y27719D01*
X157252D01*
X157837Y27835D01*
X158333Y28167D01*
X158665Y28663D01*
X158781Y29248D01*
X158665Y29833D01*
X158333Y30329D01*
X147369Y41294D01*
X147378Y41303D01*
X147256Y41407D01*
X146950Y41713D01*
X146887Y41755D01*
X146838Y41814D01*
X145922Y42566D01*
X145859Y42600D01*
X145844Y42612D01*
X145801Y42656D01*
X145767Y42679D01*
X145754Y42690D01*
X145708Y42718D01*
X144815Y43315D01*
X144745Y43344D01*
X144686Y43392D01*
X144076Y43718D01*
X143932Y43806D01*
X143838Y43845D01*
X143640Y43951D01*
X143568Y43973D01*
X143505Y44015D01*
X142409Y44469D01*
X142334Y44484D01*
X142267Y44520D01*
X142052Y44585D01*
X141959Y44624D01*
X141794Y44663D01*
X141132Y44864D01*
X141057Y44871D01*
X140987Y44900D01*
X139933Y45110D01*
X139882Y45122D01*
X139864Y45124D01*
X139824Y45132D01*
X139762D01*
X139743Y45133D01*
X139675Y45154D01*
X138495Y45270D01*
X138419Y45263D01*
X138345Y45277D01*
X137912D01*
X137752Y45290D01*
D02*
G37*
G36*
X177795Y28817D02*
X176166D01*
X176018Y28787D01*
X175868D01*
X174270Y28470D01*
X174131Y28412D01*
X173983Y28383D01*
X172479Y27759D01*
X172353Y27676D01*
X172214Y27618D01*
X170860Y26713D01*
X170754Y26607D01*
X170628Y26523D01*
X169477Y25372D01*
X169393Y25246D01*
X169287Y25140D01*
X168382Y23786D01*
X168324Y23646D01*
X168241Y23521D01*
X167617Y22017D01*
X167588Y21869D01*
X167530Y21730D01*
X167213Y20132D01*
Y19982D01*
X167183Y19834D01*
Y18205D01*
X167213Y18058D01*
Y17907D01*
X167530Y16310D01*
X167588Y16171D01*
X167617Y16023D01*
X168241Y14518D01*
X168324Y14393D01*
X168382Y14254D01*
X169287Y12900D01*
X169393Y12793D01*
X169477Y12668D01*
X170628Y11516D01*
X170754Y11433D01*
X170860Y11326D01*
X172214Y10421D01*
X172353Y10364D01*
X172479Y10280D01*
X173983Y9657D01*
X174131Y9627D01*
X174270Y9570D01*
X175868Y9252D01*
X176018D01*
X176166Y9223D01*
X177795D01*
X177942Y9252D01*
X178093D01*
X179690Y9570D01*
X179829Y9627D01*
X179977Y9657D01*
X181482Y10280D01*
X181607Y10364D01*
X181746Y10421D01*
X183100Y11326D01*
X183207Y11433D01*
X183332Y11516D01*
X184484Y12668D01*
X184567Y12793D01*
X184674Y12900D01*
X185579Y14254D01*
X185636Y14393D01*
X185720Y14518D01*
X186343Y16023D01*
X186373Y16171D01*
X186430Y16310D01*
X186748Y17907D01*
Y18058D01*
X186777Y18205D01*
Y19834D01*
X186748Y19982D01*
Y20132D01*
X186430Y21730D01*
X186373Y21869D01*
X186343Y22017D01*
X185720Y23521D01*
X185636Y23646D01*
X185579Y23786D01*
X184674Y25140D01*
X184567Y25246D01*
X184484Y25372D01*
X183332Y26523D01*
X183207Y26607D01*
X183100Y26713D01*
X181746Y27618D01*
X181607Y27676D01*
X181482Y27759D01*
X179977Y28383D01*
X179829Y28412D01*
X179690Y28470D01*
X178093Y28787D01*
X177942D01*
X177795Y28817D01*
D02*
G37*
G36*
X20314D02*
X18686D01*
X18538Y28787D01*
X18387D01*
X16790Y28470D01*
X16651Y28412D01*
X16503Y28383D01*
X14999Y27759D01*
X14873Y27676D01*
X14734Y27618D01*
X13380Y26713D01*
X13273Y26607D01*
X13148Y26523D01*
X11997Y25372D01*
X11913Y25246D01*
X11806Y25140D01*
X10902Y23786D01*
X10844Y23646D01*
X10760Y23521D01*
X10137Y22017D01*
X10108Y21869D01*
X10050Y21730D01*
X9732Y20132D01*
Y19982D01*
X9703Y19834D01*
Y18205D01*
X9732Y18058D01*
Y17907D01*
X10050Y16310D01*
X10108Y16171D01*
X10137Y16023D01*
X10760Y14518D01*
X10844Y14393D01*
X10902Y14254D01*
X11806Y12900D01*
X11913Y12793D01*
X11997Y12668D01*
X13148Y11516D01*
X13273Y11433D01*
X13380Y11326D01*
X14734Y10421D01*
X14873Y10364D01*
X14999Y10280D01*
X16503Y9657D01*
X16651Y9627D01*
X16790Y9570D01*
X18387Y9252D01*
X18538D01*
X18686Y9223D01*
X20314D01*
X20462Y9252D01*
X20613D01*
X22210Y9570D01*
X22349Y9627D01*
X22497Y9657D01*
X24002Y10280D01*
X24127Y10364D01*
X24266Y10421D01*
X25620Y11326D01*
X25727Y11433D01*
X25852Y11516D01*
X27003Y12668D01*
X27087Y12793D01*
X27194Y12900D01*
X28098Y14254D01*
X28156Y14393D01*
X28240Y14518D01*
X28863Y16023D01*
X28892Y16171D01*
X28950Y16310D01*
X29268Y17907D01*
Y18058D01*
X29297Y18205D01*
Y19834D01*
X29268Y19982D01*
Y20132D01*
X28950Y21730D01*
X28892Y21869D01*
X28863Y22017D01*
X28240Y23521D01*
X28156Y23646D01*
X28098Y23786D01*
X27194Y25140D01*
X27087Y25246D01*
X27003Y25372D01*
X25852Y26523D01*
X25727Y26607D01*
X25620Y26713D01*
X24266Y27618D01*
X24127Y27676D01*
X24002Y27759D01*
X22497Y28383D01*
X22349Y28412D01*
X22210Y28470D01*
X20613Y28787D01*
X20462D01*
X20314Y28817D01*
D02*
G37*
G36*
X72868Y2332D02*
X71193D01*
Y461D01*
X72868D01*
Y2332D01*
D02*
G37*
G36*
X70193D02*
X68518D01*
Y461D01*
X70193D01*
Y2332D01*
D02*
G37*
G36*
X79803Y2772D02*
X74654D01*
Y-2772D01*
X76916D01*
Y-3819D01*
X74980D01*
Y-8181D01*
X81240D01*
X81529Y-8181D01*
X81670Y-8681D01*
X80744Y-9249D01*
X79379Y-10414D01*
X79382Y-10417D01*
X78499Y-11299D01*
X74980D01*
Y-15661D01*
X81705D01*
Y-12166D01*
X82692Y-11356D01*
X84177Y-10562D01*
X85789Y-10073D01*
X87386Y-9916D01*
X87465Y-9932D01*
X108995D01*
X109000Y-9950D01*
X109127Y-10170D01*
X109170Y-10272D01*
X109242Y-10381D01*
X109300Y-10498D01*
X109367Y-10586D01*
X109494Y-10806D01*
X109675Y-10986D01*
X109742Y-11074D01*
X109840Y-11160D01*
X109926Y-11258D01*
X110014Y-11326D01*
X110194Y-11506D01*
X110414Y-11633D01*
X110502Y-11700D01*
X110619Y-11758D01*
X110728Y-11830D01*
X110830Y-11873D01*
X111050Y-12000D01*
X111068Y-12005D01*
Y-17574D01*
X111074Y-17600D01*
X110970Y-18119D01*
X110673Y-18481D01*
X110620Y-18580D01*
X110506Y-18729D01*
X110448Y-18846D01*
X110407Y-18908D01*
X110398Y-18918D01*
X110397Y-18923D01*
X110376Y-18955D01*
X110347Y-19024D01*
X110347Y-19024D01*
X110347Y-19024D01*
X110223Y-19323D01*
X110068Y-19614D01*
X109972Y-19930D01*
X109819Y-20298D01*
X109794Y-20426D01*
X109752Y-20550D01*
X109727Y-20735D01*
X109695Y-20843D01*
X109640Y-21400D01*
X109562Y-21991D01*
X109566Y-22057D01*
X109554Y-22121D01*
X109568Y-22195D01*
Y-51858D01*
X109584Y-51937D01*
X109427Y-53534D01*
X108938Y-55146D01*
X108144Y-56631D01*
X107126Y-57872D01*
X107059Y-57916D01*
X105543Y-59433D01*
X105007Y-59270D01*
X104993Y-59232D01*
X104905Y-58790D01*
X104445Y-58101D01*
X103756Y-57641D01*
X102943Y-57479D01*
X102131Y-57641D01*
X101442Y-58101D01*
X98101Y-61442D01*
X97641Y-62131D01*
X97479Y-62943D01*
X97641Y-63756D01*
X98101Y-64445D01*
X98790Y-64905D01*
X99232Y-64993D01*
X99631Y-65142D01*
X99780Y-65541D01*
X99868Y-65983D01*
X100328Y-66672D01*
X101017Y-67132D01*
X101459Y-67220D01*
X101858Y-67369D01*
X102007Y-67768D01*
X102095Y-68210D01*
X102555Y-68899D01*
X103244Y-69359D01*
X103686Y-69447D01*
X104085Y-69596D01*
X104234Y-69995D01*
X104322Y-70437D01*
X104782Y-71126D01*
X105471Y-71586D01*
X105913Y-71674D01*
X106312Y-71824D01*
X106461Y-72223D01*
X106549Y-72664D01*
X107009Y-73353D01*
X107698Y-73813D01*
X108140Y-73901D01*
X108539Y-74051D01*
X108688Y-74450D01*
X108776Y-74891D01*
X109237Y-75580D01*
X109925Y-76041D01*
X110367Y-76129D01*
X110766Y-76278D01*
X110916Y-76677D01*
X111003Y-77118D01*
X111464Y-77807D01*
X112153Y-78268D01*
X112594Y-78356D01*
X112993Y-78505D01*
X113143Y-78904D01*
X113231Y-79346D01*
X113691Y-80035D01*
X114380Y-80495D01*
X114821Y-80583D01*
X115220Y-80732D01*
X115370Y-81131D01*
X115458Y-81573D01*
X115918Y-82262D01*
X116607Y-82722D01*
X117049Y-82810D01*
X117448Y-82959D01*
X117597Y-83358D01*
X117685Y-83800D01*
X118145Y-84489D01*
X118834Y-84949D01*
X119276Y-85037D01*
X119675Y-85186D01*
X119824Y-85585D01*
X119912Y-86027D01*
X120372Y-86716D01*
X121061Y-87176D01*
X121874Y-87338D01*
X122686Y-87176D01*
X123375Y-86716D01*
X126716Y-83375D01*
X127176Y-82686D01*
X127338Y-81874D01*
X127176Y-81061D01*
X126716Y-80372D01*
X126073Y-79943D01*
X126045Y-79890D01*
X126007Y-79720D01*
X125972Y-79391D01*
X126516Y-78847D01*
X126576Y-78703D01*
X127078Y-78498D01*
X127078D01*
X130998Y-74578D01*
X130591Y-74171D01*
X131921Y-72841D01*
X132578Y-73498D01*
X136498Y-69578D01*
X132856Y-65937D01*
X128937Y-69856D01*
X129344Y-70263D01*
X128013Y-71594D01*
X127356Y-70937D01*
X123437Y-74856D01*
X123479Y-74899D01*
X123382Y-75389D01*
X123153Y-75484D01*
X122805Y-75832D01*
X122262Y-75918D01*
X121573Y-75458D01*
X121131Y-75370D01*
X120732Y-75221D01*
X120583Y-74821D01*
X120495Y-74380D01*
X120035Y-73691D01*
X119346Y-73230D01*
X118904Y-73143D01*
X118505Y-72993D01*
X118356Y-72594D01*
X118268Y-72153D01*
X117807Y-71464D01*
X117119Y-71003D01*
X116677Y-70916D01*
X116278Y-70766D01*
X116128Y-70367D01*
X116041Y-69925D01*
X115580Y-69237D01*
X114891Y-68776D01*
X114450Y-68688D01*
X114050Y-68539D01*
X113901Y-68140D01*
X113813Y-67698D01*
X113353Y-67010D01*
X112664Y-66549D01*
X112223Y-66461D01*
X111823Y-66312D01*
X111674Y-65913D01*
X111586Y-65471D01*
X111126Y-64782D01*
X110437Y-64322D01*
X109995Y-64234D01*
X109596Y-64085D01*
X109447Y-63686D01*
X109359Y-63244D01*
X108899Y-62555D01*
X108210Y-62095D01*
X107768Y-62007D01*
X107730Y-61993D01*
X107567Y-61457D01*
X109083Y-59941D01*
X109083Y-59941D01*
X109086Y-59943D01*
X110251Y-58579D01*
X111188Y-57049D01*
X111875Y-55391D01*
X112294Y-53647D01*
X112435Y-51858D01*
X112432D01*
Y-22121D01*
X112423Y-22080D01*
X112544Y-21163D01*
X112873Y-20369D01*
X113356Y-19739D01*
X113456Y-19498D01*
X113518Y-19388D01*
X113519Y-19383D01*
X113551Y-19335D01*
X113576Y-19209D01*
X113789Y-18695D01*
X113937Y-17574D01*
X113932D01*
Y-12005D01*
X113950Y-12000D01*
X114170Y-11873D01*
X114272Y-11830D01*
X114381Y-11758D01*
X114498Y-11700D01*
X114586Y-11633D01*
X114806Y-11506D01*
X114986Y-11326D01*
X115074Y-11258D01*
X115160Y-11160D01*
X115258Y-11074D01*
X115325Y-10986D01*
X115506Y-10806D01*
X115633Y-10586D01*
X115700Y-10498D01*
X115758Y-10381D01*
X115830Y-10272D01*
X115873Y-10170D01*
X116000Y-9950D01*
X116066Y-9704D01*
X116108Y-9602D01*
X116134Y-9474D01*
X116176Y-9350D01*
X116190Y-9240D01*
X116256Y-8995D01*
Y-8740D01*
X116270Y-8630D01*
X116262Y-8500D01*
X116270Y-8370D01*
X116256Y-8260D01*
Y-8005D01*
X116190Y-7760D01*
X116176Y-7650D01*
X116134Y-7526D01*
X116108Y-7398D01*
X116066Y-7296D01*
X116000Y-7050D01*
X115873Y-6830D01*
X115830Y-6728D01*
X115758Y-6619D01*
X115700Y-6502D01*
X115633Y-6414D01*
X115506Y-6194D01*
X115325Y-6014D01*
X115258Y-5926D01*
X115160Y-5840D01*
X115074Y-5742D01*
X114986Y-5675D01*
X114806Y-5494D01*
X114586Y-5367D01*
X114498Y-5300D01*
X114381Y-5242D01*
X114272Y-5170D01*
X114170Y-5127D01*
X113950Y-5000D01*
X113704Y-4934D01*
X113602Y-4892D01*
X113474Y-4866D01*
X113350Y-4824D01*
X113240Y-4810D01*
X112995Y-4744D01*
X112740D01*
X112630Y-4730D01*
X112500Y-4738D01*
X112370Y-4730D01*
X112260Y-4744D01*
X112005D01*
X111760Y-4810D01*
X111650Y-4824D01*
X111526Y-4866D01*
X111398Y-4892D01*
X111296Y-4934D01*
X111050Y-5000D01*
X110830Y-5127D01*
X110728Y-5170D01*
X110619Y-5242D01*
X110502Y-5300D01*
X110414Y-5367D01*
X110194Y-5494D01*
X110014Y-5675D01*
X109926Y-5742D01*
X109840Y-5840D01*
X109742Y-5926D01*
X109675Y-6014D01*
X109494Y-6194D01*
X109367Y-6414D01*
X109300Y-6502D01*
X109242Y-6619D01*
X109170Y-6728D01*
X109127Y-6830D01*
X109000Y-7050D01*
X108995Y-7068D01*
X87465D01*
Y-7065D01*
X85676Y-7206D01*
X83931Y-7625D01*
X82274Y-8311D01*
X82109Y-8412D01*
X81705Y-8074D01*
X81705Y-7754D01*
Y-3819D01*
X79769D01*
Y-2772D01*
X79803D01*
Y-2319D01*
X80303Y-2078D01*
X81027Y-2378D01*
X81973D01*
X82847Y-2016D01*
X83516Y-1347D01*
X83878Y-473D01*
Y473D01*
X83516Y1347D01*
X82847Y2016D01*
X81973Y2378D01*
X81027D01*
X80303Y2078D01*
X79803Y2319D01*
Y2772D01*
D02*
G37*
G36*
X72868Y-539D02*
X71193D01*
Y-2411D01*
X72868D01*
Y-539D01*
D02*
G37*
G36*
X70193D02*
X68518D01*
Y-2411D01*
X70193D01*
Y-539D01*
D02*
G37*
G36*
X35760Y-4117D02*
X34479D01*
Y-6579D01*
X35760D01*
Y-4117D01*
D02*
G37*
G36*
X53332Y-6518D02*
X51461D01*
Y-8193D01*
X53332D01*
Y-6518D01*
D02*
G37*
G36*
X50461D02*
X48589D01*
Y-8193D01*
X50461D01*
Y-6518D01*
D02*
G37*
G36*
X35760Y-7579D02*
X34479D01*
Y-10041D01*
X35760D01*
Y-7579D01*
D02*
G37*
G36*
X53332Y-9193D02*
X51461D01*
Y-10868D01*
X53332D01*
Y-9193D01*
D02*
G37*
G36*
X50461D02*
X48589D01*
Y-10868D01*
X50461D01*
Y-9193D01*
D02*
G37*
G36*
X53772Y-12653D02*
X48228D01*
Y-12985D01*
X47813Y-13263D01*
X47473Y-13122D01*
X46527D01*
X45653Y-13484D01*
X45578Y-13559D01*
X41559D01*
Y-20283D01*
X45921D01*
Y-18077D01*
X46337Y-17799D01*
X46527Y-17878D01*
X47473D01*
X48008Y-17656D01*
X48228Y-17803D01*
Y-17803D01*
X53772D01*
Y-12653D01*
D02*
G37*
G36*
X71462Y-13980D02*
X69000D01*
Y-15261D01*
X71462D01*
Y-13980D01*
D02*
G37*
G36*
X68000D02*
X65538D01*
Y-15261D01*
X68000D01*
Y-13980D01*
D02*
G37*
G36*
X63973Y-19122D02*
X63027D01*
X62153Y-19484D01*
X61882Y-19755D01*
X61382Y-19548D01*
Y-19189D01*
X56232D01*
Y-22918D01*
X55308Y-23842D01*
X54847Y-23650D01*
Y-19228D01*
X49697D01*
Y-24253D01*
X49211Y-24739D01*
X48902Y-25202D01*
X48793Y-25748D01*
X48794Y-25748D01*
Y-27321D01*
X47563D01*
X46904Y-27452D01*
X46345Y-27826D01*
X45972Y-28384D01*
X45841Y-29043D01*
X45972Y-29702D01*
X46125Y-29931D01*
X46315Y-30323D01*
X46125Y-30715D01*
X45972Y-30943D01*
X45841Y-31602D01*
X45972Y-32261D01*
X46125Y-32490D01*
X46315Y-32882D01*
X46125Y-33274D01*
X45972Y-33502D01*
X45841Y-34161D01*
X45972Y-34820D01*
X46345Y-35379D01*
X46382Y-35404D01*
X46457Y-36055D01*
X46349Y-36217D01*
X46348Y-36220D01*
X50221D01*
X54093D01*
X54092Y-36217D01*
X53984Y-36055D01*
X53966Y-35899D01*
X54152Y-35466D01*
X54545Y-35414D01*
X55932Y-34839D01*
X57098Y-33945D01*
X57286Y-33984D01*
X57563Y-34169D01*
X57500Y-34486D01*
Y-34921D01*
X60000D01*
X62500D01*
Y-34486D01*
X62381Y-33887D01*
X62042Y-33380D01*
Y-33023D01*
X62330Y-32830D01*
X62732Y-32228D01*
X62950Y-32206D01*
X62971Y-32207D01*
X63256Y-32250D01*
X63670Y-32869D01*
Y-33130D01*
X63242Y-33771D01*
X63092Y-34526D01*
Y-36396D01*
X63242Y-37151D01*
X63670Y-37791D01*
X64268Y-38190D01*
X64328Y-38331D01*
X64392Y-38745D01*
X63984Y-39153D01*
X63622Y-40027D01*
Y-40973D01*
X63984Y-41847D01*
X64653Y-42516D01*
X65527Y-42878D01*
X66473D01*
X67347Y-42516D01*
X68016Y-41847D01*
X68378Y-40973D01*
Y-40027D01*
X68016Y-39153D01*
X67608Y-38745D01*
X67672Y-38331D01*
X67732Y-38190D01*
X68330Y-37791D01*
X68673Y-37277D01*
X70110D01*
Y-38421D01*
X76441D01*
Y-34059D01*
X70110D01*
Y-34423D01*
X68888D01*
X68775Y-33859D01*
X68959Y-33559D01*
X69111Y-33399D01*
X69396Y-33437D01*
X69451Y-33433D01*
X69492Y-33441D01*
X69500Y-33440D01*
X69526Y-33445D01*
X69594Y-33432D01*
X73709D01*
Y-33433D01*
X75068Y-33299D01*
X76374Y-32903D01*
X77578Y-32259D01*
X78633Y-31393D01*
X78633Y-31393D01*
X79005Y-31084D01*
X79091Y-31019D01*
X79459Y-30958D01*
X79959Y-31236D01*
Y-32000D01*
X82724D01*
Y-33000D01*
X79959D01*
Y-34059D01*
X79559D01*
Y-38421D01*
X85890D01*
Y-37032D01*
X87497D01*
X87670Y-37291D01*
X88310Y-37718D01*
X88568Y-37770D01*
Y-58619D01*
X88454Y-58790D01*
X88366Y-59232D01*
X88217Y-59631D01*
X87818Y-59780D01*
X87376Y-59868D01*
X86687Y-60328D01*
X86227Y-61017D01*
X86139Y-61459D01*
X85990Y-61858D01*
X85591Y-62007D01*
X85149Y-62095D01*
X84460Y-62555D01*
X84000Y-63244D01*
X83838Y-64057D01*
X83906Y-64397D01*
X83734Y-64568D01*
X83078Y-64699D01*
X82945Y-64788D01*
X85758Y-67601D01*
X88572Y-70414D01*
X88660Y-70281D01*
X88791Y-69625D01*
X88962Y-69453D01*
X89302Y-69521D01*
X90115Y-69359D01*
X90804Y-68899D01*
X91264Y-68210D01*
X91352Y-67768D01*
X91501Y-67369D01*
X91900Y-67220D01*
X92342Y-67132D01*
X93031Y-66672D01*
X93491Y-65983D01*
X93579Y-65541D01*
X93728Y-65142D01*
X94127Y-64993D01*
X94569Y-64905D01*
X95258Y-64445D01*
X95718Y-63756D01*
X95880Y-62943D01*
X95718Y-62131D01*
X95258Y-61442D01*
X91917Y-58101D01*
X91432Y-57777D01*
Y-37770D01*
X91690Y-37718D01*
X92330Y-37291D01*
X92697Y-36742D01*
X93068Y-36683D01*
X93257Y-36702D01*
X93458Y-37002D01*
X93966Y-37342D01*
X94565Y-37461D01*
X95000D01*
Y-34961D01*
X95500D01*
Y-34461D01*
X98000D01*
Y-34026D01*
X97881Y-33427D01*
X97542Y-32919D01*
Y-32562D01*
X97830Y-32370D01*
X98258Y-31729D01*
X98408Y-30974D01*
Y-29104D01*
X98258Y-28349D01*
X97830Y-27709D01*
X97190Y-27282D01*
X96435Y-27131D01*
X94565D01*
X93810Y-27282D01*
X93170Y-27709D01*
X93000Y-27964D01*
X92500D01*
X92330Y-27709D01*
X91690Y-27282D01*
X90935Y-27131D01*
X89065D01*
X88310Y-27282D01*
X87670Y-27709D01*
X87497Y-27968D01*
X85890D01*
Y-26579D01*
X79559D01*
Y-27647D01*
X78866Y-27857D01*
X77662Y-28500D01*
X76941Y-29092D01*
X76441Y-28856D01*
Y-26579D01*
X72713D01*
X71876Y-26131D01*
X70479Y-25708D01*
X69027Y-25565D01*
Y-25568D01*
X65561D01*
X65500Y-25556D01*
X65435Y-25569D01*
X65370Y-25565D01*
X64812Y-25638D01*
X64279Y-25690D01*
X64176Y-25722D01*
X64005Y-25744D01*
X63881Y-25786D01*
X63753Y-25812D01*
X63407Y-25955D01*
X63105Y-26047D01*
X62827Y-26195D01*
X62481Y-26339D01*
X62372Y-26411D01*
X62255Y-26469D01*
X62118Y-26574D01*
X62023Y-26625D01*
X61609Y-26965D01*
X61165Y-27305D01*
X61165Y-27305D01*
X61163Y-27307D01*
X61120Y-27356D01*
X61068Y-27391D01*
X61067Y-27392D01*
X61065Y-27393D01*
X61030Y-27445D01*
X60883Y-27592D01*
X59065D01*
X58310Y-27742D01*
X57670Y-28170D01*
X57242Y-28810D01*
X57092Y-29565D01*
Y-30024D01*
X56419Y-30540D01*
X56426Y-30547D01*
X56421Y-30555D01*
X55455Y-31520D01*
X54931Y-31338D01*
X54922Y-31264D01*
X55476Y-30710D01*
X55785Y-30247D01*
X55894Y-29701D01*
X55894Y-29701D01*
Y-27293D01*
X58454Y-24732D01*
X61382D01*
Y-23452D01*
X61882Y-23245D01*
X62153Y-23516D01*
X63027Y-23878D01*
X63973D01*
X64847Y-23516D01*
X65516Y-22847D01*
X65878Y-21973D01*
Y-21027D01*
X65516Y-20153D01*
X64847Y-19484D01*
X63973Y-19122D01*
D02*
G37*
G36*
X13872Y-33581D02*
X12000D01*
Y-35256D01*
X13872D01*
Y-33581D01*
D02*
G37*
G36*
X11000D02*
X9128D01*
Y-35256D01*
X11000D01*
Y-33581D01*
D02*
G37*
G36*
X17000Y-34054D02*
X15128D01*
Y-35728D01*
X17000D01*
Y-34054D01*
D02*
G37*
G36*
X98000Y-35461D02*
X96000D01*
Y-37461D01*
X96435D01*
X97034Y-37342D01*
X97542Y-37002D01*
X97881Y-36495D01*
X98000Y-35896D01*
Y-35461D01*
D02*
G37*
G36*
X62500Y-35921D02*
X60500D01*
Y-37921D01*
X60935D01*
X61534Y-37802D01*
X62042Y-37463D01*
X62381Y-36955D01*
X62500Y-36356D01*
Y-35921D01*
D02*
G37*
G36*
X59500D02*
X57500D01*
Y-36356D01*
X57619Y-36955D01*
X57958Y-37463D01*
X58466Y-37802D01*
X59065Y-37921D01*
X59500D01*
Y-35921D01*
D02*
G37*
G36*
X13872Y-36256D02*
X12000D01*
Y-37931D01*
X13872D01*
Y-36256D01*
D02*
G37*
G36*
X11000D02*
X9128D01*
Y-37931D01*
X11000D01*
Y-36256D01*
D02*
G37*
G36*
X17000Y-36728D02*
X15128D01*
Y-38403D01*
X17000D01*
Y-36728D01*
D02*
G37*
G36*
X54093Y-37220D02*
X50221D01*
X46348D01*
X46349Y-37223D01*
X46634Y-37650D01*
X46708Y-37699D01*
Y-38301D01*
X46634Y-38350D01*
X46349Y-38777D01*
X46348Y-38780D01*
X50221D01*
X54093D01*
X54092Y-38777D01*
X53807Y-38350D01*
X53733Y-38301D01*
Y-37699D01*
X53807Y-37650D01*
X54092Y-37223D01*
X54093Y-37220D01*
D02*
G37*
G36*
X38441Y-13559D02*
X34079D01*
Y-20283D01*
X34828D01*
Y-36549D01*
X34837Y-36595D01*
X34711Y-37552D01*
X34324Y-38486D01*
X33741Y-39246D01*
X33707Y-39268D01*
X33705Y-39272D01*
X33701Y-39274D01*
X33701Y-39275D01*
X33700Y-39275D01*
X33700Y-39276D01*
X33698Y-39277D01*
X33697Y-39279D01*
X33696Y-39279D01*
X33696Y-39279D01*
X33695Y-39280D01*
X33693Y-39283D01*
X33689Y-39286D01*
X33667Y-39320D01*
X32907Y-39903D01*
X31973Y-40290D01*
X31908Y-40299D01*
X31618Y-39833D01*
X31651Y-39783D01*
X31652Y-39779D01*
X27779D01*
Y-38780D01*
X31652D01*
X31651Y-38777D01*
X31543Y-38614D01*
X31618Y-37963D01*
X31655Y-37938D01*
X32028Y-37380D01*
X32159Y-36720D01*
X32028Y-36061D01*
X31875Y-35833D01*
X31685Y-35441D01*
X31875Y-35049D01*
X32028Y-34820D01*
X32159Y-34161D01*
X32028Y-33502D01*
X31875Y-33274D01*
X31685Y-32882D01*
X31875Y-32490D01*
X32028Y-32261D01*
X32159Y-31602D01*
X32028Y-30943D01*
X31875Y-30715D01*
X31685Y-30323D01*
X31875Y-29931D01*
X32028Y-29702D01*
X32159Y-29043D01*
X32028Y-28384D01*
X31655Y-27826D01*
X31096Y-27452D01*
X30437Y-27321D01*
X25122D01*
X24469Y-27451D01*
X21509Y-24491D01*
X21046Y-24182D01*
X20500Y-24073D01*
X20500Y-24073D01*
X14000D01*
X13454Y-24182D01*
X12991Y-24491D01*
X12991Y-24491D01*
X10552Y-26930D01*
X10243Y-27393D01*
X10188Y-27669D01*
X8728D01*
Y-32819D01*
X14272D01*
Y-32467D01*
X14689Y-32268D01*
X18498D01*
X18636Y-32295D01*
X19777D01*
X22652Y-35171D01*
X22853Y-35304D01*
X22882Y-35367D01*
X22835Y-35894D01*
X22740Y-35940D01*
X21973Y-35622D01*
X21027D01*
X20372Y-35893D01*
X19872Y-35612D01*
Y-34054D01*
X18000D01*
Y-36228D01*
Y-38403D01*
X18643D01*
X18849Y-38901D01*
X18760Y-38994D01*
X18057Y-39697D01*
X14728D01*
Y-44846D01*
X20272D01*
Y-41518D01*
X21131Y-40659D01*
X21131Y-40659D01*
X21515Y-40378D01*
X21973D01*
X22847Y-40016D01*
X23345Y-39518D01*
X23884Y-39665D01*
X23908Y-39783D01*
X24016Y-39945D01*
X23941Y-40596D01*
X23904Y-40621D01*
X23531Y-41180D01*
X23400Y-41839D01*
X23531Y-42498D01*
X23684Y-42726D01*
X23874Y-43118D01*
X23684Y-43510D01*
X23531Y-43739D01*
X23473Y-44028D01*
X20991Y-46511D01*
X20682Y-46974D01*
X20573Y-47520D01*
X20573Y-47520D01*
Y-141057D01*
X20573Y-141057D01*
X20579Y-141087D01*
X20014Y-141652D01*
X19494Y-142553D01*
X19224Y-143558D01*
Y-144599D01*
X19494Y-145604D01*
X20014Y-146506D01*
X20750Y-147242D01*
X21652Y-147762D01*
X22657Y-148031D01*
X23698D01*
X24703Y-147762D01*
X25604Y-147242D01*
X26340Y-146506D01*
X26861Y-145604D01*
X27130Y-144599D01*
Y-143558D01*
X26861Y-142553D01*
X26340Y-141652D01*
X25604Y-140916D01*
X24703Y-140395D01*
X23698Y-140126D01*
X23427D01*
Y-137000D01*
X23889Y-136809D01*
X29545Y-142465D01*
X29494Y-142553D01*
X29224Y-143558D01*
Y-144599D01*
X29494Y-145604D01*
X30014Y-146506D01*
X30750Y-147242D01*
X31651Y-147762D01*
X32657Y-148031D01*
X33698D01*
X34703Y-147762D01*
X35604Y-147242D01*
X36340Y-146506D01*
X36861Y-145604D01*
X37130Y-144599D01*
Y-143558D01*
X36861Y-142553D01*
X36340Y-141652D01*
X35604Y-140916D01*
X34703Y-140395D01*
X33698Y-140126D01*
X32657D01*
X31651Y-140395D01*
X31563Y-140446D01*
X24927Y-133810D01*
Y-128500D01*
X25389Y-128309D01*
X39545Y-142465D01*
X39494Y-142553D01*
X39224Y-143558D01*
Y-144599D01*
X39494Y-145604D01*
X40014Y-146506D01*
X40750Y-147242D01*
X41651Y-147762D01*
X42657Y-148031D01*
X43698D01*
X44703Y-147762D01*
X45604Y-147242D01*
X46340Y-146506D01*
X46861Y-145604D01*
X47130Y-144599D01*
Y-143558D01*
X46861Y-142553D01*
X46340Y-141652D01*
X45604Y-140916D01*
X44703Y-140395D01*
X43698Y-140126D01*
X42657D01*
X41651Y-140395D01*
X41563Y-140446D01*
X26427Y-125311D01*
Y-56591D01*
X34634Y-48384D01*
X46659D01*
X46904Y-48548D01*
X47563Y-48679D01*
X52878D01*
X53537Y-48548D01*
X54096Y-48174D01*
X54469Y-47616D01*
X54600Y-46957D01*
X54469Y-46298D01*
X54096Y-45739D01*
X54059Y-45714D01*
X53984Y-45063D01*
X54092Y-44901D01*
X54093Y-44898D01*
X50221D01*
X46348D01*
X46349Y-44901D01*
X46435Y-45030D01*
X46168Y-45530D01*
X34043D01*
X34043Y-45530D01*
X33497Y-45638D01*
X33034Y-45948D01*
X33034Y-45948D01*
X32512Y-46470D01*
X32092Y-46343D01*
X32008Y-46267D01*
X31875Y-46069D01*
X31685Y-45677D01*
X31875Y-45285D01*
X32028Y-45057D01*
X32159Y-44398D01*
X32028Y-43739D01*
X31984Y-43673D01*
X32234Y-43146D01*
X32282Y-43141D01*
X32392Y-43108D01*
X32586Y-43082D01*
X32710Y-43040D01*
X32838Y-43015D01*
X33219Y-42857D01*
X33543Y-42759D01*
X33841Y-42599D01*
X34222Y-42442D01*
X34331Y-42369D01*
X34448Y-42311D01*
X34603Y-42192D01*
X34705Y-42138D01*
X35148Y-41774D01*
X35633Y-41402D01*
X35633Y-41402D01*
X35633Y-41402D01*
X35637Y-41399D01*
X35679Y-41351D01*
X35730Y-41317D01*
X35731Y-41316D01*
X35734Y-41313D01*
X35737Y-41309D01*
X35738Y-41309D01*
X35772Y-41258D01*
X35820Y-41215D01*
X35823Y-41212D01*
X35823Y-41212D01*
X35823Y-41211D01*
X36195Y-40727D01*
X36559Y-40283D01*
X36613Y-40182D01*
X36733Y-40027D01*
X36790Y-39909D01*
X36863Y-39801D01*
X37021Y-39420D01*
X37180Y-39121D01*
X37278Y-38798D01*
X37436Y-38417D01*
X37462Y-38289D01*
X37504Y-38165D01*
X37529Y-37971D01*
X37563Y-37861D01*
X37619Y-37290D01*
X37699Y-36680D01*
X37695Y-36614D01*
X37708Y-36549D01*
X37692Y-36468D01*
Y-20283D01*
X38441D01*
Y-13559D01*
D02*
G37*
G36*
X54093Y-39779D02*
X50221D01*
X46348D01*
X46349Y-39783D01*
X46634Y-40209D01*
X46708Y-40258D01*
Y-40860D01*
X46634Y-40909D01*
X46349Y-41336D01*
X46348Y-41339D01*
X50221D01*
X54093D01*
X54092Y-41336D01*
X53807Y-40909D01*
X53733Y-40860D01*
Y-40258D01*
X53807Y-40209D01*
X54092Y-39783D01*
X54093Y-39779D01*
D02*
G37*
G36*
X77846Y-41728D02*
X72697D01*
Y-42181D01*
X72197Y-42422D01*
X71473Y-42122D01*
X70527D01*
X69653Y-42484D01*
X68984Y-43153D01*
X68622Y-44027D01*
Y-44973D01*
X68984Y-45847D01*
X69653Y-46516D01*
X70527Y-46878D01*
X71473D01*
X72197Y-46578D01*
X72697Y-46819D01*
Y-47272D01*
X77846D01*
Y-41728D01*
D02*
G37*
G36*
X54093Y-42339D02*
X50221D01*
X46348D01*
X46349Y-42342D01*
X46634Y-42768D01*
X46708Y-42817D01*
Y-43419D01*
X46634Y-43468D01*
X46349Y-43895D01*
X46348Y-43898D01*
X50221D01*
X54093D01*
X54092Y-43895D01*
X53807Y-43468D01*
X53733Y-43419D01*
Y-42817D01*
X53807Y-42768D01*
X54092Y-42342D01*
X54093Y-42339D01*
D02*
G37*
G36*
X83982Y-42089D02*
X82307D01*
Y-43961D01*
X83982D01*
Y-42089D01*
D02*
G37*
G36*
X81307D02*
X79632D01*
Y-43961D01*
X81307D01*
Y-42089D01*
D02*
G37*
G36*
X83982Y-44961D02*
X82307D01*
Y-46832D01*
X83982D01*
Y-44961D01*
D02*
G37*
G36*
X81307D02*
X79632D01*
Y-46832D01*
X81307D01*
Y-44961D01*
D02*
G37*
G36*
X19911Y-46632D02*
X18039D01*
Y-48307D01*
X19911D01*
Y-46632D01*
D02*
G37*
G36*
X17039D02*
X15168D01*
Y-48307D01*
X17039D01*
Y-46632D01*
D02*
G37*
G36*
X19911Y-49307D02*
X18039D01*
Y-50982D01*
X19911D01*
Y-49307D01*
D02*
G37*
G36*
X17039D02*
X15168D01*
Y-50982D01*
X17039D01*
Y-49307D01*
D02*
G37*
G36*
X82238Y-65495D02*
X82149Y-65627D01*
X82019Y-66284D01*
X81848Y-66455D01*
X81507Y-66387D01*
X80695Y-66549D01*
X80006Y-67010D01*
X79545Y-67698D01*
X79458Y-68140D01*
X79308Y-68539D01*
X78909Y-68688D01*
X78468Y-68776D01*
X77779Y-69237D01*
X77318Y-69925D01*
X77231Y-70367D01*
X77081Y-70766D01*
X76682Y-70916D01*
X76240Y-71003D01*
X75552Y-71464D01*
X75091Y-72153D01*
X75003Y-72594D01*
X74854Y-72993D01*
X74455Y-73143D01*
X74013Y-73230D01*
X73325Y-73691D01*
X72864Y-74380D01*
X72776Y-74821D01*
X72627Y-75221D01*
X72228Y-75370D01*
X71786Y-75458D01*
X71097Y-75918D01*
X70637Y-76607D01*
X70549Y-77049D01*
X70400Y-77448D01*
X70001Y-77597D01*
X69559Y-77685D01*
X69520Y-77711D01*
X69277D01*
X69126Y-77681D01*
X69126Y-77681D01*
X52062D01*
X52062Y-77681D01*
X51364Y-77820D01*
X50773Y-78215D01*
X50773Y-78215D01*
X50310Y-78678D01*
X35512D01*
X35163Y-78073D01*
X34427Y-77337D01*
X33526Y-76817D01*
X32520Y-76547D01*
X31480D01*
X30474Y-76817D01*
X29573Y-77337D01*
X28837Y-78073D01*
X28317Y-78974D01*
X28047Y-79980D01*
Y-81020D01*
X28317Y-82026D01*
X28837Y-82927D01*
X29573Y-83663D01*
X30474Y-84183D01*
X31480Y-84453D01*
X32520D01*
X33526Y-84183D01*
X34427Y-83663D01*
X35163Y-82927D01*
X35512Y-82322D01*
X51065D01*
X51065Y-82322D01*
X51763Y-82184D01*
X52354Y-81789D01*
X52816Y-81326D01*
X65736D01*
X66053Y-81713D01*
X66021Y-81874D01*
X66183Y-82686D01*
X66643Y-83375D01*
X67025Y-83757D01*
X62104Y-88678D01*
X35512D01*
X35163Y-88073D01*
X34427Y-87337D01*
X33526Y-86817D01*
X32520Y-86547D01*
X31480D01*
X30474Y-86817D01*
X29573Y-87337D01*
X28837Y-88073D01*
X28317Y-88974D01*
X28047Y-89980D01*
Y-91020D01*
X28317Y-92026D01*
X28837Y-92927D01*
X29573Y-93663D01*
X30474Y-94183D01*
X31480Y-94453D01*
X32520D01*
X33526Y-94183D01*
X34427Y-93663D01*
X35163Y-92927D01*
X35512Y-92322D01*
X62393D01*
X62600Y-92822D01*
X46745Y-108678D01*
X35512D01*
X35163Y-108073D01*
X34427Y-107337D01*
X33526Y-106817D01*
X32520Y-106547D01*
X31480D01*
X30474Y-106817D01*
X29573Y-107337D01*
X28837Y-108073D01*
X28317Y-108974D01*
X28047Y-109980D01*
Y-111020D01*
X28317Y-112026D01*
X28837Y-112927D01*
X29573Y-113663D01*
X30474Y-114183D01*
X31480Y-114453D01*
X32520D01*
X33526Y-114183D01*
X34427Y-113663D01*
X35163Y-112927D01*
X35512Y-112322D01*
X47500D01*
X47500Y-112322D01*
X48197Y-112184D01*
X48789Y-111789D01*
X65672Y-94905D01*
X66150Y-95051D01*
X66183Y-95214D01*
X66643Y-95903D01*
X67332Y-96363D01*
X67774Y-96451D01*
X68173Y-96600D01*
X68322Y-96999D01*
X68410Y-97441D01*
X68870Y-98130D01*
X69559Y-98590D01*
X70001Y-98678D01*
X70400Y-98827D01*
X70549Y-99226D01*
X70637Y-99668D01*
X71097Y-100357D01*
X71579Y-100678D01*
X71512Y-101234D01*
X70863Y-101502D01*
X70482Y-101883D01*
X69810Y-101891D01*
X69356Y-101437D01*
X65437Y-105356D01*
X66119Y-106039D01*
X65420Y-106738D01*
X65038Y-106356D01*
X61119Y-110276D01*
X64760Y-113917D01*
X68680Y-109997D01*
X67997Y-109315D01*
X68696Y-108616D01*
X69078Y-108998D01*
X71470Y-106606D01*
X71619Y-106506D01*
X72229Y-105896D01*
X72683D01*
X73557Y-105534D01*
X74226Y-104865D01*
X74566Y-104044D01*
X74603Y-104034D01*
X75091Y-104122D01*
X75552Y-104811D01*
X75666Y-104887D01*
Y-105489D01*
X75501Y-105599D01*
X74255Y-106845D01*
X74006Y-106596D01*
X72682Y-107919D01*
X74220Y-109457D01*
X75758Y-110995D01*
X77081Y-109671D01*
X76832Y-109422D01*
X77544Y-108710D01*
X77769D01*
X77770Y-108710D01*
X78467Y-108571D01*
X78968Y-108236D01*
X79500Y-108347D01*
X79545Y-108576D01*
X80006Y-109265D01*
X80695Y-109726D01*
X80782Y-109743D01*
X80927Y-110221D01*
X61888Y-129260D01*
X61493Y-129851D01*
X61355Y-130548D01*
X61355Y-130548D01*
Y-140567D01*
X60750Y-140916D01*
X60014Y-141652D01*
X59494Y-142553D01*
X59224Y-143558D01*
Y-144599D01*
X59494Y-145604D01*
X60014Y-146506D01*
X60750Y-147242D01*
X61651Y-147762D01*
X62657Y-148031D01*
X63698D01*
X64703Y-147762D01*
X65604Y-147242D01*
X66340Y-146506D01*
X66861Y-145604D01*
X67130Y-144599D01*
Y-143558D01*
X66861Y-142553D01*
X66340Y-141652D01*
X65604Y-140916D01*
X65000Y-140567D01*
Y-131303D01*
X70855Y-125448D01*
X71355Y-125655D01*
Y-140567D01*
X70750Y-140916D01*
X70014Y-141652D01*
X69494Y-142553D01*
X69224Y-143558D01*
Y-144599D01*
X69494Y-145604D01*
X70014Y-146506D01*
X70750Y-147242D01*
X71652Y-147762D01*
X72657Y-148031D01*
X73698D01*
X74703Y-147762D01*
X75604Y-147242D01*
X76340Y-146506D01*
X76861Y-145604D01*
X77130Y-144599D01*
Y-143558D01*
X76861Y-142553D01*
X76340Y-141652D01*
X75604Y-140916D01*
X75000Y-140567D01*
Y-125757D01*
X80855Y-119902D01*
X81355Y-120109D01*
Y-140567D01*
X80750Y-140916D01*
X80014Y-141652D01*
X79494Y-142553D01*
X79224Y-143558D01*
Y-144599D01*
X79494Y-145604D01*
X80014Y-146506D01*
X80750Y-147242D01*
X81652Y-147762D01*
X82657Y-148031D01*
X83698D01*
X84703Y-147762D01*
X85604Y-147242D01*
X86340Y-146506D01*
X86861Y-145604D01*
X87130Y-144599D01*
Y-143558D01*
X86861Y-142553D01*
X86340Y-141652D01*
X85604Y-140916D01*
X85000Y-140567D01*
Y-120211D01*
X87958Y-117253D01*
X88437Y-117398D01*
X88454Y-117485D01*
X88593Y-117693D01*
Y-140145D01*
X88593Y-140145D01*
X88732Y-140843D01*
X89127Y-141434D01*
X89769Y-142076D01*
X89494Y-142553D01*
X89224Y-143558D01*
Y-144599D01*
X89494Y-145604D01*
X90014Y-146506D01*
X90750Y-147242D01*
X91651Y-147762D01*
X92657Y-148031D01*
X93698D01*
X94703Y-147762D01*
X95604Y-147242D01*
X96340Y-146506D01*
X96861Y-145604D01*
X97130Y-144599D01*
Y-143558D01*
X96861Y-142553D01*
X96340Y-141652D01*
X95604Y-140916D01*
X94703Y-140395D01*
X93698Y-140126D01*
X92974D01*
X92238Y-139391D01*
Y-117853D01*
X95258Y-114833D01*
X95718Y-114144D01*
X95880Y-113331D01*
X95718Y-112519D01*
X95258Y-111830D01*
X94569Y-111370D01*
X94127Y-111282D01*
X93728Y-111133D01*
X93579Y-110734D01*
X93491Y-110292D01*
X93031Y-109603D01*
X92342Y-109143D01*
X91900Y-109055D01*
X91501Y-108905D01*
X91352Y-108506D01*
X91264Y-108065D01*
X90804Y-107376D01*
X90115Y-106915D01*
X89673Y-106828D01*
X89274Y-106678D01*
X89125Y-106279D01*
X89037Y-105838D01*
X88577Y-105149D01*
X87888Y-104688D01*
X87446Y-104601D01*
X87047Y-104451D01*
X86898Y-104052D01*
X86810Y-103611D01*
X86349Y-102922D01*
X85661Y-102461D01*
X84848Y-102300D01*
X84508Y-102367D01*
X84337Y-102196D01*
X84206Y-101539D01*
X84117Y-101407D01*
X81304Y-104220D01*
X80597Y-103513D01*
X83410Y-100700D01*
X83277Y-100611D01*
X82621Y-100480D01*
X82450Y-100309D01*
X82517Y-99969D01*
X82356Y-99156D01*
X81895Y-98467D01*
X81206Y-98007D01*
X80765Y-97919D01*
X80366Y-97770D01*
X80216Y-97371D01*
X80129Y-96929D01*
X79668Y-96240D01*
X78979Y-95780D01*
X78537Y-95692D01*
X78138Y-95543D01*
X77989Y-95144D01*
X77901Y-94702D01*
X77441Y-94013D01*
X76752Y-93553D01*
X76310Y-93465D01*
X75911Y-93316D01*
X75762Y-92917D01*
X75674Y-92475D01*
X75214Y-91786D01*
X74525Y-91326D01*
X74083Y-91238D01*
X73684Y-91089D01*
X73535Y-90690D01*
X73462Y-90322D01*
X73676Y-89822D01*
X74500D01*
X74500Y-89822D01*
X75197Y-89684D01*
X75789Y-89289D01*
X79289Y-85789D01*
X79289Y-85789D01*
X79684Y-85197D01*
X79822Y-84500D01*
X79822Y-84500D01*
Y-82980D01*
X79684Y-82283D01*
X79289Y-81692D01*
X79289Y-81692D01*
X78614Y-81017D01*
X78759Y-80539D01*
X78979Y-80495D01*
X79668Y-80035D01*
X80129Y-79346D01*
X80216Y-78904D01*
X80366Y-78505D01*
X80765Y-78356D01*
X81206Y-78268D01*
X81895Y-77807D01*
X82356Y-77118D01*
X82443Y-76677D01*
X82593Y-76278D01*
X82992Y-76129D01*
X83434Y-76041D01*
X84122Y-75580D01*
X84583Y-74891D01*
X84671Y-74450D01*
X84820Y-74051D01*
X85219Y-73901D01*
X85661Y-73813D01*
X86349Y-73353D01*
X86810Y-72664D01*
X86971Y-71852D01*
X86904Y-71512D01*
X87075Y-71340D01*
X87732Y-71210D01*
X87864Y-71121D01*
X85051Y-68308D01*
X82238Y-65495D01*
D02*
G37*
G36*
X137505Y-71096D02*
X136182Y-72419D01*
X137366Y-73603D01*
X138690Y-72280D01*
X137505Y-71096D01*
D02*
G37*
G36*
X139397Y-72987D02*
X138073Y-74311D01*
X139258Y-75495D01*
X140581Y-74171D01*
X139397Y-72987D01*
D02*
G37*
G36*
X135475Y-73126D02*
X134151Y-74450D01*
X135336Y-75634D01*
X136659Y-74311D01*
X135475Y-73126D01*
D02*
G37*
G36*
X137366Y-75018D02*
X136043Y-76341D01*
X137227Y-77526D01*
X138550Y-76202D01*
X137366Y-75018D01*
D02*
G37*
G36*
X132006Y-76096D02*
X130682Y-77419D01*
X131866Y-78604D01*
X133190Y-77280D01*
X132006Y-76096D01*
D02*
G37*
G36*
X129975Y-78126D02*
X128651Y-79450D01*
X129836Y-80634D01*
X131159Y-79311D01*
X129975Y-78126D01*
D02*
G37*
G36*
X133897Y-77987D02*
X132220Y-79664D01*
X130543Y-81341D01*
X131727Y-82525D01*
X132227Y-82026D01*
X133489Y-83289D01*
X133489Y-83289D01*
X134080Y-83684D01*
X134778Y-83822D01*
X135000D01*
X135697Y-83684D01*
X136289Y-83289D01*
X136684Y-82697D01*
X136822Y-82000D01*
X136684Y-81303D01*
X136289Y-80711D01*
X135697Y-80316D01*
X135665Y-80310D01*
X134804Y-79449D01*
X135081Y-79171D01*
X133897Y-77987D01*
D02*
G37*
G36*
X32520Y-96547D02*
X31480D01*
X30474Y-96817D01*
X29573Y-97337D01*
X28837Y-98073D01*
X28317Y-98974D01*
X28047Y-99980D01*
Y-101020D01*
X28317Y-102026D01*
X28837Y-102927D01*
X29573Y-103663D01*
X30474Y-104183D01*
X31480Y-104453D01*
X32520D01*
X33526Y-104183D01*
X34427Y-103663D01*
X35163Y-102927D01*
X35683Y-102026D01*
X35953Y-101020D01*
Y-99980D01*
X35683Y-98974D01*
X35163Y-98073D01*
X34427Y-97337D01*
X33526Y-96817D01*
X32520Y-96547D01*
D02*
G37*
G36*
X121874Y-88937D02*
X121061Y-89099D01*
X120372Y-89559D01*
X119912Y-90248D01*
X119824Y-90690D01*
X119675Y-91089D01*
X119276Y-91238D01*
X118834Y-91326D01*
X118145Y-91786D01*
X117685Y-92475D01*
X117597Y-92917D01*
X117448Y-93316D01*
X117049Y-93465D01*
X116607Y-93553D01*
X115918Y-94013D01*
X115458Y-94702D01*
X115370Y-95144D01*
X115220Y-95543D01*
X114821Y-95692D01*
X114380Y-95780D01*
X113691Y-96240D01*
X113231Y-96929D01*
X113143Y-97371D01*
X112993Y-97770D01*
X112594Y-97919D01*
X112153Y-98007D01*
X111464Y-98467D01*
X111003Y-99156D01*
X110916Y-99598D01*
X110766Y-99997D01*
X110367Y-100146D01*
X109925Y-100234D01*
X109237Y-100695D01*
X108776Y-101383D01*
X108688Y-101825D01*
X108539Y-102224D01*
X108140Y-102373D01*
X107698Y-102461D01*
X107009Y-102922D01*
X106549Y-103611D01*
X106461Y-104052D01*
X106312Y-104451D01*
X105913Y-104601D01*
X105471Y-104688D01*
X104782Y-105149D01*
X104322Y-105838D01*
X104160Y-106650D01*
X104228Y-106990D01*
X104057Y-107162D01*
X103400Y-107292D01*
X103268Y-107381D01*
X106081Y-110194D01*
X105374Y-110901D01*
X102560Y-108088D01*
X102472Y-108221D01*
X102341Y-108877D01*
X102170Y-109049D01*
X101830Y-108981D01*
X101017Y-109143D01*
X100328Y-109603D01*
X99868Y-110292D01*
X99780Y-110734D01*
X99631Y-111133D01*
X99232Y-111282D01*
X98790Y-111370D01*
X98101Y-111830D01*
X97641Y-112519D01*
X97479Y-113331D01*
X97641Y-114144D01*
X98101Y-114833D01*
X101234Y-117966D01*
Y-140637D01*
X100750Y-140916D01*
X100014Y-141652D01*
X99494Y-142553D01*
X99224Y-143558D01*
Y-144599D01*
X99494Y-145604D01*
X100014Y-146506D01*
X100750Y-147242D01*
X101652Y-147762D01*
X102657Y-148031D01*
X103698D01*
X104703Y-147762D01*
X105604Y-147242D01*
X106340Y-146506D01*
X106860Y-145604D01*
X107130Y-144599D01*
Y-143558D01*
X106860Y-142553D01*
X106340Y-141652D01*
X105604Y-140916D01*
X104879Y-140497D01*
Y-123449D01*
X105379Y-123242D01*
X105653Y-123516D01*
X106527Y-123878D01*
X107473D01*
X108347Y-123516D01*
X109016Y-122847D01*
X109378Y-121973D01*
Y-121027D01*
X109016Y-120153D01*
X108347Y-119484D01*
X108322Y-119474D01*
Y-118228D01*
X108784Y-118037D01*
X109298Y-118551D01*
X110836Y-117013D01*
X111189Y-117366D01*
X111543Y-117013D01*
X113220Y-118690D01*
X114404Y-117506D01*
X112873Y-115974D01*
Y-115871D01*
X112734Y-115173D01*
X112339Y-114582D01*
X112339Y-114582D01*
X112129Y-114372D01*
X112394Y-113930D01*
X113772Y-114348D01*
X115649Y-116225D01*
X116002Y-116578D01*
X116002D01*
X119922Y-120498D01*
X123103Y-117317D01*
X123603Y-117524D01*
Y-123563D01*
X117275Y-129891D01*
X116880Y-130482D01*
X116741Y-131179D01*
X116741Y-131179D01*
Y-137937D01*
X114372Y-140307D01*
X113698Y-140126D01*
X112657D01*
X111652Y-140395D01*
X110750Y-140916D01*
X110014Y-141652D01*
X109494Y-142553D01*
X109224Y-143558D01*
Y-144599D01*
X109494Y-145604D01*
X110014Y-146506D01*
X110750Y-147242D01*
X111652Y-147762D01*
X112657Y-148031D01*
X113698D01*
X114703Y-147762D01*
X115604Y-147242D01*
X116340Y-146506D01*
X116860Y-145604D01*
X117130Y-144599D01*
Y-143558D01*
X116949Y-142884D01*
X119852Y-139981D01*
X119852Y-139981D01*
X120247Y-139390D01*
X120386Y-138692D01*
Y-131934D01*
X120893Y-131427D01*
X121355Y-131619D01*
Y-140567D01*
X120750Y-140916D01*
X120014Y-141652D01*
X119494Y-142553D01*
X119224Y-143558D01*
Y-144599D01*
X119494Y-145604D01*
X120014Y-146506D01*
X120750Y-147242D01*
X121651Y-147762D01*
X122657Y-148031D01*
X123698D01*
X124703Y-147762D01*
X125604Y-147242D01*
X126340Y-146506D01*
X126860Y-145604D01*
X127130Y-144599D01*
Y-143558D01*
X126860Y-142553D01*
X126340Y-141652D01*
X125604Y-140916D01*
X125000Y-140567D01*
Y-130255D01*
X128789Y-126466D01*
X128789Y-126466D01*
X129184Y-125875D01*
X129322Y-125177D01*
Y-115000D01*
X129322Y-115000D01*
X129184Y-114303D01*
X128789Y-113711D01*
X128789Y-113711D01*
X120777Y-105700D01*
X120186Y-105305D01*
X119489Y-105166D01*
X119489Y-105166D01*
X118107D01*
X117904Y-104666D01*
X118268Y-104122D01*
X118356Y-103680D01*
X118505Y-103281D01*
X118904Y-103132D01*
X119346Y-103044D01*
X120035Y-102584D01*
X120495Y-101895D01*
X120583Y-101453D01*
X120732Y-101054D01*
X121131Y-100905D01*
X121573Y-100817D01*
X122262Y-100357D01*
X122722Y-99668D01*
X122810Y-99226D01*
X122959Y-98827D01*
X123358Y-98678D01*
X123800Y-98590D01*
X124489Y-98130D01*
X124949Y-97441D01*
X125037Y-96999D01*
X125186Y-96600D01*
X125585Y-96451D01*
X126027Y-96363D01*
X126716Y-95903D01*
X127176Y-95214D01*
X127338Y-94401D01*
X127176Y-93589D01*
X126716Y-92900D01*
X123375Y-89559D01*
X122686Y-89099D01*
X121874Y-88937D01*
D02*
G37*
G36*
X71975Y-108626D02*
X70652Y-109950D01*
X71836Y-111134D01*
X73159Y-109811D01*
X71975Y-108626D01*
D02*
G37*
G36*
X73866Y-110518D02*
X72543Y-111841D01*
X73727Y-113025D01*
X75050Y-111702D01*
X73866Y-110518D01*
D02*
G37*
G36*
X69687Y-111515D02*
X68364Y-112838D01*
X69548Y-114023D01*
X70872Y-112699D01*
X69687Y-111515D01*
D02*
G37*
G36*
X71579Y-113406D02*
X70255Y-114730D01*
X71440Y-115914D01*
X72763Y-114591D01*
X71579Y-113406D01*
D02*
G37*
G36*
X67657Y-113546D02*
X66334Y-114869D01*
X67518Y-116053D01*
X68841Y-114730D01*
X67657Y-113546D01*
D02*
G37*
G36*
X69548Y-115437D02*
X68225Y-116761D01*
X69409Y-117945D01*
X70733Y-116621D01*
X69548Y-115437D01*
D02*
G37*
G36*
X111189Y-118073D02*
X110005Y-119258D01*
X111329Y-120581D01*
X112513Y-119397D01*
X111189Y-118073D01*
D02*
G37*
G36*
X115050Y-118151D02*
X113866Y-119336D01*
X115189Y-120659D01*
X116374Y-119475D01*
X115050Y-118151D01*
D02*
G37*
G36*
X113159Y-120043D02*
X111975Y-121227D01*
X113298Y-122551D01*
X114482Y-121366D01*
X113159Y-120043D01*
D02*
G37*
G36*
X117081Y-120182D02*
X115896Y-121366D01*
X117220Y-122690D01*
X118404Y-121505D01*
X117081Y-120182D01*
D02*
G37*
G36*
X35953Y-116547D02*
X28047D01*
Y-124453D01*
X35953D01*
Y-116547D01*
D02*
G37*
G36*
X115189Y-122073D02*
X114005Y-123258D01*
X115329Y-124581D01*
X116513Y-123397D01*
X115189Y-122073D01*
D02*
G37*
G36*
X18332Y-126518D02*
X16461D01*
Y-128193D01*
X18332D01*
Y-126518D01*
D02*
G37*
G36*
X15461D02*
X13589D01*
Y-128193D01*
X15461D01*
Y-126518D01*
D02*
G37*
G36*
X146868Y-127668D02*
X145193D01*
Y-129539D01*
X146868D01*
Y-127668D01*
D02*
G37*
G36*
X144193D02*
X142518D01*
Y-129539D01*
X144193D01*
Y-127668D01*
D02*
G37*
G36*
X18332Y-129193D02*
X16461D01*
Y-130868D01*
X18332D01*
Y-129193D01*
D02*
G37*
G36*
X15461D02*
X13589D01*
Y-130868D01*
X15461D01*
Y-129193D01*
D02*
G37*
G36*
X146868Y-130539D02*
X145193D01*
Y-132411D01*
X146868D01*
Y-130539D01*
D02*
G37*
G36*
X144193D02*
X142518D01*
Y-132411D01*
X144193D01*
Y-130539D01*
D02*
G37*
G36*
X187675Y-133128D02*
X186000D01*
Y-135000D01*
X187675D01*
Y-133128D01*
D02*
G37*
G36*
X185000D02*
X183325D01*
Y-135000D01*
X185000D01*
Y-133128D01*
D02*
G37*
G36*
X161982Y-133589D02*
X160307D01*
Y-135461D01*
X161982D01*
Y-133589D01*
D02*
G37*
G36*
X141482D02*
X139807D01*
Y-135461D01*
X141482D01*
Y-133589D01*
D02*
G37*
G36*
X159307D02*
X157632D01*
Y-135461D01*
X159307D01*
Y-133589D01*
D02*
G37*
G36*
X138807D02*
X137132D01*
Y-135461D01*
X138807D01*
Y-133589D01*
D02*
G37*
G36*
X187675Y-136000D02*
X186000D01*
Y-137872D01*
X187675D01*
Y-136000D01*
D02*
G37*
G36*
X185000D02*
X183325D01*
Y-137872D01*
X185000D01*
Y-136000D01*
D02*
G37*
G36*
X161982Y-136461D02*
X160307D01*
Y-138332D01*
X161982D01*
Y-136461D01*
D02*
G37*
G36*
X159307D02*
X157632D01*
Y-138332D01*
X159307D01*
Y-136461D01*
D02*
G37*
G36*
X141482D02*
X139807D01*
Y-138332D01*
X141482D01*
Y-136461D01*
D02*
G37*
G36*
X138807D02*
X137132D01*
Y-138332D01*
X138807D01*
Y-136461D01*
D02*
G37*
G36*
X181539Y-132768D02*
X176390D01*
Y-138311D01*
X176540D01*
Y-139866D01*
X176725Y-140794D01*
X177250Y-141580D01*
X179225Y-143556D01*
X179224Y-143558D01*
Y-144599D01*
X179494Y-145604D01*
X180014Y-146506D01*
X180750Y-147242D01*
X181651Y-147762D01*
X182657Y-148031D01*
X183698D01*
X184703Y-147762D01*
X185604Y-147242D01*
X186340Y-146506D01*
X186861Y-145604D01*
X187130Y-144599D01*
Y-143558D01*
X186861Y-142553D01*
X186340Y-141652D01*
X185604Y-140916D01*
X184703Y-140395D01*
X183698Y-140126D01*
X182657D01*
X182654Y-140127D01*
X181389Y-138862D01*
Y-138311D01*
X181539D01*
Y-132768D01*
D02*
G37*
G36*
X173698Y-140126D02*
X172657D01*
X171651Y-140395D01*
X170750Y-140916D01*
X170014Y-141652D01*
X169494Y-142553D01*
X169224Y-143558D01*
Y-144599D01*
X169494Y-145604D01*
X170014Y-146506D01*
X170750Y-147242D01*
X171651Y-147762D01*
X172657Y-148031D01*
X173698D01*
X174703Y-147762D01*
X175604Y-147242D01*
X176340Y-146506D01*
X176860Y-145604D01*
X177130Y-144599D01*
Y-143558D01*
X176860Y-142553D01*
X176340Y-141652D01*
X175604Y-140916D01*
X174703Y-140395D01*
X173698Y-140126D01*
D02*
G37*
G36*
X163698D02*
X162657D01*
X161652Y-140395D01*
X160750Y-140916D01*
X160014Y-141652D01*
X159494Y-142553D01*
X159224Y-143558D01*
Y-144599D01*
X159494Y-145604D01*
X160014Y-146506D01*
X160750Y-147242D01*
X161652Y-147762D01*
X162657Y-148031D01*
X163698D01*
X164703Y-147762D01*
X165604Y-147242D01*
X166340Y-146506D01*
X166860Y-145604D01*
X167130Y-144599D01*
Y-143558D01*
X166860Y-142553D01*
X166340Y-141652D01*
X165604Y-140916D01*
X164703Y-140395D01*
X163698Y-140126D01*
D02*
G37*
G36*
X153803Y-127228D02*
X148653D01*
Y-132772D01*
X149001D01*
Y-133957D01*
X149185Y-134885D01*
X149711Y-135671D01*
X150697Y-136657D01*
Y-138772D01*
X150800D01*
Y-140887D01*
X150750Y-140916D01*
X150014Y-141652D01*
X149494Y-142553D01*
X149224Y-143558D01*
Y-144599D01*
X149494Y-145604D01*
X150014Y-146506D01*
X150750Y-147242D01*
X151652Y-147762D01*
X152657Y-148031D01*
X153698D01*
X154703Y-147762D01*
X155604Y-147242D01*
X156340Y-146506D01*
X156860Y-145604D01*
X157130Y-144599D01*
Y-143558D01*
X156860Y-142553D01*
X156340Y-141652D01*
X155649Y-140961D01*
Y-138772D01*
X155847D01*
Y-133228D01*
X154126D01*
X153850Y-132952D01*
Y-130197D01*
X153803Y-129963D01*
Y-127228D01*
D02*
G37*
G36*
X143698Y-140126D02*
X142657D01*
X141651Y-140395D01*
X140750Y-140916D01*
X140014Y-141652D01*
X139494Y-142553D01*
X139224Y-143558D01*
Y-144599D01*
X139494Y-145604D01*
X140014Y-146506D01*
X140750Y-147242D01*
X141651Y-147762D01*
X142657Y-148031D01*
X143698D01*
X144703Y-147762D01*
X145604Y-147242D01*
X146340Y-146506D01*
X146861Y-145604D01*
X147130Y-144599D01*
Y-143558D01*
X146861Y-142553D01*
X146340Y-141652D01*
X145604Y-140916D01*
X144703Y-140395D01*
X143698Y-140126D01*
D02*
G37*
G36*
X135346Y-133228D02*
X130197D01*
Y-138772D01*
X131152D01*
Y-140684D01*
X130750Y-140916D01*
X130014Y-141652D01*
X129494Y-142553D01*
X129224Y-143558D01*
Y-144599D01*
X129494Y-145604D01*
X130014Y-146506D01*
X130750Y-147242D01*
X131651Y-147762D01*
X132657Y-148031D01*
X133698D01*
X134703Y-147762D01*
X135604Y-147242D01*
X136340Y-146506D01*
X136861Y-145604D01*
X137130Y-144599D01*
Y-143558D01*
X136861Y-142553D01*
X136340Y-141652D01*
X135604Y-140916D01*
X134797Y-140450D01*
Y-138772D01*
X135346D01*
Y-133228D01*
D02*
G37*
G36*
X18772Y-132653D02*
X13228D01*
Y-135226D01*
X11889Y-136566D01*
X11494Y-137157D01*
X11355Y-137854D01*
X11355Y-137854D01*
Y-140567D01*
X10750Y-140916D01*
X10014Y-141652D01*
X9494Y-142553D01*
X9224Y-143558D01*
Y-144599D01*
X9494Y-145604D01*
X10014Y-146506D01*
X10750Y-147242D01*
X11652Y-147762D01*
X12657Y-148031D01*
X13698D01*
X14703Y-147762D01*
X15604Y-147242D01*
X16340Y-146506D01*
X16861Y-145604D01*
X17130Y-144599D01*
Y-143558D01*
X16861Y-142553D01*
X16340Y-141652D01*
X15604Y-140916D01*
X15000Y-140567D01*
Y-138609D01*
X15806Y-137803D01*
X18772D01*
Y-132653D01*
D02*
G37*
%LPD*%
G36*
X70110Y-28553D02*
Y-30568D01*
X69526D01*
X69515Y-30571D01*
X69508Y-30569D01*
X69506Y-30569D01*
X69500Y-30568D01*
X69499Y-30568D01*
X69498Y-30568D01*
X69471Y-30574D01*
X68908Y-30500D01*
Y-29604D01*
X68774Y-28932D01*
X68940Y-28604D01*
X69074Y-28422D01*
X69092Y-28419D01*
X70110Y-28553D01*
D02*
G37*
G36*
X93140Y-32325D02*
X93170Y-32370D01*
X93458Y-32562D01*
Y-32919D01*
X93257Y-33219D01*
X93068Y-33239D01*
X92697Y-33180D01*
X92330Y-32631D01*
Y-32545D01*
X92564Y-32291D01*
X93140Y-32325D01*
D02*
G37*
G36*
X87092Y-30974D02*
X87242Y-31729D01*
X87670Y-32370D01*
Y-32631D01*
X87242Y-33271D01*
X87092Y-34026D01*
Y-34169D01*
X86102D01*
X85994Y-34045D01*
X85826Y-33898D01*
X85702Y-33712D01*
X85554Y-33544D01*
X85490Y-33447D01*
Y-30941D01*
X85890D01*
Y-30831D01*
X87092D01*
Y-30974D01*
D02*
G37*
D15*
X16000Y-135228D02*
D03*
X15961Y-128693D02*
D03*
X17500Y-42272D02*
D03*
X17539Y-48807D02*
D03*
X51000Y-15228D02*
D03*
X50961Y-8693D02*
D03*
X11500Y-35756D02*
D03*
Y-30244D02*
D03*
X17500Y-36228D02*
D03*
X17461Y-29693D02*
D03*
D16*
X103500Y-63500D02*
D03*
X105727Y-65727D02*
D03*
X107954Y-67954D02*
D03*
X110181Y-70181D02*
D03*
X112408Y-72408D02*
D03*
X114636Y-74635D02*
D03*
X116863Y-76863D02*
D03*
X119090Y-79090D02*
D03*
X121317Y-81317D02*
D03*
X123544Y-83544D02*
D03*
X92086Y-115002D02*
D03*
X89859Y-112775D02*
D03*
X87632Y-110548D02*
D03*
X85405Y-108321D02*
D03*
X83178Y-106093D02*
D03*
X80950Y-103866D02*
D03*
X78723Y-101639D02*
D03*
X76496Y-99412D02*
D03*
X74269Y-97185D02*
D03*
X72042Y-94958D02*
D03*
X69815Y-92731D02*
D03*
X101273Y-61273D02*
D03*
D17*
X123544Y-92731D02*
D03*
X121317Y-94958D02*
D03*
X119090Y-97185D02*
D03*
X116863Y-99412D02*
D03*
X114636Y-101639D02*
D03*
X112408Y-103866D02*
D03*
X110181Y-106093D02*
D03*
X107954Y-108321D02*
D03*
X105727Y-110548D02*
D03*
X103500Y-112775D02*
D03*
X101273Y-115002D02*
D03*
X69815Y-83544D02*
D03*
X72042Y-81317D02*
D03*
X74269Y-79090D02*
D03*
X76496Y-76863D02*
D03*
X78723Y-74635D02*
D03*
X80950Y-72408D02*
D03*
X83178Y-70181D02*
D03*
X85405Y-67954D02*
D03*
X87632Y-65727D02*
D03*
X89859Y-63500D02*
D03*
X92086Y-61273D02*
D03*
D18*
X144693Y-130039D02*
D03*
X151228Y-130000D02*
D03*
X185500Y-135500D02*
D03*
X178965Y-135539D02*
D03*
X132772Y-136000D02*
D03*
X139307Y-135961D02*
D03*
X159807D02*
D03*
X153272Y-136000D02*
D03*
X75272Y-44500D02*
D03*
X81807Y-44461D02*
D03*
X77228Y0D02*
D03*
X70693Y-39D02*
D03*
X52272Y-22000D02*
D03*
X58807Y-21961D02*
D03*
D19*
X69548Y-114730D02*
D03*
X64899Y-110136D02*
D03*
X137366Y-74311D02*
D03*
X132717Y-69717D02*
D03*
X127217Y-74717D02*
D03*
X131866Y-79311D02*
D03*
X69217Y-105217D02*
D03*
X73866Y-109811D02*
D03*
D20*
X115189Y-121366D02*
D03*
X119783Y-116717D02*
D03*
X115783Y-112717D02*
D03*
X111189Y-117366D02*
D03*
D21*
X68500Y-6000D02*
D03*
Y-9740D02*
D03*
Y-13480D02*
D03*
X78342D02*
D03*
Y-6000D02*
D03*
D22*
X43740Y-7079D02*
D03*
X40000D02*
D03*
X36260D02*
D03*
Y-16921D02*
D03*
X43740D02*
D03*
D23*
X50221Y-46957D02*
D03*
Y-44398D02*
D03*
Y-41839D02*
D03*
Y-39279D02*
D03*
Y-36720D02*
D03*
Y-34161D02*
D03*
Y-31602D02*
D03*
Y-29043D02*
D03*
X27779Y-46957D02*
D03*
Y-44398D02*
D03*
Y-41839D02*
D03*
Y-39279D02*
D03*
Y-36720D02*
D03*
Y-34161D02*
D03*
Y-31602D02*
D03*
Y-29043D02*
D03*
D24*
X66000Y-30539D02*
D03*
Y-35461D02*
D03*
X90000Y-34961D02*
D03*
Y-30039D02*
D03*
X95500D02*
D03*
Y-34961D02*
D03*
X60000Y-35421D02*
D03*
Y-30500D02*
D03*
D25*
X82724Y-36240D02*
D03*
Y-32500D02*
D03*
Y-28760D02*
D03*
X73276D02*
D03*
Y-36240D02*
D03*
D43*
X111652Y-19620D02*
G03*
X111000Y-22121I4469J-2501D01*
G01*
X112232Y-18789D02*
G03*
X111652Y-19620I3889J-3332D01*
G01*
X112232Y-18789D02*
G03*
X112500Y-17574I-2626J1215D01*
G01*
X111652Y-19620D02*
G03*
X112232Y-18789I-2046J2046D01*
G01*
X108071Y-58929D02*
G03*
X111000Y-51858I-7071J7071D01*
G01*
X90000Y-59187D02*
G03*
X92086Y-61273I2086J0D01*
G01*
X158571Y4071D02*
G03*
X161500Y11142I-7071J7071D01*
G01*
X163000Y31500D02*
G03*
X161586Y34914I-4829J0D01*
G01*
X161500Y30858D02*
G03*
X160339Y33661I-3965J-0D01*
G01*
X142500Y58142D02*
G03*
X145429Y51071I10000J0D01*
G01*
X137129Y57115D02*
G03*
X138020Y55980I5159J3133D01*
G01*
X136252Y60248D02*
G03*
X137129Y57115I6036J0D01*
G01*
X142500Y124858D02*
G03*
X139571Y131929I-10000J0D01*
G01*
X27193Y-36720D02*
G03*
X20122Y-39649I0J-10000D01*
G01*
X47827Y-15228D02*
G03*
X43740Y-16921I0J-5780D01*
G01*
X54480Y-4480D02*
G03*
X46164Y-1035I-8310J-8300D01*
G01*
X39959Y541D02*
G03*
X43764Y-1035I3805J3805D01*
G01*
X87465Y-8500D02*
G03*
X80394Y-11429I0J-10000D01*
G01*
X57000Y-7000D02*
G03*
X63615Y-9740I6615J6615D01*
G01*
X40000Y-2000D02*
G03*
X38232Y2268I-6036J0D01*
G01*
X35919Y34915D02*
G03*
X33500Y29088I5791J-5819D01*
G01*
Y11849D02*
G03*
X36929Y3571I11707J-0D01*
G01*
X73709Y-32000D02*
G03*
X77620Y-30380I0J5531D01*
G01*
X77623Y-30376D02*
G03*
X77620Y-30380I3908J-3915D01*
G01*
X81531Y-28760D02*
G03*
X77623Y-30376I0J-5531D01*
G01*
X69500Y-32000D02*
G03*
X69526Y-32000I26J4987D01*
G01*
X67498Y-31569D02*
G03*
X69500Y-32000I2028J4556D01*
G01*
X66002Y-30542D02*
G03*
X67498Y-31569I3524J3529D01*
G01*
X66000Y-30539D02*
G03*
X66002Y-30542I3526J3526D01*
G01*
X73276Y-28760D02*
G03*
X69027Y-27000I-4249J-4249D01*
G01*
X65500D02*
G03*
X62088Y-28412I0J-4828D01*
G01*
X60000Y-30500D02*
G03*
X57439Y-31561I0J-3621D01*
G01*
X62088Y-28412D02*
G03*
X62086Y-28414I3412J-3416D01*
G01*
X53056Y-34161D02*
G03*
X56099Y-32901I0J4304D01*
G01*
X34708Y-40292D02*
G03*
X34711Y-40289I-3737J3743D01*
G01*
X30970Y-41839D02*
G03*
X34708Y-40292I0J5289D01*
G01*
X34714Y-40286D02*
G03*
X36260Y-36549I-3743J3737D01*
G01*
X34711Y-40289D02*
G03*
X34714Y-40286I-3740J3740D01*
G01*
X87465Y-8500D02*
X112500D01*
Y-17574D02*
Y-8500D01*
X111000Y-51858D02*
Y-22121D01*
X25000Y-125902D02*
Y-56000D01*
Y-125902D02*
X43177Y-144079D01*
X25000Y-56000D02*
X34043Y-46957D01*
X23500Y-52500D02*
X27000Y-49000D01*
X23500Y-134402D02*
X33177Y-144079D01*
X23500Y-134402D02*
Y-52500D01*
X22000Y-47520D02*
X25122Y-44398D01*
X22000Y-141057D02*
X22200Y-141258D01*
Y-143102D02*
X23177Y-144079D01*
X22200Y-143102D02*
Y-141258D01*
X22000Y-141057D02*
Y-47520D01*
X27000Y-47150D02*
X27193Y-46957D01*
X27000Y-49000D02*
Y-47150D01*
X34043Y-46957D02*
X50221D01*
X25122Y-44398D02*
X27779D01*
X71000Y-44500D02*
X75272D01*
X66000Y-40500D02*
Y-35461D01*
X58004Y-22961D02*
X59307D01*
X59268Y-21500D02*
X63500D01*
X58807Y-21961D02*
X59268Y-21500D01*
X77228Y0D02*
X81500D01*
X78342Y-6000D02*
Y-1114D01*
X77228Y0D02*
X78342Y-1114D01*
X103500Y-63500D02*
X108071Y-58929D01*
X90000Y-59187D02*
Y-34961D01*
X161500Y30858D02*
Y30858D01*
Y11142D02*
Y30858D01*
X153000Y-1500D02*
X158571Y4071D01*
X163000Y-11500D02*
Y31500D01*
X145429Y51071D02*
X161586Y34914D01*
X138020Y55980D02*
X160339Y33661D01*
X142500Y58142D02*
Y124858D01*
X136252Y135248D02*
X139571Y131929D01*
X27193Y-36720D02*
X27779D01*
X17500Y-42272D02*
X20122Y-39649D01*
X47827Y-15228D02*
X51000D01*
X43764Y-1035D02*
X46164D01*
X54480Y-4480D02*
X54480Y-4480D01*
X57000Y-7000D01*
X46164Y-1035D02*
Y-1035D01*
X78342Y-13480D02*
X80394Y-11429D01*
X63615Y-9740D02*
X68500D01*
X36929Y3571D02*
X38232Y2268D01*
X39000Y1500D02*
X39959Y541D01*
X57632Y-23536D02*
Y-23333D01*
X54466Y-29701D02*
Y-26702D01*
X57632Y-23333D02*
X58004Y-22961D01*
X54466Y-26702D02*
X57632Y-23536D01*
X53167Y-31001D02*
X54466Y-29701D01*
X52721Y-31602D02*
X53167Y-31156D01*
Y-31001D01*
X50221Y-31602D02*
X52721D01*
X35919Y34915D02*
X61252Y60248D01*
X33500Y11849D02*
Y29084D01*
X33500Y29088D02*
X33500Y29084D01*
X11000Y-29744D02*
X11561Y-29183D01*
X14000Y-25500D02*
X20500D01*
X11561Y-29183D02*
Y-27939D01*
X14000Y-25500D01*
X81531Y-28760D02*
X82724D01*
X69526Y-32000D02*
X73709D01*
X65500Y-27000D02*
X69027D01*
X60000Y-30500D02*
X62086Y-28414D01*
X56099Y-32901D02*
X57439Y-31561D01*
X50221Y-34161D02*
X53056D01*
X27779Y-41839D02*
X30970D01*
X36260Y-36549D02*
Y-16921D01*
X40000Y-7079D02*
Y-2000D01*
X90000Y-30039D02*
X95500D01*
X89360Y-35600D02*
X90000Y-34961D01*
X82724Y-36240D02*
X83364Y-35600D01*
X89360D01*
X83364Y-29400D02*
X89360D01*
X90000Y-30039D01*
X82724Y-28760D02*
X83364Y-29400D01*
X66390Y-35850D02*
X72886D01*
X66000Y-35461D02*
X66390Y-35850D01*
X72886D02*
X73276Y-36240D01*
X50221Y-25748D02*
X52772Y-23197D01*
X50221Y-29043D02*
Y-25748D01*
X52772Y-23197D02*
Y-23000D01*
X20500Y-25500D02*
X23933Y-28933D01*
X27669D02*
X27779Y-29043D01*
X23933Y-28933D02*
X27669D01*
X17461Y-29693D02*
X17653Y-29500D01*
X21500D01*
X23602Y-31602D01*
X27779D01*
X18636Y-30868D02*
X20368D01*
X17461Y-29693D02*
X18636Y-30868D01*
X23661Y-34161D02*
X27779D01*
X20368Y-30868D02*
X23661Y-34161D01*
X94971Y-34431D02*
X95500Y-34961D01*
D44*
X126723Y-75911D02*
D03*
D45*
X126723Y-75911D02*
G03*
X127217Y-74717I-1194J1193D01*
G01*
X109924Y-110291D02*
G03*
X115783Y-112717I5859J5859D01*
G01*
X13177Y-137854D02*
X15803Y-135228D01*
X13177Y-144079D02*
Y-137854D01*
X15803Y-135228D02*
X16000D01*
X132974Y-143876D02*
Y-136203D01*
Y-143876D02*
X133177Y-144079D01*
X132772Y-136000D02*
X132974Y-136203D01*
X113311Y-109063D02*
X118563D01*
X125425Y-115925D01*
X110341Y-106093D02*
X113311Y-109063D01*
X112568Y-103866D02*
X115691Y-106989D01*
X119489D01*
X127500Y-115000D01*
X126723Y-75911D02*
X126723Y-75911D01*
X121317Y-81317D02*
X126723Y-75911D01*
X127467Y-74717D02*
X132467Y-69717D01*
X132717D01*
X127217Y-74717D02*
X127467D01*
X115783Y-112717D02*
X119783Y-116717D01*
X113177Y-144079D02*
X118564Y-138692D01*
Y-131179D01*
X123177Y-129500D02*
X127500Y-125177D01*
X123177Y-144079D02*
Y-129500D01*
X118564Y-131179D02*
X125425Y-124318D01*
Y-115925D01*
X127500Y-125177D02*
Y-115000D01*
X64899Y-109836D02*
X69217Y-105518D01*
X64899Y-110136D02*
Y-109836D01*
X69217Y-105518D02*
Y-105217D01*
X106500Y-121000D02*
X107000Y-121500D01*
X106500Y-121000D02*
Y-115935D01*
X103500Y-112935D02*
X106500Y-115935D01*
X103500Y-112935D02*
Y-112775D01*
X32000Y-110500D02*
X47500D01*
X74500Y-88000D02*
X78000Y-84500D01*
X70000Y-88000D02*
X74500D01*
X47500Y-110500D02*
X70000Y-88000D01*
X74269Y-79250D02*
X78000Y-82980D01*
Y-84500D02*
Y-82980D01*
X74269Y-79250D02*
Y-79090D01*
X69156Y-79533D02*
X70259D01*
X32000Y-80500D02*
X51065D01*
X70259Y-79533D02*
X72042Y-81317D01*
X69126Y-79504D02*
X69156Y-79533D01*
X52062Y-79504D02*
X69126D01*
X51065Y-80500D02*
X52062Y-79504D01*
X32000Y-90500D02*
X62859D01*
X69815Y-83544D01*
X132088Y-79311D02*
X134778Y-82000D01*
X131866Y-79311D02*
X132088D01*
X134778Y-82000D02*
X135000D01*
X112408Y-103866D02*
X112568D01*
X110181Y-106093D02*
X110341D01*
X101273Y-115002D02*
X103056Y-116785D01*
Y-143958D02*
Y-116785D01*
Y-143958D02*
X103177Y-144079D01*
X90416Y-140145D02*
Y-116672D01*
Y-140145D02*
X93177Y-142907D01*
X90416Y-116672D02*
X92086Y-115002D01*
X93177Y-144079D02*
Y-142907D01*
X83177Y-119457D02*
X89859Y-112775D01*
X83177Y-144079D02*
Y-119457D01*
X73177Y-125002D02*
X87632Y-110548D01*
X73177Y-144079D02*
Y-125002D01*
X63177Y-144079D02*
Y-130548D01*
X85405Y-108321D01*
X111050Y-117227D02*
X111189Y-117366D01*
X105727Y-110548D02*
X111050Y-115871D01*
Y-117227D02*
Y-115871D01*
X76789Y-106888D02*
X77770D01*
X80791Y-103866D02*
X80950D01*
X77770Y-106888D02*
X80791Y-103866D01*
X73866Y-109811D02*
X76789Y-106888D01*
X72390Y-103518D02*
X75605Y-100304D01*
X70331Y-105217D02*
X72030Y-103518D01*
X72390D01*
X69217Y-105217D02*
X70331D01*
X107954Y-108321D02*
X109924Y-110291D01*
D46*
X153224Y-144032D02*
Y-135756D01*
X151425Y-133957D02*
Y-130197D01*
Y-133957D02*
X153224Y-135756D01*
X151228Y-130000D02*
X151425Y-130197D01*
X153177Y-144079D02*
X153224Y-144032D01*
X178965Y-139866D02*
X183177Y-144079D01*
X178965Y-139866D02*
Y-135539D01*
D47*
X32000Y-120500D02*
D03*
D48*
Y-110500D02*
D03*
Y-100500D02*
D03*
Y-90500D02*
D03*
Y-80500D02*
D03*
Y-70500D02*
D03*
X13177Y223874D02*
D03*
Y213874D02*
D03*
X23177Y223874D02*
D03*
Y213874D02*
D03*
X33177Y223874D02*
D03*
Y213874D02*
D03*
X43177Y223874D02*
D03*
Y213874D02*
D03*
X53177Y223874D02*
D03*
Y213874D02*
D03*
X63177Y223874D02*
D03*
Y213874D02*
D03*
X73177Y223874D02*
D03*
Y213874D02*
D03*
X83177Y223874D02*
D03*
Y213874D02*
D03*
X93177Y223874D02*
D03*
Y213874D02*
D03*
X103177Y223874D02*
D03*
Y213874D02*
D03*
X113177Y223874D02*
D03*
Y213874D02*
D03*
X123177Y223874D02*
D03*
Y213874D02*
D03*
X133177Y223874D02*
D03*
Y213874D02*
D03*
X143177Y223874D02*
D03*
Y213874D02*
D03*
X153177Y223874D02*
D03*
Y213874D02*
D03*
X163177Y223874D02*
D03*
Y213874D02*
D03*
X173177Y223874D02*
D03*
Y213874D02*
D03*
X183177Y223874D02*
D03*
X13177Y-144079D02*
D03*
Y-154079D02*
D03*
X23177Y-144079D02*
D03*
Y-154079D02*
D03*
X33177Y-144079D02*
D03*
Y-154079D02*
D03*
X43177Y-144079D02*
D03*
Y-154079D02*
D03*
X53177Y-144079D02*
D03*
Y-154079D02*
D03*
X63177Y-144079D02*
D03*
Y-154079D02*
D03*
X73177Y-144079D02*
D03*
Y-154079D02*
D03*
X83177Y-144079D02*
D03*
Y-154079D02*
D03*
X93177Y-144079D02*
D03*
Y-154079D02*
D03*
X103177Y-144079D02*
D03*
Y-154079D02*
D03*
X113177Y-144079D02*
D03*
Y-154079D02*
D03*
X123177Y-144079D02*
D03*
Y-154079D02*
D03*
X133177Y-144079D02*
D03*
Y-154079D02*
D03*
X143177Y-144079D02*
D03*
Y-154079D02*
D03*
X153177Y-144079D02*
D03*
Y-154079D02*
D03*
X163177Y-144079D02*
D03*
Y-154079D02*
D03*
X173177Y-144079D02*
D03*
Y-154079D02*
D03*
X183177Y-144079D02*
D03*
D49*
X163000Y-11500D02*
D03*
X153000Y-1500D02*
D03*
X143000Y-11500D02*
D03*
D50*
X107500Y-13500D02*
D03*
Y-3500D02*
D03*
X117500D02*
D03*
Y-13500D02*
D03*
X112500Y-8500D02*
D03*
D51*
X61252Y60248D02*
D03*
X98752D02*
D03*
X136252D02*
D03*
Y135248D02*
D03*
X61252D02*
D03*
D52*
X183177Y213874D02*
D03*
Y-154079D02*
D03*
D53*
X101452Y-5844D02*
D03*
X98089D02*
D03*
X94727D02*
D03*
X91365D02*
D03*
X88003D02*
D03*
X84659Y-6192D02*
D03*
X78777Y-9319D02*
D03*
X75524Y-10166D02*
D03*
X74511Y-16303D02*
D03*
X77823Y-16885D02*
D03*
X81183Y-16790D02*
D03*
X82929Y-13916D02*
D03*
X85275Y-11508D02*
D03*
X88619Y-11156D02*
D03*
X91981D02*
D03*
X95343D02*
D03*
X98705D02*
D03*
X102068D02*
D03*
X109367Y-18276D02*
D03*
X108392Y-21493D02*
D03*
X108344Y-24855D02*
D03*
Y-28218D02*
D03*
Y-31580D02*
D03*
Y-34942D02*
D03*
Y-38304D02*
D03*
Y-41666D02*
D03*
Y-45028D02*
D03*
Y-48391D02*
D03*
Y-51753D02*
D03*
X107610Y-55034D02*
D03*
X105551Y-57692D02*
D03*
X109993Y-60742D02*
D03*
X112010Y-58052D02*
D03*
X113246Y-54925D02*
D03*
X113656Y-51588D02*
D03*
Y-48226D02*
D03*
Y-44864D02*
D03*
Y-41501D02*
D03*
Y-38139D02*
D03*
Y-34777D02*
D03*
Y-31415D02*
D03*
Y-28052D02*
D03*
Y-24690D02*
D03*
X113799Y-21331D02*
D03*
X115085Y-18225D02*
D03*
X117469Y-8549D02*
D03*
X78335Y-37307D02*
D03*
X80751Y-39645D02*
D03*
X84113D02*
D03*
X87344Y-38713D02*
D03*
Y-42075D02*
D03*
Y-45437D02*
D03*
Y-48800D02*
D03*
Y-52162D02*
D03*
Y-55524D02*
D03*
X87188Y-58883D02*
D03*
X96487Y-64809D02*
D03*
X96695Y-61453D02*
D03*
X94460Y-58941D02*
D03*
X92656Y-56104D02*
D03*
Y-52741D02*
D03*
Y-49379D02*
D03*
Y-46017D02*
D03*
Y-42655D02*
D03*
Y-39293D02*
D03*
X58333Y64516D02*
D03*
X56325Y61820D02*
D03*
X55754Y58506D02*
D03*
X53376Y56129D02*
D03*
X50999Y53751D02*
D03*
X48621Y51374D02*
D03*
X46244Y48997D02*
D03*
X43867Y46619D02*
D03*
X41489Y44242D02*
D03*
X39112Y41864D02*
D03*
X36734Y39487D02*
D03*
X34357Y37109D02*
D03*
X32291Y34456D02*
D03*
X31086Y31318D02*
D03*
X30844Y27964D02*
D03*
Y24602D02*
D03*
Y21240D02*
D03*
Y17878D02*
D03*
Y14515D02*
D03*
X30887Y11153D02*
D03*
X31433Y7836D02*
D03*
X32754Y4744D02*
D03*
X34744Y2034D02*
D03*
X36975Y-482D02*
D03*
X40099Y-11665D02*
D03*
X46503Y-3691D02*
D03*
X49812Y-4288D02*
D03*
X52522Y-6278D02*
D03*
X54899Y-8656D02*
D03*
X57549Y-10725D02*
D03*
X60658Y-12005D02*
D03*
X63997Y-12397D02*
D03*
X73086Y-10841D02*
D03*
X72773Y-7494D02*
D03*
X62967Y-7035D02*
D03*
X59802Y-5899D02*
D03*
X57353Y-3596D02*
D03*
X54912Y-1283D02*
D03*
X52056Y490D02*
D03*
X48833Y1448D02*
D03*
X45475Y1622D02*
D03*
X42157Y2166D02*
D03*
X39747Y4510D02*
D03*
X37550Y7055D02*
D03*
X36317Y10183D02*
D03*
X36156Y13541D02*
D03*
Y16904D02*
D03*
Y20266D02*
D03*
Y23628D02*
D03*
Y26990D02*
D03*
X36305Y30349D02*
D03*
X38008Y33248D02*
D03*
X40386Y35625D02*
D03*
X42763Y38003D02*
D03*
X45141Y40380D02*
D03*
X47518Y42757D02*
D03*
X49896Y45135D02*
D03*
X52273Y47512D02*
D03*
X54650Y49890D02*
D03*
X57028Y52267D02*
D03*
X59405Y54645D02*
D03*
X62704Y55297D02*
D03*
X65449Y57237D02*
D03*
X66416Y60458D02*
D03*
X65195Y63590D02*
D03*
X62309Y65316D02*
D03*
X60448Y-26312D02*
D03*
X57165Y-27035D02*
D03*
X44901Y-35270D02*
D03*
X75563Y-25379D02*
D03*
X72225Y-24979D02*
D03*
X68923Y-24344D02*
D03*
X65561D02*
D03*
X81604Y-25355D02*
D03*
X78523Y-26701D02*
D03*
X78905Y-32754D02*
D03*
X99612Y-30416D02*
D03*
X98895Y-27131D02*
D03*
X95756Y-25927D02*
D03*
X92417Y-26326D02*
D03*
X89079Y-25927D02*
D03*
X85741Y-25524D02*
D03*
X33249Y-13371D02*
D03*
X32855Y-16710D02*
D03*
X33011Y-20069D02*
D03*
X33604Y-23379D02*
D03*
Y-26741D02*
D03*
Y-30103D02*
D03*
Y-33465D02*
D03*
X33572Y-36827D02*
D03*
X22239Y-41751D02*
D03*
X34072Y-43829D02*
D03*
X36832Y-41909D02*
D03*
X38520Y-39001D02*
D03*
X38916Y-35662D02*
D03*
Y-32300D02*
D03*
Y-28938D02*
D03*
Y-25576D02*
D03*
Y-22214D02*
D03*
X39665Y-18936D02*
D03*
Y-15574D02*
D03*
D54*
X183319Y154949D02*
D03*
X178398Y145106D02*
D03*
X183319Y135264D02*
D03*
X178398Y125421D02*
D03*
X183319Y115579D02*
D03*
X178398Y105736D02*
D03*
X183319Y95894D02*
D03*
X178398Y86051D02*
D03*
X183319Y76209D02*
D03*
X178398Y66366D02*
D03*
X183319Y56524D02*
D03*
X178398Y46681D02*
D03*
X183319Y36839D02*
D03*
X168555Y164791D02*
D03*
X173476Y154949D02*
D03*
Y135264D02*
D03*
Y115579D02*
D03*
Y95894D02*
D03*
Y76209D02*
D03*
Y56524D02*
D03*
Y36839D02*
D03*
X158713Y184476D02*
D03*
X163634Y174634D02*
D03*
X158713Y-32059D02*
D03*
Y-51744D02*
D03*
Y-71429D02*
D03*
Y-91114D02*
D03*
Y-110799D02*
D03*
X148870Y184476D02*
D03*
X153791Y174634D02*
D03*
Y17154D02*
D03*
X148870Y-12374D02*
D03*
X153791Y-22217D02*
D03*
X148870Y-32059D02*
D03*
X153791Y-41902D02*
D03*
X148870Y-51744D02*
D03*
X153791Y-61587D02*
D03*
X148870Y-71429D02*
D03*
X153791Y-81272D02*
D03*
X148870Y-91114D02*
D03*
X153791Y-100957D02*
D03*
X148870Y-110799D02*
D03*
X153791Y-120642D02*
D03*
X139028Y184476D02*
D03*
X143949Y174634D02*
D03*
X139028Y145106D02*
D03*
X143949Y135264D02*
D03*
Y17154D02*
D03*
Y-2531D02*
D03*
Y-22217D02*
D03*
X139028Y-32059D02*
D03*
X143949Y-41902D02*
D03*
X139028Y-51744D02*
D03*
X143949Y-61587D02*
D03*
Y-81272D02*
D03*
X139028Y-91114D02*
D03*
X143949Y-100957D02*
D03*
X139028Y-110799D02*
D03*
X143949Y-120642D02*
D03*
X129185Y184476D02*
D03*
X134106Y174634D02*
D03*
X129185Y145106D02*
D03*
Y125421D02*
D03*
X134106Y115579D02*
D03*
X129185Y105736D02*
D03*
X134106Y95894D02*
D03*
X129185Y66366D02*
D03*
X134106Y17154D02*
D03*
Y-2531D02*
D03*
X129185Y-12374D02*
D03*
X134106Y-22217D02*
D03*
X129185Y-32059D02*
D03*
X134106Y-41902D02*
D03*
X129185Y-51744D02*
D03*
X134106Y-61587D02*
D03*
X129185Y-91114D02*
D03*
X134106Y-100957D02*
D03*
Y-120642D02*
D03*
X129185Y-130484D02*
D03*
X119343Y184476D02*
D03*
X124264Y174634D02*
D03*
X119343Y145106D02*
D03*
X124264Y135264D02*
D03*
X119343Y125421D02*
D03*
X124264Y115579D02*
D03*
X119343Y105736D02*
D03*
Y86051D02*
D03*
X124264Y76209D02*
D03*
X119343Y66366D02*
D03*
X124264Y56524D02*
D03*
Y17154D02*
D03*
Y-2531D02*
D03*
Y-22217D02*
D03*
X119343Y-32059D02*
D03*
X124264Y-41902D02*
D03*
X119343Y-51744D02*
D03*
X124264Y-61587D02*
D03*
X109500Y184476D02*
D03*
X114421Y174634D02*
D03*
X109500Y145106D02*
D03*
X114421Y135264D02*
D03*
X109500Y125421D02*
D03*
X114421Y115579D02*
D03*
X109500Y86051D02*
D03*
X114421Y76209D02*
D03*
X109500Y66366D02*
D03*
X114421Y56524D02*
D03*
Y17154D02*
D03*
X109500Y-91114D02*
D03*
X99657Y184476D02*
D03*
X104579Y174634D02*
D03*
X99657Y145106D02*
D03*
X104579Y135264D02*
D03*
X99657Y125421D02*
D03*
Y105736D02*
D03*
X104579Y95894D02*
D03*
X99657Y86051D02*
D03*
X104579Y76209D02*
D03*
Y56524D02*
D03*
Y17154D02*
D03*
X99657Y-51744D02*
D03*
Y-71429D02*
D03*
X104579Y-81272D02*
D03*
X99657Y-91114D02*
D03*
X104579Y-100957D02*
D03*
X89815Y184476D02*
D03*
X94736Y174634D02*
D03*
X89815Y145106D02*
D03*
X94736Y135264D02*
D03*
X89815Y105736D02*
D03*
X94736Y95894D02*
D03*
X89815Y86051D02*
D03*
X94736Y76209D02*
D03*
X89815Y66366D02*
D03*
X94736Y17154D02*
D03*
Y-81272D02*
D03*
X89815Y-91114D02*
D03*
X94736Y-100957D02*
D03*
X79972Y184476D02*
D03*
X84894Y174634D02*
D03*
X79972Y145106D02*
D03*
Y125421D02*
D03*
X84894Y115579D02*
D03*
X79972Y105736D02*
D03*
X84894Y95894D02*
D03*
X79972Y86051D02*
D03*
X84894Y76209D02*
D03*
X79972Y66366D02*
D03*
X84894Y56524D02*
D03*
Y17154D02*
D03*
Y-81272D02*
D03*
X79972Y-91114D02*
D03*
X70130Y184476D02*
D03*
X75051Y174634D02*
D03*
X70130Y145106D02*
D03*
X75051Y115579D02*
D03*
X70130Y105736D02*
D03*
X75051Y95894D02*
D03*
X70130Y86051D02*
D03*
X75051Y76209D02*
D03*
X70130Y66366D02*
D03*
X75051Y56524D02*
D03*
Y17154D02*
D03*
X70130Y-51744D02*
D03*
X75051Y-61587D02*
D03*
X70130Y-71429D02*
D03*
X60287Y184476D02*
D03*
X65209Y174634D02*
D03*
X60287Y145106D02*
D03*
Y125421D02*
D03*
X65209Y115579D02*
D03*
X60287Y105736D02*
D03*
X65209Y95894D02*
D03*
X60287Y86051D02*
D03*
X65209Y76209D02*
D03*
Y17154D02*
D03*
X60287Y-51744D02*
D03*
X65209Y-61587D02*
D03*
X60287Y-71429D02*
D03*
X65209Y-100957D02*
D03*
X50445Y184476D02*
D03*
X55366Y174634D02*
D03*
X50445Y125421D02*
D03*
X55366Y115579D02*
D03*
X50445Y105736D02*
D03*
X55366Y95894D02*
D03*
X50445Y86051D02*
D03*
X55366Y76209D02*
D03*
Y17154D02*
D03*
X50445Y-51744D02*
D03*
X55366Y-61587D02*
D03*
X50445Y-71429D02*
D03*
Y-130484D02*
D03*
X40602Y184476D02*
D03*
X45524Y174634D02*
D03*
Y17154D02*
D03*
X40602Y-51744D02*
D03*
X45524Y-61587D02*
D03*
X40602Y-71429D02*
D03*
X45524Y-120642D02*
D03*
X40602Y-130484D02*
D03*
X30760Y184476D02*
D03*
X35681Y174634D02*
D03*
Y-61587D02*
D03*
X25839Y154949D02*
D03*
X20917Y145106D02*
D03*
X25839Y135264D02*
D03*
X20917Y125421D02*
D03*
X25839Y115579D02*
D03*
X20917Y105736D02*
D03*
X25839Y95894D02*
D03*
X20917Y86051D02*
D03*
X25839Y76209D02*
D03*
X20917Y66366D02*
D03*
X25839Y56524D02*
D03*
X20917Y46681D02*
D03*
X25839Y36839D02*
D03*
Y-2531D02*
D03*
X20917Y-12374D02*
D03*
X25839Y-22217D02*
D03*
X11075Y164791D02*
D03*
X15996Y154949D02*
D03*
X11075Y145106D02*
D03*
X15996Y135264D02*
D03*
X11075Y125421D02*
D03*
X15996Y115579D02*
D03*
X11075Y105736D02*
D03*
X15996Y95894D02*
D03*
X11075Y86051D02*
D03*
X15996Y76209D02*
D03*
X11075Y66366D02*
D03*
X15996Y56524D02*
D03*
X11075Y46681D02*
D03*
X15996Y36839D02*
D03*
Y-2531D02*
D03*
X11075Y-12374D02*
D03*
X15996Y-61587D02*
D03*
X11075Y-71429D02*
D03*
X15996Y-81272D02*
D03*
X11075Y-91114D02*
D03*
X15996Y-100957D02*
D03*
X11075Y-110799D02*
D03*
X15996Y-120642D02*
D03*
D55*
X21500Y-38000D02*
D03*
X71000Y-44500D02*
D03*
X66000Y-40500D02*
D03*
X63500Y-21500D02*
D03*
X47000Y-15500D02*
D03*
X81500Y0D02*
D03*
X71000Y4500D02*
D03*
X66000Y-500D02*
D03*
X47000Y-11000D02*
D03*
X32000Y-8000D02*
D03*
Y-3000D02*
D03*
X44500Y-44000D02*
D03*
Y-40000D02*
D03*
X56000Y-36500D02*
D03*
X56500Y-40000D02*
D03*
Y-43500D02*
D03*
X9000Y-40500D02*
D03*
X13000Y-40000D02*
D03*
X17500Y-54000D02*
D03*
X12000Y-49500D02*
D03*
X99500Y-37000D02*
D03*
X82000Y-49000D02*
D03*
X129500Y-83000D02*
D03*
X111000Y-123500D02*
D03*
X76500Y-112500D02*
D03*
X107000Y-121500D02*
D03*
X135000Y-82000D02*
D03*
X124500Y-77500D02*
D03*
X72210Y-103518D02*
D03*
X76789Y-106888D02*
D03*
X109500Y-114500D02*
D03*
X112000Y-111500D02*
D03*
M02*
