G04*
G04 #@! TF.GenerationSoftware,Altium Limited,Altium Designer,22.4.2 (48)*
G04*
G04 Layer_Color=65535*
%FSLAX25Y25*%
%MOIN*%
G70*
G04*
G04 #@! TF.SameCoordinates,153A9C53-5A63-4743-AA9A-0FD6701F73E5*
G04*
G04*
G04 #@! TF.FilePolarity,Positive*
G04*
G01*
G75*
%ADD10C,0.02362*%
%ADD11C,0.00984*%
%ADD12C,0.00787*%
%ADD13C,0.01000*%
%ADD14C,0.00591*%
G36*
X179713Y-130000D02*
X169421D01*
D01*
X155689D01*
Y-20830D01*
X169421D01*
D01*
X179713D01*
Y-130000D01*
D02*
G37*
G36*
X190312Y-130000D02*
X179713D01*
Y-79205D01*
X179713D01*
Y-76386D01*
X179728Y-76659D01*
X179757Y-76924D01*
X179794Y-77168D01*
X179824Y-77279D01*
X179846Y-77389D01*
X179868Y-77485D01*
X179897Y-77566D01*
X179920Y-77648D01*
X179934Y-77707D01*
X179956Y-77766D01*
X179964Y-77802D01*
X179979Y-77825D01*
Y-77832D01*
X180089Y-78098D01*
X180215Y-78349D01*
X180348Y-78577D01*
X180414Y-78688D01*
X180473Y-78784D01*
X180532Y-78873D01*
X180591Y-78954D01*
X180635Y-79028D01*
X180680Y-79087D01*
X180717Y-79138D01*
X180746Y-79175D01*
X180761Y-79197D01*
X180768Y-79205D01*
X179819D01*
X186753D01*
X183300D01*
Y-76319D01*
X182495D01*
Y-78319D01*
X181218D01*
X181123Y-78201D01*
X181041Y-78068D01*
X180960Y-77928D01*
X180886Y-77788D01*
X180827Y-77662D01*
X180798Y-77611D01*
X180776Y-77566D01*
X180761Y-77522D01*
X180746Y-77493D01*
X180739Y-77478D01*
Y-77470D01*
X180665Y-77264D01*
X180613Y-77057D01*
X180569Y-76865D01*
X180547Y-76696D01*
X180540Y-76614D01*
X180532Y-76548D01*
X180525Y-76489D01*
Y-76437D01*
X180517Y-76393D01*
Y-76334D01*
X180532Y-76083D01*
X180562Y-75847D01*
X180613Y-75633D01*
X180635Y-75529D01*
X180665Y-75441D01*
X180694Y-75360D01*
X180717Y-75286D01*
X180746Y-75220D01*
X180768Y-75160D01*
X180783Y-75116D01*
X180798Y-75087D01*
X180813Y-75065D01*
Y-75057D01*
X180872Y-74946D01*
X180938Y-74843D01*
X181078Y-74666D01*
X181233Y-74511D01*
X181381Y-74378D01*
X181514Y-74282D01*
X181573Y-74238D01*
X181617Y-74208D01*
X181661Y-74179D01*
X181691Y-74164D01*
X181713Y-74157D01*
X181720Y-74150D01*
X181964Y-74046D01*
X182222Y-73972D01*
X182473Y-73913D01*
X182717Y-73876D01*
X182827Y-73869D01*
X182931Y-73854D01*
X183019Y-73847D01*
X183100D01*
X183159Y-73839D01*
X183211D01*
X183240D01*
X183248D01*
X183521Y-73854D01*
X183779Y-73884D01*
X184008Y-73921D01*
X184119Y-73943D01*
X184215Y-73972D01*
X184303Y-73994D01*
X184384Y-74017D01*
X184451Y-74039D01*
X184510Y-74061D01*
X184562Y-74076D01*
X184591Y-74090D01*
X184613Y-74098D01*
X184621D01*
X184753Y-74157D01*
X184879Y-74223D01*
X184997Y-74297D01*
X185093Y-74363D01*
X185174Y-74423D01*
X185240Y-74474D01*
X185277Y-74504D01*
X185292Y-74518D01*
X185403Y-74629D01*
X185499Y-74755D01*
X185587Y-74873D01*
X185661Y-74991D01*
X185720Y-75094D01*
X185757Y-75175D01*
X185772Y-75205D01*
X185787Y-75227D01*
X185794Y-75242D01*
Y-75249D01*
X185860Y-75426D01*
X185905Y-75603D01*
X185942Y-75788D01*
X185964Y-75950D01*
X185971Y-76031D01*
X185978Y-76098D01*
Y-76164D01*
X185986Y-76216D01*
Y-76319D01*
X185978Y-76504D01*
X185956Y-76681D01*
X185927Y-76836D01*
X185897Y-76976D01*
X185860Y-77087D01*
X185846Y-77138D01*
X185831Y-77175D01*
X185816Y-77205D01*
X185809Y-77227D01*
X185801Y-77242D01*
Y-77249D01*
X185728Y-77397D01*
X185654Y-77530D01*
X185573Y-77640D01*
X185499Y-77736D01*
X185425Y-77802D01*
X185373Y-77854D01*
X185336Y-77891D01*
X185322Y-77899D01*
X185204Y-77980D01*
X185071Y-78053D01*
X184938Y-78120D01*
X184805Y-78179D01*
X184687Y-78223D01*
X184635Y-78238D01*
X184599Y-78253D01*
X184562Y-78268D01*
X184532Y-78275D01*
X184517Y-78282D01*
X184510D01*
X184731Y-79101D01*
X184975Y-79028D01*
X185196Y-78947D01*
X185292Y-78902D01*
X185388Y-78858D01*
X185469Y-78821D01*
X185543Y-78777D01*
X185617Y-78740D01*
X185676Y-78703D01*
X185728Y-78666D01*
X185772Y-78644D01*
X185801Y-78614D01*
X185824Y-78600D01*
X185838Y-78592D01*
X185846Y-78585D01*
X186001Y-78445D01*
X186134Y-78297D01*
X186244Y-78142D01*
X186340Y-77987D01*
X186414Y-77854D01*
X186443Y-77795D01*
X186466Y-77744D01*
X186488Y-77707D01*
X186503Y-77677D01*
X186510Y-77655D01*
Y-77648D01*
X186591Y-77419D01*
X186650Y-77190D01*
X186694Y-76961D01*
X186724Y-76755D01*
X186731Y-76659D01*
X186739Y-76578D01*
X186746Y-76504D01*
X186753Y-76437D01*
Y-76312D01*
X186746Y-76127D01*
X186739Y-75943D01*
X186716Y-75766D01*
X186687Y-75603D01*
X186658Y-75441D01*
X186621Y-75293D01*
X186584Y-75153D01*
X186547Y-75028D01*
X186503Y-74917D01*
X186466Y-74814D01*
X186429Y-74725D01*
X186399Y-74651D01*
X186370Y-74592D01*
X186347Y-74548D01*
X186340Y-74518D01*
X186333Y-74511D01*
X186252Y-74371D01*
X186156Y-74238D01*
X186060Y-74112D01*
X185956Y-74002D01*
X185846Y-73891D01*
X185742Y-73795D01*
X185639Y-73707D01*
X185536Y-73625D01*
X185432Y-73559D01*
X185344Y-73493D01*
X185263Y-73441D01*
X185189Y-73397D01*
X185130Y-73367D01*
X185085Y-73345D01*
X185056Y-73330D01*
X185049Y-73323D01*
X184886Y-73249D01*
X184724Y-73190D01*
X184562Y-73131D01*
X184399Y-73087D01*
X184089Y-73013D01*
X183942Y-72983D01*
X183801Y-72961D01*
X183676Y-72947D01*
X183558Y-72932D01*
X183455Y-72924D01*
X183366Y-72917D01*
X183292Y-72910D01*
X183196D01*
X183012Y-72917D01*
X182827Y-72924D01*
X182658Y-72947D01*
X182488Y-72976D01*
X182333Y-73006D01*
X182178Y-73042D01*
X182038Y-73079D01*
X181912Y-73116D01*
X181794Y-73153D01*
X181691Y-73190D01*
X181602Y-73227D01*
X181521Y-73256D01*
X181462Y-73286D01*
X181418Y-73308D01*
X181388Y-73316D01*
X181381Y-73323D01*
X181233Y-73404D01*
X181093Y-73500D01*
X180967Y-73596D01*
X180842Y-73692D01*
X180731Y-73795D01*
X180635Y-73899D01*
X180540Y-74002D01*
X180458Y-74098D01*
X180385Y-74194D01*
X180318Y-74282D01*
X180266Y-74363D01*
X180222Y-74430D01*
X180185Y-74482D01*
X180163Y-74526D01*
X180148Y-74555D01*
X180141Y-74563D01*
X180067Y-74718D01*
X180001Y-74880D01*
X179942Y-75035D01*
X179897Y-75190D01*
X179853Y-75352D01*
X179816Y-75500D01*
X179787Y-75648D01*
X179765Y-75780D01*
X179750Y-75906D01*
X179735Y-76024D01*
X179728Y-76127D01*
X179720Y-76216D01*
X179713Y-76290D01*
Y-72910D01*
X179713D01*
Y-63589D01*
X182355D01*
X182569Y-63581D01*
X182776Y-63559D01*
X182967Y-63530D01*
X183145Y-63485D01*
X183307Y-63441D01*
X183455Y-63382D01*
X183595Y-63323D01*
X183720Y-63264D01*
X183831Y-63205D01*
X183927Y-63146D01*
X184008Y-63087D01*
X184074Y-63043D01*
X184134Y-62998D01*
X184170Y-62969D01*
X184193Y-62947D01*
X184200Y-62939D01*
X184318Y-62814D01*
X184421Y-62681D01*
X184510Y-62548D01*
X184591Y-62408D01*
X184650Y-62268D01*
X184709Y-62135D01*
X184753Y-61995D01*
X184790Y-61869D01*
X184812Y-61744D01*
X184835Y-61633D01*
X184849Y-61537D01*
X184864Y-61449D01*
Y-61375D01*
X184871Y-61323D01*
Y-61279D01*
X184864Y-61109D01*
X184849Y-60947D01*
X184820Y-60799D01*
X184783Y-60651D01*
X184746Y-60511D01*
X184694Y-60386D01*
X184650Y-60268D01*
X184599Y-60164D01*
X184547Y-60061D01*
X184495Y-59980D01*
X184443Y-59906D01*
X184407Y-59840D01*
X184370Y-59795D01*
X184340Y-59759D01*
X184325Y-59736D01*
X184318Y-59729D01*
X184185Y-59596D01*
X184045Y-59478D01*
X183890Y-59375D01*
X183728Y-59286D01*
X183558Y-59220D01*
X183388Y-59153D01*
X183218Y-59102D01*
X183056Y-59065D01*
X182901Y-59035D01*
X182761Y-59006D01*
X182628Y-58991D01*
X182510Y-58984D01*
X182421Y-58976D01*
X182348Y-58969D01*
X182289D01*
X182060Y-58976D01*
X181846Y-58998D01*
X181647Y-59028D01*
X181462Y-59065D01*
X181292Y-59116D01*
X181137Y-59168D01*
X180997Y-59227D01*
X180864Y-59286D01*
X180754Y-59345D01*
X180650Y-59404D01*
X180569Y-59456D01*
X180503Y-59508D01*
X180444Y-59544D01*
X180407Y-59574D01*
X180385Y-59596D01*
X180377Y-59604D01*
X180259Y-59729D01*
X180156Y-59862D01*
X180067Y-59995D01*
X179993Y-60135D01*
X179927Y-60275D01*
X179875Y-60415D01*
X179831Y-60548D01*
X179794Y-60681D01*
X179772Y-60806D01*
X179750Y-60917D01*
X179735Y-61020D01*
X179720Y-61109D01*
Y-61183D01*
X179713Y-61234D01*
Y-58969D01*
X179713D01*
Y-55397D01*
X184871D01*
X181521D01*
X181632Y-54578D01*
X181514Y-54556D01*
X181410Y-54533D01*
X181307Y-54504D01*
X181218Y-54474D01*
X181130Y-54438D01*
X181056Y-54408D01*
X180990Y-54371D01*
X180923Y-54334D01*
X180872Y-54297D01*
X180827Y-54268D01*
X180754Y-54209D01*
X180709Y-54172D01*
X180702Y-54164D01*
X180694Y-54157D01*
X180598Y-54024D01*
X180525Y-53891D01*
X180473Y-53751D01*
X180436Y-53626D01*
X180414Y-53508D01*
X180407Y-53463D01*
Y-53419D01*
X180399Y-53382D01*
Y-53338D01*
X180407Y-53227D01*
X180421Y-53116D01*
X180444Y-53021D01*
X180473Y-52925D01*
X180540Y-52755D01*
X180628Y-52607D01*
X180665Y-52548D01*
X180709Y-52496D01*
X180746Y-52452D01*
X180783Y-52408D01*
X180805Y-52378D01*
X180827Y-52356D01*
X180842Y-52349D01*
X180849Y-52342D01*
X180938Y-52275D01*
X181041Y-52216D01*
X181152Y-52164D01*
X181263Y-52127D01*
X181506Y-52054D01*
X181742Y-52009D01*
X181853Y-51995D01*
X181956Y-51987D01*
X182052Y-51980D01*
X182133Y-51973D01*
X182200Y-51965D01*
X182252D01*
X182289D01*
X182296D01*
X182473Y-51973D01*
X182643Y-51980D01*
X182790Y-52002D01*
X182931Y-52024D01*
X183063Y-52054D01*
X183182Y-52091D01*
X183285Y-52127D01*
X183381Y-52164D01*
X183462Y-52194D01*
X183536Y-52231D01*
X183595Y-52268D01*
X183639Y-52297D01*
X183683Y-52319D01*
X183705Y-52342D01*
X183720Y-52349D01*
X183728Y-52356D01*
X183809Y-52430D01*
X183875Y-52511D01*
X183942Y-52600D01*
X183993Y-52681D01*
X184038Y-52770D01*
X184074Y-52851D01*
X184126Y-53013D01*
X184163Y-53161D01*
X184170Y-53220D01*
X184178Y-53279D01*
X184185Y-53323D01*
Y-53382D01*
X184178Y-53530D01*
X184148Y-53670D01*
X184104Y-53788D01*
X184060Y-53891D01*
X184008Y-53973D01*
X183971Y-54039D01*
X183942Y-54076D01*
X183927Y-54091D01*
X183824Y-54194D01*
X183705Y-54282D01*
X183580Y-54349D01*
X183462Y-54408D01*
X183351Y-54452D01*
X183263Y-54482D01*
X183226Y-54489D01*
X183204Y-54497D01*
X183189Y-54504D01*
X183182D01*
X183307Y-55316D01*
X183440Y-55286D01*
X183573Y-55242D01*
X183691Y-55198D01*
X183801Y-55153D01*
X183905Y-55102D01*
X184001Y-55043D01*
X184082Y-54991D01*
X184163Y-54932D01*
X184230Y-54880D01*
X184289Y-54829D01*
X184340Y-54784D01*
X184384Y-54740D01*
X184414Y-54711D01*
X184436Y-54681D01*
X184451Y-54666D01*
X184458Y-54659D01*
X184532Y-54563D01*
X184599Y-54460D01*
X184650Y-54349D01*
X184694Y-54238D01*
X184768Y-54017D01*
X184820Y-53810D01*
X184835Y-53714D01*
X184849Y-53626D01*
X184857Y-53544D01*
X184864Y-53478D01*
X184871Y-53426D01*
Y-53279D01*
Y-53345D01*
X184857Y-53116D01*
X184827Y-52895D01*
X184776Y-52696D01*
X184746Y-52607D01*
X184724Y-52519D01*
X184694Y-52445D01*
X184665Y-52378D01*
X184643Y-52319D01*
X184613Y-52268D01*
X184599Y-52223D01*
X184584Y-52194D01*
X184569Y-52179D01*
Y-52172D01*
X184443Y-51980D01*
X184303Y-51818D01*
X184148Y-51677D01*
X184008Y-51567D01*
X183875Y-51478D01*
X183816Y-51449D01*
X183765Y-51419D01*
X183728Y-51397D01*
X183698Y-51382D01*
X183676Y-51367D01*
X183669D01*
X183440Y-51279D01*
X183196Y-51220D01*
X182960Y-51175D01*
X182746Y-51139D01*
X182643Y-51131D01*
X182554Y-51124D01*
X182473Y-51117D01*
X182399D01*
X182348Y-51109D01*
X182266D01*
X182045Y-51117D01*
X181831Y-51139D01*
X181632Y-51168D01*
X181447Y-51205D01*
X181278Y-51249D01*
X181123Y-51301D01*
X180982Y-51360D01*
X180857Y-51419D01*
X180746Y-51471D01*
X180643Y-51530D01*
X180562Y-51581D01*
X180495Y-51626D01*
X180436Y-51663D01*
X180399Y-51692D01*
X180377Y-51714D01*
X180370Y-51722D01*
X180252Y-51840D01*
X180156Y-51965D01*
X180067Y-52098D01*
X179993Y-52231D01*
X179927Y-52371D01*
X179875Y-52504D01*
X179831Y-52637D01*
X179794Y-52762D01*
X179765Y-52880D01*
X179750Y-52991D01*
X179735Y-53094D01*
X179720Y-53175D01*
Y-53249D01*
X179713Y-53301D01*
Y-51109D01*
X179713D01*
Y-20830D01*
X190312D01*
Y-130000D01*
D02*
G37*
G36*
X179720Y-53493D02*
X179735Y-53633D01*
X179757Y-53766D01*
X179787Y-53899D01*
X179824Y-54017D01*
X179868Y-54128D01*
X179905Y-54231D01*
X179956Y-54327D01*
X180001Y-54408D01*
X180038Y-54489D01*
X180082Y-54548D01*
X180119Y-54607D01*
X180148Y-54644D01*
X180171Y-54681D01*
X180185Y-54696D01*
X180193Y-54703D01*
X180289Y-54799D01*
X180385Y-54895D01*
X180495Y-54976D01*
X180606Y-55043D01*
X180717Y-55109D01*
X180827Y-55168D01*
X181034Y-55257D01*
X181137Y-55294D01*
X181226Y-55323D01*
X181307Y-55345D01*
X181381Y-55367D01*
X181440Y-55382D01*
X181484Y-55389D01*
X181514Y-55397D01*
X179713D01*
Y-53345D01*
X179720Y-53493D01*
D02*
G37*
G36*
X182458Y-59832D02*
X182621Y-59840D01*
X182768Y-59862D01*
X182908Y-59891D01*
X183034Y-59921D01*
X183152Y-59958D01*
X183255Y-59995D01*
X183351Y-60031D01*
X183432Y-60068D01*
X183506Y-60105D01*
X183565Y-60142D01*
X183617Y-60172D01*
X183654Y-60201D01*
X183683Y-60223D01*
X183698Y-60231D01*
X183705Y-60238D01*
X183787Y-60319D01*
X183861Y-60400D01*
X183927Y-60489D01*
X183978Y-60578D01*
X184023Y-60666D01*
X184060Y-60747D01*
X184119Y-60917D01*
X184156Y-61057D01*
X184163Y-61124D01*
X184170Y-61175D01*
X184178Y-61220D01*
Y-61279D01*
X184170Y-61389D01*
X184156Y-61500D01*
X184134Y-61603D01*
X184104Y-61699D01*
X184030Y-61876D01*
X183942Y-62032D01*
X183897Y-62090D01*
X183853Y-62150D01*
X183816Y-62194D01*
X183779Y-62238D01*
X183750Y-62268D01*
X183728Y-62290D01*
X183713Y-62305D01*
X183705Y-62312D01*
X183609Y-62386D01*
X183514Y-62452D01*
X183403Y-62504D01*
X183292Y-62555D01*
X183174Y-62600D01*
X183056Y-62629D01*
X182835Y-62681D01*
X182731Y-62696D01*
X182635Y-62710D01*
X182547Y-62718D01*
X182466Y-62725D01*
X182407Y-62733D01*
X182355D01*
X182325D01*
X182318D01*
X182141Y-62725D01*
X181979Y-62718D01*
X181824Y-62696D01*
X181683Y-62666D01*
X181551Y-62637D01*
X181432Y-62600D01*
X181322Y-62563D01*
X181233Y-62526D01*
X181145Y-62482D01*
X181071Y-62445D01*
X181012Y-62408D01*
X180960Y-62378D01*
X180923Y-62349D01*
X180894Y-62327D01*
X180879Y-62319D01*
X180872Y-62312D01*
X180790Y-62231D01*
X180717Y-62150D01*
X180650Y-62061D01*
X180598Y-61980D01*
X180554Y-61891D01*
X180517Y-61803D01*
X180458Y-61640D01*
X180421Y-61500D01*
X180414Y-61434D01*
X180407Y-61382D01*
X180399Y-61338D01*
Y-61279D01*
X180407Y-61161D01*
X180421Y-61057D01*
X180444Y-60947D01*
X180473Y-60851D01*
X180547Y-60674D01*
X180635Y-60526D01*
X180672Y-60460D01*
X180717Y-60400D01*
X180754Y-60356D01*
X180790Y-60312D01*
X180820Y-60282D01*
X180842Y-60260D01*
X180857Y-60246D01*
X180864Y-60238D01*
X180960Y-60164D01*
X181063Y-60105D01*
X181174Y-60046D01*
X181285Y-60002D01*
X181521Y-59928D01*
X181757Y-59877D01*
X181860Y-59862D01*
X181964Y-59847D01*
X182052Y-59840D01*
X182133Y-59832D01*
X182200Y-59825D01*
X182244D01*
X182281D01*
X182289D01*
X182458Y-59832D01*
D02*
G37*
G36*
X179728Y-61515D02*
X179757Y-61736D01*
X179809Y-61936D01*
X179831Y-62032D01*
X179860Y-62113D01*
X179890Y-62194D01*
X179912Y-62260D01*
X179942Y-62319D01*
X179964Y-62371D01*
X179979Y-62415D01*
X179993Y-62445D01*
X180008Y-62459D01*
Y-62467D01*
X180134Y-62659D01*
X180266Y-62828D01*
X180407Y-62969D01*
X180547Y-63087D01*
X180665Y-63183D01*
X180724Y-63220D01*
X180768Y-63249D01*
X180805Y-63271D01*
X180835Y-63286D01*
X180849Y-63301D01*
X180857D01*
X180967Y-63353D01*
X181078Y-63397D01*
X181322Y-63471D01*
X181573Y-63522D01*
X181809Y-63552D01*
X181920Y-63566D01*
X182023Y-63574D01*
X182119Y-63581D01*
X182200D01*
X182266Y-63589D01*
X179713D01*
Y-61279D01*
X179728Y-61515D01*
D02*
G37*
%LPC*%
G36*
X173996Y-23006D02*
X173886D01*
X173650Y-23013D01*
X173421Y-23028D01*
X173199Y-23050D01*
X172978Y-23080D01*
X172771Y-23117D01*
X172572Y-23154D01*
X172380Y-23198D01*
X172203Y-23242D01*
X172048Y-23287D01*
X171900Y-23331D01*
X171775Y-23368D01*
X171664Y-23405D01*
X171583Y-23434D01*
X171517Y-23456D01*
X171480Y-23471D01*
X171465Y-23478D01*
X171251Y-23574D01*
X171044Y-23670D01*
X170845Y-23766D01*
X170653Y-23862D01*
X170476Y-23966D01*
X170306Y-24061D01*
X170151Y-24157D01*
X170004Y-24246D01*
X169878Y-24327D01*
X169760Y-24408D01*
X169657Y-24475D01*
X169576Y-24534D01*
X169509Y-24585D01*
X169458Y-24622D01*
X169428Y-24644D01*
X169421Y-24652D01*
Y-23006D01*
D01*
Y-25250D01*
X169627Y-25124D01*
X169834Y-25006D01*
X170041Y-24895D01*
X170247Y-24792D01*
X170661Y-24608D01*
X171052Y-24445D01*
X171435Y-24312D01*
X171804Y-24202D01*
X172159Y-24106D01*
X172483Y-24039D01*
X172786Y-23980D01*
X172919Y-23958D01*
X173052Y-23936D01*
X173177Y-23921D01*
X173295Y-23906D01*
X173399Y-23892D01*
X173495Y-23884D01*
X173583Y-23877D01*
X173657Y-23869D01*
X173723D01*
X173775Y-23862D01*
X173819D01*
X173856D01*
X173871D01*
X173878D01*
X174203Y-23869D01*
X174520Y-23892D01*
X174675Y-23906D01*
X174815Y-23929D01*
X174956Y-23943D01*
X175081Y-23966D01*
X175199Y-23980D01*
X175303Y-23995D01*
X175399Y-24017D01*
X175480Y-24032D01*
X175539Y-24047D01*
X175590Y-24054D01*
X175620Y-24061D01*
X175627D01*
X175886Y-24128D01*
X176129Y-24202D01*
X176358Y-24275D01*
X176461Y-24312D01*
X176557Y-24342D01*
X176646Y-24379D01*
X176727Y-24408D01*
X176793Y-24438D01*
X176852Y-24460D01*
X176897Y-24475D01*
X176934Y-24489D01*
X176956Y-24504D01*
X176963D01*
X177044Y-24541D01*
X177140Y-24585D01*
X177244Y-24637D01*
X177354Y-24696D01*
X177583Y-24822D01*
X177812Y-24947D01*
X177915Y-25006D01*
X178018Y-25058D01*
X178107Y-25109D01*
X178188Y-25161D01*
X178255Y-25198D01*
X178299Y-25227D01*
X178336Y-25242D01*
X178343Y-25250D01*
Y-24652D01*
X178122Y-24489D01*
X177908Y-24342D01*
X177694Y-24209D01*
X177487Y-24076D01*
X177280Y-23966D01*
X177089Y-23855D01*
X176904Y-23759D01*
X176734Y-23678D01*
X176572Y-23604D01*
X176432Y-23537D01*
X176306Y-23486D01*
X176203Y-23441D01*
X176114Y-23405D01*
X176048Y-23382D01*
X176011Y-23368D01*
X175996Y-23360D01*
X175804Y-23301D01*
X175613Y-23242D01*
X175244Y-23154D01*
X175059Y-23124D01*
X174882Y-23095D01*
X174720Y-23073D01*
X174565Y-23050D01*
X174417Y-23036D01*
X174284Y-23028D01*
X174173Y-23013D01*
X174070D01*
X173996Y-23006D01*
D02*
G37*
G36*
X173945Y-25980D02*
X173863D01*
X173642Y-25988D01*
X173428Y-26010D01*
X173229Y-26039D01*
X173044Y-26076D01*
X172875Y-26120D01*
X172720Y-26172D01*
X172579Y-26231D01*
X172454Y-26290D01*
X172343Y-26342D01*
X172240Y-26401D01*
X172159Y-26452D01*
X172092Y-26497D01*
X172033Y-26534D01*
X171996Y-26563D01*
X171974Y-26585D01*
X171967Y-26593D01*
X171849Y-26711D01*
X171753Y-26836D01*
X171664Y-26969D01*
X171590Y-27102D01*
X171524Y-27242D01*
X171472Y-27375D01*
X171428Y-27508D01*
X171391Y-27633D01*
X171362Y-27751D01*
X171347Y-27862D01*
X171332Y-27965D01*
X171317Y-28047D01*
Y-28120D01*
X171310Y-28172D01*
Y-25980D01*
D01*
Y-30268D01*
Y-28216D01*
X171317Y-28364D01*
X171332Y-28504D01*
X171354Y-28637D01*
X171384Y-28770D01*
X171421Y-28888D01*
X171465Y-28999D01*
X171502Y-29102D01*
X171554Y-29198D01*
X171598Y-29279D01*
X171635Y-29360D01*
X171679Y-29419D01*
X171716Y-29478D01*
X171746Y-29515D01*
X171768Y-29552D01*
X171782Y-29567D01*
X171790Y-29574D01*
X171886Y-29670D01*
X171982Y-29766D01*
X172092Y-29847D01*
X172203Y-29914D01*
X172314Y-29980D01*
X172424Y-30039D01*
X172631Y-30128D01*
X172734Y-30165D01*
X172823Y-30194D01*
X172904Y-30216D01*
X172978Y-30239D01*
X173037Y-30253D01*
X173081Y-30261D01*
X173111Y-30268D01*
X171310D01*
X176469D01*
X173118D01*
X173229Y-29449D01*
X173111Y-29427D01*
X173007Y-29405D01*
X172904Y-29375D01*
X172816Y-29346D01*
X172727Y-29309D01*
X172653Y-29279D01*
X172587Y-29242D01*
X172520Y-29205D01*
X172469Y-29168D01*
X172424Y-29139D01*
X172351Y-29080D01*
X172306Y-29043D01*
X172299Y-29035D01*
X172292Y-29028D01*
X172196Y-28895D01*
X172122Y-28763D01*
X172070Y-28622D01*
X172033Y-28497D01*
X172011Y-28379D01*
X172004Y-28334D01*
Y-28290D01*
X171996Y-28253D01*
Y-28209D01*
X172004Y-28098D01*
X172019Y-27988D01*
X172041Y-27892D01*
X172070Y-27796D01*
X172137Y-27626D01*
X172225Y-27478D01*
X172262Y-27419D01*
X172306Y-27368D01*
X172343Y-27323D01*
X172380Y-27279D01*
X172402Y-27250D01*
X172424Y-27227D01*
X172439Y-27220D01*
X172447Y-27213D01*
X172535Y-27146D01*
X172638Y-27087D01*
X172749Y-27035D01*
X172860Y-26999D01*
X173103Y-26925D01*
X173339Y-26880D01*
X173450Y-26866D01*
X173554Y-26858D01*
X173650Y-26851D01*
X173731Y-26844D01*
X173797Y-26836D01*
X173849D01*
X173886D01*
X173893D01*
X174070Y-26844D01*
X174240Y-26851D01*
X174388Y-26873D01*
X174528Y-26895D01*
X174661Y-26925D01*
X174779Y-26962D01*
X174882Y-26999D01*
X174978Y-27035D01*
X175059Y-27065D01*
X175133Y-27102D01*
X175192Y-27139D01*
X175236Y-27168D01*
X175280Y-27191D01*
X175303Y-27213D01*
X175317Y-27220D01*
X175325Y-27227D01*
X175406Y-27301D01*
X175472Y-27382D01*
X175539Y-27471D01*
X175590Y-27552D01*
X175635Y-27641D01*
X175672Y-27722D01*
X175723Y-27884D01*
X175760Y-28032D01*
X175768Y-28091D01*
X175775Y-28150D01*
X175782Y-28194D01*
Y-28253D01*
X175775Y-28401D01*
X175745Y-28541D01*
X175701Y-28659D01*
X175657Y-28763D01*
X175605Y-28844D01*
X175568Y-28910D01*
X175539Y-28947D01*
X175524Y-28962D01*
X175421Y-29065D01*
X175303Y-29154D01*
X175177Y-29220D01*
X175059Y-29279D01*
X174948Y-29323D01*
X174860Y-29353D01*
X174823Y-29360D01*
X174801Y-29368D01*
X174786Y-29375D01*
X174779D01*
X174904Y-30187D01*
X175037Y-30157D01*
X175170Y-30113D01*
X175288Y-30069D01*
X175399Y-30024D01*
X175502Y-29973D01*
X175598Y-29914D01*
X175679Y-29862D01*
X175760Y-29803D01*
X175827Y-29751D01*
X175886Y-29700D01*
X175937Y-29655D01*
X175982Y-29611D01*
X176011Y-29582D01*
X176033Y-29552D01*
X176048Y-29537D01*
X176055Y-29530D01*
X176129Y-29434D01*
X176196Y-29331D01*
X176247Y-29220D01*
X176292Y-29109D01*
X176365Y-28888D01*
X176417Y-28681D01*
X176432Y-28585D01*
X176446Y-28497D01*
X176454Y-28416D01*
X176461Y-28349D01*
X176469Y-28297D01*
Y-28216D01*
X176454Y-27988D01*
X176424Y-27766D01*
X176373Y-27567D01*
X176343Y-27478D01*
X176321Y-27390D01*
X176292Y-27316D01*
X176262Y-27250D01*
X176240Y-27191D01*
X176210Y-27139D01*
X176196Y-27095D01*
X176181Y-27065D01*
X176166Y-27050D01*
Y-27043D01*
X176041Y-26851D01*
X175900Y-26689D01*
X175745Y-26548D01*
X175605Y-26438D01*
X175472Y-26349D01*
X175413Y-26320D01*
X175362Y-26290D01*
X175325Y-26268D01*
X175295Y-26253D01*
X175273Y-26239D01*
X175266D01*
X175037Y-26150D01*
X174793Y-26091D01*
X174557Y-26047D01*
X174343Y-26010D01*
X174240Y-26002D01*
X174151Y-25995D01*
X174070Y-25988D01*
X173996D01*
X173945Y-25980D01*
D02*
G37*
G36*
X178343Y-30932D02*
D01*
X178166Y-31036D01*
X178004Y-31124D01*
X177849Y-31213D01*
X177708Y-31286D01*
X177583Y-31353D01*
X177472Y-31412D01*
X177369Y-31471D01*
X177280Y-31515D01*
X177199Y-31552D01*
X177133Y-31589D01*
X177074Y-31618D01*
X177030Y-31641D01*
X176993Y-31655D01*
X176971Y-31670D01*
X176956Y-31678D01*
X176948D01*
X176705Y-31773D01*
X176469Y-31862D01*
X176247Y-31936D01*
X176137Y-31973D01*
X176041Y-32002D01*
X175952Y-32024D01*
X175864Y-32047D01*
X175790Y-32069D01*
X175731Y-32083D01*
X175679Y-32098D01*
X175642Y-32106D01*
X175620Y-32113D01*
X175613D01*
X175288Y-32179D01*
X174978Y-32231D01*
X174830Y-32253D01*
X174683Y-32268D01*
X174550Y-32283D01*
X174424Y-32298D01*
X174306Y-32305D01*
X174203Y-32312D01*
X174107D01*
X174026Y-32320D01*
X173967D01*
X173915D01*
X173886D01*
X173878D01*
X173672Y-32312D01*
X173458Y-32305D01*
X173044Y-32261D01*
X172638Y-32194D01*
X172240Y-32106D01*
X171856Y-31995D01*
X171487Y-31884D01*
X171140Y-31759D01*
X170808Y-31626D01*
X170513Y-31493D01*
X170373Y-31434D01*
X170240Y-31375D01*
X170122Y-31309D01*
X170004Y-31257D01*
X169901Y-31198D01*
X169805Y-31146D01*
X169716Y-31102D01*
X169642Y-31058D01*
X169576Y-31021D01*
X169524Y-30991D01*
X169480Y-30969D01*
X169443Y-30947D01*
X169428Y-30940D01*
X169421Y-30932D01*
D01*
Y-33176D01*
X178343D01*
D01*
X173886D01*
X174092Y-33168D01*
X174292Y-33161D01*
X174491Y-33146D01*
X174683Y-33117D01*
X174860Y-33094D01*
X175037Y-33065D01*
X175199Y-33028D01*
X175354Y-32999D01*
X175495Y-32962D01*
X175620Y-32932D01*
X175731Y-32895D01*
X175819Y-32873D01*
X175893Y-32851D01*
X175952Y-32829D01*
X175982Y-32821D01*
X175996Y-32814D01*
X176218Y-32733D01*
X176439Y-32637D01*
X176860Y-32438D01*
X177066Y-32334D01*
X177258Y-32224D01*
X177443Y-32120D01*
X177613Y-32017D01*
X177768Y-31921D01*
X177915Y-31825D01*
X178041Y-31744D01*
X178144Y-31670D01*
X178225Y-31611D01*
X178291Y-31567D01*
X178328Y-31537D01*
X178343Y-31530D01*
Y-30932D01*
D02*
G37*
G36*
X173613Y-33958D02*
D01*
X173487Y-33965D01*
X173362Y-33980D01*
X173133Y-34024D01*
X172919Y-34083D01*
X172823Y-34113D01*
X172742Y-34150D01*
X172661Y-34179D01*
X172587Y-34216D01*
X172528Y-34246D01*
X172476Y-34275D01*
X172432Y-34297D01*
X172402Y-34312D01*
X172388Y-34320D01*
X172380Y-34327D01*
X172188Y-34467D01*
X172026Y-34630D01*
X171886Y-34792D01*
X171775Y-34947D01*
X171686Y-35087D01*
X171657Y-35146D01*
X171627Y-35198D01*
X171605Y-35242D01*
X171590Y-35272D01*
X171576Y-35294D01*
Y-35301D01*
X171487Y-35552D01*
X171421Y-35810D01*
X171376Y-36069D01*
X171347Y-36312D01*
X171332Y-36430D01*
X171325Y-36534D01*
X171317Y-36622D01*
Y-36703D01*
X171310Y-36770D01*
Y-33958D01*
D01*
Y-39375D01*
X178350D01*
D01*
X173339D01*
X173539Y-39360D01*
X173723Y-39331D01*
X173886Y-39286D01*
X174026Y-39235D01*
X174144Y-39176D01*
X174196Y-39154D01*
X174232Y-39131D01*
X174262Y-39117D01*
X174284Y-39102D01*
X174299Y-39087D01*
X174306D01*
X174380Y-39028D01*
X174454Y-38969D01*
X174594Y-38829D01*
X174712Y-38688D01*
X174808Y-38541D01*
X174889Y-38416D01*
X174926Y-38357D01*
X174948Y-38305D01*
X174970Y-38268D01*
X174985Y-38238D01*
X175000Y-38216D01*
Y-38209D01*
X175037Y-38128D01*
X175074Y-38024D01*
X175111Y-37921D01*
X175148Y-37803D01*
X175214Y-37552D01*
X175280Y-37301D01*
X175317Y-37183D01*
X175339Y-37072D01*
X175369Y-36969D01*
X175384Y-36880D01*
X175406Y-36807D01*
X175421Y-36755D01*
X175428Y-36718D01*
Y-36703D01*
X175472Y-36504D01*
X175524Y-36327D01*
X175568Y-36172D01*
X175613Y-36024D01*
X175657Y-35899D01*
X175694Y-35788D01*
X175731Y-35692D01*
X175768Y-35611D01*
X175804Y-35545D01*
X175834Y-35486D01*
X175856Y-35441D01*
X175878Y-35405D01*
X175900Y-35375D01*
X175915Y-35360D01*
X175923Y-35345D01*
X176019Y-35257D01*
X176114Y-35198D01*
X176218Y-35153D01*
X176314Y-35117D01*
X176395Y-35102D01*
X176461Y-35094D01*
X176505Y-35087D01*
X176513D01*
X176520D01*
X176602Y-35094D01*
X176675Y-35102D01*
X176808Y-35146D01*
X176934Y-35205D01*
X177037Y-35272D01*
X177126Y-35338D01*
X177192Y-35397D01*
X177229Y-35441D01*
X177244Y-35449D01*
Y-35456D01*
X177295Y-35530D01*
X177347Y-35618D01*
X177421Y-35803D01*
X177472Y-35995D01*
X177509Y-36194D01*
X177524Y-36283D01*
X177531Y-36371D01*
X177539Y-36445D01*
Y-36511D01*
X177546Y-36571D01*
Y-36784D01*
X177531Y-36917D01*
X177517Y-37043D01*
X177495Y-37161D01*
X177472Y-37264D01*
X177443Y-37360D01*
X177413Y-37449D01*
X177384Y-37530D01*
X177347Y-37596D01*
X177317Y-37655D01*
X177288Y-37707D01*
X177266Y-37751D01*
X177244Y-37781D01*
X177229Y-37810D01*
X177221Y-37818D01*
X177214Y-37825D01*
X177148Y-37899D01*
X177081Y-37965D01*
X176926Y-38069D01*
X176764Y-38157D01*
X176609Y-38216D01*
X176469Y-38260D01*
X176410Y-38275D01*
X176351Y-38290D01*
X176306Y-38297D01*
X176277D01*
X176255Y-38305D01*
X176247D01*
X176314Y-39168D01*
X176535Y-39146D01*
X176734Y-39102D01*
X176919Y-39050D01*
X177074Y-38991D01*
X177140Y-38954D01*
X177207Y-38932D01*
X177258Y-38903D01*
X177303Y-38880D01*
X177339Y-38858D01*
X177362Y-38844D01*
X177376Y-38836D01*
X177384Y-38829D01*
X177553Y-38703D01*
X177694Y-38563D01*
X177819Y-38416D01*
X177922Y-38268D01*
X177996Y-38142D01*
X178026Y-38083D01*
X178055Y-38039D01*
X178077Y-38002D01*
X178085Y-37965D01*
X178100Y-37951D01*
Y-37943D01*
X178181Y-37722D01*
X178247Y-37493D01*
X178291Y-37264D01*
X178321Y-37058D01*
X178328Y-36962D01*
X178336Y-36880D01*
X178343Y-36799D01*
X178350Y-36733D01*
Y-36607D01*
X178343Y-36356D01*
X178314Y-36120D01*
X178277Y-35914D01*
X178255Y-35818D01*
X178233Y-35729D01*
X178210Y-35648D01*
X178188Y-35574D01*
X178166Y-35508D01*
X178151Y-35456D01*
X178137Y-35419D01*
X178122Y-35382D01*
X178114Y-35368D01*
Y-35360D01*
X178018Y-35161D01*
X177908Y-34991D01*
X177797Y-34844D01*
X177686Y-34725D01*
X177583Y-34630D01*
X177502Y-34556D01*
X177472Y-34534D01*
X177450Y-34519D01*
X177435Y-34504D01*
X177428D01*
X177258Y-34408D01*
X177089Y-34334D01*
X176934Y-34290D01*
X176786Y-34253D01*
X176653Y-34231D01*
X176602Y-34224D01*
X176557D01*
X176520Y-34216D01*
X176491D01*
X176476D01*
X176469D01*
X176299Y-34224D01*
X176137Y-34253D01*
X175989Y-34290D01*
X175864Y-34334D01*
X175760Y-34379D01*
X175679Y-34416D01*
X175649Y-34430D01*
X175627Y-34445D01*
X175620Y-34452D01*
X175613D01*
X175480Y-34548D01*
X175354Y-34666D01*
X175251Y-34784D01*
X175155Y-34910D01*
X175081Y-35013D01*
X175030Y-35102D01*
X175015Y-35139D01*
X175000Y-35161D01*
X174985Y-35176D01*
Y-35183D01*
X174948Y-35257D01*
X174911Y-35345D01*
X174875Y-35441D01*
X174838Y-35545D01*
X174764Y-35759D01*
X174697Y-35980D01*
X174668Y-36083D01*
X174638Y-36172D01*
X174616Y-36261D01*
X174594Y-36342D01*
X174579Y-36401D01*
X174565Y-36452D01*
X174557Y-36482D01*
Y-36489D01*
X174520Y-36659D01*
X174476Y-36814D01*
X174446Y-36947D01*
X174410Y-37072D01*
X174380Y-37183D01*
X174358Y-37286D01*
X174328Y-37367D01*
X174306Y-37449D01*
X174292Y-37508D01*
X174269Y-37567D01*
X174255Y-37611D01*
X174247Y-37641D01*
X174240Y-37670D01*
X174232Y-37685D01*
X174225Y-37700D01*
X174159Y-37847D01*
X174092Y-37973D01*
X174026Y-38083D01*
X173967Y-38165D01*
X173908Y-38231D01*
X173863Y-38275D01*
X173834Y-38305D01*
X173827Y-38312D01*
X173738Y-38379D01*
X173642Y-38423D01*
X173546Y-38460D01*
X173458Y-38482D01*
X173384Y-38497D01*
X173317Y-38504D01*
X173281D01*
X173273D01*
X173266D01*
X173155Y-38497D01*
X173044Y-38475D01*
X172948Y-38438D01*
X172860Y-38408D01*
X172786Y-38371D01*
X172727Y-38334D01*
X172697Y-38312D01*
X172683Y-38305D01*
X172587Y-38224D01*
X172506Y-38135D01*
X172432Y-38032D01*
X172373Y-37936D01*
X172328Y-37847D01*
X172292Y-37781D01*
X172277Y-37751D01*
X172269Y-37729D01*
X172262Y-37722D01*
Y-37714D01*
X172210Y-37567D01*
X172174Y-37412D01*
X172151Y-37257D01*
X172137Y-37117D01*
X172122Y-36999D01*
Y-36947D01*
X172115Y-36903D01*
Y-36814D01*
X172122Y-36600D01*
X172144Y-36408D01*
X172181Y-36224D01*
X172218Y-36069D01*
X172232Y-36002D01*
X172247Y-35943D01*
X172269Y-35892D01*
X172284Y-35847D01*
X172299Y-35810D01*
X172306Y-35788D01*
X172314Y-35774D01*
Y-35766D01*
X172395Y-35604D01*
X172483Y-35464D01*
X172565Y-35345D01*
X172653Y-35250D01*
X172727Y-35176D01*
X172786Y-35124D01*
X172823Y-35087D01*
X172838Y-35080D01*
X172970Y-35006D01*
X173111Y-34947D01*
X173251Y-34903D01*
X173384Y-34866D01*
X173509Y-34836D01*
X173554Y-34829D01*
X173598Y-34821D01*
X173635Y-34814D01*
X173664Y-34807D01*
X173679D01*
X173686D01*
X173613Y-33958D01*
D02*
G37*
G36*
X167948Y-33202D02*
X161136D01*
Y-34036D01*
X163830D01*
X164036Y-34043D01*
X164221Y-34058D01*
X164376Y-34080D01*
X164501Y-34102D01*
X164605Y-34124D01*
X164678Y-34146D01*
X164700Y-34154D01*
X164723Y-34161D01*
X164737Y-34168D01*
X164856Y-34227D01*
X164959Y-34301D01*
X165047Y-34375D01*
X165121Y-34456D01*
X165180Y-34523D01*
X165225Y-34582D01*
X165254Y-34618D01*
X165261Y-34633D01*
X165328Y-34759D01*
X165380Y-34884D01*
X165409Y-35002D01*
X165438Y-35106D01*
X165453Y-35201D01*
X165461Y-35275D01*
Y-35334D01*
X165446Y-35511D01*
X165416Y-35666D01*
X165372Y-35792D01*
X165320Y-35903D01*
X165261Y-35991D01*
X165217Y-36050D01*
X165188Y-36087D01*
X165173Y-36102D01*
X165114Y-36154D01*
X165055Y-36190D01*
X164907Y-36257D01*
X164760Y-36309D01*
X164605Y-36338D01*
X164472Y-36360D01*
X164413Y-36367D01*
X164361D01*
X164317Y-36375D01*
X164287D01*
X164265D01*
X164258D01*
X161136D01*
Y-37209D01*
X167948D01*
Y-33202D01*
D02*
G37*
G36*
X167793Y-38013D02*
Y-39467D01*
X167291Y-38633D01*
X166073D01*
Y-38013D01*
X165424D01*
Y-38633D01*
X162575D01*
X162442D01*
X162317Y-38641D01*
X162206D01*
X162103Y-38648D01*
X162014Y-38655D01*
X161933Y-38663D01*
X161859Y-38670D01*
X161800Y-38685D01*
X161749Y-38692D01*
X161704Y-38700D01*
X161667Y-38707D01*
X161638Y-38714D01*
X161601Y-38722D01*
X161586Y-38729D01*
X161505Y-38773D01*
X161431Y-38825D01*
X161365Y-38884D01*
X161313Y-38943D01*
X161269Y-39002D01*
X161239Y-39046D01*
X161217Y-39076D01*
X161210Y-39083D01*
X161165Y-39187D01*
X161129Y-39297D01*
X161106Y-39415D01*
X161084Y-39534D01*
X161077Y-39637D01*
X161070Y-39718D01*
Y-39593D01*
Y-39792D01*
X161084Y-40013D01*
X161092Y-40117D01*
X161106Y-40213D01*
X161121Y-40301D01*
X161129Y-40367D01*
X161143Y-40412D01*
Y-40426D01*
X161070D01*
D01*
X167793D01*
Y-38013D01*
D02*
G37*
G36*
Y-40655D02*
Y-42109D01*
X167291Y-41275D01*
X166073D01*
Y-40655D01*
X165424D01*
Y-41275D01*
X162575D01*
X162442D01*
X162317Y-41283D01*
X162206D01*
X162103Y-41290D01*
X162014Y-41297D01*
X161933Y-41305D01*
X161859Y-41312D01*
X161800Y-41327D01*
X161749Y-41334D01*
X161704Y-41342D01*
X161667Y-41349D01*
X161638Y-41356D01*
X161601Y-41364D01*
X161586Y-41371D01*
X161505Y-41416D01*
X161431Y-41467D01*
X161365Y-41526D01*
X161313Y-41585D01*
X161269Y-41644D01*
X161239Y-41688D01*
X161217Y-41718D01*
X161210Y-41725D01*
X161165Y-41829D01*
X161129Y-41939D01*
X161106Y-42057D01*
X161084Y-42176D01*
X161077Y-42279D01*
X161070Y-42360D01*
Y-42235D01*
Y-42434D01*
X161084Y-42655D01*
X161092Y-42759D01*
X161106Y-42855D01*
X161121Y-42943D01*
X161129Y-43009D01*
X161143Y-43054D01*
Y-43069D01*
X161070D01*
D01*
X167793D01*
Y-40655D01*
D02*
G37*
G36*
X178233Y-40497D02*
X171421D01*
Y-41331D01*
X174114D01*
X174321Y-41338D01*
X174506Y-41353D01*
X174661Y-41375D01*
X174786Y-41397D01*
X174889Y-41419D01*
X174963Y-41441D01*
X174985Y-41449D01*
X175007Y-41456D01*
X175022Y-41463D01*
X175140Y-41522D01*
X175244Y-41596D01*
X175332Y-41670D01*
X175406Y-41751D01*
X175465Y-41818D01*
X175509Y-41877D01*
X175539Y-41914D01*
X175546Y-41928D01*
X175613Y-42054D01*
X175664Y-42179D01*
X175694Y-42297D01*
X175723Y-42401D01*
X175738Y-42497D01*
X175745Y-42570D01*
Y-42630D01*
X175731Y-42807D01*
X175701Y-42962D01*
X175657Y-43087D01*
X175605Y-43198D01*
X175546Y-43286D01*
X175502Y-43345D01*
X175472Y-43382D01*
X175458Y-43397D01*
X175399Y-43449D01*
X175339Y-43486D01*
X175192Y-43552D01*
X175044Y-43604D01*
X174889Y-43633D01*
X174757Y-43655D01*
X174697Y-43663D01*
X174646D01*
X174601Y-43670D01*
X174572D01*
X174550D01*
X174542D01*
X171421D01*
Y-44504D01*
X178233D01*
Y-40497D01*
D02*
G37*
G36*
X166184Y-43777D02*
X159247D01*
Y-44611D01*
X161645D01*
X161549Y-44692D01*
X161461Y-44781D01*
X161380Y-44869D01*
X161320Y-44958D01*
X161269Y-45032D01*
X161224Y-45098D01*
X161202Y-45135D01*
X161195Y-45150D01*
X161136Y-45275D01*
X161099Y-45408D01*
X161070Y-45533D01*
X161047Y-45652D01*
X161033Y-45755D01*
X161025Y-45829D01*
Y-45902D01*
X161033Y-46013D01*
X161040Y-46117D01*
X161077Y-46316D01*
X161129Y-46500D01*
X161188Y-46663D01*
X161217Y-46736D01*
X161239Y-46803D01*
X161269Y-46854D01*
X161291Y-46906D01*
X161313Y-46943D01*
X161328Y-46973D01*
X161343Y-46987D01*
Y-46995D01*
X161475Y-47179D01*
X161623Y-47334D01*
X161778Y-47474D01*
X161933Y-47585D01*
X162066Y-47674D01*
X162125Y-47703D01*
X162177Y-47733D01*
X162213Y-47755D01*
X162243Y-47770D01*
X162265Y-47784D01*
X162273D01*
X162509Y-47873D01*
X162745Y-47939D01*
X162974Y-47991D01*
X163180Y-48021D01*
X163276Y-48035D01*
X163365Y-48043D01*
X163446Y-48050D01*
X163512D01*
X163564Y-48057D01*
X166184D01*
Y-45961D01*
X166176Y-45792D01*
X166154Y-45629D01*
X166125Y-45489D01*
X166088Y-45371D01*
X166051Y-45275D01*
X166022Y-45201D01*
X165999Y-45157D01*
X165992Y-45150D01*
Y-45142D01*
X165911Y-45017D01*
X165822Y-44906D01*
X165726Y-44803D01*
X165638Y-44714D01*
X165557Y-44640D01*
X165483Y-44581D01*
X165438Y-44552D01*
X165431Y-44537D01*
X166073D01*
Y-43777D01*
X166184D01*
D02*
G37*
G36*
Y-48736D02*
X161025D01*
D01*
X166184D01*
D02*
G37*
G36*
X173945Y-45478D02*
X173886D01*
X173657Y-45485D01*
X173443Y-45508D01*
X173244Y-45537D01*
X173059Y-45574D01*
X172889Y-45626D01*
X172734Y-45677D01*
X172594Y-45737D01*
X172461Y-45796D01*
X172351Y-45854D01*
X172247Y-45914D01*
X172166Y-45965D01*
X172100Y-46017D01*
X172041Y-46054D01*
X172004Y-46083D01*
X171982Y-46106D01*
X171974Y-46113D01*
X171856Y-46238D01*
X171753Y-46371D01*
X171664Y-46504D01*
X171590Y-46644D01*
X171524Y-46784D01*
X171472Y-46925D01*
X171428Y-47058D01*
X171391Y-47190D01*
X171369Y-47316D01*
X171347Y-47427D01*
X171332Y-47530D01*
X171317Y-47618D01*
Y-47692D01*
X171310Y-47744D01*
Y-47788D01*
X171325Y-48024D01*
X171354Y-48246D01*
X171406Y-48445D01*
X171428Y-48541D01*
X171458Y-48622D01*
X171487Y-48703D01*
X171509Y-48770D01*
X171539Y-48829D01*
X171561Y-48880D01*
X171576Y-48925D01*
X171590Y-48954D01*
X171605Y-48969D01*
Y-48976D01*
X171731Y-49168D01*
X171863Y-49338D01*
X172004Y-49478D01*
X172144Y-49596D01*
X172262Y-49692D01*
X172321Y-49729D01*
X172365Y-49759D01*
X172402Y-49781D01*
X172432Y-49795D01*
X172447Y-49810D01*
X172454D01*
X172565Y-49862D01*
X172675Y-49906D01*
X172919Y-49980D01*
X173170Y-50032D01*
X173406Y-50061D01*
X173517Y-50076D01*
X173620Y-50083D01*
X173716Y-50091D01*
X173797D01*
X173863Y-50098D01*
X171310D01*
D01*
X176469D01*
D01*
X173952D01*
X174166Y-50091D01*
X174373Y-50068D01*
X174565Y-50039D01*
X174742Y-49995D01*
X174904Y-49950D01*
X175052Y-49891D01*
X175192Y-49832D01*
X175317Y-49773D01*
X175428Y-49714D01*
X175524Y-49655D01*
X175605Y-49596D01*
X175672Y-49552D01*
X175731Y-49508D01*
X175768Y-49478D01*
X175790Y-49456D01*
X175797Y-49449D01*
X175915Y-49323D01*
X176019Y-49190D01*
X176107Y-49057D01*
X176188Y-48917D01*
X176247Y-48777D01*
X176306Y-48644D01*
X176351Y-48504D01*
X176388Y-48379D01*
X176410Y-48253D01*
X176432Y-48142D01*
X176446Y-48046D01*
X176461Y-47958D01*
Y-47884D01*
X176469Y-47832D01*
Y-47788D01*
X176461Y-47618D01*
X176446Y-47456D01*
X176417Y-47308D01*
X176380Y-47161D01*
X176343Y-47021D01*
X176292Y-46895D01*
X176247Y-46777D01*
X176196Y-46674D01*
X176144Y-46570D01*
X176092Y-46489D01*
X176041Y-46415D01*
X176004Y-46349D01*
X175967Y-46305D01*
X175937Y-46268D01*
X175923Y-46246D01*
X175915Y-46238D01*
X175782Y-46106D01*
X175642Y-45987D01*
X175487Y-45884D01*
X175325Y-45796D01*
X175155Y-45729D01*
X174985Y-45663D01*
X174815Y-45611D01*
X174653Y-45574D01*
X174498Y-45545D01*
X174358Y-45515D01*
X174225Y-45500D01*
X174107Y-45493D01*
X174019Y-45485D01*
X173945Y-45478D01*
D02*
G37*
G36*
X166184Y-48736D02*
D01*
Y-50692D01*
X166176Y-50552D01*
X166169Y-50419D01*
X166154Y-50294D01*
X166132Y-50190D01*
X166110Y-50094D01*
X166095Y-50028D01*
X166088Y-49984D01*
X166081Y-49976D01*
Y-49969D01*
X166044Y-49851D01*
X165999Y-49740D01*
X165955Y-49652D01*
X165918Y-49578D01*
X165889Y-49519D01*
X165859Y-49474D01*
X165844Y-49445D01*
X165837Y-49437D01*
X165763Y-49342D01*
X165689Y-49260D01*
X165608Y-49187D01*
X165534Y-49135D01*
X165468Y-49083D01*
X165416Y-49054D01*
X165387Y-49032D01*
X165372Y-49024D01*
X165269Y-48973D01*
X165158Y-48936D01*
X165055Y-48913D01*
X164959Y-48899D01*
X164878Y-48884D01*
X164819Y-48877D01*
X164774D01*
X164767D01*
X164760D01*
X164627Y-48884D01*
X164501Y-48906D01*
X164391Y-48936D01*
X164295Y-48965D01*
X164213Y-48995D01*
X164147Y-49024D01*
X164110Y-49046D01*
X164095Y-49054D01*
X163992Y-49128D01*
X163896Y-49216D01*
X163822Y-49305D01*
X163756Y-49393D01*
X163697Y-49474D01*
X163660Y-49534D01*
X163638Y-49578D01*
X163630Y-49585D01*
Y-49593D01*
X163601Y-49666D01*
X163564Y-49755D01*
X163527Y-49843D01*
X163498Y-49947D01*
X163431Y-50161D01*
X163365Y-50367D01*
X163335Y-50471D01*
X163306Y-50567D01*
X163284Y-50655D01*
X163261Y-50729D01*
X163247Y-50788D01*
X163232Y-50840D01*
X163224Y-50869D01*
Y-50877D01*
X163195Y-50995D01*
X163165Y-51105D01*
X163136Y-51209D01*
X163106Y-51297D01*
X163084Y-51379D01*
X163062Y-51445D01*
X163040Y-51504D01*
X163018Y-51563D01*
X163003Y-51607D01*
X162988Y-51644D01*
X162966Y-51696D01*
X162951Y-51725D01*
X162944Y-51733D01*
X162878Y-51814D01*
X162804Y-51880D01*
X162730Y-51925D01*
X162656Y-51954D01*
X162597Y-51969D01*
X162538Y-51984D01*
X162509D01*
X162494D01*
X162376Y-51969D01*
X162273Y-51939D01*
X162177Y-51895D01*
X162095Y-51843D01*
X162029Y-51792D01*
X161985Y-51748D01*
X161948Y-51718D01*
X161940Y-51703D01*
X161867Y-51585D01*
X161808Y-51452D01*
X161771Y-51305D01*
X161741Y-51164D01*
X161726Y-51039D01*
X161719Y-50987D01*
Y-50936D01*
X161712Y-50899D01*
Y-50840D01*
X161726Y-50640D01*
X161756Y-50463D01*
X161793Y-50308D01*
X161844Y-50183D01*
X161889Y-50080D01*
X161933Y-50006D01*
X161962Y-49962D01*
X161970Y-49954D01*
Y-49947D01*
X162081Y-49836D01*
X162199Y-49755D01*
X162331Y-49688D01*
X162457Y-49637D01*
X162568Y-49600D01*
X162612Y-49585D01*
X162656Y-49578D01*
X162693Y-49570D01*
X162715D01*
X162730Y-49563D01*
X162737D01*
X162605Y-48736D01*
X162464Y-48766D01*
X162324Y-48803D01*
X162199Y-48847D01*
X162088Y-48891D01*
X161977Y-48943D01*
X161881Y-48995D01*
X161793Y-49046D01*
X161712Y-49105D01*
X161645Y-49157D01*
X161586Y-49209D01*
X161535Y-49253D01*
X161490Y-49290D01*
X161461Y-49327D01*
X161439Y-49349D01*
X161424Y-49364D01*
X161416Y-49371D01*
X161350Y-49474D01*
X161291Y-49578D01*
X161232Y-49696D01*
X161188Y-49814D01*
X161121Y-50065D01*
X161077Y-50301D01*
X161055Y-50412D01*
X161047Y-50515D01*
X161040Y-50611D01*
X161033Y-50685D01*
X161025Y-50751D01*
Y-50847D01*
X161033Y-51061D01*
X161055Y-51253D01*
X161092Y-51430D01*
X161129Y-51585D01*
X161143Y-51652D01*
X161158Y-51711D01*
X161180Y-51762D01*
X161195Y-51806D01*
X161210Y-51843D01*
X161217Y-51866D01*
X161224Y-51880D01*
Y-51888D01*
X161306Y-52050D01*
X161394Y-52190D01*
X161490Y-52308D01*
X161586Y-52412D01*
X161667Y-52486D01*
X161734Y-52544D01*
X161778Y-52574D01*
X161785Y-52589D01*
X161793D01*
X161933Y-52670D01*
X162073Y-52736D01*
X162206Y-52781D01*
X162324Y-52810D01*
X162427Y-52825D01*
X162509Y-52840D01*
X162582D01*
X162737Y-52832D01*
X162878Y-52810D01*
X162996Y-52773D01*
X163099Y-52736D01*
X163188Y-52700D01*
X163247Y-52663D01*
X163284Y-52640D01*
X163298Y-52633D01*
X163402Y-52552D01*
X163490Y-52463D01*
X163564Y-52367D01*
X163623Y-52279D01*
X163675Y-52205D01*
X163704Y-52139D01*
X163726Y-52094D01*
X163734Y-52087D01*
Y-52080D01*
X163763Y-52006D01*
X163793Y-51925D01*
X163830Y-51836D01*
X163859Y-51740D01*
X163926Y-51541D01*
X163985Y-51334D01*
X164014Y-51238D01*
X164044Y-51142D01*
X164066Y-51061D01*
X164088Y-50995D01*
X164103Y-50928D01*
X164118Y-50884D01*
X164125Y-50854D01*
Y-50847D01*
X164154Y-50736D01*
X164184Y-50640D01*
X164206Y-50552D01*
X164228Y-50471D01*
X164250Y-50404D01*
X164265Y-50345D01*
X164280Y-50294D01*
X164295Y-50249D01*
X164317Y-50183D01*
X164331Y-50139D01*
X164339Y-50116D01*
Y-50109D01*
X164376Y-50035D01*
X164413Y-49969D01*
X164450Y-49910D01*
X164487Y-49866D01*
X164516Y-49829D01*
X164538Y-49806D01*
X164553Y-49792D01*
X164560Y-49784D01*
X164612Y-49755D01*
X164664Y-49733D01*
X164760Y-49703D01*
X164796Y-49696D01*
X164826Y-49688D01*
X164848D01*
X164856D01*
X164951Y-49696D01*
X165033Y-49725D01*
X165114Y-49762D01*
X165180Y-49814D01*
X165232Y-49858D01*
X165269Y-49895D01*
X165298Y-49925D01*
X165306Y-49932D01*
X165343Y-49984D01*
X165372Y-50035D01*
X165416Y-50161D01*
X165453Y-50301D01*
X165475Y-50434D01*
X165490Y-50559D01*
Y-50611D01*
X165498Y-50655D01*
Y-50751D01*
X165490Y-50928D01*
X165461Y-51076D01*
X165431Y-51209D01*
X165387Y-51319D01*
X165350Y-51401D01*
X165313Y-51460D01*
X165284Y-51496D01*
X165276Y-51511D01*
X165188Y-51600D01*
X165092Y-51674D01*
X164996Y-51733D01*
X164900Y-51777D01*
X164819Y-51806D01*
X164745Y-51821D01*
X164700Y-51836D01*
X164693D01*
X164686D01*
X164796Y-52655D01*
X164966Y-52618D01*
X165114Y-52574D01*
X165247Y-52530D01*
X165357Y-52478D01*
X165438Y-52434D01*
X165505Y-52397D01*
X165542Y-52367D01*
X165557Y-52360D01*
X165660Y-52271D01*
X165749Y-52168D01*
X165830Y-52065D01*
X165896Y-51961D01*
X165948Y-51858D01*
X165985Y-51784D01*
X165999Y-51755D01*
X166007Y-51733D01*
X166014Y-51718D01*
Y-51711D01*
X166073Y-51541D01*
X166110Y-51371D01*
X166140Y-51194D01*
X166162Y-51039D01*
X166176Y-50899D01*
Y-50840D01*
X166184Y-50788D01*
Y-52840D01*
D01*
Y-48736D01*
D02*
G37*
G36*
X178233Y-50770D02*
D01*
Y-54216D01*
X175782D01*
X175893Y-54128D01*
X175989Y-54032D01*
X176070Y-53936D01*
X176144Y-53847D01*
X176203Y-53766D01*
X176240Y-53707D01*
X176269Y-53663D01*
X176277Y-53655D01*
Y-53648D01*
X176343Y-53515D01*
X176388Y-53375D01*
X176424Y-53242D01*
X176446Y-53116D01*
X176461Y-53013D01*
X176469Y-52925D01*
Y-52740D01*
X176454Y-52629D01*
X176417Y-52423D01*
X176365Y-52238D01*
X176306Y-52076D01*
X176277Y-52002D01*
X176247Y-51943D01*
X176218Y-51884D01*
X176196Y-51840D01*
X176173Y-51803D01*
X176159Y-51773D01*
X176151Y-51758D01*
X176144Y-51751D01*
X176011Y-51574D01*
X175864Y-51426D01*
X175716Y-51301D01*
X175561Y-51198D01*
X175428Y-51117D01*
X175369Y-51087D01*
X175325Y-51057D01*
X175280Y-51043D01*
X175251Y-51028D01*
X175229Y-51013D01*
X175221D01*
X174993Y-50932D01*
X174757Y-50873D01*
X174535Y-50829D01*
X174328Y-50799D01*
X174232Y-50792D01*
X174144Y-50784D01*
X174070Y-50777D01*
X174004D01*
X173952Y-50770D01*
X173878D01*
X173605Y-50784D01*
X173354Y-50814D01*
X173236Y-50829D01*
X173126Y-50851D01*
X173022Y-50880D01*
X172926Y-50902D01*
X172845Y-50925D01*
X172764Y-50954D01*
X172697Y-50976D01*
X172646Y-50991D01*
X172601Y-51013D01*
X172572Y-51020D01*
X172550Y-51035D01*
X172543D01*
X172336Y-51146D01*
X172151Y-51271D01*
X171996Y-51397D01*
X171871Y-51522D01*
X171768Y-51633D01*
X171731Y-51677D01*
X171694Y-51722D01*
X171672Y-51758D01*
X171650Y-51781D01*
X171642Y-51795D01*
X171635Y-51803D01*
X171576Y-51899D01*
X171531Y-51995D01*
X171450Y-52179D01*
X171391Y-52364D01*
X171354Y-52533D01*
X171340Y-52607D01*
X171325Y-52674D01*
X171317Y-52733D01*
Y-52784D01*
X171310Y-52829D01*
Y-52784D01*
Y-52888D01*
X171317Y-53057D01*
X171340Y-53212D01*
X171376Y-53353D01*
X171428Y-53493D01*
X171480Y-53618D01*
X171539Y-53729D01*
X171605Y-53832D01*
X171679Y-53928D01*
X171746Y-54009D01*
X171812Y-54076D01*
X171871Y-54135D01*
X171930Y-54186D01*
X171974Y-54224D01*
X172011Y-54253D01*
X172033Y-54268D01*
X172041Y-54275D01*
X171421D01*
Y-55050D01*
X171310D01*
D01*
X178233D01*
Y-50770D01*
D02*
G37*
G36*
X166073Y-54057D02*
X161136D01*
Y-55009D01*
X162088D01*
Y-54057D01*
X165121D01*
Y-55009D01*
X166073D01*
Y-54057D01*
D02*
G37*
G36*
X168058Y-55843D02*
X161018D01*
X168058D01*
Y-57821D01*
X161018Y-55843D01*
Y-56515D01*
X168032Y-58485D01*
D01*
X168058Y-58493D01*
Y-60463D01*
X161044Y-58493D01*
D01*
X161018Y-58485D01*
Y-59157D01*
X168058Y-61135D01*
D01*
Y-55843D01*
D02*
G37*
G36*
X172779Y-56091D02*
X172720D01*
X172609Y-56098D01*
X172498Y-56113D01*
X172395Y-56128D01*
X172299Y-56157D01*
X172122Y-56231D01*
X171982Y-56312D01*
X171915Y-56349D01*
X171863Y-56386D01*
X171812Y-56423D01*
X171775Y-56460D01*
X171746Y-56489D01*
X171723Y-56504D01*
X171709Y-56519D01*
X171701Y-56526D01*
X171635Y-56615D01*
X171576Y-56703D01*
X171517Y-56806D01*
X171472Y-56902D01*
X171406Y-57109D01*
X171362Y-57316D01*
X171340Y-57404D01*
X171332Y-57493D01*
X171325Y-57574D01*
X171317Y-57640D01*
X171310Y-57692D01*
Y-57773D01*
X171317Y-57958D01*
X171332Y-58127D01*
X171362Y-58282D01*
X171391Y-58423D01*
X171421Y-58533D01*
X171435Y-58585D01*
X171450Y-58622D01*
X171458Y-58651D01*
X171465Y-58674D01*
X171472Y-58688D01*
Y-58696D01*
X171546Y-58858D01*
X171627Y-59021D01*
X171723Y-59168D01*
X171819Y-59308D01*
X171900Y-59426D01*
X171945Y-59471D01*
X171974Y-59515D01*
X172004Y-59552D01*
X172026Y-59574D01*
X172033Y-59589D01*
X172041Y-59596D01*
X171908Y-59611D01*
X171790Y-59633D01*
X171686Y-59662D01*
X171598Y-59692D01*
X171524Y-59714D01*
X171465Y-59736D01*
X171435Y-59751D01*
X171421Y-59759D01*
Y-60629D01*
X171524Y-60578D01*
X171635Y-60533D01*
X171731Y-60496D01*
X171819Y-60467D01*
X171900Y-60445D01*
X171959Y-60430D01*
X171996Y-60423D01*
X172011D01*
X172078Y-60415D01*
X172166Y-60408D01*
X172262Y-60400D01*
X172373Y-60393D01*
X172491Y-60386D01*
X172616D01*
X172867Y-60378D01*
X172985D01*
X173103Y-60371D01*
X173207D01*
X173303D01*
X173376D01*
X173435D01*
X173472D01*
X173487D01*
X174601D01*
X174705D01*
X174793D01*
X174875Y-60364D01*
X174956D01*
X175089Y-60356D01*
X175192Y-60349D01*
X175273Y-60342D01*
X175325Y-60334D01*
X175362Y-60327D01*
X175369D01*
X175495Y-60297D01*
X175605Y-60253D01*
X175701Y-60209D01*
X175782Y-60164D01*
X175849Y-60127D01*
X175900Y-60091D01*
X175930Y-60068D01*
X175937Y-60061D01*
X176019Y-59980D01*
X176092Y-59891D01*
X176159Y-59795D01*
X176210Y-59699D01*
X176255Y-59611D01*
X176284Y-59544D01*
X176299Y-59515D01*
X176306Y-59493D01*
X176314Y-59485D01*
Y-59478D01*
X176365Y-59323D01*
X176402Y-59153D01*
X176432Y-58984D01*
X176446Y-58821D01*
X176461Y-58681D01*
Y-58614D01*
X176469Y-58563D01*
Y-58400D01*
Y-58460D01*
X176461Y-58231D01*
X176439Y-58017D01*
X176410Y-57825D01*
X176395Y-57736D01*
X176380Y-57662D01*
X176365Y-57589D01*
X176351Y-57522D01*
X176336Y-57471D01*
X176321Y-57426D01*
X176306Y-57389D01*
X176299Y-57360D01*
X176292Y-57345D01*
Y-57338D01*
X176218Y-57168D01*
X176137Y-57020D01*
X176055Y-56895D01*
X175974Y-56792D01*
X175900Y-56710D01*
X175841Y-56652D01*
X175804Y-56615D01*
X175797Y-56600D01*
X175790D01*
X175664Y-56511D01*
X175524Y-56437D01*
X175384Y-56378D01*
X175251Y-56327D01*
X175133Y-56290D01*
X175081Y-56275D01*
X175037Y-56260D01*
X175000Y-56253D01*
X174970Y-56246D01*
X174956Y-56238D01*
X174948D01*
X174838Y-57057D01*
X174934Y-57087D01*
X175022Y-57116D01*
X175170Y-57175D01*
X175303Y-57249D01*
X175399Y-57316D01*
X175472Y-57375D01*
X175531Y-57426D01*
X175561Y-57456D01*
X175568Y-57471D01*
X175635Y-57589D01*
X175686Y-57729D01*
X175723Y-57869D01*
X175753Y-58009D01*
X175768Y-58142D01*
Y-58194D01*
X175775Y-58246D01*
Y-58341D01*
X175760Y-58563D01*
X175731Y-58755D01*
X175686Y-58917D01*
X175635Y-59050D01*
X175576Y-59153D01*
X175554Y-59190D01*
X175531Y-59227D01*
X175517Y-59257D01*
X175502Y-59271D01*
X175487Y-59286D01*
X175399Y-59367D01*
X175288Y-59426D01*
X175170Y-59471D01*
X175052Y-59500D01*
X174941Y-59515D01*
X174852Y-59530D01*
X174823D01*
X174793D01*
X174779D01*
X174771D01*
X174749D01*
X174720D01*
X174646D01*
X174616Y-59522D01*
X174587D01*
X174565D01*
X174557D01*
X174528Y-59426D01*
X174498Y-59323D01*
X174469Y-59205D01*
X174439Y-59087D01*
X174388Y-58843D01*
X174343Y-58600D01*
X174328Y-58482D01*
X174314Y-58378D01*
X174299Y-58282D01*
X174284Y-58194D01*
X174277Y-58127D01*
X174269Y-58076D01*
X174262Y-58046D01*
Y-58031D01*
X174240Y-57854D01*
X174218Y-57707D01*
X174196Y-57574D01*
X174181Y-57471D01*
X174159Y-57389D01*
X174151Y-57330D01*
X174137Y-57301D01*
Y-57286D01*
X174100Y-57168D01*
X174055Y-57050D01*
X174011Y-56947D01*
X173967Y-56858D01*
X173930Y-56784D01*
X173893Y-56733D01*
X173871Y-56696D01*
X173863Y-56681D01*
X173790Y-56585D01*
X173716Y-56504D01*
X173635Y-56430D01*
X173561Y-56371D01*
X173487Y-56319D01*
X173435Y-56283D01*
X173399Y-56260D01*
X173384Y-56253D01*
X173266Y-56201D01*
X173155Y-56157D01*
X173044Y-56128D01*
X172941Y-56113D01*
X172852Y-56098D01*
X172779Y-56091D01*
D02*
G37*
G36*
X176469Y-60629D02*
X171310D01*
D01*
X176469D01*
D01*
D02*
G37*
G36*
X166184Y-61474D02*
D01*
Y-63843D01*
X166176Y-63614D01*
X166154Y-63401D01*
X166125Y-63209D01*
X166110Y-63120D01*
X166095Y-63046D01*
X166081Y-62972D01*
X166066Y-62906D01*
X166051Y-62854D01*
X166036Y-62810D01*
X166022Y-62773D01*
X166014Y-62744D01*
X166007Y-62729D01*
Y-62722D01*
X165933Y-62552D01*
X165852Y-62404D01*
X165771Y-62279D01*
X165689Y-62175D01*
X165616Y-62094D01*
X165557Y-62035D01*
X165520Y-61998D01*
X165512Y-61984D01*
X165505D01*
X165380Y-61895D01*
X165239Y-61821D01*
X165099Y-61762D01*
X164966Y-61711D01*
X164848Y-61674D01*
X164796Y-61659D01*
X164752Y-61644D01*
X164715Y-61637D01*
X164686Y-61629D01*
X164671Y-61622D01*
X164664D01*
X164553Y-62441D01*
X164649Y-62471D01*
X164737Y-62500D01*
X164885Y-62559D01*
X165018Y-62633D01*
X165114Y-62699D01*
X165188Y-62758D01*
X165247Y-62810D01*
X165276Y-62840D01*
X165284Y-62854D01*
X165350Y-62972D01*
X165402Y-63113D01*
X165438Y-63253D01*
X165468Y-63393D01*
X165483Y-63526D01*
Y-63578D01*
X165490Y-63629D01*
Y-63725D01*
X165475Y-63947D01*
X165446Y-64139D01*
X165402Y-64301D01*
X165350Y-64434D01*
X165291Y-64537D01*
X165269Y-64574D01*
X165247Y-64611D01*
X165232Y-64640D01*
X165217Y-64655D01*
X165202Y-64670D01*
X165114Y-64751D01*
X165003Y-64810D01*
X164885Y-64854D01*
X164767Y-64884D01*
X164656Y-64899D01*
X164568Y-64913D01*
X164538D01*
X164509D01*
X164494D01*
X164487D01*
X164464D01*
X164435D01*
X164361D01*
X164331Y-64906D01*
X164302D01*
X164280D01*
X164272D01*
X164243Y-64810D01*
X164213Y-64707D01*
X164184Y-64589D01*
X164154Y-64471D01*
X164103Y-64227D01*
X164058Y-63984D01*
X164044Y-63865D01*
X164029Y-63762D01*
X164014Y-63666D01*
X163999Y-63578D01*
X163992Y-63511D01*
X163985Y-63459D01*
X163977Y-63430D01*
Y-63415D01*
X163955Y-63238D01*
X163933Y-63090D01*
X163911Y-62958D01*
X163896Y-62854D01*
X163874Y-62773D01*
X163867Y-62714D01*
X163852Y-62685D01*
Y-62670D01*
X163815Y-62552D01*
X163771Y-62434D01*
X163726Y-62330D01*
X163682Y-62242D01*
X163645Y-62168D01*
X163608Y-62116D01*
X163586Y-62080D01*
X163579Y-62065D01*
X163505Y-61969D01*
X163431Y-61888D01*
X163350Y-61814D01*
X163276Y-61755D01*
X163202Y-61703D01*
X163151Y-61666D01*
X163114Y-61644D01*
X163099Y-61637D01*
X162981Y-61585D01*
X162870Y-61541D01*
X162760Y-61511D01*
X162656Y-61496D01*
X162568Y-61482D01*
X162494Y-61474D01*
X166184D01*
X161025D01*
D01*
X162435D01*
X162324Y-61482D01*
X162213Y-61496D01*
X162110Y-61511D01*
X162014Y-61541D01*
X161837Y-61615D01*
X161697Y-61696D01*
X161630Y-61733D01*
X161579Y-61769D01*
X161527Y-61806D01*
X161490Y-61843D01*
X161461Y-61873D01*
X161439Y-61888D01*
X161424Y-61902D01*
X161416Y-61910D01*
X161350Y-61998D01*
X161291Y-62087D01*
X161232Y-62190D01*
X161188Y-62286D01*
X161121Y-62493D01*
X161077Y-62699D01*
X161055Y-62788D01*
X161047Y-62876D01*
X161040Y-62958D01*
X161033Y-63024D01*
X161025Y-63076D01*
Y-63157D01*
X161033Y-63341D01*
X161047Y-63511D01*
X161077Y-63666D01*
X161106Y-63806D01*
X161136Y-63917D01*
X161151Y-63969D01*
X161165Y-64006D01*
X161173Y-64035D01*
X161180Y-64057D01*
X161188Y-64072D01*
Y-64079D01*
X161261Y-64242D01*
X161343Y-64404D01*
X161439Y-64552D01*
X161535Y-64692D01*
X161616Y-64810D01*
X161660Y-64854D01*
X161689Y-64899D01*
X161719Y-64935D01*
X161741Y-64958D01*
X161749Y-64972D01*
X161756Y-64980D01*
X161623Y-64995D01*
X161505Y-65017D01*
X161402Y-65046D01*
X161313Y-65076D01*
X161239Y-65098D01*
X161180Y-65120D01*
X161151Y-65135D01*
X161136Y-65142D01*
Y-66013D01*
D01*
X161239Y-65961D01*
X161350Y-65917D01*
X161446Y-65880D01*
X161535Y-65851D01*
X161616Y-65829D01*
X161675Y-65814D01*
X161712Y-65806D01*
X161726D01*
X161793Y-65799D01*
X161881Y-65792D01*
X161977Y-65784D01*
X162088Y-65777D01*
X162206Y-65769D01*
X162331D01*
X162582Y-65762D01*
X162700D01*
X162819Y-65755D01*
X162922D01*
X163018D01*
X163092D01*
X163151D01*
X163188D01*
X163202D01*
X164317D01*
X164420D01*
X164509D01*
X164590Y-65747D01*
X164671D01*
X164804Y-65740D01*
X164907Y-65733D01*
X164988Y-65725D01*
X165040Y-65718D01*
X165077Y-65710D01*
X165084D01*
X165210Y-65681D01*
X165320Y-65637D01*
X165416Y-65592D01*
X165498Y-65548D01*
X165564Y-65511D01*
X165616Y-65474D01*
X165645Y-65452D01*
X165653Y-65445D01*
X165734Y-65364D01*
X165807Y-65275D01*
X165874Y-65179D01*
X165926Y-65083D01*
X165970Y-64995D01*
X165999Y-64928D01*
X166014Y-64899D01*
X166022Y-64877D01*
X166029Y-64869D01*
Y-64862D01*
X166081Y-64707D01*
X166118Y-64537D01*
X166147Y-64367D01*
X166162Y-64205D01*
X166176Y-64065D01*
Y-63998D01*
X166184Y-63947D01*
Y-66013D01*
D01*
Y-61474D01*
D02*
G37*
G36*
X176358Y-61663D02*
X171421D01*
Y-62496D01*
X174114D01*
X174284Y-62504D01*
X174446Y-62511D01*
X174587Y-62533D01*
X174720Y-62555D01*
X174838Y-62585D01*
X174941Y-62615D01*
X175037Y-62651D01*
X175118Y-62688D01*
X175192Y-62725D01*
X175251Y-62762D01*
X175295Y-62792D01*
X175339Y-62821D01*
X175369Y-62843D01*
X175391Y-62865D01*
X175399Y-62873D01*
X175406Y-62880D01*
X175465Y-62954D01*
X175517Y-63035D01*
X175605Y-63190D01*
X175664Y-63345D01*
X175701Y-63485D01*
X175731Y-63611D01*
X175738Y-63670D01*
Y-63714D01*
X175745Y-63751D01*
Y-63803D01*
X175738Y-63928D01*
X175723Y-64039D01*
X175694Y-64135D01*
X175672Y-64223D01*
X175642Y-64290D01*
X175613Y-64341D01*
X175598Y-64378D01*
X175590Y-64386D01*
X175531Y-64474D01*
X175465Y-64548D01*
X175399Y-64607D01*
X175332Y-64651D01*
X175273Y-64688D01*
X175229Y-64710D01*
X175199Y-64725D01*
X175185Y-64733D01*
X175081Y-64770D01*
X174963Y-64792D01*
X174838Y-64814D01*
X174712Y-64821D01*
X174601Y-64828D01*
X174550Y-64836D01*
X174506D01*
X174476D01*
X174446D01*
X174432D01*
X174424D01*
X171421D01*
Y-65670D01*
X176469D01*
D01*
X174653D01*
X174749Y-65662D01*
X174830D01*
X174904Y-65655D01*
X174970D01*
X175081Y-65648D01*
X175162Y-65633D01*
X175221Y-65626D01*
X175258Y-65618D01*
X175266D01*
X175399Y-65589D01*
X175517Y-65544D01*
X175620Y-65508D01*
X175708Y-65463D01*
X175782Y-65419D01*
X175841Y-65389D01*
X175871Y-65367D01*
X175886Y-65360D01*
X175982Y-65286D01*
X176063Y-65197D01*
X176129Y-65102D01*
X176196Y-65013D01*
X176240Y-64925D01*
X176277Y-64858D01*
X176299Y-64814D01*
X176306Y-64806D01*
Y-64799D01*
X176358Y-64659D01*
X176402Y-64519D01*
X176432Y-64378D01*
X176446Y-64253D01*
X176461Y-64142D01*
Y-64098D01*
X176469Y-64054D01*
Y-63924D01*
Y-63980D01*
X176461Y-63795D01*
X176432Y-63618D01*
X176395Y-63456D01*
X176343Y-63301D01*
X176277Y-63161D01*
X176210Y-63035D01*
X176137Y-62917D01*
X176063Y-62814D01*
X175982Y-62718D01*
X175908Y-62637D01*
X175841Y-62570D01*
X175775Y-62519D01*
X175723Y-62474D01*
X175686Y-62437D01*
X175657Y-62423D01*
X175649Y-62415D01*
X176358D01*
Y-61663D01*
D02*
G37*
G36*
X173996Y-69544D02*
X173886D01*
X173650Y-69552D01*
X173421Y-69567D01*
X173199Y-69589D01*
X172978Y-69618D01*
X172771Y-69655D01*
X172572Y-69692D01*
X172380Y-69736D01*
X172203Y-69780D01*
X172048Y-69825D01*
X171900Y-69869D01*
X171775Y-69906D01*
X171664Y-69943D01*
X171583Y-69972D01*
X171517Y-69994D01*
X171480Y-70009D01*
X171465Y-70017D01*
X171251Y-70113D01*
X171044Y-70209D01*
X170845Y-70305D01*
X170653Y-70400D01*
X170476Y-70504D01*
X170306Y-70600D01*
X170151Y-70696D01*
X170004Y-70784D01*
X169878Y-70865D01*
X169760Y-70947D01*
X169657Y-71013D01*
X169576Y-71072D01*
X169509Y-71124D01*
X169458Y-71161D01*
X169428Y-71183D01*
X169421Y-71190D01*
Y-69544D01*
D01*
Y-71788D01*
X178343D01*
Y-71190D01*
X178122Y-71028D01*
X177908Y-70880D01*
X177694Y-70747D01*
X177487Y-70614D01*
X177280Y-70504D01*
X177089Y-70393D01*
X176904Y-70297D01*
X176734Y-70216D01*
X176572Y-70142D01*
X176432Y-70076D01*
X176306Y-70024D01*
X176203Y-69980D01*
X176114Y-69943D01*
X176048Y-69921D01*
X176011Y-69906D01*
X175996Y-69899D01*
X175804Y-69840D01*
X175613Y-69780D01*
X175244Y-69692D01*
X175059Y-69662D01*
X174882Y-69633D01*
X174720Y-69611D01*
X174565Y-69589D01*
X174417Y-69574D01*
X174284Y-69567D01*
X174173Y-69552D01*
X174070D01*
X173996Y-69544D01*
D02*
G37*
G36*
X166184Y-67039D02*
X161136D01*
Y-67873D01*
X163697D01*
X163822D01*
X163933Y-67880D01*
X164044Y-67888D01*
X164140Y-67895D01*
X164236Y-67902D01*
X164317Y-67917D01*
X164391Y-67924D01*
X164464Y-67939D01*
X164523Y-67954D01*
X164575Y-67961D01*
X164619Y-67976D01*
X164656Y-67984D01*
X164686Y-67991D01*
X164708Y-67998D01*
X164715Y-68006D01*
X164723D01*
X164848Y-68065D01*
X164959Y-68131D01*
X165055Y-68205D01*
X165129Y-68279D01*
X165195Y-68338D01*
X165232Y-68389D01*
X165261Y-68426D01*
X165269Y-68441D01*
X165335Y-68559D01*
X165380Y-68670D01*
X165416Y-68780D01*
X165438Y-68884D01*
X165453Y-68972D01*
X165461Y-69039D01*
Y-69098D01*
X165446Y-69260D01*
X165416Y-69400D01*
X165372Y-69511D01*
X165320Y-69607D01*
X165269Y-69674D01*
X165225Y-69725D01*
X165195Y-69755D01*
X165180Y-69762D01*
X165062Y-69828D01*
X164929Y-69880D01*
X164789Y-69917D01*
X164656Y-69946D01*
X164531Y-69961D01*
X164479D01*
X164435Y-69969D01*
X164391D01*
X164361D01*
X164346D01*
X164339D01*
X161136D01*
Y-70803D01*
X163999D01*
X164140Y-70810D01*
X164265Y-70817D01*
X164391Y-70832D01*
X164501Y-70854D01*
X164597Y-70884D01*
X164693Y-70913D01*
X164774Y-70943D01*
X164848Y-70980D01*
X164907Y-71009D01*
X164966Y-71039D01*
X165010Y-71068D01*
X165047Y-71098D01*
X165077Y-71120D01*
X165099Y-71135D01*
X165106Y-71149D01*
X165114D01*
X165173Y-71216D01*
X165232Y-71290D01*
X165313Y-71430D01*
X165380Y-71578D01*
X165416Y-71718D01*
X165446Y-71836D01*
X165453Y-71887D01*
Y-71932D01*
X165461Y-71969D01*
Y-72020D01*
X165453Y-72124D01*
X165438Y-72220D01*
X165416Y-72308D01*
X165394Y-72382D01*
X165365Y-72441D01*
X165343Y-72485D01*
X165328Y-72515D01*
X165320Y-72522D01*
X165269Y-72596D01*
X165210Y-72662D01*
X165151Y-72707D01*
X165092Y-72751D01*
X165040Y-72781D01*
X165003Y-72803D01*
X164974Y-72817D01*
X164966D01*
X164870Y-72847D01*
X164760Y-72862D01*
X164641Y-72876D01*
X164523Y-72891D01*
X164413D01*
X164324Y-72899D01*
X164295D01*
X164265D01*
X164250D01*
X164243D01*
X161136D01*
Y-73733D01*
X164523D01*
X164678Y-73725D01*
X164819Y-73718D01*
X164951Y-73696D01*
X165077Y-73673D01*
X165188Y-73644D01*
X165291Y-73607D01*
X165380Y-73570D01*
X165461Y-73533D01*
X165534Y-73496D01*
X165601Y-73459D01*
X165653Y-73430D01*
X165697Y-73393D01*
X165726Y-73371D01*
X165749Y-73349D01*
X165763Y-73341D01*
X165771Y-73334D01*
X165844Y-73260D01*
X165911Y-73172D01*
X165963Y-73083D01*
X166007Y-72995D01*
X166081Y-72803D01*
X166132Y-72625D01*
X166147Y-72537D01*
X166162Y-72456D01*
X166169Y-72389D01*
X166176Y-72323D01*
X166184Y-72279D01*
Y-73733D01*
D01*
Y-69282D01*
X166176Y-69105D01*
X166147Y-68936D01*
X166118Y-68788D01*
X166073Y-68655D01*
X166036Y-68552D01*
X166014Y-68507D01*
X165999Y-68471D01*
X165985Y-68441D01*
X165970Y-68419D01*
X165963Y-68411D01*
Y-68404D01*
X165874Y-68264D01*
X165778Y-68146D01*
X165682Y-68042D01*
X165586Y-67954D01*
X165505Y-67880D01*
X165438Y-67829D01*
X165394Y-67799D01*
X165387Y-67784D01*
X166073D01*
Y-67039D01*
X166184D01*
D02*
G37*
G36*
X178233Y-72356D02*
X177428D01*
Y-74600D01*
X171421D01*
Y-77744D01*
X178233D01*
Y-72356D01*
D02*
G37*
G36*
X166184Y-74972D02*
X159247D01*
Y-75806D01*
X161645D01*
X161549Y-75887D01*
X161461Y-75976D01*
X161380Y-76065D01*
X161320Y-76153D01*
X161269Y-76227D01*
X161224Y-76293D01*
X161202Y-76330D01*
X161195Y-76345D01*
X161136Y-76471D01*
X161099Y-76603D01*
X161070Y-76729D01*
X161047Y-76847D01*
X161033Y-76950D01*
X161025Y-77024D01*
Y-77098D01*
X161033Y-77209D01*
X161040Y-77312D01*
X161077Y-77511D01*
X161129Y-77696D01*
X161188Y-77858D01*
X161217Y-77932D01*
X161239Y-77998D01*
X161269Y-78050D01*
X161291Y-78101D01*
X161313Y-78138D01*
X161328Y-78168D01*
X161343Y-78183D01*
Y-78190D01*
X161475Y-78374D01*
X161623Y-78530D01*
X161778Y-78670D01*
X161933Y-78780D01*
X162066Y-78869D01*
X162125Y-78899D01*
X162177Y-78928D01*
X162213Y-78950D01*
X162243Y-78965D01*
X162265Y-78980D01*
X162273D01*
X162509Y-79068D01*
X162745Y-79135D01*
X162974Y-79186D01*
X163180Y-79216D01*
X163276Y-79231D01*
X163365Y-79238D01*
X163446Y-79245D01*
X163512D01*
X163564Y-79253D01*
X163638D01*
X163896Y-79245D01*
X164140Y-79216D01*
X164361Y-79172D01*
X164457Y-79149D01*
X164553Y-79127D01*
X164634Y-79105D01*
X164715Y-79083D01*
X164782Y-79061D01*
X164833Y-79039D01*
X164878Y-79024D01*
X164907Y-79009D01*
X164929Y-79002D01*
X164937D01*
X165143Y-78899D01*
X165328Y-78788D01*
X165483Y-78662D01*
X165616Y-78544D01*
X165719Y-78441D01*
X165793Y-78352D01*
X165815Y-78316D01*
X165837Y-78293D01*
X165852Y-78279D01*
Y-78271D01*
X165911Y-78183D01*
X165963Y-78087D01*
X166044Y-77895D01*
X166103Y-77710D01*
X166140Y-77533D01*
X166154Y-77452D01*
X166169Y-77386D01*
X166176Y-77319D01*
Y-77260D01*
X166184Y-77216D01*
Y-78965D01*
Y-77157D01*
X166176Y-76987D01*
X166154Y-76825D01*
X166125Y-76684D01*
X166088Y-76566D01*
X166051Y-76471D01*
X166022Y-76397D01*
X165999Y-76352D01*
X165992Y-76345D01*
Y-76338D01*
X165911Y-76212D01*
X165822Y-76101D01*
X165726Y-75998D01*
X165638Y-75910D01*
X165557Y-75836D01*
X165483Y-75777D01*
X165438Y-75747D01*
X165431Y-75732D01*
X166073D01*
Y-74972D01*
X166184D01*
D02*
G37*
G36*
X176358Y-78548D02*
X173111D01*
X172948Y-78555D01*
X172816Y-78563D01*
X172705Y-78570D01*
X172624Y-78577D01*
X172557Y-78585D01*
X172528Y-78592D01*
X172513D01*
X172380Y-78629D01*
X172262Y-78666D01*
X172159Y-78710D01*
X172070Y-78755D01*
X171996Y-78791D01*
X171937Y-78821D01*
X171908Y-78843D01*
X171893Y-78851D01*
X171804Y-78924D01*
X171723Y-79013D01*
X171650Y-79109D01*
X171590Y-79197D01*
X171539Y-79286D01*
X171502Y-79352D01*
X171480Y-79397D01*
X171472Y-79404D01*
Y-79411D01*
X171421Y-79559D01*
X171376Y-79699D01*
X171347Y-79839D01*
X171332Y-79965D01*
X171317Y-80076D01*
X171310Y-80157D01*
Y-78548D01*
Y-82548D01*
X176358D01*
Y-81714D01*
X173708D01*
X173487Y-81707D01*
X173295Y-81692D01*
X173133Y-81670D01*
X172993Y-81647D01*
X172934Y-81633D01*
X172889Y-81618D01*
X172845Y-81603D01*
X172808Y-81596D01*
X172786Y-81589D01*
X172764Y-81581D01*
X172757Y-81574D01*
X172749D01*
X172631Y-81515D01*
X172528Y-81441D01*
X172439Y-81360D01*
X172365Y-81286D01*
X172306Y-81212D01*
X172262Y-81153D01*
X172232Y-81116D01*
X172225Y-81109D01*
Y-81101D01*
X172159Y-80976D01*
X172115Y-80858D01*
X172078Y-80740D01*
X172055Y-80629D01*
X172041Y-80533D01*
X172033Y-80467D01*
Y-80400D01*
X172041Y-80268D01*
X172063Y-80142D01*
X172092Y-80031D01*
X172129Y-79943D01*
X172159Y-79869D01*
X172188Y-79810D01*
X172210Y-79780D01*
X172218Y-79766D01*
X172292Y-79677D01*
X172380Y-79603D01*
X172461Y-79544D01*
X172543Y-79500D01*
X172616Y-79463D01*
X172683Y-79441D01*
X172720Y-79434D01*
X172734Y-79426D01*
X172779Y-79419D01*
X172838Y-79411D01*
X172970Y-79404D01*
X173118Y-79389D01*
X173266D01*
X173399Y-79382D01*
X173458D01*
X173517D01*
X173561D01*
X173591D01*
X173613D01*
X173620D01*
X176358D01*
Y-78548D01*
D02*
G37*
G36*
X166184Y-80264D02*
X161136D01*
Y-81098D01*
X163830D01*
X163999Y-81105D01*
X164162Y-81112D01*
X164302Y-81135D01*
X164435Y-81157D01*
X164553Y-81186D01*
X164656Y-81216D01*
X164752Y-81253D01*
X164833Y-81290D01*
X164907Y-81327D01*
X164966Y-81363D01*
X165010Y-81393D01*
X165055Y-81422D01*
X165084Y-81445D01*
X165106Y-81467D01*
X165114Y-81474D01*
X165121Y-81481D01*
X165180Y-81555D01*
X165232Y-81637D01*
X165320Y-81791D01*
X165380Y-81946D01*
X165416Y-82087D01*
X165446Y-82212D01*
X165453Y-82271D01*
Y-82315D01*
X165461Y-82352D01*
Y-82404D01*
X165453Y-82529D01*
X165438Y-82640D01*
X165409Y-82736D01*
X165387Y-82825D01*
X165357Y-82891D01*
X165328Y-82943D01*
X165313Y-82980D01*
X165306Y-82987D01*
X165247Y-83076D01*
X165180Y-83149D01*
X165114Y-83208D01*
X165047Y-83253D01*
X164988Y-83290D01*
X164944Y-83312D01*
X164915Y-83327D01*
X164900Y-83334D01*
X164796Y-83371D01*
X164678Y-83393D01*
X164553Y-83415D01*
X164427Y-83422D01*
X164317Y-83430D01*
X164265Y-83437D01*
X164221D01*
X164191D01*
X164162D01*
X164147D01*
X164140D01*
X161136D01*
Y-84271D01*
X164368D01*
X164464Y-84264D01*
X164546D01*
X164619Y-84256D01*
X164686D01*
X164796Y-84249D01*
X164878Y-84234D01*
X164937Y-84227D01*
X164974Y-84219D01*
X164981D01*
X165114Y-84190D01*
X165232Y-84146D01*
X165335Y-84109D01*
X165424Y-84065D01*
X165498Y-84020D01*
X165557Y-83991D01*
X165586Y-83969D01*
X165601Y-83961D01*
X165697Y-83887D01*
X165778Y-83799D01*
X165844Y-83703D01*
X165911Y-83614D01*
X165955Y-83526D01*
X165992Y-83459D01*
X166014Y-83415D01*
X166022Y-83408D01*
Y-83400D01*
X166073Y-83260D01*
X166118Y-83120D01*
X166147Y-82980D01*
X166162Y-82854D01*
X166176Y-82744D01*
Y-82699D01*
X166184Y-82655D01*
Y-82581D01*
X166176Y-82397D01*
X166147Y-82219D01*
X166110Y-82057D01*
X166058Y-81902D01*
X165992Y-81762D01*
X165926Y-81637D01*
X165852Y-81518D01*
X165778Y-81415D01*
X165697Y-81319D01*
X165623Y-81238D01*
X165557Y-81172D01*
X165490Y-81120D01*
X165438Y-81076D01*
X165402Y-81039D01*
X165372Y-81024D01*
X165365Y-81016D01*
X166073D01*
Y-80264D01*
X166184D01*
D02*
G37*
G36*
X178233Y-83839D02*
X171421D01*
Y-84673D01*
X178233D01*
Y-83839D01*
D02*
G37*
G36*
X166073Y-85533D02*
X161025D01*
D01*
X162826D01*
X162664Y-85540D01*
X162531Y-85548D01*
X162420Y-85555D01*
X162339Y-85563D01*
X162273Y-85570D01*
X162243Y-85577D01*
X162228D01*
X162095Y-85614D01*
X161977Y-85651D01*
X161874Y-85695D01*
X161785Y-85740D01*
X161712Y-85777D01*
X161653Y-85806D01*
X161623Y-85828D01*
X161608Y-85836D01*
X161520Y-85909D01*
X161439Y-85998D01*
X161365Y-86094D01*
X161306Y-86182D01*
X161254Y-86271D01*
X161217Y-86338D01*
X161195Y-86382D01*
X161188Y-86389D01*
Y-86397D01*
X161136Y-86544D01*
X161092Y-86684D01*
X161062Y-86825D01*
X161047Y-86950D01*
X161033Y-87061D01*
X161025Y-87142D01*
Y-87216D01*
X161033Y-87400D01*
X161062Y-87570D01*
X161099Y-87725D01*
X161158Y-87880D01*
X161217Y-88020D01*
X161291Y-88146D01*
X161365Y-88264D01*
X161446Y-88374D01*
X161520Y-88470D01*
X161593Y-88551D01*
X161667Y-88625D01*
X161726Y-88684D01*
X161785Y-88729D01*
X161822Y-88758D01*
X161852Y-88780D01*
X161859Y-88788D01*
X161136D01*
Y-89533D01*
X166073D01*
Y-88695D01*
Y-88699D01*
X163424D01*
X163202Y-88692D01*
X163011Y-88677D01*
X162848Y-88655D01*
X162708Y-88633D01*
X162649Y-88618D01*
X162605Y-88603D01*
X162560Y-88588D01*
X162523Y-88581D01*
X162501Y-88574D01*
X162479Y-88566D01*
X162472Y-88559D01*
X162464D01*
X162346Y-88500D01*
X162243Y-88426D01*
X162154Y-88345D01*
X162081Y-88271D01*
X162022Y-88197D01*
X161977Y-88138D01*
X161948Y-88101D01*
X161940Y-88094D01*
Y-88087D01*
X161874Y-87961D01*
X161830Y-87843D01*
X161793Y-87725D01*
X161771Y-87614D01*
X161756Y-87518D01*
X161749Y-87452D01*
Y-87385D01*
X161756Y-87253D01*
X161778Y-87127D01*
X161808Y-87016D01*
X161844Y-86928D01*
X161874Y-86854D01*
X161904Y-86795D01*
X161926Y-86766D01*
X161933Y-86751D01*
X162007Y-86662D01*
X162095Y-86588D01*
X162177Y-86529D01*
X162258Y-86485D01*
X162331Y-86448D01*
X162398Y-86426D01*
X162435Y-86419D01*
X162450Y-86411D01*
X162494Y-86404D01*
X162553Y-86397D01*
X162686Y-86389D01*
X162833Y-86374D01*
X162981D01*
X163114Y-86367D01*
X163173D01*
X163232D01*
X163276D01*
X163306D01*
X163328D01*
X163335D01*
X166073D01*
Y-87142D01*
Y-85533D01*
D02*
G37*
G36*
X172779Y-85692D02*
X172720D01*
X172609Y-85699D01*
X172498Y-85714D01*
X172395Y-85729D01*
X172299Y-85758D01*
X172122Y-85832D01*
X171982Y-85913D01*
X171915Y-85950D01*
X171863Y-85987D01*
X171812Y-86024D01*
X171775Y-86061D01*
X171746Y-86090D01*
X171723Y-86105D01*
X171709Y-86120D01*
X171701Y-86127D01*
X171635Y-86216D01*
X171576Y-86304D01*
X171517Y-86408D01*
X171472Y-86504D01*
X171406Y-86710D01*
X171362Y-86917D01*
X171340Y-87005D01*
X171332Y-87094D01*
X171325Y-87175D01*
X171317Y-87242D01*
X171310Y-87293D01*
Y-85692D01*
D01*
Y-90231D01*
X176469D01*
D01*
X171310D01*
Y-87374D01*
X171317Y-87559D01*
X171332Y-87729D01*
X171362Y-87884D01*
X171391Y-88024D01*
X171421Y-88135D01*
X171435Y-88186D01*
X171450Y-88223D01*
X171458Y-88253D01*
X171465Y-88275D01*
X171472Y-88289D01*
Y-88297D01*
X171546Y-88459D01*
X171627Y-88622D01*
X171723Y-88769D01*
X171819Y-88910D01*
X171900Y-89028D01*
X171945Y-89072D01*
X171974Y-89116D01*
X172004Y-89153D01*
X172026Y-89175D01*
X172033Y-89190D01*
X172041Y-89197D01*
X171908Y-89212D01*
X171790Y-89234D01*
X171686Y-89264D01*
X171598Y-89293D01*
X171524Y-89315D01*
X171465Y-89337D01*
X171435Y-89352D01*
X171421Y-89360D01*
Y-90231D01*
X171524Y-90179D01*
X171635Y-90135D01*
X171731Y-90098D01*
X171819Y-90068D01*
X171900Y-90046D01*
X171959Y-90031D01*
X171996Y-90024D01*
X172011D01*
X172078Y-90016D01*
X172166Y-90009D01*
X172262Y-90002D01*
X172373Y-89994D01*
X172491Y-89987D01*
X172616D01*
X172867Y-89979D01*
X172985D01*
X173103Y-89972D01*
X173207D01*
X173303D01*
X173376D01*
X173435D01*
X173472D01*
X173487D01*
X174601D01*
X174705D01*
X174793D01*
X174875Y-89965D01*
X174956D01*
X175089Y-89957D01*
X175192Y-89950D01*
X175273Y-89943D01*
X175325Y-89935D01*
X175362Y-89928D01*
X175369D01*
X175495Y-89898D01*
X175605Y-89854D01*
X175701Y-89810D01*
X175782Y-89766D01*
X175849Y-89729D01*
X175900Y-89692D01*
X175930Y-89670D01*
X175937Y-89662D01*
X176019Y-89581D01*
X176092Y-89492D01*
X176159Y-89397D01*
X176210Y-89301D01*
X176255Y-89212D01*
X176284Y-89146D01*
X176299Y-89116D01*
X176306Y-89094D01*
X176314Y-89087D01*
Y-89079D01*
X176365Y-88924D01*
X176402Y-88754D01*
X176432Y-88585D01*
X176446Y-88422D01*
X176461Y-88282D01*
Y-88216D01*
X176469Y-88164D01*
Y-88061D01*
X176461Y-87832D01*
X176439Y-87618D01*
X176410Y-87426D01*
X176395Y-87337D01*
X176380Y-87264D01*
X176365Y-87190D01*
X176351Y-87124D01*
X176336Y-87072D01*
X176321Y-87028D01*
X176306Y-86991D01*
X176299Y-86961D01*
X176292Y-86946D01*
Y-86939D01*
X176218Y-86769D01*
X176137Y-86622D01*
X176055Y-86496D01*
X175974Y-86393D01*
X175900Y-86312D01*
X175841Y-86253D01*
X175804Y-86216D01*
X175797Y-86201D01*
X175790D01*
X175664Y-86112D01*
X175524Y-86039D01*
X175384Y-85980D01*
X175251Y-85928D01*
X175133Y-85891D01*
X175081Y-85876D01*
X175037Y-85861D01*
X175000Y-85854D01*
X174970Y-85847D01*
X174956Y-85839D01*
X174948D01*
X174838Y-86659D01*
X174934Y-86688D01*
X175022Y-86718D01*
X175170Y-86777D01*
X175303Y-86850D01*
X175399Y-86917D01*
X175472Y-86976D01*
X175531Y-87028D01*
X175561Y-87057D01*
X175568Y-87072D01*
X175635Y-87190D01*
X175686Y-87330D01*
X175723Y-87470D01*
X175753Y-87611D01*
X175768Y-87743D01*
Y-87795D01*
X175775Y-87847D01*
Y-87943D01*
X175760Y-88164D01*
X175731Y-88356D01*
X175686Y-88518D01*
X175635Y-88651D01*
X175576Y-88754D01*
X175554Y-88791D01*
X175531Y-88828D01*
X175517Y-88858D01*
X175502Y-88873D01*
X175487Y-88887D01*
X175399Y-88968D01*
X175288Y-89028D01*
X175170Y-89072D01*
X175052Y-89101D01*
X174941Y-89116D01*
X174852Y-89131D01*
X174823D01*
X174793D01*
X174779D01*
X174771D01*
X174749D01*
X174720D01*
X174646D01*
X174616Y-89123D01*
X174587D01*
X174565D01*
X174557D01*
X174528Y-89028D01*
X174498Y-88924D01*
X174469Y-88806D01*
X174439Y-88688D01*
X174388Y-88445D01*
X174343Y-88201D01*
X174328Y-88083D01*
X174314Y-87980D01*
X174299Y-87884D01*
X174284Y-87795D01*
X174277Y-87729D01*
X174269Y-87677D01*
X174262Y-87647D01*
Y-87633D01*
X174240Y-87456D01*
X174218Y-87308D01*
X174196Y-87175D01*
X174181Y-87072D01*
X174159Y-86991D01*
X174151Y-86932D01*
X174137Y-86902D01*
Y-86887D01*
X174100Y-86769D01*
X174055Y-86651D01*
X174011Y-86548D01*
X173967Y-86459D01*
X173930Y-86386D01*
X173893Y-86334D01*
X173871Y-86297D01*
X173863Y-86282D01*
X173790Y-86186D01*
X173716Y-86105D01*
X173635Y-86031D01*
X173561Y-85972D01*
X173487Y-85921D01*
X173435Y-85884D01*
X173399Y-85861D01*
X173384Y-85854D01*
X173266Y-85803D01*
X173155Y-85758D01*
X173044Y-85729D01*
X172941Y-85714D01*
X172852Y-85699D01*
X172779Y-85692D01*
D02*
G37*
G36*
X172373Y-91426D02*
Y-91485D01*
X171421D01*
Y-91957D01*
X171273Y-91950D01*
X171140Y-91928D01*
X171030Y-91906D01*
X170941Y-91884D01*
X170867Y-91861D01*
X170816Y-91839D01*
X170779Y-91825D01*
X170771Y-91817D01*
X170690Y-91765D01*
X170624Y-91707D01*
X170565Y-91640D01*
X170513Y-91574D01*
X170476Y-91515D01*
X170447Y-91470D01*
X170432Y-91441D01*
X170424Y-91426D01*
D01*
X170070Y-91655D01*
X170144Y-91795D01*
X170225Y-91921D01*
X170306Y-92024D01*
X170387Y-92105D01*
X170461Y-92164D01*
X170520Y-92208D01*
X170557Y-92238D01*
X170572Y-92245D01*
X170705Y-92312D01*
X170845Y-92356D01*
X170985Y-92393D01*
X171118Y-92415D01*
X171236Y-92430D01*
X171288D01*
X171332Y-92437D01*
X170070D01*
Y-91655D01*
Y-91426D01*
Y-92437D01*
X172373D01*
Y-91426D01*
D02*
G37*
G36*
X167793Y-90367D02*
X161070D01*
D01*
X165424D01*
Y-90987D01*
X162575D01*
X162442D01*
X162317Y-90994D01*
X162206D01*
X162103Y-91002D01*
X162014Y-91009D01*
X161933Y-91016D01*
X161859Y-91024D01*
X161800Y-91039D01*
X161749Y-91046D01*
X161704Y-91053D01*
X161667Y-91061D01*
X161638Y-91068D01*
X161601Y-91075D01*
X161586Y-91083D01*
X161505Y-91127D01*
X161431Y-91179D01*
X161365Y-91238D01*
X161313Y-91297D01*
X161269Y-91356D01*
X161239Y-91400D01*
X161217Y-91430D01*
X161210Y-91437D01*
X161165Y-91540D01*
X161129Y-91651D01*
X161106Y-91769D01*
X161084Y-91887D01*
X161077Y-91991D01*
X161070Y-92072D01*
Y-92027D01*
Y-92146D01*
X161084Y-92367D01*
X161092Y-92470D01*
X161106Y-92566D01*
X161121Y-92655D01*
X161129Y-92721D01*
X161143Y-92765D01*
Y-92780D01*
D01*
X161881Y-92670D01*
X161874Y-92588D01*
X161867Y-92515D01*
X161859Y-92448D01*
Y-92396D01*
X161852Y-92352D01*
Y-92227D01*
X161859Y-92168D01*
X161874Y-92123D01*
X161881Y-92079D01*
X161896Y-92050D01*
X161904Y-92027D01*
X161911Y-92013D01*
Y-92005D01*
X161962Y-91946D01*
X162014Y-91902D01*
X162058Y-91873D01*
X162066Y-91865D01*
X162073D01*
X162125Y-91850D01*
X162191Y-91843D01*
X162265Y-91828D01*
X162339D01*
X162413Y-91821D01*
X162472D01*
X162516D01*
X162523D01*
X162531D01*
X165424D01*
Y-92670D01*
X166073D01*
Y-91821D01*
X167793D01*
Y-92670D01*
Y-90367D01*
D02*
G37*
G36*
X166184Y-93157D02*
X161025D01*
D01*
X166184D01*
D02*
G37*
G36*
X162605D02*
X162464Y-93186D01*
X162324Y-93223D01*
X162199Y-93267D01*
X162088Y-93312D01*
X161977Y-93363D01*
X161881Y-93415D01*
X161793Y-93467D01*
X161712Y-93526D01*
X161645Y-93577D01*
X161586Y-93629D01*
X161535Y-93673D01*
X161490Y-93710D01*
X161461Y-93747D01*
X161439Y-93769D01*
X161424Y-93784D01*
X161416Y-93791D01*
X161350Y-93895D01*
X161291Y-93998D01*
X161232Y-94116D01*
X161188Y-94234D01*
X161121Y-94485D01*
X161077Y-94721D01*
X161055Y-94832D01*
X161047Y-94935D01*
X161040Y-95031D01*
X161033Y-95105D01*
X161025Y-95171D01*
Y-97260D01*
Y-95267D01*
X161033Y-95481D01*
X161055Y-95673D01*
X161092Y-95850D01*
X161129Y-96005D01*
X161143Y-96072D01*
X161158Y-96131D01*
X161180Y-96182D01*
X161195Y-96227D01*
X161210Y-96264D01*
X161217Y-96286D01*
X161224Y-96301D01*
Y-96308D01*
X161306Y-96470D01*
X161394Y-96610D01*
X161490Y-96729D01*
X161586Y-96832D01*
X161667Y-96906D01*
X161734Y-96965D01*
X161778Y-96994D01*
X161785Y-97009D01*
X161793D01*
X161933Y-97090D01*
X162073Y-97157D01*
X162206Y-97201D01*
X162324Y-97230D01*
X162427Y-97245D01*
X162509Y-97260D01*
X162582D01*
X162737Y-97253D01*
X162878Y-97230D01*
X162996Y-97193D01*
X163099Y-97157D01*
X163188Y-97120D01*
X163247Y-97083D01*
X163284Y-97061D01*
X163298Y-97053D01*
X163402Y-96972D01*
X163490Y-96883D01*
X163564Y-96788D01*
X163623Y-96699D01*
X163675Y-96625D01*
X163704Y-96559D01*
X163726Y-96514D01*
X163734Y-96507D01*
Y-96500D01*
X163763Y-96426D01*
X163793Y-96345D01*
X163830Y-96256D01*
X163859Y-96160D01*
X163926Y-95961D01*
X163985Y-95754D01*
X164014Y-95658D01*
X164044Y-95562D01*
X164066Y-95481D01*
X164088Y-95415D01*
X164103Y-95349D01*
X164118Y-95304D01*
X164125Y-95275D01*
Y-95267D01*
X164154Y-95157D01*
X164184Y-95061D01*
X164206Y-94972D01*
X164228Y-94891D01*
X164250Y-94824D01*
X164265Y-94766D01*
X164280Y-94714D01*
X164295Y-94670D01*
X164317Y-94603D01*
X164331Y-94559D01*
X164339Y-94537D01*
Y-94529D01*
X164376Y-94455D01*
X164413Y-94389D01*
X164450Y-94330D01*
X164487Y-94286D01*
X164516Y-94249D01*
X164538Y-94227D01*
X164553Y-94212D01*
X164560Y-94205D01*
X164612Y-94175D01*
X164664Y-94153D01*
X164760Y-94123D01*
X164796Y-94116D01*
X164826Y-94109D01*
X164848D01*
X164856D01*
X164951Y-94116D01*
X165033Y-94146D01*
X165114Y-94182D01*
X165180Y-94234D01*
X165232Y-94278D01*
X165269Y-94315D01*
X165298Y-94345D01*
X165306Y-94352D01*
X165343Y-94404D01*
X165372Y-94455D01*
X165416Y-94581D01*
X165453Y-94721D01*
X165475Y-94854D01*
X165490Y-94980D01*
Y-95031D01*
X165498Y-95075D01*
Y-95171D01*
X165490Y-95349D01*
X165461Y-95496D01*
X165431Y-95629D01*
X165387Y-95740D01*
X165350Y-95821D01*
X165313Y-95880D01*
X165284Y-95917D01*
X165276Y-95932D01*
X165188Y-96020D01*
X165092Y-96094D01*
X164996Y-96153D01*
X164900Y-96197D01*
X164819Y-96227D01*
X164745Y-96241D01*
X164700Y-96256D01*
X164693D01*
X164686D01*
X164796Y-97075D01*
X164966Y-97039D01*
X165114Y-96994D01*
X165247Y-96950D01*
X165357Y-96898D01*
X165438Y-96854D01*
X165505Y-96817D01*
X165542Y-96788D01*
X165557Y-96780D01*
X165660Y-96692D01*
X165749Y-96588D01*
X165830Y-96485D01*
X165896Y-96382D01*
X165948Y-96278D01*
X165985Y-96205D01*
X165999Y-96175D01*
X166007Y-96153D01*
X166014Y-96138D01*
Y-96131D01*
X166073Y-95961D01*
X166110Y-95791D01*
X166140Y-95614D01*
X166162Y-95459D01*
X166176Y-95319D01*
Y-95260D01*
X166184Y-95208D01*
Y-95112D01*
X166176Y-94972D01*
X166169Y-94839D01*
X166154Y-94714D01*
X166132Y-94611D01*
X166110Y-94515D01*
X166095Y-94448D01*
X166088Y-94404D01*
X166081Y-94397D01*
Y-94389D01*
X166044Y-94271D01*
X165999Y-94160D01*
X165955Y-94072D01*
X165918Y-93998D01*
X165889Y-93939D01*
X165859Y-93895D01*
X165844Y-93865D01*
X165837Y-93858D01*
X165763Y-93762D01*
X165689Y-93681D01*
X165608Y-93607D01*
X165534Y-93555D01*
X165468Y-93503D01*
X165416Y-93474D01*
X165387Y-93452D01*
X165372Y-93445D01*
X165269Y-93393D01*
X165158Y-93356D01*
X165055Y-93334D01*
X164959Y-93319D01*
X164878Y-93304D01*
X164819Y-93297D01*
X164774D01*
X164767D01*
X164760D01*
X164627Y-93304D01*
X164501Y-93326D01*
X164391Y-93356D01*
X164295Y-93385D01*
X164213Y-93415D01*
X164147Y-93445D01*
X164110Y-93467D01*
X164095Y-93474D01*
X163992Y-93548D01*
X163896Y-93636D01*
X163822Y-93725D01*
X163756Y-93814D01*
X163697Y-93895D01*
X163660Y-93954D01*
X163638Y-93998D01*
X163630Y-94005D01*
Y-94013D01*
X163601Y-94086D01*
X163564Y-94175D01*
X163527Y-94264D01*
X163498Y-94367D01*
X163431Y-94581D01*
X163365Y-94788D01*
X163335Y-94891D01*
X163306Y-94987D01*
X163284Y-95075D01*
X163261Y-95149D01*
X163247Y-95208D01*
X163232Y-95260D01*
X163224Y-95289D01*
Y-95297D01*
X163195Y-95415D01*
X163165Y-95526D01*
X163136Y-95629D01*
X163106Y-95718D01*
X163084Y-95799D01*
X163062Y-95865D01*
X163040Y-95924D01*
X163018Y-95983D01*
X163003Y-96027D01*
X162988Y-96064D01*
X162966Y-96116D01*
X162951Y-96145D01*
X162944Y-96153D01*
X162878Y-96234D01*
X162804Y-96301D01*
X162730Y-96345D01*
X162656Y-96374D01*
X162597Y-96389D01*
X162538Y-96404D01*
X162509D01*
X162494D01*
X162376Y-96389D01*
X162273Y-96360D01*
X162177Y-96315D01*
X162095Y-96264D01*
X162029Y-96212D01*
X161985Y-96168D01*
X161948Y-96138D01*
X161940Y-96123D01*
X161867Y-96005D01*
X161808Y-95872D01*
X161771Y-95725D01*
X161741Y-95585D01*
X161726Y-95459D01*
X161719Y-95407D01*
Y-95356D01*
X161712Y-95319D01*
Y-95260D01*
X161726Y-95061D01*
X161756Y-94884D01*
X161793Y-94729D01*
X161844Y-94603D01*
X161889Y-94500D01*
X161933Y-94426D01*
X161962Y-94382D01*
X161970Y-94374D01*
Y-94367D01*
X162081Y-94256D01*
X162199Y-94175D01*
X162331Y-94109D01*
X162457Y-94057D01*
X162568Y-94020D01*
X162612Y-94005D01*
X162656Y-93998D01*
X162693Y-93991D01*
X162715D01*
X162730Y-93983D01*
X162737D01*
X162605Y-93157D01*
D02*
G37*
G36*
X162088Y-98485D02*
X161136D01*
Y-99437D01*
X162088D01*
Y-98485D01*
D02*
G37*
G36*
X178233Y-96666D02*
X171421D01*
Y-102658D01*
X178233D01*
D01*
X171421D01*
X173273Y-101478D01*
X173465Y-101345D01*
X173642Y-101212D01*
X173797Y-101086D01*
X173930Y-100976D01*
X174033Y-100880D01*
X174077Y-100836D01*
X174114Y-100799D01*
X174144Y-100769D01*
X174166Y-100747D01*
X174173Y-100740D01*
X174181Y-100732D01*
X174240Y-100658D01*
X174306Y-100570D01*
X174358Y-100481D01*
X174410Y-100393D01*
X174454Y-100312D01*
X174491Y-100245D01*
X174513Y-100201D01*
X174520Y-100194D01*
Y-100186D01*
X174550Y-100363D01*
X174587Y-100533D01*
X174631Y-100688D01*
X174675Y-100828D01*
X174727Y-100961D01*
X174779Y-101079D01*
X174830Y-101182D01*
X174882Y-101278D01*
X174934Y-101367D01*
X174985Y-101441D01*
X175030Y-101500D01*
X175066Y-101551D01*
X175103Y-101588D01*
X175126Y-101618D01*
X175140Y-101633D01*
X175148Y-101640D01*
X175244Y-101721D01*
X175339Y-101795D01*
X175443Y-101861D01*
X175546Y-101913D01*
X175649Y-101957D01*
X175753Y-101994D01*
X175945Y-102053D01*
X176033Y-102075D01*
X176114Y-102090D01*
X176188Y-102097D01*
X176255Y-102105D01*
X176299Y-102112D01*
X176343D01*
X176365D01*
X176373D01*
X176579Y-102097D01*
X176771Y-102068D01*
X176941Y-102024D01*
X177096Y-101972D01*
X177162Y-101943D01*
X177221Y-101913D01*
X177273Y-101891D01*
X177317Y-101869D01*
X177354Y-101854D01*
X177376Y-101839D01*
X177391Y-101824D01*
X177399D01*
X177561Y-101714D01*
X177694Y-101588D01*
X177812Y-101463D01*
X177900Y-101337D01*
X177967Y-101234D01*
X178011Y-101146D01*
X178026Y-101109D01*
X178041Y-101086D01*
X178048Y-101072D01*
Y-101064D01*
X178077Y-100968D01*
X178107Y-100872D01*
X178151Y-100651D01*
X178188Y-100422D01*
X178210Y-100201D01*
X178218Y-100090D01*
X178225Y-99994D01*
Y-99913D01*
X178233Y-99832D01*
Y-96666D01*
D02*
G37*
G36*
X166184Y-100647D02*
X161025D01*
Y-104935D01*
Y-102884D01*
X161033Y-103031D01*
X161047Y-103171D01*
X161070Y-103304D01*
X161099Y-103437D01*
X161136Y-103555D01*
X161180Y-103666D01*
X161217Y-103769D01*
X161269Y-103865D01*
X161313Y-103946D01*
X161350Y-104027D01*
X161394Y-104086D01*
X161431Y-104146D01*
X161461Y-104182D01*
X161483Y-104219D01*
X161498Y-104234D01*
X161505Y-104241D01*
X161601Y-104337D01*
X161697Y-104433D01*
X161808Y-104515D01*
X161918Y-104581D01*
X162029Y-104647D01*
X162140Y-104706D01*
X162346Y-104795D01*
X162450Y-104832D01*
X162538Y-104861D01*
X162619Y-104884D01*
X162693Y-104906D01*
X162752Y-104920D01*
X162796Y-104928D01*
X162826Y-104935D01*
X162833D01*
X162944Y-104116D01*
X162826Y-104094D01*
X162723Y-104072D01*
X162619Y-104042D01*
X162531Y-104013D01*
X162442Y-103976D01*
X162368Y-103946D01*
X162302Y-103909D01*
X162236Y-103872D01*
X162184Y-103835D01*
X162140Y-103806D01*
X162066Y-103747D01*
X162022Y-103710D01*
X162014Y-103703D01*
X162007Y-103695D01*
X161911Y-103562D01*
X161837Y-103430D01*
X161785Y-103289D01*
X161749Y-103164D01*
X161726Y-103046D01*
X161719Y-103002D01*
Y-102957D01*
X161712Y-102920D01*
Y-102876D01*
X161719Y-102765D01*
X161734Y-102655D01*
X161756Y-102559D01*
X161785Y-102463D01*
X161852Y-102293D01*
X161940Y-102146D01*
X161977Y-102086D01*
X162022Y-102035D01*
X162058Y-101990D01*
X162095Y-101946D01*
X162118Y-101917D01*
X162140Y-101895D01*
X162154Y-101887D01*
X162162Y-101880D01*
X162250Y-101813D01*
X162354Y-101754D01*
X162464Y-101703D01*
X162575Y-101666D01*
X162819Y-101592D01*
X163055Y-101548D01*
X163165Y-101533D01*
X163269Y-101526D01*
X163365Y-101518D01*
X163446Y-101511D01*
X163512Y-101503D01*
X163564D01*
X163601D01*
X163608D01*
X163785Y-101511D01*
X163955Y-101518D01*
X164103Y-101540D01*
X164243Y-101562D01*
X164376Y-101592D01*
X164494Y-101629D01*
X164597Y-101666D01*
X164693Y-101703D01*
X164774Y-101732D01*
X164848Y-101769D01*
X164907Y-101806D01*
X164951Y-101836D01*
X164996Y-101858D01*
X165018Y-101880D01*
X165033Y-101887D01*
X165040Y-101895D01*
X165121Y-101968D01*
X165188Y-102050D01*
X165254Y-102138D01*
X165306Y-102219D01*
X165350Y-102308D01*
X165387Y-102389D01*
X165438Y-102551D01*
X165475Y-102699D01*
X165483Y-102758D01*
X165490Y-102817D01*
X165498Y-102861D01*
Y-102920D01*
X165490Y-103068D01*
X165461Y-103208D01*
X165416Y-103326D01*
X165372Y-103430D01*
X165320Y-103511D01*
X165284Y-103577D01*
X165254Y-103614D01*
X165239Y-103629D01*
X165136Y-103732D01*
X165018Y-103821D01*
X164892Y-103887D01*
X164774Y-103946D01*
X164664Y-103990D01*
X164575Y-104020D01*
X164538Y-104027D01*
X164516Y-104035D01*
X164501Y-104042D01*
X164494D01*
X164619Y-104854D01*
X164752Y-104824D01*
X164885Y-104780D01*
X165003Y-104736D01*
X165114Y-104692D01*
X165217Y-104640D01*
X165313Y-104581D01*
X165394Y-104529D01*
X165475Y-104470D01*
X165542Y-104419D01*
X165601Y-104367D01*
X165653Y-104323D01*
X165697Y-104278D01*
X165726Y-104249D01*
X165749Y-104219D01*
X165763Y-104204D01*
X165771Y-104197D01*
X165844Y-104101D01*
X165911Y-103998D01*
X165963Y-103887D01*
X166007Y-103777D01*
X166081Y-103555D01*
X166132Y-103348D01*
X166147Y-103252D01*
X166162Y-103164D01*
X166169Y-103083D01*
X166176Y-103016D01*
X166184Y-102965D01*
Y-102884D01*
X166169Y-102655D01*
X166140Y-102433D01*
X166088Y-102234D01*
X166058Y-102146D01*
X166036Y-102057D01*
X166007Y-101983D01*
X165977Y-101917D01*
X165955Y-101858D01*
X165926Y-101806D01*
X165911Y-101762D01*
X165896Y-101732D01*
X165881Y-101717D01*
Y-101710D01*
X165756Y-101518D01*
X165616Y-101356D01*
X165461Y-101216D01*
X165320Y-101105D01*
X165188Y-101016D01*
X165129Y-100987D01*
X165077Y-100957D01*
X165040Y-100935D01*
X165010Y-100920D01*
X164988Y-100906D01*
X164981D01*
X164752Y-100817D01*
X164509Y-100758D01*
X164272Y-100714D01*
X164058Y-100677D01*
X163955Y-100670D01*
X163867Y-100662D01*
X163785Y-100655D01*
X163712D01*
X163660Y-100647D01*
X166184D01*
D02*
G37*
G36*
X176358Y-103396D02*
X173111D01*
X172948Y-103404D01*
X172816Y-103411D01*
X172705Y-103419D01*
X172624Y-103426D01*
X172557Y-103433D01*
X172528Y-103441D01*
X172513D01*
X172380Y-103478D01*
X172262Y-103515D01*
X172159Y-103559D01*
X172070Y-103603D01*
X171996Y-103640D01*
X171937Y-103670D01*
X171908Y-103692D01*
X171893Y-103699D01*
X171804Y-103773D01*
X171723Y-103861D01*
X171650Y-103957D01*
X171590Y-104046D01*
X171539Y-104134D01*
X171502Y-104201D01*
X171480Y-104245D01*
X171472Y-104253D01*
Y-104260D01*
X171421Y-104407D01*
X171376Y-104548D01*
X171347Y-104688D01*
X171332Y-104813D01*
X171317Y-104924D01*
X171310Y-105005D01*
Y-103396D01*
Y-107396D01*
X176358D01*
Y-106562D01*
X173708D01*
X173487Y-106555D01*
X173295Y-106540D01*
X173133Y-106518D01*
X172993Y-106496D01*
X172934Y-106481D01*
X172889Y-106466D01*
X172845Y-106452D01*
X172808Y-106444D01*
X172786Y-106437D01*
X172764Y-106430D01*
X172757Y-106422D01*
X172749D01*
X172631Y-106363D01*
X172528Y-106289D01*
X172439Y-106208D01*
X172365Y-106134D01*
X172306Y-106061D01*
X172262Y-106001D01*
X172232Y-105965D01*
X172225Y-105957D01*
Y-105950D01*
X172159Y-105824D01*
X172115Y-105706D01*
X172078Y-105588D01*
X172055Y-105477D01*
X172041Y-105382D01*
X172033Y-105315D01*
Y-105249D01*
X172041Y-105116D01*
X172063Y-104990D01*
X172092Y-104880D01*
X172129Y-104791D01*
X172159Y-104717D01*
X172188Y-104658D01*
X172210Y-104629D01*
X172218Y-104614D01*
X172292Y-104525D01*
X172380Y-104452D01*
X172461Y-104393D01*
X172543Y-104348D01*
X172616Y-104312D01*
X172683Y-104289D01*
X172720Y-104282D01*
X172734Y-104275D01*
X172779Y-104267D01*
X172838Y-104260D01*
X172970Y-104253D01*
X173118Y-104238D01*
X173266D01*
X173399Y-104230D01*
X173458D01*
X173517D01*
X173561D01*
X173591D01*
X173613D01*
X173620D01*
X176358D01*
Y-103396D01*
D02*
G37*
G36*
X166184Y-105341D02*
X161025D01*
X163601D01*
X163372Y-105348D01*
X163158Y-105370D01*
X162959Y-105400D01*
X162774Y-105437D01*
X162605Y-105489D01*
X162450Y-105540D01*
X162309Y-105599D01*
X162177Y-105658D01*
X162066Y-105717D01*
X161962Y-105776D01*
X161881Y-105828D01*
X161815Y-105880D01*
X161756Y-105917D01*
X161719Y-105946D01*
X161697Y-105968D01*
X161689Y-105976D01*
X161571Y-106101D01*
X161468Y-106234D01*
X161380Y-106367D01*
X161306Y-106507D01*
X161239Y-106647D01*
X161188Y-106788D01*
X161143Y-106920D01*
X161106Y-107053D01*
X161084Y-107179D01*
X161062Y-107289D01*
X161047Y-107393D01*
X161033Y-107481D01*
Y-107555D01*
X161025Y-107607D01*
Y-107651D01*
X161040Y-107887D01*
X161070Y-108108D01*
X161121Y-108308D01*
X161143Y-108404D01*
X161173Y-108485D01*
X161202Y-108566D01*
X161224Y-108633D01*
X161254Y-108692D01*
X161276Y-108743D01*
X161291Y-108788D01*
X161306Y-108817D01*
X161320Y-108832D01*
Y-108839D01*
X161446Y-109031D01*
X161579Y-109201D01*
X161719Y-109341D01*
X161859Y-109459D01*
X161977Y-109555D01*
X162036Y-109592D01*
X162081Y-109621D01*
X162118Y-109644D01*
X162147Y-109658D01*
X162162Y-109673D01*
X162169D01*
X162280Y-109725D01*
X162391Y-109769D01*
X162634Y-109843D01*
X162885Y-109895D01*
X163121Y-109924D01*
X163232Y-109939D01*
X163335Y-109946D01*
X163431Y-109953D01*
X163512D01*
X163579Y-109961D01*
X163667D01*
X163881Y-109953D01*
X164088Y-109931D01*
X164280Y-109902D01*
X164457Y-109858D01*
X164619Y-109813D01*
X164767Y-109754D01*
X164907Y-109695D01*
X165033Y-109636D01*
X165143Y-109577D01*
X165239Y-109518D01*
X165320Y-109459D01*
X165387Y-109415D01*
X165446Y-109371D01*
X165483Y-109341D01*
X165505Y-109319D01*
X165512Y-109311D01*
X165630Y-109186D01*
X165734Y-109053D01*
X165822Y-108920D01*
X165903Y-108780D01*
X165963Y-108640D01*
X166022Y-108507D01*
X166066Y-108367D01*
X166103Y-108241D01*
X166125Y-108116D01*
X166147Y-108005D01*
X166162Y-107909D01*
X166176Y-107821D01*
Y-107747D01*
X166184Y-107695D01*
Y-107651D01*
X166176Y-107481D01*
X166162Y-107319D01*
X166132Y-107171D01*
X166095Y-107024D01*
X166058Y-106883D01*
X166007Y-106758D01*
X165963Y-106640D01*
X165911Y-106537D01*
X165859Y-106433D01*
X165807Y-106352D01*
X165756Y-106278D01*
X165719Y-106212D01*
X165682Y-106168D01*
X165653Y-106131D01*
X165638Y-106108D01*
X165630Y-106101D01*
X165498Y-105968D01*
X165357Y-105850D01*
X165202Y-105747D01*
X165040Y-105658D01*
X164870Y-105592D01*
X164700Y-105526D01*
X164531Y-105474D01*
X164368Y-105437D01*
X164213Y-105407D01*
X164073Y-105378D01*
X163940Y-105363D01*
X163822Y-105356D01*
X163734Y-105348D01*
X163660Y-105341D01*
X166184D01*
D01*
D02*
G37*
G36*
X172889Y-108378D02*
D01*
X172749Y-108407D01*
X172609Y-108444D01*
X172483Y-108489D01*
X172373Y-108533D01*
X172262Y-108584D01*
X172166Y-108636D01*
X172078Y-108688D01*
X171996Y-108747D01*
X171930Y-108799D01*
X171871Y-108850D01*
X171819Y-108895D01*
X171775Y-108931D01*
X171746Y-108968D01*
X171723Y-108990D01*
X171709Y-109005D01*
X171701Y-109013D01*
X171635Y-109116D01*
X171576Y-109219D01*
X171517Y-109337D01*
X171472Y-109455D01*
X171406Y-109706D01*
X171362Y-109942D01*
X171340Y-110053D01*
X171332Y-110157D01*
X171325Y-110252D01*
X171317Y-110326D01*
X171310Y-110393D01*
Y-112481D01*
X176469D01*
D01*
X172867D01*
X173022Y-112474D01*
X173162Y-112452D01*
X173281Y-112415D01*
X173384Y-112378D01*
X173472Y-112341D01*
X173531Y-112304D01*
X173568Y-112282D01*
X173583Y-112275D01*
X173686Y-112193D01*
X173775Y-112105D01*
X173849Y-112009D01*
X173908Y-111920D01*
X173959Y-111846D01*
X173989Y-111780D01*
X174011Y-111736D01*
X174019Y-111728D01*
Y-111721D01*
X174048Y-111647D01*
X174077Y-111566D01*
X174114Y-111477D01*
X174144Y-111381D01*
X174210Y-111182D01*
X174269Y-110976D01*
X174299Y-110880D01*
X174328Y-110784D01*
X174351Y-110703D01*
X174373Y-110636D01*
X174388Y-110570D01*
X174402Y-110526D01*
X174410Y-110496D01*
Y-110489D01*
X174439Y-110378D01*
X174469Y-110282D01*
X174491Y-110193D01*
X174513Y-110112D01*
X174535Y-110046D01*
X174550Y-109987D01*
X174565Y-109935D01*
X174579Y-109891D01*
X174601Y-109824D01*
X174616Y-109780D01*
X174624Y-109758D01*
Y-109751D01*
X174661Y-109677D01*
X174697Y-109610D01*
X174734Y-109551D01*
X174771Y-109507D01*
X174801Y-109470D01*
X174823Y-109448D01*
X174838Y-109433D01*
X174845Y-109426D01*
X174897Y-109396D01*
X174948Y-109374D01*
X175044Y-109345D01*
X175081Y-109337D01*
X175111Y-109330D01*
X175133D01*
X175140D01*
X175236Y-109337D01*
X175317Y-109367D01*
X175399Y-109404D01*
X175465Y-109455D01*
X175517Y-109500D01*
X175554Y-109537D01*
X175583Y-109566D01*
X175590Y-109573D01*
X175627Y-109625D01*
X175657Y-109677D01*
X175701Y-109802D01*
X175738Y-109942D01*
X175760Y-110075D01*
X175775Y-110201D01*
Y-110252D01*
X175782Y-110297D01*
Y-110393D01*
X175775Y-110570D01*
X175745Y-110717D01*
X175716Y-110850D01*
X175672Y-110961D01*
X175635Y-111042D01*
X175598Y-111101D01*
X175568Y-111138D01*
X175561Y-111153D01*
X175472Y-111241D01*
X175376Y-111315D01*
X175280Y-111374D01*
X175185Y-111418D01*
X175103Y-111448D01*
X175030Y-111463D01*
X174985Y-111477D01*
X174978D01*
X174970D01*
X175081Y-112297D01*
X175251Y-112260D01*
X175399Y-112215D01*
X175531Y-112171D01*
X175642Y-112120D01*
X175723Y-112075D01*
X175790Y-112038D01*
X175827Y-112009D01*
X175841Y-112002D01*
X175945Y-111913D01*
X176033Y-111810D01*
X176114Y-111706D01*
X176181Y-111603D01*
X176233Y-111500D01*
X176269Y-111426D01*
X176284Y-111396D01*
X176292Y-111374D01*
X176299Y-111359D01*
Y-111352D01*
X176358Y-111182D01*
X176395Y-111013D01*
X176424Y-110835D01*
X176446Y-110680D01*
X176461Y-110540D01*
Y-110481D01*
X176469Y-110430D01*
Y-110334D01*
X176461Y-110193D01*
X176454Y-110061D01*
X176439Y-109935D01*
X176417Y-109832D01*
X176395Y-109736D01*
X176380Y-109669D01*
X176373Y-109625D01*
X176365Y-109618D01*
Y-109610D01*
X176328Y-109492D01*
X176284Y-109382D01*
X176240Y-109293D01*
X176203Y-109219D01*
X176173Y-109160D01*
X176144Y-109116D01*
X176129Y-109086D01*
X176122Y-109079D01*
X176048Y-108983D01*
X175974Y-108902D01*
X175893Y-108828D01*
X175819Y-108776D01*
X175753Y-108725D01*
X175701Y-108695D01*
X175672Y-108673D01*
X175657Y-108666D01*
X175554Y-108614D01*
X175443Y-108577D01*
X175339Y-108555D01*
X175244Y-108540D01*
X175162Y-108526D01*
X175103Y-108518D01*
X175059D01*
X175052D01*
X175044D01*
X174911Y-108526D01*
X174786Y-108548D01*
X174675Y-108577D01*
X174579Y-108607D01*
X174498Y-108636D01*
X174432Y-108666D01*
X174395Y-108688D01*
X174380Y-108695D01*
X174277Y-108769D01*
X174181Y-108858D01*
X174107Y-108946D01*
X174041Y-109035D01*
X173982Y-109116D01*
X173945Y-109175D01*
X173923Y-109219D01*
X173915Y-109227D01*
Y-109234D01*
X173886Y-109308D01*
X173849Y-109396D01*
X173812Y-109485D01*
X173782Y-109588D01*
X173716Y-109802D01*
X173650Y-110009D01*
X173620Y-110112D01*
X173591Y-110208D01*
X173568Y-110297D01*
X173546Y-110371D01*
X173531Y-110430D01*
X173517Y-110481D01*
X173509Y-110511D01*
Y-110518D01*
X173480Y-110636D01*
X173450Y-110747D01*
X173421Y-110850D01*
X173391Y-110939D01*
X173369Y-111020D01*
X173347Y-111086D01*
X173325Y-111145D01*
X173303Y-111204D01*
X173288Y-111249D01*
X173273Y-111286D01*
X173251Y-111337D01*
X173236Y-111367D01*
X173229Y-111374D01*
X173162Y-111455D01*
X173089Y-111522D01*
X173015Y-111566D01*
X172941Y-111596D01*
X172882Y-111610D01*
X172823Y-111625D01*
X172793D01*
X172779D01*
X172661Y-111610D01*
X172557Y-111581D01*
X172461Y-111537D01*
X172380Y-111485D01*
X172314Y-111433D01*
X172269Y-111389D01*
X172232Y-111359D01*
X172225Y-111345D01*
X172151Y-111227D01*
X172092Y-111094D01*
X172055Y-110946D01*
X172026Y-110806D01*
X172011Y-110680D01*
X172004Y-110629D01*
Y-110577D01*
X171996Y-110540D01*
Y-110481D01*
X172011Y-110282D01*
X172041Y-110105D01*
X172078Y-109950D01*
X172129Y-109824D01*
X172174Y-109721D01*
X172218Y-109647D01*
X172247Y-109603D01*
X172255Y-109596D01*
Y-109588D01*
X172365Y-109477D01*
X172483Y-109396D01*
X172616Y-109330D01*
X172742Y-109278D01*
X172852Y-109241D01*
X172897Y-109227D01*
X172941Y-109219D01*
X172978Y-109212D01*
X173000D01*
X173015Y-109204D01*
X173022D01*
X172889Y-108378D01*
D02*
G37*
G36*
Y-113138D02*
D01*
X172749Y-113168D01*
X172609Y-113204D01*
X172483Y-113249D01*
X172373Y-113293D01*
X172262Y-113345D01*
X172166Y-113396D01*
X172078Y-113448D01*
X171996Y-113507D01*
X171930Y-113559D01*
X171871Y-113610D01*
X171819Y-113655D01*
X171775Y-113691D01*
X171746Y-113728D01*
X171723Y-113751D01*
X171709Y-113765D01*
X171701Y-113773D01*
X171635Y-113876D01*
X171576Y-113979D01*
X171517Y-114097D01*
X171472Y-114216D01*
X171406Y-114466D01*
X171362Y-114702D01*
X171340Y-114813D01*
X171332Y-114917D01*
X171325Y-115013D01*
X171317Y-115086D01*
X171310Y-115153D01*
Y-117241D01*
X176469D01*
D01*
X172867D01*
X173022Y-117234D01*
X173162Y-117212D01*
X173281Y-117175D01*
X173384Y-117138D01*
X173472Y-117101D01*
X173531Y-117064D01*
X173568Y-117042D01*
X173583Y-117035D01*
X173686Y-116953D01*
X173775Y-116865D01*
X173849Y-116769D01*
X173908Y-116680D01*
X173959Y-116607D01*
X173989Y-116540D01*
X174011Y-116496D01*
X174019Y-116489D01*
Y-116481D01*
X174048Y-116407D01*
X174077Y-116326D01*
X174114Y-116238D01*
X174144Y-116142D01*
X174210Y-115942D01*
X174269Y-115736D01*
X174299Y-115640D01*
X174328Y-115544D01*
X174351Y-115463D01*
X174373Y-115396D01*
X174388Y-115330D01*
X174402Y-115286D01*
X174410Y-115256D01*
Y-115249D01*
X174439Y-115138D01*
X174469Y-115042D01*
X174491Y-114953D01*
X174513Y-114872D01*
X174535Y-114806D01*
X174550Y-114747D01*
X174565Y-114695D01*
X174579Y-114651D01*
X174601Y-114585D01*
X174616Y-114540D01*
X174624Y-114518D01*
Y-114511D01*
X174661Y-114437D01*
X174697Y-114371D01*
X174734Y-114311D01*
X174771Y-114267D01*
X174801Y-114230D01*
X174823Y-114208D01*
X174838Y-114193D01*
X174845Y-114186D01*
X174897Y-114156D01*
X174948Y-114134D01*
X175044Y-114105D01*
X175081Y-114097D01*
X175111Y-114090D01*
X175133D01*
X175140D01*
X175236Y-114097D01*
X175317Y-114127D01*
X175399Y-114164D01*
X175465Y-114216D01*
X175517Y-114260D01*
X175554Y-114297D01*
X175583Y-114326D01*
X175590Y-114333D01*
X175627Y-114385D01*
X175657Y-114437D01*
X175701Y-114562D01*
X175738Y-114702D01*
X175760Y-114835D01*
X175775Y-114961D01*
Y-115013D01*
X175782Y-115057D01*
Y-115153D01*
X175775Y-115330D01*
X175745Y-115477D01*
X175716Y-115610D01*
X175672Y-115721D01*
X175635Y-115802D01*
X175598Y-115861D01*
X175568Y-115898D01*
X175561Y-115913D01*
X175472Y-116001D01*
X175376Y-116075D01*
X175280Y-116134D01*
X175185Y-116179D01*
X175103Y-116208D01*
X175030Y-116223D01*
X174985Y-116238D01*
X174978D01*
X174970D01*
X175081Y-117057D01*
X175251Y-117020D01*
X175399Y-116976D01*
X175531Y-116931D01*
X175642Y-116880D01*
X175723Y-116835D01*
X175790Y-116798D01*
X175827Y-116769D01*
X175841Y-116762D01*
X175945Y-116673D01*
X176033Y-116570D01*
X176114Y-116466D01*
X176181Y-116363D01*
X176233Y-116260D01*
X176269Y-116186D01*
X176284Y-116156D01*
X176292Y-116134D01*
X176299Y-116120D01*
Y-116112D01*
X176358Y-115942D01*
X176395Y-115773D01*
X176424Y-115595D01*
X176446Y-115441D01*
X176461Y-115300D01*
Y-115241D01*
X176469Y-115190D01*
Y-115094D01*
X176461Y-114953D01*
X176454Y-114821D01*
X176439Y-114695D01*
X176417Y-114592D01*
X176395Y-114496D01*
X176380Y-114429D01*
X176373Y-114385D01*
X176365Y-114378D01*
Y-114371D01*
X176328Y-114252D01*
X176284Y-114142D01*
X176240Y-114053D01*
X176203Y-113979D01*
X176173Y-113920D01*
X176144Y-113876D01*
X176129Y-113847D01*
X176122Y-113839D01*
X176048Y-113743D01*
X175974Y-113662D01*
X175893Y-113588D01*
X175819Y-113537D01*
X175753Y-113485D01*
X175701Y-113455D01*
X175672Y-113433D01*
X175657Y-113426D01*
X175554Y-113374D01*
X175443Y-113337D01*
X175339Y-113315D01*
X175244Y-113300D01*
X175162Y-113286D01*
X175103Y-113278D01*
X175059D01*
X175052D01*
X175044D01*
X174911Y-113286D01*
X174786Y-113308D01*
X174675Y-113337D01*
X174579Y-113367D01*
X174498Y-113396D01*
X174432Y-113426D01*
X174395Y-113448D01*
X174380Y-113455D01*
X174277Y-113529D01*
X174181Y-113618D01*
X174107Y-113706D01*
X174041Y-113795D01*
X173982Y-113876D01*
X173945Y-113935D01*
X173923Y-113979D01*
X173915Y-113987D01*
Y-113994D01*
X173886Y-114068D01*
X173849Y-114156D01*
X173812Y-114245D01*
X173782Y-114348D01*
X173716Y-114562D01*
X173650Y-114769D01*
X173620Y-114872D01*
X173591Y-114968D01*
X173568Y-115057D01*
X173546Y-115131D01*
X173531Y-115190D01*
X173517Y-115241D01*
X173509Y-115271D01*
Y-115278D01*
X173480Y-115396D01*
X173450Y-115507D01*
X173421Y-115610D01*
X173391Y-115699D01*
X173369Y-115780D01*
X173347Y-115847D01*
X173325Y-115905D01*
X173303Y-115964D01*
X173288Y-116009D01*
X173273Y-116046D01*
X173251Y-116097D01*
X173236Y-116127D01*
X173229Y-116134D01*
X173162Y-116216D01*
X173089Y-116282D01*
X173015Y-116326D01*
X172941Y-116356D01*
X172882Y-116370D01*
X172823Y-116385D01*
X172793D01*
X172779D01*
X172661Y-116370D01*
X172557Y-116341D01*
X172461Y-116297D01*
X172380Y-116245D01*
X172314Y-116193D01*
X172269Y-116149D01*
X172232Y-116120D01*
X172225Y-116105D01*
X172151Y-115987D01*
X172092Y-115854D01*
X172055Y-115706D01*
X172026Y-115566D01*
X172011Y-115441D01*
X172004Y-115389D01*
Y-115337D01*
X171996Y-115300D01*
Y-115241D01*
X172011Y-115042D01*
X172041Y-114865D01*
X172078Y-114710D01*
X172129Y-114585D01*
X172174Y-114481D01*
X172218Y-114407D01*
X172247Y-114363D01*
X172255Y-114356D01*
Y-114348D01*
X172365Y-114238D01*
X172483Y-114156D01*
X172616Y-114090D01*
X172742Y-114038D01*
X172852Y-114001D01*
X172897Y-113987D01*
X172941Y-113979D01*
X172978Y-113972D01*
X173000D01*
X173015Y-113965D01*
X173022D01*
X172889Y-113138D01*
D02*
G37*
G36*
X166184Y-110935D02*
X161136D01*
Y-111769D01*
X163697D01*
X163822D01*
X163933Y-111776D01*
X164044Y-111784D01*
X164140Y-111791D01*
X164236Y-111799D01*
X164317Y-111813D01*
X164391Y-111821D01*
X164464Y-111835D01*
X164523Y-111850D01*
X164575Y-111858D01*
X164619Y-111872D01*
X164656Y-111880D01*
X164686Y-111887D01*
X164708Y-111895D01*
X164715Y-111902D01*
X164723D01*
X164848Y-111961D01*
X164959Y-112027D01*
X165055Y-112101D01*
X165129Y-112175D01*
X165195Y-112234D01*
X165232Y-112286D01*
X165261Y-112322D01*
X165269Y-112337D01*
X165335Y-112455D01*
X165380Y-112566D01*
X165416Y-112677D01*
X165438Y-112780D01*
X165453Y-112869D01*
X165461Y-112935D01*
Y-112994D01*
X165446Y-113156D01*
X165416Y-113297D01*
X165372Y-113407D01*
X165320Y-113503D01*
X165269Y-113570D01*
X165225Y-113621D01*
X165195Y-113651D01*
X165180Y-113658D01*
X165062Y-113725D01*
X164929Y-113776D01*
X164789Y-113813D01*
X164656Y-113843D01*
X164531Y-113857D01*
X164479D01*
X164435Y-113865D01*
X164391D01*
X164361D01*
X164346D01*
X164339D01*
X161136D01*
Y-114699D01*
X163999D01*
X164140Y-114706D01*
X164265Y-114714D01*
X164391Y-114728D01*
X164501Y-114751D01*
X164597Y-114780D01*
X164693Y-114810D01*
X164774Y-114839D01*
X164848Y-114876D01*
X164907Y-114906D01*
X164966Y-114935D01*
X165010Y-114964D01*
X165047Y-114994D01*
X165077Y-115016D01*
X165099Y-115031D01*
X165106Y-115046D01*
X165114D01*
X165173Y-115112D01*
X165232Y-115186D01*
X165313Y-115326D01*
X165380Y-115474D01*
X165416Y-115614D01*
X165446Y-115732D01*
X165453Y-115784D01*
Y-115828D01*
X165461Y-115865D01*
Y-115917D01*
X165453Y-116020D01*
X165438Y-116116D01*
X165416Y-116204D01*
X165394Y-116278D01*
X165365Y-116337D01*
X165343Y-116382D01*
X165328Y-116411D01*
X165320Y-116418D01*
X165269Y-116492D01*
X165210Y-116559D01*
X165151Y-116603D01*
X165092Y-116647D01*
X165040Y-116677D01*
X165003Y-116699D01*
X164974Y-116714D01*
X164966D01*
X164870Y-116743D01*
X164760Y-116758D01*
X164641Y-116773D01*
X164523Y-116787D01*
X164413D01*
X164324Y-116795D01*
X164295D01*
X164265D01*
X164250D01*
X164243D01*
X161136D01*
Y-117629D01*
X164523D01*
X164678Y-117621D01*
X164819Y-117614D01*
X164951Y-117592D01*
X165077Y-117570D01*
X165188Y-117540D01*
X165291Y-117503D01*
X165380Y-117466D01*
X165461Y-117429D01*
X165534Y-117393D01*
X165601Y-117356D01*
X165653Y-117326D01*
X165697Y-117289D01*
X165726Y-117267D01*
X165749Y-117245D01*
X165763Y-117238D01*
X165771Y-117230D01*
X165844Y-117156D01*
X165911Y-117068D01*
X165963Y-116979D01*
X166007Y-116891D01*
X166081Y-116699D01*
X166132Y-116522D01*
X166147Y-116433D01*
X166162Y-116352D01*
X166169Y-116286D01*
X166176Y-116219D01*
X166184Y-116175D01*
Y-117629D01*
D01*
Y-110935D01*
D02*
G37*
G36*
X178233Y-118238D02*
X177280D01*
Y-119071D01*
X176358D01*
Y-118238D01*
X171421D01*
Y-119071D01*
X178233D01*
Y-118238D01*
D02*
G37*
G36*
X172779Y-120060D02*
X172720D01*
X172609Y-120068D01*
X172498Y-120083D01*
X172395Y-120097D01*
X172299Y-120127D01*
X172122Y-120201D01*
X171982Y-120282D01*
X171915Y-120319D01*
X171863Y-120356D01*
X171812Y-120393D01*
X171775Y-120429D01*
X171746Y-120459D01*
X171723Y-120474D01*
X171709Y-120489D01*
X171701Y-120496D01*
X171635Y-120584D01*
X171576Y-120673D01*
X171517Y-120776D01*
X171472Y-120872D01*
X171406Y-121079D01*
X171362Y-121285D01*
X171340Y-121374D01*
X171332Y-121463D01*
X171325Y-121544D01*
X171317Y-121610D01*
X171310Y-121662D01*
Y-121743D01*
X171317Y-121928D01*
X171332Y-122097D01*
X171362Y-122252D01*
X171391Y-122392D01*
X171421Y-122503D01*
X171435Y-122555D01*
X171450Y-122592D01*
X171458Y-122621D01*
X171465Y-122643D01*
X171472Y-122658D01*
Y-122666D01*
X171546Y-122828D01*
X171627Y-122990D01*
X171723Y-123138D01*
X171819Y-123278D01*
X171900Y-123396D01*
X171945Y-123441D01*
X171974Y-123485D01*
X172004Y-123522D01*
X172026Y-123544D01*
X172033Y-123558D01*
X172041Y-123566D01*
X171908Y-123581D01*
X171790Y-123603D01*
X171686Y-123632D01*
X171598Y-123662D01*
X171524Y-123684D01*
X171465Y-123706D01*
X171435Y-123721D01*
X171421Y-123728D01*
Y-124599D01*
X171524Y-124548D01*
X171635Y-124503D01*
X171731Y-124466D01*
X171819Y-124437D01*
X171900Y-124415D01*
X171959Y-124400D01*
X171996Y-124392D01*
X172011D01*
X172078Y-124385D01*
X172166Y-124378D01*
X172262Y-124370D01*
X172373Y-124363D01*
X172491Y-124356D01*
X172616D01*
X172867Y-124348D01*
X172985D01*
X173103Y-124341D01*
X173207D01*
X173303D01*
X173376D01*
X173435D01*
X173472D01*
X173487D01*
X174601D01*
X174705D01*
X174793D01*
X174875Y-124333D01*
X174956D01*
X175089Y-124326D01*
X175192Y-124319D01*
X175273Y-124311D01*
X175325Y-124304D01*
X175362Y-124297D01*
X175369D01*
X175495Y-124267D01*
X175605Y-124223D01*
X175701Y-124179D01*
X175782Y-124134D01*
X175849Y-124097D01*
X175900Y-124060D01*
X175930Y-124038D01*
X175937Y-124031D01*
X176019Y-123950D01*
X176092Y-123861D01*
X176159Y-123765D01*
X176210Y-123669D01*
X176255Y-123581D01*
X176284Y-123514D01*
X176299Y-123485D01*
X176306Y-123463D01*
X176314Y-123455D01*
Y-123448D01*
X176365Y-123293D01*
X176402Y-123123D01*
X176432Y-122953D01*
X176446Y-122791D01*
X176461Y-122651D01*
Y-122584D01*
X176469Y-122533D01*
Y-124599D01*
X171310D01*
D01*
X176469D01*
Y-122429D01*
X176461Y-122201D01*
X176439Y-121987D01*
X176410Y-121795D01*
X176395Y-121706D01*
X176380Y-121632D01*
X176365Y-121559D01*
X176351Y-121492D01*
X176336Y-121440D01*
X176321Y-121396D01*
X176306Y-121359D01*
X176299Y-121330D01*
X176292Y-121315D01*
Y-121308D01*
X176218Y-121138D01*
X176137Y-120990D01*
X176055Y-120865D01*
X175974Y-120762D01*
X175900Y-120680D01*
X175841Y-120621D01*
X175804Y-120584D01*
X175797Y-120570D01*
X175790D01*
X175664Y-120481D01*
X175524Y-120407D01*
X175384Y-120348D01*
X175251Y-120297D01*
X175133Y-120260D01*
X175081Y-120245D01*
X175037Y-120230D01*
X175000Y-120223D01*
X174970Y-120215D01*
X174956Y-120208D01*
X174948D01*
X174838Y-121027D01*
X174934Y-121057D01*
X175022Y-121086D01*
X175170Y-121145D01*
X175303Y-121219D01*
X175399Y-121285D01*
X175472Y-121345D01*
X175531Y-121396D01*
X175561Y-121426D01*
X175568Y-121440D01*
X175635Y-121559D01*
X175686Y-121699D01*
X175723Y-121839D01*
X175753Y-121979D01*
X175768Y-122112D01*
Y-122164D01*
X175775Y-122215D01*
Y-122311D01*
X175760Y-122533D01*
X175731Y-122725D01*
X175686Y-122887D01*
X175635Y-123020D01*
X175576Y-123123D01*
X175554Y-123160D01*
X175531Y-123197D01*
X175517Y-123226D01*
X175502Y-123241D01*
X175487Y-123256D01*
X175399Y-123337D01*
X175288Y-123396D01*
X175170Y-123441D01*
X175052Y-123470D01*
X174941Y-123485D01*
X174852Y-123500D01*
X174823D01*
X174793D01*
X174779D01*
X174771D01*
X174749D01*
X174720D01*
X174646D01*
X174616Y-123492D01*
X174587D01*
X174565D01*
X174557D01*
X174528Y-123396D01*
X174498Y-123293D01*
X174469Y-123175D01*
X174439Y-123057D01*
X174388Y-122813D01*
X174343Y-122570D01*
X174328Y-122451D01*
X174314Y-122348D01*
X174299Y-122252D01*
X174284Y-122164D01*
X174277Y-122097D01*
X174269Y-122046D01*
X174262Y-122016D01*
Y-122001D01*
X174240Y-121824D01*
X174218Y-121677D01*
X174196Y-121544D01*
X174181Y-121440D01*
X174159Y-121359D01*
X174151Y-121300D01*
X174137Y-121271D01*
Y-121256D01*
X174100Y-121138D01*
X174055Y-121020D01*
X174011Y-120916D01*
X173967Y-120828D01*
X173930Y-120754D01*
X173893Y-120703D01*
X173871Y-120666D01*
X173863Y-120651D01*
X173790Y-120555D01*
X173716Y-120474D01*
X173635Y-120400D01*
X173561Y-120341D01*
X173487Y-120289D01*
X173435Y-120252D01*
X173399Y-120230D01*
X173384Y-120223D01*
X173266Y-120171D01*
X173155Y-120127D01*
X173044Y-120097D01*
X172941Y-120083D01*
X172852Y-120068D01*
X172779Y-120060D01*
D02*
G37*
G36*
X178343Y-125581D02*
D01*
X178166Y-125684D01*
X178004Y-125773D01*
X177849Y-125861D01*
X177708Y-125935D01*
X177583Y-126001D01*
X177472Y-126060D01*
X177369Y-126119D01*
X177280Y-126164D01*
X177199Y-126201D01*
X177133Y-126237D01*
X177074Y-126267D01*
X177030Y-126289D01*
X176993Y-126304D01*
X176971Y-126319D01*
X176956Y-126326D01*
X176948D01*
X176705Y-126422D01*
X176469Y-126511D01*
X176247Y-126584D01*
X176137Y-126621D01*
X176041Y-126651D01*
X175952Y-126673D01*
X175864Y-126695D01*
X175790Y-126717D01*
X175731Y-126732D01*
X175679Y-126747D01*
X175642Y-126754D01*
X175620Y-126761D01*
X175613D01*
X175288Y-126828D01*
X174978Y-126880D01*
X174830Y-126902D01*
X174683Y-126917D01*
X174550Y-126931D01*
X174424Y-126946D01*
X174306Y-126953D01*
X174203Y-126961D01*
X174107D01*
X174026Y-126968D01*
X173967D01*
X173915D01*
X173886D01*
X173878D01*
X173672Y-126961D01*
X173458Y-126953D01*
X173044Y-126909D01*
X172638Y-126843D01*
X172240Y-126754D01*
X171856Y-126643D01*
X171487Y-126533D01*
X171140Y-126407D01*
X170808Y-126274D01*
X170513Y-126142D01*
X170373Y-126083D01*
X170240Y-126023D01*
X170122Y-125957D01*
X170004Y-125905D01*
X169901Y-125846D01*
X169805Y-125795D01*
X169716Y-125750D01*
X169642Y-125706D01*
X169576Y-125669D01*
X169524Y-125640D01*
X169480Y-125618D01*
X169443Y-125595D01*
X169428Y-125588D01*
X169421Y-125581D01*
D01*
Y-127824D01*
X178343D01*
D01*
X173886D01*
X174092Y-127817D01*
X174292Y-127809D01*
X174491Y-127795D01*
X174683Y-127765D01*
X174860Y-127743D01*
X175037Y-127714D01*
X175199Y-127677D01*
X175354Y-127647D01*
X175495Y-127610D01*
X175620Y-127581D01*
X175731Y-127544D01*
X175819Y-127522D01*
X175893Y-127499D01*
X175952Y-127477D01*
X175982Y-127470D01*
X175996Y-127463D01*
X176218Y-127381D01*
X176439Y-127285D01*
X176860Y-127086D01*
X177066Y-126983D01*
X177258Y-126872D01*
X177443Y-126769D01*
X177613Y-126665D01*
X177768Y-126570D01*
X177915Y-126474D01*
X178041Y-126392D01*
X178144Y-126319D01*
X178225Y-126260D01*
X178291Y-126215D01*
X178328Y-126186D01*
X178343Y-126178D01*
Y-125581D01*
D02*
G37*
%LPD*%
G36*
X169760Y-31773D02*
X170115Y-31995D01*
X170454Y-32194D01*
X170616Y-32283D01*
X170771Y-32364D01*
X170919Y-32438D01*
X171052Y-32504D01*
X171170Y-32556D01*
X171266Y-32600D01*
X171354Y-32637D01*
X171413Y-32667D01*
X171450Y-32681D01*
X171465Y-32689D01*
X171686Y-32777D01*
X171900Y-32851D01*
X172122Y-32917D01*
X172336Y-32969D01*
X172543Y-33021D01*
X172742Y-33058D01*
X172934Y-33087D01*
X173111Y-33117D01*
X173281Y-33139D01*
X173428Y-33154D01*
X173561Y-33161D01*
X173672Y-33168D01*
X173760Y-33176D01*
X169421D01*
Y-31530D01*
X169760Y-31773D01*
D02*
G37*
G36*
X171325Y-37124D02*
X171354Y-37367D01*
X171391Y-37589D01*
X171421Y-37692D01*
X171443Y-37781D01*
X171465Y-37869D01*
X171494Y-37943D01*
X171517Y-38010D01*
X171531Y-38061D01*
X171554Y-38105D01*
X171561Y-38135D01*
X171576Y-38157D01*
Y-38165D01*
X171686Y-38371D01*
X171804Y-38548D01*
X171930Y-38703D01*
X172048Y-38829D01*
X172159Y-38932D01*
X172240Y-38998D01*
X172277Y-39028D01*
X172299Y-39043D01*
X172314Y-39057D01*
X172321D01*
X172410Y-39117D01*
X172506Y-39161D01*
X172683Y-39242D01*
X172852Y-39301D01*
X173007Y-39338D01*
X173148Y-39360D01*
X173199Y-39367D01*
X173251D01*
X173288Y-39375D01*
X171310D01*
Y-36858D01*
X171325Y-37124D01*
D02*
G37*
G36*
X167948Y-37209D02*
X164391D01*
X164516Y-37201D01*
X164634Y-37194D01*
X164737Y-37179D01*
X164841Y-37165D01*
X164929Y-37150D01*
X165010Y-37135D01*
X165084Y-37120D01*
X165151Y-37106D01*
X165210Y-37091D01*
X165254Y-37076D01*
X165298Y-37061D01*
X165328Y-37047D01*
X165350Y-37039D01*
X165357Y-37032D01*
X165365D01*
X165498Y-36958D01*
X165623Y-36869D01*
X165726Y-36766D01*
X165807Y-36678D01*
X165874Y-36589D01*
X165926Y-36515D01*
X165940Y-36486D01*
X165955Y-36463D01*
X165963Y-36456D01*
Y-36449D01*
X166036Y-36294D01*
X166088Y-36131D01*
X166132Y-35976D01*
X166154Y-35829D01*
X166169Y-35696D01*
X166176Y-35644D01*
X166184Y-35593D01*
Y-35504D01*
X166176Y-35342D01*
X166154Y-35187D01*
X166118Y-35039D01*
X166081Y-34899D01*
X166022Y-34773D01*
X165970Y-34648D01*
X165903Y-34537D01*
X165844Y-34441D01*
X165778Y-34345D01*
X165712Y-34264D01*
X165660Y-34198D01*
X165608Y-34139D01*
X165564Y-34095D01*
X165527Y-34065D01*
X165505Y-34043D01*
X165498Y-34036D01*
X167948D01*
Y-37209D01*
D02*
G37*
G36*
X167793Y-40426D02*
X161143D01*
X161881Y-40316D01*
X161874Y-40235D01*
X161867Y-40161D01*
X161859Y-40094D01*
Y-40043D01*
X161852Y-39998D01*
Y-39873D01*
X161859Y-39814D01*
X161874Y-39770D01*
X161881Y-39725D01*
X161896Y-39696D01*
X161904Y-39674D01*
X161911Y-39659D01*
Y-39652D01*
X161962Y-39593D01*
X162014Y-39548D01*
X162058Y-39519D01*
X162066Y-39511D01*
X162073D01*
X162125Y-39497D01*
X162191Y-39489D01*
X162265Y-39474D01*
X162339D01*
X162413Y-39467D01*
X162472D01*
X162516D01*
X162523D01*
X162531D01*
X165424D01*
Y-40316D01*
X166073D01*
Y-39467D01*
X167793D01*
Y-40426D01*
D02*
G37*
G36*
X161143D02*
D01*
D01*
D01*
D02*
G37*
G36*
X167793Y-43069D02*
X161143D01*
X161881Y-42958D01*
X161874Y-42877D01*
X161867Y-42803D01*
X161859Y-42737D01*
Y-42685D01*
X161852Y-42641D01*
Y-42515D01*
X161859Y-42456D01*
X161874Y-42412D01*
X161881Y-42368D01*
X161896Y-42338D01*
X161904Y-42316D01*
X161911Y-42301D01*
Y-42294D01*
X161962Y-42235D01*
X162014Y-42190D01*
X162058Y-42161D01*
X162066Y-42153D01*
X162073D01*
X162125Y-42139D01*
X162191Y-42131D01*
X162265Y-42117D01*
X162339D01*
X162413Y-42109D01*
X162472D01*
X162516D01*
X162523D01*
X162531D01*
X165424D01*
Y-42958D01*
X166073D01*
Y-42109D01*
X167793D01*
Y-43069D01*
D02*
G37*
G36*
X161143D02*
D01*
D01*
D01*
D02*
G37*
G36*
X178233Y-44504D02*
X174675D01*
X174801Y-44497D01*
X174919Y-44489D01*
X175022Y-44475D01*
X175126Y-44460D01*
X175214Y-44445D01*
X175295Y-44430D01*
X175369Y-44415D01*
X175435Y-44401D01*
X175495Y-44386D01*
X175539Y-44371D01*
X175583Y-44356D01*
X175613Y-44342D01*
X175635Y-44334D01*
X175642Y-44327D01*
X175649D01*
X175782Y-44253D01*
X175908Y-44164D01*
X176011Y-44061D01*
X176092Y-43973D01*
X176159Y-43884D01*
X176210Y-43810D01*
X176225Y-43781D01*
X176240Y-43759D01*
X176247Y-43751D01*
Y-43744D01*
X176321Y-43589D01*
X176373Y-43426D01*
X176417Y-43271D01*
X176439Y-43124D01*
X176454Y-42991D01*
X176461Y-42939D01*
X176469Y-42888D01*
Y-42799D01*
X176461Y-42637D01*
X176439Y-42482D01*
X176402Y-42334D01*
X176365Y-42194D01*
X176306Y-42069D01*
X176255Y-41943D01*
X176188Y-41832D01*
X176129Y-41737D01*
X176063Y-41641D01*
X175996Y-41559D01*
X175945Y-41493D01*
X175893Y-41434D01*
X175849Y-41390D01*
X175812Y-41360D01*
X175790Y-41338D01*
X175782Y-41331D01*
X178233D01*
Y-44504D01*
D02*
G37*
G36*
X163749Y-44537D02*
X163911Y-44545D01*
X164058Y-44567D01*
X164199Y-44596D01*
X164331Y-44626D01*
X164450Y-44655D01*
X164560Y-44692D01*
X164656Y-44736D01*
X164745Y-44773D01*
X164819Y-44810D01*
X164878Y-44840D01*
X164929Y-44869D01*
X164974Y-44899D01*
X165003Y-44921D01*
X165018Y-44928D01*
X165025Y-44936D01*
X165114Y-45017D01*
X165188Y-45098D01*
X165261Y-45179D01*
X165313Y-45260D01*
X165365Y-45342D01*
X165402Y-45415D01*
X165468Y-45563D01*
X165498Y-45689D01*
X165512Y-45748D01*
X165520Y-45792D01*
X165527Y-45829D01*
Y-45880D01*
X165520Y-45976D01*
X165505Y-46072D01*
X165483Y-46168D01*
X165453Y-46257D01*
X165380Y-46412D01*
X165291Y-46545D01*
X165202Y-46655D01*
X165165Y-46707D01*
X165129Y-46744D01*
X165099Y-46773D01*
X165077Y-46795D01*
X165062Y-46803D01*
X165055Y-46810D01*
X164959Y-46877D01*
X164856Y-46943D01*
X164752Y-46995D01*
X164634Y-47039D01*
X164398Y-47105D01*
X164169Y-47150D01*
X164058Y-47172D01*
X163962Y-47179D01*
X163874Y-47187D01*
X163793Y-47194D01*
X163726Y-47201D01*
X163682D01*
X163645D01*
X163638D01*
X163461Y-47194D01*
X163291Y-47187D01*
X163136Y-47164D01*
X162996Y-47142D01*
X162863Y-47113D01*
X162737Y-47076D01*
X162634Y-47039D01*
X162538Y-47002D01*
X162450Y-46965D01*
X162376Y-46928D01*
X162317Y-46899D01*
X162265Y-46862D01*
X162228Y-46840D01*
X162199Y-46818D01*
X162184Y-46810D01*
X162177Y-46803D01*
X162095Y-46729D01*
X162022Y-46648D01*
X161962Y-46567D01*
X161911Y-46485D01*
X161867Y-46404D01*
X161822Y-46323D01*
X161771Y-46176D01*
X161734Y-46043D01*
X161726Y-45984D01*
X161719Y-45939D01*
X161712Y-45895D01*
Y-45843D01*
X161719Y-45740D01*
X161734Y-45644D01*
X161756Y-45556D01*
X161785Y-45467D01*
X161852Y-45312D01*
X161940Y-45172D01*
X162022Y-45061D01*
X162058Y-45017D01*
X162095Y-44980D01*
X162118Y-44951D01*
X162140Y-44928D01*
X162154Y-44921D01*
X162162Y-44914D01*
X162250Y-44847D01*
X162354Y-44788D01*
X162464Y-44736D01*
X162575Y-44692D01*
X162811Y-44626D01*
X163040Y-44581D01*
X163143Y-44559D01*
X163247Y-44552D01*
X163335Y-44545D01*
X163416Y-44537D01*
X163483Y-44530D01*
X163527D01*
X163564D01*
X163571D01*
X163749Y-44537D01*
D02*
G37*
G36*
X166184Y-48057D02*
X163638D01*
X163896Y-48050D01*
X164140Y-48021D01*
X164361Y-47976D01*
X164457Y-47954D01*
X164553Y-47932D01*
X164634Y-47910D01*
X164715Y-47888D01*
X164782Y-47866D01*
X164833Y-47843D01*
X164878Y-47829D01*
X164907Y-47814D01*
X164929Y-47807D01*
X164937D01*
X165143Y-47703D01*
X165328Y-47592D01*
X165483Y-47467D01*
X165616Y-47349D01*
X165719Y-47246D01*
X165793Y-47157D01*
X165815Y-47120D01*
X165837Y-47098D01*
X165852Y-47083D01*
Y-47076D01*
X165911Y-46987D01*
X165963Y-46891D01*
X166044Y-46700D01*
X166103Y-46515D01*
X166140Y-46338D01*
X166154Y-46257D01*
X166169Y-46190D01*
X166176Y-46124D01*
Y-46065D01*
X166184Y-46021D01*
Y-48057D01*
D02*
G37*
G36*
X174055Y-46342D02*
X174218Y-46349D01*
X174365Y-46371D01*
X174506Y-46401D01*
X174631Y-46430D01*
X174749Y-46467D01*
X174852Y-46504D01*
X174948Y-46541D01*
X175030Y-46578D01*
X175103Y-46615D01*
X175162Y-46652D01*
X175214Y-46681D01*
X175251Y-46711D01*
X175280Y-46733D01*
X175295Y-46740D01*
X175303Y-46747D01*
X175384Y-46829D01*
X175458Y-46910D01*
X175524Y-46998D01*
X175576Y-47087D01*
X175620Y-47175D01*
X175657Y-47257D01*
X175716Y-47427D01*
X175753Y-47567D01*
X175760Y-47633D01*
X175768Y-47685D01*
X175775Y-47729D01*
Y-47788D01*
X175768Y-47899D01*
X175753Y-48009D01*
X175731Y-48113D01*
X175701Y-48209D01*
X175627Y-48386D01*
X175539Y-48541D01*
X175495Y-48600D01*
X175450Y-48659D01*
X175413Y-48703D01*
X175376Y-48748D01*
X175347Y-48777D01*
X175325Y-48799D01*
X175310Y-48814D01*
X175303Y-48821D01*
X175207Y-48895D01*
X175111Y-48961D01*
X175000Y-49013D01*
X174889Y-49065D01*
X174771Y-49109D01*
X174653Y-49139D01*
X174432Y-49190D01*
X174328Y-49205D01*
X174232Y-49220D01*
X174144Y-49227D01*
X174063Y-49235D01*
X174004Y-49242D01*
X173952D01*
X173923D01*
X173915D01*
X173738Y-49235D01*
X173576Y-49227D01*
X173421Y-49205D01*
X173281Y-49176D01*
X173148Y-49146D01*
X173030Y-49109D01*
X172919Y-49072D01*
X172830Y-49035D01*
X172742Y-48991D01*
X172668Y-48954D01*
X172609Y-48917D01*
X172557Y-48888D01*
X172520Y-48858D01*
X172491Y-48836D01*
X172476Y-48829D01*
X172469Y-48821D01*
X172388Y-48740D01*
X172314Y-48659D01*
X172247Y-48570D01*
X172196Y-48489D01*
X172151Y-48401D01*
X172115Y-48312D01*
X172055Y-48150D01*
X172019Y-48009D01*
X172011Y-47943D01*
X172004Y-47891D01*
X171996Y-47847D01*
Y-47788D01*
X172004Y-47670D01*
X172019Y-47567D01*
X172041Y-47456D01*
X172070Y-47360D01*
X172144Y-47183D01*
X172232Y-47035D01*
X172269Y-46969D01*
X172314Y-46910D01*
X172351Y-46866D01*
X172388Y-46821D01*
X172417Y-46792D01*
X172439Y-46770D01*
X172454Y-46755D01*
X172461Y-46747D01*
X172557Y-46674D01*
X172661Y-46615D01*
X172771Y-46556D01*
X172882Y-46511D01*
X173118Y-46437D01*
X173354Y-46386D01*
X173458Y-46371D01*
X173561Y-46356D01*
X173650Y-46349D01*
X173731Y-46342D01*
X173797Y-46334D01*
X173841D01*
X173878D01*
X173886D01*
X174055Y-46342D01*
D02*
G37*
G36*
Y-51633D02*
X174225Y-51640D01*
X174373Y-51663D01*
X174520Y-51685D01*
X174646Y-51714D01*
X174764Y-51744D01*
X174875Y-51773D01*
X174963Y-51810D01*
X175052Y-51847D01*
X175118Y-51877D01*
X175185Y-51906D01*
X175229Y-51936D01*
X175266Y-51958D01*
X175295Y-51980D01*
X175310Y-51987D01*
X175317Y-51995D01*
X175399Y-52069D01*
X175465Y-52142D01*
X175531Y-52223D01*
X175583Y-52297D01*
X175627Y-52378D01*
X175664Y-52460D01*
X175716Y-52607D01*
X175753Y-52733D01*
X175760Y-52792D01*
X175768Y-52836D01*
X175775Y-52880D01*
Y-52932D01*
X175768Y-53035D01*
X175753Y-53139D01*
X175731Y-53234D01*
X175701Y-53323D01*
X175620Y-53493D01*
X175539Y-53633D01*
X175450Y-53744D01*
X175406Y-53788D01*
X175369Y-53832D01*
X175339Y-53862D01*
X175317Y-53884D01*
X175303Y-53891D01*
X175295Y-53899D01*
X175199Y-53973D01*
X175096Y-54032D01*
X174985Y-54083D01*
X174867Y-54128D01*
X174616Y-54201D01*
X174380Y-54246D01*
X174262Y-54268D01*
X174159Y-54275D01*
X174063Y-54282D01*
X173974Y-54290D01*
X173908Y-54297D01*
X173856D01*
X173827D01*
X173812D01*
X173642Y-54290D01*
X173487Y-54282D01*
X173339Y-54260D01*
X173207Y-54238D01*
X173089Y-54209D01*
X172970Y-54172D01*
X172867Y-54135D01*
X172779Y-54105D01*
X172697Y-54068D01*
X172631Y-54032D01*
X172572Y-53995D01*
X172528Y-53965D01*
X172483Y-53943D01*
X172461Y-53921D01*
X172447Y-53913D01*
X172439Y-53906D01*
X172358Y-53832D01*
X172292Y-53759D01*
X172232Y-53677D01*
X172181Y-53596D01*
X172144Y-53522D01*
X172107Y-53441D01*
X172055Y-53294D01*
X172019Y-53168D01*
X172011Y-53109D01*
X172004Y-53065D01*
X171996Y-53021D01*
Y-52969D01*
X172004Y-52865D01*
X172019Y-52770D01*
X172041Y-52681D01*
X172070Y-52592D01*
X172144Y-52430D01*
X172232Y-52290D01*
X172314Y-52179D01*
X172351Y-52135D01*
X172388Y-52098D01*
X172417Y-52069D01*
X172439Y-52039D01*
X172454Y-52032D01*
X172461Y-52024D01*
X172557Y-51958D01*
X172661Y-51891D01*
X172771Y-51840D01*
X172882Y-51795D01*
X173118Y-51722D01*
X173347Y-51677D01*
X173458Y-51663D01*
X173554Y-51648D01*
X173642Y-51640D01*
X173723Y-51633D01*
X173790Y-51626D01*
X173834D01*
X173871D01*
X173878D01*
X174055Y-51633D01*
D02*
G37*
G36*
X172823Y-56991D02*
X172897Y-56998D01*
X172963Y-57020D01*
X173022Y-57043D01*
X173074Y-57057D01*
X173111Y-57079D01*
X173133Y-57087D01*
X173140Y-57094D01*
X173207Y-57146D01*
X173258Y-57198D01*
X173303Y-57249D01*
X173347Y-57308D01*
X173376Y-57353D01*
X173399Y-57389D01*
X173406Y-57419D01*
X173413Y-57426D01*
X173450Y-57522D01*
X173480Y-57633D01*
X173509Y-57751D01*
X173531Y-57869D01*
X173554Y-57980D01*
X173568Y-58076D01*
X173576Y-58105D01*
X173583Y-58135D01*
Y-58157D01*
X173605Y-58327D01*
X173635Y-58482D01*
X173657Y-58622D01*
X173686Y-58755D01*
X173716Y-58880D01*
X173738Y-58991D01*
X173768Y-59094D01*
X173790Y-59190D01*
X173812Y-59264D01*
X173834Y-59338D01*
X173849Y-59397D01*
X173871Y-59441D01*
X173886Y-59478D01*
X173893Y-59508D01*
X173900Y-59522D01*
Y-59530D01*
X173591Y-59522D01*
X173399Y-59515D01*
X173229Y-59500D01*
X173081Y-59478D01*
X172963Y-59456D01*
X172875Y-59434D01*
X172808Y-59412D01*
X172771Y-59397D01*
X172757Y-59389D01*
X172624Y-59316D01*
X172513Y-59227D01*
X172410Y-59139D01*
X172328Y-59050D01*
X172262Y-58961D01*
X172210Y-58895D01*
X172181Y-58851D01*
X172174Y-58843D01*
Y-58836D01*
X172107Y-58688D01*
X172055Y-58541D01*
X172019Y-58400D01*
X171996Y-58260D01*
X171982Y-58150D01*
X171974Y-58098D01*
X171967Y-58054D01*
Y-57973D01*
X171974Y-57803D01*
X172004Y-57655D01*
X172041Y-57522D01*
X172078Y-57419D01*
X172122Y-57338D01*
X172151Y-57279D01*
X172181Y-57249D01*
X172188Y-57235D01*
X172277Y-57153D01*
X172365Y-57087D01*
X172461Y-57043D01*
X172550Y-57013D01*
X172624Y-56998D01*
X172690Y-56991D01*
X172727Y-56984D01*
X172742D01*
X172823Y-56991D01*
D02*
G37*
G36*
X162538Y-62375D02*
X162612Y-62382D01*
X162678Y-62404D01*
X162737Y-62426D01*
X162789Y-62441D01*
X162826Y-62463D01*
X162848Y-62471D01*
X162856Y-62478D01*
X162922Y-62530D01*
X162974Y-62581D01*
X163018Y-62633D01*
X163062Y-62692D01*
X163092Y-62736D01*
X163114Y-62773D01*
X163121Y-62803D01*
X163129Y-62810D01*
X163165Y-62906D01*
X163195Y-63017D01*
X163224Y-63135D01*
X163247Y-63253D01*
X163269Y-63364D01*
X163284Y-63459D01*
X163291Y-63489D01*
X163298Y-63519D01*
Y-63541D01*
X163320Y-63710D01*
X163350Y-63865D01*
X163372Y-64006D01*
X163402Y-64139D01*
X163431Y-64264D01*
X163453Y-64375D01*
X163483Y-64478D01*
X163505Y-64574D01*
X163527Y-64648D01*
X163549Y-64722D01*
X163564Y-64780D01*
X163586Y-64825D01*
X163601Y-64862D01*
X163608Y-64891D01*
X163616Y-64906D01*
Y-64913D01*
X163306Y-64906D01*
X163114Y-64899D01*
X162944Y-64884D01*
X162796Y-64862D01*
X162678Y-64840D01*
X162590Y-64817D01*
X162523Y-64795D01*
X162487Y-64780D01*
X162472Y-64773D01*
X162339Y-64699D01*
X162228Y-64611D01*
X162125Y-64522D01*
X162044Y-64434D01*
X161977Y-64345D01*
X161926Y-64279D01*
X161896Y-64234D01*
X161889Y-64227D01*
Y-64220D01*
X161822Y-64072D01*
X161771Y-63924D01*
X161734Y-63784D01*
X161712Y-63644D01*
X161697Y-63533D01*
X161689Y-63482D01*
X161682Y-63437D01*
Y-63356D01*
X161689Y-63187D01*
X161719Y-63039D01*
X161756Y-62906D01*
X161793Y-62803D01*
X161837Y-62722D01*
X161867Y-62663D01*
X161896Y-62633D01*
X161904Y-62618D01*
X161992Y-62537D01*
X162081Y-62471D01*
X162177Y-62426D01*
X162265Y-62397D01*
X162339Y-62382D01*
X162405Y-62375D01*
X162442Y-62367D01*
X162457D01*
X162538Y-62375D01*
D02*
G37*
G36*
X174203Y-70408D02*
X174520Y-70430D01*
X174675Y-70445D01*
X174815Y-70467D01*
X174956Y-70482D01*
X175081Y-70504D01*
X175199Y-70518D01*
X175303Y-70533D01*
X175399Y-70555D01*
X175480Y-70570D01*
X175539Y-70585D01*
X175590Y-70592D01*
X175620Y-70600D01*
X175627D01*
X175886Y-70666D01*
X176129Y-70740D01*
X176358Y-70814D01*
X176461Y-70851D01*
X176557Y-70880D01*
X176646Y-70917D01*
X176727Y-70947D01*
X176793Y-70976D01*
X176852Y-70998D01*
X176897Y-71013D01*
X176934Y-71028D01*
X176956Y-71043D01*
X176963D01*
X177044Y-71079D01*
X177140Y-71124D01*
X177244Y-71175D01*
X177354Y-71234D01*
X177583Y-71360D01*
X177812Y-71485D01*
X177915Y-71544D01*
X178018Y-71596D01*
X178107Y-71648D01*
X178188Y-71699D01*
X178255Y-71736D01*
X178299Y-71766D01*
X178336Y-71781D01*
X178343Y-71788D01*
X169421D01*
X169627Y-71662D01*
X169834Y-71544D01*
X170041Y-71434D01*
X170247Y-71330D01*
X170661Y-71146D01*
X171052Y-70983D01*
X171435Y-70851D01*
X171804Y-70740D01*
X172159Y-70644D01*
X172483Y-70578D01*
X172786Y-70518D01*
X172919Y-70496D01*
X173052Y-70474D01*
X173177Y-70460D01*
X173295Y-70445D01*
X173399Y-70430D01*
X173495Y-70423D01*
X173583Y-70415D01*
X173657Y-70408D01*
X173723D01*
X173775Y-70400D01*
X173819D01*
X173856D01*
X173871D01*
X173878D01*
X174203Y-70408D01*
D02*
G37*
G36*
X166184Y-72205D02*
X166176Y-72035D01*
X166147Y-71873D01*
X166103Y-71718D01*
X166051Y-71570D01*
X165985Y-71437D01*
X165911Y-71312D01*
X165830Y-71194D01*
X165756Y-71090D01*
X165675Y-70995D01*
X165594Y-70913D01*
X165520Y-70840D01*
X165453Y-70788D01*
X165402Y-70736D01*
X165357Y-70707D01*
X165328Y-70684D01*
X165320Y-70677D01*
X165468Y-70611D01*
X165594Y-70537D01*
X165697Y-70456D01*
X165793Y-70375D01*
X165859Y-70293D01*
X165911Y-70234D01*
X165948Y-70190D01*
X165955Y-70183D01*
Y-70175D01*
X166029Y-70035D01*
X166088Y-69888D01*
X166125Y-69740D01*
X166154Y-69600D01*
X166169Y-69474D01*
X166176Y-69423D01*
X166184Y-69371D01*
Y-72205D01*
D02*
G37*
G36*
X177428Y-77744D02*
X171421D01*
Y-75500D01*
X177428D01*
Y-77744D01*
D02*
G37*
G36*
X163749Y-75732D02*
X163911Y-75740D01*
X164058Y-75762D01*
X164199Y-75792D01*
X164331Y-75821D01*
X164450Y-75850D01*
X164560Y-75887D01*
X164656Y-75932D01*
X164745Y-75969D01*
X164819Y-76006D01*
X164878Y-76035D01*
X164929Y-76065D01*
X164974Y-76094D01*
X165003Y-76116D01*
X165018Y-76124D01*
X165025Y-76131D01*
X165114Y-76212D01*
X165188Y-76293D01*
X165261Y-76375D01*
X165313Y-76456D01*
X165365Y-76537D01*
X165402Y-76611D01*
X165468Y-76758D01*
X165498Y-76884D01*
X165512Y-76943D01*
X165520Y-76987D01*
X165527Y-77024D01*
Y-77076D01*
X165520Y-77172D01*
X165505Y-77267D01*
X165483Y-77363D01*
X165453Y-77452D01*
X165380Y-77607D01*
X165291Y-77740D01*
X165202Y-77851D01*
X165165Y-77902D01*
X165129Y-77939D01*
X165099Y-77969D01*
X165077Y-77991D01*
X165062Y-77998D01*
X165055Y-78005D01*
X164959Y-78072D01*
X164856Y-78138D01*
X164752Y-78190D01*
X164634Y-78234D01*
X164398Y-78301D01*
X164169Y-78345D01*
X164058Y-78367D01*
X163962Y-78374D01*
X163874Y-78382D01*
X163793Y-78389D01*
X163726Y-78397D01*
X163682D01*
X163645D01*
X163638D01*
X163461Y-78389D01*
X163291Y-78382D01*
X163136Y-78360D01*
X162996Y-78338D01*
X162863Y-78308D01*
X162737Y-78271D01*
X162634Y-78234D01*
X162538Y-78197D01*
X162450Y-78161D01*
X162376Y-78124D01*
X162317Y-78094D01*
X162265Y-78057D01*
X162228Y-78035D01*
X162199Y-78013D01*
X162184Y-78005D01*
X162177Y-77998D01*
X162095Y-77924D01*
X162022Y-77843D01*
X161962Y-77762D01*
X161911Y-77681D01*
X161867Y-77600D01*
X161822Y-77518D01*
X161771Y-77371D01*
X161734Y-77238D01*
X161726Y-77179D01*
X161719Y-77135D01*
X161712Y-77090D01*
Y-77039D01*
X161719Y-76935D01*
X161734Y-76840D01*
X161756Y-76751D01*
X161785Y-76662D01*
X161852Y-76507D01*
X161940Y-76367D01*
X162022Y-76256D01*
X162058Y-76212D01*
X162095Y-76175D01*
X162118Y-76146D01*
X162140Y-76124D01*
X162154Y-76116D01*
X162162Y-76109D01*
X162250Y-76042D01*
X162354Y-75983D01*
X162464Y-75932D01*
X162575Y-75887D01*
X162811Y-75821D01*
X163040Y-75777D01*
X163143Y-75755D01*
X163247Y-75747D01*
X163335Y-75740D01*
X163416Y-75732D01*
X163483Y-75725D01*
X163527D01*
X163564D01*
X163571D01*
X163749Y-75732D01*
D02*
G37*
G36*
X171317Y-80415D02*
X171347Y-80585D01*
X171384Y-80740D01*
X171443Y-80895D01*
X171502Y-81035D01*
X171576Y-81160D01*
X171650Y-81279D01*
X171731Y-81389D01*
X171804Y-81485D01*
X171878Y-81566D01*
X171952Y-81640D01*
X172011Y-81699D01*
X172070Y-81744D01*
X172107Y-81773D01*
X172137Y-81795D01*
X172144Y-81802D01*
X171421D01*
Y-82548D01*
X171310D01*
Y-80231D01*
X171317Y-80415D01*
D02*
G37*
G36*
X172823Y-86592D02*
X172897Y-86599D01*
X172963Y-86622D01*
X173022Y-86644D01*
X173074Y-86659D01*
X173111Y-86681D01*
X173133Y-86688D01*
X173140Y-86695D01*
X173207Y-86747D01*
X173258Y-86799D01*
X173303Y-86850D01*
X173347Y-86910D01*
X173376Y-86954D01*
X173399Y-86991D01*
X173406Y-87020D01*
X173413Y-87028D01*
X173450Y-87124D01*
X173480Y-87234D01*
X173509Y-87352D01*
X173531Y-87470D01*
X173554Y-87581D01*
X173568Y-87677D01*
X173576Y-87707D01*
X173583Y-87736D01*
Y-87758D01*
X173605Y-87928D01*
X173635Y-88083D01*
X173657Y-88223D01*
X173686Y-88356D01*
X173716Y-88481D01*
X173738Y-88592D01*
X173768Y-88695D01*
X173790Y-88791D01*
X173812Y-88865D01*
X173834Y-88939D01*
X173849Y-88998D01*
X173871Y-89042D01*
X173886Y-89079D01*
X173893Y-89109D01*
X173900Y-89123D01*
Y-89131D01*
X173591Y-89123D01*
X173399Y-89116D01*
X173229Y-89101D01*
X173081Y-89079D01*
X172963Y-89057D01*
X172875Y-89035D01*
X172808Y-89013D01*
X172771Y-88998D01*
X172757Y-88991D01*
X172624Y-88917D01*
X172513Y-88828D01*
X172410Y-88740D01*
X172328Y-88651D01*
X172262Y-88563D01*
X172210Y-88496D01*
X172181Y-88452D01*
X172174Y-88445D01*
Y-88437D01*
X172107Y-88289D01*
X172055Y-88142D01*
X172019Y-88002D01*
X171996Y-87862D01*
X171982Y-87751D01*
X171974Y-87699D01*
X171967Y-87655D01*
Y-87574D01*
X171974Y-87404D01*
X172004Y-87256D01*
X172041Y-87124D01*
X172078Y-87020D01*
X172122Y-86939D01*
X172151Y-86880D01*
X172181Y-86850D01*
X172188Y-86836D01*
X172277Y-86755D01*
X172365Y-86688D01*
X172461Y-86644D01*
X172550Y-86614D01*
X172624Y-86599D01*
X172690Y-86592D01*
X172727Y-86585D01*
X172742D01*
X172823Y-86592D01*
D02*
G37*
G36*
X167793Y-91821D02*
X167291Y-90987D01*
X166073D01*
Y-90367D01*
X167793D01*
Y-91821D01*
D02*
G37*
G36*
X177480Y-99861D02*
X177465Y-99987D01*
X177450Y-100105D01*
X177428Y-100216D01*
X177406Y-100312D01*
X177376Y-100400D01*
X177354Y-100481D01*
X177325Y-100555D01*
X177295Y-100621D01*
X177266Y-100673D01*
X177236Y-100725D01*
X177214Y-100762D01*
X177192Y-100791D01*
X177177Y-100813D01*
X177170Y-100821D01*
X177162Y-100828D01*
X177103Y-100887D01*
X177037Y-100946D01*
X176911Y-101035D01*
X176779Y-101094D01*
X176653Y-101138D01*
X176542Y-101168D01*
X176491Y-101175D01*
X176454D01*
X176417Y-101182D01*
X176395D01*
X176380D01*
X176373D01*
X176255Y-101175D01*
X176137Y-101153D01*
X176033Y-101123D01*
X175945Y-101094D01*
X175864Y-101057D01*
X175812Y-101027D01*
X175775Y-101005D01*
X175760Y-100998D01*
X175664Y-100924D01*
X175576Y-100836D01*
X175509Y-100747D01*
X175450Y-100666D01*
X175406Y-100585D01*
X175376Y-100526D01*
X175362Y-100481D01*
X175354Y-100474D01*
Y-100467D01*
X175310Y-100326D01*
X175280Y-100171D01*
X175258Y-100009D01*
X175244Y-99854D01*
X175236Y-99714D01*
Y-99655D01*
X175229Y-99603D01*
Y-97566D01*
X177480D01*
Y-99861D01*
D02*
G37*
G36*
X174446Y-98725D02*
X174439Y-98828D01*
X174432Y-98917D01*
Y-98990D01*
X174424Y-99042D01*
X174417Y-99079D01*
X174410Y-99101D01*
Y-99109D01*
X174388Y-99190D01*
X174358Y-99264D01*
X174328Y-99330D01*
X174299Y-99396D01*
X174269Y-99448D01*
X174247Y-99485D01*
X174232Y-99515D01*
X174225Y-99522D01*
X174173Y-99596D01*
X174100Y-99677D01*
X174026Y-99758D01*
X173952Y-99825D01*
X173886Y-99891D01*
X173827Y-99935D01*
X173790Y-99965D01*
X173782Y-99979D01*
X173775D01*
X173642Y-100083D01*
X173495Y-100194D01*
X173339Y-100297D01*
X173185Y-100400D01*
X173052Y-100489D01*
X172993Y-100533D01*
X172941Y-100563D01*
X172897Y-100592D01*
X172867Y-100614D01*
X172845Y-100621D01*
X172838Y-100629D01*
X171421Y-101529D01*
Y-97566D01*
X174446D01*
Y-98725D01*
D02*
G37*
G36*
X163357Y-100655D02*
X163143Y-100677D01*
X162944Y-100706D01*
X162760Y-100743D01*
X162590Y-100788D01*
X162435Y-100839D01*
X162295Y-100898D01*
X162169Y-100957D01*
X162058Y-101009D01*
X161955Y-101068D01*
X161874Y-101120D01*
X161808Y-101164D01*
X161749Y-101201D01*
X161712Y-101230D01*
X161689Y-101252D01*
X161682Y-101260D01*
X161564Y-101378D01*
X161468Y-101503D01*
X161380Y-101636D01*
X161306Y-101769D01*
X161239Y-101909D01*
X161188Y-102042D01*
X161143Y-102175D01*
X161106Y-102301D01*
X161077Y-102418D01*
X161062Y-102529D01*
X161047Y-102633D01*
X161033Y-102714D01*
Y-102787D01*
X161025Y-102839D01*
Y-100647D01*
X163579D01*
X163357Y-100655D01*
D02*
G37*
G36*
X171317Y-105263D02*
X171347Y-105433D01*
X171384Y-105588D01*
X171443Y-105743D01*
X171502Y-105883D01*
X171576Y-106009D01*
X171650Y-106127D01*
X171731Y-106238D01*
X171804Y-106334D01*
X171878Y-106415D01*
X171952Y-106489D01*
X172011Y-106548D01*
X172070Y-106592D01*
X172107Y-106622D01*
X172137Y-106644D01*
X172144Y-106651D01*
X171421D01*
Y-107396D01*
X171310D01*
Y-105079D01*
X171317Y-105263D01*
D02*
G37*
G36*
X163771Y-106204D02*
X163933Y-106212D01*
X164081Y-106234D01*
X164221Y-106263D01*
X164346Y-106293D01*
X164464Y-106330D01*
X164568Y-106367D01*
X164664Y-106404D01*
X164745Y-106441D01*
X164819Y-106477D01*
X164878Y-106514D01*
X164929Y-106544D01*
X164966Y-106573D01*
X164996Y-106596D01*
X165010Y-106603D01*
X165018Y-106610D01*
X165099Y-106692D01*
X165173Y-106773D01*
X165239Y-106861D01*
X165291Y-106950D01*
X165335Y-107038D01*
X165372Y-107120D01*
X165431Y-107289D01*
X165468Y-107430D01*
X165475Y-107496D01*
X165483Y-107548D01*
X165490Y-107592D01*
Y-107651D01*
X165483Y-107762D01*
X165468Y-107872D01*
X165446Y-107976D01*
X165416Y-108072D01*
X165343Y-108249D01*
X165254Y-108404D01*
X165210Y-108463D01*
X165165Y-108522D01*
X165129Y-108566D01*
X165092Y-108610D01*
X165062Y-108640D01*
X165040Y-108662D01*
X165025Y-108677D01*
X165018Y-108684D01*
X164922Y-108758D01*
X164826Y-108824D01*
X164715Y-108876D01*
X164605Y-108928D01*
X164487Y-108972D01*
X164368Y-109002D01*
X164147Y-109053D01*
X164044Y-109068D01*
X163948Y-109083D01*
X163859Y-109090D01*
X163778Y-109097D01*
X163719Y-109105D01*
X163667D01*
X163638D01*
X163630D01*
X163453Y-109097D01*
X163291Y-109090D01*
X163136Y-109068D01*
X162996Y-109038D01*
X162863Y-109009D01*
X162745Y-108972D01*
X162634Y-108935D01*
X162546Y-108898D01*
X162457Y-108854D01*
X162383Y-108817D01*
X162324Y-108780D01*
X162273Y-108751D01*
X162236Y-108721D01*
X162206Y-108699D01*
X162191Y-108692D01*
X162184Y-108684D01*
X162103Y-108603D01*
X162029Y-108522D01*
X161962Y-108433D01*
X161911Y-108352D01*
X161867Y-108264D01*
X161830Y-108175D01*
X161771Y-108013D01*
X161734Y-107872D01*
X161726Y-107806D01*
X161719Y-107754D01*
X161712Y-107710D01*
Y-107651D01*
X161719Y-107533D01*
X161734Y-107430D01*
X161756Y-107319D01*
X161785Y-107223D01*
X161859Y-107046D01*
X161948Y-106898D01*
X161985Y-106832D01*
X162029Y-106773D01*
X162066Y-106728D01*
X162103Y-106684D01*
X162132Y-106655D01*
X162154Y-106632D01*
X162169Y-106618D01*
X162177Y-106610D01*
X162273Y-106537D01*
X162376Y-106477D01*
X162487Y-106419D01*
X162597Y-106374D01*
X162833Y-106300D01*
X163069Y-106249D01*
X163173Y-106234D01*
X163276Y-106219D01*
X163365Y-106212D01*
X163446Y-106204D01*
X163512Y-106197D01*
X163557D01*
X163593D01*
X163601D01*
X163771Y-106204D01*
D02*
G37*
G36*
X171317Y-110703D02*
X171340Y-110895D01*
X171376Y-111072D01*
X171413Y-111227D01*
X171428Y-111293D01*
X171443Y-111352D01*
X171465Y-111404D01*
X171480Y-111448D01*
X171494Y-111485D01*
X171502Y-111507D01*
X171509Y-111522D01*
Y-111529D01*
X171590Y-111691D01*
X171679Y-111832D01*
X171775Y-111950D01*
X171871Y-112053D01*
X171952Y-112127D01*
X172019Y-112186D01*
X172063Y-112215D01*
X172070Y-112230D01*
X172078D01*
X172218Y-112311D01*
X172358Y-112378D01*
X172491Y-112422D01*
X172609Y-112452D01*
X172712Y-112466D01*
X172793Y-112481D01*
X171310D01*
Y-110489D01*
X171317Y-110703D01*
D02*
G37*
G36*
Y-115463D02*
X171340Y-115655D01*
X171376Y-115832D01*
X171413Y-115987D01*
X171428Y-116053D01*
X171443Y-116112D01*
X171465Y-116164D01*
X171480Y-116208D01*
X171494Y-116245D01*
X171502Y-116267D01*
X171509Y-116282D01*
Y-116289D01*
X171590Y-116452D01*
X171679Y-116592D01*
X171775Y-116710D01*
X171871Y-116813D01*
X171952Y-116887D01*
X172019Y-116946D01*
X172063Y-116976D01*
X172070Y-116990D01*
X172078D01*
X172218Y-117071D01*
X172358Y-117138D01*
X172491Y-117182D01*
X172609Y-117212D01*
X172712Y-117227D01*
X172793Y-117241D01*
X171310D01*
Y-115249D01*
X171317Y-115463D01*
D02*
G37*
G36*
X166184Y-113179D02*
X166176Y-113002D01*
X166147Y-112832D01*
X166118Y-112684D01*
X166073Y-112551D01*
X166036Y-112448D01*
X166014Y-112404D01*
X165999Y-112367D01*
X165985Y-112337D01*
X165970Y-112315D01*
X165963Y-112308D01*
Y-112300D01*
X165874Y-112160D01*
X165778Y-112042D01*
X165682Y-111939D01*
X165586Y-111850D01*
X165505Y-111776D01*
X165438Y-111725D01*
X165394Y-111695D01*
X165387Y-111680D01*
X166073D01*
Y-110935D01*
X166184D01*
Y-113179D01*
D02*
G37*
G36*
Y-116101D02*
X166176Y-115931D01*
X166147Y-115769D01*
X166103Y-115614D01*
X166051Y-115466D01*
X165985Y-115333D01*
X165911Y-115208D01*
X165830Y-115090D01*
X165756Y-114987D01*
X165675Y-114891D01*
X165594Y-114810D01*
X165520Y-114736D01*
X165453Y-114684D01*
X165402Y-114632D01*
X165357Y-114603D01*
X165328Y-114581D01*
X165320Y-114573D01*
X165468Y-114507D01*
X165594Y-114433D01*
X165697Y-114352D01*
X165793Y-114271D01*
X165859Y-114190D01*
X165911Y-114131D01*
X165948Y-114086D01*
X165955Y-114079D01*
Y-114072D01*
X166029Y-113931D01*
X166088Y-113784D01*
X166125Y-113636D01*
X166154Y-113496D01*
X166169Y-113371D01*
X166176Y-113319D01*
X166184Y-113267D01*
Y-116101D01*
D02*
G37*
G36*
X172823Y-120961D02*
X172897Y-120968D01*
X172963Y-120990D01*
X173022Y-121012D01*
X173074Y-121027D01*
X173111Y-121049D01*
X173133Y-121057D01*
X173140Y-121064D01*
X173207Y-121116D01*
X173258Y-121167D01*
X173303Y-121219D01*
X173347Y-121278D01*
X173376Y-121322D01*
X173399Y-121359D01*
X173406Y-121389D01*
X173413Y-121396D01*
X173450Y-121492D01*
X173480Y-121603D01*
X173509Y-121721D01*
X173531Y-121839D01*
X173554Y-121950D01*
X173568Y-122046D01*
X173576Y-122075D01*
X173583Y-122105D01*
Y-122127D01*
X173605Y-122297D01*
X173635Y-122451D01*
X173657Y-122592D01*
X173686Y-122725D01*
X173716Y-122850D01*
X173738Y-122961D01*
X173768Y-123064D01*
X173790Y-123160D01*
X173812Y-123234D01*
X173834Y-123308D01*
X173849Y-123367D01*
X173871Y-123411D01*
X173886Y-123448D01*
X173893Y-123477D01*
X173900Y-123492D01*
Y-123500D01*
X173591Y-123492D01*
X173399Y-123485D01*
X173229Y-123470D01*
X173081Y-123448D01*
X172963Y-123426D01*
X172875Y-123404D01*
X172808Y-123381D01*
X172771Y-123367D01*
X172757Y-123359D01*
X172624Y-123285D01*
X172513Y-123197D01*
X172410Y-123108D01*
X172328Y-123020D01*
X172262Y-122931D01*
X172210Y-122865D01*
X172181Y-122821D01*
X172174Y-122813D01*
Y-122806D01*
X172107Y-122658D01*
X172055Y-122511D01*
X172019Y-122370D01*
X171996Y-122230D01*
X171982Y-122119D01*
X171974Y-122068D01*
X171967Y-122023D01*
Y-121942D01*
X171974Y-121773D01*
X172004Y-121625D01*
X172041Y-121492D01*
X172078Y-121389D01*
X172122Y-121308D01*
X172151Y-121249D01*
X172181Y-121219D01*
X172188Y-121204D01*
X172277Y-121123D01*
X172365Y-121057D01*
X172461Y-121012D01*
X172550Y-120983D01*
X172624Y-120968D01*
X172690Y-120961D01*
X172727Y-120953D01*
X172742D01*
X172823Y-120961D01*
D02*
G37*
G36*
X169760Y-126422D02*
X170115Y-126643D01*
X170454Y-126843D01*
X170616Y-126931D01*
X170771Y-127012D01*
X170919Y-127086D01*
X171052Y-127153D01*
X171170Y-127204D01*
X171266Y-127249D01*
X171354Y-127285D01*
X171413Y-127315D01*
X171450Y-127330D01*
X171465Y-127337D01*
X171686Y-127426D01*
X171900Y-127499D01*
X172122Y-127566D01*
X172336Y-127618D01*
X172543Y-127669D01*
X172742Y-127706D01*
X172934Y-127736D01*
X173111Y-127765D01*
X173281Y-127787D01*
X173428Y-127802D01*
X173561Y-127809D01*
X173672Y-127817D01*
X173760Y-127824D01*
X169421D01*
Y-126178D01*
X169760Y-126422D01*
D02*
G37*
%LPC*%
G36*
X186635Y-41390D02*
X179824D01*
Y-47899D01*
X186635D01*
Y-46681D01*
X181897Y-45043D01*
X181764Y-44998D01*
X181647Y-44954D01*
X181528Y-44917D01*
X181425Y-44880D01*
X181322Y-44851D01*
X181233Y-44821D01*
X181152Y-44792D01*
X181078Y-44770D01*
X181019Y-44747D01*
X180960Y-44733D01*
X180916Y-44718D01*
X180872Y-44703D01*
X180842Y-44696D01*
X180820Y-44688D01*
X180813Y-44681D01*
X180805D01*
X180872Y-44659D01*
X180945Y-44637D01*
X181100Y-44585D01*
X181270Y-44534D01*
X181432Y-44482D01*
X181580Y-44430D01*
X181647Y-44408D01*
X181698Y-44393D01*
X181742Y-44379D01*
X181779Y-44364D01*
X181801Y-44356D01*
X181809D01*
X186635Y-42740D01*
Y-41390D01*
D02*
G37*
G36*
Y-49249D02*
X185683D01*
Y-50083D01*
X184761D01*
Y-49249D01*
X179824D01*
Y-50083D01*
X186635D01*
Y-49249D01*
D02*
G37*
G36*
X184871Y-56105D02*
X179824D01*
Y-58784D01*
Y-56939D01*
X182407D01*
X182598Y-56947D01*
X182783Y-56961D01*
X182945Y-56984D01*
X183093Y-57006D01*
X183211Y-57028D01*
X183263Y-57043D01*
X183307Y-57050D01*
X183336Y-57057D01*
X183359Y-57065D01*
X183373Y-57072D01*
X183381D01*
X183484Y-57116D01*
X183580Y-57161D01*
X183654Y-57212D01*
X183720Y-57264D01*
X183772Y-57308D01*
X183809Y-57345D01*
X183831Y-57375D01*
X183838Y-57382D01*
X183897Y-57471D01*
X183934Y-57552D01*
X183964Y-57633D01*
X183986Y-57714D01*
X184001Y-57781D01*
X184008Y-57832D01*
Y-57876D01*
X184001Y-57995D01*
X183978Y-58105D01*
X183949Y-58209D01*
X183920Y-58297D01*
X183883Y-58378D01*
X183853Y-58437D01*
X183831Y-58474D01*
X183824Y-58489D01*
X184599Y-58784D01*
X184687Y-58622D01*
X184753Y-58460D01*
X184805Y-58319D01*
X184835Y-58187D01*
X184857Y-58076D01*
X184864Y-58031D01*
Y-57995D01*
X184871Y-57965D01*
Y-58696D01*
Y-57921D01*
X184864Y-57818D01*
X184842Y-57714D01*
X184820Y-57626D01*
X184790Y-57544D01*
X184753Y-57485D01*
X184731Y-57434D01*
X184709Y-57404D01*
X184702Y-57389D01*
X184665Y-57345D01*
X184621Y-57293D01*
X184525Y-57205D01*
X184407Y-57116D01*
X184289Y-57035D01*
X184185Y-56961D01*
X184089Y-56910D01*
X184060Y-56888D01*
X184030Y-56873D01*
X184015Y-56858D01*
X184761D01*
Y-56105D01*
X184871D01*
D02*
G37*
G36*
Y-64570D02*
X179824D01*
Y-68577D01*
X184871D01*
X183056D01*
X183152Y-68570D01*
X183233D01*
X183307Y-68563D01*
X183373D01*
X183484Y-68555D01*
X183565Y-68541D01*
X183624Y-68533D01*
X183661Y-68526D01*
X183669D01*
X183801Y-68496D01*
X183920Y-68452D01*
X184023Y-68415D01*
X184111Y-68371D01*
X184185Y-68327D01*
X184244Y-68297D01*
X184274Y-68275D01*
X184289Y-68268D01*
X184384Y-68194D01*
X184466Y-68105D01*
X184532Y-68009D01*
X184599Y-67921D01*
X184643Y-67832D01*
X184680Y-67766D01*
X184702Y-67721D01*
X184709Y-67714D01*
Y-67707D01*
X184761Y-67567D01*
X184805Y-67426D01*
X184835Y-67286D01*
X184849Y-67161D01*
X184864Y-67050D01*
Y-67006D01*
X184871Y-66961D01*
Y-66887D01*
X184864Y-66703D01*
X184835Y-66526D01*
X184798Y-66364D01*
X184746Y-66209D01*
X184680Y-66068D01*
X184613Y-65943D01*
X184539Y-65825D01*
X184466Y-65721D01*
X184384Y-65626D01*
X184311Y-65544D01*
X184244Y-65478D01*
X184178Y-65426D01*
X184126Y-65382D01*
X184089Y-65345D01*
X184060Y-65330D01*
X184052Y-65323D01*
X184761D01*
Y-64570D01*
X184871D01*
D02*
G37*
G36*
X182709Y-69530D02*
X181868D01*
Y-72105D01*
X182709D01*
Y-69530D01*
D02*
G37*
G36*
X186635Y-80496D02*
X179824D01*
Y-84755D01*
X180628D01*
Y-81397D01*
X186635D01*
Y-84755D01*
X182263D01*
X186635D01*
Y-80496D01*
D02*
G37*
G36*
Y-85980D02*
X179824D01*
Y-86880D01*
X186635D01*
Y-85980D01*
D02*
G37*
G36*
Y-88459D02*
X179824D01*
Y-89323D01*
X185167D01*
X179824Y-92895D01*
Y-93824D01*
X186635D01*
Y-88459D01*
D02*
G37*
G36*
X184761Y-97360D02*
X179824Y-99227D01*
Y-100024D01*
X184761Y-101898D01*
Y-97360D01*
D02*
G37*
G36*
X180776Y-102872D02*
X179824D01*
Y-103824D01*
X180776D01*
Y-102872D01*
D02*
G37*
G36*
X186658Y-104931D02*
X179824D01*
Y-109441D01*
X180628D01*
Y-106083D01*
X180790Y-106201D01*
X180864Y-106260D01*
X180931Y-106319D01*
X180990Y-106370D01*
X181034Y-106407D01*
X181063Y-106437D01*
X181071Y-106444D01*
X181115Y-106489D01*
X181174Y-106548D01*
X181233Y-106614D01*
X181300Y-106688D01*
X181447Y-106843D01*
X181587Y-107005D01*
X181720Y-107160D01*
X181779Y-107227D01*
X181831Y-107293D01*
X181875Y-107337D01*
X181905Y-107382D01*
X181927Y-107404D01*
X181934Y-107411D01*
X182074Y-107573D01*
X182207Y-107728D01*
X182325Y-107869D01*
X182443Y-107994D01*
X182547Y-108112D01*
X182650Y-108215D01*
X182739Y-108311D01*
X182820Y-108400D01*
X182886Y-108474D01*
X182953Y-108533D01*
X183004Y-108584D01*
X183049Y-108629D01*
X183086Y-108658D01*
X183108Y-108688D01*
X183123Y-108695D01*
X183130Y-108703D01*
X183292Y-108843D01*
X183440Y-108953D01*
X183580Y-109049D01*
X183705Y-109131D01*
X183809Y-109190D01*
X183890Y-109234D01*
X183920Y-109249D01*
X183942Y-109256D01*
X183949Y-109264D01*
X183956D01*
X184104Y-109323D01*
X184252Y-109359D01*
X184384Y-109389D01*
X184510Y-109411D01*
X184613Y-109426D01*
X184694Y-109433D01*
X184724D01*
X184746D01*
X184753D01*
X184761D01*
X184908Y-109426D01*
X185049Y-109411D01*
X185181Y-109382D01*
X185314Y-109345D01*
X185432Y-109300D01*
X185543Y-109249D01*
X185646Y-109197D01*
X185735Y-109145D01*
X185824Y-109094D01*
X185897Y-109042D01*
X185964Y-108990D01*
X186015Y-108946D01*
X186052Y-108909D01*
X186089Y-108880D01*
X186104Y-108865D01*
X186111Y-108858D01*
X186207Y-108747D01*
X186288Y-108629D01*
X186362Y-108503D01*
X186429Y-108370D01*
X186480Y-108245D01*
X186525Y-108112D01*
X186562Y-107987D01*
X186591Y-107861D01*
X186613Y-107751D01*
X186628Y-107640D01*
X186643Y-107544D01*
X186650Y-107463D01*
X186658Y-107396D01*
Y-107300D01*
X186650Y-107123D01*
X186635Y-106954D01*
X186613Y-106799D01*
X186576Y-106651D01*
X186539Y-106511D01*
X186495Y-106385D01*
X186451Y-106267D01*
X186407Y-106164D01*
X186355Y-106068D01*
X186311Y-105987D01*
X186266Y-105913D01*
X186229Y-105854D01*
X186193Y-105810D01*
X186170Y-105780D01*
X186156Y-105758D01*
X186148Y-105751D01*
X186052Y-105647D01*
X185942Y-105559D01*
X185831Y-105477D01*
X185705Y-105404D01*
X185587Y-105345D01*
X185469Y-105286D01*
X185344Y-105241D01*
X185233Y-105204D01*
X185122Y-105168D01*
X185019Y-105146D01*
X184923Y-105123D01*
X184842Y-105108D01*
X184776Y-105101D01*
X184731Y-105094D01*
X184702Y-105086D01*
X184687D01*
X184599Y-105942D01*
X184716Y-105950D01*
X184827Y-105957D01*
X185019Y-106001D01*
X185196Y-106061D01*
X185270Y-106090D01*
X185336Y-106127D01*
X185396Y-106157D01*
X185447Y-106193D01*
X185491Y-106223D01*
X185528Y-106245D01*
X185558Y-106275D01*
X185580Y-106289D01*
X185587Y-106297D01*
X185595Y-106304D01*
X185661Y-106378D01*
X185720Y-106452D01*
X185765Y-106533D01*
X185809Y-106614D01*
X185875Y-106776D01*
X185919Y-106931D01*
X185942Y-107064D01*
X185956Y-107123D01*
Y-107175D01*
X185964Y-107219D01*
Y-107382D01*
X185949Y-107485D01*
X185912Y-107669D01*
X185853Y-107824D01*
X185794Y-107965D01*
X185728Y-108068D01*
X185698Y-108112D01*
X185669Y-108149D01*
X185646Y-108179D01*
X185632Y-108201D01*
X185624Y-108208D01*
X185617Y-108215D01*
X185550Y-108282D01*
X185484Y-108334D01*
X185418Y-108385D01*
X185344Y-108422D01*
X185204Y-108489D01*
X185071Y-108533D01*
X184960Y-108555D01*
X184908Y-108570D01*
X184864D01*
X184835Y-108577D01*
X184805D01*
X184790D01*
X184783D01*
X184694Y-108570D01*
X184606Y-108562D01*
X184429Y-108518D01*
X184259Y-108452D01*
X184104Y-108378D01*
X183971Y-108304D01*
X183920Y-108275D01*
X183868Y-108238D01*
X183831Y-108215D01*
X183801Y-108193D01*
X183787Y-108186D01*
X183779Y-108179D01*
X183676Y-108098D01*
X183565Y-108001D01*
X183447Y-107891D01*
X183329Y-107773D01*
X183086Y-107529D01*
X182857Y-107278D01*
X182746Y-107160D01*
X182650Y-107042D01*
X182562Y-106939D01*
X182488Y-106850D01*
X182421Y-106776D01*
X182377Y-106725D01*
X182340Y-106688D01*
X182333Y-106673D01*
X182222Y-106540D01*
X182119Y-106422D01*
X182023Y-106304D01*
X181927Y-106201D01*
X181838Y-106097D01*
X181750Y-106009D01*
X181676Y-105928D01*
X181602Y-105854D01*
X181536Y-105788D01*
X181477Y-105736D01*
X181425Y-105684D01*
X181388Y-105647D01*
X181351Y-105610D01*
X181329Y-105588D01*
X181314Y-105581D01*
X181307Y-105573D01*
X181145Y-105441D01*
X180982Y-105330D01*
X180827Y-105234D01*
X180687Y-105160D01*
X180569Y-105101D01*
X180517Y-105079D01*
X180480Y-105057D01*
X180444Y-105042D01*
X180421Y-105035D01*
X180407Y-105027D01*
X180399D01*
X180296Y-104990D01*
X180193Y-104968D01*
X180097Y-104946D01*
X180008Y-104939D01*
X179934Y-104931D01*
X186658D01*
D02*
G37*
%LPD*%
G36*
X179824Y-44224D02*
Y-42261D01*
X185624D01*
X179824Y-44224D01*
D02*
G37*
G36*
X185528Y-47028D02*
X179824D01*
Y-45035D01*
X185528Y-47028D01*
D02*
G37*
G36*
X182687Y-65412D02*
X182849Y-65419D01*
X182990Y-65441D01*
X183123Y-65463D01*
X183240Y-65493D01*
X183344Y-65522D01*
X183440Y-65559D01*
X183521Y-65596D01*
X183595Y-65633D01*
X183654Y-65670D01*
X183698Y-65699D01*
X183742Y-65729D01*
X183772Y-65751D01*
X183794Y-65773D01*
X183801Y-65781D01*
X183809Y-65788D01*
X183868Y-65862D01*
X183920Y-65943D01*
X184008Y-66098D01*
X184067Y-66253D01*
X184104Y-66393D01*
X184134Y-66518D01*
X184141Y-66578D01*
Y-66622D01*
X184148Y-66659D01*
Y-66710D01*
X184141Y-66836D01*
X184126Y-66947D01*
X184097Y-67042D01*
X184074Y-67131D01*
X184045Y-67198D01*
X184015Y-67249D01*
X184001Y-67286D01*
X183993Y-67293D01*
X183934Y-67382D01*
X183868Y-67456D01*
X183801Y-67515D01*
X183735Y-67559D01*
X183676Y-67596D01*
X183632Y-67618D01*
X183602Y-67633D01*
X183587Y-67640D01*
X183484Y-67677D01*
X183366Y-67699D01*
X183240Y-67721D01*
X183115Y-67729D01*
X183004Y-67736D01*
X182953Y-67744D01*
X182908D01*
X182879D01*
X182849D01*
X182835D01*
X182827D01*
X179824D01*
Y-65404D01*
X182517D01*
X182687Y-65412D01*
D02*
G37*
G36*
X186635Y-92961D02*
X181285D01*
X186635Y-89382D01*
Y-92961D01*
D02*
G37*
G36*
X184761Y-101035D02*
X181742Y-99935D01*
X181543Y-99861D01*
X181366Y-99802D01*
X181204Y-99751D01*
X181071Y-99706D01*
X180960Y-99669D01*
X180916Y-99655D01*
X180872Y-99647D01*
X180842Y-99640D01*
X180820Y-99633D01*
X180813Y-99625D01*
X180805D01*
X180997Y-99566D01*
X181182Y-99515D01*
X181351Y-99463D01*
X181499Y-99411D01*
X181624Y-99367D01*
X181676Y-99352D01*
X181720Y-99337D01*
X181757Y-99323D01*
X181779Y-99315D01*
X181794Y-99308D01*
X181801D01*
X184761Y-98245D01*
Y-101035D01*
D02*
G37*
D10*
X97861Y-69485D02*
G03*
X97861Y-69485I-1181J0D01*
G01*
X37819Y-31898D02*
G03*
X37819Y-31898I-1181J0D01*
G01*
D11*
X94875Y-58976D02*
G03*
X94875Y-58976I-492J0D01*
G01*
X28272Y-26189D02*
G03*
X28272Y-26189I-492J0D01*
G01*
X83217Y-39587D02*
G03*
X83217Y-39587I-492J0D01*
G01*
D12*
X167982Y-11705D02*
G03*
X167982Y-11705I-285J0D01*
G01*
X46291Y60248D02*
G03*
X46685Y60248I197J0D01*
G01*
D02*
G03*
X46291Y60248I-197J0D01*
G01*
X72460Y-88137D02*
X96680Y-112357D01*
Y-63918D02*
X120899Y-88137D01*
X96680Y-112357D02*
X120899Y-88137D01*
X72460D02*
X96680Y-63918D01*
X27000Y-65500D02*
X37000D01*
X27000Y-125500D02*
X37000D01*
X27000D02*
Y-65500D01*
X37000Y-125500D02*
Y-65500D01*
X140500Y-15516D02*
X165500D01*
X140500Y1453D02*
X165500D01*
X140500Y-8862D02*
Y1453D01*
X165500Y-8862D02*
Y1453D01*
X72240Y-4031D02*
X74602D01*
Y-15449D02*
Y-4031D01*
X72240Y-15449D02*
X74602D01*
X72240D02*
Y-4031D01*
X66138Y-3835D02*
X70862D01*
X105610Y-9563D02*
Y-7437D01*
X119390Y-9563D02*
Y-7437D01*
X111437Y-1610D02*
X113563D01*
X111437Y-15390D02*
X113563D01*
X45709Y-13181D02*
Y-10819D01*
X34291Y-13181D02*
X45709D01*
X34291D02*
Y-10819D01*
X45709D01*
X45906Y-9441D02*
Y-4716D01*
X32701Y-48039D02*
X45299D01*
X32701Y-27961D02*
X45299D01*
Y-48039D02*
Y-27961D01*
X32701Y-48039D02*
Y-27961D01*
X77016Y-38602D02*
X78984D01*
X77016Y-26398D02*
X78984D01*
Y-38602D02*
Y-26398D01*
X77016Y-38602D02*
Y-26398D01*
X48752Y47748D02*
X148752D01*
Y147748D01*
X48752D02*
X148752D01*
X48752Y47748D02*
Y147748D01*
X46291Y60248D02*
X46685D01*
D13*
X5752Y10248D02*
G03*
X10752Y5248I5000J0D01*
G01*
X185752D02*
G03*
X190752Y10248I0J5000D01*
G01*
Y186748D02*
G03*
X187252Y190248I-3500J0D01*
G01*
X9252D02*
G03*
X5752Y186748I0J-3500D01*
G01*
Y10248D02*
Y17748D01*
X10752Y5248D02*
X13652D01*
X180752D02*
X185752D01*
X190752Y10248D02*
Y20000D01*
Y89748D01*
X181752Y190248D02*
X187252D01*
X9252D02*
X24252D01*
X5752Y151748D02*
Y186748D01*
X190752Y160748D02*
Y186748D01*
X13652Y5248D02*
X180752D01*
X5752Y151748D02*
X5752Y17748D01*
X24252Y190248D02*
X181752D01*
X190752Y89748D02*
Y160748D01*
X45498Y-89999D02*
Y-87999D01*
Y-88999D01*
X40500D01*
X39500Y-87999D01*
Y-87000D01*
X40500Y-86000D01*
X45498Y-91998D02*
Y-95997D01*
Y-93997D01*
X39500D01*
Y-97996D02*
X43499D01*
X45498Y-99995D01*
X43499Y-101995D01*
X39500D01*
X42499D01*
Y-97996D01*
X44498Y-107993D02*
X45498Y-106993D01*
Y-104994D01*
X44498Y-103994D01*
X40500D01*
X39500Y-104994D01*
Y-106993D01*
X40500Y-107993D01*
X42499D01*
Y-105993D01*
X71751Y201246D02*
X69752D01*
X68752Y200246D01*
Y196248D01*
X69752Y195248D01*
X71751D01*
X72751Y196248D01*
Y200246D01*
X71751Y201246D01*
X78749Y200246D02*
X77749Y201246D01*
X75750D01*
X74750Y200246D01*
Y196248D01*
X75750Y195248D01*
X77749D01*
X78749Y196248D01*
X80748Y201246D02*
X84747Y195248D01*
Y201246D02*
X80748Y195248D01*
X89745Y201246D02*
X87746D01*
X86746Y200246D01*
Y196248D01*
X87746Y195248D01*
X89745D01*
X90745Y196248D01*
Y200246D01*
X89745Y201246D01*
X99742Y200246D02*
Y199247D01*
X98742D01*
X100742D01*
X99742D01*
Y196248D01*
X100742Y195248D01*
X103741D02*
X105740D01*
X104740D01*
Y199247D01*
X103741D01*
X108739Y195248D02*
Y199247D01*
X109739D01*
X110738Y198247D01*
Y195248D01*
Y198247D01*
X111738Y199247D01*
X112738Y198247D01*
Y195248D01*
X117736D02*
X115737D01*
X114737Y196248D01*
Y198247D01*
X115737Y199247D01*
X117736D01*
X118736Y198247D01*
Y197247D01*
X114737D01*
X120735Y201246D02*
Y195248D01*
X123734D01*
X124734Y196248D01*
Y197247D01*
Y198247D01*
X123734Y199247D01*
X120735D01*
X127733D02*
X129732D01*
X130732Y198247D01*
Y195248D01*
X127733D01*
X126733Y196248D01*
X127733Y197247D01*
X130732D01*
X132731Y195248D02*
X135730D01*
X136730Y196248D01*
X135730Y197247D01*
X133731D01*
X132731Y198247D01*
X133731Y199247D01*
X136730D01*
X141728Y195248D02*
X139729D01*
X138729Y196248D01*
Y198247D01*
X139729Y199247D01*
X141728D01*
X142728Y198247D01*
Y197247D01*
X138729D01*
D14*
X16984Y-118278D02*
X17476Y-117786D01*
Y-116802D01*
X16984Y-116310D01*
X15016D01*
X14524Y-116802D01*
Y-117786D01*
X15016Y-118278D01*
X14524Y-119262D02*
Y-120246D01*
Y-119754D01*
X17476D01*
X16984Y-119262D01*
X15016Y-121722D02*
X14524Y-122214D01*
Y-123198D01*
X15016Y-123690D01*
X16984D01*
X17476Y-123198D01*
Y-122214D01*
X16984Y-121722D01*
X16492D01*
X16000Y-122214D01*
Y-123690D01*
X130984Y-60278D02*
X131476Y-59786D01*
Y-58802D01*
X130984Y-58310D01*
X129016D01*
X128524Y-58802D01*
Y-59786D01*
X129016Y-60278D01*
X128524Y-61262D02*
Y-62246D01*
Y-61754D01*
X131476D01*
X130984Y-61262D01*
Y-63722D02*
X131476Y-64214D01*
Y-65198D01*
X130984Y-65690D01*
X130492D01*
X130000Y-65198D01*
X129508Y-65690D01*
X129016D01*
X128524Y-65198D01*
Y-64214D01*
X129016Y-63722D01*
X129508D01*
X130000Y-64214D01*
X130492Y-63722D01*
X130984D01*
X130000Y-64214D02*
Y-65198D01*
X113984Y-127778D02*
X114476Y-127286D01*
Y-126302D01*
X113984Y-125810D01*
X112016D01*
X111524Y-126302D01*
Y-127286D01*
X112016Y-127778D01*
X111524Y-128762D02*
Y-129746D01*
Y-129254D01*
X114476D01*
X113984Y-128762D01*
X114476Y-131222D02*
Y-133190D01*
X113984D01*
X112016Y-131222D01*
X111524D01*
X72984Y-120778D02*
X73476Y-120286D01*
Y-119302D01*
X72984Y-118810D01*
X71016D01*
X70524Y-119302D01*
Y-120286D01*
X71016Y-120778D01*
X70524Y-121762D02*
Y-122746D01*
Y-122254D01*
X73476D01*
X72984Y-121762D01*
X73476Y-126190D02*
X72984Y-125206D01*
X72000Y-124222D01*
X71016D01*
X70524Y-124714D01*
Y-125698D01*
X71016Y-126190D01*
X71508D01*
X72000Y-125698D01*
Y-124222D01*
X145778Y-123516D02*
X145286Y-123024D01*
X144302D01*
X143810Y-123516D01*
Y-125484D01*
X144302Y-125976D01*
X145286D01*
X145778Y-125484D01*
X146762Y-125976D02*
X147746D01*
X147254D01*
Y-123024D01*
X146762Y-123516D01*
X151190Y-123024D02*
X149222D01*
Y-124500D01*
X150206Y-124008D01*
X150698D01*
X151190Y-124500D01*
Y-125484D01*
X150698Y-125976D01*
X149714D01*
X149222Y-125484D01*
X168278Y-134516D02*
X167786Y-134024D01*
X166802D01*
X166310Y-134516D01*
Y-136484D01*
X166802Y-136976D01*
X167786D01*
X168278Y-136484D01*
X169262Y-136976D02*
X170246D01*
X169754D01*
Y-134024D01*
X169262Y-134516D01*
X173198Y-136976D02*
Y-134024D01*
X171722Y-135500D01*
X173690D01*
X135976Y-4056D02*
X134008D01*
X133024Y-5040D01*
X134008Y-6024D01*
X135976D01*
X133024Y-7008D02*
X135976D01*
Y-8484D01*
X135484Y-8976D01*
X134500D01*
X134008Y-8484D01*
Y-7008D01*
Y-7992D02*
X133024Y-8976D01*
Y-9960D02*
Y-10944D01*
Y-10452D01*
X135976D01*
X135484Y-9960D01*
X98524Y-6540D02*
X101476D01*
Y-8016D01*
X100984Y-8508D01*
X100000D01*
X99508Y-8016D01*
Y-6540D01*
X100984Y-9492D02*
X101476Y-9984D01*
Y-10968D01*
X100984Y-11460D01*
X100492D01*
X100000Y-10968D01*
Y-10476D01*
Y-10968D01*
X99508Y-11460D01*
X99016D01*
X98524Y-10968D01*
Y-9984D01*
X99016Y-9492D01*
X85976Y-5810D02*
Y-6794D01*
Y-6302D01*
X83024D01*
Y-5810D01*
Y-6794D01*
X85484Y-10238D02*
X85976Y-9746D01*
Y-8762D01*
X85484Y-8270D01*
X83516D01*
X83024Y-8762D01*
Y-9746D01*
X83516Y-10238D01*
X83024Y-13190D02*
Y-11222D01*
X84992Y-13190D01*
X85484D01*
X85976Y-12698D01*
Y-11714D01*
X85484Y-11222D01*
X144778Y-135016D02*
X144286Y-134524D01*
X143302D01*
X142810Y-135016D01*
Y-136984D01*
X143302Y-137476D01*
X144286D01*
X144778Y-136984D01*
X145762Y-137476D02*
X146746D01*
X146254D01*
Y-134524D01*
X145762Y-135016D01*
X148222D02*
X148714Y-134524D01*
X149698D01*
X150190Y-135016D01*
Y-135508D01*
X149698Y-136000D01*
X149206D01*
X149698D01*
X150190Y-136492D01*
Y-136984D01*
X149698Y-137476D01*
X148714D01*
X148222Y-136984D01*
X98976Y-52540D02*
X96516D01*
X96024Y-53032D01*
Y-54016D01*
X96516Y-54508D01*
X98976D01*
Y-57460D02*
Y-55492D01*
X97500D01*
X97992Y-56476D01*
Y-56968D01*
X97500Y-57460D01*
X96516D01*
X96024Y-56968D01*
Y-55984D01*
X96516Y-55492D01*
X97784Y136724D02*
Y136232D01*
X98768Y135248D01*
X99752Y136232D01*
Y136724D01*
X98768Y135248D02*
Y133772D01*
X100736D02*
X101720D01*
X101228D01*
Y136724D01*
X100736Y136232D01*
X30476Y-8802D02*
Y-9786D01*
Y-9294D01*
X27524D01*
Y-8802D01*
Y-9786D01*
X29984Y-13230D02*
X30476Y-12738D01*
Y-11754D01*
X29984Y-11262D01*
X28016D01*
X27524Y-11754D01*
Y-12738D01*
X28016Y-13230D01*
X27524Y-14214D02*
Y-15198D01*
Y-14706D01*
X30476D01*
X29984Y-14214D01*
X41532Y-23524D02*
Y-25984D01*
X42024Y-26476D01*
X43008D01*
X43500Y-25984D01*
Y-23524D01*
X44484Y-26476D02*
X45468D01*
X44976D01*
Y-23524D01*
X44484Y-24016D01*
X10024Y-22532D02*
X12976D01*
Y-24008D01*
X12484Y-24500D01*
X11500D01*
X11008Y-24008D01*
Y-22532D01*
Y-23516D02*
X10024Y-24500D01*
Y-25484D02*
Y-26468D01*
Y-25976D01*
X12976D01*
X12484Y-25484D01*
X79976Y-20040D02*
X77516D01*
X77024Y-20532D01*
Y-21516D01*
X77516Y-22008D01*
X79976D01*
X77024Y-24960D02*
Y-22992D01*
X78992Y-24960D01*
X79484D01*
X79976Y-24468D01*
Y-23484D01*
X79484Y-22992D01*
X89024Y-20040D02*
X91976D01*
Y-21516D01*
X91484Y-22008D01*
X90500D01*
X90008Y-21516D01*
Y-20040D01*
Y-21024D02*
X89024Y-22008D01*
X91976Y-24960D02*
Y-22992D01*
X90500D01*
X90992Y-23976D01*
Y-24468D01*
X90500Y-24960D01*
X89516D01*
X89024Y-24468D01*
Y-23484D01*
X89516Y-22992D01*
X65024Y-39540D02*
X67976D01*
Y-41016D01*
X67484Y-41508D01*
X66500D01*
X66008Y-41016D01*
Y-39540D01*
Y-40524D02*
X65024Y-41508D01*
Y-43968D02*
X67976D01*
X66500Y-42492D01*
Y-44460D01*
X94524Y-19540D02*
X97476D01*
Y-21016D01*
X96984Y-21508D01*
X96000D01*
X95508Y-21016D01*
Y-19540D01*
Y-20524D02*
X94524Y-21508D01*
X96984Y-22492D02*
X97476Y-22984D01*
Y-23968D01*
X96984Y-24460D01*
X96492D01*
X96000Y-23968D01*
Y-23476D01*
Y-23968D01*
X95508Y-24460D01*
X95016D01*
X94524Y-23968D01*
Y-22984D01*
X95016Y-22492D01*
X58024Y-39040D02*
X60976D01*
Y-40516D01*
X60484Y-41008D01*
X59500D01*
X59008Y-40516D01*
Y-39040D01*
Y-40024D02*
X58024Y-41008D01*
Y-43960D02*
Y-41992D01*
X59992Y-43960D01*
X60484D01*
X60976Y-43468D01*
Y-42484D01*
X60484Y-41992D01*
X123778Y-135016D02*
X123286Y-134524D01*
X122302D01*
X121810Y-135016D01*
Y-136984D01*
X122302Y-137476D01*
X123286D01*
X123778Y-136984D01*
X124762Y-137476D02*
X125746D01*
X125254D01*
Y-134524D01*
X124762Y-135016D01*
X127222D02*
X127714Y-134524D01*
X128698D01*
X129190Y-135016D01*
Y-136984D01*
X128698Y-137476D01*
X127714D01*
X127222Y-136984D01*
Y-135016D01*
X124484Y-68008D02*
X124976Y-67516D01*
Y-66532D01*
X124484Y-66040D01*
X122516D01*
X122024Y-66532D01*
Y-67516D01*
X122516Y-68008D01*
Y-68992D02*
X122024Y-69484D01*
Y-70468D01*
X122516Y-70960D01*
X124484D01*
X124976Y-70468D01*
Y-69484D01*
X124484Y-68992D01*
X123992D01*
X123500Y-69484D01*
Y-70960D01*
X78984Y-114008D02*
X79476Y-113516D01*
Y-112532D01*
X78984Y-112040D01*
X77016D01*
X76524Y-112532D01*
Y-113516D01*
X77016Y-114008D01*
X78984Y-114992D02*
X79476Y-115484D01*
Y-116468D01*
X78984Y-116960D01*
X78492D01*
X78000Y-116468D01*
X77508Y-116960D01*
X77016D01*
X76524Y-116468D01*
Y-115484D01*
X77016Y-114992D01*
X77508D01*
X78000Y-115484D01*
X78492Y-114992D01*
X78984D01*
X78000Y-115484D02*
Y-116468D01*
X107984Y-122008D02*
X108476Y-121516D01*
Y-120532D01*
X107984Y-120040D01*
X106016D01*
X105524Y-120532D01*
Y-121516D01*
X106016Y-122008D01*
X108476Y-122992D02*
Y-124960D01*
X107984D01*
X106016Y-122992D01*
X105524D01*
X18484Y-55008D02*
X18976Y-54516D01*
Y-53532D01*
X18484Y-53040D01*
X16516D01*
X16024Y-53532D01*
Y-54516D01*
X16516Y-55008D01*
X18976Y-57960D02*
X18484Y-56976D01*
X17500Y-55992D01*
X16516D01*
X16024Y-56484D01*
Y-57468D01*
X16516Y-57960D01*
X17008D01*
X17500Y-57468D01*
Y-55992D01*
X79484Y-49508D02*
X79976Y-49016D01*
Y-48032D01*
X79484Y-47540D01*
X77516D01*
X77024Y-48032D01*
Y-49016D01*
X77516Y-49508D01*
X79976Y-52460D02*
Y-50492D01*
X78500D01*
X78992Y-51476D01*
Y-51968D01*
X78500Y-52460D01*
X77516D01*
X77024Y-51968D01*
Y-50984D01*
X77516Y-50492D01*
X83984Y-8D02*
X84476Y484D01*
Y1468D01*
X83984Y1960D01*
X82016D01*
X81524Y1468D01*
Y484D01*
X82016Y-8D01*
X81524Y-2468D02*
X84476D01*
X83000Y-992D01*
Y-2960D01*
X51984Y-1508D02*
X52476Y-1016D01*
Y-32D01*
X51984Y460D01*
X50016D01*
X49524Y-32D01*
Y-1016D01*
X50016Y-1508D01*
X51984Y-2492D02*
X52476Y-2984D01*
Y-3968D01*
X51984Y-4460D01*
X51492D01*
X51000Y-3968D01*
Y-3476D01*
Y-3968D01*
X50508Y-4460D01*
X50016D01*
X49524Y-3968D01*
Y-2984D01*
X50016Y-2492D01*
X59484Y-15508D02*
X59976Y-15016D01*
Y-14032D01*
X59484Y-13540D01*
X57516D01*
X57024Y-14032D01*
Y-15016D01*
X57516Y-15508D01*
X57024Y-18460D02*
Y-16492D01*
X58992Y-18460D01*
X59484D01*
X59976Y-17968D01*
Y-16984D01*
X59484Y-16492D01*
X18984Y-24500D02*
X19476Y-24008D01*
Y-23024D01*
X18984Y-22532D01*
X17016D01*
X16524Y-23024D01*
Y-24008D01*
X17016Y-24500D01*
X16524Y-25484D02*
Y-26468D01*
Y-25976D01*
X19476D01*
X18984Y-25484D01*
M02*
