G04*
G04 #@! TF.GenerationSoftware,Altium Limited,Altium Designer,22.4.2 (48)*
G04*
G04 Layer_Physical_Order=2*
G04 Layer_Color=36540*
%FSLAX25Y25*%
%MOIN*%
G70*
G04*
G04 #@! TF.SameCoordinates,EE9FD93B-DFF2-4F26-82DF-D5074B5D0FFF*
G04*
G04*
G04 #@! TF.FilePolarity,Positive*
G04*
G01*
G75*
%ADD70C,0.05512*%
%ADD71C,0.07677*%
%ADD72C,0.05906*%
%ADD73R,0.05906X0.05906*%
%ADD74C,0.05878*%
%ADD75R,0.05906X0.05906*%
%ADD76C,0.03543*%
%ADD77C,0.01968*%
%ADD78C,0.03150*%
%ADD79C,0.07087*%
G36*
X188167Y190346D02*
X188895Y190045D01*
X189550Y189607D01*
X190107Y189050D01*
X190545Y188395D01*
X190846Y187667D01*
X191000Y186894D01*
Y186500D01*
Y11000D01*
Y10458D01*
X190789Y9396D01*
X190374Y8395D01*
X189772Y7494D01*
X189006Y6728D01*
D01*
Y-1697D01*
X188506Y-1763D01*
X188234Y-746D01*
X187636Y290D01*
X186790Y1135D01*
X185754Y1734D01*
X184598Y2043D01*
X183402D01*
X182246Y1734D01*
X181210Y1135D01*
X180365Y290D01*
X179766Y-746D01*
X179457Y-1902D01*
Y-3098D01*
X179766Y-4254D01*
X180365Y-5290D01*
X181210Y-6135D01*
X182246Y-6734D01*
X183402Y-7043D01*
X184598D01*
X185754Y-6734D01*
X186790Y-6135D01*
X187636Y-5290D01*
X188234Y-4254D01*
X188506Y-3237D01*
X189006Y-3303D01*
Y-20471D01*
X189000D01*
X188415Y-20587D01*
X187919Y-20919D01*
X187587Y-21415D01*
X187471Y-22000D01*
Y-52000D01*
Y-83000D01*
Y-113000D01*
X187587Y-113585D01*
X187919Y-114081D01*
X188415Y-114413D01*
X189000Y-114529D01*
X189006D01*
Y-160423D01*
X6423D01*
X6211Y-160211D01*
Y-56453D01*
X10453D01*
Y-48547D01*
X6211D01*
Y-46453D01*
X7020D01*
X8026Y-46183D01*
X8927Y-45663D01*
X9663Y-44927D01*
X10183Y-44026D01*
X10453Y-43020D01*
Y-41980D01*
X10183Y-40974D01*
X9663Y-40073D01*
X8927Y-39337D01*
X8026Y-38817D01*
X7020Y-38547D01*
X6211D01*
Y-36453D01*
X7020D01*
X8026Y-36183D01*
X8927Y-35663D01*
X9663Y-34927D01*
X10183Y-34026D01*
X10453Y-33020D01*
Y-31980D01*
X10183Y-30974D01*
X9663Y-30073D01*
X8927Y-29337D01*
X8026Y-28817D01*
X7020Y-28547D01*
X6211D01*
Y-26453D01*
X7020D01*
X8026Y-26183D01*
X8927Y-25663D01*
X9663Y-24927D01*
X10183Y-24026D01*
X10453Y-23020D01*
Y-21980D01*
X10183Y-20974D01*
X9663Y-20073D01*
X8927Y-19337D01*
X8026Y-18817D01*
X7020Y-18547D01*
X6211D01*
Y-16453D01*
X7020D01*
X8026Y-16183D01*
X8927Y-15663D01*
X9663Y-14927D01*
X10183Y-14026D01*
X10453Y-13020D01*
Y-11980D01*
X10183Y-10974D01*
X9663Y-10073D01*
X8927Y-9337D01*
X8026Y-8817D01*
X7020Y-8547D01*
X6211D01*
Y9040D01*
X6316Y9143D01*
X6211Y9396D01*
X6000Y10458D01*
Y18500D01*
X5500Y186000D01*
Y186443D01*
X5673Y187313D01*
X6012Y188131D01*
X6505Y188869D01*
X7131Y189495D01*
X7868Y189988D01*
X8687Y190327D01*
X9557Y190500D01*
X187394D01*
X188167Y190346D01*
D02*
G37*
%LPC*%
G36*
X177795Y186297D02*
X176166D01*
X176018Y186268D01*
X175868D01*
X174270Y185950D01*
X174131Y185892D01*
X173983Y185863D01*
X172479Y185240D01*
X172353Y185156D01*
X172214Y185098D01*
X170860Y184194D01*
X170754Y184087D01*
X170628Y184003D01*
X169477Y182852D01*
X169393Y182727D01*
X169287Y182620D01*
X168382Y181266D01*
X168324Y181127D01*
X168241Y181001D01*
X167617Y179497D01*
X167588Y179349D01*
X167530Y179210D01*
X167213Y177613D01*
Y177462D01*
X167183Y177314D01*
Y175686D01*
X167213Y175538D01*
Y175387D01*
X167530Y173790D01*
X167588Y173651D01*
X167617Y173503D01*
X168241Y171999D01*
X168324Y171873D01*
X168382Y171734D01*
X169287Y170380D01*
X169393Y170273D01*
X169477Y170148D01*
X170628Y168997D01*
X170754Y168913D01*
X170860Y168806D01*
X172214Y167902D01*
X172353Y167844D01*
X172479Y167760D01*
X173983Y167137D01*
X174131Y167108D01*
X174270Y167050D01*
X175868Y166732D01*
X176018D01*
X176166Y166703D01*
X177795D01*
X177942Y166732D01*
X178093D01*
X179690Y167050D01*
X179829Y167108D01*
X179977Y167137D01*
X181482Y167760D01*
X181607Y167844D01*
X181746Y167902D01*
X183100Y168806D01*
X183207Y168913D01*
X183332Y168997D01*
X184484Y170148D01*
X184567Y170273D01*
X184674Y170380D01*
X185579Y171734D01*
X185636Y171873D01*
X185720Y171999D01*
X186343Y173503D01*
X186373Y173651D01*
X186430Y173790D01*
X186748Y175387D01*
Y175538D01*
X186777Y175686D01*
Y177314D01*
X186748Y177462D01*
Y177613D01*
X186430Y179210D01*
X186373Y179349D01*
X186343Y179497D01*
X185720Y181001D01*
X185636Y181127D01*
X185579Y181266D01*
X184674Y182620D01*
X184567Y182727D01*
X184484Y182852D01*
X183332Y184003D01*
X183207Y184087D01*
X183100Y184194D01*
X181746Y185098D01*
X181607Y185156D01*
X181482Y185240D01*
X179977Y185863D01*
X179829Y185892D01*
X179690Y185950D01*
X178093Y186268D01*
X177942D01*
X177795Y186297D01*
D02*
G37*
G36*
X20314D02*
X18686D01*
X18538Y186268D01*
X18387D01*
X16790Y185950D01*
X16651Y185892D01*
X16503Y185863D01*
X14999Y185240D01*
X14873Y185156D01*
X14734Y185098D01*
X13380Y184194D01*
X13273Y184087D01*
X13148Y184003D01*
X11997Y182852D01*
X11913Y182727D01*
X11806Y182620D01*
X10902Y181266D01*
X10844Y181127D01*
X10760Y181001D01*
X10137Y179497D01*
X10108Y179349D01*
X10050Y179210D01*
X9732Y177613D01*
Y177462D01*
X9703Y177314D01*
Y175686D01*
X9732Y175538D01*
Y175387D01*
X10050Y173790D01*
X10108Y173651D01*
X10137Y173503D01*
X10760Y171999D01*
X10844Y171873D01*
X10902Y171734D01*
X11806Y170380D01*
X11913Y170273D01*
X11997Y170148D01*
X13148Y168997D01*
X13273Y168913D01*
X13380Y168806D01*
X14734Y167902D01*
X14873Y167844D01*
X14999Y167760D01*
X16503Y167137D01*
X16651Y167108D01*
X16790Y167050D01*
X18387Y166732D01*
X18538D01*
X18686Y166703D01*
X20314D01*
X20462Y166732D01*
X20613D01*
X22210Y167050D01*
X22349Y167108D01*
X22497Y167137D01*
X24002Y167760D01*
X24127Y167844D01*
X24266Y167902D01*
X25620Y168806D01*
X25727Y168913D01*
X25852Y168997D01*
X27003Y170148D01*
X27087Y170273D01*
X27194Y170380D01*
X28098Y171734D01*
X28156Y171873D01*
X28240Y171999D01*
X28863Y173503D01*
X28892Y173651D01*
X28950Y173790D01*
X29268Y175387D01*
Y175538D01*
X29297Y175686D01*
Y177314D01*
X29268Y177462D01*
Y177613D01*
X28950Y179210D01*
X28892Y179349D01*
X28863Y179497D01*
X28240Y181001D01*
X28156Y181127D01*
X28098Y181266D01*
X27194Y182620D01*
X27087Y182727D01*
X27003Y182852D01*
X25852Y184003D01*
X25727Y184087D01*
X25620Y184194D01*
X24266Y185098D01*
X24127Y185156D01*
X24002Y185240D01*
X22497Y185863D01*
X22349Y185892D01*
X22210Y185950D01*
X20613Y186268D01*
X20462D01*
X20314Y186297D01*
D02*
G37*
G36*
X136771Y139187D02*
X135733D01*
X134732Y138919D01*
X133833Y138400D01*
X133100Y137667D01*
X132581Y136768D01*
X132313Y135767D01*
Y134729D01*
X132581Y133728D01*
X133100Y132829D01*
X133833Y132096D01*
X134732Y131578D01*
X135733Y131309D01*
X136771D01*
X137772Y131578D01*
X138671Y132096D01*
X139404Y132829D01*
X139922Y133728D01*
X140191Y134729D01*
Y135767D01*
X139922Y136768D01*
X139404Y137667D01*
X138671Y138400D01*
X137772Y138919D01*
X136771Y139187D01*
D02*
G37*
G36*
X61771D02*
X60733D01*
X59732Y138919D01*
X58833Y138400D01*
X58100Y137667D01*
X57581Y136768D01*
X57313Y135767D01*
Y134729D01*
X57581Y133728D01*
X58100Y132829D01*
X58833Y132096D01*
X59732Y131578D01*
X60733Y131309D01*
X61771D01*
X62772Y131578D01*
X63671Y132096D01*
X64404Y132829D01*
X64922Y133728D01*
X65191Y134729D01*
Y135767D01*
X64922Y136768D01*
X64404Y137667D01*
X63671Y138400D01*
X62772Y138919D01*
X61771Y139187D01*
D02*
G37*
G36*
X136771Y64187D02*
X135733D01*
X134732Y63919D01*
X133833Y63400D01*
X133100Y62667D01*
X132581Y61768D01*
X132313Y60767D01*
Y59729D01*
X132581Y58728D01*
X133100Y57829D01*
X133833Y57096D01*
X134732Y56577D01*
X135733Y56309D01*
X136771D01*
X137772Y56577D01*
X138671Y57096D01*
X139404Y57829D01*
X139922Y58728D01*
X140191Y59729D01*
Y60767D01*
X139922Y61768D01*
X139404Y62667D01*
X138671Y63400D01*
X137772Y63919D01*
X136771Y64187D01*
D02*
G37*
G36*
X61771D02*
X60733D01*
X59732Y63919D01*
X58833Y63400D01*
X58100Y62667D01*
X57581Y61768D01*
X57313Y60767D01*
Y59729D01*
X57581Y58728D01*
X58100Y57829D01*
X58833Y57096D01*
X59732Y56577D01*
X60733Y56309D01*
X61771D01*
X62772Y56577D01*
X63671Y57096D01*
X64404Y57829D01*
X64922Y58728D01*
X65191Y59729D01*
Y60767D01*
X64922Y61768D01*
X64404Y62667D01*
X63671Y63400D01*
X62772Y63919D01*
X61771Y64187D01*
D02*
G37*
G36*
X137752Y45290D02*
Y45277D01*
X58752D01*
Y45290D01*
X58592Y45277D01*
X58159D01*
X58084Y45263D01*
X58009Y45270D01*
X56829Y45154D01*
X56761Y45133D01*
X56742Y45132D01*
X56680D01*
X56640Y45124D01*
X56622Y45122D01*
X56571Y45110D01*
X55517Y44900D01*
X55447Y44871D01*
X55371Y44864D01*
X54710Y44663D01*
X54545Y44624D01*
X54452Y44585D01*
X54237Y44520D01*
X54170Y44484D01*
X54095Y44469D01*
X52999Y44015D01*
X52936Y43973D01*
X52864Y43951D01*
X52666Y43845D01*
X52572Y43806D01*
X52428Y43718D01*
X51818Y43392D01*
X51759Y43344D01*
X51689Y43315D01*
X50795Y42718D01*
X50750Y42690D01*
X50737Y42679D01*
X50703Y42656D01*
X50659Y42612D01*
X50645Y42600D01*
X50582Y42566D01*
X49665Y41814D01*
X49617Y41755D01*
X49554Y41713D01*
X49248Y41407D01*
X49126Y41303D01*
X49135Y41294D01*
X38170Y30329D01*
X37839Y29833D01*
X37723Y29248D01*
X37839Y28663D01*
X38170Y28167D01*
X38667Y27835D01*
X39252Y27719D01*
X157252D01*
X157837Y27835D01*
X158333Y28167D01*
X158665Y28663D01*
X158781Y29248D01*
X158665Y29833D01*
X158333Y30329D01*
X147369Y41294D01*
X147378Y41303D01*
X147256Y41407D01*
X146950Y41713D01*
X146887Y41755D01*
X146838Y41814D01*
X145922Y42566D01*
X145859Y42600D01*
X145844Y42612D01*
X145801Y42656D01*
X145767Y42679D01*
X145754Y42690D01*
X145708Y42718D01*
X144815Y43315D01*
X144745Y43344D01*
X144686Y43392D01*
X144076Y43718D01*
X143932Y43806D01*
X143838Y43845D01*
X143640Y43951D01*
X143568Y43973D01*
X143505Y44015D01*
X142409Y44469D01*
X142334Y44484D01*
X142267Y44520D01*
X142052Y44585D01*
X141959Y44624D01*
X141794Y44663D01*
X141132Y44864D01*
X141057Y44871D01*
X140987Y44900D01*
X139933Y45110D01*
X139882Y45122D01*
X139864Y45124D01*
X139824Y45132D01*
X139762D01*
X139743Y45133D01*
X139675Y45154D01*
X138495Y45270D01*
X138419Y45263D01*
X138345Y45277D01*
X137912D01*
X137752Y45290D01*
D02*
G37*
G36*
X157252Y167277D02*
X39252D01*
X38667Y167161D01*
X38170Y166830D01*
X37839Y166333D01*
X37723Y165748D01*
X37747Y165625D01*
X36627Y165402D01*
X34989Y164724D01*
X33515Y163739D01*
X32261Y162485D01*
X31276Y161011D01*
X30598Y159373D01*
X30400Y158376D01*
X30252Y158277D01*
X29667Y158161D01*
X29171Y157829D01*
X28839Y157333D01*
X28723Y156748D01*
Y38248D01*
X28839Y37663D01*
X29171Y37167D01*
X29667Y36835D01*
X30252Y36719D01*
X30837Y36835D01*
X31333Y37167D01*
X41776Y47609D01*
X41785Y47600D01*
X41888Y47722D01*
X42217Y48050D01*
X42259Y48114D01*
X42318Y48162D01*
X43070Y49078D01*
X43106Y49145D01*
X43160Y49199D01*
X43819Y50185D01*
X43848Y50255D01*
X43896Y50314D01*
X44281Y51034D01*
X44288Y51046D01*
X44291Y51053D01*
X44455Y51360D01*
X44477Y51432D01*
X44519Y51495D01*
X44973Y52591D01*
X44988Y52666D01*
X45024Y52733D01*
X45368Y53868D01*
X45375Y53943D01*
X45404Y54013D01*
X45636Y55176D01*
Y55252D01*
X45658Y55325D01*
X45774Y56505D01*
X45767Y56581D01*
X45781Y56655D01*
Y57248D01*
Y137748D01*
Y138341D01*
X45767Y138416D01*
X45774Y138491D01*
X45658Y139671D01*
X45636Y139744D01*
Y139820D01*
X45481Y140596D01*
X45798Y140983D01*
X46269D01*
X47964Y141320D01*
X49561Y141982D01*
X50999Y142942D01*
X52221Y144165D01*
X53182Y145602D01*
X53843Y147199D01*
X54180Y148895D01*
Y150319D01*
X54680Y150690D01*
X54871Y150632D01*
X54947Y150625D01*
X55017Y150596D01*
X56071Y150386D01*
X56122Y150374D01*
X56140Y150372D01*
X56180Y150364D01*
X56242D01*
X56261Y150363D01*
X56329Y150342D01*
X57509Y150226D01*
X57585Y150233D01*
X57659Y150219D01*
X58092D01*
X58252Y150206D01*
Y150219D01*
X138252D01*
Y150206D01*
X138412Y150219D01*
X138845D01*
X138919Y150233D01*
X138995Y150226D01*
X140175Y150342D01*
X140243Y150363D01*
X140262Y150364D01*
X140324D01*
X140364Y150372D01*
X140382Y150374D01*
X140433Y150386D01*
X141487Y150596D01*
X141557Y150625D01*
X141632Y150632D01*
X142295Y150833D01*
X142459Y150872D01*
X142552Y150911D01*
X143052Y150674D01*
X143089Y150634D01*
X143108Y150605D01*
X143211Y150091D01*
X143877Y148483D01*
X144843Y147037D01*
X146073Y145806D01*
X147520Y144840D01*
X149127Y144174D01*
X150834Y143834D01*
X151607D01*
X151712Y143741D01*
X151916Y143334D01*
X151531Y142405D01*
X151516Y142330D01*
X151480Y142263D01*
X151415Y142048D01*
X151376Y141955D01*
X151337Y141791D01*
X151136Y141129D01*
X151129Y141053D01*
X151100Y140983D01*
X150890Y139929D01*
X150878Y139878D01*
X150876Y139860D01*
X150868Y139820D01*
Y139758D01*
X150867Y139739D01*
X150846Y139671D01*
X150730Y138491D01*
X150737Y138415D01*
X150723Y138341D01*
Y137908D01*
X150710Y137748D01*
X150723D01*
Y57248D01*
X150710D01*
X150723Y57088D01*
Y56655D01*
X150737Y56581D01*
X150730Y56505D01*
X150846Y55325D01*
X150867Y55257D01*
X150868Y55238D01*
Y55176D01*
X150876Y55136D01*
X150878Y55119D01*
X150890Y55067D01*
X151100Y54013D01*
X151129Y53943D01*
X151136Y53868D01*
X151337Y53205D01*
X151376Y53041D01*
X151415Y52948D01*
X151480Y52733D01*
X151516Y52666D01*
X151531Y52591D01*
X151985Y51495D01*
X152027Y51432D01*
X152049Y51360D01*
X152155Y51161D01*
X152194Y51068D01*
X152282Y50924D01*
X152608Y50314D01*
X152656Y50255D01*
X152685Y50185D01*
X153282Y49291D01*
X153310Y49246D01*
X153321Y49233D01*
X153344Y49199D01*
X153388Y49155D01*
X153400Y49141D01*
X153434Y49078D01*
X154186Y48162D01*
X154245Y48114D01*
X154287Y48050D01*
X154593Y47744D01*
X154697Y47622D01*
X154706Y47631D01*
X159938Y42399D01*
X165171Y37167D01*
X165667Y36835D01*
X166252Y36719D01*
X166837Y36835D01*
X167333Y37167D01*
X167665Y37663D01*
X167781Y38248D01*
Y156748D01*
X167665Y157333D01*
X167333Y157829D01*
X166837Y158161D01*
X166252Y158277D01*
X166129Y158253D01*
X165906Y159373D01*
X165228Y161011D01*
X164243Y162485D01*
X162989Y163739D01*
X161515Y164724D01*
X159877Y165402D01*
X158757Y165625D01*
X158781Y165748D01*
X158665Y166333D01*
X158333Y166830D01*
X157837Y167161D01*
X157252Y167277D01*
D02*
G37*
G36*
X177795Y28817D02*
X176166D01*
X176018Y28787D01*
X175868D01*
X174270Y28470D01*
X174131Y28412D01*
X173983Y28383D01*
X172479Y27759D01*
X172353Y27676D01*
X172214Y27618D01*
X170860Y26713D01*
X170754Y26607D01*
X170628Y26523D01*
X169477Y25372D01*
X169393Y25246D01*
X169287Y25140D01*
X168382Y23786D01*
X168324Y23646D01*
X168241Y23521D01*
X167617Y22017D01*
X167588Y21869D01*
X167530Y21730D01*
X167213Y20132D01*
Y19982D01*
X167183Y19834D01*
Y18205D01*
X167213Y18058D01*
Y17907D01*
X167530Y16310D01*
X167588Y16171D01*
X167617Y16023D01*
X168241Y14518D01*
X168324Y14393D01*
X168382Y14254D01*
X169287Y12900D01*
X169393Y12793D01*
X169477Y12668D01*
X170628Y11516D01*
X170754Y11433D01*
X170860Y11326D01*
X172214Y10421D01*
X172353Y10364D01*
X172479Y10280D01*
X173983Y9657D01*
X174131Y9627D01*
X174270Y9570D01*
X175868Y9252D01*
X176018D01*
X176166Y9223D01*
X177795D01*
X177942Y9252D01*
X178093D01*
X179690Y9570D01*
X179829Y9627D01*
X179977Y9657D01*
X181482Y10280D01*
X181607Y10364D01*
X181746Y10421D01*
X183100Y11326D01*
X183207Y11433D01*
X183332Y11516D01*
X184484Y12668D01*
X184567Y12793D01*
X184674Y12900D01*
X185579Y14254D01*
X185636Y14393D01*
X185720Y14518D01*
X186343Y16023D01*
X186373Y16171D01*
X186430Y16310D01*
X186748Y17907D01*
Y18058D01*
X186777Y18205D01*
Y19834D01*
X186748Y19982D01*
Y20132D01*
X186430Y21730D01*
X186373Y21869D01*
X186343Y22017D01*
X185720Y23521D01*
X185636Y23646D01*
X185579Y23786D01*
X184674Y25140D01*
X184567Y25246D01*
X184484Y25372D01*
X183332Y26523D01*
X183207Y26607D01*
X183100Y26713D01*
X181746Y27618D01*
X181607Y27676D01*
X181482Y27759D01*
X179977Y28383D01*
X179829Y28412D01*
X179690Y28470D01*
X178093Y28787D01*
X177942D01*
X177795Y28817D01*
D02*
G37*
G36*
X20314D02*
X18686D01*
X18538Y28787D01*
X18387D01*
X16790Y28470D01*
X16651Y28412D01*
X16503Y28383D01*
X14999Y27759D01*
X14873Y27676D01*
X14734Y27618D01*
X13380Y26713D01*
X13273Y26607D01*
X13148Y26523D01*
X11997Y25372D01*
X11913Y25246D01*
X11806Y25140D01*
X10902Y23786D01*
X10844Y23646D01*
X10760Y23521D01*
X10137Y22017D01*
X10108Y21869D01*
X10050Y21730D01*
X9732Y20132D01*
Y19982D01*
X9703Y19834D01*
Y18205D01*
X9732Y18058D01*
Y17907D01*
X10050Y16310D01*
X10108Y16171D01*
X10137Y16023D01*
X10760Y14518D01*
X10844Y14393D01*
X10902Y14254D01*
X11806Y12900D01*
X11913Y12793D01*
X11997Y12668D01*
X13148Y11516D01*
X13273Y11433D01*
X13380Y11326D01*
X14734Y10421D01*
X14873Y10364D01*
X14999Y10280D01*
X16503Y9657D01*
X16651Y9627D01*
X16790Y9570D01*
X18387Y9252D01*
X18538D01*
X18686Y9223D01*
X20314D01*
X20462Y9252D01*
X20613D01*
X22210Y9570D01*
X22349Y9627D01*
X22497Y9657D01*
X24002Y10280D01*
X24127Y10364D01*
X24266Y10421D01*
X25620Y11326D01*
X25727Y11433D01*
X25852Y11516D01*
X27003Y12668D01*
X27087Y12793D01*
X27194Y12900D01*
X28098Y14254D01*
X28156Y14393D01*
X28240Y14518D01*
X28863Y16023D01*
X28892Y16171D01*
X28950Y16310D01*
X29268Y17907D01*
Y18058D01*
X29297Y18205D01*
Y19834D01*
X29268Y19982D01*
Y20132D01*
X28950Y21730D01*
X28892Y21869D01*
X28863Y22017D01*
X28240Y23521D01*
X28156Y23646D01*
X28098Y23786D01*
X27194Y25140D01*
X27087Y25246D01*
X27003Y25372D01*
X25852Y26523D01*
X25727Y26607D01*
X25620Y26713D01*
X24266Y27618D01*
X24127Y27676D01*
X24002Y27759D01*
X22497Y28383D01*
X22349Y28412D01*
X22210Y28470D01*
X20613Y28787D01*
X20462D01*
X20314Y28817D01*
D02*
G37*
G36*
X78339Y-5175D02*
X77661D01*
X77006Y-5351D01*
X76419Y-5690D01*
X75940Y-6169D01*
X75601Y-6756D01*
X75425Y-7411D01*
Y-8089D01*
X75601Y-8744D01*
X75940Y-9331D01*
X76419Y-9810D01*
X77006Y-10149D01*
X77661Y-10325D01*
X78339D01*
X78994Y-10149D01*
X79581Y-9810D01*
X80060Y-9331D01*
X80399Y-8744D01*
X80575Y-8089D01*
Y-7411D01*
X80399Y-6756D01*
X80060Y-6169D01*
X79581Y-5690D01*
X78994Y-5351D01*
X78339Y-5175D01*
D02*
G37*
G36*
X107839Y-12425D02*
X107161D01*
X106506Y-12601D01*
X105919Y-12940D01*
X105440Y-13419D01*
X105101Y-14006D01*
X104925Y-14661D01*
Y-15339D01*
X105101Y-15994D01*
X105440Y-16581D01*
X105919Y-17060D01*
X106506Y-17399D01*
X107161Y-17575D01*
X107839D01*
X108494Y-17399D01*
X109081Y-17060D01*
X109560Y-16581D01*
X109899Y-15994D01*
X110075Y-15339D01*
Y-14661D01*
X109899Y-14006D01*
X109560Y-13419D01*
X109081Y-12940D01*
X108494Y-12601D01*
X107839Y-12425D01*
D02*
G37*
G36*
X55839Y-13925D02*
X55161D01*
X54506Y-14101D01*
X53919Y-14440D01*
X53440Y-14919D01*
X53101Y-15506D01*
X52925Y-16161D01*
Y-16839D01*
X53101Y-17494D01*
X53440Y-18081D01*
X53919Y-18560D01*
X54506Y-18899D01*
X55161Y-19075D01*
X55839D01*
X56494Y-18899D01*
X57081Y-18560D01*
X57560Y-18081D01*
X57899Y-17494D01*
X58075Y-16839D01*
Y-16161D01*
X57899Y-15506D01*
X57560Y-14919D01*
X57081Y-14440D01*
X56494Y-14101D01*
X55839Y-13925D01*
D02*
G37*
G36*
X43839Y-18925D02*
X43161D01*
X42506Y-19101D01*
X41919Y-19440D01*
X41440Y-19919D01*
X41101Y-20506D01*
X40925Y-21161D01*
Y-21839D01*
X41101Y-22494D01*
X41440Y-23081D01*
X41919Y-23560D01*
X42506Y-23899D01*
X43161Y-24075D01*
X43839D01*
X44494Y-23899D01*
X45081Y-23560D01*
X45560Y-23081D01*
X45899Y-22494D01*
X46075Y-21839D01*
Y-21161D01*
X45899Y-20506D01*
X45560Y-19919D01*
X45081Y-19440D01*
X44494Y-19101D01*
X43839Y-18925D01*
D02*
G37*
G36*
X77882Y-25382D02*
X77204D01*
X76550Y-25557D01*
X75962Y-25896D01*
X75483Y-26376D01*
X75144Y-26963D01*
X74968Y-27618D01*
Y-28296D01*
X75144Y-28951D01*
X75483Y-29538D01*
X75962Y-30017D01*
X76550Y-30356D01*
X77204Y-30531D01*
X77882D01*
X78537Y-30356D01*
X79124Y-30017D01*
X79604Y-29538D01*
X79943Y-28951D01*
X80118Y-28296D01*
Y-27618D01*
X79943Y-26963D01*
X79604Y-26376D01*
X79124Y-25896D01*
X78537Y-25557D01*
X77882Y-25382D01*
D02*
G37*
G36*
X67237Y-22823D02*
X66559D01*
X65904Y-22998D01*
X65317Y-23337D01*
X64837Y-23817D01*
X64498Y-24404D01*
X64323Y-25059D01*
Y-25737D01*
X64498Y-26392D01*
X64837Y-26979D01*
X65317Y-27458D01*
X65556Y-27596D01*
X65638Y-28221D01*
X65440Y-28419D01*
X65101Y-29006D01*
X64925Y-29661D01*
Y-30339D01*
X65101Y-30994D01*
X65440Y-31581D01*
X65919Y-32060D01*
X66506Y-32399D01*
X67161Y-32575D01*
X67839D01*
X68494Y-32399D01*
X69081Y-32060D01*
X69560Y-31581D01*
X69899Y-30994D01*
X70075Y-30339D01*
Y-29661D01*
X69899Y-29006D01*
X69560Y-28419D01*
X69081Y-27940D01*
X68842Y-27802D01*
X68760Y-27177D01*
X68958Y-26979D01*
X69297Y-26392D01*
X69472Y-25737D01*
Y-25059D01*
X69297Y-24404D01*
X68958Y-23817D01*
X68479Y-23337D01*
X67892Y-22998D01*
X67237Y-22823D01*
D02*
G37*
G36*
X162839Y-47925D02*
X162161D01*
X161506Y-48101D01*
X160919Y-48440D01*
X160440Y-48919D01*
X160101Y-49506D01*
X160009Y-49849D01*
X159491D01*
X159399Y-49506D01*
X159060Y-48919D01*
X158581Y-48440D01*
X157994Y-48101D01*
X157339Y-47925D01*
X156661D01*
X156006Y-48101D01*
X155419Y-48440D01*
X154940Y-48919D01*
X154601Y-49506D01*
X154425Y-50161D01*
Y-50839D01*
X154601Y-51494D01*
X154940Y-52081D01*
X155419Y-52560D01*
X156006Y-52899D01*
X156661Y-53075D01*
X157339D01*
X157994Y-52899D01*
X158581Y-52560D01*
X159060Y-52081D01*
X159399Y-51494D01*
X159491Y-51151D01*
X160009D01*
X160101Y-51494D01*
X160440Y-52081D01*
X160919Y-52560D01*
X161506Y-52899D01*
X162161Y-53075D01*
X162839D01*
X163494Y-52899D01*
X164081Y-52560D01*
X164560Y-52081D01*
X164899Y-51494D01*
X165075Y-50839D01*
Y-50161D01*
X164899Y-49506D01*
X164560Y-48919D01*
X164081Y-48440D01*
X163494Y-48101D01*
X162839Y-47925D01*
D02*
G37*
G36*
X123839Y-55425D02*
X123161D01*
X122506Y-55601D01*
X121919Y-55940D01*
X121440Y-56419D01*
X121101Y-57006D01*
X120925Y-57661D01*
Y-58339D01*
X121101Y-58994D01*
X121440Y-59581D01*
X121793Y-59935D01*
X121872Y-60250D01*
X121793Y-60565D01*
X121440Y-60919D01*
X121101Y-61506D01*
X120925Y-62161D01*
Y-62839D01*
X121101Y-63494D01*
X121440Y-64081D01*
X121919Y-64560D01*
X122506Y-64899D01*
X123161Y-65075D01*
X123839D01*
X124494Y-64899D01*
X125081Y-64560D01*
X125560Y-64081D01*
X125899Y-63494D01*
X126075Y-62839D01*
Y-62161D01*
X125899Y-61506D01*
X125560Y-60919D01*
X125206Y-60565D01*
X125128Y-60250D01*
X125206Y-59935D01*
X125560Y-59581D01*
X125899Y-58994D01*
X126075Y-58339D01*
Y-57661D01*
X125899Y-57006D01*
X125560Y-56419D01*
X125081Y-55940D01*
X124494Y-55601D01*
X123839Y-55425D01*
D02*
G37*
G36*
X13784Y-71370D02*
X13106D01*
X12451Y-71546D01*
X11864Y-71885D01*
X11384Y-72364D01*
X11046Y-72951D01*
X10870Y-73606D01*
Y-74284D01*
X11046Y-74939D01*
X11384Y-75526D01*
X11864Y-76005D01*
X12451Y-76344D01*
X13106Y-76520D01*
X13784D01*
X14439Y-76344D01*
X15026Y-76005D01*
X15505Y-75526D01*
X15844Y-74939D01*
X16020Y-74284D01*
Y-73606D01*
X15844Y-72951D01*
X15505Y-72364D01*
X15026Y-71885D01*
X14439Y-71546D01*
X13784Y-71370D01*
D02*
G37*
G36*
X74839Y-71925D02*
X74161D01*
X73506Y-72101D01*
X72919Y-72440D01*
X72440Y-72919D01*
X72101Y-73506D01*
X71925Y-74161D01*
Y-74839D01*
X72101Y-75494D01*
X72440Y-76081D01*
X72919Y-76560D01*
X73506Y-76899D01*
X74161Y-77075D01*
X74839D01*
X75494Y-76899D01*
X76081Y-76560D01*
X76560Y-76081D01*
X76899Y-75494D01*
X77075Y-74839D01*
Y-74161D01*
X76899Y-73506D01*
X76560Y-72919D01*
X76081Y-72440D01*
X75494Y-72101D01*
X74839Y-71925D01*
D02*
G37*
G36*
X70217Y-77303D02*
X69539D01*
X68884Y-77479D01*
X68297Y-77818D01*
X67818Y-78297D01*
X67479Y-78884D01*
X67303Y-79539D01*
Y-80217D01*
X67479Y-80872D01*
X67818Y-81459D01*
X68297Y-81938D01*
X68884Y-82277D01*
X69539Y-82453D01*
X70217D01*
X70872Y-82277D01*
X71459Y-81938D01*
X71938Y-81459D01*
X72277Y-80872D01*
X72453Y-80217D01*
Y-79539D01*
X72277Y-78884D01*
X71938Y-78297D01*
X71459Y-77818D01*
X70872Y-77479D01*
X70217Y-77303D01*
D02*
G37*
G36*
X25839Y-78425D02*
X25161D01*
X24506Y-78601D01*
X23919Y-78940D01*
X23440Y-79419D01*
X23101Y-80006D01*
X22925Y-80661D01*
Y-81339D01*
X23101Y-81994D01*
X23440Y-82581D01*
X23919Y-83060D01*
X24506Y-83399D01*
X25161Y-83575D01*
X25839D01*
X26494Y-83399D01*
X27081Y-83060D01*
X27560Y-82581D01*
X27899Y-81994D01*
X28075Y-81339D01*
Y-80661D01*
X27899Y-80006D01*
X27560Y-79419D01*
X27081Y-78940D01*
X26494Y-78601D01*
X25839Y-78425D01*
D02*
G37*
G36*
X48434Y-74520D02*
X47756D01*
X47101Y-74695D01*
X46514Y-75034D01*
X46034Y-75513D01*
X45695Y-76101D01*
X45520Y-76755D01*
Y-77434D01*
X45605Y-77750D01*
X45250Y-77845D01*
X44663Y-78184D01*
X44184Y-78663D01*
X43845Y-79250D01*
X43669Y-79905D01*
Y-80583D01*
X43845Y-81238D01*
X44184Y-81825D01*
X44663Y-82304D01*
X45250Y-82643D01*
X45616Y-82741D01*
X45531Y-83055D01*
Y-83733D01*
X45707Y-84387D01*
X46046Y-84975D01*
X46525Y-85454D01*
X47113Y-85793D01*
X47767Y-85969D01*
X48445D01*
X49100Y-85793D01*
X49687Y-85454D01*
X50167Y-84975D01*
X50506Y-84387D01*
X50681Y-83733D01*
Y-83055D01*
X50506Y-82400D01*
X50167Y-81813D01*
X49687Y-81333D01*
X49100Y-80994D01*
X48735Y-80897D01*
X48819Y-80583D01*
Y-79905D01*
X48734Y-79589D01*
X49088Y-79494D01*
X49676Y-79155D01*
X50155Y-78676D01*
X50494Y-78088D01*
X50669Y-77434D01*
Y-76755D01*
X50494Y-76101D01*
X50155Y-75513D01*
X49676Y-75034D01*
X49088Y-74695D01*
X48434Y-74520D01*
D02*
G37*
G36*
X125461Y-77303D02*
X124783D01*
X124128Y-77479D01*
X123541Y-77818D01*
X123062Y-78297D01*
X122723Y-78884D01*
X122547Y-79539D01*
Y-80217D01*
X122723Y-80872D01*
X123062Y-81459D01*
X123399Y-81796D01*
X123538Y-81953D01*
X123416Y-82443D01*
X123231Y-82628D01*
X122892Y-83215D01*
X122716Y-83870D01*
Y-84548D01*
X122892Y-85202D01*
X123231Y-85790D01*
X123346Y-85905D01*
X123419Y-86440D01*
X123328Y-86530D01*
X122940Y-86919D01*
X122601Y-87506D01*
X122425Y-88161D01*
Y-88839D01*
X122601Y-89494D01*
X122940Y-90081D01*
X123419Y-90560D01*
X124006Y-90899D01*
X124661Y-91075D01*
X125339D01*
X125994Y-90899D01*
X126581Y-90560D01*
X127060Y-90081D01*
X127399Y-89494D01*
X127575Y-88839D01*
Y-88161D01*
X127399Y-87506D01*
X127060Y-86919D01*
X126945Y-86804D01*
X126872Y-86269D01*
X126963Y-86178D01*
X127352Y-85790D01*
X127691Y-85202D01*
X127866Y-84548D01*
Y-83870D01*
X127691Y-83215D01*
X127352Y-82628D01*
X127015Y-82291D01*
X126876Y-82134D01*
X126998Y-81643D01*
X127182Y-81459D01*
X127521Y-80872D01*
X127697Y-80217D01*
Y-79539D01*
X127521Y-78884D01*
X127182Y-78297D01*
X126703Y-77818D01*
X126116Y-77479D01*
X125461Y-77303D01*
D02*
G37*
G36*
X47997Y-90268D02*
X47319D01*
X46664Y-90443D01*
X46077Y-90782D01*
X45597Y-91262D01*
X45258Y-91849D01*
X45083Y-92503D01*
Y-93182D01*
X45258Y-93836D01*
X45597Y-94424D01*
X46077Y-94903D01*
X46664Y-95242D01*
X47319Y-95417D01*
X47997D01*
X48651Y-95242D01*
X49238Y-94903D01*
X49718Y-94424D01*
X50057Y-93836D01*
X50232Y-93182D01*
Y-92503D01*
X50057Y-91849D01*
X49718Y-91262D01*
X49238Y-90782D01*
X48651Y-90443D01*
X47997Y-90268D01*
D02*
G37*
G36*
X59339Y-91425D02*
X58661D01*
X58006Y-91601D01*
X57419Y-91940D01*
X56940Y-92419D01*
X56601Y-93006D01*
X56425Y-93661D01*
Y-94339D01*
X56601Y-94994D01*
X56940Y-95581D01*
X57419Y-96060D01*
X58006Y-96399D01*
X58661Y-96575D01*
X59339D01*
X59994Y-96399D01*
X60581Y-96060D01*
X61060Y-95581D01*
X61399Y-94994D01*
X61575Y-94339D01*
Y-93661D01*
X61399Y-93006D01*
X61060Y-92419D01*
X60581Y-91940D01*
X59994Y-91601D01*
X59339Y-91425D01*
D02*
G37*
G36*
X24540Y-94724D02*
X23862D01*
X23207Y-94900D01*
X22620Y-95239D01*
X22140Y-95718D01*
X21801Y-96305D01*
X21626Y-96960D01*
Y-97638D01*
X21801Y-98293D01*
X22140Y-98880D01*
X22620Y-99360D01*
X23207Y-99699D01*
X23862Y-99874D01*
X24540D01*
X25195Y-99699D01*
X25782Y-99360D01*
X26261Y-98880D01*
X26600Y-98293D01*
X26776Y-97638D01*
Y-96960D01*
X26600Y-96305D01*
X26261Y-95718D01*
X25782Y-95239D01*
X25195Y-94900D01*
X24540Y-94724D01*
D02*
G37*
G36*
X55839Y-96925D02*
X55161D01*
X54506Y-97101D01*
X53919Y-97440D01*
X53440Y-97919D01*
X53101Y-98506D01*
X52925Y-99161D01*
Y-99839D01*
X53101Y-100494D01*
X53440Y-101081D01*
X53919Y-101560D01*
X54506Y-101899D01*
X55161Y-102075D01*
X55839D01*
X56494Y-101899D01*
X57081Y-101560D01*
X57560Y-101081D01*
X57899Y-100494D01*
X58075Y-99839D01*
Y-99161D01*
X57899Y-98506D01*
X57560Y-97919D01*
X57081Y-97440D01*
X56494Y-97101D01*
X55839Y-96925D01*
D02*
G37*
G36*
X30839Y-105425D02*
X30161D01*
X29506Y-105601D01*
X28919Y-105940D01*
X28440Y-106419D01*
X28101Y-107006D01*
X27925Y-107661D01*
Y-108339D01*
X28101Y-108994D01*
X28440Y-109581D01*
X28919Y-110060D01*
X29506Y-110399D01*
X30161Y-110575D01*
X30839D01*
X31160Y-111006D01*
X31250Y-111344D01*
X31589Y-111931D01*
X32069Y-112411D01*
X32656Y-112750D01*
X33311Y-112925D01*
X33989D01*
X34643Y-112750D01*
X35231Y-112411D01*
X35710Y-111931D01*
X36049Y-111344D01*
X36157Y-110940D01*
X36661Y-111075D01*
X37339D01*
X37374Y-111102D01*
Y-111288D01*
X37549Y-111943D01*
X37889Y-112530D01*
X38368Y-113009D01*
X38955Y-113348D01*
X39610Y-113524D01*
X40288D01*
X40943Y-113348D01*
X41530Y-113009D01*
X42009Y-112530D01*
X42348Y-111943D01*
X42488Y-111421D01*
X42759Y-110976D01*
X43437D01*
X43758Y-111408D01*
X43849Y-111746D01*
X44188Y-112333D01*
X44667Y-112812D01*
X45254Y-113151D01*
X45909Y-113327D01*
X46587D01*
X47242Y-113151D01*
X47829Y-112812D01*
X48308Y-112333D01*
X48647Y-111746D01*
X48823Y-111091D01*
Y-110413D01*
X48647Y-109758D01*
X48308Y-109171D01*
X47829Y-108692D01*
X47242Y-108353D01*
X46587Y-108177D01*
X45909D01*
X45588Y-107746D01*
X45498Y-107408D01*
X45159Y-106821D01*
X44679Y-106341D01*
X44092Y-106002D01*
X43437Y-105827D01*
X42759D01*
X42105Y-106002D01*
X41517Y-106341D01*
X41038Y-106821D01*
X40699Y-107408D01*
X40559Y-107929D01*
X40288Y-108374D01*
X39610D01*
X39575Y-108347D01*
Y-108161D01*
X39399Y-107506D01*
X39060Y-106919D01*
X38581Y-106440D01*
X37994Y-106101D01*
X37339Y-105925D01*
X36661D01*
X36006Y-106101D01*
X35419Y-106440D01*
X34940Y-106919D01*
X34601Y-107506D01*
X34492Y-107911D01*
X33989Y-107776D01*
X33311D01*
X33246Y-107793D01*
X33075Y-107661D01*
X32899Y-107006D01*
X32560Y-106419D01*
X32081Y-105940D01*
X31494Y-105601D01*
X30839Y-105425D01*
D02*
G37*
G36*
X70500Y-109587D02*
X69822D01*
X69168Y-109762D01*
X68580Y-110101D01*
X68101Y-110580D01*
X67762Y-111168D01*
X67587Y-111822D01*
Y-112500D01*
X67762Y-113155D01*
X68101Y-113742D01*
X68580Y-114222D01*
X69168Y-114561D01*
X69822Y-114736D01*
X70500D01*
X71155Y-114561D01*
X71742Y-114222D01*
X72222Y-113742D01*
X72561Y-113155D01*
X72736Y-112500D01*
Y-111822D01*
X72561Y-111168D01*
X72222Y-110580D01*
X71742Y-110101D01*
X71155Y-109762D01*
X70500Y-109587D01*
D02*
G37*
G36*
X32839Y-118425D02*
X32161D01*
X31506Y-118601D01*
X30919Y-118940D01*
X30440Y-119419D01*
X30101Y-120006D01*
X29925Y-120661D01*
Y-121339D01*
X30101Y-121994D01*
X30440Y-122581D01*
X30919Y-123060D01*
X31506Y-123399D01*
X32161Y-123575D01*
X32839D01*
X33494Y-123399D01*
X34081Y-123060D01*
X34560Y-122581D01*
X34899Y-121994D01*
X35075Y-121339D01*
Y-120661D01*
X34899Y-120006D01*
X34560Y-119419D01*
X34081Y-118940D01*
X33494Y-118601D01*
X32839Y-118425D01*
D02*
G37*
G36*
X147494Y-116744D02*
X146505D01*
X145550Y-117000D01*
X144694Y-117494D01*
X143994Y-118194D01*
X143500Y-119050D01*
X143244Y-120006D01*
Y-120994D01*
X143500Y-121950D01*
X143994Y-122806D01*
X144694Y-123505D01*
X145550Y-124000D01*
X146505Y-124256D01*
X147494D01*
X148450Y-124000D01*
X149306Y-123505D01*
X150005Y-122806D01*
X150500Y-121950D01*
X150756Y-120994D01*
Y-120006D01*
X150500Y-119050D01*
X150005Y-118194D01*
X149306Y-117494D01*
X148450Y-117000D01*
X147494Y-116744D01*
D02*
G37*
G36*
X49995Y-123744D02*
X49005D01*
X48050Y-124000D01*
X47194Y-124495D01*
X46494Y-125194D01*
X46000Y-126050D01*
X45744Y-127006D01*
Y-127995D01*
X46000Y-128950D01*
X46494Y-129806D01*
X47194Y-130506D01*
X48050Y-131000D01*
X49005Y-131256D01*
X49995D01*
X50950Y-131000D01*
X51806Y-130506D01*
X52505Y-129806D01*
X53000Y-128950D01*
X53256Y-127995D01*
Y-127006D01*
X53000Y-126050D01*
X52505Y-125194D01*
X51806Y-124495D01*
X50950Y-124000D01*
X49995Y-123744D01*
D02*
G37*
G36*
X15994Y-124244D02*
X15006D01*
X14050Y-124500D01*
X13194Y-124995D01*
X12494Y-125694D01*
X12000Y-126550D01*
X11744Y-127506D01*
Y-128495D01*
X12000Y-129450D01*
X12494Y-130306D01*
X13194Y-131006D01*
X14050Y-131500D01*
X15006Y-131756D01*
X15994D01*
X16950Y-131500D01*
X17806Y-131006D01*
X18506Y-130306D01*
X19000Y-129450D01*
X19256Y-128495D01*
Y-127506D01*
X19000Y-126550D01*
X18506Y-125694D01*
X17806Y-124995D01*
X16950Y-124500D01*
X15994Y-124244D01*
D02*
G37*
G36*
X183698Y-140126D02*
X182657D01*
X181651Y-140395D01*
X180750Y-140916D01*
X180014Y-141652D01*
X179494Y-142553D01*
X179224Y-143558D01*
Y-144599D01*
X179494Y-145604D01*
X180014Y-146506D01*
X180750Y-147242D01*
X181651Y-147762D01*
X182657Y-148031D01*
X183698D01*
X184703Y-147762D01*
X185604Y-147242D01*
X186340Y-146506D01*
X186861Y-145604D01*
X187130Y-144599D01*
Y-143558D01*
X186861Y-142553D01*
X186340Y-141652D01*
X185604Y-140916D01*
X184703Y-140395D01*
X183698Y-140126D01*
D02*
G37*
G36*
X173698D02*
X172657D01*
X171651Y-140395D01*
X170750Y-140916D01*
X170014Y-141652D01*
X169494Y-142553D01*
X169224Y-143558D01*
Y-144599D01*
X169494Y-145604D01*
X170014Y-146506D01*
X170750Y-147242D01*
X171651Y-147762D01*
X172657Y-148031D01*
X173698D01*
X174703Y-147762D01*
X175604Y-147242D01*
X176340Y-146506D01*
X176860Y-145604D01*
X177130Y-144599D01*
Y-143558D01*
X176860Y-142553D01*
X176340Y-141652D01*
X175604Y-140916D01*
X174703Y-140395D01*
X173698Y-140126D01*
D02*
G37*
G36*
X163698D02*
X162657D01*
X161652Y-140395D01*
X160750Y-140916D01*
X160014Y-141652D01*
X159494Y-142553D01*
X159224Y-143558D01*
Y-144599D01*
X159494Y-145604D01*
X160014Y-146506D01*
X160750Y-147242D01*
X161652Y-147762D01*
X162657Y-148031D01*
X163698D01*
X164703Y-147762D01*
X165604Y-147242D01*
X166340Y-146506D01*
X166860Y-145604D01*
X167130Y-144599D01*
Y-143558D01*
X166860Y-142553D01*
X166340Y-141652D01*
X165604Y-140916D01*
X164703Y-140395D01*
X163698Y-140126D01*
D02*
G37*
G36*
X153698D02*
X152657D01*
X151652Y-140395D01*
X150750Y-140916D01*
X150014Y-141652D01*
X149494Y-142553D01*
X149224Y-143558D01*
Y-144599D01*
X149494Y-145604D01*
X150014Y-146506D01*
X150750Y-147242D01*
X151652Y-147762D01*
X152657Y-148031D01*
X153698D01*
X154703Y-147762D01*
X155604Y-147242D01*
X156340Y-146506D01*
X156860Y-145604D01*
X157130Y-144599D01*
Y-143558D01*
X156860Y-142553D01*
X156340Y-141652D01*
X155604Y-140916D01*
X154703Y-140395D01*
X153698Y-140126D01*
D02*
G37*
G36*
X143698D02*
X142657D01*
X141651Y-140395D01*
X140750Y-140916D01*
X140014Y-141652D01*
X139494Y-142553D01*
X139224Y-143558D01*
Y-144599D01*
X139494Y-145604D01*
X140014Y-146506D01*
X140750Y-147242D01*
X141651Y-147762D01*
X142657Y-148031D01*
X143698D01*
X144703Y-147762D01*
X145604Y-147242D01*
X146340Y-146506D01*
X146861Y-145604D01*
X147130Y-144599D01*
Y-143558D01*
X146861Y-142553D01*
X146340Y-141652D01*
X145604Y-140916D01*
X144703Y-140395D01*
X143698Y-140126D01*
D02*
G37*
G36*
X133698D02*
X132657D01*
X131651Y-140395D01*
X130750Y-140916D01*
X130014Y-141652D01*
X129494Y-142553D01*
X129224Y-143558D01*
Y-144599D01*
X129494Y-145604D01*
X130014Y-146506D01*
X130750Y-147242D01*
X131651Y-147762D01*
X132657Y-148031D01*
X133698D01*
X134703Y-147762D01*
X135604Y-147242D01*
X136340Y-146506D01*
X136861Y-145604D01*
X137130Y-144599D01*
Y-143558D01*
X136861Y-142553D01*
X136340Y-141652D01*
X135604Y-140916D01*
X134703Y-140395D01*
X133698Y-140126D01*
D02*
G37*
G36*
X123698D02*
X122657D01*
X121651Y-140395D01*
X120750Y-140916D01*
X120014Y-141652D01*
X119494Y-142553D01*
X119224Y-143558D01*
Y-144599D01*
X119494Y-145604D01*
X120014Y-146506D01*
X120750Y-147242D01*
X121651Y-147762D01*
X122657Y-148031D01*
X123698D01*
X124703Y-147762D01*
X125604Y-147242D01*
X126340Y-146506D01*
X126860Y-145604D01*
X127130Y-144599D01*
Y-143558D01*
X126860Y-142553D01*
X126340Y-141652D01*
X125604Y-140916D01*
X124703Y-140395D01*
X123698Y-140126D01*
D02*
G37*
G36*
X113698D02*
X112657D01*
X111652Y-140395D01*
X110750Y-140916D01*
X110014Y-141652D01*
X109494Y-142553D01*
X109224Y-143558D01*
Y-144599D01*
X109494Y-145604D01*
X110014Y-146506D01*
X110750Y-147242D01*
X111652Y-147762D01*
X112657Y-148031D01*
X113698D01*
X114703Y-147762D01*
X115604Y-147242D01*
X116340Y-146506D01*
X116860Y-145604D01*
X117130Y-144599D01*
Y-143558D01*
X116860Y-142553D01*
X116340Y-141652D01*
X115604Y-140916D01*
X114703Y-140395D01*
X113698Y-140126D01*
D02*
G37*
G36*
X103698D02*
X102657D01*
X101652Y-140395D01*
X100750Y-140916D01*
X100014Y-141652D01*
X99494Y-142553D01*
X99224Y-143558D01*
Y-144599D01*
X99494Y-145604D01*
X100014Y-146506D01*
X100750Y-147242D01*
X101652Y-147762D01*
X102657Y-148031D01*
X103698D01*
X104703Y-147762D01*
X105604Y-147242D01*
X106340Y-146506D01*
X106860Y-145604D01*
X107130Y-144599D01*
Y-143558D01*
X106860Y-142553D01*
X106340Y-141652D01*
X105604Y-140916D01*
X104703Y-140395D01*
X103698Y-140126D01*
D02*
G37*
G36*
X93698D02*
X92657D01*
X91651Y-140395D01*
X90750Y-140916D01*
X90014Y-141652D01*
X89494Y-142553D01*
X89224Y-143558D01*
Y-144599D01*
X89494Y-145604D01*
X90014Y-146506D01*
X90750Y-147242D01*
X91651Y-147762D01*
X92657Y-148031D01*
X93698D01*
X94703Y-147762D01*
X95604Y-147242D01*
X96340Y-146506D01*
X96861Y-145604D01*
X97130Y-144599D01*
Y-143558D01*
X96861Y-142553D01*
X96340Y-141652D01*
X95604Y-140916D01*
X94703Y-140395D01*
X93698Y-140126D01*
D02*
G37*
G36*
X83698D02*
X82657D01*
X81652Y-140395D01*
X80750Y-140916D01*
X80014Y-141652D01*
X79494Y-142553D01*
X79224Y-143558D01*
Y-144599D01*
X79494Y-145604D01*
X80014Y-146506D01*
X80750Y-147242D01*
X81652Y-147762D01*
X82657Y-148031D01*
X83698D01*
X84703Y-147762D01*
X85604Y-147242D01*
X86340Y-146506D01*
X86861Y-145604D01*
X87130Y-144599D01*
Y-143558D01*
X86861Y-142553D01*
X86340Y-141652D01*
X85604Y-140916D01*
X84703Y-140395D01*
X83698Y-140126D01*
D02*
G37*
G36*
X73698D02*
X72657D01*
X71652Y-140395D01*
X70750Y-140916D01*
X70014Y-141652D01*
X69494Y-142553D01*
X69224Y-143558D01*
Y-144599D01*
X69494Y-145604D01*
X70014Y-146506D01*
X70750Y-147242D01*
X71652Y-147762D01*
X72657Y-148031D01*
X73698D01*
X74703Y-147762D01*
X75604Y-147242D01*
X76340Y-146506D01*
X76861Y-145604D01*
X77130Y-144599D01*
Y-143558D01*
X76861Y-142553D01*
X76340Y-141652D01*
X75604Y-140916D01*
X74703Y-140395D01*
X73698Y-140126D01*
D02*
G37*
G36*
X63698D02*
X62657D01*
X61651Y-140395D01*
X60750Y-140916D01*
X60014Y-141652D01*
X59494Y-142553D01*
X59224Y-143558D01*
Y-144599D01*
X59494Y-145604D01*
X60014Y-146506D01*
X60750Y-147242D01*
X61651Y-147762D01*
X62657Y-148031D01*
X63698D01*
X64703Y-147762D01*
X65604Y-147242D01*
X66340Y-146506D01*
X66861Y-145604D01*
X67130Y-144599D01*
Y-143558D01*
X66861Y-142553D01*
X66340Y-141652D01*
X65604Y-140916D01*
X64703Y-140395D01*
X63698Y-140126D01*
D02*
G37*
G36*
X43698D02*
X42657D01*
X41651Y-140395D01*
X40750Y-140916D01*
X40014Y-141652D01*
X39494Y-142553D01*
X39224Y-143558D01*
Y-144599D01*
X39494Y-145604D01*
X40014Y-146506D01*
X40750Y-147242D01*
X41651Y-147762D01*
X42657Y-148031D01*
X43698D01*
X44703Y-147762D01*
X45604Y-147242D01*
X46340Y-146506D01*
X46861Y-145604D01*
X47130Y-144599D01*
Y-143558D01*
X46861Y-142553D01*
X46340Y-141652D01*
X45604Y-140916D01*
X44703Y-140395D01*
X43698Y-140126D01*
D02*
G37*
G36*
X33698D02*
X32657D01*
X31651Y-140395D01*
X30750Y-140916D01*
X30014Y-141652D01*
X29494Y-142553D01*
X29224Y-143558D01*
Y-144599D01*
X29494Y-145604D01*
X30014Y-146506D01*
X30750Y-147242D01*
X31651Y-147762D01*
X32657Y-148031D01*
X33698D01*
X34703Y-147762D01*
X35604Y-147242D01*
X36340Y-146506D01*
X36861Y-145604D01*
X37130Y-144599D01*
Y-143558D01*
X36861Y-142553D01*
X36340Y-141652D01*
X35604Y-140916D01*
X34703Y-140395D01*
X33698Y-140126D01*
D02*
G37*
G36*
X23698D02*
X22657D01*
X21652Y-140395D01*
X20750Y-140916D01*
X20014Y-141652D01*
X19494Y-142553D01*
X19224Y-143558D01*
Y-144599D01*
X19494Y-145604D01*
X20014Y-146506D01*
X20750Y-147242D01*
X21652Y-147762D01*
X22657Y-148031D01*
X23698D01*
X24703Y-147762D01*
X25604Y-147242D01*
X26340Y-146506D01*
X26861Y-145604D01*
X27130Y-144599D01*
Y-143558D01*
X26861Y-142553D01*
X26340Y-141652D01*
X25604Y-140916D01*
X24703Y-140395D01*
X23698Y-140126D01*
D02*
G37*
G36*
X13698D02*
X12657D01*
X11652Y-140395D01*
X10750Y-140916D01*
X10014Y-141652D01*
X9494Y-142553D01*
X9224Y-143558D01*
Y-144599D01*
X9494Y-145604D01*
X10014Y-146506D01*
X10750Y-147242D01*
X11652Y-147762D01*
X12657Y-148031D01*
X13698D01*
X14703Y-147762D01*
X15604Y-147242D01*
X16340Y-146506D01*
X16861Y-145604D01*
X17130Y-144599D01*
Y-143558D01*
X16861Y-142553D01*
X16340Y-141652D01*
X15604Y-140916D01*
X14703Y-140395D01*
X13698Y-140126D01*
D02*
G37*
%LPD*%
D70*
X44500Y-132500D02*
D03*
Y-122500D02*
D03*
X54500D02*
D03*
Y-132500D02*
D03*
X49500Y-127500D02*
D03*
X20500Y-133000D02*
D03*
X10500D02*
D03*
Y-123000D02*
D03*
X20500D02*
D03*
X15500Y-128000D02*
D03*
X152000Y-125500D02*
D03*
X142000D02*
D03*
Y-115500D02*
D03*
X152000D02*
D03*
X147000Y-120500D02*
D03*
D71*
X182295Y-80492D02*
D03*
Y-54508D02*
D03*
D72*
X6500Y-2500D02*
D03*
Y-12500D02*
D03*
Y-22500D02*
D03*
Y-32500D02*
D03*
Y-42500D02*
D03*
X13177Y223874D02*
D03*
Y213874D02*
D03*
X23177Y223874D02*
D03*
Y213874D02*
D03*
X33177Y223874D02*
D03*
Y213874D02*
D03*
X43177Y223874D02*
D03*
Y213874D02*
D03*
X53177Y223874D02*
D03*
Y213874D02*
D03*
X63177Y223874D02*
D03*
Y213874D02*
D03*
X73177Y223874D02*
D03*
Y213874D02*
D03*
X83177Y223874D02*
D03*
Y213874D02*
D03*
X93177Y223874D02*
D03*
Y213874D02*
D03*
X103177Y223874D02*
D03*
Y213874D02*
D03*
X113177Y223874D02*
D03*
Y213874D02*
D03*
X123177Y223874D02*
D03*
Y213874D02*
D03*
X133177Y223874D02*
D03*
Y213874D02*
D03*
X143177Y223874D02*
D03*
Y213874D02*
D03*
X153177Y223874D02*
D03*
Y213874D02*
D03*
X163177Y223874D02*
D03*
Y213874D02*
D03*
X173177Y223874D02*
D03*
Y213874D02*
D03*
X183177Y223874D02*
D03*
X13177Y-144079D02*
D03*
Y-154079D02*
D03*
X23177Y-144079D02*
D03*
Y-154079D02*
D03*
X33177Y-144079D02*
D03*
Y-154079D02*
D03*
X43177Y-144079D02*
D03*
Y-154079D02*
D03*
X53177Y-144079D02*
D03*
Y-154079D02*
D03*
X63177Y-144079D02*
D03*
Y-154079D02*
D03*
X73177Y-144079D02*
D03*
Y-154079D02*
D03*
X83177Y-144079D02*
D03*
Y-154079D02*
D03*
X93177Y-144079D02*
D03*
Y-154079D02*
D03*
X103177Y-144079D02*
D03*
Y-154079D02*
D03*
X113177Y-144079D02*
D03*
Y-154079D02*
D03*
X123177Y-144079D02*
D03*
Y-154079D02*
D03*
X133177Y-144079D02*
D03*
Y-154079D02*
D03*
X143177Y-144079D02*
D03*
Y-154079D02*
D03*
X153177Y-144079D02*
D03*
Y-154079D02*
D03*
X163177Y-144079D02*
D03*
Y-154079D02*
D03*
X173177Y-144079D02*
D03*
Y-154079D02*
D03*
X183177Y-144079D02*
D03*
D73*
X6500Y-52500D02*
D03*
D74*
X61252Y60248D02*
D03*
X98752D02*
D03*
X136252D02*
D03*
Y135248D02*
D03*
X61252D02*
D03*
D75*
X183177Y213874D02*
D03*
Y-154079D02*
D03*
D76*
X182335Y162823D02*
D03*
Y154949D02*
D03*
Y147075D02*
D03*
Y139201D02*
D03*
Y131327D02*
D03*
Y123453D02*
D03*
Y115579D02*
D03*
Y107705D02*
D03*
Y99831D02*
D03*
Y91957D02*
D03*
Y84083D02*
D03*
Y76209D02*
D03*
Y68335D02*
D03*
Y60461D02*
D03*
Y52587D02*
D03*
Y44713D02*
D03*
Y36839D02*
D03*
Y-89146D02*
D03*
Y-104894D02*
D03*
Y-112768D02*
D03*
Y-120642D02*
D03*
X174461Y162823D02*
D03*
Y154949D02*
D03*
Y147075D02*
D03*
Y139201D02*
D03*
Y131327D02*
D03*
Y123453D02*
D03*
Y115579D02*
D03*
Y107705D02*
D03*
Y99831D02*
D03*
Y91957D02*
D03*
Y84083D02*
D03*
Y76209D02*
D03*
Y68335D02*
D03*
Y60461D02*
D03*
Y52587D02*
D03*
Y44713D02*
D03*
Y36839D02*
D03*
Y-89146D02*
D03*
Y-104894D02*
D03*
Y-112768D02*
D03*
X166587Y186445D02*
D03*
Y170697D02*
D03*
Y162823D02*
D03*
Y-18279D02*
D03*
Y-57649D02*
D03*
Y-104894D02*
D03*
Y-112768D02*
D03*
Y-120642D02*
D03*
X158713Y186445D02*
D03*
Y178571D02*
D03*
Y170697D02*
D03*
Y21091D02*
D03*
Y13217D02*
D03*
Y-34027D02*
D03*
Y-57649D02*
D03*
Y-89146D02*
D03*
Y-104894D02*
D03*
Y-112768D02*
D03*
Y-120642D02*
D03*
Y-128516D02*
D03*
X150839Y186445D02*
D03*
Y178571D02*
D03*
Y170697D02*
D03*
Y21091D02*
D03*
Y13217D02*
D03*
Y-2531D02*
D03*
Y-10405D02*
D03*
Y-18279D02*
D03*
Y-49775D02*
D03*
Y-104894D02*
D03*
X142965Y186445D02*
D03*
Y178571D02*
D03*
Y170697D02*
D03*
Y139201D02*
D03*
Y21091D02*
D03*
Y13217D02*
D03*
Y-2531D02*
D03*
Y-10405D02*
D03*
Y-18279D02*
D03*
Y-26153D02*
D03*
Y-34027D02*
D03*
Y-41901D02*
D03*
Y-49775D02*
D03*
Y-57649D02*
D03*
X135091Y186445D02*
D03*
Y178571D02*
D03*
Y170697D02*
D03*
Y147075D02*
D03*
Y123453D02*
D03*
Y115579D02*
D03*
Y107705D02*
D03*
Y99831D02*
D03*
Y91957D02*
D03*
Y68335D02*
D03*
Y52587D02*
D03*
Y21091D02*
D03*
Y13217D02*
D03*
Y-2531D02*
D03*
Y-10405D02*
D03*
Y-18279D02*
D03*
Y-26153D02*
D03*
Y-34027D02*
D03*
Y-41901D02*
D03*
Y-49775D02*
D03*
X127217Y186445D02*
D03*
Y178571D02*
D03*
Y170697D02*
D03*
Y147075D02*
D03*
Y139201D02*
D03*
Y131327D02*
D03*
Y123453D02*
D03*
Y115579D02*
D03*
Y107705D02*
D03*
Y99831D02*
D03*
Y76209D02*
D03*
Y68335D02*
D03*
Y60461D02*
D03*
Y52587D02*
D03*
Y21091D02*
D03*
Y13217D02*
D03*
Y-2531D02*
D03*
Y-10405D02*
D03*
Y-34027D02*
D03*
Y-41901D02*
D03*
Y-49775D02*
D03*
X119343Y186445D02*
D03*
Y178571D02*
D03*
Y170697D02*
D03*
Y147075D02*
D03*
Y139201D02*
D03*
Y131327D02*
D03*
Y123453D02*
D03*
Y115579D02*
D03*
Y107705D02*
D03*
Y84083D02*
D03*
Y76209D02*
D03*
Y68335D02*
D03*
Y60461D02*
D03*
Y52587D02*
D03*
Y21091D02*
D03*
Y13217D02*
D03*
Y-2531D02*
D03*
Y-10405D02*
D03*
Y-41901D02*
D03*
Y-49775D02*
D03*
Y-104894D02*
D03*
Y-112768D02*
D03*
Y-120642D02*
D03*
Y-128516D02*
D03*
X111469Y186445D02*
D03*
Y178571D02*
D03*
Y170697D02*
D03*
Y147075D02*
D03*
Y139201D02*
D03*
Y131327D02*
D03*
Y123453D02*
D03*
Y115579D02*
D03*
Y91957D02*
D03*
Y84083D02*
D03*
Y76209D02*
D03*
Y68335D02*
D03*
Y60461D02*
D03*
Y52587D02*
D03*
Y21091D02*
D03*
Y13217D02*
D03*
Y-2531D02*
D03*
Y-41901D02*
D03*
Y-49775D02*
D03*
Y-65523D02*
D03*
Y-73398D02*
D03*
Y-81272D02*
D03*
Y-89146D02*
D03*
Y-97020D02*
D03*
Y-104894D02*
D03*
Y-112768D02*
D03*
Y-120642D02*
D03*
Y-128516D02*
D03*
X103595Y186445D02*
D03*
Y178571D02*
D03*
Y170697D02*
D03*
Y147075D02*
D03*
Y139201D02*
D03*
Y131327D02*
D03*
Y123453D02*
D03*
Y99831D02*
D03*
Y91957D02*
D03*
Y84083D02*
D03*
Y76209D02*
D03*
Y68335D02*
D03*
Y52587D02*
D03*
Y21091D02*
D03*
Y13217D02*
D03*
Y-2531D02*
D03*
Y-41901D02*
D03*
Y-49775D02*
D03*
Y-65523D02*
D03*
Y-73398D02*
D03*
Y-81272D02*
D03*
Y-89146D02*
D03*
Y-97020D02*
D03*
Y-104894D02*
D03*
Y-112768D02*
D03*
Y-120642D02*
D03*
Y-128516D02*
D03*
X95721Y186445D02*
D03*
Y178571D02*
D03*
Y170697D02*
D03*
Y147075D02*
D03*
Y139201D02*
D03*
Y131327D02*
D03*
Y107705D02*
D03*
Y99831D02*
D03*
Y91957D02*
D03*
Y84083D02*
D03*
Y76209D02*
D03*
Y68335D02*
D03*
Y52587D02*
D03*
Y21091D02*
D03*
Y13217D02*
D03*
Y-2531D02*
D03*
Y-10405D02*
D03*
Y-41901D02*
D03*
Y-49775D02*
D03*
Y-65523D02*
D03*
Y-73398D02*
D03*
Y-81272D02*
D03*
Y-89146D02*
D03*
Y-97020D02*
D03*
Y-104894D02*
D03*
Y-112768D02*
D03*
Y-120642D02*
D03*
Y-128516D02*
D03*
X87847Y186445D02*
D03*
Y178571D02*
D03*
Y170697D02*
D03*
Y147075D02*
D03*
Y139201D02*
D03*
Y115579D02*
D03*
Y107705D02*
D03*
Y99831D02*
D03*
Y91957D02*
D03*
Y84083D02*
D03*
Y76209D02*
D03*
Y68335D02*
D03*
Y60461D02*
D03*
Y52587D02*
D03*
Y21091D02*
D03*
Y13217D02*
D03*
Y-41901D02*
D03*
Y-49775D02*
D03*
Y-65523D02*
D03*
Y-73398D02*
D03*
Y-81272D02*
D03*
Y-89146D02*
D03*
Y-97020D02*
D03*
Y-104894D02*
D03*
Y-112768D02*
D03*
Y-120642D02*
D03*
Y-128516D02*
D03*
X79973Y186445D02*
D03*
Y178571D02*
D03*
Y170697D02*
D03*
Y147075D02*
D03*
Y123453D02*
D03*
Y115579D02*
D03*
Y107705D02*
D03*
Y99831D02*
D03*
Y91957D02*
D03*
Y84083D02*
D03*
Y76209D02*
D03*
Y68335D02*
D03*
Y60461D02*
D03*
Y52587D02*
D03*
Y21091D02*
D03*
Y13217D02*
D03*
Y-41901D02*
D03*
Y-49775D02*
D03*
Y-65523D02*
D03*
Y-73398D02*
D03*
Y-81272D02*
D03*
Y-89146D02*
D03*
Y-97020D02*
D03*
Y-104894D02*
D03*
Y-112768D02*
D03*
Y-120642D02*
D03*
Y-128516D02*
D03*
X72099Y186445D02*
D03*
Y178571D02*
D03*
Y170697D02*
D03*
Y147075D02*
D03*
Y123453D02*
D03*
Y115579D02*
D03*
Y107705D02*
D03*
Y99831D02*
D03*
Y91957D02*
D03*
Y84083D02*
D03*
Y76209D02*
D03*
Y68335D02*
D03*
Y60461D02*
D03*
Y52587D02*
D03*
Y21091D02*
D03*
Y13217D02*
D03*
Y-2531D02*
D03*
Y-10405D02*
D03*
Y-18279D02*
D03*
Y-26153D02*
D03*
Y-41901D02*
D03*
Y-49775D02*
D03*
Y-65523D02*
D03*
Y-97020D02*
D03*
X64224Y186445D02*
D03*
Y178571D02*
D03*
Y170697D02*
D03*
Y147075D02*
D03*
Y123453D02*
D03*
Y115579D02*
D03*
Y107705D02*
D03*
Y99831D02*
D03*
Y91957D02*
D03*
Y84083D02*
D03*
Y76209D02*
D03*
Y68335D02*
D03*
Y21091D02*
D03*
Y13217D02*
D03*
Y-49775D02*
D03*
X56350Y186445D02*
D03*
Y178571D02*
D03*
Y170697D02*
D03*
Y147075D02*
D03*
Y139201D02*
D03*
Y131327D02*
D03*
Y123453D02*
D03*
Y115579D02*
D03*
Y107705D02*
D03*
Y99831D02*
D03*
Y91957D02*
D03*
Y84083D02*
D03*
Y76209D02*
D03*
Y68335D02*
D03*
Y21091D02*
D03*
Y13217D02*
D03*
X48476Y186445D02*
D03*
Y178571D02*
D03*
Y170697D02*
D03*
Y139201D02*
D03*
Y131327D02*
D03*
Y123453D02*
D03*
Y115579D02*
D03*
Y21091D02*
D03*
Y13217D02*
D03*
X40602Y186445D02*
D03*
Y178571D02*
D03*
Y170697D02*
D03*
Y21091D02*
D03*
Y13217D02*
D03*
Y-2531D02*
D03*
Y-26153D02*
D03*
Y-34027D02*
D03*
X32728Y186445D02*
D03*
Y178571D02*
D03*
Y170697D02*
D03*
Y-49775D02*
D03*
Y-65523D02*
D03*
X24854Y162823D02*
D03*
Y154949D02*
D03*
Y147075D02*
D03*
Y139201D02*
D03*
Y131327D02*
D03*
Y123453D02*
D03*
Y115579D02*
D03*
Y107705D02*
D03*
Y99831D02*
D03*
Y91957D02*
D03*
Y84083D02*
D03*
Y76209D02*
D03*
Y68335D02*
D03*
Y60461D02*
D03*
Y52587D02*
D03*
Y44713D02*
D03*
Y36839D02*
D03*
Y-2531D02*
D03*
Y-10405D02*
D03*
Y-41901D02*
D03*
Y-49775D02*
D03*
Y-65523D02*
D03*
Y-73398D02*
D03*
X16980Y162823D02*
D03*
Y154949D02*
D03*
Y147075D02*
D03*
Y139201D02*
D03*
Y131327D02*
D03*
Y123453D02*
D03*
Y115579D02*
D03*
Y107705D02*
D03*
Y99831D02*
D03*
Y91957D02*
D03*
Y84083D02*
D03*
Y76209D02*
D03*
Y68335D02*
D03*
Y60461D02*
D03*
Y52587D02*
D03*
Y44713D02*
D03*
Y36839D02*
D03*
Y-2531D02*
D03*
Y-10405D02*
D03*
Y-18279D02*
D03*
X9106Y186445D02*
D03*
Y170697D02*
D03*
Y162823D02*
D03*
Y154949D02*
D03*
Y147075D02*
D03*
Y139201D02*
D03*
Y131327D02*
D03*
Y123453D02*
D03*
Y115579D02*
D03*
Y107705D02*
D03*
Y99831D02*
D03*
Y91957D02*
D03*
Y84083D02*
D03*
Y76209D02*
D03*
Y68335D02*
D03*
Y60461D02*
D03*
Y52587D02*
D03*
Y44713D02*
D03*
Y36839D02*
D03*
Y28965D02*
D03*
Y13217D02*
D03*
Y-104894D02*
D03*
Y-112768D02*
D03*
D77*
X57429Y63417D02*
D03*
X56303Y60670D02*
D03*
X55380Y57849D02*
D03*
X53281Y55750D02*
D03*
X51182Y53650D02*
D03*
X49083Y51552D02*
D03*
X46984Y49452D02*
D03*
X44884Y47353D02*
D03*
X42786Y45254D02*
D03*
X40686Y43155D02*
D03*
X38587Y41056D02*
D03*
X36488Y38957D02*
D03*
X34389Y36858D02*
D03*
X32555Y34524D02*
D03*
X31414Y31784D02*
D03*
X31044Y28838D02*
D03*
Y25870D02*
D03*
Y22901D02*
D03*
Y19933D02*
D03*
Y16964D02*
D03*
Y13996D02*
D03*
Y11027D02*
D03*
Y8059D02*
D03*
Y5090D02*
D03*
Y2122D02*
D03*
Y-847D02*
D03*
X31101Y-12514D02*
D03*
X34035Y-12964D02*
D03*
X35956Y-2632D02*
D03*
Y337D02*
D03*
Y3305D02*
D03*
Y6274D02*
D03*
Y9242D02*
D03*
Y12211D02*
D03*
Y15179D02*
D03*
Y18148D02*
D03*
Y21116D02*
D03*
Y24085D02*
D03*
Y27053D02*
D03*
X36036Y30020D02*
D03*
X37265Y32723D02*
D03*
X39331Y34854D02*
D03*
X41430Y36953D02*
D03*
X43529Y39052D02*
D03*
X45628Y41151D02*
D03*
X47727Y43250D02*
D03*
X49826Y45349D02*
D03*
X51925Y47449D02*
D03*
X54024Y49547D02*
D03*
X56123Y51647D02*
D03*
X58222Y53746D02*
D03*
X60745Y55310D02*
D03*
X63653Y55908D02*
D03*
X65711Y58047D02*
D03*
X66160Y60982D02*
D03*
X64865Y63653D02*
D03*
X62283Y65117D02*
D03*
X42533Y-69494D02*
D03*
X40434Y-71593D02*
D03*
X38651Y-73966D02*
D03*
X38544Y-76932D02*
D03*
Y-79901D02*
D03*
Y-82869D02*
D03*
Y-85838D02*
D03*
Y-88806D02*
D03*
X48984Y-102456D02*
D03*
X51083Y-104555D02*
D03*
X53700Y-105956D02*
D03*
X70066Y-104544D02*
D03*
X69997Y-101576D02*
D03*
X67545Y-99902D02*
D03*
X64577D02*
D03*
X61608D02*
D03*
X43456Y-88727D02*
D03*
Y-85758D02*
D03*
Y-82790D02*
D03*
Y-76853D02*
D03*
X44778Y-74195D02*
D03*
X46877Y-72096D02*
D03*
X112949Y-27444D02*
D03*
X115383Y-29144D02*
D03*
X99051Y-33044D02*
D03*
X96082D02*
D03*
X93114D02*
D03*
X90145D02*
D03*
X87177D02*
D03*
X84208D02*
D03*
X81240D02*
D03*
X78271D02*
D03*
X69366D02*
D03*
X61615Y-36413D02*
D03*
X59516Y-38511D02*
D03*
X57417Y-40611D02*
D03*
X57253Y-62275D02*
D03*
X57162Y-59308D02*
D03*
Y-56339D02*
D03*
X74607Y-37956D02*
D03*
X77575D02*
D03*
X80544D02*
D03*
X83512D02*
D03*
X86481D02*
D03*
X89449D02*
D03*
X92418D02*
D03*
X95386D02*
D03*
X98355D02*
D03*
X101323D02*
D03*
X104292D02*
D03*
X107260D02*
D03*
X110229D02*
D03*
X113194Y-37818D02*
D03*
X115511Y-35962D02*
D03*
X117610Y-33863D02*
D03*
X119709Y-31764D02*
D03*
X121392Y-29319D02*
D03*
X121577Y-26356D02*
D03*
X50633Y-26854D02*
D03*
X48723Y-29127D02*
D03*
X48544Y-32090D02*
D03*
Y-35058D02*
D03*
Y-38027D02*
D03*
Y-40995D02*
D03*
Y-43964D02*
D03*
X41054Y-53315D02*
D03*
X45257Y-65434D02*
D03*
X52787Y-61660D02*
D03*
X53456Y-43925D02*
D03*
Y-40957D02*
D03*
Y-37988D02*
D03*
Y-35020D02*
D03*
Y-32052D02*
D03*
X54948Y-29485D02*
D03*
X65983Y-21965D02*
D03*
X28272Y-14097D02*
D03*
X26556Y-16519D02*
D03*
Y-19487D02*
D03*
X27304Y-22360D02*
D03*
Y-25328D02*
D03*
Y-28297D02*
D03*
Y-31265D02*
D03*
Y-34234D02*
D03*
X28816Y-36788D02*
D03*
X30915Y-38888D02*
D03*
X33014Y-40987D02*
D03*
X35113Y-43086D02*
D03*
X37212Y-45185D02*
D03*
X39311Y-47284D02*
D03*
X41410Y-49383D02*
D03*
X43509Y-51482D02*
D03*
X48704Y-51969D02*
D03*
X48029Y-49078D02*
D03*
X45941Y-46968D02*
D03*
X43842Y-44869D02*
D03*
X41743Y-42770D02*
D03*
X39644Y-40671D02*
D03*
X37545Y-38572D02*
D03*
X35446Y-36473D02*
D03*
X33347Y-34374D02*
D03*
X32215Y-31629D02*
D03*
Y-28661D02*
D03*
Y-25692D02*
D03*
Y-22724D02*
D03*
X32964Y-19851D02*
D03*
Y-16883D02*
D03*
D78*
X137000Y-127000D02*
D03*
X133500Y-128500D02*
D03*
X130000D02*
D03*
X126500D02*
D03*
X125000Y-114500D02*
D03*
Y-118000D02*
D03*
Y-121500D02*
D03*
Y-125000D02*
D03*
X147000Y-126000D02*
D03*
X152500Y-120500D02*
D03*
X147000Y-115000D02*
D03*
X137000Y-123500D02*
D03*
Y-117500D02*
D03*
X25500Y-81000D02*
D03*
X66898Y-25398D02*
D03*
X67500Y-30000D02*
D03*
X77543Y-27957D02*
D03*
X26004Y-127000D02*
D03*
X32500Y-121000D02*
D03*
X78000Y-7750D02*
D03*
X43500Y-21500D02*
D03*
X55500Y-16500D02*
D03*
X107500Y-15000D02*
D03*
X74461Y-89039D02*
D03*
X74500Y-74500D02*
D03*
X15000Y-93000D02*
D03*
X32500D02*
D03*
X30039Y-70039D02*
D03*
X185000Y-130500D02*
D03*
X171500Y-131000D02*
D03*
X29000Y-139709D02*
D03*
X108000Y-24000D02*
D03*
X157000Y-97000D02*
D03*
X163039Y-89961D02*
D03*
X140539Y-87461D02*
D03*
X155480Y-76480D02*
D03*
X158500Y-69000D02*
D03*
X181000Y-39500D02*
D03*
X170039Y-15461D02*
D03*
X165961Y-9961D02*
D03*
X171461Y39D02*
D03*
X168000Y-44500D02*
D03*
X150000Y-30000D02*
D03*
X124500Y-28000D02*
D03*
X112539Y-30461D02*
D03*
X90500Y-30000D02*
D03*
X55500Y-21000D02*
D03*
X67500Y-4000D02*
D03*
X48500Y-4500D02*
D03*
X43461Y-7961D02*
D03*
X29760Y-3760D02*
D03*
X69878Y-79878D02*
D03*
X69791Y-84209D02*
D03*
X70346Y-125154D02*
D03*
X70323Y-120823D02*
D03*
X70161Y-112161D02*
D03*
X13256Y-80244D02*
D03*
X13445Y-73945D02*
D03*
X36912Y-62912D02*
D03*
X47657Y-92843D02*
D03*
X20500Y-97500D02*
D03*
X24201Y-97299D02*
D03*
X157000Y-50500D02*
D03*
X162500D02*
D03*
X125000Y-88500D02*
D03*
X125291Y-84209D02*
D03*
X125122Y-79878D02*
D03*
X123500Y-62500D02*
D03*
Y-58000D02*
D03*
X46244Y-80244D02*
D03*
X48106Y-83394D02*
D03*
X48094Y-77095D02*
D03*
X59000Y-94000D02*
D03*
X55500Y-99500D02*
D03*
X46248Y-110752D02*
D03*
X43098Y-108402D02*
D03*
X39949Y-110949D02*
D03*
X37000Y-108500D02*
D03*
X33650Y-110350D02*
D03*
X30500Y-108000D02*
D03*
D79*
X184000Y-2500D02*
D03*
M02*
