G04*
G04 #@! TF.GenerationSoftware,Altium Limited,Altium Designer,21.8.1 (53)*
G04*
G04 Layer_Color=8388736*
%FSLAX25Y25*%
%MOIN*%
G70*
G04*
G04 #@! TF.SameCoordinates,EDE1E146-8CB7-4DB8-9C5D-6FBA97C0E16F*
G04*
G04*
G04 #@! TF.FilePolarity,Negative*
G04*
G01*
G75*
%ADD15C,0.01181*%
%ADD16R,0.13492X0.05815*%
%ADD17R,0.04437X0.03650*%
%ADD18R,0.03650X0.04437*%
%ADD19R,0.08768X0.04437*%
%ADD20R,0.04437X0.08768*%
%ADD21R,0.03650X0.04043*%
%ADD22R,0.06504X0.03059*%
%ADD23R,0.04043X0.03650*%
%ADD24R,0.02272X0.06209*%
%ADD25R,0.17035X0.12705*%
%ADD26O,0.07980X0.01681*%
%ADD27R,0.06110X0.02272*%
%ADD28R,0.07114X0.07902*%
%ADD29R,0.02862X0.04634*%
G04:AMPARAMS|DCode=30|XSize=40.43mil|YSize=36.5mil|CornerRadius=10.37mil|HoleSize=0mil|Usage=FLASHONLY|Rotation=180.000|XOffset=0mil|YOffset=0mil|HoleType=Round|Shape=RoundedRectangle|*
%AMROUNDEDRECTD30*
21,1,0.04043,0.01575,0,0,180.0*
21,1,0.01968,0.03650,0,0,180.0*
1,1,0.02075,-0.00984,0.00787*
1,1,0.02075,0.00984,0.00787*
1,1,0.02075,0.00984,-0.00787*
1,1,0.02075,-0.00984,-0.00787*
%
%ADD30ROUNDEDRECTD30*%
%ADD31R,0.04634X0.02862*%
%ADD32C,0.06406*%
%ADD33C,0.06012*%
%ADD34C,0.07980*%
%ADD35C,0.08374*%
%ADD36R,0.06406X0.06406*%
G36*
X138347Y-51968D02*
X175057D01*
X175856Y-52768D01*
X177856Y-56268D01*
Y-59768D01*
X177356Y-60268D01*
X177325Y-60236D01*
X169856D01*
Y-62768D01*
X162356D01*
Y-60236D01*
X143740D01*
X141651Y-58147D01*
X138893Y-60905D01*
X127284D01*
Y-50906D01*
X137284D01*
X138347Y-51968D01*
D02*
G37*
D15*
X177856Y-57268D02*
G03*
X172856Y-52268I-5000J0D01*
G01*
X144356Y-59268D02*
G03*
X143149Y-58768I-1207J-1207D01*
G01*
X144356Y-59268D02*
G03*
X147978Y-60768I3621J3621D01*
G01*
X175033D02*
G03*
X177856Y-57945I0J2823D01*
G01*
X139002Y-105118D02*
X145276D01*
X167856Y-51768D02*
X171856D01*
X164356D02*
X167856D01*
X160356D02*
X164356D01*
X156856D02*
X160356D01*
X153356D02*
X156856D01*
X149356D02*
X153356D01*
X145356D02*
X149356D01*
X142720D02*
X145356D01*
X141339Y-53150D02*
X142720Y-51768D01*
X91339Y-142520D02*
Y-115748D01*
X98819D01*
X103150Y-111417D02*
Y-102362D01*
X98819Y-115748D02*
X103150Y-111417D01*
Y-102362D02*
X108937Y-96575D01*
X110827D01*
X112284Y-96063D02*
X125591D01*
X128347Y-93307D01*
X140157D01*
X144882Y-104724D02*
Y-98032D01*
X140157Y-93307D02*
X144882Y-98032D01*
X159356Y-60768D02*
X164175D01*
X150356D02*
X164175D01*
X150356D02*
X155356D01*
X130185Y-55597D02*
X150185D01*
X145276Y-106670D02*
Y-105118D01*
X146086Y-107480D02*
X147072D01*
X143061D02*
X146086D01*
X147072D02*
X151083D01*
X145276Y-106670D02*
X146086Y-107480D01*
X127953Y-102756D02*
X129028Y-103831D01*
X117323Y-102756D02*
X127953D01*
X110630Y-109449D02*
X117323Y-102756D01*
X110630Y-110928D02*
Y-109449D01*
Y-117717D02*
Y-110928D01*
X91339Y-142520D02*
X94095Y-145276D01*
X100394D01*
X103937Y-141732D01*
X109055D02*
X110630Y-140157D01*
X103937Y-141732D02*
X109055D01*
X110630Y-140157D02*
Y-117717D01*
X111811Y-116535D01*
X129134D01*
X130315Y-115354D01*
X135187D01*
X143061Y-107480D01*
D16*
X42126Y-264665D02*
D03*
Y-241634D02*
D03*
D17*
X111356Y-42126D02*
D03*
X111356Y-69685D02*
D03*
X190096Y-42126D02*
D03*
X190096Y-69685D02*
D03*
D18*
X127104Y-26378D02*
D03*
X127104Y-85433D02*
D03*
X174348Y-26378D02*
D03*
X174348Y-85433D02*
D03*
D19*
X113522Y-26378D02*
D03*
X113522Y-85433D02*
D03*
X187931Y-26378D02*
D03*
X187931Y-85433D02*
D03*
D20*
X111356Y-28543D02*
D03*
X111356Y-83268D02*
D03*
X190096Y-28543D02*
D03*
X190096Y-83268D02*
D03*
D21*
X155585Y-76768D02*
D03*
X149049Y-76807D02*
D03*
X136128Y-76768D02*
D03*
X142663Y-76728D02*
D03*
X173356Y-76768D02*
D03*
X166821Y-76807D02*
D03*
X160817Y-284146D02*
D03*
X167353Y-284106D02*
D03*
X160817Y-289646D02*
D03*
X167353Y-289606D02*
D03*
D22*
X150356Y-55768D02*
D03*
Y-60768D02*
D03*
Y-65768D02*
D03*
Y-70768D02*
D03*
X171711D02*
D03*
Y-65768D02*
D03*
Y-60768D02*
D03*
Y-55768D02*
D03*
D23*
X179856Y-76496D02*
D03*
X179817Y-69961D02*
D03*
X112702Y-220079D02*
D03*
Y-225590D02*
D03*
X148851Y-220079D02*
D03*
Y-225590D02*
D03*
X177770Y-220079D02*
D03*
Y-225590D02*
D03*
X170540Y-220079D02*
D03*
Y-225590D02*
D03*
X119932Y-220079D02*
D03*
Y-225590D02*
D03*
X141621Y-220079D02*
D03*
Y-225590D02*
D03*
X106299Y-138976D02*
D03*
Y-144488D02*
D03*
Y-128347D02*
D03*
Y-133858D02*
D03*
X106299Y-117717D02*
D03*
Y-123228D02*
D03*
X111850Y-102126D02*
D03*
X111811Y-95591D02*
D03*
X164555Y-105138D02*
D03*
X164594Y-111673D02*
D03*
X159055Y-105138D02*
D03*
X159095Y-111673D02*
D03*
X164469Y-124429D02*
D03*
X164508Y-130965D02*
D03*
X158968Y-124429D02*
D03*
X159008Y-130965D02*
D03*
X120552Y-130850D02*
D03*
X120513Y-124315D02*
D03*
X126071Y-130850D02*
D03*
X126031Y-124315D02*
D03*
X125839Y-105811D02*
D03*
X125878Y-112346D02*
D03*
X120339Y-105811D02*
D03*
X120378Y-112346D02*
D03*
X114567Y-124803D02*
D03*
Y-130315D02*
D03*
X185000Y-219567D02*
D03*
X185039Y-226102D02*
D03*
X105512D02*
D03*
X105472Y-219567D02*
D03*
X127201Y-226102D02*
D03*
X127162Y-219567D02*
D03*
X156120Y-226102D02*
D03*
X156081Y-219567D02*
D03*
X163311D02*
D03*
X163350Y-226102D02*
D03*
X134431D02*
D03*
X134391Y-219567D02*
D03*
X14293Y-258724D02*
D03*
X14332Y-265260D02*
D03*
X18959Y-258724D02*
D03*
X18999Y-265260D02*
D03*
X23665Y-259315D02*
D03*
Y-264827D02*
D03*
X9665D02*
D03*
Y-259315D02*
D03*
D24*
X164028Y-274606D02*
D03*
X166587D02*
D03*
X169147D02*
D03*
X171705D02*
D03*
X174265D02*
D03*
X176824D02*
D03*
X179383D02*
D03*
X181942D02*
D03*
X184501D02*
D03*
X187060D02*
D03*
Y-251575D02*
D03*
X184501D02*
D03*
X181942D02*
D03*
X179383D02*
D03*
X176824D02*
D03*
X174265D02*
D03*
X171705D02*
D03*
X169147D02*
D03*
X166587D02*
D03*
X164028D02*
D03*
D25*
X175544Y-263091D02*
D03*
D26*
X151083Y-107480D02*
D03*
Y-105512D02*
D03*
Y-103543D02*
D03*
Y-101575D02*
D03*
Y-99606D02*
D03*
X133957Y-107480D02*
D03*
Y-105512D02*
D03*
Y-103543D02*
D03*
Y-101575D02*
D03*
Y-99606D02*
D03*
X151083Y-126378D02*
D03*
Y-124409D02*
D03*
Y-122441D02*
D03*
Y-120472D02*
D03*
Y-118504D02*
D03*
X133957Y-126378D02*
D03*
Y-124409D02*
D03*
Y-122441D02*
D03*
Y-120472D02*
D03*
Y-118504D02*
D03*
D27*
X150835Y-145177D02*
D03*
Y-142618D02*
D03*
Y-140059D02*
D03*
Y-137500D02*
D03*
X133417D02*
D03*
Y-140059D02*
D03*
Y-142618D02*
D03*
Y-145177D02*
D03*
D28*
X142126Y-141339D02*
D03*
D29*
X32165Y-270004D02*
D03*
X35906Y-279059D02*
D03*
X28425D02*
D03*
D30*
X28665Y-259276D02*
D03*
Y-264787D02*
D03*
D31*
X13976Y-286024D02*
D03*
Y-293504D02*
D03*
X23031Y-289764D02*
D03*
D32*
X11024Y-309882D02*
D03*
Y-279882D02*
D03*
X20472D02*
D03*
Y-309882D02*
D03*
X65748Y-318898D02*
D03*
Y-259842D02*
D03*
X173425Y-385827D02*
D03*
X163425D02*
D03*
X153425D02*
D03*
X143425D02*
D03*
X133425D02*
D03*
X123425D02*
D03*
X113425D02*
D03*
X103425D02*
D03*
Y-375827D02*
D03*
X123425D02*
D03*
X133425D02*
D03*
X143425D02*
D03*
X183425D02*
D03*
X173425D02*
D03*
X163425D02*
D03*
X153425D02*
D03*
X113425D02*
D03*
X93425Y-385827D02*
D03*
Y-375827D02*
D03*
X83425Y-385827D02*
D03*
Y-375827D02*
D03*
X73425Y-385827D02*
D03*
Y-375827D02*
D03*
X63425Y-385827D02*
D03*
Y-375827D02*
D03*
X53425Y-385827D02*
D03*
Y-375827D02*
D03*
X43425Y-385827D02*
D03*
Y-375827D02*
D03*
X33425Y-385827D02*
D03*
Y-375827D02*
D03*
X23425Y-385827D02*
D03*
Y-375827D02*
D03*
X13425Y-385827D02*
D03*
Y-375827D02*
D03*
Y-7874D02*
D03*
Y-17874D02*
D03*
X23425Y-7874D02*
D03*
Y-17874D02*
D03*
X33425Y-7874D02*
D03*
Y-17874D02*
D03*
X43425Y-7874D02*
D03*
Y-17874D02*
D03*
X53425Y-7874D02*
D03*
Y-17874D02*
D03*
X63425Y-7874D02*
D03*
Y-17874D02*
D03*
X73425Y-7874D02*
D03*
Y-17874D02*
D03*
X83425Y-7874D02*
D03*
Y-17874D02*
D03*
X93425Y-7874D02*
D03*
Y-17874D02*
D03*
X103425Y-7874D02*
D03*
Y-17874D02*
D03*
X113425Y-7874D02*
D03*
Y-17874D02*
D03*
X123425Y-7874D02*
D03*
Y-17874D02*
D03*
X133425Y-7874D02*
D03*
Y-17874D02*
D03*
X143425Y-7874D02*
D03*
Y-17874D02*
D03*
X153425Y-7874D02*
D03*
Y-17874D02*
D03*
X163425Y-7874D02*
D03*
Y-17874D02*
D03*
X173425Y-7874D02*
D03*
Y-17874D02*
D03*
X183425Y-7874D02*
D03*
D33*
X27677Y-326260D02*
D03*
Y-316260D02*
D03*
X37677D02*
D03*
Y-326260D02*
D03*
X32677Y-321260D02*
D03*
X159787Y-45175D02*
D03*
Y-35175D02*
D03*
X149787D02*
D03*
Y-45175D02*
D03*
X154787Y-40175D02*
D03*
X127284Y-60905D02*
D03*
X137284D02*
D03*
Y-50906D02*
D03*
X127284D02*
D03*
X132283Y-55905D02*
D03*
D34*
X153807Y-209681D02*
D03*
Y-189681D02*
D03*
Y-179681D02*
D03*
Y-169681D02*
D03*
Y-159681D02*
D03*
X133807D02*
D03*
Y-179681D02*
D03*
Y-209681D02*
D03*
Y-189681D02*
D03*
Y-169681D02*
D03*
X164807Y-209681D02*
D03*
Y-189681D02*
D03*
Y-179681D02*
D03*
Y-169681D02*
D03*
Y-159681D02*
D03*
X184807D02*
D03*
Y-169681D02*
D03*
Y-179681D02*
D03*
Y-189681D02*
D03*
Y-209681D02*
D03*
X102807D02*
D03*
Y-189681D02*
D03*
Y-179681D02*
D03*
Y-169681D02*
D03*
Y-159681D02*
D03*
X122807D02*
D03*
Y-169681D02*
D03*
Y-179681D02*
D03*
Y-189681D02*
D03*
Y-209681D02*
D03*
D35*
X97736Y-122591D02*
D03*
Y-34008D02*
D03*
X97862Y-228047D02*
D03*
Y-139465D02*
D03*
D36*
X183425Y-385827D02*
D03*
Y-17874D02*
D03*
M02*
