G04*
G04 #@! TF.GenerationSoftware,Altium Limited,Altium Designer,21.8.1 (53)*
G04*
G04 Layer_Physical_Order=3*
G04 Layer_Color=16440176*
%FSLAX25Y25*%
%MOIN*%
G70*
G04*
G04 #@! TF.SameCoordinates,EDE1E146-8CB7-4DB8-9C5D-6FBA97C0E16F*
G04*
G04*
G04 #@! TF.FilePolarity,Positive*
G04*
G01*
G75*
%ADD37C,0.01968*%
%ADD56C,0.05906*%
%ADD58C,0.07480*%
%ADD61C,0.02756*%
%ADD62C,0.03937*%
G36*
X173520Y-52530D02*
X174762Y-53045D01*
X175881Y-53792D01*
X176356Y-54268D01*
X176475Y-54387D01*
X176662Y-54666D01*
X176791Y-54977D01*
X176856Y-55307D01*
Y-55475D01*
Y-59268D01*
Y-59387D01*
X176810Y-59620D01*
X176719Y-59839D01*
X176587Y-60037D01*
X176503Y-60121D01*
X175856Y-60768D01*
X147434D01*
X146775Y-60637D01*
X146153Y-60379D01*
X145594Y-60005D01*
X145356Y-59768D01*
X145356Y-59768D01*
X145108Y-59543D01*
X144552Y-59171D01*
X143933Y-58915D01*
X143277Y-58784D01*
X142942Y-58768D01*
X140386D01*
X140289Y-58599D01*
X139590Y-57900D01*
X138733Y-57406D01*
X137778Y-57150D01*
X136789D01*
X135834Y-57406D01*
X135715Y-57474D01*
X135783Y-57355D01*
X136039Y-56400D01*
Y-55411D01*
X135783Y-54456D01*
X135715Y-54337D01*
X135834Y-54405D01*
X136789Y-54661D01*
X137778D01*
X138733Y-54405D01*
X139590Y-53911D01*
X140289Y-53212D01*
X140783Y-52355D01*
X140807Y-52268D01*
X172201D01*
X173520Y-52530D01*
D02*
G37*
G36*
X173228Y-155512D02*
X167066D01*
X166637Y-155264D01*
X165431Y-154941D01*
X164183D01*
X162978Y-155264D01*
X162548Y-155512D01*
X156066D01*
X155637Y-155264D01*
X154431Y-154941D01*
X153183D01*
X151978Y-155264D01*
X151548Y-155512D01*
X144095D01*
X144089Y-155118D01*
X135092D01*
X134431Y-154941D01*
X133183D01*
X132522Y-155118D01*
X124092D01*
X123431Y-154941D01*
X122183D01*
X121522Y-155118D01*
X104092D01*
X103431Y-154941D01*
X102183D01*
X101522Y-155118D01*
X99213D01*
X88583Y-165748D01*
Y-211795D01*
X88503D01*
X87629Y-212157D01*
X86961Y-212826D01*
X86598Y-213700D01*
Y-214646D01*
X86961Y-215520D01*
X87629Y-216189D01*
X88503Y-216551D01*
X88583D01*
Y-381102D01*
X88189Y-381496D01*
X69130D01*
Y-322598D01*
X69104Y-322467D01*
X69095Y-322334D01*
X69065Y-322274D01*
X69052Y-322208D01*
X68978Y-322097D01*
X68919Y-321977D01*
X68844Y-321723D01*
X68867Y-321432D01*
X68910Y-321326D01*
X68911Y-321325D01*
X69431Y-320423D01*
X69701Y-319418D01*
Y-318377D01*
X69431Y-317372D01*
X68911Y-316471D01*
X68910Y-316470D01*
X68867Y-316363D01*
X68844Y-316072D01*
X68919Y-315818D01*
X68978Y-315698D01*
X69052Y-315587D01*
X69065Y-315521D01*
X69095Y-315461D01*
X69104Y-315328D01*
X69130Y-315197D01*
Y-263543D01*
X69104Y-263412D01*
X69095Y-263279D01*
X69065Y-263219D01*
X69052Y-263153D01*
X68978Y-263042D01*
X68919Y-262922D01*
X68844Y-262668D01*
X68867Y-262377D01*
X68910Y-262271D01*
X68911Y-262270D01*
X69431Y-261368D01*
X69701Y-260363D01*
Y-259322D01*
X69431Y-258317D01*
X68911Y-257416D01*
X68910Y-257415D01*
X68867Y-257308D01*
X68844Y-257017D01*
X68919Y-256763D01*
X68978Y-256643D01*
X69052Y-256532D01*
X69065Y-256466D01*
X69095Y-256406D01*
X69104Y-256273D01*
X69130Y-256142D01*
Y-172470D01*
X89792Y-151807D01*
X128347D01*
X128737Y-151729D01*
X129067Y-151508D01*
X141166Y-139410D01*
X141208Y-139346D01*
X141272Y-139304D01*
X141493Y-138973D01*
X141531Y-138784D01*
X143847Y-136468D01*
X143468Y-107254D01*
X143963Y-106918D01*
X144409Y-107102D01*
X145355D01*
X146229Y-106740D01*
X146898Y-106071D01*
X147260Y-105197D01*
Y-104251D01*
X146898Y-103377D01*
X146229Y-102708D01*
X145355Y-102347D01*
X144409D01*
X143907Y-102554D01*
X143402Y-102222D01*
X143312Y-95238D01*
X143663Y-94882D01*
X173228D01*
Y-155512D01*
D02*
G37*
G36*
X195321Y-392171D02*
X103543D01*
Y-389779D01*
X103946D01*
X104951Y-389510D01*
X105852Y-388990D01*
X106588Y-388254D01*
X107109Y-387352D01*
X107378Y-386347D01*
Y-385306D01*
X107109Y-384301D01*
X106588Y-383400D01*
X105852Y-382664D01*
X104951Y-382143D01*
X103946Y-381874D01*
X103543D01*
Y-379780D01*
X103946D01*
X104951Y-379510D01*
X105852Y-378990D01*
X106588Y-378254D01*
X107109Y-377352D01*
X107378Y-376347D01*
Y-375306D01*
X107109Y-374301D01*
X106588Y-373400D01*
X105852Y-372664D01*
X104951Y-372143D01*
X103946Y-371874D01*
X103543D01*
Y-232810D01*
X104043Y-232603D01*
X104559Y-233118D01*
X105432Y-233480D01*
X106378D01*
X107253Y-233118D01*
X107921Y-232449D01*
X108283Y-231575D01*
Y-230629D01*
X107921Y-229755D01*
X107253Y-229086D01*
X106378Y-228724D01*
X105432D01*
X104559Y-229086D01*
X104043Y-229602D01*
X103543Y-229395D01*
Y-206693D01*
X105512Y-204724D01*
X195321D01*
Y-392171D01*
D02*
G37*
G36*
X140551Y-97806D02*
X140237Y-98016D01*
X139291D01*
X138417Y-98378D01*
X137748Y-99047D01*
X137386Y-99921D01*
Y-100867D01*
X137748Y-101741D01*
X138417Y-102410D01*
X139291Y-102772D01*
X140237D01*
X140551Y-102982D01*
Y-118278D01*
X140237Y-118488D01*
X139291D01*
X138417Y-118850D01*
X137748Y-119519D01*
X137386Y-120393D01*
Y-121339D01*
X137748Y-122213D01*
X138417Y-122882D01*
X139291Y-123244D01*
X140237D01*
X140551Y-123454D01*
Y-138583D01*
X140413D01*
X140445Y-138689D01*
X128347Y-150787D01*
X89370D01*
X68110Y-172047D01*
Y-256142D01*
X67677Y-256392D01*
X67274Y-256159D01*
X66268Y-255890D01*
X65228D01*
X64222Y-256159D01*
X63321Y-256680D01*
X62585Y-257416D01*
X62065Y-258317D01*
X61795Y-259322D01*
Y-260363D01*
X62065Y-261368D01*
X62585Y-262270D01*
X63321Y-263005D01*
X64222Y-263526D01*
X65228Y-263795D01*
X66268D01*
X67274Y-263526D01*
X67677Y-263293D01*
X68110Y-263543D01*
Y-315197D01*
X67677Y-315447D01*
X67274Y-315214D01*
X66268Y-314945D01*
X65228D01*
X64222Y-315214D01*
X63321Y-315735D01*
X62585Y-316471D01*
X62065Y-317372D01*
X61795Y-318377D01*
Y-319418D01*
X62065Y-320423D01*
X62585Y-321325D01*
X63321Y-322061D01*
X64222Y-322581D01*
X65228Y-322850D01*
X66268D01*
X67274Y-322581D01*
X67677Y-322348D01*
X68110Y-322598D01*
Y-381496D01*
X48031D01*
Y-302727D01*
X48137Y-302570D01*
X48511Y-301665D01*
X48628Y-301080D01*
Y-300627D01*
X48633Y-300590D01*
X48628Y-300554D01*
Y-300101D01*
X48511Y-299516D01*
X48137Y-298611D01*
X48031Y-298454D01*
Y-258661D01*
X22441D01*
Y-251181D01*
X24409Y-249213D01*
X48031D01*
Y-165354D01*
X67716Y-145669D01*
X100787D01*
X104331Y-142126D01*
X108661D01*
X109843Y-140945D01*
Y-138583D01*
Y-113779D01*
X105905Y-109843D01*
X102756D01*
Y-97638D01*
X105118Y-95276D01*
X140551D01*
Y-97806D01*
D02*
G37*
%LPC*%
G36*
X168839Y-109295D02*
X167893D01*
X167019Y-109657D01*
X166350Y-110326D01*
X165988Y-111200D01*
Y-112146D01*
X166350Y-113020D01*
X167019Y-113689D01*
X167893Y-114051D01*
X168839D01*
X169713Y-113689D01*
X170382Y-113020D01*
X170744Y-112146D01*
Y-111200D01*
X170382Y-110326D01*
X169713Y-109657D01*
X168839Y-109295D01*
D02*
G37*
G36*
X155266Y-109364D02*
X154320D01*
X153446Y-109726D01*
X152777Y-110395D01*
X152415Y-111269D01*
Y-112215D01*
X152777Y-113089D01*
X153446Y-113758D01*
X154320Y-114120D01*
X155266D01*
X156140Y-113758D01*
X156809Y-113089D01*
X157171Y-112215D01*
Y-111269D01*
X156809Y-110395D01*
X156140Y-109726D01*
X155266Y-109364D01*
D02*
G37*
G36*
X169233Y-128587D02*
X168287D01*
X167413Y-128949D01*
X166744Y-129618D01*
X166382Y-130492D01*
Y-131438D01*
X166744Y-132312D01*
X167413Y-132981D01*
X168287Y-133343D01*
X169233D01*
X170107Y-132981D01*
X170776Y-132312D01*
X171138Y-131438D01*
Y-130492D01*
X170776Y-129618D01*
X170107Y-128949D01*
X169233Y-128587D01*
D02*
G37*
G36*
X154873Y-128656D02*
X153927D01*
X153053Y-129017D01*
X152384Y-129686D01*
X152022Y-130561D01*
Y-131507D01*
X152384Y-132380D01*
X153053Y-133049D01*
X153927Y-133411D01*
X154873D01*
X155747Y-133049D01*
X156415Y-132380D01*
X156778Y-131507D01*
Y-130561D01*
X156415Y-129686D01*
X155747Y-129017D01*
X154873Y-128656D01*
D02*
G37*
G36*
X147323Y-148016D02*
X146377D01*
X145503Y-148378D01*
X145020Y-148861D01*
D01*
X144834Y-149047D01*
X144472Y-149921D01*
Y-150867D01*
X144536Y-151021D01*
X144834Y-151741D01*
X145503Y-152410D01*
X146377Y-152772D01*
X147323D01*
X148197Y-152410D01*
X148866Y-151741D01*
X149228Y-150867D01*
Y-149921D01*
X148866Y-149047D01*
X148197Y-148378D01*
X147323Y-148016D01*
D02*
G37*
G36*
X137875Y-148409D02*
X136929D01*
X136055Y-148772D01*
X135386Y-149440D01*
X135024Y-150314D01*
Y-151260D01*
X135386Y-152134D01*
X136055Y-152803D01*
X136929Y-153165D01*
X137875D01*
X138749Y-152803D01*
X139418Y-152134D01*
X139779Y-151260D01*
Y-150314D01*
X139418Y-149440D01*
X138749Y-148772D01*
X137875Y-148409D01*
D02*
G37*
G36*
X85119Y-203528D02*
X84173D01*
X83299Y-203890D01*
X82630Y-204558D01*
X82268Y-205433D01*
Y-206379D01*
X82630Y-207253D01*
X83299Y-207921D01*
X84173Y-208283D01*
X85119D01*
X85993Y-207921D01*
X86662Y-207253D01*
X87024Y-206379D01*
Y-205433D01*
X86662Y-204558D01*
X85993Y-203890D01*
X85119Y-203528D01*
D02*
G37*
G36*
X135119Y-229512D02*
X134173D01*
X133299Y-229874D01*
X132630Y-230543D01*
X132268Y-231417D01*
Y-232363D01*
X132630Y-233237D01*
X133299Y-233906D01*
X134173Y-234268D01*
X135119D01*
X135993Y-233906D01*
X136662Y-233237D01*
X137024Y-232363D01*
Y-231417D01*
X136662Y-230543D01*
X135993Y-229874D01*
X135119Y-229512D01*
D02*
G37*
G36*
X127638D02*
X126692D01*
X125818Y-229874D01*
X125149Y-230543D01*
X124787Y-231417D01*
Y-232363D01*
X125149Y-233237D01*
X125818Y-233906D01*
X126692Y-234268D01*
X127638D01*
X128512Y-233906D01*
X129181Y-233237D01*
X129543Y-232363D01*
Y-231417D01*
X129181Y-230543D01*
X128512Y-229874D01*
X127638Y-229512D01*
D02*
G37*
G36*
X163071Y-230693D02*
X162125D01*
X161251Y-231055D01*
X160582Y-231724D01*
X160221Y-232598D01*
Y-233544D01*
X160582Y-234418D01*
X161251Y-235087D01*
X162125Y-235449D01*
X163071D01*
X163945Y-235087D01*
X164614Y-234418D01*
X164976Y-233544D01*
Y-232598D01*
X164614Y-231724D01*
X163945Y-231055D01*
X163071Y-230693D01*
D02*
G37*
G36*
X156378D02*
X155432D01*
X154559Y-231055D01*
X153890Y-231724D01*
X153528Y-232598D01*
Y-233544D01*
X153890Y-234418D01*
X154559Y-235087D01*
X155432Y-235449D01*
X156378D01*
X157253Y-235087D01*
X157921Y-234418D01*
X158283Y-233544D01*
Y-232598D01*
X157921Y-231724D01*
X157253Y-231055D01*
X156378Y-230693D01*
D02*
G37*
G36*
X185119Y-231480D02*
X184173D01*
X183299Y-231842D01*
X182630Y-232511D01*
X182268Y-233385D01*
Y-234331D01*
X182630Y-235205D01*
X183299Y-235874D01*
X184173Y-236236D01*
X185119D01*
X185993Y-235874D01*
X186662Y-235205D01*
X187024Y-234331D01*
Y-233385D01*
X186662Y-232511D01*
X185993Y-231842D01*
X185119Y-231480D01*
D02*
G37*
G36*
X167402Y-238961D02*
X166456D01*
X165582Y-239323D01*
X164913Y-239992D01*
X164551Y-240866D01*
Y-241812D01*
X164913Y-242686D01*
X165582Y-243355D01*
X166456Y-243717D01*
X167402D01*
X168276Y-243355D01*
X168945Y-242686D01*
X169307Y-241812D01*
Y-240866D01*
X168945Y-239992D01*
X168276Y-239323D01*
X167402Y-238961D01*
D02*
G37*
G36*
X186300Y-243685D02*
X185354D01*
X184480Y-244047D01*
X183811Y-244716D01*
X183449Y-245590D01*
Y-246536D01*
X183811Y-247410D01*
X184480Y-248079D01*
X185354Y-248441D01*
X186300D01*
X187174Y-248079D01*
X187843Y-247410D01*
X188205Y-246536D01*
Y-245590D01*
X187843Y-244716D01*
X187174Y-244047D01*
X186300Y-243685D01*
D02*
G37*
G36*
X182756Y-256677D02*
X181810D01*
X180937Y-257039D01*
X180268Y-257708D01*
X179905Y-258582D01*
Y-259528D01*
X180268Y-260402D01*
X180937Y-261071D01*
X181810Y-261433D01*
X182756D01*
X183631Y-261071D01*
X184299Y-260402D01*
X184661Y-259528D01*
Y-258582D01*
X184299Y-257708D01*
X183631Y-257039D01*
X182756Y-256677D01*
D02*
G37*
G36*
X168977D02*
X168031D01*
X167157Y-257039D01*
X166488Y-257708D01*
X166126Y-258582D01*
Y-259528D01*
X166488Y-260402D01*
X167157Y-261071D01*
X168031Y-261433D01*
X168977D01*
X169851Y-261071D01*
X170520Y-260402D01*
X170882Y-259528D01*
Y-258582D01*
X170520Y-257708D01*
X169851Y-257039D01*
X168977Y-256677D01*
D02*
G37*
G36*
X175517Y-261213D02*
X174571D01*
X173697Y-261575D01*
X173028Y-262244D01*
X172666Y-263118D01*
Y-264064D01*
X173028Y-264937D01*
X173697Y-265606D01*
X174571Y-265968D01*
X175517D01*
X176391Y-265606D01*
X177060Y-264937D01*
X177422Y-264064D01*
Y-263118D01*
X177060Y-262244D01*
X176391Y-261575D01*
X175517Y-261213D01*
D02*
G37*
G36*
X182756Y-264945D02*
X181810D01*
X180937Y-265307D01*
X180268Y-265976D01*
X179905Y-266850D01*
Y-267796D01*
X180268Y-268670D01*
X180937Y-269339D01*
X181810Y-269701D01*
X182756D01*
X183631Y-269339D01*
X184299Y-268670D01*
X184661Y-267796D01*
Y-266850D01*
X184299Y-265976D01*
X183631Y-265307D01*
X182756Y-264945D01*
D02*
G37*
G36*
X169371D02*
X168425D01*
X167551Y-265307D01*
X166882Y-265976D01*
X166520Y-266850D01*
Y-267796D01*
X166882Y-268670D01*
X167551Y-269339D01*
X168425Y-269701D01*
X169371D01*
X170245Y-269339D01*
X170914Y-268670D01*
X171276Y-267796D01*
Y-266850D01*
X170914Y-265976D01*
X170245Y-265307D01*
X169371Y-264945D01*
D02*
G37*
G36*
X159528Y-276362D02*
X158582D01*
X157708Y-276724D01*
X157039Y-277393D01*
X156677Y-278267D01*
Y-279213D01*
X157039Y-280087D01*
X157708Y-280756D01*
X158582Y-281118D01*
X159528D01*
X160402Y-280756D01*
X161071Y-280087D01*
X161433Y-279213D01*
Y-278267D01*
X161071Y-277393D01*
X160402Y-276724D01*
X159528Y-276362D01*
D02*
G37*
G36*
X186300Y-279118D02*
X185354D01*
X184480Y-279480D01*
X183811Y-280149D01*
X183449Y-281023D01*
Y-281969D01*
X183811Y-282843D01*
X184480Y-283512D01*
X185354Y-283874D01*
X186300D01*
X187174Y-283512D01*
X187843Y-282843D01*
X188205Y-281969D01*
Y-281023D01*
X187843Y-280149D01*
X187174Y-279480D01*
X186300Y-279118D01*
D02*
G37*
G36*
X155985Y-284630D02*
X155039D01*
X154165Y-284992D01*
X153496Y-285661D01*
X153134Y-286535D01*
Y-287481D01*
X153496Y-288355D01*
X154165Y-289024D01*
X155039Y-289386D01*
X155985D01*
X156859Y-289024D01*
X157528Y-288355D01*
X157890Y-287481D01*
Y-286535D01*
X157528Y-285661D01*
X156859Y-284992D01*
X155985Y-284630D01*
D02*
G37*
G36*
X161103Y-292898D02*
X160157D01*
X159283Y-293260D01*
X158614Y-293929D01*
X158252Y-294803D01*
Y-295749D01*
X158614Y-296623D01*
X159283Y-297291D01*
X160157Y-297654D01*
X161103D01*
X161977Y-297291D01*
X162646Y-296623D01*
X163008Y-295749D01*
Y-294803D01*
X162646Y-293929D01*
X161977Y-293260D01*
X161103Y-292898D01*
D02*
G37*
G36*
X173946Y-371874D02*
X172905D01*
X171899Y-372143D01*
X170998Y-372664D01*
X170262Y-373400D01*
X169742Y-374301D01*
X169473Y-375306D01*
Y-376347D01*
X169742Y-377352D01*
X170262Y-378254D01*
X170998Y-378990D01*
X171899Y-379510D01*
X172905Y-379780D01*
X173946D01*
X174951Y-379510D01*
X175852Y-378990D01*
X176588Y-378254D01*
X177109Y-377352D01*
X177378Y-376347D01*
Y-375306D01*
X177109Y-374301D01*
X176588Y-373400D01*
X175852Y-372664D01*
X174951Y-372143D01*
X173946Y-371874D01*
D02*
G37*
G36*
X163946D02*
X162905D01*
X161899Y-372143D01*
X160998Y-372664D01*
X160262Y-373400D01*
X159742Y-374301D01*
X159473Y-375306D01*
Y-376347D01*
X159742Y-377352D01*
X160262Y-378254D01*
X160998Y-378990D01*
X161899Y-379510D01*
X162905Y-379780D01*
X163946D01*
X164951Y-379510D01*
X165852Y-378990D01*
X166588Y-378254D01*
X167109Y-377352D01*
X167378Y-376347D01*
Y-375306D01*
X167109Y-374301D01*
X166588Y-373400D01*
X165852Y-372664D01*
X164951Y-372143D01*
X163946Y-371874D01*
D02*
G37*
G36*
X153946D02*
X152905D01*
X151900Y-372143D01*
X150998Y-372664D01*
X150262Y-373400D01*
X149742Y-374301D01*
X149472Y-375306D01*
Y-376347D01*
X149742Y-377352D01*
X150262Y-378254D01*
X150998Y-378990D01*
X151900Y-379510D01*
X152905Y-379780D01*
X153946D01*
X154951Y-379510D01*
X155852Y-378990D01*
X156588Y-378254D01*
X157109Y-377352D01*
X157378Y-376347D01*
Y-375306D01*
X157109Y-374301D01*
X156588Y-373400D01*
X155852Y-372664D01*
X154951Y-372143D01*
X153946Y-371874D01*
D02*
G37*
G36*
X143946D02*
X142905D01*
X141900Y-372143D01*
X140998Y-372664D01*
X140262Y-373400D01*
X139742Y-374301D01*
X139472Y-375306D01*
Y-376347D01*
X139742Y-377352D01*
X140262Y-378254D01*
X140998Y-378990D01*
X141900Y-379510D01*
X142905Y-379780D01*
X143946D01*
X144951Y-379510D01*
X145852Y-378990D01*
X146588Y-378254D01*
X147109Y-377352D01*
X147378Y-376347D01*
Y-375306D01*
X147109Y-374301D01*
X146588Y-373400D01*
X145852Y-372664D01*
X144951Y-372143D01*
X143946Y-371874D01*
D02*
G37*
G36*
X133946D02*
X132905D01*
X131899Y-372143D01*
X130998Y-372664D01*
X130262Y-373400D01*
X129742Y-374301D01*
X129472Y-375306D01*
Y-376347D01*
X129742Y-377352D01*
X130262Y-378254D01*
X130998Y-378990D01*
X131899Y-379510D01*
X132905Y-379780D01*
X133946D01*
X134951Y-379510D01*
X135852Y-378990D01*
X136588Y-378254D01*
X137109Y-377352D01*
X137378Y-376347D01*
Y-375306D01*
X137109Y-374301D01*
X136588Y-373400D01*
X135852Y-372664D01*
X134951Y-372143D01*
X133946Y-371874D01*
D02*
G37*
G36*
X123946D02*
X122905D01*
X121899Y-372143D01*
X120998Y-372664D01*
X120262Y-373400D01*
X119742Y-374301D01*
X119473Y-375306D01*
Y-376347D01*
X119742Y-377352D01*
X120262Y-378254D01*
X120998Y-378990D01*
X121899Y-379510D01*
X122905Y-379780D01*
X123946D01*
X124951Y-379510D01*
X125852Y-378990D01*
X126588Y-378254D01*
X127109Y-377352D01*
X127378Y-376347D01*
Y-375306D01*
X127109Y-374301D01*
X126588Y-373400D01*
X125852Y-372664D01*
X124951Y-372143D01*
X123946Y-371874D01*
D02*
G37*
G36*
X113946D02*
X112905D01*
X111899Y-372143D01*
X110998Y-372664D01*
X110262Y-373400D01*
X109742Y-374301D01*
X109473Y-375306D01*
Y-376347D01*
X109742Y-377352D01*
X110262Y-378254D01*
X110998Y-378990D01*
X111899Y-379510D01*
X112905Y-379780D01*
X113946D01*
X114951Y-379510D01*
X115852Y-378990D01*
X116588Y-378254D01*
X117109Y-377352D01*
X117378Y-376347D01*
Y-375306D01*
X117109Y-374301D01*
X116588Y-373400D01*
X115852Y-372664D01*
X114951Y-372143D01*
X113946Y-371874D01*
D02*
G37*
G36*
X187378Y-381874D02*
X179472D01*
Y-389779D01*
X187378D01*
Y-381874D01*
D02*
G37*
G36*
X173946D02*
X172905D01*
X171899Y-382143D01*
X170998Y-382664D01*
X170262Y-383400D01*
X169742Y-384301D01*
X169473Y-385306D01*
Y-386347D01*
X169742Y-387352D01*
X170262Y-388254D01*
X170998Y-388990D01*
X171899Y-389510D01*
X172905Y-389779D01*
X173946D01*
X174951Y-389510D01*
X175852Y-388990D01*
X176588Y-388254D01*
X177109Y-387352D01*
X177378Y-386347D01*
Y-385306D01*
X177109Y-384301D01*
X176588Y-383400D01*
X175852Y-382664D01*
X174951Y-382143D01*
X173946Y-381874D01*
D02*
G37*
G36*
X163946D02*
X162905D01*
X161899Y-382143D01*
X160998Y-382664D01*
X160262Y-383400D01*
X159742Y-384301D01*
X159473Y-385306D01*
Y-386347D01*
X159742Y-387352D01*
X160262Y-388254D01*
X160998Y-388990D01*
X161899Y-389510D01*
X162905Y-389779D01*
X163946D01*
X164951Y-389510D01*
X165852Y-388990D01*
X166588Y-388254D01*
X167109Y-387352D01*
X167378Y-386347D01*
Y-385306D01*
X167109Y-384301D01*
X166588Y-383400D01*
X165852Y-382664D01*
X164951Y-382143D01*
X163946Y-381874D01*
D02*
G37*
G36*
X153946D02*
X152905D01*
X151900Y-382143D01*
X150998Y-382664D01*
X150262Y-383400D01*
X149742Y-384301D01*
X149472Y-385306D01*
Y-386347D01*
X149742Y-387352D01*
X150262Y-388254D01*
X150998Y-388990D01*
X151900Y-389510D01*
X152905Y-389779D01*
X153946D01*
X154951Y-389510D01*
X155852Y-388990D01*
X156588Y-388254D01*
X157109Y-387352D01*
X157378Y-386347D01*
Y-385306D01*
X157109Y-384301D01*
X156588Y-383400D01*
X155852Y-382664D01*
X154951Y-382143D01*
X153946Y-381874D01*
D02*
G37*
G36*
X143946D02*
X142905D01*
X141900Y-382143D01*
X140998Y-382664D01*
X140262Y-383400D01*
X139742Y-384301D01*
X139472Y-385306D01*
Y-386347D01*
X139742Y-387352D01*
X140262Y-388254D01*
X140998Y-388990D01*
X141900Y-389510D01*
X142905Y-389779D01*
X143946D01*
X144951Y-389510D01*
X145852Y-388990D01*
X146588Y-388254D01*
X147109Y-387352D01*
X147378Y-386347D01*
Y-385306D01*
X147109Y-384301D01*
X146588Y-383400D01*
X145852Y-382664D01*
X144951Y-382143D01*
X143946Y-381874D01*
D02*
G37*
G36*
X133946D02*
X132905D01*
X131899Y-382143D01*
X130998Y-382664D01*
X130262Y-383400D01*
X129742Y-384301D01*
X129472Y-385306D01*
Y-386347D01*
X129742Y-387352D01*
X130262Y-388254D01*
X130998Y-388990D01*
X131899Y-389510D01*
X132905Y-389779D01*
X133946D01*
X134951Y-389510D01*
X135852Y-388990D01*
X136588Y-388254D01*
X137109Y-387352D01*
X137378Y-386347D01*
Y-385306D01*
X137109Y-384301D01*
X136588Y-383400D01*
X135852Y-382664D01*
X134951Y-382143D01*
X133946Y-381874D01*
D02*
G37*
G36*
X123946D02*
X122905D01*
X121899Y-382143D01*
X120998Y-382664D01*
X120262Y-383400D01*
X119742Y-384301D01*
X119473Y-385306D01*
Y-386347D01*
X119742Y-387352D01*
X120262Y-388254D01*
X120998Y-388990D01*
X121899Y-389510D01*
X122905Y-389779D01*
X123946D01*
X124951Y-389510D01*
X125852Y-388990D01*
X126588Y-388254D01*
X127109Y-387352D01*
X127378Y-386347D01*
Y-385306D01*
X127109Y-384301D01*
X126588Y-383400D01*
X125852Y-382664D01*
X124951Y-382143D01*
X123946Y-381874D01*
D02*
G37*
G36*
X113946D02*
X112905D01*
X111899Y-382143D01*
X110998Y-382664D01*
X110262Y-383400D01*
X109742Y-384301D01*
X109473Y-385306D01*
Y-386347D01*
X109742Y-387352D01*
X110262Y-388254D01*
X110998Y-388990D01*
X111899Y-389510D01*
X112905Y-389779D01*
X113946D01*
X114951Y-389510D01*
X115852Y-388990D01*
X116588Y-388254D01*
X117109Y-387352D01*
X117378Y-386347D01*
Y-385306D01*
X117109Y-384301D01*
X116588Y-383400D01*
X115852Y-382664D01*
X114951Y-382143D01*
X113946Y-381874D01*
D02*
G37*
G36*
X130001Y-109827D02*
X129055D01*
X128181Y-110189D01*
X127512Y-110858D01*
X127150Y-111732D01*
Y-112678D01*
X127512Y-113552D01*
X128181Y-114221D01*
X129055Y-114583D01*
X130001D01*
X130875Y-114221D01*
X131544Y-113552D01*
X131905Y-112678D01*
Y-111732D01*
X131544Y-110858D01*
X130875Y-110189D01*
X130001Y-109827D01*
D02*
G37*
G36*
X116615Y-109968D02*
X115669D01*
X114795Y-110330D01*
X114126Y-111000D01*
X113764Y-111873D01*
Y-112820D01*
X114126Y-113693D01*
X114795Y-114362D01*
X115669Y-114724D01*
X116615D01*
X117489Y-114362D01*
X118158Y-113693D01*
X118520Y-112820D01*
Y-111873D01*
X118158Y-111000D01*
X117489Y-110330D01*
X116615Y-109968D01*
D02*
G37*
G36*
X130788Y-127150D02*
X129842D01*
X128968Y-127512D01*
X128299Y-128181D01*
X127937Y-129055D01*
Y-130001D01*
X128299Y-130875D01*
X128968Y-131544D01*
X129842Y-131905D01*
X130788D01*
X131662Y-131544D01*
X132331Y-130875D01*
X132693Y-130001D01*
Y-129055D01*
X132331Y-128181D01*
X131662Y-127512D01*
X130788Y-127150D01*
D02*
G37*
G36*
X114646Y-132268D02*
X113700D01*
X112826Y-132630D01*
X112157Y-133299D01*
X111795Y-134173D01*
Y-135119D01*
X112157Y-135993D01*
X112826Y-136662D01*
X113700Y-137024D01*
X114646D01*
X115520Y-136662D01*
X116189Y-135993D01*
X116551Y-135119D01*
Y-134173D01*
X116189Y-133299D01*
X115520Y-132630D01*
X114646Y-132268D01*
D02*
G37*
G36*
X134725Y-132268D02*
X133779D01*
X132905Y-132630D01*
X132236Y-133299D01*
X131874Y-134173D01*
Y-135119D01*
X132236Y-135993D01*
X132905Y-136662D01*
X133779Y-137024D01*
X134725D01*
X135599Y-136662D01*
X136268Y-135993D01*
X136630Y-135119D01*
Y-134173D01*
X136268Y-133299D01*
X135599Y-132630D01*
X134725Y-132268D01*
D02*
G37*
G36*
X121025Y-132581D02*
X120079D01*
X119205Y-132943D01*
X118536Y-133612D01*
X118175Y-134486D01*
Y-135432D01*
X118536Y-136306D01*
X119205Y-136975D01*
X120079Y-137337D01*
X121025D01*
X121899Y-136975D01*
X122568Y-136306D01*
X122930Y-135432D01*
Y-134486D01*
X122568Y-133612D01*
X121899Y-132943D01*
X121025Y-132581D01*
D02*
G37*
G36*
X114252Y-145260D02*
X113306D01*
X112433Y-145622D01*
X111764Y-146291D01*
X111402Y-147165D01*
Y-148111D01*
X111764Y-148985D01*
X112433Y-149654D01*
X113306Y-150016D01*
X114252D01*
X115127Y-149654D01*
X115796Y-148985D01*
X116157Y-148111D01*
Y-147165D01*
X115796Y-146291D01*
X115127Y-145622D01*
X114252Y-145260D01*
D02*
G37*
G36*
X31575Y-253134D02*
X30629D01*
X29755Y-253496D01*
X29086Y-254165D01*
X28724Y-255039D01*
Y-255985D01*
X29086Y-256859D01*
X29755Y-257528D01*
X30629Y-257890D01*
X31575D01*
X32449Y-257528D01*
X33118Y-256859D01*
X33480Y-255985D01*
Y-255039D01*
X33118Y-254165D01*
X32449Y-253496D01*
X31575Y-253134D01*
D02*
G37*
%LPD*%
D37*
X11024Y-185433D02*
X85039Y-111417D01*
X102362Y-85433D02*
X141356D01*
X145884Y-80905D01*
X85039Y-102756D02*
X102362Y-85433D01*
X85039Y-111417D02*
Y-102756D01*
X89764Y-106299D02*
X105905Y-90158D01*
X162315D01*
X89764Y-113386D02*
Y-106299D01*
X18110Y-185039D02*
X89764Y-113386D01*
X162315Y-90158D02*
X171075Y-81398D01*
X7480Y-322441D02*
X13425Y-328386D01*
X11024Y-217717D02*
Y-185433D01*
X5906Y-311039D02*
Y-222835D01*
X11024Y-217717D01*
X5906Y-311039D02*
X7480Y-312614D01*
Y-322441D02*
Y-312614D01*
X13425Y-375827D02*
Y-328386D01*
X11311Y-271264D02*
Y-260736D01*
X18110Y-253937D02*
Y-185039D01*
X11311Y-260736D02*
X18110Y-253937D01*
X11311Y-271264D02*
X16035Y-275989D01*
Y-321337D02*
X23425Y-328727D01*
X16035Y-321337D02*
Y-275989D01*
X171075Y-81398D02*
X179349D01*
X23425Y-375827D02*
Y-328727D01*
D56*
X183425Y-375827D02*
D03*
X83425D02*
D03*
X73425D02*
D03*
X63425D02*
D03*
X53425D02*
D03*
X23425D02*
D03*
X13425D02*
D03*
D58*
X153807Y-209681D02*
D03*
X133807D02*
D03*
X164807D02*
D03*
X184807D02*
D03*
X102807D02*
D03*
X122807D02*
D03*
D61*
X173622Y-234646D02*
D03*
X72835Y-251575D02*
D03*
X24016Y-255906D02*
D03*
X116535Y-107480D02*
D03*
X123228Y-121260D02*
D03*
X159012Y-121653D02*
D03*
X159055Y-101969D02*
D03*
X141651Y-58147D02*
D03*
X145276Y-60236D02*
D03*
X160356Y-51768D02*
D03*
X156856D02*
D03*
X153356D02*
D03*
X149356D02*
D03*
X145356D02*
D03*
X163356Y-60768D02*
D03*
X164356Y-51768D02*
D03*
X177856Y-56268D02*
D03*
X177356Y-60268D02*
D03*
X175856Y-52768D02*
D03*
X171856Y-51768D02*
D03*
X167856D02*
D03*
D62*
X145884Y-80905D02*
D03*
X179349Y-81398D02*
D03*
M02*
