G04*
G04 #@! TF.GenerationSoftware,Altium Limited,Altium Designer,22.4.2 (48)*
G04*
G04 Layer_Physical_Order=2*
G04 Layer_Color=36540*
%FSLAX25Y25*%
%MOIN*%
G70*
G04*
G04 #@! TF.SameCoordinates,E5745D08-F9CE-4C29-B98A-B9AF3F0705EB*
G04*
G04*
G04 #@! TF.FilePolarity,Positive*
G04*
G01*
G75*
%ADD56C,0.05906*%
%ADD57C,0.05512*%
%ADD59C,0.07874*%
%ADD60R,0.05906X0.05906*%
%ADD61C,0.02756*%
G36*
X195321Y-392171D02*
X103543D01*
Y-379780D01*
X103946D01*
X104951Y-379510D01*
X105852Y-378990D01*
X106588Y-378254D01*
X107109Y-377352D01*
X107378Y-376347D01*
Y-375306D01*
X107109Y-374301D01*
X106588Y-373400D01*
X105852Y-372664D01*
X104951Y-372143D01*
X103946Y-371874D01*
X103543D01*
Y-214391D01*
X104637Y-214098D01*
X105718Y-213474D01*
X106600Y-212592D01*
X107224Y-211511D01*
X107547Y-210305D01*
Y-209057D01*
X107224Y-207852D01*
X106600Y-206771D01*
X105718Y-205888D01*
X105205Y-205592D01*
X105140Y-205096D01*
X105512Y-204724D01*
X121059D01*
X121125Y-205224D01*
X120977Y-205264D01*
X119897Y-205888D01*
X119014Y-206771D01*
X118390Y-207852D01*
X118067Y-209057D01*
Y-210305D01*
X118390Y-211511D01*
X119014Y-212592D01*
X119897Y-213474D01*
X120977Y-214098D01*
X122183Y-214421D01*
X123431D01*
X124637Y-214098D01*
X125718Y-213474D01*
X126600Y-212592D01*
X127224Y-211511D01*
X127547Y-210305D01*
Y-209057D01*
X127224Y-207852D01*
X126600Y-206771D01*
X125718Y-205888D01*
X124637Y-205264D01*
X124489Y-205224D01*
X124555Y-204724D01*
X132059D01*
X132125Y-205224D01*
X131977Y-205264D01*
X130897Y-205888D01*
X130014Y-206771D01*
X129390Y-207852D01*
X129067Y-209057D01*
Y-210305D01*
X129390Y-211511D01*
X130014Y-212592D01*
X130897Y-213474D01*
X131977Y-214098D01*
X133183Y-214421D01*
X134431D01*
X135637Y-214098D01*
X136718Y-213474D01*
X137600Y-212592D01*
X138224Y-211511D01*
X138547Y-210305D01*
Y-209057D01*
X138224Y-207852D01*
X137600Y-206771D01*
X136718Y-205888D01*
X135637Y-205264D01*
X135489Y-205224D01*
X135555Y-204724D01*
X152059D01*
X152125Y-205224D01*
X151978Y-205264D01*
X150897Y-205888D01*
X150014Y-206771D01*
X149390Y-207852D01*
X149067Y-209057D01*
Y-210305D01*
X149390Y-211511D01*
X150014Y-212592D01*
X150897Y-213474D01*
X151978Y-214098D01*
X153183Y-214421D01*
X154431D01*
X155637Y-214098D01*
X156718Y-213474D01*
X157600Y-212592D01*
X158224Y-211511D01*
X158547Y-210305D01*
Y-209057D01*
X158224Y-207852D01*
X157600Y-206771D01*
X156718Y-205888D01*
X155637Y-205264D01*
X155489Y-205224D01*
X155555Y-204724D01*
X163059D01*
X163125Y-205224D01*
X162978Y-205264D01*
X161897Y-205888D01*
X161014Y-206771D01*
X160390Y-207852D01*
X160067Y-209057D01*
Y-210305D01*
X160390Y-211511D01*
X161014Y-212592D01*
X161897Y-213474D01*
X162978Y-214098D01*
X164183Y-214421D01*
X165431D01*
X166637Y-214098D01*
X167718Y-213474D01*
X168600Y-212592D01*
X169224Y-211511D01*
X169547Y-210305D01*
Y-209057D01*
X169224Y-207852D01*
X168600Y-206771D01*
X167718Y-205888D01*
X166637Y-205264D01*
X166489Y-205224D01*
X166555Y-204724D01*
X183059D01*
X183125Y-205224D01*
X182977Y-205264D01*
X181897Y-205888D01*
X181014Y-206771D01*
X180390Y-207852D01*
X180067Y-209057D01*
Y-210305D01*
X180390Y-211511D01*
X181014Y-212592D01*
X181897Y-213474D01*
X182977Y-214098D01*
X184183Y-214421D01*
X185431D01*
X186637Y-214098D01*
X187718Y-213474D01*
X188600Y-212592D01*
X189224Y-211511D01*
X189547Y-210305D01*
Y-209057D01*
X189224Y-207852D01*
X188600Y-206771D01*
X187718Y-205888D01*
X186637Y-205264D01*
X186489Y-205224D01*
X186555Y-204724D01*
X195321D01*
Y-392171D01*
D02*
G37*
G36*
Y-196063D02*
Y-196850D01*
X100787D01*
X98425Y-199213D01*
Y-207790D01*
X98390Y-207852D01*
X98067Y-209057D01*
Y-210305D01*
X98390Y-211511D01*
X98425Y-211572D01*
Y-223110D01*
X97212D01*
X95957Y-223447D01*
X94831Y-224097D01*
X93912Y-225016D01*
X93262Y-226142D01*
X92925Y-227397D01*
Y-228697D01*
X93262Y-229953D01*
X93912Y-231079D01*
X94831Y-231998D01*
X95957Y-232648D01*
X97212Y-232984D01*
X98425D01*
Y-392171D01*
X1529D01*
Y-311000D01*
Y-5000D01*
Y-1529D01*
X195321D01*
Y-196063D01*
D02*
G37*
%LPC*%
G36*
X174095Y-232268D02*
X173149D01*
X172275Y-232630D01*
X171606Y-233299D01*
X171244Y-234173D01*
Y-235119D01*
X171606Y-235993D01*
X172275Y-236662D01*
X173149Y-237024D01*
X174095D01*
X174969Y-236662D01*
X175638Y-235993D01*
X176000Y-235119D01*
Y-234173D01*
X175638Y-233299D01*
X174969Y-232630D01*
X174095Y-232268D01*
D02*
G37*
G36*
X183946Y-371874D02*
X182905D01*
X181899Y-372143D01*
X180998Y-372664D01*
X180262Y-373400D01*
X179742Y-374301D01*
X179472Y-375306D01*
Y-376347D01*
X179742Y-377352D01*
X180262Y-378254D01*
X180998Y-378990D01*
X181899Y-379510D01*
X182905Y-379780D01*
X183946D01*
X184951Y-379510D01*
X185852Y-378990D01*
X186588Y-378254D01*
X187109Y-377352D01*
X187378Y-376347D01*
Y-375306D01*
X187109Y-374301D01*
X186588Y-373400D01*
X185852Y-372664D01*
X184951Y-372143D01*
X183946Y-371874D01*
D02*
G37*
G36*
X173946D02*
X172905D01*
X171899Y-372143D01*
X170998Y-372664D01*
X170262Y-373400D01*
X169742Y-374301D01*
X169473Y-375306D01*
Y-376347D01*
X169742Y-377352D01*
X170262Y-378254D01*
X170998Y-378990D01*
X171899Y-379510D01*
X172905Y-379780D01*
X173946D01*
X174951Y-379510D01*
X175852Y-378990D01*
X176588Y-378254D01*
X177109Y-377352D01*
X177378Y-376347D01*
Y-375306D01*
X177109Y-374301D01*
X176588Y-373400D01*
X175852Y-372664D01*
X174951Y-372143D01*
X173946Y-371874D01*
D02*
G37*
G36*
X163946D02*
X162905D01*
X161899Y-372143D01*
X160998Y-372664D01*
X160262Y-373400D01*
X159742Y-374301D01*
X159473Y-375306D01*
Y-376347D01*
X159742Y-377352D01*
X160262Y-378254D01*
X160998Y-378990D01*
X161899Y-379510D01*
X162905Y-379780D01*
X163946D01*
X164951Y-379510D01*
X165852Y-378990D01*
X166588Y-378254D01*
X167109Y-377352D01*
X167378Y-376347D01*
Y-375306D01*
X167109Y-374301D01*
X166588Y-373400D01*
X165852Y-372664D01*
X164951Y-372143D01*
X163946Y-371874D01*
D02*
G37*
G36*
X153946D02*
X152905D01*
X151900Y-372143D01*
X150998Y-372664D01*
X150262Y-373400D01*
X149742Y-374301D01*
X149472Y-375306D01*
Y-376347D01*
X149742Y-377352D01*
X150262Y-378254D01*
X150998Y-378990D01*
X151900Y-379510D01*
X152905Y-379780D01*
X153946D01*
X154951Y-379510D01*
X155852Y-378990D01*
X156588Y-378254D01*
X157109Y-377352D01*
X157378Y-376347D01*
Y-375306D01*
X157109Y-374301D01*
X156588Y-373400D01*
X155852Y-372664D01*
X154951Y-372143D01*
X153946Y-371874D01*
D02*
G37*
G36*
X143946D02*
X142905D01*
X141900Y-372143D01*
X140998Y-372664D01*
X140262Y-373400D01*
X139742Y-374301D01*
X139472Y-375306D01*
Y-376347D01*
X139742Y-377352D01*
X140262Y-378254D01*
X140998Y-378990D01*
X141900Y-379510D01*
X142905Y-379780D01*
X143946D01*
X144951Y-379510D01*
X145852Y-378990D01*
X146588Y-378254D01*
X147109Y-377352D01*
X147378Y-376347D01*
Y-375306D01*
X147109Y-374301D01*
X146588Y-373400D01*
X145852Y-372664D01*
X144951Y-372143D01*
X143946Y-371874D01*
D02*
G37*
G36*
X133946D02*
X132905D01*
X131899Y-372143D01*
X130998Y-372664D01*
X130262Y-373400D01*
X129742Y-374301D01*
X129472Y-375306D01*
Y-376347D01*
X129742Y-377352D01*
X130262Y-378254D01*
X130998Y-378990D01*
X131899Y-379510D01*
X132905Y-379780D01*
X133946D01*
X134951Y-379510D01*
X135852Y-378990D01*
X136588Y-378254D01*
X137109Y-377352D01*
X137378Y-376347D01*
Y-375306D01*
X137109Y-374301D01*
X136588Y-373400D01*
X135852Y-372664D01*
X134951Y-372143D01*
X133946Y-371874D01*
D02*
G37*
G36*
X123946D02*
X122905D01*
X121899Y-372143D01*
X120998Y-372664D01*
X120262Y-373400D01*
X119742Y-374301D01*
X119473Y-375306D01*
Y-376347D01*
X119742Y-377352D01*
X120262Y-378254D01*
X120998Y-378990D01*
X121899Y-379510D01*
X122905Y-379780D01*
X123946D01*
X124951Y-379510D01*
X125852Y-378990D01*
X126588Y-378254D01*
X127109Y-377352D01*
X127378Y-376347D01*
Y-375306D01*
X127109Y-374301D01*
X126588Y-373400D01*
X125852Y-372664D01*
X124951Y-372143D01*
X123946Y-371874D01*
D02*
G37*
G36*
X113946D02*
X112905D01*
X111899Y-372143D01*
X110998Y-372664D01*
X110262Y-373400D01*
X109742Y-374301D01*
X109473Y-375306D01*
Y-376347D01*
X109742Y-377352D01*
X110262Y-378254D01*
X110998Y-378990D01*
X111899Y-379510D01*
X112905Y-379780D01*
X113946D01*
X114951Y-379510D01*
X115852Y-378990D01*
X116588Y-378254D01*
X117109Y-377352D01*
X117378Y-376347D01*
Y-375306D01*
X117109Y-374301D01*
X116588Y-373400D01*
X115852Y-372664D01*
X114951Y-372143D01*
X113946Y-371874D01*
D02*
G37*
G36*
X183946Y-3921D02*
X182905D01*
X181899Y-4191D01*
X180998Y-4711D01*
X180262Y-5447D01*
X179742Y-6348D01*
X179472Y-7354D01*
Y-8394D01*
X179742Y-9400D01*
X180262Y-10301D01*
X180998Y-11037D01*
X181899Y-11557D01*
X182905Y-11827D01*
X183946D01*
X184951Y-11557D01*
X185852Y-11037D01*
X186588Y-10301D01*
X187109Y-9400D01*
X187378Y-8394D01*
Y-7354D01*
X187109Y-6348D01*
X186588Y-5447D01*
X185852Y-4711D01*
X184951Y-4191D01*
X183946Y-3921D01*
D02*
G37*
G36*
X173946D02*
X172905D01*
X171899Y-4191D01*
X170998Y-4711D01*
X170262Y-5447D01*
X169742Y-6348D01*
X169473Y-7354D01*
Y-8394D01*
X169742Y-9400D01*
X170262Y-10301D01*
X170998Y-11037D01*
X171899Y-11557D01*
X172905Y-11827D01*
X173946D01*
X174951Y-11557D01*
X175852Y-11037D01*
X176588Y-10301D01*
X177109Y-9400D01*
X177378Y-8394D01*
Y-7354D01*
X177109Y-6348D01*
X176588Y-5447D01*
X175852Y-4711D01*
X174951Y-4191D01*
X173946Y-3921D01*
D02*
G37*
G36*
X163946D02*
X162905D01*
X161899Y-4191D01*
X160998Y-4711D01*
X160262Y-5447D01*
X159742Y-6348D01*
X159473Y-7354D01*
Y-8394D01*
X159742Y-9400D01*
X160262Y-10301D01*
X160998Y-11037D01*
X161899Y-11557D01*
X162905Y-11827D01*
X163946D01*
X164951Y-11557D01*
X165852Y-11037D01*
X166588Y-10301D01*
X167109Y-9400D01*
X167378Y-8394D01*
Y-7354D01*
X167109Y-6348D01*
X166588Y-5447D01*
X165852Y-4711D01*
X164951Y-4191D01*
X163946Y-3921D01*
D02*
G37*
G36*
X153946D02*
X152905D01*
X151900Y-4191D01*
X150998Y-4711D01*
X150262Y-5447D01*
X149742Y-6348D01*
X149472Y-7354D01*
Y-8394D01*
X149742Y-9400D01*
X150262Y-10301D01*
X150998Y-11037D01*
X151900Y-11557D01*
X152905Y-11827D01*
X153946D01*
X154951Y-11557D01*
X155852Y-11037D01*
X156588Y-10301D01*
X157109Y-9400D01*
X157378Y-8394D01*
Y-7354D01*
X157109Y-6348D01*
X156588Y-5447D01*
X155852Y-4711D01*
X154951Y-4191D01*
X153946Y-3921D01*
D02*
G37*
G36*
X143946D02*
X142905D01*
X141900Y-4191D01*
X140998Y-4711D01*
X140262Y-5447D01*
X139742Y-6348D01*
X139472Y-7354D01*
Y-8394D01*
X139742Y-9400D01*
X140262Y-10301D01*
X140998Y-11037D01*
X141900Y-11557D01*
X142905Y-11827D01*
X143946D01*
X144951Y-11557D01*
X145852Y-11037D01*
X146588Y-10301D01*
X147109Y-9400D01*
X147378Y-8394D01*
Y-7354D01*
X147109Y-6348D01*
X146588Y-5447D01*
X145852Y-4711D01*
X144951Y-4191D01*
X143946Y-3921D01*
D02*
G37*
G36*
X133946D02*
X132905D01*
X131899Y-4191D01*
X130998Y-4711D01*
X130262Y-5447D01*
X129742Y-6348D01*
X129472Y-7354D01*
Y-8394D01*
X129742Y-9400D01*
X130262Y-10301D01*
X130998Y-11037D01*
X131899Y-11557D01*
X132905Y-11827D01*
X133946D01*
X134951Y-11557D01*
X135852Y-11037D01*
X136588Y-10301D01*
X137109Y-9400D01*
X137378Y-8394D01*
Y-7354D01*
X137109Y-6348D01*
X136588Y-5447D01*
X135852Y-4711D01*
X134951Y-4191D01*
X133946Y-3921D01*
D02*
G37*
G36*
X123946D02*
X122905D01*
X121899Y-4191D01*
X120998Y-4711D01*
X120262Y-5447D01*
X119742Y-6348D01*
X119473Y-7354D01*
Y-8394D01*
X119742Y-9400D01*
X120262Y-10301D01*
X120998Y-11037D01*
X121899Y-11557D01*
X122905Y-11827D01*
X123946D01*
X124951Y-11557D01*
X125852Y-11037D01*
X126588Y-10301D01*
X127109Y-9400D01*
X127378Y-8394D01*
Y-7354D01*
X127109Y-6348D01*
X126588Y-5447D01*
X125852Y-4711D01*
X124951Y-4191D01*
X123946Y-3921D01*
D02*
G37*
G36*
X113946D02*
X112905D01*
X111899Y-4191D01*
X110998Y-4711D01*
X110262Y-5447D01*
X109742Y-6348D01*
X109473Y-7354D01*
Y-8394D01*
X109742Y-9400D01*
X110262Y-10301D01*
X110998Y-11037D01*
X111899Y-11557D01*
X112905Y-11827D01*
X113946D01*
X114951Y-11557D01*
X115852Y-11037D01*
X116588Y-10301D01*
X117109Y-9400D01*
X117378Y-8394D01*
Y-7354D01*
X117109Y-6348D01*
X116588Y-5447D01*
X115852Y-4711D01*
X114951Y-4191D01*
X113946Y-3921D01*
D02*
G37*
G36*
X103946D02*
X102905D01*
X101900Y-4191D01*
X100998Y-4711D01*
X100262Y-5447D01*
X99742Y-6348D01*
X99472Y-7354D01*
Y-8394D01*
X99742Y-9400D01*
X100262Y-10301D01*
X100998Y-11037D01*
X101900Y-11557D01*
X102905Y-11827D01*
X103946D01*
X104951Y-11557D01*
X105852Y-11037D01*
X106588Y-10301D01*
X107109Y-9400D01*
X107378Y-8394D01*
Y-7354D01*
X107109Y-6348D01*
X106588Y-5447D01*
X105852Y-4711D01*
X104951Y-4191D01*
X103946Y-3921D01*
D02*
G37*
G36*
X93946D02*
X92905D01*
X91900Y-4191D01*
X90998Y-4711D01*
X90262Y-5447D01*
X89742Y-6348D01*
X89473Y-7354D01*
Y-8394D01*
X89742Y-9400D01*
X90262Y-10301D01*
X90998Y-11037D01*
X91900Y-11557D01*
X92905Y-11827D01*
X93946D01*
X94951Y-11557D01*
X95852Y-11037D01*
X96588Y-10301D01*
X97109Y-9400D01*
X97378Y-8394D01*
Y-7354D01*
X97109Y-6348D01*
X96588Y-5447D01*
X95852Y-4711D01*
X94951Y-4191D01*
X93946Y-3921D01*
D02*
G37*
G36*
X83946D02*
X82905D01*
X81899Y-4191D01*
X80998Y-4711D01*
X80262Y-5447D01*
X79742Y-6348D01*
X79473Y-7354D01*
Y-8394D01*
X79742Y-9400D01*
X80262Y-10301D01*
X80998Y-11037D01*
X81899Y-11557D01*
X82905Y-11827D01*
X83946D01*
X84951Y-11557D01*
X85852Y-11037D01*
X86588Y-10301D01*
X87109Y-9400D01*
X87378Y-8394D01*
Y-7354D01*
X87109Y-6348D01*
X86588Y-5447D01*
X85852Y-4711D01*
X84951Y-4191D01*
X83946Y-3921D01*
D02*
G37*
G36*
X73946D02*
X72905D01*
X71899Y-4191D01*
X70998Y-4711D01*
X70262Y-5447D01*
X69742Y-6348D01*
X69472Y-7354D01*
Y-8394D01*
X69742Y-9400D01*
X70262Y-10301D01*
X70998Y-11037D01*
X71899Y-11557D01*
X72905Y-11827D01*
X73946D01*
X74951Y-11557D01*
X75852Y-11037D01*
X76588Y-10301D01*
X77109Y-9400D01*
X77378Y-8394D01*
Y-7354D01*
X77109Y-6348D01*
X76588Y-5447D01*
X75852Y-4711D01*
X74951Y-4191D01*
X73946Y-3921D01*
D02*
G37*
G36*
X63946D02*
X62905D01*
X61900Y-4191D01*
X60998Y-4711D01*
X60262Y-5447D01*
X59742Y-6348D01*
X59473Y-7354D01*
Y-8394D01*
X59742Y-9400D01*
X60262Y-10301D01*
X60998Y-11037D01*
X61900Y-11557D01*
X62905Y-11827D01*
X63946D01*
X64951Y-11557D01*
X65852Y-11037D01*
X66588Y-10301D01*
X67109Y-9400D01*
X67378Y-8394D01*
Y-7354D01*
X67109Y-6348D01*
X66588Y-5447D01*
X65852Y-4711D01*
X64951Y-4191D01*
X63946Y-3921D01*
D02*
G37*
G36*
X53946D02*
X52905D01*
X51899Y-4191D01*
X50998Y-4711D01*
X50262Y-5447D01*
X49742Y-6348D01*
X49472Y-7354D01*
Y-8394D01*
X49742Y-9400D01*
X50262Y-10301D01*
X50998Y-11037D01*
X51899Y-11557D01*
X52905Y-11827D01*
X53946D01*
X54951Y-11557D01*
X55852Y-11037D01*
X56588Y-10301D01*
X57109Y-9400D01*
X57378Y-8394D01*
Y-7354D01*
X57109Y-6348D01*
X56588Y-5447D01*
X55852Y-4711D01*
X54951Y-4191D01*
X53946Y-3921D01*
D02*
G37*
G36*
X43946D02*
X42905D01*
X41899Y-4191D01*
X40998Y-4711D01*
X40262Y-5447D01*
X39742Y-6348D01*
X39472Y-7354D01*
Y-8394D01*
X39742Y-9400D01*
X40262Y-10301D01*
X40998Y-11037D01*
X41899Y-11557D01*
X42905Y-11827D01*
X43946D01*
X44951Y-11557D01*
X45852Y-11037D01*
X46588Y-10301D01*
X47109Y-9400D01*
X47378Y-8394D01*
Y-7354D01*
X47109Y-6348D01*
X46588Y-5447D01*
X45852Y-4711D01*
X44951Y-4191D01*
X43946Y-3921D01*
D02*
G37*
G36*
X33946D02*
X32905D01*
X31899Y-4191D01*
X30998Y-4711D01*
X30262Y-5447D01*
X29742Y-6348D01*
X29472Y-7354D01*
Y-8394D01*
X29742Y-9400D01*
X30262Y-10301D01*
X30998Y-11037D01*
X31899Y-11557D01*
X32905Y-11827D01*
X33946D01*
X34951Y-11557D01*
X35852Y-11037D01*
X36588Y-10301D01*
X37109Y-9400D01*
X37378Y-8394D01*
Y-7354D01*
X37109Y-6348D01*
X36588Y-5447D01*
X35852Y-4711D01*
X34951Y-4191D01*
X33946Y-3921D01*
D02*
G37*
G36*
X23946D02*
X22905D01*
X21900Y-4191D01*
X20998Y-4711D01*
X20262Y-5447D01*
X19742Y-6348D01*
X19473Y-7354D01*
Y-8394D01*
X19742Y-9400D01*
X20262Y-10301D01*
X20998Y-11037D01*
X21900Y-11557D01*
X22905Y-11827D01*
X23946D01*
X24951Y-11557D01*
X25852Y-11037D01*
X26588Y-10301D01*
X27109Y-9400D01*
X27378Y-8394D01*
Y-7354D01*
X27109Y-6348D01*
X26588Y-5447D01*
X25852Y-4711D01*
X24951Y-4191D01*
X23946Y-3921D01*
D02*
G37*
G36*
X13946D02*
X12905D01*
X11900Y-4191D01*
X10998Y-4711D01*
X10262Y-5447D01*
X9742Y-6348D01*
X9472Y-7354D01*
Y-8394D01*
X9742Y-9400D01*
X10262Y-10301D01*
X10998Y-11037D01*
X11900Y-11557D01*
X12905Y-11827D01*
X13946D01*
X14951Y-11557D01*
X15852Y-11037D01*
X16588Y-10301D01*
X17109Y-9400D01*
X17378Y-8394D01*
Y-7354D01*
X17109Y-6348D01*
X16588Y-5447D01*
X15852Y-4711D01*
X14951Y-4191D01*
X13946Y-3921D01*
D02*
G37*
G36*
X187378Y-13921D02*
X179472D01*
Y-21827D01*
X187378D01*
Y-13921D01*
D02*
G37*
G36*
X173946D02*
X172905D01*
X171899Y-14191D01*
X170998Y-14711D01*
X170262Y-15447D01*
X169742Y-16348D01*
X169473Y-17354D01*
Y-18394D01*
X169742Y-19400D01*
X170262Y-20301D01*
X170998Y-21037D01*
X171899Y-21557D01*
X172905Y-21827D01*
X173946D01*
X174951Y-21557D01*
X175852Y-21037D01*
X176588Y-20301D01*
X177109Y-19400D01*
X177378Y-18394D01*
Y-17354D01*
X177109Y-16348D01*
X176588Y-15447D01*
X175852Y-14711D01*
X174951Y-14191D01*
X173946Y-13921D01*
D02*
G37*
G36*
X163946D02*
X162905D01*
X161899Y-14191D01*
X160998Y-14711D01*
X160262Y-15447D01*
X159742Y-16348D01*
X159473Y-17354D01*
Y-18394D01*
X159742Y-19400D01*
X160262Y-20301D01*
X160998Y-21037D01*
X161899Y-21557D01*
X162905Y-21827D01*
X163946D01*
X164951Y-21557D01*
X165852Y-21037D01*
X166588Y-20301D01*
X167109Y-19400D01*
X167378Y-18394D01*
Y-17354D01*
X167109Y-16348D01*
X166588Y-15447D01*
X165852Y-14711D01*
X164951Y-14191D01*
X163946Y-13921D01*
D02*
G37*
G36*
X153946D02*
X152905D01*
X151900Y-14191D01*
X150998Y-14711D01*
X150262Y-15447D01*
X149742Y-16348D01*
X149472Y-17354D01*
Y-18394D01*
X149742Y-19400D01*
X150262Y-20301D01*
X150998Y-21037D01*
X151900Y-21557D01*
X152905Y-21827D01*
X153946D01*
X154951Y-21557D01*
X155852Y-21037D01*
X156588Y-20301D01*
X157109Y-19400D01*
X157378Y-18394D01*
Y-17354D01*
X157109Y-16348D01*
X156588Y-15447D01*
X155852Y-14711D01*
X154951Y-14191D01*
X153946Y-13921D01*
D02*
G37*
G36*
X143946D02*
X142905D01*
X141900Y-14191D01*
X140998Y-14711D01*
X140262Y-15447D01*
X139742Y-16348D01*
X139472Y-17354D01*
Y-18394D01*
X139742Y-19400D01*
X140262Y-20301D01*
X140998Y-21037D01*
X141900Y-21557D01*
X142905Y-21827D01*
X143946D01*
X144951Y-21557D01*
X145852Y-21037D01*
X146588Y-20301D01*
X147109Y-19400D01*
X147378Y-18394D01*
Y-17354D01*
X147109Y-16348D01*
X146588Y-15447D01*
X145852Y-14711D01*
X144951Y-14191D01*
X143946Y-13921D01*
D02*
G37*
G36*
X133946D02*
X132905D01*
X131899Y-14191D01*
X130998Y-14711D01*
X130262Y-15447D01*
X129742Y-16348D01*
X129472Y-17354D01*
Y-18394D01*
X129742Y-19400D01*
X130262Y-20301D01*
X130998Y-21037D01*
X131899Y-21557D01*
X132905Y-21827D01*
X133946D01*
X134951Y-21557D01*
X135852Y-21037D01*
X136588Y-20301D01*
X137109Y-19400D01*
X137378Y-18394D01*
Y-17354D01*
X137109Y-16348D01*
X136588Y-15447D01*
X135852Y-14711D01*
X134951Y-14191D01*
X133946Y-13921D01*
D02*
G37*
G36*
X123946D02*
X122905D01*
X121899Y-14191D01*
X120998Y-14711D01*
X120262Y-15447D01*
X119742Y-16348D01*
X119473Y-17354D01*
Y-18394D01*
X119742Y-19400D01*
X120262Y-20301D01*
X120998Y-21037D01*
X121899Y-21557D01*
X122905Y-21827D01*
X123946D01*
X124951Y-21557D01*
X125852Y-21037D01*
X126588Y-20301D01*
X127109Y-19400D01*
X127378Y-18394D01*
Y-17354D01*
X127109Y-16348D01*
X126588Y-15447D01*
X125852Y-14711D01*
X124951Y-14191D01*
X123946Y-13921D01*
D02*
G37*
G36*
X113946D02*
X112905D01*
X111899Y-14191D01*
X110998Y-14711D01*
X110262Y-15447D01*
X109742Y-16348D01*
X109473Y-17354D01*
Y-18394D01*
X109742Y-19400D01*
X110262Y-20301D01*
X110998Y-21037D01*
X111899Y-21557D01*
X112905Y-21827D01*
X113946D01*
X114951Y-21557D01*
X115852Y-21037D01*
X116588Y-20301D01*
X117109Y-19400D01*
X117378Y-18394D01*
Y-17354D01*
X117109Y-16348D01*
X116588Y-15447D01*
X115852Y-14711D01*
X114951Y-14191D01*
X113946Y-13921D01*
D02*
G37*
G36*
X103946D02*
X102905D01*
X101900Y-14191D01*
X100998Y-14711D01*
X100262Y-15447D01*
X99742Y-16348D01*
X99472Y-17354D01*
Y-18394D01*
X99742Y-19400D01*
X100262Y-20301D01*
X100998Y-21037D01*
X101900Y-21557D01*
X102905Y-21827D01*
X103946D01*
X104951Y-21557D01*
X105852Y-21037D01*
X106588Y-20301D01*
X107109Y-19400D01*
X107378Y-18394D01*
Y-17354D01*
X107109Y-16348D01*
X106588Y-15447D01*
X105852Y-14711D01*
X104951Y-14191D01*
X103946Y-13921D01*
D02*
G37*
G36*
X93946D02*
X92905D01*
X91900Y-14191D01*
X90998Y-14711D01*
X90262Y-15447D01*
X89742Y-16348D01*
X89473Y-17354D01*
Y-18394D01*
X89742Y-19400D01*
X90262Y-20301D01*
X90998Y-21037D01*
X91900Y-21557D01*
X92905Y-21827D01*
X93946D01*
X94951Y-21557D01*
X95852Y-21037D01*
X96588Y-20301D01*
X97109Y-19400D01*
X97378Y-18394D01*
Y-17354D01*
X97109Y-16348D01*
X96588Y-15447D01*
X95852Y-14711D01*
X94951Y-14191D01*
X93946Y-13921D01*
D02*
G37*
G36*
X83946D02*
X82905D01*
X81899Y-14191D01*
X80998Y-14711D01*
X80262Y-15447D01*
X79742Y-16348D01*
X79473Y-17354D01*
Y-18394D01*
X79742Y-19400D01*
X80262Y-20301D01*
X80998Y-21037D01*
X81899Y-21557D01*
X82905Y-21827D01*
X83946D01*
X84951Y-21557D01*
X85852Y-21037D01*
X86588Y-20301D01*
X87109Y-19400D01*
X87378Y-18394D01*
Y-17354D01*
X87109Y-16348D01*
X86588Y-15447D01*
X85852Y-14711D01*
X84951Y-14191D01*
X83946Y-13921D01*
D02*
G37*
G36*
X73946D02*
X72905D01*
X71899Y-14191D01*
X70998Y-14711D01*
X70262Y-15447D01*
X69742Y-16348D01*
X69472Y-17354D01*
Y-18394D01*
X69742Y-19400D01*
X70262Y-20301D01*
X70998Y-21037D01*
X71899Y-21557D01*
X72905Y-21827D01*
X73946D01*
X74951Y-21557D01*
X75852Y-21037D01*
X76588Y-20301D01*
X77109Y-19400D01*
X77378Y-18394D01*
Y-17354D01*
X77109Y-16348D01*
X76588Y-15447D01*
X75852Y-14711D01*
X74951Y-14191D01*
X73946Y-13921D01*
D02*
G37*
G36*
X63946D02*
X62905D01*
X61900Y-14191D01*
X60998Y-14711D01*
X60262Y-15447D01*
X59742Y-16348D01*
X59473Y-17354D01*
Y-18394D01*
X59742Y-19400D01*
X60262Y-20301D01*
X60998Y-21037D01*
X61900Y-21557D01*
X62905Y-21827D01*
X63946D01*
X64951Y-21557D01*
X65852Y-21037D01*
X66588Y-20301D01*
X67109Y-19400D01*
X67378Y-18394D01*
Y-17354D01*
X67109Y-16348D01*
X66588Y-15447D01*
X65852Y-14711D01*
X64951Y-14191D01*
X63946Y-13921D01*
D02*
G37*
G36*
X53946D02*
X52905D01*
X51899Y-14191D01*
X50998Y-14711D01*
X50262Y-15447D01*
X49742Y-16348D01*
X49472Y-17354D01*
Y-18394D01*
X49742Y-19400D01*
X50262Y-20301D01*
X50998Y-21037D01*
X51899Y-21557D01*
X52905Y-21827D01*
X53946D01*
X54951Y-21557D01*
X55852Y-21037D01*
X56588Y-20301D01*
X57109Y-19400D01*
X57378Y-18394D01*
Y-17354D01*
X57109Y-16348D01*
X56588Y-15447D01*
X55852Y-14711D01*
X54951Y-14191D01*
X53946Y-13921D01*
D02*
G37*
G36*
X43946D02*
X42905D01*
X41899Y-14191D01*
X40998Y-14711D01*
X40262Y-15447D01*
X39742Y-16348D01*
X39472Y-17354D01*
Y-18394D01*
X39742Y-19400D01*
X40262Y-20301D01*
X40998Y-21037D01*
X41899Y-21557D01*
X42905Y-21827D01*
X43946D01*
X44951Y-21557D01*
X45852Y-21037D01*
X46588Y-20301D01*
X47109Y-19400D01*
X47378Y-18394D01*
Y-17354D01*
X47109Y-16348D01*
X46588Y-15447D01*
X45852Y-14711D01*
X44951Y-14191D01*
X43946Y-13921D01*
D02*
G37*
G36*
X33946D02*
X32905D01*
X31899Y-14191D01*
X30998Y-14711D01*
X30262Y-15447D01*
X29742Y-16348D01*
X29472Y-17354D01*
Y-18394D01*
X29742Y-19400D01*
X30262Y-20301D01*
X30998Y-21037D01*
X31899Y-21557D01*
X32905Y-21827D01*
X33946D01*
X34951Y-21557D01*
X35852Y-21037D01*
X36588Y-20301D01*
X37109Y-19400D01*
X37378Y-18394D01*
Y-17354D01*
X37109Y-16348D01*
X36588Y-15447D01*
X35852Y-14711D01*
X34951Y-14191D01*
X33946Y-13921D01*
D02*
G37*
G36*
X23946D02*
X22905D01*
X21900Y-14191D01*
X20998Y-14711D01*
X20262Y-15447D01*
X19742Y-16348D01*
X19473Y-17354D01*
Y-18394D01*
X19742Y-19400D01*
X20262Y-20301D01*
X20998Y-21037D01*
X21900Y-21557D01*
X22905Y-21827D01*
X23946D01*
X24951Y-21557D01*
X25852Y-21037D01*
X26588Y-20301D01*
X27109Y-19400D01*
X27378Y-18394D01*
Y-17354D01*
X27109Y-16348D01*
X26588Y-15447D01*
X25852Y-14711D01*
X24951Y-14191D01*
X23946Y-13921D01*
D02*
G37*
G36*
X13946D02*
X12905D01*
X11900Y-14191D01*
X10998Y-14711D01*
X10262Y-15447D01*
X9742Y-16348D01*
X9472Y-17354D01*
Y-18394D01*
X9742Y-19400D01*
X10262Y-20301D01*
X10998Y-21037D01*
X11900Y-21557D01*
X12905Y-21827D01*
X13946D01*
X14951Y-21557D01*
X15852Y-21037D01*
X16588Y-20301D01*
X17109Y-19400D01*
X17378Y-18394D01*
Y-17354D01*
X17109Y-16348D01*
X16588Y-15447D01*
X15852Y-14711D01*
X14951Y-14191D01*
X13946Y-13921D01*
D02*
G37*
G36*
X155282Y-36419D02*
X154293D01*
X153338Y-36675D01*
X152481Y-37169D01*
X151782Y-37869D01*
X151287Y-38725D01*
X151031Y-39680D01*
Y-40669D01*
X151287Y-41625D01*
X151782Y-42481D01*
X152481Y-43180D01*
X153338Y-43675D01*
X154293Y-43931D01*
X155282D01*
X156237Y-43675D01*
X157094Y-43180D01*
X157793Y-42481D01*
X158287Y-41625D01*
X158543Y-40669D01*
Y-39680D01*
X158287Y-38725D01*
X157793Y-37869D01*
X157094Y-37169D01*
X156237Y-36675D01*
X155282Y-36419D01*
D02*
G37*
G36*
X172329Y-49390D02*
X171383D01*
X170509Y-49752D01*
X169856Y-50405D01*
X169203Y-49752D01*
X168329Y-49390D01*
X167383D01*
X166509Y-49752D01*
X166106Y-50155D01*
X165703Y-49752D01*
X164829Y-49390D01*
X163883D01*
X163009Y-49752D01*
X162356Y-50405D01*
X161703Y-49752D01*
X160829Y-49390D01*
X159883D01*
X159009Y-49752D01*
X158606Y-50155D01*
X158203Y-49752D01*
X157329Y-49390D01*
X156383D01*
X155509Y-49752D01*
X155106Y-50155D01*
X154703Y-49752D01*
X153829Y-49390D01*
X152883D01*
X152009Y-49752D01*
X151356Y-50405D01*
X150703Y-49752D01*
X149829Y-49390D01*
X148883D01*
X148009Y-49752D01*
X147356Y-50405D01*
X146703Y-49752D01*
X145829Y-49390D01*
X144883D01*
X144009Y-49752D01*
X143340Y-50421D01*
X142998Y-51248D01*
X140807D01*
X140741Y-51261D01*
X140674Y-51257D01*
X140548Y-51300D01*
X140417Y-51326D01*
X140361Y-51363D01*
X140297Y-51385D01*
X140197Y-51473D01*
X140086Y-51547D01*
X140049Y-51603D01*
X139998Y-51647D01*
X139939Y-51767D01*
X139865Y-51877D01*
X139856Y-51923D01*
X139473Y-52586D01*
X138964Y-53095D01*
X138340Y-53455D01*
X137784Y-53604D01*
X137284Y-53336D01*
Y-50906D01*
X127284D01*
Y-60905D01*
X137284D01*
Y-58475D01*
X137784Y-58207D01*
X138340Y-58356D01*
X138964Y-58716D01*
X139473Y-59225D01*
X139503Y-59277D01*
X139583Y-59369D01*
X139635Y-59494D01*
X140304Y-60163D01*
X141178Y-60525D01*
X142124D01*
X142482Y-60377D01*
X142898Y-60655D01*
Y-60709D01*
X143260Y-61583D01*
X143929Y-62252D01*
X144803Y-62614D01*
X145749D01*
X146623Y-62252D01*
X147128Y-61746D01*
X147235Y-61768D01*
X147336D01*
X147434Y-61787D01*
X161205D01*
X161340Y-62115D01*
X162009Y-62784D01*
X162883Y-63146D01*
X163829D01*
X164703Y-62784D01*
X165372Y-62115D01*
X165508Y-61787D01*
X175513D01*
X176009Y-62284D01*
X176883Y-62646D01*
X177829D01*
X178703Y-62284D01*
X179372Y-61615D01*
X179734Y-60741D01*
Y-59795D01*
X179372Y-58921D01*
X179126Y-58674D01*
X179203Y-58284D01*
X179872Y-57615D01*
X180234Y-56741D01*
Y-55795D01*
X179872Y-54921D01*
X179203Y-54252D01*
X178395Y-53917D01*
X178157Y-53428D01*
X178234Y-53241D01*
Y-52295D01*
X177872Y-51421D01*
X177203Y-50752D01*
X176329Y-50390D01*
X175383D01*
X174509Y-50752D01*
X174474Y-50787D01*
X173984Y-50690D01*
X173872Y-50421D01*
X173203Y-49752D01*
X172329Y-49390D01*
D02*
G37*
G36*
X146275Y-77937D02*
X145493D01*
X144738Y-78139D01*
X144061Y-78530D01*
X143509Y-79083D01*
X143118Y-79760D01*
X142915Y-80515D01*
Y-81296D01*
X143118Y-82051D01*
X143509Y-82728D01*
X144061Y-83281D01*
X144738Y-83672D01*
X145493Y-83874D01*
X146275D01*
X147030Y-83672D01*
X147707Y-83281D01*
X148259Y-82728D01*
X148650Y-82051D01*
X148852Y-81296D01*
Y-80515D01*
X148650Y-79760D01*
X148259Y-79083D01*
X147707Y-78530D01*
X147030Y-78139D01*
X146275Y-77937D01*
D02*
G37*
G36*
X179739Y-78429D02*
X178958D01*
X178203Y-78631D01*
X177526Y-79022D01*
X176973Y-79575D01*
X176582Y-80252D01*
X176380Y-81007D01*
Y-81788D01*
X176582Y-82543D01*
X176973Y-83220D01*
X177526Y-83773D01*
X178203Y-84164D01*
X178958Y-84366D01*
X179739D01*
X180494Y-84164D01*
X181171Y-83773D01*
X181724Y-83220D01*
X182115Y-82543D01*
X182317Y-81788D01*
Y-81007D01*
X182115Y-80252D01*
X181724Y-79575D01*
X181171Y-79022D01*
X180494Y-78631D01*
X179739Y-78429D01*
D02*
G37*
G36*
X128380Y-91894D02*
X128323Y-91904D01*
X128266Y-91897D01*
X128129Y-91936D01*
X127988Y-91959D01*
X127939Y-91989D01*
X127883Y-92005D01*
X127771Y-92094D01*
X127650Y-92169D01*
X127616Y-92216D01*
X127571Y-92252D01*
X125167Y-95070D01*
X113452Y-94924D01*
X113375Y-94939D01*
X113298Y-94934D01*
X108718Y-95571D01*
X108597Y-95613D01*
X108470Y-95638D01*
X108410Y-95678D01*
X108343Y-95702D01*
X108246Y-95787D01*
X108139Y-95859D01*
X102376Y-101606D01*
X102372Y-101612D01*
X102366Y-101616D01*
X102262Y-101777D01*
X102154Y-101937D01*
X102153Y-101944D01*
X102149Y-101949D01*
X102114Y-102138D01*
X102076Y-102327D01*
X102078Y-102334D01*
X102076Y-102340D01*
X102177Y-110961D01*
X98231Y-114854D01*
X91332Y-114899D01*
X91140Y-114938D01*
X90948Y-114977D01*
X90946Y-114979D01*
X90942Y-114979D01*
X90780Y-115089D01*
X90618Y-115198D01*
X90616Y-115200D01*
X90613Y-115202D01*
X90505Y-115366D01*
X90397Y-115529D01*
X90396Y-115532D01*
X90394Y-115535D01*
X90357Y-115727D01*
X90319Y-115919D01*
Y-142913D01*
X90397Y-143304D01*
X90618Y-143634D01*
X92980Y-145997D01*
X93311Y-146218D01*
X93701Y-146295D01*
X100394D01*
X100784Y-146218D01*
X101115Y-145997D01*
X104359Y-142752D01*
X109055D01*
X109445Y-142674D01*
X109776Y-142453D01*
X111351Y-140878D01*
X111572Y-140548D01*
X111650Y-140157D01*
Y-136073D01*
X112150Y-135974D01*
X112157Y-135993D01*
X112826Y-136662D01*
X113700Y-137024D01*
X114646D01*
X115520Y-136662D01*
X116189Y-135993D01*
X116551Y-135119D01*
Y-134173D01*
X116189Y-133299D01*
X115520Y-132630D01*
X114646Y-132268D01*
X113700D01*
X112826Y-132630D01*
X112157Y-133299D01*
X112150Y-133317D01*
X111650Y-133218D01*
Y-109871D01*
X113696Y-107825D01*
X114192Y-108036D01*
X114520Y-108827D01*
X115188Y-109496D01*
X116062Y-109858D01*
X117008D01*
X117882Y-109496D01*
X118551Y-108827D01*
X118913Y-107953D01*
Y-107007D01*
X118551Y-106133D01*
X117882Y-105464D01*
X117091Y-105137D01*
X116880Y-104640D01*
X117745Y-103776D01*
X127530D01*
X129988Y-106233D01*
X130318Y-106454D01*
X130709Y-106531D01*
X143326D01*
X143535Y-106740D01*
X144409Y-107102D01*
X145355D01*
X146229Y-106740D01*
X146898Y-106071D01*
X147260Y-105197D01*
Y-104251D01*
X146898Y-103377D01*
X146295Y-102775D01*
Y-98425D01*
X146218Y-98035D01*
X145997Y-97704D01*
X140878Y-92586D01*
X140727Y-92485D01*
X140579Y-92379D01*
X140562Y-92375D01*
X140548Y-92365D01*
X140369Y-92330D01*
X140191Y-92288D01*
X128380Y-91894D01*
D02*
G37*
G36*
X159528Y-99590D02*
X158582D01*
X157708Y-99953D01*
X157039Y-100621D01*
X156677Y-101496D01*
Y-102442D01*
X157039Y-103315D01*
X157708Y-103984D01*
X158582Y-104347D01*
X159528D01*
X160402Y-103984D01*
X161071Y-103315D01*
X161433Y-102442D01*
Y-101496D01*
X161071Y-100621D01*
X160402Y-99953D01*
X159528Y-99590D01*
D02*
G37*
G36*
X140237Y-118488D02*
X139291D01*
X138417Y-118850D01*
X137748Y-119519D01*
X137386Y-120393D01*
Y-121339D01*
X137748Y-122213D01*
X138417Y-122882D01*
X139291Y-123244D01*
X140237D01*
X141111Y-122882D01*
X141780Y-122213D01*
X142142Y-121339D01*
Y-120393D01*
X141780Y-119519D01*
X141111Y-118850D01*
X140237Y-118488D01*
D02*
G37*
G36*
X123701Y-118882D02*
X122755D01*
X121881Y-119244D01*
X121212Y-119913D01*
X120850Y-120787D01*
Y-121733D01*
X121212Y-122607D01*
X121881Y-123276D01*
X122755Y-123638D01*
X123701D01*
X124575Y-123276D01*
X125244Y-122607D01*
X125606Y-121733D01*
Y-120787D01*
X125244Y-119913D01*
X124575Y-119244D01*
X123701Y-118882D01*
D02*
G37*
G36*
X159485Y-119276D02*
X158539D01*
X157665Y-119638D01*
X156996Y-120307D01*
X156634Y-121180D01*
Y-122126D01*
X156996Y-123001D01*
X157665Y-123670D01*
X158539Y-124031D01*
X159485D01*
X160359Y-123670D01*
X161028Y-123001D01*
X161390Y-122126D01*
Y-121180D01*
X161028Y-120307D01*
X160359Y-119638D01*
X159485Y-119276D01*
D02*
G37*
G36*
X114252Y-145260D02*
X113306D01*
X112433Y-145622D01*
X111764Y-146291D01*
X111402Y-147165D01*
Y-148111D01*
X111764Y-148985D01*
X112433Y-149654D01*
X113306Y-150016D01*
X114252D01*
X115127Y-149654D01*
X115796Y-148985D01*
X116157Y-148111D01*
Y-147165D01*
X115796Y-146291D01*
X115127Y-145622D01*
X114252Y-145260D01*
D02*
G37*
G36*
X147323Y-148016D02*
X146377D01*
X145503Y-148378D01*
X144834Y-149047D01*
X144472Y-149921D01*
Y-150867D01*
X144834Y-151741D01*
X145503Y-152410D01*
X146377Y-152772D01*
X147323D01*
X148197Y-152410D01*
X148866Y-151741D01*
X149228Y-150867D01*
Y-149921D01*
X148866Y-149047D01*
X148197Y-148378D01*
X147323Y-148016D01*
D02*
G37*
G36*
X137875Y-148409D02*
X136929D01*
X136055Y-148772D01*
X135386Y-149440D01*
X135024Y-150314D01*
Y-151260D01*
X135386Y-152134D01*
X136055Y-152803D01*
X136929Y-153165D01*
X137875D01*
X138749Y-152803D01*
X139418Y-152134D01*
X139779Y-151260D01*
Y-150314D01*
X139418Y-149440D01*
X138749Y-148772D01*
X137875Y-148409D01*
D02*
G37*
G36*
X185431Y-154941D02*
X184183D01*
X182977Y-155264D01*
X181897Y-155888D01*
X181014Y-156771D01*
X180390Y-157852D01*
X180067Y-159057D01*
Y-160305D01*
X180390Y-161511D01*
X181014Y-162592D01*
X181897Y-163474D01*
X182977Y-164098D01*
X184183Y-164421D01*
X185431D01*
X186637Y-164098D01*
X187718Y-163474D01*
X188600Y-162592D01*
X189224Y-161511D01*
X189547Y-160305D01*
Y-159057D01*
X189224Y-157852D01*
X188600Y-156771D01*
X187718Y-155888D01*
X186637Y-155264D01*
X185431Y-154941D01*
D02*
G37*
G36*
X165431D02*
X164183D01*
X162978Y-155264D01*
X161897Y-155888D01*
X161014Y-156771D01*
X160390Y-157852D01*
X160067Y-159057D01*
Y-160305D01*
X160390Y-161511D01*
X161014Y-162592D01*
X161897Y-163474D01*
X162978Y-164098D01*
X164183Y-164421D01*
X165431D01*
X166637Y-164098D01*
X167718Y-163474D01*
X168600Y-162592D01*
X169224Y-161511D01*
X169547Y-160305D01*
Y-159057D01*
X169224Y-157852D01*
X168600Y-156771D01*
X167718Y-155888D01*
X166637Y-155264D01*
X165431Y-154941D01*
D02*
G37*
G36*
X154431D02*
X153183D01*
X151978Y-155264D01*
X150897Y-155888D01*
X150014Y-156771D01*
X149390Y-157852D01*
X149067Y-159057D01*
Y-160305D01*
X149390Y-161511D01*
X150014Y-162592D01*
X150897Y-163474D01*
X151978Y-164098D01*
X153183Y-164421D01*
X154431D01*
X155637Y-164098D01*
X156718Y-163474D01*
X157600Y-162592D01*
X158224Y-161511D01*
X158547Y-160305D01*
Y-159057D01*
X158224Y-157852D01*
X157600Y-156771D01*
X156718Y-155888D01*
X155637Y-155264D01*
X154431Y-154941D01*
D02*
G37*
G36*
X134431D02*
X133183D01*
X131977Y-155264D01*
X130897Y-155888D01*
X130014Y-156771D01*
X129390Y-157852D01*
X129067Y-159057D01*
Y-160305D01*
X129390Y-161511D01*
X130014Y-162592D01*
X130897Y-163474D01*
X131977Y-164098D01*
X133183Y-164421D01*
X134431D01*
X135637Y-164098D01*
X136718Y-163474D01*
X137600Y-162592D01*
X138224Y-161511D01*
X138547Y-160305D01*
Y-159057D01*
X138224Y-157852D01*
X137600Y-156771D01*
X136718Y-155888D01*
X135637Y-155264D01*
X134431Y-154941D01*
D02*
G37*
G36*
X123431D02*
X122183D01*
X120977Y-155264D01*
X119897Y-155888D01*
X119014Y-156771D01*
X118390Y-157852D01*
X118067Y-159057D01*
Y-160305D01*
X118390Y-161511D01*
X119014Y-162592D01*
X119897Y-163474D01*
X120977Y-164098D01*
X122183Y-164421D01*
X123431D01*
X124637Y-164098D01*
X125718Y-163474D01*
X126600Y-162592D01*
X127224Y-161511D01*
X127547Y-160305D01*
Y-159057D01*
X127224Y-157852D01*
X126600Y-156771D01*
X125718Y-155888D01*
X124637Y-155264D01*
X123431Y-154941D01*
D02*
G37*
G36*
X103431D02*
X102183D01*
X100978Y-155264D01*
X99897Y-155888D01*
X99014Y-156771D01*
X98390Y-157852D01*
X98067Y-159057D01*
Y-160305D01*
X98390Y-161511D01*
X99014Y-162592D01*
X99897Y-163474D01*
X100978Y-164098D01*
X102183Y-164421D01*
X103431D01*
X104637Y-164098D01*
X105718Y-163474D01*
X106600Y-162592D01*
X107224Y-161511D01*
X107547Y-160305D01*
Y-159057D01*
X107224Y-157852D01*
X106600Y-156771D01*
X105718Y-155888D01*
X104637Y-155264D01*
X103431Y-154941D01*
D02*
G37*
G36*
X185431Y-164941D02*
X184183D01*
X182977Y-165264D01*
X181897Y-165888D01*
X181014Y-166771D01*
X180390Y-167851D01*
X180067Y-169057D01*
Y-170305D01*
X180390Y-171511D01*
X181014Y-172592D01*
X181897Y-173474D01*
X182977Y-174098D01*
X184183Y-174421D01*
X185431D01*
X186637Y-174098D01*
X187718Y-173474D01*
X188600Y-172592D01*
X189224Y-171511D01*
X189547Y-170305D01*
Y-169057D01*
X189224Y-167851D01*
X188600Y-166771D01*
X187718Y-165888D01*
X186637Y-165264D01*
X185431Y-164941D01*
D02*
G37*
G36*
X165431D02*
X164183D01*
X162978Y-165264D01*
X161897Y-165888D01*
X161014Y-166771D01*
X160390Y-167851D01*
X160067Y-169057D01*
Y-170305D01*
X160390Y-171511D01*
X161014Y-172592D01*
X161897Y-173474D01*
X162978Y-174098D01*
X164183Y-174421D01*
X165431D01*
X166637Y-174098D01*
X167718Y-173474D01*
X168600Y-172592D01*
X169224Y-171511D01*
X169547Y-170305D01*
Y-169057D01*
X169224Y-167851D01*
X168600Y-166771D01*
X167718Y-165888D01*
X166637Y-165264D01*
X165431Y-164941D01*
D02*
G37*
G36*
X154431D02*
X153183D01*
X151978Y-165264D01*
X150897Y-165888D01*
X150014Y-166771D01*
X149390Y-167851D01*
X149067Y-169057D01*
Y-170305D01*
X149390Y-171511D01*
X150014Y-172592D01*
X150897Y-173474D01*
X151978Y-174098D01*
X153183Y-174421D01*
X154431D01*
X155637Y-174098D01*
X156718Y-173474D01*
X157600Y-172592D01*
X158224Y-171511D01*
X158547Y-170305D01*
Y-169057D01*
X158224Y-167851D01*
X157600Y-166771D01*
X156718Y-165888D01*
X155637Y-165264D01*
X154431Y-164941D01*
D02*
G37*
G36*
X134431D02*
X133183D01*
X131977Y-165264D01*
X130897Y-165888D01*
X130014Y-166771D01*
X129390Y-167851D01*
X129067Y-169057D01*
Y-170305D01*
X129390Y-171511D01*
X130014Y-172592D01*
X130897Y-173474D01*
X131977Y-174098D01*
X133183Y-174421D01*
X134431D01*
X135637Y-174098D01*
X136718Y-173474D01*
X137600Y-172592D01*
X138224Y-171511D01*
X138547Y-170305D01*
Y-169057D01*
X138224Y-167851D01*
X137600Y-166771D01*
X136718Y-165888D01*
X135637Y-165264D01*
X134431Y-164941D01*
D02*
G37*
G36*
X123431D02*
X122183D01*
X120977Y-165264D01*
X119897Y-165888D01*
X119014Y-166771D01*
X118390Y-167851D01*
X118067Y-169057D01*
Y-170305D01*
X118390Y-171511D01*
X119014Y-172592D01*
X119897Y-173474D01*
X120977Y-174098D01*
X122183Y-174421D01*
X123431D01*
X124637Y-174098D01*
X125718Y-173474D01*
X126600Y-172592D01*
X127224Y-171511D01*
X127547Y-170305D01*
Y-169057D01*
X127224Y-167851D01*
X126600Y-166771D01*
X125718Y-165888D01*
X124637Y-165264D01*
X123431Y-164941D01*
D02*
G37*
G36*
X103431D02*
X102183D01*
X100978Y-165264D01*
X99897Y-165888D01*
X99014Y-166771D01*
X98390Y-167851D01*
X98067Y-169057D01*
Y-170305D01*
X98390Y-171511D01*
X99014Y-172592D01*
X99897Y-173474D01*
X100978Y-174098D01*
X102183Y-174421D01*
X103431D01*
X104637Y-174098D01*
X105718Y-173474D01*
X106600Y-172592D01*
X107224Y-171511D01*
X107547Y-170305D01*
Y-169057D01*
X107224Y-167851D01*
X106600Y-166771D01*
X105718Y-165888D01*
X104637Y-165264D01*
X103431Y-164941D01*
D02*
G37*
G36*
X185431Y-174941D02*
X184183D01*
X182977Y-175264D01*
X181897Y-175888D01*
X181014Y-176771D01*
X180390Y-177851D01*
X180067Y-179057D01*
Y-180305D01*
X180390Y-181511D01*
X181014Y-182592D01*
X181897Y-183474D01*
X182977Y-184098D01*
X184183Y-184421D01*
X185431D01*
X186637Y-184098D01*
X187718Y-183474D01*
X188600Y-182592D01*
X189224Y-181511D01*
X189547Y-180305D01*
Y-179057D01*
X189224Y-177851D01*
X188600Y-176771D01*
X187718Y-175888D01*
X186637Y-175264D01*
X185431Y-174941D01*
D02*
G37*
G36*
X165431D02*
X164183D01*
X162978Y-175264D01*
X161897Y-175888D01*
X161014Y-176771D01*
X160390Y-177851D01*
X160067Y-179057D01*
Y-180305D01*
X160390Y-181511D01*
X161014Y-182592D01*
X161897Y-183474D01*
X162978Y-184098D01*
X164183Y-184421D01*
X165431D01*
X166637Y-184098D01*
X167718Y-183474D01*
X168600Y-182592D01*
X169224Y-181511D01*
X169547Y-180305D01*
Y-179057D01*
X169224Y-177851D01*
X168600Y-176771D01*
X167718Y-175888D01*
X166637Y-175264D01*
X165431Y-174941D01*
D02*
G37*
G36*
X154431D02*
X153183D01*
X151978Y-175264D01*
X150897Y-175888D01*
X150014Y-176771D01*
X149390Y-177851D01*
X149067Y-179057D01*
Y-180305D01*
X149390Y-181511D01*
X150014Y-182592D01*
X150897Y-183474D01*
X151978Y-184098D01*
X153183Y-184421D01*
X154431D01*
X155637Y-184098D01*
X156718Y-183474D01*
X157600Y-182592D01*
X158224Y-181511D01*
X158547Y-180305D01*
Y-179057D01*
X158224Y-177851D01*
X157600Y-176771D01*
X156718Y-175888D01*
X155637Y-175264D01*
X154431Y-174941D01*
D02*
G37*
G36*
X134431D02*
X133183D01*
X131977Y-175264D01*
X130897Y-175888D01*
X130014Y-176771D01*
X129390Y-177851D01*
X129067Y-179057D01*
Y-180305D01*
X129390Y-181511D01*
X130014Y-182592D01*
X130897Y-183474D01*
X131977Y-184098D01*
X133183Y-184421D01*
X134431D01*
X135637Y-184098D01*
X136718Y-183474D01*
X137600Y-182592D01*
X138224Y-181511D01*
X138547Y-180305D01*
Y-179057D01*
X138224Y-177851D01*
X137600Y-176771D01*
X136718Y-175888D01*
X135637Y-175264D01*
X134431Y-174941D01*
D02*
G37*
G36*
X123431D02*
X122183D01*
X120977Y-175264D01*
X119897Y-175888D01*
X119014Y-176771D01*
X118390Y-177851D01*
X118067Y-179057D01*
Y-180305D01*
X118390Y-181511D01*
X119014Y-182592D01*
X119897Y-183474D01*
X120977Y-184098D01*
X122183Y-184421D01*
X123431D01*
X124637Y-184098D01*
X125718Y-183474D01*
X126600Y-182592D01*
X127224Y-181511D01*
X127547Y-180305D01*
Y-179057D01*
X127224Y-177851D01*
X126600Y-176771D01*
X125718Y-175888D01*
X124637Y-175264D01*
X123431Y-174941D01*
D02*
G37*
G36*
X103431D02*
X102183D01*
X100978Y-175264D01*
X99897Y-175888D01*
X99014Y-176771D01*
X98390Y-177851D01*
X98067Y-179057D01*
Y-180305D01*
X98390Y-181511D01*
X99014Y-182592D01*
X99897Y-183474D01*
X100978Y-184098D01*
X102183Y-184421D01*
X103431D01*
X104637Y-184098D01*
X105718Y-183474D01*
X106600Y-182592D01*
X107224Y-181511D01*
X107547Y-180305D01*
Y-179057D01*
X107224Y-177851D01*
X106600Y-176771D01*
X105718Y-175888D01*
X104637Y-175264D01*
X103431Y-174941D01*
D02*
G37*
G36*
X185431Y-184941D02*
X184183D01*
X182977Y-185264D01*
X181897Y-185888D01*
X181014Y-186771D01*
X180390Y-187852D01*
X180067Y-189057D01*
Y-190305D01*
X180390Y-191511D01*
X181014Y-192592D01*
X181897Y-193474D01*
X182977Y-194098D01*
X184183Y-194421D01*
X185431D01*
X186637Y-194098D01*
X187718Y-193474D01*
X188600Y-192592D01*
X189224Y-191511D01*
X189547Y-190305D01*
Y-189057D01*
X189224Y-187852D01*
X188600Y-186771D01*
X187718Y-185888D01*
X186637Y-185264D01*
X185431Y-184941D01*
D02*
G37*
G36*
X165431D02*
X164183D01*
X162978Y-185264D01*
X161897Y-185888D01*
X161014Y-186771D01*
X160390Y-187852D01*
X160067Y-189057D01*
Y-190305D01*
X160390Y-191511D01*
X161014Y-192592D01*
X161897Y-193474D01*
X162978Y-194098D01*
X164183Y-194421D01*
X165431D01*
X166637Y-194098D01*
X167718Y-193474D01*
X168600Y-192592D01*
X169224Y-191511D01*
X169547Y-190305D01*
Y-189057D01*
X169224Y-187852D01*
X168600Y-186771D01*
X167718Y-185888D01*
X166637Y-185264D01*
X165431Y-184941D01*
D02*
G37*
G36*
X154431D02*
X153183D01*
X151978Y-185264D01*
X150897Y-185888D01*
X150014Y-186771D01*
X149390Y-187852D01*
X149067Y-189057D01*
Y-190305D01*
X149390Y-191511D01*
X150014Y-192592D01*
X150897Y-193474D01*
X151978Y-194098D01*
X153183Y-194421D01*
X154431D01*
X155637Y-194098D01*
X156718Y-193474D01*
X157600Y-192592D01*
X158224Y-191511D01*
X158547Y-190305D01*
Y-189057D01*
X158224Y-187852D01*
X157600Y-186771D01*
X156718Y-185888D01*
X155637Y-185264D01*
X154431Y-184941D01*
D02*
G37*
G36*
X134431D02*
X133183D01*
X131977Y-185264D01*
X130897Y-185888D01*
X130014Y-186771D01*
X129390Y-187852D01*
X129067Y-189057D01*
Y-190305D01*
X129390Y-191511D01*
X130014Y-192592D01*
X130897Y-193474D01*
X131977Y-194098D01*
X133183Y-194421D01*
X134431D01*
X135637Y-194098D01*
X136718Y-193474D01*
X137600Y-192592D01*
X138224Y-191511D01*
X138547Y-190305D01*
Y-189057D01*
X138224Y-187852D01*
X137600Y-186771D01*
X136718Y-185888D01*
X135637Y-185264D01*
X134431Y-184941D01*
D02*
G37*
G36*
X123431D02*
X122183D01*
X120977Y-185264D01*
X119897Y-185888D01*
X119014Y-186771D01*
X118390Y-187852D01*
X118067Y-189057D01*
Y-190305D01*
X118390Y-191511D01*
X119014Y-192592D01*
X119897Y-193474D01*
X120977Y-194098D01*
X122183Y-194421D01*
X123431D01*
X124637Y-194098D01*
X125718Y-193474D01*
X126600Y-192592D01*
X127224Y-191511D01*
X127547Y-190305D01*
Y-189057D01*
X127224Y-187852D01*
X126600Y-186771D01*
X125718Y-185888D01*
X124637Y-185264D01*
X123431Y-184941D01*
D02*
G37*
G36*
X103431D02*
X102183D01*
X100978Y-185264D01*
X99897Y-185888D01*
X99014Y-186771D01*
X98390Y-187852D01*
X98067Y-189057D01*
Y-190305D01*
X98390Y-191511D01*
X99014Y-192592D01*
X99897Y-193474D01*
X100978Y-194098D01*
X102183Y-194421D01*
X103431D01*
X104637Y-194098D01*
X105718Y-193474D01*
X106600Y-192592D01*
X107224Y-191511D01*
X107547Y-190305D01*
Y-189057D01*
X107224Y-187852D01*
X106600Y-186771D01*
X105718Y-185888D01*
X104637Y-185264D01*
X103431Y-184941D01*
D02*
G37*
G36*
X85119Y-203528D02*
X84173D01*
X83299Y-203890D01*
X82630Y-204558D01*
X82268Y-205433D01*
Y-206379D01*
X82630Y-207253D01*
X83299Y-207921D01*
X84173Y-208283D01*
X85119D01*
X85993Y-207921D01*
X86662Y-207253D01*
X87024Y-206379D01*
Y-205433D01*
X86662Y-204558D01*
X85993Y-203890D01*
X85119Y-203528D01*
D02*
G37*
G36*
X89449Y-211795D02*
X88503D01*
X87629Y-212157D01*
X86961Y-212826D01*
X86598Y-213700D01*
Y-214646D01*
X86961Y-215520D01*
X87629Y-216189D01*
X88503Y-216551D01*
X89449D01*
X90323Y-216189D01*
X90992Y-215520D01*
X91354Y-214646D01*
Y-213700D01*
X90992Y-212826D01*
X90323Y-212157D01*
X89449Y-211795D01*
D02*
G37*
G36*
X73308Y-249197D02*
X72362D01*
X71488Y-249559D01*
X70819Y-250228D01*
X70457Y-251102D01*
Y-252048D01*
X70819Y-252922D01*
X71488Y-253591D01*
X72362Y-253953D01*
X73308D01*
X74182Y-253591D01*
X74851Y-252922D01*
X75213Y-252048D01*
Y-251102D01*
X74851Y-250228D01*
X74182Y-249559D01*
X73308Y-249197D01*
D02*
G37*
G36*
X11103Y-251165D02*
X10157D01*
X9283Y-251527D01*
X8614Y-252196D01*
X8252Y-253070D01*
Y-254016D01*
X8614Y-254890D01*
X9283Y-255559D01*
X10157Y-255921D01*
X11103D01*
X11977Y-255559D01*
X12646Y-254890D01*
X13008Y-254016D01*
Y-253070D01*
X12646Y-252196D01*
X11977Y-251527D01*
X11103Y-251165D01*
D02*
G37*
G36*
X24489Y-253528D02*
X23543D01*
X22669Y-253890D01*
X22000Y-254558D01*
X21638Y-255433D01*
Y-256379D01*
X22000Y-257253D01*
X22669Y-257921D01*
X23543Y-258283D01*
X24489D01*
X25363Y-257921D01*
X26032Y-257253D01*
X26394Y-256379D01*
Y-255433D01*
X26032Y-254558D01*
X25363Y-253890D01*
X24489Y-253528D01*
D02*
G37*
G36*
X66268Y-255890D02*
X65228D01*
X64222Y-256159D01*
X63321Y-256680D01*
X62585Y-257416D01*
X62065Y-258317D01*
X61795Y-259322D01*
Y-260363D01*
X62065Y-261368D01*
X62585Y-262270D01*
X63321Y-263005D01*
X64222Y-263526D01*
X65228Y-263795D01*
X66268D01*
X67274Y-263526D01*
X68175Y-263005D01*
X68911Y-262270D01*
X69431Y-261368D01*
X69701Y-260363D01*
Y-259322D01*
X69431Y-258317D01*
X68911Y-257416D01*
X68665Y-257170D01*
X68175Y-256680D01*
X67274Y-256159D01*
X66268Y-255890D01*
D02*
G37*
G36*
X20993Y-275929D02*
X19952D01*
X18947Y-276199D01*
X18045Y-276719D01*
X17310Y-277455D01*
X16789Y-278356D01*
X16520Y-279362D01*
Y-280402D01*
X16789Y-281408D01*
X17310Y-282309D01*
X18045Y-283045D01*
X18947Y-283565D01*
X19952Y-283835D01*
X20993D01*
X21998Y-283565D01*
X22899Y-283045D01*
X23635Y-282309D01*
X24156Y-281408D01*
X24425Y-280402D01*
Y-279362D01*
X24156Y-278356D01*
X23635Y-277455D01*
X22899Y-276719D01*
X21998Y-276199D01*
X20993Y-275929D01*
D02*
G37*
G36*
X11544D02*
X10503D01*
X9498Y-276199D01*
X8597Y-276719D01*
X7861Y-277455D01*
X7340Y-278356D01*
X7071Y-279362D01*
Y-280402D01*
X7340Y-281408D01*
X7861Y-282309D01*
X8597Y-283045D01*
X9498Y-283565D01*
X10503Y-283835D01*
X11544D01*
X12549Y-283565D01*
X13451Y-283045D01*
X14187Y-282309D01*
X14707Y-281408D01*
X14976Y-280402D01*
Y-279362D01*
X14707Y-278356D01*
X14187Y-277455D01*
X13451Y-276719D01*
X12549Y-276199D01*
X11544Y-275929D01*
D02*
G37*
G36*
X33249Y-282465D02*
X32105D01*
X30999Y-282761D01*
X30008Y-283333D01*
X29199Y-284142D01*
X28627Y-285133D01*
X28331Y-286239D01*
Y-287383D01*
X28627Y-288489D01*
X29199Y-289480D01*
X30008Y-290289D01*
X30999Y-290861D01*
X32105Y-291158D01*
X33249D01*
X34355Y-290861D01*
X35346Y-290289D01*
X36155Y-289480D01*
X36727Y-288489D01*
X37024Y-287383D01*
Y-286239D01*
X36727Y-285133D01*
X36155Y-284142D01*
X35346Y-283333D01*
X34355Y-282761D01*
X33249Y-282465D01*
D02*
G37*
G36*
X44638Y-296596D02*
Y-296601D01*
X21508D01*
Y-296596D01*
X21472Y-296601D01*
X21018D01*
X20433Y-296717D01*
X19529Y-297092D01*
X19033Y-297423D01*
X18712Y-297743D01*
X18683Y-297766D01*
X18661Y-297795D01*
X18340Y-298115D01*
X18009Y-298611D01*
X17634Y-299516D01*
X17518Y-300101D01*
Y-300554D01*
X17513Y-300590D01*
X17518Y-300627D01*
Y-301080D01*
X17634Y-301665D01*
X18009Y-302570D01*
X18340Y-303066D01*
X18661Y-303386D01*
X18683Y-303415D01*
X18712Y-303438D01*
X19033Y-303758D01*
X19529Y-304090D01*
X20433Y-304464D01*
X21018Y-304581D01*
X21472D01*
X21508Y-304585D01*
Y-304581D01*
X44638D01*
Y-304585D01*
X44674Y-304581D01*
X45127D01*
X45713Y-304464D01*
X46617Y-304090D01*
X47113Y-303758D01*
X47433Y-303438D01*
X47462Y-303415D01*
X47485Y-303386D01*
D01*
X47805Y-303066D01*
X48137Y-302570D01*
X48511Y-301665D01*
X48628Y-301080D01*
Y-300627D01*
X48633Y-300590D01*
X48628Y-300554D01*
Y-300101D01*
X48511Y-299516D01*
X48137Y-298611D01*
X47805Y-298115D01*
X47485Y-297795D01*
D01*
X47462Y-297766D01*
X47433Y-297743D01*
D01*
X47113Y-297423D01*
X46617Y-297092D01*
X45713Y-296717D01*
X45127Y-296601D01*
X44674D01*
X44638Y-296596D01*
D02*
G37*
G36*
X33172Y-317504D02*
X32183D01*
X31227Y-317760D01*
X30371Y-318254D01*
X29672Y-318954D01*
X29177Y-319810D01*
X28921Y-320765D01*
Y-321754D01*
X29177Y-322710D01*
X29672Y-323566D01*
X30371Y-324265D01*
X31227Y-324760D01*
X32183Y-325016D01*
X33172D01*
X34127Y-324760D01*
X34983Y-324265D01*
X35683Y-323566D01*
X36177Y-322710D01*
X36433Y-321754D01*
Y-320765D01*
X36177Y-319810D01*
X35683Y-318954D01*
X34983Y-318254D01*
X34127Y-317760D01*
X33172Y-317504D01*
D02*
G37*
G36*
X93946Y-371874D02*
X92905D01*
X91900Y-372143D01*
X90998Y-372664D01*
X90262Y-373400D01*
X89742Y-374301D01*
X89473Y-375306D01*
Y-376347D01*
X89742Y-377352D01*
X90262Y-378254D01*
X90998Y-378990D01*
X91900Y-379510D01*
X92905Y-379780D01*
X93946D01*
X94951Y-379510D01*
X95852Y-378990D01*
X96588Y-378254D01*
X97109Y-377352D01*
X97378Y-376347D01*
Y-375306D01*
X97109Y-374301D01*
X96588Y-373400D01*
X95852Y-372664D01*
X94951Y-372143D01*
X93946Y-371874D01*
D02*
G37*
G36*
X83946D02*
X82905D01*
X81899Y-372143D01*
X80998Y-372664D01*
X80262Y-373400D01*
X79742Y-374301D01*
X79473Y-375306D01*
Y-376347D01*
X79742Y-377352D01*
X80262Y-378254D01*
X80998Y-378990D01*
X81899Y-379510D01*
X82905Y-379780D01*
X83946D01*
X84951Y-379510D01*
X85852Y-378990D01*
X86588Y-378254D01*
X87109Y-377352D01*
X87378Y-376347D01*
Y-375306D01*
X87109Y-374301D01*
X86588Y-373400D01*
X85852Y-372664D01*
X84951Y-372143D01*
X83946Y-371874D01*
D02*
G37*
G36*
X73946D02*
X72905D01*
X71899Y-372143D01*
X70998Y-372664D01*
X70262Y-373400D01*
X69742Y-374301D01*
X69472Y-375306D01*
Y-376347D01*
X69742Y-377352D01*
X70262Y-378254D01*
X70998Y-378990D01*
X71899Y-379510D01*
X72905Y-379780D01*
X73946D01*
X74951Y-379510D01*
X75852Y-378990D01*
X76588Y-378254D01*
X77109Y-377352D01*
X77378Y-376347D01*
Y-375306D01*
X77109Y-374301D01*
X76588Y-373400D01*
X75852Y-372664D01*
X74951Y-372143D01*
X73946Y-371874D01*
D02*
G37*
G36*
X63946D02*
X62905D01*
X61900Y-372143D01*
X60998Y-372664D01*
X60262Y-373400D01*
X59742Y-374301D01*
X59473Y-375306D01*
Y-376347D01*
X59742Y-377352D01*
X60262Y-378254D01*
X60998Y-378990D01*
X61900Y-379510D01*
X62905Y-379780D01*
X63946D01*
X64951Y-379510D01*
X65852Y-378990D01*
X66588Y-378254D01*
X67109Y-377352D01*
X67378Y-376347D01*
Y-375306D01*
X67109Y-374301D01*
X66588Y-373400D01*
X65852Y-372664D01*
X64951Y-372143D01*
X63946Y-371874D01*
D02*
G37*
G36*
X53946D02*
X52905D01*
X51899Y-372143D01*
X50998Y-372664D01*
X50262Y-373400D01*
X49742Y-374301D01*
X49472Y-375306D01*
Y-376347D01*
X49742Y-377352D01*
X50262Y-378254D01*
X50998Y-378990D01*
X51899Y-379510D01*
X52905Y-379780D01*
X53946D01*
X54951Y-379510D01*
X55852Y-378990D01*
X56588Y-378254D01*
X57109Y-377352D01*
X57378Y-376347D01*
Y-375306D01*
X57109Y-374301D01*
X56588Y-373400D01*
X55852Y-372664D01*
X54951Y-372143D01*
X53946Y-371874D01*
D02*
G37*
G36*
X43946D02*
X42905D01*
X41899Y-372143D01*
X40998Y-372664D01*
X40262Y-373400D01*
X39742Y-374301D01*
X39472Y-375306D01*
Y-376347D01*
X39742Y-377352D01*
X40262Y-378254D01*
X40998Y-378990D01*
X41899Y-379510D01*
X42905Y-379780D01*
X43946D01*
X44951Y-379510D01*
X45852Y-378990D01*
X46588Y-378254D01*
X47109Y-377352D01*
X47378Y-376347D01*
Y-375306D01*
X47109Y-374301D01*
X46588Y-373400D01*
X45852Y-372664D01*
X44951Y-372143D01*
X43946Y-371874D01*
D02*
G37*
G36*
X33946D02*
X32905D01*
X31899Y-372143D01*
X30998Y-372664D01*
X30262Y-373400D01*
X29742Y-374301D01*
X29472Y-375306D01*
Y-376347D01*
X29742Y-377352D01*
X30262Y-378254D01*
X30998Y-378990D01*
X31899Y-379510D01*
X32905Y-379780D01*
X33946D01*
X34951Y-379510D01*
X35852Y-378990D01*
X36588Y-378254D01*
X37109Y-377352D01*
X37378Y-376347D01*
Y-375306D01*
X37109Y-374301D01*
X36588Y-373400D01*
X35852Y-372664D01*
X34951Y-372143D01*
X33946Y-371874D01*
D02*
G37*
G36*
X23946D02*
X22905D01*
X21900Y-372143D01*
X20998Y-372664D01*
X20262Y-373400D01*
X19742Y-374301D01*
X19473Y-375306D01*
Y-376347D01*
X19742Y-377352D01*
X20262Y-378254D01*
X20998Y-378990D01*
X21900Y-379510D01*
X22905Y-379780D01*
X23946D01*
X24951Y-379510D01*
X25852Y-378990D01*
X26588Y-378254D01*
X27109Y-377352D01*
X27378Y-376347D01*
Y-375306D01*
X27109Y-374301D01*
X26588Y-373400D01*
X25852Y-372664D01*
X24951Y-372143D01*
X23946Y-371874D01*
D02*
G37*
G36*
X13946D02*
X12905D01*
X11900Y-372143D01*
X10998Y-372664D01*
X10262Y-373400D01*
X9742Y-374301D01*
X9472Y-375306D01*
Y-376347D01*
X9742Y-377352D01*
X10262Y-378254D01*
X10998Y-378990D01*
X11900Y-379510D01*
X12905Y-379780D01*
X13946D01*
X14951Y-379510D01*
X15852Y-378990D01*
X16588Y-378254D01*
X17109Y-377352D01*
X17378Y-376347D01*
Y-375306D01*
X17109Y-374301D01*
X16588Y-373400D01*
X15852Y-372664D01*
X14951Y-372143D01*
X13946Y-371874D01*
D02*
G37*
G36*
X93946Y-381874D02*
X92905D01*
X91900Y-382143D01*
X90998Y-382664D01*
X90262Y-383400D01*
X89742Y-384301D01*
X89473Y-385306D01*
Y-386347D01*
X89742Y-387352D01*
X90262Y-388254D01*
X90998Y-388990D01*
X91900Y-389510D01*
X92905Y-389779D01*
X93946D01*
X94951Y-389510D01*
X95852Y-388990D01*
X96588Y-388254D01*
X97109Y-387352D01*
X97378Y-386347D01*
Y-385306D01*
X97109Y-384301D01*
X96588Y-383400D01*
X95852Y-382664D01*
X94951Y-382143D01*
X93946Y-381874D01*
D02*
G37*
G36*
X83946D02*
X82905D01*
X81899Y-382143D01*
X80998Y-382664D01*
X80262Y-383400D01*
X79742Y-384301D01*
X79473Y-385306D01*
Y-386347D01*
X79742Y-387352D01*
X80262Y-388254D01*
X80998Y-388990D01*
X81899Y-389510D01*
X82905Y-389779D01*
X83946D01*
X84951Y-389510D01*
X85852Y-388990D01*
X86588Y-388254D01*
X87109Y-387352D01*
X87378Y-386347D01*
Y-385306D01*
X87109Y-384301D01*
X86588Y-383400D01*
X85852Y-382664D01*
X84951Y-382143D01*
X83946Y-381874D01*
D02*
G37*
%LPD*%
G36*
X173520Y-52530D02*
X174762Y-53045D01*
X175881Y-53792D01*
X176356Y-54268D01*
X176475Y-54387D01*
X176662Y-54666D01*
X176791Y-54977D01*
X176856Y-55307D01*
Y-55475D01*
Y-59268D01*
Y-59387D01*
X176810Y-59620D01*
X176719Y-59839D01*
X176587Y-60037D01*
X176503Y-60121D01*
X175856Y-60768D01*
X147434D01*
X146775Y-60637D01*
X146153Y-60379D01*
X145594Y-60005D01*
X145356Y-59768D01*
X145356Y-59768D01*
X145108Y-59543D01*
X144552Y-59171D01*
X143933Y-58915D01*
X143277Y-58784D01*
X142942Y-58768D01*
X140386D01*
X140289Y-58599D01*
X139590Y-57900D01*
X138733Y-57406D01*
X137778Y-57150D01*
X137284D01*
Y-54661D01*
X137778D01*
X138733Y-54405D01*
X139590Y-53911D01*
X140289Y-53212D01*
X140783Y-52355D01*
X140807Y-52268D01*
X172201D01*
X173520Y-52530D01*
D02*
G37*
G36*
X140157Y-93307D02*
X145276Y-98425D01*
Y-105512D01*
X130709D01*
X127953Y-102756D01*
X117323D01*
X110630Y-109449D01*
Y-140157D01*
X109055Y-141732D01*
X103937D01*
X100394Y-145276D01*
X93701D01*
X91339Y-142913D01*
Y-115919D01*
X98652Y-115871D01*
X103202Y-111382D01*
X103096Y-102328D01*
X108859Y-96581D01*
X113439Y-95944D01*
X125632Y-96096D01*
X128347Y-92913D01*
X140157Y-93307D01*
D02*
G37*
%LPC*%
G36*
X140237Y-98016D02*
X139291D01*
X138417Y-98378D01*
X137748Y-99047D01*
X137386Y-99921D01*
Y-100867D01*
X137748Y-101741D01*
X138417Y-102410D01*
X139291Y-102772D01*
X140237D01*
X141111Y-102410D01*
X141780Y-101741D01*
X142142Y-100867D01*
Y-99921D01*
X141780Y-99047D01*
X141111Y-98378D01*
X140237Y-98016D01*
D02*
G37*
G36*
X98386Y-117654D02*
X97086D01*
X95831Y-117990D01*
X94705Y-118640D01*
X93786Y-119559D01*
X93136Y-120685D01*
X92799Y-121941D01*
Y-123240D01*
X93136Y-124496D01*
X93786Y-125622D01*
X94705Y-126541D01*
X95831Y-127191D01*
X97086Y-127528D01*
X98386D01*
X99642Y-127191D01*
X100768Y-126541D01*
X101687Y-125622D01*
X102337Y-124496D01*
X102673Y-123240D01*
Y-121941D01*
X102337Y-120685D01*
X101687Y-119559D01*
X100768Y-118640D01*
X99642Y-117990D01*
X98386Y-117654D01*
D02*
G37*
G36*
X98512Y-134528D02*
X97212D01*
X95957Y-134864D01*
X94831Y-135514D01*
X93912Y-136433D01*
X93262Y-137559D01*
X92925Y-138815D01*
Y-140114D01*
X93262Y-141370D01*
X93912Y-142496D01*
X94831Y-143415D01*
X95957Y-144065D01*
X97212Y-144402D01*
X98512D01*
X99768Y-144065D01*
X100894Y-143415D01*
X101813Y-142496D01*
X102463Y-141370D01*
X102799Y-140114D01*
Y-138815D01*
X102463Y-137559D01*
X101813Y-136433D01*
X100894Y-135514D01*
X99768Y-134864D01*
X98512Y-134528D01*
D02*
G37*
%LPD*%
D56*
X11024Y-309882D02*
D03*
X20472D02*
D03*
X65748Y-318898D02*
D03*
X173425Y-385827D02*
D03*
X163425D02*
D03*
X153425D02*
D03*
X143425D02*
D03*
X133425D02*
D03*
X123425D02*
D03*
X113425D02*
D03*
X103425D02*
D03*
X73425D02*
D03*
X63425D02*
D03*
X53425D02*
D03*
X43425D02*
D03*
X33425D02*
D03*
X23425D02*
D03*
X13425D02*
D03*
D57*
X27677Y-326260D02*
D03*
Y-316260D02*
D03*
X37677D02*
D03*
Y-326260D02*
D03*
X159787Y-45175D02*
D03*
Y-35175D02*
D03*
X149787D02*
D03*
Y-45175D02*
D03*
X127284Y-60905D02*
D03*
X137284D02*
D03*
Y-50906D02*
D03*
X127284D02*
D03*
D59*
X97736Y-34008D02*
D03*
D60*
X183425Y-385827D02*
D03*
D61*
X185827Y-246063D02*
D03*
X166929Y-241339D02*
D03*
X160630Y-295276D02*
D03*
X19291Y-293307D02*
D03*
X19685Y-269291D02*
D03*
X14173Y-270079D02*
D03*
X185827Y-281496D02*
D03*
X155512Y-287008D02*
D03*
X159055Y-278740D02*
D03*
X175044Y-263591D02*
D03*
X168898Y-267323D02*
D03*
X182283D02*
D03*
Y-259055D02*
D03*
X168504D02*
D03*
X184646Y-233858D02*
D03*
X162598Y-233071D02*
D03*
X155905D02*
D03*
X134646Y-231890D02*
D03*
X127165D02*
D03*
X105905Y-231102D02*
D03*
X31102Y-255512D02*
D03*
X183071Y-65354D02*
D03*
X166535Y-81890D02*
D03*
X161417Y-77165D02*
D03*
X155512Y-81890D02*
D03*
X157087Y-71260D02*
D03*
X136221Y-81496D02*
D03*
X130709Y-76772D02*
D03*
X136221Y-72047D02*
D03*
X141651Y-58147D02*
D03*
X145276Y-60236D02*
D03*
X144882Y-104724D02*
D03*
X134252Y-134646D02*
D03*
X120552Y-134959D02*
D03*
X130315Y-129528D02*
D03*
X154400Y-131034D02*
D03*
X168760Y-130965D02*
D03*
X154793Y-111742D02*
D03*
X168366Y-111673D02*
D03*
X129528Y-112205D02*
D03*
X116142Y-112346D02*
D03*
X160356Y-51768D02*
D03*
X156856D02*
D03*
X153356D02*
D03*
X149356D02*
D03*
X145356D02*
D03*
X163356Y-60768D02*
D03*
X164356Y-51768D02*
D03*
X177856Y-56268D02*
D03*
X177356Y-60268D02*
D03*
X175856Y-52768D02*
D03*
X171856Y-51768D02*
D03*
X167856D02*
D03*
M02*
