M48
;Layer_Color=9474304
;FILE_FORMAT=2:5
INCH,LZ
;TYPE=PLATED
T1F00S00C0.01181
T2F00S00C0.01575
T3F00S00C0.02362
T4F00S00C0.03346
T5F00S00C0.03543
T6F00S00C0.03937
T7F00S00C0.04724
%
T01
X016063Y-0295276
X0159055Y-027874
X0168898Y-0267323
X0168504Y-0259055
X0175044Y-0263591
X0182283Y-0267323
Y-0259055
X0185827Y-0246063
X0184646Y-0233858
X0173622Y-0234646
X0162598Y-0233071
X0166929Y-0241339
X0185827Y-0281496
X0155512Y-0287008
X0155905Y-0233071
X0134646Y-023189
X0127165
X0105905Y-0231102
X0088976Y-0214173
X0084646Y-0205906
X0072835Y-0251575
X0031102Y-0255512
X0024016Y-0255906
X001063Y-0253543
X0014173Y-0270079
X0019685Y-0269291
X0019291Y-0293307
X0113779Y-0147638
X0114173Y-0134646
X0120552Y-0134959
X0134252Y-0134646
X0130315Y-0129528
X0123228Y-012126
X0129528Y-0112205
X0116142Y-0112346
X0116535Y-010748
X0139764Y-0100394
X0144882Y-0104724
X0154793Y-0111742
X01544Y-0131034
X0139764Y-0120866
X0137402Y-0150787
X014685Y-0150394
X0155512Y-008189
X0136221Y-0081496
Y-0072047
X0130709Y-0076772
X0141651Y-0058147
X0145276Y-0060236
X0145356Y-0051768
X0149356
X0153356
X0156856
X0160356
X0164356
X0167856
X0171856
X0175856Y-0052768
X0177856Y-0056268
X0177356Y-0060268
X0183071Y-0065354
X0163356Y-0060768
X0157087Y-007126
X0161417Y-0077165
X0166535Y-008189
X0159055Y-0101969
X0168366Y-0111673
X0159012Y-0121653
X016876Y-0130965
T02
X0145884Y-0080905
X0179349Y-0081398
T03
X0032677Y-0286811
T04
X0027677Y-032626
Y-031626
X0037677
Y-032626
X0032677Y-032126
X0127284Y-0060905
X0137284
Y-0050906
X0127284
X0132283Y-0055905
X0149787Y-0045175
Y-0035175
X0154787Y-0040175
X0159787Y-0045175
Y-0035175
T05
X0013425Y-0385827
X0023425
X0033425
X0043425
X0053425
X0063425
X0073425
X0083425
X0093425
X0103425
X0113425
X0123425
X0133425
X0143425
X0153425
Y-0375827
X0143425
X0133425
X0123425
X0113425
X0103425
X0093425
X0083425
X0073425
X0063425
X0053425
X0043425
X0033425
X0023425
X0013425
X0163425
Y-0385827
X0173425
X0183425
Y-0375827
X0173425
X0020472Y-0309882
X0011024
Y-0279882
X0020472
X0023425Y-0017874
X0013425
Y-0007874
X0023425
X0033425
Y-0017874
X0043425
Y-0007874
X0053425
Y-0017874
X0063425
Y-0007874
X0073425
Y-0017874
X0083425
Y-0007874
X0093425
Y-0017874
X0103425
Y-0007874
X0113425
Y-0017874
X0123425
Y-0007874
X0133425
Y-0017874
X0143425
Y-0007874
X0153425
Y-0017874
X0163425
Y-0007874
X0173425
Y-0017874
X0183425
Y-0007874
T06
X0065748Y-0318898
X0164807Y-0209681
Y-0189681
Y-0179681
Y-0169681
Y-0159681
X0184807
Y-0169681
Y-0179681
Y-0189681
Y-0209681
X0153807
Y-0189681
Y-0179681
Y-0169681
Y-0159681
X0133807
Y-0169681
Y-0179681
Y-0189681
X0122807
Y-0179681
Y-0169681
Y-0159681
X0102807
Y-0169681
Y-0179681
Y-0189681
Y-0209681
X0122807
X0133807
X0065748Y-0259842
T07
X0097862Y-0228047
Y-0139465
X0097736Y-0122591
Y-0034008
M30
