G04*
G04 #@! TF.GenerationSoftware,Altium Limited,Altium Designer,21.8.1 (53)*
G04*
G04 Layer_Physical_Order=1*
G04 Layer_Color=255*
%FSLAX25Y25*%
%MOIN*%
G70*
G04*
G04 #@! TF.SameCoordinates,0937BB6D-0895-473D-B1AA-8B930BF7CBED*
G04*
G04*
G04 #@! TF.FilePolarity,Positive*
G04*
G01*
G75*
G04:AMPARAMS|DCode=19|XSize=59.06mil|YSize=157.48mil|CornerRadius=14.76mil|HoleSize=0mil|Usage=FLASHONLY|Rotation=270.000|XOffset=0mil|YOffset=0mil|HoleType=Round|Shape=RoundedRectangle|*
%AMROUNDEDRECTD19*
21,1,0.05906,0.12795,0,0,270.0*
21,1,0.02953,0.15748,0,0,270.0*
1,1,0.02953,-0.06398,-0.01476*
1,1,0.02953,-0.06398,0.01476*
1,1,0.02953,0.06398,0.01476*
1,1,0.02953,0.06398,-0.01476*
%
%ADD19ROUNDEDRECTD19*%
G04:AMPARAMS|DCode=20|XSize=40.16mil|YSize=125.98mil|CornerRadius=10.04mil|HoleSize=0mil|Usage=FLASHONLY|Rotation=270.000|XOffset=0mil|YOffset=0mil|HoleType=Round|Shape=RoundedRectangle|*
%AMROUNDEDRECTD20*
21,1,0.04016,0.10591,0,0,270.0*
21,1,0.02008,0.12598,0,0,270.0*
1,1,0.02008,-0.05295,-0.01004*
1,1,0.02008,-0.05295,0.01004*
1,1,0.02008,0.05295,0.01004*
1,1,0.02008,0.05295,-0.01004*
%
%ADD20ROUNDEDRECTD20*%
%ADD21R,0.03150X0.01575*%
G04:AMPARAMS|DCode=22|XSize=39.37mil|YSize=62.99mil|CornerRadius=9.84mil|HoleSize=0mil|Usage=FLASHONLY|Rotation=270.000|XOffset=0mil|YOffset=0mil|HoleType=Round|Shape=RoundedRectangle|*
%AMROUNDEDRECTD22*
21,1,0.03937,0.04331,0,0,270.0*
21,1,0.01968,0.06299,0,0,270.0*
1,1,0.01968,-0.02165,-0.00984*
1,1,0.01968,-0.02165,0.00984*
1,1,0.01968,0.02165,0.00984*
1,1,0.01968,0.02165,-0.00984*
%
%ADD22ROUNDEDRECTD22*%
%ADD23R,0.08858X0.09252*%
G04:AMPARAMS|DCode=24|XSize=35.43mil|YSize=31.5mil|CornerRadius=7.87mil|HoleSize=0mil|Usage=FLASHONLY|Rotation=0.000|XOffset=0mil|YOffset=0mil|HoleType=Round|Shape=RoundedRectangle|*
%AMROUNDEDRECTD24*
21,1,0.03543,0.01575,0,0,0.0*
21,1,0.01968,0.03150,0,0,0.0*
1,1,0.01575,0.00984,-0.00787*
1,1,0.01575,-0.00984,-0.00787*
1,1,0.01575,-0.00984,0.00787*
1,1,0.01575,0.00984,0.00787*
%
%ADD24ROUNDEDRECTD24*%
%ADD25R,0.05512X0.03740*%
%ADD26R,0.09252X0.08858*%
%ADD27R,0.03937X0.06890*%
%ADD28R,0.09449X0.03937*%
%ADD29R,0.09449X0.12992*%
%ADD30R,0.21260X0.24410*%
%ADD31R,0.03937X0.08268*%
%ADD32R,0.03543X0.03150*%
%ADD33R,0.07087X0.04528*%
%ADD34R,0.06890X0.03937*%
%ADD35R,0.08465X0.03740*%
%ADD36R,0.08465X0.12795*%
%ADD55C,0.01968*%
%ADD56C,0.01575*%
%ADD57C,0.03937*%
%ADD58C,0.05906*%
%ADD59C,0.07874*%
G36*
X-122606Y-34110D02*
Y-46461D01*
X-128280D01*
Y-42684D01*
X-128341Y-42377D01*
X-128515Y-42117D01*
X-128776Y-41943D01*
X-129083Y-41881D01*
X-135559D01*
X-135866Y-41943D01*
X-136127Y-42117D01*
X-136301Y-42377D01*
X-136362Y-42684D01*
Y-46406D01*
X-136803Y-46642D01*
X-136868Y-46599D01*
X-137559Y-46461D01*
X-165477D01*
X-165600Y-46302D01*
X-166175Y-45860D01*
X-166846Y-45583D01*
X-167565Y-45488D01*
X-168284Y-45583D01*
X-168955Y-45860D01*
X-169530Y-46302D01*
X-176228Y-53000D01*
X-187567D01*
Y-37047D01*
X-164454D01*
Y-37370D01*
X-162385D01*
X-162319Y-37398D01*
X-161600Y-37492D01*
X-159434D01*
X-158715Y-37398D01*
X-158649Y-37370D01*
X-154415D01*
Y-34342D01*
X-154060Y-33989D01*
X-122606Y-34110D01*
D02*
G37*
G36*
X-25953Y-57496D02*
X-118650D01*
Y-55728D01*
X-129083D01*
Y-57496D01*
X-135559D01*
Y-42684D01*
X-129083D01*
Y-47264D01*
X-118650D01*
Y-39188D01*
X-117603Y-38142D01*
X-25953D01*
Y-57496D01*
D02*
G37*
G36*
X-218742Y-33943D02*
Y-34268D01*
Y-40555D01*
X-219454D01*
Y-45870D01*
X-216649D01*
X-216583Y-45897D01*
X-215863Y-45992D01*
X-214434D01*
X-213715Y-45897D01*
X-213649Y-45870D01*
X-209415D01*
Y-40555D01*
X-213182D01*
Y-37047D01*
X-188370D01*
Y-58508D01*
X-196505D01*
Y-59398D01*
X-200308D01*
Y-58547D01*
X-207395D01*
Y-60172D01*
X-209415D01*
Y-58665D01*
X-219454D01*
Y-63980D01*
X-217768D01*
Y-66035D01*
X-218718D01*
Y-70020D01*
X-226986D01*
X-227293Y-70081D01*
X-227553Y-70255D01*
X-227727Y-70516D01*
X-227753Y-70646D01*
X-231730D01*
X-231756Y-70516D01*
X-231930Y-70255D01*
X-232190Y-70081D01*
X-232497Y-70020D01*
X-245689D01*
X-246192Y-69517D01*
X-246160Y-69469D01*
X-246099Y-69165D01*
X-245942Y-68786D01*
X-245848Y-68067D01*
Y-42974D01*
X-232476Y-29603D01*
X-223082D01*
X-218742Y-33943D01*
D02*
G37*
G36*
X-164454Y-50165D02*
Y-55480D01*
X-161241D01*
Y-56585D01*
X-161110Y-57244D01*
X-164734Y-60868D01*
X-170484Y-55117D01*
X-165600Y-50233D01*
X-165477Y-50074D01*
X-164916D01*
X-164454Y-50165D01*
D02*
G37*
G36*
X-350291Y-53539D02*
Y-55862D01*
X-341827D01*
Y-54413D01*
X-318225D01*
X-317161Y-55476D01*
Y-60598D01*
X-307122D01*
Y-59747D01*
X-306421D01*
X-306291Y-59877D01*
Y-63157D01*
X-298729D01*
X-298538Y-63619D01*
X-300876Y-65957D01*
X-301267Y-66543D01*
X-301405Y-67234D01*
Y-71425D01*
X-306291D01*
Y-74245D01*
X-307122D01*
Y-73394D01*
X-317161D01*
Y-75193D01*
X-345017Y-75193D01*
X-351670D01*
X-351977Y-75254D01*
X-352238Y-75428D01*
X-352238Y-75428D01*
X-352494Y-75685D01*
X-352654D01*
X-354669Y-73669D01*
Y-53260D01*
X-350648Y-53188D01*
X-350291Y-53539D01*
D02*
G37*
G36*
X-25953Y-78205D02*
X-113787D01*
X-122579Y-86996D01*
X-126059D01*
Y-90224D01*
X-126216Y-90382D01*
X-131932D01*
X-132483Y-89831D01*
X-133059Y-89389D01*
X-133729Y-89111D01*
X-134449Y-89016D01*
X-135168Y-89111D01*
X-135839Y-89389D01*
X-136414Y-89831D01*
X-136537Y-89990D01*
X-154582D01*
X-155273Y-90127D01*
X-155296Y-90142D01*
X-174386D01*
X-174662Y-89783D01*
X-175238Y-89341D01*
X-175908Y-89063D01*
X-176627Y-88968D01*
X-187551D01*
X-188107Y-88412D01*
X-188682Y-87971D01*
X-189119Y-87790D01*
Y-87622D01*
X-189892D01*
X-190072Y-87598D01*
X-202210D01*
X-202929Y-87693D01*
X-203600Y-87971D01*
X-204175Y-88412D01*
X-204250Y-88487D01*
X-204659Y-88433D01*
X-204905D01*
X-205096Y-87971D01*
X-203622Y-86496D01*
X-203021Y-86417D01*
X-202350Y-86140D01*
X-202183Y-86011D01*
X-202141Y-86003D01*
X-201621Y-85655D01*
X-201273Y-85134D01*
X-201212Y-84830D01*
X-201055Y-84452D01*
X-200960Y-83732D01*
X-201055Y-83013D01*
X-201212Y-82634D01*
X-201273Y-82330D01*
X-201621Y-81810D01*
X-202141Y-81462D01*
X-202183Y-81453D01*
X-202350Y-81325D01*
X-203021Y-81047D01*
X-203740Y-80953D01*
X-204789D01*
X-205508Y-81047D01*
X-206179Y-81325D01*
X-206754Y-81767D01*
X-210969Y-85981D01*
X-213182Y-83768D01*
Y-82268D01*
X-213206Y-82087D01*
Y-78035D01*
X-218718D01*
Y-82087D01*
X-218742Y-82268D01*
Y-82323D01*
X-226986D01*
Y-78035D01*
X-232497D01*
Y-82323D01*
X-249117D01*
X-249627Y-81813D01*
Y-70823D01*
X-248808D01*
X-248627Y-70847D01*
X-248447Y-70823D01*
X-232497D01*
Y-74500D01*
X-226986D01*
Y-70823D01*
X-218718D01*
Y-74500D01*
X-213206D01*
Y-70823D01*
X-210127D01*
X-206127Y-66823D01*
X-134232D01*
X-135421Y-65634D01*
X-135281Y-65295D01*
X-135281D01*
Y-61903D01*
X-131677Y-58299D01*
X-25953D01*
Y-78205D01*
D02*
G37*
G36*
X-268724Y-78461D02*
Y-80385D01*
X-269027Y-80838D01*
X-269149Y-81453D01*
Y-83027D01*
X-269027Y-83642D01*
X-268679Y-84163D01*
X-268158Y-84511D01*
X-267543Y-84633D01*
X-266524D01*
X-264059Y-87098D01*
Y-95996D01*
X-267288D01*
X-268548Y-94736D01*
X-269069Y-94388D01*
X-269684Y-94266D01*
X-269684Y-94266D01*
X-276310D01*
X-278618Y-91957D01*
Y-89197D01*
X-285705D01*
Y-91957D01*
X-288175Y-94427D01*
X-295796D01*
X-296488Y-94565D01*
X-297074Y-94956D01*
X-297586Y-95469D01*
X-300936Y-92119D01*
X-300744Y-91658D01*
X-297827D01*
Y-86146D01*
X-301056D01*
X-301368Y-85937D01*
X-302059Y-85800D01*
X-302787D01*
X-303424Y-85164D01*
X-304010Y-84772D01*
X-304701Y-84635D01*
X-307122D01*
Y-83784D01*
X-317161D01*
Y-84635D01*
X-343504D01*
X-344195Y-84772D01*
X-344781Y-85164D01*
X-345614Y-85996D01*
X-350059D01*
X-350089Y-86026D01*
X-353896Y-82219D01*
X-354482Y-81827D01*
X-355173Y-81690D01*
X-358197D01*
X-358888Y-81827D01*
X-359029Y-81921D01*
X-360559D01*
Y-85071D01*
X-359029D01*
X-358888Y-85165D01*
X-358197Y-85302D01*
X-355922D01*
X-352643Y-88580D01*
X-362559Y-98496D01*
X-363477D01*
X-363668Y-98034D01*
X-363219Y-97584D01*
X-362827Y-96998D01*
X-362690Y-96307D01*
Y-85071D01*
X-362134D01*
Y-82421D01*
X-362134Y-81921D01*
X-362134D01*
Y-81921D01*
X-362134D01*
Y-78772D01*
Y-75996D01*
X-360559D01*
Y-78772D01*
X-359029D01*
X-358888Y-78866D01*
X-358197Y-79003D01*
X-355425D01*
X-354734Y-78866D01*
X-354148Y-78474D01*
X-351670Y-75996D01*
X-345017D01*
X-317161Y-75996D01*
Y-78709D01*
X-307122D01*
Y-77858D01*
X-305405D01*
X-304714Y-77720D01*
X-304128Y-77328D01*
X-303737Y-76937D01*
X-297827D01*
Y-75787D01*
X-294953Y-72913D01*
X-285705D01*
Y-73886D01*
X-284167D01*
Y-75406D01*
X-285118D01*
Y-80130D01*
X-280000D01*
Y-75406D01*
X-280554D01*
Y-73886D01*
X-278618D01*
Y-72913D01*
X-274271D01*
X-268724Y-78461D01*
D02*
G37*
G36*
X-227788Y-82323D02*
X-227727Y-82630D01*
X-227553Y-82890D01*
X-227293Y-83065D01*
X-226986Y-83126D01*
X-218742D01*
Y-88555D01*
X-219454D01*
Y-93870D01*
X-216649D01*
X-216583Y-93897D01*
X-215863Y-93992D01*
X-205317D01*
X-205260Y-94016D01*
X-204541Y-94110D01*
X-203163D01*
X-202443Y-94016D01*
X-202377Y-93988D01*
X-200308D01*
Y-93158D01*
X-191224D01*
X-190668Y-93713D01*
X-190092Y-94155D01*
X-189422Y-94433D01*
X-188702Y-94528D01*
X-187182D01*
Y-96017D01*
X-201584D01*
X-202275Y-96154D01*
X-202861Y-96545D01*
X-202863Y-96547D01*
X-207395D01*
Y-99916D01*
X-207430Y-100091D01*
Y-102126D01*
X-211969Y-106665D01*
X-219454D01*
Y-111980D01*
X-209415D01*
Y-111129D01*
X-199994D01*
X-199302Y-110992D01*
X-198716Y-110600D01*
X-195029Y-106913D01*
X-189119D01*
Y-101402D01*
X-197584D01*
Y-104359D01*
X-200742Y-107517D01*
X-207058D01*
X-207249Y-107054D01*
X-204346Y-104151D01*
X-203955Y-103565D01*
X-203817Y-102874D01*
Y-101862D01*
X-200308D01*
Y-99629D01*
X-187182D01*
Y-100528D01*
X-178521D01*
Y-99283D01*
X-173499D01*
X-172807Y-99145D01*
X-172221Y-98754D01*
X-170826Y-97358D01*
X-168263D01*
Y-93354D01*
X-162128D01*
X-161937Y-93854D01*
X-166629Y-98545D01*
X-167021Y-99132D01*
X-167158Y-99823D01*
Y-109170D01*
X-167021Y-109861D01*
X-166629Y-110447D01*
X-165476Y-111600D01*
X-164890Y-111992D01*
X-164199Y-112129D01*
X-154868D01*
X-152430Y-114567D01*
Y-115591D01*
X-152395Y-115765D01*
Y-117362D01*
X-150798D01*
X-150623Y-117397D01*
X-150449Y-117362D01*
X-147863D01*
X-146275Y-118950D01*
X-145689Y-119342D01*
X-145343Y-119411D01*
X-145178Y-119953D01*
X-148128Y-122903D01*
X-153915D01*
Y-121665D01*
X-163954D01*
Y-126980D01*
X-153915D01*
Y-126516D01*
X-147380D01*
X-146689Y-126378D01*
X-146103Y-125987D01*
X-141529Y-121413D01*
X-139852D01*
Y-124993D01*
X-148375Y-133517D01*
X-161982D01*
Y-131090D01*
X-167493D01*
Y-138677D01*
X-216339D01*
X-248843Y-106173D01*
Y-85571D01*
X-248342Y-85364D01*
X-248194Y-85512D01*
X-232968D01*
Y-83126D01*
X-232497D01*
X-232190Y-83065D01*
X-231930Y-82890D01*
X-231756Y-82630D01*
X-231695Y-82323D01*
Y-78838D01*
X-227788D01*
Y-82323D01*
D02*
G37*
G36*
X-373795Y-75996D02*
X-371371Y-78420D01*
X-371309Y-78765D01*
Y-78980D01*
X-371443Y-79069D01*
X-375852Y-83479D01*
X-376244Y-84065D01*
X-376381Y-84756D01*
Y-89042D01*
X-381559D01*
Y-77996D01*
X-379559Y-75996D01*
X-373795D01*
D02*
G37*
G36*
X-306291Y-91658D02*
X-302130D01*
X-301846Y-91940D01*
X-301739Y-92119D01*
X-301677Y-92427D01*
X-301503Y-92687D01*
X-298154Y-96036D01*
X-297894Y-96210D01*
X-297586Y-96272D01*
X-297279Y-96210D01*
X-297019Y-96036D01*
X-296562Y-95580D01*
X-296175Y-95321D01*
X-295717Y-95230D01*
X-288175D01*
X-287867Y-95169D01*
X-287607Y-94995D01*
X-286187Y-93575D01*
X-284118D01*
X-283135Y-96667D01*
X-283430Y-97071D01*
X-285705D01*
Y-99694D01*
X-287337D01*
Y-98449D01*
X-295998D01*
Y-101997D01*
X-296504Y-102502D01*
X-296895Y-103088D01*
X-297033Y-103779D01*
Y-104415D01*
X-298307Y-105690D01*
X-306086D01*
X-307122Y-104654D01*
Y-101894D01*
X-317161D01*
Y-107016D01*
X-317725Y-107580D01*
X-341827D01*
Y-106130D01*
X-350291D01*
Y-110457D01*
X-358197D01*
X-359205Y-109449D01*
Y-96277D01*
X-352723Y-89795D01*
X-351252D01*
X-351199Y-89830D01*
X-351087Y-89853D01*
X-351027Y-90154D01*
X-350679Y-90675D01*
X-350158Y-91023D01*
X-349543Y-91145D01*
X-347575D01*
X-346960Y-91023D01*
X-346439Y-90675D01*
X-346235Y-90368D01*
X-345625D01*
X-344934Y-90231D01*
X-344348Y-89839D01*
X-342756Y-88247D01*
X-317161D01*
Y-89098D01*
X-307122D01*
Y-88247D01*
X-306291D01*
Y-91658D01*
D02*
G37*
G36*
X-25953Y-96996D02*
X-134059D01*
X-137976Y-93079D01*
Y-90793D01*
X-136537D01*
X-136485Y-90782D01*
X-136432Y-90786D01*
X-136332Y-90752D01*
X-136229Y-90732D01*
X-136185Y-90702D01*
X-136135Y-90685D01*
X-136056Y-90616D01*
X-135969Y-90557D01*
X-135939Y-90513D01*
X-135899Y-90478D01*
X-135842Y-90403D01*
X-135434Y-90090D01*
X-134959Y-89893D01*
X-134449Y-89826D01*
X-133939Y-89893D01*
X-133464Y-90090D01*
X-133014Y-90435D01*
X-132500Y-90949D01*
X-132239Y-91123D01*
X-131932Y-91185D01*
X-126216D01*
X-125909Y-91123D01*
X-125649Y-90949D01*
X-125649Y-90949D01*
X-125491Y-90792D01*
X-125317Y-90532D01*
X-125256Y-90224D01*
Y-89272D01*
X-118650D01*
Y-84202D01*
X-113455Y-79008D01*
X-25953D01*
Y-96996D01*
D02*
G37*
G36*
X-366858Y-85071D02*
X-366302D01*
Y-95559D01*
X-369240Y-98496D01*
X-381559D01*
Y-96611D01*
X-370445D01*
X-369562Y-96436D01*
X-368813Y-95935D01*
X-368313Y-95186D01*
X-368137Y-94303D01*
Y-91350D01*
X-368313Y-90467D01*
X-368813Y-89718D01*
X-369562Y-89218D01*
X-370445Y-89042D01*
X-372768D01*
Y-85504D01*
X-369417Y-82153D01*
X-366858D01*
Y-85071D01*
D02*
G37*
G36*
X-338059Y-138496D02*
X-304024D01*
Y-134646D01*
X-256402D01*
X-232968Y-158079D01*
X-133189D01*
X-122858Y-147748D01*
X-25953D01*
Y-170327D01*
X-259630D01*
Y-165213D01*
X-268494D01*
X-273279Y-160427D01*
Y-154713D01*
X-270146D01*
Y-144280D01*
X-280973D01*
Y-154713D01*
X-278839D01*
Y-161579D01*
X-278744Y-162298D01*
X-278466Y-162969D01*
X-278025Y-163544D01*
X-272314Y-169254D01*
X-272506Y-169716D01*
X-287976D01*
X-288157Y-169740D01*
X-293488D01*
Y-170327D01*
Y-170693D01*
X-353756D01*
Y-156496D01*
X-353756Y-156496D01*
X-353817Y-156189D01*
X-353991Y-155928D01*
X-353991Y-155928D01*
X-368491Y-141428D01*
X-368752Y-141254D01*
X-369059Y-141193D01*
X-381059D01*
Y-110996D01*
X-379059Y-108996D01*
X-367559D01*
X-338059Y-138496D01*
D02*
G37*
G36*
X-260433Y-170327D02*
X-260372Y-170635D01*
X-260198Y-170895D01*
X-259937Y-171069D01*
X-259630Y-171130D01*
X-25953D01*
X-25701Y-171337D01*
Y-186803D01*
X-274756D01*
Y-176996D01*
X-274817Y-176689D01*
X-274991Y-176428D01*
X-276059Y-175361D01*
Y-170519D01*
X-272506D01*
X-272199Y-170458D01*
X-271938Y-170284D01*
X-271764Y-170024D01*
X-271764Y-170024D01*
X-271637Y-169716D01*
X-260433D01*
Y-170327D01*
D02*
G37*
G36*
X-354559Y-156496D02*
Y-171496D01*
X-293488D01*
Y-175252D01*
X-288157D01*
X-287976Y-175276D01*
X-277279D01*
X-275559Y-176996D01*
Y-192996D01*
X-293605D01*
X-293734Y-192829D01*
X-305343Y-181220D01*
Y-175728D01*
X-315776D01*
Y-177602D01*
X-321022D01*
X-321307Y-177383D01*
Y-176650D01*
X-323556D01*
X-323866Y-176609D01*
X-324176Y-176650D01*
X-326819D01*
Y-177685D01*
X-327236Y-178005D01*
X-327432Y-178201D01*
X-328190Y-179188D01*
X-328666Y-180338D01*
X-328828Y-181571D01*
X-328666Y-182804D01*
X-328190Y-183953D01*
X-327432Y-184940D01*
X-326819Y-185411D01*
Y-186492D01*
X-321307D01*
Y-185411D01*
X-320962Y-185146D01*
X-315776D01*
Y-186555D01*
X-310678D01*
X-304698Y-192534D01*
X-304890Y-192996D01*
X-378559D01*
X-381059Y-190496D01*
Y-141996D01*
X-369059D01*
X-354559Y-156496D01*
D02*
G37*
G36*
X-294339Y-193359D02*
X-294243Y-193485D01*
X-294203Y-193520D01*
X-294173Y-193564D01*
X-294086Y-193622D01*
X-294007Y-193691D01*
X-293957Y-193708D01*
X-293913Y-193738D01*
X-293810Y-193758D01*
X-293710Y-193792D01*
X-293657Y-193789D01*
X-293605Y-193799D01*
X-275559D01*
X-275252Y-193738D01*
X-274991Y-193564D01*
X-274817Y-193303D01*
X-274756Y-192996D01*
Y-187606D01*
X-25953D01*
Y-205449D01*
X-308559D01*
Y-193799D01*
X-304890D01*
X-304583Y-193738D01*
X-304322Y-193564D01*
X-304148Y-193303D01*
X-304148Y-193303D01*
X-303957Y-192841D01*
X-303957Y-192841D01*
X-303896Y-192534D01*
X-303932Y-192350D01*
X-303957Y-192227D01*
X-304131Y-191966D01*
X-304131Y-191966D01*
X-308559Y-187538D01*
Y-186299D01*
X-301399D01*
X-294339Y-193359D01*
D02*
G37*
D19*
X-376842Y-169165D02*
D03*
Y-158260D02*
D03*
Y-147354D02*
D03*
Y-136449D02*
D03*
Y-125543D02*
D03*
Y-114638D02*
D03*
Y-103732D02*
D03*
Y-92827D02*
D03*
X-442276Y-98280D02*
D03*
Y-109185D02*
D03*
Y-120091D02*
D03*
Y-130996D02*
D03*
Y-141902D02*
D03*
Y-152807D02*
D03*
Y-163713D02*
D03*
D20*
X-490882Y-33161D02*
D03*
X-510882D02*
D03*
X-490882Y-43161D02*
D03*
X-510882D02*
D03*
X-490882Y-53161D02*
D03*
X-510882D02*
D03*
X-490882Y-63161D02*
D03*
X-510882D02*
D03*
X-490882Y-73161D02*
D03*
X-510882D02*
D03*
X-490882Y-83161D02*
D03*
X-510882D02*
D03*
X-490882Y-93161D02*
D03*
X-510882D02*
D03*
X-490882Y-103161D02*
D03*
X-510882D02*
D03*
X-490882Y-113161D02*
D03*
X-510882D02*
D03*
X-490882Y-123161D02*
D03*
X-510882D02*
D03*
X-490882Y-133161D02*
D03*
X-510882D02*
D03*
X-490882Y-143161D02*
D03*
X-510882D02*
D03*
X-490882Y-153161D02*
D03*
X-510882D02*
D03*
X-490882Y-163161D02*
D03*
X-510882D02*
D03*
X-490882Y-173161D02*
D03*
X-510882D02*
D03*
X-490882Y-183161D02*
D03*
X-510882D02*
D03*
X-490882Y-193161D02*
D03*
X-510882D02*
D03*
X-490882Y-203161D02*
D03*
X-510882D02*
D03*
X-52220D02*
D03*
X-32221D02*
D03*
X-52220Y-193161D02*
D03*
X-32221D02*
D03*
X-52220Y-183161D02*
D03*
X-32221D02*
D03*
X-52220Y-173161D02*
D03*
X-32221D02*
D03*
X-52220Y-163161D02*
D03*
X-32221D02*
D03*
X-52220Y-153161D02*
D03*
X-32221D02*
D03*
X-52220Y-143161D02*
D03*
X-32221D02*
D03*
X-52220Y-133161D02*
D03*
X-32221D02*
D03*
X-52220Y-123161D02*
D03*
X-32221D02*
D03*
X-52220Y-113161D02*
D03*
X-32221D02*
D03*
X-52220Y-103161D02*
D03*
X-32221D02*
D03*
X-52220Y-93161D02*
D03*
X-32221D02*
D03*
X-52220Y-83161D02*
D03*
X-32221D02*
D03*
X-52220Y-73161D02*
D03*
X-32221D02*
D03*
X-52220Y-63161D02*
D03*
X-32221D02*
D03*
X-52220Y-53161D02*
D03*
X-32221D02*
D03*
X-52220Y-43161D02*
D03*
X-32221D02*
D03*
X-52220Y-33161D02*
D03*
X-32221D02*
D03*
D21*
X-364496Y-74047D02*
D03*
Y-77197D02*
D03*
Y-80347D02*
D03*
Y-83496D02*
D03*
X-358197D02*
D03*
Y-80347D02*
D03*
Y-77197D02*
D03*
Y-74047D02*
D03*
D22*
X-254638Y-56646D02*
D03*
Y-44835D02*
D03*
X-264717Y-44835D02*
D03*
Y-56646D02*
D03*
X-274795Y-56646D02*
D03*
Y-44835D02*
D03*
D23*
X-123866Y-41850D02*
D03*
Y-61142D02*
D03*
Y-83858D02*
D03*
Y-103150D02*
D03*
X-310559Y-181142D02*
D03*
Y-161850D02*
D03*
D24*
X-203740Y-83732D02*
D03*
Y-78220D02*
D03*
X-165945Y-69370D02*
D03*
Y-63858D02*
D03*
X-248627Y-73579D02*
D03*
Y-68067D02*
D03*
Y-85079D02*
D03*
Y-79567D02*
D03*
X-348559Y-83240D02*
D03*
Y-88752D02*
D03*
Y-73240D02*
D03*
Y-78752D02*
D03*
X-298559Y-168240D02*
D03*
Y-173752D02*
D03*
X-350559Y-168996D02*
D03*
Y-174508D02*
D03*
X-266559Y-93240D02*
D03*
Y-98752D02*
D03*
X-266559Y-82240D02*
D03*
Y-87752D02*
D03*
D25*
X-138824Y-62638D02*
D03*
Y-70512D02*
D03*
X-142352Y-87831D02*
D03*
Y-95705D02*
D03*
X-149352Y-44331D02*
D03*
Y-52205D02*
D03*
X-148852Y-114705D02*
D03*
Y-106831D02*
D03*
X-203852Y-99205D02*
D03*
Y-91331D02*
D03*
Y-53331D02*
D03*
Y-61205D02*
D03*
X-282161Y-91854D02*
D03*
Y-99728D02*
D03*
Y-71228D02*
D03*
Y-63354D02*
D03*
D26*
X-275559Y-149496D02*
D03*
X-294850D02*
D03*
D27*
X-162962Y-25268D02*
D03*
X-176742D02*
D03*
X-178517Y-135323D02*
D03*
X-164738D02*
D03*
X-229742Y-34268D02*
D03*
X-215962D02*
D03*
X-215962Y-70268D02*
D03*
X-229742D02*
D03*
X-229742Y-82268D02*
D03*
X-215962D02*
D03*
D28*
X-287976Y-163441D02*
D03*
Y-172496D02*
D03*
Y-181551D02*
D03*
D29*
X-265142Y-172496D02*
D03*
D30*
X-333059Y-154996D02*
D03*
D31*
X-324063Y-181571D02*
D03*
X-342055Y-181571D02*
D03*
D32*
X-178420Y-63961D02*
D03*
X-178381Y-70496D02*
D03*
X-152815Y-63205D02*
D03*
X-152776Y-69740D02*
D03*
X-170861Y-88461D02*
D03*
X-170821Y-94996D02*
D03*
X-157098Y-88461D02*
D03*
X-157059Y-94996D02*
D03*
X-273813Y-99059D02*
D03*
X-273852Y-92524D02*
D03*
X-282520Y-84303D02*
D03*
X-282559Y-77768D02*
D03*
D33*
X-182852Y-97476D02*
D03*
Y-86059D02*
D03*
X-192175Y-72976D02*
D03*
Y-61559D02*
D03*
X-291667Y-90083D02*
D03*
Y-101500D02*
D03*
Y-61583D02*
D03*
Y-73000D02*
D03*
D34*
X-139852Y-104878D02*
D03*
Y-118658D02*
D03*
X-140352Y-54658D02*
D03*
Y-40878D02*
D03*
X-193352Y-90378D02*
D03*
Y-104157D02*
D03*
X-302059Y-102681D02*
D03*
Y-88902D02*
D03*
Y-60402D02*
D03*
Y-74181D02*
D03*
X-346059Y-66886D02*
D03*
Y-53106D02*
D03*
Y-108886D02*
D03*
Y-95106D02*
D03*
D35*
X-158934Y-124323D02*
D03*
Y-115268D02*
D03*
Y-106213D02*
D03*
X-159434Y-52823D02*
D03*
Y-43768D02*
D03*
Y-34713D02*
D03*
X-312142Y-76051D02*
D03*
Y-66996D02*
D03*
Y-57941D02*
D03*
Y-104551D02*
D03*
Y-95496D02*
D03*
Y-86441D02*
D03*
X-214434Y-109323D02*
D03*
Y-100268D02*
D03*
Y-91213D02*
D03*
Y-61323D02*
D03*
Y-52268D02*
D03*
Y-43213D02*
D03*
D36*
X-181769Y-115268D02*
D03*
X-182269Y-43768D02*
D03*
X-334976Y-66996D02*
D03*
Y-95496D02*
D03*
X-237269Y-100268D02*
D03*
Y-52268D02*
D03*
D55*
X-32221Y-33161D02*
X-30236D01*
X-52220D02*
X-32221D01*
X-140352Y-40878D02*
X-123091D01*
X-149352Y-44331D02*
X-148966D01*
X-181706D02*
X-149352D01*
X-32221Y-103161D02*
X-29228D01*
X-52220D02*
X-32221D01*
X-123602D02*
X-52220D01*
X-124874Y-101890D02*
X-123602Y-103161D01*
X-148966Y-105945D02*
X-144395D01*
X-149852Y-106831D02*
X-148966Y-105945D01*
X-32221Y-113161D02*
X-30488D01*
X-52220D02*
X-32221D01*
X-112005D02*
X-52220D01*
X-304331Y-59606D02*
X-302059D01*
X-32221Y-123161D02*
X-30740D01*
X-52220D02*
X-32221D01*
X-115657D02*
X-52220D01*
X-32221Y-133161D02*
X-30740D01*
X-52220D02*
X-32221D01*
X-119862D02*
X-52220D01*
X-167565Y-48268D02*
X-137559D01*
X-154582Y-91796D02*
X-134449D01*
X-317476Y-52606D02*
X-312142Y-57941D01*
X-344583Y-52606D02*
X-317476D01*
X-312142Y-57941D02*
X-305673D01*
X-343504Y-86441D02*
X-304701D01*
X-345625Y-88562D02*
X-343504Y-86441D01*
X-316976Y-109386D02*
X-312142Y-104551D01*
X-344583Y-109386D02*
X-316976D01*
X-312142Y-104551D02*
X-309780D01*
X-348559Y-88752D02*
X-348369Y-88562D01*
X-345625D01*
X-448862Y-96349D02*
X-446931Y-98280D01*
X-448906Y-94835D02*
X-448862Y-94879D01*
X-446931Y-98280D02*
X-442276D01*
X-448862Y-96349D02*
Y-94879D01*
X-448906Y-94835D02*
Y-67622D01*
X-430512Y-49228D01*
X-385661D01*
X-381378Y-53512D01*
Y-65858D02*
X-370039Y-77197D01*
X-381378Y-65858D02*
Y-53512D01*
X-370039Y-77197D02*
X-364496D01*
X-376506Y-92827D02*
X-374575Y-90896D01*
X-376842Y-92827D02*
X-376506D01*
X-374575Y-90896D02*
Y-84756D01*
X-370165Y-80347D01*
X-364496D01*
X-371921Y-103732D02*
X-364496Y-96307D01*
Y-83496D01*
X-376842Y-103732D02*
X-371921D01*
X-353284Y-80347D02*
X-350980Y-82650D01*
X-349150D01*
X-358197Y-80347D02*
X-353284D01*
X-349150Y-82650D02*
X-348559Y-83240D01*
X-355425Y-77197D02*
X-351576Y-73348D01*
X-348666D01*
X-358197Y-77197D02*
X-355425D01*
X-348666Y-73348D02*
X-348559Y-73240D01*
X-343559D01*
X-358197Y-83496D02*
X-355173D01*
X-350508Y-88161D01*
X-349150D02*
X-348559Y-88752D01*
X-350508Y-88161D02*
X-349150D01*
X-123866Y-41653D02*
X-123091Y-40878D01*
X-115177Y-33161D02*
X-52220D01*
X-123866Y-41850D02*
Y-41653D01*
X-120421Y-38209D02*
X-120224D01*
X-115177Y-33161D01*
X-135387Y-101890D02*
X-124874D01*
X-141804Y-142961D02*
X-112005Y-113161D01*
X-139740Y-147244D02*
X-115657Y-123161D01*
X-138480Y-151779D02*
X-119862Y-133161D01*
X-222276Y-151779D02*
X-138480D01*
X-220311Y-147244D02*
X-139740D01*
X-262059Y-111996D02*
X-222276Y-151779D01*
X-257559Y-109996D02*
X-220311Y-147244D01*
X-253059Y-108496D02*
X-218595Y-142961D01*
X-141804D01*
X-123091Y-40878D02*
X-120421Y-38209D01*
X-203852Y-61205D02*
X-181373D01*
X-178617Y-63961D01*
X-178420D01*
X-159434Y-56585D02*
Y-52823D01*
Y-56585D02*
X-153602Y-62417D01*
Y-62614D02*
X-153579Y-62638D01*
X-138824D01*
X-157072Y-52514D02*
X-150161D01*
X-153602Y-62614D02*
Y-62417D01*
X-149852Y-52205D02*
X-148966Y-53091D01*
X-159434Y-52823D02*
X-157072D01*
X-138375Y-104878D02*
X-135387Y-101890D01*
X-204625Y-61978D02*
X-203852Y-61205D01*
X-213779Y-61978D02*
X-204625D01*
X-214434Y-61323D02*
X-213779Y-61978D01*
X-139852Y-104878D02*
X-138375D01*
X-262059Y-111996D02*
Y-103752D01*
X-257559Y-109996D02*
Y-102043D01*
X-253059Y-108496D02*
Y-95543D01*
X-265772Y-100039D02*
X-262059Y-103752D01*
X-266362Y-93240D02*
X-257559Y-102043D01*
X-266362Y-82240D02*
X-253059Y-95543D01*
X-134831Y-50996D02*
X-105559D01*
X-137559Y-48268D02*
X-134831Y-50996D01*
X-266559Y-82240D02*
X-266362D01*
X-266917Y-81882D02*
X-266559Y-82240D01*
X-266917Y-81882D02*
Y-77713D01*
X-281276Y-63354D02*
X-266917Y-77713D01*
X-282161Y-63354D02*
X-281276D01*
X-282368Y-70342D02*
X-280368D01*
X-282360Y-77569D02*
Y-71427D01*
X-282559Y-77768D02*
X-282360Y-77569D01*
Y-71427D02*
X-282161Y-71228D01*
X-266559Y-98752D02*
X-266362D01*
X-265772Y-100039D02*
Y-99343D01*
X-266362Y-98752D02*
X-265772Y-99343D01*
X-266559Y-93240D02*
X-266362D01*
X-137391Y-107339D02*
Y-105862D01*
Y-107339D02*
X-134635Y-110094D01*
X-138375Y-104878D02*
X-137391Y-105862D01*
X-134635Y-122331D02*
Y-110094D01*
X-164738Y-135323D02*
X-147627D01*
X-134635Y-122331D01*
X-156185Y-124709D02*
X-147380D01*
X-141328Y-118658D01*
X-176742Y-34100D02*
X-176574Y-34268D01*
X-176352Y-34490D02*
X-161822D01*
X-159657D01*
X-156564Y-25268D02*
X-142812Y-39020D01*
X-162962Y-25268D02*
X-156564D01*
X-142812Y-39917D02*
X-141852Y-40878D01*
X-142812Y-39917D02*
Y-39020D01*
X-229742Y-82842D02*
Y-82268D01*
X-150623Y-115591D02*
Y-113819D01*
X-144997Y-117673D02*
X-140836D01*
X-139852Y-118658D01*
X-148852Y-114705D02*
X-147966D01*
X-144997Y-117673D01*
X-150623Y-115591D02*
X-149738Y-114705D01*
X-148852D01*
X-158934Y-124323D02*
X-156572D01*
X-154119Y-110323D02*
X-150623Y-113819D01*
X-164199Y-110323D02*
X-154119D01*
X-165352Y-109170D02*
X-164199Y-110323D01*
X-165352Y-109170D02*
Y-99823D01*
X-141328Y-118658D02*
X-139852D01*
X-283933Y-62697D02*
Y-61004D01*
Y-62697D02*
X-283276Y-63354D01*
X-287941Y-56996D02*
X-283933Y-61004D01*
X-297177Y-56996D02*
X-287941D01*
X-298559Y-98996D02*
X-295796Y-96233D01*
X-298559Y-99181D02*
Y-98996D01*
X-300583Y-102681D02*
X-299598Y-101697D01*
Y-100221D01*
X-298559Y-99181D01*
X-302059Y-102681D02*
X-300583D01*
X-295796Y-96233D02*
X-287426D01*
X-295226Y-103779D02*
X-292947Y-101500D01*
X-295226Y-105163D02*
Y-103779D01*
X-292947Y-101500D02*
X-291667D01*
X-284819D01*
X-282161Y-99059D02*
X-276010D01*
X-284819Y-101500D02*
X-283047Y-99728D01*
X-282161D01*
X-283047Y-91854D02*
X-282161D01*
X-287426Y-96233D02*
X-283047Y-91854D01*
X-277559Y-95871D02*
Y-95571D01*
X-282161Y-91854D02*
X-281276D01*
X-277559Y-95571D01*
X-297559Y-107496D02*
X-295226Y-105163D01*
X-284161Y-71228D02*
X-283276D01*
X-305405Y-76051D02*
X-302797Y-73443D01*
X-293947Y-61583D02*
X-291779D01*
X-300583Y-74181D02*
X-299598Y-73197D01*
Y-67234D01*
X-293947Y-61583D01*
X-302059Y-74181D02*
X-300583D01*
X-202966Y-99205D02*
X-201584Y-97823D01*
X-184478D01*
X-204738Y-99205D02*
X-202966D01*
X-184478Y-97823D02*
X-183492Y-96837D01*
X-182852Y-97476D02*
X-173499D01*
X-156705Y-95350D02*
X-142706D01*
X-142352Y-95705D01*
X-157059Y-94996D02*
X-156705Y-95350D01*
X-165352Y-99823D02*
X-160525Y-94996D01*
X-157059D01*
X-173499Y-97476D02*
X-171018Y-94996D01*
X-170821D01*
X-142352Y-55158D02*
X-141852Y-54658D01*
X-143718Y-105268D02*
X-141852D01*
Y-104878D02*
X-141824Y-104905D01*
X-346059Y-66386D02*
X-335587D01*
X-343559Y-73240D02*
X-343339Y-73020D01*
X-338835D01*
X-334976Y-69161D01*
Y-66996D01*
X-335587Y-66386D02*
X-334976Y-66996D01*
X-306835Y-107496D02*
X-297559D01*
X-300583Y-60402D02*
X-297177Y-56996D01*
X-302059Y-60402D02*
X-300583D01*
X-305673Y-57941D02*
X-304520Y-59094D01*
Y-59417D02*
Y-59094D01*
Y-59417D02*
X-304331Y-59606D01*
X-285831Y-70342D02*
Y-69457D01*
X-290500Y-64787D02*
X-285831Y-69457D01*
Y-70342D02*
X-284945Y-71228D01*
X-291779Y-61583D02*
X-290500Y-62862D01*
Y-64787D02*
Y-62862D01*
X-312142Y-76051D02*
X-305405D01*
X-309780Y-95496D02*
X-304520Y-100756D01*
X-303535Y-102681D02*
X-302059D01*
X-312142Y-95496D02*
X-309780D01*
X-304520Y-101697D02*
Y-100756D01*
Y-101697D02*
X-303535Y-102681D01*
X-309780Y-104551D02*
X-306835Y-107496D01*
X-334976Y-95496D02*
X-312142D01*
X-334976Y-66996D02*
X-312142D01*
X-303535Y-87606D02*
X-302059D01*
X-304701Y-86441D02*
X-303535Y-87606D01*
X-176742Y-34100D02*
Y-25268D01*
X-214434Y-109323D02*
X-212072D01*
X-199994D01*
X-194828Y-104157D02*
X-193352D01*
X-199994Y-109323D02*
X-194828Y-104157D01*
X-156572Y-124323D02*
X-156185Y-124709D01*
X-144395Y-105945D02*
X-143718Y-105268D01*
X-146497Y-41862D02*
X-142836D01*
X-148966Y-44331D02*
X-146497Y-41862D01*
X-148966Y-53091D02*
X-144895D01*
X-143328Y-54658D01*
X-141852D01*
X-214434Y-43213D02*
X-212072D01*
X-237269Y-61618D02*
X-231080Y-67807D01*
X-230726D01*
X-229742Y-68791D01*
X-237269Y-61618D02*
Y-52268D01*
X-229742Y-70268D02*
Y-68791D01*
X-231080Y-36728D02*
X-230726D01*
X-229742Y-35744D01*
X-237269Y-52268D02*
Y-42917D01*
X-231080Y-36728D01*
X-229742Y-35744D02*
Y-34268D01*
X-215962Y-62209D02*
X-214944Y-61191D01*
X-215962Y-70268D02*
Y-62209D01*
X-150161Y-52514D02*
X-149852Y-52205D01*
X-159657Y-34490D02*
X-159434Y-34713D01*
X-205623Y-102874D02*
Y-100091D01*
X-204738Y-99205D01*
X-212072Y-109323D02*
X-205623Y-102874D01*
X-182269Y-43768D02*
X-181706Y-44331D01*
X-150161Y-106522D02*
X-149852Y-106831D01*
X-158934Y-106213D02*
X-158625Y-106522D01*
X-150161D01*
D56*
X-346059Y-95496D02*
X-334976D01*
X-176627Y-91748D02*
X-154582D01*
X-277559Y-95871D02*
X-269684D01*
X-267590Y-97965D01*
X-346059Y-95606D02*
Y-95496D01*
D57*
X-174415Y-55117D02*
X-167565Y-48268D01*
X-174415Y-55117D02*
X-165945Y-63587D01*
X-203852Y-53331D02*
X-203753Y-53429D01*
X-203064D02*
X-200714Y-55779D01*
X-203753Y-53429D02*
X-203064D01*
X-200714Y-55779D02*
X-173753D01*
X-97724Y-93161D02*
X-77724D01*
X-133083D02*
X-97724D01*
X-134449Y-91796D02*
X-133083Y-93161D01*
X-444631Y-153791D02*
X-442276Y-152807D01*
X-445792Y-160681D02*
X-444639Y-161834D01*
X-443745Y-162728D02*
X-443260D01*
X-445792Y-153932D02*
X-445792Y-153932D01*
X-445792Y-153932D02*
X-444631Y-153791D01*
X-445792Y-160681D02*
Y-153932D01*
X-444639Y-161834D02*
X-443745Y-162728D01*
X-448181Y-151823D02*
X-447197Y-152807D01*
X-465031Y-134394D02*
X-448181Y-151244D01*
X-465031Y-134394D02*
Y-58803D01*
X-448181Y-151823D02*
Y-151244D01*
X-443260Y-162728D02*
X-442276Y-163713D01*
X-465031Y-58803D02*
X-438323Y-32094D01*
X-268559D01*
X-436307Y-38646D02*
X-272087D01*
X-454449Y-65354D02*
X-433284Y-44189D01*
X-276622D01*
X-459740Y-62079D02*
X-436307Y-38646D01*
X-454449Y-101933D02*
Y-65354D01*
X-459740Y-118453D02*
Y-62079D01*
X-255819Y-44835D02*
X-254638D01*
X-268559Y-32094D02*
X-255819Y-44835D01*
X-442276Y-141902D02*
Y-130996D01*
Y-120091D02*
Y-109185D01*
X-459740Y-118453D02*
X-447197Y-130996D01*
X-442276D01*
X-454449Y-101933D02*
X-447197Y-109185D01*
X-265898Y-44835D02*
X-264717D01*
X-272087Y-38646D02*
X-265898Y-44835D01*
X-276622Y-44189D02*
X-275976Y-44835D01*
X-274795D01*
X-447197Y-109185D02*
X-442276D01*
X-254638Y-62056D02*
X-248627Y-68067D01*
X-254638Y-62056D02*
Y-56646D01*
X-263535Y-61496D02*
Y-56646D01*
X-264717D02*
X-263535D01*
Y-61496D02*
X-251453Y-73579D01*
X-248627D01*
X-274251Y-61120D02*
X-237269Y-98102D01*
X-274795Y-56646D02*
X-274251D01*
Y-61120D02*
Y-56646D01*
X-165945Y-63858D02*
Y-63587D01*
X-211206Y-53331D02*
X-203852D01*
X-212269Y-91213D02*
X-204659D01*
X-212269D02*
X-204789Y-83732D01*
X-203740D01*
X-214434Y-91213D02*
X-212269D01*
X-214434Y-52268D02*
X-214336Y-52366D01*
X-212171D01*
X-211206Y-53331D01*
X-233627Y-26823D02*
X-221931D01*
X-248627Y-68067D02*
Y-41823D01*
X-233627Y-26823D01*
X-181769Y-130595D02*
X-178517Y-133846D01*
X-181769Y-130595D02*
Y-115268D01*
X-178517Y-135323D02*
Y-133846D01*
X-276059Y-149496D02*
X-273793Y-151762D01*
X-276059Y-161579D02*
X-265142Y-172496D01*
X-276059Y-161579D02*
Y-149496D01*
X-287976Y-172496D02*
X-266913D01*
X-237269Y-52268D02*
X-214434D01*
X-215962Y-43114D02*
X-215863Y-43213D01*
X-214434D01*
X-215962Y-43114D02*
Y-34268D01*
X-176574D01*
X-162045D02*
X-161822Y-34490D01*
X-161600Y-34713D01*
X-176574Y-34268D02*
X-162045D01*
X-161600Y-34713D02*
X-159434D01*
X-221931Y-26823D02*
X-215962Y-32791D01*
Y-34268D02*
Y-32791D01*
X-188702Y-91748D02*
X-176627D01*
X-190072Y-90378D02*
X-188702Y-91748D01*
X-193352Y-90378D02*
X-190072D01*
X-203852Y-91331D02*
X-203163D01*
X-202210Y-90378D01*
X-193352D01*
X-204659Y-91213D02*
X-204541Y-91331D01*
X-203852D01*
X-215962Y-91114D02*
Y-82268D01*
X-215863Y-91213D02*
X-214434D01*
X-215962Y-91114D02*
X-215863Y-91213D01*
X-237269Y-100268D02*
Y-98102D01*
X-224434Y-115268D02*
X-181769D01*
X-237269Y-102433D02*
Y-100268D01*
Y-102433D02*
X-224434Y-115268D01*
X-229742Y-90437D02*
Y-82842D01*
X-237269Y-98102D02*
X-233127Y-93961D01*
Y-93823D01*
X-229742Y-90437D01*
X-181769Y-115268D02*
X-158934D01*
X-237269Y-100268D02*
X-214434D01*
D58*
X-310559Y-181339D02*
Y-181142D01*
Y-181339D02*
X-296402Y-195496D01*
X-323866Y-181374D02*
X-310791D01*
D59*
X-310559Y-181142D01*
X-324063Y-181571D02*
X-323866Y-181374D01*
M02*
