G04*
G04 #@! TF.GenerationSoftware,Altium Limited,Altium Designer,21.8.1 (53)*
G04*
G04 Layer_Color=65535*
%FSLAX25Y25*%
%MOIN*%
G70*
G04*
G04 #@! TF.SameCoordinates,0937BB6D-0895-473D-B1AA-8B930BF7CBED*
G04*
G04*
G04 #@! TF.FilePolarity,Positive*
G04*
G01*
G75*
%ADD10C,0.00787*%
%ADD11C,0.00984*%
%ADD12C,0.01000*%
%ADD13C,0.00394*%
%ADD14C,0.00492*%
%ADD15C,0.00591*%
%ADD16R,0.02165X0.06299*%
%ADD17R,0.06299X0.02165*%
%ADD18R,0.06299X0.02165*%
G36*
X-123228Y-183330D02*
Y-193623D01*
X-232398D01*
Y-183330D01*
Y-172732D01*
X-123228D01*
Y-183330D01*
D02*
G37*
G36*
Y-193623D02*
Y-207355D01*
X-232398D01*
Y-193623D01*
X-123228D01*
D02*
G37*
%LPC*%
G36*
X-189640Y-178172D02*
X-191905D01*
D01*
X-189640D01*
D02*
G37*
G36*
X-176791Y-176290D02*
X-176917D01*
X-177101Y-176297D01*
X-177286Y-176305D01*
X-177463Y-176327D01*
X-177625Y-176356D01*
X-177787Y-176386D01*
X-177935Y-176423D01*
X-178075Y-176460D01*
X-178201Y-176497D01*
X-178311Y-176541D01*
X-178415Y-176578D01*
X-178503Y-176615D01*
X-178577Y-176644D01*
X-178636Y-176674D01*
X-178680Y-176696D01*
X-178710Y-176703D01*
X-178717Y-176711D01*
X-178858Y-176792D01*
X-178990Y-176888D01*
X-179116Y-176984D01*
X-179227Y-177087D01*
X-179337Y-177198D01*
X-179433Y-177301D01*
X-179522Y-177404D01*
X-179603Y-177508D01*
X-179669Y-177611D01*
X-179736Y-177699D01*
X-179787Y-177781D01*
X-179832Y-177855D01*
X-179861Y-177913D01*
X-179883Y-177958D01*
X-179898Y-177987D01*
X-179905Y-177995D01*
X-179979Y-178157D01*
X-180038Y-178319D01*
X-180097Y-178482D01*
X-180142Y-178644D01*
X-180215Y-178954D01*
X-180245Y-179102D01*
X-180267Y-179242D01*
X-180282Y-179367D01*
X-180297Y-179485D01*
X-180304Y-179589D01*
X-180311Y-179677D01*
X-180319Y-179751D01*
Y-179847D01*
X-180311Y-180032D01*
X-180304Y-180216D01*
X-180282Y-180386D01*
X-180252Y-180555D01*
X-180223Y-180710D01*
X-180186Y-180866D01*
X-180149Y-181006D01*
X-180112Y-181131D01*
X-180075Y-181249D01*
X-180038Y-181353D01*
X-180001Y-181441D01*
X-179972Y-181522D01*
X-179942Y-181581D01*
X-179920Y-181626D01*
X-179913Y-181655D01*
X-179905Y-181663D01*
X-179824Y-181810D01*
X-179728Y-181950D01*
X-179632Y-182076D01*
X-179536Y-182201D01*
X-179433Y-182312D01*
X-179330Y-182408D01*
X-179227Y-182504D01*
X-179131Y-182585D01*
X-179035Y-182659D01*
X-178946Y-182725D01*
X-178865Y-182777D01*
X-178798Y-182821D01*
X-178747Y-182858D01*
X-178702Y-182880D01*
X-178673Y-182895D01*
X-178666Y-182902D01*
X-178511Y-182976D01*
X-178348Y-183043D01*
X-178193Y-183102D01*
X-178038Y-183146D01*
X-177876Y-183190D01*
X-177728Y-183227D01*
X-177581Y-183257D01*
X-177448Y-183279D01*
X-177322Y-183293D01*
X-177204Y-183308D01*
X-177101Y-183316D01*
X-177013Y-183323D01*
X-176939Y-183330D01*
X-176843D01*
X-176570Y-183316D01*
X-176304Y-183286D01*
X-176060Y-183249D01*
X-175950Y-183220D01*
X-175839Y-183198D01*
X-175743Y-183176D01*
X-175662Y-183146D01*
X-175581Y-183124D01*
X-175522Y-183109D01*
X-175463Y-183087D01*
X-175426Y-183080D01*
X-175404Y-183065D01*
X-175396D01*
X-175131Y-182954D01*
X-174880Y-182829D01*
X-174651Y-182696D01*
X-174540Y-182629D01*
X-174444Y-182570D01*
X-174356Y-182511D01*
X-174275Y-182452D01*
X-174201Y-182408D01*
X-174142Y-182364D01*
X-174090Y-182327D01*
X-174053Y-182297D01*
X-174031Y-182282D01*
X-174024Y-182275D01*
Y-178925D01*
Y-179744D01*
X-176909D01*
Y-180548D01*
X-174909D01*
Y-181825D01*
X-175027Y-181921D01*
X-175160Y-182002D01*
X-175300Y-182083D01*
X-175441Y-182157D01*
X-175566Y-182216D01*
X-175618Y-182246D01*
X-175662Y-182268D01*
X-175706Y-182282D01*
X-175736Y-182297D01*
X-175751Y-182305D01*
X-175758D01*
X-175965Y-182378D01*
X-176171Y-182430D01*
X-176363Y-182474D01*
X-176533Y-182497D01*
X-176614Y-182504D01*
X-176680Y-182511D01*
X-176740Y-182519D01*
X-176791D01*
X-176835Y-182526D01*
X-176894D01*
X-177145Y-182511D01*
X-177382Y-182482D01*
X-177595Y-182430D01*
X-177699Y-182408D01*
X-177787Y-182378D01*
X-177869Y-182349D01*
X-177942Y-182327D01*
X-178009Y-182297D01*
X-178068Y-182275D01*
X-178112Y-182260D01*
X-178142Y-182246D01*
X-178164Y-182231D01*
X-178171D01*
X-178282Y-182172D01*
X-178385Y-182105D01*
X-178562Y-181965D01*
X-178717Y-181810D01*
X-178850Y-181663D01*
X-178946Y-181530D01*
X-178990Y-181471D01*
X-179020Y-181426D01*
X-179049Y-181382D01*
X-179064Y-181353D01*
X-179071Y-181330D01*
X-179079Y-181323D01*
X-179182Y-181079D01*
X-179256Y-180821D01*
X-179315Y-180570D01*
X-179352Y-180327D01*
X-179359Y-180216D01*
X-179374Y-180113D01*
X-179382Y-180024D01*
Y-179943D01*
X-179389Y-179884D01*
Y-179832D01*
Y-179803D01*
Y-179795D01*
X-179374Y-179522D01*
X-179345Y-179264D01*
X-179308Y-179035D01*
X-179286Y-178925D01*
X-179256Y-178829D01*
X-179234Y-178740D01*
X-179212Y-178659D01*
X-179190Y-178593D01*
X-179167Y-178533D01*
X-179153Y-178482D01*
X-179138Y-178452D01*
X-179131Y-178430D01*
Y-178423D01*
X-179071Y-178290D01*
X-179005Y-178164D01*
X-178931Y-178046D01*
X-178865Y-177950D01*
X-178806Y-177869D01*
X-178754Y-177803D01*
X-178725Y-177766D01*
X-178710Y-177751D01*
X-178599Y-177640D01*
X-178474Y-177544D01*
X-178356Y-177456D01*
X-178238Y-177382D01*
X-178134Y-177323D01*
X-178053Y-177286D01*
X-178024Y-177271D01*
X-178001Y-177257D01*
X-177987Y-177249D01*
X-177979D01*
X-177802Y-177183D01*
X-177625Y-177139D01*
X-177441Y-177102D01*
X-177278Y-177080D01*
X-177197Y-177072D01*
X-177131Y-177065D01*
X-177064D01*
X-177013Y-177057D01*
X-176909D01*
X-176725Y-177065D01*
X-176548Y-177087D01*
X-176393Y-177117D01*
X-176252Y-177146D01*
X-176142Y-177183D01*
X-176090Y-177198D01*
X-176053Y-177212D01*
X-176024Y-177227D01*
X-176002Y-177234D01*
X-175987Y-177242D01*
X-175979D01*
X-175832Y-177316D01*
X-175699Y-177390D01*
X-175588Y-177471D01*
X-175492Y-177544D01*
X-175426Y-177618D01*
X-175374Y-177670D01*
X-175337Y-177707D01*
X-175330Y-177722D01*
X-175249Y-177840D01*
X-175175Y-177973D01*
X-175109Y-178105D01*
X-175049Y-178238D01*
X-175005Y-178356D01*
X-174990Y-178408D01*
X-174976Y-178445D01*
X-174961Y-178482D01*
X-174953Y-178511D01*
X-174946Y-178526D01*
Y-178533D01*
X-174127Y-178312D01*
X-174201Y-178068D01*
X-174282Y-177847D01*
X-174326Y-177751D01*
X-174371Y-177655D01*
X-174407Y-177574D01*
X-174452Y-177500D01*
X-174489Y-177426D01*
X-174525Y-177367D01*
X-174562Y-177316D01*
X-174584Y-177271D01*
X-174614Y-177242D01*
X-174629Y-177220D01*
X-174636Y-177205D01*
X-174644Y-177198D01*
X-174784Y-177043D01*
X-174931Y-176910D01*
X-175086Y-176799D01*
X-175241Y-176703D01*
X-175374Y-176629D01*
X-175433Y-176600D01*
X-175485Y-176578D01*
X-175522Y-176556D01*
X-175551Y-176541D01*
X-175573Y-176533D01*
X-175581D01*
X-175810Y-176452D01*
X-176038Y-176393D01*
X-176267Y-176349D01*
X-176474Y-176319D01*
X-176570Y-176312D01*
X-176651Y-176305D01*
X-176725Y-176297D01*
X-176791Y-176290D01*
D02*
G37*
G36*
X-186267Y-178172D02*
X-186341D01*
X-186525Y-178179D01*
X-186703Y-178209D01*
X-186865Y-178246D01*
X-187020Y-178297D01*
X-187160Y-178364D01*
X-187285Y-178430D01*
X-187404Y-178504D01*
X-187507Y-178578D01*
X-187603Y-178659D01*
X-187684Y-178733D01*
X-187750Y-178799D01*
X-187802Y-178866D01*
X-187846Y-178917D01*
X-187883Y-178954D01*
X-187898Y-178984D01*
X-187905Y-178991D01*
Y-178282D01*
X-188658D01*
Y-183220D01*
X-187824D01*
Y-180526D01*
X-187817Y-180356D01*
X-187810Y-180194D01*
X-187787Y-180054D01*
X-187765Y-179921D01*
X-187736Y-179803D01*
X-187706Y-179700D01*
X-187669Y-179604D01*
X-187632Y-179522D01*
X-187595Y-179449D01*
X-187558Y-179390D01*
X-187529Y-179345D01*
X-187499Y-179301D01*
X-187477Y-179271D01*
X-187455Y-179249D01*
X-187448Y-179242D01*
X-187441Y-179235D01*
X-187367Y-179175D01*
X-187285Y-179124D01*
X-187130Y-179035D01*
X-186976Y-178976D01*
X-186835Y-178939D01*
X-186710Y-178910D01*
X-186651Y-178902D01*
X-186607D01*
X-186570Y-178895D01*
X-186518D01*
X-186392Y-178902D01*
X-186282Y-178917D01*
X-186186Y-178947D01*
X-186097Y-178969D01*
X-186031Y-178998D01*
X-185979Y-179028D01*
X-185942Y-179043D01*
X-185935Y-179050D01*
X-185846Y-179109D01*
X-185773Y-179175D01*
X-185714Y-179242D01*
X-185669Y-179308D01*
X-185632Y-179367D01*
X-185610Y-179412D01*
X-185596Y-179441D01*
X-185588Y-179456D01*
X-185551Y-179559D01*
X-185529Y-179677D01*
X-185507Y-179803D01*
X-185500Y-179928D01*
X-185492Y-180039D01*
X-185485Y-180091D01*
Y-180135D01*
Y-180164D01*
Y-180194D01*
Y-180209D01*
Y-180216D01*
Y-183220D01*
X-186654D01*
X-184651D01*
Y-179987D01*
X-184658Y-179891D01*
Y-179810D01*
X-184666Y-179736D01*
Y-179670D01*
X-184673Y-179559D01*
X-184688Y-179478D01*
X-184695Y-179419D01*
X-184703Y-179382D01*
Y-179375D01*
X-184732Y-179242D01*
X-184776Y-179124D01*
X-184813Y-179021D01*
X-184857Y-178932D01*
X-184902Y-178858D01*
X-184931Y-178799D01*
X-184953Y-178770D01*
X-184961Y-178755D01*
X-185035Y-178659D01*
X-185123Y-178578D01*
X-185219Y-178511D01*
X-185308Y-178445D01*
X-185396Y-178401D01*
X-185463Y-178364D01*
X-185507Y-178342D01*
X-185514Y-178334D01*
X-185522D01*
X-185662Y-178282D01*
X-185802Y-178238D01*
X-185942Y-178209D01*
X-186068Y-178194D01*
X-186179Y-178179D01*
X-186223D01*
X-186267Y-178172D01*
D02*
G37*
G36*
X-195263D02*
X-197123D01*
X-195308D01*
X-195411Y-178179D01*
X-195514Y-178201D01*
X-195603Y-178224D01*
X-195684Y-178253D01*
X-195743Y-178290D01*
X-195795Y-178312D01*
X-195824Y-178334D01*
X-195839Y-178342D01*
X-195883Y-178378D01*
X-195935Y-178423D01*
X-196023Y-178519D01*
X-196112Y-178637D01*
X-196193Y-178755D01*
X-196267Y-178858D01*
X-196319Y-178954D01*
X-196341Y-178984D01*
X-196355Y-179013D01*
X-196370Y-179028D01*
Y-178282D01*
X-197123D01*
Y-183220D01*
X-196289D01*
Y-180637D01*
X-196282Y-180445D01*
X-196267Y-180260D01*
X-196245Y-180098D01*
X-196223Y-179950D01*
X-196201Y-179832D01*
X-196186Y-179781D01*
X-196178Y-179736D01*
X-196171Y-179707D01*
X-196164Y-179685D01*
X-196156Y-179670D01*
Y-179663D01*
X-196112Y-179559D01*
X-196068Y-179463D01*
X-196016Y-179390D01*
X-195964Y-179323D01*
X-195920Y-179271D01*
X-195883Y-179235D01*
X-195854Y-179212D01*
X-195846Y-179205D01*
X-195758Y-179146D01*
X-195677Y-179109D01*
X-195595Y-179079D01*
X-195514Y-179057D01*
X-195448Y-179043D01*
X-195396Y-179035D01*
X-195352D01*
X-195234Y-179043D01*
X-195123Y-179065D01*
X-195020Y-179094D01*
X-194931Y-179124D01*
X-194850Y-179161D01*
X-194791Y-179190D01*
X-194754Y-179212D01*
X-194739Y-179220D01*
X-194444Y-178445D01*
X-194606Y-178356D01*
X-194769Y-178290D01*
X-194909Y-178238D01*
X-195042Y-178209D01*
X-195153Y-178187D01*
X-195197Y-178179D01*
X-195234D01*
X-195263Y-178172D01*
D02*
G37*
G36*
X-197831D02*
X-202119D01*
X-199883D01*
X-200112Y-178187D01*
X-200333Y-178216D01*
X-200533Y-178268D01*
X-200621Y-178297D01*
X-200710Y-178319D01*
X-200783Y-178349D01*
X-200850Y-178378D01*
X-200909Y-178401D01*
X-200961Y-178430D01*
X-201005Y-178445D01*
X-201034Y-178460D01*
X-201049Y-178474D01*
X-201057D01*
X-201248Y-178600D01*
X-201411Y-178740D01*
X-201551Y-178895D01*
X-201662Y-179035D01*
X-201750Y-179168D01*
X-201780Y-179227D01*
X-201809Y-179279D01*
X-201832Y-179316D01*
X-201846Y-179345D01*
X-201861Y-179367D01*
Y-179375D01*
X-201950Y-179604D01*
X-202009Y-179847D01*
X-202053Y-180083D01*
X-202090Y-180297D01*
X-202097Y-180401D01*
X-202104Y-180489D01*
X-202112Y-180570D01*
Y-180644D01*
X-202119Y-180696D01*
Y-180688D01*
Y-180777D01*
X-202112Y-180998D01*
X-202090Y-181212D01*
X-202060Y-181412D01*
X-202023Y-181596D01*
X-201979Y-181766D01*
X-201927Y-181921D01*
X-201868Y-182061D01*
X-201809Y-182186D01*
X-201758Y-182297D01*
X-201699Y-182401D01*
X-201647Y-182482D01*
X-201603Y-182548D01*
X-201566Y-182607D01*
X-201536Y-182644D01*
X-201514Y-182666D01*
X-201507Y-182674D01*
X-201389Y-182792D01*
X-201263Y-182888D01*
X-201130Y-182976D01*
X-200997Y-183050D01*
X-200857Y-183116D01*
X-200725Y-183168D01*
X-200592Y-183212D01*
X-200466Y-183249D01*
X-200348Y-183279D01*
X-200237Y-183293D01*
X-200134Y-183308D01*
X-200053Y-183323D01*
X-199979D01*
X-199927Y-183330D01*
X-199883D01*
X-199735Y-183323D01*
X-199595Y-183308D01*
X-199462Y-183286D01*
X-199330Y-183257D01*
X-199212Y-183220D01*
X-199101Y-183176D01*
X-198997Y-183139D01*
X-198902Y-183087D01*
X-198820Y-183043D01*
X-198739Y-183006D01*
X-198680Y-182961D01*
X-198621Y-182924D01*
X-198584Y-182895D01*
X-198547Y-182873D01*
X-198533Y-182858D01*
X-198525Y-182851D01*
X-198429Y-182755D01*
X-198333Y-182659D01*
X-198252Y-182548D01*
X-198186Y-182437D01*
X-198119Y-182327D01*
X-198060Y-182216D01*
X-197972Y-182009D01*
X-197935Y-181906D01*
X-197905Y-181817D01*
X-197883Y-181736D01*
X-197861Y-181663D01*
X-197846Y-181604D01*
X-197839Y-181559D01*
X-197831Y-181530D01*
Y-183124D01*
Y-181530D01*
Y-181522D01*
X-198651Y-181412D01*
X-198673Y-181530D01*
X-198695Y-181633D01*
X-198724Y-181736D01*
X-198754Y-181825D01*
X-198791Y-181913D01*
X-198820Y-181987D01*
X-198857Y-182054D01*
X-198894Y-182120D01*
X-198931Y-182172D01*
X-198961Y-182216D01*
X-199020Y-182290D01*
X-199057Y-182334D01*
X-199064Y-182342D01*
X-199071Y-182349D01*
X-199204Y-182445D01*
X-199337Y-182519D01*
X-199477Y-182570D01*
X-199603Y-182607D01*
X-199721Y-182629D01*
X-199765Y-182637D01*
X-199809D01*
X-199846Y-182644D01*
X-199890D01*
X-200001Y-182637D01*
X-200112Y-182622D01*
X-200208Y-182600D01*
X-200304Y-182570D01*
X-200473Y-182504D01*
X-200621Y-182415D01*
X-200680Y-182378D01*
X-200732Y-182334D01*
X-200776Y-182297D01*
X-200820Y-182260D01*
X-200850Y-182238D01*
X-200872Y-182216D01*
X-200879Y-182201D01*
X-200887Y-182194D01*
X-200953Y-182105D01*
X-201012Y-182002D01*
X-201064Y-181891D01*
X-201101Y-181781D01*
X-201175Y-181537D01*
X-201219Y-181301D01*
X-201234Y-181190D01*
X-201241Y-181087D01*
X-201248Y-180991D01*
X-201256Y-180910D01*
X-201263Y-180843D01*
Y-180792D01*
Y-180755D01*
Y-180747D01*
X-201256Y-180570D01*
X-201248Y-180401D01*
X-201226Y-180253D01*
X-201204Y-180113D01*
X-201175Y-179980D01*
X-201138Y-179862D01*
X-201101Y-179759D01*
X-201064Y-179663D01*
X-201034Y-179581D01*
X-200997Y-179508D01*
X-200961Y-179449D01*
X-200931Y-179404D01*
X-200909Y-179360D01*
X-200887Y-179338D01*
X-200879Y-179323D01*
X-200872Y-179316D01*
X-200798Y-179235D01*
X-200717Y-179168D01*
X-200628Y-179102D01*
X-200547Y-179050D01*
X-200459Y-179006D01*
X-200378Y-178969D01*
X-200215Y-178917D01*
X-200068Y-178880D01*
X-200009Y-178873D01*
X-199950Y-178866D01*
X-199905Y-178858D01*
X-199846D01*
X-199699Y-178866D01*
X-199558Y-178895D01*
X-199440Y-178939D01*
X-199337Y-178984D01*
X-199256Y-179035D01*
X-199189Y-179072D01*
X-199153Y-179102D01*
X-199138Y-179116D01*
X-199034Y-179220D01*
X-198946Y-179338D01*
X-198880Y-179463D01*
X-198820Y-179581D01*
X-198776Y-179692D01*
X-198747Y-179781D01*
X-198739Y-179818D01*
X-198732Y-179840D01*
X-198724Y-179854D01*
Y-179862D01*
X-197913Y-179736D01*
X-197942Y-179604D01*
X-197986Y-179471D01*
X-198031Y-179353D01*
X-198075Y-179242D01*
X-198127Y-179139D01*
X-198186Y-179043D01*
X-198237Y-178962D01*
X-198296Y-178880D01*
X-198348Y-178814D01*
X-198400Y-178755D01*
X-198444Y-178703D01*
X-198488Y-178659D01*
X-198518Y-178629D01*
X-198547Y-178607D01*
X-198562Y-178593D01*
X-198570Y-178585D01*
X-198665Y-178511D01*
X-198769Y-178445D01*
X-198880Y-178393D01*
X-198990Y-178349D01*
X-199212Y-178275D01*
X-199418Y-178224D01*
X-199514Y-178209D01*
X-199603Y-178194D01*
X-199684Y-178187D01*
X-199750Y-178179D01*
X-199802Y-178172D01*
X-197831D01*
D02*
G37*
G36*
X-191905D02*
X-191950D01*
X-192119Y-178179D01*
X-192282Y-178194D01*
X-192429Y-178224D01*
X-192577Y-178260D01*
X-192717Y-178297D01*
X-192843Y-178349D01*
X-192961Y-178393D01*
X-193064Y-178445D01*
X-193167Y-178497D01*
X-193248Y-178548D01*
X-193322Y-178600D01*
X-193389Y-178637D01*
X-193433Y-178674D01*
X-193470Y-178703D01*
X-193492Y-178718D01*
X-193499Y-178725D01*
X-193632Y-178858D01*
X-193750Y-178998D01*
X-193854Y-179153D01*
X-193942Y-179316D01*
X-194009Y-179485D01*
X-194075Y-179655D01*
X-194127Y-179825D01*
X-194164Y-179987D01*
X-194193Y-180142D01*
X-194223Y-180282D01*
X-194237Y-180415D01*
X-194245Y-180533D01*
X-194252Y-180622D01*
X-194260Y-180696D01*
Y-180644D01*
Y-180696D01*
Y-180755D01*
X-194252Y-180984D01*
X-194230Y-181198D01*
X-194201Y-181397D01*
X-194164Y-181581D01*
X-194112Y-181751D01*
X-194060Y-181906D01*
X-194001Y-182046D01*
X-193942Y-182179D01*
X-193883Y-182290D01*
X-193824Y-182393D01*
X-193772Y-182474D01*
X-193721Y-182541D01*
X-193684Y-182600D01*
X-193654Y-182637D01*
X-193632Y-182659D01*
X-193625Y-182666D01*
X-193499Y-182784D01*
X-193367Y-182888D01*
X-193234Y-182976D01*
X-193094Y-183050D01*
X-192953Y-183116D01*
X-192813Y-183168D01*
X-192680Y-183212D01*
X-192547Y-183249D01*
X-192422Y-183271D01*
X-192311Y-183293D01*
X-192208Y-183308D01*
X-192119Y-183323D01*
X-192046D01*
X-191994Y-183330D01*
X-194260D01*
D01*
X-189640D01*
Y-180688D01*
X-189647Y-180474D01*
X-189669Y-180268D01*
X-189699Y-180076D01*
X-189743Y-179899D01*
X-189787Y-179736D01*
X-189846Y-179589D01*
X-189905Y-179449D01*
X-189964Y-179323D01*
X-190024Y-179212D01*
X-190083Y-179116D01*
X-190141Y-179035D01*
X-190186Y-178969D01*
X-190230Y-178910D01*
X-190260Y-178873D01*
X-190282Y-178851D01*
X-190289Y-178843D01*
X-190415Y-178725D01*
X-190547Y-178622D01*
X-190680Y-178533D01*
X-190821Y-178452D01*
X-190961Y-178393D01*
X-191094Y-178334D01*
X-191234Y-178290D01*
X-191359Y-178253D01*
X-191485Y-178231D01*
X-191595Y-178209D01*
X-191691Y-178194D01*
X-191780Y-178179D01*
X-191854D01*
X-191905Y-178172D01*
D02*
G37*
G36*
X-181123Y-180334D02*
X-183699D01*
Y-181175D01*
X-181123D01*
Y-180334D01*
D02*
G37*
G36*
X-145832Y-176386D02*
X-145928D01*
X-146105Y-176393D01*
X-146275Y-176408D01*
X-146430Y-176430D01*
X-146577Y-176467D01*
X-146718Y-176504D01*
X-146843Y-176548D01*
X-146961Y-176593D01*
X-147064Y-176637D01*
X-147160Y-176688D01*
X-147242Y-176733D01*
X-147315Y-176777D01*
X-147374Y-176814D01*
X-147419Y-176851D01*
X-147448Y-176873D01*
X-147470Y-176888D01*
X-147478Y-176895D01*
X-147581Y-176991D01*
X-147670Y-177102D01*
X-147751Y-177212D01*
X-147825Y-177338D01*
X-147884Y-177456D01*
X-147943Y-177574D01*
X-147987Y-177699D01*
X-148024Y-177810D01*
X-148061Y-177921D01*
X-148083Y-178024D01*
X-148105Y-178120D01*
X-148120Y-178201D01*
X-148127Y-178268D01*
X-148135Y-178312D01*
X-148142Y-178342D01*
Y-178356D01*
X-147286Y-178445D01*
X-147278Y-178327D01*
X-147271Y-178216D01*
X-147227Y-178024D01*
X-147168Y-177847D01*
X-147138Y-177773D01*
X-147101Y-177707D01*
X-147072Y-177648D01*
X-147035Y-177596D01*
X-147005Y-177552D01*
X-146983Y-177515D01*
X-146954Y-177486D01*
X-146939Y-177463D01*
X-146932Y-177456D01*
X-146924Y-177449D01*
X-146851Y-177382D01*
X-146777Y-177323D01*
X-146695Y-177279D01*
X-146614Y-177234D01*
X-146452Y-177168D01*
X-146297Y-177124D01*
X-146164Y-177102D01*
X-146105Y-177087D01*
X-146053D01*
X-146009Y-177080D01*
X-145847D01*
X-145744Y-177094D01*
X-145559Y-177131D01*
X-145404Y-177190D01*
X-145264Y-177249D01*
X-145160Y-177316D01*
X-145116Y-177345D01*
X-145079Y-177375D01*
X-145050Y-177397D01*
X-145028Y-177412D01*
X-145020Y-177419D01*
X-145013Y-177426D01*
X-144946Y-177493D01*
X-144895Y-177559D01*
X-144843Y-177626D01*
X-144806Y-177699D01*
X-144740Y-177840D01*
X-144695Y-177972D01*
X-144673Y-178083D01*
X-144659Y-178135D01*
Y-178179D01*
X-144651Y-178209D01*
Y-178238D01*
Y-178253D01*
Y-178260D01*
X-144659Y-178349D01*
X-144666Y-178437D01*
X-144710Y-178615D01*
X-144777Y-178784D01*
X-144851Y-178939D01*
X-144924Y-179072D01*
X-144954Y-179124D01*
X-144991Y-179175D01*
X-145013Y-179212D01*
X-145035Y-179242D01*
X-145042Y-179257D01*
X-145050Y-179264D01*
X-145131Y-179367D01*
X-145227Y-179478D01*
X-145338Y-179596D01*
X-145456Y-179714D01*
X-145699Y-179958D01*
X-145950Y-180186D01*
X-146068Y-180297D01*
X-146186Y-180393D01*
X-146290Y-180482D01*
X-146378Y-180555D01*
X-146452Y-180622D01*
X-146504Y-180666D01*
X-146540Y-180703D01*
X-146555Y-180710D01*
X-146688Y-180821D01*
X-146806Y-180924D01*
X-146924Y-181020D01*
X-147028Y-181116D01*
X-147131Y-181205D01*
X-147220Y-181294D01*
X-147301Y-181367D01*
X-147374Y-181441D01*
X-147441Y-181508D01*
X-147493Y-181567D01*
X-147544Y-181618D01*
X-147581Y-181655D01*
X-147618Y-181692D01*
X-147640Y-181714D01*
X-147648Y-181729D01*
X-147655Y-181736D01*
X-147788Y-181899D01*
X-147898Y-182061D01*
X-147994Y-182216D01*
X-148068Y-182356D01*
X-148127Y-182474D01*
X-148149Y-182526D01*
X-148171Y-182563D01*
X-148186Y-182600D01*
X-148194Y-182622D01*
X-148201Y-182637D01*
Y-182644D01*
X-148238Y-182747D01*
X-148260Y-182851D01*
X-148282Y-182947D01*
X-148290Y-183035D01*
X-148297Y-183109D01*
Y-183220D01*
X-143788Y-183220D01*
Y-182415D01*
X-147146Y-182415D01*
X-147028Y-182253D01*
X-146968Y-182179D01*
X-146909Y-182113D01*
X-146858Y-182054D01*
X-146821Y-182009D01*
X-146791Y-181980D01*
X-146784Y-181973D01*
X-146740Y-181928D01*
X-146681Y-181869D01*
X-146614Y-181810D01*
X-146540Y-181744D01*
X-146386Y-181596D01*
X-146223Y-181456D01*
X-146068Y-181323D01*
X-146002Y-181264D01*
X-145935Y-181212D01*
X-145891Y-181168D01*
X-145847Y-181139D01*
X-145825Y-181116D01*
X-145817Y-181109D01*
X-145655Y-180969D01*
X-145500Y-180836D01*
X-145360Y-180718D01*
X-145234Y-180600D01*
X-145116Y-180497D01*
X-145013Y-180393D01*
X-144917Y-180305D01*
X-144828Y-180223D01*
X-144755Y-180157D01*
X-144695Y-180091D01*
X-144644Y-180039D01*
X-144600Y-179995D01*
X-144570Y-179958D01*
X-144541Y-179936D01*
X-144533Y-179921D01*
X-144526Y-179913D01*
X-144386Y-179751D01*
X-144275Y-179604D01*
X-144179Y-179463D01*
X-144098Y-179338D01*
X-144039Y-179235D01*
X-143994Y-179153D01*
X-143980Y-179124D01*
X-143972Y-179102D01*
X-143965Y-179094D01*
Y-179087D01*
X-143906Y-178939D01*
X-143869Y-178792D01*
X-143839Y-178659D01*
X-143817Y-178533D01*
X-143802Y-178430D01*
X-143795Y-178349D01*
Y-178319D01*
Y-178297D01*
Y-178290D01*
Y-178282D01*
X-143802Y-178135D01*
X-143817Y-177995D01*
X-143847Y-177862D01*
X-143884Y-177729D01*
X-143928Y-177611D01*
X-143980Y-177500D01*
X-144031Y-177397D01*
X-144083Y-177308D01*
X-144135Y-177220D01*
X-144186Y-177146D01*
X-144238Y-177080D01*
X-144282Y-177028D01*
X-144319Y-176991D01*
X-144349Y-176954D01*
X-144363Y-176939D01*
X-144371Y-176932D01*
X-144482Y-176836D01*
X-144600Y-176755D01*
X-144725Y-176681D01*
X-144858Y-176615D01*
X-144983Y-176563D01*
X-145116Y-176519D01*
X-145242Y-176482D01*
X-145367Y-176452D01*
X-145478Y-176430D01*
X-145589Y-176415D01*
X-145684Y-176401D01*
X-145766Y-176393D01*
X-145832Y-176386D01*
D02*
G37*
G36*
X-149404Y-182268D02*
X-150356D01*
Y-183220D01*
X-149404D01*
Y-182268D01*
D02*
G37*
G36*
X-151330Y-178282D02*
X-155869D01*
X-154002Y-183220D01*
X-153205D01*
X-151330Y-178282D01*
D01*
D02*
G37*
G36*
X-159404Y-176408D02*
X-164769D01*
Y-183220D01*
X-159404D01*
Y-176408D01*
D02*
G37*
G36*
X-166348D02*
X-167249D01*
Y-183220D01*
X-166348D01*
Y-176408D01*
D02*
G37*
G36*
X-171832D02*
X-172732D01*
Y-183220D01*
X-168474D01*
Y-182415D01*
X-171832D01*
Y-176408D01*
D02*
G37*
G36*
X-203145D02*
X-203979Y-176408D01*
Y-183220D01*
X-203145Y-183220D01*
Y-178282D01*
X-203979Y-178282D01*
Y-177360D01*
X-203145Y-177360D01*
Y-176408D01*
D02*
G37*
G36*
X-205330Y-176408D02*
X-211839D01*
Y-183220D01*
X-210968D01*
Y-177419D01*
X-209005Y-183220D01*
X-207473D01*
X-208193D01*
X-206200Y-177515D01*
Y-183220D01*
X-205330D01*
Y-176408D01*
D02*
G37*
G36*
X-177024Y-183330D02*
X-180319D01*
D01*
X-177024D01*
D02*
G37*
G36*
X-213854Y-184693D02*
Y-189704D01*
X-213868Y-189505D01*
X-213898Y-189320D01*
X-213942Y-189158D01*
X-213994Y-189017D01*
X-214053Y-188899D01*
X-214075Y-188848D01*
X-214097Y-188811D01*
X-214112Y-188781D01*
X-214126Y-188759D01*
X-214141Y-188744D01*
Y-188737D01*
X-214200Y-188663D01*
X-214259Y-188589D01*
X-214400Y-188449D01*
X-214540Y-188331D01*
X-214687Y-188235D01*
X-214813Y-188154D01*
X-214872Y-188117D01*
X-214924Y-188095D01*
X-214961Y-188073D01*
X-214990Y-188058D01*
X-215012Y-188043D01*
X-215019D01*
X-215101Y-188006D01*
X-215204Y-187970D01*
X-215307Y-187933D01*
X-215425Y-187896D01*
X-215676Y-187829D01*
X-215927Y-187763D01*
X-216045Y-187726D01*
X-216156Y-187704D01*
X-216259Y-187674D01*
X-216348Y-187660D01*
X-216422Y-187637D01*
X-216473Y-187623D01*
X-216510Y-187615D01*
X-216525D01*
X-216724Y-187571D01*
X-216901Y-187519D01*
X-217056Y-187475D01*
X-217204Y-187431D01*
X-217330Y-187387D01*
X-217440Y-187350D01*
X-217536Y-187313D01*
X-217617Y-187276D01*
X-217684Y-187239D01*
X-217743Y-187209D01*
X-217787Y-187187D01*
X-217824Y-187165D01*
X-217853Y-187143D01*
X-217868Y-187128D01*
X-217883Y-187121D01*
X-217971Y-187025D01*
X-218031Y-186929D01*
X-218075Y-186826D01*
X-218112Y-186730D01*
X-218127Y-186648D01*
X-218134Y-186582D01*
X-218141Y-186538D01*
Y-186530D01*
Y-186523D01*
X-218134Y-186442D01*
X-218127Y-186368D01*
X-218082Y-186235D01*
X-218023Y-186110D01*
X-217957Y-186006D01*
X-217890Y-185918D01*
X-217831Y-185851D01*
X-217787Y-185815D01*
X-217780Y-185800D01*
X-217772D01*
X-217699Y-185748D01*
X-217610Y-185696D01*
X-217425Y-185623D01*
X-217233Y-185571D01*
X-217034Y-185534D01*
X-216946Y-185519D01*
X-216857Y-185512D01*
X-216783Y-185505D01*
X-216717D01*
X-216658Y-185497D01*
X-216444D01*
X-216311Y-185512D01*
X-216186Y-185527D01*
X-216068Y-185549D01*
X-215964Y-185571D01*
X-215868Y-185600D01*
X-215780Y-185630D01*
X-215699Y-185660D01*
X-215632Y-185696D01*
X-215573Y-185726D01*
X-215521Y-185756D01*
X-215477Y-185778D01*
X-215448Y-185800D01*
X-215418Y-185815D01*
X-215411Y-185822D01*
X-215403Y-185829D01*
X-215330Y-185896D01*
X-215263Y-185962D01*
X-215160Y-186117D01*
X-215071Y-186279D01*
X-215012Y-186434D01*
X-214968Y-186575D01*
X-214953Y-186634D01*
X-214938Y-186693D01*
X-214931Y-186737D01*
Y-186767D01*
X-214924Y-186789D01*
Y-186796D01*
X-214060Y-186730D01*
X-214082Y-186508D01*
X-214126Y-186309D01*
X-214178Y-186125D01*
X-214237Y-185969D01*
X-214274Y-185903D01*
X-214296Y-185837D01*
X-214326Y-185785D01*
X-214348Y-185741D01*
X-214370Y-185704D01*
X-214385Y-185682D01*
X-214392Y-185667D01*
X-214400Y-185660D01*
X-214525Y-185490D01*
X-214665Y-185350D01*
X-214813Y-185224D01*
X-214961Y-185121D01*
X-215086Y-185047D01*
X-215145Y-185018D01*
X-215189Y-184988D01*
X-215226Y-184966D01*
X-215263Y-184959D01*
X-215278Y-184944D01*
X-215285D01*
X-215507Y-184862D01*
X-215735Y-184796D01*
X-215964Y-184752D01*
X-216171Y-184722D01*
X-216267Y-184715D01*
X-216348Y-184707D01*
X-216429Y-184700D01*
X-216495Y-184693D01*
X-216621D01*
X-216872Y-184700D01*
X-217108Y-184730D01*
X-217315Y-184767D01*
X-217411Y-184789D01*
X-217499Y-184811D01*
X-217580Y-184833D01*
X-217654Y-184855D01*
X-217721Y-184877D01*
X-217772Y-184892D01*
X-217809Y-184907D01*
X-217846Y-184922D01*
X-217861Y-184929D01*
X-217868D01*
X-218068Y-185025D01*
X-218237Y-185136D01*
X-218385Y-185246D01*
X-218503Y-185357D01*
X-218599Y-185460D01*
X-218673Y-185541D01*
X-218695Y-185571D01*
X-218709Y-185593D01*
X-218724Y-185608D01*
Y-185615D01*
X-218820Y-185785D01*
X-218894Y-185955D01*
X-218938Y-186110D01*
X-218975Y-186257D01*
X-218997Y-186390D01*
X-219005Y-186442D01*
Y-186486D01*
X-219012Y-186523D01*
Y-186553D01*
Y-186567D01*
Y-186575D01*
X-219005Y-186744D01*
X-218975Y-186907D01*
X-218938Y-187054D01*
X-218894Y-187180D01*
X-218850Y-187283D01*
X-218813Y-187364D01*
X-218798Y-187394D01*
X-218783Y-187416D01*
X-218776Y-187423D01*
Y-187431D01*
X-218680Y-187564D01*
X-218562Y-187689D01*
X-218444Y-187792D01*
X-218318Y-187888D01*
X-218215Y-187962D01*
X-218127Y-188014D01*
X-218090Y-188029D01*
X-218068Y-188043D01*
X-218053Y-188058D01*
X-218045D01*
X-217971Y-188095D01*
X-217883Y-188132D01*
X-217787Y-188169D01*
X-217684Y-188206D01*
X-217470Y-188279D01*
X-217248Y-188346D01*
X-217145Y-188375D01*
X-217056Y-188405D01*
X-216968Y-188427D01*
X-216887Y-188449D01*
X-216828Y-188464D01*
X-216776Y-188479D01*
X-216746Y-188486D01*
X-216739D01*
X-216569Y-188523D01*
X-216414Y-188567D01*
X-216282Y-188597D01*
X-216156Y-188634D01*
X-216045Y-188663D01*
X-215942Y-188685D01*
X-215861Y-188715D01*
X-215780Y-188737D01*
X-215721Y-188752D01*
X-215662Y-188774D01*
X-215617Y-188789D01*
X-215588Y-188796D01*
X-215558Y-188803D01*
X-215544Y-188811D01*
X-215529Y-188818D01*
X-215381Y-188885D01*
X-215256Y-188951D01*
X-215145Y-189017D01*
X-215064Y-189076D01*
X-214997Y-189136D01*
X-214953Y-189180D01*
X-214924Y-189209D01*
X-214916Y-189217D01*
X-214850Y-189305D01*
X-214806Y-189401D01*
X-214769Y-189497D01*
X-214746Y-189586D01*
X-214732Y-189660D01*
X-214724Y-189726D01*
Y-189763D01*
Y-189770D01*
Y-189778D01*
X-214732Y-189888D01*
X-214754Y-189999D01*
X-214791Y-190095D01*
X-214820Y-190183D01*
X-214857Y-190257D01*
X-214894Y-190316D01*
X-214916Y-190346D01*
X-214924Y-190361D01*
X-215005Y-190457D01*
X-215093Y-190538D01*
X-215197Y-190612D01*
X-215293Y-190671D01*
X-215381Y-190715D01*
X-215448Y-190752D01*
X-215477Y-190767D01*
X-215499Y-190774D01*
X-215507Y-190781D01*
X-215514D01*
X-215662Y-190833D01*
X-215817Y-190870D01*
X-215971Y-190892D01*
X-216112Y-190907D01*
X-216230Y-190921D01*
X-216282D01*
X-216326Y-190929D01*
X-216414D01*
X-216628Y-190921D01*
X-216820Y-190899D01*
X-217005Y-190863D01*
X-217160Y-190826D01*
X-217226Y-190811D01*
X-217285Y-190796D01*
X-217337Y-190774D01*
X-217381Y-190759D01*
X-217418Y-190744D01*
X-217440Y-190737D01*
X-217455Y-190730D01*
X-217462D01*
X-217625Y-190648D01*
X-217765Y-190560D01*
X-217883Y-190479D01*
X-217979Y-190390D01*
X-218053Y-190316D01*
X-218104Y-190257D01*
X-218141Y-190220D01*
X-218149Y-190206D01*
X-218222Y-190073D01*
X-218282Y-189933D01*
X-218326Y-189792D01*
X-218363Y-189660D01*
X-218392Y-189534D01*
X-218400Y-189490D01*
X-218407Y-189445D01*
X-218414Y-189409D01*
X-218422Y-189379D01*
Y-189364D01*
Y-189357D01*
X-219270Y-189431D01*
D01*
X-219263Y-189556D01*
X-219248Y-189682D01*
X-219204Y-189910D01*
X-219145Y-190124D01*
X-219115Y-190220D01*
X-219078Y-190302D01*
X-219049Y-190383D01*
X-219012Y-190457D01*
X-218983Y-190516D01*
X-218953Y-190567D01*
X-218931Y-190612D01*
X-218916Y-190641D01*
X-218909Y-190656D01*
X-218901Y-190663D01*
X-218761Y-190855D01*
X-218599Y-191017D01*
X-218437Y-191158D01*
X-218282Y-191268D01*
X-218141Y-191357D01*
X-218082Y-191386D01*
X-218031Y-191416D01*
X-217986Y-191438D01*
X-217957Y-191453D01*
X-217935Y-191468D01*
X-217927D01*
X-217676Y-191556D01*
X-217418Y-191623D01*
X-217160Y-191667D01*
X-216916Y-191696D01*
X-216798Y-191711D01*
X-216695Y-191719D01*
X-216606Y-191726D01*
X-216525D01*
X-216459Y-191733D01*
X-219270D01*
D01*
X-213854D01*
Y-184693D01*
D02*
G37*
G36*
X-198178Y-184811D02*
X-199012D01*
Y-187261D01*
X-199101Y-187150D01*
X-199197Y-187054D01*
X-199293Y-186973D01*
X-199381Y-186899D01*
X-199462Y-186840D01*
X-199522Y-186803D01*
X-199566Y-186774D01*
X-199573Y-186767D01*
X-199581D01*
X-199713Y-186700D01*
X-199854Y-186656D01*
X-199987Y-186619D01*
X-200112Y-186597D01*
X-200215Y-186582D01*
X-200304Y-186575D01*
X-200488D01*
X-200599Y-186589D01*
X-200806Y-186626D01*
X-200990Y-186678D01*
X-201152Y-186737D01*
X-201226Y-186767D01*
X-201285Y-186796D01*
X-201344Y-186826D01*
X-201389Y-186848D01*
X-201426Y-186870D01*
X-201455Y-186885D01*
X-201470Y-186892D01*
X-201477Y-186899D01*
X-201654Y-187032D01*
X-201802Y-187180D01*
X-201927Y-187327D01*
X-202031Y-187482D01*
X-202112Y-187615D01*
X-202141Y-187674D01*
X-202171Y-187719D01*
X-202186Y-187763D01*
X-202201Y-187792D01*
X-202215Y-187814D01*
Y-187822D01*
X-202296Y-188051D01*
X-202355Y-188287D01*
X-202400Y-188508D01*
X-202429Y-188715D01*
X-202437Y-188811D01*
X-202444Y-188899D01*
X-202451Y-188973D01*
Y-189040D01*
X-202459Y-189091D01*
Y-189076D01*
Y-189165D01*
X-202444Y-189438D01*
X-202414Y-189689D01*
X-202400Y-189807D01*
X-202378Y-189918D01*
X-202348Y-190021D01*
X-202326Y-190117D01*
X-202304Y-190198D01*
X-202274Y-190279D01*
X-202252Y-190346D01*
X-202237Y-190398D01*
X-202215Y-190442D01*
X-202208Y-190471D01*
X-202193Y-190494D01*
Y-190501D01*
X-202082Y-190708D01*
X-201957Y-190892D01*
X-201832Y-191047D01*
X-201706Y-191172D01*
X-201595Y-191276D01*
X-201551Y-191313D01*
X-201507Y-191349D01*
X-201470Y-191372D01*
X-201448Y-191394D01*
X-201433Y-191401D01*
X-201426Y-191409D01*
X-201330Y-191468D01*
X-201234Y-191512D01*
X-201049Y-191593D01*
X-200865Y-191652D01*
X-200695Y-191689D01*
X-200621Y-191704D01*
X-200555Y-191718D01*
X-200496Y-191726D01*
X-200444D01*
X-200400Y-191733D01*
X-198178D01*
Y-184811D01*
D02*
G37*
G36*
X-189175Y-186575D02*
X-189249D01*
X-189433Y-186582D01*
X-189610Y-186612D01*
X-189772Y-186648D01*
X-189927Y-186700D01*
X-190068Y-186767D01*
X-190193Y-186833D01*
X-190311Y-186907D01*
X-190415Y-186981D01*
X-190510Y-187062D01*
X-190592Y-187136D01*
X-190658Y-187202D01*
X-190710Y-187268D01*
X-190754Y-187320D01*
X-190791Y-187357D01*
X-190806Y-187387D01*
X-190813Y-187394D01*
Y-186685D01*
X-191566D01*
Y-191623D01*
X-187558D01*
Y-188368D01*
Y-188390D01*
X-187566Y-188294D01*
Y-188213D01*
X-187573Y-188139D01*
Y-188073D01*
X-187581Y-187962D01*
X-187595Y-187881D01*
X-187603Y-187822D01*
X-187610Y-187785D01*
Y-187778D01*
X-187640Y-187645D01*
X-187684Y-187527D01*
X-187721Y-187423D01*
X-187765Y-187335D01*
X-187810Y-187261D01*
X-187839Y-187202D01*
X-187861Y-187172D01*
X-187868Y-187158D01*
X-187942Y-187062D01*
X-188031Y-186981D01*
X-188127Y-186914D01*
X-188215Y-186848D01*
X-188304Y-186803D01*
X-188370Y-186767D01*
X-188415Y-186744D01*
X-188422Y-186737D01*
X-188429D01*
X-188570Y-186685D01*
X-188710Y-186641D01*
X-188850Y-186612D01*
X-188976Y-186597D01*
X-189086Y-186582D01*
X-189130D01*
X-189175Y-186575D01*
D02*
G37*
G36*
X-135987Y-186575D02*
Y-190176D01*
X-135995Y-190021D01*
X-136017Y-189881D01*
X-136054Y-189763D01*
X-136090Y-189660D01*
X-136127Y-189571D01*
X-136164Y-189512D01*
X-136186Y-189475D01*
X-136194Y-189460D01*
X-136275Y-189357D01*
X-136363Y-189268D01*
X-136459Y-189195D01*
X-136548Y-189136D01*
X-136622Y-189084D01*
X-136688Y-189054D01*
X-136732Y-189032D01*
X-136740Y-189025D01*
X-136747D01*
X-136821Y-188995D01*
X-136902Y-188966D01*
X-136991Y-188929D01*
X-137087Y-188899D01*
X-137286Y-188833D01*
X-137493Y-188774D01*
X-137589Y-188744D01*
X-137685Y-188715D01*
X-137766Y-188693D01*
X-137832Y-188671D01*
X-137899Y-188656D01*
X-137943Y-188641D01*
X-137972Y-188634D01*
X-137980D01*
X-138090Y-188604D01*
X-138186Y-188575D01*
X-138275Y-188552D01*
X-138356Y-188530D01*
X-138423Y-188508D01*
X-138481Y-188494D01*
X-138533Y-188479D01*
X-138577Y-188464D01*
X-138644Y-188442D01*
X-138688Y-188427D01*
X-138710Y-188420D01*
X-138718D01*
X-138792Y-188383D01*
X-138858Y-188346D01*
X-138917Y-188309D01*
X-138961Y-188272D01*
X-138998Y-188243D01*
X-139020Y-188220D01*
X-139035Y-188206D01*
X-139042Y-188198D01*
X-139072Y-188147D01*
X-139094Y-188095D01*
X-139124Y-187999D01*
X-139131Y-187962D01*
X-139138Y-187933D01*
Y-187910D01*
Y-187903D01*
X-139131Y-187807D01*
X-139102Y-187726D01*
X-139065Y-187645D01*
X-139013Y-187578D01*
X-138969Y-187527D01*
X-138932Y-187490D01*
X-138902Y-187460D01*
X-138895Y-187453D01*
X-138843Y-187416D01*
X-138792Y-187387D01*
X-138666Y-187342D01*
X-138526Y-187305D01*
X-138393Y-187283D01*
X-138268Y-187268D01*
X-138216D01*
X-138172Y-187261D01*
X-138076D01*
X-137899Y-187268D01*
X-137751Y-187298D01*
X-137618Y-187327D01*
X-137507Y-187372D01*
X-137426Y-187409D01*
X-137367Y-187445D01*
X-137330Y-187475D01*
X-137315Y-187482D01*
X-137227Y-187571D01*
X-137153Y-187667D01*
X-137094Y-187763D01*
X-137050Y-187859D01*
X-137020Y-187940D01*
X-137005Y-188014D01*
X-136991Y-188058D01*
Y-188065D01*
Y-188073D01*
X-136172Y-187962D01*
X-136208Y-187792D01*
X-136253Y-187645D01*
X-136297Y-187512D01*
X-136349Y-187401D01*
X-136393Y-187320D01*
X-136430Y-187254D01*
X-136459Y-187217D01*
X-136467Y-187202D01*
X-136555Y-187099D01*
X-136659Y-187010D01*
X-136762Y-186929D01*
X-136865Y-186863D01*
X-136969Y-186811D01*
X-137042Y-186774D01*
X-137072Y-186759D01*
X-137094Y-186752D01*
X-137109Y-186744D01*
X-137116D01*
X-137286Y-186685D01*
X-137456Y-186648D01*
X-137633Y-186619D01*
X-137788Y-186597D01*
X-137928Y-186582D01*
X-137987D01*
X-138039Y-186575D01*
X-138135D01*
X-138275Y-186582D01*
X-138408Y-186589D01*
X-138533Y-186604D01*
X-138637Y-186626D01*
X-138733Y-186648D01*
X-138799Y-186663D01*
X-138843Y-186671D01*
X-138850Y-186678D01*
X-138858D01*
X-138976Y-186715D01*
X-139087Y-186759D01*
X-139175Y-186803D01*
X-139249Y-186840D01*
X-139308Y-186870D01*
X-139352Y-186899D01*
X-139382Y-186914D01*
X-139389Y-186922D01*
X-139485Y-186995D01*
X-139566Y-187069D01*
X-139640Y-187150D01*
X-139692Y-187224D01*
X-139743Y-187291D01*
X-139773Y-187342D01*
X-139795Y-187372D01*
X-139803Y-187387D01*
X-139854Y-187490D01*
X-139891Y-187601D01*
X-139913Y-187704D01*
X-139928Y-187800D01*
X-139943Y-187881D01*
X-139950Y-187940D01*
Y-187984D01*
Y-187992D01*
Y-187999D01*
X-139943Y-188132D01*
X-139921Y-188257D01*
X-139891Y-188368D01*
X-139862Y-188464D01*
X-139832Y-188545D01*
X-139803Y-188612D01*
X-139780Y-188648D01*
X-139773Y-188663D01*
X-139699Y-188767D01*
X-139611Y-188863D01*
X-139522Y-188936D01*
X-139434Y-189003D01*
X-139352Y-189062D01*
X-139293Y-189099D01*
X-139249Y-189121D01*
X-139242Y-189128D01*
X-139234D01*
X-139161Y-189158D01*
X-139072Y-189195D01*
X-138983Y-189232D01*
X-138880Y-189261D01*
X-138666Y-189327D01*
X-138459Y-189394D01*
X-138356Y-189423D01*
X-138260Y-189453D01*
X-138172Y-189475D01*
X-138098Y-189497D01*
X-138039Y-189512D01*
X-137987Y-189527D01*
X-137958Y-189534D01*
X-137950D01*
X-137832Y-189564D01*
X-137721Y-189593D01*
X-137618Y-189623D01*
X-137530Y-189652D01*
X-137448Y-189674D01*
X-137382Y-189696D01*
X-137323Y-189719D01*
X-137264Y-189741D01*
X-137220Y-189755D01*
X-137183Y-189770D01*
X-137131Y-189792D01*
X-137101Y-189807D01*
X-137094Y-189814D01*
X-137013Y-189881D01*
X-136946Y-189955D01*
X-136902Y-190029D01*
X-136873Y-190102D01*
X-136858Y-190161D01*
X-136843Y-190220D01*
Y-190250D01*
Y-190265D01*
X-136858Y-190383D01*
X-136888Y-190486D01*
X-136932Y-190582D01*
X-136983Y-190663D01*
X-137035Y-190730D01*
X-137079Y-190774D01*
X-137109Y-190811D01*
X-137124Y-190818D01*
X-137242Y-190892D01*
X-137374Y-190951D01*
X-137522Y-190988D01*
X-137662Y-191017D01*
X-137788Y-191032D01*
X-137839Y-191040D01*
X-137891D01*
X-137928Y-191047D01*
X-137987D01*
X-138186Y-191032D01*
X-138364Y-191003D01*
X-138518Y-190966D01*
X-138644Y-190914D01*
X-138747Y-190870D01*
X-138821Y-190825D01*
X-138865Y-190796D01*
X-138873Y-190789D01*
X-138880D01*
X-138991Y-190678D01*
X-139072Y-190560D01*
X-139138Y-190427D01*
X-139190Y-190302D01*
X-139227Y-190191D01*
X-139242Y-190147D01*
X-139249Y-190102D01*
X-139256Y-190065D01*
Y-190043D01*
X-139264Y-190029D01*
Y-190021D01*
X-140090Y-190154D01*
X-140061Y-190294D01*
X-140024Y-190434D01*
X-139980Y-190560D01*
X-139935Y-190671D01*
X-139884Y-190781D01*
X-139832Y-190877D01*
X-139780Y-190966D01*
X-139721Y-191047D01*
X-139670Y-191113D01*
X-139618Y-191172D01*
X-139574Y-191224D01*
X-139537Y-191268D01*
X-139500Y-191298D01*
X-139478Y-191320D01*
X-139463Y-191335D01*
X-139456Y-191342D01*
X-139352Y-191409D01*
X-139249Y-191468D01*
X-139131Y-191527D01*
X-139013Y-191571D01*
X-138762Y-191637D01*
X-138526Y-191682D01*
X-138415Y-191704D01*
X-138312Y-191711D01*
X-138216Y-191718D01*
X-138142Y-191726D01*
X-138076Y-191733D01*
X-140090D01*
D01*
X-135987D01*
D01*
X-137980D01*
X-137766Y-191726D01*
X-137574Y-191704D01*
X-137397Y-191667D01*
X-137242Y-191630D01*
X-137175Y-191615D01*
X-137116Y-191601D01*
X-137065Y-191578D01*
X-137020Y-191564D01*
X-136983Y-191549D01*
X-136961Y-191541D01*
X-136946Y-191534D01*
X-136939D01*
X-136777Y-191453D01*
X-136636Y-191364D01*
X-136519Y-191268D01*
X-136415Y-191172D01*
X-136341Y-191091D01*
X-136282Y-191025D01*
X-136253Y-190981D01*
X-136238Y-190973D01*
Y-190966D01*
X-136157Y-190825D01*
X-136090Y-190685D01*
X-136046Y-190552D01*
X-136017Y-190434D01*
X-136002Y-190331D01*
X-135987Y-190250D01*
Y-186575D01*
D02*
G37*
G36*
X-140747D02*
Y-190176D01*
X-140755Y-190021D01*
X-140777Y-189881D01*
X-140814Y-189763D01*
X-140850Y-189660D01*
X-140887Y-189571D01*
X-140924Y-189512D01*
X-140946Y-189475D01*
X-140954Y-189460D01*
X-141035Y-189357D01*
X-141124Y-189268D01*
X-141219Y-189195D01*
X-141308Y-189136D01*
X-141382Y-189084D01*
X-141448Y-189054D01*
X-141493Y-189032D01*
X-141500Y-189025D01*
X-141507D01*
X-141581Y-188995D01*
X-141662Y-188966D01*
X-141751Y-188929D01*
X-141847Y-188899D01*
X-142046Y-188833D01*
X-142253Y-188774D01*
X-142349Y-188744D01*
X-142445Y-188715D01*
X-142526Y-188693D01*
X-142592Y-188671D01*
X-142659Y-188656D01*
X-142703Y-188641D01*
X-142732Y-188634D01*
X-142740D01*
X-142850Y-188604D01*
X-142946Y-188575D01*
X-143035Y-188552D01*
X-143116Y-188530D01*
X-143183Y-188508D01*
X-143242Y-188494D01*
X-143293Y-188479D01*
X-143338Y-188464D01*
X-143404Y-188442D01*
X-143448Y-188427D01*
X-143470Y-188420D01*
X-143478D01*
X-143552Y-188383D01*
X-143618Y-188346D01*
X-143677Y-188309D01*
X-143721Y-188272D01*
X-143758Y-188243D01*
X-143780Y-188220D01*
X-143795Y-188206D01*
X-143802Y-188198D01*
X-143832Y-188147D01*
X-143854Y-188095D01*
X-143884Y-187999D01*
X-143891Y-187962D01*
X-143898Y-187933D01*
Y-187910D01*
Y-187903D01*
X-143891Y-187807D01*
X-143862Y-187726D01*
X-143825Y-187645D01*
X-143773Y-187578D01*
X-143729Y-187527D01*
X-143692Y-187490D01*
X-143662Y-187460D01*
X-143655Y-187453D01*
X-143603Y-187416D01*
X-143552Y-187387D01*
X-143426Y-187342D01*
X-143286Y-187305D01*
X-143153Y-187283D01*
X-143028Y-187268D01*
X-142976D01*
X-142932Y-187261D01*
X-142836D01*
X-142659Y-187268D01*
X-142511Y-187298D01*
X-142378Y-187327D01*
X-142268Y-187372D01*
X-142186Y-187409D01*
X-142127Y-187445D01*
X-142090Y-187475D01*
X-142076Y-187482D01*
X-141987Y-187571D01*
X-141913Y-187667D01*
X-141854Y-187763D01*
X-141810Y-187859D01*
X-141780Y-187940D01*
X-141766Y-188014D01*
X-141751Y-188058D01*
Y-188065D01*
Y-188073D01*
X-140932Y-187962D01*
X-140969Y-187792D01*
X-141013Y-187645D01*
X-141057Y-187512D01*
X-141109Y-187401D01*
X-141153Y-187320D01*
X-141190Y-187254D01*
X-141219Y-187217D01*
X-141227Y-187202D01*
X-141315Y-187099D01*
X-141419Y-187010D01*
X-141522Y-186929D01*
X-141625Y-186863D01*
X-141729Y-186811D01*
X-141803Y-186774D01*
X-141832Y-186759D01*
X-141854Y-186752D01*
X-141869Y-186744D01*
X-141876D01*
X-142046Y-186685D01*
X-142216Y-186648D01*
X-142393Y-186619D01*
X-142548Y-186597D01*
X-142688Y-186582D01*
X-142747D01*
X-142799Y-186575D01*
X-144851D01*
X-142895D01*
X-143035Y-186582D01*
X-143168Y-186589D01*
X-143293Y-186604D01*
X-143397Y-186626D01*
X-143493Y-186648D01*
X-143559Y-186663D01*
X-143603Y-186671D01*
X-143611Y-186678D01*
X-143618D01*
X-143736Y-186715D01*
X-143847Y-186759D01*
X-143935Y-186803D01*
X-144009Y-186840D01*
X-144068Y-186870D01*
X-144113Y-186899D01*
X-144142Y-186914D01*
X-144149Y-186922D01*
X-144245Y-186995D01*
X-144326Y-187069D01*
X-144400Y-187150D01*
X-144452Y-187224D01*
X-144504Y-187291D01*
X-144533Y-187342D01*
X-144555Y-187372D01*
X-144563Y-187387D01*
X-144614Y-187490D01*
X-144651Y-187601D01*
X-144673Y-187704D01*
X-144688Y-187800D01*
X-144703Y-187881D01*
X-144710Y-187940D01*
Y-187984D01*
Y-187992D01*
Y-187999D01*
X-144703Y-188132D01*
X-144681Y-188257D01*
X-144651Y-188368D01*
X-144622Y-188464D01*
X-144592Y-188545D01*
X-144563Y-188612D01*
X-144541Y-188648D01*
X-144533Y-188663D01*
X-144459Y-188767D01*
X-144371Y-188863D01*
X-144282Y-188936D01*
X-144194Y-189003D01*
X-144113Y-189062D01*
X-144053Y-189099D01*
X-144009Y-189121D01*
X-144002Y-189128D01*
X-143994D01*
X-143921Y-189158D01*
X-143832Y-189195D01*
X-143744Y-189232D01*
X-143640Y-189261D01*
X-143426Y-189327D01*
X-143219Y-189394D01*
X-143116Y-189423D01*
X-143020Y-189453D01*
X-142932Y-189475D01*
X-142858Y-189497D01*
X-142799Y-189512D01*
X-142747Y-189527D01*
X-142718Y-189534D01*
X-142710D01*
X-142592Y-189564D01*
X-142482Y-189593D01*
X-142378Y-189623D01*
X-142290Y-189652D01*
X-142208Y-189674D01*
X-142142Y-189696D01*
X-142083Y-189719D01*
X-142024Y-189741D01*
X-141980Y-189755D01*
X-141943Y-189770D01*
X-141891Y-189792D01*
X-141862Y-189807D01*
X-141854Y-189814D01*
X-141773Y-189881D01*
X-141707Y-189955D01*
X-141662Y-190029D01*
X-141633Y-190102D01*
X-141618Y-190161D01*
X-141603Y-190220D01*
Y-190250D01*
Y-190265D01*
X-141618Y-190383D01*
X-141648Y-190486D01*
X-141692Y-190582D01*
X-141744Y-190663D01*
X-141795Y-190730D01*
X-141839Y-190774D01*
X-141869Y-190811D01*
X-141884Y-190818D01*
X-142002Y-190892D01*
X-142135Y-190951D01*
X-142282Y-190988D01*
X-142422Y-191017D01*
X-142548Y-191032D01*
X-142600Y-191040D01*
X-142651D01*
X-142688Y-191047D01*
X-142747D01*
X-142946Y-191032D01*
X-143124Y-191003D01*
X-143279Y-190966D01*
X-143404Y-190914D01*
X-143507Y-190870D01*
X-143581Y-190825D01*
X-143625Y-190796D01*
X-143633Y-190789D01*
X-143640D01*
X-143751Y-190678D01*
X-143832Y-190560D01*
X-143898Y-190427D01*
X-143950Y-190302D01*
X-143987Y-190191D01*
X-144002Y-190147D01*
X-144009Y-190102D01*
X-144017Y-190065D01*
Y-190043D01*
X-144024Y-190029D01*
Y-190021D01*
X-144851Y-190154D01*
X-144821Y-190294D01*
X-144784Y-190434D01*
X-144740Y-190560D01*
X-144695Y-190671D01*
X-144644Y-190781D01*
X-144592Y-190877D01*
X-144541Y-190966D01*
X-144482Y-191047D01*
X-144430Y-191113D01*
X-144378Y-191172D01*
X-144334Y-191224D01*
X-144297Y-191268D01*
X-144260Y-191298D01*
X-144238Y-191320D01*
X-144223Y-191335D01*
X-144216Y-191342D01*
X-144113Y-191409D01*
X-144009Y-191468D01*
X-143891Y-191527D01*
X-143773Y-191571D01*
X-143522Y-191637D01*
X-143286Y-191682D01*
X-143175Y-191704D01*
X-143072Y-191711D01*
X-142976Y-191718D01*
X-142902Y-191726D01*
X-142836Y-191733D01*
X-144851D01*
X-140747D01*
X-142740D01*
X-142526Y-191726D01*
X-142334Y-191704D01*
X-142157Y-191667D01*
X-142002Y-191630D01*
X-141935Y-191615D01*
X-141876Y-191601D01*
X-141825Y-191578D01*
X-141780Y-191564D01*
X-141744Y-191549D01*
X-141721Y-191541D01*
X-141707Y-191534D01*
X-141699D01*
X-141537Y-191453D01*
X-141397Y-191364D01*
X-141279Y-191268D01*
X-141175Y-191172D01*
X-141101Y-191091D01*
X-141042Y-191025D01*
X-141013Y-190981D01*
X-140998Y-190973D01*
Y-190966D01*
X-140917Y-190825D01*
X-140850Y-190685D01*
X-140806Y-190552D01*
X-140777Y-190434D01*
X-140762Y-190331D01*
X-140747Y-190250D01*
Y-186575D01*
D02*
G37*
G36*
X-224931Y-186575D02*
X-225012D01*
X-225241Y-186590D01*
X-225462Y-186619D01*
X-225661Y-186671D01*
X-225750Y-186700D01*
X-225839Y-186722D01*
X-225912Y-186752D01*
X-225979Y-186781D01*
X-226038Y-186803D01*
X-226090Y-186833D01*
X-226134Y-186848D01*
X-226163Y-186863D01*
X-226178Y-186877D01*
X-226185D01*
X-226377Y-187003D01*
X-226540Y-187143D01*
X-226680Y-187298D01*
X-226791Y-187438D01*
X-226879Y-187571D01*
X-226909Y-187630D01*
X-226938Y-187682D01*
X-226960Y-187719D01*
X-226975Y-187748D01*
X-226990Y-187770D01*
Y-187778D01*
X-227078Y-188006D01*
X-227137Y-188250D01*
X-227182Y-188486D01*
X-227219Y-188700D01*
X-227226Y-188803D01*
X-227233Y-188892D01*
X-227241Y-188973D01*
Y-189047D01*
X-227248Y-189099D01*
Y-189091D01*
Y-189180D01*
X-227241Y-189401D01*
X-227219Y-189615D01*
X-227189Y-189814D01*
X-227152Y-189999D01*
X-227108Y-190169D01*
X-227056Y-190324D01*
X-226997Y-190464D01*
X-226938Y-190589D01*
X-226887Y-190700D01*
X-226828Y-190803D01*
X-226776Y-190885D01*
X-226732Y-190951D01*
X-226695Y-191010D01*
X-226665Y-191047D01*
X-226643Y-191069D01*
X-226636Y-191077D01*
X-226518Y-191195D01*
X-226392Y-191290D01*
X-226259Y-191379D01*
X-226126Y-191453D01*
X-225986Y-191519D01*
X-225853Y-191571D01*
X-225721Y-191615D01*
X-225595Y-191652D01*
X-225477Y-191682D01*
X-225366Y-191696D01*
X-225263Y-191711D01*
X-225182Y-191726D01*
X-225108D01*
X-225056Y-191733D01*
X-227248D01*
D01*
X-222960D01*
Y-191711D01*
Y-191733D01*
X-225012D01*
X-224864Y-191726D01*
X-224724Y-191711D01*
X-224591Y-191689D01*
X-224459Y-191659D01*
X-224341Y-191623D01*
X-224230Y-191578D01*
X-224126Y-191541D01*
X-224030Y-191490D01*
X-223949Y-191446D01*
X-223868Y-191409D01*
X-223809Y-191364D01*
X-223750Y-191327D01*
X-223713Y-191298D01*
X-223676Y-191276D01*
X-223661Y-191261D01*
X-223654Y-191254D01*
X-223558Y-191158D01*
X-223462Y-191062D01*
X-223381Y-190951D01*
X-223315Y-190840D01*
X-223248Y-190730D01*
X-223189Y-190619D01*
X-223101Y-190412D01*
X-223064Y-190309D01*
X-223034Y-190220D01*
X-223012Y-190139D01*
X-222990Y-190065D01*
X-222975Y-190006D01*
X-222968Y-189962D01*
X-222960Y-189933D01*
Y-191711D01*
Y-189933D01*
Y-189925D01*
X-223780Y-189814D01*
X-223802Y-189933D01*
X-223824Y-190036D01*
X-223853Y-190139D01*
X-223883Y-190228D01*
X-223920Y-190316D01*
X-223949Y-190390D01*
X-223986Y-190457D01*
X-224023Y-190523D01*
X-224060Y-190575D01*
X-224090Y-190619D01*
X-224149Y-190693D01*
X-224185Y-190737D01*
X-224193Y-190744D01*
X-224200Y-190752D01*
X-224333Y-190848D01*
X-224466Y-190921D01*
X-224606Y-190973D01*
X-224732Y-191010D01*
X-224850Y-191032D01*
X-224894Y-191040D01*
X-224938D01*
X-224975Y-191047D01*
X-225019D01*
X-225130Y-191040D01*
X-225241Y-191025D01*
X-225337Y-191003D01*
X-225433Y-190973D01*
X-225602Y-190907D01*
X-225750Y-190818D01*
X-225809Y-190781D01*
X-225861Y-190737D01*
X-225905Y-190700D01*
X-225949Y-190663D01*
X-225979Y-190641D01*
X-226001Y-190619D01*
X-226008Y-190604D01*
X-226016Y-190597D01*
X-226082Y-190508D01*
X-226141Y-190405D01*
X-226193Y-190294D01*
X-226230Y-190183D01*
X-226304Y-189940D01*
X-226348Y-189704D01*
X-226363Y-189593D01*
X-226370Y-189490D01*
X-226377Y-189394D01*
X-226385Y-189313D01*
X-226392Y-189246D01*
Y-189195D01*
Y-189158D01*
Y-189150D01*
X-226385Y-188973D01*
X-226377Y-188803D01*
X-226355Y-188656D01*
X-226333Y-188516D01*
X-226304Y-188383D01*
X-226267Y-188265D01*
X-226230Y-188161D01*
X-226193Y-188066D01*
X-226163Y-187984D01*
X-226126Y-187910D01*
X-226090Y-187851D01*
X-226060Y-187807D01*
X-226038Y-187763D01*
X-226016Y-187741D01*
X-226008Y-187726D01*
X-226001Y-187719D01*
X-225927Y-187637D01*
X-225846Y-187571D01*
X-225757Y-187505D01*
X-225676Y-187453D01*
X-225588Y-187409D01*
X-225506Y-187372D01*
X-225344Y-187320D01*
X-225197Y-187283D01*
X-225137Y-187276D01*
X-225079Y-187268D01*
X-225034Y-187261D01*
X-224975D01*
X-224828Y-187268D01*
X-224687Y-187298D01*
X-224569Y-187342D01*
X-224466Y-187387D01*
X-224385Y-187438D01*
X-224318Y-187475D01*
X-224281Y-187505D01*
X-224267Y-187519D01*
X-224163Y-187623D01*
X-224075Y-187741D01*
X-224008Y-187866D01*
X-223949Y-187984D01*
X-223905Y-188095D01*
X-223875Y-188183D01*
X-223868Y-188220D01*
X-223861Y-188243D01*
X-223853Y-188257D01*
Y-188265D01*
X-223042Y-188139D01*
X-223071Y-188006D01*
X-223115Y-187874D01*
X-223160Y-187756D01*
X-223204Y-187645D01*
X-223256Y-187541D01*
X-223315Y-187445D01*
X-223366Y-187364D01*
X-223425Y-187283D01*
X-223477Y-187217D01*
X-223529Y-187158D01*
X-223573Y-187106D01*
X-223617Y-187062D01*
X-223647Y-187032D01*
X-223676Y-187010D01*
X-223691Y-186995D01*
X-223698Y-186988D01*
X-223794Y-186914D01*
X-223898Y-186848D01*
X-224008Y-186796D01*
X-224119Y-186752D01*
X-224341Y-186678D01*
X-224547Y-186626D01*
X-224643Y-186612D01*
X-224732Y-186597D01*
X-224813Y-186590D01*
X-224879Y-186582D01*
X-224931Y-186575D01*
D02*
G37*
G36*
X-205396D02*
X-205440D01*
X-205610Y-186582D01*
X-205772Y-186597D01*
X-205920Y-186626D01*
X-206068Y-186663D01*
X-206208Y-186700D01*
X-206333Y-186752D01*
X-206451Y-186796D01*
X-206555Y-186848D01*
X-206658Y-186899D01*
X-206739Y-186951D01*
X-206813Y-187003D01*
X-206879Y-187040D01*
X-206924Y-187076D01*
X-206961Y-187106D01*
X-206983Y-187121D01*
X-206990Y-187128D01*
X-207123Y-187261D01*
X-207241Y-187401D01*
X-207344Y-187556D01*
X-207433Y-187719D01*
X-207499Y-187888D01*
X-207566Y-188058D01*
X-207617Y-188228D01*
X-207654Y-188390D01*
X-207684Y-188545D01*
X-207713Y-188685D01*
X-207728Y-188818D01*
X-207735Y-188936D01*
X-207743Y-189025D01*
X-207750Y-189099D01*
Y-189076D01*
Y-189158D01*
X-207743Y-189386D01*
X-207721Y-189601D01*
X-207691Y-189800D01*
X-207654Y-189984D01*
X-207603Y-190154D01*
X-207551Y-190309D01*
X-207492Y-190449D01*
X-207433Y-190582D01*
X-207374Y-190693D01*
X-207315Y-190796D01*
X-207263Y-190877D01*
X-207211Y-190944D01*
X-207175Y-191003D01*
X-207145Y-191040D01*
X-207123Y-191062D01*
X-207116Y-191069D01*
X-206990Y-191187D01*
X-206857Y-191290D01*
X-206724Y-191379D01*
X-206584Y-191453D01*
X-206444Y-191519D01*
X-206304Y-191571D01*
X-206171Y-191615D01*
X-206038Y-191652D01*
X-205913Y-191674D01*
X-205802Y-191696D01*
X-205699Y-191711D01*
X-205610Y-191726D01*
X-205536D01*
X-205485Y-191733D01*
X-207750D01*
X-203130Y-191733D01*
Y-189091D01*
X-203138Y-188877D01*
X-203160Y-188671D01*
X-203189Y-188479D01*
X-203234Y-188302D01*
X-203278Y-188139D01*
X-203337Y-187992D01*
X-203396Y-187851D01*
X-203455Y-187726D01*
X-203514Y-187615D01*
X-203573Y-187519D01*
X-203632Y-187438D01*
X-203677Y-187372D01*
X-203721Y-187313D01*
X-203750Y-187276D01*
X-203772Y-187254D01*
X-203780Y-187246D01*
X-203905Y-187128D01*
X-204038Y-187025D01*
X-204171Y-186936D01*
X-204311Y-186855D01*
X-204451Y-186796D01*
X-204584Y-186737D01*
X-204724Y-186693D01*
X-204850Y-186656D01*
X-204975Y-186634D01*
X-205086Y-186612D01*
X-205182Y-186597D01*
X-205271Y-186582D01*
X-205344D01*
X-205396Y-186575D01*
D02*
G37*
G36*
X-125404Y-184700D02*
Y-189158D01*
X-125412Y-188951D01*
X-125419Y-188752D01*
X-125434Y-188552D01*
X-125463Y-188361D01*
X-125485Y-188183D01*
X-125515Y-188006D01*
X-125552Y-187844D01*
X-125581Y-187689D01*
X-125618Y-187549D01*
X-125648Y-187423D01*
X-125685Y-187313D01*
X-125707Y-187224D01*
X-125729Y-187150D01*
X-125751Y-187091D01*
X-125758Y-187062D01*
X-125766Y-187047D01*
X-125847Y-186826D01*
X-125943Y-186604D01*
X-126142Y-186184D01*
X-126245Y-185977D01*
X-126356Y-185785D01*
X-126460Y-185600D01*
X-126563Y-185431D01*
X-126659Y-185276D01*
X-126755Y-185128D01*
X-126836Y-185003D01*
X-126910Y-184899D01*
X-126969Y-184818D01*
X-127013Y-184752D01*
X-127042Y-184715D01*
X-127050Y-184700D01*
X-127648D01*
X-127544Y-184877D01*
X-127456Y-185040D01*
X-127367Y-185195D01*
X-127294Y-185335D01*
X-127227Y-185460D01*
X-127168Y-185571D01*
X-127109Y-185674D01*
X-127065Y-185763D01*
X-127028Y-185844D01*
X-126991Y-185910D01*
X-126961Y-185969D01*
X-126939Y-186014D01*
X-126925Y-186051D01*
X-126910Y-186073D01*
X-126902Y-186088D01*
Y-186095D01*
X-126806Y-186338D01*
X-126718Y-186575D01*
X-126644Y-186796D01*
X-126607Y-186907D01*
X-126578Y-187003D01*
X-126556Y-187091D01*
X-126533Y-187180D01*
X-126511Y-187254D01*
X-126496Y-187313D01*
X-126482Y-187364D01*
X-126474Y-187401D01*
X-126467Y-187423D01*
Y-187431D01*
X-126400Y-187756D01*
X-126349Y-188065D01*
X-126327Y-188213D01*
X-126312Y-188361D01*
X-126297Y-188494D01*
X-126282Y-188619D01*
X-126275Y-188737D01*
X-126268Y-188840D01*
Y-188936D01*
X-126260Y-189017D01*
Y-189076D01*
Y-189128D01*
Y-189158D01*
Y-189165D01*
X-126268Y-189372D01*
X-126275Y-189586D01*
X-126319Y-189999D01*
X-126386Y-190405D01*
X-126474Y-190803D01*
X-126585Y-191187D01*
X-126696Y-191556D01*
X-126821Y-191903D01*
X-126954Y-192235D01*
X-127087Y-192530D01*
X-127146Y-192671D01*
X-127205Y-192803D01*
X-127271Y-192921D01*
X-127323Y-193040D01*
X-127382Y-193143D01*
X-127434Y-193239D01*
X-127478Y-193327D01*
X-127522Y-193401D01*
X-127559Y-193468D01*
X-127589Y-193519D01*
X-127611Y-193563D01*
X-127633Y-193600D01*
X-127640Y-193615D01*
X-127648Y-193623D01*
D01*
X-125404D01*
Y-184700D01*
D02*
G37*
G36*
X-220053Y-184700D02*
Y-189158D01*
X-220060Y-188951D01*
X-220067Y-188752D01*
X-220082Y-188552D01*
X-220112Y-188361D01*
X-220134Y-188183D01*
X-220163Y-188006D01*
X-220200Y-187844D01*
X-220230Y-187689D01*
X-220267Y-187549D01*
X-220296Y-187423D01*
X-220333Y-187313D01*
X-220355Y-187224D01*
X-220377Y-187150D01*
X-220399Y-187091D01*
X-220407Y-187062D01*
X-220414Y-187047D01*
X-220496Y-186826D01*
X-220591Y-186604D01*
X-220791Y-186184D01*
X-220894Y-185977D01*
X-221005Y-185785D01*
X-221108Y-185600D01*
X-221211Y-185431D01*
X-221307Y-185276D01*
X-221403Y-185128D01*
X-221484Y-185003D01*
X-221558Y-184899D01*
X-221617Y-184818D01*
X-221661Y-184752D01*
X-221691Y-184715D01*
X-221698Y-184700D01*
X-220053D01*
X-222296D01*
X-222193Y-184877D01*
X-222104Y-185040D01*
X-222016Y-185195D01*
X-221942Y-185335D01*
X-221876Y-185460D01*
X-221816Y-185571D01*
X-221758Y-185674D01*
X-221713Y-185763D01*
X-221676Y-185844D01*
X-221639Y-185910D01*
X-221610Y-185969D01*
X-221588Y-186014D01*
X-221573Y-186051D01*
X-221558Y-186073D01*
X-221551Y-186088D01*
Y-186095D01*
X-221455Y-186338D01*
X-221366Y-186575D01*
X-221292Y-186796D01*
X-221256Y-186907D01*
X-221226Y-187003D01*
X-221204Y-187091D01*
X-221182Y-187180D01*
X-221160Y-187254D01*
X-221145Y-187313D01*
X-221130Y-187364D01*
X-221123Y-187401D01*
X-221115Y-187423D01*
Y-187431D01*
X-221049Y-187756D01*
X-220997Y-188066D01*
X-220975Y-188213D01*
X-220960Y-188361D01*
X-220946Y-188494D01*
X-220931Y-188619D01*
X-220923Y-188737D01*
X-220916Y-188840D01*
Y-188936D01*
X-220909Y-189017D01*
Y-189076D01*
Y-189128D01*
Y-189158D01*
Y-189165D01*
X-220916Y-189372D01*
X-220923Y-189586D01*
X-220968Y-189999D01*
X-221034Y-190405D01*
X-221123Y-190803D01*
X-221234Y-191187D01*
X-221344Y-191556D01*
X-221470Y-191903D01*
X-221603Y-192235D01*
X-221735Y-192530D01*
X-221794Y-192671D01*
X-221853Y-192803D01*
X-221920Y-192921D01*
X-221972Y-193040D01*
X-222030Y-193143D01*
X-222082Y-193239D01*
X-222127Y-193327D01*
X-222171Y-193401D01*
X-222208Y-193468D01*
X-222237Y-193519D01*
X-222259Y-193564D01*
X-222281Y-193600D01*
X-222289Y-193615D01*
X-222296Y-193623D01*
X-221698D01*
X-221455Y-193283D01*
X-221234Y-192929D01*
X-221034Y-192589D01*
X-220946Y-192427D01*
X-220865Y-192272D01*
X-220791Y-192124D01*
X-220724Y-191992D01*
X-220673Y-191874D01*
X-220628Y-191778D01*
X-220591Y-191689D01*
X-220562Y-191630D01*
X-220547Y-191593D01*
X-220540Y-191578D01*
X-220451Y-191357D01*
X-220377Y-191143D01*
X-220311Y-190921D01*
X-220259Y-190708D01*
X-220208Y-190501D01*
X-220171Y-190302D01*
X-220141Y-190110D01*
X-220112Y-189933D01*
X-220090Y-189763D01*
X-220075Y-189615D01*
X-220067Y-189482D01*
X-220060Y-189372D01*
X-220053Y-189283D01*
Y-193468D01*
Y-184700D01*
D02*
G37*
G36*
X-170680Y-186685D02*
X-171514D01*
Y-189335D01*
X-171522Y-189556D01*
X-171537Y-189748D01*
X-171559Y-189910D01*
X-171581Y-190051D01*
X-171596Y-190110D01*
X-171610Y-190154D01*
X-171625Y-190198D01*
X-171633Y-190235D01*
X-171640Y-190257D01*
X-171647Y-190279D01*
X-171655Y-190287D01*
Y-190294D01*
X-171714Y-190412D01*
X-171788Y-190516D01*
X-171869Y-190604D01*
X-171942Y-190678D01*
X-172016Y-190737D01*
X-172075Y-190781D01*
X-172112Y-190811D01*
X-172120Y-190818D01*
X-172127D01*
X-172252Y-190885D01*
X-172371Y-190929D01*
X-172489Y-190966D01*
X-172599Y-190988D01*
X-172695Y-191003D01*
X-172762Y-191010D01*
X-172828D01*
X-172961Y-191003D01*
X-173086Y-190981D01*
X-173197Y-190951D01*
X-173286Y-190914D01*
X-173359Y-190885D01*
X-173418Y-190855D01*
X-173448Y-190833D01*
X-173463Y-190826D01*
X-173551Y-190752D01*
X-173625Y-190663D01*
X-173684Y-190582D01*
X-173728Y-190501D01*
X-173765Y-190427D01*
X-173787Y-190361D01*
X-173795Y-190324D01*
X-173802Y-190309D01*
X-173810Y-190265D01*
X-173817Y-190206D01*
X-173824Y-190073D01*
X-173839Y-189925D01*
Y-189778D01*
X-173846Y-189645D01*
Y-189586D01*
Y-189527D01*
Y-189482D01*
Y-189453D01*
Y-189431D01*
Y-189423D01*
Y-186685D01*
X-172680D01*
X-174680D01*
Y-189933D01*
X-174673Y-190095D01*
X-174666Y-190228D01*
X-174658Y-190339D01*
X-174651Y-190420D01*
X-174644Y-190486D01*
X-174636Y-190516D01*
Y-190530D01*
X-174599Y-190663D01*
X-174562Y-190781D01*
X-174518Y-190885D01*
X-174474Y-190973D01*
X-174437Y-191047D01*
X-174407Y-191106D01*
X-174385Y-191136D01*
X-174378Y-191150D01*
X-174304Y-191239D01*
X-174215Y-191320D01*
X-174120Y-191394D01*
X-174031Y-191453D01*
X-173942Y-191505D01*
X-173876Y-191541D01*
X-173832Y-191564D01*
X-173824Y-191571D01*
X-173817D01*
X-173669Y-191623D01*
X-173529Y-191667D01*
X-173389Y-191696D01*
X-173264Y-191711D01*
X-173153Y-191726D01*
X-173072Y-191733D01*
X-174680D01*
X-170680D01*
Y-186685D01*
D02*
G37*
G36*
X-130696Y-186575D02*
X-130799D01*
X-131028Y-186582D01*
X-131242Y-186604D01*
X-131434Y-186634D01*
X-131522Y-186648D01*
X-131596Y-186663D01*
X-131670Y-186678D01*
X-131736Y-186693D01*
X-131788Y-186707D01*
X-131832Y-186722D01*
X-131869Y-186737D01*
X-131899Y-186744D01*
X-131913Y-186752D01*
X-131921D01*
X-132090Y-186826D01*
X-132238Y-186907D01*
X-132363Y-186988D01*
X-132467Y-187069D01*
X-132548Y-187143D01*
X-132607Y-187202D01*
X-132644Y-187239D01*
X-132659Y-187246D01*
Y-187254D01*
X-132747Y-187379D01*
X-132821Y-187519D01*
X-132880Y-187660D01*
X-132932Y-187792D01*
X-132969Y-187910D01*
X-132983Y-187962D01*
X-132998Y-188006D01*
X-133006Y-188043D01*
X-133013Y-188073D01*
X-133020Y-188088D01*
Y-188095D01*
X-132201Y-188206D01*
X-132172Y-188110D01*
X-132142Y-188021D01*
X-132083Y-187874D01*
X-132009Y-187741D01*
X-131943Y-187645D01*
X-131884Y-187571D01*
X-131832Y-187512D01*
X-131803Y-187482D01*
X-131788Y-187475D01*
X-131670Y-187409D01*
X-131530Y-187357D01*
X-131389Y-187320D01*
X-131249Y-187291D01*
X-131116Y-187276D01*
X-131065D01*
X-131013Y-187268D01*
X-130917D01*
X-130696Y-187283D01*
X-130504Y-187313D01*
X-130341Y-187357D01*
X-130209Y-187409D01*
X-130105Y-187468D01*
X-130068Y-187490D01*
X-130031Y-187512D01*
X-130002Y-187527D01*
X-129987Y-187541D01*
X-129972Y-187556D01*
X-129891Y-187645D01*
X-129832Y-187756D01*
X-129788Y-187874D01*
X-129758Y-187992D01*
X-129744Y-188102D01*
X-129729Y-188191D01*
Y-188220D01*
Y-188250D01*
Y-188265D01*
Y-188272D01*
Y-188294D01*
Y-188324D01*
Y-188398D01*
X-129736Y-188427D01*
Y-188457D01*
Y-188479D01*
Y-188486D01*
X-129832Y-188516D01*
X-129936Y-188545D01*
X-130054Y-188575D01*
X-130172Y-188604D01*
X-130415Y-188656D01*
X-130659Y-188700D01*
X-130777Y-188715D01*
X-130880Y-188730D01*
X-130976Y-188744D01*
X-131065Y-188759D01*
X-131131Y-188767D01*
X-131183Y-188774D01*
X-131212Y-188781D01*
X-131227D01*
X-131404Y-188803D01*
X-131552Y-188826D01*
X-131685Y-188848D01*
X-131788Y-188863D01*
X-131869Y-188885D01*
X-131928Y-188892D01*
X-131958Y-188907D01*
X-131972D01*
X-132090Y-188944D01*
X-132209Y-188988D01*
X-132312Y-189032D01*
X-132400Y-189076D01*
X-132474Y-189113D01*
X-132526Y-189150D01*
X-132563Y-189172D01*
X-132578Y-189180D01*
X-132674Y-189254D01*
X-132755Y-189327D01*
X-132828Y-189409D01*
X-132887Y-189482D01*
X-132939Y-189556D01*
X-132976Y-189608D01*
X-132998Y-189645D01*
X-133006Y-189660D01*
X-133057Y-189778D01*
X-133101Y-189888D01*
X-133131Y-189999D01*
X-133146Y-190102D01*
X-133161Y-190191D01*
X-133168Y-190265D01*
Y-190324D01*
X-133161Y-190434D01*
X-133146Y-190545D01*
X-133131Y-190648D01*
X-133101Y-190744D01*
X-133028Y-190921D01*
X-132947Y-191062D01*
X-132910Y-191128D01*
X-132873Y-191180D01*
X-132836Y-191231D01*
X-132799Y-191268D01*
X-132769Y-191298D01*
X-132755Y-191320D01*
X-132740Y-191335D01*
X-132732Y-191342D01*
X-132644Y-191409D01*
X-132555Y-191468D01*
X-132452Y-191527D01*
X-132356Y-191571D01*
X-132150Y-191637D01*
X-131943Y-191682D01*
X-131854Y-191704D01*
X-131766Y-191711D01*
X-131685Y-191718D01*
X-131618Y-191726D01*
X-131567Y-191733D01*
X-133168D01*
D01*
X-128629D01*
D01*
X-131485D01*
X-131301Y-191726D01*
X-131131Y-191711D01*
X-130976Y-191682D01*
X-130836Y-191652D01*
X-130725Y-191623D01*
X-130674Y-191608D01*
X-130637Y-191593D01*
X-130607Y-191586D01*
X-130585Y-191578D01*
X-130570Y-191571D01*
X-130563D01*
X-130400Y-191497D01*
X-130238Y-191416D01*
X-130090Y-191320D01*
X-129950Y-191224D01*
X-129832Y-191143D01*
X-129788Y-191099D01*
X-129744Y-191069D01*
X-129707Y-191040D01*
X-129685Y-191017D01*
X-129670Y-191010D01*
X-129662Y-191003D01*
X-129648Y-191136D01*
X-129625Y-191254D01*
X-129596Y-191357D01*
X-129567Y-191446D01*
X-129544Y-191519D01*
X-129522Y-191578D01*
X-129508Y-191608D01*
X-129500Y-191623D01*
X-128629D01*
X-128681Y-191519D01*
X-128725Y-191409D01*
X-128762Y-191313D01*
X-128792Y-191224D01*
X-128814Y-191143D01*
X-128829Y-191084D01*
X-128836Y-191047D01*
Y-191032D01*
X-128843Y-190966D01*
X-128851Y-190877D01*
X-128858Y-190781D01*
X-128865Y-190671D01*
X-128873Y-190552D01*
Y-190427D01*
X-128880Y-190176D01*
Y-190058D01*
X-128887Y-189940D01*
Y-189837D01*
Y-189741D01*
Y-189667D01*
Y-189608D01*
Y-189571D01*
Y-189556D01*
Y-188442D01*
Y-188338D01*
Y-188250D01*
X-128895Y-188169D01*
Y-188088D01*
X-128902Y-187955D01*
X-128910Y-187851D01*
X-128917Y-187770D01*
X-128924Y-187719D01*
X-128932Y-187682D01*
Y-187674D01*
X-128961Y-187549D01*
X-129006Y-187438D01*
X-129050Y-187342D01*
X-129094Y-187261D01*
X-129131Y-187195D01*
X-129168Y-187143D01*
X-129190Y-187113D01*
X-129198Y-187106D01*
X-129279Y-187025D01*
X-129367Y-186951D01*
X-129463Y-186885D01*
X-129559Y-186833D01*
X-129648Y-186789D01*
X-129714Y-186759D01*
X-129744Y-186744D01*
X-129766Y-186737D01*
X-129773Y-186730D01*
X-129780D01*
X-129936Y-186678D01*
X-130105Y-186641D01*
X-130275Y-186612D01*
X-130437Y-186597D01*
X-130578Y-186582D01*
X-130644D01*
X-130696Y-186575D01*
D02*
G37*
G36*
X-134157Y-184811D02*
X-134991D01*
Y-191623D01*
X-134157D01*
Y-186678D01*
Y-186685D01*
X-134991D01*
Y-185763D01*
X-134157D01*
Y-184811D01*
D02*
G37*
G36*
X-145832Y-186685D02*
X-149832Y-186685D01*
Y-189933D01*
X-149825Y-190095D01*
X-149817Y-190228D01*
X-149810Y-190339D01*
X-149802Y-190420D01*
X-149795Y-190486D01*
X-149788Y-190516D01*
Y-190530D01*
X-149751Y-190663D01*
X-149714Y-190781D01*
X-149670Y-190885D01*
X-149625Y-190973D01*
X-149588Y-191047D01*
X-149559Y-191106D01*
X-149537Y-191136D01*
X-149529Y-191150D01*
X-149456Y-191239D01*
X-149367Y-191320D01*
X-149271Y-191394D01*
X-149182Y-191453D01*
X-149094Y-191505D01*
X-149028Y-191541D01*
X-148983Y-191564D01*
X-148976Y-191571D01*
X-148969D01*
X-148821Y-191623D01*
X-148681Y-191667D01*
X-148540Y-191696D01*
X-148415Y-191711D01*
X-148304Y-191726D01*
X-148223Y-191733D01*
X-149832D01*
X-148149D01*
X-147965Y-191726D01*
X-147795Y-191696D01*
X-147640Y-191659D01*
X-147485Y-191601D01*
X-147345Y-191541D01*
X-147220Y-191468D01*
X-147101Y-191394D01*
X-146991Y-191313D01*
X-146895Y-191239D01*
X-146814Y-191165D01*
X-146740Y-191091D01*
X-146681Y-191032D01*
X-146636Y-190973D01*
X-146607Y-190936D01*
X-146585Y-190907D01*
X-146577Y-190899D01*
Y-191623D01*
X-145832D01*
Y-186685D01*
D02*
G37*
G36*
X-150570Y-184811D02*
X-156562D01*
Y-191623D01*
X-153039D01*
X-155662D01*
Y-188597D01*
X-154504D01*
X-154400Y-188604D01*
X-154312Y-188612D01*
X-154238D01*
X-154186Y-188619D01*
X-154149Y-188626D01*
X-154127Y-188634D01*
X-154120D01*
X-154039Y-188656D01*
X-153965Y-188685D01*
X-153898Y-188715D01*
X-153832Y-188744D01*
X-153780Y-188774D01*
X-153743Y-188796D01*
X-153714Y-188811D01*
X-153707Y-188818D01*
X-153633Y-188870D01*
X-153551Y-188944D01*
X-153470Y-189017D01*
X-153404Y-189091D01*
X-153338Y-189158D01*
X-153293Y-189217D01*
X-153264Y-189254D01*
X-153249Y-189261D01*
Y-189268D01*
X-153146Y-189401D01*
X-153035Y-189549D01*
X-152932Y-189704D01*
X-152828Y-189859D01*
X-152740Y-189992D01*
X-152695Y-190051D01*
X-152666Y-190102D01*
X-152636Y-190147D01*
X-152614Y-190176D01*
X-152607Y-190198D01*
X-152600Y-190206D01*
X-151699Y-191623D01*
X-150570D01*
X-151751Y-189770D01*
X-151884Y-189578D01*
X-152016Y-189401D01*
X-152142Y-189246D01*
X-152253Y-189113D01*
X-152349Y-189010D01*
X-152393Y-188966D01*
X-152430Y-188929D01*
X-152459Y-188899D01*
X-152481Y-188877D01*
X-152489Y-188870D01*
X-152496Y-188863D01*
X-152570Y-188803D01*
X-152658Y-188737D01*
X-152747Y-188685D01*
X-152836Y-188634D01*
X-152917Y-188589D01*
X-152983Y-188552D01*
X-153027Y-188530D01*
X-153035Y-188523D01*
X-153042D01*
X-152865Y-188494D01*
X-152695Y-188457D01*
X-152540Y-188412D01*
X-152400Y-188368D01*
X-152267Y-188316D01*
X-152149Y-188265D01*
X-152046Y-188213D01*
X-151950Y-188161D01*
X-151862Y-188110D01*
X-151788Y-188058D01*
X-151729Y-188014D01*
X-151677Y-187977D01*
X-151640Y-187940D01*
X-151611Y-187918D01*
X-151596Y-187903D01*
X-151588Y-187896D01*
X-151507Y-187800D01*
X-151433Y-187704D01*
X-151367Y-187601D01*
X-151315Y-187497D01*
X-151271Y-187394D01*
X-151234Y-187291D01*
X-151175Y-187099D01*
X-151153Y-187010D01*
X-151138Y-186929D01*
X-151131Y-186855D01*
X-151123Y-186789D01*
X-151116Y-186744D01*
Y-186700D01*
Y-186678D01*
Y-186671D01*
X-151131Y-186464D01*
X-151160Y-186272D01*
X-151205Y-186102D01*
X-151256Y-185947D01*
X-151286Y-185881D01*
X-151315Y-185822D01*
X-151338Y-185770D01*
X-151360Y-185726D01*
X-151374Y-185689D01*
X-151389Y-185667D01*
X-151404Y-185652D01*
Y-185645D01*
X-151515Y-185482D01*
X-151640Y-185350D01*
X-151766Y-185231D01*
X-151891Y-185143D01*
X-151994Y-185076D01*
X-152083Y-185032D01*
X-152120Y-185018D01*
X-152142Y-185003D01*
X-152157Y-184995D01*
X-152164D01*
X-152260Y-184966D01*
X-152356Y-184936D01*
X-152577Y-184892D01*
X-152806Y-184855D01*
X-153027Y-184833D01*
X-153138Y-184826D01*
X-153234Y-184818D01*
X-153315D01*
X-153396Y-184811D01*
X-150570D01*
D02*
G37*
G36*
X-165064Y-186575D02*
X-165168D01*
X-165396Y-186582D01*
X-165610Y-186604D01*
X-165802Y-186634D01*
X-165891Y-186648D01*
X-165965Y-186663D01*
X-166039Y-186678D01*
X-166105Y-186693D01*
X-166156Y-186707D01*
X-166201Y-186722D01*
X-166238Y-186737D01*
X-166267Y-186744D01*
X-166282Y-186752D01*
X-166289D01*
X-166459Y-186826D01*
X-166607Y-186907D01*
X-166732Y-186988D01*
X-166835Y-187069D01*
X-166917Y-187143D01*
X-166976Y-187202D01*
X-167013Y-187239D01*
X-167027Y-187246D01*
Y-187254D01*
X-167116Y-187379D01*
X-167190Y-187519D01*
X-167249Y-187660D01*
X-167300Y-187792D01*
X-167337Y-187910D01*
X-167352Y-187962D01*
X-167367Y-188006D01*
X-167374Y-188043D01*
X-167382Y-188073D01*
X-167389Y-188088D01*
Y-188095D01*
X-166570Y-188206D01*
X-166540Y-188110D01*
X-166511Y-188021D01*
X-166452Y-187874D01*
X-166378Y-187741D01*
X-166312Y-187645D01*
X-166253Y-187571D01*
X-166201Y-187512D01*
X-166171Y-187482D01*
X-166156Y-187475D01*
X-166039Y-187409D01*
X-165898Y-187357D01*
X-165758Y-187320D01*
X-165618Y-187291D01*
X-165485Y-187276D01*
X-165433D01*
X-165382Y-187268D01*
X-165286D01*
X-165064Y-187283D01*
X-164872Y-187313D01*
X-164710Y-187357D01*
X-164577Y-187409D01*
X-164474Y-187468D01*
X-164437Y-187490D01*
X-164400Y-187512D01*
X-164371Y-187527D01*
X-164356Y-187541D01*
X-164341Y-187556D01*
X-164260Y-187645D01*
X-164201Y-187756D01*
X-164157Y-187874D01*
X-164127Y-187992D01*
X-164112Y-188102D01*
X-164097Y-188191D01*
Y-188220D01*
Y-188250D01*
Y-188265D01*
Y-188272D01*
Y-188294D01*
Y-188324D01*
Y-188398D01*
X-164105Y-188427D01*
Y-188457D01*
Y-188479D01*
Y-188486D01*
X-164201Y-188516D01*
X-164304Y-188545D01*
X-164422Y-188575D01*
X-164540Y-188604D01*
X-164784Y-188656D01*
X-165027Y-188700D01*
X-165146Y-188715D01*
X-165249Y-188730D01*
X-165345Y-188744D01*
X-165433Y-188759D01*
X-165500Y-188767D01*
X-165551Y-188774D01*
X-165581Y-188781D01*
X-165596D01*
X-165773Y-188803D01*
X-165920Y-188826D01*
X-166053Y-188848D01*
X-166156Y-188863D01*
X-166238Y-188885D01*
X-166297Y-188892D01*
X-166326Y-188907D01*
X-166341D01*
X-166459Y-188944D01*
X-166577Y-188988D01*
X-166681Y-189032D01*
X-166769Y-189076D01*
X-166843Y-189113D01*
X-166894Y-189150D01*
X-166931Y-189172D01*
X-166946Y-189180D01*
X-167042Y-189254D01*
X-167123Y-189327D01*
X-167197Y-189409D01*
X-167256Y-189482D01*
X-167308Y-189556D01*
X-167345Y-189608D01*
X-167367Y-189645D01*
X-167374Y-189660D01*
X-167426Y-189778D01*
X-167470Y-189888D01*
X-167500Y-189999D01*
X-167515Y-190102D01*
X-167529Y-190191D01*
X-167537Y-190265D01*
Y-190324D01*
X-167529Y-190434D01*
X-167515Y-190545D01*
X-167500Y-190648D01*
X-167470Y-190744D01*
X-167396Y-190921D01*
X-167315Y-191062D01*
X-167278Y-191128D01*
X-167241Y-191180D01*
X-167204Y-191232D01*
X-167168Y-191268D01*
X-167138Y-191298D01*
X-167123Y-191320D01*
X-167109Y-191335D01*
X-167101Y-191342D01*
X-167013Y-191409D01*
X-166924Y-191468D01*
X-166821Y-191527D01*
X-166725Y-191571D01*
X-166518Y-191637D01*
X-166312Y-191682D01*
X-166223Y-191704D01*
X-166134Y-191711D01*
X-166053Y-191718D01*
X-165987Y-191726D01*
X-165935Y-191733D01*
X-167537D01*
D01*
X-162998D01*
D01*
X-165854D01*
X-165670Y-191726D01*
X-165500Y-191711D01*
X-165345Y-191682D01*
X-165205Y-191652D01*
X-165094Y-191623D01*
X-165042Y-191608D01*
X-165005Y-191593D01*
X-164976Y-191586D01*
X-164954Y-191578D01*
X-164939Y-191571D01*
X-164931D01*
X-164769Y-191497D01*
X-164607Y-191416D01*
X-164459Y-191320D01*
X-164319Y-191224D01*
X-164201Y-191143D01*
X-164157Y-191099D01*
X-164112Y-191069D01*
X-164075Y-191040D01*
X-164053Y-191017D01*
X-164039Y-191010D01*
X-164031Y-191003D01*
X-164016Y-191136D01*
X-163994Y-191254D01*
X-163965Y-191357D01*
X-163935Y-191446D01*
X-163913Y-191519D01*
X-163891Y-191578D01*
X-163876Y-191608D01*
X-163869Y-191623D01*
X-162998D01*
X-163050Y-191519D01*
X-163094Y-191409D01*
X-163131Y-191313D01*
X-163160Y-191224D01*
X-163182Y-191143D01*
X-163197Y-191084D01*
X-163205Y-191047D01*
Y-191032D01*
X-163212Y-190966D01*
X-163219Y-190877D01*
X-163227Y-190781D01*
X-163234Y-190671D01*
X-163241Y-190552D01*
Y-190427D01*
X-163249Y-190176D01*
Y-190058D01*
X-163256Y-189940D01*
Y-189837D01*
Y-189741D01*
Y-189667D01*
Y-189608D01*
Y-189571D01*
Y-189556D01*
Y-188442D01*
Y-188338D01*
Y-188250D01*
X-163264Y-188169D01*
Y-188088D01*
X-163271Y-187955D01*
X-163278Y-187851D01*
X-163286Y-187770D01*
X-163293Y-187719D01*
X-163301Y-187682D01*
Y-187674D01*
X-163330Y-187549D01*
X-163374Y-187438D01*
X-163419Y-187342D01*
X-163463Y-187261D01*
X-163500Y-187195D01*
X-163537Y-187143D01*
X-163559Y-187113D01*
X-163566Y-187106D01*
X-163647Y-187025D01*
X-163736Y-186951D01*
X-163832Y-186885D01*
X-163928Y-186833D01*
X-164016Y-186789D01*
X-164083Y-186759D01*
X-164112Y-186744D01*
X-164134Y-186737D01*
X-164142Y-186730D01*
X-164149D01*
X-164304Y-186678D01*
X-164474Y-186641D01*
X-164644Y-186612D01*
X-164806Y-186597D01*
X-164946Y-186582D01*
X-165013D01*
X-165064Y-186575D01*
D02*
G37*
G36*
X-168555Y-184811D02*
X-169389D01*
Y-191623D01*
X-168555D01*
Y-184811D01*
D02*
G37*
G36*
X-175485D02*
X-180872D01*
Y-185615D01*
X-178629D01*
Y-191623D01*
X-175485D01*
Y-184811D01*
D02*
G37*
G36*
X-194666Y-186575D02*
X-194769D01*
X-194998Y-186582D01*
X-195212Y-186604D01*
X-195404Y-186634D01*
X-195492Y-186648D01*
X-195566Y-186663D01*
X-195640Y-186678D01*
X-195706Y-186693D01*
X-195758Y-186707D01*
X-195802Y-186722D01*
X-195839Y-186737D01*
X-195868Y-186744D01*
X-195883Y-186752D01*
X-195891D01*
X-196060Y-186826D01*
X-196208Y-186907D01*
X-196333Y-186988D01*
X-196437Y-187069D01*
X-196518Y-187143D01*
X-196577Y-187202D01*
X-196614Y-187239D01*
X-196629Y-187246D01*
Y-187254D01*
X-196717Y-187379D01*
X-196791Y-187519D01*
X-196850Y-187660D01*
X-196902Y-187792D01*
X-196939Y-187910D01*
X-196953Y-187962D01*
X-196968Y-188006D01*
X-196975Y-188043D01*
X-196983Y-188073D01*
X-196990Y-188088D01*
Y-188095D01*
X-196171Y-188206D01*
X-196142Y-188110D01*
X-196112Y-188021D01*
X-196053Y-187874D01*
X-195979Y-187741D01*
X-195913Y-187645D01*
X-195854Y-187571D01*
X-195802Y-187512D01*
X-195773Y-187482D01*
X-195758Y-187475D01*
X-195640Y-187409D01*
X-195499Y-187357D01*
X-195359Y-187320D01*
X-195219Y-187291D01*
X-195086Y-187276D01*
X-195035D01*
X-194983Y-187268D01*
X-194887D01*
X-194666Y-187283D01*
X-194474Y-187313D01*
X-194311Y-187357D01*
X-194178Y-187409D01*
X-194075Y-187468D01*
X-194038Y-187490D01*
X-194001Y-187512D01*
X-193972Y-187527D01*
X-193957Y-187541D01*
X-193942Y-187556D01*
X-193861Y-187645D01*
X-193802Y-187756D01*
X-193758Y-187874D01*
X-193728Y-187992D01*
X-193713Y-188102D01*
X-193699Y-188191D01*
Y-188220D01*
Y-188250D01*
Y-188265D01*
Y-188272D01*
Y-188294D01*
Y-188324D01*
Y-188398D01*
X-193706Y-188427D01*
Y-188457D01*
Y-188479D01*
Y-188486D01*
X-193802Y-188516D01*
X-193905Y-188545D01*
X-194023Y-188575D01*
X-194141Y-188604D01*
X-194385Y-188656D01*
X-194629Y-188700D01*
X-194747Y-188715D01*
X-194850Y-188730D01*
X-194946Y-188744D01*
X-195035Y-188759D01*
X-195101Y-188767D01*
X-195153Y-188774D01*
X-195182Y-188781D01*
X-195197D01*
X-195374Y-188803D01*
X-195522Y-188826D01*
X-195654Y-188848D01*
X-195758Y-188863D01*
X-195839Y-188885D01*
X-195898Y-188892D01*
X-195928Y-188907D01*
X-195942D01*
X-196060Y-188944D01*
X-196178Y-188988D01*
X-196282Y-189032D01*
X-196370Y-189076D01*
X-196444Y-189113D01*
X-196496Y-189150D01*
X-196533Y-189172D01*
X-196547Y-189180D01*
X-196643Y-189254D01*
X-196724Y-189327D01*
X-196798Y-189409D01*
X-196857Y-189482D01*
X-196909Y-189556D01*
X-196946Y-189608D01*
X-196968Y-189645D01*
X-196975Y-189660D01*
X-197027Y-189778D01*
X-197071Y-189888D01*
X-197101Y-189999D01*
X-197116Y-190102D01*
X-197130Y-190191D01*
X-197138Y-190265D01*
Y-190324D01*
X-197130Y-190434D01*
X-197116Y-190545D01*
X-197101Y-190648D01*
X-197071Y-190744D01*
X-196998Y-190921D01*
X-196916Y-191062D01*
X-196879Y-191128D01*
X-196843Y-191180D01*
X-196806Y-191232D01*
X-196769Y-191268D01*
X-196739Y-191298D01*
X-196724Y-191320D01*
X-196710Y-191335D01*
X-196702Y-191342D01*
X-196614Y-191409D01*
X-196525Y-191468D01*
X-196422Y-191527D01*
X-196326Y-191571D01*
X-196119Y-191637D01*
X-195913Y-191682D01*
X-195824Y-191704D01*
X-195736Y-191711D01*
X-195654Y-191718D01*
X-195588Y-191726D01*
X-195536Y-191733D01*
X-197138D01*
D01*
X-192599D01*
D01*
X-195455D01*
X-195271Y-191726D01*
X-195101Y-191711D01*
X-194946Y-191682D01*
X-194806Y-191652D01*
X-194695Y-191623D01*
X-194643Y-191608D01*
X-194606Y-191593D01*
X-194577Y-191586D01*
X-194555Y-191578D01*
X-194540Y-191571D01*
X-194533D01*
X-194370Y-191497D01*
X-194208Y-191416D01*
X-194060Y-191320D01*
X-193920Y-191224D01*
X-193802Y-191143D01*
X-193758Y-191099D01*
X-193713Y-191069D01*
X-193677Y-191040D01*
X-193654Y-191017D01*
X-193640Y-191010D01*
X-193632Y-191003D01*
X-193617Y-191136D01*
X-193595Y-191254D01*
X-193566Y-191357D01*
X-193536Y-191446D01*
X-193514Y-191519D01*
X-193492Y-191578D01*
X-193477Y-191608D01*
X-193470Y-191623D01*
X-192599D01*
X-192651Y-191519D01*
X-192695Y-191409D01*
X-192732Y-191313D01*
X-192761Y-191224D01*
X-192784Y-191143D01*
X-192798Y-191084D01*
X-192806Y-191047D01*
Y-191032D01*
X-192813Y-190966D01*
X-192821Y-190877D01*
X-192828Y-190781D01*
X-192835Y-190671D01*
X-192843Y-190552D01*
Y-190427D01*
X-192850Y-190176D01*
Y-190058D01*
X-192857Y-189940D01*
Y-189837D01*
Y-189741D01*
Y-189667D01*
Y-189608D01*
Y-189571D01*
Y-189556D01*
Y-188442D01*
Y-188338D01*
Y-188250D01*
X-192865Y-188169D01*
Y-188088D01*
X-192872Y-187955D01*
X-192879Y-187851D01*
X-192887Y-187770D01*
X-192894Y-187719D01*
X-192902Y-187682D01*
Y-187674D01*
X-192931Y-187549D01*
X-192975Y-187438D01*
X-193020Y-187342D01*
X-193064Y-187261D01*
X-193101Y-187195D01*
X-193138Y-187143D01*
X-193160Y-187113D01*
X-193167Y-187106D01*
X-193248Y-187025D01*
X-193337Y-186951D01*
X-193433Y-186885D01*
X-193529Y-186833D01*
X-193617Y-186789D01*
X-193684Y-186759D01*
X-193713Y-186744D01*
X-193736Y-186737D01*
X-193743Y-186730D01*
X-193750D01*
X-193905Y-186678D01*
X-194075Y-186641D01*
X-194245Y-186612D01*
X-194407Y-186597D01*
X-194547Y-186582D01*
X-194614D01*
X-194666Y-186575D01*
D02*
G37*
G36*
X-211898Y-184811D02*
X-212732D01*
Y-191623D01*
X-208724D01*
Y-188368D01*
X-208732Y-188243D01*
X-208739Y-188125D01*
X-208754Y-188021D01*
X-208769Y-187918D01*
X-208783Y-187829D01*
X-208798Y-187748D01*
X-208813Y-187674D01*
X-208828Y-187608D01*
X-208842Y-187549D01*
X-208857Y-187505D01*
X-208872Y-187460D01*
X-208887Y-187431D01*
X-208894Y-187409D01*
X-208902Y-187401D01*
Y-187394D01*
X-208975Y-187261D01*
X-209064Y-187136D01*
X-209167Y-187032D01*
X-209256Y-186951D01*
X-209344Y-186885D01*
X-209418Y-186833D01*
X-209448Y-186818D01*
X-209470Y-186803D01*
X-209477Y-186796D01*
X-209485D01*
X-209640Y-186722D01*
X-209802Y-186671D01*
X-209957Y-186626D01*
X-210104Y-186604D01*
X-210237Y-186590D01*
X-210289Y-186582D01*
X-210341Y-186575D01*
X-210429D01*
X-210592Y-186582D01*
X-210747Y-186604D01*
X-210894Y-186641D01*
X-211034Y-186678D01*
X-211160Y-186737D01*
X-211285Y-186789D01*
X-211396Y-186855D01*
X-211492Y-186914D01*
X-211588Y-186981D01*
X-211669Y-187047D01*
X-211735Y-187099D01*
X-211794Y-187150D01*
X-211839Y-187195D01*
X-211868Y-187232D01*
X-211890Y-187254D01*
X-211898Y-187261D01*
Y-184811D01*
D02*
G37*
G36*
X-160791Y-190671D02*
X-161743D01*
Y-191623D01*
X-161271D01*
X-161278Y-191770D01*
X-161301Y-191903D01*
X-161323Y-192014D01*
X-161345Y-192102D01*
X-161367Y-192176D01*
X-161389Y-192228D01*
X-161404Y-192265D01*
X-161411Y-192272D01*
X-161463Y-192353D01*
X-161522Y-192420D01*
X-161588Y-192479D01*
X-161655Y-192530D01*
X-161714Y-192567D01*
X-161758Y-192597D01*
X-161788Y-192612D01*
X-161802Y-192619D01*
D01*
X-161574Y-192973D01*
X-161433Y-192899D01*
X-161308Y-192818D01*
X-161205Y-192737D01*
X-161123Y-192656D01*
X-161064Y-192582D01*
X-161020Y-192523D01*
X-160991Y-192486D01*
X-160983Y-192471D01*
X-160917Y-192339D01*
X-160872Y-192198D01*
X-160836Y-192058D01*
X-160813Y-191925D01*
X-160799Y-191807D01*
Y-191755D01*
X-160791Y-191711D01*
Y-192973D01*
X-161557D01*
X-160791D01*
Y-190671D01*
D02*
G37*
G36*
X-181440Y-184700D02*
X-182038D01*
X-182201Y-184922D01*
X-182348Y-185136D01*
X-182481Y-185350D01*
X-182614Y-185556D01*
X-182725Y-185763D01*
X-182835Y-185955D01*
X-182931Y-186139D01*
X-183012Y-186309D01*
X-183086Y-186471D01*
X-183153Y-186612D01*
X-183204Y-186737D01*
X-183249Y-186840D01*
X-183285Y-186929D01*
X-183308Y-186995D01*
X-183322Y-187032D01*
X-183330Y-187047D01*
X-183389Y-187239D01*
X-183448Y-187431D01*
X-183536Y-187800D01*
X-183566Y-187984D01*
X-183596Y-188161D01*
X-183618Y-188324D01*
X-183640Y-188479D01*
X-183654Y-188626D01*
X-183662Y-188759D01*
X-183677Y-188870D01*
Y-188973D01*
X-183684Y-189047D01*
Y-189158D01*
X-183677Y-189394D01*
X-183662Y-189623D01*
X-183640Y-189844D01*
X-183610Y-190065D01*
X-183573Y-190272D01*
X-183536Y-190471D01*
X-183492Y-190663D01*
X-183448Y-190840D01*
X-183404Y-190995D01*
X-183359Y-191143D01*
X-183322Y-191268D01*
X-183285Y-191379D01*
X-183256Y-191460D01*
X-183234Y-191527D01*
X-183219Y-191564D01*
X-183212Y-191578D01*
X-183116Y-191792D01*
X-183020Y-191999D01*
X-182924Y-192198D01*
X-182828Y-192390D01*
X-182725Y-192567D01*
X-182629Y-192737D01*
X-182533Y-192892D01*
X-182444Y-193040D01*
X-182363Y-193165D01*
X-182282Y-193283D01*
X-182215Y-193386D01*
X-182156Y-193468D01*
X-182105Y-193534D01*
X-182068Y-193586D01*
X-182046Y-193615D01*
X-182038Y-193623D01*
X-183684D01*
D01*
X-181440D01*
D01*
X-181566Y-193416D01*
X-181684Y-193209D01*
X-181795Y-193003D01*
X-181898Y-192796D01*
X-182083Y-192383D01*
X-182245Y-191992D01*
X-182378Y-191608D01*
X-182489Y-191239D01*
X-182584Y-190885D01*
X-182651Y-190560D01*
X-182710Y-190257D01*
X-182732Y-190124D01*
X-182754Y-189992D01*
X-182769Y-189866D01*
X-182784Y-189748D01*
X-182798Y-189645D01*
X-182806Y-189549D01*
X-182813Y-189460D01*
X-182821Y-189386D01*
Y-189320D01*
X-182828Y-189268D01*
Y-189224D01*
Y-189187D01*
Y-189172D01*
Y-189165D01*
X-182821Y-188840D01*
X-182798Y-188523D01*
X-182784Y-188368D01*
X-182762Y-188228D01*
X-182747Y-188088D01*
X-182725Y-187962D01*
X-182710Y-187844D01*
X-182695Y-187741D01*
X-182673Y-187645D01*
X-182658Y-187564D01*
X-182643Y-187505D01*
X-182636Y-187453D01*
X-182629Y-187423D01*
Y-187416D01*
X-182562Y-187158D01*
X-182489Y-186914D01*
X-182415Y-186685D01*
X-182378Y-186582D01*
X-182348Y-186486D01*
X-182311Y-186398D01*
X-182282Y-186316D01*
X-182252Y-186250D01*
X-182230Y-186191D01*
X-182215Y-186147D01*
X-182201Y-186110D01*
X-182186Y-186088D01*
Y-186080D01*
X-182149Y-185999D01*
X-182105Y-185903D01*
X-182053Y-185800D01*
X-181994Y-185689D01*
X-181869Y-185460D01*
X-181743Y-185231D01*
X-181684Y-185128D01*
X-181632Y-185025D01*
X-181581Y-184936D01*
X-181529Y-184855D01*
X-181492Y-184789D01*
X-181463Y-184744D01*
X-181448Y-184707D01*
X-181440Y-184700D01*
D02*
G37*
G36*
X-227979Y-184700D02*
X-228577D01*
X-228739Y-184922D01*
X-228887Y-185136D01*
X-229019Y-185350D01*
X-229152Y-185556D01*
X-229263Y-185763D01*
X-229374Y-185955D01*
X-229470Y-186139D01*
X-229551Y-186309D01*
X-229625Y-186471D01*
X-229691Y-186612D01*
X-229743Y-186737D01*
X-229787Y-186840D01*
X-229824Y-186929D01*
X-229846Y-186995D01*
X-229861Y-187032D01*
X-229868Y-187047D01*
X-229927Y-187239D01*
X-229986Y-187431D01*
X-230075Y-187800D01*
X-230104Y-187984D01*
X-230134Y-188161D01*
X-230156Y-188324D01*
X-230178Y-188479D01*
X-230193Y-188626D01*
X-230200Y-188759D01*
X-230215Y-188870D01*
Y-188973D01*
X-230222Y-189047D01*
Y-189158D01*
X-230215Y-189394D01*
X-230200Y-189623D01*
X-230178Y-189844D01*
X-230149Y-190065D01*
X-230112Y-190272D01*
X-230075Y-190471D01*
X-230030Y-190663D01*
X-229986Y-190840D01*
X-229942Y-190995D01*
X-229898Y-191143D01*
X-229861Y-191268D01*
X-229824Y-191379D01*
X-229794Y-191460D01*
X-229772Y-191527D01*
X-229757Y-191564D01*
X-229750Y-191578D01*
X-229654Y-191792D01*
X-229558Y-191999D01*
X-229462Y-192198D01*
X-229366Y-192390D01*
X-229263Y-192567D01*
X-229167Y-192737D01*
X-229071Y-192892D01*
X-228982Y-193040D01*
X-228901Y-193165D01*
X-228820Y-193283D01*
X-228754Y-193386D01*
X-228695Y-193468D01*
X-228643Y-193534D01*
X-228606Y-193586D01*
X-228584Y-193615D01*
X-228577Y-193623D01*
X-230222D01*
D01*
X-227979D01*
D01*
X-228104Y-193416D01*
X-228222Y-193209D01*
X-228333Y-193003D01*
X-228436Y-192796D01*
X-228621Y-192383D01*
X-228783Y-191992D01*
X-228916Y-191608D01*
X-229027Y-191239D01*
X-229123Y-190885D01*
X-229189Y-190560D01*
X-229248Y-190257D01*
X-229270Y-190124D01*
X-229292Y-189992D01*
X-229307Y-189866D01*
X-229322Y-189748D01*
X-229337Y-189645D01*
X-229344Y-189549D01*
X-229351Y-189460D01*
X-229359Y-189386D01*
Y-189320D01*
X-229366Y-189268D01*
Y-189224D01*
Y-189187D01*
Y-189172D01*
Y-189165D01*
X-229359Y-188840D01*
X-229337Y-188523D01*
X-229322Y-188368D01*
X-229300Y-188228D01*
X-229285Y-188088D01*
X-229263Y-187962D01*
X-229248Y-187844D01*
X-229233Y-187741D01*
X-229211Y-187645D01*
X-229197Y-187564D01*
X-229182Y-187505D01*
X-229174Y-187453D01*
X-229167Y-187423D01*
Y-187416D01*
X-229101Y-187158D01*
X-229027Y-186914D01*
X-228953Y-186685D01*
X-228916Y-186582D01*
X-228887Y-186486D01*
X-228850Y-186398D01*
X-228820Y-186316D01*
X-228791Y-186250D01*
X-228768Y-186191D01*
X-228754Y-186147D01*
X-228739Y-186110D01*
X-228724Y-186088D01*
Y-186080D01*
X-228687Y-185999D01*
X-228643Y-185903D01*
X-228591Y-185800D01*
X-228532Y-185689D01*
X-228407Y-185460D01*
X-228281Y-185231D01*
X-228222Y-185128D01*
X-228171Y-185025D01*
X-228119Y-184936D01*
X-228067Y-184855D01*
X-228030Y-184789D01*
X-228001Y-184745D01*
X-227986Y-184707D01*
X-227979Y-184700D01*
D02*
G37*
%LPD*%
G36*
X-191839Y-178873D02*
X-191728Y-178888D01*
X-191625Y-178910D01*
X-191529Y-178939D01*
X-191352Y-179013D01*
X-191197Y-179102D01*
X-191138Y-179146D01*
X-191079Y-179190D01*
X-191034Y-179227D01*
X-190990Y-179264D01*
X-190961Y-179294D01*
X-190939Y-179316D01*
X-190924Y-179331D01*
X-190916Y-179338D01*
X-190843Y-179434D01*
X-190776Y-179530D01*
X-190725Y-179640D01*
X-190673Y-179751D01*
X-190629Y-179869D01*
X-190599Y-179987D01*
X-190547Y-180209D01*
X-190533Y-180312D01*
X-190518Y-180408D01*
X-190510Y-180497D01*
X-190503Y-180578D01*
X-190496Y-180637D01*
Y-180688D01*
Y-180718D01*
Y-180725D01*
X-190503Y-180902D01*
X-190510Y-181065D01*
X-190533Y-181220D01*
X-190562Y-181360D01*
X-190592Y-181493D01*
X-190629Y-181611D01*
X-190665Y-181722D01*
X-190702Y-181810D01*
X-190747Y-181899D01*
X-190784Y-181973D01*
X-190821Y-182032D01*
X-190850Y-182083D01*
X-190879Y-182120D01*
X-190902Y-182150D01*
X-190909Y-182164D01*
X-190916Y-182172D01*
X-190998Y-182253D01*
X-191079Y-182327D01*
X-191167Y-182393D01*
X-191249Y-182445D01*
X-191337Y-182489D01*
X-191426Y-182526D01*
X-191588Y-182585D01*
X-191728Y-182622D01*
X-191795Y-182629D01*
X-191846Y-182637D01*
X-191891Y-182644D01*
X-191950D01*
X-192068Y-182637D01*
X-192171Y-182622D01*
X-192282Y-182600D01*
X-192378Y-182570D01*
X-192555Y-182497D01*
X-192702Y-182408D01*
X-192769Y-182371D01*
X-192828Y-182327D01*
X-192872Y-182290D01*
X-192916Y-182253D01*
X-192946Y-182223D01*
X-192968Y-182201D01*
X-192983Y-182186D01*
X-192990Y-182179D01*
X-193064Y-182083D01*
X-193123Y-181980D01*
X-193182Y-181869D01*
X-193226Y-181758D01*
X-193300Y-181522D01*
X-193352Y-181286D01*
X-193367Y-181183D01*
X-193381Y-181079D01*
X-193389Y-180991D01*
X-193396Y-180910D01*
X-193403Y-180843D01*
Y-180799D01*
Y-180762D01*
Y-180755D01*
X-193396Y-180585D01*
X-193389Y-180423D01*
X-193367Y-180275D01*
X-193337Y-180135D01*
X-193308Y-180009D01*
X-193271Y-179891D01*
X-193234Y-179788D01*
X-193197Y-179692D01*
X-193160Y-179611D01*
X-193123Y-179537D01*
X-193086Y-179478D01*
X-193057Y-179426D01*
X-193027Y-179390D01*
X-193005Y-179360D01*
X-192998Y-179345D01*
X-192990Y-179338D01*
X-192909Y-179257D01*
X-192828Y-179183D01*
X-192739Y-179116D01*
X-192651Y-179065D01*
X-192562Y-179021D01*
X-192481Y-178984D01*
X-192311Y-178925D01*
X-192171Y-178888D01*
X-192105Y-178880D01*
X-192053Y-178873D01*
X-192009Y-178866D01*
X-191950D01*
X-191839Y-178873D01*
D02*
G37*
G36*
X-189640Y-183330D02*
X-191950D01*
X-191714Y-183316D01*
X-191492Y-183286D01*
X-191293Y-183235D01*
X-191197Y-183212D01*
X-191116Y-183183D01*
X-191034Y-183153D01*
X-190968Y-183131D01*
X-190909Y-183102D01*
X-190857Y-183080D01*
X-190813Y-183065D01*
X-190784Y-183050D01*
X-190769Y-183035D01*
X-190761D01*
X-190570Y-182910D01*
X-190400Y-182777D01*
X-190260Y-182637D01*
X-190141Y-182497D01*
X-190046Y-182378D01*
X-190009Y-182319D01*
X-189979Y-182275D01*
X-189957Y-182238D01*
X-189942Y-182209D01*
X-189927Y-182194D01*
Y-182186D01*
X-189876Y-182076D01*
X-189832Y-181965D01*
X-189758Y-181722D01*
X-189706Y-181471D01*
X-189677Y-181235D01*
X-189662Y-181124D01*
X-189655Y-181020D01*
X-189647Y-180924D01*
Y-180843D01*
X-189640Y-180777D01*
Y-183330D01*
D02*
G37*
G36*
X-153293Y-181301D02*
X-153367Y-181500D01*
X-153426Y-181677D01*
X-153478Y-181840D01*
X-153522Y-181973D01*
X-153559Y-182083D01*
X-153574Y-182127D01*
X-153581Y-182172D01*
X-153588Y-182201D01*
X-153596Y-182223D01*
X-153603Y-182231D01*
Y-182238D01*
X-153662Y-182046D01*
X-153714Y-181862D01*
X-153765Y-181692D01*
X-153817Y-181544D01*
X-153861Y-181419D01*
X-153876Y-181367D01*
X-153891Y-181323D01*
X-153906Y-181286D01*
X-153913Y-181264D01*
X-153920Y-181249D01*
Y-181242D01*
X-154983Y-178282D01*
X-152194D01*
X-153293Y-181301D01*
D02*
G37*
G36*
X-160267Y-181758D02*
X-163847Y-176408D01*
X-160267D01*
Y-181758D01*
D02*
G37*
G36*
X-160334Y-183220D02*
X-163906D01*
Y-177877D01*
X-160334Y-183220D01*
D02*
G37*
G36*
X-208186Y-181146D02*
X-208230Y-181279D01*
X-208274Y-181397D01*
X-208311Y-181515D01*
X-208348Y-181618D01*
X-208378Y-181722D01*
X-208407Y-181810D01*
X-208437Y-181891D01*
X-208459Y-181965D01*
X-208481Y-182024D01*
X-208496Y-182083D01*
X-208510Y-182127D01*
X-208525Y-182172D01*
X-208533Y-182201D01*
X-208540Y-182223D01*
X-208547Y-182231D01*
Y-182238D01*
X-208569Y-182172D01*
X-208592Y-182098D01*
X-208643Y-181943D01*
X-208695Y-181773D01*
X-208747Y-181611D01*
X-208798Y-181463D01*
X-208820Y-181397D01*
X-208835Y-181345D01*
X-208850Y-181301D01*
X-208865Y-181264D01*
X-208872Y-181242D01*
Y-181235D01*
X-210488Y-176408D01*
X-206547D01*
X-208186Y-181146D01*
D02*
G37*
G36*
X-213854Y-191733D02*
X-216370D01*
X-216104Y-191719D01*
X-215861Y-191689D01*
X-215639Y-191652D01*
X-215536Y-191623D01*
X-215448Y-191601D01*
X-215359Y-191578D01*
X-215285Y-191549D01*
X-215219Y-191527D01*
X-215167Y-191512D01*
X-215123Y-191490D01*
X-215093Y-191482D01*
X-215071Y-191468D01*
X-215064D01*
X-214857Y-191357D01*
X-214680Y-191239D01*
X-214525Y-191113D01*
X-214400Y-190995D01*
X-214296Y-190885D01*
X-214230Y-190803D01*
X-214200Y-190767D01*
X-214186Y-190744D01*
X-214171Y-190730D01*
Y-190722D01*
X-214112Y-190634D01*
X-214068Y-190538D01*
X-213986Y-190361D01*
X-213927Y-190191D01*
X-213890Y-190036D01*
X-213868Y-189896D01*
X-213861Y-189844D01*
Y-189792D01*
X-213854Y-189755D01*
Y-191733D01*
D02*
G37*
G36*
X-200193Y-187276D02*
X-200090Y-187291D01*
X-199994Y-187313D01*
X-199905Y-187342D01*
X-199735Y-187423D01*
X-199595Y-187505D01*
X-199485Y-187593D01*
X-199440Y-187637D01*
X-199396Y-187674D01*
X-199366Y-187704D01*
X-199344Y-187726D01*
X-199337Y-187741D01*
X-199330Y-187748D01*
X-199256Y-187844D01*
X-199197Y-187947D01*
X-199145Y-188058D01*
X-199101Y-188176D01*
X-199027Y-188427D01*
X-198983Y-188663D01*
X-198961Y-188781D01*
X-198953Y-188885D01*
X-198946Y-188981D01*
X-198939Y-189069D01*
X-198931Y-189136D01*
Y-189187D01*
Y-189217D01*
Y-189232D01*
X-198939Y-189401D01*
X-198946Y-189556D01*
X-198968Y-189704D01*
X-198990Y-189837D01*
X-199020Y-189955D01*
X-199057Y-190073D01*
X-199093Y-190176D01*
X-199123Y-190265D01*
X-199160Y-190346D01*
X-199197Y-190412D01*
X-199234Y-190471D01*
X-199263Y-190516D01*
X-199285Y-190560D01*
X-199308Y-190582D01*
X-199315Y-190597D01*
X-199322Y-190604D01*
X-199396Y-190685D01*
X-199470Y-190752D01*
X-199551Y-190811D01*
X-199632Y-190863D01*
X-199706Y-190899D01*
X-199787Y-190936D01*
X-199935Y-190988D01*
X-200060Y-191025D01*
X-200119Y-191032D01*
X-200164Y-191040D01*
X-200208Y-191047D01*
X-200259D01*
X-200363Y-191040D01*
X-200459Y-191025D01*
X-200547Y-191003D01*
X-200636Y-190973D01*
X-200798Y-190899D01*
X-200939Y-190811D01*
X-201049Y-190730D01*
X-201094Y-190693D01*
X-201130Y-190656D01*
X-201160Y-190626D01*
X-201189Y-190604D01*
X-201197Y-190589D01*
X-201204Y-190582D01*
X-201271Y-190486D01*
X-201337Y-190383D01*
X-201389Y-190272D01*
X-201433Y-190161D01*
X-201507Y-189925D01*
X-201551Y-189696D01*
X-201566Y-189586D01*
X-201581Y-189490D01*
X-201588Y-189401D01*
X-201595Y-189320D01*
X-201603Y-189254D01*
Y-189209D01*
Y-189172D01*
Y-189165D01*
X-201595Y-188988D01*
X-201588Y-188818D01*
X-201566Y-188671D01*
X-201544Y-188523D01*
X-201514Y-188398D01*
X-201485Y-188279D01*
X-201455Y-188169D01*
X-201418Y-188080D01*
X-201381Y-187992D01*
X-201352Y-187925D01*
X-201322Y-187859D01*
X-201293Y-187814D01*
X-201271Y-187778D01*
X-201248Y-187748D01*
X-201241Y-187733D01*
X-201234Y-187726D01*
X-201160Y-187645D01*
X-201086Y-187578D01*
X-201005Y-187512D01*
X-200931Y-187460D01*
X-200850Y-187416D01*
X-200769Y-187379D01*
X-200621Y-187327D01*
X-200496Y-187291D01*
X-200437Y-187283D01*
X-200392Y-187276D01*
X-200348Y-187268D01*
X-200296D01*
X-200193Y-187276D01*
D02*
G37*
G36*
X-198953Y-191623D02*
X-198178D01*
Y-191733D01*
X-200341D01*
X-200171Y-191726D01*
X-200016Y-191704D01*
X-199876Y-191667D01*
X-199735Y-191615D01*
X-199610Y-191564D01*
X-199499Y-191505D01*
X-199396Y-191438D01*
X-199300Y-191364D01*
X-199219Y-191298D01*
X-199153Y-191232D01*
X-199093Y-191172D01*
X-199042Y-191113D01*
X-199005Y-191069D01*
X-198975Y-191032D01*
X-198961Y-191010D01*
X-198953Y-191003D01*
Y-191623D01*
D02*
G37*
G36*
X-189300Y-187305D02*
X-189190Y-187320D01*
X-189094Y-187350D01*
X-189005Y-187372D01*
X-188939Y-187401D01*
X-188887Y-187431D01*
X-188850Y-187445D01*
X-188843Y-187453D01*
X-188754Y-187512D01*
X-188680Y-187578D01*
X-188621Y-187645D01*
X-188577Y-187711D01*
X-188540Y-187770D01*
X-188518Y-187814D01*
X-188503Y-187844D01*
X-188496Y-187859D01*
X-188459Y-187962D01*
X-188437Y-188080D01*
X-188415Y-188206D01*
X-188407Y-188331D01*
X-188400Y-188442D01*
X-188392Y-188494D01*
Y-188538D01*
Y-188567D01*
Y-188597D01*
Y-188612D01*
Y-188619D01*
Y-191623D01*
X-190732D01*
Y-188929D01*
X-190725Y-188759D01*
X-190717Y-188597D01*
X-190695Y-188457D01*
X-190673Y-188324D01*
X-190643Y-188206D01*
X-190614Y-188102D01*
X-190577Y-188006D01*
X-190540Y-187925D01*
X-190503Y-187851D01*
X-190466Y-187792D01*
X-190437Y-187748D01*
X-190407Y-187704D01*
X-190385Y-187674D01*
X-190363Y-187652D01*
X-190356Y-187645D01*
X-190348Y-187637D01*
X-190274Y-187578D01*
X-190193Y-187527D01*
X-190038Y-187438D01*
X-189883Y-187379D01*
X-189743Y-187342D01*
X-189618Y-187313D01*
X-189558Y-187305D01*
X-189514D01*
X-189477Y-187298D01*
X-189426D01*
X-189300Y-187305D01*
D02*
G37*
G36*
X-205330Y-187276D02*
X-205219Y-187291D01*
X-205116Y-187313D01*
X-205020Y-187342D01*
X-204842Y-187416D01*
X-204688Y-187505D01*
X-204628Y-187549D01*
X-204569Y-187593D01*
X-204525Y-187630D01*
X-204481Y-187667D01*
X-204451Y-187697D01*
X-204429Y-187719D01*
X-204415Y-187733D01*
X-204407Y-187741D01*
X-204333Y-187837D01*
X-204267Y-187933D01*
X-204215Y-188043D01*
X-204164Y-188154D01*
X-204119Y-188272D01*
X-204090Y-188390D01*
X-204038Y-188612D01*
X-204023Y-188715D01*
X-204009Y-188811D01*
X-204001Y-188899D01*
X-203994Y-188981D01*
X-203986Y-189040D01*
Y-189091D01*
Y-189121D01*
Y-189128D01*
X-203994Y-189305D01*
X-204001Y-189468D01*
X-204023Y-189623D01*
X-204053Y-189763D01*
X-204082Y-189896D01*
X-204119Y-190014D01*
X-204156Y-190124D01*
X-204193Y-190213D01*
X-204237Y-190302D01*
X-204274Y-190375D01*
X-204311Y-190434D01*
X-204341Y-190486D01*
X-204370Y-190523D01*
X-204392Y-190552D01*
X-204400Y-190567D01*
X-204407Y-190575D01*
X-204488Y-190656D01*
X-204569Y-190730D01*
X-204658Y-190796D01*
X-204739Y-190848D01*
X-204828Y-190892D01*
X-204916Y-190929D01*
X-205079Y-190988D01*
X-205219Y-191025D01*
X-205285Y-191032D01*
X-205337Y-191040D01*
X-205381Y-191047D01*
X-205440D01*
X-205558Y-191040D01*
X-205662Y-191025D01*
X-205772Y-191003D01*
X-205868Y-190973D01*
X-206045Y-190899D01*
X-206193Y-190811D01*
X-206259Y-190774D01*
X-206318Y-190730D01*
X-206363Y-190693D01*
X-206407Y-190656D01*
X-206437Y-190626D01*
X-206459Y-190604D01*
X-206473Y-190589D01*
X-206481Y-190582D01*
X-206555Y-190486D01*
X-206614Y-190383D01*
X-206673Y-190272D01*
X-206717Y-190161D01*
X-206791Y-189925D01*
X-206842Y-189689D01*
X-206857Y-189586D01*
X-206872Y-189482D01*
X-206879Y-189394D01*
X-206887Y-189313D01*
X-206894Y-189246D01*
Y-189202D01*
Y-189165D01*
Y-189158D01*
X-206887Y-188988D01*
X-206879Y-188826D01*
X-206857Y-188678D01*
X-206828Y-188538D01*
X-206798Y-188412D01*
X-206761Y-188294D01*
X-206724Y-188191D01*
X-206687Y-188095D01*
X-206651Y-188014D01*
X-206614Y-187940D01*
X-206577Y-187881D01*
X-206547Y-187829D01*
X-206518Y-187792D01*
X-206496Y-187763D01*
X-206488Y-187748D01*
X-206481Y-187741D01*
X-206400Y-187660D01*
X-206318Y-187586D01*
X-206230Y-187519D01*
X-206141Y-187468D01*
X-206053Y-187423D01*
X-205972Y-187387D01*
X-205802Y-187327D01*
X-205662Y-187291D01*
X-205595Y-187283D01*
X-205544Y-187276D01*
X-205499Y-187268D01*
X-205440D01*
X-205330Y-187276D01*
D02*
G37*
G36*
X-203130Y-191733D02*
X-205440Y-191733D01*
X-205204Y-191719D01*
X-204983Y-191689D01*
X-204784Y-191637D01*
X-204688Y-191615D01*
X-204606Y-191586D01*
X-204525Y-191556D01*
X-204459Y-191534D01*
X-204400Y-191505D01*
X-204348Y-191482D01*
X-204304Y-191468D01*
X-204274Y-191453D01*
X-204259Y-191438D01*
X-204252D01*
X-204060Y-191313D01*
X-203890Y-191180D01*
X-203750Y-191040D01*
X-203632Y-190899D01*
X-203536Y-190781D01*
X-203499Y-190722D01*
X-203470Y-190678D01*
X-203448Y-190641D01*
X-203433Y-190612D01*
X-203418Y-190597D01*
Y-190589D01*
X-203366Y-190479D01*
X-203322Y-190368D01*
X-203248Y-190124D01*
X-203197Y-189874D01*
X-203167Y-189637D01*
X-203152Y-189527D01*
X-203145Y-189423D01*
X-203138Y-189327D01*
Y-189246D01*
X-203130Y-189180D01*
Y-191733D01*
D02*
G37*
G36*
X-125404Y-193623D02*
X-127050D01*
X-126806Y-193283D01*
X-126585Y-192929D01*
X-126386Y-192589D01*
X-126297Y-192427D01*
X-126216Y-192272D01*
X-126142Y-192124D01*
X-126076Y-191992D01*
X-126024Y-191874D01*
X-125980Y-191778D01*
X-125943Y-191689D01*
X-125913Y-191630D01*
X-125899Y-191593D01*
X-125891Y-191578D01*
X-125803Y-191357D01*
X-125729Y-191143D01*
X-125663Y-190921D01*
X-125611Y-190708D01*
X-125559Y-190501D01*
X-125522Y-190302D01*
X-125493Y-190110D01*
X-125463Y-189933D01*
X-125441Y-189763D01*
X-125426Y-189615D01*
X-125419Y-189482D01*
X-125412Y-189372D01*
X-125404Y-189283D01*
Y-193623D01*
D02*
G37*
G36*
X-171426Y-191623D02*
X-170680D01*
Y-191733D01*
X-172998D01*
X-172813Y-191726D01*
X-172644Y-191696D01*
X-172489Y-191659D01*
X-172334Y-191601D01*
X-172193Y-191541D01*
X-172068Y-191468D01*
X-171950Y-191394D01*
X-171839Y-191313D01*
X-171743Y-191239D01*
X-171662Y-191165D01*
X-171588Y-191091D01*
X-171529Y-191032D01*
X-171485Y-190973D01*
X-171455Y-190936D01*
X-171433Y-190907D01*
X-171426Y-190899D01*
Y-191623D01*
D02*
G37*
G36*
X-129736Y-189453D02*
X-129744Y-189645D01*
X-129758Y-189814D01*
X-129780Y-189962D01*
X-129803Y-190080D01*
X-129825Y-190169D01*
X-129847Y-190235D01*
X-129862Y-190272D01*
X-129869Y-190287D01*
X-129943Y-190420D01*
X-130031Y-190530D01*
X-130120Y-190634D01*
X-130209Y-190715D01*
X-130297Y-190781D01*
X-130364Y-190833D01*
X-130408Y-190862D01*
X-130415Y-190870D01*
X-130423D01*
X-130570Y-190936D01*
X-130718Y-190988D01*
X-130858Y-191025D01*
X-130998Y-191047D01*
X-131109Y-191062D01*
X-131161Y-191069D01*
X-131205Y-191077D01*
X-131286D01*
X-131456Y-191069D01*
X-131603Y-191040D01*
X-131736Y-191003D01*
X-131840Y-190966D01*
X-131921Y-190921D01*
X-131980Y-190892D01*
X-132009Y-190862D01*
X-132024Y-190855D01*
X-132105Y-190767D01*
X-132172Y-190678D01*
X-132216Y-190582D01*
X-132245Y-190494D01*
X-132260Y-190420D01*
X-132268Y-190353D01*
X-132275Y-190316D01*
Y-190302D01*
X-132268Y-190220D01*
X-132260Y-190147D01*
X-132238Y-190080D01*
X-132216Y-190021D01*
X-132201Y-189970D01*
X-132179Y-189933D01*
X-132172Y-189910D01*
X-132164Y-189903D01*
X-132113Y-189837D01*
X-132061Y-189785D01*
X-132009Y-189741D01*
X-131950Y-189696D01*
X-131906Y-189667D01*
X-131869Y-189645D01*
X-131840Y-189637D01*
X-131832Y-189630D01*
X-131736Y-189593D01*
X-131625Y-189564D01*
X-131507Y-189534D01*
X-131389Y-189512D01*
X-131279Y-189490D01*
X-131183Y-189475D01*
X-131153Y-189468D01*
X-131124Y-189460D01*
X-131102D01*
X-130932Y-189438D01*
X-130777Y-189409D01*
X-130637Y-189386D01*
X-130504Y-189357D01*
X-130378Y-189327D01*
X-130268Y-189305D01*
X-130164Y-189276D01*
X-130068Y-189254D01*
X-129994Y-189232D01*
X-129921Y-189209D01*
X-129862Y-189195D01*
X-129817Y-189172D01*
X-129780Y-189158D01*
X-129751Y-189150D01*
X-129736Y-189143D01*
X-129729D01*
X-129736Y-189453D01*
D02*
G37*
G36*
X-146666Y-189335D02*
X-146673Y-189556D01*
X-146688Y-189748D01*
X-146710Y-189910D01*
X-146732Y-190051D01*
X-146747Y-190110D01*
X-146762Y-190154D01*
X-146777Y-190198D01*
X-146784Y-190235D01*
X-146791Y-190257D01*
X-146799Y-190279D01*
X-146806Y-190287D01*
Y-190294D01*
X-146865Y-190412D01*
X-146939Y-190516D01*
X-147020Y-190604D01*
X-147094Y-190678D01*
X-147168Y-190737D01*
X-147227Y-190781D01*
X-147264Y-190811D01*
X-147271Y-190818D01*
X-147278D01*
X-147404Y-190885D01*
X-147522Y-190929D01*
X-147640Y-190966D01*
X-147751Y-190988D01*
X-147847Y-191003D01*
X-147913Y-191010D01*
X-147980D01*
X-148112Y-191003D01*
X-148238Y-190981D01*
X-148349Y-190951D01*
X-148437Y-190914D01*
X-148511Y-190885D01*
X-148570Y-190855D01*
X-148600Y-190833D01*
X-148614Y-190826D01*
X-148703Y-190752D01*
X-148777Y-190663D01*
X-148836Y-190582D01*
X-148880Y-190501D01*
X-148917Y-190427D01*
X-148939Y-190361D01*
X-148946Y-190324D01*
X-148954Y-190309D01*
X-148961Y-190265D01*
X-148969Y-190206D01*
X-148976Y-190073D01*
X-148991Y-189925D01*
Y-189778D01*
X-148998Y-189645D01*
Y-189586D01*
Y-189527D01*
Y-189482D01*
Y-189453D01*
Y-189431D01*
Y-189423D01*
Y-186685D01*
X-146666D01*
Y-189335D01*
D02*
G37*
G36*
X-153242Y-185578D02*
X-153123Y-185593D01*
X-153013Y-185615D01*
X-152917Y-185637D01*
X-152828Y-185667D01*
X-152747Y-185689D01*
X-152673Y-185719D01*
X-152607Y-185748D01*
X-152555Y-185778D01*
X-152504Y-185807D01*
X-152467Y-185829D01*
X-152437Y-185851D01*
X-152415Y-185866D01*
X-152408Y-185874D01*
X-152400Y-185881D01*
X-152341Y-185940D01*
X-152282Y-186006D01*
X-152194Y-186132D01*
X-152135Y-186265D01*
X-152090Y-186390D01*
X-152061Y-186501D01*
X-152053Y-186553D01*
Y-186589D01*
X-152046Y-186626D01*
Y-186648D01*
Y-186663D01*
Y-186671D01*
X-152053Y-186789D01*
X-152076Y-186907D01*
X-152105Y-187010D01*
X-152135Y-187099D01*
X-152171Y-187180D01*
X-152201Y-187232D01*
X-152223Y-187268D01*
X-152231Y-187283D01*
X-152304Y-187379D01*
X-152393Y-187468D01*
X-152481Y-187534D01*
X-152563Y-187593D01*
X-152644Y-187637D01*
X-152703Y-187667D01*
X-152747Y-187682D01*
X-152754Y-187689D01*
X-152762D01*
X-152902Y-187733D01*
X-153057Y-187763D01*
X-153219Y-187785D01*
X-153374Y-187800D01*
X-153515Y-187807D01*
X-153574D01*
X-153625Y-187814D01*
X-155662D01*
Y-185564D01*
X-153367D01*
X-153242Y-185578D01*
D02*
G37*
G36*
X-164105Y-189453D02*
X-164112Y-189645D01*
X-164127Y-189814D01*
X-164149Y-189962D01*
X-164171Y-190080D01*
X-164193Y-190169D01*
X-164216Y-190235D01*
X-164230Y-190272D01*
X-164238Y-190287D01*
X-164312Y-190420D01*
X-164400Y-190530D01*
X-164489Y-190634D01*
X-164577Y-190715D01*
X-164666Y-190781D01*
X-164732Y-190833D01*
X-164777Y-190863D01*
X-164784Y-190870D01*
X-164791D01*
X-164939Y-190936D01*
X-165086Y-190988D01*
X-165227Y-191025D01*
X-165367Y-191047D01*
X-165478Y-191062D01*
X-165529Y-191069D01*
X-165574Y-191077D01*
X-165655D01*
X-165824Y-191069D01*
X-165972Y-191040D01*
X-166105Y-191003D01*
X-166208Y-190966D01*
X-166289Y-190921D01*
X-166348Y-190892D01*
X-166378Y-190863D01*
X-166393Y-190855D01*
X-166474Y-190767D01*
X-166540Y-190678D01*
X-166585Y-190582D01*
X-166614Y-190494D01*
X-166629Y-190420D01*
X-166636Y-190353D01*
X-166644Y-190316D01*
Y-190302D01*
X-166636Y-190220D01*
X-166629Y-190147D01*
X-166607Y-190080D01*
X-166585Y-190021D01*
X-166570Y-189970D01*
X-166548Y-189933D01*
X-166540Y-189910D01*
X-166533Y-189903D01*
X-166481Y-189837D01*
X-166430Y-189785D01*
X-166378Y-189741D01*
X-166319Y-189696D01*
X-166275Y-189667D01*
X-166238Y-189645D01*
X-166208Y-189637D01*
X-166201Y-189630D01*
X-166105Y-189593D01*
X-165994Y-189564D01*
X-165876Y-189534D01*
X-165758Y-189512D01*
X-165647Y-189490D01*
X-165551Y-189475D01*
X-165522Y-189468D01*
X-165492Y-189460D01*
X-165470D01*
X-165301Y-189438D01*
X-165146Y-189409D01*
X-165005Y-189386D01*
X-164872Y-189357D01*
X-164747Y-189327D01*
X-164636Y-189305D01*
X-164533Y-189276D01*
X-164437Y-189254D01*
X-164363Y-189232D01*
X-164289Y-189209D01*
X-164230Y-189195D01*
X-164186Y-189172D01*
X-164149Y-189158D01*
X-164120Y-189150D01*
X-164105Y-189143D01*
X-164097D01*
X-164105Y-189453D01*
D02*
G37*
G36*
X-175485Y-191623D02*
X-177728D01*
Y-185615D01*
X-175485D01*
Y-191623D01*
D02*
G37*
G36*
X-193706Y-189453D02*
X-193713Y-189645D01*
X-193728Y-189814D01*
X-193750Y-189962D01*
X-193772Y-190080D01*
X-193795Y-190169D01*
X-193817Y-190235D01*
X-193832Y-190272D01*
X-193839Y-190287D01*
X-193913Y-190420D01*
X-194001Y-190530D01*
X-194090Y-190634D01*
X-194178Y-190715D01*
X-194267Y-190781D01*
X-194333Y-190833D01*
X-194378Y-190863D01*
X-194385Y-190870D01*
X-194392D01*
X-194540Y-190936D01*
X-194688Y-190988D01*
X-194828Y-191025D01*
X-194968Y-191047D01*
X-195079Y-191062D01*
X-195130Y-191069D01*
X-195175Y-191077D01*
X-195256D01*
X-195426Y-191069D01*
X-195573Y-191040D01*
X-195706Y-191003D01*
X-195809Y-190966D01*
X-195891Y-190921D01*
X-195950Y-190892D01*
X-195979Y-190863D01*
X-195994Y-190855D01*
X-196075Y-190767D01*
X-196142Y-190678D01*
X-196186Y-190582D01*
X-196215Y-190494D01*
X-196230Y-190420D01*
X-196237Y-190353D01*
X-196245Y-190316D01*
Y-190302D01*
X-196237Y-190220D01*
X-196230Y-190147D01*
X-196208Y-190080D01*
X-196186Y-190021D01*
X-196171Y-189970D01*
X-196149Y-189933D01*
X-196142Y-189910D01*
X-196134Y-189903D01*
X-196082Y-189837D01*
X-196031Y-189785D01*
X-195979Y-189741D01*
X-195920Y-189696D01*
X-195876Y-189667D01*
X-195839Y-189645D01*
X-195809Y-189637D01*
X-195802Y-189630D01*
X-195706Y-189593D01*
X-195595Y-189564D01*
X-195477Y-189534D01*
X-195359Y-189512D01*
X-195248Y-189490D01*
X-195153Y-189475D01*
X-195123Y-189468D01*
X-195094Y-189460D01*
X-195071D01*
X-194902Y-189438D01*
X-194747Y-189409D01*
X-194606Y-189386D01*
X-194474Y-189357D01*
X-194348Y-189327D01*
X-194237Y-189305D01*
X-194134Y-189276D01*
X-194038Y-189254D01*
X-193964Y-189232D01*
X-193891Y-189209D01*
X-193832Y-189195D01*
X-193787Y-189172D01*
X-193750Y-189158D01*
X-193721Y-189150D01*
X-193706Y-189143D01*
X-193699D01*
X-193706Y-189453D01*
D02*
G37*
G36*
X-210422Y-187313D02*
X-210267Y-187342D01*
X-210141Y-187387D01*
X-210031Y-187438D01*
X-209942Y-187497D01*
X-209883Y-187541D01*
X-209846Y-187571D01*
X-209831Y-187586D01*
X-209780Y-187645D01*
X-209743Y-187704D01*
X-209676Y-187851D01*
X-209625Y-187999D01*
X-209595Y-188154D01*
X-209573Y-188287D01*
X-209566Y-188346D01*
Y-188398D01*
X-209558Y-188442D01*
Y-188471D01*
Y-188494D01*
Y-188501D01*
Y-191623D01*
X-211898D01*
Y-188929D01*
X-211890Y-188722D01*
X-211876Y-188538D01*
X-211854Y-188383D01*
X-211831Y-188257D01*
X-211809Y-188154D01*
X-211787Y-188080D01*
X-211780Y-188058D01*
X-211772Y-188036D01*
X-211765Y-188021D01*
X-211706Y-187903D01*
X-211632Y-187800D01*
X-211558Y-187711D01*
X-211477Y-187637D01*
X-211411Y-187578D01*
X-211352Y-187534D01*
X-211315Y-187505D01*
X-211300Y-187497D01*
X-211175Y-187431D01*
X-211049Y-187379D01*
X-210931Y-187350D01*
X-210828Y-187320D01*
X-210732Y-187305D01*
X-210658Y-187298D01*
X-210599D01*
X-210422Y-187313D01*
D02*
G37*
%LPC*%
G36*
X-176013Y-196859D02*
X-176072D01*
X-176241Y-196867D01*
X-176404Y-196889D01*
X-176544Y-196918D01*
X-176662Y-196955D01*
X-176758Y-196992D01*
X-176832Y-197022D01*
X-176876Y-197044D01*
X-176883Y-197051D01*
X-176891D01*
X-177016Y-197133D01*
X-177127Y-197221D01*
X-177230Y-197317D01*
X-177319Y-197406D01*
X-177393Y-197487D01*
X-177452Y-197561D01*
X-177481Y-197605D01*
X-177496Y-197612D01*
Y-196970D01*
X-178256D01*
Y-203797D01*
X-173976D01*
X-177422D01*
Y-201398D01*
X-177341Y-201494D01*
X-177252Y-201583D01*
X-177164Y-201664D01*
X-177075Y-201723D01*
X-177001Y-201775D01*
X-176935Y-201819D01*
X-176898Y-201841D01*
X-176883Y-201848D01*
X-176758Y-201907D01*
X-176625Y-201944D01*
X-176500Y-201974D01*
X-176382Y-201996D01*
X-176278Y-202011D01*
X-176204Y-202018D01*
X-176131D01*
X-176020Y-202011D01*
X-175917Y-202003D01*
X-175717Y-201966D01*
X-175533Y-201915D01*
X-175371Y-201856D01*
X-175297Y-201826D01*
X-175230Y-201804D01*
X-175179Y-201775D01*
X-175127Y-201752D01*
X-175090Y-201730D01*
X-175060Y-201715D01*
X-175046Y-201701D01*
X-175038D01*
X-174854Y-201568D01*
X-174699Y-201420D01*
X-174559Y-201265D01*
X-174448Y-201110D01*
X-174359Y-200977D01*
X-174330Y-200919D01*
X-174300Y-200867D01*
X-174278Y-200830D01*
X-174264Y-200800D01*
X-174249Y-200778D01*
Y-200771D01*
X-174160Y-200535D01*
X-174094Y-200299D01*
X-174042Y-200070D01*
X-174013Y-199863D01*
X-173998Y-199767D01*
X-173990Y-199679D01*
X-173983Y-199597D01*
Y-199531D01*
X-173976Y-199479D01*
Y-199406D01*
X-173983Y-199147D01*
X-174013Y-198904D01*
X-174057Y-198682D01*
X-174079Y-198586D01*
X-174101Y-198490D01*
X-174123Y-198409D01*
X-174145Y-198328D01*
X-174168Y-198262D01*
X-174190Y-198210D01*
X-174204Y-198166D01*
X-174219Y-198136D01*
X-174227Y-198114D01*
Y-198107D01*
X-174330Y-197900D01*
X-174441Y-197715D01*
X-174566Y-197561D01*
X-174684Y-197428D01*
X-174787Y-197324D01*
X-174876Y-197251D01*
X-174913Y-197228D01*
X-174935Y-197206D01*
X-174950Y-197192D01*
X-174957D01*
X-175046Y-197133D01*
X-175142Y-197081D01*
X-175334Y-197000D01*
X-175518Y-196941D01*
X-175695Y-196904D01*
X-175776Y-196889D01*
X-175843Y-196874D01*
X-175909Y-196867D01*
X-175968D01*
X-176013Y-196859D01*
D02*
G37*
G36*
X-207208Y-196860D02*
X-207267D01*
X-207437Y-196867D01*
X-207599Y-196889D01*
X-207739Y-196918D01*
X-207857Y-196955D01*
X-207953Y-196992D01*
X-208027Y-197022D01*
X-208071Y-197044D01*
X-208079Y-197051D01*
X-208086D01*
X-208211Y-197133D01*
X-208322Y-197221D01*
X-208425Y-197317D01*
X-208514Y-197406D01*
X-208588Y-197487D01*
X-208647Y-197561D01*
X-208676Y-197605D01*
X-208691Y-197612D01*
Y-196970D01*
X-209451D01*
Y-203797D01*
X-205171D01*
Y-202026D01*
Y-203797D01*
X-208617D01*
Y-201398D01*
X-208536Y-201494D01*
X-208448Y-201583D01*
X-208359Y-201664D01*
X-208271Y-201723D01*
X-208197Y-201775D01*
X-208130Y-201819D01*
X-208093Y-201841D01*
X-208079Y-201848D01*
X-207953Y-201907D01*
X-207820Y-201944D01*
X-207695Y-201974D01*
X-207577Y-201996D01*
X-207473Y-202011D01*
X-207400Y-202018D01*
X-207326D01*
X-207215Y-202011D01*
X-207112Y-202003D01*
X-206913Y-201966D01*
X-206728Y-201915D01*
X-206566Y-201856D01*
X-206492Y-201826D01*
X-206425Y-201804D01*
X-206374Y-201775D01*
X-206322Y-201752D01*
X-206285Y-201730D01*
X-206256Y-201715D01*
X-206241Y-201701D01*
X-206234D01*
X-206049Y-201568D01*
X-205894Y-201420D01*
X-205754Y-201265D01*
X-205643Y-201110D01*
X-205555Y-200977D01*
X-205525Y-200919D01*
X-205496Y-200867D01*
X-205473Y-200830D01*
X-205459Y-200800D01*
X-205444Y-200778D01*
Y-200771D01*
X-205355Y-200535D01*
X-205289Y-200299D01*
X-205237Y-200070D01*
X-205208Y-199863D01*
X-205193Y-199767D01*
X-205186Y-199679D01*
X-205178Y-199597D01*
Y-199531D01*
X-205171Y-199479D01*
Y-202026D01*
Y-199479D01*
Y-199406D01*
Y-199406D01*
X-205178Y-199147D01*
X-205208Y-198904D01*
X-205252Y-198682D01*
X-205274Y-198586D01*
X-205296Y-198490D01*
X-205318Y-198409D01*
X-205341Y-198328D01*
X-205363Y-198262D01*
X-205385Y-198210D01*
X-205400Y-198166D01*
X-205414Y-198136D01*
X-205422Y-198114D01*
Y-198107D01*
X-205525Y-197900D01*
X-205636Y-197715D01*
X-205761Y-197561D01*
X-205879Y-197428D01*
X-205983Y-197324D01*
X-206071Y-197251D01*
X-206108Y-197229D01*
X-206130Y-197206D01*
X-206145Y-197192D01*
X-206152D01*
X-206241Y-197133D01*
X-206337Y-197081D01*
X-206529Y-197000D01*
X-206713Y-196941D01*
X-206891Y-196904D01*
X-206972Y-196889D01*
X-207038Y-196874D01*
X-207104Y-196867D01*
X-207164D01*
X-207208Y-196860D01*
D02*
G37*
G36*
X-215215Y-197664D02*
Y-197671D01*
D01*
Y-197664D01*
D02*
G37*
G36*
X-170573Y-196859D02*
X-170647D01*
X-170832Y-196867D01*
X-171009Y-196896D01*
X-171171Y-196933D01*
X-171326Y-196985D01*
X-171467Y-197051D01*
X-171592Y-197118D01*
X-171710Y-197192D01*
X-171813Y-197265D01*
X-171909Y-197346D01*
X-171990Y-197420D01*
X-172057Y-197487D01*
X-172108Y-197553D01*
X-172153Y-197605D01*
X-172190Y-197642D01*
X-172204Y-197671D01*
X-172212Y-197679D01*
Y-196970D01*
X-172965D01*
Y-201907D01*
X-168957D01*
Y-198653D01*
Y-198675D01*
X-168965Y-198579D01*
Y-198498D01*
X-168972Y-198424D01*
Y-198358D01*
X-168979Y-198247D01*
X-168994Y-198166D01*
X-169001Y-198107D01*
X-169009Y-198070D01*
Y-198062D01*
X-169038Y-197930D01*
X-169083Y-197811D01*
X-169120Y-197708D01*
X-169164Y-197620D01*
X-169208Y-197546D01*
X-169238Y-197487D01*
X-169260Y-197457D01*
X-169267Y-197442D01*
X-169341Y-197346D01*
X-169430Y-197265D01*
X-169526Y-197199D01*
X-169614Y-197133D01*
X-169703Y-197088D01*
X-169769Y-197051D01*
X-169813Y-197029D01*
X-169821Y-197022D01*
X-169828D01*
X-169968Y-196970D01*
X-170108Y-196926D01*
X-170249Y-196896D01*
X-170374Y-196882D01*
X-170485Y-196867D01*
X-170529D01*
X-170573Y-196859D01*
D02*
G37*
G36*
X-137054Y-196859D02*
X-137127D01*
X-137297Y-196867D01*
X-137459Y-196896D01*
X-137614Y-196941D01*
X-137762Y-196992D01*
X-137895Y-197059D01*
X-138020Y-197133D01*
X-138138Y-197214D01*
X-138242Y-197287D01*
X-138338Y-197369D01*
X-138419Y-197450D01*
X-138493Y-197524D01*
X-138544Y-197590D01*
X-138596Y-197642D01*
X-138626Y-197686D01*
X-138648Y-197715D01*
X-138655Y-197723D01*
X-138721Y-197575D01*
X-138795Y-197450D01*
X-138876Y-197346D01*
X-138958Y-197251D01*
X-139039Y-197184D01*
X-139098Y-197133D01*
X-139142Y-197096D01*
X-139149Y-197088D01*
X-139157D01*
X-139297Y-197014D01*
X-139445Y-196955D01*
X-139592Y-196918D01*
X-139732Y-196889D01*
X-139858Y-196874D01*
X-139910Y-196867D01*
X-139961Y-196859D01*
X-140050D01*
X-140227Y-196867D01*
X-140397Y-196896D01*
X-140544Y-196926D01*
X-140677Y-196970D01*
X-140780Y-197007D01*
X-140825Y-197029D01*
X-140862Y-197044D01*
X-140891Y-197059D01*
X-140913Y-197073D01*
X-140921Y-197081D01*
X-140928D01*
X-141068Y-197169D01*
X-141186Y-197265D01*
X-141290Y-197361D01*
X-141378Y-197457D01*
X-141452Y-197538D01*
X-141504Y-197605D01*
X-141533Y-197649D01*
X-141548Y-197657D01*
Y-196970D01*
X-142293D01*
Y-196859D01*
D01*
Y-201907D01*
X-135600D01*
Y-198520D01*
X-135607Y-198365D01*
X-135614Y-198225D01*
X-135637Y-198092D01*
X-135659Y-197966D01*
X-135688Y-197856D01*
X-135725Y-197752D01*
X-135762Y-197664D01*
X-135799Y-197583D01*
X-135836Y-197509D01*
X-135873Y-197442D01*
X-135902Y-197391D01*
X-135939Y-197346D01*
X-135961Y-197317D01*
X-135983Y-197295D01*
X-135991Y-197280D01*
X-135998Y-197273D01*
X-136072Y-197199D01*
X-136161Y-197133D01*
X-136249Y-197081D01*
X-136338Y-197037D01*
X-136530Y-196963D01*
X-136707Y-196911D01*
X-136795Y-196896D01*
X-136876Y-196882D01*
X-136943Y-196874D01*
X-137009Y-196867D01*
X-137054Y-196859D01*
D02*
G37*
G36*
X-180950Y-196859D02*
X-182336D01*
X-181024D01*
X-181193Y-196867D01*
X-181356Y-196896D01*
X-181511Y-196941D01*
X-181658Y-196992D01*
X-181791Y-197059D01*
X-181916Y-197133D01*
X-182035Y-197214D01*
X-182138Y-197287D01*
X-182234Y-197369D01*
X-182315Y-197450D01*
X-182389Y-197524D01*
X-182440Y-197590D01*
X-182492Y-197642D01*
X-182522Y-197686D01*
X-182544Y-197715D01*
X-182551Y-197723D01*
X-182618Y-197575D01*
X-182691Y-197450D01*
X-182773Y-197346D01*
X-182854Y-197251D01*
X-182935Y-197184D01*
X-182994Y-197133D01*
X-183038Y-197096D01*
X-183046Y-197088D01*
X-183053D01*
X-183193Y-197014D01*
X-183341Y-196955D01*
X-183489Y-196918D01*
X-183629Y-196889D01*
X-183754Y-196874D01*
X-183806Y-196867D01*
X-183858Y-196859D01*
X-183946D01*
X-184123Y-196867D01*
X-184293Y-196896D01*
X-184441Y-196926D01*
X-184573Y-196970D01*
X-184677Y-197007D01*
X-184721Y-197029D01*
X-184758Y-197044D01*
X-184787Y-197059D01*
X-184810Y-197073D01*
X-184817Y-197081D01*
X-184824D01*
X-184965Y-197169D01*
X-185082Y-197265D01*
X-185186Y-197361D01*
X-185274Y-197457D01*
X-185348Y-197538D01*
X-185400Y-197605D01*
X-185429Y-197649D01*
X-185444Y-197657D01*
Y-196970D01*
X-186190D01*
Y-201907D01*
X-182426D01*
Y-199044D01*
X-182418Y-198904D01*
X-182411Y-198778D01*
X-182396Y-198653D01*
X-182374Y-198542D01*
X-182345Y-198446D01*
X-182315Y-198350D01*
X-182285Y-198269D01*
X-182249Y-198195D01*
X-182219Y-198136D01*
X-182190Y-198077D01*
X-182160Y-198033D01*
X-182131Y-197996D01*
X-182108Y-197967D01*
X-182094Y-197944D01*
X-182079Y-197937D01*
Y-197930D01*
X-182012Y-197871D01*
X-181939Y-197811D01*
X-181799Y-197730D01*
X-181651Y-197664D01*
X-181511Y-197627D01*
X-181393Y-197598D01*
X-181341Y-197590D01*
X-181297D01*
X-181260Y-197583D01*
X-181208D01*
X-181105Y-197590D01*
X-181009Y-197605D01*
X-180920Y-197627D01*
X-180846Y-197649D01*
X-180787Y-197679D01*
X-180743Y-197701D01*
X-180714Y-197715D01*
X-180706Y-197723D01*
X-180632Y-197775D01*
X-180566Y-197834D01*
X-180522Y-197893D01*
X-180477Y-197952D01*
X-180448Y-198003D01*
X-180426Y-198040D01*
X-180411Y-198070D01*
Y-198077D01*
X-180382Y-198173D01*
X-180367Y-198284D01*
X-180352Y-198402D01*
X-180337Y-198520D01*
Y-198631D01*
X-180330Y-198719D01*
Y-198749D01*
Y-198778D01*
Y-198793D01*
Y-198800D01*
Y-201907D01*
X-181727D01*
X-179496D01*
Y-198520D01*
X-179503Y-198365D01*
X-179511Y-198225D01*
X-179533Y-198092D01*
X-179555Y-197967D01*
X-179584Y-197856D01*
X-179621Y-197752D01*
X-179658Y-197664D01*
X-179695Y-197583D01*
X-179732Y-197509D01*
X-179769Y-197442D01*
X-179798Y-197391D01*
X-179835Y-197346D01*
X-179858Y-197317D01*
X-179880Y-197295D01*
X-179887Y-197280D01*
X-179894Y-197273D01*
X-179968Y-197199D01*
X-180057Y-197133D01*
X-180145Y-197081D01*
X-180234Y-197037D01*
X-180426Y-196963D01*
X-180603Y-196911D01*
X-180692Y-196896D01*
X-180773Y-196882D01*
X-180839Y-196874D01*
X-180905Y-196867D01*
X-180950Y-196859D01*
D02*
G37*
G36*
X-215215Y-197782D02*
Y-197782D01*
D01*
Y-197782D01*
D02*
G37*
G36*
Y-197848D02*
Y-197848D01*
D01*
Y-197848D01*
D02*
G37*
G36*
Y-197863D02*
D01*
D01*
D01*
D02*
G37*
G36*
X-212573Y-197878D02*
Y-197885D01*
D01*
Y-197878D01*
D02*
G37*
G36*
Y-197930D02*
D01*
D01*
D01*
D02*
G37*
G36*
X-215215Y-198084D02*
D01*
D01*
D01*
D02*
G37*
G36*
X-212573Y-198166D02*
D01*
D01*
D01*
D02*
G37*
G36*
X-215215D02*
D01*
D01*
D01*
D02*
G37*
G36*
X-212573Y-198188D02*
D01*
D01*
D01*
D02*
G37*
G36*
X-215215Y-198328D02*
Y-198328D01*
D01*
Y-198328D01*
D02*
G37*
G36*
X-158020Y-196859D02*
X-160072D01*
Y-202018D01*
D01*
Y-196859D01*
X-158116D01*
X-158256Y-196867D01*
X-158389Y-196874D01*
X-158515Y-196889D01*
X-158618Y-196911D01*
X-158714Y-196933D01*
X-158780Y-196948D01*
X-158825Y-196955D01*
X-158832Y-196963D01*
X-158839D01*
X-158957Y-197000D01*
X-159068Y-197044D01*
X-159157Y-197088D01*
X-159230Y-197125D01*
X-159290Y-197155D01*
X-159334Y-197184D01*
X-159363Y-197199D01*
X-159371Y-197206D01*
X-159467Y-197280D01*
X-159548Y-197354D01*
X-159622Y-197435D01*
X-159673Y-197509D01*
X-159725Y-197575D01*
X-159754Y-197627D01*
X-159776Y-197657D01*
X-159784Y-197671D01*
X-159836Y-197775D01*
X-159872Y-197885D01*
X-159895Y-197989D01*
X-159909Y-198084D01*
X-159924Y-198166D01*
X-159932Y-198225D01*
Y-198269D01*
Y-198276D01*
Y-198284D01*
X-159924Y-198417D01*
X-159902Y-198542D01*
X-159872Y-198653D01*
X-159843Y-198749D01*
X-159813Y-198830D01*
X-159784Y-198896D01*
X-159762Y-198933D01*
X-159754Y-198948D01*
X-159681Y-199051D01*
X-159592Y-199147D01*
X-159503Y-199221D01*
X-159415Y-199287D01*
X-159334Y-199346D01*
X-159275Y-199383D01*
X-159230Y-199406D01*
X-159223Y-199413D01*
X-159216D01*
X-159142Y-199443D01*
X-159053Y-199479D01*
X-158965Y-199516D01*
X-158861Y-199546D01*
X-158647Y-199612D01*
X-158441Y-199679D01*
X-158337Y-199708D01*
X-158241Y-199738D01*
X-158153Y-199760D01*
X-158079Y-199782D01*
X-158020Y-199797D01*
X-157968Y-199811D01*
X-157939Y-199819D01*
X-157931D01*
X-157813Y-199848D01*
X-157703Y-199878D01*
X-157599Y-199907D01*
X-157511Y-199937D01*
X-157430Y-199959D01*
X-157363Y-199981D01*
X-157304Y-200003D01*
X-157245Y-200026D01*
X-157201Y-200040D01*
X-157164Y-200055D01*
X-157112Y-200077D01*
X-157083Y-200092D01*
X-157076Y-200099D01*
X-156994Y-200166D01*
X-156928Y-200239D01*
X-156884Y-200313D01*
X-156854Y-200387D01*
X-156839Y-200446D01*
X-156825Y-200505D01*
Y-200535D01*
Y-200550D01*
X-156839Y-200668D01*
X-156869Y-200771D01*
X-156913Y-200867D01*
X-156965Y-200948D01*
X-157016Y-201014D01*
X-157061Y-201059D01*
X-157090Y-201096D01*
X-157105Y-201103D01*
X-157223Y-201177D01*
X-157356Y-201236D01*
X-157503Y-201273D01*
X-157644Y-201302D01*
X-157769Y-201317D01*
X-157821Y-201324D01*
X-157872D01*
X-157909Y-201332D01*
X-157968D01*
X-158168Y-201317D01*
X-158345Y-201287D01*
X-158500Y-201251D01*
X-158625Y-201199D01*
X-158729Y-201155D01*
X-158802Y-201110D01*
X-158847Y-201081D01*
X-158854Y-201073D01*
X-158861D01*
X-158972Y-200963D01*
X-159053Y-200845D01*
X-159120Y-200712D01*
X-159171Y-200586D01*
X-159208Y-200476D01*
X-159223Y-200431D01*
X-159230Y-200387D01*
X-159238Y-200350D01*
Y-200328D01*
X-159245Y-200313D01*
Y-200306D01*
X-160072Y-200439D01*
X-160042Y-200579D01*
X-160005Y-200719D01*
X-159961Y-200845D01*
X-159917Y-200955D01*
X-159865Y-201066D01*
X-159813Y-201162D01*
X-159762Y-201251D01*
X-159703Y-201332D01*
X-159651Y-201398D01*
X-159599Y-201457D01*
X-159555Y-201509D01*
X-159518Y-201553D01*
X-159481Y-201583D01*
X-159459Y-201605D01*
X-159444Y-201620D01*
X-159437Y-201627D01*
X-159334Y-201693D01*
X-159230Y-201752D01*
X-159112Y-201811D01*
X-158994Y-201856D01*
X-158743Y-201922D01*
X-158507Y-201966D01*
X-158396Y-201989D01*
X-158293Y-201996D01*
X-158197Y-202003D01*
X-158123Y-202011D01*
X-158057Y-202018D01*
X-155968D01*
X-157961D01*
X-157747Y-202011D01*
X-157555Y-201989D01*
X-157378Y-201952D01*
X-157223Y-201915D01*
X-157157Y-201900D01*
X-157098Y-201885D01*
X-157046Y-201863D01*
X-157002Y-201848D01*
X-156965Y-201834D01*
X-156943Y-201826D01*
X-156928Y-201819D01*
X-156921D01*
X-156758Y-201738D01*
X-156618Y-201649D01*
X-156500Y-201553D01*
X-156396Y-201457D01*
X-156323Y-201376D01*
X-156264Y-201310D01*
X-156234Y-201265D01*
X-156219Y-201258D01*
Y-201251D01*
X-156138Y-201110D01*
X-156072Y-200970D01*
X-156027Y-200837D01*
X-155998Y-200719D01*
X-155983Y-200616D01*
X-155968Y-200535D01*
Y-200461D01*
X-155976Y-200306D01*
X-155998Y-200166D01*
X-156035Y-200048D01*
X-156072Y-199944D01*
X-156109Y-199856D01*
X-156146Y-199797D01*
X-156168Y-199760D01*
X-156175Y-199745D01*
X-156256Y-199642D01*
X-156345Y-199553D01*
X-156441Y-199479D01*
X-156529Y-199420D01*
X-156603Y-199369D01*
X-156670Y-199339D01*
X-156714Y-199317D01*
X-156721Y-199310D01*
X-156729D01*
X-156802Y-199280D01*
X-156884Y-199251D01*
X-156972Y-199214D01*
X-157068Y-199184D01*
X-157267Y-199118D01*
X-157474Y-199059D01*
X-157570Y-199029D01*
X-157666Y-199000D01*
X-157747Y-198977D01*
X-157813Y-198955D01*
X-157880Y-198941D01*
X-157924Y-198926D01*
X-157954Y-198918D01*
X-157961D01*
X-158072Y-198889D01*
X-158168Y-198859D01*
X-158256Y-198837D01*
X-158337Y-198815D01*
X-158404Y-198793D01*
X-158463Y-198778D01*
X-158515Y-198764D01*
X-158559Y-198749D01*
X-158625Y-198727D01*
X-158669Y-198712D01*
X-158692Y-198704D01*
X-158699D01*
X-158773Y-198668D01*
X-158839Y-198631D01*
X-158898Y-198594D01*
X-158943Y-198557D01*
X-158979Y-198527D01*
X-159002Y-198505D01*
X-159016Y-198490D01*
X-159024Y-198483D01*
X-159053Y-198431D01*
X-159075Y-198380D01*
X-159105Y-198284D01*
X-159112Y-198247D01*
X-159120Y-198217D01*
Y-198195D01*
Y-198188D01*
X-159112Y-198092D01*
X-159083Y-198011D01*
X-159046Y-197930D01*
X-158994Y-197863D01*
X-158950Y-197811D01*
X-158913Y-197775D01*
X-158884Y-197745D01*
X-158876Y-197738D01*
X-158825Y-197701D01*
X-158773Y-197671D01*
X-158647Y-197627D01*
X-158507Y-197590D01*
X-158374Y-197568D01*
X-158249Y-197553D01*
X-158197D01*
X-158153Y-197546D01*
X-158057D01*
X-157880Y-197553D01*
X-157732Y-197583D01*
X-157599Y-197612D01*
X-157489Y-197657D01*
X-157407Y-197693D01*
X-157349Y-197730D01*
X-157312Y-197760D01*
X-157297Y-197767D01*
X-157208Y-197856D01*
X-157134Y-197952D01*
X-157076Y-198048D01*
X-157031Y-198144D01*
X-157002Y-198225D01*
X-156987Y-198299D01*
X-156972Y-198343D01*
Y-198350D01*
Y-198358D01*
X-156153Y-198247D01*
X-156190Y-198077D01*
X-156234Y-197930D01*
X-156278Y-197797D01*
X-156330Y-197686D01*
X-156374Y-197605D01*
X-156411Y-197538D01*
X-156441Y-197502D01*
X-156448Y-197487D01*
X-156537Y-197383D01*
X-156640Y-197295D01*
X-156743Y-197214D01*
X-156847Y-197147D01*
X-156950Y-197096D01*
X-157024Y-197059D01*
X-157053Y-197044D01*
X-157076Y-197037D01*
X-157090Y-197029D01*
X-157098D01*
X-157267Y-196970D01*
X-157437Y-196933D01*
X-157614Y-196904D01*
X-157769Y-196882D01*
X-157909Y-196867D01*
X-157968D01*
X-158020Y-196859D01*
D02*
G37*
G36*
X-200389D02*
Y-200461D01*
X-200396Y-200306D01*
X-200418Y-200166D01*
X-200455Y-200048D01*
X-200492Y-199944D01*
X-200529Y-199856D01*
X-200566Y-199797D01*
X-200588Y-199760D01*
X-200595Y-199745D01*
X-200676Y-199642D01*
X-200765Y-199553D01*
X-200861Y-199479D01*
X-200950Y-199420D01*
X-201023Y-199369D01*
X-201090Y-199339D01*
X-201134Y-199317D01*
X-201141Y-199310D01*
X-201149D01*
X-201223Y-199280D01*
X-201304Y-199251D01*
X-201392Y-199214D01*
X-201488Y-199184D01*
X-201688Y-199118D01*
X-201894Y-199059D01*
X-201990Y-199029D01*
X-202086Y-199000D01*
X-202167Y-198977D01*
X-202234Y-198955D01*
X-202300Y-198941D01*
X-202344Y-198926D01*
X-202374Y-198918D01*
X-202381D01*
X-202492Y-198889D01*
X-202588Y-198859D01*
X-202677Y-198837D01*
X-202758Y-198815D01*
X-202824Y-198793D01*
X-202883Y-198778D01*
X-202935Y-198764D01*
X-202979Y-198749D01*
X-203046Y-198727D01*
X-203090Y-198712D01*
X-203112Y-198704D01*
X-203119D01*
X-203193Y-198668D01*
X-203259Y-198631D01*
X-203319Y-198594D01*
X-203363Y-198557D01*
X-203400Y-198527D01*
X-203422Y-198505D01*
X-203437Y-198490D01*
X-203444Y-198483D01*
X-203473Y-198431D01*
X-203496Y-198380D01*
X-203525Y-198284D01*
X-203533Y-198247D01*
X-203540Y-198217D01*
Y-198195D01*
Y-198188D01*
X-203533Y-198092D01*
X-203503Y-198011D01*
X-203466Y-197930D01*
X-203415Y-197863D01*
X-203370Y-197811D01*
X-203333Y-197775D01*
X-203304Y-197745D01*
X-203296Y-197738D01*
X-203245Y-197701D01*
X-203193Y-197671D01*
X-203068Y-197627D01*
X-202927Y-197590D01*
X-202795Y-197568D01*
X-202669Y-197553D01*
X-202617D01*
X-202573Y-197546D01*
X-202477D01*
X-202300Y-197553D01*
X-202152Y-197583D01*
X-202020Y-197612D01*
X-201909Y-197657D01*
X-201828Y-197693D01*
X-201769Y-197730D01*
X-201732Y-197760D01*
X-201717Y-197767D01*
X-201628Y-197856D01*
X-201555Y-197952D01*
X-201496Y-198048D01*
X-201451Y-198144D01*
X-201422Y-198225D01*
X-201407Y-198299D01*
X-201392Y-198343D01*
Y-198350D01*
Y-198358D01*
X-200573Y-198247D01*
X-200610Y-198077D01*
X-200654Y-197930D01*
X-200699Y-197797D01*
X-200750Y-197686D01*
X-200795Y-197605D01*
X-200832Y-197538D01*
X-200861Y-197502D01*
X-200868Y-197487D01*
X-200957Y-197383D01*
X-201060Y-197295D01*
X-201164Y-197214D01*
X-201267Y-197147D01*
X-201370Y-197096D01*
X-201444Y-197059D01*
X-201473Y-197044D01*
X-201496Y-197037D01*
X-201510Y-197029D01*
X-201518D01*
X-201688Y-196970D01*
X-201857Y-196933D01*
X-202034Y-196904D01*
X-202189Y-196882D01*
X-202330Y-196867D01*
X-202389D01*
X-202440Y-196859D01*
X-202536D01*
X-202677Y-196867D01*
X-202809Y-196874D01*
X-202935Y-196889D01*
X-203038Y-196911D01*
X-203134Y-196933D01*
X-203201Y-196948D01*
X-203245Y-196955D01*
X-203252Y-196963D01*
X-203259D01*
X-203378Y-197000D01*
X-203488Y-197044D01*
X-203577Y-197088D01*
X-203651Y-197125D01*
X-203710Y-197155D01*
X-203754Y-197184D01*
X-203783Y-197199D01*
X-203791Y-197206D01*
X-203887Y-197280D01*
X-203968Y-197354D01*
X-204042Y-197435D01*
X-204093Y-197509D01*
X-204145Y-197575D01*
X-204175Y-197627D01*
X-204197Y-197657D01*
X-204204Y-197671D01*
X-204256Y-197775D01*
X-204293Y-197885D01*
X-204315Y-197989D01*
X-204330Y-198084D01*
X-204344Y-198166D01*
X-204352Y-198225D01*
Y-198269D01*
Y-198276D01*
Y-198284D01*
X-204344Y-198417D01*
X-204322Y-198542D01*
X-204293Y-198653D01*
X-204263Y-198749D01*
X-204234Y-198830D01*
X-204204Y-198896D01*
X-204182Y-198933D01*
X-204175Y-198948D01*
X-204101Y-199051D01*
X-204012Y-199147D01*
X-203924Y-199221D01*
X-203835Y-199287D01*
X-203754Y-199346D01*
X-203695Y-199383D01*
X-203651Y-199406D01*
X-203643Y-199413D01*
X-203636D01*
X-203562Y-199443D01*
X-203473Y-199479D01*
X-203385Y-199516D01*
X-203282Y-199546D01*
X-203068Y-199612D01*
X-202861Y-199679D01*
X-202758Y-199708D01*
X-202662Y-199738D01*
X-202573Y-199760D01*
X-202499Y-199782D01*
X-202440Y-199797D01*
X-202389Y-199811D01*
X-202359Y-199819D01*
X-202352D01*
X-202234Y-199848D01*
X-202123Y-199878D01*
X-202020Y-199907D01*
X-201931Y-199937D01*
X-201850Y-199959D01*
X-201783Y-199981D01*
X-201725Y-200003D01*
X-201665Y-200026D01*
X-201621Y-200040D01*
X-201584Y-200055D01*
X-201533Y-200077D01*
X-201503Y-200092D01*
X-201496Y-200099D01*
X-201414Y-200166D01*
X-201348Y-200239D01*
X-201304Y-200313D01*
X-201274Y-200387D01*
X-201259Y-200446D01*
X-201245Y-200505D01*
Y-200535D01*
Y-200550D01*
X-201259Y-200668D01*
X-201289Y-200771D01*
X-201333Y-200867D01*
X-201385Y-200948D01*
X-201437Y-201014D01*
X-201481Y-201059D01*
X-201510Y-201096D01*
X-201525Y-201103D01*
X-201643Y-201177D01*
X-201776Y-201236D01*
X-201924Y-201273D01*
X-202064Y-201302D01*
X-202189Y-201317D01*
X-202241Y-201324D01*
X-202293D01*
X-202330Y-201332D01*
X-202389D01*
X-202588Y-201317D01*
X-202765Y-201287D01*
X-202920Y-201251D01*
X-203046Y-201199D01*
X-203149Y-201155D01*
X-203223Y-201110D01*
X-203267Y-201081D01*
X-203274Y-201073D01*
X-203282D01*
X-203392Y-200963D01*
X-203473Y-200845D01*
X-203540Y-200712D01*
X-203592Y-200586D01*
X-203628Y-200476D01*
X-203643Y-200431D01*
X-203651Y-200387D01*
X-203658Y-200350D01*
Y-200328D01*
X-203665Y-200313D01*
Y-200306D01*
X-204492Y-200439D01*
X-204462Y-200579D01*
X-204426Y-200719D01*
X-204381Y-200845D01*
X-204337Y-200955D01*
X-204285Y-201066D01*
X-204234Y-201162D01*
X-204182Y-201251D01*
X-204123Y-201332D01*
X-204071Y-201398D01*
X-204020Y-201457D01*
X-203975Y-201509D01*
X-203938Y-201553D01*
X-203902Y-201583D01*
X-203879Y-201605D01*
X-203865Y-201620D01*
X-203857Y-201627D01*
X-203754Y-201693D01*
X-203651Y-201752D01*
X-203533Y-201811D01*
X-203415Y-201856D01*
X-203164Y-201922D01*
X-202927Y-201966D01*
X-202817Y-201989D01*
X-202713Y-201996D01*
X-202617Y-202003D01*
X-202544Y-202011D01*
X-202477Y-202018D01*
X-204492Y-202018D01*
D01*
X-200389Y-202018D01*
X-202381D01*
X-202167Y-202011D01*
X-201975Y-201989D01*
X-201798Y-201952D01*
X-201643Y-201915D01*
X-201577Y-201900D01*
X-201518Y-201885D01*
X-201466Y-201863D01*
X-201422Y-201848D01*
X-201385Y-201834D01*
X-201363Y-201826D01*
X-201348Y-201819D01*
X-201341D01*
X-201178Y-201738D01*
X-201038Y-201649D01*
X-200920Y-201553D01*
X-200817Y-201457D01*
X-200743Y-201376D01*
X-200684Y-201310D01*
X-200654Y-201265D01*
X-200640Y-201258D01*
Y-201251D01*
X-200558Y-201110D01*
X-200492Y-200970D01*
X-200448Y-200837D01*
X-200418Y-200719D01*
X-200403Y-200616D01*
X-200389Y-200535D01*
Y-196859D01*
D02*
G37*
G36*
X-212573Y-198387D02*
D01*
D01*
D01*
D02*
G37*
G36*
X-162861Y-198424D02*
D01*
D01*
D01*
D02*
G37*
G36*
X-212573Y-198431D02*
D01*
D01*
D01*
D02*
G37*
G36*
X-148293Y-196859D02*
X-152581D01*
X-150345D01*
X-150574Y-196874D01*
X-150795Y-196904D01*
X-150994Y-196955D01*
X-151083Y-196985D01*
X-151172Y-197007D01*
X-151245Y-197037D01*
X-151312Y-197066D01*
X-151371Y-197088D01*
X-151422Y-197118D01*
X-151467Y-197133D01*
X-151496Y-197147D01*
X-151511Y-197162D01*
X-151518D01*
X-151710Y-197287D01*
X-151873Y-197428D01*
X-152013Y-197583D01*
X-152123Y-197723D01*
X-152212Y-197856D01*
X-152242Y-197915D01*
X-152271Y-197967D01*
X-152293Y-198003D01*
X-152308Y-198033D01*
X-152323Y-198055D01*
Y-198062D01*
X-152411Y-198291D01*
X-152470Y-198535D01*
X-152515Y-198771D01*
X-152551Y-198985D01*
X-152559Y-199088D01*
X-152566Y-199177D01*
X-152574Y-199258D01*
Y-199332D01*
X-152581Y-199383D01*
Y-199465D01*
X-152574Y-199686D01*
X-152551Y-199900D01*
X-152522Y-200099D01*
X-152485Y-200284D01*
X-152441Y-200453D01*
X-152389Y-200608D01*
X-152330Y-200749D01*
X-152271Y-200874D01*
X-152219Y-200985D01*
X-152160Y-201088D01*
X-152109Y-201169D01*
X-152064Y-201236D01*
X-152027Y-201295D01*
X-151998Y-201332D01*
X-151976Y-201354D01*
X-151969Y-201361D01*
X-151850Y-201479D01*
X-151725Y-201575D01*
X-151592Y-201664D01*
X-151459Y-201738D01*
X-151319Y-201804D01*
X-151186Y-201856D01*
X-151053Y-201900D01*
X-150928Y-201937D01*
X-150810Y-201966D01*
X-150699Y-201981D01*
X-150596Y-201996D01*
X-150515Y-202011D01*
X-150441D01*
X-150389Y-202018D01*
X-152581D01*
X-150345D01*
X-150197Y-202011D01*
X-150057Y-201996D01*
X-149924Y-201974D01*
X-149791Y-201944D01*
X-149673Y-201907D01*
X-149563Y-201863D01*
X-149459Y-201826D01*
X-149363Y-201775D01*
X-149282Y-201730D01*
X-149201Y-201693D01*
X-149142Y-201649D01*
X-149083Y-201612D01*
X-149046Y-201583D01*
X-149009Y-201560D01*
X-148994Y-201546D01*
X-148987Y-201538D01*
X-148891Y-201442D01*
X-148795Y-201346D01*
X-148714Y-201236D01*
X-148647Y-201125D01*
X-148581Y-201014D01*
X-148522Y-200904D01*
X-148433Y-200697D01*
X-148397Y-200594D01*
X-148367Y-200505D01*
X-148345Y-200424D01*
X-148323Y-200350D01*
X-148308Y-200291D01*
X-148301Y-200247D01*
X-148293Y-200217D01*
Y-200210D01*
X-149112Y-200099D01*
X-149135Y-200217D01*
X-149157Y-200321D01*
X-149186Y-200424D01*
X-149216Y-200513D01*
X-149253Y-200601D01*
X-149282Y-200675D01*
X-149319Y-200741D01*
X-149356Y-200808D01*
X-149393Y-200859D01*
X-149422Y-200904D01*
X-149481Y-200977D01*
X-149518Y-201022D01*
X-149526Y-201029D01*
X-149533Y-201037D01*
X-149666Y-201132D01*
X-149799Y-201206D01*
X-149939Y-201258D01*
X-150065Y-201295D01*
X-150182Y-201317D01*
X-150227Y-201324D01*
X-150271D01*
X-150308Y-201332D01*
X-150352D01*
X-150463Y-201324D01*
X-150574Y-201310D01*
X-150670Y-201287D01*
X-150766Y-201258D01*
X-150935Y-201191D01*
X-151083Y-201103D01*
X-151142Y-201066D01*
X-151194Y-201022D01*
X-151238Y-200985D01*
X-151282Y-200948D01*
X-151312Y-200926D01*
X-151334Y-200904D01*
X-151341Y-200889D01*
X-151349Y-200882D01*
X-151415Y-200793D01*
X-151474Y-200690D01*
X-151526Y-200579D01*
X-151563Y-200468D01*
X-151636Y-200225D01*
X-151681Y-199989D01*
X-151695Y-199878D01*
X-151703Y-199775D01*
X-151710Y-199679D01*
X-151718Y-199597D01*
X-151725Y-199531D01*
Y-199479D01*
Y-199443D01*
Y-199435D01*
X-151718Y-199258D01*
X-151710Y-199088D01*
X-151688Y-198941D01*
X-151666Y-198800D01*
X-151636Y-198668D01*
X-151600Y-198549D01*
X-151563Y-198446D01*
X-151526Y-198350D01*
X-151496Y-198269D01*
X-151459Y-198195D01*
X-151422Y-198136D01*
X-151393Y-198092D01*
X-151371Y-198048D01*
X-151349Y-198026D01*
X-151341Y-198011D01*
X-151334Y-198003D01*
X-151260Y-197922D01*
X-151179Y-197856D01*
X-151090Y-197789D01*
X-151009Y-197738D01*
X-150920Y-197693D01*
X-150839Y-197657D01*
X-150677Y-197605D01*
X-150529Y-197568D01*
X-150470Y-197561D01*
X-150411Y-197553D01*
X-150367Y-197546D01*
X-150308D01*
X-150160Y-197553D01*
X-150020Y-197583D01*
X-149902Y-197627D01*
X-149799Y-197671D01*
X-149718Y-197723D01*
X-149651Y-197760D01*
X-149614Y-197789D01*
X-149600Y-197804D01*
X-149496Y-197907D01*
X-149408Y-198026D01*
X-149341Y-198151D01*
X-149282Y-198269D01*
X-149238Y-198380D01*
X-149208Y-198468D01*
X-149201Y-198505D01*
X-149194Y-198527D01*
X-149186Y-198542D01*
Y-198549D01*
X-148374Y-198424D01*
X-148404Y-198291D01*
X-148448Y-198158D01*
X-148493Y-198040D01*
X-148537Y-197930D01*
X-148588Y-197826D01*
X-148647Y-197730D01*
X-148699Y-197649D01*
X-148758Y-197568D01*
X-148810Y-197502D01*
X-148862Y-197442D01*
X-148906Y-197391D01*
X-148950Y-197346D01*
X-148980Y-197317D01*
X-149009Y-197295D01*
X-149024Y-197280D01*
X-149031Y-197273D01*
X-149127Y-197199D01*
X-149231Y-197133D01*
X-149341Y-197081D01*
X-149452Y-197037D01*
X-149673Y-196963D01*
X-149880Y-196911D01*
X-149976Y-196896D01*
X-150065Y-196882D01*
X-150146Y-196874D01*
X-150212Y-196867D01*
X-150264Y-196859D01*
X-148293D01*
D02*
G37*
G36*
X-162861Y-198557D02*
D01*
D01*
D01*
D02*
G37*
G36*
X-212573Y-198682D02*
D01*
D01*
D01*
D02*
G37*
G36*
X-162861Y-198778D02*
D01*
D01*
D01*
D02*
G37*
G36*
Y-198793D02*
Y-198793D01*
D01*
Y-198793D01*
D02*
G37*
G36*
X-215215Y-198904D02*
Y-198904D01*
D01*
Y-198904D01*
D02*
G37*
G36*
Y-198985D02*
Y-198985D01*
D01*
Y-198985D01*
D02*
G37*
G36*
X-212573Y-199332D02*
Y-199339D01*
D01*
Y-199332D01*
D02*
G37*
G36*
X-145533Y-196859D02*
X-145577D01*
X-145747Y-196867D01*
X-145910Y-196882D01*
X-146057Y-196911D01*
X-146205Y-196948D01*
X-146345Y-196985D01*
X-146470Y-197037D01*
X-146589Y-197081D01*
X-146692Y-197133D01*
X-146795Y-197184D01*
X-146876Y-197236D01*
X-146950Y-197287D01*
X-147017Y-197324D01*
X-147061Y-197361D01*
X-147098Y-197391D01*
X-147120Y-197406D01*
X-147127Y-197413D01*
X-147260Y-197546D01*
X-147378Y-197686D01*
X-147481Y-197841D01*
X-147570Y-198003D01*
X-147636Y-198173D01*
X-147703Y-198343D01*
X-147755Y-198513D01*
X-147791Y-198675D01*
X-147821Y-198830D01*
X-147851Y-198970D01*
X-147865Y-199103D01*
X-147873Y-199221D01*
X-147880Y-199310D01*
X-147887Y-199383D01*
Y-196859D01*
D01*
Y-202018D01*
X-143268Y-202018D01*
D01*
X-145577D01*
X-145341Y-202003D01*
X-145120Y-201974D01*
X-144921Y-201922D01*
X-144825Y-201900D01*
X-144744Y-201870D01*
X-144662Y-201841D01*
X-144596Y-201819D01*
X-144537Y-201789D01*
X-144485Y-201767D01*
X-144441Y-201752D01*
X-144411Y-201738D01*
X-144397Y-201723D01*
X-144389D01*
X-144197Y-201597D01*
X-144028Y-201465D01*
X-143887Y-201324D01*
X-143769Y-201184D01*
X-143673Y-201066D01*
X-143637Y-201007D01*
X-143607Y-200963D01*
X-143585Y-200926D01*
X-143570Y-200896D01*
X-143555Y-200882D01*
Y-200874D01*
X-143504Y-200764D01*
X-143459Y-200653D01*
X-143386Y-200409D01*
X-143334Y-200158D01*
X-143304Y-199922D01*
X-143290Y-199811D01*
X-143282Y-199708D01*
X-143275Y-199612D01*
Y-199531D01*
X-143268Y-199465D01*
Y-199376D01*
X-143275Y-199162D01*
X-143297Y-198955D01*
X-143326Y-198764D01*
X-143371Y-198586D01*
X-143415Y-198424D01*
X-143474Y-198276D01*
X-143533Y-198136D01*
X-143592Y-198011D01*
X-143651Y-197900D01*
X-143710Y-197804D01*
X-143769Y-197723D01*
X-143814Y-197657D01*
X-143858Y-197597D01*
X-143887Y-197561D01*
X-143910Y-197538D01*
X-143917Y-197531D01*
X-144042Y-197413D01*
X-144175Y-197310D01*
X-144308Y-197221D01*
X-144448Y-197140D01*
X-144588Y-197081D01*
X-144721Y-197022D01*
X-144862Y-196977D01*
X-144987Y-196941D01*
X-145113Y-196918D01*
X-145223Y-196896D01*
X-145319Y-196882D01*
X-145408Y-196867D01*
X-145482D01*
X-145533Y-196859D01*
D02*
G37*
G36*
X-215215Y-199811D02*
D01*
D01*
D01*
D02*
G37*
G36*
X-212573Y-200188D02*
Y-200195D01*
D01*
Y-200188D01*
D02*
G37*
G36*
X-162861Y-200195D02*
Y-200210D01*
D01*
Y-200195D01*
D02*
G37*
G36*
X-215215Y-200210D02*
Y-200217D01*
D01*
Y-200210D01*
D02*
G37*
G36*
Y-200269D02*
Y-200284D01*
D01*
Y-200269D01*
D02*
G37*
G36*
X-162861Y-200453D02*
Y-200461D01*
D01*
Y-200453D01*
D02*
G37*
G36*
X-212573Y-200476D02*
D01*
D01*
D01*
D02*
G37*
G36*
Y-200542D02*
Y-200550D01*
D01*
Y-200542D01*
D02*
G37*
G36*
Y-200579D02*
D01*
D01*
D01*
D02*
G37*
G36*
X-198219Y-196970D02*
X-199171D01*
Y-200778D01*
Y-197922D01*
X-198219D01*
Y-196970D01*
D02*
G37*
G36*
X-215215Y-200889D02*
Y-200889D01*
D01*
Y-200889D01*
D02*
G37*
G36*
X-162861Y-200955D02*
D01*
D01*
D01*
D02*
G37*
G36*
X-198219Y-200845D02*
Y-200955D01*
X-199171D01*
D01*
D01*
Y-201907D01*
X-198219D01*
Y-200845D01*
D02*
G37*
G36*
X-212573Y-201206D02*
Y-201214D01*
D01*
Y-201206D01*
D02*
G37*
G36*
X-163695Y-196970D02*
X-164529D01*
Y-199620D01*
X-164537Y-199841D01*
X-164551Y-200033D01*
X-164574Y-200195D01*
X-164596Y-200335D01*
X-164610Y-200395D01*
X-164625Y-200439D01*
X-164640Y-200483D01*
X-164647Y-200520D01*
X-164655Y-200542D01*
X-164662Y-200564D01*
X-164670Y-200572D01*
Y-200579D01*
X-164728Y-200697D01*
X-164802Y-200800D01*
X-164883Y-200889D01*
X-164957Y-200963D01*
X-165031Y-201022D01*
X-165090Y-201066D01*
X-165127Y-201096D01*
X-165134Y-201103D01*
X-165142D01*
X-165267Y-201169D01*
X-165385Y-201214D01*
X-165503Y-201251D01*
X-165614Y-201273D01*
X-165710Y-201287D01*
X-165777Y-201295D01*
X-165843D01*
X-165976Y-201287D01*
X-166101Y-201265D01*
X-166212Y-201236D01*
X-166300Y-201199D01*
X-166374Y-201169D01*
X-166433Y-201140D01*
X-166463Y-201118D01*
X-166478Y-201110D01*
X-166566Y-201037D01*
X-166640Y-200948D01*
X-166699Y-200867D01*
X-166743Y-200786D01*
X-166780Y-200712D01*
X-166802Y-200645D01*
X-166810Y-200608D01*
X-166817Y-200594D01*
X-166824Y-200550D01*
X-166832Y-200490D01*
X-166839Y-200358D01*
X-166854Y-200210D01*
Y-200062D01*
X-166861Y-199929D01*
Y-199871D01*
Y-199811D01*
Y-199767D01*
Y-199738D01*
Y-199715D01*
Y-199708D01*
Y-196970D01*
X-167695D01*
Y-202018D01*
D01*
Y-200217D01*
X-167688Y-200380D01*
X-167681Y-200513D01*
X-167673Y-200623D01*
X-167666Y-200704D01*
X-167658Y-200771D01*
X-167651Y-200800D01*
Y-200815D01*
X-167614Y-200948D01*
X-167577Y-201066D01*
X-167533Y-201169D01*
X-167489Y-201258D01*
X-167452Y-201332D01*
X-167422Y-201391D01*
X-167400Y-201420D01*
X-167393Y-201435D01*
X-167319Y-201524D01*
X-167230Y-201605D01*
X-167134Y-201679D01*
X-167046Y-201738D01*
X-166957Y-201789D01*
X-166891Y-201826D01*
X-166847Y-201848D01*
X-166839Y-201856D01*
X-166832D01*
X-166684Y-201907D01*
X-166544Y-201952D01*
X-166404Y-201981D01*
X-166278Y-201996D01*
X-166168Y-202011D01*
X-166086Y-202018D01*
X-167695D01*
X-163695D01*
D01*
X-166013D01*
X-165828Y-202011D01*
X-165658Y-201981D01*
X-165503Y-201944D01*
X-165348Y-201885D01*
X-165208Y-201826D01*
X-165083Y-201752D01*
X-164965Y-201679D01*
X-164854Y-201597D01*
X-164758Y-201524D01*
X-164677Y-201450D01*
X-164603Y-201376D01*
X-164544Y-201317D01*
X-164500Y-201258D01*
X-164470Y-201221D01*
X-164448Y-201191D01*
X-164441Y-201184D01*
Y-201907D01*
X-163695D01*
Y-196970D01*
D02*
G37*
G36*
X-162861Y-201317D02*
D01*
D01*
D01*
D02*
G37*
G36*
X-212573Y-201332D02*
D01*
D01*
D01*
D02*
G37*
G36*
X-153791Y-200955D02*
X-154743D01*
Y-201907D01*
X-153791D01*
Y-200955D01*
D02*
G37*
G36*
X-189282Y-196859D02*
X-189385D01*
X-189614Y-196867D01*
X-189828Y-196889D01*
X-190020Y-196918D01*
X-190108Y-196933D01*
X-190182Y-196948D01*
X-190256Y-196963D01*
X-190322Y-196977D01*
X-190374Y-196992D01*
X-190418Y-197007D01*
X-190455Y-197022D01*
X-190485Y-197029D01*
X-190499Y-197037D01*
X-190507D01*
X-190677Y-197110D01*
X-190824Y-197192D01*
X-190950Y-197273D01*
X-191053Y-197354D01*
X-191134Y-197428D01*
X-191193Y-197487D01*
X-191230Y-197524D01*
X-191245Y-197531D01*
Y-197538D01*
X-191333Y-197664D01*
X-191407Y-197804D01*
X-191466Y-197944D01*
X-191518Y-198077D01*
X-191555Y-198195D01*
X-191570Y-198247D01*
X-191584Y-198291D01*
X-191592Y-198328D01*
X-191599Y-198358D01*
X-191606Y-198372D01*
Y-198380D01*
X-190787Y-198490D01*
X-190758Y-198395D01*
X-190728Y-198306D01*
X-190669Y-198158D01*
X-190595Y-198026D01*
X-190529Y-197930D01*
X-190470Y-197856D01*
X-190418Y-197797D01*
X-190389Y-197767D01*
X-190374Y-197760D01*
X-190256Y-197693D01*
X-190116Y-197642D01*
X-189976Y-197605D01*
X-189835Y-197575D01*
X-189702Y-197561D01*
X-189651D01*
X-189599Y-197553D01*
X-189503D01*
X-189282Y-197568D01*
X-189090Y-197598D01*
X-188927Y-197642D01*
X-188795Y-197693D01*
X-188691Y-197752D01*
X-188654Y-197775D01*
X-188618Y-197797D01*
X-188588Y-197811D01*
X-188573Y-197826D01*
X-188558Y-197841D01*
X-188477Y-197930D01*
X-188418Y-198040D01*
X-188374Y-198158D01*
X-188345Y-198276D01*
X-188330Y-198387D01*
X-188315Y-198476D01*
Y-198505D01*
Y-198535D01*
Y-198549D01*
Y-198557D01*
Y-198579D01*
Y-198609D01*
Y-198682D01*
X-188322Y-198712D01*
Y-198741D01*
Y-198764D01*
Y-198771D01*
X-188418Y-198800D01*
X-188522Y-198830D01*
X-188640Y-198859D01*
X-188758Y-198889D01*
X-189001Y-198941D01*
X-189245Y-198985D01*
X-189363Y-199000D01*
X-189466Y-199014D01*
X-189562Y-199029D01*
X-189651Y-199044D01*
X-189717Y-199051D01*
X-189769Y-199059D01*
X-189798Y-199066D01*
X-189813D01*
X-189990Y-199088D01*
X-190138Y-199110D01*
X-190271Y-199133D01*
X-190374Y-199147D01*
X-190455Y-199169D01*
X-190514Y-199177D01*
X-190544Y-199191D01*
X-190559D01*
X-190677Y-199228D01*
X-190795Y-199273D01*
X-190898Y-199317D01*
X-190987Y-199361D01*
X-191060Y-199398D01*
X-191112Y-199435D01*
X-191149Y-199457D01*
X-191164Y-199465D01*
X-191260Y-199538D01*
X-191341Y-199612D01*
X-191415Y-199693D01*
X-191474Y-199767D01*
X-191525Y-199841D01*
X-191562Y-199893D01*
X-191584Y-199929D01*
X-191592Y-199944D01*
X-191643Y-200062D01*
X-191688Y-200173D01*
X-191717Y-200284D01*
X-191732Y-200387D01*
X-191747Y-200476D01*
X-191754Y-200550D01*
Y-200608D01*
X-191747Y-200719D01*
X-191732Y-200830D01*
X-191717Y-200933D01*
X-191688Y-201029D01*
X-191614Y-201206D01*
X-191533Y-201346D01*
X-191496Y-201413D01*
X-191459Y-201465D01*
X-191422Y-201516D01*
X-191385Y-201553D01*
X-191356Y-201583D01*
X-191341Y-201605D01*
X-191326Y-201620D01*
X-191319Y-201627D01*
X-191230Y-201693D01*
X-191141Y-201752D01*
X-191038Y-201811D01*
X-190942Y-201856D01*
X-190736Y-201922D01*
X-190529Y-201966D01*
X-190440Y-201989D01*
X-190352Y-201996D01*
X-190271Y-202003D01*
X-190204Y-202011D01*
X-190153Y-202018D01*
X-191754D01*
D01*
X-187215D01*
D01*
X-190071D01*
X-189887Y-202011D01*
X-189717Y-201996D01*
X-189562Y-201966D01*
X-189422Y-201937D01*
X-189311Y-201907D01*
X-189260Y-201893D01*
X-189223Y-201878D01*
X-189193Y-201870D01*
X-189171Y-201863D01*
X-189156Y-201856D01*
X-189149D01*
X-188987Y-201782D01*
X-188824Y-201701D01*
X-188677Y-201605D01*
X-188536Y-201509D01*
X-188418Y-201428D01*
X-188374Y-201383D01*
X-188330Y-201354D01*
X-188293Y-201324D01*
X-188271Y-201302D01*
X-188256Y-201295D01*
X-188249Y-201287D01*
X-188234Y-201420D01*
X-188212Y-201538D01*
X-188182Y-201642D01*
X-188153Y-201730D01*
X-188130Y-201804D01*
X-188108Y-201863D01*
X-188094Y-201893D01*
X-188086Y-201907D01*
X-187215D01*
D01*
X-187267Y-201804D01*
X-187311Y-201693D01*
X-187348Y-201597D01*
X-187378Y-201509D01*
X-187400Y-201428D01*
X-187415Y-201369D01*
X-187422Y-201332D01*
Y-201317D01*
X-187429Y-201251D01*
X-187437Y-201162D01*
X-187444Y-201066D01*
X-187452Y-200955D01*
X-187459Y-200837D01*
Y-200712D01*
X-187466Y-200461D01*
Y-200343D01*
X-187474Y-200225D01*
Y-200121D01*
Y-200026D01*
Y-199952D01*
Y-199893D01*
Y-199856D01*
Y-199841D01*
Y-198727D01*
Y-198623D01*
Y-198535D01*
X-187481Y-198453D01*
Y-198372D01*
X-187488Y-198240D01*
X-187496Y-198136D01*
X-187503Y-198055D01*
X-187511Y-198003D01*
X-187518Y-197967D01*
Y-197959D01*
X-187548Y-197834D01*
X-187592Y-197723D01*
X-187636Y-197627D01*
X-187680Y-197546D01*
X-187717Y-197479D01*
X-187754Y-197428D01*
X-187776Y-197398D01*
X-187784Y-197391D01*
X-187865Y-197310D01*
X-187953Y-197236D01*
X-188049Y-197169D01*
X-188145Y-197118D01*
X-188234Y-197073D01*
X-188300Y-197044D01*
X-188330Y-197029D01*
X-188352Y-197022D01*
X-188359Y-197014D01*
X-188367D01*
X-188522Y-196963D01*
X-188691Y-196926D01*
X-188861Y-196896D01*
X-189023Y-196882D01*
X-189164Y-196867D01*
X-189230D01*
X-189282Y-196859D01*
D02*
G37*
G36*
X-219193Y-195096D02*
X-220027D01*
Y-201907D01*
X-216020D01*
Y-198653D01*
X-216027Y-198527D01*
X-216034Y-198409D01*
X-216049Y-198306D01*
X-216064Y-198203D01*
X-216078Y-198114D01*
X-216093Y-198033D01*
X-216108Y-197959D01*
X-216123Y-197893D01*
X-216138Y-197834D01*
X-216152Y-197789D01*
X-216167Y-197745D01*
X-216182Y-197715D01*
X-216189Y-197693D01*
X-216197Y-197686D01*
Y-197679D01*
X-216270Y-197546D01*
X-216359Y-197420D01*
X-216462Y-197317D01*
X-216551Y-197236D01*
X-216639Y-197169D01*
X-216713Y-197118D01*
X-216743Y-197103D01*
X-216765Y-197088D01*
X-216772Y-197081D01*
X-216780D01*
X-216935Y-197007D01*
X-217097Y-196955D01*
X-217252Y-196911D01*
X-217400Y-196889D01*
X-217532Y-196874D01*
X-217584Y-196867D01*
X-217636Y-196860D01*
X-217724D01*
X-217887Y-196867D01*
X-218042Y-196889D01*
X-218189Y-196926D01*
X-218329Y-196963D01*
X-218455Y-197022D01*
X-218580Y-197073D01*
X-218691Y-197140D01*
X-218787Y-197199D01*
X-218883Y-197265D01*
X-218964Y-197332D01*
X-219030Y-197383D01*
X-219090Y-197435D01*
X-219134Y-197479D01*
X-219163Y-197516D01*
X-219185Y-197538D01*
X-219193Y-197546D01*
Y-195096D01*
D02*
G37*
G36*
X-161407Y-195251D02*
D01*
X-162241Y-195752D01*
Y-196970D01*
X-162861D01*
Y-197620D01*
X-162241D01*
Y-200468D01*
Y-200601D01*
X-162234Y-200727D01*
Y-200837D01*
X-162227Y-200941D01*
X-162219Y-201029D01*
X-162212Y-201110D01*
X-162205Y-201184D01*
X-162190Y-201243D01*
X-162182Y-201295D01*
X-162175Y-201339D01*
X-162168Y-201376D01*
X-162160Y-201406D01*
X-162153Y-201442D01*
X-162145Y-201457D01*
X-162101Y-201538D01*
X-162050Y-201612D01*
X-161990Y-201679D01*
X-161932Y-201730D01*
X-161872Y-201775D01*
X-161828Y-201804D01*
X-161799Y-201826D01*
X-161791Y-201834D01*
X-161688Y-201878D01*
X-161577Y-201915D01*
X-161459Y-201937D01*
X-161341Y-201959D01*
X-161238Y-201966D01*
X-161157Y-201974D01*
X-162861D01*
D01*
X-160448D01*
X-161083D01*
X-160861Y-201959D01*
X-160758Y-201952D01*
X-160662Y-201937D01*
X-160574Y-201922D01*
X-160507Y-201915D01*
X-160463Y-201900D01*
X-160448D01*
X-160559Y-201162D01*
X-160640Y-201169D01*
X-160714Y-201177D01*
X-160780Y-201184D01*
X-160832D01*
X-160876Y-201191D01*
X-161002D01*
X-161061Y-201184D01*
X-161105Y-201169D01*
X-161149Y-201162D01*
X-161179Y-201147D01*
X-161201Y-201140D01*
X-161216Y-201132D01*
X-161223D01*
X-161282Y-201081D01*
X-161326Y-201029D01*
X-161356Y-200985D01*
X-161363Y-200977D01*
Y-200970D01*
X-161378Y-200919D01*
X-161385Y-200852D01*
X-161400Y-200778D01*
Y-200704D01*
X-161407Y-200631D01*
Y-200572D01*
Y-200527D01*
Y-200520D01*
Y-200513D01*
Y-197620D01*
X-160559D01*
Y-196970D01*
X-161407D01*
Y-195251D01*
D02*
G37*
G36*
X-211119Y-195251D02*
D01*
X-211953Y-195753D01*
Y-196970D01*
X-212573D01*
Y-197620D01*
X-211953D01*
Y-200468D01*
Y-200601D01*
X-211946Y-200727D01*
Y-200837D01*
X-211938Y-200941D01*
X-211931Y-201029D01*
X-211924Y-201110D01*
X-211916Y-201184D01*
X-211901Y-201243D01*
X-211894Y-201295D01*
X-211887Y-201339D01*
X-211879Y-201376D01*
X-211872Y-201406D01*
X-211865Y-201442D01*
X-211857Y-201457D01*
X-211813Y-201538D01*
X-211761Y-201612D01*
X-211702Y-201679D01*
X-211643Y-201730D01*
X-211584Y-201775D01*
X-211540Y-201804D01*
X-211510Y-201826D01*
X-211503Y-201834D01*
X-211400Y-201878D01*
X-211289Y-201915D01*
X-211171Y-201937D01*
X-211053Y-201959D01*
X-210949Y-201966D01*
X-210868Y-201974D01*
X-212573D01*
D01*
X-210160D01*
D01*
X-210794D01*
X-210573Y-201959D01*
X-210470Y-201952D01*
X-210374Y-201937D01*
X-210285Y-201922D01*
X-210219Y-201915D01*
X-210174Y-201900D01*
X-210160D01*
X-210271Y-201162D01*
X-210352Y-201169D01*
X-210425Y-201177D01*
X-210492Y-201184D01*
X-210544D01*
X-210588Y-201191D01*
X-210713D01*
X-210772Y-201184D01*
X-210817Y-201169D01*
X-210861Y-201162D01*
X-210890Y-201147D01*
X-210913Y-201140D01*
X-210927Y-201132D01*
X-210935D01*
X-210994Y-201081D01*
X-211038Y-201029D01*
X-211068Y-200985D01*
X-211075Y-200977D01*
Y-200970D01*
X-211090Y-200919D01*
X-211097Y-200852D01*
X-211112Y-200778D01*
Y-200704D01*
X-211119Y-200631D01*
Y-200572D01*
Y-200527D01*
Y-200520D01*
Y-200513D01*
Y-197620D01*
X-210271D01*
Y-196970D01*
X-211119D01*
Y-195251D01*
D02*
G37*
G36*
X-213761D02*
D01*
X-214595Y-195753D01*
Y-196970D01*
X-215215D01*
Y-197620D01*
X-214595D01*
Y-200468D01*
Y-200601D01*
X-214588Y-200727D01*
Y-200837D01*
X-214580Y-200941D01*
X-214573Y-201029D01*
X-214566Y-201110D01*
X-214558Y-201184D01*
X-214544Y-201243D01*
X-214536Y-201295D01*
X-214529Y-201339D01*
X-214521Y-201376D01*
X-214514Y-201406D01*
X-214507Y-201442D01*
X-214499Y-201457D01*
X-214455Y-201538D01*
X-214403Y-201612D01*
X-214344Y-201679D01*
X-214285Y-201730D01*
X-214226Y-201775D01*
X-214182Y-201804D01*
X-214152Y-201826D01*
X-214145Y-201834D01*
X-214042Y-201878D01*
X-213931Y-201915D01*
X-213813Y-201937D01*
X-213695Y-201959D01*
X-213592Y-201966D01*
X-213510Y-201974D01*
X-215215D01*
D01*
X-212802D01*
X-213437D01*
X-213215Y-201959D01*
X-213112Y-201952D01*
X-213016Y-201937D01*
X-212927Y-201922D01*
X-212861Y-201915D01*
X-212817Y-201900D01*
X-212802D01*
X-212913Y-201162D01*
X-212994Y-201169D01*
X-213068Y-201177D01*
X-213134Y-201184D01*
X-213186D01*
X-213230Y-201191D01*
X-213355D01*
X-213414Y-201184D01*
X-213459Y-201169D01*
X-213503Y-201162D01*
X-213532Y-201147D01*
X-213555Y-201140D01*
X-213569Y-201132D01*
X-213577D01*
X-213636Y-201081D01*
X-213680Y-201029D01*
X-213710Y-200985D01*
X-213717Y-200977D01*
Y-200970D01*
X-213732Y-200919D01*
X-213739Y-200852D01*
X-213754Y-200778D01*
Y-200704D01*
X-213761Y-200631D01*
Y-200572D01*
Y-200527D01*
Y-200520D01*
Y-200513D01*
Y-197620D01*
X-212913D01*
Y-196970D01*
X-213761D01*
Y-195251D01*
D02*
G37*
G36*
X-152581Y-199531D02*
Y-202018D01*
D01*
Y-199531D01*
D02*
G37*
G36*
X-192094Y-194985D02*
X-192765D01*
X-194736Y-201999D01*
X-194743Y-202026D01*
X-196713D01*
X-194736Y-194985D01*
D01*
X-195407D01*
X-197385Y-202026D01*
X-192094D01*
X-194071D01*
X-192094Y-194985D01*
D02*
G37*
G36*
X-197385D02*
Y-202026D01*
D01*
Y-194985D01*
D02*
G37*
%LPD*%
G36*
X-176057Y-197524D02*
X-175961Y-197538D01*
X-175865Y-197561D01*
X-175776Y-197590D01*
X-175621Y-197664D01*
X-175489Y-197752D01*
X-175378Y-197841D01*
X-175326Y-197878D01*
X-175289Y-197915D01*
X-175260Y-197944D01*
X-175238Y-197967D01*
X-175230Y-197981D01*
X-175223Y-197989D01*
X-175156Y-198084D01*
X-175090Y-198188D01*
X-175038Y-198291D01*
X-174994Y-198409D01*
X-174928Y-198645D01*
X-174883Y-198874D01*
X-174861Y-198985D01*
X-174854Y-199081D01*
X-174846Y-199169D01*
X-174839Y-199251D01*
X-174832Y-199317D01*
Y-199361D01*
Y-199398D01*
Y-199406D01*
X-174839Y-199583D01*
X-174846Y-199752D01*
X-174869Y-199907D01*
X-174891Y-200048D01*
X-174920Y-200180D01*
X-174957Y-200306D01*
X-174994Y-200409D01*
X-175031Y-200505D01*
X-175068Y-200594D01*
X-175105Y-200668D01*
X-175134Y-200727D01*
X-175171Y-200778D01*
X-175193Y-200815D01*
X-175215Y-200845D01*
X-175223Y-200859D01*
X-175230Y-200867D01*
X-175304Y-200948D01*
X-175385Y-201022D01*
X-175466Y-201081D01*
X-175548Y-201132D01*
X-175629Y-201177D01*
X-175710Y-201221D01*
X-175857Y-201273D01*
X-175990Y-201310D01*
X-176049Y-201317D01*
X-176094Y-201324D01*
X-176138Y-201332D01*
X-176190D01*
X-176293Y-201324D01*
X-176389Y-201310D01*
X-176478Y-201287D01*
X-176566Y-201258D01*
X-176721Y-201191D01*
X-176861Y-201103D01*
X-176972Y-201022D01*
X-177016Y-200985D01*
X-177053Y-200948D01*
X-177083Y-200926D01*
X-177105Y-200904D01*
X-177112Y-200889D01*
X-177120Y-200882D01*
X-177186Y-200793D01*
X-177245Y-200690D01*
X-177297Y-200579D01*
X-177341Y-200468D01*
X-177407Y-200232D01*
X-177452Y-200003D01*
X-177474Y-199900D01*
X-177481Y-199797D01*
X-177489Y-199708D01*
X-177496Y-199627D01*
X-177503Y-199560D01*
Y-199516D01*
Y-199479D01*
Y-199472D01*
X-177496Y-199295D01*
X-177489Y-199133D01*
X-177466Y-198985D01*
X-177437Y-198845D01*
X-177407Y-198712D01*
X-177378Y-198594D01*
X-177341Y-198483D01*
X-177297Y-198387D01*
X-177260Y-198299D01*
X-177223Y-198225D01*
X-177193Y-198166D01*
X-177164Y-198114D01*
X-177134Y-198070D01*
X-177112Y-198040D01*
X-177105Y-198026D01*
X-177097Y-198018D01*
X-177016Y-197930D01*
X-176935Y-197856D01*
X-176854Y-197782D01*
X-176773Y-197730D01*
X-176691Y-197679D01*
X-176618Y-197642D01*
X-176470Y-197575D01*
X-176345Y-197546D01*
X-176286Y-197531D01*
X-176241Y-197524D01*
X-176204Y-197516D01*
X-176153D01*
X-176057Y-197524D01*
D02*
G37*
G36*
X-207252Y-197524D02*
X-207156Y-197538D01*
X-207060Y-197561D01*
X-206972Y-197590D01*
X-206817Y-197664D01*
X-206684Y-197752D01*
X-206573Y-197841D01*
X-206522Y-197878D01*
X-206485Y-197915D01*
X-206455Y-197944D01*
X-206433Y-197967D01*
X-206425Y-197981D01*
X-206418Y-197989D01*
X-206352Y-198084D01*
X-206285Y-198188D01*
X-206234Y-198291D01*
X-206189Y-198409D01*
X-206123Y-198645D01*
X-206079Y-198874D01*
X-206056Y-198985D01*
X-206049Y-199081D01*
X-206042Y-199169D01*
X-206034Y-199251D01*
X-206027Y-199317D01*
Y-199361D01*
Y-199398D01*
Y-199406D01*
X-206034Y-199583D01*
X-206042Y-199752D01*
X-206064Y-199907D01*
X-206086Y-200048D01*
X-206116Y-200181D01*
X-206152Y-200306D01*
X-206189Y-200409D01*
X-206226Y-200505D01*
X-206263Y-200594D01*
X-206300Y-200668D01*
X-206330Y-200727D01*
X-206366Y-200778D01*
X-206389Y-200815D01*
X-206411Y-200845D01*
X-206418Y-200859D01*
X-206425Y-200867D01*
X-206499Y-200948D01*
X-206580Y-201022D01*
X-206662Y-201081D01*
X-206743Y-201132D01*
X-206824Y-201177D01*
X-206905Y-201221D01*
X-207053Y-201273D01*
X-207186Y-201310D01*
X-207245Y-201317D01*
X-207289Y-201324D01*
X-207333Y-201332D01*
X-207385D01*
X-207488Y-201324D01*
X-207584Y-201310D01*
X-207673Y-201288D01*
X-207761Y-201258D01*
X-207916Y-201191D01*
X-208056Y-201103D01*
X-208167Y-201022D01*
X-208211Y-200985D01*
X-208248Y-200948D01*
X-208278Y-200926D01*
X-208300Y-200904D01*
X-208307Y-200889D01*
X-208315Y-200882D01*
X-208381Y-200793D01*
X-208440Y-200690D01*
X-208492Y-200579D01*
X-208536Y-200468D01*
X-208603Y-200232D01*
X-208647Y-200003D01*
X-208669Y-199900D01*
X-208676Y-199797D01*
X-208684Y-199708D01*
X-208691Y-199627D01*
X-208699Y-199560D01*
Y-199516D01*
Y-199479D01*
Y-199472D01*
X-208691Y-199295D01*
X-208684Y-199133D01*
X-208662Y-198985D01*
X-208632Y-198845D01*
X-208603Y-198712D01*
X-208573Y-198594D01*
X-208536Y-198483D01*
X-208492Y-198387D01*
X-208455Y-198299D01*
X-208418Y-198225D01*
X-208389Y-198166D01*
X-208359Y-198114D01*
X-208330Y-198070D01*
X-208307Y-198040D01*
X-208300Y-198026D01*
X-208293Y-198018D01*
X-208211Y-197930D01*
X-208130Y-197856D01*
X-208049Y-197782D01*
X-207968Y-197730D01*
X-207887Y-197679D01*
X-207813Y-197642D01*
X-207665Y-197575D01*
X-207540Y-197546D01*
X-207481Y-197531D01*
X-207437Y-197524D01*
X-207400Y-197516D01*
X-207348D01*
X-207252Y-197524D01*
D02*
G37*
G36*
X-170699Y-197590D02*
X-170588Y-197605D01*
X-170492Y-197634D01*
X-170404Y-197657D01*
X-170337Y-197686D01*
X-170286Y-197715D01*
X-170249Y-197730D01*
X-170241Y-197738D01*
X-170153Y-197797D01*
X-170079Y-197863D01*
X-170020Y-197930D01*
X-169976Y-197996D01*
X-169939Y-198055D01*
X-169917Y-198099D01*
X-169902Y-198129D01*
X-169895Y-198144D01*
X-169858Y-198247D01*
X-169835Y-198365D01*
X-169813Y-198490D01*
X-169806Y-198616D01*
X-169799Y-198727D01*
X-169791Y-198778D01*
Y-198822D01*
Y-198852D01*
Y-198882D01*
Y-198896D01*
Y-198904D01*
Y-201907D01*
X-172131D01*
Y-199214D01*
X-172123Y-199044D01*
X-172116Y-198882D01*
X-172094Y-198741D01*
X-172072Y-198609D01*
X-172042Y-198490D01*
X-172013Y-198387D01*
X-171976Y-198291D01*
X-171939Y-198210D01*
X-171902Y-198136D01*
X-171865Y-198077D01*
X-171835Y-198033D01*
X-171806Y-197989D01*
X-171784Y-197959D01*
X-171762Y-197937D01*
X-171754Y-197930D01*
X-171747Y-197922D01*
X-171673Y-197863D01*
X-171592Y-197811D01*
X-171437Y-197723D01*
X-171282Y-197664D01*
X-171142Y-197627D01*
X-171016Y-197598D01*
X-170957Y-197590D01*
X-170913D01*
X-170876Y-197583D01*
X-170824D01*
X-170699Y-197590D01*
D02*
G37*
G36*
X-137208Y-197590D02*
X-137113Y-197605D01*
X-137024Y-197627D01*
X-136950Y-197649D01*
X-136891Y-197679D01*
X-136847Y-197701D01*
X-136817Y-197715D01*
X-136810Y-197723D01*
X-136736Y-197775D01*
X-136670Y-197834D01*
X-136626Y-197893D01*
X-136581Y-197952D01*
X-136552Y-198003D01*
X-136530Y-198040D01*
X-136515Y-198070D01*
Y-198077D01*
X-136485Y-198173D01*
X-136470Y-198284D01*
X-136456Y-198402D01*
X-136441Y-198520D01*
Y-198631D01*
X-136434Y-198719D01*
Y-198749D01*
Y-198778D01*
Y-198793D01*
Y-198800D01*
Y-201907D01*
X-138530D01*
Y-199044D01*
X-138522Y-198904D01*
X-138515Y-198778D01*
X-138500Y-198653D01*
X-138478Y-198542D01*
X-138448Y-198446D01*
X-138419Y-198350D01*
X-138389Y-198269D01*
X-138352Y-198195D01*
X-138323Y-198136D01*
X-138293Y-198077D01*
X-138264Y-198033D01*
X-138234Y-197996D01*
X-138212Y-197966D01*
X-138197Y-197944D01*
X-138183Y-197937D01*
Y-197930D01*
X-138116Y-197871D01*
X-138042Y-197811D01*
X-137902Y-197730D01*
X-137755Y-197664D01*
X-137614Y-197627D01*
X-137496Y-197597D01*
X-137445Y-197590D01*
X-137400D01*
X-137364Y-197583D01*
X-137312D01*
X-137208Y-197590D01*
D02*
G37*
G36*
X-140072Y-197597D02*
X-139932Y-197627D01*
X-139821Y-197671D01*
X-139725Y-197723D01*
X-139659Y-197775D01*
X-139607Y-197819D01*
X-139577Y-197848D01*
X-139570Y-197863D01*
X-139504Y-197981D01*
X-139452Y-198114D01*
X-139415Y-198254D01*
X-139386Y-198387D01*
X-139371Y-198513D01*
Y-198564D01*
X-139363Y-198609D01*
Y-198653D01*
Y-198682D01*
Y-198697D01*
Y-198704D01*
Y-201907D01*
X-141459D01*
Y-199346D01*
Y-199221D01*
X-141452Y-199110D01*
X-141445Y-199000D01*
X-141437Y-198904D01*
X-141430Y-198808D01*
X-141415Y-198727D01*
X-141408Y-198653D01*
X-141393Y-198579D01*
X-141378Y-198520D01*
X-141371Y-198468D01*
X-141356Y-198424D01*
X-141349Y-198387D01*
X-141341Y-198358D01*
X-141334Y-198335D01*
X-141326Y-198328D01*
Y-198321D01*
X-141268Y-198195D01*
X-141201Y-198084D01*
X-141127Y-197989D01*
X-141053Y-197915D01*
X-140994Y-197848D01*
X-140943Y-197811D01*
X-140906Y-197782D01*
X-140891Y-197775D01*
X-140773Y-197708D01*
X-140662Y-197664D01*
X-140552Y-197627D01*
X-140448Y-197605D01*
X-140360Y-197590D01*
X-140293Y-197583D01*
X-140234D01*
X-140072Y-197597D01*
D02*
G37*
G36*
X-183968Y-197598D02*
X-183828Y-197627D01*
X-183717Y-197671D01*
X-183621Y-197723D01*
X-183555Y-197775D01*
X-183503Y-197819D01*
X-183474Y-197848D01*
X-183466Y-197863D01*
X-183400Y-197981D01*
X-183348Y-198114D01*
X-183311Y-198254D01*
X-183282Y-198387D01*
X-183267Y-198513D01*
Y-198564D01*
X-183260Y-198609D01*
Y-198653D01*
Y-198682D01*
Y-198697D01*
Y-198704D01*
Y-201907D01*
X-185356D01*
Y-199346D01*
Y-199221D01*
X-185348Y-199110D01*
X-185341Y-199000D01*
X-185334Y-198904D01*
X-185326Y-198808D01*
X-185311Y-198727D01*
X-185304Y-198653D01*
X-185289Y-198579D01*
X-185274Y-198520D01*
X-185267Y-198468D01*
X-185252Y-198424D01*
X-185245Y-198387D01*
X-185238Y-198358D01*
X-185230Y-198335D01*
X-185223Y-198328D01*
Y-198321D01*
X-185164Y-198195D01*
X-185097Y-198084D01*
X-185023Y-197989D01*
X-184950Y-197915D01*
X-184891Y-197848D01*
X-184839Y-197811D01*
X-184802Y-197782D01*
X-184787Y-197775D01*
X-184669Y-197708D01*
X-184559Y-197664D01*
X-184448Y-197627D01*
X-184345Y-197605D01*
X-184256Y-197590D01*
X-184190Y-197583D01*
X-184131D01*
X-183968Y-197598D01*
D02*
G37*
G36*
X-145467Y-197561D02*
X-145356Y-197575D01*
X-145253Y-197597D01*
X-145157Y-197627D01*
X-144980Y-197701D01*
X-144825Y-197789D01*
X-144766Y-197834D01*
X-144707Y-197878D01*
X-144662Y-197915D01*
X-144618Y-197952D01*
X-144588Y-197981D01*
X-144566Y-198003D01*
X-144552Y-198018D01*
X-144544Y-198026D01*
X-144470Y-198121D01*
X-144404Y-198217D01*
X-144352Y-198328D01*
X-144301Y-198439D01*
X-144256Y-198557D01*
X-144227Y-198675D01*
X-144175Y-198896D01*
X-144160Y-199000D01*
X-144146Y-199096D01*
X-144138Y-199184D01*
X-144131Y-199265D01*
X-144124Y-199324D01*
Y-199376D01*
Y-199406D01*
Y-199413D01*
X-144131Y-199590D01*
X-144138Y-199752D01*
X-144160Y-199907D01*
X-144190Y-200048D01*
X-144220Y-200180D01*
X-144256Y-200299D01*
X-144293Y-200409D01*
X-144330Y-200498D01*
X-144375Y-200586D01*
X-144411Y-200660D01*
X-144448Y-200719D01*
X-144478Y-200771D01*
X-144507Y-200808D01*
X-144529Y-200837D01*
X-144537Y-200852D01*
X-144544Y-200859D01*
X-144625Y-200941D01*
X-144707Y-201014D01*
X-144795Y-201081D01*
X-144876Y-201132D01*
X-144965Y-201177D01*
X-145053Y-201214D01*
X-145216Y-201273D01*
X-145356Y-201310D01*
X-145422Y-201317D01*
X-145474Y-201324D01*
X-145518Y-201332D01*
X-145577D01*
X-145695Y-201324D01*
X-145799Y-201310D01*
X-145910Y-201287D01*
X-146005Y-201258D01*
X-146183Y-201184D01*
X-146330Y-201096D01*
X-146397Y-201059D01*
X-146456Y-201014D01*
X-146500Y-200977D01*
X-146544Y-200941D01*
X-146574Y-200911D01*
X-146596Y-200889D01*
X-146611Y-200874D01*
X-146618Y-200867D01*
X-146692Y-200771D01*
X-146751Y-200668D01*
X-146810Y-200557D01*
X-146854Y-200446D01*
X-146928Y-200210D01*
X-146980Y-199974D01*
X-146994Y-199871D01*
X-147009Y-199767D01*
X-147017Y-199679D01*
X-147024Y-199597D01*
X-147031Y-199531D01*
Y-199487D01*
Y-199450D01*
Y-199443D01*
X-147024Y-199273D01*
X-147017Y-199110D01*
X-146994Y-198963D01*
X-146965Y-198822D01*
X-146935Y-198697D01*
X-146898Y-198579D01*
X-146862Y-198476D01*
X-146825Y-198380D01*
X-146788Y-198299D01*
X-146751Y-198225D01*
X-146714Y-198166D01*
X-146684Y-198114D01*
X-146655Y-198077D01*
X-146633Y-198048D01*
X-146625Y-198033D01*
X-146618Y-198026D01*
X-146537Y-197944D01*
X-146456Y-197871D01*
X-146367Y-197804D01*
X-146279Y-197752D01*
X-146190Y-197708D01*
X-146109Y-197671D01*
X-145939Y-197612D01*
X-145799Y-197575D01*
X-145732Y-197568D01*
X-145681Y-197561D01*
X-145636Y-197553D01*
X-145577D01*
X-145467Y-197561D01*
D02*
G37*
G36*
X-147880Y-199671D02*
X-147858Y-199885D01*
X-147828Y-200084D01*
X-147791Y-200269D01*
X-147740Y-200439D01*
X-147688Y-200594D01*
X-147629Y-200734D01*
X-147570Y-200867D01*
X-147511Y-200977D01*
X-147452Y-201081D01*
X-147400Y-201162D01*
X-147349Y-201228D01*
X-147312Y-201287D01*
X-147282Y-201324D01*
X-147260Y-201346D01*
X-147253Y-201354D01*
X-147127Y-201472D01*
X-146994Y-201575D01*
X-146862Y-201664D01*
X-146721Y-201738D01*
X-146581Y-201804D01*
X-146441Y-201856D01*
X-146308Y-201900D01*
X-146175Y-201937D01*
X-146050Y-201959D01*
X-145939Y-201981D01*
X-145836Y-201996D01*
X-145747Y-202011D01*
X-145673D01*
X-145622Y-202018D01*
X-147887Y-202018D01*
Y-199443D01*
X-147880Y-199671D01*
D02*
G37*
G36*
X-188322Y-199738D02*
X-188330Y-199929D01*
X-188345Y-200099D01*
X-188367Y-200247D01*
X-188389Y-200365D01*
X-188411Y-200453D01*
X-188433Y-200520D01*
X-188448Y-200557D01*
X-188455Y-200572D01*
X-188529Y-200704D01*
X-188618Y-200815D01*
X-188706Y-200919D01*
X-188795Y-201000D01*
X-188883Y-201066D01*
X-188950Y-201118D01*
X-188994Y-201147D01*
X-189001Y-201155D01*
X-189009D01*
X-189156Y-201221D01*
X-189304Y-201273D01*
X-189444Y-201310D01*
X-189584Y-201332D01*
X-189695Y-201346D01*
X-189747Y-201354D01*
X-189791Y-201361D01*
X-189872D01*
X-190042Y-201354D01*
X-190190Y-201324D01*
X-190322Y-201287D01*
X-190426Y-201251D01*
X-190507Y-201206D01*
X-190566Y-201177D01*
X-190595Y-201147D01*
X-190610Y-201140D01*
X-190691Y-201051D01*
X-190758Y-200963D01*
X-190802Y-200867D01*
X-190832Y-200778D01*
X-190846Y-200704D01*
X-190854Y-200638D01*
X-190861Y-200601D01*
Y-200586D01*
X-190854Y-200505D01*
X-190846Y-200431D01*
X-190824Y-200365D01*
X-190802Y-200306D01*
X-190787Y-200254D01*
X-190765Y-200217D01*
X-190758Y-200195D01*
X-190750Y-200188D01*
X-190699Y-200121D01*
X-190647Y-200070D01*
X-190595Y-200026D01*
X-190536Y-199981D01*
X-190492Y-199952D01*
X-190455Y-199929D01*
X-190426Y-199922D01*
X-190418Y-199915D01*
X-190322Y-199878D01*
X-190212Y-199848D01*
X-190094Y-199819D01*
X-189976Y-199797D01*
X-189865Y-199775D01*
X-189769Y-199760D01*
X-189739Y-199752D01*
X-189710Y-199745D01*
X-189688D01*
X-189518Y-199723D01*
X-189363Y-199693D01*
X-189223Y-199671D01*
X-189090Y-199642D01*
X-188964Y-199612D01*
X-188854Y-199590D01*
X-188750Y-199560D01*
X-188654Y-199538D01*
X-188581Y-199516D01*
X-188507Y-199494D01*
X-188448Y-199479D01*
X-188403Y-199457D01*
X-188367Y-199443D01*
X-188337Y-199435D01*
X-188322Y-199428D01*
X-188315D01*
X-188322Y-199738D01*
D02*
G37*
G36*
X-217717Y-197598D02*
X-217562Y-197627D01*
X-217437Y-197671D01*
X-217326Y-197723D01*
X-217237Y-197782D01*
X-217178Y-197826D01*
X-217141Y-197856D01*
X-217126Y-197871D01*
X-217075Y-197930D01*
X-217038Y-197989D01*
X-216971Y-198136D01*
X-216920Y-198284D01*
X-216890Y-198439D01*
X-216868Y-198572D01*
X-216861Y-198631D01*
Y-198682D01*
X-216853Y-198727D01*
Y-198756D01*
Y-198778D01*
Y-198786D01*
Y-201907D01*
X-219193D01*
Y-199214D01*
X-219185Y-199007D01*
X-219171Y-198822D01*
X-219149Y-198668D01*
X-219127Y-198542D01*
X-219104Y-198439D01*
X-219082Y-198365D01*
X-219075Y-198343D01*
X-219068Y-198321D01*
X-219060Y-198306D01*
X-219001Y-198188D01*
X-218927Y-198084D01*
X-218853Y-197996D01*
X-218772Y-197922D01*
X-218706Y-197863D01*
X-218647Y-197819D01*
X-218610Y-197789D01*
X-218595Y-197782D01*
X-218470Y-197715D01*
X-218344Y-197664D01*
X-218226Y-197634D01*
X-218123Y-197605D01*
X-218027Y-197590D01*
X-217953Y-197583D01*
X-217894D01*
X-217717Y-197598D01*
D02*
G37*
D10*
X-368433Y-74047D02*
G03*
X-368827Y-74047I-197J0D01*
G01*
D02*
G03*
X-368433Y-74047I197J0D01*
G01*
X-116976Y-63898D02*
Y-39094D01*
X-130756Y-63898D02*
Y-39094D01*
X-129575D01*
X-118157D02*
X-116976D01*
X-118157Y-63898D02*
X-116976D01*
X-130756D02*
X-129575D01*
X-116976Y-105905D02*
Y-81102D01*
X-130756Y-105905D02*
Y-81102D01*
X-129575D01*
X-118157D02*
X-116976D01*
X-118157Y-105905D02*
X-116976D01*
X-130756D02*
X-129575D01*
X-140989Y-66575D02*
X-136659D01*
X-297606Y-156386D02*
X-272803D01*
X-297606Y-142606D02*
X-272803D01*
Y-143787D02*
Y-142606D01*
Y-156386D02*
Y-155205D01*
X-297606Y-156386D02*
Y-155205D01*
Y-143787D02*
Y-142606D01*
X-173198Y-28417D02*
Y-22118D01*
Y-28417D02*
X-166505D01*
X-173198Y-22118D02*
X-166505D01*
X-282071Y-185685D02*
Y-159307D01*
X-271047Y-185685D02*
Y-159307D01*
X-282071D02*
X-271047D01*
X-282071Y-185685D02*
X-271047D01*
X-317449Y-183898D02*
Y-159095D01*
X-303669Y-183898D02*
Y-159095D01*
X-304850Y-183898D02*
X-303669D01*
X-317449D02*
X-316268D01*
X-317449Y-159095D02*
X-316268D01*
X-304850D02*
X-303669D01*
X-345205Y-185311D02*
Y-143185D01*
X-320913Y-185311D02*
Y-143185D01*
X-186395Y-93736D02*
Y-89799D01*
X-179308Y-93736D02*
Y-89799D01*
X-144517Y-91768D02*
X-140186D01*
X-151517Y-48268D02*
X-147186D01*
X-151017Y-110768D02*
X-146686D01*
X-143001Y-115114D02*
X-136702D01*
Y-108421D01*
X-143001Y-115114D02*
Y-108421D01*
X-143501Y-44421D02*
X-137202D01*
X-143501Y-51114D02*
Y-44421D01*
X-137202Y-51114D02*
Y-44421D01*
X-176060Y-102079D02*
X-164643D01*
X-176060Y-128457D02*
Y-102079D01*
Y-128457D02*
X-164643D01*
Y-102079D01*
X-176560Y-30579D02*
X-165143D01*
X-176560Y-56957D02*
Y-30579D01*
Y-56957D02*
X-165143D01*
Y-30579D01*
X-195718Y-69236D02*
Y-65299D01*
X-188631Y-69236D02*
Y-65299D01*
X-168281Y-138472D02*
Y-132173D01*
X-174974D02*
X-168281D01*
X-174974Y-138472D02*
X-168281D01*
X-196501Y-100614D02*
X-190202D01*
Y-93921D01*
X-196501Y-100614D02*
Y-93921D01*
X-206017Y-95268D02*
X-201686D01*
X-206017Y-57268D02*
X-201686D01*
X-284327Y-95791D02*
X-279996D01*
X-288124Y-97760D02*
Y-93823D01*
X-295211Y-97760D02*
Y-93823D01*
X-305209Y-92445D02*
X-298909D01*
X-305209Y-99138D02*
Y-92445D01*
X-298909Y-99138D02*
Y-92445D01*
X-288124Y-69260D02*
Y-65323D01*
X-295211Y-69260D02*
Y-65323D01*
X-284327Y-67291D02*
X-279996D01*
X-305209Y-70638D02*
X-298909D01*
Y-63945D01*
X-305209Y-70638D02*
Y-63945D01*
X-349209Y-56650D02*
X-342910D01*
X-349209Y-63342D02*
Y-56650D01*
X-342910Y-63342D02*
Y-56650D01*
X-329268Y-53807D02*
X-317850D01*
X-329268Y-80185D02*
Y-53807D01*
Y-80185D02*
X-317850D01*
Y-53807D01*
X-329268Y-82307D02*
X-317850D01*
X-329268Y-108685D02*
Y-82307D01*
Y-108685D02*
X-317850D01*
Y-82307D01*
X-349209Y-98650D02*
X-342910D01*
X-349209Y-105342D02*
Y-98650D01*
X-342910Y-105342D02*
Y-98650D01*
X-219505Y-37417D02*
Y-31118D01*
X-226198D02*
X-219505D01*
X-226198Y-37417D02*
X-219505D01*
X-226198Y-73417D02*
Y-67118D01*
Y-73417D02*
X-219505D01*
X-226198Y-67118D02*
X-219505D01*
X-219505Y-85417D02*
Y-79118D01*
X-226198D02*
X-219505D01*
X-226198Y-85417D02*
X-219505D01*
X-231560Y-87079D02*
X-220143D01*
X-231560Y-113457D02*
Y-87079D01*
Y-113457D02*
X-220143D01*
Y-87079D01*
X-231560Y-39079D02*
X-220143D01*
X-231560Y-65457D02*
Y-39079D01*
Y-65457D02*
X-220143D01*
Y-39079D01*
D11*
X-116386Y-37028D02*
G03*
X-116386Y-37028I-492J0D01*
G01*
Y-79035D02*
G03*
X-116386Y-79035I-492J0D01*
G01*
X-270244Y-156484D02*
G03*
X-270244Y-156484I-492J0D01*
G01*
X-287484Y-159307D02*
G03*
X-287484Y-159307I-492J0D01*
G01*
X-317055Y-185965D02*
G03*
X-317055Y-185965I-492J0D01*
G01*
X-341563Y-175272D02*
G03*
X-341563Y-175272I-492J0D01*
G01*
X-155096Y-128457D02*
G03*
X-155096Y-128457I-492J0D01*
G01*
X-155596Y-56957D02*
G03*
X-155596Y-56957I-492J0D01*
G01*
X-308303Y-80185D02*
G03*
X-308303Y-80185I-492J0D01*
G01*
Y-108685D02*
G03*
X-308303Y-108685I-492J0D01*
G01*
X-210596Y-113457D02*
G03*
X-210596Y-113457I-492J0D01*
G01*
Y-65457D02*
G03*
X-210596Y-65457I-492J0D01*
G01*
D12*
X-434165Y-53949D02*
X-384953D01*
X-434165Y-208043D02*
X-384953D01*
X-434165D02*
Y-53949D01*
X-384953Y-208043D02*
Y-53949D01*
X-516559Y-23896D02*
Y-17898D01*
X-513560D01*
X-512560Y-18898D01*
Y-20897D01*
X-513560Y-21897D01*
X-516559D01*
X-506562Y-23896D02*
X-510561D01*
X-506562Y-19897D01*
Y-18898D01*
X-507562Y-17898D01*
X-509561D01*
X-510561Y-18898D01*
D13*
X-364496Y-72472D02*
X-358197D01*
X-364496Y-85071D02*
X-358197D01*
D14*
X-259559Y-60583D02*
X-249716D01*
X-259559Y-40898D02*
X-249716D01*
Y-60583D02*
Y-40898D01*
X-259559Y-60583D02*
Y-40898D01*
X-269638Y-40898D02*
X-259795D01*
X-269638Y-60583D02*
X-259795D01*
X-269638D02*
Y-40898D01*
X-259795Y-60583D02*
Y-40898D01*
X-279716Y-60583D02*
X-269874D01*
X-279716Y-40898D02*
X-269874D01*
Y-60583D02*
Y-40898D01*
X-279716Y-60583D02*
Y-40898D01*
D15*
X-362180Y-65906D02*
X-364804D01*
Y-67874D01*
X-363492D01*
X-364804D01*
Y-69842D01*
X-360869Y-65906D02*
Y-69842D01*
X-358245D01*
X-356933D02*
X-355621D01*
X-356277D01*
Y-65906D01*
X-356933Y-66562D01*
X-267440Y-36734D02*
Y-39358D01*
X-265472D01*
Y-38046D01*
Y-39358D01*
X-263505D01*
X-267440Y-35422D02*
X-263505D01*
Y-33454D01*
X-264160Y-32798D01*
X-264816D01*
X-265472Y-33454D01*
Y-35422D01*
Y-33454D01*
X-266128Y-32798D01*
X-266784D01*
X-267440Y-33454D01*
Y-35422D01*
X-266784Y-31486D02*
X-267440Y-30830D01*
Y-29518D01*
X-266784Y-28863D01*
X-266128D01*
X-265472Y-29518D01*
Y-30174D01*
Y-29518D01*
X-264816Y-28863D01*
X-264160D01*
X-263505Y-29518D01*
Y-30830D01*
X-264160Y-31486D01*
X-256102Y-36986D02*
Y-39610D01*
X-254134D01*
Y-38298D01*
Y-39610D01*
X-252166D01*
X-256102Y-35674D02*
X-252166D01*
Y-33706D01*
X-252822Y-33050D01*
X-253478D01*
X-254134Y-33706D01*
Y-35674D01*
Y-33706D01*
X-254790Y-33050D01*
X-255446D01*
X-256102Y-33706D01*
Y-35674D01*
X-252166Y-29115D02*
Y-31738D01*
X-254790Y-29115D01*
X-255446D01*
X-256102Y-29770D01*
Y-31082D01*
X-255446Y-31738D01*
X-276763Y-36834D02*
Y-39458D01*
X-274795D01*
Y-38146D01*
Y-39458D01*
X-272827D01*
X-276763Y-35522D02*
X-272827D01*
Y-33554D01*
X-273483Y-32898D01*
X-274139D01*
X-274795Y-33554D01*
Y-35522D01*
Y-33554D01*
X-275451Y-32898D01*
X-276107D01*
X-276763Y-33554D01*
Y-35522D01*
X-272827Y-31586D02*
Y-30274D01*
Y-30930D01*
X-276763D01*
X-276107Y-31586D01*
X-124926Y-117792D02*
X-125582Y-118448D01*
Y-119760D01*
X-124926Y-120416D01*
X-122302D01*
X-121646Y-119760D01*
Y-118448D01*
X-122302Y-117792D01*
X-121646Y-116480D02*
Y-115168D01*
Y-115824D01*
X-125582D01*
X-124926Y-116480D01*
X-125582Y-110576D02*
Y-113200D01*
X-123614D01*
X-124270Y-111888D01*
Y-111232D01*
X-123614Y-110576D01*
X-122302D01*
X-121646Y-111232D01*
Y-112544D01*
X-122302Y-113200D01*
X-41931Y-28015D02*
Y-24079D01*
X-39963D01*
X-39307Y-24735D01*
Y-26047D01*
X-39963Y-26703D01*
X-41931D01*
X-37995Y-28015D02*
X-36683D01*
X-37339D01*
Y-24079D01*
X-37995Y-24735D01*
X-266339Y-182028D02*
Y-185308D01*
X-265683Y-185964D01*
X-264371D01*
X-263715Y-185308D01*
Y-182028D01*
X-259779Y-185964D02*
X-262403D01*
X-259779Y-183340D01*
Y-182684D01*
X-260435Y-182028D01*
X-261747D01*
X-262403Y-182684D01*
X-353183Y-146028D02*
Y-149308D01*
X-352527Y-149964D01*
X-351215D01*
X-350559Y-149308D01*
Y-146028D01*
X-349247Y-149964D02*
X-347935D01*
X-348591D01*
Y-146028D01*
X-349247Y-146684D01*
X-299792Y-185396D02*
X-300448Y-186051D01*
Y-187363D01*
X-299792Y-188019D01*
X-297168D01*
X-296513Y-187363D01*
Y-186051D01*
X-297168Y-185396D01*
X-296513Y-181460D02*
Y-184084D01*
X-299136Y-181460D01*
X-299792D01*
X-300448Y-182116D01*
Y-183428D01*
X-299792Y-184084D01*
X-296513Y-177524D02*
Y-180148D01*
X-299136Y-177524D01*
X-299792D01*
X-300448Y-178180D01*
Y-179492D01*
X-299792Y-180148D01*
X-265173Y-149184D02*
X-265829Y-148528D01*
X-267141D01*
X-267796Y-149184D01*
Y-151808D01*
X-267141Y-152464D01*
X-265829D01*
X-265173Y-151808D01*
X-261237Y-152464D02*
X-263861D01*
X-261237Y-149840D01*
Y-149184D01*
X-261893Y-148528D01*
X-263205D01*
X-263861Y-149184D01*
X-259925Y-152464D02*
X-258613D01*
X-259269D01*
Y-148528D01*
X-259925Y-149184D01*
X-356683Y-180184D02*
X-357339Y-179528D01*
X-358651D01*
X-359307Y-180184D01*
Y-182808D01*
X-358651Y-183464D01*
X-357339D01*
X-356683Y-182808D01*
X-352747Y-183464D02*
X-355371D01*
X-352747Y-180840D01*
Y-180184D01*
X-353403Y-179528D01*
X-354715D01*
X-355371Y-180184D01*
X-351435D02*
X-350779Y-179528D01*
X-349467D01*
X-348811Y-180184D01*
Y-182808D01*
X-349467Y-183464D01*
X-350779D01*
X-351435Y-182808D01*
Y-180184D01*
X-312355Y-151184D02*
X-313011Y-150528D01*
X-314323D01*
X-314979Y-151184D01*
Y-153808D01*
X-314323Y-154464D01*
X-313011D01*
X-312355Y-153808D01*
X-311043Y-154464D02*
X-309731D01*
X-310387D01*
Y-150528D01*
X-311043Y-151184D01*
X-307763Y-153808D02*
X-307107Y-154464D01*
X-305795D01*
X-305139Y-153808D01*
Y-151184D01*
X-305795Y-150528D01*
X-307107D01*
X-307763Y-151184D01*
Y-151840D01*
X-307107Y-152496D01*
X-305139D01*
X-447335Y-46960D02*
X-448647D01*
X-447991D01*
Y-50240D01*
X-448647Y-50896D01*
X-449303D01*
X-449959Y-50240D01*
X-443399Y-50896D02*
X-446023D01*
X-443399Y-48272D01*
Y-47616D01*
X-444056Y-46960D01*
X-445367D01*
X-446023Y-47616D01*
X-280194Y-111276D02*
X-284129D01*
Y-109308D01*
X-283473Y-108652D01*
X-282161D01*
X-281505Y-109308D01*
Y-111276D01*
Y-109964D02*
X-280194Y-108652D01*
Y-104716D02*
Y-107340D01*
X-282817Y-104716D01*
X-283473D01*
X-284129Y-105372D01*
Y-106684D01*
X-283473Y-107340D01*
X-146659Y-94603D02*
X-150595D01*
Y-92635D01*
X-149939Y-91979D01*
X-148627D01*
X-147971Y-92635D01*
Y-94603D01*
Y-93291D02*
X-146659Y-91979D01*
X-147315Y-90667D02*
X-146659Y-90011D01*
Y-88699D01*
X-147315Y-88043D01*
X-149939D01*
X-150595Y-88699D01*
Y-90011D01*
X-149939Y-90667D01*
X-149283D01*
X-148627Y-90011D01*
Y-88043D01*
X-147884Y-37547D02*
X-151820D01*
Y-35580D01*
X-151164Y-34924D01*
X-149852D01*
X-149196Y-35580D01*
Y-37547D01*
Y-36236D02*
X-147884Y-34924D01*
X-151164Y-33612D02*
X-151820Y-32956D01*
Y-31644D01*
X-151164Y-30988D01*
X-150508D01*
X-149852Y-31644D01*
Y-32300D01*
Y-31644D01*
X-149196Y-30988D01*
X-148540D01*
X-147884Y-31644D01*
Y-32956D01*
X-148540Y-33612D01*
X-181659Y-107603D02*
X-185595D01*
Y-105635D01*
X-184939Y-104979D01*
X-183627D01*
X-182971Y-105635D01*
Y-107603D01*
Y-106291D02*
X-181659Y-104979D01*
X-185595Y-103667D02*
Y-101043D01*
X-184939D01*
X-182315Y-103667D01*
X-181659D01*
X-202528Y-114368D02*
X-206464D01*
Y-112401D01*
X-205808Y-111745D01*
X-204496D01*
X-203840Y-112401D01*
Y-114368D01*
Y-113057D02*
X-202528Y-111745D01*
Y-110433D02*
Y-109121D01*
Y-109777D01*
X-206464D01*
X-205808Y-110433D01*
Y-107153D02*
X-206464Y-106497D01*
Y-105185D01*
X-205808Y-104529D01*
X-203184D01*
X-202528Y-105185D01*
Y-106497D01*
X-203184Y-107153D01*
X-205808D01*
X-289199Y-113276D02*
X-293135D01*
Y-111308D01*
X-292479Y-110652D01*
X-291167D01*
X-290511Y-111308D01*
Y-113276D01*
Y-111964D02*
X-289199Y-110652D01*
X-293135Y-106716D02*
Y-109340D01*
X-291167D01*
X-291823Y-108028D01*
Y-107372D01*
X-291167Y-106716D01*
X-289855D01*
X-289199Y-107372D01*
Y-108684D01*
X-289855Y-109340D01*
X-201384Y-47392D02*
X-205320D01*
Y-45424D01*
X-204664Y-44768D01*
X-203352D01*
X-202696Y-45424D01*
Y-47392D01*
Y-46080D02*
X-201384Y-44768D01*
Y-43456D02*
Y-42144D01*
Y-42800D01*
X-205320D01*
X-204664Y-43456D01*
X-190482Y-58103D02*
X-194418D01*
Y-56135D01*
X-193762Y-55479D01*
X-192450D01*
X-191794Y-56135D01*
Y-58103D01*
Y-56791D02*
X-190482Y-55479D01*
Y-52199D02*
X-194418D01*
X-192450Y-54167D01*
Y-51543D01*
X-280194Y-58260D02*
X-284129D01*
Y-56292D01*
X-283473Y-55636D01*
X-282161D01*
X-281505Y-56292D01*
Y-58260D01*
Y-56948D02*
X-280194Y-55636D01*
Y-54324D02*
Y-53012D01*
Y-53668D01*
X-284129D01*
X-283473Y-54324D01*
X-280194Y-51044D02*
Y-49732D01*
Y-50388D01*
X-284129D01*
X-283473Y-51044D01*
X-146884Y-130187D02*
X-150820D01*
Y-128219D01*
X-150164Y-127564D01*
X-148852D01*
X-148196Y-128219D01*
Y-130187D01*
Y-128876D02*
X-146884Y-127564D01*
Y-126252D02*
Y-124940D01*
Y-125596D01*
X-150820D01*
X-150164Y-126252D01*
X-146884Y-120348D02*
Y-122972D01*
X-149508Y-120348D01*
X-150164D01*
X-150820Y-121004D01*
Y-122316D01*
X-150164Y-122972D01*
X-289700Y-56276D02*
X-293635D01*
Y-54308D01*
X-292979Y-53652D01*
X-291667D01*
X-291011Y-54308D01*
Y-56276D01*
Y-54964D02*
X-289700Y-53652D01*
X-292979Y-52340D02*
X-293635Y-51684D01*
Y-50372D01*
X-292979Y-49716D01*
X-292323D01*
X-291667Y-50372D01*
X-291011Y-49716D01*
X-290355D01*
X-289700Y-50372D01*
Y-51684D01*
X-290355Y-52340D01*
X-291011D01*
X-291667Y-51684D01*
X-292323Y-52340D01*
X-292979D01*
X-291667Y-51684D02*
Y-50372D01*
X-143064Y-69642D02*
X-146999D01*
Y-67674D01*
X-146343Y-67018D01*
X-145031D01*
X-144376Y-67674D01*
Y-69642D01*
Y-68330D02*
X-143064Y-67018D01*
X-146999Y-63082D02*
X-146343Y-64394D01*
X-145031Y-65706D01*
X-143720D01*
X-143064Y-65050D01*
Y-63738D01*
X-143720Y-63082D01*
X-144376D01*
X-145031Y-63738D01*
Y-65706D01*
X-327479Y-111528D02*
X-326167D01*
X-326823D01*
Y-115464D01*
X-327479D01*
X-326167D01*
X-321575Y-112184D02*
X-322231Y-111528D01*
X-323543D01*
X-324199Y-112184D01*
Y-114808D01*
X-323543Y-115464D01*
X-322231D01*
X-321575Y-114808D01*
X-317639Y-115464D02*
X-320263D01*
X-317639Y-112840D01*
Y-112184D01*
X-318295Y-111528D01*
X-319607D01*
X-320263Y-112184D01*
X-193820Y-47187D02*
Y-45875D01*
Y-46531D01*
X-189884D01*
Y-47187D01*
Y-45875D01*
X-193164Y-41284D02*
X-193820Y-41940D01*
Y-43252D01*
X-193164Y-43908D01*
X-190540D01*
X-189884Y-43252D01*
Y-41940D01*
X-190540Y-41284D01*
X-193164Y-39972D02*
X-193820Y-39316D01*
Y-38004D01*
X-193164Y-37348D01*
X-192508D01*
X-191852Y-38004D01*
Y-38660D01*
Y-38004D01*
X-191196Y-37348D01*
X-190540D01*
X-189884Y-38004D01*
Y-39316D01*
X-190540Y-39972D01*
X-328979Y-48028D02*
X-327667D01*
X-328323D01*
Y-51964D01*
X-328979D01*
X-327667D01*
X-323075Y-48684D02*
X-323731Y-48028D01*
X-325043D01*
X-325699Y-48684D01*
Y-51308D01*
X-325043Y-51964D01*
X-323731D01*
X-323075Y-51308D01*
X-319139Y-48028D02*
X-321763D01*
Y-49996D01*
X-320451Y-49340D01*
X-319795D01*
X-319139Y-49996D01*
Y-51308D01*
X-319795Y-51964D01*
X-321107D01*
X-321763Y-51308D01*
X-247320Y-56031D02*
Y-54720D01*
Y-55375D01*
X-243384D01*
Y-56031D01*
Y-54720D01*
X-246664Y-50128D02*
X-247320Y-50784D01*
Y-52096D01*
X-246664Y-52752D01*
X-244040D01*
X-243384Y-52096D01*
Y-50784D01*
X-244040Y-50128D01*
X-243384Y-48816D02*
Y-47504D01*
Y-48160D01*
X-247320D01*
X-246664Y-48816D01*
X-248320Y-103687D02*
Y-102375D01*
Y-103031D01*
X-244384D01*
Y-103687D01*
Y-102375D01*
X-247664Y-97784D02*
X-248320Y-98440D01*
Y-99752D01*
X-247664Y-100408D01*
X-245040D01*
X-244384Y-99752D01*
Y-98440D01*
X-245040Y-97784D01*
X-244384Y-94504D02*
X-248320D01*
X-246352Y-96472D01*
Y-93848D01*
X-192102Y-127219D02*
Y-125907D01*
Y-126563D01*
X-188166D01*
Y-127219D01*
Y-125907D01*
X-191446Y-121315D02*
X-192102Y-121971D01*
Y-123283D01*
X-191446Y-123939D01*
X-188822D01*
X-188166Y-123283D01*
Y-121971D01*
X-188822Y-121315D01*
X-192102Y-117379D02*
X-191446Y-118692D01*
X-190134Y-120003D01*
X-188822D01*
X-188166Y-119347D01*
Y-118035D01*
X-188822Y-117379D01*
X-189478D01*
X-190134Y-118035D01*
Y-120003D01*
X-351022Y-43733D02*
Y-47669D01*
X-349054D01*
X-348398Y-47013D01*
Y-44389D01*
X-349054Y-43733D01*
X-351022D01*
X-347086Y-47669D02*
X-345774D01*
X-346430D01*
Y-43733D01*
X-347086Y-44389D01*
X-341183Y-47669D02*
X-343807D01*
X-341183Y-45045D01*
Y-44389D01*
X-341839Y-43733D01*
X-343151D01*
X-343807Y-44389D01*
X-240907Y-68355D02*
Y-72291D01*
X-238939D01*
X-238283Y-71635D01*
Y-69011D01*
X-238939Y-68355D01*
X-240907D01*
X-235003Y-72291D02*
Y-68355D01*
X-236971Y-70323D01*
X-234348D01*
X-304027Y-55776D02*
X-300091D01*
Y-53808D01*
X-300747Y-53152D01*
X-303371D01*
X-304027Y-53808D01*
Y-55776D01*
X-300747Y-51840D02*
X-300091Y-51184D01*
Y-49872D01*
X-300747Y-49216D01*
X-303371D01*
X-304027Y-49872D01*
Y-51184D01*
X-303371Y-51840D01*
X-302715D01*
X-302059Y-51184D01*
Y-49216D01*
X-195125Y-114492D02*
X-191190D01*
Y-112524D01*
X-191846Y-111869D01*
X-194469D01*
X-195125Y-112524D01*
Y-114492D01*
Y-110557D02*
Y-107933D01*
X-194469D01*
X-191846Y-110557D01*
X-191190D01*
X-188407Y-23355D02*
Y-27291D01*
X-186439D01*
X-185783Y-26635D01*
Y-24011D01*
X-186439Y-23355D01*
X-188407D01*
X-184471Y-24011D02*
X-183815Y-23355D01*
X-182503D01*
X-181848Y-24011D01*
Y-24667D01*
X-182503Y-25323D01*
X-183159D01*
X-182503D01*
X-181848Y-25979D01*
Y-26635D01*
X-182503Y-27291D01*
X-183815D01*
X-184471Y-26635D01*
X-142320Y-35548D02*
X-138384D01*
Y-33580D01*
X-139040Y-32924D01*
X-141664D01*
X-142320Y-33580D01*
Y-35548D01*
Y-28988D02*
Y-31612D01*
X-140352D01*
X-141008Y-30300D01*
Y-29644D01*
X-140352Y-28988D01*
X-139040D01*
X-138384Y-29644D01*
Y-30956D01*
X-139040Y-31612D01*
X-304527Y-112120D02*
X-300591D01*
Y-110152D01*
X-301247Y-109496D01*
X-303871D01*
X-304527Y-110152D01*
Y-112120D01*
X-300591Y-108184D02*
Y-106872D01*
Y-107528D01*
X-304527D01*
X-303871Y-108184D01*
X-241407Y-31355D02*
Y-35291D01*
X-239439D01*
X-238783Y-34635D01*
Y-32011D01*
X-239439Y-31355D01*
X-241407D01*
X-234847Y-35291D02*
X-237471D01*
X-234847Y-32667D01*
Y-32011D01*
X-235504Y-31355D01*
X-236815D01*
X-237471Y-32011D01*
X-349634Y-114032D02*
Y-117968D01*
X-347666D01*
X-347010Y-117312D01*
Y-114688D01*
X-347666Y-114032D01*
X-349634D01*
X-343075D02*
X-344387Y-114688D01*
X-345698Y-116000D01*
Y-117312D01*
X-345042Y-117968D01*
X-343730D01*
X-343075Y-117312D01*
Y-116656D01*
X-343730Y-116000D01*
X-345698D01*
X-188095Y-139086D02*
X-184159D01*
Y-137119D01*
X-184815Y-136463D01*
X-187439D01*
X-188095Y-137119D01*
Y-139086D01*
X-184159Y-135151D02*
Y-133839D01*
Y-134495D01*
X-188095D01*
X-187439Y-135151D01*
X-184159Y-131871D02*
Y-130559D01*
Y-131215D01*
X-188095D01*
X-187439Y-131871D01*
X-244547Y-80855D02*
Y-84791D01*
X-242579D01*
X-241923Y-84135D01*
Y-81511D01*
X-242579Y-80855D01*
X-244547D01*
X-240611Y-84791D02*
X-239299D01*
X-239955D01*
Y-80855D01*
X-240611Y-81511D01*
X-237332D02*
X-236676Y-80855D01*
X-235364D01*
X-234708Y-81511D01*
Y-84135D01*
X-235364Y-84791D01*
X-236676D01*
X-237332Y-84135D01*
Y-81511D01*
X-142320Y-130048D02*
X-138384D01*
Y-128080D01*
X-139040Y-127424D01*
X-141664D01*
X-142320Y-128080D01*
Y-130048D01*
X-141664Y-126112D02*
X-142320Y-125456D01*
Y-124144D01*
X-141664Y-123488D01*
X-141008D01*
X-140352Y-124144D01*
X-139696Y-123488D01*
X-139040D01*
X-138384Y-124144D01*
Y-125456D01*
X-139040Y-126112D01*
X-139696D01*
X-140352Y-125456D01*
X-141008Y-126112D01*
X-141664D01*
X-140352Y-125456D02*
Y-124144D01*
X-255939Y-85619D02*
X-256595Y-86275D01*
Y-87586D01*
X-255939Y-88243D01*
X-253315D01*
X-252660Y-87586D01*
Y-86275D01*
X-253315Y-85619D01*
X-252660Y-84307D02*
Y-82995D01*
Y-83651D01*
X-256595D01*
X-255939Y-84307D01*
Y-81027D02*
X-256595Y-80371D01*
Y-79059D01*
X-255939Y-78403D01*
X-255283D01*
X-254627Y-79059D01*
Y-79715D01*
Y-79059D01*
X-253971Y-78403D01*
X-253315D01*
X-252660Y-79059D01*
Y-80371D01*
X-253315Y-81027D01*
X-342223Y-82940D02*
X-342879Y-82284D01*
X-344191D01*
X-344847Y-82940D01*
Y-85564D01*
X-344191Y-86220D01*
X-342879D01*
X-342223Y-85564D01*
X-338287Y-82284D02*
X-340911D01*
Y-84252D01*
X-339599Y-83596D01*
X-338943D01*
X-338287Y-84252D01*
Y-85564D01*
X-338943Y-86220D01*
X-340255D01*
X-340911Y-85564D01*
X-210847Y-79745D02*
X-211503Y-80401D01*
Y-81713D01*
X-210847Y-82368D01*
X-208224D01*
X-207568Y-81713D01*
Y-80401D01*
X-208224Y-79745D01*
X-207568Y-78433D02*
Y-77121D01*
Y-77777D01*
X-211503D01*
X-210847Y-78433D01*
X-211503Y-72529D02*
X-210847Y-73841D01*
X-209536Y-75153D01*
X-208224D01*
X-207568Y-74497D01*
Y-73185D01*
X-208224Y-72529D01*
X-208879D01*
X-209536Y-73185D01*
Y-75153D01*
X-159656Y-67223D02*
X-160312Y-67879D01*
Y-69191D01*
X-159656Y-69847D01*
X-157032D01*
X-156376Y-69191D01*
Y-67879D01*
X-157032Y-67223D01*
Y-65911D02*
X-156376Y-65255D01*
Y-63943D01*
X-157032Y-63287D01*
X-159656D01*
X-160312Y-63943D01*
Y-65255D01*
X-159656Y-65911D01*
X-159000D01*
X-158344Y-65255D01*
Y-63287D01*
X-184998Y-66979D02*
X-185654Y-67635D01*
Y-68947D01*
X-184998Y-69603D01*
X-182375D01*
X-181719Y-68947D01*
Y-67635D01*
X-182375Y-66979D01*
X-185654Y-65667D02*
Y-63043D01*
X-184998D01*
X-182375Y-65667D01*
X-181719D01*
X-267371Y-75048D02*
X-268027Y-75704D01*
Y-77016D01*
X-267371Y-77672D01*
X-264747D01*
X-264091Y-77016D01*
Y-75704D01*
X-264747Y-75048D01*
X-264091Y-73736D02*
Y-72424D01*
Y-73080D01*
X-268027D01*
X-267371Y-73736D01*
X-268027Y-70456D02*
Y-67832D01*
X-267371D01*
X-264747Y-70456D01*
X-264091D01*
X-172548Y-65591D02*
X-173204Y-66246D01*
Y-67558D01*
X-172548Y-68214D01*
X-169924D01*
X-169268Y-67558D01*
Y-66246D01*
X-169924Y-65591D01*
X-169268Y-64279D02*
Y-62967D01*
Y-63623D01*
X-173204D01*
X-172548Y-64279D01*
X-278371Y-82636D02*
X-279027Y-83292D01*
Y-84604D01*
X-278371Y-85260D01*
X-275747D01*
X-275091Y-84604D01*
Y-83292D01*
X-275747Y-82636D01*
X-275091Y-81324D02*
Y-80012D01*
Y-80668D01*
X-279027D01*
X-278371Y-81324D01*
X-275091Y-78044D02*
Y-76732D01*
Y-77388D01*
X-279027D01*
X-278371Y-78044D01*
X-164439Y-93619D02*
X-165095Y-94275D01*
Y-95587D01*
X-164439Y-96242D01*
X-161815D01*
X-161159Y-95587D01*
Y-94275D01*
X-161815Y-93619D01*
X-161159Y-92307D02*
Y-90995D01*
Y-91651D01*
X-165095D01*
X-164439Y-92307D01*
X-161159Y-86403D02*
Y-89027D01*
X-163783Y-86403D01*
X-164439D01*
X-165095Y-87059D01*
Y-88371D01*
X-164439Y-89027D01*
X-342603Y-75885D02*
X-343259Y-75229D01*
X-344571D01*
X-345227Y-75885D01*
Y-78509D01*
X-344571Y-79165D01*
X-343259D01*
X-342603Y-78509D01*
X-341291Y-79165D02*
X-339979D01*
X-340635D01*
Y-75229D01*
X-341291Y-75885D01*
X-336043Y-79165D02*
Y-75229D01*
X-338011Y-77197D01*
X-335387D01*
X-125934Y-30483D02*
X-126590Y-31139D01*
Y-32451D01*
X-125934Y-33106D01*
X-123310D01*
X-122654Y-32451D01*
Y-31139D01*
X-123310Y-30483D01*
X-125934Y-29171D02*
X-126590Y-28515D01*
Y-27203D01*
X-125934Y-26547D01*
X-125278D01*
X-124622Y-27203D01*
Y-27859D01*
Y-27203D01*
X-123966Y-26547D01*
X-123310D01*
X-122654Y-27203D01*
Y-28515D01*
X-123310Y-29171D01*
X-266871Y-108152D02*
X-267527Y-108808D01*
Y-110120D01*
X-266871Y-110776D01*
X-264247D01*
X-263591Y-110120D01*
Y-108808D01*
X-264247Y-108152D01*
X-263591Y-104216D02*
Y-106840D01*
X-266215Y-104216D01*
X-266871D01*
X-267527Y-104872D01*
Y-106184D01*
X-266871Y-106840D01*
X-275664Y-108152D02*
X-276320Y-108808D01*
Y-110120D01*
X-275664Y-110776D01*
X-273041D01*
X-272385Y-110120D01*
Y-108808D01*
X-273041Y-108152D01*
X-275664Y-106840D02*
X-276320Y-106184D01*
Y-104872D01*
X-275664Y-104216D01*
X-275008D01*
X-274352Y-104872D01*
X-273696Y-104216D01*
X-273041D01*
X-272385Y-104872D01*
Y-106184D01*
X-273041Y-106840D01*
X-273696D01*
X-274352Y-106184D01*
X-275008Y-106840D01*
X-275664D01*
X-274352Y-106184D02*
Y-104872D01*
X-177439Y-94119D02*
X-178095Y-94775D01*
Y-96087D01*
X-177439Y-96742D01*
X-174815D01*
X-174159Y-96087D01*
Y-94775D01*
X-174815Y-94119D01*
X-174159Y-92807D02*
Y-91495D01*
Y-92151D01*
X-178095D01*
X-177439Y-92807D01*
Y-89527D02*
X-178095Y-88871D01*
Y-87559D01*
X-177439Y-86903D01*
X-174815D01*
X-174159Y-87559D01*
Y-88871D01*
X-174815Y-89527D01*
X-177439D01*
X-255939Y-71979D02*
X-256595Y-72635D01*
Y-73947D01*
X-255939Y-74603D01*
X-253315D01*
X-252659Y-73947D01*
Y-72635D01*
X-253315Y-71979D01*
X-252659Y-68699D02*
X-256595D01*
X-254627Y-70667D01*
Y-68043D01*
D16*
X-172115Y-25268D02*
D03*
X-169363Y-135323D02*
D03*
X-220588Y-34268D02*
D03*
X-225115Y-70268D02*
D03*
X-220588Y-82268D02*
D03*
D17*
X-139852Y-114032D02*
D03*
X-140352Y-45504D02*
D03*
X-193352Y-99532D02*
D03*
X-302059Y-69555D02*
D03*
X-346059Y-57732D02*
D03*
Y-99732D02*
D03*
D18*
X-302059Y-93528D02*
D03*
M02*
