G04*
G04 #@! TF.GenerationSoftware,Altium Limited,Altium Designer,22.4.2 (48)*
G04*
G04 Layer_Color=16711935*
%FSLAX25Y25*%
%MOIN*%
G70*
G04*
G04 #@! TF.SameCoordinates,5B287986-ABF7-48FA-9945-848A1B873533*
G04*
G04*
G04 #@! TF.FilePolarity,Positive*
G04*
G01*
G75*
%ADD12C,0.01000*%
%ADD15C,0.00591*%
D12*
X-430819Y-187098D02*
Y-74894D01*
X-388299Y-187098D02*
Y-74894D01*
X-430819D02*
X-388299D01*
X-430819Y-187098D02*
X-388299D01*
X-543559Y0D02*
X0D01*
Y-236221D02*
Y0D01*
X-543559Y-236221D02*
X0D01*
X-543559D02*
Y0D01*
D15*
X-403555Y-196587D02*
G03*
X-403555Y-196587I-6004J0D01*
G01*
Y-65405D02*
G03*
X-403555Y-65405I-6004J0D01*
G01*
X-5709Y-177165D02*
G03*
X-5709Y-177165I-4134J0D01*
G01*
Y-118110D02*
G03*
X-5709Y-118110I-4134J0D01*
G01*
Y-59055D02*
G03*
X-5709Y-59055I-4134J0D01*
G01*
X-529583D02*
G03*
X-529583Y-59055I-4134J0D01*
G01*
Y-118110D02*
G03*
X-529583Y-118110I-4134J0D01*
G01*
Y-177165D02*
G03*
X-529583Y-177165I-4134J0D01*
G01*
X-104578Y-226378D02*
G03*
X-104578Y-226378I-4134J0D01*
G01*
X-213290D02*
G03*
X-213290Y-226378I-4134J0D01*
G01*
X-322002D02*
G03*
X-322002Y-226378I-4134J0D01*
G01*
X-430713D02*
G03*
X-430713Y-226378I-4134J0D01*
G01*
Y-9843D02*
G03*
X-430713Y-9843I-4134J0D01*
G01*
X-322002D02*
G03*
X-322002Y-9843I-4134J0D01*
G01*
X-213290D02*
G03*
X-213290Y-9843I-4134J0D01*
G01*
X-104578D02*
G03*
X-104578Y-9843I-4134J0D01*
G01*
M02*
