G04*
G04 #@! TF.GenerationSoftware,Altium Limited,Altium Designer,22.4.2 (48)*
G04*
G04 Layer_Physical_Order=1*
G04 Layer_Color=255*
%FSLAX25Y25*%
%MOIN*%
G70*
G04*
G04 #@! TF.SameCoordinates,5B287986-ABF7-48FA-9945-848A1B873533*
G04*
G04*
G04 #@! TF.FilePolarity,Positive*
G04*
G01*
G75*
%ADD20R,0.03740X0.08465*%
%ADD21R,0.12795X0.08465*%
%ADD22R,0.08465X0.03740*%
%ADD23R,0.08465X0.12795*%
%ADD24R,0.09646X0.09252*%
%ADD25R,0.06890X0.03937*%
%ADD26R,0.03937X0.06890*%
%ADD27R,0.08858X0.09252*%
%ADD28R,0.09252X0.09646*%
%ADD29R,0.05512X0.03740*%
G04:AMPARAMS|DCode=30|XSize=59.06mil|YSize=157.48mil|CornerRadius=14.76mil|HoleSize=0mil|Usage=FLASHONLY|Rotation=270.000|XOffset=0mil|YOffset=0mil|HoleType=Round|Shape=RoundedRectangle|*
%AMROUNDEDRECTD30*
21,1,0.05906,0.12795,0,0,270.0*
21,1,0.02953,0.15748,0,0,270.0*
1,1,0.02953,-0.06398,-0.01476*
1,1,0.02953,-0.06398,0.01476*
1,1,0.02953,0.06398,0.01476*
1,1,0.02953,0.06398,-0.01476*
%
%ADD30ROUNDEDRECTD30*%
G04:AMPARAMS|DCode=31|XSize=40.16mil|YSize=125.98mil|CornerRadius=10.04mil|HoleSize=0mil|Usage=FLASHONLY|Rotation=270.000|XOffset=0mil|YOffset=0mil|HoleType=Round|Shape=RoundedRectangle|*
%AMROUNDEDRECTD31*
21,1,0.04016,0.10591,0,0,270.0*
21,1,0.02008,0.12598,0,0,270.0*
1,1,0.02008,-0.05295,-0.01004*
1,1,0.02008,-0.05295,0.01004*
1,1,0.02008,0.05295,0.01004*
1,1,0.02008,0.05295,-0.01004*
%
%ADD31ROUNDEDRECTD31*%
%ADD32R,0.01575X0.03150*%
G04:AMPARAMS|DCode=33|XSize=39.37mil|YSize=62.99mil|CornerRadius=9.84mil|HoleSize=0mil|Usage=FLASHONLY|Rotation=0.000|XOffset=0mil|YOffset=0mil|HoleType=Round|Shape=RoundedRectangle|*
%AMROUNDEDRECTD33*
21,1,0.03937,0.04331,0,0,0.0*
21,1,0.01968,0.06299,0,0,0.0*
1,1,0.01968,0.00984,-0.02165*
1,1,0.01968,-0.00984,-0.02165*
1,1,0.01968,-0.00984,0.02165*
1,1,0.01968,0.00984,0.02165*
%
%ADD33ROUNDEDRECTD33*%
G04:AMPARAMS|DCode=34|XSize=35.43mil|YSize=31.5mil|CornerRadius=7.87mil|HoleSize=0mil|Usage=FLASHONLY|Rotation=0.000|XOffset=0mil|YOffset=0mil|HoleType=Round|Shape=RoundedRectangle|*
%AMROUNDEDRECTD34*
21,1,0.03543,0.01575,0,0,0.0*
21,1,0.01968,0.03150,0,0,0.0*
1,1,0.01575,0.00984,-0.00787*
1,1,0.01575,-0.00984,-0.00787*
1,1,0.01575,-0.00984,0.00787*
1,1,0.01575,0.00984,0.00787*
%
%ADD34ROUNDEDRECTD34*%
G04:AMPARAMS|DCode=35|XSize=35.43mil|YSize=31.5mil|CornerRadius=7.87mil|HoleSize=0mil|Usage=FLASHONLY|Rotation=270.000|XOffset=0mil|YOffset=0mil|HoleType=Round|Shape=RoundedRectangle|*
%AMROUNDEDRECTD35*
21,1,0.03543,0.01575,0,0,270.0*
21,1,0.01968,0.03150,0,0,270.0*
1,1,0.01575,-0.00787,-0.00984*
1,1,0.01575,-0.00787,0.00984*
1,1,0.01575,0.00787,0.00984*
1,1,0.01575,0.00787,-0.00984*
%
%ADD35ROUNDEDRECTD35*%
%ADD36R,0.09449X0.03937*%
%ADD37R,0.09449X0.12992*%
%ADD38R,0.21260X0.24410*%
%ADD39R,0.03937X0.08268*%
%ADD40R,0.07087X0.04528*%
%ADD41R,0.04528X0.07087*%
%ADD42R,0.03740X0.05512*%
%ADD66C,0.03937*%
%ADD67C,0.01968*%
%ADD68C,0.05906*%
G36*
X-191748Y-61228D02*
Y-69543D01*
X-185701Y-75590D01*
X-150854D01*
Y-75894D01*
X-140421D01*
Y-75590D01*
X-124724D01*
X-119685Y-70551D01*
X-76095D01*
X-63244Y-57701D01*
X-24693D01*
X-23685Y-58709D01*
Y-75590D01*
X-25701Y-77606D01*
X-59716D01*
X-79370Y-97260D01*
X-107087D01*
X-110614Y-93732D01*
X-149165D01*
X-154961Y-99528D01*
X-163276D01*
X-167055Y-95748D01*
X-179654D01*
X-190236Y-85165D01*
X-205354D01*
X-211906Y-91716D01*
X-213509D01*
X-213458Y-92134D01*
X-213985Y-92661D01*
X-214159Y-92921D01*
X-214220Y-93228D01*
Y-106378D01*
X-218197Y-110354D01*
X-226035D01*
Y-105949D01*
X-236075D01*
Y-110354D01*
X-260896D01*
X-267843Y-103408D01*
Y-102803D01*
X-256823Y-91783D01*
X-251453D01*
Y-86413D01*
X-243423Y-78383D01*
X-243495Y-76537D01*
X-241219Y-74260D01*
X-240803D01*
X-240748Y-74271D01*
X-238779D01*
X-238088Y-74133D01*
X-237502Y-73742D01*
X-237111Y-73156D01*
X-236973Y-72465D01*
Y-68134D01*
X-237111Y-67443D01*
X-237502Y-66857D01*
X-238088Y-66465D01*
X-238779Y-66328D01*
X-240748D01*
X-241439Y-66465D01*
X-242025Y-66857D01*
X-242417Y-67443D01*
X-242554Y-68134D01*
Y-68725D01*
X-243090Y-68795D01*
X-243296Y-68881D01*
X-243810Y-68552D01*
X-244158Y-59716D01*
Y-55685D01*
X-241440Y-52968D01*
X-241439Y-52968D01*
X-240748Y-53106D01*
X-238779D01*
X-238088Y-52968D01*
X-238006Y-52913D01*
X-229191D01*
X-225950Y-56155D01*
X-225374Y-56596D01*
X-224704Y-56874D01*
X-223984Y-56969D01*
X-217701D01*
X-216981Y-56874D01*
X-216311Y-56596D01*
X-216144Y-56468D01*
X-216102Y-56460D01*
X-215581Y-56112D01*
X-215357Y-55776D01*
X-212494Y-52913D01*
X-200063D01*
X-191748Y-61228D01*
D02*
G37*
G36*
X-23433Y-38803D02*
Y-56441D01*
X-24125Y-57133D01*
X-24386Y-56959D01*
X-24693Y-56898D01*
X-63244D01*
X-63244Y-56898D01*
X-63551Y-56959D01*
X-63812Y-57133D01*
X-63812Y-57133D01*
X-76427Y-69748D01*
X-78689D01*
Y-69563D01*
X-89122D01*
Y-69748D01*
X-95067D01*
Y-69492D01*
X-105500D01*
Y-69748D01*
X-109087D01*
Y-69311D01*
X-116173D01*
Y-69748D01*
X-119685D01*
X-119685Y-69748D01*
X-119992Y-69810D01*
X-120253Y-69984D01*
X-120253Y-69984D01*
X-125057Y-74788D01*
X-140421D01*
Y-65067D01*
X-149942D01*
X-152493Y-62516D01*
Y-61098D01*
X-149279D01*
Y-60117D01*
X-147426D01*
Y-60839D01*
X-140340D01*
Y-55524D01*
X-147426D01*
Y-56505D01*
X-149279D01*
Y-55783D01*
X-159319D01*
Y-61098D01*
X-156106D01*
Y-63264D01*
X-155968Y-63955D01*
X-155577Y-64541D01*
X-153126Y-66992D01*
X-153317Y-67453D01*
X-156173D01*
Y-65067D01*
X-164835D01*
Y-67453D01*
X-166340D01*
Y-65027D01*
X-171852D01*
Y-73492D01*
X-166340D01*
Y-71066D01*
X-164835D01*
Y-71169D01*
X-156173D01*
Y-71066D01*
X-150854D01*
Y-74788D01*
X-185368D01*
X-190945Y-69211D01*
Y-61228D01*
X-191006Y-60921D01*
X-191180Y-60661D01*
X-193512Y-58329D01*
Y-40992D01*
X-167537D01*
X-166233Y-42296D01*
X-165657Y-42738D01*
X-164987Y-43016D01*
X-164268Y-43110D01*
X-154299D01*
X-153580Y-43016D01*
X-153571Y-43012D01*
X-149638D01*
X-149457Y-42988D01*
X-149279D01*
Y-42965D01*
X-148918Y-42917D01*
X-148248Y-42640D01*
X-147672Y-42198D01*
X-146721Y-41247D01*
X-127244Y-60724D01*
X-120441D01*
X-116173Y-64992D01*
Y-66752D01*
X-109087D01*
Y-65244D01*
X-105575Y-61732D01*
X-77606D01*
Y-54173D01*
X-60976Y-37543D01*
X-24693D01*
X-23433Y-38803D01*
D02*
G37*
G36*
X-24441Y-78866D02*
Y-95496D01*
X-27465Y-98520D01*
X-64000D01*
X-71559Y-106079D01*
X-71811Y-105827D01*
X-113656D01*
X-114665Y-104817D01*
X-115251Y-104426D01*
X-115943Y-104288D01*
X-140697D01*
Y-103437D01*
X-150736D01*
Y-104288D01*
X-154189D01*
Y-103579D01*
X-156947D01*
X-157013Y-103551D01*
X-157732Y-103456D01*
X-164579D01*
X-165298Y-103551D01*
X-165754Y-103740D01*
X-172043D01*
Y-109252D01*
X-172043D01*
X-171881Y-109644D01*
X-172590Y-110354D01*
X-190236D01*
X-190956Y-110449D01*
X-191626Y-110727D01*
X-192202Y-111168D01*
X-192324Y-111328D01*
X-203201D01*
Y-110476D01*
X-207435D01*
X-207501Y-110449D01*
X-208221Y-110354D01*
X-213417D01*
Y-93228D01*
X-212708Y-92519D01*
X-211906D01*
X-211598Y-92458D01*
X-211338Y-92284D01*
X-205022Y-85968D01*
X-190569D01*
X-180221Y-96316D01*
X-179961Y-96490D01*
X-179654Y-96551D01*
X-177146D01*
Y-97075D01*
X-166864D01*
X-163843Y-100095D01*
X-163583Y-100269D01*
X-163276Y-100330D01*
X-161276D01*
Y-101020D01*
X-154189D01*
Y-99891D01*
X-149483Y-95185D01*
X-140421D01*
Y-94535D01*
X-132602D01*
Y-95224D01*
X-121382D01*
Y-94535D01*
X-110947D01*
X-107654Y-97828D01*
X-107394Y-98002D01*
X-107087Y-98063D01*
X-79370D01*
X-79063Y-98002D01*
X-78802Y-97828D01*
X-78802Y-97828D01*
X-78235Y-97260D01*
X-77354D01*
Y-96380D01*
X-59384Y-78409D01*
X-25701D01*
X-25701Y-78409D01*
X-25394Y-78348D01*
X-25133Y-78174D01*
X-24441Y-78866D01*
D02*
G37*
G36*
X-23433Y-168315D02*
X-61984D01*
X-65764Y-172095D01*
X-88189D01*
X-94740Y-165543D01*
X-105323D01*
X-109858Y-170079D01*
X-124976D01*
X-127008Y-172110D01*
X-127795D01*
Y-172898D01*
X-130520Y-175622D01*
X-141102D01*
X-145378Y-179897D01*
X-164528D01*
X-165247Y-179992D01*
X-165917Y-180270D01*
X-166493Y-180712D01*
X-171482Y-185701D01*
X-184008D01*
X-184189Y-185677D01*
X-184370Y-185701D01*
X-187213D01*
Y-151181D01*
X-23433D01*
Y-168315D01*
D02*
G37*
G36*
X-316768Y-121658D02*
Y-125496D01*
X-315917D01*
Y-131315D01*
X-315779Y-132006D01*
X-315388Y-132592D01*
X-314216Y-133763D01*
Y-142429D01*
X-303390D01*
Y-138460D01*
X-301555D01*
Y-139409D01*
X-293091D01*
Y-133898D01*
X-301555D01*
Y-134847D01*
X-303390D01*
Y-131209D01*
X-311662D01*
X-312304Y-130567D01*
Y-126775D01*
X-311842Y-126583D01*
X-311433Y-126992D01*
X-280945D01*
X-270614Y-137323D01*
X-204296D01*
X-204095Y-146394D01*
X-230551Y-172850D01*
X-235020D01*
Y-168807D01*
X-246240D01*
Y-169280D01*
X-263063D01*
X-271857Y-160486D01*
X-272443Y-160095D01*
X-273134Y-159957D01*
X-279102D01*
X-284581Y-154479D01*
X-285167Y-154087D01*
X-285366Y-154047D01*
Y-148866D01*
X-291469D01*
Y-153949D01*
X-291535D01*
X-292227Y-154087D01*
X-292813Y-154479D01*
X-299220Y-160886D01*
X-299879D01*
Y-156020D01*
X-300016Y-155328D01*
X-300276Y-154940D01*
Y-148965D01*
X-305787D01*
Y-157429D01*
X-303491D01*
Y-160886D01*
X-306705D01*
Y-162154D01*
X-308394D01*
Y-161721D01*
X-315480D01*
Y-167035D01*
X-308394D01*
Y-165767D01*
X-306705D01*
Y-166201D01*
X-296665D01*
Y-163440D01*
X-290787Y-157562D01*
X-289697D01*
X-289522Y-157527D01*
X-287312D01*
X-287138Y-157562D01*
X-286607D01*
X-281128Y-163041D01*
X-280542Y-163433D01*
X-279850Y-163570D01*
X-273882D01*
X-265102Y-172350D01*
X-265104Y-172408D01*
X-265260Y-172850D01*
X-266486D01*
X-269050Y-170286D01*
X-269626Y-169845D01*
X-270296Y-169567D01*
X-271016Y-169472D01*
X-273831D01*
Y-165413D01*
X-283870D01*
Y-169472D01*
X-316120D01*
X-317280Y-168313D01*
Y-166732D01*
X-318732D01*
Y-160525D01*
X-315636Y-157429D01*
X-314055D01*
Y-154854D01*
X-314031Y-154673D01*
Y-153197D01*
X-314055Y-153016D01*
Y-148965D01*
X-319567D01*
Y-153016D01*
X-319591Y-153197D01*
Y-153522D01*
X-323477Y-157408D01*
X-323919Y-157984D01*
X-324197Y-158655D01*
X-324291Y-159374D01*
Y-166732D01*
X-325744D01*
Y-168217D01*
X-326206Y-168408D01*
X-342173Y-152441D01*
Y-150929D01*
X-349732Y-143370D01*
Y-109858D01*
X-328567D01*
X-316768Y-121658D01*
D02*
G37*
G36*
X-23433Y-187716D02*
X-23685Y-187969D01*
X-79370D01*
X-80630Y-189228D01*
X-114142D01*
Y-183685D01*
X-117417Y-180409D01*
X-117921Y-180913D01*
X-124116D01*
X-128365Y-176664D01*
X-128941Y-176223D01*
X-129179Y-176124D01*
X-129296Y-175534D01*
X-127228Y-173465D01*
X-127053Y-173205D01*
X-126995Y-172910D01*
X-126701Y-172852D01*
X-126440Y-172678D01*
X-126440Y-172678D01*
X-124644Y-170882D01*
X-109858D01*
X-109551Y-170820D01*
X-109291Y-170646D01*
X-108723Y-170079D01*
X-91340D01*
X-88757Y-172662D01*
X-88496Y-172836D01*
X-88189Y-172897D01*
X-65764D01*
X-65457Y-172836D01*
X-65196Y-172662D01*
X-65196Y-172662D01*
X-61652Y-169118D01*
X-23433D01*
Y-187716D01*
D02*
G37*
G36*
X-125984Y-189732D02*
X-114752D01*
X-114709Y-189796D01*
X-114449Y-189970D01*
X-114142Y-190031D01*
X-80630D01*
X-80630Y-190031D01*
X-80323Y-189970D01*
X-80062Y-189796D01*
X-80062Y-189796D01*
X-79998Y-189732D01*
X-63496D01*
X-62535Y-188771D01*
X-23685D01*
X-23685Y-188771D01*
Y-205858D01*
X-24441Y-206614D01*
X-158488D01*
X-162016Y-203087D01*
Y-188221D01*
X-159252Y-185457D01*
X-137575D01*
X-136855Y-185362D01*
X-136456Y-185197D01*
X-130520D01*
X-125984Y-189732D01*
D02*
G37*
D20*
X-316976Y-111370D02*
D03*
X-307921D02*
D03*
X-298866D02*
D03*
D21*
X-307921Y-88535D02*
D03*
D22*
X-301685Y-163543D02*
D03*
Y-172598D02*
D03*
Y-181653D02*
D03*
X-145717Y-106095D02*
D03*
Y-115150D02*
D03*
Y-124205D02*
D03*
X-100474Y-43752D02*
D03*
Y-34697D02*
D03*
Y-25642D02*
D03*
X-208221Y-122189D02*
D03*
Y-113134D02*
D03*
Y-104079D02*
D03*
X-154299Y-58441D02*
D03*
Y-49386D02*
D03*
Y-40331D02*
D03*
D23*
X-278850Y-172598D02*
D03*
X-122882Y-115150D02*
D03*
X-123308Y-34697D02*
D03*
X-231055Y-113134D02*
D03*
X-177134Y-49386D02*
D03*
D24*
X-203842Y-40709D02*
D03*
Y-65118D02*
D03*
X-240630Y-174221D02*
D03*
Y-149811D02*
D03*
X-337638Y-180520D02*
D03*
Y-156110D02*
D03*
X-281449Y-140709D02*
D03*
Y-116299D02*
D03*
X-344189Y-121055D02*
D03*
Y-96646D02*
D03*
X-262047Y-181024D02*
D03*
Y-156614D02*
D03*
X-126992Y-65402D02*
D03*
Y-89811D02*
D03*
D25*
X-188472Y-38213D02*
D03*
Y-51992D02*
D03*
X-135055Y-27126D02*
D03*
Y-40905D02*
D03*
X-167811Y-106496D02*
D03*
Y-120276D02*
D03*
X-157228Y-113134D02*
D03*
Y-126913D02*
D03*
X-188472Y-106496D02*
D03*
Y-120276D02*
D03*
X-321512Y-169488D02*
D03*
Y-183268D02*
D03*
X-297323Y-122874D02*
D03*
Y-136653D02*
D03*
X-287496Y-88606D02*
D03*
Y-102386D02*
D03*
X-177890Y-120276D02*
D03*
Y-106496D02*
D03*
D26*
X-182875Y-69260D02*
D03*
X-169096D02*
D03*
X-111787Y-54425D02*
D03*
X-125567D02*
D03*
X-303031Y-153197D02*
D03*
X-316811D02*
D03*
D27*
X-100535Y-92150D02*
D03*
Y-111441D02*
D03*
X-254236Y-102984D02*
D03*
Y-122276D02*
D03*
X-100284Y-55614D02*
D03*
Y-74906D02*
D03*
X-145638Y-70480D02*
D03*
Y-89772D02*
D03*
X-84158Y-111441D02*
D03*
Y-92150D02*
D03*
X-83906Y-55685D02*
D03*
Y-74976D02*
D03*
X-84661Y-183504D02*
D03*
Y-164213D02*
D03*
X-144378Y-192071D02*
D03*
Y-172780D02*
D03*
D28*
X-171732Y-91465D02*
D03*
X-196142D02*
D03*
X-232457Y-86173D02*
D03*
X-256866D02*
D03*
X-333213Y-136819D02*
D03*
X-308803D02*
D03*
D29*
X-113134Y-118331D02*
D03*
Y-110457D02*
D03*
X-112630Y-64095D02*
D03*
Y-71969D02*
D03*
X-157732Y-98362D02*
D03*
Y-106236D02*
D03*
X-90205Y-36126D02*
D03*
Y-44000D02*
D03*
X-198047Y-117071D02*
D03*
Y-109197D02*
D03*
X-143883Y-50307D02*
D03*
Y-58181D02*
D03*
X-311937Y-172252D02*
D03*
Y-164378D02*
D03*
D30*
X-376842Y-169165D02*
D03*
Y-158260D02*
D03*
Y-147354D02*
D03*
Y-136449D02*
D03*
Y-125543D02*
D03*
Y-114638D02*
D03*
Y-103732D02*
D03*
Y-92827D02*
D03*
X-442276Y-98280D02*
D03*
Y-109185D02*
D03*
Y-120091D02*
D03*
Y-130996D02*
D03*
Y-141902D02*
D03*
Y-152807D02*
D03*
Y-163713D02*
D03*
D31*
X-490882Y-33161D02*
D03*
X-510882D02*
D03*
X-490882Y-43161D02*
D03*
X-510882D02*
D03*
X-490882Y-53161D02*
D03*
X-510882D02*
D03*
X-490882Y-63161D02*
D03*
X-510882D02*
D03*
X-490882Y-73161D02*
D03*
X-510882D02*
D03*
X-490882Y-83161D02*
D03*
X-510882D02*
D03*
X-490882Y-93161D02*
D03*
X-510882D02*
D03*
X-490882Y-103161D02*
D03*
X-510882D02*
D03*
X-490882Y-113161D02*
D03*
X-510882D02*
D03*
X-490882Y-123161D02*
D03*
X-510882D02*
D03*
X-490882Y-133161D02*
D03*
X-510882D02*
D03*
X-490882Y-143161D02*
D03*
X-510882D02*
D03*
X-490882Y-153161D02*
D03*
X-510882D02*
D03*
X-490882Y-163161D02*
D03*
X-510882D02*
D03*
X-490882Y-173161D02*
D03*
X-510882D02*
D03*
X-490882Y-183161D02*
D03*
X-510882D02*
D03*
X-490882Y-193161D02*
D03*
X-510882D02*
D03*
X-490882Y-203161D02*
D03*
X-510882D02*
D03*
X-52220D02*
D03*
X-32221D02*
D03*
X-52220Y-193161D02*
D03*
X-32221D02*
D03*
X-52220Y-183161D02*
D03*
X-32221D02*
D03*
X-52220Y-173161D02*
D03*
X-32221D02*
D03*
X-52220Y-163161D02*
D03*
X-32221D02*
D03*
X-52220Y-153161D02*
D03*
X-32221D02*
D03*
X-52220Y-143161D02*
D03*
X-32221D02*
D03*
X-52220Y-133161D02*
D03*
X-32221D02*
D03*
X-52220Y-123161D02*
D03*
X-32221D02*
D03*
X-52220Y-113161D02*
D03*
X-32221D02*
D03*
X-52220Y-103161D02*
D03*
X-32221D02*
D03*
X-52220Y-93161D02*
D03*
X-32221D02*
D03*
X-52220Y-83161D02*
D03*
X-32221D02*
D03*
X-52220Y-73161D02*
D03*
X-32221D02*
D03*
X-52220Y-63161D02*
D03*
X-32221D02*
D03*
X-52220Y-53161D02*
D03*
X-32221D02*
D03*
X-52220Y-43161D02*
D03*
X-32221D02*
D03*
X-52220Y-33161D02*
D03*
X-32221D02*
D03*
D32*
X-345260Y-61606D02*
D03*
X-348410D02*
D03*
X-351559D02*
D03*
X-354709D02*
D03*
Y-67905D02*
D03*
X-351559D02*
D03*
X-348410D02*
D03*
X-345260D02*
D03*
D33*
X-239764Y-49134D02*
D03*
X-251575D02*
D03*
Y-59716D02*
D03*
X-239764D02*
D03*
Y-70299D02*
D03*
X-251575D02*
D03*
D34*
X-217701Y-59701D02*
D03*
Y-54189D02*
D03*
X-132283Y-173118D02*
D03*
Y-178630D02*
D03*
X-184189Y-182945D02*
D03*
Y-188457D02*
D03*
D35*
X-270850Y-102299D02*
D03*
X-265339D02*
D03*
X-354031Y-81386D02*
D03*
X-359543D02*
D03*
X-342945Y-81638D02*
D03*
X-348457D02*
D03*
D36*
X-122283Y-165811D02*
D03*
Y-174866D02*
D03*
Y-183921D02*
D03*
D37*
X-99449Y-174866D02*
D03*
D38*
X-166803Y-167374D02*
D03*
D39*
X-157807Y-193949D02*
D03*
X-175799Y-193949D02*
D03*
D40*
X-241890Y-119095D02*
D03*
Y-107677D02*
D03*
X-160504Y-79535D02*
D03*
Y-68118D02*
D03*
X-327811Y-103646D02*
D03*
Y-115063D02*
D03*
D41*
X-277000Y-153197D02*
D03*
X-288417D02*
D03*
D42*
X-314110Y-121953D02*
D03*
X-306236D02*
D03*
D66*
X-154442Y-113134D02*
G03*
X-154455Y-113134I-13J-3937D01*
G01*
X-147882Y-115150D02*
G03*
X-152748Y-113134I-4866J-4866D01*
G01*
X-283717Y-26709D02*
X-261291Y-49134D01*
X-251575D01*
X-454047Y-26709D02*
X-283717D01*
X-467906Y-40567D02*
X-454047Y-26709D01*
X-449764Y-33260D02*
X-293291D01*
X-461606Y-45102D02*
X-449764Y-33260D01*
X-293291D02*
X-266835Y-59716D01*
X-467906Y-132098D02*
Y-40567D01*
X-461606Y-120693D02*
Y-45102D01*
X-447197Y-152807D02*
X-442276D01*
X-467906Y-132098D02*
X-447197Y-152807D01*
X-452287Y-130012D02*
X-443260D01*
X-442276Y-130996D01*
X-461606Y-120693D02*
X-452287Y-130012D01*
X-444724Y-39055D02*
X-304378D01*
X-273134Y-70299D01*
X-454803Y-49134D02*
X-444724Y-39055D01*
X-266835Y-59716D02*
X-251575D01*
X-273134Y-70299D02*
X-251575D01*
X-454803Y-101579D02*
Y-49134D01*
Y-101579D02*
X-447197Y-109185D01*
X-442276D01*
Y-141902D02*
Y-130996D01*
Y-163713D02*
Y-152807D01*
Y-120091D02*
Y-109185D01*
X-292047Y-102386D02*
X-287496D01*
X-298866Y-111370D02*
Y-109205D01*
X-292047Y-102386D01*
X-295847Y-122874D02*
Y-121398D01*
X-306138Y-121854D02*
Y-120807D01*
X-298866Y-113535D02*
Y-111370D01*
X-306138Y-120807D02*
X-298866Y-113535D01*
X-306236Y-121953D02*
X-306138Y-121854D01*
X-306236Y-121953D02*
X-299720D01*
X-298799Y-122874D02*
X-297323D01*
X-299720Y-121953D02*
X-298799Y-122874D01*
X-282512Y-116551D02*
X-265268Y-133795D01*
X-295847Y-121398D02*
X-290748Y-116299D01*
X-281449D01*
X-297323Y-122874D02*
X-295847D01*
X-341335Y-118398D02*
Y-118201D01*
X-344189Y-121055D02*
X-343992D01*
X-341335Y-118398D01*
X-307921Y-88535D02*
X-289043D01*
X-288972Y-88606D01*
X-287496D01*
X-307921Y-111370D02*
Y-88535D01*
X-336795Y-89449D02*
X-308835D01*
X-307921Y-88535D01*
X-344189Y-96646D02*
X-343992D01*
X-336795Y-89449D01*
X-52220Y-113161D02*
X-32221D01*
X-79118Y-139339D02*
X-62941Y-123161D01*
X-32221D01*
X-208126Y-139339D02*
X-79118D01*
X-265268Y-133795D02*
X-83150D01*
X-62516Y-113161D01*
X-52220D01*
X-240630Y-149811D02*
X-218598D01*
X-208126Y-139339D01*
X-76095Y-145134D02*
X-64122Y-133161D01*
X-196497Y-145134D02*
X-76095D01*
X-235300Y-183937D02*
X-196497Y-145134D01*
X-282709Y-116551D02*
X-282512D01*
X-248406Y-183937D02*
X-235300D01*
X-64122Y-133161D02*
X-52220D01*
X-32221D01*
X-251319Y-181024D02*
X-248406Y-183937D01*
X-262047Y-181024D02*
X-251319D01*
X-311937Y-172252D02*
X-271016D01*
X-317272D02*
X-311937D01*
X-271016D02*
X-262244Y-181024D01*
X-262047D01*
X-320035Y-169488D02*
X-317272Y-172252D01*
X-321512Y-169488D02*
X-320035D01*
X-316811Y-154673D02*
Y-153197D01*
X-321512Y-159374D02*
X-316811Y-154673D01*
X-321512Y-169488D02*
Y-159374D01*
X-180862Y-191783D02*
X-175799D01*
X-184189Y-188457D02*
X-180862Y-191783D01*
X-186087Y-190354D02*
X-184189Y-188457D01*
X-164528Y-182677D02*
X-137575D01*
X-133528Y-178630D01*
X-130331D01*
X-125039Y-183921D01*
X-122283D01*
X-175799Y-191783D02*
X-173634D01*
X-164528Y-182677D01*
X-175799Y-193949D02*
Y-191783D01*
X-198799Y-94319D02*
X-196142Y-91661D01*
X-198996Y-94319D02*
X-198799D01*
X-196142Y-91661D02*
Y-91465D01*
X-197949Y-109098D02*
X-197260D01*
X-198047Y-109197D02*
X-197949Y-109098D01*
X-242370Y-71480D02*
X-239764D01*
X-256866Y-85976D02*
X-242370Y-71480D01*
X-239764D02*
Y-70299D01*
X-256866Y-86173D02*
Y-85976D01*
X-190236Y-113134D02*
X-177134D01*
X-177890Y-120276D02*
Y-113890D01*
X-177134Y-113134D01*
X-208221Y-104079D02*
X-206055D01*
X-205957Y-103980D01*
X-177890Y-106496D02*
X-176413D01*
X-147882Y-115150D02*
X-145717D01*
X-177134Y-113134D02*
X-154455D01*
X-154442Y-113134D02*
X-152748D01*
X-145717Y-115150D02*
X-122882D01*
X-164579Y-106236D02*
X-157732D01*
X-198146Y-109098D02*
X-198047Y-109197D01*
X-203842Y-40709D02*
X-201346Y-38213D01*
X-188472D01*
X-212446Y-48934D02*
X-212265D01*
X-204039Y-40709D01*
X-217701Y-54189D02*
X-212446Y-48934D01*
X-204039Y-40709D02*
X-203842D01*
X-223984Y-54189D02*
X-217701D01*
X-229039Y-49134D02*
X-223984Y-54189D01*
X-239764Y-49134D02*
X-229039D01*
X-256866Y-86370D02*
Y-86173D01*
X-271082Y-104099D02*
Y-100586D01*
X-262047Y-113134D02*
X-231055D01*
X-271082Y-104099D02*
X-262047Y-113134D01*
X-271082Y-100586D02*
X-256866Y-86370D01*
X-231055Y-113134D02*
X-208221D01*
X-188472Y-51992D02*
X-179398D01*
X-188472Y-38213D02*
X-166386D01*
X-177134Y-49728D02*
Y-49386D01*
Y-62042D02*
Y-49728D01*
X-182875Y-69260D02*
Y-67783D01*
X-177134Y-62042D01*
X-164268Y-40331D02*
X-154299D01*
X-166386Y-38213D02*
X-164268Y-40331D01*
X-136531Y-27126D02*
X-135055D01*
X-149638Y-40232D02*
X-136531Y-27126D01*
X-154201Y-40232D02*
X-149638D01*
X-154299Y-40331D02*
X-154201Y-40232D01*
X-136265Y-57586D02*
X-128449Y-65402D01*
X-138571Y-50406D02*
X-136265Y-52712D01*
X-128449Y-65402D02*
X-128252D01*
X-136265Y-57586D02*
Y-52712D01*
X-143785Y-50406D02*
X-138571D01*
X-143883Y-50307D02*
X-143785Y-50406D01*
X-145493Y-49386D02*
X-144572Y-50307D01*
X-143883D01*
X-154299Y-49386D02*
X-145493D01*
X-177134D02*
X-154299D01*
X-179398Y-51992D02*
X-177134Y-49728D01*
X-133579Y-27126D02*
X-131996Y-25543D01*
X-135055Y-27126D02*
X-133579D01*
X-115661Y-25642D02*
X-100474D01*
X-115759Y-25543D02*
X-115661Y-25642D01*
X-131996Y-25543D02*
X-115759D01*
D67*
X-436913Y-45858D02*
X-359055D01*
X-443968Y-96587D02*
Y-52913D01*
X-436913Y-45858D01*
X-443968Y-96587D02*
X-442276Y-98280D01*
X-359055Y-45858D02*
X-348410Y-56504D01*
Y-61606D02*
Y-56504D01*
X-351756Y-61409D02*
Y-58953D01*
Y-61409D02*
X-351559Y-61606D01*
X-353512Y-57197D02*
X-351756Y-58953D01*
X-358047Y-57197D02*
X-353512D01*
X-371429Y-70579D02*
X-358047Y-57197D01*
X-376842Y-92827D02*
X-373360D01*
X-371429Y-90896D01*
Y-70579D01*
X-364598Y-96409D02*
Y-71890D01*
X-354709Y-62000D01*
X-371921Y-103732D02*
X-364598Y-96409D01*
X-354709Y-62000D02*
Y-61606D01*
X-376842Y-103732D02*
X-371921D01*
X-359543Y-81386D02*
Y-76583D01*
X-354709Y-71748D01*
Y-67905D01*
X-342945Y-95402D02*
Y-81638D01*
X-344189Y-96646D02*
X-342945Y-95402D01*
X-354031Y-111409D02*
Y-81386D01*
Y-111409D02*
X-344386Y-121055D01*
X-344189D01*
X-348583Y-81512D02*
X-348457Y-81638D01*
X-354031Y-81386D02*
X-353906Y-81512D01*
X-348583D01*
X-351559Y-78716D02*
Y-67905D01*
X-354031Y-81189D02*
X-351559Y-78716D01*
X-354031Y-81386D02*
Y-81189D01*
X-358047Y-126992D02*
Y-89449D01*
X-359543Y-87953D02*
Y-81386D01*
Y-87953D02*
X-358047Y-89449D01*
Y-126992D02*
X-354772Y-130268D01*
Y-144126D02*
Y-130268D01*
Y-144126D02*
X-349732Y-149165D01*
Y-168425D02*
Y-149165D01*
X-341476Y-176878D02*
Y-176681D01*
X-349732Y-168425D02*
X-341476Y-176681D01*
X-337835Y-180520D02*
X-337638D01*
X-341476Y-176878D02*
X-337835Y-180520D01*
X-308638Y-136653D02*
X-297323D01*
X-308803Y-136819D02*
X-308638Y-136653D01*
X-308803Y-136819D02*
Y-136622D01*
X-314110Y-131315D02*
Y-121953D01*
Y-131315D02*
X-308803Y-136622D01*
X-314110Y-121953D02*
Y-121067D01*
X-316976Y-118555D02*
Y-111370D01*
Y-118555D02*
X-315350Y-120181D01*
X-314996D01*
X-314110Y-121067D01*
X-322055Y-108122D02*
X-317862D01*
X-327811Y-103646D02*
X-326532D01*
X-322055Y-108122D01*
X-317862D02*
X-316976Y-109008D01*
Y-111370D02*
Y-109008D01*
X-348410Y-71874D02*
X-342929Y-77354D01*
Y-81638D02*
Y-77354D01*
X-348410Y-71874D02*
Y-67905D01*
X-63602Y-103161D02*
X-52220D01*
X-70803Y-110362D02*
X-63602Y-103161D01*
X-83276Y-110362D02*
X-70803D01*
X-285858Y-155756D02*
X-279850Y-161764D01*
X-287138Y-155756D02*
X-285858D01*
X-288417Y-154476D02*
X-287138Y-155756D01*
X-279850Y-161764D02*
X-273134D01*
X-243764Y-171087D02*
X-240630Y-174221D01*
X-263811Y-171087D02*
X-243764D01*
X-273134Y-161764D02*
X-263811Y-171087D01*
X-337638Y-180520D02*
X-334976Y-183181D01*
X-305575D02*
X-304047Y-181653D01*
X-301685D01*
X-334976Y-183181D02*
X-305575D01*
X-303031Y-154673D02*
X-301685Y-156020D01*
Y-163543D02*
Y-156020D01*
X-303031Y-154673D02*
Y-153197D01*
X-299323Y-163543D02*
X-291535Y-155756D01*
X-289697D01*
X-288417Y-154476D02*
Y-153197D01*
X-301685Y-163543D02*
X-299323D01*
X-289697Y-155756D02*
X-288417Y-154476D01*
X-311520Y-163961D02*
X-302102D01*
X-301685Y-163543D01*
X-311937Y-164378D02*
X-311520Y-163961D01*
X-91449Y-118929D02*
X-84158Y-111638D01*
X-112535Y-118929D02*
X-91449D01*
X-113134Y-118331D02*
X-112535Y-118929D01*
X-113134Y-122425D02*
Y-118331D01*
X-84158Y-111244D02*
X-83276Y-110362D01*
X-52220Y-103161D02*
X-32221D01*
X-157732Y-106236D02*
X-157591Y-106095D01*
X-115943D01*
X-126071Y-54425D02*
Y-52949D01*
X-125567Y-39121D02*
Y-36955D01*
Y-54425D02*
Y-39121D01*
X-127352Y-40905D02*
X-125567Y-39121D01*
Y-36955D02*
X-123308Y-34697D01*
X-115943Y-106095D02*
X-114790Y-107248D01*
Y-109571D02*
Y-107248D01*
Y-109571D02*
X-113904Y-110457D01*
X-112248D01*
X-164358Y-121260D02*
X-158705Y-126913D01*
X-166827Y-121260D02*
X-164358D01*
X-167811Y-120276D02*
X-166827Y-121260D01*
X-158705Y-126913D02*
X-157228D01*
X-192339Y-117071D02*
X-190933Y-118476D01*
Y-119291D02*
X-189949Y-120276D01*
X-188472D01*
X-198047Y-117071D02*
X-192339D01*
X-190933Y-119291D02*
Y-118476D01*
X-205858Y-122189D02*
X-201626Y-117957D01*
X-208221Y-122189D02*
X-205858D01*
X-201626Y-117957D02*
X-198933D01*
X-198047Y-117071D01*
X-240610Y-119095D02*
X-239331Y-120374D01*
Y-121036D02*
X-238178Y-122189D01*
X-239331Y-121036D02*
Y-120374D01*
X-238178Y-122189D02*
X-208221D01*
X-251055Y-119095D02*
X-240610D01*
X-254236Y-122276D02*
X-251055Y-119095D01*
X-84158Y-111638D02*
Y-111244D01*
X-148079Y-123197D02*
X-145717D01*
X-114913Y-124205D02*
X-113134Y-122425D01*
X-145717Y-124205D02*
X-114913D01*
X-112248Y-110457D02*
X-111264Y-111441D01*
X-100535D01*
X-157228Y-126913D02*
X-150831D01*
X-148965Y-125047D01*
Y-124083D01*
X-148079Y-123197D01*
X-208221Y-113134D02*
X-190236D01*
X-254236Y-122276D02*
X-252543Y-123969D01*
X-100535Y-111441D02*
Y-111244D01*
X-103980Y-107799D02*
X-100535Y-111244D01*
X-144013Y-58311D02*
X-143883Y-58181D01*
X-154299Y-58441D02*
X-154169Y-58311D01*
X-144013D01*
X-169096Y-69260D02*
X-148370D01*
Y-69063D01*
X-154299Y-63264D02*
Y-58441D01*
Y-63264D02*
X-150724Y-66839D01*
X-150594D01*
X-148370Y-69063D01*
X-52220Y-33161D02*
X-32221D01*
X-83906Y-55488D02*
Y-37279D01*
Y-55488D02*
X-61579Y-33161D01*
X-52220D01*
X-83906Y-55685D02*
Y-55488D01*
X-90205Y-36126D02*
X-85059D01*
X-83906Y-37279D01*
X-100350Y-43876D02*
X-100284Y-43942D01*
Y-55614D02*
Y-43942D01*
X-112291Y-54425D02*
X-101472D01*
X-100284Y-55614D01*
X-113638Y-57248D02*
X-112291Y-55902D01*
X-113638Y-64095D02*
Y-57248D01*
X-112291Y-55902D02*
Y-54425D01*
X-91091Y-36126D02*
X-90205D01*
X-100350Y-43876D02*
X-90329D01*
X-90205Y-44000D01*
X-123308Y-34697D02*
X-100474D01*
X-135055Y-40905D02*
X-127352D01*
X-100474Y-34697D02*
X-92520D01*
X-91091Y-36126D01*
D68*
X-203354Y-207622D02*
X-186087Y-190354D01*
X-361575Y-207622D02*
X-203354D01*
X-352756Y-198803D02*
X-208378D01*
X-190740Y-181165D01*
X-180595D01*
X-362835Y-188724D02*
X-352756Y-198803D01*
X-376842Y-158260D02*
Y-147354D01*
Y-169165D02*
Y-158260D01*
Y-192354D02*
Y-169165D01*
Y-192354D02*
X-361575Y-207622D01*
X-362835Y-188724D02*
Y-140850D01*
X-180595Y-181165D02*
X-176055Y-176626D01*
X-166803Y-168949D02*
Y-167374D01*
X-174480Y-176626D02*
X-166803Y-168949D01*
X-176055Y-176626D02*
X-174480D01*
X-367236Y-136449D02*
X-362835Y-140850D01*
X-376842Y-136449D02*
X-367236D01*
X-376842Y-125543D02*
Y-114638D01*
Y-136449D02*
Y-125543D01*
M02*
