G04*
G04 #@! TF.GenerationSoftware,Altium Limited,Altium Designer,22.4.2 (48)*
G04*
G04 Layer_Color=65535*
%FSLAX25Y25*%
%MOIN*%
G70*
G04*
G04 #@! TF.SameCoordinates,5B287986-ABF7-48FA-9945-848A1B873533*
G04*
G04*
G04 #@! TF.FilePolarity,Positive*
G04*
G01*
G75*
%ADD10C,0.00984*%
%ADD11C,0.00787*%
%ADD12C,0.01000*%
%ADD13C,0.00394*%
%ADD14C,0.00492*%
%ADD15C,0.00591*%
%ADD16R,0.06299X0.02165*%
%ADD17R,0.02165X0.06299*%
%ADD18R,0.06299X0.02165*%
%ADD19R,0.06299X0.02165*%
G36*
X-268439Y-31082D02*
X-377608D01*
Y-20484D01*
X-268439D01*
Y-31082D01*
D02*
G37*
G36*
Y-41375D02*
Y-55107D01*
X-377608D01*
Y-41375D01*
Y-31082D01*
X-268439D01*
Y-41375D01*
D02*
G37*
%LPC*%
G36*
X-319234Y-24042D02*
Y-27496D01*
X-322120D01*
Y-28300D01*
X-320120D01*
Y-29577D01*
X-320238Y-29673D01*
X-320371Y-29754D01*
X-320511Y-29835D01*
X-320651Y-29909D01*
X-320776Y-29968D01*
X-320828Y-29998D01*
X-320872Y-30020D01*
X-320917Y-30035D01*
X-320946Y-30049D01*
X-320961Y-30057D01*
X-320968D01*
X-321175Y-30130D01*
X-321382Y-30182D01*
X-321573Y-30226D01*
X-321743Y-30248D01*
X-321824Y-30256D01*
X-321891Y-30263D01*
X-321950Y-30271D01*
X-322002D01*
X-322046Y-30278D01*
X-322105D01*
X-322356Y-30263D01*
X-322592Y-30234D01*
X-322806Y-30182D01*
X-322909Y-30160D01*
X-322998Y-30130D01*
X-323079Y-30101D01*
X-323153Y-30079D01*
X-323219Y-30049D01*
X-323278Y-30027D01*
X-323323Y-30012D01*
X-323352Y-29998D01*
X-323374Y-29983D01*
X-323382D01*
X-323492Y-29924D01*
X-323596Y-29857D01*
X-323773Y-29717D01*
X-323928Y-29562D01*
X-324061Y-29414D01*
X-324156Y-29282D01*
X-324201Y-29223D01*
X-324230Y-29178D01*
X-324260Y-29134D01*
X-324274Y-29105D01*
X-324282Y-29082D01*
X-324289Y-29075D01*
X-324393Y-28831D01*
X-324466Y-28573D01*
X-324525Y-28322D01*
X-324562Y-28079D01*
X-324570Y-27968D01*
X-324585Y-27865D01*
X-324592Y-27776D01*
Y-27695D01*
X-324599Y-27636D01*
Y-27584D01*
Y-27555D01*
Y-27547D01*
X-324585Y-27274D01*
X-324555Y-27016D01*
X-324518Y-26787D01*
X-324496Y-26677D01*
X-324466Y-26581D01*
X-324444Y-26492D01*
X-324422Y-26411D01*
X-324400Y-26344D01*
X-324378Y-26285D01*
X-324363Y-26234D01*
X-324348Y-26204D01*
X-324341Y-26182D01*
Y-26175D01*
X-324282Y-26042D01*
X-324216Y-25916D01*
X-324142Y-25798D01*
X-324075Y-25702D01*
X-324016Y-25621D01*
X-323965Y-25555D01*
X-323935Y-25518D01*
X-323920Y-25503D01*
X-323810Y-25392D01*
X-323684Y-25297D01*
X-323566Y-25208D01*
X-323448Y-25134D01*
X-323345Y-25075D01*
X-323264Y-25038D01*
X-323234Y-25023D01*
X-323212Y-25009D01*
X-323197Y-25001D01*
X-323190D01*
X-323013Y-24935D01*
X-322835Y-24891D01*
X-322651Y-24854D01*
X-322489Y-24832D01*
X-322407Y-24824D01*
X-322341Y-24817D01*
X-322274D01*
X-322223Y-24809D01*
X-322120D01*
X-321935Y-24817D01*
X-321758Y-24839D01*
X-321603Y-24869D01*
X-321463Y-24898D01*
X-321352Y-24935D01*
X-321300Y-24950D01*
X-321264Y-24964D01*
X-321234Y-24979D01*
X-321212Y-24986D01*
X-321197Y-24994D01*
X-321190D01*
X-321042Y-25068D01*
X-320909Y-25142D01*
X-320798Y-25223D01*
X-320703Y-25297D01*
X-320636Y-25370D01*
X-320585Y-25422D01*
X-320548Y-25459D01*
X-320540Y-25474D01*
X-320459Y-25592D01*
X-320385Y-25725D01*
X-320319Y-25857D01*
X-320260Y-25990D01*
X-320216Y-26108D01*
X-320201Y-26160D01*
X-320186Y-26197D01*
X-320171Y-26234D01*
X-320164Y-26263D01*
X-320157Y-26278D01*
Y-26285D01*
X-319337Y-26064D01*
X-319411Y-25820D01*
X-319492Y-25599D01*
X-319537Y-25503D01*
X-319581Y-25407D01*
X-319618Y-25326D01*
X-319662Y-25252D01*
X-319699Y-25178D01*
X-319736Y-25119D01*
X-319773Y-25068D01*
X-319795Y-25023D01*
X-319824Y-24994D01*
X-319839Y-24972D01*
X-319847Y-24957D01*
X-319854Y-24950D01*
X-319994Y-24795D01*
X-320142Y-24662D01*
X-320297Y-24551D01*
X-320452Y-24455D01*
X-320585Y-24381D01*
X-320644Y-24352D01*
X-320695Y-24330D01*
X-320732Y-24308D01*
X-320762Y-24293D01*
X-320784Y-24285D01*
X-320791D01*
X-321020Y-24204D01*
X-321249Y-24145D01*
X-321478Y-24101D01*
X-321684Y-24071D01*
X-321780Y-24064D01*
X-321861Y-24057D01*
X-321935Y-24049D01*
X-322002Y-24042D01*
X-322127D01*
X-322311Y-24049D01*
X-322496Y-24057D01*
X-322673Y-24079D01*
X-322835Y-24108D01*
X-322998Y-24138D01*
X-323145Y-24175D01*
X-323286Y-24212D01*
X-323411Y-24249D01*
X-323522Y-24293D01*
X-323625Y-24330D01*
X-323714Y-24367D01*
X-323787Y-24396D01*
X-323847Y-24426D01*
X-323891Y-24448D01*
X-323920Y-24455D01*
X-323928Y-24463D01*
X-324068Y-24544D01*
X-324201Y-24640D01*
X-324326Y-24736D01*
X-324437Y-24839D01*
X-324548Y-24950D01*
X-324643Y-25053D01*
X-324732Y-25156D01*
X-324813Y-25260D01*
X-324880Y-25363D01*
X-324946Y-25451D01*
X-324998Y-25533D01*
X-325042Y-25607D01*
X-325072Y-25666D01*
X-325094Y-25710D01*
X-325109Y-25739D01*
X-325116Y-25747D01*
X-325190Y-25909D01*
X-325249Y-26071D01*
X-325308Y-26234D01*
X-325352Y-26396D01*
X-325426Y-26706D01*
X-325455Y-26854D01*
X-325478Y-26994D01*
X-325492Y-27119D01*
X-325507Y-27237D01*
X-325514Y-27341D01*
X-325522Y-27429D01*
X-325529Y-27503D01*
Y-27599D01*
X-325522Y-27784D01*
X-325514Y-27968D01*
X-325492Y-28138D01*
X-325463Y-28308D01*
X-325433Y-28462D01*
X-325396Y-28618D01*
X-325359Y-28758D01*
X-325323Y-28883D01*
X-325286Y-29001D01*
X-325249Y-29105D01*
X-325212Y-29193D01*
X-325182Y-29274D01*
X-325153Y-29333D01*
X-325131Y-29378D01*
X-325123Y-29407D01*
X-325116Y-29414D01*
X-325035Y-29562D01*
X-324939Y-29702D01*
X-324843Y-29828D01*
X-324747Y-29953D01*
X-324643Y-30064D01*
X-324540Y-30160D01*
X-324437Y-30256D01*
X-324341Y-30337D01*
X-324245Y-30411D01*
X-324156Y-30477D01*
X-324075Y-30529D01*
X-324009Y-30573D01*
X-323957Y-30610D01*
X-323913Y-30632D01*
X-323883Y-30647D01*
X-323876Y-30654D01*
X-323721Y-30728D01*
X-323559Y-30795D01*
X-323404Y-30854D01*
X-323249Y-30898D01*
X-323086Y-30942D01*
X-322939Y-30979D01*
X-322791Y-31009D01*
X-322658Y-31031D01*
X-322533Y-31045D01*
X-322415Y-31060D01*
X-322311Y-31068D01*
X-322223Y-31075D01*
X-322149Y-31082D01*
X-322053D01*
X-321780Y-31068D01*
X-321514Y-31038D01*
X-321271Y-31001D01*
X-321160Y-30972D01*
X-321049Y-30950D01*
X-320953Y-30927D01*
X-320872Y-30898D01*
X-320791Y-30876D01*
X-320732Y-30861D01*
X-320673Y-30839D01*
X-320636Y-30832D01*
X-320614Y-30817D01*
X-320607D01*
X-320341Y-30706D01*
X-320090Y-30581D01*
X-319861Y-30448D01*
X-319751Y-30381D01*
X-319655Y-30322D01*
X-319566Y-30263D01*
X-319485Y-30204D01*
X-319411Y-30160D01*
X-319352Y-30116D01*
X-319300Y-30079D01*
X-319264Y-30049D01*
X-319241Y-30035D01*
X-319234Y-30027D01*
Y-30972D01*
Y-24042D01*
D02*
G37*
G36*
X-331477Y-25924D02*
X-331551D01*
X-331736Y-25931D01*
X-331913Y-25961D01*
X-332075Y-25998D01*
X-332230Y-26049D01*
X-332370Y-26116D01*
X-332496Y-26182D01*
X-332614Y-26256D01*
X-332717Y-26330D01*
X-332813Y-26411D01*
X-332894Y-26485D01*
X-332961Y-26551D01*
X-333012Y-26618D01*
X-333057Y-26669D01*
X-333094Y-26706D01*
X-333108Y-26736D01*
X-333116Y-26743D01*
Y-26035D01*
X-333869D01*
Y-30972D01*
X-333035D01*
Y-28278D01*
X-333027Y-28108D01*
X-333020Y-27946D01*
X-332998Y-27806D01*
X-332976Y-27673D01*
X-332946Y-27555D01*
X-332916Y-27452D01*
X-332880Y-27356D01*
X-332843Y-27274D01*
X-332806Y-27200D01*
X-332769Y-27141D01*
X-332739Y-27097D01*
X-332710Y-27053D01*
X-332688Y-27023D01*
X-332666Y-27001D01*
X-332658Y-26994D01*
X-332651Y-26987D01*
X-332577Y-26928D01*
X-332496Y-26876D01*
X-332341Y-26787D01*
X-332186Y-26728D01*
X-332046Y-26691D01*
X-331920Y-26662D01*
X-331861Y-26654D01*
X-331817D01*
X-331780Y-26647D01*
X-331728D01*
X-331603Y-26654D01*
X-331492Y-26669D01*
X-331396Y-26699D01*
X-331308Y-26721D01*
X-331241Y-26750D01*
X-331190Y-26780D01*
X-331153Y-26795D01*
X-331145Y-26802D01*
X-331057Y-26861D01*
X-330983Y-26928D01*
X-330924Y-26994D01*
X-330880Y-27060D01*
X-330843Y-27119D01*
X-330821Y-27164D01*
X-330806Y-27193D01*
X-330799Y-27208D01*
X-330762Y-27311D01*
X-330739Y-27429D01*
X-330717Y-27555D01*
X-330710Y-27680D01*
X-330702Y-27791D01*
X-330695Y-27843D01*
Y-27887D01*
Y-27916D01*
Y-27946D01*
Y-27961D01*
Y-27968D01*
Y-30972D01*
X-331865D01*
X-329861D01*
Y-27739D01*
X-329869Y-27643D01*
Y-27562D01*
X-329876Y-27488D01*
Y-27422D01*
X-329883Y-27311D01*
X-329898Y-27230D01*
X-329906Y-27171D01*
X-329913Y-27134D01*
Y-27127D01*
X-329942Y-26994D01*
X-329987Y-26876D01*
X-330024Y-26772D01*
X-330068Y-26684D01*
X-330112Y-26610D01*
X-330142Y-26551D01*
X-330164Y-26522D01*
X-330171Y-26507D01*
X-330245Y-26411D01*
X-330333Y-26330D01*
X-330429Y-26263D01*
X-330518Y-26197D01*
X-330607Y-26153D01*
X-330673Y-26116D01*
X-330717Y-26094D01*
X-330725Y-26086D01*
X-330732D01*
X-330872Y-26035D01*
X-331013Y-25990D01*
X-331153Y-25961D01*
X-331278Y-25946D01*
X-331389Y-25931D01*
X-331433D01*
X-331477Y-25924D01*
D02*
G37*
G36*
X-340474D02*
X-342333D01*
X-340518D01*
X-340621Y-25931D01*
X-340724Y-25953D01*
X-340813Y-25975D01*
X-340894Y-26005D01*
X-340953Y-26042D01*
X-341005Y-26064D01*
X-341035Y-26086D01*
X-341049Y-26094D01*
X-341094Y-26130D01*
X-341145Y-26175D01*
X-341234Y-26271D01*
X-341322Y-26389D01*
X-341404Y-26507D01*
X-341477Y-26610D01*
X-341529Y-26706D01*
X-341551Y-26736D01*
X-341566Y-26765D01*
X-341581Y-26780D01*
Y-26035D01*
X-342333D01*
Y-30972D01*
X-341499D01*
Y-28389D01*
X-341492Y-28197D01*
X-341477Y-28012D01*
X-341455Y-27850D01*
X-341433Y-27702D01*
X-341411Y-27584D01*
X-341396Y-27533D01*
X-341389Y-27488D01*
X-341381Y-27459D01*
X-341374Y-27437D01*
X-341367Y-27422D01*
Y-27415D01*
X-341322Y-27311D01*
X-341278Y-27215D01*
X-341226Y-27141D01*
X-341175Y-27075D01*
X-341130Y-27023D01*
X-341094Y-26987D01*
X-341064Y-26964D01*
X-341057Y-26957D01*
X-340968Y-26898D01*
X-340887Y-26861D01*
X-340806Y-26831D01*
X-340724Y-26809D01*
X-340658Y-26795D01*
X-340606Y-26787D01*
X-340562D01*
X-340444Y-26795D01*
X-340333Y-26817D01*
X-340230Y-26846D01*
X-340142Y-26876D01*
X-340060Y-26913D01*
X-340001Y-26942D01*
X-339964Y-26964D01*
X-339950Y-26972D01*
X-339654Y-26197D01*
X-339817Y-26108D01*
X-339979Y-26042D01*
X-340119Y-25990D01*
X-340252Y-25961D01*
X-340363Y-25939D01*
X-340407Y-25931D01*
X-340444D01*
X-340474Y-25924D01*
D02*
G37*
G36*
X-343042D02*
X-347330D01*
X-345093D01*
X-345322Y-25939D01*
X-345544Y-25968D01*
X-345743Y-26020D01*
X-345831Y-26049D01*
X-345920Y-26071D01*
X-345994Y-26101D01*
X-346060Y-26130D01*
X-346119Y-26153D01*
X-346171Y-26182D01*
X-346215Y-26197D01*
X-346245Y-26212D01*
X-346259Y-26226D01*
X-346267D01*
X-346459Y-26352D01*
X-346621Y-26492D01*
X-346761Y-26647D01*
X-346872Y-26787D01*
X-346961Y-26920D01*
X-346990Y-26979D01*
X-347020Y-27031D01*
X-347042Y-27068D01*
X-347057Y-27097D01*
X-347071Y-27119D01*
Y-27127D01*
X-347160Y-27356D01*
X-347219Y-27599D01*
X-347263Y-27835D01*
X-347300Y-28049D01*
X-347307Y-28153D01*
X-347315Y-28241D01*
X-347322Y-28322D01*
Y-28396D01*
X-347330Y-28448D01*
D01*
D01*
Y-28529D01*
X-347322Y-28750D01*
X-347300Y-28964D01*
X-347271Y-29164D01*
X-347234Y-29348D01*
X-347189Y-29518D01*
X-347138Y-29673D01*
X-347079Y-29813D01*
X-347020Y-29939D01*
X-346968Y-30049D01*
X-346909Y-30152D01*
X-346857Y-30234D01*
X-346813Y-30300D01*
X-346776Y-30359D01*
X-346747Y-30396D01*
X-346725Y-30418D01*
X-346717Y-30426D01*
X-346599Y-30544D01*
X-346474Y-30640D01*
X-346341Y-30728D01*
X-346208Y-30802D01*
X-346068Y-30868D01*
X-345935Y-30920D01*
X-345802Y-30964D01*
X-345676Y-31001D01*
X-345558Y-31031D01*
X-345448Y-31045D01*
X-345344Y-31060D01*
X-345263Y-31075D01*
X-345189D01*
X-345138Y-31082D01*
X-345093D01*
X-344946Y-31075D01*
X-344806Y-31060D01*
X-344673Y-31038D01*
X-344540Y-31009D01*
X-344422Y-30972D01*
X-344311Y-30927D01*
X-344208Y-30891D01*
X-344112Y-30839D01*
X-344031Y-30795D01*
X-343950Y-30758D01*
X-343891Y-30713D01*
X-343831Y-30676D01*
X-343795Y-30647D01*
X-343758Y-30625D01*
X-343743Y-30610D01*
X-343736Y-30603D01*
X-343640Y-30507D01*
X-343544Y-30411D01*
X-343462Y-30300D01*
X-343396Y-30189D01*
X-343330Y-30079D01*
X-343271Y-29968D01*
X-343182Y-29761D01*
X-343145Y-29658D01*
X-343116Y-29570D01*
X-343093Y-29488D01*
X-343071Y-29414D01*
X-343057Y-29355D01*
X-343049Y-29311D01*
X-343042Y-29282D01*
Y-30972D01*
Y-29274D01*
X-343861Y-29164D01*
X-343883Y-29282D01*
X-343905Y-29385D01*
X-343935Y-29488D01*
X-343964Y-29577D01*
X-344001Y-29665D01*
X-344031Y-29739D01*
X-344068Y-29806D01*
X-344105Y-29872D01*
X-344142Y-29924D01*
X-344171Y-29968D01*
X-344230Y-30042D01*
X-344267Y-30086D01*
X-344274Y-30094D01*
X-344282Y-30101D01*
X-344415Y-30197D01*
X-344547Y-30271D01*
X-344688Y-30322D01*
X-344813Y-30359D01*
X-344931Y-30381D01*
X-344975Y-30389D01*
X-345020D01*
X-345057Y-30396D01*
X-345101D01*
X-345212Y-30389D01*
X-345322Y-30374D01*
X-345418Y-30352D01*
X-345514Y-30322D01*
X-345684Y-30256D01*
X-345831Y-30167D01*
X-345890Y-30130D01*
X-345942Y-30086D01*
X-345987Y-30049D01*
X-346031Y-30012D01*
X-346060Y-29990D01*
X-346082Y-29968D01*
X-346090Y-29953D01*
X-346097Y-29946D01*
X-346164Y-29857D01*
X-346223Y-29754D01*
X-346274Y-29643D01*
X-346311Y-29533D01*
X-346385Y-29289D01*
X-346429Y-29053D01*
X-346444Y-28942D01*
X-346451Y-28839D01*
X-346459Y-28743D01*
X-346466Y-28662D01*
X-346474Y-28595D01*
Y-28544D01*
Y-28507D01*
Y-28499D01*
X-346466Y-28322D01*
X-346459Y-28153D01*
X-346437Y-28005D01*
X-346414Y-27865D01*
X-346385Y-27732D01*
X-346348Y-27614D01*
X-346311Y-27510D01*
X-346274Y-27415D01*
X-346245Y-27333D01*
X-346208Y-27260D01*
X-346171Y-27200D01*
X-346142Y-27156D01*
X-346119Y-27112D01*
X-346097Y-27090D01*
X-346090Y-27075D01*
X-346082Y-27068D01*
X-346009Y-26987D01*
X-345927Y-26920D01*
X-345839Y-26854D01*
X-345758Y-26802D01*
X-345669Y-26758D01*
X-345588Y-26721D01*
X-345426Y-26669D01*
X-345278Y-26632D01*
X-345219Y-26625D01*
X-345160Y-26618D01*
X-345116Y-26610D01*
X-345057D01*
X-344909Y-26618D01*
X-344769Y-26647D01*
X-344651Y-26691D01*
X-344547Y-26736D01*
X-344466Y-26787D01*
X-344400Y-26824D01*
X-344363Y-26854D01*
X-344348Y-26868D01*
X-344245Y-26972D01*
X-344156Y-27090D01*
X-344090Y-27215D01*
X-344031Y-27333D01*
X-343987Y-27444D01*
X-343957Y-27533D01*
X-343950Y-27569D01*
X-343942Y-27592D01*
X-343935Y-27606D01*
Y-27614D01*
X-343123Y-27488D01*
X-343153Y-27356D01*
X-343197Y-27223D01*
X-343241Y-27105D01*
X-343285Y-26994D01*
X-343337Y-26891D01*
X-343396Y-26795D01*
X-343448Y-26713D01*
X-343507Y-26632D01*
X-343559Y-26566D01*
X-343610Y-26507D01*
X-343654Y-26455D01*
X-343699Y-26411D01*
X-343728Y-26381D01*
X-343758Y-26359D01*
X-343773Y-26344D01*
X-343780Y-26337D01*
X-343876Y-26263D01*
X-343979Y-26197D01*
X-344090Y-26145D01*
X-344200Y-26101D01*
X-344422Y-26027D01*
X-344629Y-25975D01*
X-344724Y-25961D01*
X-344813Y-25946D01*
X-344894Y-25939D01*
X-344961Y-25931D01*
X-345012Y-25924D01*
X-343042D01*
D02*
G37*
G36*
X-334850D02*
X-339470D01*
X-337160D01*
X-337330Y-25931D01*
X-337492Y-25946D01*
X-337640Y-25975D01*
X-337787Y-26012D01*
X-337928Y-26049D01*
X-338053Y-26101D01*
X-338171Y-26145D01*
X-338274Y-26197D01*
X-338378Y-26248D01*
X-338459Y-26300D01*
X-338533Y-26352D01*
X-338599Y-26389D01*
X-338643Y-26426D01*
X-338680Y-26455D01*
X-338702Y-26470D01*
X-338710Y-26477D01*
X-338843Y-26610D01*
X-338961Y-26750D01*
X-339064Y-26905D01*
X-339153Y-27068D01*
X-339219Y-27237D01*
X-339285Y-27407D01*
X-339337Y-27577D01*
X-339374Y-27739D01*
X-339404Y-27894D01*
X-339433Y-28034D01*
X-339448Y-28167D01*
X-339455Y-28285D01*
X-339463Y-28374D01*
X-339470Y-28448D01*
Y-28440D01*
Y-28448D01*
Y-31082D01*
Y-28507D01*
X-339463Y-28736D01*
X-339440Y-28950D01*
X-339411Y-29149D01*
X-339374Y-29333D01*
X-339322Y-29503D01*
X-339271Y-29658D01*
X-339212Y-29798D01*
X-339153Y-29931D01*
X-339094Y-30042D01*
X-339035Y-30145D01*
X-338983Y-30226D01*
X-338931Y-30293D01*
X-338894Y-30352D01*
X-338865Y-30389D01*
X-338843Y-30411D01*
X-338835Y-30418D01*
X-338710Y-30536D01*
X-338577Y-30640D01*
X-338444Y-30728D01*
X-338304Y-30802D01*
X-338164Y-30868D01*
X-338023Y-30920D01*
X-337891Y-30964D01*
X-337758Y-31001D01*
X-337632Y-31023D01*
X-337522Y-31045D01*
X-337418Y-31060D01*
X-337330Y-31075D01*
X-337256D01*
X-337204Y-31082D01*
X-337160D01*
X-336924Y-31068D01*
X-336702Y-31038D01*
X-336503Y-30986D01*
X-336407Y-30964D01*
X-336326Y-30935D01*
X-336245Y-30905D01*
X-336178Y-30883D01*
X-336119Y-30854D01*
X-336068Y-30832D01*
X-336023Y-30817D01*
X-335994Y-30802D01*
X-335979Y-30787D01*
X-335972D01*
X-335780Y-30662D01*
X-335610Y-30529D01*
X-335470Y-30389D01*
X-335352Y-30248D01*
X-335256Y-30130D01*
X-335219Y-30071D01*
X-335190Y-30027D01*
X-335167Y-29990D01*
X-335153Y-29961D01*
X-335138Y-29946D01*
Y-29939D01*
X-335086Y-29828D01*
X-335042Y-29717D01*
X-334968Y-29474D01*
X-334916Y-29223D01*
X-334887Y-28986D01*
X-334872Y-28876D01*
X-334865Y-28773D01*
X-334858Y-28677D01*
Y-28595D01*
X-334850Y-28529D01*
Y-30972D01*
Y-28440D01*
X-334858Y-28226D01*
X-334880Y-28020D01*
X-334909Y-27828D01*
X-334953Y-27651D01*
X-334998Y-27488D01*
X-335057Y-27341D01*
X-335116Y-27200D01*
X-335175Y-27075D01*
X-335234Y-26964D01*
X-335293Y-26868D01*
X-335352Y-26787D01*
X-335396Y-26721D01*
X-335440Y-26662D01*
X-335470Y-26625D01*
X-335492Y-26603D01*
X-335500Y-26595D01*
X-335625Y-26477D01*
X-335758Y-26374D01*
X-335891Y-26285D01*
X-336031Y-26204D01*
X-336171Y-26145D01*
X-336304Y-26086D01*
X-336444Y-26042D01*
X-336570Y-26005D01*
X-336695Y-25983D01*
X-336806Y-25961D01*
X-336902Y-25946D01*
X-336990Y-25931D01*
X-337064D01*
X-337116Y-25924D01*
X-334850D01*
D01*
D02*
G37*
G36*
X-326334Y-28086D02*
X-328909D01*
Y-28927D01*
X-326334D01*
Y-28086D01*
D02*
G37*
G36*
X-288998Y-24138D02*
Y-30167D01*
X-292356Y-30167D01*
X-292238Y-30005D01*
X-292179Y-29931D01*
X-292120Y-29865D01*
X-292068Y-29806D01*
X-292031Y-29761D01*
X-292002Y-29732D01*
X-291994Y-29724D01*
X-291950Y-29680D01*
X-291891Y-29621D01*
X-291825Y-29562D01*
X-291751Y-29496D01*
X-291596Y-29348D01*
X-291434Y-29208D01*
X-291279Y-29075D01*
X-291212Y-29016D01*
X-291146Y-28964D01*
X-291101Y-28920D01*
X-291057Y-28891D01*
X-291035Y-28868D01*
X-291028Y-28861D01*
X-290865Y-28721D01*
X-290710Y-28588D01*
X-290570Y-28470D01*
X-290445Y-28352D01*
X-290326Y-28249D01*
X-290223Y-28145D01*
X-290127Y-28057D01*
X-290039Y-27975D01*
X-289965Y-27909D01*
X-289906Y-27843D01*
X-289854Y-27791D01*
X-289810Y-27747D01*
X-289780Y-27710D01*
X-289751Y-27688D01*
X-289743Y-27673D01*
X-289736Y-27665D01*
X-289596Y-27503D01*
X-289485Y-27356D01*
X-289389Y-27215D01*
X-289308Y-27090D01*
X-289249Y-26987D01*
X-289205Y-26905D01*
X-289190Y-26876D01*
X-289183Y-26854D01*
X-289175Y-26846D01*
Y-26839D01*
X-289116Y-26691D01*
X-289079Y-26544D01*
X-289050Y-26411D01*
X-289028Y-26285D01*
X-289013Y-26182D01*
X-289005Y-26101D01*
Y-26071D01*
Y-26049D01*
Y-26042D01*
Y-26035D01*
X-289013Y-25887D01*
X-289028Y-25747D01*
X-289057Y-25614D01*
X-289094Y-25481D01*
X-289138Y-25363D01*
X-289190Y-25252D01*
X-289242Y-25149D01*
X-289293Y-25060D01*
X-289345Y-24972D01*
X-289397Y-24898D01*
X-289448Y-24832D01*
X-289493Y-24780D01*
X-289529Y-24743D01*
X-289559Y-24706D01*
X-289574Y-24691D01*
X-289581Y-24684D01*
X-289692Y-24588D01*
X-289810Y-24507D01*
X-289935Y-24433D01*
X-290068Y-24367D01*
X-290194Y-24315D01*
X-290326Y-24271D01*
X-290452Y-24234D01*
X-290577Y-24204D01*
X-290688Y-24182D01*
X-290799Y-24167D01*
X-290895Y-24153D01*
X-290976Y-24145D01*
X-291042Y-24138D01*
X-291138D01*
X-291316Y-24145D01*
X-291485Y-24160D01*
X-291640Y-24182D01*
X-291788Y-24219D01*
X-291928Y-24256D01*
X-292054Y-24300D01*
X-292172Y-24344D01*
X-292275Y-24389D01*
X-292371Y-24440D01*
X-292452Y-24485D01*
X-292526Y-24529D01*
X-292585Y-24566D01*
X-292629Y-24603D01*
X-292659Y-24625D01*
X-292681Y-24640D01*
X-292688Y-24647D01*
X-292791Y-24743D01*
X-292880Y-24854D01*
X-292961Y-24964D01*
X-293035Y-25090D01*
X-293094Y-25208D01*
X-293153Y-25326D01*
X-293197Y-25451D01*
X-293234Y-25562D01*
X-293271Y-25673D01*
X-293293Y-25776D01*
X-293315Y-25872D01*
X-293330Y-25953D01*
X-293338Y-26020D01*
X-293345Y-26064D01*
X-293352Y-26094D01*
Y-26108D01*
X-292496Y-26197D01*
X-292489Y-26079D01*
X-292481Y-25968D01*
X-292437Y-25776D01*
X-292378Y-25599D01*
X-292349Y-25525D01*
X-292312Y-25459D01*
X-292282Y-25400D01*
X-292245Y-25348D01*
X-292216Y-25304D01*
X-292194Y-25267D01*
X-292164Y-25238D01*
X-292149Y-25215D01*
X-292142Y-25208D01*
X-292135Y-25201D01*
X-292061Y-25134D01*
X-291987Y-25075D01*
X-291906Y-25031D01*
X-291825Y-24986D01*
X-291662Y-24920D01*
X-291507Y-24876D01*
X-291374Y-24854D01*
X-291316Y-24839D01*
X-291264D01*
X-291219Y-24832D01*
X-291057D01*
X-290954Y-24846D01*
X-290769Y-24883D01*
X-290614Y-24942D01*
X-290474Y-25001D01*
X-290371Y-25068D01*
X-290326Y-25097D01*
X-290290Y-25127D01*
X-290260Y-25149D01*
X-290238Y-25164D01*
X-290231Y-25171D01*
X-290223Y-25178D01*
X-290157Y-25245D01*
X-290105Y-25311D01*
X-290054Y-25378D01*
X-290017Y-25451D01*
X-289950Y-25592D01*
X-289906Y-25725D01*
X-289884Y-25835D01*
X-289869Y-25887D01*
Y-25931D01*
X-289862Y-25961D01*
Y-25990D01*
Y-26005D01*
Y-26012D01*
X-289869Y-26101D01*
X-289876Y-26190D01*
X-289921Y-26367D01*
X-289987Y-26536D01*
X-290061Y-26691D01*
X-290135Y-26824D01*
X-290164Y-26876D01*
X-290201Y-26928D01*
X-290223Y-26964D01*
X-290245Y-26994D01*
X-290253Y-27009D01*
X-290260Y-27016D01*
X-290341Y-27119D01*
X-290437Y-27230D01*
X-290548Y-27348D01*
X-290666Y-27466D01*
X-290910Y-27710D01*
X-291160Y-27939D01*
X-291279Y-28049D01*
X-291397Y-28145D01*
X-291500Y-28234D01*
X-291588Y-28308D01*
X-291662Y-28374D01*
X-291714Y-28418D01*
X-291751Y-28455D01*
X-291766Y-28462D01*
X-291898Y-28573D01*
X-292017Y-28677D01*
X-292135Y-28773D01*
X-292238Y-28868D01*
X-292341Y-28957D01*
X-292430Y-29046D01*
X-292511Y-29119D01*
X-292585Y-29193D01*
X-292651Y-29260D01*
X-292703Y-29319D01*
X-292755Y-29370D01*
X-292791Y-29407D01*
X-292828Y-29444D01*
X-292850Y-29466D01*
X-292858Y-29481D01*
X-292865Y-29488D01*
X-292998Y-29651D01*
X-293109Y-29813D01*
X-293205Y-29968D01*
X-293279Y-30108D01*
X-293338Y-30226D01*
X-293360Y-30278D01*
X-293382Y-30315D01*
X-293397Y-30352D01*
X-293404Y-30374D01*
X-293411Y-30389D01*
Y-30396D01*
X-293448Y-30499D01*
X-293470Y-30603D01*
X-293493Y-30699D01*
X-293500Y-30787D01*
X-293507Y-30861D01*
Y-30832D01*
Y-30972D01*
X-288998Y-30972D01*
Y-24138D01*
D02*
G37*
G36*
X-313684Y-24160D02*
D01*
Y-30167D01*
X-317042D01*
Y-24160D01*
X-317943D01*
Y-30972D01*
X-313684D01*
Y-24160D01*
D02*
G37*
G36*
X-296540Y-26035D02*
X-301079D01*
D01*
X-299212Y-30972D01*
X-298415D01*
X-296540Y-26035D01*
Y-30927D01*
Y-26035D01*
D02*
G37*
G36*
X-294614Y-30020D02*
X-295566D01*
Y-30972D01*
X-294614D01*
Y-30020D01*
D02*
G37*
G36*
X-304614Y-24160D02*
X-309980D01*
Y-30972D01*
X-304614D01*
Y-24160D01*
D02*
G37*
G36*
X-311559D02*
X-312459D01*
Y-30972D01*
X-311559D01*
Y-24160D01*
D02*
G37*
G36*
X-348356D02*
X-349189Y-24160D01*
Y-25112D01*
X-348356Y-25112D01*
Y-26035D01*
X-349189Y-26035D01*
Y-30972D01*
X-348356Y-30972D01*
Y-24160D01*
D02*
G37*
G36*
X-350540Y-24160D02*
X-357049D01*
Y-30972D01*
X-356178D01*
Y-25171D01*
X-354215Y-30972D01*
X-353403D01*
D01*
X-352684D01*
X-353403D01*
X-351411Y-25267D01*
Y-30972D01*
X-350540D01*
Y-24160D01*
D02*
G37*
G36*
X-322234Y-31082D02*
X-325529D01*
D01*
X-322234D01*
D02*
G37*
%LPD*%
G36*
X-337049Y-26625D02*
X-336939Y-26640D01*
X-336835Y-26662D01*
X-336739Y-26691D01*
X-336562Y-26765D01*
X-336407Y-26854D01*
X-336348Y-26898D01*
X-336289Y-26942D01*
X-336245Y-26979D01*
X-336201Y-27016D01*
X-336171Y-27046D01*
X-336149Y-27068D01*
X-336134Y-27082D01*
X-336127Y-27090D01*
X-336053Y-27186D01*
X-335987Y-27282D01*
X-335935Y-27392D01*
X-335883Y-27503D01*
X-335839Y-27621D01*
X-335809Y-27739D01*
X-335758Y-27961D01*
X-335743Y-28064D01*
X-335728Y-28160D01*
X-335721Y-28249D01*
X-335714Y-28330D01*
X-335706Y-28389D01*
Y-28440D01*
Y-28470D01*
Y-28477D01*
X-335714Y-28654D01*
X-335721Y-28817D01*
X-335743Y-28972D01*
X-335773Y-29112D01*
X-335802Y-29245D01*
X-335839Y-29363D01*
X-335876Y-29474D01*
X-335913Y-29562D01*
X-335957Y-29651D01*
X-335994Y-29724D01*
X-336031Y-29783D01*
X-336060Y-29835D01*
X-336090Y-29872D01*
X-336112Y-29902D01*
X-336119Y-29916D01*
X-336127Y-29924D01*
X-336208Y-30005D01*
X-336289Y-30079D01*
X-336378Y-30145D01*
X-336459Y-30197D01*
X-336547Y-30241D01*
X-336636Y-30278D01*
X-336798Y-30337D01*
X-336939Y-30374D01*
X-337005Y-30381D01*
X-337057Y-30389D01*
X-337101Y-30396D01*
X-337160D01*
X-337278Y-30389D01*
X-337381Y-30374D01*
X-337492Y-30352D01*
X-337588Y-30322D01*
X-337765Y-30248D01*
X-337913Y-30160D01*
X-337979Y-30123D01*
X-338038Y-30079D01*
X-338083Y-30042D01*
X-338127Y-30005D01*
X-338156Y-29975D01*
X-338178Y-29953D01*
X-338193Y-29939D01*
X-338201Y-29931D01*
X-338274Y-29835D01*
X-338333Y-29732D01*
X-338392Y-29621D01*
X-338437Y-29511D01*
X-338511Y-29274D01*
X-338562Y-29038D01*
X-338577Y-28935D01*
X-338592Y-28831D01*
X-338599Y-28743D01*
X-338607Y-28662D01*
X-338614Y-28595D01*
Y-28551D01*
Y-28514D01*
Y-28507D01*
X-338607Y-28337D01*
X-338599Y-28175D01*
X-338577Y-28027D01*
X-338547Y-27887D01*
X-338518Y-27761D01*
X-338481Y-27643D01*
X-338444Y-27540D01*
X-338407Y-27444D01*
X-338370Y-27363D01*
X-338333Y-27289D01*
X-338297Y-27230D01*
X-338267Y-27178D01*
X-338238Y-27141D01*
X-338215Y-27112D01*
X-338208Y-27097D01*
X-338201Y-27090D01*
X-338119Y-27009D01*
X-338038Y-26935D01*
X-337950Y-26868D01*
X-337861Y-26817D01*
X-337773Y-26772D01*
X-337691Y-26736D01*
X-337522Y-26677D01*
X-337381Y-26640D01*
X-337315Y-26632D01*
X-337263Y-26625D01*
X-337219Y-26618D01*
X-337160D01*
X-337049Y-26625D01*
D02*
G37*
G36*
X-298504Y-29053D02*
X-298577Y-29252D01*
X-298636Y-29429D01*
X-298688Y-29592D01*
X-298732Y-29724D01*
X-298769Y-29835D01*
X-298784Y-29880D01*
X-298791Y-29924D01*
X-298799Y-29953D01*
X-298806Y-29975D01*
X-298814Y-29983D01*
Y-29990D01*
X-298873Y-29798D01*
X-298924Y-29614D01*
X-298976Y-29444D01*
X-299028Y-29296D01*
X-299072Y-29171D01*
X-299087Y-29119D01*
X-299101Y-29075D01*
X-299116Y-29038D01*
X-299124Y-29016D01*
X-299131Y-29001D01*
Y-28994D01*
X-300194Y-26035D01*
X-297404D01*
X-298504Y-29053D01*
D02*
G37*
G36*
X-305478Y-29511D02*
X-309057Y-24160D01*
X-305478D01*
Y-29511D01*
D02*
G37*
G36*
X-305544Y-30972D02*
X-309116D01*
Y-25629D01*
X-305544Y-30972D01*
D02*
G37*
G36*
X-353396Y-28898D02*
X-353440Y-29031D01*
X-353485Y-29149D01*
X-353521Y-29267D01*
X-353558Y-29370D01*
X-353588Y-29474D01*
X-353617Y-29562D01*
X-353647Y-29643D01*
X-353669Y-29717D01*
X-353691Y-29776D01*
X-353706Y-29835D01*
X-353721Y-29880D01*
X-353735Y-29924D01*
X-353743Y-29953D01*
X-353750Y-29975D01*
X-353758Y-29983D01*
Y-29990D01*
X-353780Y-29924D01*
X-353802Y-29850D01*
X-353854Y-29695D01*
X-353905Y-29525D01*
X-353957Y-29363D01*
X-354009Y-29215D01*
X-354031Y-29149D01*
X-354045Y-29097D01*
X-354060Y-29053D01*
X-354075Y-29016D01*
X-354082Y-28994D01*
Y-28986D01*
X-355699Y-24160D01*
X-351758D01*
X-353396Y-28898D01*
D02*
G37*
%LPC*%
G36*
X-361706Y-32445D02*
X-361831D01*
X-362082Y-32452D01*
X-362318Y-32482D01*
X-362525Y-32519D01*
X-362621Y-32541D01*
X-362710Y-32563D01*
X-362791Y-32585D01*
X-362865Y-32607D01*
X-362931Y-32629D01*
X-362983Y-32644D01*
X-363019Y-32659D01*
X-363056Y-32674D01*
X-363071Y-32681D01*
X-363079D01*
X-363278Y-32777D01*
X-363448Y-32888D01*
X-363595Y-32998D01*
X-363713Y-33109D01*
X-363809Y-33212D01*
X-363883Y-33294D01*
X-363905Y-33323D01*
X-363920Y-33345D01*
X-363935Y-33360D01*
Y-33367D01*
X-364031Y-33537D01*
X-364104Y-33707D01*
X-364149Y-33862D01*
X-364186Y-34009D01*
X-364208Y-34142D01*
X-364215Y-34194D01*
Y-34238D01*
X-364223Y-34275D01*
Y-34304D01*
Y-34319D01*
Y-34327D01*
X-364215Y-34496D01*
X-364186Y-34659D01*
X-364149Y-34806D01*
X-364104Y-34932D01*
X-364060Y-35035D01*
X-364023Y-35116D01*
X-364008Y-35146D01*
X-363994Y-35168D01*
X-363986Y-35175D01*
Y-35183D01*
X-363890Y-35316D01*
X-363772Y-35441D01*
X-363654Y-35544D01*
X-363529Y-35640D01*
X-363425Y-35714D01*
X-363337Y-35766D01*
X-363300Y-35781D01*
X-363278Y-35795D01*
X-363263Y-35810D01*
X-363256D01*
X-363182Y-35847D01*
X-363093Y-35884D01*
X-362997Y-35921D01*
X-362894Y-35958D01*
X-362680Y-36031D01*
X-362459Y-36098D01*
X-362355Y-36127D01*
X-362267Y-36157D01*
X-362178Y-36179D01*
X-362097Y-36201D01*
X-362038Y-36216D01*
X-361986Y-36231D01*
X-361957Y-36238D01*
X-361949D01*
X-361780Y-36275D01*
X-361625Y-36319D01*
X-361492Y-36349D01*
X-361366Y-36386D01*
X-361256Y-36415D01*
X-361152Y-36437D01*
X-361071Y-36467D01*
X-360990Y-36489D01*
X-360931Y-36504D01*
X-360872Y-36526D01*
X-360828Y-36541D01*
X-360798Y-36548D01*
X-360769Y-36555D01*
X-360754Y-36563D01*
X-360739Y-36570D01*
X-360592Y-36637D01*
X-360466Y-36703D01*
X-360355Y-36770D01*
X-360274Y-36829D01*
X-360208Y-36887D01*
X-360163Y-36932D01*
X-360134Y-36961D01*
X-360127Y-36969D01*
X-360060Y-37057D01*
X-360016Y-37153D01*
X-359979Y-37249D01*
X-359957Y-37338D01*
X-359942Y-37411D01*
X-359935Y-37478D01*
Y-37515D01*
Y-37522D01*
Y-37530D01*
X-359942Y-37640D01*
X-359964Y-37751D01*
X-360001Y-37847D01*
X-360031Y-37936D01*
X-360068Y-38009D01*
X-360104Y-38068D01*
X-360127Y-38098D01*
X-360134Y-38113D01*
X-360215Y-38209D01*
X-360304Y-38290D01*
X-360407Y-38364D01*
X-360503Y-38423D01*
X-360592Y-38467D01*
X-360658Y-38504D01*
X-360687Y-38519D01*
X-360710Y-38526D01*
X-360717Y-38533D01*
X-360724D01*
X-360872Y-38585D01*
X-361027Y-38622D01*
X-361182Y-38644D01*
X-361322Y-38659D01*
X-361440Y-38673D01*
X-361492D01*
X-361536Y-38681D01*
X-361625D01*
X-361839Y-38673D01*
X-362031Y-38651D01*
X-362215Y-38614D01*
X-362370Y-38578D01*
X-362437Y-38563D01*
X-362496Y-38548D01*
X-362547Y-38526D01*
X-362592Y-38511D01*
X-362628Y-38496D01*
X-362650Y-38489D01*
X-362665Y-38482D01*
X-362673D01*
X-362835Y-38400D01*
X-362975Y-38312D01*
X-363093Y-38231D01*
X-363189Y-38142D01*
X-363263Y-38068D01*
X-363315Y-38009D01*
X-363352Y-37972D01*
X-363359Y-37958D01*
X-363433Y-37825D01*
X-363492Y-37685D01*
X-363536Y-37544D01*
X-363573Y-37411D01*
X-363603Y-37286D01*
X-363610Y-37242D01*
X-363617Y-37198D01*
X-363625Y-37161D01*
X-363632Y-37131D01*
Y-37116D01*
Y-37109D01*
X-364481Y-37183D01*
X-364473Y-37308D01*
X-364459Y-37434D01*
X-364414Y-37662D01*
X-364355Y-37876D01*
X-364326Y-37972D01*
X-364289Y-38054D01*
X-364259Y-38135D01*
X-364223Y-38209D01*
X-364193Y-38268D01*
X-364163Y-38319D01*
X-364141Y-38364D01*
X-364126Y-38393D01*
X-364119Y-38408D01*
X-364112Y-38415D01*
X-363971Y-38607D01*
X-363809Y-38769D01*
X-363647Y-38910D01*
X-363492Y-39020D01*
X-363352Y-39109D01*
X-363293Y-39138D01*
X-363241Y-39168D01*
X-363197Y-39190D01*
X-363167Y-39205D01*
X-363145Y-39220D01*
X-363138D01*
X-362887Y-39308D01*
X-362628Y-39375D01*
X-362370Y-39419D01*
X-362126Y-39448D01*
X-362009Y-39463D01*
X-361905Y-39470D01*
X-361817Y-39478D01*
X-361735D01*
X-361669Y-39485D01*
X-364481D01*
X-359064D01*
Y-39301D01*
Y-39485D01*
X-361580D01*
X-361315Y-39470D01*
X-361071Y-39441D01*
X-360850Y-39404D01*
X-360747Y-39375D01*
X-360658Y-39353D01*
X-360569Y-39330D01*
X-360496Y-39301D01*
X-360429Y-39279D01*
X-360378Y-39264D01*
X-360333Y-39242D01*
X-360304Y-39234D01*
X-360282Y-39220D01*
X-360274D01*
X-360068Y-39109D01*
X-359890Y-38991D01*
X-359735Y-38865D01*
X-359610Y-38747D01*
X-359507Y-38637D01*
X-359440Y-38555D01*
X-359411Y-38519D01*
X-359396Y-38496D01*
X-359381Y-38482D01*
Y-38474D01*
X-359322Y-38386D01*
X-359278Y-38290D01*
X-359197Y-38113D01*
X-359138Y-37943D01*
X-359101Y-37788D01*
X-359079Y-37648D01*
X-359071Y-37596D01*
Y-37544D01*
X-359064Y-37508D01*
Y-39301D01*
Y-37508D01*
Y-37456D01*
X-359079Y-37257D01*
X-359108Y-37072D01*
X-359152Y-36910D01*
X-359204Y-36770D01*
X-359263Y-36651D01*
X-359285Y-36600D01*
X-359307Y-36563D01*
X-359322Y-36533D01*
X-359337Y-36511D01*
X-359352Y-36496D01*
Y-36489D01*
X-359411Y-36415D01*
X-359470Y-36341D01*
X-359610Y-36201D01*
X-359750Y-36083D01*
X-359898Y-35987D01*
X-360023Y-35906D01*
X-360082Y-35869D01*
X-360134Y-35847D01*
X-360171Y-35825D01*
X-360200Y-35810D01*
X-360223Y-35795D01*
X-360230D01*
X-360311Y-35758D01*
X-360414Y-35721D01*
X-360518Y-35685D01*
X-360636Y-35648D01*
X-360887Y-35581D01*
X-361138Y-35515D01*
X-361256Y-35478D01*
X-361366Y-35456D01*
X-361470Y-35426D01*
X-361558Y-35412D01*
X-361632Y-35389D01*
X-361684Y-35375D01*
X-361721Y-35367D01*
X-361735D01*
X-361935Y-35323D01*
X-362112Y-35271D01*
X-362267Y-35227D01*
X-362414Y-35183D01*
X-362540Y-35138D01*
X-362650Y-35102D01*
X-362747Y-35065D01*
X-362828Y-35028D01*
X-362894Y-34991D01*
X-362953Y-34961D01*
X-362997Y-34939D01*
X-363034Y-34917D01*
X-363064Y-34895D01*
X-363079Y-34880D01*
X-363093Y-34873D01*
X-363182Y-34777D01*
X-363241Y-34681D01*
X-363285Y-34578D01*
X-363322Y-34482D01*
X-363337Y-34400D01*
X-363344Y-34334D01*
X-363352Y-34290D01*
Y-34282D01*
Y-34275D01*
X-363344Y-34194D01*
X-363337Y-34120D01*
X-363293Y-33987D01*
X-363234Y-33862D01*
X-363167Y-33758D01*
X-363101Y-33670D01*
X-363042Y-33603D01*
X-362997Y-33566D01*
X-362990Y-33552D01*
X-362983D01*
X-362909Y-33500D01*
X-362820Y-33448D01*
X-362636Y-33375D01*
X-362444Y-33323D01*
X-362245Y-33286D01*
X-362156Y-33271D01*
X-362068Y-33264D01*
X-361994Y-33257D01*
X-361927D01*
X-361868Y-33249D01*
X-361654D01*
X-361521Y-33264D01*
X-361396Y-33279D01*
X-361278Y-33301D01*
X-361175Y-33323D01*
X-361079Y-33353D01*
X-360990Y-33382D01*
X-360909Y-33412D01*
X-360842Y-33448D01*
X-360783Y-33478D01*
X-360732Y-33507D01*
X-360687Y-33530D01*
X-360658Y-33552D01*
X-360628Y-33566D01*
X-360621Y-33574D01*
X-360614Y-33581D01*
X-360540Y-33648D01*
X-360473Y-33714D01*
X-360370Y-33869D01*
X-360282Y-34032D01*
X-360223Y-34187D01*
X-360178Y-34327D01*
X-360163Y-34386D01*
X-360149Y-34445D01*
X-360141Y-34489D01*
Y-34519D01*
X-360134Y-34541D01*
Y-34548D01*
X-359271Y-34482D01*
X-359293Y-34260D01*
X-359337Y-34061D01*
X-359389Y-33876D01*
X-359448Y-33722D01*
X-359485Y-33655D01*
X-359507Y-33589D01*
X-359536Y-33537D01*
X-359558Y-33493D01*
X-359580Y-33456D01*
X-359595Y-33434D01*
X-359603Y-33419D01*
X-359610Y-33412D01*
X-359735Y-33242D01*
X-359876Y-33102D01*
X-360023Y-32976D01*
X-360171Y-32873D01*
X-360296Y-32799D01*
X-360355Y-32770D01*
X-360400Y-32740D01*
X-360437Y-32718D01*
X-360473Y-32710D01*
X-360488Y-32696D01*
X-360496D01*
X-360717Y-32614D01*
X-360946Y-32548D01*
X-361175Y-32504D01*
X-361381Y-32474D01*
X-361477Y-32467D01*
X-361558Y-32460D01*
X-361639Y-32452D01*
X-361706Y-32445D01*
D02*
G37*
G36*
X-343389Y-32563D02*
X-344223D01*
Y-35013D01*
X-344311Y-34902D01*
X-344407Y-34806D01*
X-344503Y-34725D01*
X-344592Y-34651D01*
X-344673Y-34592D01*
X-344732Y-34556D01*
X-344776Y-34526D01*
X-344784Y-34519D01*
X-344791D01*
X-344924Y-34452D01*
X-345064Y-34408D01*
X-345197Y-34371D01*
X-345322Y-34349D01*
X-345426Y-34334D01*
X-345514Y-34327D01*
X-345699D01*
X-345809Y-34341D01*
X-346016Y-34378D01*
X-346200Y-34430D01*
X-346363Y-34489D01*
X-346437Y-34519D01*
X-346496Y-34548D01*
X-346555Y-34578D01*
X-346599Y-34600D01*
X-346636Y-34622D01*
X-346666Y-34637D01*
X-346680Y-34644D01*
X-346688Y-34651D01*
X-346865Y-34784D01*
X-347012Y-34932D01*
X-347138Y-35079D01*
X-347241Y-35234D01*
X-347322Y-35367D01*
X-347352Y-35426D01*
X-347381Y-35471D01*
X-347396Y-35515D01*
X-347411Y-35544D01*
X-347426Y-35566D01*
Y-35574D01*
X-347507Y-35803D01*
X-347566Y-36039D01*
X-347610Y-36260D01*
X-347640Y-36467D01*
X-347647Y-36563D01*
X-347654Y-36651D01*
X-347662Y-36725D01*
Y-36792D01*
X-347669Y-36843D01*
Y-36917D01*
X-347654Y-37190D01*
X-347625Y-37441D01*
X-347610Y-37559D01*
X-347588Y-37670D01*
X-347558Y-37773D01*
X-347536Y-37869D01*
X-347514Y-37950D01*
X-347485Y-38031D01*
X-347463Y-38098D01*
X-347448Y-38149D01*
X-347426Y-38194D01*
X-347418Y-38223D01*
X-347404Y-38245D01*
Y-38253D01*
X-347293Y-38460D01*
X-347167Y-38644D01*
X-347042Y-38799D01*
X-346916Y-38924D01*
X-346806Y-39028D01*
X-346761Y-39065D01*
X-346717Y-39101D01*
X-346680Y-39124D01*
X-346658Y-39146D01*
X-346643Y-39153D01*
X-346636Y-39161D01*
X-346540Y-39220D01*
X-346444Y-39264D01*
X-346259Y-39345D01*
X-346075Y-39404D01*
X-345905Y-39441D01*
X-345831Y-39456D01*
X-345765Y-39470D01*
X-345706Y-39478D01*
X-345654D01*
X-345610Y-39485D01*
X-347669D01*
D01*
X-343389D01*
Y-32563D01*
D02*
G37*
G36*
X-334385Y-34327D02*
X-334459D01*
X-334643Y-34334D01*
X-334821Y-34364D01*
X-334983Y-34400D01*
X-335138Y-34452D01*
X-335278Y-34519D01*
X-335404Y-34585D01*
X-335522Y-34659D01*
X-335625Y-34733D01*
X-335721Y-34814D01*
X-335802Y-34887D01*
X-335869Y-34954D01*
X-335920Y-35020D01*
X-335964Y-35072D01*
X-336001Y-35109D01*
X-336016Y-35138D01*
X-336023Y-35146D01*
Y-34437D01*
X-336776D01*
Y-39375D01*
X-335942D01*
Y-36681D01*
X-335935Y-36511D01*
X-335928Y-36349D01*
X-335905Y-36209D01*
X-335883Y-36076D01*
X-335854Y-35958D01*
X-335824Y-35854D01*
X-335787Y-35758D01*
X-335750Y-35677D01*
X-335714Y-35603D01*
X-335677Y-35544D01*
X-335647Y-35500D01*
X-335618Y-35456D01*
X-335595Y-35426D01*
X-335573Y-35404D01*
X-335566Y-35397D01*
X-335559Y-35389D01*
X-335485Y-35330D01*
X-335404Y-35279D01*
X-335249Y-35190D01*
X-335094Y-35131D01*
X-334953Y-35094D01*
X-334828Y-35065D01*
X-334769Y-35057D01*
X-334725D01*
X-334688Y-35050D01*
X-334636D01*
X-334511Y-35057D01*
X-334400Y-35072D01*
X-334304Y-35102D01*
X-334215Y-35124D01*
X-334149Y-35153D01*
X-334097Y-35183D01*
X-334060Y-35197D01*
X-334053Y-35205D01*
X-333964Y-35264D01*
X-333891Y-35330D01*
X-333832Y-35397D01*
X-333787Y-35463D01*
X-333751Y-35522D01*
X-333728Y-35566D01*
X-333714Y-35596D01*
X-333706Y-35611D01*
X-333669Y-35714D01*
X-333647Y-35832D01*
X-333625Y-35958D01*
X-333618Y-36083D01*
X-333610Y-36194D01*
X-333603Y-36246D01*
Y-36290D01*
Y-36319D01*
Y-36349D01*
Y-36364D01*
Y-36371D01*
Y-39375D01*
X-334773D01*
X-332769D01*
Y-36142D01*
X-332776Y-36046D01*
Y-35965D01*
X-332784Y-35891D01*
Y-35825D01*
X-332791Y-35714D01*
X-332806Y-35633D01*
X-332813Y-35574D01*
X-332821Y-35537D01*
Y-35530D01*
X-332850Y-35397D01*
X-332894Y-35279D01*
X-332931Y-35175D01*
X-332976Y-35087D01*
X-333020Y-35013D01*
X-333049Y-34954D01*
X-333071Y-34925D01*
X-333079Y-34910D01*
X-333153Y-34814D01*
X-333241Y-34733D01*
X-333337Y-34666D01*
X-333426Y-34600D01*
X-333514Y-34556D01*
X-333581Y-34519D01*
X-333625Y-34496D01*
X-333632Y-34489D01*
X-333640D01*
X-333780Y-34437D01*
X-333920Y-34393D01*
X-334060Y-34364D01*
X-334186Y-34349D01*
X-334297Y-34334D01*
X-334341D01*
X-334385Y-34327D01*
D02*
G37*
G36*
X-353935Y-32563D02*
D01*
Y-35308D01*
Y-32563D01*
D02*
G37*
G36*
X-283249Y-34327D02*
X-283345D01*
X-283485Y-34334D01*
X-283618Y-34341D01*
X-283744Y-34356D01*
X-283847Y-34378D01*
X-283943Y-34400D01*
X-284009Y-34415D01*
X-284053Y-34423D01*
X-284061Y-34430D01*
X-284068D01*
X-284186Y-34467D01*
X-284297Y-34511D01*
X-284386Y-34555D01*
X-284459Y-34592D01*
X-284519Y-34622D01*
X-284563Y-34651D01*
X-284592Y-34666D01*
X-284600Y-34674D01*
X-284696Y-34747D01*
X-284777Y-34821D01*
X-284851Y-34902D01*
X-284902Y-34976D01*
X-284954Y-35043D01*
X-284983Y-35094D01*
X-285005Y-35124D01*
X-285013Y-35138D01*
X-285065Y-35242D01*
X-285102Y-35353D01*
X-285124Y-35456D01*
X-285138Y-35552D01*
X-285153Y-35633D01*
X-285160Y-35692D01*
Y-35736D01*
Y-35744D01*
Y-35751D01*
X-285153Y-35884D01*
X-285131Y-36009D01*
X-285102Y-36120D01*
X-285072Y-36216D01*
X-285043Y-36297D01*
X-285013Y-36364D01*
X-284991Y-36400D01*
X-284983Y-36415D01*
X-284910Y-36518D01*
X-284821Y-36615D01*
X-284733Y-36688D01*
X-284644Y-36755D01*
X-284563Y-36814D01*
X-284504Y-36851D01*
X-284459Y-36873D01*
X-284452Y-36880D01*
X-284445D01*
X-284371Y-36910D01*
X-284282Y-36947D01*
X-284194Y-36983D01*
X-284090Y-37013D01*
X-283876Y-37079D01*
X-283670Y-37146D01*
X-283566Y-37175D01*
X-283471Y-37205D01*
X-283382Y-37227D01*
X-283308Y-37249D01*
X-283249Y-37264D01*
X-283197Y-37279D01*
X-283168Y-37286D01*
X-283161D01*
X-283043Y-37316D01*
X-282932Y-37345D01*
X-282828Y-37375D01*
X-282740Y-37404D01*
X-282659Y-37426D01*
X-282592Y-37448D01*
X-282533Y-37470D01*
X-282474Y-37493D01*
X-282430Y-37507D01*
X-282393Y-37522D01*
X-282341Y-37544D01*
X-282312Y-37559D01*
X-282305Y-37567D01*
X-282223Y-37633D01*
X-282157Y-37707D01*
X-282113Y-37780D01*
X-282083Y-37854D01*
X-282068Y-37913D01*
X-282053Y-37972D01*
Y-38002D01*
Y-38017D01*
X-282068Y-38135D01*
X-282098Y-38238D01*
X-282142Y-38334D01*
X-282194Y-38415D01*
X-282245Y-38482D01*
X-282290Y-38526D01*
X-282319Y-38563D01*
X-282334Y-38570D01*
X-282452Y-38644D01*
X-282585Y-38703D01*
X-282733Y-38740D01*
X-282873Y-38769D01*
X-282998Y-38784D01*
X-283050Y-38792D01*
X-283102D01*
X-283138Y-38799D01*
X-283197D01*
X-283397Y-38784D01*
X-283574Y-38755D01*
X-283729Y-38718D01*
X-283854Y-38666D01*
X-283958Y-38622D01*
X-284031Y-38577D01*
X-284076Y-38548D01*
X-284083Y-38541D01*
X-284090D01*
X-284201Y-38430D01*
X-284282Y-38312D01*
X-284349Y-38179D01*
X-284400Y-38054D01*
X-284437Y-37943D01*
X-284452Y-37899D01*
X-284459Y-37854D01*
X-284467Y-37817D01*
Y-37795D01*
X-284474Y-37780D01*
Y-37773D01*
X-285301Y-37906D01*
D01*
X-285271Y-38046D01*
X-285234Y-38186D01*
X-285190Y-38312D01*
X-285146Y-38423D01*
X-285094Y-38533D01*
X-285043Y-38629D01*
X-284991Y-38718D01*
X-284932Y-38799D01*
X-284880Y-38865D01*
X-284828Y-38924D01*
X-284784Y-38976D01*
X-284747Y-39020D01*
X-284710Y-39050D01*
X-284688Y-39072D01*
X-284674Y-39087D01*
X-284666Y-39094D01*
X-284563Y-39161D01*
X-284459Y-39220D01*
X-284341Y-39279D01*
X-284223Y-39323D01*
X-283972Y-39389D01*
X-283736Y-39434D01*
X-283626Y-39456D01*
X-283522Y-39463D01*
X-283426Y-39470D01*
X-283352Y-39478D01*
X-283286Y-39485D01*
X-285301D01*
D01*
X-281198D01*
Y-37928D01*
X-281205Y-37773D01*
X-281227Y-37633D01*
X-281264Y-37515D01*
X-281301Y-37411D01*
X-281338Y-37323D01*
X-281375Y-37264D01*
X-281397Y-37227D01*
X-281404Y-37212D01*
X-281485Y-37109D01*
X-281574Y-37020D01*
X-281670Y-36947D01*
X-281758Y-36887D01*
X-281832Y-36836D01*
X-281899Y-36806D01*
X-281943Y-36784D01*
X-281950Y-36777D01*
X-281958D01*
X-282031Y-36747D01*
X-282113Y-36718D01*
X-282201Y-36681D01*
X-282297Y-36651D01*
X-282496Y-36585D01*
X-282703Y-36526D01*
X-282799Y-36496D01*
X-282895Y-36467D01*
X-282976Y-36445D01*
X-283043Y-36423D01*
X-283109Y-36408D01*
X-283153Y-36393D01*
X-283183Y-36386D01*
X-283190D01*
X-283301Y-36356D01*
X-283397Y-36327D01*
X-283485Y-36305D01*
X-283566Y-36282D01*
X-283633Y-36260D01*
X-283692Y-36246D01*
X-283744Y-36231D01*
X-283788Y-36216D01*
X-283854Y-36194D01*
X-283898Y-36179D01*
X-283921Y-36172D01*
X-283928D01*
X-284002Y-36135D01*
X-284068Y-36098D01*
X-284127Y-36061D01*
X-284172Y-36024D01*
X-284208Y-35994D01*
X-284231Y-35972D01*
X-284245Y-35958D01*
X-284253Y-35950D01*
X-284282Y-35899D01*
X-284304Y-35847D01*
X-284334Y-35751D01*
X-284341Y-35714D01*
X-284349Y-35685D01*
Y-35662D01*
Y-35655D01*
X-284341Y-35559D01*
X-284312Y-35478D01*
X-284275Y-35397D01*
X-284223Y-35330D01*
X-284179Y-35279D01*
X-284142Y-35242D01*
X-284113Y-35212D01*
X-284105Y-35205D01*
X-284053Y-35168D01*
X-284002Y-35138D01*
X-283876Y-35094D01*
X-283736Y-35057D01*
X-283603Y-35035D01*
X-283478Y-35020D01*
X-283426D01*
X-283382Y-35013D01*
X-283286D01*
X-283109Y-35020D01*
X-282961Y-35050D01*
X-282828Y-35079D01*
X-282718Y-35124D01*
X-282637Y-35161D01*
X-282577Y-35197D01*
X-282541Y-35227D01*
X-282526Y-35234D01*
X-282437Y-35323D01*
X-282364Y-35419D01*
X-282305Y-35515D01*
X-282260Y-35611D01*
X-282231Y-35692D01*
X-282216Y-35766D01*
X-282201Y-35810D01*
Y-35817D01*
Y-35825D01*
X-281382Y-35714D01*
X-281419Y-35544D01*
X-281463Y-35397D01*
X-281507Y-35264D01*
X-281559Y-35153D01*
X-281603Y-35072D01*
X-281640Y-35006D01*
X-281670Y-34969D01*
X-281677Y-34954D01*
X-281766Y-34851D01*
X-281869Y-34762D01*
X-281972Y-34681D01*
X-282076Y-34615D01*
X-282179Y-34563D01*
X-282253Y-34526D01*
X-282282Y-34511D01*
X-282305Y-34504D01*
X-282319Y-34496D01*
X-282327D01*
X-282496Y-34437D01*
X-282666Y-34400D01*
X-282843Y-34371D01*
X-282998Y-34349D01*
X-283138Y-34334D01*
X-283197D01*
X-283249Y-34327D01*
D02*
G37*
G36*
X-288009D02*
X-288105D01*
X-288245Y-34334D01*
X-288378Y-34341D01*
X-288504Y-34356D01*
X-288607Y-34378D01*
X-288703Y-34400D01*
X-288769Y-34415D01*
X-288814Y-34423D01*
X-288821Y-34430D01*
X-288828D01*
X-288947Y-34467D01*
X-289057Y-34511D01*
X-289146Y-34555D01*
X-289219Y-34592D01*
X-289279Y-34622D01*
X-289323Y-34651D01*
X-289352Y-34666D01*
X-289360Y-34674D01*
X-289456Y-34747D01*
X-289537Y-34821D01*
X-289611Y-34902D01*
X-289662Y-34976D01*
X-289714Y-35043D01*
X-289743Y-35094D01*
X-289766Y-35124D01*
X-289773Y-35138D01*
X-289825Y-35242D01*
X-289862Y-35353D01*
X-289884Y-35456D01*
X-289898Y-35552D01*
X-289913Y-35633D01*
X-289921Y-35692D01*
Y-35736D01*
Y-35744D01*
Y-35751D01*
X-289913Y-35884D01*
X-289891Y-36009D01*
X-289862Y-36120D01*
X-289832Y-36216D01*
X-289803Y-36297D01*
X-289773Y-36364D01*
X-289751Y-36400D01*
X-289743Y-36415D01*
X-289670Y-36518D01*
X-289581Y-36615D01*
X-289493Y-36688D01*
X-289404Y-36755D01*
X-289323Y-36814D01*
X-289264Y-36851D01*
X-289219Y-36873D01*
X-289212Y-36880D01*
X-289205D01*
X-289131Y-36910D01*
X-289042Y-36947D01*
X-288954Y-36983D01*
X-288850Y-37013D01*
X-288636Y-37079D01*
X-288430Y-37146D01*
X-288327Y-37175D01*
X-288231Y-37205D01*
X-288142Y-37227D01*
X-288068Y-37249D01*
X-288009Y-37264D01*
X-287958Y-37279D01*
X-287928Y-37286D01*
X-287921D01*
X-287803Y-37316D01*
X-287692Y-37345D01*
X-287589Y-37375D01*
X-287500Y-37404D01*
X-287419Y-37426D01*
X-287352Y-37448D01*
X-287293Y-37470D01*
X-287234Y-37493D01*
X-287190Y-37507D01*
X-287153Y-37522D01*
X-287102Y-37544D01*
X-287072Y-37559D01*
X-287065Y-37567D01*
X-286983Y-37633D01*
X-286917Y-37707D01*
X-286873Y-37780D01*
X-286843Y-37854D01*
X-286828Y-37913D01*
X-286814Y-37972D01*
Y-38002D01*
Y-38017D01*
X-286828Y-38135D01*
X-286858Y-38238D01*
X-286902Y-38334D01*
X-286954Y-38415D01*
X-287005Y-38482D01*
X-287050Y-38526D01*
X-287079Y-38563D01*
X-287094Y-38570D01*
X-287212Y-38644D01*
X-287345Y-38703D01*
X-287493Y-38740D01*
X-287633Y-38769D01*
X-287758Y-38784D01*
X-287810Y-38792D01*
X-287862D01*
X-287898Y-38799D01*
X-287958D01*
X-288157Y-38784D01*
X-288334Y-38755D01*
X-288489Y-38718D01*
X-288614Y-38666D01*
X-288718Y-38622D01*
X-288791Y-38577D01*
X-288836Y-38548D01*
X-288843Y-38541D01*
X-288850D01*
X-288961Y-38430D01*
X-289042Y-38312D01*
X-289109Y-38179D01*
X-289160Y-38054D01*
X-289197Y-37943D01*
X-289212Y-37899D01*
X-289219Y-37854D01*
X-289227Y-37817D01*
Y-37795D01*
X-289234Y-37780D01*
Y-37773D01*
X-290061Y-37906D01*
D01*
X-290031Y-38046D01*
X-289994Y-38186D01*
X-289950Y-38312D01*
X-289906Y-38423D01*
X-289854Y-38533D01*
X-289803Y-38629D01*
X-289751Y-38718D01*
X-289692Y-38799D01*
X-289640Y-38865D01*
X-289588Y-38924D01*
X-289544Y-38976D01*
X-289507Y-39020D01*
X-289470Y-39050D01*
X-289448Y-39072D01*
X-289434Y-39087D01*
X-289426Y-39094D01*
X-289323Y-39161D01*
X-289219Y-39220D01*
X-289102Y-39279D01*
X-288983Y-39323D01*
X-288733Y-39389D01*
X-288496Y-39434D01*
X-288386Y-39456D01*
X-288282Y-39463D01*
X-288186Y-39470D01*
X-288112Y-39478D01*
X-288046Y-39485D01*
X-290061D01*
D01*
X-285958D01*
Y-37928D01*
X-285965Y-37773D01*
X-285987Y-37633D01*
X-286024Y-37515D01*
X-286061Y-37411D01*
X-286098Y-37323D01*
X-286135Y-37264D01*
X-286157Y-37227D01*
X-286164Y-37212D01*
X-286245Y-37109D01*
X-286334Y-37020D01*
X-286430Y-36947D01*
X-286518Y-36887D01*
X-286592Y-36836D01*
X-286659Y-36806D01*
X-286703Y-36784D01*
X-286710Y-36777D01*
X-286718D01*
X-286791Y-36747D01*
X-286873Y-36718D01*
X-286961Y-36681D01*
X-287057Y-36651D01*
X-287256Y-36585D01*
X-287463Y-36526D01*
X-287559Y-36496D01*
X-287655Y-36467D01*
X-287736Y-36445D01*
X-287803Y-36423D01*
X-287869Y-36408D01*
X-287913Y-36393D01*
X-287943Y-36386D01*
X-287950D01*
X-288061Y-36356D01*
X-288157Y-36327D01*
X-288245Y-36305D01*
X-288327Y-36282D01*
X-288393Y-36260D01*
X-288452Y-36246D01*
X-288504Y-36231D01*
X-288548Y-36216D01*
X-288614Y-36194D01*
X-288659Y-36179D01*
X-288681Y-36172D01*
X-288688D01*
X-288762Y-36135D01*
X-288828Y-36098D01*
X-288887Y-36061D01*
X-288932Y-36024D01*
X-288969Y-35994D01*
X-288991Y-35972D01*
X-289005Y-35958D01*
X-289013Y-35950D01*
X-289042Y-35899D01*
X-289065Y-35847D01*
X-289094Y-35751D01*
X-289102Y-35714D01*
X-289109Y-35685D01*
Y-35662D01*
Y-35655D01*
X-289102Y-35559D01*
X-289072Y-35478D01*
X-289035Y-35397D01*
X-288983Y-35330D01*
X-288939Y-35279D01*
X-288902Y-35242D01*
X-288873Y-35212D01*
X-288865Y-35205D01*
X-288814Y-35168D01*
X-288762Y-35138D01*
X-288636Y-35094D01*
X-288496Y-35057D01*
X-288364Y-35035D01*
X-288238Y-35020D01*
X-288186D01*
X-288142Y-35013D01*
X-288046D01*
X-287869Y-35020D01*
X-287721Y-35050D01*
X-287589Y-35079D01*
X-287478Y-35124D01*
X-287397Y-35161D01*
X-287338Y-35197D01*
X-287301Y-35227D01*
X-287286Y-35234D01*
X-287197Y-35323D01*
X-287124Y-35419D01*
X-287065Y-35515D01*
X-287020Y-35611D01*
X-286991Y-35692D01*
X-286976Y-35766D01*
X-286961Y-35810D01*
Y-35817D01*
Y-35825D01*
X-286142Y-35714D01*
X-286179Y-35544D01*
X-286223Y-35397D01*
X-286267Y-35264D01*
X-286319Y-35153D01*
X-286364Y-35072D01*
X-286400Y-35006D01*
X-286430Y-34969D01*
X-286437Y-34954D01*
X-286526Y-34851D01*
X-286629Y-34762D01*
X-286733Y-34681D01*
X-286836Y-34615D01*
X-286939Y-34563D01*
X-287013Y-34526D01*
X-287042Y-34511D01*
X-287065Y-34504D01*
X-287079Y-34496D01*
X-287087D01*
X-287256Y-34437D01*
X-287426Y-34400D01*
X-287603Y-34371D01*
X-287758Y-34349D01*
X-287898Y-34334D01*
X-287958D01*
X-288009Y-34327D01*
D02*
G37*
G36*
X-368171Y-34327D02*
Y-37677D01*
X-368990Y-37567D01*
X-369012Y-37685D01*
X-369034Y-37788D01*
X-369064Y-37891D01*
X-369093Y-37980D01*
X-369130Y-38068D01*
X-369160Y-38142D01*
X-369197Y-38209D01*
X-369233Y-38275D01*
X-369270Y-38327D01*
X-369300Y-38371D01*
X-369359Y-38445D01*
X-369396Y-38489D01*
X-369403Y-38496D01*
X-369411Y-38504D01*
X-369543Y-38600D01*
X-369676Y-38673D01*
X-369816Y-38725D01*
X-369942Y-38762D01*
X-370060Y-38784D01*
X-370104Y-38792D01*
X-370149D01*
X-370185Y-38799D01*
X-370230D01*
X-370340Y-38792D01*
X-370451Y-38777D01*
X-370547Y-38755D01*
X-370643Y-38725D01*
X-370813Y-38659D01*
X-370960Y-38570D01*
X-371020Y-38533D01*
X-371071Y-38489D01*
X-371115Y-38452D01*
X-371160Y-38415D01*
X-371189Y-38393D01*
X-371211Y-38371D01*
X-371219Y-38356D01*
X-371226Y-38349D01*
X-371292Y-38260D01*
X-371352Y-38157D01*
X-371403Y-38046D01*
X-371440Y-37936D01*
X-371514Y-37692D01*
X-371558Y-37456D01*
X-371573Y-37345D01*
X-371580Y-37242D01*
X-371588Y-37146D01*
X-371595Y-37065D01*
X-371603Y-36998D01*
Y-36947D01*
Y-36910D01*
Y-36902D01*
X-371595Y-36725D01*
X-371588Y-36555D01*
X-371566Y-36408D01*
X-371543Y-36268D01*
X-371514Y-36135D01*
X-371477Y-36017D01*
X-371440Y-35913D01*
X-371403Y-35817D01*
X-371374Y-35736D01*
X-371337Y-35662D01*
X-371300Y-35603D01*
X-371270Y-35559D01*
X-371248Y-35515D01*
X-371226Y-35493D01*
X-371219Y-35478D01*
X-371211Y-35471D01*
X-371137Y-35389D01*
X-371056Y-35323D01*
X-370968Y-35257D01*
X-370887Y-35205D01*
X-370798Y-35161D01*
X-370717Y-35124D01*
X-370554Y-35072D01*
X-370407Y-35035D01*
X-370348Y-35028D01*
X-370289Y-35020D01*
X-370245Y-35013D01*
X-370185D01*
X-370038Y-35020D01*
X-369898Y-35050D01*
X-369780Y-35094D01*
X-369676Y-35138D01*
X-369595Y-35190D01*
X-369529Y-35227D01*
X-369492Y-35257D01*
X-369477Y-35271D01*
X-369374Y-35375D01*
X-369285Y-35493D01*
X-369219Y-35618D01*
X-369160Y-35736D01*
X-369115Y-35847D01*
X-369086Y-35936D01*
X-369078Y-35972D01*
X-369071Y-35995D01*
X-369064Y-36009D01*
Y-36017D01*
X-368252Y-35891D01*
X-368282Y-35758D01*
X-368326Y-35626D01*
X-368370Y-35508D01*
X-368414Y-35397D01*
X-368466Y-35293D01*
X-368525Y-35197D01*
X-368577Y-35116D01*
X-368636Y-35035D01*
X-368687Y-34969D01*
X-368739Y-34910D01*
X-368783Y-34858D01*
X-368828Y-34814D01*
X-368857Y-34784D01*
X-368887Y-34762D01*
X-368901Y-34747D01*
X-368909Y-34740D01*
X-369005Y-34666D01*
X-369108Y-34600D01*
X-369219Y-34548D01*
X-369329Y-34504D01*
X-369551Y-34430D01*
X-369758Y-34378D01*
X-369853Y-34364D01*
X-369942Y-34349D01*
X-370023Y-34341D01*
X-370090Y-34334D01*
X-370141Y-34327D01*
X-368171D01*
X-372459D01*
X-370222D01*
X-370451Y-34341D01*
X-370673Y-34371D01*
X-370872Y-34423D01*
X-370960Y-34452D01*
X-371049Y-34474D01*
X-371123Y-34504D01*
X-371189Y-34533D01*
X-371248Y-34556D01*
X-371300Y-34585D01*
X-371344Y-34600D01*
X-371374Y-34615D01*
X-371389Y-34629D01*
X-371396D01*
X-371588Y-34755D01*
X-371750Y-34895D01*
X-371890Y-35050D01*
X-372001Y-35190D01*
X-372090Y-35323D01*
X-372119Y-35382D01*
X-372149Y-35434D01*
X-372171Y-35471D01*
X-372185Y-35500D01*
X-372200Y-35522D01*
Y-35530D01*
X-372289Y-35758D01*
X-372348Y-36002D01*
X-372392Y-36238D01*
X-372429Y-36452D01*
X-372436Y-36555D01*
X-372444Y-36644D01*
X-372451Y-36725D01*
Y-36799D01*
X-372459Y-36851D01*
Y-36843D01*
Y-36851D01*
Y-36932D01*
X-372451Y-37153D01*
X-372429Y-37367D01*
X-372399Y-37567D01*
X-372363Y-37751D01*
X-372318Y-37921D01*
X-372267Y-38076D01*
X-372208Y-38216D01*
X-372149Y-38341D01*
X-372097Y-38452D01*
X-372038Y-38555D01*
X-371986Y-38637D01*
X-371942Y-38703D01*
X-371905Y-38762D01*
X-371876Y-38799D01*
X-371853Y-38821D01*
X-371846Y-38829D01*
X-371728Y-38947D01*
X-371603Y-39042D01*
X-371470Y-39131D01*
X-371337Y-39205D01*
X-371197Y-39271D01*
X-371064Y-39323D01*
X-370931Y-39367D01*
X-370805Y-39404D01*
X-370687Y-39434D01*
X-370577Y-39448D01*
X-370473Y-39463D01*
X-370392Y-39478D01*
X-370318D01*
X-370267Y-39485D01*
X-370222D01*
X-370075Y-39478D01*
X-369935Y-39463D01*
X-369802Y-39441D01*
X-369669Y-39412D01*
X-369551Y-39375D01*
X-369440Y-39330D01*
X-369337Y-39293D01*
X-369241Y-39242D01*
X-369160Y-39197D01*
X-369078Y-39161D01*
X-369020Y-39116D01*
X-368960Y-39079D01*
X-368923Y-39050D01*
X-368887Y-39028D01*
X-368872Y-39013D01*
X-368864Y-39006D01*
X-368769Y-38910D01*
X-368673Y-38814D01*
X-368591Y-38703D01*
X-368525Y-38592D01*
X-368459Y-38482D01*
X-368400Y-38371D01*
X-368311Y-38164D01*
X-368274Y-38061D01*
X-368245Y-37972D01*
X-368222Y-37891D01*
X-368200Y-37817D01*
X-368185Y-37758D01*
X-368178Y-37714D01*
X-368171Y-37685D01*
Y-39375D01*
Y-34327D01*
D02*
G37*
G36*
X-348341Y-34327D02*
X-352961Y-34327D01*
X-350651D01*
X-350820Y-34334D01*
X-350983Y-34349D01*
X-351130Y-34378D01*
X-351278Y-34415D01*
X-351418Y-34452D01*
X-351544Y-34504D01*
X-351662Y-34548D01*
X-351765Y-34600D01*
X-351868Y-34651D01*
X-351950Y-34703D01*
X-352023Y-34755D01*
X-352090Y-34792D01*
X-352134Y-34828D01*
X-352171Y-34858D01*
X-352193Y-34873D01*
X-352201Y-34880D01*
X-352333Y-35013D01*
X-352451Y-35153D01*
X-352555Y-35308D01*
X-352643Y-35471D01*
X-352710Y-35640D01*
X-352776Y-35810D01*
X-352828Y-35980D01*
X-352865Y-36142D01*
X-352894Y-36297D01*
X-352924Y-36437D01*
X-352939Y-36570D01*
X-352946Y-36688D01*
X-352953Y-36777D01*
X-352961Y-36851D01*
Y-36843D01*
Y-36851D01*
Y-39485D01*
Y-36910D01*
X-352953Y-37139D01*
X-352931Y-37352D01*
X-352902Y-37552D01*
X-352865Y-37736D01*
X-352813Y-37906D01*
X-352761Y-38061D01*
X-352702Y-38201D01*
X-352643Y-38334D01*
X-352584Y-38445D01*
X-352525Y-38548D01*
X-352473Y-38629D01*
X-352422Y-38696D01*
X-352385Y-38755D01*
X-352355Y-38792D01*
X-352333Y-38814D01*
X-352326Y-38821D01*
X-352201Y-38939D01*
X-352068Y-39042D01*
X-351935Y-39131D01*
X-351795Y-39205D01*
X-351654Y-39271D01*
X-351514Y-39323D01*
X-351381Y-39367D01*
X-351248Y-39404D01*
X-351123Y-39426D01*
X-351012Y-39448D01*
X-350909Y-39463D01*
X-350820Y-39478D01*
X-350747D01*
X-350695Y-39485D01*
X-350651D01*
X-350414Y-39470D01*
X-350193Y-39441D01*
X-349994Y-39389D01*
X-349898Y-39367D01*
X-349817Y-39338D01*
X-349735Y-39308D01*
X-349669Y-39286D01*
X-349610Y-39257D01*
X-349558Y-39234D01*
X-349514Y-39220D01*
X-349485Y-39205D01*
X-349470Y-39190D01*
X-349463D01*
X-349271Y-39065D01*
X-349101Y-38932D01*
X-348961Y-38792D01*
X-348843Y-38651D01*
X-348747Y-38533D01*
X-348710Y-38474D01*
X-348680Y-38430D01*
X-348658Y-38393D01*
X-348643Y-38364D01*
X-348628Y-38349D01*
Y-38341D01*
X-348577Y-38231D01*
X-348533Y-38120D01*
X-348459Y-37876D01*
X-348407Y-37626D01*
X-348378Y-37389D01*
X-348363Y-37279D01*
X-348356Y-37175D01*
X-348348Y-37079D01*
Y-36998D01*
X-348341Y-36932D01*
Y-39389D01*
Y-36843D01*
X-348348Y-36629D01*
X-348370Y-36423D01*
X-348400Y-36231D01*
X-348444Y-36054D01*
X-348488Y-35891D01*
X-348547Y-35744D01*
X-348606Y-35603D01*
X-348665Y-35478D01*
X-348725Y-35367D01*
X-348783Y-35271D01*
X-348843Y-35190D01*
X-348887Y-35124D01*
X-348931Y-35065D01*
X-348961Y-35028D01*
X-348983Y-35006D01*
X-348990Y-34998D01*
X-349116Y-34880D01*
X-349249Y-34777D01*
X-349381Y-34688D01*
X-349521Y-34607D01*
X-349662Y-34548D01*
X-349795Y-34489D01*
X-349935Y-34445D01*
X-350060Y-34408D01*
X-350186Y-34386D01*
X-350296Y-34364D01*
X-350392Y-34349D01*
X-350481Y-34334D01*
X-350555D01*
X-350606Y-34327D01*
X-348341Y-34327D01*
D01*
D02*
G37*
G36*
X-273840Y-34327D02*
X-278378D01*
D01*
X-276009D01*
X-276238Y-34334D01*
X-276452Y-34356D01*
X-276644Y-34386D01*
X-276733Y-34400D01*
X-276806Y-34415D01*
X-276880Y-34430D01*
X-276947Y-34445D01*
X-276998Y-34459D01*
X-277043Y-34474D01*
X-277079Y-34489D01*
X-277109Y-34496D01*
X-277124Y-34504D01*
X-277131D01*
X-277301Y-34578D01*
X-277448Y-34659D01*
X-277574Y-34740D01*
X-277677Y-34821D01*
X-277758Y-34895D01*
X-277817Y-34954D01*
X-277854Y-34991D01*
X-277869Y-34998D01*
Y-35006D01*
X-277958Y-35131D01*
X-278031Y-35271D01*
X-278091Y-35412D01*
X-278142Y-35544D01*
X-278179Y-35662D01*
X-278194Y-35714D01*
X-278209Y-35758D01*
X-278216Y-35795D01*
X-278223Y-35825D01*
X-278231Y-35840D01*
Y-35847D01*
X-277412Y-35958D01*
X-277382Y-35862D01*
X-277352Y-35773D01*
X-277293Y-35625D01*
X-277220Y-35493D01*
X-277153Y-35397D01*
X-277094Y-35323D01*
X-277043Y-35264D01*
X-277013Y-35234D01*
X-276998Y-35227D01*
X-276880Y-35161D01*
X-276740Y-35109D01*
X-276600Y-35072D01*
X-276460Y-35043D01*
X-276327Y-35028D01*
X-276275D01*
X-276223Y-35020D01*
X-276127D01*
X-275906Y-35035D01*
X-275714Y-35065D01*
X-275552Y-35109D01*
X-275419Y-35161D01*
X-275316Y-35220D01*
X-275279Y-35242D01*
X-275242Y-35264D01*
X-275212Y-35279D01*
X-275198Y-35293D01*
X-275183Y-35308D01*
X-275102Y-35397D01*
X-275043Y-35508D01*
X-274998Y-35625D01*
X-274969Y-35744D01*
X-274954Y-35854D01*
X-274939Y-35943D01*
Y-35972D01*
Y-36002D01*
Y-36017D01*
Y-36024D01*
Y-36046D01*
Y-36076D01*
Y-36149D01*
X-274947Y-36179D01*
Y-36209D01*
Y-36231D01*
Y-36238D01*
X-275043Y-36268D01*
X-275146Y-36297D01*
X-275264Y-36327D01*
X-275382Y-36356D01*
X-275626Y-36408D01*
X-275869Y-36452D01*
X-275987Y-36467D01*
X-276091Y-36482D01*
X-276186Y-36496D01*
X-276275Y-36511D01*
X-276341Y-36518D01*
X-276393Y-36526D01*
X-276423Y-36533D01*
X-276437D01*
X-276614Y-36555D01*
X-276762Y-36578D01*
X-276895Y-36600D01*
X-276998Y-36615D01*
X-277079Y-36637D01*
X-277138Y-36644D01*
X-277168Y-36659D01*
X-277183D01*
X-277301Y-36696D01*
X-277419Y-36740D01*
X-277522Y-36784D01*
X-277611Y-36829D01*
X-277685Y-36865D01*
X-277736Y-36902D01*
X-277773Y-36924D01*
X-277788Y-36932D01*
X-277884Y-37006D01*
X-277965Y-37079D01*
X-278039Y-37161D01*
X-278098Y-37234D01*
X-278150Y-37308D01*
X-278186Y-37360D01*
X-278209Y-37397D01*
X-278216Y-37411D01*
X-278268Y-37530D01*
X-278312Y-37640D01*
X-278341Y-37751D01*
X-278356Y-37854D01*
X-278371Y-37943D01*
X-278378Y-38017D01*
Y-38009D01*
Y-38076D01*
X-278371Y-38186D01*
X-278356Y-38297D01*
X-278341Y-38400D01*
X-278312Y-38496D01*
X-278238Y-38673D01*
X-278157Y-38814D01*
X-278120Y-38880D01*
X-278083Y-38932D01*
X-278046Y-38983D01*
X-278009Y-39020D01*
X-277980Y-39050D01*
X-277965Y-39072D01*
X-277950Y-39087D01*
X-277943Y-39094D01*
X-277854Y-39161D01*
X-277766Y-39220D01*
X-277662Y-39279D01*
X-277567Y-39323D01*
X-277360Y-39389D01*
X-277153Y-39434D01*
X-277065Y-39456D01*
X-276976Y-39463D01*
X-276895Y-39470D01*
X-276829Y-39478D01*
X-276777Y-39485D01*
X-276696D01*
X-276511Y-39478D01*
X-276341Y-39463D01*
X-276186Y-39434D01*
X-276046Y-39404D01*
X-275936Y-39375D01*
X-275884Y-39360D01*
X-275847Y-39345D01*
X-275817Y-39338D01*
X-275795Y-39330D01*
X-275781Y-39323D01*
X-275773D01*
X-275611Y-39249D01*
X-275448Y-39168D01*
X-275301Y-39072D01*
X-275161Y-38976D01*
X-275043Y-38895D01*
X-274998Y-38851D01*
X-274954Y-38821D01*
X-274917Y-38792D01*
X-274895Y-38769D01*
X-274880Y-38762D01*
X-274873Y-38755D01*
X-274858Y-38888D01*
X-274836Y-39006D01*
X-274806Y-39109D01*
X-274777Y-39197D01*
X-274755Y-39271D01*
X-274733Y-39330D01*
X-274718Y-39360D01*
X-274710Y-39375D01*
X-273840D01*
X-273891Y-39271D01*
X-273936Y-39161D01*
X-273972Y-39065D01*
X-274002Y-38976D01*
X-274024Y-38895D01*
X-274039Y-38836D01*
X-274046Y-38799D01*
Y-38784D01*
X-274054Y-38718D01*
X-274061Y-38629D01*
X-274068Y-38533D01*
X-274076Y-38423D01*
X-274083Y-38304D01*
Y-38179D01*
X-274091Y-37928D01*
Y-37810D01*
X-274098Y-37692D01*
Y-37589D01*
Y-37493D01*
Y-37419D01*
Y-37360D01*
Y-37323D01*
Y-37308D01*
Y-36194D01*
Y-36090D01*
Y-36002D01*
X-274105Y-35921D01*
Y-35840D01*
X-274113Y-35707D01*
X-274120Y-35603D01*
X-274127Y-35522D01*
X-274135Y-35471D01*
X-274142Y-35434D01*
Y-35426D01*
X-274172Y-35301D01*
X-274216Y-35190D01*
X-274260Y-35094D01*
X-274305Y-35013D01*
X-274341Y-34947D01*
X-274378Y-34895D01*
X-274400Y-34865D01*
X-274408Y-34858D01*
X-274489Y-34777D01*
X-274578Y-34703D01*
X-274674Y-34637D01*
X-274769Y-34585D01*
X-274858Y-34541D01*
X-274924Y-34511D01*
X-274954Y-34496D01*
X-274976Y-34489D01*
X-274984Y-34482D01*
X-274991D01*
X-275146Y-34430D01*
X-275316Y-34393D01*
X-275485Y-34364D01*
X-275648Y-34349D01*
X-275788Y-34334D01*
X-275854D01*
X-275906Y-34327D01*
X-273840D01*
D02*
G37*
G36*
X-308208Y-34327D02*
X-312747D01*
D01*
X-310378D01*
X-310607Y-34334D01*
X-310821Y-34356D01*
X-311013Y-34386D01*
X-311101Y-34400D01*
X-311175Y-34415D01*
X-311249Y-34430D01*
X-311315Y-34445D01*
X-311367Y-34459D01*
X-311411Y-34474D01*
X-311448Y-34489D01*
X-311478Y-34496D01*
X-311492Y-34504D01*
X-311500D01*
X-311669Y-34578D01*
X-311817Y-34659D01*
X-311943Y-34740D01*
X-312046Y-34821D01*
X-312127Y-34895D01*
X-312186Y-34954D01*
X-312223Y-34991D01*
X-312238Y-34998D01*
Y-35006D01*
X-312326Y-35131D01*
X-312400Y-35271D01*
X-312459Y-35412D01*
X-312511Y-35544D01*
X-312548Y-35662D01*
X-312562Y-35714D01*
X-312577Y-35758D01*
X-312585Y-35795D01*
X-312592Y-35825D01*
X-312599Y-35840D01*
Y-35847D01*
X-311780Y-35958D01*
X-311751Y-35862D01*
X-311721Y-35773D01*
X-311662Y-35625D01*
X-311588Y-35493D01*
X-311522Y-35397D01*
X-311463Y-35323D01*
X-311411Y-35264D01*
X-311382Y-35234D01*
X-311367Y-35227D01*
X-311249Y-35161D01*
X-311109Y-35109D01*
X-310968Y-35072D01*
X-310828Y-35043D01*
X-310695Y-35028D01*
X-310644D01*
X-310592Y-35020D01*
X-310496D01*
X-310275Y-35035D01*
X-310083Y-35065D01*
X-309920Y-35109D01*
X-309788Y-35161D01*
X-309684Y-35220D01*
X-309647Y-35242D01*
X-309611Y-35264D01*
X-309581Y-35279D01*
X-309566Y-35293D01*
X-309551Y-35308D01*
X-309470Y-35397D01*
X-309411Y-35508D01*
X-309367Y-35625D01*
X-309337Y-35744D01*
X-309323Y-35854D01*
X-309308Y-35943D01*
Y-35972D01*
Y-36002D01*
Y-36017D01*
Y-36024D01*
Y-36046D01*
Y-36076D01*
Y-36149D01*
X-309315Y-36179D01*
Y-36209D01*
Y-36231D01*
Y-36238D01*
X-309411Y-36268D01*
X-309514Y-36297D01*
X-309633Y-36327D01*
X-309751Y-36356D01*
X-309994Y-36408D01*
X-310238Y-36452D01*
X-310356Y-36467D01*
X-310459Y-36482D01*
X-310555Y-36496D01*
X-310644Y-36511D01*
X-310710Y-36518D01*
X-310762Y-36526D01*
X-310791Y-36533D01*
X-310806D01*
X-310983Y-36555D01*
X-311131Y-36578D01*
X-311264Y-36600D01*
X-311367Y-36615D01*
X-311448Y-36637D01*
X-311507Y-36644D01*
X-311537Y-36659D01*
X-311551D01*
X-311669Y-36696D01*
X-311788Y-36740D01*
X-311891Y-36784D01*
X-311979Y-36829D01*
X-312053Y-36865D01*
X-312105Y-36902D01*
X-312142Y-36924D01*
X-312157Y-36932D01*
X-312252Y-37006D01*
X-312334Y-37079D01*
X-312407Y-37161D01*
X-312467Y-37234D01*
X-312518Y-37308D01*
X-312555Y-37360D01*
X-312577Y-37397D01*
X-312585Y-37411D01*
X-312636Y-37530D01*
X-312681Y-37640D01*
X-312710Y-37751D01*
X-312725Y-37854D01*
X-312740Y-37943D01*
X-312747Y-38017D01*
Y-38002D01*
Y-38076D01*
X-312740Y-38186D01*
X-312725Y-38297D01*
X-312710Y-38400D01*
X-312681Y-38496D01*
X-312607Y-38673D01*
X-312526Y-38814D01*
X-312489Y-38880D01*
X-312452Y-38932D01*
X-312415Y-38983D01*
X-312378Y-39020D01*
X-312349Y-39050D01*
X-312334Y-39072D01*
X-312319Y-39087D01*
X-312312Y-39094D01*
X-312223Y-39161D01*
X-312134Y-39220D01*
X-312031Y-39279D01*
X-311935Y-39323D01*
X-311729Y-39389D01*
X-311522Y-39434D01*
X-311433Y-39456D01*
X-311345Y-39463D01*
X-311264Y-39470D01*
X-311197Y-39478D01*
X-311145Y-39485D01*
X-311064D01*
X-310880Y-39478D01*
X-310710Y-39463D01*
X-310555Y-39434D01*
X-310415Y-39404D01*
X-310304Y-39375D01*
X-310252Y-39360D01*
X-310216Y-39345D01*
X-310186Y-39338D01*
X-310164Y-39330D01*
X-310149Y-39323D01*
X-310142D01*
X-309980Y-39249D01*
X-309817Y-39168D01*
X-309669Y-39072D01*
X-309529Y-38976D01*
X-309411Y-38895D01*
X-309367Y-38851D01*
X-309323Y-38821D01*
X-309286Y-38792D01*
X-309264Y-38769D01*
X-309249Y-38762D01*
X-309242Y-38755D01*
X-309227Y-38888D01*
X-309205Y-39006D01*
X-309175Y-39109D01*
X-309145Y-39197D01*
X-309123Y-39271D01*
X-309101Y-39330D01*
X-309086Y-39360D01*
X-309079Y-39375D01*
X-308208D01*
X-308260Y-39271D01*
X-308304Y-39161D01*
X-308341Y-39065D01*
X-308371Y-38976D01*
X-308393Y-38895D01*
X-308407Y-38836D01*
X-308415Y-38799D01*
Y-38784D01*
X-308422Y-38718D01*
X-308430Y-38629D01*
X-308437Y-38533D01*
X-308444Y-38423D01*
X-308452Y-38304D01*
Y-38179D01*
X-308459Y-37928D01*
Y-37810D01*
X-308467Y-37692D01*
Y-37589D01*
Y-37493D01*
Y-37419D01*
Y-37360D01*
Y-37323D01*
Y-37308D01*
Y-36194D01*
Y-36090D01*
Y-36002D01*
X-308474Y-35921D01*
Y-35840D01*
X-308481Y-35707D01*
X-308489Y-35603D01*
X-308496Y-35522D01*
X-308504Y-35471D01*
X-308511Y-35434D01*
Y-35426D01*
X-308540Y-35301D01*
X-308585Y-35190D01*
X-308629Y-35094D01*
X-308673Y-35013D01*
X-308710Y-34947D01*
X-308747Y-34895D01*
X-308769Y-34865D01*
X-308776Y-34858D01*
X-308858Y-34777D01*
X-308946Y-34703D01*
X-309042Y-34637D01*
X-309138Y-34585D01*
X-309227Y-34541D01*
X-309293Y-34511D01*
X-309323Y-34496D01*
X-309345Y-34489D01*
X-309352Y-34482D01*
X-309360D01*
X-309514Y-34430D01*
X-309684Y-34393D01*
X-309854Y-34364D01*
X-310016Y-34349D01*
X-310157Y-34334D01*
X-310223D01*
X-310275Y-34327D01*
X-308208D01*
D02*
G37*
G36*
X-337809D02*
X-342348D01*
D01*
X-339979D01*
X-340208Y-34334D01*
X-340422Y-34356D01*
X-340614Y-34386D01*
X-340702Y-34400D01*
X-340776Y-34415D01*
X-340850Y-34430D01*
X-340916Y-34445D01*
X-340968Y-34459D01*
X-341012Y-34474D01*
X-341049Y-34489D01*
X-341079Y-34496D01*
X-341094Y-34504D01*
X-341101D01*
X-341271Y-34578D01*
X-341418Y-34659D01*
X-341544Y-34740D01*
X-341647Y-34821D01*
X-341728Y-34895D01*
X-341787Y-34954D01*
X-341824Y-34991D01*
X-341839Y-34998D01*
Y-35006D01*
X-341928Y-35131D01*
X-342001Y-35271D01*
X-342060Y-35412D01*
X-342112Y-35544D01*
X-342149Y-35662D01*
X-342164Y-35714D01*
X-342178Y-35758D01*
X-342186Y-35795D01*
X-342193Y-35825D01*
X-342201Y-35840D01*
Y-35847D01*
X-341381Y-35958D01*
X-341352Y-35862D01*
X-341322Y-35773D01*
X-341263Y-35625D01*
X-341190Y-35493D01*
X-341123Y-35397D01*
X-341064Y-35323D01*
X-341012Y-35264D01*
X-340983Y-35234D01*
X-340968Y-35227D01*
X-340850Y-35161D01*
X-340710Y-35109D01*
X-340570Y-35072D01*
X-340429Y-35043D01*
X-340297Y-35028D01*
X-340245D01*
X-340193Y-35020D01*
X-340097D01*
X-339876Y-35035D01*
X-339684Y-35065D01*
X-339522Y-35109D01*
X-339389Y-35161D01*
X-339285Y-35220D01*
X-339248Y-35242D01*
X-339212Y-35264D01*
X-339182Y-35279D01*
X-339167Y-35293D01*
X-339153Y-35308D01*
X-339071Y-35397D01*
X-339012Y-35508D01*
X-338968Y-35625D01*
X-338939Y-35744D01*
X-338924Y-35854D01*
X-338909Y-35943D01*
Y-35972D01*
Y-36002D01*
Y-36017D01*
Y-36024D01*
Y-36046D01*
Y-36076D01*
Y-36149D01*
X-338916Y-36179D01*
Y-36209D01*
Y-36231D01*
Y-36238D01*
X-339012Y-36268D01*
X-339116Y-36297D01*
X-339234Y-36327D01*
X-339352Y-36356D01*
X-339595Y-36408D01*
X-339839Y-36452D01*
X-339957Y-36467D01*
X-340060Y-36482D01*
X-340156Y-36496D01*
X-340245Y-36511D01*
X-340311Y-36518D01*
X-340363Y-36526D01*
X-340392Y-36533D01*
X-340407D01*
X-340584Y-36555D01*
X-340732Y-36578D01*
X-340865Y-36600D01*
X-340968Y-36615D01*
X-341049Y-36637D01*
X-341108Y-36644D01*
X-341138Y-36659D01*
X-341153D01*
X-341271Y-36696D01*
X-341389Y-36740D01*
X-341492Y-36784D01*
X-341581Y-36829D01*
X-341654Y-36865D01*
X-341706Y-36902D01*
X-341743Y-36924D01*
X-341758Y-36932D01*
X-341854Y-37006D01*
X-341935Y-37079D01*
X-342009Y-37161D01*
X-342068Y-37234D01*
X-342119Y-37308D01*
X-342156Y-37360D01*
X-342178Y-37397D01*
X-342186Y-37411D01*
X-342237Y-37530D01*
X-342282Y-37640D01*
X-342311Y-37751D01*
X-342326Y-37854D01*
X-342341Y-37943D01*
X-342348Y-38017D01*
D01*
Y-38076D01*
X-342341Y-38186D01*
X-342326Y-38297D01*
X-342311Y-38400D01*
X-342282Y-38496D01*
X-342208Y-38673D01*
X-342127Y-38814D01*
X-342090Y-38880D01*
X-342053Y-38932D01*
X-342016Y-38983D01*
X-341979Y-39020D01*
X-341950Y-39050D01*
X-341935Y-39072D01*
X-341920Y-39087D01*
X-341913Y-39094D01*
X-341824Y-39161D01*
X-341736Y-39220D01*
X-341632Y-39279D01*
X-341536Y-39323D01*
X-341330Y-39389D01*
X-341123Y-39434D01*
X-341035Y-39456D01*
X-340946Y-39463D01*
X-340865Y-39470D01*
X-340798Y-39478D01*
X-340747Y-39485D01*
X-340666D01*
X-340481Y-39478D01*
X-340311Y-39463D01*
X-340156Y-39434D01*
X-340016Y-39404D01*
X-339905Y-39375D01*
X-339854Y-39360D01*
X-339817Y-39345D01*
X-339787Y-39338D01*
X-339765Y-39330D01*
X-339750Y-39323D01*
X-339743D01*
X-339581Y-39249D01*
X-339418Y-39168D01*
X-339271Y-39072D01*
X-339130Y-38976D01*
X-339012Y-38895D01*
X-338968Y-38851D01*
X-338924Y-38821D01*
X-338887Y-38792D01*
X-338865Y-38769D01*
X-338850Y-38762D01*
X-338843Y-38755D01*
X-338828Y-38888D01*
X-338806Y-39006D01*
X-338776Y-39109D01*
X-338747Y-39197D01*
X-338725Y-39271D01*
X-338702Y-39330D01*
X-338688Y-39360D01*
X-338680Y-39375D01*
X-337809D01*
X-337861Y-39271D01*
X-337905Y-39161D01*
X-337942Y-39065D01*
X-337972Y-38976D01*
X-337994Y-38895D01*
X-338009Y-38836D01*
X-338016Y-38799D01*
Y-38784D01*
X-338023Y-38718D01*
X-338031Y-38629D01*
X-338038Y-38533D01*
X-338046Y-38423D01*
X-338053Y-38304D01*
Y-38179D01*
X-338060Y-37928D01*
Y-37810D01*
X-338068Y-37692D01*
Y-37589D01*
Y-37493D01*
Y-37419D01*
Y-37360D01*
Y-37323D01*
Y-37308D01*
Y-36194D01*
Y-36090D01*
Y-36002D01*
X-338075Y-35921D01*
Y-35840D01*
X-338083Y-35707D01*
X-338090Y-35603D01*
X-338097Y-35522D01*
X-338105Y-35471D01*
X-338112Y-35434D01*
Y-35426D01*
X-338142Y-35301D01*
X-338186Y-35190D01*
X-338230Y-35094D01*
X-338274Y-35013D01*
X-338311Y-34947D01*
X-338348Y-34895D01*
X-338370Y-34865D01*
X-338378Y-34858D01*
X-338459Y-34777D01*
X-338547Y-34703D01*
X-338643Y-34637D01*
X-338739Y-34585D01*
X-338828Y-34541D01*
X-338894Y-34511D01*
X-338924Y-34496D01*
X-338946Y-34489D01*
X-338953Y-34482D01*
X-338961D01*
X-339116Y-34430D01*
X-339285Y-34393D01*
X-339455Y-34364D01*
X-339617Y-34349D01*
X-339758Y-34334D01*
X-339824D01*
X-339876Y-34327D01*
X-337809D01*
D02*
G37*
G36*
X-320695Y-32563D02*
X-326083D01*
Y-33367D01*
X-323839D01*
Y-39375D01*
X-326083D01*
X-322939D01*
Y-33367D01*
X-320695D01*
Y-38223D01*
Y-32563D01*
D02*
G37*
G36*
X-291042Y-34437D02*
X-291876Y-34437D01*
Y-37087D01*
X-291884Y-37308D01*
X-291898Y-37500D01*
X-291921Y-37662D01*
X-291943Y-37803D01*
X-291957Y-37862D01*
X-291972Y-37906D01*
X-291987Y-37950D01*
X-291994Y-37987D01*
X-292002Y-38009D01*
X-292009Y-38031D01*
X-292017Y-38039D01*
Y-38046D01*
X-292076Y-38164D01*
X-292149Y-38268D01*
X-292231Y-38356D01*
X-292304Y-38430D01*
X-292378Y-38489D01*
X-292437Y-38533D01*
X-292474Y-38563D01*
X-292481Y-38570D01*
X-292489D01*
X-292614Y-38637D01*
X-292732Y-38681D01*
X-292850Y-38718D01*
X-292961Y-38740D01*
X-293057Y-38755D01*
X-293124Y-38762D01*
X-293190D01*
X-293323Y-38755D01*
X-293448Y-38732D01*
X-293559Y-38703D01*
X-293648Y-38666D01*
X-293721Y-38637D01*
X-293780Y-38607D01*
X-293810Y-38585D01*
X-293825Y-38578D01*
X-293913Y-38504D01*
X-293987Y-38415D01*
X-294046Y-38334D01*
X-294090Y-38253D01*
X-294127Y-38179D01*
X-294149Y-38113D01*
X-294157Y-38076D01*
X-294164Y-38061D01*
X-294172Y-38017D01*
X-294179Y-37958D01*
X-294186Y-37825D01*
X-294201Y-37677D01*
Y-37530D01*
X-294208Y-37397D01*
Y-37338D01*
Y-37279D01*
Y-37234D01*
Y-37205D01*
Y-37183D01*
Y-37175D01*
Y-34437D01*
X-293042D01*
X-295042D01*
Y-37685D01*
X-295035Y-37847D01*
X-295028Y-37980D01*
X-295020Y-38091D01*
X-295013Y-38172D01*
X-295005Y-38238D01*
X-294998Y-38268D01*
Y-38282D01*
X-294961Y-38415D01*
X-294924Y-38533D01*
X-294880Y-38637D01*
X-294836Y-38725D01*
X-294799Y-38799D01*
X-294769Y-38858D01*
X-294747Y-38888D01*
X-294740Y-38902D01*
X-294666Y-38991D01*
X-294577Y-39072D01*
X-294481Y-39146D01*
X-294393Y-39205D01*
X-294304Y-39257D01*
X-294238Y-39293D01*
X-294194Y-39316D01*
X-294186Y-39323D01*
X-294179D01*
X-294031Y-39375D01*
X-293891Y-39419D01*
X-293751Y-39448D01*
X-293625Y-39463D01*
X-293515Y-39478D01*
X-293433Y-39485D01*
X-293360D01*
X-291042Y-39485D01*
X-293360Y-39485D01*
X-293175Y-39478D01*
X-293005Y-39448D01*
X-292850Y-39412D01*
X-292695Y-39352D01*
X-292555Y-39293D01*
X-292430Y-39220D01*
X-292312Y-39146D01*
X-292201Y-39065D01*
X-292105Y-38991D01*
X-292024Y-38917D01*
X-291950Y-38843D01*
X-291891Y-38784D01*
X-291847Y-38725D01*
X-291817Y-38688D01*
X-291795Y-38659D01*
X-291788Y-38651D01*
Y-39375D01*
X-291042D01*
Y-39463D01*
Y-39375D01*
Y-34437D01*
D02*
G37*
G36*
X-315891Y-34437D02*
X-316725D01*
Y-37087D01*
X-316732Y-37308D01*
X-316747Y-37500D01*
X-316769Y-37662D01*
X-316791Y-37803D01*
X-316806Y-37862D01*
X-316821Y-37906D01*
X-316835Y-37950D01*
X-316843Y-37987D01*
X-316850Y-38009D01*
X-316858Y-38031D01*
X-316865Y-38039D01*
Y-38046D01*
X-316924Y-38164D01*
X-316998Y-38268D01*
X-317079Y-38356D01*
X-317153Y-38430D01*
X-317227Y-38489D01*
X-317286Y-38533D01*
X-317323Y-38563D01*
X-317330Y-38570D01*
X-317337D01*
X-317463Y-38637D01*
X-317581Y-38681D01*
X-317699Y-38718D01*
X-317810Y-38740D01*
X-317906Y-38755D01*
X-317972Y-38762D01*
X-318038D01*
X-318171Y-38755D01*
X-318297Y-38732D01*
X-318407Y-38703D01*
X-318496Y-38666D01*
X-318570Y-38637D01*
X-318629Y-38607D01*
X-318658Y-38585D01*
X-318673Y-38578D01*
X-318762Y-38504D01*
X-318835Y-38415D01*
X-318895Y-38334D01*
X-318939Y-38253D01*
X-318976Y-38179D01*
X-318998Y-38113D01*
X-319005Y-38076D01*
X-319013Y-38061D01*
X-319020Y-38017D01*
X-319027Y-37958D01*
X-319035Y-37825D01*
X-319050Y-37677D01*
Y-37530D01*
X-319057Y-37397D01*
Y-37338D01*
Y-37279D01*
Y-37234D01*
Y-37205D01*
Y-37183D01*
Y-37175D01*
Y-34437D01*
X-317891D01*
X-319891D01*
Y-37685D01*
X-319883Y-37847D01*
X-319876Y-37980D01*
X-319869Y-38091D01*
X-319861Y-38172D01*
X-319854Y-38238D01*
X-319847Y-38268D01*
Y-38282D01*
X-319810Y-38415D01*
X-319773Y-38533D01*
X-319728Y-38637D01*
X-319684Y-38725D01*
X-319647Y-38799D01*
X-319618Y-38858D01*
X-319596Y-38888D01*
X-319588Y-38902D01*
X-319514Y-38991D01*
X-319426Y-39072D01*
X-319330Y-39146D01*
X-319241Y-39205D01*
X-319153Y-39257D01*
X-319086Y-39293D01*
X-319042Y-39316D01*
X-319035Y-39323D01*
X-319027D01*
X-318880Y-39375D01*
X-318740Y-39419D01*
X-318599Y-39448D01*
X-318474Y-39463D01*
X-318363Y-39478D01*
X-318282Y-39485D01*
X-318208D01*
X-318024Y-39478D01*
X-317854Y-39448D01*
X-317699Y-39412D01*
X-317544Y-39352D01*
X-317404Y-39293D01*
X-317278Y-39220D01*
X-317160Y-39146D01*
X-317050Y-39065D01*
X-316954Y-38991D01*
X-316872Y-38917D01*
X-316799Y-38843D01*
X-316740Y-38784D01*
X-316695Y-38725D01*
X-316666Y-38688D01*
X-316644Y-38659D01*
X-316636Y-38651D01*
Y-39375D01*
X-315891D01*
Y-39478D01*
Y-34437D01*
D02*
G37*
G36*
X-279367Y-32563D02*
X-280201D01*
Y-33515D01*
X-279367D01*
Y-34437D01*
X-280201D01*
Y-39375D01*
X-279367D01*
Y-32563D01*
D02*
G37*
G36*
X-295780Y-32563D02*
D01*
Y-39375D01*
X-296961Y-37522D01*
X-297094Y-37330D01*
X-297227Y-37153D01*
X-297352Y-36998D01*
X-297463Y-36865D01*
X-297559Y-36762D01*
X-297603Y-36718D01*
X-297640Y-36681D01*
X-297670Y-36651D01*
X-297692Y-36629D01*
X-297699Y-36622D01*
X-297707Y-36615D01*
X-297780Y-36555D01*
X-297869Y-36489D01*
X-297957Y-36437D01*
X-298046Y-36386D01*
X-298127Y-36341D01*
X-298194Y-36305D01*
X-298238Y-36282D01*
X-298245Y-36275D01*
X-298253D01*
X-298076Y-36246D01*
X-297906Y-36209D01*
X-297751Y-36164D01*
X-297611Y-36120D01*
X-297478Y-36068D01*
X-297360Y-36017D01*
X-297256Y-35965D01*
X-297160Y-35913D01*
X-297072Y-35862D01*
X-296998Y-35810D01*
X-296939Y-35766D01*
X-296887Y-35729D01*
X-296850Y-35692D01*
X-296821Y-35670D01*
X-296806Y-35655D01*
X-296799Y-35648D01*
X-296718Y-35552D01*
X-296644Y-35456D01*
X-296577Y-35353D01*
X-296526Y-35249D01*
X-296481Y-35146D01*
X-296445Y-35043D01*
X-296386Y-34851D01*
X-296363Y-34762D01*
X-296349Y-34681D01*
X-296341Y-34607D01*
X-296334Y-34541D01*
X-296326Y-34496D01*
Y-34452D01*
Y-34430D01*
Y-34423D01*
X-296341Y-34216D01*
X-296371Y-34024D01*
X-296415Y-33854D01*
X-296467Y-33699D01*
X-296496Y-33633D01*
X-296526Y-33574D01*
X-296548Y-33522D01*
X-296570Y-33478D01*
X-296585Y-33441D01*
X-296600Y-33419D01*
X-296614Y-33404D01*
Y-33397D01*
X-296725Y-33234D01*
X-296850Y-33102D01*
X-296976Y-32983D01*
X-297101Y-32895D01*
X-297205Y-32829D01*
X-297293Y-32784D01*
X-297330Y-32770D01*
X-297352Y-32755D01*
X-297367Y-32747D01*
X-297374D01*
X-297470Y-32718D01*
X-297566Y-32688D01*
X-297788Y-32644D01*
X-298017Y-32607D01*
X-298238Y-32585D01*
X-298349Y-32578D01*
X-298445Y-32570D01*
X-298526D01*
X-298607Y-32563D01*
X-295780D01*
X-301773D01*
Y-39375D01*
X-300873D01*
Y-36349D01*
X-299714D01*
X-299611Y-36356D01*
X-299522Y-36364D01*
X-299448D01*
X-299396Y-36371D01*
X-299360Y-36378D01*
X-299338Y-36386D01*
X-299330D01*
X-299249Y-36408D01*
X-299175Y-36437D01*
X-299109Y-36467D01*
X-299042Y-36496D01*
X-298991Y-36526D01*
X-298954Y-36548D01*
X-298924Y-36563D01*
X-298917Y-36570D01*
X-298843Y-36622D01*
X-298762Y-36696D01*
X-298681Y-36770D01*
X-298614Y-36843D01*
X-298548Y-36910D01*
X-298504Y-36969D01*
X-298474Y-37006D01*
X-298459Y-37013D01*
Y-37020D01*
X-298356Y-37153D01*
X-298245Y-37301D01*
X-298142Y-37456D01*
X-298039Y-37611D01*
X-297950Y-37744D01*
X-297906Y-37803D01*
X-297876Y-37854D01*
X-297847Y-37899D01*
X-297825Y-37928D01*
X-297817Y-37950D01*
X-297810Y-37958D01*
X-296909Y-39375D01*
X-295780D01*
Y-32563D01*
D02*
G37*
G36*
X-313765D02*
X-314599D01*
Y-39375D01*
X-313765D01*
Y-32563D01*
D02*
G37*
G36*
X-356953Y-32563D02*
X-357942D01*
Y-39375D01*
X-357108D01*
Y-36681D01*
X-357101Y-36474D01*
X-357086Y-36290D01*
X-357064Y-36135D01*
X-357042Y-36009D01*
X-357020Y-35906D01*
X-356997Y-35832D01*
X-356990Y-35810D01*
X-356983Y-35788D01*
X-356975Y-35773D01*
X-356916Y-35655D01*
X-356842Y-35552D01*
X-356769Y-35463D01*
X-356687Y-35389D01*
X-356621Y-35330D01*
X-356562Y-35286D01*
X-356525Y-35257D01*
X-356510Y-35249D01*
X-356385Y-35183D01*
X-356259Y-35131D01*
X-356141Y-35102D01*
X-356038Y-35072D01*
X-355942Y-35057D01*
X-355868Y-35050D01*
X-355809D01*
X-355632Y-35065D01*
X-355477Y-35094D01*
X-355352Y-35138D01*
X-355241Y-35190D01*
X-355152Y-35249D01*
X-355093Y-35293D01*
X-355057Y-35323D01*
X-355042Y-35338D01*
X-354990Y-35397D01*
X-354953Y-35456D01*
X-354887Y-35603D01*
X-354835Y-35751D01*
X-354806Y-35906D01*
X-354783Y-36039D01*
X-354776Y-36098D01*
Y-36149D01*
X-354769Y-36194D01*
Y-36223D01*
Y-36246D01*
Y-36253D01*
Y-39375D01*
X-355938D01*
X-353935D01*
Y-36120D01*
X-353942Y-35995D01*
X-353949Y-35877D01*
X-353964Y-35773D01*
X-353979Y-35670D01*
X-353994Y-35581D01*
X-354009Y-35500D01*
X-354023Y-35426D01*
X-354038Y-35360D01*
X-354053Y-35301D01*
X-354068Y-35257D01*
X-354082Y-35212D01*
X-354097Y-35183D01*
X-354104Y-35161D01*
X-354112Y-35153D01*
Y-35146D01*
X-354186Y-35013D01*
X-354274Y-34888D01*
X-354378Y-34784D01*
X-354466Y-34703D01*
X-354555Y-34637D01*
X-354628Y-34585D01*
X-354658Y-34570D01*
X-354680Y-34556D01*
X-354688Y-34548D01*
X-354695D01*
X-354850Y-34474D01*
X-355012Y-34423D01*
X-355167Y-34378D01*
X-355315Y-34356D01*
X-355448Y-34341D01*
X-355499Y-34334D01*
X-355551Y-34327D01*
X-355640D01*
X-355802Y-34334D01*
X-355957Y-34356D01*
X-356104Y-34393D01*
X-356245Y-34430D01*
X-356370Y-34489D01*
X-356496Y-34541D01*
X-356606Y-34607D01*
X-356702Y-34666D01*
X-356798Y-34733D01*
X-356879Y-34799D01*
X-356946Y-34851D01*
X-357005Y-34902D01*
X-357049Y-34947D01*
X-357079Y-34984D01*
X-357101Y-35006D01*
X-357108Y-35013D01*
Y-32563D01*
X-356953D01*
D02*
G37*
%LPD*%
G36*
X-293360Y-39485D02*
D01*
D01*
D01*
D02*
G37*
%LPC*%
G36*
X-306002Y-38423D02*
X-306954D01*
Y-39375D01*
X-306481D01*
X-306489Y-39522D01*
X-306511Y-39655D01*
X-306533Y-39766D01*
X-306555Y-39854D01*
X-306577Y-39928D01*
X-306599Y-39980D01*
X-306614Y-40017D01*
X-306622Y-40024D01*
X-306673Y-40105D01*
X-306732Y-40172D01*
X-306799Y-40231D01*
X-306865Y-40282D01*
X-306924Y-40319D01*
X-306968Y-40349D01*
X-306998Y-40363D01*
X-307013Y-40371D01*
X-306784Y-40725D01*
X-307013D01*
D01*
X-306002D01*
X-306784D01*
X-306644Y-40651D01*
X-306518Y-40570D01*
X-306415Y-40489D01*
X-306334Y-40408D01*
X-306275Y-40334D01*
X-306230Y-40275D01*
X-306201Y-40238D01*
X-306193Y-40223D01*
X-306127Y-40090D01*
X-306083Y-39950D01*
X-306046Y-39810D01*
X-306024Y-39677D01*
X-306009Y-39559D01*
Y-39507D01*
X-306002Y-39463D01*
Y-38423D01*
D02*
G37*
G36*
X-270615Y-32452D02*
X-272858D01*
X-272755Y-32629D01*
X-272666Y-32792D01*
X-272578Y-32947D01*
X-272504Y-33087D01*
X-272437Y-33212D01*
X-272378Y-33323D01*
X-272319Y-33426D01*
X-272275Y-33515D01*
X-272238Y-33596D01*
X-272201Y-33663D01*
X-272172Y-33722D01*
X-272150Y-33766D01*
X-272135Y-33803D01*
X-272120Y-33825D01*
X-272113Y-33840D01*
Y-33847D01*
X-272017Y-34091D01*
X-271928Y-34327D01*
X-271854Y-34548D01*
X-271817Y-34659D01*
X-271788Y-34755D01*
X-271766Y-34843D01*
X-271744Y-34932D01*
X-271722Y-35006D01*
X-271707Y-35065D01*
X-271692Y-35116D01*
X-271685Y-35153D01*
X-271677Y-35175D01*
Y-35183D01*
X-271611Y-35508D01*
X-271559Y-35817D01*
X-271537Y-35965D01*
X-271522Y-36113D01*
X-271508Y-36246D01*
X-271493Y-36371D01*
X-271485Y-36489D01*
X-271478Y-36592D01*
Y-36688D01*
X-271471Y-36769D01*
Y-36829D01*
Y-36880D01*
Y-36910D01*
Y-36917D01*
X-271478Y-37124D01*
X-271485Y-37338D01*
X-271530Y-37751D01*
X-271596Y-38157D01*
X-271685Y-38555D01*
X-271795Y-38939D01*
X-271906Y-39308D01*
X-272031Y-39655D01*
X-272164Y-39987D01*
X-272297Y-40282D01*
X-272356Y-40422D01*
X-272415Y-40555D01*
X-272482Y-40674D01*
X-272533Y-40791D01*
X-272592Y-40895D01*
X-272644Y-40991D01*
X-272688Y-41079D01*
X-272733Y-41153D01*
X-272769Y-41220D01*
X-272799Y-41271D01*
X-272821Y-41315D01*
X-272843Y-41352D01*
X-272851Y-41367D01*
X-272858Y-41375D01*
D01*
X-272260D01*
X-272017Y-41035D01*
X-271795Y-40681D01*
X-271596Y-40341D01*
X-271508Y-40179D01*
X-271426Y-40024D01*
X-271353Y-39876D01*
X-271286Y-39744D01*
X-271234Y-39625D01*
X-271190Y-39530D01*
X-271153Y-39441D01*
X-271124Y-39382D01*
X-271109Y-39345D01*
X-271102Y-39330D01*
X-271013Y-39109D01*
X-270939Y-38895D01*
X-270873Y-38673D01*
X-270821Y-38460D01*
X-270770Y-38253D01*
X-270733Y-38054D01*
X-270703Y-37862D01*
X-270674Y-37685D01*
X-270652Y-37515D01*
X-270637Y-37367D01*
X-270629Y-37234D01*
X-270622Y-37124D01*
X-270615Y-37035D01*
Y-41375D01*
D01*
D01*
Y-36910D01*
X-270622Y-36703D01*
X-270629Y-36504D01*
X-270644Y-36305D01*
X-270674Y-36113D01*
X-270696Y-35936D01*
X-270725Y-35758D01*
X-270762Y-35596D01*
X-270792Y-35441D01*
X-270829Y-35301D01*
X-270858Y-35175D01*
X-270895Y-35065D01*
X-270917Y-34976D01*
X-270939Y-34902D01*
X-270961Y-34843D01*
X-270969Y-34814D01*
X-270976Y-34799D01*
X-271057Y-34578D01*
X-271153Y-34356D01*
X-271353Y-33935D01*
X-271456Y-33729D01*
X-271567Y-33537D01*
X-271670Y-33353D01*
X-271773Y-33183D01*
X-271869Y-33028D01*
X-271965Y-32880D01*
X-272046Y-32755D01*
X-272120Y-32651D01*
X-272179Y-32570D01*
X-272223Y-32504D01*
X-272253Y-32467D01*
X-272260Y-32452D01*
X-270615D01*
D02*
G37*
G36*
X-326651Y-32452D02*
X-328894D01*
X-327249D01*
X-327411Y-32674D01*
X-327559Y-32888D01*
X-327692Y-33102D01*
X-327824Y-33308D01*
X-327935Y-33515D01*
X-328046Y-33707D01*
X-328142Y-33891D01*
X-328223Y-34061D01*
X-328297Y-34223D01*
X-328363Y-34364D01*
X-328415Y-34489D01*
X-328459Y-34592D01*
X-328496Y-34681D01*
X-328518Y-34747D01*
X-328533Y-34784D01*
X-328540Y-34799D01*
X-328599Y-34991D01*
X-328658Y-35183D01*
X-328747Y-35552D01*
X-328776Y-35736D01*
X-328806Y-35913D01*
X-328828Y-36076D01*
X-328850Y-36231D01*
X-328865Y-36378D01*
X-328872Y-36511D01*
X-328887Y-36622D01*
Y-36725D01*
X-328894Y-36799D01*
Y-41375D01*
Y-36910D01*
X-328887Y-37146D01*
X-328872Y-37375D01*
X-328850Y-37596D01*
X-328821Y-37817D01*
X-328784Y-38024D01*
X-328747Y-38223D01*
X-328702Y-38415D01*
X-328658Y-38592D01*
X-328614Y-38747D01*
X-328570Y-38895D01*
X-328533Y-39020D01*
X-328496Y-39131D01*
X-328466Y-39212D01*
X-328444Y-39279D01*
X-328430Y-39316D01*
X-328422Y-39330D01*
X-328326Y-39544D01*
X-328230Y-39751D01*
X-328134Y-39950D01*
X-328038Y-40142D01*
X-327935Y-40319D01*
X-327839Y-40489D01*
X-327743Y-40644D01*
X-327655Y-40792D01*
X-327573Y-40917D01*
X-327492Y-41035D01*
X-327426Y-41138D01*
X-327367Y-41220D01*
X-327315Y-41286D01*
X-327278Y-41338D01*
X-327256Y-41367D01*
X-327249Y-41375D01*
X-326651D01*
X-326776Y-41168D01*
X-326894Y-40961D01*
X-327005Y-40755D01*
X-327108Y-40548D01*
X-327293Y-40135D01*
X-327455Y-39744D01*
X-327588Y-39360D01*
X-327699Y-38991D01*
X-327795Y-38637D01*
X-327861Y-38312D01*
X-327920Y-38009D01*
X-327942Y-37876D01*
X-327964Y-37744D01*
X-327979Y-37618D01*
X-327994Y-37500D01*
X-328009Y-37397D01*
X-328016Y-37301D01*
X-328024Y-37212D01*
X-328031Y-37139D01*
Y-37072D01*
X-328038Y-37020D01*
Y-36976D01*
Y-36939D01*
Y-36924D01*
Y-36917D01*
X-328031Y-36592D01*
X-328009Y-36275D01*
X-327994Y-36120D01*
X-327972Y-35980D01*
X-327957Y-35840D01*
X-327935Y-35714D01*
X-327920Y-35596D01*
X-327906Y-35493D01*
X-327883Y-35397D01*
X-327869Y-35316D01*
X-327854Y-35256D01*
X-327847Y-35205D01*
X-327839Y-35175D01*
Y-35168D01*
X-327773Y-34910D01*
X-327699Y-34666D01*
X-327625Y-34437D01*
X-327588Y-34334D01*
X-327559Y-34238D01*
X-327522Y-34150D01*
X-327492Y-34068D01*
X-327463Y-34002D01*
X-327441Y-33943D01*
X-327426Y-33899D01*
X-327411Y-33862D01*
X-327396Y-33840D01*
Y-33832D01*
X-327359Y-33751D01*
X-327315Y-33655D01*
X-327263Y-33552D01*
X-327204Y-33441D01*
X-327079Y-33212D01*
X-326954Y-32983D01*
X-326894Y-32880D01*
X-326843Y-32777D01*
X-326791Y-32688D01*
X-326739Y-32607D01*
X-326703Y-32541D01*
X-326673Y-32496D01*
X-326658Y-32460D01*
X-326651Y-32452D01*
D02*
G37*
G36*
X-366909Y-32452D02*
X-367507D01*
X-367403Y-32629D01*
X-367315Y-32792D01*
X-367226Y-32947D01*
X-367152Y-33087D01*
X-367086Y-33212D01*
X-367027Y-33323D01*
X-366968Y-33426D01*
X-366923Y-33515D01*
X-366887Y-33596D01*
X-366850Y-33663D01*
X-366820Y-33722D01*
X-366798Y-33766D01*
X-366783Y-33803D01*
X-366769Y-33825D01*
X-366761Y-33840D01*
Y-33847D01*
X-366665Y-34091D01*
X-366577Y-34327D01*
X-366503Y-34548D01*
X-366466Y-34659D01*
X-366437Y-34755D01*
X-366414Y-34843D01*
X-366392Y-34932D01*
X-366370Y-35006D01*
X-366355Y-35065D01*
X-366340Y-35116D01*
X-366333Y-35153D01*
X-366326Y-35175D01*
Y-35183D01*
X-366259Y-35508D01*
X-366208Y-35817D01*
X-366186Y-35965D01*
X-366171Y-36113D01*
X-366156Y-36246D01*
X-366141Y-36371D01*
X-366134Y-36489D01*
X-366126Y-36592D01*
Y-36688D01*
X-366119Y-36770D01*
Y-36829D01*
Y-36880D01*
Y-36910D01*
Y-36917D01*
X-366126Y-37124D01*
X-366134Y-37338D01*
X-366178Y-37751D01*
X-366245Y-38157D01*
X-366333Y-38555D01*
X-366444Y-38939D01*
X-366555Y-39308D01*
X-366680Y-39655D01*
X-366813Y-39987D01*
X-366946Y-40282D01*
X-367005Y-40423D01*
X-367064Y-40555D01*
X-367130Y-40674D01*
X-367182Y-40792D01*
X-367241Y-40895D01*
X-367292Y-40991D01*
X-367337Y-41079D01*
X-367381Y-41153D01*
X-367418Y-41220D01*
X-367447Y-41271D01*
X-367470Y-41315D01*
X-367492Y-41352D01*
X-367499Y-41367D01*
X-367507Y-41375D01*
D01*
X-365263D01*
D01*
X-366909D01*
X-366665Y-41035D01*
X-366444Y-40681D01*
X-366245Y-40341D01*
X-366156Y-40179D01*
X-366075Y-40024D01*
X-366001Y-39876D01*
X-365935Y-39744D01*
X-365883Y-39625D01*
X-365839Y-39530D01*
X-365802Y-39441D01*
X-365772Y-39382D01*
X-365757Y-39345D01*
X-365750Y-39330D01*
X-365662Y-39109D01*
X-365588Y-38895D01*
X-365521Y-38673D01*
X-365470Y-38460D01*
X-365418Y-38253D01*
X-365381Y-38054D01*
X-365352Y-37862D01*
X-365322Y-37685D01*
X-365300Y-37515D01*
X-365285Y-37367D01*
X-365278Y-37234D01*
X-365270Y-37124D01*
X-365263Y-37035D01*
Y-36910D01*
X-365270Y-36703D01*
X-365278Y-36504D01*
X-365293Y-36305D01*
X-365322Y-36113D01*
X-365344Y-35936D01*
X-365374Y-35758D01*
X-365411Y-35596D01*
X-365440Y-35441D01*
X-365477Y-35301D01*
X-365507Y-35175D01*
X-365544Y-35065D01*
X-365566Y-34976D01*
X-365588Y-34902D01*
X-365610Y-34843D01*
X-365617Y-34814D01*
X-365625Y-34799D01*
X-365706Y-34578D01*
X-365802Y-34356D01*
X-366001Y-33935D01*
X-366104Y-33729D01*
X-366215Y-33537D01*
X-366318Y-33353D01*
X-366422Y-33183D01*
X-366518Y-33028D01*
X-366614Y-32880D01*
X-366695Y-32755D01*
X-366769Y-32651D01*
X-366828Y-32570D01*
X-366872Y-32504D01*
X-366901Y-32467D01*
X-366909Y-32452D01*
D02*
G37*
G36*
X-373189D02*
X-375433D01*
X-373787D01*
X-373949Y-32674D01*
X-374097Y-32888D01*
X-374230Y-33102D01*
X-374363Y-33308D01*
X-374473Y-33515D01*
X-374584Y-33707D01*
X-374680Y-33891D01*
X-374761Y-34061D01*
X-374835Y-34223D01*
X-374901Y-34364D01*
X-374953Y-34489D01*
X-374997Y-34592D01*
X-375034Y-34681D01*
X-375056Y-34747D01*
X-375071Y-34784D01*
X-375079Y-34799D01*
X-375137Y-34991D01*
X-375197Y-35183D01*
X-375285Y-35552D01*
X-375315Y-35736D01*
X-375344Y-35913D01*
X-375366Y-36076D01*
X-375388Y-36231D01*
X-375403Y-36378D01*
X-375411Y-36511D01*
X-375425Y-36622D01*
Y-36725D01*
X-375433Y-36799D01*
Y-41375D01*
Y-36910D01*
X-375425Y-37146D01*
X-375411Y-37375D01*
X-375388Y-37596D01*
X-375359Y-37817D01*
X-375322Y-38024D01*
X-375285Y-38223D01*
X-375241Y-38415D01*
X-375197Y-38592D01*
X-375152Y-38747D01*
X-375108Y-38895D01*
X-375071Y-39020D01*
X-375034Y-39131D01*
X-375005Y-39212D01*
X-374983Y-39279D01*
X-374968Y-39316D01*
X-374960Y-39330D01*
X-374864Y-39544D01*
X-374768Y-39751D01*
X-374673Y-39950D01*
X-374577Y-40142D01*
X-374473Y-40319D01*
X-374377Y-40489D01*
X-374281Y-40644D01*
X-374193Y-40792D01*
X-374112Y-40917D01*
X-374030Y-41035D01*
X-373964Y-41138D01*
X-373905Y-41220D01*
X-373853Y-41286D01*
X-373816Y-41338D01*
X-373794Y-41367D01*
X-373787Y-41375D01*
X-373189D01*
X-373315Y-41168D01*
X-373433Y-40961D01*
X-373543Y-40755D01*
X-373647Y-40548D01*
X-373831Y-40135D01*
X-373994Y-39744D01*
X-374126Y-39360D01*
X-374237Y-38991D01*
X-374333Y-38637D01*
X-374399Y-38312D01*
X-374459Y-38009D01*
X-374481Y-37876D01*
X-374503Y-37744D01*
X-374518Y-37618D01*
X-374532Y-37500D01*
X-374547Y-37397D01*
X-374554Y-37301D01*
X-374562Y-37212D01*
X-374569Y-37139D01*
Y-37072D01*
X-374577Y-37020D01*
Y-36976D01*
Y-36939D01*
Y-36924D01*
Y-36917D01*
X-374569Y-36592D01*
X-374547Y-36275D01*
X-374532Y-36120D01*
X-374510Y-35980D01*
X-374495Y-35840D01*
X-374473Y-35714D01*
X-374459Y-35596D01*
X-374444Y-35493D01*
X-374422Y-35397D01*
X-374407Y-35316D01*
X-374392Y-35257D01*
X-374385Y-35205D01*
X-374377Y-35175D01*
Y-35168D01*
X-374311Y-34910D01*
X-374237Y-34666D01*
X-374163Y-34437D01*
X-374126Y-34334D01*
X-374097Y-34238D01*
X-374060Y-34150D01*
X-374030Y-34068D01*
X-374001Y-34002D01*
X-373979Y-33943D01*
X-373964Y-33899D01*
X-373949Y-33862D01*
X-373935Y-33840D01*
Y-33832D01*
X-373898Y-33751D01*
X-373853Y-33655D01*
X-373802Y-33552D01*
X-373743Y-33441D01*
X-373617Y-33212D01*
X-373492Y-32983D01*
X-373433Y-32880D01*
X-373381Y-32777D01*
X-373329Y-32688D01*
X-373278Y-32607D01*
X-373241Y-32541D01*
X-373211Y-32496D01*
X-373197Y-32460D01*
X-373189Y-32452D01*
D02*
G37*
G36*
X-303231Y-44611D02*
X-303326D01*
X-303467Y-44619D01*
X-303600Y-44626D01*
X-303725Y-44641D01*
X-303828Y-44663D01*
X-303924Y-44685D01*
X-303991Y-44700D01*
X-304035Y-44707D01*
X-304042Y-44715D01*
X-304050D01*
X-304168Y-44752D01*
X-304278Y-44796D01*
X-304367Y-44840D01*
X-304441Y-44877D01*
X-304500Y-44907D01*
X-304544Y-44936D01*
X-304574Y-44951D01*
X-304581Y-44958D01*
X-304677Y-45032D01*
X-304758Y-45106D01*
X-304832Y-45187D01*
X-304884Y-45261D01*
X-304935Y-45327D01*
X-304965Y-45379D01*
X-304987Y-45408D01*
X-304994Y-45423D01*
X-305046Y-45527D01*
X-305083Y-45637D01*
X-305105Y-45741D01*
X-305120Y-45836D01*
X-305135Y-45918D01*
X-305142Y-45977D01*
Y-46021D01*
Y-46028D01*
Y-46036D01*
X-305135Y-46169D01*
X-305112Y-46294D01*
X-305083Y-46405D01*
X-305053Y-46501D01*
X-305024Y-46582D01*
X-304994Y-46648D01*
X-304972Y-46685D01*
X-304965Y-46700D01*
X-304891Y-46803D01*
X-304802Y-46899D01*
X-304714Y-46973D01*
X-304625Y-47039D01*
X-304544Y-47098D01*
X-304485Y-47135D01*
X-304441Y-47157D01*
X-304433Y-47165D01*
X-304426D01*
X-304352Y-47194D01*
X-304264Y-47231D01*
X-304175Y-47268D01*
X-304072Y-47298D01*
X-303858Y-47364D01*
X-303651Y-47431D01*
X-303548Y-47460D01*
X-303452Y-47490D01*
X-303363Y-47512D01*
X-303290Y-47534D01*
X-303231Y-47549D01*
X-303179Y-47563D01*
X-303149Y-47571D01*
X-303142D01*
X-303024Y-47600D01*
X-302913Y-47630D01*
X-302810Y-47659D01*
X-302721Y-47689D01*
X-302640Y-47711D01*
X-302574Y-47733D01*
X-302515Y-47755D01*
X-302456Y-47778D01*
X-302411Y-47792D01*
X-302374Y-47807D01*
X-302323Y-47829D01*
X-302293Y-47844D01*
X-302286Y-47851D01*
X-302205Y-47918D01*
X-302138Y-47991D01*
X-302094Y-48065D01*
X-302064Y-48139D01*
X-302050Y-48198D01*
X-302035Y-48257D01*
Y-48287D01*
Y-48301D01*
X-302050Y-48419D01*
X-302079Y-48523D01*
X-302123Y-48619D01*
X-302175Y-48700D01*
X-302227Y-48766D01*
X-302271Y-48811D01*
X-302301Y-48848D01*
X-302315Y-48855D01*
X-302433Y-48929D01*
X-302566Y-48988D01*
X-302714Y-49025D01*
X-302854Y-49054D01*
X-302979Y-49069D01*
X-303031Y-49076D01*
X-303083D01*
X-303120Y-49084D01*
X-303179D01*
X-303378Y-49069D01*
X-303555Y-49039D01*
X-303710Y-49003D01*
X-303836Y-48951D01*
X-303939Y-48907D01*
X-304013Y-48862D01*
X-304057Y-48833D01*
X-304064Y-48825D01*
X-304072D01*
X-304183Y-48715D01*
X-304264Y-48597D01*
X-304330Y-48464D01*
X-304382Y-48338D01*
X-304419Y-48228D01*
X-304433Y-48183D01*
X-304441Y-48139D01*
X-304448Y-48102D01*
Y-48080D01*
X-304455Y-48065D01*
Y-48058D01*
X-305282Y-48191D01*
D01*
X-305253Y-48331D01*
X-305216Y-48471D01*
X-305171Y-48597D01*
X-305127Y-48707D01*
X-305076Y-48818D01*
X-305024Y-48914D01*
X-304972Y-49003D01*
X-304913Y-49084D01*
X-304861Y-49150D01*
X-304810Y-49209D01*
X-304766Y-49261D01*
X-304729Y-49305D01*
X-304692Y-49335D01*
X-304670Y-49357D01*
X-304655Y-49371D01*
X-304647Y-49379D01*
X-304544Y-49445D01*
X-304441Y-49504D01*
X-304323Y-49563D01*
X-304205Y-49608D01*
X-303954Y-49674D01*
X-303717Y-49718D01*
X-303607Y-49740D01*
X-303503Y-49748D01*
X-303408Y-49755D01*
X-303334Y-49763D01*
X-303267Y-49770D01*
X-305282D01*
D01*
X-301179D01*
Y-48213D01*
X-301186Y-48058D01*
X-301208Y-47918D01*
X-301245Y-47800D01*
X-301282Y-47696D01*
X-301319Y-47608D01*
X-301356Y-47549D01*
X-301378Y-47512D01*
X-301385Y-47497D01*
X-301467Y-47394D01*
X-301555Y-47305D01*
X-301651Y-47231D01*
X-301740Y-47172D01*
X-301814Y-47121D01*
X-301880Y-47091D01*
X-301924Y-47069D01*
X-301932Y-47062D01*
X-301939D01*
X-302013Y-47032D01*
X-302094Y-47003D01*
X-302183Y-46966D01*
X-302278Y-46936D01*
X-302478Y-46870D01*
X-302684Y-46811D01*
X-302780Y-46781D01*
X-302876Y-46752D01*
X-302957Y-46729D01*
X-303024Y-46707D01*
X-303090Y-46693D01*
X-303134Y-46678D01*
X-303164Y-46670D01*
X-303171D01*
X-303282Y-46641D01*
X-303378Y-46611D01*
X-303467Y-46589D01*
X-303548Y-46567D01*
X-303614Y-46545D01*
X-303673Y-46530D01*
X-303725Y-46516D01*
X-303769Y-46501D01*
X-303836Y-46479D01*
X-303880Y-46464D01*
X-303902Y-46456D01*
X-303909D01*
X-303983Y-46420D01*
X-304050Y-46383D01*
X-304109Y-46346D01*
X-304153Y-46309D01*
X-304190Y-46279D01*
X-304212Y-46257D01*
X-304227Y-46242D01*
X-304234Y-46235D01*
X-304264Y-46183D01*
X-304286Y-46132D01*
X-304315Y-46036D01*
X-304323Y-45999D01*
X-304330Y-45969D01*
Y-45947D01*
Y-45940D01*
X-304323Y-45844D01*
X-304293Y-45763D01*
X-304256Y-45682D01*
X-304205Y-45615D01*
X-304160Y-45564D01*
X-304123Y-45527D01*
X-304094Y-45497D01*
X-304086Y-45490D01*
X-304035Y-45453D01*
X-303983Y-45423D01*
X-303858Y-45379D01*
X-303717Y-45342D01*
X-303585Y-45320D01*
X-303459Y-45305D01*
X-303408D01*
X-303363Y-45298D01*
X-303267D01*
X-303090Y-45305D01*
X-302943Y-45335D01*
X-302810Y-45364D01*
X-302699Y-45408D01*
X-302618Y-45445D01*
X-302559Y-45482D01*
X-302522Y-45512D01*
X-302507Y-45519D01*
X-302419Y-45608D01*
X-302345Y-45704D01*
X-302286Y-45800D01*
X-302241Y-45896D01*
X-302212Y-45977D01*
X-302197Y-46051D01*
X-302183Y-46095D01*
Y-46102D01*
Y-46110D01*
X-301363Y-45999D01*
X-301400Y-45829D01*
X-301445Y-45682D01*
X-301489Y-45549D01*
X-301540Y-45438D01*
X-301585Y-45357D01*
X-301622Y-45290D01*
X-301651Y-45254D01*
X-301659Y-45239D01*
X-301747Y-45135D01*
X-301850Y-45047D01*
X-301954Y-44966D01*
X-302057Y-44899D01*
X-302160Y-44848D01*
X-302234Y-44811D01*
X-302264Y-44796D01*
X-302286Y-44789D01*
X-302301Y-44781D01*
X-302308D01*
X-302478Y-44722D01*
X-302647Y-44685D01*
X-302825Y-44656D01*
X-302979Y-44634D01*
X-303120Y-44619D01*
X-303179D01*
X-303231Y-44611D01*
D02*
G37*
G36*
X-347651D02*
X-349702Y-44611D01*
X-347747Y-44611D01*
X-347887Y-44619D01*
X-348020Y-44626D01*
X-348145Y-44641D01*
X-348249Y-44663D01*
X-348344Y-44685D01*
X-348411Y-44700D01*
X-348455Y-44707D01*
X-348463Y-44715D01*
X-348470D01*
X-348588Y-44752D01*
X-348699Y-44796D01*
X-348787Y-44840D01*
X-348861Y-44877D01*
X-348920Y-44907D01*
X-348964Y-44936D01*
X-348994Y-44951D01*
X-349001Y-44958D01*
X-349097Y-45032D01*
X-349178Y-45106D01*
X-349252Y-45187D01*
X-349304Y-45261D01*
X-349356Y-45327D01*
X-349385Y-45379D01*
X-349407Y-45408D01*
X-349414Y-45423D01*
X-349466Y-45527D01*
X-349503Y-45637D01*
X-349525Y-45741D01*
X-349540Y-45836D01*
X-349555Y-45918D01*
X-349562Y-45977D01*
Y-46021D01*
Y-46028D01*
Y-46036D01*
X-349555Y-46169D01*
X-349533Y-46294D01*
X-349503Y-46405D01*
X-349474Y-46501D01*
X-349444Y-46582D01*
X-349414Y-46648D01*
X-349392Y-46685D01*
X-349385Y-46700D01*
X-349311Y-46803D01*
X-349223Y-46899D01*
X-349134Y-46973D01*
X-349045Y-47039D01*
X-348964Y-47098D01*
X-348905Y-47135D01*
X-348861Y-47157D01*
X-348854Y-47165D01*
X-348846D01*
X-348772Y-47194D01*
X-348684Y-47231D01*
X-348595Y-47268D01*
X-348492Y-47298D01*
X-348278Y-47364D01*
X-348071Y-47431D01*
X-347968Y-47460D01*
X-347872Y-47490D01*
X-347783Y-47512D01*
X-347710Y-47534D01*
X-347651Y-47549D01*
X-347599Y-47563D01*
X-347569Y-47571D01*
X-347562D01*
X-347444Y-47600D01*
X-347333Y-47630D01*
X-347230Y-47659D01*
X-347142Y-47689D01*
X-347060Y-47711D01*
X-346994Y-47733D01*
X-346935Y-47755D01*
X-346876Y-47778D01*
X-346831Y-47792D01*
X-346795Y-47807D01*
X-346743Y-47829D01*
X-346713Y-47844D01*
X-346706Y-47851D01*
X-346625Y-47918D01*
X-346558Y-47991D01*
X-346514Y-48065D01*
X-346485Y-48139D01*
X-346470Y-48198D01*
X-346455Y-48257D01*
Y-48287D01*
Y-48301D01*
X-346470Y-48419D01*
X-346499Y-48523D01*
X-346544Y-48619D01*
X-346595Y-48700D01*
X-346647Y-48766D01*
X-346691Y-48811D01*
X-346721Y-48848D01*
X-346736Y-48855D01*
X-346854Y-48929D01*
X-346987Y-48988D01*
X-347134Y-49025D01*
X-347274Y-49054D01*
X-347400Y-49069D01*
X-347451Y-49076D01*
X-347503D01*
X-347540Y-49084D01*
X-347599D01*
X-347798Y-49069D01*
X-347975Y-49039D01*
X-348130Y-49003D01*
X-348256Y-48951D01*
X-348359Y-48907D01*
X-348433Y-48862D01*
X-348477Y-48833D01*
X-348485Y-48825D01*
X-348492D01*
X-348603Y-48715D01*
X-348684Y-48597D01*
X-348750Y-48464D01*
X-348802Y-48338D01*
X-348839Y-48228D01*
X-348854Y-48183D01*
X-348861Y-48139D01*
X-348868Y-48102D01*
Y-48080D01*
X-348876Y-48065D01*
Y-48058D01*
X-349702Y-48191D01*
D01*
X-349673Y-48331D01*
X-349636Y-48471D01*
X-349592Y-48597D01*
X-349547Y-48707D01*
X-349496Y-48818D01*
X-349444Y-48914D01*
X-349392Y-49003D01*
X-349333Y-49084D01*
X-349282Y-49150D01*
X-349230Y-49209D01*
X-349186Y-49261D01*
X-349149Y-49305D01*
X-349112Y-49335D01*
X-349090Y-49357D01*
X-349075Y-49372D01*
X-349068Y-49379D01*
X-348964Y-49445D01*
X-348861Y-49504D01*
X-348743Y-49563D01*
X-348625Y-49608D01*
X-348374Y-49674D01*
X-348138Y-49718D01*
X-348027Y-49740D01*
X-347924Y-49748D01*
X-347828Y-49755D01*
X-347754Y-49763D01*
X-347688Y-49770D01*
X-347592D01*
X-347378Y-49763D01*
X-347186Y-49740D01*
X-347009Y-49704D01*
X-346854Y-49667D01*
X-346787Y-49652D01*
X-346728Y-49637D01*
X-346676Y-49615D01*
X-346632Y-49600D01*
X-346595Y-49586D01*
X-346573Y-49578D01*
X-346558Y-49571D01*
X-346551D01*
X-346389Y-49490D01*
X-346249Y-49401D01*
X-346130Y-49305D01*
X-346027Y-49209D01*
X-345953Y-49128D01*
X-345894Y-49062D01*
X-345865Y-49017D01*
X-345850Y-49010D01*
Y-49003D01*
X-345769Y-48862D01*
X-345702Y-48722D01*
X-345658Y-48589D01*
X-345629Y-48471D01*
X-345614Y-48368D01*
X-345599Y-48287D01*
Y-49674D01*
Y-48213D01*
X-345606Y-48058D01*
X-345629Y-47918D01*
X-345666Y-47800D01*
X-345702Y-47696D01*
X-345739Y-47608D01*
X-345776Y-47549D01*
X-345798Y-47512D01*
X-345806Y-47497D01*
X-345887Y-47394D01*
X-345975Y-47305D01*
X-346071Y-47231D01*
X-346160Y-47172D01*
X-346234Y-47121D01*
X-346300Y-47091D01*
X-346344Y-47069D01*
X-346352Y-47062D01*
X-346359D01*
X-346433Y-47032D01*
X-346514Y-47003D01*
X-346603Y-46966D01*
X-346699Y-46936D01*
X-346898Y-46870D01*
X-347105Y-46811D01*
X-347200Y-46781D01*
X-347296Y-46752D01*
X-347378Y-46729D01*
X-347444Y-46707D01*
X-347511Y-46693D01*
X-347555Y-46678D01*
X-347584Y-46670D01*
X-347592D01*
X-347702Y-46641D01*
X-347798Y-46611D01*
X-347887Y-46589D01*
X-347968Y-46567D01*
X-348034Y-46545D01*
X-348094Y-46530D01*
X-348145Y-46516D01*
X-348189Y-46501D01*
X-348256Y-46479D01*
X-348300Y-46464D01*
X-348322Y-46456D01*
X-348330D01*
X-348403Y-46420D01*
X-348470Y-46383D01*
X-348529Y-46346D01*
X-348573Y-46309D01*
X-348610Y-46279D01*
X-348632Y-46257D01*
X-348647Y-46242D01*
X-348654Y-46235D01*
X-348684Y-46183D01*
X-348706Y-46132D01*
X-348735Y-46036D01*
X-348743Y-45999D01*
X-348750Y-45969D01*
Y-45947D01*
Y-45940D01*
X-348743Y-45844D01*
X-348713Y-45763D01*
X-348676Y-45682D01*
X-348625Y-45615D01*
X-348581Y-45564D01*
X-348544Y-45527D01*
X-348514Y-45497D01*
X-348507Y-45490D01*
X-348455Y-45453D01*
X-348403Y-45423D01*
X-348278Y-45379D01*
X-348138Y-45342D01*
X-348005Y-45320D01*
X-347880Y-45305D01*
X-347828D01*
X-347783Y-45298D01*
X-347688D01*
X-347511Y-45305D01*
X-347363Y-45335D01*
X-347230Y-45364D01*
X-347119Y-45408D01*
X-347038Y-45445D01*
X-346979Y-45482D01*
X-346942Y-45512D01*
X-346927Y-45519D01*
X-346839Y-45608D01*
X-346765Y-45704D01*
X-346706Y-45800D01*
X-346662Y-45896D01*
X-346632Y-45977D01*
X-346618Y-46051D01*
X-346603Y-46095D01*
Y-46102D01*
Y-46110D01*
X-345783Y-45999D01*
X-345820Y-45829D01*
X-345865Y-45682D01*
X-345909Y-45549D01*
X-345961Y-45438D01*
X-346005Y-45357D01*
X-346042Y-45290D01*
X-346071Y-45254D01*
X-346079Y-45239D01*
X-346167Y-45135D01*
X-346271Y-45047D01*
X-346374Y-44966D01*
X-346477Y-44899D01*
X-346581Y-44848D01*
X-346654Y-44811D01*
X-346684Y-44796D01*
X-346706Y-44789D01*
X-346721Y-44781D01*
X-346728D01*
X-346898Y-44722D01*
X-347068Y-44685D01*
X-347245Y-44656D01*
X-347400Y-44634D01*
X-347540Y-44619D01*
X-347599D01*
X-347651Y-44611D01*
D02*
G37*
G36*
X-280810Y-44611D02*
Y-46272D01*
X-280817Y-46117D01*
X-280825Y-45977D01*
X-280847Y-45844D01*
X-280869Y-45718D01*
X-280899Y-45608D01*
X-280936Y-45504D01*
X-280972Y-45416D01*
X-281009Y-45335D01*
X-281046Y-45261D01*
X-281083Y-45195D01*
X-281113Y-45143D01*
X-281150Y-45099D01*
X-281172Y-45069D01*
X-281194Y-45047D01*
X-281201Y-45032D01*
X-281208Y-45025D01*
X-281282Y-44951D01*
X-281371Y-44884D01*
X-281459Y-44833D01*
X-281548Y-44789D01*
X-281740Y-44715D01*
X-281917Y-44663D01*
X-282006Y-44648D01*
X-282087Y-44634D01*
X-282153Y-44626D01*
X-282220Y-44619D01*
X-282264Y-44611D01*
X-280810D01*
X-287504D01*
D01*
X-285260D01*
X-285437Y-44619D01*
X-285607Y-44648D01*
X-285755Y-44678D01*
X-285888Y-44722D01*
X-285991Y-44759D01*
X-286035Y-44781D01*
X-286072Y-44796D01*
X-286102Y-44811D01*
X-286124Y-44826D01*
X-286131Y-44833D01*
X-286138D01*
X-286279Y-44921D01*
X-286397Y-45017D01*
X-286500Y-45113D01*
X-286589Y-45209D01*
X-286662Y-45290D01*
X-286714Y-45357D01*
X-286743Y-45401D01*
X-286758Y-45408D01*
Y-44722D01*
X-287504D01*
Y-49659D01*
X-286670D01*
Y-47098D01*
Y-46973D01*
X-286662Y-46862D01*
X-286655Y-46752D01*
X-286648Y-46656D01*
X-286640Y-46560D01*
X-286626Y-46479D01*
X-286618Y-46405D01*
X-286603Y-46331D01*
X-286589Y-46272D01*
X-286581Y-46220D01*
X-286566Y-46176D01*
X-286559Y-46139D01*
X-286552Y-46110D01*
X-286544Y-46087D01*
X-286537Y-46080D01*
Y-46073D01*
X-286478Y-45947D01*
X-286411Y-45836D01*
X-286338Y-45741D01*
X-286264Y-45667D01*
X-286205Y-45600D01*
X-286153Y-45564D01*
X-286116Y-45534D01*
X-286102Y-45526D01*
X-285983Y-45460D01*
X-285873Y-45416D01*
X-285762Y-45379D01*
X-285659Y-45357D01*
X-285570Y-45342D01*
X-285504Y-45335D01*
X-285445D01*
X-285282Y-45349D01*
X-285142Y-45379D01*
X-285031Y-45423D01*
X-284935Y-45475D01*
X-284869Y-45526D01*
X-284817Y-45571D01*
X-284788Y-45600D01*
X-284781Y-45615D01*
X-284714Y-45733D01*
X-284662Y-45866D01*
X-284626Y-46006D01*
X-284596Y-46139D01*
X-284581Y-46265D01*
Y-46316D01*
X-284574Y-46360D01*
Y-46405D01*
Y-46434D01*
Y-46449D01*
Y-46456D01*
Y-49659D01*
X-283740D01*
Y-46796D01*
X-283733Y-46656D01*
X-283725Y-46530D01*
X-283710Y-46405D01*
X-283688Y-46294D01*
X-283659Y-46198D01*
X-283629Y-46102D01*
X-283600Y-46021D01*
X-283563Y-45947D01*
X-283533Y-45888D01*
X-283504Y-45829D01*
X-283474Y-45785D01*
X-283445Y-45748D01*
X-283422Y-45718D01*
X-283408Y-45696D01*
X-283393Y-45689D01*
Y-45682D01*
X-283327Y-45623D01*
X-283253Y-45564D01*
X-283113Y-45482D01*
X-282965Y-45416D01*
X-282825Y-45379D01*
X-282707Y-45349D01*
X-282655Y-45342D01*
X-282611D01*
X-282574Y-45335D01*
X-282522D01*
X-282419Y-45342D01*
X-282323Y-45357D01*
X-282234Y-45379D01*
X-282161Y-45401D01*
X-282101Y-45431D01*
X-282057Y-45453D01*
X-282028Y-45467D01*
X-282020Y-45475D01*
X-281946Y-45526D01*
X-281880Y-45586D01*
X-281836Y-45645D01*
X-281792Y-45704D01*
X-281762Y-45755D01*
X-281740Y-45792D01*
X-281725Y-45822D01*
Y-45829D01*
X-281696Y-45925D01*
X-281681Y-46036D01*
X-281666Y-46154D01*
X-281651Y-46272D01*
Y-46383D01*
X-281644Y-46471D01*
Y-46501D01*
Y-46530D01*
Y-46545D01*
Y-46552D01*
Y-49659D01*
X-280810D01*
Y-44611D01*
D02*
G37*
G36*
X-324706Y-44611D02*
Y-46272D01*
X-324714Y-46117D01*
X-324721Y-45977D01*
X-324743Y-45844D01*
X-324765Y-45718D01*
X-324795Y-45608D01*
X-324832Y-45504D01*
X-324869Y-45416D01*
X-324905Y-45335D01*
X-324942Y-45261D01*
X-324979Y-45195D01*
X-325009Y-45143D01*
X-325046Y-45099D01*
X-325068Y-45069D01*
X-325090Y-45047D01*
X-325097Y-45032D01*
X-325105Y-45025D01*
X-325179Y-44951D01*
X-325267Y-44884D01*
X-325356Y-44833D01*
X-325444Y-44789D01*
X-325636Y-44715D01*
X-325813Y-44663D01*
X-325902Y-44648D01*
X-325983Y-44634D01*
X-326049Y-44626D01*
X-326116Y-44619D01*
X-326160Y-44611D01*
X-324706D01*
X-331400D01*
X-329156D01*
X-329333Y-44619D01*
X-329503Y-44648D01*
X-329651Y-44678D01*
X-329784Y-44722D01*
X-329887Y-44759D01*
X-329931Y-44781D01*
X-329968Y-44796D01*
X-329998Y-44811D01*
X-330020Y-44826D01*
X-330027Y-44833D01*
X-330035D01*
X-330175Y-44921D01*
X-330293Y-45017D01*
X-330396Y-45113D01*
X-330485Y-45209D01*
X-330559Y-45290D01*
X-330610Y-45357D01*
X-330640Y-45401D01*
X-330655Y-45408D01*
Y-44722D01*
X-331400D01*
Y-49659D01*
X-330566D01*
Y-47098D01*
Y-46973D01*
X-330559Y-46862D01*
X-330551Y-46752D01*
X-330544Y-46656D01*
X-330537Y-46560D01*
X-330522Y-46479D01*
X-330514Y-46405D01*
X-330500Y-46331D01*
X-330485Y-46272D01*
X-330477Y-46220D01*
X-330463Y-46176D01*
X-330455Y-46139D01*
X-330448Y-46110D01*
X-330440Y-46087D01*
X-330433Y-46080D01*
Y-46073D01*
X-330374Y-45947D01*
X-330308Y-45836D01*
X-330234Y-45741D01*
X-330160Y-45667D01*
X-330101Y-45600D01*
X-330049Y-45564D01*
X-330012Y-45534D01*
X-329998Y-45527D01*
X-329880Y-45460D01*
X-329769Y-45416D01*
X-329658Y-45379D01*
X-329555Y-45357D01*
X-329466Y-45342D01*
X-329400Y-45335D01*
X-329341D01*
X-329179Y-45349D01*
X-329038Y-45379D01*
X-328928Y-45423D01*
X-328832Y-45475D01*
X-328765Y-45527D01*
X-328714Y-45571D01*
X-328684Y-45600D01*
X-328677Y-45615D01*
X-328610Y-45733D01*
X-328559Y-45866D01*
X-328522Y-46006D01*
X-328492Y-46139D01*
X-328477Y-46265D01*
Y-46316D01*
X-328470Y-46360D01*
Y-46405D01*
Y-46434D01*
Y-46449D01*
Y-46456D01*
Y-49659D01*
X-329169D01*
X-327636D01*
Y-46796D01*
X-327629Y-46656D01*
X-327621Y-46530D01*
X-327607Y-46405D01*
X-327585Y-46294D01*
X-327555Y-46198D01*
X-327525Y-46102D01*
X-327496Y-46021D01*
X-327459Y-45947D01*
X-327430Y-45888D01*
X-327400Y-45829D01*
X-327370Y-45785D01*
X-327341Y-45748D01*
X-327319Y-45718D01*
X-327304Y-45696D01*
X-327289Y-45689D01*
Y-45682D01*
X-327223Y-45623D01*
X-327149Y-45564D01*
X-327009Y-45482D01*
X-326861Y-45416D01*
X-326721Y-45379D01*
X-326603Y-45349D01*
X-326551Y-45342D01*
X-326507D01*
X-326470Y-45335D01*
X-326418D01*
X-326315Y-45342D01*
X-326219Y-45357D01*
X-326131Y-45379D01*
X-326057Y-45401D01*
X-325998Y-45431D01*
X-325954Y-45453D01*
X-325924Y-45467D01*
X-325917Y-45475D01*
X-325843Y-45527D01*
X-325776Y-45586D01*
X-325732Y-45645D01*
X-325688Y-45704D01*
X-325658Y-45755D01*
X-325636Y-45792D01*
X-325621Y-45822D01*
Y-45829D01*
X-325592Y-45925D01*
X-325577Y-46036D01*
X-325562Y-46154D01*
X-325548Y-46272D01*
Y-46383D01*
X-325540Y-46471D01*
Y-46501D01*
Y-46530D01*
Y-46545D01*
Y-46552D01*
Y-49659D01*
X-326938D01*
X-324706D01*
Y-44611D01*
D02*
G37*
G36*
X-293504D02*
Y-47962D01*
X-294323Y-47851D01*
X-294345Y-47969D01*
X-294367Y-48073D01*
X-294397Y-48176D01*
X-294426Y-48265D01*
X-294463Y-48353D01*
X-294493Y-48427D01*
X-294529Y-48493D01*
X-294566Y-48560D01*
X-294603Y-48611D01*
X-294633Y-48656D01*
X-294692Y-48730D01*
X-294729Y-48774D01*
X-294736Y-48781D01*
X-294743Y-48788D01*
X-294876Y-48884D01*
X-295009Y-48958D01*
X-295149Y-49010D01*
X-295275Y-49047D01*
X-295393Y-49069D01*
X-295437Y-49076D01*
X-295481D01*
X-295518Y-49084D01*
X-295563D01*
X-295673Y-49076D01*
X-295784Y-49062D01*
X-295880Y-49039D01*
X-295976Y-49010D01*
X-296146Y-48943D01*
X-296293Y-48855D01*
X-296352Y-48818D01*
X-296404Y-48774D01*
X-296448Y-48737D01*
X-296493Y-48700D01*
X-296522Y-48678D01*
X-296544Y-48656D01*
X-296552Y-48641D01*
X-296559Y-48634D01*
X-296625Y-48545D01*
X-296684Y-48442D01*
X-296736Y-48331D01*
X-296773Y-48220D01*
X-296847Y-47977D01*
X-296891Y-47741D01*
X-296906Y-47630D01*
X-296913Y-47526D01*
X-296921Y-47431D01*
X-296928Y-47349D01*
X-296935Y-47283D01*
Y-47231D01*
Y-47194D01*
Y-47187D01*
X-296928Y-47010D01*
X-296921Y-46840D01*
X-296898Y-46693D01*
X-296876Y-46552D01*
X-296847Y-46420D01*
X-296810Y-46301D01*
X-296773Y-46198D01*
X-296736Y-46102D01*
X-296707Y-46021D01*
X-296670Y-45947D01*
X-296633Y-45888D01*
X-296603Y-45844D01*
X-296581Y-45800D01*
X-296559Y-45777D01*
X-296552Y-45763D01*
X-296544Y-45755D01*
X-296470Y-45674D01*
X-296389Y-45608D01*
X-296301Y-45541D01*
X-296219Y-45490D01*
X-296131Y-45445D01*
X-296050Y-45408D01*
X-295887Y-45357D01*
X-295740Y-45320D01*
X-295681Y-45312D01*
X-295622Y-45305D01*
X-295577Y-45298D01*
X-295518D01*
X-295371Y-45305D01*
X-295231Y-45335D01*
X-295112Y-45379D01*
X-295009Y-45423D01*
X-294928Y-45475D01*
X-294862Y-45512D01*
X-294825Y-45541D01*
X-294810Y-45556D01*
X-294707Y-45659D01*
X-294618Y-45777D01*
X-294552Y-45903D01*
X-294493Y-46021D01*
X-294448Y-46132D01*
X-294419Y-46220D01*
X-294411Y-46257D01*
X-294404Y-46279D01*
X-294397Y-46294D01*
Y-46301D01*
X-293585Y-46176D01*
X-293614Y-46043D01*
X-293659Y-45910D01*
X-293703Y-45792D01*
X-293747Y-45682D01*
X-293799Y-45578D01*
X-293858Y-45482D01*
X-293910Y-45401D01*
X-293969Y-45320D01*
X-294020Y-45254D01*
X-294072Y-45195D01*
X-294116Y-45143D01*
X-294160Y-45099D01*
X-294190Y-45069D01*
X-294219Y-45047D01*
X-294234Y-45032D01*
X-294242Y-45025D01*
X-294338Y-44951D01*
X-294441Y-44884D01*
X-294552Y-44833D01*
X-294662Y-44789D01*
X-294884Y-44715D01*
X-295090Y-44663D01*
X-295186Y-44648D01*
X-295275Y-44634D01*
X-295356Y-44626D01*
X-295422Y-44619D01*
X-295474Y-44611D01*
X-295555D01*
X-295784Y-44626D01*
X-296005Y-44656D01*
X-296205Y-44707D01*
X-296293Y-44737D01*
X-296382Y-44759D01*
X-296456Y-44789D01*
X-296522Y-44818D01*
X-296581Y-44840D01*
X-296633Y-44870D01*
X-296677Y-44884D01*
X-296707Y-44899D01*
X-296721Y-44914D01*
X-296729D01*
X-296921Y-45039D01*
X-297083Y-45180D01*
X-297223Y-45335D01*
X-297334Y-45475D01*
X-297422Y-45608D01*
X-297452Y-45667D01*
X-297481Y-45718D01*
X-297504Y-45755D01*
X-297518Y-45785D01*
X-297533Y-45807D01*
Y-45814D01*
X-297622Y-46043D01*
X-297681Y-46287D01*
X-297725Y-46523D01*
X-297762Y-46737D01*
X-297769Y-46840D01*
X-297777Y-46929D01*
X-297784Y-47010D01*
Y-47084D01*
X-297791Y-47135D01*
Y-47098D01*
Y-47217D01*
X-297784Y-47438D01*
X-297762Y-47652D01*
X-297732Y-47851D01*
X-297695Y-48036D01*
X-297651Y-48206D01*
X-297600Y-48360D01*
X-297540Y-48501D01*
X-297481Y-48626D01*
X-297430Y-48737D01*
X-297371Y-48840D01*
X-297319Y-48921D01*
X-297275Y-48988D01*
X-297238Y-49047D01*
X-297208Y-49084D01*
X-297186Y-49106D01*
X-297179Y-49113D01*
X-297061Y-49231D01*
X-296935Y-49327D01*
X-296802Y-49416D01*
X-296670Y-49490D01*
X-296529Y-49556D01*
X-296397Y-49608D01*
X-296264Y-49652D01*
X-296138Y-49689D01*
X-296020Y-49718D01*
X-295910Y-49733D01*
X-295806Y-49748D01*
X-295725Y-49763D01*
X-295651D01*
X-295600Y-49770D01*
X-297791D01*
D01*
X-293504D01*
Y-44611D01*
D02*
G37*
G36*
X-361230Y-42848D02*
D01*
Y-46405D01*
X-361237Y-46279D01*
X-361245Y-46161D01*
X-361259Y-46058D01*
X-361274Y-45955D01*
X-361289Y-45866D01*
X-361304Y-45785D01*
X-361318Y-45711D01*
X-361333Y-45645D01*
X-361348Y-45586D01*
X-361363Y-45541D01*
X-361378Y-45497D01*
X-361392Y-45467D01*
X-361400Y-45445D01*
X-361407Y-45438D01*
Y-45431D01*
X-361481Y-45298D01*
X-361569Y-45172D01*
X-361673Y-45069D01*
X-361761Y-44988D01*
X-361850Y-44921D01*
X-361924Y-44870D01*
X-361953Y-44855D01*
X-361975Y-44840D01*
X-361983Y-44833D01*
X-361990D01*
X-362145Y-44759D01*
X-362307Y-44707D01*
X-362462Y-44663D01*
X-362610Y-44641D01*
X-362743Y-44626D01*
X-362794Y-44619D01*
X-362846Y-44611D01*
X-362935D01*
X-363097Y-44619D01*
X-363252Y-44641D01*
X-363400Y-44678D01*
X-363540Y-44715D01*
X-363665Y-44774D01*
X-363791Y-44826D01*
X-363901Y-44892D01*
X-363997Y-44951D01*
X-364093Y-45017D01*
X-364175Y-45084D01*
X-364241Y-45135D01*
X-364300Y-45187D01*
X-364344Y-45231D01*
X-364374Y-45268D01*
X-364396Y-45290D01*
X-364403Y-45298D01*
Y-42848D01*
X-361230D01*
X-365237D01*
Y-49659D01*
X-364403D01*
Y-46966D01*
X-364396Y-46759D01*
X-364381Y-46575D01*
X-364359Y-46420D01*
X-364337Y-46294D01*
X-364315Y-46191D01*
X-364293Y-46117D01*
X-364285Y-46095D01*
X-364278Y-46073D01*
X-364270Y-46058D01*
X-364211Y-45940D01*
X-364138Y-45836D01*
X-364064Y-45748D01*
X-363983Y-45674D01*
X-363916Y-45615D01*
X-363857Y-45571D01*
X-363820Y-45541D01*
X-363806Y-45534D01*
X-363680Y-45467D01*
X-363555Y-45416D01*
X-363437Y-45386D01*
X-363333Y-45357D01*
X-363237Y-45342D01*
X-363163Y-45335D01*
X-363104D01*
X-362927Y-45349D01*
X-362772Y-45379D01*
X-362647Y-45423D01*
X-362536Y-45475D01*
X-362448Y-45534D01*
X-362388Y-45578D01*
X-362352Y-45608D01*
X-362337Y-45623D01*
X-362285Y-45682D01*
X-362248Y-45741D01*
X-362182Y-45888D01*
X-362130Y-46036D01*
X-362101Y-46191D01*
X-362079Y-46324D01*
X-362071Y-46383D01*
Y-46434D01*
X-362064Y-46479D01*
Y-46508D01*
Y-46530D01*
Y-46538D01*
Y-49659D01*
X-361230D01*
Y-42848D01*
D02*
G37*
G36*
X-314168Y-44611D02*
Y-46427D01*
X-314175Y-46331D01*
Y-46250D01*
X-314182Y-46176D01*
Y-46110D01*
X-314190Y-45999D01*
X-314205Y-45918D01*
X-314212Y-45859D01*
X-314219Y-45822D01*
Y-45814D01*
X-314249Y-45682D01*
X-314293Y-45564D01*
X-314330Y-45460D01*
X-314374Y-45372D01*
X-314419Y-45298D01*
X-314448Y-45239D01*
X-314470Y-45209D01*
X-314478Y-45195D01*
X-314551Y-45099D01*
X-314640Y-45017D01*
X-314736Y-44951D01*
X-314824Y-44884D01*
X-314913Y-44840D01*
X-314979Y-44803D01*
X-315024Y-44781D01*
X-315031Y-44774D01*
X-315038D01*
X-315179Y-44722D01*
X-315319Y-44678D01*
X-315459Y-44648D01*
X-315585Y-44634D01*
X-315695Y-44619D01*
X-315740D01*
X-315784Y-44611D01*
X-315858D01*
X-316042Y-44619D01*
X-316219Y-44648D01*
X-316382Y-44685D01*
X-316537Y-44737D01*
X-316677Y-44803D01*
X-316802Y-44870D01*
X-316920Y-44943D01*
X-317024Y-45017D01*
X-317120Y-45099D01*
X-317201Y-45172D01*
X-317267Y-45239D01*
X-317319Y-45305D01*
X-317363Y-45357D01*
X-317400Y-45394D01*
X-317415Y-45423D01*
X-317422Y-45431D01*
Y-44722D01*
X-318175D01*
Y-49659D01*
X-317341D01*
Y-46966D01*
X-317334Y-46796D01*
X-317326Y-46634D01*
X-317304Y-46493D01*
X-317282Y-46360D01*
X-317252Y-46242D01*
X-317223Y-46139D01*
X-317186Y-46043D01*
X-317149Y-45962D01*
X-317112Y-45888D01*
X-317075Y-45829D01*
X-317046Y-45785D01*
X-317016Y-45741D01*
X-316994Y-45711D01*
X-316972Y-45689D01*
X-316965Y-45682D01*
X-316957Y-45674D01*
X-316883Y-45615D01*
X-316802Y-45564D01*
X-316647Y-45475D01*
X-316492Y-45416D01*
X-316352Y-45379D01*
X-316227Y-45349D01*
X-316168Y-45342D01*
X-316123D01*
X-316086Y-45335D01*
X-316035D01*
X-315909Y-45342D01*
X-315799Y-45357D01*
X-315703Y-45386D01*
X-315614Y-45408D01*
X-315548Y-45438D01*
X-315496Y-45467D01*
X-315459Y-45482D01*
X-315452Y-45490D01*
X-315363Y-45549D01*
X-315289Y-45615D01*
X-315230Y-45682D01*
X-315186Y-45748D01*
X-315149Y-45807D01*
X-315127Y-45851D01*
X-315112Y-45881D01*
X-315105Y-45896D01*
X-315068Y-45999D01*
X-315046Y-46117D01*
X-315024Y-46242D01*
X-315016Y-46368D01*
X-315009Y-46479D01*
X-315002Y-46530D01*
Y-46575D01*
Y-46604D01*
Y-46634D01*
Y-46648D01*
Y-46656D01*
Y-49659D01*
X-316171D01*
X-314168D01*
Y-44611D01*
D02*
G37*
G36*
X-319186D02*
Y-47157D01*
X-319193Y-46899D01*
X-319223Y-46656D01*
X-319267Y-46434D01*
X-319289Y-46338D01*
X-319311Y-46242D01*
X-319334Y-46161D01*
X-319356Y-46080D01*
X-319378Y-46014D01*
X-319400Y-45962D01*
X-319415Y-45918D01*
X-319430Y-45888D01*
X-319437Y-45866D01*
Y-45859D01*
X-319540Y-45652D01*
X-319651Y-45467D01*
X-319776Y-45312D01*
X-319895Y-45180D01*
X-319998Y-45076D01*
X-320086Y-45003D01*
X-320123Y-44980D01*
X-320145Y-44958D01*
X-320160Y-44943D01*
X-320168D01*
X-320256Y-44884D01*
X-320352Y-44833D01*
X-320544Y-44752D01*
X-320728Y-44693D01*
X-320906Y-44656D01*
X-320987Y-44641D01*
X-321053Y-44626D01*
X-321120Y-44619D01*
X-321179D01*
X-321223Y-44611D01*
X-319186D01*
X-323466D01*
D01*
X-321282D01*
X-321452Y-44619D01*
X-321614Y-44641D01*
X-321754Y-44671D01*
X-321872Y-44707D01*
X-321968Y-44744D01*
X-322042Y-44774D01*
X-322086Y-44796D01*
X-322094Y-44803D01*
X-322101D01*
X-322227Y-44884D01*
X-322337Y-44973D01*
X-322441Y-45069D01*
X-322529Y-45158D01*
X-322603Y-45239D01*
X-322662Y-45312D01*
X-322691Y-45357D01*
X-322706Y-45364D01*
Y-44722D01*
X-323466D01*
Y-51549D01*
X-322633D01*
Y-49150D01*
X-322551Y-49246D01*
X-322463Y-49335D01*
X-322374Y-49416D01*
X-322286Y-49475D01*
X-322212Y-49527D01*
X-322145Y-49571D01*
X-322109Y-49593D01*
X-322094Y-49600D01*
X-321968Y-49659D01*
X-321835Y-49696D01*
X-321710Y-49726D01*
X-321592Y-49748D01*
X-321489Y-49763D01*
X-321415Y-49770D01*
X-321341D01*
X-321230Y-49763D01*
X-321127Y-49755D01*
X-320928Y-49718D01*
X-320743Y-49667D01*
X-320581Y-49608D01*
X-320507Y-49578D01*
X-320441Y-49556D01*
X-320389Y-49527D01*
X-320337Y-49504D01*
X-320300Y-49482D01*
X-320271Y-49468D01*
X-320256Y-49453D01*
X-320249D01*
X-320064Y-49320D01*
X-319909Y-49172D01*
X-319769Y-49017D01*
X-319658Y-48862D01*
X-319570Y-48730D01*
X-319540Y-48670D01*
X-319511Y-48619D01*
X-319489Y-48582D01*
X-319474Y-48552D01*
X-319459Y-48530D01*
Y-48523D01*
X-319371Y-48287D01*
X-319304Y-48050D01*
X-319252Y-47822D01*
X-319223Y-47615D01*
X-319208Y-47519D01*
X-319201Y-47431D01*
X-319193Y-47349D01*
Y-47283D01*
X-319186Y-47231D01*
Y-49770D01*
Y-44611D01*
D02*
G37*
G36*
X-350381Y-44611D02*
Y-47157D01*
X-350389Y-46899D01*
X-350418Y-46656D01*
X-350463Y-46434D01*
X-350485Y-46338D01*
X-350507Y-46242D01*
X-350529Y-46161D01*
X-350551Y-46080D01*
X-350573Y-46014D01*
X-350595Y-45962D01*
X-350610Y-45918D01*
X-350625Y-45888D01*
X-350632Y-45866D01*
Y-45859D01*
X-350735Y-45652D01*
X-350846Y-45467D01*
X-350972Y-45312D01*
X-351090Y-45180D01*
X-351193Y-45076D01*
X-351282Y-45003D01*
X-351319Y-44980D01*
X-351341Y-44958D01*
X-351355Y-44943D01*
X-351363D01*
X-351451Y-44884D01*
X-351547Y-44833D01*
X-351739Y-44752D01*
X-351924Y-44693D01*
X-352101Y-44656D01*
X-352182Y-44641D01*
X-352248Y-44626D01*
X-352315Y-44619D01*
X-352374D01*
X-352418Y-44611D01*
X-350381D01*
X-354662D01*
D01*
X-352477D01*
X-352647Y-44619D01*
X-352809Y-44641D01*
X-352950Y-44671D01*
X-353068Y-44707D01*
X-353164Y-44744D01*
X-353237Y-44774D01*
X-353282Y-44796D01*
X-353289Y-44803D01*
X-353296D01*
X-353422Y-44884D01*
X-353533Y-44973D01*
X-353636Y-45069D01*
X-353724Y-45158D01*
X-353798Y-45239D01*
X-353857Y-45312D01*
X-353887Y-45357D01*
X-353902Y-45364D01*
Y-44722D01*
X-354662D01*
Y-51549D01*
X-353828D01*
Y-49150D01*
X-353747Y-49246D01*
X-353658Y-49335D01*
X-353569Y-49416D01*
X-353481Y-49475D01*
X-353407Y-49527D01*
X-353341Y-49571D01*
X-353304Y-49593D01*
X-353289Y-49600D01*
X-353164Y-49659D01*
X-353031Y-49696D01*
X-352905Y-49726D01*
X-352787Y-49748D01*
X-352684Y-49763D01*
X-352610Y-49770D01*
X-352536D01*
X-352426Y-49763D01*
X-352322Y-49755D01*
X-352123Y-49718D01*
X-351939Y-49667D01*
X-351776Y-49608D01*
X-351702Y-49578D01*
X-351636Y-49556D01*
X-351584Y-49527D01*
X-351533Y-49504D01*
X-351496Y-49482D01*
X-351466Y-49468D01*
X-351451Y-49453D01*
X-351444D01*
X-351259Y-49320D01*
X-351104Y-49172D01*
X-350964Y-49017D01*
X-350854Y-48862D01*
X-350765Y-48730D01*
X-350735Y-48670D01*
X-350706Y-48619D01*
X-350684Y-48582D01*
X-350669Y-48552D01*
X-350654Y-48530D01*
Y-48523D01*
X-350566Y-48287D01*
X-350499Y-48050D01*
X-350448Y-47822D01*
X-350418Y-47615D01*
X-350403Y-47519D01*
X-350396Y-47431D01*
X-350389Y-47349D01*
Y-47283D01*
X-350381Y-47231D01*
Y-49748D01*
Y-44611D01*
D02*
G37*
G36*
X-332426Y-44611D02*
X-336964D01*
D01*
X-334595D01*
X-334824Y-44619D01*
X-335038Y-44641D01*
X-335230Y-44671D01*
X-335319Y-44685D01*
X-335392Y-44700D01*
X-335466Y-44715D01*
X-335533Y-44730D01*
X-335584Y-44744D01*
X-335629Y-44759D01*
X-335666Y-44774D01*
X-335695Y-44781D01*
X-335710Y-44789D01*
X-335717D01*
X-335887Y-44862D01*
X-336035Y-44943D01*
X-336160Y-45025D01*
X-336263Y-45106D01*
X-336345Y-45180D01*
X-336404Y-45239D01*
X-336440Y-45276D01*
X-336455Y-45283D01*
Y-45290D01*
X-336544Y-45416D01*
X-336618Y-45556D01*
X-336677Y-45696D01*
X-336728Y-45829D01*
X-336765Y-45947D01*
X-336780Y-45999D01*
X-336795Y-46043D01*
X-336802Y-46080D01*
X-336809Y-46110D01*
X-336817Y-46124D01*
Y-46132D01*
X-335998Y-46242D01*
X-335968Y-46147D01*
X-335939Y-46058D01*
X-335880Y-45910D01*
X-335806Y-45777D01*
X-335739Y-45682D01*
X-335680Y-45608D01*
X-335629Y-45549D01*
X-335599Y-45519D01*
X-335584Y-45512D01*
X-335466Y-45445D01*
X-335326Y-45394D01*
X-335186Y-45357D01*
X-335046Y-45327D01*
X-334913Y-45312D01*
X-334861D01*
X-334809Y-45305D01*
X-334714D01*
X-334492Y-45320D01*
X-334300Y-45349D01*
X-334138Y-45394D01*
X-334005Y-45445D01*
X-333902Y-45504D01*
X-333865Y-45527D01*
X-333828Y-45549D01*
X-333798Y-45564D01*
X-333784Y-45578D01*
X-333769Y-45593D01*
X-333688Y-45682D01*
X-333629Y-45792D01*
X-333584Y-45910D01*
X-333555Y-46028D01*
X-333540Y-46139D01*
X-333525Y-46228D01*
Y-46257D01*
Y-46287D01*
Y-46301D01*
Y-46309D01*
Y-46331D01*
Y-46360D01*
Y-46434D01*
X-333533Y-46464D01*
Y-46493D01*
Y-46516D01*
Y-46523D01*
X-333629Y-46552D01*
X-333732Y-46582D01*
X-333850Y-46611D01*
X-333968Y-46641D01*
X-334212Y-46693D01*
X-334455Y-46737D01*
X-334573Y-46752D01*
X-334677Y-46766D01*
X-334773Y-46781D01*
X-334861Y-46796D01*
X-334928Y-46803D01*
X-334979Y-46811D01*
X-335009Y-46818D01*
X-335023D01*
X-335201Y-46840D01*
X-335348Y-46862D01*
X-335481Y-46885D01*
X-335584Y-46899D01*
X-335666Y-46921D01*
X-335725Y-46929D01*
X-335754Y-46944D01*
X-335769D01*
X-335887Y-46980D01*
X-336005Y-47025D01*
X-336108Y-47069D01*
X-336197Y-47113D01*
X-336271Y-47150D01*
X-336322Y-47187D01*
X-336359Y-47209D01*
X-336374Y-47217D01*
X-336470Y-47290D01*
X-336551Y-47364D01*
X-336625Y-47445D01*
X-336684Y-47519D01*
X-336736Y-47593D01*
X-336773Y-47645D01*
X-336795Y-47681D01*
X-336802Y-47696D01*
X-336854Y-47814D01*
X-336898Y-47925D01*
X-336928Y-48036D01*
X-336942Y-48139D01*
X-336957Y-48228D01*
X-336964Y-48301D01*
D01*
Y-48360D01*
X-336957Y-48471D01*
X-336942Y-48582D01*
X-336928Y-48685D01*
X-336898Y-48781D01*
X-336824Y-48958D01*
X-336743Y-49099D01*
X-336706Y-49165D01*
X-336669Y-49217D01*
X-336632Y-49268D01*
X-336595Y-49305D01*
X-336566Y-49335D01*
X-336551Y-49357D01*
X-336536Y-49371D01*
X-336529Y-49379D01*
X-336440Y-49445D01*
X-336352Y-49504D01*
X-336249Y-49563D01*
X-336153Y-49608D01*
X-335946Y-49674D01*
X-335739Y-49718D01*
X-335651Y-49740D01*
X-335562Y-49748D01*
X-335481Y-49755D01*
X-335415Y-49763D01*
X-335363Y-49770D01*
X-335282D01*
X-335097Y-49763D01*
X-334928Y-49748D01*
X-334773Y-49718D01*
X-334632Y-49689D01*
X-334522Y-49659D01*
X-334470Y-49645D01*
X-334433Y-49630D01*
X-334404Y-49622D01*
X-334381Y-49615D01*
X-334367Y-49608D01*
X-334359D01*
X-334197Y-49534D01*
X-334035Y-49453D01*
X-333887Y-49357D01*
X-333747Y-49261D01*
X-333629Y-49180D01*
X-333584Y-49135D01*
X-333540Y-49106D01*
X-333503Y-49076D01*
X-333481Y-49054D01*
X-333466Y-49047D01*
X-333459Y-49039D01*
X-333444Y-49172D01*
X-333422Y-49290D01*
X-333393Y-49394D01*
X-333363Y-49482D01*
X-333341Y-49556D01*
X-333319Y-49615D01*
X-333304Y-49645D01*
X-333297Y-49659D01*
X-332426D01*
X-332477Y-49556D01*
X-332522Y-49445D01*
X-332559Y-49349D01*
X-332588Y-49261D01*
X-332610Y-49180D01*
X-332625Y-49121D01*
X-332632Y-49084D01*
Y-49069D01*
X-332640Y-49003D01*
X-332647Y-48914D01*
X-332655Y-48818D01*
X-332662Y-48707D01*
X-332669Y-48589D01*
Y-48464D01*
X-332677Y-48213D01*
Y-48095D01*
X-332684Y-47977D01*
Y-47873D01*
Y-47778D01*
Y-47704D01*
Y-47645D01*
Y-47608D01*
Y-47593D01*
Y-46479D01*
Y-46375D01*
Y-46287D01*
X-332691Y-46205D01*
Y-46124D01*
X-332699Y-45992D01*
X-332706Y-45888D01*
X-332714Y-45807D01*
X-332721Y-45755D01*
X-332728Y-45718D01*
Y-45711D01*
X-332758Y-45586D01*
X-332802Y-45475D01*
X-332846Y-45379D01*
X-332891Y-45298D01*
X-332928Y-45231D01*
X-332964Y-45180D01*
X-332987Y-45150D01*
X-332994Y-45143D01*
X-333075Y-45062D01*
X-333164Y-44988D01*
X-333260Y-44921D01*
X-333356Y-44870D01*
X-333444Y-44826D01*
X-333511Y-44796D01*
X-333540Y-44781D01*
X-333562Y-44774D01*
X-333570Y-44766D01*
X-333577D01*
X-333732Y-44715D01*
X-333902Y-44678D01*
X-334071Y-44648D01*
X-334234Y-44634D01*
X-334374Y-44619D01*
X-334440D01*
X-334492Y-44611D01*
X-332426D01*
D02*
G37*
G36*
X-308906Y-44722D02*
X-309740D01*
Y-47372D01*
X-309747Y-47593D01*
X-309762Y-47785D01*
X-309784Y-47947D01*
X-309806Y-48087D01*
X-309821Y-48147D01*
X-309836Y-48191D01*
X-309850Y-48235D01*
X-309858Y-48272D01*
X-309865Y-48294D01*
X-309873Y-48316D01*
X-309880Y-48324D01*
Y-48331D01*
X-309939Y-48449D01*
X-310013Y-48552D01*
X-310094Y-48641D01*
X-310168Y-48715D01*
X-310242Y-48774D01*
X-310300Y-48818D01*
X-310337Y-48848D01*
X-310345Y-48855D01*
X-310352D01*
X-310478Y-48921D01*
X-310596Y-48966D01*
X-310714Y-49003D01*
X-310824Y-49025D01*
X-310920Y-49039D01*
X-310987Y-49047D01*
X-311053D01*
X-311186Y-49039D01*
X-311312Y-49017D01*
X-311422Y-48988D01*
X-311511Y-48951D01*
X-311585Y-48921D01*
X-311644Y-48892D01*
X-311673Y-48870D01*
X-311688Y-48862D01*
X-311776Y-48788D01*
X-311850Y-48700D01*
X-311909Y-48619D01*
X-311954Y-48538D01*
X-311990Y-48464D01*
X-312013Y-48397D01*
X-312020Y-48360D01*
X-312027Y-48346D01*
X-312035Y-48301D01*
X-312042Y-48242D01*
X-312050Y-48110D01*
X-312064Y-47962D01*
Y-47814D01*
X-312072Y-47681D01*
Y-47622D01*
Y-47563D01*
Y-47519D01*
Y-47490D01*
Y-47467D01*
Y-47460D01*
Y-44722D01*
X-310906D01*
X-312906D01*
Y-47969D01*
X-312898Y-48132D01*
X-312891Y-48265D01*
X-312883Y-48375D01*
X-312876Y-48456D01*
X-312869Y-48523D01*
X-312861Y-48552D01*
Y-48567D01*
X-312825Y-48700D01*
X-312788Y-48818D01*
X-312743Y-48921D01*
X-312699Y-49010D01*
X-312662Y-49084D01*
X-312633Y-49143D01*
X-312610Y-49172D01*
X-312603Y-49187D01*
X-312529Y-49276D01*
X-312441Y-49357D01*
X-312345Y-49431D01*
X-312256Y-49490D01*
X-312168Y-49541D01*
X-312101Y-49578D01*
X-312057Y-49600D01*
X-312050Y-49608D01*
X-312042D01*
X-311895Y-49659D01*
X-311754Y-49704D01*
X-311614Y-49733D01*
X-311489Y-49748D01*
X-311378Y-49763D01*
X-311297Y-49770D01*
X-311223D01*
X-311038Y-49763D01*
X-310869Y-49733D01*
X-310714Y-49696D01*
X-310559Y-49637D01*
X-310419Y-49578D01*
X-310293Y-49504D01*
X-310175Y-49431D01*
X-310064Y-49349D01*
X-309968Y-49276D01*
X-309887Y-49202D01*
X-309813Y-49128D01*
X-309754Y-49069D01*
X-309710Y-49010D01*
X-309681Y-48973D01*
X-309658Y-48943D01*
X-309651Y-48936D01*
Y-49659D01*
X-308906D01*
Y-49740D01*
Y-44722D01*
D02*
G37*
G36*
X-299002Y-48707D02*
X-299954D01*
Y-49659D01*
X-299002D01*
Y-48707D01*
D02*
G37*
G36*
X-343429Y-44722D02*
X-344381D01*
Y-45674D01*
X-343429D01*
Y-48707D01*
X-344381D01*
Y-49659D01*
X-343429D01*
Y-44722D01*
D02*
G37*
G36*
X-305659Y-43003D02*
D01*
Y-49726D01*
X-306293D01*
X-306072Y-49711D01*
X-305968Y-49704D01*
X-305873Y-49689D01*
X-305784Y-49674D01*
X-305717Y-49667D01*
X-305673Y-49652D01*
X-305659D01*
X-305769Y-48914D01*
X-305850Y-48921D01*
X-305924Y-48929D01*
X-305991Y-48936D01*
X-306042D01*
X-306086Y-48943D01*
X-306212D01*
X-306271Y-48936D01*
X-306315Y-48921D01*
X-306360Y-48914D01*
X-306389Y-48899D01*
X-306411Y-48892D01*
X-306426Y-48884D01*
X-306433D01*
X-306492Y-48833D01*
X-306537Y-48781D01*
X-306566Y-48737D01*
X-306574Y-48730D01*
Y-48722D01*
X-306588Y-48670D01*
X-306596Y-48604D01*
X-306610Y-48530D01*
Y-48456D01*
X-306618Y-48383D01*
Y-48324D01*
Y-48279D01*
Y-48272D01*
Y-48265D01*
Y-45372D01*
X-305769D01*
Y-44722D01*
X-306618D01*
Y-43003D01*
D01*
X-307452Y-43504D01*
Y-44722D01*
X-308072D01*
Y-45372D01*
X-307452D01*
Y-48220D01*
Y-48353D01*
X-307444Y-48479D01*
Y-48589D01*
X-307437Y-48693D01*
X-307430Y-48781D01*
X-307422Y-48862D01*
X-307415Y-48936D01*
X-307400Y-48995D01*
X-307393Y-49047D01*
X-307385Y-49091D01*
X-307378Y-49128D01*
X-307371Y-49158D01*
X-307363Y-49194D01*
X-307356Y-49209D01*
X-307312Y-49290D01*
X-307260Y-49364D01*
X-307201Y-49431D01*
X-307142Y-49482D01*
X-307083Y-49527D01*
X-307038Y-49556D01*
X-307009Y-49578D01*
X-307002Y-49586D01*
X-306898Y-49630D01*
X-306788Y-49667D01*
X-306669Y-49689D01*
X-306552Y-49711D01*
X-306448Y-49718D01*
X-306367Y-49726D01*
X-308072D01*
X-305659D01*
Y-43003D01*
D02*
G37*
G36*
X-355370Y-43003D02*
D01*
Y-49726D01*
X-356005D01*
X-355783Y-49711D01*
X-355680Y-49704D01*
X-355584Y-49689D01*
X-355496Y-49674D01*
X-355429Y-49667D01*
X-355385Y-49652D01*
X-355370D01*
X-355481Y-48914D01*
X-355562Y-48921D01*
X-355636Y-48929D01*
X-355702Y-48936D01*
X-355754D01*
X-355798Y-48943D01*
X-355924D01*
X-355983Y-48936D01*
X-356027Y-48921D01*
X-356071Y-48914D01*
X-356101Y-48899D01*
X-356123Y-48892D01*
X-356138Y-48884D01*
X-356145D01*
X-356204Y-48833D01*
X-356248Y-48781D01*
X-356278Y-48737D01*
X-356285Y-48730D01*
Y-48722D01*
X-356300Y-48670D01*
X-356307Y-48604D01*
X-356322Y-48530D01*
Y-48456D01*
X-356330Y-48383D01*
Y-48324D01*
Y-48279D01*
Y-48272D01*
Y-48265D01*
Y-45372D01*
X-355481D01*
Y-44722D01*
X-356330D01*
Y-43003D01*
D01*
X-357164Y-43505D01*
Y-44722D01*
X-357783D01*
Y-45372D01*
X-357164D01*
Y-48220D01*
Y-48353D01*
X-357156Y-48479D01*
Y-48589D01*
X-357149Y-48693D01*
X-357141Y-48781D01*
X-357134Y-48862D01*
X-357127Y-48936D01*
X-357112Y-48995D01*
X-357104Y-49047D01*
X-357097Y-49091D01*
X-357090Y-49128D01*
X-357082Y-49158D01*
X-357075Y-49194D01*
X-357068Y-49209D01*
X-357023Y-49290D01*
X-356972Y-49364D01*
X-356913Y-49431D01*
X-356854Y-49482D01*
X-356795Y-49527D01*
X-356750Y-49556D01*
X-356721Y-49578D01*
X-356713Y-49586D01*
X-356610Y-49630D01*
X-356499Y-49667D01*
X-356381Y-49689D01*
X-356263Y-49711D01*
X-356160Y-49718D01*
X-356079Y-49726D01*
X-357783D01*
X-355370D01*
Y-43003D01*
D02*
G37*
G36*
X-358012D02*
D01*
Y-49726D01*
X-358647D01*
X-358425Y-49711D01*
X-358322Y-49704D01*
X-358226Y-49689D01*
X-358138Y-49674D01*
X-358071Y-49667D01*
X-358027Y-49652D01*
X-358012D01*
X-358123Y-48914D01*
X-358204Y-48921D01*
X-358278Y-48929D01*
X-358344Y-48936D01*
X-358396D01*
X-358440Y-48943D01*
X-358566D01*
X-358625Y-48936D01*
X-358669Y-48921D01*
X-358713Y-48914D01*
X-358743Y-48899D01*
X-358765Y-48892D01*
X-358780Y-48884D01*
X-358787D01*
X-358846Y-48833D01*
X-358890Y-48781D01*
X-358920Y-48737D01*
X-358927Y-48730D01*
Y-48722D01*
X-358942Y-48670D01*
X-358949Y-48604D01*
X-358964Y-48530D01*
Y-48456D01*
X-358972Y-48383D01*
Y-48324D01*
Y-48279D01*
Y-48272D01*
Y-48265D01*
Y-45372D01*
X-358123D01*
Y-44722D01*
X-358972D01*
Y-43003D01*
D01*
X-359805Y-43505D01*
Y-44722D01*
X-360425D01*
Y-45372D01*
X-359805D01*
Y-48220D01*
Y-48353D01*
X-359798Y-48479D01*
Y-48589D01*
X-359791Y-48693D01*
X-359783Y-48781D01*
X-359776Y-48862D01*
X-359769Y-48936D01*
X-359754Y-48995D01*
X-359747Y-49047D01*
X-359739Y-49091D01*
X-359732Y-49128D01*
X-359724Y-49158D01*
X-359717Y-49194D01*
X-359710Y-49209D01*
X-359665Y-49290D01*
X-359614Y-49364D01*
X-359555Y-49431D01*
X-359496Y-49482D01*
X-359436Y-49527D01*
X-359392Y-49556D01*
X-359363Y-49578D01*
X-359355Y-49586D01*
X-359252Y-49630D01*
X-359141Y-49667D01*
X-359023Y-49689D01*
X-358905Y-49711D01*
X-358802Y-49718D01*
X-358721Y-49726D01*
X-360425D01*
X-358012D01*
Y-43003D01*
D02*
G37*
G36*
X-288478Y-44611D02*
X-290743D01*
D01*
X-290788D01*
X-290957Y-44619D01*
X-291120Y-44634D01*
X-291267Y-44663D01*
X-291415Y-44700D01*
X-291555Y-44737D01*
X-291681Y-44789D01*
X-291799Y-44833D01*
X-291902Y-44884D01*
X-292005Y-44936D01*
X-292087Y-44988D01*
X-292161Y-45039D01*
X-292227Y-45076D01*
X-292271Y-45113D01*
X-292308Y-45143D01*
X-292330Y-45158D01*
X-292338Y-45165D01*
X-292470Y-45298D01*
X-292588Y-45438D01*
X-292692Y-45593D01*
X-292780Y-45755D01*
X-292847Y-45925D01*
X-292913Y-46095D01*
X-292965Y-46265D01*
X-293002Y-46427D01*
X-293031Y-46582D01*
X-293061Y-46722D01*
X-293076Y-46855D01*
X-293083Y-46973D01*
X-293090Y-47062D01*
X-293098Y-47135D01*
Y-49770D01*
X-288478Y-49770D01*
Y-47128D01*
X-288485Y-46914D01*
X-288507Y-46707D01*
X-288537Y-46516D01*
X-288581Y-46338D01*
X-288625Y-46176D01*
X-288685Y-46028D01*
X-288743Y-45888D01*
X-288803Y-45763D01*
X-288862Y-45652D01*
X-288921Y-45556D01*
X-288980Y-45475D01*
X-289024Y-45408D01*
X-289068Y-45349D01*
X-289098Y-45312D01*
X-289120Y-45290D01*
X-289127Y-45283D01*
X-289253Y-45165D01*
X-289386Y-45062D01*
X-289518Y-44973D01*
X-289659Y-44892D01*
X-289799Y-44833D01*
X-289932Y-44774D01*
X-290072Y-44730D01*
X-290197Y-44693D01*
X-290323Y-44671D01*
X-290434Y-44648D01*
X-290529Y-44634D01*
X-290618Y-44619D01*
X-290692D01*
X-290743Y-44611D01*
X-288478D01*
D02*
G37*
G36*
X-337304Y-42737D02*
Y-49777D01*
X-339282D01*
X-337304Y-42737D01*
X-337976D01*
X-339946Y-49751D01*
D01*
X-339953Y-49777D01*
X-341924D01*
X-339946Y-42737D01*
X-340617D01*
X-342595Y-49777D01*
D01*
X-337304D01*
Y-42737D01*
D02*
G37*
%LPD*%
G36*
X-345404Y-35028D02*
X-345300Y-35043D01*
X-345204Y-35065D01*
X-345116Y-35094D01*
X-344946Y-35175D01*
X-344806Y-35256D01*
X-344695Y-35345D01*
X-344651Y-35389D01*
X-344606Y-35426D01*
X-344577Y-35456D01*
X-344555Y-35478D01*
X-344547Y-35493D01*
X-344540Y-35500D01*
X-344466Y-35596D01*
X-344407Y-35699D01*
X-344356Y-35810D01*
X-344311Y-35928D01*
X-344237Y-36179D01*
X-344193Y-36415D01*
X-344171Y-36533D01*
X-344164Y-36637D01*
X-344156Y-36733D01*
X-344149Y-36821D01*
X-344142Y-36887D01*
Y-36939D01*
Y-36969D01*
Y-36983D01*
X-344149Y-37153D01*
X-344156Y-37308D01*
X-344178Y-37456D01*
X-344200Y-37589D01*
X-344230Y-37707D01*
X-344267Y-37825D01*
X-344304Y-37928D01*
X-344333Y-38017D01*
X-344370Y-38098D01*
X-344407Y-38164D01*
X-344444Y-38223D01*
X-344474Y-38268D01*
X-344496Y-38312D01*
X-344518Y-38334D01*
X-344525Y-38349D01*
X-344533Y-38356D01*
X-344606Y-38437D01*
X-344680Y-38504D01*
X-344761Y-38563D01*
X-344843Y-38614D01*
X-344916Y-38651D01*
X-344998Y-38688D01*
X-345145Y-38740D01*
X-345271Y-38777D01*
X-345330Y-38784D01*
X-345374Y-38792D01*
X-345418Y-38799D01*
X-345470D01*
X-345573Y-38792D01*
X-345669Y-38777D01*
X-345758Y-38755D01*
X-345846Y-38725D01*
X-346009Y-38651D01*
X-346149Y-38563D01*
X-346259Y-38482D01*
X-346304Y-38445D01*
X-346341Y-38408D01*
X-346370Y-38378D01*
X-346400Y-38356D01*
X-346407Y-38341D01*
X-346414Y-38334D01*
X-346481Y-38238D01*
X-346547Y-38135D01*
X-346599Y-38024D01*
X-346643Y-37913D01*
X-346717Y-37677D01*
X-346761Y-37448D01*
X-346776Y-37338D01*
X-346791Y-37242D01*
X-346798Y-37153D01*
X-346806Y-37072D01*
X-346813Y-37006D01*
Y-36961D01*
Y-36924D01*
Y-36917D01*
X-346806Y-36740D01*
X-346798Y-36570D01*
X-346776Y-36423D01*
X-346754Y-36275D01*
X-346725Y-36149D01*
X-346695Y-36031D01*
X-346666Y-35921D01*
X-346628Y-35832D01*
X-346592Y-35744D01*
X-346562Y-35677D01*
X-346533Y-35611D01*
X-346503Y-35566D01*
X-346481Y-35530D01*
X-346459Y-35500D01*
X-346451Y-35485D01*
X-346444Y-35478D01*
X-346370Y-35397D01*
X-346297Y-35330D01*
X-346215Y-35264D01*
X-346142Y-35212D01*
X-346060Y-35168D01*
X-345979Y-35131D01*
X-345831Y-35079D01*
X-345706Y-35043D01*
X-345647Y-35035D01*
X-345603Y-35028D01*
X-345558Y-35020D01*
X-345507D01*
X-345404Y-35028D01*
D02*
G37*
G36*
X-344164Y-39375D02*
X-343389D01*
Y-39485D01*
X-345551D01*
X-345381Y-39478D01*
X-345226Y-39456D01*
X-345086Y-39419D01*
X-344946Y-39367D01*
X-344820Y-39316D01*
X-344710Y-39257D01*
X-344606Y-39190D01*
X-344511Y-39116D01*
X-344429Y-39050D01*
X-344363Y-38983D01*
X-344304Y-38924D01*
X-344252Y-38865D01*
X-344215Y-38821D01*
X-344186Y-38784D01*
X-344171Y-38762D01*
X-344164Y-38755D01*
Y-39375D01*
D02*
G37*
G36*
X-281198Y-39485D02*
X-283190D01*
X-282976Y-39478D01*
X-282784Y-39456D01*
X-282607Y-39419D01*
X-282452Y-39382D01*
X-282386Y-39367D01*
X-282327Y-39352D01*
X-282275Y-39330D01*
X-282231Y-39316D01*
X-282194Y-39301D01*
X-282172Y-39293D01*
X-282157Y-39286D01*
X-282150D01*
X-281987Y-39205D01*
X-281847Y-39116D01*
X-281729Y-39020D01*
X-281626Y-38924D01*
X-281552Y-38843D01*
X-281493Y-38777D01*
X-281463Y-38732D01*
X-281448Y-38725D01*
Y-38718D01*
X-281367Y-38577D01*
X-281301Y-38437D01*
X-281257Y-38304D01*
X-281227Y-38186D01*
X-281212Y-38083D01*
X-281198Y-38002D01*
Y-39485D01*
D02*
G37*
G36*
X-285958D02*
X-287950D01*
X-287736Y-39478D01*
X-287544Y-39456D01*
X-287367Y-39419D01*
X-287212Y-39382D01*
X-287146Y-39367D01*
X-287087Y-39352D01*
X-287035Y-39330D01*
X-286991Y-39316D01*
X-286954Y-39301D01*
X-286932Y-39293D01*
X-286917Y-39286D01*
X-286910D01*
X-286747Y-39205D01*
X-286607Y-39116D01*
X-286489Y-39020D01*
X-286386Y-38924D01*
X-286312Y-38843D01*
X-286253Y-38777D01*
X-286223Y-38732D01*
X-286209Y-38725D01*
Y-38718D01*
X-286127Y-38577D01*
X-286061Y-38437D01*
X-286017Y-38304D01*
X-285987Y-38186D01*
X-285972Y-38083D01*
X-285958Y-38002D01*
Y-39485D01*
D02*
G37*
G36*
X-350540Y-35028D02*
X-350429Y-35043D01*
X-350326Y-35065D01*
X-350230Y-35094D01*
X-350053Y-35168D01*
X-349898Y-35257D01*
X-349839Y-35301D01*
X-349780Y-35345D01*
X-349735Y-35382D01*
X-349691Y-35419D01*
X-349662Y-35448D01*
X-349640Y-35471D01*
X-349625Y-35485D01*
X-349618Y-35493D01*
X-349544Y-35589D01*
X-349477Y-35685D01*
X-349426Y-35795D01*
X-349374Y-35906D01*
X-349330Y-36024D01*
X-349300Y-36142D01*
X-349249Y-36364D01*
X-349234Y-36467D01*
X-349219Y-36563D01*
X-349212Y-36651D01*
X-349204Y-36733D01*
X-349197Y-36792D01*
Y-36843D01*
Y-36873D01*
Y-36880D01*
X-349204Y-37057D01*
X-349212Y-37220D01*
X-349234Y-37375D01*
X-349263Y-37515D01*
X-349293Y-37648D01*
X-349330Y-37766D01*
X-349366Y-37876D01*
X-349403Y-37965D01*
X-349448Y-38054D01*
X-349485Y-38127D01*
X-349521Y-38186D01*
X-349551Y-38238D01*
X-349581Y-38275D01*
X-349603Y-38304D01*
X-349610Y-38319D01*
X-349618Y-38327D01*
X-349699Y-38408D01*
X-349780Y-38482D01*
X-349868Y-38548D01*
X-349950Y-38600D01*
X-350038Y-38644D01*
X-350127Y-38681D01*
X-350289Y-38740D01*
X-350429Y-38777D01*
X-350496Y-38784D01*
X-350547Y-38792D01*
X-350592Y-38799D01*
X-350651D01*
X-350769Y-38792D01*
X-350872Y-38777D01*
X-350983Y-38755D01*
X-351079Y-38725D01*
X-351256Y-38651D01*
X-351403Y-38563D01*
X-351470Y-38526D01*
X-351529Y-38482D01*
X-351573Y-38445D01*
X-351617Y-38408D01*
X-351647Y-38378D01*
X-351669Y-38356D01*
X-351684Y-38341D01*
X-351691Y-38334D01*
X-351765Y-38238D01*
X-351824Y-38135D01*
X-351883Y-38024D01*
X-351927Y-37913D01*
X-352001Y-37677D01*
X-352053Y-37441D01*
X-352068Y-37338D01*
X-352082Y-37234D01*
X-352090Y-37146D01*
X-352097Y-37065D01*
X-352104Y-36998D01*
Y-36954D01*
Y-36917D01*
Y-36910D01*
X-352097Y-36740D01*
X-352090Y-36578D01*
X-352068Y-36430D01*
X-352038Y-36290D01*
X-352009Y-36164D01*
X-351972Y-36046D01*
X-351935Y-35943D01*
X-351898Y-35847D01*
X-351861Y-35766D01*
X-351824Y-35692D01*
X-351787Y-35633D01*
X-351758Y-35581D01*
X-351728Y-35544D01*
X-351706Y-35515D01*
X-351699Y-35500D01*
X-351691Y-35493D01*
X-351610Y-35412D01*
X-351529Y-35338D01*
X-351440Y-35271D01*
X-351352Y-35220D01*
X-351263Y-35175D01*
X-351182Y-35138D01*
X-351012Y-35079D01*
X-350872Y-35043D01*
X-350806Y-35035D01*
X-350754Y-35028D01*
X-350710Y-35020D01*
X-350651D01*
X-350540Y-35028D01*
D02*
G37*
G36*
X-274947Y-37205D02*
X-274954Y-37397D01*
X-274969Y-37567D01*
X-274991Y-37714D01*
X-275013Y-37832D01*
X-275035Y-37921D01*
X-275057Y-37987D01*
X-275072Y-38024D01*
X-275079Y-38039D01*
X-275153Y-38172D01*
X-275242Y-38282D01*
X-275330Y-38386D01*
X-275419Y-38467D01*
X-275507Y-38533D01*
X-275574Y-38585D01*
X-275618Y-38614D01*
X-275626Y-38622D01*
X-275633D01*
X-275781Y-38688D01*
X-275928Y-38740D01*
X-276068Y-38777D01*
X-276209Y-38799D01*
X-276319Y-38814D01*
X-276371Y-38821D01*
X-276415Y-38829D01*
X-276496D01*
X-276666Y-38821D01*
X-276814Y-38792D01*
X-276947Y-38755D01*
X-277050Y-38718D01*
X-277131Y-38673D01*
X-277190Y-38644D01*
X-277220Y-38614D01*
X-277234Y-38607D01*
X-277316Y-38519D01*
X-277382Y-38430D01*
X-277426Y-38334D01*
X-277456Y-38245D01*
X-277471Y-38172D01*
X-277478Y-38105D01*
X-277485Y-38068D01*
Y-38054D01*
X-277478Y-37972D01*
X-277471Y-37899D01*
X-277448Y-37832D01*
X-277426Y-37773D01*
X-277412Y-37721D01*
X-277389Y-37685D01*
X-277382Y-37662D01*
X-277375Y-37655D01*
X-277323Y-37589D01*
X-277271Y-37537D01*
X-277220Y-37493D01*
X-277161Y-37448D01*
X-277116Y-37419D01*
X-277079Y-37397D01*
X-277050Y-37389D01*
X-277043Y-37382D01*
X-276947Y-37345D01*
X-276836Y-37316D01*
X-276718Y-37286D01*
X-276600Y-37264D01*
X-276489Y-37242D01*
X-276393Y-37227D01*
X-276364Y-37220D01*
X-276334Y-37212D01*
X-276312D01*
X-276142Y-37190D01*
X-275987Y-37161D01*
X-275847Y-37138D01*
X-275714Y-37109D01*
X-275589Y-37079D01*
X-275478Y-37057D01*
X-275375Y-37028D01*
X-275279Y-37006D01*
X-275205Y-36983D01*
X-275131Y-36961D01*
X-275072Y-36947D01*
X-275028Y-36924D01*
X-274991Y-36910D01*
X-274961Y-36902D01*
X-274947Y-36895D01*
X-274939D01*
X-274947Y-37205D01*
D02*
G37*
G36*
X-309315Y-37205D02*
X-309323Y-37397D01*
X-309337Y-37567D01*
X-309360Y-37714D01*
X-309382Y-37832D01*
X-309404Y-37921D01*
X-309426Y-37987D01*
X-309441Y-38024D01*
X-309448Y-38039D01*
X-309522Y-38172D01*
X-309611Y-38282D01*
X-309699Y-38386D01*
X-309788Y-38467D01*
X-309876Y-38533D01*
X-309943Y-38585D01*
X-309987Y-38614D01*
X-309994Y-38622D01*
X-310002D01*
X-310149Y-38688D01*
X-310297Y-38740D01*
X-310437Y-38777D01*
X-310577Y-38799D01*
X-310688Y-38814D01*
X-310740Y-38821D01*
X-310784Y-38829D01*
X-310865D01*
X-311035Y-38821D01*
X-311182Y-38792D01*
X-311315Y-38755D01*
X-311419Y-38718D01*
X-311500Y-38673D01*
X-311559Y-38644D01*
X-311588Y-38614D01*
X-311603Y-38607D01*
X-311684Y-38519D01*
X-311751Y-38430D01*
X-311795Y-38334D01*
X-311824Y-38245D01*
X-311839Y-38172D01*
X-311847Y-38105D01*
X-311854Y-38068D01*
Y-38054D01*
X-311847Y-37972D01*
X-311839Y-37899D01*
X-311817Y-37832D01*
X-311795Y-37773D01*
X-311780Y-37721D01*
X-311758Y-37685D01*
X-311751Y-37662D01*
X-311743Y-37655D01*
X-311692Y-37589D01*
X-311640Y-37537D01*
X-311588Y-37493D01*
X-311529Y-37448D01*
X-311485Y-37419D01*
X-311448Y-37397D01*
X-311419Y-37389D01*
X-311411Y-37382D01*
X-311315Y-37345D01*
X-311205Y-37316D01*
X-311087Y-37286D01*
X-310968Y-37264D01*
X-310858Y-37242D01*
X-310762Y-37227D01*
X-310732Y-37220D01*
X-310703Y-37212D01*
X-310681D01*
X-310511Y-37190D01*
X-310356Y-37161D01*
X-310216Y-37139D01*
X-310083Y-37109D01*
X-309957Y-37079D01*
X-309847Y-37057D01*
X-309743Y-37028D01*
X-309647Y-37006D01*
X-309574Y-36983D01*
X-309500Y-36961D01*
X-309441Y-36947D01*
X-309397Y-36924D01*
X-309360Y-36910D01*
X-309330Y-36902D01*
X-309315Y-36895D01*
X-309308D01*
X-309315Y-37205D01*
D02*
G37*
G36*
X-338916D02*
X-338924Y-37397D01*
X-338939Y-37567D01*
X-338961Y-37714D01*
X-338983Y-37832D01*
X-339005Y-37921D01*
X-339027Y-37987D01*
X-339042Y-38024D01*
X-339049Y-38039D01*
X-339123Y-38172D01*
X-339212Y-38282D01*
X-339300Y-38386D01*
X-339389Y-38467D01*
X-339477Y-38533D01*
X-339544Y-38585D01*
X-339588Y-38614D01*
X-339595Y-38622D01*
X-339603D01*
X-339750Y-38688D01*
X-339898Y-38740D01*
X-340038Y-38777D01*
X-340178Y-38799D01*
X-340289Y-38814D01*
X-340341Y-38821D01*
X-340385Y-38829D01*
X-340466D01*
X-340636Y-38821D01*
X-340784Y-38792D01*
X-340916Y-38755D01*
X-341020Y-38718D01*
X-341101Y-38673D01*
X-341160Y-38644D01*
X-341190Y-38614D01*
X-341204Y-38607D01*
X-341285Y-38519D01*
X-341352Y-38430D01*
X-341396Y-38334D01*
X-341426Y-38245D01*
X-341440Y-38172D01*
X-341448Y-38105D01*
X-341455Y-38068D01*
Y-38054D01*
X-341448Y-37972D01*
X-341440Y-37899D01*
X-341418Y-37832D01*
X-341396Y-37773D01*
X-341381Y-37721D01*
X-341359Y-37685D01*
X-341352Y-37662D01*
X-341344Y-37655D01*
X-341293Y-37589D01*
X-341241Y-37537D01*
X-341190Y-37493D01*
X-341130Y-37448D01*
X-341086Y-37419D01*
X-341049Y-37397D01*
X-341020Y-37389D01*
X-341012Y-37382D01*
X-340916Y-37345D01*
X-340806Y-37316D01*
X-340688Y-37286D01*
X-340570Y-37264D01*
X-340459Y-37242D01*
X-340363Y-37227D01*
X-340333Y-37220D01*
X-340304Y-37212D01*
X-340282D01*
X-340112Y-37190D01*
X-339957Y-37161D01*
X-339817Y-37139D01*
X-339684Y-37109D01*
X-339559Y-37079D01*
X-339448Y-37057D01*
X-339345Y-37028D01*
X-339248Y-37006D01*
X-339175Y-36983D01*
X-339101Y-36961D01*
X-339042Y-36947D01*
X-338998Y-36924D01*
X-338961Y-36910D01*
X-338931Y-36902D01*
X-338916Y-36895D01*
X-338909D01*
X-338916Y-37205D01*
D02*
G37*
G36*
X-298452Y-33330D02*
X-298334Y-33345D01*
X-298223Y-33367D01*
X-298127Y-33389D01*
X-298039Y-33419D01*
X-297957Y-33441D01*
X-297884Y-33471D01*
X-297817Y-33500D01*
X-297766Y-33530D01*
X-297714Y-33559D01*
X-297677Y-33581D01*
X-297648Y-33603D01*
X-297625Y-33618D01*
X-297618Y-33626D01*
X-297611Y-33633D01*
X-297551Y-33692D01*
X-297493Y-33758D01*
X-297404Y-33884D01*
X-297345Y-34017D01*
X-297301Y-34142D01*
X-297271Y-34253D01*
X-297264Y-34304D01*
Y-34341D01*
X-297256Y-34378D01*
Y-34400D01*
Y-34415D01*
Y-34423D01*
X-297264Y-34541D01*
X-297286Y-34659D01*
X-297315Y-34762D01*
X-297345Y-34851D01*
X-297382Y-34932D01*
X-297411Y-34984D01*
X-297433Y-35020D01*
X-297441Y-35035D01*
X-297515Y-35131D01*
X-297603Y-35220D01*
X-297692Y-35286D01*
X-297773Y-35345D01*
X-297854Y-35389D01*
X-297913Y-35419D01*
X-297957Y-35434D01*
X-297965Y-35441D01*
X-297972D01*
X-298112Y-35485D01*
X-298267Y-35515D01*
X-298430Y-35537D01*
X-298585Y-35552D01*
X-298725Y-35559D01*
X-298784D01*
X-298836Y-35566D01*
X-300873D01*
Y-33316D01*
X-298577D01*
X-298452Y-33330D01*
D02*
G37*
G36*
X-301179Y-49770D02*
X-303171D01*
X-302957Y-49763D01*
X-302765Y-49740D01*
X-302588Y-49704D01*
X-302433Y-49667D01*
X-302367Y-49652D01*
X-302308Y-49637D01*
X-302256Y-49615D01*
X-302212Y-49600D01*
X-302175Y-49586D01*
X-302153Y-49578D01*
X-302138Y-49571D01*
X-302131D01*
X-301969Y-49490D01*
X-301828Y-49401D01*
X-301710Y-49305D01*
X-301607Y-49209D01*
X-301533Y-49128D01*
X-301474Y-49062D01*
X-301445Y-49017D01*
X-301430Y-49010D01*
Y-49003D01*
X-301349Y-48862D01*
X-301282Y-48722D01*
X-301238Y-48589D01*
X-301208Y-48471D01*
X-301194Y-48368D01*
X-301179Y-48287D01*
Y-49770D01*
D02*
G37*
G36*
X-282507Y-44619D02*
X-282670Y-44648D01*
X-282825Y-44693D01*
X-282972Y-44744D01*
X-283105Y-44811D01*
X-283231Y-44884D01*
X-283349Y-44966D01*
X-283452Y-45039D01*
X-283548Y-45121D01*
X-283629Y-45202D01*
X-283703Y-45276D01*
X-283755Y-45342D01*
X-283806Y-45394D01*
X-283836Y-45438D01*
X-283858Y-45467D01*
X-283865Y-45475D01*
X-283932Y-45327D01*
X-284006Y-45202D01*
X-284087Y-45099D01*
X-284168Y-45003D01*
X-284249Y-44936D01*
X-284308Y-44884D01*
X-284352Y-44848D01*
X-284360Y-44840D01*
X-284367D01*
X-284507Y-44766D01*
X-284655Y-44707D01*
X-284803Y-44671D01*
X-284943Y-44641D01*
X-285068Y-44626D01*
X-285120Y-44619D01*
X-285172Y-44611D01*
X-282338D01*
X-282507Y-44619D01*
D02*
G37*
G36*
X-326404Y-44619D02*
X-326566Y-44648D01*
X-326721Y-44693D01*
X-326869Y-44744D01*
X-327001Y-44811D01*
X-327127Y-44884D01*
X-327245Y-44966D01*
X-327348Y-45039D01*
X-327444Y-45121D01*
X-327525Y-45202D01*
X-327599Y-45276D01*
X-327651Y-45342D01*
X-327702Y-45394D01*
X-327732Y-45438D01*
X-327754Y-45467D01*
X-327762Y-45475D01*
X-327828Y-45327D01*
X-327902Y-45202D01*
X-327983Y-45099D01*
X-328064Y-45003D01*
X-328145Y-44936D01*
X-328204Y-44884D01*
X-328249Y-44848D01*
X-328256Y-44840D01*
X-328263D01*
X-328404Y-44766D01*
X-328551Y-44707D01*
X-328699Y-44671D01*
X-328839Y-44641D01*
X-328964Y-44626D01*
X-329016Y-44619D01*
X-329068Y-44611D01*
X-326234D01*
X-326404Y-44619D01*
D02*
G37*
G36*
X-293504Y-49770D02*
X-295555D01*
X-295408Y-49763D01*
X-295267Y-49748D01*
X-295135Y-49726D01*
X-295002Y-49696D01*
X-294884Y-49659D01*
X-294773Y-49615D01*
X-294670Y-49578D01*
X-294574Y-49527D01*
X-294493Y-49482D01*
X-294411Y-49445D01*
X-294352Y-49401D01*
X-294293Y-49364D01*
X-294256Y-49335D01*
X-294219Y-49312D01*
X-294205Y-49298D01*
X-294197Y-49290D01*
X-294101Y-49194D01*
X-294005Y-49099D01*
X-293924Y-48988D01*
X-293858Y-48877D01*
X-293791Y-48766D01*
X-293732Y-48656D01*
X-293644Y-48449D01*
X-293607Y-48346D01*
X-293577Y-48257D01*
X-293555Y-48176D01*
X-293533Y-48102D01*
X-293518Y-48043D01*
X-293511Y-47999D01*
X-293504Y-47969D01*
Y-49770D01*
D02*
G37*
G36*
X-321267Y-45276D02*
X-321171Y-45290D01*
X-321075Y-45312D01*
X-320987Y-45342D01*
X-320832Y-45416D01*
X-320699Y-45504D01*
X-320588Y-45593D01*
X-320537Y-45630D01*
X-320500Y-45667D01*
X-320470Y-45696D01*
X-320448Y-45718D01*
X-320441Y-45733D01*
X-320433Y-45741D01*
X-320367Y-45836D01*
X-320300Y-45940D01*
X-320249Y-46043D01*
X-320204Y-46161D01*
X-320138Y-46397D01*
X-320094Y-46626D01*
X-320072Y-46737D01*
X-320064Y-46833D01*
X-320057Y-46921D01*
X-320050Y-47003D01*
X-320042Y-47069D01*
Y-47113D01*
Y-47150D01*
Y-47157D01*
X-320050Y-47335D01*
X-320057Y-47504D01*
X-320079Y-47659D01*
X-320101Y-47800D01*
X-320131Y-47932D01*
X-320168Y-48058D01*
X-320204Y-48161D01*
X-320241Y-48257D01*
X-320278Y-48346D01*
X-320315Y-48419D01*
X-320345Y-48479D01*
X-320382Y-48530D01*
X-320404Y-48567D01*
X-320426Y-48597D01*
X-320433Y-48611D01*
X-320441Y-48619D01*
X-320514Y-48700D01*
X-320596Y-48774D01*
X-320677Y-48833D01*
X-320758Y-48884D01*
X-320839Y-48929D01*
X-320920Y-48973D01*
X-321068Y-49025D01*
X-321201Y-49062D01*
X-321260Y-49069D01*
X-321304Y-49076D01*
X-321348Y-49084D01*
X-321400D01*
X-321503Y-49076D01*
X-321599Y-49062D01*
X-321688Y-49039D01*
X-321776Y-49010D01*
X-321931Y-48943D01*
X-322072Y-48855D01*
X-322182Y-48774D01*
X-322227Y-48737D01*
X-322264Y-48700D01*
X-322293Y-48678D01*
X-322315Y-48656D01*
X-322323Y-48641D01*
X-322330Y-48634D01*
X-322396Y-48545D01*
X-322455Y-48442D01*
X-322507Y-48331D01*
X-322551Y-48220D01*
X-322618Y-47984D01*
X-322662Y-47755D01*
X-322684Y-47652D01*
X-322691Y-47549D01*
X-322699Y-47460D01*
X-322706Y-47379D01*
X-322714Y-47313D01*
Y-47268D01*
Y-47231D01*
Y-47224D01*
X-322706Y-47047D01*
X-322699Y-46885D01*
X-322677Y-46737D01*
X-322647Y-46597D01*
X-322618Y-46464D01*
X-322588Y-46346D01*
X-322551Y-46235D01*
X-322507Y-46139D01*
X-322470Y-46051D01*
X-322433Y-45977D01*
X-322404Y-45918D01*
X-322374Y-45866D01*
X-322345Y-45822D01*
X-322323Y-45792D01*
X-322315Y-45777D01*
X-322308Y-45770D01*
X-322227Y-45682D01*
X-322145Y-45608D01*
X-322064Y-45534D01*
X-321983Y-45482D01*
X-321902Y-45431D01*
X-321828Y-45394D01*
X-321680Y-45327D01*
X-321555Y-45298D01*
X-321496Y-45283D01*
X-321452Y-45276D01*
X-321415Y-45268D01*
X-321363D01*
X-321267Y-45276D01*
D02*
G37*
G36*
X-352462Y-45276D02*
X-352366Y-45290D01*
X-352271Y-45312D01*
X-352182Y-45342D01*
X-352027Y-45416D01*
X-351894Y-45504D01*
X-351783Y-45593D01*
X-351732Y-45630D01*
X-351695Y-45667D01*
X-351665Y-45696D01*
X-351643Y-45719D01*
X-351636Y-45733D01*
X-351628Y-45741D01*
X-351562Y-45836D01*
X-351496Y-45940D01*
X-351444Y-46043D01*
X-351400Y-46161D01*
X-351333Y-46397D01*
X-351289Y-46626D01*
X-351267Y-46737D01*
X-351259Y-46833D01*
X-351252Y-46921D01*
X-351245Y-47003D01*
X-351237Y-47069D01*
Y-47113D01*
Y-47150D01*
Y-47157D01*
X-351245Y-47335D01*
X-351252Y-47504D01*
X-351274Y-47659D01*
X-351296Y-47800D01*
X-351326Y-47932D01*
X-351363Y-48058D01*
X-351400Y-48161D01*
X-351437Y-48257D01*
X-351473Y-48346D01*
X-351510Y-48419D01*
X-351540Y-48479D01*
X-351577Y-48530D01*
X-351599Y-48567D01*
X-351621Y-48597D01*
X-351628Y-48611D01*
X-351636Y-48619D01*
X-351710Y-48700D01*
X-351791Y-48774D01*
X-351872Y-48833D01*
X-351953Y-48884D01*
X-352034Y-48929D01*
X-352116Y-48973D01*
X-352263Y-49025D01*
X-352396Y-49062D01*
X-352455Y-49069D01*
X-352499Y-49076D01*
X-352544Y-49084D01*
X-352595D01*
X-352699Y-49076D01*
X-352795Y-49062D01*
X-352883Y-49039D01*
X-352972Y-49010D01*
X-353127Y-48943D01*
X-353267Y-48855D01*
X-353378Y-48774D01*
X-353422Y-48737D01*
X-353459Y-48700D01*
X-353488Y-48678D01*
X-353510Y-48656D01*
X-353518Y-48641D01*
X-353525Y-48634D01*
X-353592Y-48545D01*
X-353651Y-48442D01*
X-353702Y-48331D01*
X-353747Y-48220D01*
X-353813Y-47984D01*
X-353857Y-47755D01*
X-353879Y-47652D01*
X-353887Y-47549D01*
X-353894Y-47460D01*
X-353902Y-47379D01*
X-353909Y-47313D01*
Y-47268D01*
Y-47231D01*
Y-47224D01*
X-353902Y-47047D01*
X-353894Y-46885D01*
X-353872Y-46737D01*
X-353842Y-46597D01*
X-353813Y-46464D01*
X-353783Y-46346D01*
X-353747Y-46235D01*
X-353702Y-46139D01*
X-353665Y-46051D01*
X-353628Y-45977D01*
X-353599Y-45918D01*
X-353569Y-45866D01*
X-353540Y-45822D01*
X-353518Y-45792D01*
X-353510Y-45777D01*
X-353503Y-45770D01*
X-353422Y-45682D01*
X-353341Y-45608D01*
X-353259Y-45534D01*
X-353178Y-45482D01*
X-353097Y-45431D01*
X-353023Y-45394D01*
X-352876Y-45327D01*
X-352750Y-45298D01*
X-352691Y-45283D01*
X-352647Y-45276D01*
X-352610Y-45268D01*
X-352558D01*
X-352462Y-45276D01*
D02*
G37*
G36*
X-333533Y-47490D02*
X-333540Y-47681D01*
X-333555Y-47851D01*
X-333577Y-47999D01*
X-333599Y-48117D01*
X-333621Y-48206D01*
X-333643Y-48272D01*
X-333658Y-48309D01*
X-333666Y-48324D01*
X-333739Y-48456D01*
X-333828Y-48567D01*
X-333916Y-48670D01*
X-334005Y-48752D01*
X-334094Y-48818D01*
X-334160Y-48870D01*
X-334204Y-48899D01*
X-334212Y-48907D01*
X-334219D01*
X-334367Y-48973D01*
X-334514Y-49025D01*
X-334654Y-49062D01*
X-334795Y-49084D01*
X-334905Y-49099D01*
X-334957Y-49106D01*
X-335001Y-49113D01*
X-335083D01*
X-335252Y-49106D01*
X-335400Y-49076D01*
X-335533Y-49039D01*
X-335636Y-49003D01*
X-335717Y-48958D01*
X-335776Y-48929D01*
X-335806Y-48899D01*
X-335821Y-48892D01*
X-335902Y-48803D01*
X-335968Y-48715D01*
X-336012Y-48619D01*
X-336042Y-48530D01*
X-336057Y-48456D01*
X-336064Y-48390D01*
X-336071Y-48353D01*
Y-48338D01*
X-336064Y-48257D01*
X-336057Y-48183D01*
X-336035Y-48117D01*
X-336012Y-48058D01*
X-335998Y-48006D01*
X-335976Y-47969D01*
X-335968Y-47947D01*
X-335961Y-47940D01*
X-335909Y-47873D01*
X-335857Y-47822D01*
X-335806Y-47778D01*
X-335747Y-47733D01*
X-335702Y-47704D01*
X-335666Y-47681D01*
X-335636Y-47674D01*
X-335629Y-47667D01*
X-335533Y-47630D01*
X-335422Y-47600D01*
X-335304Y-47571D01*
X-335186Y-47549D01*
X-335075Y-47526D01*
X-334979Y-47512D01*
X-334950Y-47504D01*
X-334920Y-47497D01*
X-334898D01*
X-334728Y-47475D01*
X-334573Y-47445D01*
X-334433Y-47423D01*
X-334300Y-47394D01*
X-334175Y-47364D01*
X-334064Y-47342D01*
X-333961Y-47313D01*
X-333865Y-47290D01*
X-333791Y-47268D01*
X-333717Y-47246D01*
X-333658Y-47231D01*
X-333614Y-47209D01*
X-333577Y-47194D01*
X-333547Y-47187D01*
X-333533Y-47180D01*
X-333525D01*
X-333533Y-47490D01*
D02*
G37*
G36*
X-290677Y-45312D02*
X-290566Y-45327D01*
X-290463Y-45349D01*
X-290367Y-45379D01*
X-290190Y-45453D01*
X-290035Y-45541D01*
X-289976Y-45586D01*
X-289917Y-45630D01*
X-289873Y-45667D01*
X-289828Y-45704D01*
X-289799Y-45733D01*
X-289777Y-45755D01*
X-289762Y-45770D01*
X-289755Y-45777D01*
X-289681Y-45873D01*
X-289614Y-45969D01*
X-289563Y-46080D01*
X-289511Y-46191D01*
X-289467Y-46309D01*
X-289437Y-46427D01*
X-289386Y-46648D01*
X-289371Y-46752D01*
X-289356Y-46848D01*
X-289349Y-46936D01*
X-289341Y-47017D01*
X-289334Y-47076D01*
Y-47128D01*
Y-47157D01*
Y-47165D01*
X-289341Y-47342D01*
X-289349Y-47504D01*
X-289371Y-47659D01*
X-289400Y-47800D01*
X-289430Y-47932D01*
X-289467Y-48050D01*
X-289504Y-48161D01*
X-289541Y-48250D01*
X-289585Y-48338D01*
X-289622Y-48412D01*
X-289659Y-48471D01*
X-289688Y-48523D01*
X-289718Y-48560D01*
X-289740Y-48589D01*
X-289747Y-48604D01*
X-289755Y-48611D01*
X-289836Y-48693D01*
X-289917Y-48766D01*
X-290005Y-48833D01*
X-290087Y-48884D01*
X-290175Y-48929D01*
X-290264Y-48966D01*
X-290426Y-49025D01*
X-290566Y-49062D01*
X-290633Y-49069D01*
X-290685Y-49076D01*
X-290729Y-49084D01*
X-290788D01*
X-290906Y-49076D01*
X-291009Y-49062D01*
X-291120Y-49039D01*
X-291216Y-49010D01*
X-291393Y-48936D01*
X-291541Y-48848D01*
X-291607Y-48811D01*
X-291666Y-48766D01*
X-291710Y-48730D01*
X-291755Y-48693D01*
X-291784Y-48663D01*
X-291806Y-48641D01*
X-291821Y-48626D01*
X-291828Y-48619D01*
X-291902Y-48523D01*
X-291961Y-48419D01*
X-292020Y-48309D01*
X-292064Y-48198D01*
X-292138Y-47962D01*
X-292190Y-47726D01*
X-292205Y-47622D01*
X-292219Y-47519D01*
X-292227Y-47431D01*
X-292234Y-47349D01*
X-292242Y-47283D01*
Y-47239D01*
Y-47202D01*
Y-47194D01*
X-292234Y-47025D01*
X-292227Y-46862D01*
X-292205Y-46715D01*
X-292175Y-46575D01*
X-292146Y-46449D01*
X-292109Y-46331D01*
X-292072Y-46228D01*
X-292035Y-46132D01*
X-291998Y-46051D01*
X-291961Y-45977D01*
X-291924Y-45918D01*
X-291895Y-45866D01*
X-291865Y-45829D01*
X-291843Y-45800D01*
X-291836Y-45785D01*
X-291828Y-45777D01*
X-291747Y-45696D01*
X-291666Y-45623D01*
X-291577Y-45556D01*
X-291489Y-45504D01*
X-291400Y-45460D01*
X-291319Y-45423D01*
X-291149Y-45364D01*
X-291009Y-45327D01*
X-290943Y-45320D01*
X-290891Y-45312D01*
X-290847Y-45305D01*
X-290788D01*
X-290677Y-45312D01*
D02*
G37*
G36*
X-288478Y-49770D02*
X-290788D01*
X-290552Y-49755D01*
X-290330Y-49726D01*
X-290131Y-49674D01*
X-290035Y-49652D01*
X-289954Y-49622D01*
X-289873Y-49593D01*
X-289806Y-49571D01*
X-289747Y-49541D01*
X-289696Y-49519D01*
X-289651Y-49504D01*
X-289622Y-49490D01*
X-289607Y-49475D01*
X-289600D01*
X-289408Y-49349D01*
X-289238Y-49217D01*
X-289098Y-49076D01*
X-288980Y-48936D01*
X-288884Y-48818D01*
X-288847Y-48759D01*
X-288817Y-48715D01*
X-288795Y-48678D01*
X-288780Y-48648D01*
X-288766Y-48634D01*
Y-48626D01*
X-288714Y-48515D01*
X-288670Y-48405D01*
X-288596Y-48161D01*
X-288544Y-47910D01*
X-288515Y-47674D01*
X-288500Y-47563D01*
X-288493Y-47460D01*
X-288485Y-47364D01*
Y-47283D01*
X-288478Y-47217D01*
Y-49770D01*
D02*
G37*
G36*
X-293090Y-47423D02*
X-293068Y-47637D01*
X-293039Y-47837D01*
X-293002Y-48021D01*
X-292950Y-48191D01*
X-292899Y-48346D01*
X-292839Y-48486D01*
X-292780Y-48619D01*
X-292721Y-48730D01*
X-292662Y-48833D01*
X-292611Y-48914D01*
X-292559Y-48980D01*
X-292522Y-49039D01*
X-292493Y-49076D01*
X-292470Y-49099D01*
X-292463Y-49106D01*
X-292338Y-49224D01*
X-292205Y-49327D01*
X-292072Y-49416D01*
X-291932Y-49490D01*
X-291792Y-49556D01*
X-291651Y-49608D01*
X-291518Y-49652D01*
X-291386Y-49689D01*
X-291260Y-49711D01*
X-291149Y-49733D01*
X-291046Y-49748D01*
X-290957Y-49763D01*
X-290884D01*
X-290832Y-49770D01*
X-293098Y-49770D01*
Y-47194D01*
X-293090Y-47423D01*
D02*
G37*
D10*
X-320618Y-114716D02*
G03*
X-320618Y-114716I-492J0D01*
G01*
X-304539Y-159409D02*
G03*
X-304539Y-159409I-492J0D01*
G01*
X-195968Y-35984D02*
G03*
X-195968Y-35984I-492J0D01*
G01*
X-247520Y-178945D02*
G03*
X-247520Y-178945I-492J0D01*
G01*
X-344528Y-185244D02*
G03*
X-344528Y-185244I-492J0D01*
G01*
X-93055Y-87327D02*
G03*
X-93055Y-87327I-492J0D01*
G01*
X-246756Y-98161D02*
G03*
X-246756Y-98161I-492J0D01*
G01*
X-92803Y-50791D02*
G03*
X-92803Y-50791I-492J0D01*
G01*
X-138157Y-65658D02*
G03*
X-138157Y-65658I-492J0D01*
G01*
X-288339Y-145433D02*
G03*
X-288339Y-145433I-492J0D01*
G01*
X-166516Y-98847D02*
G03*
X-166516Y-98847I-492J0D01*
G01*
X-351079Y-125779D02*
G03*
X-351079Y-125779I-492J0D01*
G01*
X-227240Y-93555D02*
G03*
X-227240Y-93555I-492J0D01*
G01*
X-337445Y-129437D02*
G03*
X-337445Y-129437I-492J0D01*
G01*
X-268937Y-185748D02*
G03*
X-268937Y-185748I-492J0D01*
G01*
X-119118Y-60677D02*
G03*
X-119118Y-60677I-492J0D01*
G01*
X-76677Y-87327D02*
G03*
X-76677Y-87327I-492J0D01*
G01*
X-76425Y-50862D02*
G03*
X-76425Y-50862I-492J0D01*
G01*
X-91158Y-188327D02*
G03*
X-91158Y-188327I-492J0D01*
G01*
X-121791Y-161677D02*
G03*
X-121791Y-161677I-492J0D01*
G01*
X-150874Y-196894D02*
G03*
X-150874Y-196894I-492J0D01*
G01*
X-175307Y-187650D02*
G03*
X-175307Y-187650I-492J0D01*
G01*
X-148571Y-101961D02*
G03*
X-148571Y-101961I-492J0D01*
G01*
X-96635Y-47886D02*
G03*
X-96635Y-47886I-492J0D01*
G01*
X-204382Y-126323D02*
G03*
X-204382Y-126323I-492J0D01*
G01*
X-150461Y-62575D02*
G03*
X-150461Y-62575I-492J0D01*
G01*
D11*
X-345260Y-57669D02*
G03*
X-345260Y-57276I0J197D01*
G01*
D02*
G03*
X-345260Y-57669I0J-197D01*
G01*
X-294732Y-105661D02*
Y-94244D01*
X-321110D02*
X-294732D01*
X-321110Y-105661D02*
Y-94244D01*
Y-105661D02*
X-294732D01*
X-295976Y-185787D02*
X-284559D01*
Y-159409D01*
X-295976D02*
X-284559D01*
X-295976Y-185787D02*
Y-159409D01*
X-194787Y-67874D02*
Y-37953D01*
X-212898Y-67874D02*
Y-37953D01*
X-210732D01*
X-196953D02*
X-194787D01*
X-196953Y-67874D02*
X-194787D01*
X-212898D02*
X-210732D01*
X-185323Y-48449D02*
Y-41756D01*
X-191622Y-48449D02*
Y-41756D01*
X-185323D01*
X-179332Y-66110D02*
X-172639D01*
X-179332Y-72409D02*
X-172639D01*
X-179332D02*
Y-66110D01*
X-131905Y-37362D02*
Y-30669D01*
X-138205Y-37362D02*
Y-30669D01*
X-131905D01*
X-249685Y-176976D02*
Y-147055D01*
X-231575Y-176976D02*
Y-147055D01*
X-233740Y-176976D02*
X-231575D01*
X-249685D02*
X-247520D01*
X-249685Y-147055D02*
X-247520D01*
X-233740D02*
X-231575D01*
X-346693Y-183276D02*
Y-153354D01*
X-328583Y-183276D02*
Y-153354D01*
X-330748Y-183276D02*
X-328583D01*
X-346693D02*
X-344528D01*
X-346693Y-153354D02*
X-344528D01*
X-330748D02*
X-328583D01*
X-93646Y-114197D02*
Y-89394D01*
X-107425Y-114197D02*
Y-89394D01*
X-106244D01*
X-94827D02*
X-93646D01*
X-94827Y-114197D02*
X-93646D01*
X-107425D02*
X-106244D01*
X-247346Y-125031D02*
Y-100228D01*
X-261126Y-125031D02*
Y-100228D01*
X-259945D01*
X-248528D02*
X-247346D01*
X-248528Y-125031D02*
X-247346D01*
X-261126D02*
X-259945D01*
X-93394Y-77661D02*
Y-52858D01*
X-107173Y-77661D02*
Y-52858D01*
X-105992D01*
X-94575D02*
X-93394D01*
X-94575Y-77661D02*
X-93394D01*
X-107173D02*
X-105992D01*
X-138748Y-92528D02*
Y-67724D01*
X-152527Y-92528D02*
Y-67724D01*
X-151347D01*
X-139929D02*
X-138748D01*
X-139929Y-92528D02*
X-138748D01*
X-152527D02*
X-151347D01*
X-290504Y-143465D02*
Y-113543D01*
X-272394Y-143465D02*
Y-113543D01*
X-274559Y-143465D02*
X-272394D01*
X-290504D02*
X-288339D01*
X-290504Y-113543D02*
X-288339D01*
X-274559D02*
X-272394D01*
X-198898Y-100520D02*
X-168976D01*
X-198898Y-82410D02*
X-168976D01*
Y-84575D02*
Y-82410D01*
Y-100520D02*
Y-98354D01*
X-198898Y-100520D02*
Y-98354D01*
Y-84575D02*
Y-82410D01*
X-353244Y-123811D02*
Y-93890D01*
X-335134Y-123811D02*
Y-93890D01*
X-337299Y-123811D02*
X-335134D01*
X-353244D02*
X-351079D01*
X-353244Y-93890D02*
X-351079D01*
X-337299D02*
X-335134D01*
X-259622Y-95228D02*
X-229701D01*
X-259622Y-77118D02*
X-229701D01*
Y-79283D02*
Y-77118D01*
Y-95228D02*
Y-93063D01*
X-259622Y-95228D02*
Y-93063D01*
Y-79283D02*
Y-77118D01*
X-335968Y-127764D02*
X-306047D01*
X-335968Y-145874D02*
X-306047D01*
X-335968D02*
Y-143709D01*
Y-129929D02*
Y-127764D01*
X-306047Y-129929D02*
Y-127764D01*
Y-145874D02*
Y-143709D01*
X-271102Y-183780D02*
Y-153858D01*
X-252992Y-183780D02*
Y-153858D01*
X-255157Y-183780D02*
X-252992D01*
X-271102D02*
X-268937D01*
X-271102Y-153858D02*
X-268937D01*
X-255157D02*
X-252992D01*
X-117937Y-92567D02*
Y-62646D01*
X-136047Y-92567D02*
Y-62646D01*
X-133882D01*
X-120102D02*
X-117937D01*
X-120102Y-92567D02*
X-117937D01*
X-136047D02*
X-133882D01*
X-91047Y-114197D02*
X-89866D01*
X-78449D02*
X-77268D01*
X-78449Y-89394D02*
X-77268D01*
X-91047D02*
X-89866D01*
X-91047Y-114197D02*
Y-89394D01*
X-77268Y-114197D02*
Y-89394D01*
X-115299Y-114394D02*
X-110968D01*
X-164661Y-116732D02*
Y-110039D01*
X-170961Y-116732D02*
Y-110039D01*
X-164661D01*
X-77016Y-77732D02*
Y-52929D01*
X-90795Y-77732D02*
Y-52929D01*
X-89614D01*
X-78197D02*
X-77016D01*
X-78197Y-77732D02*
X-77016D01*
X-90795D02*
X-89614D01*
X-114795Y-68032D02*
X-110465D01*
X-91551Y-186260D02*
Y-161457D01*
X-77772Y-186260D02*
Y-161457D01*
X-78953Y-186260D02*
X-77772D01*
X-91551D02*
X-90370D01*
X-91551Y-161457D02*
X-90370D01*
X-78953D02*
X-77772D01*
X-116378Y-188055D02*
Y-161677D01*
X-105354Y-188055D02*
Y-161677D01*
X-116378D02*
X-105354D01*
X-116378Y-188055D02*
X-105354D01*
X-151268Y-194827D02*
Y-170024D01*
X-137488Y-194827D02*
Y-170024D01*
X-138669Y-194827D02*
X-137488D01*
X-151268D02*
X-150087D01*
X-151268Y-170024D02*
X-150087D01*
X-138669D02*
X-137488D01*
X-178949Y-197689D02*
Y-155563D01*
X-154657Y-197689D02*
Y-155563D01*
X-245433Y-115354D02*
Y-111417D01*
X-238347Y-115354D02*
Y-111417D01*
X-159898Y-102299D02*
X-155567D01*
X-92370Y-40063D02*
X-88039D01*
X-122024Y-57575D02*
Y-51276D01*
Y-57575D02*
X-115331D01*
X-122024Y-51276D02*
X-115331D01*
X-140008Y-128339D02*
X-128591D01*
Y-101961D01*
X-140008D02*
X-128591D01*
X-140008Y-128339D02*
Y-101961D01*
X-117600Y-21508D02*
X-106182D01*
X-117600Y-47886D02*
Y-21508D01*
Y-47886D02*
X-106182D01*
Y-21508D01*
X-164047Y-75795D02*
Y-71858D01*
X-156961Y-75795D02*
Y-71858D01*
X-160378Y-123370D02*
X-154079D01*
Y-116677D01*
X-160378Y-123370D02*
Y-116677D01*
X-191622Y-116732D02*
X-185323D01*
Y-110039D01*
X-191622Y-116732D02*
Y-110039D01*
X-200213Y-113134D02*
X-195882D01*
X-146049Y-54244D02*
X-141718D01*
X-314102Y-168315D02*
X-309772D01*
X-284677Y-156740D02*
X-280740D01*
X-284677Y-149653D02*
X-280740D01*
X-324661Y-179724D02*
X-318362D01*
Y-173031D01*
X-324661Y-179724D02*
Y-173031D01*
X-324268Y-111323D02*
Y-107386D01*
X-331354Y-111323D02*
Y-107386D01*
X-310173Y-124118D02*
Y-119787D01*
X-300472Y-133110D02*
X-294173D01*
Y-126417D01*
X-300472Y-133110D02*
Y-126417D01*
X-290646Y-98843D02*
X-284347D01*
Y-92150D01*
X-290646Y-98843D02*
Y-92150D01*
X-313268Y-156346D02*
Y-150047D01*
Y-156346D02*
X-306575D01*
X-313268Y-150047D02*
X-306575D01*
X-181039Y-110039D02*
X-174740D01*
X-181039Y-116732D02*
Y-110039D01*
X-174740Y-116732D02*
Y-110039D01*
X-225346Y-99945D02*
X-213929D01*
X-225346Y-126323D02*
Y-99945D01*
Y-126323D02*
X-213929D01*
Y-99945D01*
X-171425Y-36197D02*
X-160008D01*
X-171425Y-62575D02*
Y-36197D01*
Y-62575D02*
X-160008D01*
Y-36197D01*
D12*
X-434165Y-53949D02*
X-384953D01*
X-434165Y-208043D02*
X-384953D01*
X-434165D02*
Y-53949D01*
X-384953Y-208043D02*
Y-53949D01*
X-315435Y-96781D02*
X-313435D01*
X-314435D01*
Y-102778D01*
X-315435D01*
X-313435D01*
X-306437Y-97780D02*
X-307437Y-96781D01*
X-309436D01*
X-310436Y-97780D01*
Y-101779D01*
X-309436Y-102778D01*
X-307437D01*
X-306437Y-101779D01*
X-300439Y-96781D02*
X-304438D01*
Y-99779D01*
X-302439Y-98780D01*
X-301439D01*
X-300439Y-99779D01*
Y-101779D01*
X-301439Y-102778D01*
X-303438D01*
X-304438Y-101779D01*
X-293519Y-179844D02*
Y-177845D01*
Y-178844D01*
X-287521D01*
Y-179844D01*
Y-177845D01*
X-292519Y-170847D02*
X-293519Y-171847D01*
Y-173846D01*
X-292519Y-174846D01*
X-288520D01*
X-287521Y-173846D01*
Y-171847D01*
X-288520Y-170847D01*
X-287521Y-164849D02*
Y-168848D01*
X-291519Y-164849D01*
X-292519D01*
X-293519Y-165849D01*
Y-167848D01*
X-292519Y-168848D01*
X-516559Y-23896D02*
Y-17898D01*
X-513560D01*
X-512560Y-18898D01*
Y-20897D01*
X-513560Y-21897D01*
X-516559D01*
X-506562Y-23896D02*
X-510561D01*
X-506562Y-19897D01*
Y-18898D01*
X-507562Y-17898D01*
X-509561D01*
X-510561Y-18898D01*
D13*
X-343685Y-67905D02*
Y-61606D01*
X-356283Y-67905D02*
Y-61606D01*
D14*
X-235827Y-54055D02*
Y-44213D01*
X-255512Y-54055D02*
Y-44213D01*
X-235827D01*
X-255512Y-54055D02*
X-235827D01*
X-255512Y-64638D02*
Y-54795D01*
X-235827Y-64638D02*
Y-54795D01*
X-255512Y-64638D02*
X-235827D01*
X-255512Y-54795D02*
X-235827D01*
Y-75221D02*
Y-65378D01*
X-255512Y-75221D02*
Y-65378D01*
X-235827D01*
X-255512Y-75221D02*
X-235827D01*
D15*
X-204499Y-29570D02*
X-205154Y-28914D01*
X-206466D01*
X-207122Y-29570D01*
Y-32194D01*
X-206466Y-32850D01*
X-205154D01*
X-204499Y-32194D01*
X-200563Y-28914D02*
X-201875Y-29570D01*
X-203187Y-30882D01*
Y-32194D01*
X-202531Y-32850D01*
X-201219D01*
X-200563Y-32194D01*
Y-31538D01*
X-201219Y-30882D01*
X-203187D01*
X-170563Y-30284D02*
X-169251D01*
X-169907D01*
Y-34220D01*
X-170563D01*
X-169251D01*
X-164659Y-30940D02*
X-165315Y-30284D01*
X-166627D01*
X-167283Y-30940D01*
Y-33564D01*
X-166627Y-34220D01*
X-165315D01*
X-164659Y-33564D01*
X-163347Y-34220D02*
X-162036D01*
X-162691D01*
Y-30284D01*
X-163347Y-30940D01*
X-191752Y-29780D02*
Y-33716D01*
X-189784D01*
X-189128Y-33060D01*
Y-30436D01*
X-189784Y-29780D01*
X-191752D01*
X-185193Y-33716D02*
X-187817D01*
X-185193Y-31092D01*
Y-30436D01*
X-185849Y-29780D01*
X-187161D01*
X-187817Y-30436D01*
X-189485Y-59764D02*
Y-63700D01*
X-187517D01*
X-186861Y-63044D01*
Y-60420D01*
X-187517Y-59764D01*
X-189485D01*
X-183581Y-63700D02*
Y-59764D01*
X-185549Y-61732D01*
X-182925D01*
X-147154Y-31796D02*
Y-35732D01*
X-145186D01*
X-144530Y-35076D01*
Y-32452D01*
X-145186Y-31796D01*
X-147154D01*
X-143218Y-32452D02*
X-142562Y-31796D01*
X-141250D01*
X-140594Y-32452D01*
Y-33108D01*
X-141250Y-33764D01*
X-141906D01*
X-141250D01*
X-140594Y-34420D01*
Y-35076D01*
X-141250Y-35732D01*
X-142562D01*
X-143218Y-35076D01*
X-282813Y-106279D02*
X-283469Y-105623D01*
X-284781D01*
X-285437Y-106279D01*
Y-108903D01*
X-284781Y-109558D01*
X-283469D01*
X-282813Y-108903D01*
X-278877Y-109558D02*
X-281501D01*
X-278877Y-106935D01*
Y-106279D01*
X-279533Y-105623D01*
X-280845D01*
X-281501Y-106279D01*
X-275597Y-109558D02*
Y-105623D01*
X-277565Y-107591D01*
X-274941D01*
X-189081Y-77806D02*
X-189736Y-77150D01*
X-191048D01*
X-191704Y-77806D01*
Y-80430D01*
X-191048Y-81086D01*
X-189736D01*
X-189081Y-80430D01*
X-185145Y-81086D02*
X-187769D01*
X-185145Y-78462D01*
Y-77806D01*
X-185801Y-77150D01*
X-187113D01*
X-187769Y-77806D01*
X-183833D02*
X-183177Y-77150D01*
X-181865D01*
X-181209Y-77806D01*
Y-78462D01*
X-181865Y-79118D01*
X-182521D01*
X-181865D01*
X-181209Y-79774D01*
Y-80430D01*
X-181865Y-81086D01*
X-183177D01*
X-183833Y-80430D01*
X-349005Y-128452D02*
X-349660Y-127796D01*
X-350972D01*
X-351628Y-128452D01*
Y-131076D01*
X-350972Y-131732D01*
X-349660D01*
X-349005Y-131076D01*
X-347693Y-131732D02*
X-346381D01*
X-347037D01*
Y-127796D01*
X-347693Y-128452D01*
X-344413D02*
X-343757Y-127796D01*
X-342445D01*
X-341789Y-128452D01*
Y-129108D01*
X-342445Y-129764D01*
X-341789Y-130420D01*
Y-131076D01*
X-342445Y-131732D01*
X-343757D01*
X-344413Y-131076D01*
Y-130420D01*
X-343757Y-129764D01*
X-344413Y-129108D01*
Y-128452D01*
X-343757Y-129764D02*
X-342445D01*
X-339102Y-63040D02*
X-341726D01*
Y-65008D01*
X-340414D01*
X-341726D01*
Y-66976D01*
X-337790Y-63040D02*
Y-66976D01*
X-335166D01*
X-333854D02*
X-332542D01*
X-333198D01*
Y-63040D01*
X-333854Y-63696D01*
X-231915Y-58001D02*
X-234539D01*
Y-59969D01*
X-233227D01*
X-234539D01*
Y-61936D01*
X-230603Y-58001D02*
Y-61936D01*
X-228635D01*
X-227979Y-61280D01*
Y-60624D01*
X-228635Y-59969D01*
X-230603D01*
X-228635D01*
X-227979Y-59312D01*
Y-58657D01*
X-228635Y-58001D01*
X-230603D01*
X-226667Y-58657D02*
X-226011Y-58001D01*
X-224700D01*
X-224044Y-58657D01*
Y-59312D01*
X-224700Y-59969D01*
X-225356D01*
X-224700D01*
X-224044Y-60624D01*
Y-61280D01*
X-224700Y-61936D01*
X-226011D01*
X-226667Y-61280D01*
X-231159Y-46914D02*
X-233783D01*
Y-48882D01*
X-232471D01*
X-233783D01*
Y-50850D01*
X-229847Y-46914D02*
Y-50850D01*
X-227880D01*
X-227223Y-50194D01*
Y-49538D01*
X-227880Y-48882D01*
X-229847D01*
X-227880D01*
X-227223Y-48226D01*
Y-47570D01*
X-227880Y-46914D01*
X-229847D01*
X-223288Y-50850D02*
X-225912D01*
X-223288Y-48226D01*
Y-47570D01*
X-223944Y-46914D01*
X-225256D01*
X-225912Y-47570D01*
X-230755Y-68079D02*
X-233379D01*
Y-70047D01*
X-232067D01*
X-233379D01*
Y-72015D01*
X-229443Y-68079D02*
Y-72015D01*
X-227476D01*
X-226819Y-71359D01*
Y-70703D01*
X-227476Y-70047D01*
X-229443D01*
X-227476D01*
X-226819Y-69391D01*
Y-68735D01*
X-227476Y-68079D01*
X-229443D01*
X-225508Y-72015D02*
X-224196D01*
X-224852D01*
Y-68079D01*
X-225508Y-68735D01*
X-85194Y-120389D02*
X-85849Y-119733D01*
X-87161D01*
X-87817Y-120389D01*
Y-123013D01*
X-87161Y-123669D01*
X-85849D01*
X-85194Y-123013D01*
X-83882Y-123669D02*
X-82570D01*
X-83226D01*
Y-119733D01*
X-83882Y-120389D01*
X-77978Y-119733D02*
X-80602D01*
Y-121701D01*
X-79290Y-121045D01*
X-78634D01*
X-77978Y-121701D01*
Y-123013D01*
X-78634Y-123669D01*
X-79946D01*
X-80602Y-123013D01*
X-41931Y-28015D02*
Y-24079D01*
X-39963D01*
X-39307Y-24735D01*
Y-26047D01*
X-39963Y-26703D01*
X-41931D01*
X-37995Y-28015D02*
X-36683D01*
X-37339D01*
Y-24079D01*
X-37995Y-24735D01*
X-115327Y-154253D02*
Y-157532D01*
X-114671Y-158188D01*
X-113359D01*
X-112703Y-157532D01*
Y-154253D01*
X-108767Y-158188D02*
X-111391D01*
X-108767Y-155564D01*
Y-154909D01*
X-109423Y-154253D01*
X-110735D01*
X-111391Y-154909D01*
X-186927Y-158406D02*
Y-161686D01*
X-186271Y-162342D01*
X-184959D01*
X-184303Y-161686D01*
Y-158406D01*
X-182991Y-162342D02*
X-181679D01*
X-182335D01*
Y-158406D01*
X-182991Y-159062D01*
X-133595Y-166655D02*
X-134251Y-167311D01*
Y-168623D01*
X-133595Y-169279D01*
X-130972D01*
X-130316Y-168623D01*
Y-167311D01*
X-130972Y-166655D01*
X-130316Y-162720D02*
Y-165343D01*
X-132939Y-162720D01*
X-133595D01*
X-134251Y-163375D01*
Y-164687D01*
X-133595Y-165343D01*
X-130316Y-158784D02*
Y-161408D01*
X-132939Y-158784D01*
X-133595D01*
X-134251Y-159440D01*
Y-160752D01*
X-133595Y-161408D01*
X-86881Y-152641D02*
X-87537Y-151985D01*
X-88849D01*
X-89505Y-152641D01*
Y-155265D01*
X-88849Y-155921D01*
X-87537D01*
X-86881Y-155265D01*
X-82946Y-155921D02*
X-85569D01*
X-82946Y-153297D01*
Y-152641D01*
X-83601Y-151985D01*
X-84913D01*
X-85569Y-152641D01*
X-81634Y-155921D02*
X-80322D01*
X-80978D01*
Y-151985D01*
X-81634Y-152641D01*
X-188829Y-192200D02*
X-189485Y-191544D01*
X-190796D01*
X-191452Y-192200D01*
Y-194824D01*
X-190796Y-195480D01*
X-189485D01*
X-188829Y-194824D01*
X-184893Y-195480D02*
X-187517D01*
X-184893Y-192856D01*
Y-192200D01*
X-185549Y-191544D01*
X-186861D01*
X-187517Y-192200D01*
X-183581D02*
X-182925Y-191544D01*
X-181613D01*
X-180957Y-192200D01*
Y-194824D01*
X-181613Y-195480D01*
X-182925D01*
X-183581Y-194824D01*
Y-192200D01*
X-146174Y-162113D02*
X-146830Y-161457D01*
X-148142D01*
X-148798Y-162113D01*
Y-164737D01*
X-148142Y-165393D01*
X-146830D01*
X-146174Y-164737D01*
X-144862Y-165393D02*
X-143550D01*
X-144206D01*
Y-161457D01*
X-144862Y-162113D01*
X-141582Y-164737D02*
X-140926Y-165393D01*
X-139614D01*
X-138958Y-164737D01*
Y-162113D01*
X-139614Y-161457D01*
X-140926D01*
X-141582Y-162113D01*
Y-162769D01*
X-140926Y-163425D01*
X-138958D01*
X-447335Y-46960D02*
X-448647D01*
X-447991D01*
Y-50240D01*
X-448647Y-50896D01*
X-449303D01*
X-449959Y-50240D01*
X-443399Y-50896D02*
X-446023D01*
X-443399Y-48272D01*
Y-47616D01*
X-444056Y-46960D01*
X-445367D01*
X-446023Y-47616D01*
X-315217Y-180362D02*
Y-176426D01*
X-313249D01*
X-312593Y-177082D01*
Y-178394D01*
X-313249Y-179050D01*
X-315217D01*
X-313905D02*
X-312593Y-180362D01*
X-308657D02*
X-311281D01*
X-308657Y-177738D01*
Y-177082D01*
X-309313Y-176426D01*
X-310625D01*
X-311281Y-177082D01*
X-161264Y-94440D02*
Y-90505D01*
X-159296D01*
X-158640Y-91161D01*
Y-92472D01*
X-159296Y-93129D01*
X-161264D01*
X-159952D02*
X-158640Y-94440D01*
X-157328Y-93784D02*
X-156672Y-94440D01*
X-155360D01*
X-154704Y-93784D01*
Y-91161D01*
X-155360Y-90505D01*
X-156672D01*
X-157328Y-91161D01*
Y-91817D01*
X-156672Y-92472D01*
X-154704D01*
X-93233Y-31196D02*
Y-27261D01*
X-91265D01*
X-90609Y-27916D01*
Y-29228D01*
X-91265Y-29884D01*
X-93233D01*
X-91921D02*
X-90609Y-31196D01*
X-89297Y-27916D02*
X-88641Y-27261D01*
X-87329D01*
X-86673Y-27916D01*
Y-28572D01*
X-87329Y-29228D01*
X-87985D01*
X-87329D01*
X-86673Y-29884D01*
Y-30540D01*
X-87329Y-31196D01*
X-88641D01*
X-89297Y-30540D01*
X-243658Y-103007D02*
Y-99072D01*
X-241690D01*
X-241034Y-99727D01*
Y-101039D01*
X-241690Y-101695D01*
X-243658D01*
X-242346D02*
X-241034Y-103007D01*
X-239722Y-99072D02*
X-237098D01*
Y-99727D01*
X-239722Y-102351D01*
Y-103007D01*
X-199763Y-121820D02*
X-195827D01*
Y-123788D01*
X-196483Y-124444D01*
X-197795D01*
X-198451Y-123788D01*
Y-121820D01*
Y-123132D02*
X-199763Y-124444D01*
Y-125756D02*
Y-127068D01*
Y-126412D01*
X-195827D01*
X-196483Y-125756D01*
Y-129036D02*
X-195827Y-129692D01*
Y-131004D01*
X-196483Y-131660D01*
X-199107D01*
X-199763Y-131004D01*
Y-129692D01*
X-199107Y-129036D01*
X-196483D01*
X-299343Y-155165D02*
Y-151229D01*
X-297375D01*
X-296719Y-151885D01*
Y-153197D01*
X-297375Y-153853D01*
X-299343D01*
X-298031D02*
X-296719Y-155165D01*
X-292783Y-151229D02*
X-295407D01*
Y-153197D01*
X-294095Y-152541D01*
X-293439D01*
X-292783Y-153197D01*
Y-154509D01*
X-293439Y-155165D01*
X-294751D01*
X-295407Y-154509D01*
X-146498Y-45558D02*
Y-41623D01*
X-144530D01*
X-143874Y-42279D01*
Y-43591D01*
X-144530Y-44247D01*
X-146498D01*
X-145186D02*
X-143874Y-45558D01*
X-142562D02*
X-141250D01*
X-141906D01*
Y-41623D01*
X-142562Y-42279D01*
X-163280Y-88141D02*
Y-84205D01*
X-161312D01*
X-160656Y-84861D01*
Y-86173D01*
X-161312Y-86829D01*
X-163280D01*
X-161968D02*
X-160656Y-88141D01*
X-157376D02*
Y-84205D01*
X-159344Y-86173D01*
X-156720D01*
X-327539Y-124173D02*
Y-120237D01*
X-325571D01*
X-324916Y-120893D01*
Y-122205D01*
X-325571Y-122861D01*
X-327539D01*
X-326227D02*
X-324916Y-124173D01*
X-323604D02*
X-322292D01*
X-322948D01*
Y-120237D01*
X-323604Y-120893D01*
X-320324Y-124173D02*
X-319012D01*
X-319668D01*
Y-120237D01*
X-320324Y-120893D01*
X-116290Y-128960D02*
Y-125024D01*
X-114322D01*
X-113666Y-125680D01*
Y-126992D01*
X-114322Y-127648D01*
X-116290D01*
X-114978D02*
X-113666Y-128960D01*
X-112354D02*
X-111042D01*
X-111698D01*
Y-125024D01*
X-112354Y-125680D01*
X-106450Y-128960D02*
X-109074D01*
X-106450Y-126336D01*
Y-125680D01*
X-107106Y-125024D01*
X-108418D01*
X-109074Y-125680D01*
X-330839Y-98220D02*
Y-94284D01*
X-328871D01*
X-328215Y-94940D01*
Y-96252D01*
X-328871Y-96908D01*
X-330839D01*
X-329527D02*
X-328215Y-98220D01*
X-326903Y-94940D02*
X-326247Y-94284D01*
X-324935D01*
X-324279Y-94940D01*
Y-95596D01*
X-324935Y-96252D01*
X-324279Y-96908D01*
Y-97564D01*
X-324935Y-98220D01*
X-326247D01*
X-326903Y-97564D01*
Y-96908D01*
X-326247Y-96252D01*
X-326903Y-95596D01*
Y-94940D01*
X-326247Y-96252D02*
X-324935D01*
X-115910Y-80078D02*
Y-76142D01*
X-113942D01*
X-113286Y-76798D01*
Y-78110D01*
X-113942Y-78766D01*
X-115910D01*
X-114598D02*
X-113286Y-80078D01*
X-109350Y-76142D02*
X-110662Y-76798D01*
X-111974Y-78110D01*
Y-79422D01*
X-111318Y-80078D01*
X-110006D01*
X-109350Y-79422D01*
Y-78766D01*
X-110006Y-78110D01*
X-111974D01*
X-130904Y-20709D02*
X-129592D01*
X-130248D01*
Y-24645D01*
X-130904D01*
X-129592D01*
X-125000Y-21365D02*
X-125656Y-20709D01*
X-126968D01*
X-127624Y-21365D01*
Y-23989D01*
X-126968Y-24645D01*
X-125656D01*
X-125000Y-23989D01*
X-123688Y-21365D02*
X-123032Y-20709D01*
X-121721D01*
X-121065Y-21365D01*
Y-22021D01*
X-121721Y-22677D01*
X-122377D01*
X-121721D01*
X-121065Y-23333D01*
Y-23989D01*
X-121721Y-24645D01*
X-123032D01*
X-123688Y-23989D01*
X-221613Y-93276D02*
X-220301D01*
X-220957D01*
Y-97212D01*
X-221613D01*
X-220301D01*
X-215709Y-93932D02*
X-216365Y-93276D01*
X-217677D01*
X-218333Y-93932D01*
Y-96556D01*
X-217677Y-97212D01*
X-216365D01*
X-215709Y-96556D01*
X-212429Y-97212D02*
Y-93276D01*
X-214397Y-95244D01*
X-211773D01*
X-139723Y-130819D02*
X-138411D01*
X-139067D01*
Y-134755D01*
X-139723D01*
X-138411D01*
X-133819Y-131475D02*
X-134475Y-130819D01*
X-135787D01*
X-136443Y-131475D01*
Y-134099D01*
X-135787Y-134755D01*
X-134475D01*
X-133819Y-134099D01*
X-129884Y-130819D02*
X-131195Y-131475D01*
X-132507Y-132787D01*
Y-134099D01*
X-131851Y-134755D01*
X-130539D01*
X-129884Y-134099D01*
Y-133443D01*
X-130539Y-132787D01*
X-132507D01*
X-292164Y-79922D02*
Y-83858D01*
X-290196D01*
X-289540Y-83202D01*
Y-80578D01*
X-290196Y-79922D01*
X-292164D01*
X-288228Y-83858D02*
X-286916D01*
X-287572D01*
Y-79922D01*
X-288228Y-80578D01*
X-282324Y-83858D02*
X-284948D01*
X-282324Y-81234D01*
Y-80578D01*
X-282980Y-79922D01*
X-284292D01*
X-284948Y-80578D01*
X-300351Y-140898D02*
Y-144834D01*
X-298383D01*
X-297727Y-144178D01*
Y-141554D01*
X-298383Y-140898D01*
X-300351D01*
X-296415Y-144178D02*
X-295759Y-144834D01*
X-294447D01*
X-293791Y-144178D01*
Y-141554D01*
X-294447Y-140898D01*
X-295759D01*
X-296415Y-141554D01*
Y-142210D01*
X-295759Y-142866D01*
X-293791D01*
X-191500Y-125528D02*
Y-129464D01*
X-189532D01*
X-188876Y-128808D01*
Y-126184D01*
X-189532Y-125528D01*
X-191500D01*
X-187565D02*
X-184941D01*
Y-126184D01*
X-187565Y-128808D01*
Y-129464D01*
X-136067Y-52961D02*
Y-56897D01*
X-134099D01*
X-133443Y-56241D01*
Y-53617D01*
X-134099Y-52961D01*
X-136067D01*
X-129508D02*
X-132131D01*
Y-54929D01*
X-130819Y-54273D01*
X-130164D01*
X-129508Y-54929D01*
Y-56241D01*
X-130164Y-56897D01*
X-131475D01*
X-132131Y-56241D01*
X-324640Y-160552D02*
Y-164488D01*
X-322672D01*
X-322016Y-163832D01*
Y-161208D01*
X-322672Y-160552D01*
X-324640D01*
X-320704Y-164488D02*
X-319392D01*
X-320048D01*
Y-160552D01*
X-320704Y-161208D01*
X-326807Y-151229D02*
Y-155165D01*
X-324839D01*
X-324184Y-154509D01*
Y-151885D01*
X-324839Y-151229D01*
X-326807D01*
X-320248D02*
X-321560Y-151885D01*
X-322872Y-153197D01*
Y-154509D01*
X-322216Y-155165D01*
X-320904D01*
X-320248Y-154509D01*
Y-153853D01*
X-320904Y-153197D01*
X-322872D01*
X-159980Y-131827D02*
Y-135763D01*
X-158012D01*
X-157356Y-135107D01*
Y-132483D01*
X-158012Y-131827D01*
X-159980D01*
X-156044Y-135763D02*
X-154733D01*
X-155389D01*
Y-131827D01*
X-156044Y-132483D01*
X-152765Y-135763D02*
X-151453D01*
X-152109D01*
Y-131827D01*
X-152765Y-132483D01*
X-182053Y-125780D02*
Y-129716D01*
X-180086D01*
X-179430Y-129060D01*
Y-126436D01*
X-180086Y-125780D01*
X-182053D01*
X-178118Y-129716D02*
X-176806D01*
X-177462D01*
Y-125780D01*
X-178118Y-126436D01*
X-174838D02*
X-174182Y-125780D01*
X-172870D01*
X-172214Y-126436D01*
Y-129060D01*
X-172870Y-129716D01*
X-174182D01*
X-174838Y-129060D01*
Y-126436D01*
X-170587Y-126032D02*
Y-129968D01*
X-168619D01*
X-167963Y-129312D01*
Y-126688D01*
X-168619Y-126032D01*
X-170587D01*
X-166651Y-126688D02*
X-165995Y-126032D01*
X-164683D01*
X-164027Y-126688D01*
Y-127344D01*
X-164683Y-128000D01*
X-164027Y-128656D01*
Y-129312D01*
X-164683Y-129968D01*
X-165995D01*
X-166651Y-129312D01*
Y-128656D01*
X-165995Y-128000D01*
X-166651Y-127344D01*
Y-126688D01*
X-165995Y-128000D02*
X-164683D01*
X-271650Y-95444D02*
X-272306Y-94788D01*
X-273618D01*
X-274274Y-95444D01*
Y-98068D01*
X-273618Y-98724D01*
X-272306D01*
X-271650Y-98068D01*
X-270338Y-98724D02*
X-269026D01*
X-269682D01*
Y-94788D01*
X-270338Y-95444D01*
X-267058D02*
X-266403Y-94788D01*
X-265091D01*
X-264435Y-95444D01*
Y-96100D01*
X-265091Y-96756D01*
X-265747D01*
X-265091D01*
X-264435Y-97412D01*
Y-98068D01*
X-265091Y-98724D01*
X-266403D01*
X-267058Y-98068D01*
X-357443Y-74279D02*
X-358099Y-73623D01*
X-359411D01*
X-360067Y-74279D01*
Y-76903D01*
X-359411Y-77558D01*
X-358099D01*
X-357443Y-76903D01*
X-353508Y-73623D02*
X-356131D01*
Y-75590D01*
X-354819Y-74935D01*
X-354164D01*
X-353508Y-75590D01*
Y-76903D01*
X-354164Y-77558D01*
X-355475D01*
X-356131Y-76903D01*
X-347997Y-137019D02*
X-348653Y-136363D01*
X-349964D01*
X-350621Y-137019D01*
Y-139643D01*
X-349964Y-140299D01*
X-348653D01*
X-347997Y-139643D01*
X-346685Y-140299D02*
X-345373D01*
X-346029D01*
Y-136363D01*
X-346685Y-137019D01*
X-340781Y-136363D02*
X-342093Y-137019D01*
X-343405Y-138331D01*
Y-139643D01*
X-342749Y-140299D01*
X-341437D01*
X-340781Y-139643D01*
Y-138987D01*
X-341437Y-138331D01*
X-343405D01*
X-100939Y-82594D02*
X-101595Y-81938D01*
X-102907D01*
X-103563Y-82594D01*
Y-85217D01*
X-102907Y-85873D01*
X-101595D01*
X-100939Y-85217D01*
X-99628D02*
X-98971Y-85873D01*
X-97660D01*
X-97004Y-85217D01*
Y-82594D01*
X-97660Y-81938D01*
X-98971D01*
X-99628Y-82594D01*
Y-83250D01*
X-98971Y-83906D01*
X-97004D01*
X-345601Y-146342D02*
X-346257Y-145686D01*
X-347569D01*
X-348225Y-146342D01*
Y-148966D01*
X-347569Y-149621D01*
X-346257D01*
X-345601Y-148966D01*
X-344289Y-145686D02*
X-341665D01*
Y-146342D01*
X-344289Y-148966D01*
Y-149621D01*
X-223020Y-84861D02*
X-223676Y-84205D01*
X-224988D01*
X-225644Y-84861D01*
Y-87485D01*
X-224988Y-88141D01*
X-223676D01*
X-223020Y-87485D01*
X-221708Y-88141D02*
X-220396D01*
X-221052D01*
Y-84205D01*
X-221708Y-84861D01*
X-218429Y-84205D02*
X-215805D01*
Y-84861D01*
X-218429Y-87485D01*
Y-88141D01*
X-127244Y-78814D02*
X-127900Y-78158D01*
X-129212D01*
X-129868Y-78814D01*
Y-81438D01*
X-129212Y-82094D01*
X-127900D01*
X-127244Y-81438D01*
X-125932Y-82094D02*
X-124620D01*
X-125276D01*
Y-78158D01*
X-125932Y-78814D01*
X-254364Y-131223D02*
X-255020Y-130568D01*
X-256332D01*
X-256988Y-131223D01*
Y-133847D01*
X-256332Y-134503D01*
X-255020D01*
X-254364Y-133847D01*
X-253052Y-134503D02*
X-251741D01*
X-252396D01*
Y-130568D01*
X-253052Y-131223D01*
X-249773Y-134503D02*
X-248461D01*
X-249117D01*
Y-130568D01*
X-249773Y-131223D01*
X-103083Y-120641D02*
X-103739Y-119985D01*
X-105051D01*
X-105707Y-120641D01*
Y-123265D01*
X-105051Y-123921D01*
X-103739D01*
X-103083Y-123265D01*
X-101771Y-123921D02*
X-100459D01*
X-101115D01*
Y-119985D01*
X-101771Y-120641D01*
X-95868Y-123921D02*
X-98492D01*
X-95868Y-121297D01*
Y-120641D01*
X-96524Y-119985D01*
X-97836D01*
X-98492Y-120641D01*
X-348264Y-74531D02*
X-348920Y-73875D01*
X-350232D01*
X-350888Y-74531D01*
Y-77154D01*
X-350232Y-77810D01*
X-348920D01*
X-348264Y-77154D01*
X-346952Y-77810D02*
X-345640D01*
X-346297D01*
Y-73875D01*
X-346952Y-74531D01*
X-341705Y-77810D02*
Y-73875D01*
X-343673Y-75842D01*
X-341049D01*
X-84562Y-82412D02*
X-85217Y-81757D01*
X-86529D01*
X-87185Y-82412D01*
Y-85036D01*
X-86529Y-85692D01*
X-85217D01*
X-84562Y-85036D01*
X-83249Y-82412D02*
X-82594Y-81757D01*
X-81282D01*
X-80626Y-82412D01*
Y-83069D01*
X-81282Y-83724D01*
X-81938D01*
X-81282D01*
X-80626Y-84380D01*
Y-85036D01*
X-81282Y-85692D01*
X-82594D01*
X-83249Y-85036D01*
X-262199Y-146594D02*
X-262855Y-145938D01*
X-264167D01*
X-264823Y-146594D01*
Y-149217D01*
X-264167Y-149873D01*
X-262855D01*
X-262199Y-149217D01*
X-258263Y-149873D02*
X-260887D01*
X-258263Y-147250D01*
Y-146594D01*
X-258920Y-145938D01*
X-260231D01*
X-260887Y-146594D01*
X-146294Y-79570D02*
X-146950Y-78914D01*
X-148262D01*
X-148918Y-79570D01*
Y-82194D01*
X-148262Y-82850D01*
X-146950D01*
X-146294Y-82194D01*
X-144982Y-79570D02*
X-144326Y-78914D01*
X-143014D01*
X-142358Y-79570D01*
Y-80226D01*
X-143014Y-80882D01*
X-142358Y-81538D01*
Y-82194D01*
X-143014Y-82850D01*
X-144326D01*
X-144982Y-82194D01*
Y-81538D01*
X-144326Y-80882D01*
X-144982Y-80226D01*
Y-79570D01*
X-144326Y-80882D02*
X-143014D01*
X-243682Y-139034D02*
X-244338Y-138379D01*
X-245650D01*
X-246305Y-139034D01*
Y-141658D01*
X-245650Y-142314D01*
X-244338D01*
X-243682Y-141658D01*
X-242370Y-142314D02*
X-241058D01*
X-241714D01*
Y-138379D01*
X-242370Y-139034D01*
X-239090D02*
X-238434Y-138379D01*
X-237122D01*
X-236466Y-139034D01*
Y-141658D01*
X-237122Y-142314D01*
X-238434D01*
X-239090Y-141658D01*
Y-139034D01*
X-219265Y-47270D02*
X-219921Y-47926D01*
Y-49238D01*
X-219265Y-49894D01*
X-216641D01*
X-215985Y-49238D01*
Y-47926D01*
X-216641Y-47270D01*
X-215985Y-43990D02*
X-219921D01*
X-217953Y-45958D01*
Y-43334D01*
D16*
X-188472Y-42839D02*
D03*
X-167811Y-111122D02*
D03*
X-188472Y-115650D02*
D03*
X-287496Y-97760D02*
D03*
X-177890Y-111122D02*
D03*
D17*
X-178249Y-69260D02*
D03*
X-120941Y-54425D02*
D03*
X-312185Y-153197D02*
D03*
D18*
X-135055Y-31752D02*
D03*
X-157228Y-122287D02*
D03*
D19*
X-321512Y-178642D02*
D03*
X-297323Y-132028D02*
D03*
M02*
