G04*
G04 #@! TF.GenerationSoftware,Altium Limited,Altium Designer,22.4.2 (48)*
G04*
G04 Layer_Physical_Order=3*
G04 Layer_Color=16440176*
%FSLAX25Y25*%
%MOIN*%
G70*
G04*
G04 #@! TF.SameCoordinates,4CF85C7E-ED7B-4693-B97B-18F97556DA9E*
G04*
G04*
G04 #@! TF.FilePolarity,Positive*
G04*
G01*
G75*
%ADD21C,0.01968*%
%ADD27C,0.01575*%
%ADD29C,0.05906*%
%ADD31C,0.09843*%
%ADD32C,0.04724*%
%ADD33C,0.02362*%
%ADD34C,0.02756*%
G36*
X93971Y3953D02*
X86598D01*
Y-3953D01*
X93971D01*
Y-7122D01*
X93471Y-7329D01*
X92978Y-6837D01*
X92077Y-6317D01*
X91072Y-6047D01*
X90031D01*
X89025Y-6317D01*
X88124Y-6837D01*
X87388Y-7573D01*
X86868Y-8474D01*
X86598Y-9480D01*
Y-10520D01*
X86868Y-11526D01*
X87388Y-12427D01*
X88124Y-13163D01*
X89025Y-13683D01*
X90031Y-13953D01*
X91072D01*
X92077Y-13683D01*
X92978Y-13163D01*
X93471Y-12671D01*
X93971Y-12878D01*
Y-17122D01*
X93471Y-17329D01*
X92978Y-16837D01*
X92077Y-16317D01*
X91072Y-16047D01*
X90031D01*
X89025Y-16317D01*
X88124Y-16837D01*
X87388Y-17573D01*
X86868Y-18474D01*
X86598Y-19480D01*
Y-20520D01*
X86868Y-21526D01*
X87388Y-22427D01*
X88124Y-23163D01*
X89025Y-23683D01*
X90031Y-23953D01*
X91072D01*
X92077Y-23683D01*
X92978Y-23163D01*
X93471Y-22671D01*
X93971Y-22878D01*
Y-25000D01*
X15000D01*
X5000Y-35000D01*
X-10000D01*
Y-35500D01*
X-11152D01*
X-11202Y-35399D01*
X-11253Y-35355D01*
X-11290Y-35299D01*
X-11401Y-35225D01*
X-11501Y-35137D01*
X-11565Y-35115D01*
X-11621Y-35078D01*
X-11752Y-35052D01*
X-11878Y-35009D01*
X-11945Y-35013D01*
X-12011Y-35000D01*
X-15000D01*
X-15390Y-35078D01*
X-15721Y-35299D01*
X-15942Y-35629D01*
X-16020Y-36020D01*
X-45000Y-65000D01*
X-108500D01*
Y-66047D01*
X-108946D01*
X-109951Y-66317D01*
X-110852Y-66837D01*
X-111588Y-67573D01*
X-112109Y-68474D01*
X-112378Y-69480D01*
Y-70520D01*
X-112109Y-71526D01*
X-111588Y-72427D01*
X-111258Y-72758D01*
X-117368Y-78868D01*
X-117816Y-78609D01*
X-117638Y-77943D01*
Y-77057D01*
X-117867Y-76202D01*
X-118310Y-75436D01*
X-118936Y-74810D01*
X-119702Y-74367D01*
X-120557Y-74138D01*
X-121443D01*
X-122298Y-74367D01*
X-123064Y-74810D01*
X-123690Y-75436D01*
X-124133Y-76202D01*
X-124362Y-77057D01*
Y-77943D01*
X-124133Y-78798D01*
X-123690Y-79564D01*
X-123064Y-80190D01*
X-122298Y-80633D01*
X-121443Y-80862D01*
X-120557D01*
X-119891Y-80684D01*
X-119632Y-81132D01*
X-146000Y-107500D01*
Y-181896D01*
X-267500D01*
Y-115000D01*
X-245500D01*
Y-163640D01*
X-196000D01*
Y-115000D01*
X-189315Y-108315D01*
X-188891Y-108542D01*
X-188862Y-108569D01*
Y-109443D01*
X-188633Y-110298D01*
X-188190Y-111064D01*
X-187564Y-111690D01*
X-186798Y-112133D01*
X-185943Y-112362D01*
X-185057D01*
X-184202Y-112133D01*
X-183436Y-111690D01*
X-182810Y-111064D01*
X-182367Y-110298D01*
X-182138Y-109443D01*
Y-108557D01*
X-182367Y-107702D01*
X-182810Y-106936D01*
X-183436Y-106310D01*
X-184202Y-105867D01*
X-185057Y-105638D01*
X-185931D01*
X-185958Y-105609D01*
X-186185Y-105185D01*
X-166000Y-85000D01*
X-148500D01*
X-117668Y-54168D01*
X-116943Y-54362D01*
X-116057D01*
X-115202Y-54133D01*
X-114436Y-53690D01*
X-113810Y-53064D01*
X-113367Y-52298D01*
X-113138Y-51443D01*
Y-50557D01*
X-113332Y-49832D01*
X-112806Y-49306D01*
X-112378Y-49585D01*
Y-50520D01*
X-112109Y-51526D01*
X-111588Y-52427D01*
X-110852Y-53163D01*
X-110500Y-53366D01*
X-109951Y-53683D01*
X-108946Y-53953D01*
X-107905D01*
X-106899Y-53683D01*
X-105998Y-53163D01*
X-105262Y-52427D01*
X-104742Y-51526D01*
X-104472Y-50520D01*
Y-49480D01*
X-104742Y-48474D01*
X-105262Y-47573D01*
X-105835Y-47000D01*
X-105628Y-46500D01*
X-101222D01*
X-101015Y-47000D01*
X-101588Y-47573D01*
X-102109Y-48474D01*
X-102378Y-49480D01*
Y-50520D01*
X-102109Y-51526D01*
X-101588Y-52427D01*
X-100852Y-53163D01*
X-99951Y-53683D01*
X-98946Y-53953D01*
X-97905D01*
X-96899Y-53683D01*
X-95998Y-53163D01*
X-95262Y-52427D01*
X-94742Y-51526D01*
X-94472Y-50520D01*
Y-49480D01*
X-94742Y-48474D01*
X-95262Y-47573D01*
X-95835Y-47000D01*
X-95628Y-46500D01*
X-89500D01*
X-31104Y11896D01*
X93971D01*
Y3953D01*
D02*
G37*
G36*
X-91000Y-25000D02*
X-162950D01*
X-163096Y-24903D01*
X-163105Y-24892D01*
X-163126Y-24882D01*
X-163130Y-24880D01*
X-163147Y-24863D01*
X-163308Y-24796D01*
X-163465Y-24722D01*
X-164115Y-24559D01*
X-164165Y-24556D01*
X-164176Y-24552D01*
X-164225D01*
X-164316Y-24529D01*
X-164414Y-24544D01*
X-164513Y-24539D01*
X-164549Y-24552D01*
X-164574D01*
X-164636Y-24577D01*
X-164710Y-24589D01*
X-164721Y-24593D01*
X-164806Y-24644D01*
X-164815Y-24647D01*
X-165350Y-24754D01*
X-178185D01*
X-178333Y-24543D01*
X-178410Y-24271D01*
X-176162Y-22023D01*
X-164896D01*
X-164663Y-22427D01*
X-163927Y-23163D01*
X-163026Y-23683D01*
X-162020Y-23953D01*
X-160980D01*
X-159974Y-23683D01*
X-159073Y-23163D01*
X-158337Y-22427D01*
X-157817Y-21526D01*
X-157547Y-20520D01*
Y-19480D01*
X-157817Y-18474D01*
X-158337Y-17573D01*
X-159073Y-16837D01*
X-159974Y-16317D01*
X-160980Y-16047D01*
X-162020D01*
X-163026Y-16317D01*
X-163927Y-16837D01*
X-164663Y-17573D01*
X-164896Y-17977D01*
X-177000D01*
X-177774Y-18131D01*
X-178431Y-18569D01*
X-184861Y-25000D01*
X-200878D01*
X-200950Y-24928D01*
X-201920Y-24280D01*
X-202997Y-23834D01*
X-204141Y-23606D01*
X-205308D01*
X-206452Y-23834D01*
X-207529Y-24280D01*
X-208499Y-24928D01*
X-208571Y-25000D01*
X-220563D01*
X-220635Y-24928D01*
X-221605Y-24280D01*
X-222682Y-23834D01*
X-223826Y-23606D01*
X-224993D01*
X-226137Y-23834D01*
X-227214Y-24280D01*
X-228184Y-24928D01*
X-228256Y-25000D01*
X-267000D01*
Y11896D01*
X-91000D01*
Y-25000D01*
D02*
G37*
G36*
X95003Y-26086D02*
X95060Y-43953D01*
X95067Y-46047D01*
X95067Y-46047D01*
X95067Y-46047D01*
X95194Y-86317D01*
X95198Y-87573D01*
X95198Y-87573D01*
X95198Y-87573D01*
X95211Y-91536D01*
X95216Y-93163D01*
X95216Y-93163D01*
X95216Y-93163D01*
X95264Y-108474D01*
X95264Y-108474D01*
X95264Y-108474D01*
X95271Y-110520D01*
X95271Y-110520D01*
X95271Y-110520D01*
X95281Y-113683D01*
X95281Y-113683D01*
X95281Y-113683D01*
X95289Y-116317D01*
X95289Y-116317D01*
X95289Y-116317D01*
X95299Y-119480D01*
X95299Y-119480D01*
X95299Y-119480D01*
X95306Y-121536D01*
X95306Y-121536D01*
X95306D01*
X95345Y-133953D01*
X95345Y-133953D01*
X95345Y-133953D01*
X95354Y-136837D01*
X95354Y-136837D01*
X95354Y-136837D01*
X95372Y-142427D01*
X95372Y-142427D01*
X95372Y-142427D01*
X95416Y-156539D01*
X95416Y-156539D01*
X95416Y-156539D01*
X95422Y-158474D01*
X95422Y-158474D01*
X95422Y-158474D01*
X95429Y-160520D01*
X95429Y-160520D01*
X95429Y-160520D01*
X95433Y-161662D01*
X95433Y-161662D01*
X95433Y-161662D01*
X95438Y-163274D01*
X95438Y-163274D01*
X95438Y-163274D01*
X95448Y-166706D01*
X95448Y-166706D01*
X95451Y-167573D01*
X95451D01*
X95469Y-173163D01*
X95469Y-173163D01*
X95469Y-173163D01*
X95495Y-181542D01*
X95142Y-181896D01*
X-113500D01*
Y-181500D01*
Y-85355D01*
Y-85000D01*
X-89029D01*
Y-85254D01*
D01*
Y-111000D01*
X-88913Y-111585D01*
X-88581Y-112081D01*
X-88085Y-112413D01*
X-87500Y-112529D01*
X-38500D01*
X-37915Y-112413D01*
X-37419Y-112081D01*
X-22419Y-97081D01*
X-22087Y-96585D01*
X-21971Y-96000D01*
X-22087Y-95415D01*
X-22419Y-94919D01*
X-22915Y-94587D01*
X-23500Y-94471D01*
X-41000D01*
X-41585Y-94587D01*
X-42081Y-94919D01*
X-47633Y-100471D01*
X-75971D01*
Y-81029D01*
X-46633D01*
X-41581Y-86081D01*
X-41085Y-86413D01*
X-40500Y-86529D01*
X-24000D01*
X-23415Y-86413D01*
X-22919Y-86081D01*
X-22587Y-85585D01*
X-22471Y-85000D01*
X-22587Y-84415D01*
X-22919Y-83919D01*
X-37919Y-68919D01*
X-38415Y-68587D01*
X-39000Y-68471D01*
X-42317D01*
X-42509Y-68009D01*
X-15000Y-40500D01*
Y-36120D01*
Y-36020D01*
X-12011D01*
X-11877Y-36520D01*
X-12427Y-36837D01*
X-13163Y-37573D01*
X-13683Y-38474D01*
X-13953Y-39480D01*
Y-40520D01*
X-13683Y-41526D01*
X-13163Y-42427D01*
X-12427Y-43163D01*
X-11526Y-43683D01*
X-10520Y-43953D01*
X-9480D01*
X-8474Y-43683D01*
X-7573Y-43163D01*
X-6837Y-42427D01*
X-6317Y-41526D01*
X-6047Y-40520D01*
Y-39480D01*
X-6317Y-38474D01*
X-6837Y-37573D01*
X-7573Y-36837D01*
X-8123Y-36520D01*
X-7989Y-36020D01*
X-2011D01*
X-1877Y-36520D01*
X-2427Y-36837D01*
X-3163Y-37573D01*
X-3683Y-38474D01*
X-3953Y-39480D01*
Y-40520D01*
X-3683Y-41526D01*
X-3163Y-42427D01*
X-2427Y-43163D01*
X-1526Y-43683D01*
X-520Y-43953D01*
X520D01*
X1526Y-43683D01*
X2427Y-43163D01*
X3163Y-42427D01*
X3683Y-41526D01*
X3953Y-40520D01*
Y-39480D01*
X3683Y-38474D01*
X3163Y-37573D01*
X2427Y-36837D01*
X1877Y-36520D01*
X2011Y-36020D01*
X5000D01*
X5390Y-35942D01*
X5721Y-35721D01*
X15422Y-26020D01*
X59018D01*
X59225Y-26520D01*
X58810Y-26936D01*
X58367Y-27702D01*
X58138Y-28557D01*
Y-29443D01*
X58367Y-30298D01*
X58810Y-31064D01*
X59436Y-31690D01*
X60202Y-32133D01*
X61057Y-32362D01*
X61943D01*
X62798Y-32133D01*
X63564Y-31690D01*
X64190Y-31064D01*
X64633Y-30298D01*
X64862Y-29443D01*
Y-28557D01*
X64633Y-27702D01*
X64190Y-26936D01*
X63775Y-26520D01*
X63982Y-26020D01*
X67018D01*
X67225Y-26520D01*
X66810Y-26936D01*
X66367Y-27702D01*
X66138Y-28557D01*
Y-29443D01*
X66367Y-30298D01*
X66810Y-31064D01*
X67436Y-31690D01*
X68202Y-32133D01*
X69057Y-32362D01*
X69943D01*
X70798Y-32133D01*
X71564Y-31690D01*
X72190Y-31064D01*
X72633Y-30298D01*
X72862Y-29443D01*
Y-28557D01*
X72633Y-27702D01*
X72190Y-26936D01*
X71775Y-26520D01*
X71982Y-26020D01*
X78540D01*
X78674Y-26520D01*
X78124Y-26837D01*
X77388Y-27573D01*
X76868Y-28474D01*
X76598Y-29480D01*
Y-30520D01*
X76868Y-31526D01*
X77388Y-32427D01*
X78124Y-33163D01*
X79026Y-33683D01*
X80031Y-33953D01*
X81072D01*
X82077Y-33683D01*
X82978Y-33163D01*
X83714Y-32427D01*
X84235Y-31526D01*
X84504Y-30520D01*
Y-29480D01*
X84235Y-28474D01*
X83714Y-27573D01*
X82978Y-26837D01*
X82428Y-26520D01*
X82562Y-26020D01*
X88540D01*
X88674Y-26520D01*
X88124Y-26837D01*
X87388Y-27573D01*
X86868Y-28474D01*
X86598Y-29480D01*
Y-30520D01*
X86868Y-31526D01*
X87388Y-32427D01*
X88124Y-33163D01*
X89025Y-33683D01*
X90031Y-33953D01*
X91072D01*
X92077Y-33683D01*
X92978Y-33163D01*
X93714Y-32427D01*
X94235Y-31526D01*
X94504Y-30520D01*
Y-29480D01*
X94235Y-28474D01*
X93714Y-27573D01*
X92978Y-26837D01*
X92428Y-26520D01*
X92562Y-26020D01*
X93971D01*
X94361Y-25942D01*
X94503Y-25847D01*
X95003Y-26086D01*
D02*
G37*
G36*
X-163713Y-25711D02*
X-163707Y-25721D01*
X-163376Y-25942D01*
X-163289Y-26469D01*
X-163927Y-26837D01*
X-164663Y-27573D01*
X-165183Y-28474D01*
X-165453Y-29480D01*
Y-30520D01*
X-165183Y-31526D01*
X-164663Y-32427D01*
X-163927Y-33163D01*
X-163026Y-33683D01*
X-162020Y-33953D01*
X-160980D01*
X-159974Y-33683D01*
X-159073Y-33163D01*
X-158337Y-32427D01*
X-157817Y-31526D01*
X-157547Y-30520D01*
Y-29480D01*
X-157817Y-28474D01*
X-158337Y-27573D01*
X-159073Y-26837D01*
X-159623Y-26520D01*
X-159489Y-26020D01*
X-153511D01*
X-153377Y-26520D01*
X-153927Y-26837D01*
X-154663Y-27573D01*
X-155183Y-28474D01*
X-155453Y-29480D01*
Y-30520D01*
X-155183Y-31526D01*
X-154663Y-32427D01*
X-153927Y-33163D01*
X-153026Y-33683D01*
X-152020Y-33953D01*
X-150980D01*
X-149974Y-33683D01*
X-149073Y-33163D01*
X-148337Y-32427D01*
X-147817Y-31526D01*
X-147547Y-30520D01*
Y-29480D01*
X-147817Y-28474D01*
X-148337Y-27573D01*
X-149073Y-26837D01*
X-149623Y-26520D01*
X-149489Y-26020D01*
X-110436D01*
X-110302Y-26520D01*
X-110852Y-26837D01*
X-111588Y-27573D01*
X-112109Y-28474D01*
X-112378Y-29480D01*
Y-30520D01*
X-112109Y-31526D01*
X-111588Y-32427D01*
X-110852Y-33163D01*
X-109951Y-33683D01*
X-108946Y-33953D01*
X-107905D01*
X-106899Y-33683D01*
X-105998Y-33163D01*
X-105262Y-32427D01*
X-104742Y-31526D01*
X-104472Y-30520D01*
Y-29480D01*
X-104742Y-28474D01*
X-105262Y-27573D01*
X-105998Y-26837D01*
X-106548Y-26520D01*
X-106414Y-26020D01*
X-100436D01*
X-100303Y-26520D01*
X-100852Y-26837D01*
X-101588Y-27573D01*
X-102109Y-28474D01*
X-102378Y-29480D01*
Y-30520D01*
X-102109Y-31526D01*
X-101588Y-32427D01*
X-100852Y-33163D01*
X-99951Y-33683D01*
X-98946Y-33953D01*
X-97905D01*
X-96899Y-33683D01*
X-95998Y-33163D01*
X-95262Y-32427D01*
X-94742Y-31526D01*
X-94472Y-30520D01*
Y-29480D01*
X-94742Y-28474D01*
X-95262Y-27573D01*
X-95998Y-26837D01*
X-96548Y-26520D01*
X-96414Y-26020D01*
X-91000D01*
X-90500Y-26424D01*
Y-44000D01*
X-96448D01*
X-96582Y-43500D01*
X-95998Y-43163D01*
X-95262Y-42427D01*
X-94742Y-41526D01*
X-94472Y-40520D01*
Y-39480D01*
X-94742Y-38474D01*
X-95262Y-37573D01*
X-95998Y-36837D01*
X-96899Y-36317D01*
X-97905Y-36047D01*
X-98946D01*
X-99951Y-36317D01*
X-100852Y-36837D01*
X-101588Y-37573D01*
X-102109Y-38474D01*
X-102378Y-39480D01*
Y-40520D01*
X-102109Y-41526D01*
X-101588Y-42427D01*
X-100852Y-43163D01*
X-100268Y-43500D01*
X-100402Y-44000D01*
X-106448D01*
X-106582Y-43500D01*
X-105998Y-43163D01*
X-105262Y-42427D01*
X-104742Y-41526D01*
X-104472Y-40520D01*
Y-39480D01*
X-104742Y-38474D01*
X-105262Y-37573D01*
X-105998Y-36837D01*
X-106899Y-36317D01*
X-107905Y-36047D01*
X-108946D01*
X-109951Y-36317D01*
X-110852Y-36837D01*
X-111588Y-37573D01*
X-112109Y-38474D01*
X-112378Y-39480D01*
Y-40520D01*
X-112109Y-41526D01*
X-111588Y-42427D01*
X-110852Y-43163D01*
X-110268Y-43500D01*
X-110403Y-44000D01*
X-111000D01*
X-114990Y-47990D01*
X-115202Y-47867D01*
X-116057Y-47638D01*
X-116943D01*
X-117798Y-47867D01*
X-118564Y-48310D01*
X-119190Y-48936D01*
X-119633Y-49702D01*
X-119862Y-50557D01*
Y-51443D01*
X-119633Y-52298D01*
X-119510Y-52510D01*
X-131500Y-64500D01*
X-169272D01*
X-169522Y-64067D01*
X-169367Y-63798D01*
X-169138Y-62943D01*
Y-62057D01*
X-169367Y-61202D01*
X-169810Y-60436D01*
X-170436Y-59810D01*
X-171202Y-59367D01*
X-172057Y-59138D01*
X-172943D01*
X-173798Y-59367D01*
X-174564Y-59810D01*
X-175190Y-60436D01*
X-175461Y-60905D01*
X-176039D01*
X-176310Y-60436D01*
X-176936Y-59810D01*
X-177702Y-59367D01*
X-178557Y-59138D01*
X-179443D01*
X-180298Y-59367D01*
X-181064Y-59810D01*
X-181690Y-60436D01*
X-182133Y-61202D01*
X-182362Y-62057D01*
Y-62943D01*
X-182133Y-63798D01*
X-181978Y-64067D01*
X-182228Y-64500D01*
X-185276D01*
Y-60401D01*
X-184810Y-59935D01*
X-184367Y-59168D01*
X-184138Y-58313D01*
Y-57427D01*
X-184367Y-56572D01*
X-184810Y-55806D01*
X-185436Y-55180D01*
X-186202Y-54737D01*
X-187057Y-54508D01*
X-187943D01*
X-188798Y-54737D01*
X-189564Y-55180D01*
X-190190Y-55806D01*
X-190633Y-56572D01*
X-190862Y-57427D01*
Y-58313D01*
X-190633Y-59168D01*
X-190190Y-59935D01*
X-189724Y-60401D01*
Y-64500D01*
X-267500D01*
Y-44500D01*
X-228778D01*
X-228571Y-45000D01*
X-229009Y-45438D01*
X-229657Y-46408D01*
X-230103Y-47485D01*
X-230331Y-48629D01*
Y-49796D01*
X-230103Y-50940D01*
X-229657Y-52017D01*
X-229009Y-52987D01*
X-228184Y-53812D01*
X-227214Y-54460D01*
X-226137Y-54906D01*
X-224993Y-55134D01*
X-223826D01*
X-222682Y-54906D01*
X-221605Y-54460D01*
X-220635Y-53812D01*
X-219810Y-52987D01*
X-219162Y-52017D01*
X-218716Y-50940D01*
X-218488Y-49796D01*
Y-48629D01*
X-218716Y-47485D01*
X-219162Y-46408D01*
X-219810Y-45438D01*
X-220248Y-45000D01*
X-220041Y-44500D01*
X-217547D01*
X-217372Y-44617D01*
X-216294Y-45064D01*
X-215150Y-45291D01*
X-213984D01*
X-212840Y-45064D01*
X-211762Y-44617D01*
X-211586Y-44500D01*
X-209093D01*
X-208886Y-45000D01*
X-209324Y-45438D01*
X-209972Y-46408D01*
X-210418Y-47485D01*
X-210646Y-48629D01*
Y-49796D01*
X-210418Y-50940D01*
X-209972Y-52017D01*
X-209324Y-52987D01*
X-208499Y-53812D01*
X-207529Y-54460D01*
X-206452Y-54906D01*
X-205308Y-55134D01*
X-204141D01*
X-202997Y-54906D01*
X-201920Y-54460D01*
X-200950Y-53812D01*
X-200125Y-52987D01*
X-199477Y-52017D01*
X-199031Y-50940D01*
X-198803Y-49796D01*
Y-48629D01*
X-199031Y-47485D01*
X-199477Y-46408D01*
X-200125Y-45438D01*
X-200563Y-45000D01*
X-200356Y-44500D01*
X-197000D01*
X-182862Y-30362D01*
X-182362Y-30569D01*
Y-30943D01*
X-182133Y-31798D01*
X-181690Y-32564D01*
X-181064Y-33190D01*
X-180298Y-33633D01*
X-179443Y-33862D01*
X-178557D01*
X-177702Y-33633D01*
X-176936Y-33190D01*
X-176310Y-32564D01*
X-175867Y-31798D01*
X-175862Y-31780D01*
X-175362Y-31846D01*
Y-31943D01*
X-175133Y-32798D01*
X-174690Y-33564D01*
X-174064Y-34190D01*
X-173298Y-34633D01*
X-172443Y-34862D01*
X-171557D01*
X-170702Y-34633D01*
X-169936Y-34190D01*
X-169310Y-33564D01*
X-168867Y-32798D01*
X-168638Y-31943D01*
Y-31057D01*
X-168867Y-30202D01*
X-169310Y-29436D01*
X-169936Y-28810D01*
X-170702Y-28367D01*
X-171557Y-28138D01*
X-172443D01*
X-173298Y-28367D01*
X-174064Y-28810D01*
X-174690Y-29436D01*
X-175133Y-30202D01*
X-175138Y-30220D01*
X-175638Y-30154D01*
Y-30057D01*
X-175867Y-29202D01*
X-176310Y-28436D01*
X-176936Y-27810D01*
X-177702Y-27367D01*
X-178557Y-27138D01*
X-178931D01*
X-179138Y-26638D01*
X-178273Y-25773D01*
X-165250D01*
X-164476Y-25619D01*
X-164375Y-25552D01*
X-164364Y-25548D01*
X-163713Y-25711D01*
D02*
G37*
%LPC*%
G36*
X60903Y5402D02*
X60018D01*
X59163Y5172D01*
X58396Y4730D01*
X57770Y4104D01*
X57328Y3337D01*
X57098Y2482D01*
Y1597D01*
X57328Y742D01*
X57770Y-25D01*
X58396Y-651D01*
X59163Y-1094D01*
X60018Y-1323D01*
X60903D01*
X61758Y-1094D01*
X62525Y-651D01*
X63151Y-25D01*
X63594Y742D01*
X63823Y1597D01*
Y2482D01*
X63594Y3337D01*
X63151Y4104D01*
X62525Y4730D01*
X61758Y5172D01*
X60903Y5402D01*
D02*
G37*
G36*
X69443Y5362D02*
X68557D01*
X67702Y5133D01*
X66936Y4690D01*
X66310Y4064D01*
X65867Y3298D01*
X65638Y2443D01*
Y1557D01*
X65867Y702D01*
X66310Y-64D01*
X66936Y-690D01*
X67702Y-1133D01*
X68557Y-1362D01*
X69443D01*
X70298Y-1133D01*
X71064Y-690D01*
X71690Y-64D01*
X72133Y702D01*
X72362Y1557D01*
Y2443D01*
X72133Y3298D01*
X71690Y4064D01*
X71064Y4690D01*
X70298Y5133D01*
X69443Y5362D01*
D02*
G37*
G36*
X81072Y3953D02*
X80031D01*
X79026Y3683D01*
X78124Y3163D01*
X77388Y2427D01*
X76868Y1526D01*
X76598Y520D01*
Y-520D01*
X76868Y-1526D01*
X77388Y-2427D01*
X78124Y-3163D01*
X79026Y-3683D01*
X80031Y-3953D01*
X81072D01*
X82077Y-3683D01*
X82978Y-3163D01*
X83714Y-2427D01*
X84235Y-1526D01*
X84504Y-520D01*
Y520D01*
X84235Y1526D01*
X83714Y2427D01*
X82978Y3163D01*
X82077Y3683D01*
X81072Y3953D01*
D02*
G37*
G36*
X3953D02*
X-3953D01*
Y-3953D01*
X3953D01*
Y3953D01*
D02*
G37*
G36*
X-9480D02*
X-10520D01*
X-11526Y3683D01*
X-12427Y3163D01*
X-13163Y2427D01*
X-13683Y1526D01*
X-13953Y520D01*
Y-520D01*
X-13683Y-1526D01*
X-13163Y-2427D01*
X-12427Y-3163D01*
X-11526Y-3683D01*
X-10520Y-3953D01*
X-9480D01*
X-8474Y-3683D01*
X-7573Y-3163D01*
X-6837Y-2427D01*
X-6317Y-1526D01*
X-6047Y-520D01*
Y520D01*
X-6317Y1526D01*
X-6837Y2427D01*
X-7573Y3163D01*
X-8474Y3683D01*
X-9480Y3953D01*
D02*
G37*
G36*
X-21557Y-3138D02*
X-22443D01*
X-23298Y-3367D01*
X-24064Y-3810D01*
X-24690Y-4436D01*
X-25133Y-5202D01*
X-25362Y-6057D01*
Y-6943D01*
X-25133Y-7798D01*
X-24690Y-8564D01*
X-24064Y-9190D01*
X-23298Y-9633D01*
X-22443Y-9862D01*
X-21557D01*
X-20702Y-9633D01*
X-19936Y-9190D01*
X-19310Y-8564D01*
X-18867Y-7798D01*
X-18638Y-6943D01*
Y-6057D01*
X-18867Y-5202D01*
X-19310Y-4436D01*
X-19936Y-3810D01*
X-20702Y-3367D01*
X-21557Y-3138D01*
D02*
G37*
G36*
X-30097Y-3598D02*
X-30982D01*
X-31837Y-3828D01*
X-32604Y-4270D01*
X-33230Y-4896D01*
X-33672Y-5663D01*
X-33902Y-6518D01*
Y-7403D01*
X-33672Y-8258D01*
X-33230Y-9025D01*
X-32604Y-9651D01*
X-31837Y-10094D01*
X-30982Y-10323D01*
X-30097D01*
X-29242Y-10094D01*
X-28475Y-9651D01*
X-27849Y-9025D01*
X-27406Y-8258D01*
X-27177Y-7403D01*
Y-6518D01*
X-27406Y-5663D01*
X-27849Y-4896D01*
X-28475Y-4270D01*
X-29242Y-3828D01*
X-30097Y-3598D01*
D02*
G37*
G36*
X81072Y-6047D02*
X80031D01*
X79026Y-6317D01*
X78124Y-6837D01*
X77388Y-7573D01*
X76868Y-8474D01*
X76598Y-9480D01*
Y-10520D01*
X76868Y-11526D01*
X77388Y-12427D01*
X78124Y-13163D01*
X79026Y-13683D01*
X80031Y-13953D01*
X81072D01*
X82077Y-13683D01*
X82978Y-13163D01*
X83714Y-12427D01*
X84235Y-11526D01*
X84504Y-10520D01*
Y-9480D01*
X84235Y-8474D01*
X83714Y-7573D01*
X82978Y-6837D01*
X82077Y-6317D01*
X81072Y-6047D01*
D02*
G37*
G36*
X520D02*
X-520D01*
X-1526Y-6317D01*
X-2427Y-6837D01*
X-3163Y-7573D01*
X-3683Y-8474D01*
X-3953Y-9480D01*
Y-10520D01*
X-3683Y-11526D01*
X-3163Y-12427D01*
X-2427Y-13163D01*
X-1526Y-13683D01*
X-520Y-13953D01*
X520D01*
X1526Y-13683D01*
X2427Y-13163D01*
X3163Y-12427D01*
X3683Y-11526D01*
X3953Y-10520D01*
Y-9480D01*
X3683Y-8474D01*
X3163Y-7573D01*
X2427Y-6837D01*
X1526Y-6317D01*
X520Y-6047D01*
D02*
G37*
G36*
X-9480D02*
X-10520D01*
X-11526Y-6317D01*
X-12427Y-6837D01*
X-13163Y-7573D01*
X-13683Y-8474D01*
X-13953Y-9480D01*
Y-10520D01*
X-13683Y-11526D01*
X-13163Y-12427D01*
X-12427Y-13163D01*
X-11526Y-13683D01*
X-10520Y-13953D01*
X-9480D01*
X-8474Y-13683D01*
X-7573Y-13163D01*
X-6837Y-12427D01*
X-6317Y-11526D01*
X-6047Y-10520D01*
Y-9480D01*
X-6317Y-8474D01*
X-6837Y-7573D01*
X-7573Y-6837D01*
X-8474Y-6317D01*
X-9480Y-6047D01*
D02*
G37*
G36*
X81072Y-16047D02*
X80031D01*
X79026Y-16317D01*
X78124Y-16837D01*
X77388Y-17573D01*
X76868Y-18474D01*
X76598Y-19480D01*
Y-20520D01*
X76868Y-21526D01*
X77388Y-22427D01*
X78124Y-23163D01*
X79026Y-23683D01*
X80031Y-23953D01*
X81072D01*
X82077Y-23683D01*
X82978Y-23163D01*
X83714Y-22427D01*
X84235Y-21526D01*
X84504Y-20520D01*
Y-19480D01*
X84235Y-18474D01*
X83714Y-17573D01*
X82978Y-16837D01*
X82077Y-16317D01*
X81072Y-16047D01*
D02*
G37*
G36*
X520D02*
X-520D01*
X-1526Y-16317D01*
X-2427Y-16837D01*
X-3163Y-17573D01*
X-3683Y-18474D01*
X-3953Y-19480D01*
Y-20520D01*
X-3683Y-21526D01*
X-3163Y-22427D01*
X-2427Y-23163D01*
X-1526Y-23683D01*
X-520Y-23953D01*
X520D01*
X1526Y-23683D01*
X2427Y-23163D01*
X3163Y-22427D01*
X3683Y-21526D01*
X3953Y-20520D01*
Y-19480D01*
X3683Y-18474D01*
X3163Y-17573D01*
X2427Y-16837D01*
X1526Y-16317D01*
X520Y-16047D01*
D02*
G37*
G36*
X-9480D02*
X-10520D01*
X-11526Y-16317D01*
X-12427Y-16837D01*
X-13163Y-17573D01*
X-13683Y-18474D01*
X-13953Y-19480D01*
Y-20520D01*
X-13683Y-21526D01*
X-13163Y-22427D01*
X-12427Y-23163D01*
X-11526Y-23683D01*
X-10520Y-23953D01*
X-9480D01*
X-8474Y-23683D01*
X-7573Y-23163D01*
X-6837Y-22427D01*
X-6317Y-21526D01*
X-6047Y-20520D01*
Y-19480D01*
X-6317Y-18474D01*
X-6837Y-17573D01*
X-7573Y-16837D01*
X-8474Y-16317D01*
X-9480Y-16047D01*
D02*
G37*
G36*
X520Y-26047D02*
X-520D01*
X-1526Y-26317D01*
X-2427Y-26837D01*
X-3163Y-27573D01*
X-3683Y-28474D01*
X-3953Y-29480D01*
Y-30520D01*
X-3683Y-31526D01*
X-3163Y-32427D01*
X-2427Y-33163D01*
X-1526Y-33683D01*
X-520Y-33953D01*
X520D01*
X1526Y-33683D01*
X2427Y-33163D01*
X3163Y-32427D01*
X3683Y-31526D01*
X3953Y-30520D01*
Y-29480D01*
X3683Y-28474D01*
X3163Y-27573D01*
X2427Y-26837D01*
X1526Y-26317D01*
X520Y-26047D01*
D02*
G37*
G36*
X-9480D02*
X-10520D01*
X-11526Y-26317D01*
X-12427Y-26837D01*
X-13163Y-27573D01*
X-13683Y-28474D01*
X-13953Y-29480D01*
Y-30520D01*
X-13683Y-31526D01*
X-13163Y-32427D01*
X-12427Y-33163D01*
X-11526Y-33683D01*
X-10520Y-33953D01*
X-9480D01*
X-8474Y-33683D01*
X-7573Y-33163D01*
X-6837Y-32427D01*
X-6317Y-31526D01*
X-6047Y-30520D01*
Y-29480D01*
X-6317Y-28474D01*
X-6837Y-27573D01*
X-7573Y-26837D01*
X-8474Y-26317D01*
X-9480Y-26047D01*
D02*
G37*
G36*
X-97905Y-56047D02*
X-98946D01*
X-99951Y-56317D01*
X-100852Y-56837D01*
X-101588Y-57573D01*
X-102109Y-58474D01*
X-102378Y-59480D01*
Y-60520D01*
X-102109Y-61526D01*
X-101588Y-62427D01*
X-100852Y-63163D01*
X-99951Y-63683D01*
X-98946Y-63953D01*
X-97905D01*
X-96899Y-63683D01*
X-95998Y-63163D01*
X-95262Y-62427D01*
X-94742Y-61526D01*
X-94472Y-60520D01*
Y-59480D01*
X-94742Y-58474D01*
X-95262Y-57573D01*
X-95998Y-56837D01*
X-96899Y-56317D01*
X-97905Y-56047D01*
D02*
G37*
G36*
X-107905D02*
X-108946D01*
X-109951Y-56317D01*
X-110852Y-56837D01*
X-111588Y-57573D01*
X-112109Y-58474D01*
X-112378Y-59480D01*
Y-60520D01*
X-112109Y-61526D01*
X-111588Y-62427D01*
X-110852Y-63163D01*
X-110500Y-63366D01*
X-109951Y-63683D01*
X-108946Y-63953D01*
X-107905D01*
X-106899Y-63683D01*
X-105998Y-63163D01*
X-105262Y-62427D01*
X-104742Y-61526D01*
X-104472Y-60520D01*
Y-59480D01*
X-104742Y-58474D01*
X-105262Y-57573D01*
X-105998Y-56837D01*
X-106899Y-56317D01*
X-107905Y-56047D01*
D02*
G37*
G36*
X-150980Y-86047D02*
X-152020D01*
X-153026Y-86317D01*
X-153927Y-86837D01*
X-154663Y-87573D01*
X-155183Y-88474D01*
X-155453Y-89480D01*
Y-90520D01*
X-155183Y-91526D01*
X-154663Y-92427D01*
X-153927Y-93163D01*
X-153026Y-93683D01*
X-152020Y-93953D01*
X-150980D01*
X-149974Y-93683D01*
X-149073Y-93163D01*
X-148337Y-92427D01*
X-147817Y-91526D01*
X-147547Y-90520D01*
Y-89480D01*
X-147817Y-88474D01*
X-148337Y-87573D01*
X-149073Y-86837D01*
X-149974Y-86317D01*
X-150980Y-86047D01*
D02*
G37*
G36*
X-160980D02*
X-162020D01*
X-163026Y-86317D01*
X-163927Y-86837D01*
X-164663Y-87573D01*
X-165183Y-88474D01*
X-165453Y-89480D01*
Y-90520D01*
X-165183Y-91526D01*
X-164663Y-92427D01*
X-163927Y-93163D01*
X-163026Y-93683D01*
X-162020Y-93953D01*
X-160980D01*
X-159974Y-93683D01*
X-159073Y-93163D01*
X-158337Y-92427D01*
X-157817Y-91526D01*
X-157547Y-90520D01*
Y-89480D01*
X-157817Y-88474D01*
X-158337Y-87573D01*
X-159073Y-86837D01*
X-159974Y-86317D01*
X-160980Y-86047D01*
D02*
G37*
G36*
X-150980Y-96047D02*
X-152020D01*
X-153026Y-96317D01*
X-153927Y-96837D01*
X-154663Y-97573D01*
X-155183Y-98474D01*
X-155453Y-99480D01*
Y-100520D01*
X-155183Y-101526D01*
X-154663Y-102427D01*
X-153927Y-103163D01*
X-153026Y-103683D01*
X-152020Y-103953D01*
X-150980D01*
X-149974Y-103683D01*
X-149073Y-103163D01*
X-148337Y-102427D01*
X-147817Y-101526D01*
X-147547Y-100520D01*
Y-99480D01*
X-147817Y-98474D01*
X-148337Y-97573D01*
X-149073Y-96837D01*
X-149974Y-96317D01*
X-150980Y-96047D01*
D02*
G37*
G36*
X-160980D02*
X-162020D01*
X-163026Y-96317D01*
X-163927Y-96837D01*
X-164663Y-97573D01*
X-165183Y-98474D01*
X-165453Y-99480D01*
Y-100520D01*
X-165183Y-101526D01*
X-164663Y-102427D01*
X-163927Y-103163D01*
X-163026Y-103683D01*
X-162020Y-103953D01*
X-160980D01*
X-159974Y-103683D01*
X-159073Y-103163D01*
X-158337Y-102427D01*
X-157817Y-101526D01*
X-157547Y-100520D01*
Y-99480D01*
X-157817Y-98474D01*
X-158337Y-97573D01*
X-159073Y-96837D01*
X-159974Y-96317D01*
X-160980Y-96047D01*
D02*
G37*
G36*
X-171557Y-109638D02*
X-172443D01*
X-173298Y-109867D01*
X-174064Y-110310D01*
X-174690Y-110936D01*
X-175133Y-111702D01*
X-175241Y-112106D01*
X-175759D01*
X-175867Y-111702D01*
X-176310Y-110936D01*
X-176936Y-110310D01*
X-177702Y-109867D01*
X-178557Y-109638D01*
X-179443D01*
X-180298Y-109867D01*
X-181064Y-110310D01*
X-181690Y-110936D01*
X-182133Y-111702D01*
X-182362Y-112557D01*
Y-113443D01*
X-182133Y-114298D01*
X-181690Y-115064D01*
X-181064Y-115690D01*
X-180298Y-116133D01*
X-179443Y-116362D01*
X-178557D01*
X-177702Y-116133D01*
X-176936Y-115690D01*
X-176310Y-115064D01*
X-175867Y-114298D01*
X-175759Y-113894D01*
X-175241D01*
X-175133Y-114298D01*
X-174690Y-115064D01*
X-174064Y-115690D01*
X-173298Y-116133D01*
X-172443Y-116362D01*
X-171557D01*
X-170702Y-116133D01*
X-169936Y-115690D01*
X-169310Y-115064D01*
X-168867Y-114298D01*
X-168638Y-113443D01*
Y-112557D01*
X-168867Y-111702D01*
X-169310Y-110936D01*
X-169936Y-110310D01*
X-170702Y-109867D01*
X-171557Y-109638D01*
D02*
G37*
G36*
X-150980Y-106047D02*
X-152020D01*
X-153026Y-106317D01*
X-153927Y-106837D01*
X-154663Y-107573D01*
X-155183Y-108474D01*
X-155453Y-109480D01*
Y-110520D01*
X-155183Y-111526D01*
X-154663Y-112427D01*
X-153927Y-113163D01*
X-153026Y-113683D01*
X-152020Y-113953D01*
X-150980D01*
X-149974Y-113683D01*
X-149073Y-113163D01*
X-148337Y-112427D01*
X-147817Y-111526D01*
X-147547Y-110520D01*
Y-109480D01*
X-147817Y-108474D01*
X-148337Y-107573D01*
X-149073Y-106837D01*
X-149974Y-106317D01*
X-150980Y-106047D01*
D02*
G37*
G36*
X-160980D02*
X-162020D01*
X-163026Y-106317D01*
X-163927Y-106837D01*
X-164663Y-107573D01*
X-165183Y-108474D01*
X-165453Y-109480D01*
Y-110520D01*
X-165183Y-111526D01*
X-164663Y-112427D01*
X-163927Y-113163D01*
X-163026Y-113683D01*
X-162020Y-113953D01*
X-160980D01*
X-159974Y-113683D01*
X-159073Y-113163D01*
X-158337Y-112427D01*
X-157817Y-111526D01*
X-157547Y-110520D01*
Y-109480D01*
X-157817Y-108474D01*
X-158337Y-107573D01*
X-159073Y-106837D01*
X-159974Y-106317D01*
X-160980Y-106047D01*
D02*
G37*
G36*
X-150980Y-116047D02*
X-152020D01*
X-153026Y-116317D01*
X-153927Y-116837D01*
X-154663Y-117573D01*
X-155183Y-118474D01*
X-155453Y-119480D01*
Y-120520D01*
X-155183Y-121526D01*
X-154663Y-122427D01*
X-153927Y-123163D01*
X-153026Y-123683D01*
X-152020Y-123953D01*
X-150980D01*
X-149974Y-123683D01*
X-149073Y-123163D01*
X-148337Y-122427D01*
X-147817Y-121526D01*
X-147547Y-120520D01*
Y-119480D01*
X-147817Y-118474D01*
X-148337Y-117573D01*
X-149073Y-116837D01*
X-149974Y-116317D01*
X-150980Y-116047D01*
D02*
G37*
G36*
X-160980D02*
X-162020D01*
X-163026Y-116317D01*
X-163927Y-116837D01*
X-164663Y-117573D01*
X-165183Y-118474D01*
X-165453Y-119480D01*
Y-120520D01*
X-165183Y-121526D01*
X-164663Y-122427D01*
X-163927Y-123163D01*
X-163026Y-123683D01*
X-162020Y-123953D01*
X-160980D01*
X-159974Y-123683D01*
X-159073Y-123163D01*
X-158337Y-122427D01*
X-157817Y-121526D01*
X-157547Y-120520D01*
Y-119480D01*
X-157817Y-118474D01*
X-158337Y-117573D01*
X-159073Y-116837D01*
X-159974Y-116317D01*
X-160980Y-116047D01*
D02*
G37*
G36*
X-251251D02*
X-252292D01*
X-253297Y-116317D01*
X-254199Y-116837D01*
X-254935Y-117573D01*
X-255455Y-118474D01*
X-255724Y-119480D01*
Y-120520D01*
X-255455Y-121526D01*
X-254935Y-122427D01*
X-254199Y-123163D01*
X-253297Y-123683D01*
X-252292Y-123953D01*
X-251251D01*
X-250246Y-123683D01*
X-249345Y-123163D01*
X-248609Y-122427D01*
X-248088Y-121526D01*
X-247819Y-120520D01*
Y-119480D01*
X-248088Y-118474D01*
X-248609Y-117573D01*
X-249345Y-116837D01*
X-250246Y-116317D01*
X-251251Y-116047D01*
D02*
G37*
G36*
X-261251D02*
X-262292D01*
X-263297Y-116317D01*
X-264199Y-116837D01*
X-264935Y-117573D01*
X-265455Y-118474D01*
X-265724Y-119480D01*
Y-120520D01*
X-265455Y-121526D01*
X-264935Y-122427D01*
X-264199Y-123163D01*
X-263297Y-123683D01*
X-262292Y-123953D01*
X-261251D01*
X-260246Y-123683D01*
X-259345Y-123163D01*
X-258609Y-122427D01*
X-258088Y-121526D01*
X-257819Y-120520D01*
Y-119480D01*
X-258088Y-118474D01*
X-258609Y-117573D01*
X-259345Y-116837D01*
X-260246Y-116317D01*
X-261251Y-116047D01*
D02*
G37*
G36*
X-150980Y-126047D02*
X-152020D01*
X-153026Y-126317D01*
X-153927Y-126837D01*
X-154663Y-127573D01*
X-155183Y-128474D01*
X-155453Y-129480D01*
Y-130520D01*
X-155183Y-131526D01*
X-154663Y-132427D01*
X-153927Y-133163D01*
X-153026Y-133683D01*
X-152020Y-133953D01*
X-150980D01*
X-149974Y-133683D01*
X-149073Y-133163D01*
X-148337Y-132427D01*
X-147817Y-131526D01*
X-147547Y-130520D01*
Y-129480D01*
X-147817Y-128474D01*
X-148337Y-127573D01*
X-149073Y-126837D01*
X-149974Y-126317D01*
X-150980Y-126047D01*
D02*
G37*
G36*
X-160980D02*
X-162020D01*
X-163026Y-126317D01*
X-163927Y-126837D01*
X-164663Y-127573D01*
X-165183Y-128474D01*
X-165453Y-129480D01*
Y-130520D01*
X-165183Y-131526D01*
X-164663Y-132427D01*
X-163927Y-133163D01*
X-163026Y-133683D01*
X-162020Y-133953D01*
X-160980D01*
X-159974Y-133683D01*
X-159073Y-133163D01*
X-158337Y-132427D01*
X-157817Y-131526D01*
X-157547Y-130520D01*
Y-129480D01*
X-157817Y-128474D01*
X-158337Y-127573D01*
X-159073Y-126837D01*
X-159974Y-126317D01*
X-160980Y-126047D01*
D02*
G37*
G36*
X-251251D02*
X-252292D01*
X-253297Y-126317D01*
X-254199Y-126837D01*
X-254935Y-127573D01*
X-255455Y-128474D01*
X-255724Y-129480D01*
Y-130520D01*
X-255455Y-131526D01*
X-254935Y-132427D01*
X-254199Y-133163D01*
X-253297Y-133683D01*
X-252292Y-133953D01*
X-251251D01*
X-250246Y-133683D01*
X-249345Y-133163D01*
X-248609Y-132427D01*
X-248088Y-131526D01*
X-247819Y-130520D01*
Y-129480D01*
X-248088Y-128474D01*
X-248609Y-127573D01*
X-249345Y-126837D01*
X-250246Y-126317D01*
X-251251Y-126047D01*
D02*
G37*
G36*
X-261251D02*
X-262292D01*
X-263297Y-126317D01*
X-264199Y-126837D01*
X-264935Y-127573D01*
X-265455Y-128474D01*
X-265724Y-129480D01*
Y-130520D01*
X-265455Y-131526D01*
X-264935Y-132427D01*
X-264199Y-133163D01*
X-263297Y-133683D01*
X-262292Y-133953D01*
X-261251D01*
X-260246Y-133683D01*
X-259345Y-133163D01*
X-258609Y-132427D01*
X-258088Y-131526D01*
X-257819Y-130520D01*
Y-129480D01*
X-258088Y-128474D01*
X-258609Y-127573D01*
X-259345Y-126837D01*
X-260246Y-126317D01*
X-261251Y-126047D01*
D02*
G37*
G36*
X-150980Y-136047D02*
X-152020D01*
X-153026Y-136317D01*
X-153927Y-136837D01*
X-154663Y-137573D01*
X-155183Y-138474D01*
X-155453Y-139480D01*
Y-140520D01*
X-155183Y-141526D01*
X-154663Y-142427D01*
X-153927Y-143163D01*
X-153026Y-143683D01*
X-152020Y-143953D01*
X-150980D01*
X-149974Y-143683D01*
X-149073Y-143163D01*
X-148337Y-142427D01*
X-147817Y-141526D01*
X-147547Y-140520D01*
Y-139480D01*
X-147817Y-138474D01*
X-148337Y-137573D01*
X-149073Y-136837D01*
X-149974Y-136317D01*
X-150980Y-136047D01*
D02*
G37*
G36*
X-160980D02*
X-162020D01*
X-163026Y-136317D01*
X-163927Y-136837D01*
X-164663Y-137573D01*
X-165183Y-138474D01*
X-165453Y-139480D01*
Y-140520D01*
X-165183Y-141526D01*
X-164663Y-142427D01*
X-163927Y-143163D01*
X-163026Y-143683D01*
X-162020Y-143953D01*
X-160980D01*
X-159974Y-143683D01*
X-159073Y-143163D01*
X-158337Y-142427D01*
X-157817Y-141526D01*
X-157547Y-140520D01*
Y-139480D01*
X-157817Y-138474D01*
X-158337Y-137573D01*
X-159073Y-136837D01*
X-159974Y-136317D01*
X-160980Y-136047D01*
D02*
G37*
G36*
X-251251D02*
X-252292D01*
X-253297Y-136317D01*
X-254199Y-136837D01*
X-254935Y-137573D01*
X-255455Y-138474D01*
X-255724Y-139480D01*
Y-140520D01*
X-255455Y-141526D01*
X-254935Y-142427D01*
X-254199Y-143163D01*
X-253297Y-143683D01*
X-252292Y-143953D01*
X-251251D01*
X-250246Y-143683D01*
X-249345Y-143163D01*
X-248609Y-142427D01*
X-248088Y-141526D01*
X-247819Y-140520D01*
Y-139480D01*
X-248088Y-138474D01*
X-248609Y-137573D01*
X-249345Y-136837D01*
X-250246Y-136317D01*
X-251251Y-136047D01*
D02*
G37*
G36*
X-261251D02*
X-262292D01*
X-263297Y-136317D01*
X-264199Y-136837D01*
X-264935Y-137573D01*
X-265455Y-138474D01*
X-265724Y-139480D01*
Y-140520D01*
X-265455Y-141526D01*
X-264935Y-142427D01*
X-264199Y-143163D01*
X-263297Y-143683D01*
X-262292Y-143953D01*
X-261251D01*
X-260246Y-143683D01*
X-259345Y-143163D01*
X-258609Y-142427D01*
X-258088Y-141526D01*
X-257819Y-140520D01*
Y-139480D01*
X-258088Y-138474D01*
X-258609Y-137573D01*
X-259345Y-136837D01*
X-260246Y-136317D01*
X-261251Y-136047D01*
D02*
G37*
G36*
X-150980Y-146047D02*
X-152020D01*
X-153026Y-146317D01*
X-153927Y-146837D01*
X-154663Y-147573D01*
X-155183Y-148474D01*
X-155453Y-149480D01*
Y-150520D01*
X-155183Y-151526D01*
X-154663Y-152427D01*
X-153927Y-153163D01*
X-153026Y-153683D01*
X-152020Y-153953D01*
X-150980D01*
X-149974Y-153683D01*
X-149073Y-153163D01*
X-148337Y-152427D01*
X-147817Y-151526D01*
X-147547Y-150520D01*
Y-149480D01*
X-147817Y-148474D01*
X-148337Y-147573D01*
X-149073Y-146837D01*
X-149974Y-146317D01*
X-150980Y-146047D01*
D02*
G37*
G36*
X-160980D02*
X-162020D01*
X-163026Y-146317D01*
X-163927Y-146837D01*
X-164663Y-147573D01*
X-165183Y-148474D01*
X-165453Y-149480D01*
Y-150520D01*
X-165183Y-151526D01*
X-164663Y-152427D01*
X-163927Y-153163D01*
X-163026Y-153683D01*
X-162020Y-153953D01*
X-160980D01*
X-159974Y-153683D01*
X-159073Y-153163D01*
X-158337Y-152427D01*
X-157817Y-151526D01*
X-157547Y-150520D01*
Y-149480D01*
X-157817Y-148474D01*
X-158337Y-147573D01*
X-159073Y-146837D01*
X-159974Y-146317D01*
X-160980Y-146047D01*
D02*
G37*
G36*
X-251251D02*
X-252292D01*
X-253297Y-146317D01*
X-254199Y-146837D01*
X-254935Y-147573D01*
X-255455Y-148474D01*
X-255724Y-149480D01*
Y-150520D01*
X-255455Y-151526D01*
X-254935Y-152427D01*
X-254199Y-153163D01*
X-253297Y-153683D01*
X-252292Y-153953D01*
X-251251D01*
X-250246Y-153683D01*
X-249345Y-153163D01*
X-248609Y-152427D01*
X-248088Y-151526D01*
X-247819Y-150520D01*
Y-149480D01*
X-248088Y-148474D01*
X-248609Y-147573D01*
X-249345Y-146837D01*
X-250246Y-146317D01*
X-251251Y-146047D01*
D02*
G37*
G36*
X-261251D02*
X-262292D01*
X-263297Y-146317D01*
X-264199Y-146837D01*
X-264935Y-147573D01*
X-265455Y-148474D01*
X-265724Y-149480D01*
Y-150520D01*
X-265455Y-151526D01*
X-264935Y-152427D01*
X-264199Y-153163D01*
X-263297Y-153683D01*
X-262292Y-153953D01*
X-261251D01*
X-260246Y-153683D01*
X-259345Y-153163D01*
X-258609Y-152427D01*
X-258088Y-151526D01*
X-257819Y-150520D01*
Y-149480D01*
X-258088Y-148474D01*
X-258609Y-147573D01*
X-259345Y-146837D01*
X-260246Y-146317D01*
X-261251Y-146047D01*
D02*
G37*
G36*
X-171557Y-155138D02*
X-172443D01*
X-173298Y-155367D01*
X-174064Y-155810D01*
X-174690Y-156436D01*
X-175133Y-157202D01*
X-175362Y-158057D01*
Y-158943D01*
X-175133Y-159798D01*
X-174690Y-160564D01*
X-174064Y-161190D01*
X-173298Y-161633D01*
X-172443Y-161862D01*
X-171557D01*
X-170702Y-161633D01*
X-169936Y-161190D01*
X-169310Y-160564D01*
X-168867Y-159798D01*
X-168638Y-158943D01*
Y-158057D01*
X-168867Y-157202D01*
X-169310Y-156436D01*
X-169936Y-155810D01*
X-170702Y-155367D01*
X-171557Y-155138D01*
D02*
G37*
G36*
X-179057Y-155638D02*
X-179943D01*
X-180798Y-155867D01*
X-181564Y-156310D01*
X-182190Y-156936D01*
X-182633Y-157702D01*
X-182862Y-158557D01*
Y-159443D01*
X-182633Y-160298D01*
X-182190Y-161064D01*
X-181564Y-161690D01*
X-180798Y-162133D01*
X-179943Y-162362D01*
X-179057D01*
X-178202Y-162133D01*
X-177436Y-161690D01*
X-176810Y-161064D01*
X-176367Y-160298D01*
X-176138Y-159443D01*
Y-158557D01*
X-176367Y-157702D01*
X-176810Y-156936D01*
X-177436Y-156310D01*
X-178202Y-155867D01*
X-179057Y-155638D01*
D02*
G37*
G36*
X-150980Y-156047D02*
X-152020D01*
X-153026Y-156317D01*
X-153927Y-156837D01*
X-154663Y-157573D01*
X-155183Y-158474D01*
X-155453Y-159480D01*
Y-160520D01*
X-155183Y-161526D01*
X-154663Y-162427D01*
X-153927Y-163163D01*
X-153026Y-163683D01*
X-152020Y-163953D01*
X-150980D01*
X-149974Y-163683D01*
X-149073Y-163163D01*
X-148337Y-162427D01*
X-147817Y-161526D01*
X-147547Y-160520D01*
Y-159480D01*
X-147817Y-158474D01*
X-148337Y-157573D01*
X-149073Y-156837D01*
X-149974Y-156317D01*
X-150980Y-156047D01*
D02*
G37*
G36*
X-160980D02*
X-162020D01*
X-163026Y-156317D01*
X-163927Y-156837D01*
X-164663Y-157573D01*
X-165183Y-158474D01*
X-165453Y-159480D01*
Y-160520D01*
X-165183Y-161526D01*
X-164663Y-162427D01*
X-163927Y-163163D01*
X-163026Y-163683D01*
X-162020Y-163953D01*
X-160980D01*
X-159974Y-163683D01*
X-159073Y-163163D01*
X-158337Y-162427D01*
X-157817Y-161526D01*
X-157547Y-160520D01*
Y-159480D01*
X-157817Y-158474D01*
X-158337Y-157573D01*
X-159073Y-156837D01*
X-159974Y-156317D01*
X-160980Y-156047D01*
D02*
G37*
G36*
X-147547Y-166047D02*
X-155453D01*
Y-173953D01*
X-147547D01*
Y-166047D01*
D02*
G37*
G36*
X-160980D02*
X-162020D01*
X-163026Y-166317D01*
X-163927Y-166837D01*
X-164663Y-167573D01*
X-165183Y-168474D01*
X-165453Y-169480D01*
Y-170520D01*
X-165183Y-171526D01*
X-164663Y-172427D01*
X-163927Y-173163D01*
X-163026Y-173683D01*
X-162020Y-173953D01*
X-160980D01*
X-159974Y-173683D01*
X-159073Y-173163D01*
X-158337Y-172427D01*
X-157817Y-171526D01*
X-157547Y-170520D01*
Y-169480D01*
X-157817Y-168474D01*
X-158337Y-167573D01*
X-159073Y-166837D01*
X-159974Y-166317D01*
X-160980Y-166047D01*
D02*
G37*
G36*
X-171557Y6862D02*
X-172443D01*
X-173298Y6633D01*
X-174064Y6190D01*
X-174690Y5564D01*
X-175106Y4845D01*
X-175301Y4796D01*
X-175652Y4792D01*
X-175810Y5064D01*
X-176436Y5690D01*
X-177202Y6133D01*
X-178057Y6362D01*
X-178943D01*
X-179798Y6133D01*
X-180564Y5690D01*
X-181190Y5064D01*
X-181633Y4298D01*
X-181862Y3443D01*
Y2557D01*
X-181633Y1702D01*
X-181190Y936D01*
X-180564Y310D01*
X-179798Y-133D01*
X-178943Y-362D01*
X-178057D01*
X-177202Y-133D01*
X-176436Y310D01*
X-175810Y936D01*
X-175394Y1655D01*
X-175199Y1704D01*
X-174848Y1708D01*
X-174690Y1436D01*
X-174064Y810D01*
X-173298Y367D01*
X-172443Y138D01*
X-171557D01*
X-170702Y367D01*
X-169936Y810D01*
X-169310Y1436D01*
X-168867Y2202D01*
X-168638Y3057D01*
Y3943D01*
X-168867Y4798D01*
X-169310Y5564D01*
X-169936Y6190D01*
X-170702Y6633D01*
X-171557Y6862D01*
D02*
G37*
G36*
X-94472Y3953D02*
X-102378D01*
Y-3953D01*
X-94472D01*
Y3953D01*
D02*
G37*
G36*
X-107905D02*
X-108946D01*
X-109951Y3683D01*
X-110852Y3163D01*
X-111588Y2427D01*
X-112109Y1526D01*
X-112378Y520D01*
Y-520D01*
X-112109Y-1526D01*
X-111588Y-2427D01*
X-110852Y-3163D01*
X-109951Y-3683D01*
X-108946Y-3953D01*
X-107905D01*
X-106899Y-3683D01*
X-105998Y-3163D01*
X-105262Y-2427D01*
X-104742Y-1526D01*
X-104472Y-520D01*
Y520D01*
X-104742Y1526D01*
X-105262Y2427D01*
X-105998Y3163D01*
X-106899Y3683D01*
X-107905Y3953D01*
D02*
G37*
G36*
X-150980D02*
X-152020D01*
X-153026Y3683D01*
X-153927Y3163D01*
X-154663Y2427D01*
X-155183Y1526D01*
X-155453Y520D01*
Y-520D01*
X-155183Y-1526D01*
X-154663Y-2427D01*
X-153927Y-3163D01*
X-153026Y-3683D01*
X-152020Y-3953D01*
X-150980D01*
X-149974Y-3683D01*
X-149073Y-3163D01*
X-148337Y-2427D01*
X-147817Y-1526D01*
X-147547Y-520D01*
Y520D01*
X-147817Y1526D01*
X-148337Y2427D01*
X-149073Y3163D01*
X-149974Y3683D01*
X-150980Y3953D01*
D02*
G37*
G36*
X-160980D02*
X-162020D01*
X-163026Y3683D01*
X-163927Y3163D01*
X-164663Y2427D01*
X-165183Y1526D01*
X-165453Y520D01*
Y-520D01*
X-165183Y-1526D01*
X-164663Y-2427D01*
X-163927Y-3163D01*
X-163026Y-3683D01*
X-162020Y-3953D01*
X-160980D01*
X-159974Y-3683D01*
X-159073Y-3163D01*
X-158337Y-2427D01*
X-157817Y-1526D01*
X-157547Y-520D01*
Y520D01*
X-157817Y1526D01*
X-158337Y2427D01*
X-159073Y3163D01*
X-159974Y3683D01*
X-160980Y3953D01*
D02*
G37*
G36*
X-251251D02*
X-252292D01*
X-253297Y3683D01*
X-254199Y3163D01*
X-254935Y2427D01*
X-255455Y1526D01*
X-255724Y520D01*
Y-520D01*
X-255455Y-1526D01*
X-254935Y-2427D01*
X-254199Y-3163D01*
X-253297Y-3683D01*
X-252292Y-3953D01*
X-251251D01*
X-250246Y-3683D01*
X-249345Y-3163D01*
X-248609Y-2427D01*
X-248088Y-1526D01*
X-247819Y-520D01*
Y520D01*
X-248088Y1526D01*
X-248609Y2427D01*
X-249345Y3163D01*
X-250246Y3683D01*
X-251251Y3953D01*
D02*
G37*
G36*
X-257819D02*
X-265724D01*
Y-3953D01*
X-257819D01*
Y3953D01*
D02*
G37*
G36*
X-124057Y-3138D02*
X-124943D01*
X-125798Y-3367D01*
X-126564Y-3810D01*
X-127190Y-4436D01*
X-127633Y-5202D01*
X-127862Y-6057D01*
Y-6943D01*
X-127633Y-7798D01*
X-127190Y-8564D01*
X-126564Y-9190D01*
X-125798Y-9633D01*
X-124943Y-9862D01*
X-124057D01*
X-123202Y-9633D01*
X-122436Y-9190D01*
X-121810Y-8564D01*
X-121367Y-7798D01*
X-121138Y-6943D01*
Y-6057D01*
X-121367Y-5202D01*
X-121810Y-4436D01*
X-122436Y-3810D01*
X-123202Y-3367D01*
X-124057Y-3138D01*
D02*
G37*
G36*
X-116057Y-4638D02*
X-116943D01*
X-117798Y-4867D01*
X-118564Y-5310D01*
X-119190Y-5936D01*
X-119633Y-6702D01*
X-119862Y-7557D01*
Y-8443D01*
X-119633Y-9298D01*
X-119190Y-10064D01*
X-118564Y-10690D01*
X-117798Y-11133D01*
X-116943Y-11362D01*
X-116057D01*
X-115202Y-11133D01*
X-114436Y-10690D01*
X-113810Y-10064D01*
X-113367Y-9298D01*
X-113138Y-8443D01*
Y-7557D01*
X-113367Y-6702D01*
X-113810Y-5936D01*
X-114436Y-5310D01*
X-115202Y-4867D01*
X-116057Y-4638D01*
D02*
G37*
G36*
X-202057D02*
X-202943D01*
X-203798Y-4867D01*
X-204564Y-5310D01*
X-205190Y-5936D01*
X-205633Y-6702D01*
X-205862Y-7557D01*
Y-8443D01*
X-205633Y-9298D01*
X-205190Y-10064D01*
X-204564Y-10690D01*
X-203798Y-11133D01*
X-202943Y-11362D01*
X-202057D01*
X-201202Y-11133D01*
X-200436Y-10690D01*
X-199810Y-10064D01*
X-199367Y-9298D01*
X-199138Y-8443D01*
Y-7557D01*
X-199367Y-6702D01*
X-199810Y-5936D01*
X-200436Y-5310D01*
X-201202Y-4867D01*
X-202057Y-4638D01*
D02*
G37*
G36*
X-97905Y-6047D02*
X-98946D01*
X-99951Y-6317D01*
X-100852Y-6837D01*
X-101588Y-7573D01*
X-102109Y-8474D01*
X-102378Y-9480D01*
Y-10520D01*
X-102109Y-11526D01*
X-101588Y-12427D01*
X-100852Y-13163D01*
X-99951Y-13683D01*
X-98946Y-13953D01*
X-97905D01*
X-96899Y-13683D01*
X-95998Y-13163D01*
X-95262Y-12427D01*
X-94742Y-11526D01*
X-94472Y-10520D01*
Y-9480D01*
X-94742Y-8474D01*
X-95262Y-7573D01*
X-95998Y-6837D01*
X-96899Y-6317D01*
X-97905Y-6047D01*
D02*
G37*
G36*
X-107905D02*
X-108946D01*
X-109951Y-6317D01*
X-110852Y-6837D01*
X-111588Y-7573D01*
X-112109Y-8474D01*
X-112378Y-9480D01*
Y-10520D01*
X-112109Y-11526D01*
X-111588Y-12427D01*
X-110852Y-13163D01*
X-109951Y-13683D01*
X-108946Y-13953D01*
X-107905D01*
X-106899Y-13683D01*
X-105998Y-13163D01*
X-105262Y-12427D01*
X-104742Y-11526D01*
X-104472Y-10520D01*
Y-9480D01*
X-104742Y-8474D01*
X-105262Y-7573D01*
X-105998Y-6837D01*
X-106899Y-6317D01*
X-107905Y-6047D01*
D02*
G37*
G36*
X-150980D02*
X-152020D01*
X-153026Y-6317D01*
X-153927Y-6837D01*
X-154663Y-7573D01*
X-155183Y-8474D01*
X-155453Y-9480D01*
Y-10520D01*
X-155183Y-11526D01*
X-154663Y-12427D01*
X-153927Y-13163D01*
X-153026Y-13683D01*
X-152020Y-13953D01*
X-150980D01*
X-149974Y-13683D01*
X-149073Y-13163D01*
X-148337Y-12427D01*
X-147817Y-11526D01*
X-147547Y-10520D01*
Y-9480D01*
X-147817Y-8474D01*
X-148337Y-7573D01*
X-149073Y-6837D01*
X-149974Y-6317D01*
X-150980Y-6047D01*
D02*
G37*
G36*
X-160980D02*
X-162020D01*
X-163026Y-6317D01*
X-163927Y-6837D01*
X-164663Y-7573D01*
X-165183Y-8474D01*
X-165453Y-9480D01*
Y-10520D01*
X-165183Y-11526D01*
X-164663Y-12427D01*
X-163927Y-13163D01*
X-163026Y-13683D01*
X-162020Y-13953D01*
X-160980D01*
X-159974Y-13683D01*
X-159073Y-13163D01*
X-158337Y-12427D01*
X-157817Y-11526D01*
X-157547Y-10520D01*
Y-9480D01*
X-157817Y-8474D01*
X-158337Y-7573D01*
X-159073Y-6837D01*
X-159974Y-6317D01*
X-160980Y-6047D01*
D02*
G37*
G36*
X-97905Y-16047D02*
X-98946D01*
X-99951Y-16317D01*
X-100852Y-16837D01*
X-101588Y-17573D01*
X-102109Y-18474D01*
X-102378Y-19480D01*
Y-20520D01*
X-102109Y-21526D01*
X-101588Y-22427D01*
X-100852Y-23163D01*
X-99951Y-23683D01*
X-98946Y-23953D01*
X-97905D01*
X-96899Y-23683D01*
X-95998Y-23163D01*
X-95262Y-22427D01*
X-94742Y-21526D01*
X-94472Y-20520D01*
Y-19480D01*
X-94742Y-18474D01*
X-95262Y-17573D01*
X-95998Y-16837D01*
X-96899Y-16317D01*
X-97905Y-16047D01*
D02*
G37*
G36*
X-107905D02*
X-108946D01*
X-109951Y-16317D01*
X-110852Y-16837D01*
X-111588Y-17573D01*
X-112109Y-18474D01*
X-112378Y-19480D01*
Y-20520D01*
X-112109Y-21526D01*
X-111588Y-22427D01*
X-110852Y-23163D01*
X-109951Y-23683D01*
X-108946Y-23953D01*
X-107905D01*
X-106899Y-23683D01*
X-105998Y-23163D01*
X-105262Y-22427D01*
X-104742Y-21526D01*
X-104472Y-20520D01*
Y-19480D01*
X-104742Y-18474D01*
X-105262Y-17573D01*
X-105998Y-16837D01*
X-106899Y-16317D01*
X-107905Y-16047D01*
D02*
G37*
G36*
X-150980D02*
X-152020D01*
X-153026Y-16317D01*
X-153927Y-16837D01*
X-154663Y-17573D01*
X-155183Y-18474D01*
X-155453Y-19480D01*
Y-20520D01*
X-155183Y-21526D01*
X-154663Y-22427D01*
X-153927Y-23163D01*
X-153026Y-23683D01*
X-152020Y-23953D01*
X-150980D01*
X-149974Y-23683D01*
X-149073Y-23163D01*
X-148337Y-22427D01*
X-147817Y-21526D01*
X-147547Y-20520D01*
Y-19480D01*
X-147817Y-18474D01*
X-148337Y-17573D01*
X-149073Y-16837D01*
X-149974Y-16317D01*
X-150980Y-16047D01*
D02*
G37*
G36*
X91072Y-36047D02*
X90031D01*
X89025Y-36317D01*
X88124Y-36837D01*
X87388Y-37573D01*
X86868Y-38474D01*
X86598Y-39480D01*
Y-40520D01*
X86868Y-41526D01*
X87388Y-42427D01*
X88124Y-43163D01*
X89025Y-43683D01*
X90031Y-43953D01*
X91072D01*
X92077Y-43683D01*
X92978Y-43163D01*
X93714Y-42427D01*
X94235Y-41526D01*
X94504Y-40520D01*
Y-39480D01*
X94235Y-38474D01*
X93714Y-37573D01*
X92978Y-36837D01*
X92077Y-36317D01*
X91072Y-36047D01*
D02*
G37*
G36*
X81072D02*
X80031D01*
X79026Y-36317D01*
X78124Y-36837D01*
X77388Y-37573D01*
X76868Y-38474D01*
X76598Y-39480D01*
Y-40520D01*
X76868Y-41526D01*
X77388Y-42427D01*
X78124Y-43163D01*
X79026Y-43683D01*
X80031Y-43953D01*
X81072D01*
X82077Y-43683D01*
X82978Y-43163D01*
X83714Y-42427D01*
X84235Y-41526D01*
X84504Y-40520D01*
Y-39480D01*
X84235Y-38474D01*
X83714Y-37573D01*
X82978Y-36837D01*
X82077Y-36317D01*
X81072Y-36047D01*
D02*
G37*
G36*
X91072Y-46047D02*
X90031D01*
X89025Y-46317D01*
X88124Y-46837D01*
X87388Y-47573D01*
X86868Y-48474D01*
X86598Y-49480D01*
Y-50520D01*
X86868Y-51526D01*
X87388Y-52427D01*
X88124Y-53163D01*
X89025Y-53683D01*
X90031Y-53953D01*
X91072D01*
X92077Y-53683D01*
X92978Y-53163D01*
X93714Y-52427D01*
X94235Y-51526D01*
X94504Y-50520D01*
Y-49480D01*
X94235Y-48474D01*
X93714Y-47573D01*
X92978Y-46837D01*
X92077Y-46317D01*
X91072Y-46047D01*
D02*
G37*
G36*
X81072D02*
X80031D01*
X79026Y-46317D01*
X78124Y-46837D01*
X77388Y-47573D01*
X76868Y-48474D01*
X76598Y-49480D01*
Y-50520D01*
X76868Y-51526D01*
X77388Y-52427D01*
X78124Y-53163D01*
X79026Y-53683D01*
X80031Y-53953D01*
X81072D01*
X82077Y-53683D01*
X82978Y-53163D01*
X83714Y-52427D01*
X84235Y-51526D01*
X84504Y-50520D01*
Y-49480D01*
X84235Y-48474D01*
X83714Y-47573D01*
X82978Y-46837D01*
X82077Y-46317D01*
X81072Y-46047D01*
D02*
G37*
G36*
X520D02*
X-520D01*
X-1526Y-46317D01*
X-2427Y-46837D01*
X-3163Y-47573D01*
X-3683Y-48474D01*
X-3953Y-49480D01*
Y-50520D01*
X-3683Y-51526D01*
X-3163Y-52427D01*
X-2427Y-53163D01*
X-1526Y-53683D01*
X-520Y-53953D01*
X520D01*
X1526Y-53683D01*
X2427Y-53163D01*
X3163Y-52427D01*
X3683Y-51526D01*
X3953Y-50520D01*
Y-49480D01*
X3683Y-48474D01*
X3163Y-47573D01*
X2427Y-46837D01*
X1526Y-46317D01*
X520Y-46047D01*
D02*
G37*
G36*
X-9480D02*
X-10520D01*
X-11526Y-46317D01*
X-12427Y-46837D01*
X-13163Y-47573D01*
X-13683Y-48474D01*
X-13953Y-49480D01*
Y-50520D01*
X-13683Y-51526D01*
X-13163Y-52427D01*
X-12427Y-53163D01*
X-11526Y-53683D01*
X-10520Y-53953D01*
X-9480D01*
X-9029Y-53832D01*
X-7023Y-55838D01*
Y-56734D01*
X-7485Y-56925D01*
X-7573Y-56837D01*
X-8474Y-56317D01*
X-9480Y-56047D01*
X-10520D01*
X-11526Y-56317D01*
X-12427Y-56837D01*
X-13163Y-57573D01*
X-13683Y-58474D01*
X-13953Y-59480D01*
Y-60520D01*
X-13683Y-61526D01*
X-13163Y-62427D01*
X-12427Y-63163D01*
X-11526Y-63683D01*
X-10520Y-63953D01*
X-9480D01*
X-8474Y-63683D01*
X-7573Y-63163D01*
X-7513Y-63103D01*
X-6970Y-63267D01*
X-6869Y-63774D01*
X-6431Y-64431D01*
X-4155Y-66706D01*
X-3499Y-67145D01*
X-3391Y-67166D01*
X-3240Y-67706D01*
X-3683Y-68474D01*
X-3953Y-69480D01*
Y-70520D01*
X-3683Y-71526D01*
X-3291Y-72205D01*
X-3559Y-72705D01*
X-4718D01*
X-6228Y-71195D01*
X-6047Y-70520D01*
Y-69480D01*
X-6317Y-68474D01*
X-6837Y-67573D01*
X-7573Y-66837D01*
X-8474Y-66317D01*
X-9480Y-66047D01*
X-10520D01*
X-11526Y-66317D01*
X-12427Y-66837D01*
X-13163Y-67573D01*
X-13683Y-68474D01*
X-13953Y-69480D01*
Y-70520D01*
X-13683Y-71526D01*
X-13163Y-72427D01*
X-12427Y-73163D01*
X-11526Y-73683D01*
X-10520Y-73953D01*
X-9480D01*
X-8805Y-73772D01*
X-6761Y-75816D01*
X-6761Y-75816D01*
X-6170Y-76211D01*
X-5472Y-76350D01*
X-5472Y-76350D01*
X-2549D01*
X-2444Y-76744D01*
X-2440Y-76850D01*
X-3163Y-77573D01*
X-3683Y-78474D01*
X-3953Y-79480D01*
Y-80520D01*
X-3683Y-81526D01*
X-3163Y-82427D01*
X-2427Y-83163D01*
X-1526Y-83683D01*
X-520Y-83953D01*
X520D01*
X1526Y-83683D01*
X2427Y-83163D01*
X3163Y-82427D01*
X3195Y-82372D01*
X3678Y-82502D01*
Y-87498D01*
X3195Y-87628D01*
X3163Y-87573D01*
X2427Y-86837D01*
X1526Y-86317D01*
X520Y-86047D01*
X-520D01*
X-1526Y-86317D01*
X-2427Y-86837D01*
X-3163Y-87573D01*
X-3683Y-88474D01*
X-3953Y-89480D01*
Y-90520D01*
X-3683Y-91526D01*
X-3163Y-92427D01*
X-2427Y-93163D01*
X-1526Y-93683D01*
X-520Y-93953D01*
X520D01*
X1526Y-93683D01*
X2427Y-93163D01*
X3163Y-92427D01*
X3195Y-92372D01*
X3678Y-92502D01*
Y-97498D01*
X3195Y-97628D01*
X3163Y-97573D01*
X2427Y-96837D01*
X1526Y-96317D01*
X520Y-96047D01*
X-520D01*
X-1526Y-96317D01*
X-2427Y-96837D01*
X-3163Y-97573D01*
X-3683Y-98474D01*
X-3953Y-99480D01*
Y-100520D01*
X-3683Y-101526D01*
X-3163Y-102427D01*
X-2427Y-103163D01*
X-1526Y-103683D01*
X-520Y-103953D01*
X520D01*
X1526Y-103683D01*
X2427Y-103163D01*
X3163Y-102427D01*
X3195Y-102372D01*
X3678Y-102502D01*
Y-107498D01*
X3195Y-107628D01*
X3163Y-107573D01*
X2427Y-106837D01*
X1526Y-106317D01*
X520Y-106047D01*
X-520D01*
X-1526Y-106317D01*
X-2427Y-106837D01*
X-3163Y-107573D01*
X-3683Y-108474D01*
X-3953Y-109480D01*
Y-110520D01*
X-3683Y-111526D01*
X-3163Y-112427D01*
X-2427Y-113163D01*
X-1526Y-113683D01*
X-520Y-113953D01*
X520D01*
X1526Y-113683D01*
X2427Y-113163D01*
X3163Y-112427D01*
X3195Y-112372D01*
X3678Y-112502D01*
Y-117498D01*
X3195Y-117628D01*
X3163Y-117573D01*
X2427Y-116837D01*
X1526Y-116317D01*
X520Y-116047D01*
X-520D01*
X-1526Y-116317D01*
X-2427Y-116837D01*
X-3163Y-117573D01*
X-3683Y-118474D01*
X-3953Y-119480D01*
Y-120520D01*
X-3683Y-121526D01*
X-3163Y-122427D01*
X-2427Y-123163D01*
X-1526Y-123683D01*
X-520Y-123953D01*
X520D01*
X1526Y-123683D01*
X2427Y-123163D01*
X3163Y-122427D01*
X3195Y-122372D01*
X3678Y-122502D01*
Y-127498D01*
X3195Y-127628D01*
X3163Y-127573D01*
X2427Y-126837D01*
X1526Y-126317D01*
X520Y-126047D01*
X-520D01*
X-1526Y-126317D01*
X-2427Y-126837D01*
X-3163Y-127573D01*
X-3683Y-128474D01*
X-3953Y-129480D01*
Y-130520D01*
X-3683Y-131526D01*
X-3163Y-132427D01*
X-2427Y-133163D01*
X-1526Y-133683D01*
X-520Y-133953D01*
X520D01*
X1526Y-133683D01*
X2427Y-133163D01*
X3163Y-132427D01*
X3195Y-132372D01*
X3678Y-132502D01*
Y-137498D01*
X3195Y-137628D01*
X3163Y-137573D01*
X2427Y-136837D01*
X1526Y-136317D01*
X520Y-136047D01*
X-520D01*
X-1526Y-136317D01*
X-2427Y-136837D01*
X-3163Y-137573D01*
X-3683Y-138474D01*
X-3953Y-139480D01*
Y-140520D01*
X-3683Y-141526D01*
X-3163Y-142427D01*
X-2427Y-143163D01*
X-1526Y-143683D01*
X-520Y-143953D01*
X520D01*
X1526Y-143683D01*
X2427Y-143163D01*
X3163Y-142427D01*
X3195Y-142372D01*
X3678Y-142502D01*
Y-147498D01*
X3195Y-147628D01*
X3163Y-147573D01*
X2427Y-146837D01*
X1526Y-146317D01*
X520Y-146047D01*
X-520D01*
X-1526Y-146317D01*
X-2427Y-146837D01*
X-3163Y-147573D01*
X-3683Y-148474D01*
X-3953Y-149480D01*
Y-150520D01*
X-3683Y-151526D01*
X-3163Y-152427D01*
X-2662Y-152928D01*
X-2870Y-153428D01*
X-7130D01*
X-7338Y-152928D01*
X-6837Y-152427D01*
X-6317Y-151526D01*
X-6047Y-150520D01*
Y-149480D01*
X-6317Y-148474D01*
X-6837Y-147573D01*
X-7573Y-146837D01*
X-8474Y-146317D01*
X-9480Y-146047D01*
X-10520D01*
X-11526Y-146317D01*
X-12427Y-146837D01*
X-13163Y-147573D01*
X-13683Y-148474D01*
X-13953Y-149480D01*
Y-150520D01*
X-13683Y-151526D01*
X-13163Y-152427D01*
X-12663Y-152928D01*
X-12870Y-153428D01*
X-95556D01*
X-95763Y-152928D01*
X-95262Y-152427D01*
X-94742Y-151526D01*
X-94472Y-150520D01*
Y-149480D01*
X-94742Y-148474D01*
X-95262Y-147573D01*
X-95998Y-146837D01*
X-96899Y-146317D01*
X-97905Y-146047D01*
X-98946D01*
X-99951Y-146317D01*
X-100852Y-146837D01*
X-101588Y-147573D01*
X-102109Y-148474D01*
X-102378Y-149480D01*
Y-150520D01*
X-102109Y-151526D01*
X-101588Y-152427D01*
X-101088Y-152928D01*
X-101295Y-153428D01*
X-103675D01*
X-104373Y-153566D01*
X-104964Y-153961D01*
X-104964Y-153961D01*
X-107230Y-156228D01*
X-107905Y-156047D01*
X-108946D01*
X-109951Y-156317D01*
X-110852Y-156837D01*
X-111588Y-157573D01*
X-112109Y-158474D01*
X-112378Y-159480D01*
Y-160520D01*
X-112109Y-161526D01*
X-111588Y-162427D01*
X-110852Y-163163D01*
X-109951Y-163683D01*
X-108946Y-163953D01*
X-107905D01*
X-106899Y-163683D01*
X-105998Y-163163D01*
X-105262Y-162427D01*
X-104742Y-161526D01*
X-104472Y-160520D01*
Y-159480D01*
X-104653Y-158805D01*
X-102920Y-157072D01*
X-101741D01*
X-101550Y-157534D01*
X-101588Y-157573D01*
X-102109Y-158474D01*
X-102378Y-159480D01*
Y-160520D01*
X-102109Y-161526D01*
X-101588Y-162427D01*
X-100852Y-163163D01*
X-99951Y-163683D01*
X-98946Y-163953D01*
X-97905D01*
X-96899Y-163683D01*
X-95998Y-163163D01*
X-95262Y-162427D01*
X-94742Y-161526D01*
X-94472Y-160520D01*
Y-159480D01*
X-94742Y-158474D01*
X-95262Y-157573D01*
X-95301Y-157534D01*
X-95109Y-157072D01*
X-13316D01*
X-13124Y-157534D01*
X-13163Y-157573D01*
X-13683Y-158474D01*
X-13953Y-159480D01*
Y-160520D01*
X-13683Y-161526D01*
X-13163Y-162427D01*
X-12427Y-163163D01*
X-11526Y-163683D01*
X-10520Y-163953D01*
X-9480D01*
X-8474Y-163683D01*
X-7573Y-163163D01*
X-6837Y-162427D01*
X-6317Y-161526D01*
X-6047Y-160520D01*
Y-159480D01*
X-6317Y-158474D01*
X-6837Y-157573D01*
X-6876Y-157534D01*
X-6684Y-157072D01*
X-3316D01*
X-3124Y-157534D01*
X-3163Y-157573D01*
X-3683Y-158474D01*
X-3953Y-159480D01*
Y-160520D01*
X-3683Y-161526D01*
X-3163Y-162427D01*
X-2838Y-162752D01*
X-3045Y-163252D01*
X-5276D01*
X-6050Y-163407D01*
X-6706Y-163845D01*
X-9029Y-166168D01*
X-9480Y-166047D01*
X-10520D01*
X-11526Y-166317D01*
X-12427Y-166837D01*
X-13163Y-167573D01*
X-13683Y-168474D01*
X-13953Y-169480D01*
Y-170520D01*
X-13683Y-171526D01*
X-13163Y-172427D01*
X-12427Y-173163D01*
X-11526Y-173683D01*
X-10520Y-173953D01*
X-9480D01*
X-8474Y-173683D01*
X-7573Y-173163D01*
X-6837Y-172427D01*
X-6317Y-171526D01*
X-6047Y-170520D01*
Y-169480D01*
X-6168Y-169029D01*
X-4438Y-167299D01*
X-3564D01*
X-3293Y-167799D01*
X-3683Y-168474D01*
X-3953Y-169480D01*
Y-170520D01*
X-3683Y-171526D01*
X-3163Y-172427D01*
X-2427Y-173163D01*
X-1526Y-173683D01*
X-520Y-173953D01*
X520D01*
X1526Y-173683D01*
X2427Y-173163D01*
X3163Y-172427D01*
X3683Y-171526D01*
X3953Y-170520D01*
Y-169480D01*
X3683Y-168474D01*
X3293Y-167799D01*
X3564Y-167299D01*
X5724D01*
X6499Y-167145D01*
X7155Y-166706D01*
X9931Y-163931D01*
X10369Y-163274D01*
X10523Y-162500D01*
Y-71000D01*
X10369Y-70226D01*
X9931Y-69569D01*
X4206Y-63845D01*
X3550Y-63406D01*
X3000Y-63297D01*
X2819Y-62779D01*
X2819Y-62771D01*
X3163Y-62427D01*
X3683Y-61526D01*
X3953Y-60520D01*
Y-59480D01*
X3683Y-58474D01*
X3163Y-57573D01*
X2427Y-56837D01*
X1526Y-56317D01*
X520Y-56047D01*
X-520D01*
X-1526Y-56317D01*
X-2427Y-56837D01*
X-2515Y-56925D01*
X-2977Y-56734D01*
Y-55000D01*
X-3131Y-54226D01*
X-3569Y-53569D01*
X-6168Y-50971D01*
X-6047Y-50520D01*
Y-49480D01*
X-6317Y-48474D01*
X-6837Y-47573D01*
X-7573Y-46837D01*
X-8474Y-46317D01*
X-9480Y-46047D01*
D02*
G37*
G36*
X91072Y-56047D02*
X90031D01*
X89025Y-56317D01*
X88124Y-56837D01*
X87388Y-57573D01*
X86868Y-58474D01*
X86598Y-59480D01*
Y-60520D01*
X86868Y-61526D01*
X87388Y-62427D01*
X88124Y-63163D01*
X89025Y-63683D01*
X90031Y-63953D01*
X91072D01*
X92077Y-63683D01*
X92978Y-63163D01*
X93714Y-62427D01*
X94235Y-61526D01*
X94504Y-60520D01*
Y-59480D01*
X94235Y-58474D01*
X93714Y-57573D01*
X92978Y-56837D01*
X92077Y-56317D01*
X91072Y-56047D01*
D02*
G37*
G36*
X81072D02*
X80031D01*
X79026Y-56317D01*
X78124Y-56837D01*
X77388Y-57573D01*
X76868Y-58474D01*
X76598Y-59480D01*
Y-60520D01*
X76868Y-61526D01*
X77388Y-62427D01*
X78124Y-63163D01*
X79026Y-63683D01*
X80031Y-63953D01*
X81072D01*
X82077Y-63683D01*
X82978Y-63163D01*
X83714Y-62427D01*
X84235Y-61526D01*
X84504Y-60520D01*
Y-59480D01*
X84235Y-58474D01*
X83714Y-57573D01*
X82978Y-56837D01*
X82077Y-56317D01*
X81072Y-56047D01*
D02*
G37*
G36*
X-21057Y-60638D02*
X-21943D01*
X-22798Y-60867D01*
X-23564Y-61310D01*
X-24190Y-61936D01*
X-24633Y-62702D01*
X-24862Y-63557D01*
Y-64443D01*
X-24633Y-65298D01*
X-24190Y-66064D01*
X-23564Y-66690D01*
X-22798Y-67133D01*
X-21943Y-67362D01*
X-21057D01*
X-20202Y-67133D01*
X-19436Y-66690D01*
X-18810Y-66064D01*
X-18367Y-65298D01*
X-18138Y-64443D01*
Y-63557D01*
X-18367Y-62702D01*
X-18810Y-61936D01*
X-19436Y-61310D01*
X-20202Y-60867D01*
X-21057Y-60638D01*
D02*
G37*
G36*
X-30557D02*
X-31443D01*
X-32298Y-60867D01*
X-33064Y-61310D01*
X-33690Y-61936D01*
X-34133Y-62702D01*
X-34362Y-63557D01*
Y-64443D01*
X-34133Y-65298D01*
X-33690Y-66064D01*
X-33064Y-66690D01*
X-32298Y-67133D01*
X-31443Y-67362D01*
X-30557D01*
X-29702Y-67133D01*
X-28936Y-66690D01*
X-28310Y-66064D01*
X-27867Y-65298D01*
X-27638Y-64443D01*
Y-63557D01*
X-27867Y-62702D01*
X-28310Y-61936D01*
X-28936Y-61310D01*
X-29702Y-60867D01*
X-30557Y-60638D01*
D02*
G37*
G36*
X91072Y-66047D02*
X90031D01*
X89025Y-66317D01*
X88124Y-66837D01*
X87388Y-67573D01*
X86868Y-68474D01*
X86598Y-69480D01*
Y-70520D01*
X86868Y-71526D01*
X87388Y-72427D01*
X88124Y-73163D01*
X89025Y-73683D01*
X90031Y-73953D01*
X91072D01*
X92077Y-73683D01*
X92978Y-73163D01*
X93714Y-72427D01*
X94235Y-71526D01*
X94504Y-70520D01*
Y-69480D01*
X94235Y-68474D01*
X93714Y-67573D01*
X92978Y-66837D01*
X92077Y-66317D01*
X91072Y-66047D01*
D02*
G37*
G36*
X81072D02*
X80031D01*
X79026Y-66317D01*
X78124Y-66837D01*
X77388Y-67573D01*
X76868Y-68474D01*
X76598Y-69480D01*
Y-70520D01*
X76868Y-71526D01*
X77388Y-72427D01*
X78124Y-73163D01*
X79026Y-73683D01*
X80031Y-73953D01*
X81072D01*
X82077Y-73683D01*
X82978Y-73163D01*
X83714Y-72427D01*
X84235Y-71526D01*
X84504Y-70520D01*
Y-69480D01*
X84235Y-68474D01*
X83714Y-67573D01*
X82978Y-66837D01*
X82077Y-66317D01*
X81072Y-66047D01*
D02*
G37*
G36*
X91072Y-76047D02*
X90031D01*
X89025Y-76317D01*
X88124Y-76837D01*
X87388Y-77573D01*
X86868Y-78474D01*
X86598Y-79480D01*
Y-80520D01*
X86868Y-81526D01*
X87388Y-82427D01*
X88124Y-83163D01*
X89025Y-83683D01*
X90031Y-83953D01*
X91072D01*
X92077Y-83683D01*
X92978Y-83163D01*
X93714Y-82427D01*
X94235Y-81526D01*
X94504Y-80520D01*
Y-79480D01*
X94235Y-78474D01*
X93714Y-77573D01*
X92978Y-76837D01*
X92077Y-76317D01*
X91072Y-76047D01*
D02*
G37*
G36*
X81072D02*
X80031D01*
X79026Y-76317D01*
X78124Y-76837D01*
X77388Y-77573D01*
X76868Y-78474D01*
X76598Y-79480D01*
Y-80520D01*
X76868Y-81526D01*
X77388Y-82427D01*
X78124Y-83163D01*
X79026Y-83683D01*
X80031Y-83953D01*
X81072D01*
X82077Y-83683D01*
X82978Y-83163D01*
X83714Y-82427D01*
X84235Y-81526D01*
X84504Y-80520D01*
Y-79480D01*
X84235Y-78474D01*
X83714Y-77573D01*
X82978Y-76837D01*
X82077Y-76317D01*
X81072Y-76047D01*
D02*
G37*
G36*
X91072Y-86047D02*
X90031D01*
X89025Y-86317D01*
X88124Y-86837D01*
X87388Y-87573D01*
X86868Y-88474D01*
X86598Y-89480D01*
Y-90520D01*
X86868Y-91526D01*
X87388Y-92427D01*
X88124Y-93163D01*
X89025Y-93683D01*
X90031Y-93953D01*
X91072D01*
X92077Y-93683D01*
X92978Y-93163D01*
X93714Y-92427D01*
X94235Y-91526D01*
X94504Y-90520D01*
Y-89480D01*
X94235Y-88474D01*
X93714Y-87573D01*
X92978Y-86837D01*
X92077Y-86317D01*
X91072Y-86047D01*
D02*
G37*
G36*
X81072D02*
X80031D01*
X79026Y-86317D01*
X78124Y-86837D01*
X77388Y-87573D01*
X76868Y-88474D01*
X76598Y-89480D01*
Y-90520D01*
X76868Y-91526D01*
X77388Y-92427D01*
X78124Y-93163D01*
X79026Y-93683D01*
X80031Y-93953D01*
X81072D01*
X82077Y-93683D01*
X82978Y-93163D01*
X83714Y-92427D01*
X84235Y-91526D01*
X84504Y-90520D01*
Y-89480D01*
X84235Y-88474D01*
X83714Y-87573D01*
X82978Y-86837D01*
X82077Y-86317D01*
X81072Y-86047D01*
D02*
G37*
G36*
X-9480Y-76047D02*
X-10520D01*
X-11526Y-76317D01*
X-12427Y-76837D01*
X-13163Y-77573D01*
X-13683Y-78474D01*
X-13953Y-79480D01*
Y-80520D01*
X-13787Y-81138D01*
X-13935Y-81617D01*
X-14128Y-81688D01*
X-14500Y-81788D01*
X-14796Y-81867D01*
X-15563Y-82310D01*
X-16189Y-82936D01*
X-16632Y-83702D01*
X-16861Y-84557D01*
Y-85443D01*
X-16632Y-86298D01*
X-16189Y-87064D01*
X-15563Y-87690D01*
X-14796Y-88133D01*
X-14500Y-88212D01*
X-14128Y-88312D01*
X-13935Y-88383D01*
X-13787Y-88862D01*
X-13953Y-89480D01*
Y-90520D01*
X-13683Y-91526D01*
X-13163Y-92427D01*
X-12427Y-93163D01*
X-11526Y-93683D01*
X-10520Y-93953D01*
X-9480D01*
X-8474Y-93683D01*
X-7573Y-93163D01*
X-6837Y-92427D01*
X-6317Y-91526D01*
X-6047Y-90520D01*
Y-89480D01*
X-6317Y-88474D01*
X-6837Y-87573D01*
X-7573Y-86837D01*
X-8474Y-86317D01*
X-9480Y-86047D01*
X-9888D01*
X-10192Y-85651D01*
X-10136Y-85443D01*
Y-84557D01*
X-10192Y-84349D01*
X-9888Y-83953D01*
X-9480D01*
X-8474Y-83683D01*
X-7573Y-83163D01*
X-6837Y-82427D01*
X-6317Y-81526D01*
X-6047Y-80520D01*
Y-79480D01*
X-6317Y-78474D01*
X-6837Y-77573D01*
X-7573Y-76837D01*
X-8474Y-76317D01*
X-9480Y-76047D01*
D02*
G37*
G36*
X-97905Y-86047D02*
X-98946D01*
X-99951Y-86317D01*
X-100852Y-86837D01*
X-101588Y-87573D01*
X-102109Y-88474D01*
X-102378Y-89480D01*
Y-90520D01*
X-102109Y-91526D01*
X-101588Y-92427D01*
X-100852Y-93163D01*
X-99951Y-93683D01*
X-98946Y-93953D01*
X-97905D01*
X-96899Y-93683D01*
X-95998Y-93163D01*
X-95262Y-92427D01*
X-94742Y-91526D01*
X-94472Y-90520D01*
Y-89480D01*
X-94742Y-88474D01*
X-95262Y-87573D01*
X-95998Y-86837D01*
X-96899Y-86317D01*
X-97905Y-86047D01*
D02*
G37*
G36*
X-107905D02*
X-108946D01*
X-109951Y-86317D01*
X-110852Y-86837D01*
X-111588Y-87573D01*
X-112109Y-88474D01*
X-112378Y-89480D01*
Y-90520D01*
X-112109Y-91526D01*
X-111588Y-92427D01*
X-110852Y-93163D01*
X-109951Y-93683D01*
X-108946Y-93953D01*
X-107905D01*
X-106899Y-93683D01*
X-105998Y-93163D01*
X-105262Y-92427D01*
X-104742Y-91526D01*
X-104472Y-90520D01*
Y-89480D01*
X-104742Y-88474D01*
X-105262Y-87573D01*
X-105998Y-86837D01*
X-106899Y-86317D01*
X-107905Y-86047D01*
D02*
G37*
G36*
X-53922Y-89502D02*
X-54807D01*
X-55662Y-89731D01*
X-56429Y-90174D01*
X-57055Y-90800D01*
X-57497Y-91566D01*
X-57726Y-92422D01*
Y-93307D01*
X-57497Y-94162D01*
X-57055Y-94929D01*
X-56429Y-95555D01*
X-55662Y-95997D01*
X-54807Y-96226D01*
X-53922D01*
X-53066Y-95997D01*
X-52300Y-95555D01*
X-51674Y-94929D01*
X-51231Y-94162D01*
X-51002Y-93307D01*
Y-92422D01*
X-51231Y-91566D01*
X-51674Y-90800D01*
X-52300Y-90174D01*
X-53066Y-89731D01*
X-53922Y-89502D01*
D02*
G37*
G36*
X91072Y-96047D02*
X90031D01*
X89025Y-96317D01*
X88124Y-96837D01*
X87388Y-97573D01*
X86868Y-98474D01*
X86598Y-99480D01*
Y-100520D01*
X86868Y-101526D01*
X87388Y-102427D01*
X88124Y-103163D01*
X89025Y-103683D01*
X90031Y-103953D01*
X91072D01*
X92077Y-103683D01*
X92978Y-103163D01*
X93714Y-102427D01*
X94235Y-101526D01*
X94504Y-100520D01*
Y-99480D01*
X94235Y-98474D01*
X93714Y-97573D01*
X92978Y-96837D01*
X92077Y-96317D01*
X91072Y-96047D01*
D02*
G37*
G36*
X81072D02*
X80031D01*
X79026Y-96317D01*
X78124Y-96837D01*
X77388Y-97573D01*
X76868Y-98474D01*
X76598Y-99480D01*
Y-100520D01*
X76868Y-101526D01*
X77388Y-102427D01*
X78124Y-103163D01*
X79026Y-103683D01*
X80031Y-103953D01*
X81072D01*
X82077Y-103683D01*
X82978Y-103163D01*
X83714Y-102427D01*
X84235Y-101526D01*
X84504Y-100520D01*
Y-99480D01*
X84235Y-98474D01*
X83714Y-97573D01*
X82978Y-96837D01*
X82077Y-96317D01*
X81072Y-96047D01*
D02*
G37*
G36*
X-9480D02*
X-10520D01*
X-11526Y-96317D01*
X-12427Y-96837D01*
X-13163Y-97573D01*
X-13683Y-98474D01*
X-13953Y-99480D01*
Y-100520D01*
X-13683Y-101526D01*
X-13163Y-102427D01*
X-12427Y-103163D01*
X-11526Y-103683D01*
X-10520Y-103953D01*
X-9480D01*
X-8474Y-103683D01*
X-7573Y-103163D01*
X-6837Y-102427D01*
X-6317Y-101526D01*
X-6047Y-100520D01*
Y-99480D01*
X-6317Y-98474D01*
X-6837Y-97573D01*
X-7573Y-96837D01*
X-8474Y-96317D01*
X-9480Y-96047D01*
D02*
G37*
G36*
X-97905D02*
X-98946D01*
X-99951Y-96317D01*
X-100852Y-96837D01*
X-101588Y-97573D01*
X-102109Y-98474D01*
X-102378Y-99480D01*
Y-100520D01*
X-102109Y-101526D01*
X-101588Y-102427D01*
X-100852Y-103163D01*
X-99951Y-103683D01*
X-98946Y-103953D01*
X-97905D01*
X-96899Y-103683D01*
X-95998Y-103163D01*
X-95262Y-102427D01*
X-94742Y-101526D01*
X-94472Y-100520D01*
Y-99480D01*
X-94742Y-98474D01*
X-95262Y-97573D01*
X-95998Y-96837D01*
X-96899Y-96317D01*
X-97905Y-96047D01*
D02*
G37*
G36*
X-107905D02*
X-108946D01*
X-109951Y-96317D01*
X-110852Y-96837D01*
X-111588Y-97573D01*
X-112109Y-98474D01*
X-112378Y-99480D01*
Y-100520D01*
X-112109Y-101526D01*
X-111588Y-102427D01*
X-110852Y-103163D01*
X-109951Y-103683D01*
X-108946Y-103953D01*
X-107905D01*
X-106899Y-103683D01*
X-105998Y-103163D01*
X-105262Y-102427D01*
X-104742Y-101526D01*
X-104472Y-100520D01*
Y-99480D01*
X-104742Y-98474D01*
X-105262Y-97573D01*
X-105998Y-96837D01*
X-106899Y-96317D01*
X-107905Y-96047D01*
D02*
G37*
G36*
X91072Y-106047D02*
X90031D01*
X89025Y-106317D01*
X88124Y-106837D01*
X87388Y-107573D01*
X86868Y-108474D01*
X86598Y-109480D01*
Y-110520D01*
X86868Y-111526D01*
X87388Y-112427D01*
X88124Y-113163D01*
X89025Y-113683D01*
X90031Y-113953D01*
X91072D01*
X92077Y-113683D01*
X92978Y-113163D01*
X93714Y-112427D01*
X94235Y-111526D01*
X94504Y-110520D01*
Y-109480D01*
X94235Y-108474D01*
X93714Y-107573D01*
X92978Y-106837D01*
X92077Y-106317D01*
X91072Y-106047D01*
D02*
G37*
G36*
X81072D02*
X80031D01*
X79026Y-106317D01*
X78124Y-106837D01*
X77388Y-107573D01*
X76868Y-108474D01*
X76598Y-109480D01*
Y-110520D01*
X76868Y-111526D01*
X77388Y-112427D01*
X78124Y-113163D01*
X79026Y-113683D01*
X80031Y-113953D01*
X81072D01*
X82077Y-113683D01*
X82978Y-113163D01*
X83714Y-112427D01*
X84235Y-111526D01*
X84504Y-110520D01*
Y-109480D01*
X84235Y-108474D01*
X83714Y-107573D01*
X82978Y-106837D01*
X82077Y-106317D01*
X81072Y-106047D01*
D02*
G37*
G36*
X-9480D02*
X-10520D01*
X-11526Y-106317D01*
X-12427Y-106837D01*
X-13163Y-107573D01*
X-13683Y-108474D01*
X-13953Y-109480D01*
Y-110520D01*
X-13683Y-111526D01*
X-13163Y-112427D01*
X-12427Y-113163D01*
X-11526Y-113683D01*
X-10520Y-113953D01*
X-9480D01*
X-8474Y-113683D01*
X-7573Y-113163D01*
X-6837Y-112427D01*
X-6317Y-111526D01*
X-6047Y-110520D01*
Y-109480D01*
X-6317Y-108474D01*
X-6837Y-107573D01*
X-7573Y-106837D01*
X-8474Y-106317D01*
X-9480Y-106047D01*
D02*
G37*
G36*
X-97905D02*
X-98946D01*
X-99951Y-106317D01*
X-100852Y-106837D01*
X-101588Y-107573D01*
X-102109Y-108474D01*
X-102378Y-109480D01*
Y-110520D01*
X-102109Y-111526D01*
X-101588Y-112427D01*
X-100852Y-113163D01*
X-99951Y-113683D01*
X-98946Y-113953D01*
X-97905D01*
X-96899Y-113683D01*
X-95998Y-113163D01*
X-95262Y-112427D01*
X-94742Y-111526D01*
X-94472Y-110520D01*
Y-109480D01*
X-94742Y-108474D01*
X-95262Y-107573D01*
X-95998Y-106837D01*
X-96899Y-106317D01*
X-97905Y-106047D01*
D02*
G37*
G36*
X-107905D02*
X-108946D01*
X-109951Y-106317D01*
X-110852Y-106837D01*
X-111588Y-107573D01*
X-112109Y-108474D01*
X-112378Y-109480D01*
Y-110520D01*
X-112109Y-111526D01*
X-111588Y-112427D01*
X-110852Y-113163D01*
X-109951Y-113683D01*
X-108946Y-113953D01*
X-107905D01*
X-106899Y-113683D01*
X-105998Y-113163D01*
X-105262Y-112427D01*
X-104742Y-111526D01*
X-104472Y-110520D01*
Y-109480D01*
X-104742Y-108474D01*
X-105262Y-107573D01*
X-105998Y-106837D01*
X-106899Y-106317D01*
X-107905Y-106047D01*
D02*
G37*
G36*
X91072Y-116047D02*
X90031D01*
X89025Y-116317D01*
X88124Y-116837D01*
X87388Y-117573D01*
X86868Y-118474D01*
X86598Y-119480D01*
Y-120520D01*
X86868Y-121526D01*
X87388Y-122427D01*
X88124Y-123163D01*
X89025Y-123683D01*
X90031Y-123953D01*
X91072D01*
X92077Y-123683D01*
X92978Y-123163D01*
X93714Y-122427D01*
X94235Y-121526D01*
X94504Y-120520D01*
Y-119480D01*
X94235Y-118474D01*
X93714Y-117573D01*
X92978Y-116837D01*
X92077Y-116317D01*
X91072Y-116047D01*
D02*
G37*
G36*
X81072D02*
X80031D01*
X79026Y-116317D01*
X78124Y-116837D01*
X77388Y-117573D01*
X76868Y-118474D01*
X76598Y-119480D01*
Y-120520D01*
X76868Y-121526D01*
X77388Y-122427D01*
X78124Y-123163D01*
X79026Y-123683D01*
X80031Y-123953D01*
X81072D01*
X82077Y-123683D01*
X82978Y-123163D01*
X83714Y-122427D01*
X84235Y-121526D01*
X84504Y-120520D01*
Y-119480D01*
X84235Y-118474D01*
X83714Y-117573D01*
X82978Y-116837D01*
X82077Y-116317D01*
X81072Y-116047D01*
D02*
G37*
G36*
X-9480D02*
X-10520D01*
X-11526Y-116317D01*
X-12427Y-116837D01*
X-13163Y-117573D01*
X-13683Y-118474D01*
X-13953Y-119480D01*
Y-120520D01*
X-13683Y-121526D01*
X-13163Y-122427D01*
X-12427Y-123163D01*
X-11526Y-123683D01*
X-10520Y-123953D01*
X-9480D01*
X-8474Y-123683D01*
X-7573Y-123163D01*
X-6837Y-122427D01*
X-6317Y-121526D01*
X-6047Y-120520D01*
Y-119480D01*
X-6317Y-118474D01*
X-6837Y-117573D01*
X-7573Y-116837D01*
X-8474Y-116317D01*
X-9480Y-116047D01*
D02*
G37*
G36*
X-97905D02*
X-98946D01*
X-99951Y-116317D01*
X-100852Y-116837D01*
X-101588Y-117573D01*
X-102109Y-118474D01*
X-102378Y-119480D01*
Y-120520D01*
X-102109Y-121526D01*
X-101588Y-122427D01*
X-100852Y-123163D01*
X-99951Y-123683D01*
X-98946Y-123953D01*
X-97905D01*
X-96899Y-123683D01*
X-95998Y-123163D01*
X-95262Y-122427D01*
X-94742Y-121526D01*
X-94472Y-120520D01*
Y-119480D01*
X-94742Y-118474D01*
X-95262Y-117573D01*
X-95998Y-116837D01*
X-96899Y-116317D01*
X-97905Y-116047D01*
D02*
G37*
G36*
X-107905D02*
X-108946D01*
X-109951Y-116317D01*
X-110852Y-116837D01*
X-111588Y-117573D01*
X-112109Y-118474D01*
X-112378Y-119480D01*
Y-120520D01*
X-112109Y-121526D01*
X-111588Y-122427D01*
X-110852Y-123163D01*
X-109951Y-123683D01*
X-108946Y-123953D01*
X-107905D01*
X-106899Y-123683D01*
X-105998Y-123163D01*
X-105262Y-122427D01*
X-104742Y-121526D01*
X-104472Y-120520D01*
Y-119480D01*
X-104742Y-118474D01*
X-105262Y-117573D01*
X-105998Y-116837D01*
X-106899Y-116317D01*
X-107905Y-116047D01*
D02*
G37*
G36*
X91072Y-126047D02*
X90031D01*
X89025Y-126317D01*
X88124Y-126837D01*
X87388Y-127573D01*
X86868Y-128474D01*
X86598Y-129480D01*
Y-130520D01*
X86868Y-131526D01*
X87388Y-132427D01*
X88124Y-133163D01*
X89025Y-133683D01*
X90031Y-133953D01*
X91072D01*
X92077Y-133683D01*
X92978Y-133163D01*
X93714Y-132427D01*
X94235Y-131526D01*
X94504Y-130520D01*
Y-129480D01*
X94235Y-128474D01*
X93714Y-127573D01*
X92978Y-126837D01*
X92077Y-126317D01*
X91072Y-126047D01*
D02*
G37*
G36*
X81072D02*
X80031D01*
X79026Y-126317D01*
X78124Y-126837D01*
X77388Y-127573D01*
X76868Y-128474D01*
X76598Y-129480D01*
Y-130520D01*
X76868Y-131526D01*
X77388Y-132427D01*
X78124Y-133163D01*
X79026Y-133683D01*
X80031Y-133953D01*
X81072D01*
X82077Y-133683D01*
X82978Y-133163D01*
X83714Y-132427D01*
X84235Y-131526D01*
X84504Y-130520D01*
Y-129480D01*
X84235Y-128474D01*
X83714Y-127573D01*
X82978Y-126837D01*
X82077Y-126317D01*
X81072Y-126047D01*
D02*
G37*
G36*
X-9480D02*
X-10520D01*
X-11526Y-126317D01*
X-12427Y-126837D01*
X-13163Y-127573D01*
X-13683Y-128474D01*
X-13953Y-129480D01*
Y-130520D01*
X-13683Y-131526D01*
X-13163Y-132427D01*
X-12427Y-133163D01*
X-11526Y-133683D01*
X-10520Y-133953D01*
X-9480D01*
X-8474Y-133683D01*
X-7573Y-133163D01*
X-6837Y-132427D01*
X-6317Y-131526D01*
X-6047Y-130520D01*
Y-129480D01*
X-6317Y-128474D01*
X-6837Y-127573D01*
X-7573Y-126837D01*
X-8474Y-126317D01*
X-9480Y-126047D01*
D02*
G37*
G36*
X-97905D02*
X-98946D01*
X-99951Y-126317D01*
X-100852Y-126837D01*
X-101588Y-127573D01*
X-102109Y-128474D01*
X-102378Y-129480D01*
Y-130520D01*
X-102109Y-131526D01*
X-101588Y-132427D01*
X-100852Y-133163D01*
X-99951Y-133683D01*
X-98946Y-133953D01*
X-97905D01*
X-96899Y-133683D01*
X-95998Y-133163D01*
X-95262Y-132427D01*
X-94742Y-131526D01*
X-94472Y-130520D01*
Y-129480D01*
X-94742Y-128474D01*
X-95262Y-127573D01*
X-95998Y-126837D01*
X-96899Y-126317D01*
X-97905Y-126047D01*
D02*
G37*
G36*
X-107905D02*
X-108946D01*
X-109951Y-126317D01*
X-110852Y-126837D01*
X-111588Y-127573D01*
X-112109Y-128474D01*
X-112378Y-129480D01*
Y-130520D01*
X-112109Y-131526D01*
X-111588Y-132427D01*
X-110852Y-133163D01*
X-109951Y-133683D01*
X-108946Y-133953D01*
X-107905D01*
X-106899Y-133683D01*
X-105998Y-133163D01*
X-105262Y-132427D01*
X-104742Y-131526D01*
X-104472Y-130520D01*
Y-129480D01*
X-104742Y-128474D01*
X-105262Y-127573D01*
X-105998Y-126837D01*
X-106899Y-126317D01*
X-107905Y-126047D01*
D02*
G37*
G36*
X91072Y-136047D02*
X90031D01*
X89025Y-136317D01*
X88124Y-136837D01*
X87388Y-137573D01*
X86868Y-138474D01*
X86598Y-139480D01*
Y-140520D01*
X86868Y-141526D01*
X87388Y-142427D01*
X88124Y-143163D01*
X89025Y-143683D01*
X90031Y-143953D01*
X91072D01*
X92077Y-143683D01*
X92978Y-143163D01*
X93714Y-142427D01*
X94235Y-141526D01*
X94504Y-140520D01*
Y-139480D01*
X94235Y-138474D01*
X93714Y-137573D01*
X92978Y-136837D01*
X92077Y-136317D01*
X91072Y-136047D01*
D02*
G37*
G36*
X81072D02*
X80031D01*
X79026Y-136317D01*
X78124Y-136837D01*
X77388Y-137573D01*
X76868Y-138474D01*
X76598Y-139480D01*
Y-140520D01*
X76868Y-141526D01*
X77388Y-142427D01*
X78124Y-143163D01*
X79026Y-143683D01*
X80031Y-143953D01*
X81072D01*
X82077Y-143683D01*
X82978Y-143163D01*
X83714Y-142427D01*
X84235Y-141526D01*
X84504Y-140520D01*
Y-139480D01*
X84235Y-138474D01*
X83714Y-137573D01*
X82978Y-136837D01*
X82077Y-136317D01*
X81072Y-136047D01*
D02*
G37*
G36*
X-9480D02*
X-10520D01*
X-11526Y-136317D01*
X-12427Y-136837D01*
X-13163Y-137573D01*
X-13683Y-138474D01*
X-13953Y-139480D01*
Y-140520D01*
X-13683Y-141526D01*
X-13163Y-142427D01*
X-12427Y-143163D01*
X-11526Y-143683D01*
X-10520Y-143953D01*
X-9480D01*
X-8474Y-143683D01*
X-7573Y-143163D01*
X-6837Y-142427D01*
X-6317Y-141526D01*
X-6047Y-140520D01*
Y-139480D01*
X-6317Y-138474D01*
X-6837Y-137573D01*
X-7573Y-136837D01*
X-8474Y-136317D01*
X-9480Y-136047D01*
D02*
G37*
G36*
X-97905D02*
X-98946D01*
X-99951Y-136317D01*
X-100852Y-136837D01*
X-101588Y-137573D01*
X-102109Y-138474D01*
X-102378Y-139480D01*
Y-140520D01*
X-102109Y-141526D01*
X-101588Y-142427D01*
X-100852Y-143163D01*
X-99951Y-143683D01*
X-98946Y-143953D01*
X-97905D01*
X-96899Y-143683D01*
X-95998Y-143163D01*
X-95262Y-142427D01*
X-94742Y-141526D01*
X-94472Y-140520D01*
Y-139480D01*
X-94742Y-138474D01*
X-95262Y-137573D01*
X-95998Y-136837D01*
X-96899Y-136317D01*
X-97905Y-136047D01*
D02*
G37*
G36*
X-107905D02*
X-108946D01*
X-109951Y-136317D01*
X-110852Y-136837D01*
X-111588Y-137573D01*
X-112109Y-138474D01*
X-112378Y-139480D01*
Y-140520D01*
X-112109Y-141526D01*
X-111588Y-142427D01*
X-110852Y-143163D01*
X-109951Y-143683D01*
X-108946Y-143953D01*
X-107905D01*
X-106899Y-143683D01*
X-105998Y-143163D01*
X-105262Y-142427D01*
X-104742Y-141526D01*
X-104472Y-140520D01*
Y-139480D01*
X-104742Y-138474D01*
X-105262Y-137573D01*
X-105998Y-136837D01*
X-106899Y-136317D01*
X-107905Y-136047D01*
D02*
G37*
G36*
X91072Y-146047D02*
X90031D01*
X89025Y-146317D01*
X88124Y-146837D01*
X87388Y-147573D01*
X86868Y-148474D01*
X86598Y-149480D01*
Y-150520D01*
X86868Y-151526D01*
X87388Y-152427D01*
X88124Y-153163D01*
X89025Y-153683D01*
X90031Y-153953D01*
X91072D01*
X92077Y-153683D01*
X92978Y-153163D01*
X93714Y-152427D01*
X94235Y-151526D01*
X94504Y-150520D01*
Y-149480D01*
X94235Y-148474D01*
X93714Y-147573D01*
X92978Y-146837D01*
X92077Y-146317D01*
X91072Y-146047D01*
D02*
G37*
G36*
X81072D02*
X80031D01*
X79026Y-146317D01*
X78124Y-146837D01*
X77388Y-147573D01*
X76868Y-148474D01*
X76598Y-149480D01*
Y-150520D01*
X76868Y-151526D01*
X77388Y-152427D01*
X78124Y-153163D01*
X79026Y-153683D01*
X80031Y-153953D01*
X81072D01*
X82077Y-153683D01*
X82978Y-153163D01*
X83714Y-152427D01*
X84235Y-151526D01*
X84504Y-150520D01*
Y-149480D01*
X84235Y-148474D01*
X83714Y-147573D01*
X82978Y-146837D01*
X82077Y-146317D01*
X81072Y-146047D01*
D02*
G37*
G36*
X-107905D02*
X-108946D01*
X-109951Y-146317D01*
X-110852Y-146837D01*
X-111588Y-147573D01*
X-112109Y-148474D01*
X-112378Y-149480D01*
Y-150520D01*
X-112109Y-151526D01*
X-111588Y-152427D01*
X-110852Y-153163D01*
X-109951Y-153683D01*
X-108946Y-153953D01*
X-107905D01*
X-106899Y-153683D01*
X-105998Y-153163D01*
X-105262Y-152427D01*
X-104742Y-151526D01*
X-104472Y-150520D01*
Y-149480D01*
X-104742Y-148474D01*
X-105262Y-147573D01*
X-105998Y-146837D01*
X-106899Y-146317D01*
X-107905Y-146047D01*
D02*
G37*
G36*
X91072Y-156047D02*
X90031D01*
X89025Y-156317D01*
X88124Y-156837D01*
X87388Y-157573D01*
X86868Y-158474D01*
X86598Y-159480D01*
Y-160520D01*
X86868Y-161526D01*
X87388Y-162427D01*
X88124Y-163163D01*
X89025Y-163683D01*
X90031Y-163953D01*
X91072D01*
X92077Y-163683D01*
X92978Y-163163D01*
X93714Y-162427D01*
X94235Y-161526D01*
X94504Y-160520D01*
Y-159480D01*
X94235Y-158474D01*
X93714Y-157573D01*
X92978Y-156837D01*
X92077Y-156317D01*
X91072Y-156047D01*
D02*
G37*
G36*
X81072D02*
X80031D01*
X79026Y-156317D01*
X78124Y-156837D01*
X77388Y-157573D01*
X76868Y-158474D01*
X76598Y-159480D01*
Y-160520D01*
X76868Y-161526D01*
X77388Y-162427D01*
X78124Y-163163D01*
X79026Y-163683D01*
X80031Y-163953D01*
X81072D01*
X82077Y-163683D01*
X82978Y-163163D01*
X83714Y-162427D01*
X84235Y-161526D01*
X84504Y-160520D01*
Y-159480D01*
X84235Y-158474D01*
X83714Y-157573D01*
X82978Y-156837D01*
X82077Y-156317D01*
X81072Y-156047D01*
D02*
G37*
G36*
X91072Y-166047D02*
X90031D01*
X89025Y-166317D01*
X88124Y-166837D01*
X87388Y-167573D01*
X86868Y-168474D01*
X86598Y-169480D01*
Y-170520D01*
X86868Y-171526D01*
X87388Y-172427D01*
X88124Y-173163D01*
X89025Y-173683D01*
X90031Y-173953D01*
X91072D01*
X92077Y-173683D01*
X92978Y-173163D01*
X93714Y-172427D01*
X94235Y-171526D01*
X94504Y-170520D01*
Y-169480D01*
X94235Y-168474D01*
X93714Y-167573D01*
X92978Y-166837D01*
X92077Y-166317D01*
X91072Y-166047D01*
D02*
G37*
G36*
X81072D02*
X80031D01*
X79026Y-166317D01*
X78124Y-166837D01*
X77388Y-167573D01*
X76868Y-168474D01*
X76598Y-169480D01*
Y-170520D01*
X76868Y-171526D01*
X77388Y-172427D01*
X78124Y-173163D01*
X79026Y-173683D01*
X80031Y-173953D01*
X81072D01*
X82077Y-173683D01*
X82978Y-173163D01*
X83714Y-172427D01*
X84235Y-171526D01*
X84504Y-170520D01*
Y-169480D01*
X84235Y-168474D01*
X83714Y-167573D01*
X82978Y-166837D01*
X82077Y-166317D01*
X81072Y-166047D01*
D02*
G37*
G36*
X-97905D02*
X-98946D01*
X-99951Y-166317D01*
X-100852Y-166837D01*
X-101588Y-167573D01*
X-102109Y-168474D01*
X-102378Y-169480D01*
Y-170520D01*
X-102109Y-171526D01*
X-101588Y-172427D01*
X-100852Y-173163D01*
X-99951Y-173683D01*
X-98946Y-173953D01*
X-97905D01*
X-96899Y-173683D01*
X-95998Y-173163D01*
X-95262Y-172427D01*
X-94742Y-171526D01*
X-94472Y-170520D01*
Y-169480D01*
X-94742Y-168474D01*
X-95262Y-167573D01*
X-95998Y-166837D01*
X-96899Y-166317D01*
X-97905Y-166047D01*
D02*
G37*
G36*
X-107905D02*
X-108946D01*
X-109951Y-166317D01*
X-110852Y-166837D01*
X-111588Y-167573D01*
X-112109Y-168474D01*
X-112378Y-169480D01*
Y-170520D01*
X-112109Y-171526D01*
X-111588Y-172427D01*
X-110852Y-173163D01*
X-109951Y-173683D01*
X-108946Y-173953D01*
X-107905D01*
X-106899Y-173683D01*
X-105998Y-173163D01*
X-105262Y-172427D01*
X-104742Y-171526D01*
X-104472Y-170520D01*
Y-169480D01*
X-104742Y-168474D01*
X-105262Y-167573D01*
X-105998Y-166837D01*
X-106899Y-166317D01*
X-107905Y-166047D01*
D02*
G37*
G36*
X-150980Y-36047D02*
X-152020D01*
X-153026Y-36317D01*
X-153927Y-36837D01*
X-154663Y-37573D01*
X-155183Y-38474D01*
X-155453Y-39480D01*
Y-40520D01*
X-155183Y-41526D01*
X-154663Y-42427D01*
X-153927Y-43163D01*
X-153026Y-43683D01*
X-152020Y-43953D01*
X-150980D01*
X-149974Y-43683D01*
X-149073Y-43163D01*
X-148337Y-42427D01*
X-147817Y-41526D01*
X-147547Y-40520D01*
Y-39480D01*
X-147817Y-38474D01*
X-148337Y-37573D01*
X-149073Y-36837D01*
X-149974Y-36317D01*
X-150980Y-36047D01*
D02*
G37*
G36*
X-160980D02*
X-162020D01*
X-163026Y-36317D01*
X-163927Y-36837D01*
X-164663Y-37573D01*
X-165183Y-38474D01*
X-165453Y-39480D01*
Y-40520D01*
X-165183Y-41526D01*
X-164663Y-42427D01*
X-163927Y-43163D01*
X-163026Y-43683D01*
X-162020Y-43953D01*
X-160980D01*
X-159974Y-43683D01*
X-159073Y-43163D01*
X-158337Y-42427D01*
X-157817Y-41526D01*
X-157547Y-40520D01*
Y-39480D01*
X-157817Y-38474D01*
X-158337Y-37573D01*
X-159073Y-36837D01*
X-159974Y-36317D01*
X-160980Y-36047D01*
D02*
G37*
G36*
X-124557Y-47138D02*
X-125443D01*
X-126298Y-47367D01*
X-127064Y-47810D01*
X-127690Y-48436D01*
X-128133Y-49202D01*
X-128362Y-50057D01*
Y-50943D01*
X-128133Y-51798D01*
X-127690Y-52564D01*
X-127064Y-53190D01*
X-126298Y-53633D01*
X-125443Y-53862D01*
X-124557D01*
X-123702Y-53633D01*
X-122936Y-53190D01*
X-122310Y-52564D01*
X-121867Y-51798D01*
X-121638Y-50943D01*
Y-50057D01*
X-121867Y-49202D01*
X-122310Y-48436D01*
X-122936Y-47810D01*
X-123702Y-47367D01*
X-124557Y-47138D01*
D02*
G37*
G36*
X-150980Y-46047D02*
X-152020D01*
X-153026Y-46317D01*
X-153927Y-46837D01*
X-154663Y-47573D01*
X-155183Y-48474D01*
X-155453Y-49480D01*
Y-50520D01*
X-155183Y-51526D01*
X-154663Y-52427D01*
X-153927Y-53163D01*
X-153026Y-53683D01*
X-152020Y-53953D01*
X-150980D01*
X-149974Y-53683D01*
X-149073Y-53163D01*
X-148337Y-52427D01*
X-147817Y-51526D01*
X-147547Y-50520D01*
Y-49480D01*
X-147817Y-48474D01*
X-148337Y-47573D01*
X-149073Y-46837D01*
X-149974Y-46317D01*
X-150980Y-46047D01*
D02*
G37*
G36*
X-160980D02*
X-162020D01*
X-163026Y-46317D01*
X-163927Y-46837D01*
X-164663Y-47573D01*
X-165183Y-48474D01*
X-165453Y-49480D01*
Y-50520D01*
X-165183Y-51526D01*
X-164663Y-52427D01*
X-163927Y-53163D01*
X-163026Y-53683D01*
X-162020Y-53953D01*
X-160980D01*
X-159974Y-53683D01*
X-159073Y-53163D01*
X-158337Y-52427D01*
X-157817Y-51526D01*
X-157547Y-50520D01*
Y-49480D01*
X-157817Y-48474D01*
X-158337Y-47573D01*
X-159073Y-46837D01*
X-159974Y-46317D01*
X-160980Y-46047D01*
D02*
G37*
G36*
X-150980Y-56047D02*
X-152020D01*
X-153026Y-56317D01*
X-153927Y-56837D01*
X-154663Y-57573D01*
X-155183Y-58474D01*
X-155453Y-59480D01*
Y-60520D01*
X-155183Y-61526D01*
X-154663Y-62427D01*
X-153927Y-63163D01*
X-153026Y-63683D01*
X-152020Y-63953D01*
X-150980D01*
X-149974Y-63683D01*
X-149073Y-63163D01*
X-148337Y-62427D01*
X-147817Y-61526D01*
X-147547Y-60520D01*
Y-59480D01*
X-147817Y-58474D01*
X-148337Y-57573D01*
X-149073Y-56837D01*
X-149974Y-56317D01*
X-150980Y-56047D01*
D02*
G37*
G36*
X-160980D02*
X-162020D01*
X-163026Y-56317D01*
X-163927Y-56837D01*
X-164663Y-57573D01*
X-165183Y-58474D01*
X-165453Y-59480D01*
Y-60520D01*
X-165183Y-61526D01*
X-164663Y-62427D01*
X-163927Y-63163D01*
X-163026Y-63683D01*
X-162020Y-63953D01*
X-160980D01*
X-159974Y-63683D01*
X-159073Y-63163D01*
X-158337Y-62427D01*
X-157817Y-61526D01*
X-157547Y-60520D01*
Y-59480D01*
X-157817Y-58474D01*
X-158337Y-57573D01*
X-159073Y-56837D01*
X-159974Y-56317D01*
X-160980Y-56047D01*
D02*
G37*
%LPD*%
D21*
X-5000Y-63000D02*
Y-55000D01*
Y-63000D02*
X-2724Y-65276D01*
X2776D01*
X-10000Y-50000D02*
X-5000Y-55000D01*
X2776Y-65276D02*
X8500Y-71000D01*
Y-162500D02*
Y-71000D01*
X5724Y-165276D02*
X8500Y-162500D01*
X-5276Y-165276D02*
X5724D01*
X-10000Y-170000D02*
X-5276Y-165276D01*
X-196370Y-39370D02*
X-177000Y-20000D01*
X-161500D01*
X-214409Y-39370D02*
X-196370D01*
D27*
X-108425Y-160000D02*
X-103675Y-155250D01*
X3750D01*
X5500Y-153500D01*
Y-78000D01*
X2028Y-74528D02*
X5500Y-78000D01*
X-10000Y-70000D02*
X-5472Y-74528D01*
X2028D01*
D29*
X-161500Y-20000D02*
D03*
X-261772Y-160000D02*
D03*
X-251772D02*
D03*
X-261772Y-170000D02*
D03*
X-251772D02*
D03*
X-10000D02*
D03*
Y-70000D02*
D03*
Y-50000D02*
D03*
X-108425Y-160000D02*
D03*
X-251772Y-100000D02*
D03*
X-261772D02*
D03*
X-251772Y-80000D02*
D03*
X-261772D02*
D03*
X-251772Y-60000D02*
D03*
X-261772D02*
D03*
X-251772Y-50000D02*
D03*
X-261772D02*
D03*
X-251772Y-20000D02*
D03*
X-261772D02*
D03*
X-251772Y-10000D02*
D03*
X-261772D02*
D03*
D31*
X-214567Y-39370D02*
D03*
D32*
X-54154Y-87347D02*
D03*
X-15500Y-46000D02*
D03*
X-185000Y-75500D02*
D03*
X-187500Y-155500D02*
D03*
X-132500Y-52000D02*
D03*
Y-5000D02*
D03*
X-187500Y-57870D02*
D03*
X-133000Y-92000D02*
D03*
X-57000Y-20500D02*
D03*
X36000Y-40000D02*
D03*
X35500Y-10500D02*
D03*
D33*
X-206000Y-115500D02*
X-185000Y-94500D01*
Y-75500D01*
X-196000Y-77000D02*
X-187500Y-68500D01*
Y-57870D01*
X-196000Y-94500D02*
Y-77000D01*
X-236272Y-115500D02*
X-206000D01*
X-251772Y-100000D02*
X-236272Y-115500D01*
X-261772Y-80000D02*
X-251772D01*
X-224772Y-107000D01*
X-208500D01*
X-196000Y-94500D01*
D34*
X-261772Y-100000D02*
X-251772D01*
M02*
