G04*
G04 #@! TF.GenerationSoftware,Altium Limited,Altium Designer,22.4.2 (48)*
G04*
G04 Layer_Color=8388736*
%FSLAX25Y25*%
%MOIN*%
G70*
G04*
G04 #@! TF.SameCoordinates,4CF85C7E-ED7B-4693-B97B-18F97556DA9E*
G04*
G04*
G04 #@! TF.FilePolarity,Negative*
G04*
G01*
G75*
%ADD14R,0.01878X0.02862*%
%ADD15R,0.07193X0.04831*%
%ADD16R,0.04831X0.07193*%
%ADD17R,0.04043X0.03650*%
%ADD18C,0.06406*%
%ADD19R,0.06406X0.06406*%
%ADD20C,0.10343*%
D14*
X-68000Y-94268D02*
D03*
X-65441D02*
D03*
X-62882D02*
D03*
Y-86000D02*
D03*
X-65441D02*
D03*
X-68000D02*
D03*
D15*
X-65441Y-90134D02*
D03*
X-187500Y-54315D02*
D03*
Y-43685D02*
D03*
X-187000Y-161685D02*
D03*
Y-172315D02*
D03*
X-132500Y-163685D02*
D03*
Y-174315D02*
D03*
Y-85815D02*
D03*
Y-75185D02*
D03*
Y-46815D02*
D03*
Y-36185D02*
D03*
Y-11685D02*
D03*
Y-22315D02*
D03*
X-40500Y-39685D02*
D03*
Y-50315D02*
D03*
D16*
X-196815Y-8000D02*
D03*
X-186185D02*
D03*
X-196815Y-19000D02*
D03*
X-186185D02*
D03*
X-182315Y-83500D02*
D03*
X-171685D02*
D03*
X-182315Y-93000D02*
D03*
X-171685D02*
D03*
X-49815Y-20500D02*
D03*
X-39185D02*
D03*
X41185Y-40000D02*
D03*
X51815D02*
D03*
X42185Y-10500D02*
D03*
X52815D02*
D03*
D17*
X-172000Y-8307D02*
D03*
X-172039Y-1772D02*
D03*
X-179000Y-1693D02*
D03*
X-178961Y-8228D02*
D03*
X-172039Y-18693D02*
D03*
X-172000Y-25228D02*
D03*
X-178961Y-25307D02*
D03*
X-179000Y-18772D02*
D03*
X-172039Y-49193D02*
D03*
X-172000Y-55728D02*
D03*
X-178961Y-56307D02*
D03*
X-179000Y-49772D02*
D03*
X-178961Y-75807D02*
D03*
X-179000Y-69272D02*
D03*
X-172039Y-69193D02*
D03*
X-172000Y-75728D02*
D03*
X-172039Y-100193D02*
D03*
X-172000Y-106728D02*
D03*
X-178961Y-106807D02*
D03*
X-179000Y-100272D02*
D03*
X-172039Y-163693D02*
D03*
X-172000Y-170228D02*
D03*
X-178961Y-170307D02*
D03*
X-179000Y-163772D02*
D03*
X-124539Y-164693D02*
D03*
X-124500Y-171228D02*
D03*
X-116961Y-171307D02*
D03*
X-117000Y-164772D02*
D03*
X-124539Y-68693D02*
D03*
X-124500Y-75228D02*
D03*
X-116961Y-75307D02*
D03*
X-117000Y-68772D02*
D03*
X-116961Y-44807D02*
D03*
X-117000Y-38272D02*
D03*
X-124539Y-38193D02*
D03*
X-124500Y-44728D02*
D03*
X-117000Y-12193D02*
D03*
X-116961Y-18728D02*
D03*
X-124500Y-19307D02*
D03*
X-124539Y-12772D02*
D03*
X-57539Y-86693D02*
D03*
X-57500Y-93228D02*
D03*
X-21539Y-51193D02*
D03*
X-21500Y-57728D02*
D03*
X-30961Y-58307D02*
D03*
X-31000Y-51772D02*
D03*
X-21961Y-18807D02*
D03*
X-22000Y-12272D02*
D03*
X-30539Y-12693D02*
D03*
X-30500Y-19228D02*
D03*
X61461Y-32965D02*
D03*
X61500Y-39500D02*
D03*
X69539Y-39307D02*
D03*
X69500Y-32772D02*
D03*
X69039Y-9307D02*
D03*
X69000Y-2772D02*
D03*
X60461Y-2693D02*
D03*
X60500Y-9228D02*
D03*
D18*
X-161500Y0D02*
D03*
X-151500D02*
D03*
X-161500Y-10000D02*
D03*
X-151500D02*
D03*
X-161500Y-20000D02*
D03*
X-151500D02*
D03*
X-161500Y-30000D02*
D03*
X-151500D02*
D03*
X-161500Y-40000D02*
D03*
X-151500D02*
D03*
X-161500Y-50000D02*
D03*
X-151500D02*
D03*
X-161500Y-60000D02*
D03*
X-151500D02*
D03*
X-161500Y-70000D02*
D03*
X-151500D02*
D03*
X-161500Y-80000D02*
D03*
X-151500D02*
D03*
X-161500Y-90000D02*
D03*
X-151500D02*
D03*
X-161500Y-100000D02*
D03*
X-151500D02*
D03*
X-161500Y-110000D02*
D03*
X-151500D02*
D03*
X-161500Y-120000D02*
D03*
X-151500D02*
D03*
X-161500Y-130000D02*
D03*
X-151500D02*
D03*
X-161500Y-140000D02*
D03*
X-151500D02*
D03*
X-161500Y-150000D02*
D03*
X-151500D02*
D03*
X-161500Y-160000D02*
D03*
X-151500D02*
D03*
X-161500Y-170000D02*
D03*
X80551Y0D02*
D03*
Y-10000D02*
D03*
Y-20000D02*
D03*
X-261772Y-160000D02*
D03*
X-251772D02*
D03*
X-261772Y-170000D02*
D03*
X-251772D02*
D03*
X80551D02*
D03*
X90551D02*
D03*
X80551Y-160000D02*
D03*
X90551Y-130000D02*
D03*
X80551Y-90000D02*
D03*
X90551Y-70000D02*
D03*
Y-50000D02*
D03*
Y-40000D02*
D03*
Y-30000D02*
D03*
Y-20000D02*
D03*
Y-10000D02*
D03*
X-98425Y-90000D02*
D03*
X-108425D02*
D03*
X-98425Y-100000D02*
D03*
Y-110000D02*
D03*
Y-120000D02*
D03*
Y-130000D02*
D03*
Y-140000D02*
D03*
Y-150000D02*
D03*
Y-160000D02*
D03*
Y-170000D02*
D03*
X0Y-10000D02*
D03*
Y-20000D02*
D03*
Y-30000D02*
D03*
Y-40000D02*
D03*
Y-50000D02*
D03*
Y-60000D02*
D03*
Y-70000D02*
D03*
Y-80000D02*
D03*
Y-90000D02*
D03*
Y-100000D02*
D03*
Y-110000D02*
D03*
Y-120000D02*
D03*
Y-130000D02*
D03*
X-10000D02*
D03*
X0Y-140000D02*
D03*
Y-150000D02*
D03*
Y-160000D02*
D03*
Y-170000D02*
D03*
X-261772Y-120000D02*
D03*
X-251772D02*
D03*
X-261772Y-130000D02*
D03*
X-251772D02*
D03*
X80551Y-30000D02*
D03*
Y-40000D02*
D03*
Y-50000D02*
D03*
X90551Y-60000D02*
D03*
X80551D02*
D03*
Y-70000D02*
D03*
X90551Y-80000D02*
D03*
X80551D02*
D03*
X90551Y-90000D02*
D03*
Y-100000D02*
D03*
X80551D02*
D03*
X90551Y-110000D02*
D03*
X80551D02*
D03*
X90551Y-120000D02*
D03*
X80551D02*
D03*
Y-130000D02*
D03*
X90551Y-140000D02*
D03*
X80551D02*
D03*
X90551Y-150000D02*
D03*
X80551D02*
D03*
X90551Y-160000D02*
D03*
X-10000Y-170000D02*
D03*
Y-160000D02*
D03*
Y-150000D02*
D03*
Y-140000D02*
D03*
Y-120000D02*
D03*
Y-110000D02*
D03*
Y-100000D02*
D03*
Y-90000D02*
D03*
Y-80000D02*
D03*
Y-70000D02*
D03*
Y-60000D02*
D03*
Y-50000D02*
D03*
Y-40000D02*
D03*
Y-30000D02*
D03*
Y-20000D02*
D03*
Y-10000D02*
D03*
Y0D02*
D03*
X-108425Y-170000D02*
D03*
Y-160000D02*
D03*
Y-150000D02*
D03*
Y-140000D02*
D03*
Y-130000D02*
D03*
Y-120000D02*
D03*
Y-110000D02*
D03*
Y-100000D02*
D03*
Y-80000D02*
D03*
X-98425D02*
D03*
X-108425Y-70000D02*
D03*
X-98425D02*
D03*
X-108425Y-60000D02*
D03*
X-98425D02*
D03*
X-108425Y-50000D02*
D03*
X-98425D02*
D03*
X-108425Y-40000D02*
D03*
X-98425D02*
D03*
X-108425Y-30000D02*
D03*
X-98425D02*
D03*
X-108425Y-20000D02*
D03*
X-98425D02*
D03*
X-108425Y-10000D02*
D03*
X-98425D02*
D03*
X-108425Y0D02*
D03*
X-251772Y-150000D02*
D03*
X-261772D02*
D03*
X-251772Y-140000D02*
D03*
X-261772D02*
D03*
X-251772Y-110000D02*
D03*
X-261772D02*
D03*
X-251772Y-100000D02*
D03*
X-261772D02*
D03*
X-251772Y-90000D02*
D03*
X-261772D02*
D03*
X-251772Y-80000D02*
D03*
X-261772D02*
D03*
X-251772Y-70000D02*
D03*
X-261772D02*
D03*
X-251772Y-60000D02*
D03*
X-261772D02*
D03*
X-251772Y-50000D02*
D03*
X-261772D02*
D03*
X-251772Y-40000D02*
D03*
X-261772D02*
D03*
X-251772Y-30000D02*
D03*
X-261772D02*
D03*
X-251772Y-20000D02*
D03*
X-261772D02*
D03*
X-251772Y-10000D02*
D03*
X-261772D02*
D03*
X-251772Y0D02*
D03*
D19*
X-151500Y-170000D02*
D03*
X90551Y0D02*
D03*
X0D02*
D03*
X-98425D02*
D03*
X-261772D02*
D03*
D20*
X-204724Y-29528D02*
D03*
X-224410D02*
D03*
Y-49213D02*
D03*
X-204724D02*
D03*
X-214567Y-39370D02*
D03*
M02*
