G04*
G04 #@! TF.GenerationSoftware,Altium Limited,Altium Designer,22.4.2 (48)*
G04*
G04 Layer_Physical_Order=1*
G04 Layer_Color=255*
%FSLAX25Y25*%
%MOIN*%
G70*
G04*
G04 #@! TF.SameCoordinates,CDC420FF-F511-4FEA-BDED-44E7EBAE7E28*
G04*
G04*
G04 #@! TF.FilePolarity,Positive*
G04*
G01*
G75*
%ADD10C,0.00984*%
%ADD20C,0.01968*%
%ADD21C,0.01968*%
%ADD22R,0.01378X0.02362*%
%ADD23R,0.06693X0.04331*%
%ADD24R,0.04331X0.06693*%
%ADD25R,0.03543X0.03150*%
%ADD26C,0.01575*%
%ADD27C,0.03937*%
%ADD28R,0.05906X0.05906*%
%ADD29C,0.05906*%
%ADD30C,0.09843*%
%ADD31C,0.04724*%
D10*
X-58621Y-98500D02*
G03*
X-49877Y-94877I7J12346D01*
G01*
X-45793Y-91500D02*
G03*
X-47000Y-92000I0J-1707D01*
G01*
X-49877Y-94877D02*
G03*
X-49875Y-94875I-8737J8723D01*
G01*
X-47713Y-87787D02*
G03*
X-44793Y-89000I2920J2908D01*
G01*
X-50496Y-85004D02*
G03*
X-54121Y-83500I-3625J-3617D01*
G01*
X-67022Y-96366D02*
G03*
X-66466Y-96869I5144J5132D01*
G01*
X-61891Y-98500D02*
G03*
X-61879Y-98500I12J7266D01*
G01*
X-49875Y-94875D02*
X-47000Y-92000D01*
X-45793Y-91500D02*
X-19998D01*
X-13498Y-85000D01*
X-44789Y-89000D02*
X-21000D01*
X-50495Y-85005D02*
X-47713Y-87787D01*
X-47713Y-87787D01*
X-44793Y-89000D02*
X-44789Y-89000D01*
X-50496Y-85004D02*
X-50495Y-85005D01*
X-66620Y-83500D02*
X-54121D01*
X-61663Y-96728D02*
X-60909Y-96440D01*
X-61879Y-98500D02*
X-61874Y-98500D01*
X-64835D02*
X-61891D01*
X-66466Y-96869D02*
X-64835Y-98500D01*
X-67023Y-96366D02*
X-67022Y-96366D01*
X-67803Y-95585D02*
X-67023Y-96366D01*
X-60909Y-96440D02*
X-57697Y-93228D01*
X-64850Y-95979D02*
X-64101Y-96728D01*
X-61663D01*
X-65244Y-94957D02*
X-64850Y-95979D01*
X-61874Y-98500D02*
X-58627D01*
X-65441Y-94268D02*
X-65244Y-94957D01*
X-57697Y-93228D02*
X-57500D01*
X-54728D01*
X-58627Y-98500D02*
X-58621Y-98500D01*
X-67803Y-95585D02*
Y-94465D01*
X-54728Y-93228D02*
X-54000Y-92500D01*
X-54807Y-86693D02*
X-53500Y-88000D01*
X-57539Y-86693D02*
X-54807D01*
X-17500Y-80000D02*
X-13000Y-75500D01*
X-17500Y-85500D02*
Y-80000D01*
X-21000Y-89000D02*
X-17500Y-85500D01*
X-13000Y-75500D02*
X6500D01*
X-68000Y-94268D02*
X-67803Y-94465D01*
Y-85803D02*
Y-84683D01*
X-66620Y-83500D01*
X-68000Y-86000D02*
X-67803Y-85803D01*
X-62882Y-86000D02*
X-58232D01*
X-65441D02*
X-62882D01*
X-58232D02*
X-57539Y-86693D01*
X12000Y-70000D02*
X80551D01*
X6500Y-75500D02*
X12000Y-70000D01*
D20*
X-125000Y-50500D02*
G03*
X-125566Y-49188I-1967J-70D01*
G01*
X-116297Y-47078D02*
G03*
X-116500Y-47719I1353J-781D01*
G01*
X-178961Y-170307D02*
X-170193D01*
X-166575Y-165000D02*
X-157087D01*
X-152087Y-170000D01*
X-171803Y-170228D02*
X-166575Y-165000D01*
X-172000Y-170228D02*
X-171803D01*
X-152087Y-50000D02*
Y-40000D01*
X-167374Y-44724D02*
X-156811D01*
X-152087Y-40000D01*
X-172039Y-49193D02*
X-171843D01*
X-167374Y-44724D01*
X-185878Y-18693D02*
X-172039D01*
X-167461D01*
X-156811Y-14724D02*
X-152087Y-10000D01*
X-163493Y-14724D02*
X-156811D01*
X-167461Y-18693D02*
X-163493Y-14724D01*
X-168717Y-7717D02*
X-165724Y-4724D01*
X-156811D02*
X-152087Y0D01*
X-165724Y-4724D02*
X-156811D01*
X-21815Y-39685D02*
X-15500Y-46000D01*
X-40500Y-39685D02*
X-21815D01*
X-39685Y-52000D02*
X-13065D01*
X-40500Y-39685D02*
X-39342Y-38527D01*
X-185500Y-108473D02*
X-183496Y-106469D01*
X-185500Y-109000D02*
Y-108473D01*
X-183496Y-106469D02*
Y-92996D01*
X-182500Y-92000D01*
X-185000Y-75500D02*
X-184473Y-76027D01*
X-184000Y-80634D02*
X-182315Y-82319D01*
X-184000Y-80634D02*
Y-78031D01*
X-184473Y-77558D02*
X-184000Y-78031D01*
X-184473Y-77558D02*
Y-76027D01*
X-182315Y-83500D02*
Y-82319D01*
X-225000Y0D02*
X-206000Y-19000D01*
X-196815D01*
X-251772Y0D02*
X-225000D01*
X-261772D02*
X-251772D01*
X-197815Y-18000D02*
X-196815Y-19000D01*
X-202500Y-8000D02*
X-196815D01*
X-178980Y-112980D02*
Y-106827D01*
X-178961Y-106807D01*
X-179000Y-113000D02*
X-178980Y-112980D01*
Y-69252D02*
Y-56327D01*
X-179000Y-69272D02*
X-178980Y-69252D01*
Y-56327D02*
X-178961Y-56307D01*
X-184102Y-44866D02*
X-179197Y-49772D01*
X-186319Y-44866D02*
X-184102D01*
X-179197Y-49772D02*
X-179000D01*
X-187246Y-43939D02*
X-186319Y-44866D01*
X-178711Y-49482D02*
X-172329D01*
X-172039Y-49193D01*
X-179000Y-49772D02*
X-178711Y-49482D01*
X-178980Y-25327D02*
X-178961Y-25307D01*
X-178980Y-30480D02*
Y-25327D01*
X-179000Y-30500D02*
X-178980Y-30480D01*
X-186185Y-19000D02*
X-185878Y-18693D01*
Y-8307D02*
X-172000D01*
X-186185Y-8000D02*
X-185878Y-8307D01*
X-178750Y-1443D02*
Y2750D01*
X-179000Y-1693D02*
X-178750Y-1443D01*
Y2750D02*
X-178500Y3000D01*
X-179500Y-163772D02*
Y-159000D01*
X-170193Y-170307D02*
X-170000Y-170114D01*
X-180665Y-171315D02*
X-179657Y-170307D01*
X-188500Y-171315D02*
X-180665D01*
X-179657Y-170307D02*
X-178961D01*
X-172000Y-31500D02*
Y-25228D01*
X-171409Y-7717D02*
X-168717D01*
X-172000Y-8307D02*
X-171409Y-7717D01*
X-172020Y3480D02*
X-172000Y3500D01*
X-172039Y-1772D02*
X-172020Y-1752D01*
Y3480D01*
X-172000Y-113000D02*
Y-106728D01*
X-172039Y-163693D02*
X-172020Y-163673D01*
Y-158520D01*
X-172000Y-158500D01*
X-133000Y-163185D02*
Y-157500D01*
Y-163185D02*
X-132500Y-163685D01*
X-124520Y-159020D02*
X-124500Y-159000D01*
X-124539Y-164693D02*
X-124520Y-164673D01*
Y-159020D01*
X-124500Y-159746D02*
Y-159000D01*
X-117000Y-164772D02*
Y-159500D01*
X-118823Y-76973D02*
X-117157Y-75307D01*
X-120473Y-76973D02*
X-118823D01*
X-121000Y-77500D02*
X-120473Y-76973D01*
X-117157Y-75307D02*
X-116961D01*
X-117000Y-75268D02*
X-116961Y-75307D01*
X-132500Y-52000D02*
Y-46815D01*
X-133027Y-51473D02*
X-132500Y-52000D01*
X-133842Y-51473D02*
X-133027D01*
X-125566Y-49188D02*
X-125566Y-49188D01*
X-125000Y-50500D02*
X-124750Y-50250D01*
X-125000Y-50500D02*
X-125000Y-50500D01*
X-124750Y-50250D02*
Y-44978D01*
X-124500Y-44728D01*
X-116548Y-45689D02*
Y-45398D01*
Y-45689D02*
X-116297Y-46224D01*
Y-46662D02*
Y-46224D01*
X-116961Y-44807D02*
X-116548Y-45398D01*
X-116297Y-47078D02*
Y-46662D01*
X-116500Y-51000D02*
Y-47719D01*
X-131319Y-21134D02*
X-128134D01*
X-126898Y-19898D02*
X-124744D01*
X-116961Y-19654D02*
X-108772D01*
X-124500D02*
X-116961D01*
X-132500Y-22315D02*
X-131319Y-21134D01*
X-128134D02*
X-126898Y-19898D01*
X-124744D02*
X-124500Y-19654D01*
X-132500Y-11685D02*
Y-5000D01*
X-124539Y-12772D02*
X-124520Y-12752D01*
Y-6520D01*
X-124500Y-6500D01*
X-116500Y-8746D02*
Y-8000D01*
X-117000Y-12193D02*
Y-9246D01*
X-116500Y-8746D01*
X-187500Y-57870D02*
Y-54315D01*
X-186185Y-19000D02*
Y-17819D01*
X-108425Y-40000D02*
Y-30000D01*
X-128039Y-38193D02*
X-111298D01*
X-109491Y-40000D01*
X-108425D01*
X-130244Y-36185D02*
X-128236Y-38193D01*
X-128039D01*
X-108425Y-20000D02*
Y-10000D01*
X-108772Y-19654D02*
X-108425Y-20000D01*
X-21500Y-64000D02*
Y-57728D01*
X-30961Y-63039D02*
Y-58307D01*
X-10000Y-50000D02*
Y-40000D01*
X-13065Y-52000D02*
X-11065Y-50000D01*
X-10000D01*
X-30539Y-12693D02*
Y-6961D01*
X-22000Y-12272D02*
Y-6500D01*
X36000Y-40000D02*
X41185D01*
X61461Y-32965D02*
Y-28039D01*
X69500Y-32772D02*
Y-28000D01*
X51815Y-40000D02*
X80551D01*
Y-30000D01*
Y-50000D02*
Y-40000D01*
X35500Y-10500D02*
X42185D01*
X69000Y-2772D02*
Y2000D01*
X60461Y-2693D02*
Y2039D01*
X53996Y-9307D02*
X69039D01*
X69386Y-9653D01*
X80205D01*
X80551Y-10000D01*
Y0D01*
Y-20000D02*
Y-10000D01*
X52815Y-10500D02*
Y-10488D01*
X53996Y-9307D01*
D21*
X-116297Y-46662D02*
D03*
D22*
X-68000Y-94268D02*
D03*
X-65441D02*
D03*
X-62882D02*
D03*
Y-86000D02*
D03*
X-65441D02*
D03*
X-68000D02*
D03*
D23*
X-65441Y-90134D02*
D03*
X-187500Y-54315D02*
D03*
Y-43685D02*
D03*
X-187000Y-161685D02*
D03*
Y-172315D02*
D03*
X-132500Y-163685D02*
D03*
Y-174315D02*
D03*
Y-85815D02*
D03*
Y-75185D02*
D03*
Y-46815D02*
D03*
Y-36185D02*
D03*
Y-11685D02*
D03*
Y-22315D02*
D03*
X-40500Y-39685D02*
D03*
Y-50315D02*
D03*
D24*
X-196815Y-8000D02*
D03*
X-186185D02*
D03*
X-196815Y-19000D02*
D03*
X-186185D02*
D03*
X-182315Y-83500D02*
D03*
X-171685D02*
D03*
X-182315Y-93000D02*
D03*
X-171685D02*
D03*
X-49815Y-20500D02*
D03*
X-39185D02*
D03*
X41185Y-40000D02*
D03*
X51815D02*
D03*
X42185Y-10500D02*
D03*
X52815D02*
D03*
D25*
X-172000Y-8307D02*
D03*
X-172039Y-1772D02*
D03*
X-179000Y-1693D02*
D03*
X-178961Y-8228D02*
D03*
X-172039Y-18693D02*
D03*
X-172000Y-25228D02*
D03*
X-178961Y-25307D02*
D03*
X-179000Y-18772D02*
D03*
X-172039Y-49193D02*
D03*
X-172000Y-55728D02*
D03*
X-178961Y-56307D02*
D03*
X-179000Y-49772D02*
D03*
X-178961Y-75807D02*
D03*
X-179000Y-69272D02*
D03*
X-172039Y-69193D02*
D03*
X-172000Y-75728D02*
D03*
X-172039Y-100193D02*
D03*
X-172000Y-106728D02*
D03*
X-178961Y-106807D02*
D03*
X-179000Y-100272D02*
D03*
X-172039Y-163693D02*
D03*
X-172000Y-170228D02*
D03*
X-178961Y-170307D02*
D03*
X-179000Y-163772D02*
D03*
X-124539Y-164693D02*
D03*
X-124500Y-171228D02*
D03*
X-116961Y-171307D02*
D03*
X-117000Y-164772D02*
D03*
X-124539Y-68693D02*
D03*
X-124500Y-75228D02*
D03*
X-116961Y-75307D02*
D03*
X-117000Y-68772D02*
D03*
X-116961Y-44807D02*
D03*
X-117000Y-38272D02*
D03*
X-124539Y-38193D02*
D03*
X-124500Y-44728D02*
D03*
X-117000Y-12193D02*
D03*
X-116961Y-18728D02*
D03*
X-124500Y-19307D02*
D03*
X-124539Y-12772D02*
D03*
X-57539Y-86693D02*
D03*
X-57500Y-93228D02*
D03*
X-21539Y-51193D02*
D03*
X-21500Y-57728D02*
D03*
X-30961Y-58307D02*
D03*
X-31000Y-51772D02*
D03*
X-21961Y-18807D02*
D03*
X-22000Y-12272D02*
D03*
X-30539Y-12693D02*
D03*
X-30500Y-19228D02*
D03*
X61461Y-32965D02*
D03*
X61500Y-39500D02*
D03*
X69539Y-39307D02*
D03*
X69500Y-32772D02*
D03*
X69039Y-9307D02*
D03*
X69000Y-2772D02*
D03*
X60461Y-2693D02*
D03*
X60500Y-9228D02*
D03*
D26*
X-147087Y-145000D02*
X-35000D01*
X-152087Y-150000D02*
X-147087Y-145000D01*
X-148000Y-135000D02*
X-35000D01*
X-152087Y-139087D02*
X-148000Y-135000D01*
X-152087Y-140000D02*
Y-139087D01*
X-146000Y-125000D02*
X-35000D01*
X-152087Y-130000D02*
X-151000D01*
X-146000Y-125000D01*
X-147559Y-115472D02*
X-35472D01*
X-152087Y-120000D02*
X-147559Y-115472D01*
X-166000Y-105000D02*
X-157087D01*
X-171252Y-100980D02*
X-170020D01*
X-172039Y-100193D02*
X-171252Y-100980D01*
X-170020D02*
X-166000Y-105000D01*
X-157087D02*
X-152087Y-100000D01*
X-179000Y-100096D02*
X-172039D01*
X-152087Y-110000D02*
X-145087Y-103000D01*
X-132000D02*
X-113724Y-84724D01*
X-145087Y-103000D02*
X-132000D01*
X-138374Y-80000D02*
X-136937Y-81437D01*
X-152087Y-80000D02*
X-138374D01*
X-152087Y-70000D02*
Y-60000D01*
X-172000Y-75728D02*
X-169614D01*
X-168413Y-74528D02*
X-156614D01*
X-169614Y-75728D02*
X-168413Y-74528D01*
X-156614D02*
X-152087Y-70000D01*
X-16500Y-62000D02*
X-13500Y-65000D01*
X6500D01*
X11500Y-60000D01*
X-86158Y-55158D02*
X-26327D01*
X-95224Y-84724D02*
X-92500Y-82000D01*
Y-61500D02*
X-86158Y-55158D01*
X-92500Y-82000D02*
Y-61500D01*
X-113724Y-84724D02*
X-95224D01*
X-19076Y-54579D02*
X-16500Y-57155D01*
Y-62000D02*
Y-57155D01*
X-26327Y-55158D02*
X-25749Y-54579D01*
X-19076D01*
X-35472Y-115472D02*
X-10000Y-90000D01*
X-35000Y-125000D02*
X-10000Y-100000D01*
X-35000Y-145000D02*
X-10000Y-120000D01*
X-171862Y-99919D02*
Y-93177D01*
X-171685Y-93000D01*
X-172039Y-100096D02*
X-171862Y-99919D01*
X-173500Y-75768D02*
X-172039D01*
X-178921D02*
X-173500D01*
X-171685Y-77583D01*
Y-83500D02*
Y-77583D01*
X-172270Y-68963D02*
X-172039Y-69193D01*
X-172500Y-62500D02*
X-172250Y-62250D01*
Y-55978D01*
X-172500Y-62500D02*
X-172270Y-62730D01*
X-172250Y-55978D02*
X-172000Y-55728D01*
X-172270Y-68963D02*
Y-62730D01*
X-179157Y-75807D02*
X-178961D01*
X-178921Y-75768D01*
X-172039D02*
X-172000Y-75728D01*
X-117517Y-81437D02*
X-112667Y-76587D01*
X-136937Y-81437D02*
X-117517D01*
X-112667Y-74242D02*
X-108425Y-70000D01*
X-112667Y-76587D02*
Y-74242D01*
X67276Y-84724D02*
X85827D01*
X-5276D02*
X6000D01*
X11276Y-90000D01*
X62000D01*
X67276Y-84724D01*
X11500Y-60000D02*
X80551D01*
X-10000D02*
X-5276Y-55276D01*
X85827D01*
X90551Y-60000D01*
X-35000Y-135000D02*
X-10000Y-110000D01*
Y-80000D02*
X-5276Y-84724D01*
X85827D02*
X90551Y-80000D01*
X-10000Y-90000D02*
X-5276Y-94724D01*
X85827D01*
X90551Y-90000D01*
X-10000Y-100000D02*
X-5276Y-104724D01*
X85827D01*
X90551Y-100000D01*
X-5276Y-114724D02*
X85827D01*
X-10000Y-110000D02*
X-5276Y-114724D01*
X85827D02*
X90551Y-110000D01*
X-10000Y-120000D02*
X-5276Y-124724D01*
X85827D02*
X90551Y-120000D01*
X-5276Y-124724D02*
X85827D01*
X-10000Y-140000D02*
X-5276Y-144724D01*
X85827D01*
X90551Y-140000D01*
X-10000Y-150000D02*
X-5276Y-154724D01*
X85827D01*
X90551Y-150000D01*
X-10000Y-160000D02*
X-5276Y-164724D01*
X85827D01*
X90551Y-160000D01*
D27*
X-187349Y-161488D02*
X-187153Y-161685D01*
X-187349Y-161488D02*
Y-155651D01*
X-187500Y-155500D02*
X-187349Y-155651D01*
X-187153Y-161685D02*
X-187000D01*
X-108958Y-170000D02*
X-108425D01*
X-124500Y-171228D02*
X-117829D01*
X-128000D02*
X-124500D01*
X-110265Y-171307D02*
X-108958Y-170000D01*
X-117750Y-171307D02*
X-110265D01*
X-117829Y-171228D02*
X-117750Y-171307D01*
X-132849Y-86012D02*
X-132652Y-85815D01*
X-133000Y-92000D02*
X-132849Y-91849D01*
X-132652Y-85815D02*
X-132500D01*
X-132849Y-91849D02*
Y-86012D01*
X-131122Y-74988D02*
Y-71622D01*
X-131319Y-75185D02*
X-131122Y-74988D01*
X-128193Y-68693D02*
X-124539D01*
X-132500Y-75185D02*
X-131319D01*
X-131122Y-71622D02*
X-128193Y-68693D01*
X-117197Y-68772D02*
X-108425Y-60000D01*
X-117197Y-68772D02*
X-117000D01*
X-125287D02*
X-117197D01*
X-130890Y-174118D02*
X-128000Y-171228D01*
X-108425Y-60000D02*
Y-50000D01*
X-57000Y-20500D02*
X-49815D01*
X-38988Y-20250D02*
X-10250D01*
X-39185Y-20500D02*
Y-20447D01*
X-38988Y-20250D01*
X-10250D02*
X-10000Y-20000D01*
Y-10000D02*
Y0D01*
Y-20000D02*
Y-10000D01*
Y-30000D02*
Y-20000D01*
D28*
X-162087Y-170000D02*
D03*
X90551Y0D02*
D03*
X0D02*
D03*
X-98425D02*
D03*
X-261772D02*
D03*
D29*
X-152087Y-170000D02*
D03*
X-162087Y-160000D02*
D03*
X-152087D02*
D03*
X-162087Y-150000D02*
D03*
X-152087D02*
D03*
X-162087Y-140000D02*
D03*
X-152087D02*
D03*
X-162087Y-130000D02*
D03*
X-152087D02*
D03*
X-162087Y-120000D02*
D03*
X-152087D02*
D03*
X-162087Y-110000D02*
D03*
X-152087D02*
D03*
X-162087Y-100000D02*
D03*
X-152087D02*
D03*
X-162087Y-90000D02*
D03*
X-152087D02*
D03*
X-162087Y-80000D02*
D03*
X-152087D02*
D03*
X-162087Y-70000D02*
D03*
X-152087D02*
D03*
X-162087Y-60000D02*
D03*
X-152087D02*
D03*
X-162087Y-50000D02*
D03*
X-152087D02*
D03*
X-162087Y-40000D02*
D03*
X-152087D02*
D03*
X-162087Y-30000D02*
D03*
X-152087D02*
D03*
X-162087Y-20000D02*
D03*
X-152087D02*
D03*
X-162087Y-10000D02*
D03*
X-152087D02*
D03*
X-162087Y0D02*
D03*
X-152087D02*
D03*
X80551D02*
D03*
Y-10000D02*
D03*
Y-20000D02*
D03*
X-261772Y-160000D02*
D03*
X-251772D02*
D03*
X-261772Y-170000D02*
D03*
X-251772D02*
D03*
X80551D02*
D03*
X90551D02*
D03*
X80551Y-160000D02*
D03*
X90551Y-130000D02*
D03*
X80551Y-90000D02*
D03*
X90551Y-70000D02*
D03*
Y-50000D02*
D03*
Y-40000D02*
D03*
Y-30000D02*
D03*
Y-20000D02*
D03*
Y-10000D02*
D03*
X-98425Y-90000D02*
D03*
X-108425D02*
D03*
X-98425Y-100000D02*
D03*
Y-110000D02*
D03*
Y-120000D02*
D03*
Y-130000D02*
D03*
Y-140000D02*
D03*
Y-150000D02*
D03*
Y-160000D02*
D03*
Y-170000D02*
D03*
X0Y-10000D02*
D03*
Y-20000D02*
D03*
Y-30000D02*
D03*
Y-40000D02*
D03*
Y-50000D02*
D03*
Y-60000D02*
D03*
Y-70000D02*
D03*
Y-80000D02*
D03*
Y-90000D02*
D03*
Y-100000D02*
D03*
Y-110000D02*
D03*
Y-120000D02*
D03*
Y-130000D02*
D03*
X-10000D02*
D03*
X0Y-140000D02*
D03*
Y-150000D02*
D03*
Y-160000D02*
D03*
Y-170000D02*
D03*
X-261772Y-120000D02*
D03*
X-251772D02*
D03*
X-261772Y-130000D02*
D03*
X-251772D02*
D03*
X80551Y-30000D02*
D03*
Y-40000D02*
D03*
Y-50000D02*
D03*
X90551Y-60000D02*
D03*
X80551D02*
D03*
Y-70000D02*
D03*
X90551Y-80000D02*
D03*
X80551D02*
D03*
X90551Y-90000D02*
D03*
Y-100000D02*
D03*
X80551D02*
D03*
X90551Y-110000D02*
D03*
X80551D02*
D03*
X90551Y-120000D02*
D03*
X80551D02*
D03*
Y-130000D02*
D03*
X90551Y-140000D02*
D03*
X80551D02*
D03*
X90551Y-150000D02*
D03*
X80551D02*
D03*
X90551Y-160000D02*
D03*
X-10000Y-170000D02*
D03*
Y-160000D02*
D03*
Y-150000D02*
D03*
Y-140000D02*
D03*
Y-120000D02*
D03*
Y-110000D02*
D03*
Y-100000D02*
D03*
Y-90000D02*
D03*
Y-80000D02*
D03*
Y-70000D02*
D03*
Y-60000D02*
D03*
Y-50000D02*
D03*
Y-40000D02*
D03*
Y-30000D02*
D03*
Y-20000D02*
D03*
Y-10000D02*
D03*
Y0D02*
D03*
X-108425Y-170000D02*
D03*
Y-160000D02*
D03*
Y-150000D02*
D03*
Y-140000D02*
D03*
Y-130000D02*
D03*
Y-120000D02*
D03*
Y-110000D02*
D03*
Y-100000D02*
D03*
Y-80000D02*
D03*
X-98425D02*
D03*
X-108425Y-70000D02*
D03*
X-98425D02*
D03*
X-108425Y-60000D02*
D03*
X-98425D02*
D03*
X-108425Y-50000D02*
D03*
X-98425D02*
D03*
X-108425Y-40000D02*
D03*
X-98425D02*
D03*
X-108425Y-30000D02*
D03*
X-98425D02*
D03*
X-108425Y-20000D02*
D03*
X-98425D02*
D03*
X-108425Y-10000D02*
D03*
X-98425D02*
D03*
X-108425Y0D02*
D03*
X-251772Y-150000D02*
D03*
X-261772D02*
D03*
X-251772Y-140000D02*
D03*
X-261772D02*
D03*
X-251772Y-110000D02*
D03*
X-261772D02*
D03*
X-251772Y-100000D02*
D03*
X-261772D02*
D03*
X-251772Y-90000D02*
D03*
X-261772D02*
D03*
X-251772Y-80000D02*
D03*
X-261772D02*
D03*
X-251772Y-70000D02*
D03*
X-261772D02*
D03*
X-251772Y-60000D02*
D03*
X-261772D02*
D03*
X-251772Y-50000D02*
D03*
X-261772D02*
D03*
X-251772Y-40000D02*
D03*
X-261772D02*
D03*
X-251772Y-30000D02*
D03*
X-261772D02*
D03*
X-251772Y-20000D02*
D03*
X-261772D02*
D03*
X-251772Y-10000D02*
D03*
X-261772D02*
D03*
X-251772Y0D02*
D03*
D30*
X-204724Y-29528D02*
D03*
X-224410D02*
D03*
Y-49213D02*
D03*
X-204724D02*
D03*
X-214567Y-39370D02*
D03*
D31*
X-54364Y-92864D02*
D03*
X-54154Y-87347D02*
D03*
X-13498Y-85000D02*
D03*
X-15500Y-46000D02*
D03*
X-185500Y-109000D02*
D03*
X-185000Y-75500D02*
D03*
X-172500Y-62500D02*
D03*
X-202500Y-8000D02*
D03*
X-187500Y-155500D02*
D03*
X-172000Y-158500D02*
D03*
X-133000Y-157500D02*
D03*
X-124500Y-159000D02*
D03*
X-117000Y-159500D02*
D03*
X-121000Y-77500D02*
D03*
X-132500Y-52000D02*
D03*
X-125000Y-50500D02*
D03*
X-116500Y-51000D02*
D03*
X-132500Y-5000D02*
D03*
X-124500Y-6500D02*
D03*
X-116500Y-8000D02*
D03*
X-187500Y-57870D02*
D03*
X-178500Y3000D02*
D03*
X-172000Y3500D02*
D03*
X-179000Y-30500D02*
D03*
X-172000Y-31500D02*
D03*
X-179000Y-62500D02*
D03*
Y-113000D02*
D03*
X-172000D02*
D03*
X-179500Y-159000D02*
D03*
X-133000Y-92000D02*
D03*
X-21500Y-64000D02*
D03*
X-31000D02*
D03*
X-57000Y-20500D02*
D03*
X-30539Y-6961D02*
D03*
X-22000Y-6500D02*
D03*
X36000Y-40000D02*
D03*
X61500Y-29000D02*
D03*
X69500D02*
D03*
X35500Y-10500D02*
D03*
X69000Y2000D02*
D03*
X60461Y2039D02*
D03*
M02*
