G04*
G04 #@! TF.GenerationSoftware,Altium Limited,Altium Designer,22.4.2 (48)*
G04*
G04 Layer_Color=16711935*
%FSLAX25Y25*%
%MOIN*%
G70*
G04*
G04 #@! TF.SameCoordinates,CDC420FF-F511-4FEA-BDED-44E7EBAE7E28*
G04*
G04*
G04 #@! TF.FilePolarity,Negative*
G04*
G01*
G75*
%ADD17R,0.06406X0.06406*%
%ADD18C,0.06406*%
%ADD19C,0.10343*%
D17*
X-162087Y-170000D02*
D03*
X90551Y0D02*
D03*
X0D02*
D03*
X-98425D02*
D03*
X-261772D02*
D03*
D18*
X-152087Y-170000D02*
D03*
X-162087Y-160000D02*
D03*
X-152087D02*
D03*
X-162087Y-150000D02*
D03*
X-152087D02*
D03*
X-162087Y-140000D02*
D03*
X-152087D02*
D03*
X-162087Y-130000D02*
D03*
X-152087D02*
D03*
X-162087Y-120000D02*
D03*
X-152087D02*
D03*
X-162087Y-110000D02*
D03*
X-152087D02*
D03*
X-162087Y-100000D02*
D03*
X-152087D02*
D03*
X-162087Y-90000D02*
D03*
X-152087D02*
D03*
X-162087Y-80000D02*
D03*
X-152087D02*
D03*
X-162087Y-70000D02*
D03*
X-152087D02*
D03*
X-162087Y-60000D02*
D03*
X-152087D02*
D03*
X-162087Y-50000D02*
D03*
X-152087D02*
D03*
X-162087Y-40000D02*
D03*
X-152087D02*
D03*
X-162087Y-30000D02*
D03*
X-152087D02*
D03*
X-162087Y-20000D02*
D03*
X-152087D02*
D03*
X-162087Y-10000D02*
D03*
X-152087D02*
D03*
X-162087Y0D02*
D03*
X-152087D02*
D03*
X80551D02*
D03*
Y-10000D02*
D03*
Y-20000D02*
D03*
X-261772Y-160000D02*
D03*
X-251772D02*
D03*
X-261772Y-170000D02*
D03*
X-251772D02*
D03*
X80551D02*
D03*
X90551D02*
D03*
X80551Y-160000D02*
D03*
X90551Y-130000D02*
D03*
X80551Y-90000D02*
D03*
X90551Y-70000D02*
D03*
Y-50000D02*
D03*
Y-40000D02*
D03*
Y-30000D02*
D03*
Y-20000D02*
D03*
Y-10000D02*
D03*
X-98425Y-90000D02*
D03*
X-108425D02*
D03*
X-98425Y-100000D02*
D03*
Y-110000D02*
D03*
Y-120000D02*
D03*
Y-130000D02*
D03*
Y-140000D02*
D03*
Y-150000D02*
D03*
Y-160000D02*
D03*
Y-170000D02*
D03*
X0Y-10000D02*
D03*
Y-20000D02*
D03*
Y-30000D02*
D03*
Y-40000D02*
D03*
Y-50000D02*
D03*
Y-60000D02*
D03*
Y-70000D02*
D03*
Y-80000D02*
D03*
Y-90000D02*
D03*
Y-100000D02*
D03*
Y-110000D02*
D03*
Y-120000D02*
D03*
Y-130000D02*
D03*
X-10000D02*
D03*
X0Y-140000D02*
D03*
Y-150000D02*
D03*
Y-160000D02*
D03*
Y-170000D02*
D03*
X-261772Y-120000D02*
D03*
X-251772D02*
D03*
X-261772Y-130000D02*
D03*
X-251772D02*
D03*
X80551Y-30000D02*
D03*
Y-40000D02*
D03*
Y-50000D02*
D03*
X90551Y-60000D02*
D03*
X80551D02*
D03*
Y-70000D02*
D03*
X90551Y-80000D02*
D03*
X80551D02*
D03*
X90551Y-90000D02*
D03*
Y-100000D02*
D03*
X80551D02*
D03*
X90551Y-110000D02*
D03*
X80551D02*
D03*
X90551Y-120000D02*
D03*
X80551D02*
D03*
Y-130000D02*
D03*
X90551Y-140000D02*
D03*
X80551D02*
D03*
X90551Y-150000D02*
D03*
X80551D02*
D03*
X90551Y-160000D02*
D03*
X-10000Y-170000D02*
D03*
Y-160000D02*
D03*
Y-150000D02*
D03*
Y-140000D02*
D03*
Y-120000D02*
D03*
Y-110000D02*
D03*
Y-100000D02*
D03*
Y-90000D02*
D03*
Y-80000D02*
D03*
Y-70000D02*
D03*
Y-60000D02*
D03*
Y-50000D02*
D03*
Y-40000D02*
D03*
Y-30000D02*
D03*
Y-20000D02*
D03*
Y-10000D02*
D03*
Y0D02*
D03*
X-108425Y-170000D02*
D03*
Y-160000D02*
D03*
Y-150000D02*
D03*
Y-140000D02*
D03*
Y-130000D02*
D03*
Y-120000D02*
D03*
Y-110000D02*
D03*
Y-100000D02*
D03*
Y-80000D02*
D03*
X-98425D02*
D03*
X-108425Y-70000D02*
D03*
X-98425D02*
D03*
X-108425Y-60000D02*
D03*
X-98425D02*
D03*
X-108425Y-50000D02*
D03*
X-98425D02*
D03*
X-108425Y-40000D02*
D03*
X-98425D02*
D03*
X-108425Y-30000D02*
D03*
X-98425D02*
D03*
X-108425Y-20000D02*
D03*
X-98425D02*
D03*
X-108425Y-10000D02*
D03*
X-98425D02*
D03*
X-108425Y0D02*
D03*
X-251772Y-150000D02*
D03*
X-261772D02*
D03*
X-251772Y-140000D02*
D03*
X-261772D02*
D03*
X-251772Y-110000D02*
D03*
X-261772D02*
D03*
X-251772Y-100000D02*
D03*
X-261772D02*
D03*
X-251772Y-90000D02*
D03*
X-261772D02*
D03*
X-251772Y-80000D02*
D03*
X-261772D02*
D03*
X-251772Y-70000D02*
D03*
X-261772D02*
D03*
X-251772Y-60000D02*
D03*
X-261772D02*
D03*
X-251772Y-50000D02*
D03*
X-261772D02*
D03*
X-251772Y-40000D02*
D03*
X-261772D02*
D03*
X-251772Y-30000D02*
D03*
X-261772D02*
D03*
X-251772Y-20000D02*
D03*
X-261772D02*
D03*
X-251772Y-10000D02*
D03*
X-261772D02*
D03*
X-251772Y0D02*
D03*
D19*
X-204724Y-29528D02*
D03*
X-224410D02*
D03*
Y-49213D02*
D03*
X-204724D02*
D03*
X-214567Y-39370D02*
D03*
M02*
