G04*
G04 #@! TF.GenerationSoftware,Altium Limited,Altium Designer,22.4.2 (48)*
G04*
G04 Layer_Physical_Order=1*
G04 Layer_Color=255*
%FSLAX25Y25*%
%MOIN*%
G70*
G04*
G04 #@! TF.SameCoordinates,154311A6-9ECD-46E4-9684-3F5A4E7587EB*
G04*
G04*
G04 #@! TF.FilePolarity,Positive*
G04*
G01*
G75*
%ADD10C,0.00984*%
%ADD22C,0.01968*%
%ADD23C,0.01968*%
%ADD24R,0.02362X0.01378*%
%ADD25R,0.04331X0.06693*%
%ADD26R,0.03543X0.03150*%
%ADD27R,0.06693X0.04331*%
%ADD28R,0.03150X0.03543*%
%ADD29C,0.01575*%
%ADD30C,0.03937*%
%ADD31C,0.05906*%
%ADD32R,0.05906X0.05906*%
%ADD33C,0.09843*%
%ADD34C,0.04724*%
D10*
X38307Y-83461D02*
X46961D01*
X24000Y-83500D02*
X31772D01*
Y-83303D01*
X27500Y-79031D02*
X31772Y-83303D01*
X28077Y-74500D02*
X30866D01*
X27500Y-79031D02*
Y-75077D01*
X28077Y-74500D01*
X39134Y-77059D02*
Y-74500D01*
Y-82634D02*
Y-77059D01*
X38307Y-83461D02*
X39134Y-82634D01*
X37179Y-65000D02*
X83500D01*
X31555Y-70624D02*
X37179Y-65000D01*
X83500D02*
X85500Y-67000D01*
Y-75051D02*
Y-67000D01*
X80551Y-80000D02*
X85500Y-75051D01*
X31358Y-71941D02*
X31555Y-71744D01*
Y-70624D01*
X30866Y-71941D02*
X31358D01*
X77279D02*
X79220Y-70000D01*
X39134Y-71941D02*
X77279D01*
X79220Y-70000D02*
X80551D01*
D22*
X-125000Y-50500D02*
G03*
X-125566Y-49188I-1967J-70D01*
G01*
X-116297Y-47078D02*
G03*
X-116500Y-47719I1353J-781D01*
G01*
X-185500Y-108473D02*
X-183496Y-106469D01*
X-185500Y-109000D02*
Y-108473D01*
X-183496Y-106469D02*
Y-92996D01*
X-182500Y-92000D01*
X-185000Y-75500D02*
X-184473Y-76027D01*
X-184000Y-80634D02*
X-182315Y-82319D01*
X-184000Y-80634D02*
Y-78031D01*
X-184473Y-77558D02*
X-184000Y-78031D01*
X-184473Y-77558D02*
Y-76027D01*
X-182315Y-83500D02*
Y-82319D01*
X-225000Y0D02*
X-206000Y-19000D01*
X-196815D01*
X-251772Y0D02*
X-225000D01*
X-261772D02*
X-251772D01*
X-197815Y-18000D02*
X-196815Y-19000D01*
X-202500Y-8000D02*
X-196815D01*
X-178980Y-112980D02*
Y-106827D01*
X-178961Y-106807D01*
X-179000Y-113000D02*
X-178980Y-112980D01*
Y-69252D02*
Y-56327D01*
X-179000Y-69272D02*
X-178980Y-69252D01*
Y-56327D02*
X-178961Y-56307D01*
X-184102Y-44866D02*
X-179197Y-49772D01*
X-186319Y-44866D02*
X-184102D01*
X-179197Y-49772D02*
X-179000D01*
X-187246Y-43939D02*
X-186319Y-44866D01*
X-178711Y-49482D02*
X-172329D01*
X-172039Y-49193D01*
X-179000Y-49772D02*
X-178711Y-49482D01*
X-178980Y-25327D02*
X-178961Y-25307D01*
X-178980Y-30480D02*
Y-25327D01*
X-179000Y-30500D02*
X-178980Y-30480D01*
X-185878Y-18693D02*
X-172039D01*
X-186185Y-19000D02*
X-185878Y-18693D01*
Y-8307D02*
X-172000D01*
X-186185Y-8000D02*
X-185878Y-8307D01*
X-178750Y-1443D02*
Y2750D01*
X-179000Y-1693D02*
X-178750Y-1443D01*
Y2750D02*
X-178500Y3000D01*
X-172000Y-170307D02*
X-170193D01*
X-179500Y-163772D02*
Y-159000D01*
X-170000Y-170114D02*
X-161614D01*
X-179461Y-170307D02*
X-172000D01*
X-170193D02*
X-170000Y-170114D01*
X-180665Y-171315D02*
X-179657Y-170307D01*
X-188500Y-171315D02*
X-180665D01*
X-179657Y-170307D02*
X-179461D01*
X-161614Y-170114D02*
X-161500Y-170000D01*
Y-50000D02*
Y-40000D01*
X-172039Y-49193D02*
X-171636Y-49597D01*
X-161904D01*
X-161500Y-50000D01*
X-172000Y-31500D02*
Y-25228D01*
X-172039Y-18693D02*
X-171843D01*
X-163903Y-10753D01*
X-162253D01*
X-161500Y-10000D01*
X-168717Y-7717D02*
X-161500Y-500D01*
Y0D01*
X-171409Y-7717D02*
X-168717D01*
X-172000Y-8307D02*
X-171409Y-7717D01*
X-172020Y3480D02*
X-172000Y3500D01*
X-172039Y-1772D02*
X-172020Y-1752D01*
Y3480D01*
X-172000Y-113000D02*
Y-106728D01*
X-172039Y-163693D02*
X-172020Y-163673D01*
Y-158520D01*
X-172000Y-158500D01*
X-133000Y-163185D02*
Y-157500D01*
Y-163185D02*
X-132500Y-163685D01*
X-124520Y-159020D02*
X-124500Y-159000D01*
X-124539Y-164693D02*
X-124520Y-164673D01*
Y-159020D01*
X-124500Y-159746D02*
Y-159000D01*
X-117000Y-164772D02*
Y-159500D01*
X-118823Y-76973D02*
X-117157Y-75307D01*
X-120473Y-76973D02*
X-118823D01*
X-121000Y-77500D02*
X-120473Y-76973D01*
X-117157Y-75307D02*
X-116961D01*
X-117000Y-75268D02*
X-116961Y-75307D01*
X-132500Y-52000D02*
Y-46815D01*
X-133027Y-51473D02*
X-132500Y-52000D01*
X-133842Y-51473D02*
X-133027D01*
X-125566Y-49188D02*
X-125566Y-49188D01*
X-125000Y-50500D02*
X-124750Y-50250D01*
X-125000Y-50500D02*
X-125000Y-50500D01*
X-124750Y-50250D02*
Y-44978D01*
X-124500Y-44728D01*
X-116548Y-45689D02*
Y-45398D01*
Y-45689D02*
X-116297Y-46224D01*
Y-46662D02*
Y-46224D01*
X-116961Y-44807D02*
X-116548Y-45398D01*
X-116297Y-47078D02*
Y-46662D01*
X-116500Y-51000D02*
Y-47719D01*
X-131319Y-21134D02*
X-128134D01*
X-126898Y-19898D02*
X-124744D01*
X-116961Y-19654D02*
X-108772D01*
X-124500D02*
X-116961D01*
X-132500Y-22315D02*
X-131319Y-21134D01*
X-128134D02*
X-126898Y-19898D01*
X-124744D02*
X-124500Y-19654D01*
X-132500Y-11685D02*
Y-5000D01*
X-124539Y-12772D02*
X-124520Y-12752D01*
Y-6520D01*
X-124500Y-6500D01*
X-116500Y-8746D02*
Y-8000D01*
X-117000Y-12193D02*
Y-9246D01*
X-116500Y-8746D01*
X-187500Y-57870D02*
Y-54315D01*
X-186185Y-19000D02*
Y-17819D01*
X-108425Y-40000D02*
Y-30000D01*
X-128039Y-38193D02*
X-111298D01*
X-109491Y-40000D01*
X-108425D01*
X-130244Y-36185D02*
X-128236Y-38193D01*
X-128039D01*
X-108425Y-20000D02*
Y-10000D01*
X-108772Y-19654D02*
X-108425Y-20000D01*
X-21500Y-64000D02*
Y-57728D01*
X-30961Y-63039D02*
Y-58307D01*
X-42000Y-73000D02*
Y-62815D01*
X-39685Y-52000D02*
X-13065D01*
X-10000Y-50000D02*
Y-40000D01*
X-13065Y-52000D02*
X-11065Y-50000D01*
X-10000D01*
X-30539Y-12693D02*
Y-6961D01*
X-22000Y-12272D02*
Y-6500D01*
X36000Y-40000D02*
X41185D01*
X61461Y-32965D02*
Y-28039D01*
X69500Y-32772D02*
Y-28000D01*
X51815Y-40000D02*
X80551D01*
Y-30000D01*
Y-50000D02*
Y-40000D01*
X35500Y-10500D02*
X42185D01*
X69000Y-2772D02*
Y2000D01*
X60461Y-2693D02*
Y2039D01*
X53996Y-9307D02*
X69039D01*
X69386Y-9653D01*
X80205D01*
X80551Y-10000D01*
Y0D01*
Y-20000D02*
Y-10000D01*
X52815Y-10500D02*
Y-10488D01*
X53996Y-9307D01*
D23*
X-116297Y-46662D02*
D03*
D24*
X30866Y-71941D02*
D03*
Y-74500D02*
D03*
Y-77059D02*
D03*
X39134D02*
D03*
Y-74500D02*
D03*
Y-71941D02*
D03*
D25*
X35000Y-74500D02*
D03*
X-196815Y-8000D02*
D03*
X-186185D02*
D03*
X-196815Y-19000D02*
D03*
X-186185D02*
D03*
X-182315Y-83500D02*
D03*
X-171685D02*
D03*
X-182315Y-93000D02*
D03*
X-171685D02*
D03*
X-49815Y-20500D02*
D03*
X-39185D02*
D03*
X41185Y-40000D02*
D03*
X51815D02*
D03*
X42185Y-10500D02*
D03*
X52815D02*
D03*
D26*
X-172000Y-8307D02*
D03*
X-172039Y-1772D02*
D03*
X-179000Y-1693D02*
D03*
X-178961Y-8228D02*
D03*
X-172039Y-18693D02*
D03*
X-172000Y-25228D02*
D03*
X-178961Y-25307D02*
D03*
X-179000Y-18772D02*
D03*
X-172039Y-49193D02*
D03*
X-172000Y-55728D02*
D03*
X-178961Y-56307D02*
D03*
X-179000Y-49772D02*
D03*
X-178961Y-75807D02*
D03*
X-179000Y-69272D02*
D03*
X-172039Y-69193D02*
D03*
X-172000Y-75728D02*
D03*
X-172039Y-100193D02*
D03*
X-172000Y-106728D02*
D03*
X-178961Y-106807D02*
D03*
X-179000Y-100272D02*
D03*
X-172039Y-163693D02*
D03*
X-172000Y-170228D02*
D03*
X-178961Y-170307D02*
D03*
X-179000Y-163772D02*
D03*
X-124539Y-164693D02*
D03*
X-124500Y-171228D02*
D03*
X-116961Y-171307D02*
D03*
X-117000Y-164772D02*
D03*
X-124539Y-68693D02*
D03*
X-124500Y-75228D02*
D03*
X-116961Y-75307D02*
D03*
X-117000Y-68772D02*
D03*
X-116961Y-44807D02*
D03*
X-117000Y-38272D02*
D03*
X-124539Y-38193D02*
D03*
X-124500Y-44728D02*
D03*
X-117000Y-12193D02*
D03*
X-116961Y-18728D02*
D03*
X-124500Y-19307D02*
D03*
X-124539Y-12772D02*
D03*
X-21539Y-51193D02*
D03*
X-21500Y-57728D02*
D03*
X-30961Y-58307D02*
D03*
X-31000Y-51772D02*
D03*
X-21961Y-18807D02*
D03*
X-22000Y-12272D02*
D03*
X-30539Y-12693D02*
D03*
X-30500Y-19228D02*
D03*
X61461Y-32965D02*
D03*
X61500Y-39500D02*
D03*
X69539Y-39307D02*
D03*
X69500Y-32772D02*
D03*
X69039Y-9307D02*
D03*
X69000Y-2772D02*
D03*
X60461Y-2693D02*
D03*
X60500Y-9228D02*
D03*
D27*
X-187500Y-54315D02*
D03*
Y-43685D02*
D03*
X-187000Y-161685D02*
D03*
Y-172315D02*
D03*
X-132500Y-163685D02*
D03*
Y-174315D02*
D03*
Y-85815D02*
D03*
Y-75185D02*
D03*
Y-46815D02*
D03*
Y-36185D02*
D03*
Y-11685D02*
D03*
Y-22315D02*
D03*
X-42000Y-62815D02*
D03*
Y-52185D02*
D03*
D28*
X38307Y-83461D02*
D03*
X31772Y-83500D02*
D03*
D29*
X-172039Y-100096D02*
X-161597D01*
X-171862Y-99919D02*
Y-93177D01*
X-171685Y-93000D01*
X-172039Y-100096D02*
X-171862Y-99919D01*
X-173500Y-75768D02*
X-172039D01*
X-178921D02*
X-173500D01*
X-171685Y-77583D01*
Y-83500D02*
Y-77583D01*
X-172270Y-68963D02*
X-172039Y-69193D01*
X-172500Y-62500D02*
X-172250Y-62250D01*
Y-55978D01*
X-172500Y-62500D02*
X-172270Y-62730D01*
X-172250Y-55978D02*
X-172000Y-55728D01*
X-172270Y-68963D02*
Y-62730D01*
X-156961Y-105461D02*
X-134461D01*
X-156972Y-115472D02*
X-132024D01*
X-156500Y-125000D02*
X-132000D01*
X-161500Y-140000D02*
X-156500Y-135000D01*
Y-145000D02*
X-132551D01*
X-179000Y-100096D02*
X-172039D01*
X-179157Y-75807D02*
X-178961D01*
X-178921Y-75768D01*
X-172039D02*
X-172000Y-75728D01*
X-161597Y-100096D02*
X-161500Y-100000D01*
Y-70000D02*
Y-60000D01*
X-167228Y-75728D02*
X-161500Y-70000D01*
X-172000Y-75728D02*
X-167228D01*
X-132551Y-145000D02*
X-112276Y-124724D01*
X-161500Y-150000D02*
X-156500Y-145000D01*
X-133500Y-135000D02*
X-113500Y-115000D01*
X-156500Y-135000D02*
X-133500D01*
X-132000Y-125000D02*
X-111724Y-104724D01*
X-161500Y-130000D02*
X-156500Y-125000D01*
X-132024Y-115472D02*
X-111276Y-94724D01*
X-161500Y-120000D02*
X-156972Y-115472D01*
X-134461Y-105461D02*
X-113724Y-84724D01*
X-161500Y-110000D02*
X-156961Y-105461D01*
X-117517Y-81437D02*
X-112667Y-76587D01*
X-136937Y-81437D02*
X-117517D01*
X-156500Y-85000D02*
X-140500D01*
X-136937Y-81437D01*
X-161500Y-80000D02*
X-156500Y-85000D01*
X-112667Y-74242D02*
X-108425Y-70000D01*
X-112667Y-76587D02*
Y-74242D01*
X67276Y-84724D02*
X85827D01*
X-5276D02*
X6000D01*
X11276Y-90000D01*
X62000D01*
X67276Y-84724D01*
X-113724D02*
X-34224D01*
X-14776Y-65276D01*
X6224D01*
X11500Y-60000D01*
X80551D01*
X-10000D02*
X-5276Y-55276D01*
X85827D01*
X90551Y-60000D01*
X-111276Y-94724D02*
X-14724D01*
X-10000Y-90000D01*
X-111724Y-104724D02*
X-14724D01*
X-10000Y-100000D01*
X-113500Y-115000D02*
X-15000D01*
X-10000Y-110000D01*
X-112276Y-124724D02*
X-14724D01*
X-10000Y-120000D01*
Y-80000D02*
X-5276Y-84724D01*
X85827D02*
X90551Y-80000D01*
X-10000Y-90000D02*
X-5276Y-94724D01*
X85827D01*
X90551Y-90000D01*
X-10000Y-100000D02*
X-5276Y-104724D01*
X85827D01*
X90551Y-100000D01*
X-5276Y-114724D02*
X85827D01*
X-10000Y-110000D02*
X-5276Y-114724D01*
X85827D02*
X90551Y-110000D01*
X-10000Y-120000D02*
X-5276Y-124724D01*
X85827D02*
X90551Y-120000D01*
X-5276Y-124724D02*
X85827D01*
X-10000Y-140000D02*
X-5276Y-144724D01*
X85827D01*
X90551Y-140000D01*
X-10000Y-150000D02*
X-5276Y-154724D01*
X85827D01*
X90551Y-150000D01*
X-10000Y-160000D02*
X-5276Y-164724D01*
X85827D01*
X90551Y-160000D01*
D30*
X-187349Y-161488D02*
X-187153Y-161685D01*
X-187349Y-161488D02*
Y-155651D01*
X-187500Y-155500D02*
X-187349Y-155651D01*
X-187153Y-161685D02*
X-187000D01*
X-108958Y-170000D02*
X-108425D01*
X-124500Y-171228D02*
X-117829D01*
X-128000D02*
X-124500D01*
X-110265Y-171307D02*
X-108958Y-170000D01*
X-117750Y-171307D02*
X-110265D01*
X-117829Y-171228D02*
X-117750Y-171307D01*
X-132849Y-86012D02*
X-132652Y-85815D01*
X-133000Y-92000D02*
X-132849Y-91849D01*
X-132652Y-85815D02*
X-132500D01*
X-132849Y-91849D02*
Y-86012D01*
X-131122Y-74988D02*
Y-71622D01*
X-131319Y-75185D02*
X-131122Y-74988D01*
X-128193Y-68693D02*
X-124539D01*
X-132500Y-75185D02*
X-131319D01*
X-131122Y-71622D02*
X-128193Y-68693D01*
X-117197Y-68772D02*
X-108425Y-60000D01*
X-117197Y-68772D02*
X-117000D01*
X-125287D02*
X-117197D01*
X-130890Y-174118D02*
X-128000Y-171228D01*
X-108425Y-60000D02*
Y-50000D01*
X-57000Y-20500D02*
X-49815D01*
X-38988Y-20250D02*
X-10250D01*
X-39185Y-20500D02*
Y-20447D01*
X-38988Y-20250D01*
X-10250D02*
X-10000Y-20000D01*
Y-10000D02*
Y0D01*
Y-20000D02*
Y-10000D01*
Y-30000D02*
Y-20000D01*
D31*
X-161500Y0D02*
D03*
X-151500D02*
D03*
X-161500Y-10000D02*
D03*
X-151500D02*
D03*
X-161500Y-20000D02*
D03*
X-151500D02*
D03*
X-161500Y-30000D02*
D03*
X-151500D02*
D03*
X-161500Y-40000D02*
D03*
X-151500D02*
D03*
X-161500Y-50000D02*
D03*
X-151500D02*
D03*
X-161500Y-60000D02*
D03*
X-151500D02*
D03*
X-161500Y-70000D02*
D03*
X-151500D02*
D03*
X-161500Y-80000D02*
D03*
X-151500D02*
D03*
X-161500Y-90000D02*
D03*
X-151500D02*
D03*
X-161500Y-100000D02*
D03*
X-151500D02*
D03*
X-161500Y-110000D02*
D03*
X-151500D02*
D03*
X-161500Y-120000D02*
D03*
X-151500D02*
D03*
X-161500Y-130000D02*
D03*
X-151500D02*
D03*
X-161500Y-140000D02*
D03*
X-151500D02*
D03*
X-161500Y-150000D02*
D03*
X-151500D02*
D03*
X-161500Y-160000D02*
D03*
X-151500D02*
D03*
X-161500Y-170000D02*
D03*
X80551Y0D02*
D03*
Y-10000D02*
D03*
Y-20000D02*
D03*
X-261772Y-160000D02*
D03*
X-251772D02*
D03*
X-261772Y-170000D02*
D03*
X-251772D02*
D03*
X80551D02*
D03*
X90551D02*
D03*
X80551Y-160000D02*
D03*
X90551Y-130000D02*
D03*
X80551Y-90000D02*
D03*
X90551Y-70000D02*
D03*
Y-50000D02*
D03*
Y-40000D02*
D03*
Y-30000D02*
D03*
Y-20000D02*
D03*
Y-10000D02*
D03*
X-98425Y-90000D02*
D03*
X-108425D02*
D03*
X-98425Y-100000D02*
D03*
Y-110000D02*
D03*
Y-120000D02*
D03*
Y-130000D02*
D03*
Y-140000D02*
D03*
Y-150000D02*
D03*
Y-160000D02*
D03*
Y-170000D02*
D03*
X0Y-10000D02*
D03*
Y-20000D02*
D03*
Y-30000D02*
D03*
Y-40000D02*
D03*
Y-50000D02*
D03*
Y-60000D02*
D03*
Y-70000D02*
D03*
Y-80000D02*
D03*
Y-90000D02*
D03*
Y-100000D02*
D03*
Y-110000D02*
D03*
Y-120000D02*
D03*
Y-130000D02*
D03*
X-10000D02*
D03*
X0Y-140000D02*
D03*
Y-150000D02*
D03*
Y-160000D02*
D03*
Y-170000D02*
D03*
X-261772Y-120000D02*
D03*
X-251772D02*
D03*
X-261772Y-130000D02*
D03*
X-251772D02*
D03*
X80551Y-30000D02*
D03*
Y-40000D02*
D03*
Y-50000D02*
D03*
X90551Y-60000D02*
D03*
X80551D02*
D03*
Y-70000D02*
D03*
X90551Y-80000D02*
D03*
X80551D02*
D03*
X90551Y-90000D02*
D03*
Y-100000D02*
D03*
X80551D02*
D03*
X90551Y-110000D02*
D03*
X80551D02*
D03*
X90551Y-120000D02*
D03*
X80551D02*
D03*
Y-130000D02*
D03*
X90551Y-140000D02*
D03*
X80551D02*
D03*
X90551Y-150000D02*
D03*
X80551D02*
D03*
X90551Y-160000D02*
D03*
X-10000Y-170000D02*
D03*
Y-160000D02*
D03*
Y-150000D02*
D03*
Y-140000D02*
D03*
Y-120000D02*
D03*
Y-110000D02*
D03*
Y-100000D02*
D03*
Y-90000D02*
D03*
Y-80000D02*
D03*
Y-70000D02*
D03*
Y-60000D02*
D03*
Y-50000D02*
D03*
Y-40000D02*
D03*
Y-30000D02*
D03*
Y-20000D02*
D03*
Y-10000D02*
D03*
Y0D02*
D03*
X-108425Y-170000D02*
D03*
Y-160000D02*
D03*
Y-150000D02*
D03*
Y-140000D02*
D03*
Y-130000D02*
D03*
Y-120000D02*
D03*
Y-110000D02*
D03*
Y-100000D02*
D03*
Y-80000D02*
D03*
X-98425D02*
D03*
X-108425Y-70000D02*
D03*
X-98425D02*
D03*
X-108425Y-60000D02*
D03*
X-98425D02*
D03*
X-108425Y-50000D02*
D03*
X-98425D02*
D03*
X-108425Y-40000D02*
D03*
X-98425D02*
D03*
X-108425Y-30000D02*
D03*
X-98425D02*
D03*
X-108425Y-20000D02*
D03*
X-98425D02*
D03*
X-108425Y-10000D02*
D03*
X-98425D02*
D03*
X-108425Y0D02*
D03*
X-251772Y-150000D02*
D03*
X-261772D02*
D03*
X-251772Y-140000D02*
D03*
X-261772D02*
D03*
X-251772Y-110000D02*
D03*
X-261772D02*
D03*
X-251772Y-100000D02*
D03*
X-261772D02*
D03*
X-251772Y-90000D02*
D03*
X-261772D02*
D03*
X-251772Y-80000D02*
D03*
X-261772D02*
D03*
X-251772Y-70000D02*
D03*
X-261772D02*
D03*
X-251772Y-60000D02*
D03*
X-261772D02*
D03*
X-251772Y-50000D02*
D03*
X-261772D02*
D03*
X-251772Y-40000D02*
D03*
X-261772D02*
D03*
X-251772Y-30000D02*
D03*
X-261772D02*
D03*
X-251772Y-20000D02*
D03*
X-261772D02*
D03*
X-251772Y-10000D02*
D03*
X-261772D02*
D03*
X-251772Y0D02*
D03*
D32*
X-151500Y-170000D02*
D03*
X90551Y0D02*
D03*
X0D02*
D03*
X-98425D02*
D03*
X-261772D02*
D03*
D33*
X-204724Y-29528D02*
D03*
X-224410D02*
D03*
Y-49213D02*
D03*
X-204724D02*
D03*
X-214567Y-39370D02*
D03*
D34*
X-185500Y-109000D02*
D03*
X-185000Y-75500D02*
D03*
X-172500Y-62500D02*
D03*
X-202500Y-8000D02*
D03*
X-187500Y-155500D02*
D03*
X-172000Y-158500D02*
D03*
X-133000Y-157500D02*
D03*
X-124500Y-159000D02*
D03*
X-117000Y-159500D02*
D03*
X-121000Y-77500D02*
D03*
X-132500Y-52000D02*
D03*
X-125000Y-50500D02*
D03*
X-116500Y-51000D02*
D03*
X-132500Y-5000D02*
D03*
X-124500Y-6500D02*
D03*
X-116500Y-8000D02*
D03*
X-187500Y-57870D02*
D03*
X-178500Y3000D02*
D03*
X-172000Y3500D02*
D03*
X-179000Y-30500D02*
D03*
X-172000Y-31500D02*
D03*
X-179000Y-62500D02*
D03*
Y-113000D02*
D03*
X-172000D02*
D03*
X-179500Y-159000D02*
D03*
X-133000Y-92000D02*
D03*
X24000Y-83500D02*
D03*
X46000D02*
D03*
X-21500Y-64000D02*
D03*
X-31000D02*
D03*
X-42000Y-73000D02*
D03*
X-57000Y-20500D02*
D03*
X-30539Y-6961D02*
D03*
X-22000Y-6500D02*
D03*
X36000Y-40000D02*
D03*
X61500Y-29000D02*
D03*
X69500D02*
D03*
X35500Y-10500D02*
D03*
X69000Y2000D02*
D03*
X60461Y2039D02*
D03*
M02*
