M48
;Layer_Color=9474304
;FILE_FORMAT=2:5
INCH,LZ
;TYPE=PLATED
T1F00S00C0.01968
T2F00S00C0.03150
T3F00S00C0.03543
T4F00S00C0.05906
%
T01
X-01835Y-0172
X-01745Y-01455
X-01405Y-01545
X-01285Y-01585
X00285Y-0041
X00275Y-0009
X00565Y-002
X00695Y-0029
X0069Y0002
X00575Y-0052
X-00155Y-0046
X-0026Y-0058516
X-0013498Y-0085
X-0054154Y-0087347
X-0054364Y-0092864
X-01305Y-0087
X-01405Y-00885
X-01295Y-00475
X-0129Y-0007
X-0141Y-00015
X-00245Y-0018
X-0183Y-002
Y-00035
X-0209Y-001
X-0173Y-00305
X-0157Y-0074
X-0186Y-0116
X-0182Y-0124
T02
X-0141Y-00535
X-0045Y-0021
T03
X-0261772Y-017
Y-016
X-0251772
Y-017
Y-015
X-0261772
Y-014
Y-013
X-0251772
Y-014
X-0162087
Y-013
Y-015
Y-016
Y-017
X-0152087
Y-016
Y-015
Y-014
Y-013
X-0108425
X-0098425
Y-014
Y-015
Y-016
Y-017
X-0108425
Y-016
Y-015
Y-014
X-001
Y-013
X0
Y-014
Y-015
Y-016
Y-017
X-001
Y-016
Y-015
X0080551
Y-016
Y-017
X0090551
Y-016
Y-015
Y-014
Y-013
X0080551
Y-014
Y-012
Y-011
Y-01
Y-009
Y-008
Y-007
X0090551
Y-006
Y-005
Y-004
Y-003
Y-002
X0080551
Y-001
Y0
X0090551
Y-001
X0080551Y-003
Y-004
Y-005
Y-006
X0090551Y-008
Y-009
Y-01
Y-011
Y-012
X0
Y-011
Y-01
Y-009
Y-008
Y-007
Y-006
Y-005
Y-004
Y-003
Y-002
Y-001
Y0
X-001
Y-001
Y-002
Y-003
Y-004
Y-005
Y-006
Y-007
Y-008
Y-009
Y-01
Y-011
Y-012
X-0098425
Y-011
Y-01
Y-009
X-0108425
Y-01
Y-011
Y-012
Y-008
X-0098425
Y-007
X-0108425
Y-006
X-0098425
Y-005
X-0108425
Y-004
X-0098425
Y-003
X-0108425
Y-002
X-0098425
Y-001
X-0108425
Y0
X-0098425
X-0152087
Y-001
Y-002
Y-003
Y-004
Y-005
Y-006
Y-007
Y-008
Y-009
Y-01
Y-011
Y-012
X-0162087
Y-011
Y-01
Y-009
Y-008
Y-007
Y-006
Y-005
Y-004
Y-003
Y-002
Y-001
Y0
X-0251772
Y-001
Y-002
Y-003
Y-004
Y-005
Y-006
Y-007
Y-008
Y-009
Y-01
Y-011
Y-012
X-0261772
Y-011
Y-01
Y-009
Y-008
Y-007
Y-006
Y-005
Y-004
Y-003
Y-002
Y-001
Y0
T04
X-022441Y-0049213
Y-0029528
X-0204724
Y-0049213
X-0214567Y-003937
M30
