G04*
G04 #@! TF.GenerationSoftware,Altium Limited,Altium Designer,22.4.2 (48)*
G04*
G04 Layer_Physical_Order=4*
G04 Layer_Color=16711680*
%FSLAX25Y25*%
%MOIN*%
G70*
G04*
G04 #@! TF.SameCoordinates,154311A6-9ECD-46E4-9684-3F5A4E7587EB*
G04*
G04*
G04 #@! TF.FilePolarity,Positive*
G04*
G01*
G75*
%ADD22C,0.01968*%
%ADD29C,0.01575*%
%ADD31C,0.05906*%
%ADD32R,0.05906X0.05906*%
%ADD33C,0.09843*%
%ADD34C,0.04724*%
G36*
X87961Y-37000D02*
X87388Y-37573D01*
X86868Y-38474D01*
X86598Y-39480D01*
Y-40520D01*
X86868Y-41526D01*
X87388Y-42427D01*
X88124Y-43163D01*
X89025Y-43683D01*
X90031Y-43953D01*
X91072D01*
X92077Y-43683D01*
X92978Y-43163D01*
X93471Y-42671D01*
X93971Y-42878D01*
Y-47122D01*
X93471Y-47329D01*
X92978Y-46837D01*
X92077Y-46317D01*
X91072Y-46047D01*
X90031D01*
X89025Y-46317D01*
X88124Y-46837D01*
X87388Y-47573D01*
X86868Y-48474D01*
X86598Y-49480D01*
Y-50520D01*
X86868Y-51526D01*
X87388Y-52427D01*
X88124Y-53163D01*
X89025Y-53683D01*
X90031Y-53953D01*
X91072D01*
X92077Y-53683D01*
X92978Y-53163D01*
X93471Y-52671D01*
X93971Y-52878D01*
Y-57122D01*
X93471Y-57329D01*
X92978Y-56837D01*
X92077Y-56317D01*
X91072Y-56047D01*
X90031D01*
X89025Y-56317D01*
X88124Y-56837D01*
X87388Y-57573D01*
X86868Y-58474D01*
X86598Y-59480D01*
Y-60520D01*
X86868Y-61526D01*
X87388Y-62427D01*
X88124Y-63163D01*
X89025Y-63683D01*
X90031Y-63953D01*
X91072D01*
X92077Y-63683D01*
X92978Y-63163D01*
X93471Y-62671D01*
X93971Y-62878D01*
Y-67122D01*
X93471Y-67329D01*
X92978Y-66837D01*
X92077Y-66317D01*
X91072Y-66047D01*
X90031D01*
X89025Y-66317D01*
X88124Y-66837D01*
X87388Y-67573D01*
X86868Y-68474D01*
X86598Y-69480D01*
Y-70520D01*
X86868Y-71526D01*
X87388Y-72427D01*
X88124Y-73163D01*
X89025Y-73683D01*
X90031Y-73953D01*
X91072D01*
X92077Y-73683D01*
X92978Y-73163D01*
X93471Y-72671D01*
X93971Y-72878D01*
Y-77122D01*
X93471Y-77329D01*
X92978Y-76837D01*
X92077Y-76317D01*
X91072Y-76047D01*
X90031D01*
X89025Y-76317D01*
X88124Y-76837D01*
X87388Y-77573D01*
X86868Y-78474D01*
X86598Y-79480D01*
Y-80520D01*
X86868Y-81526D01*
X87388Y-82427D01*
X88124Y-83163D01*
X89025Y-83683D01*
X90031Y-83953D01*
X91072D01*
X92077Y-83683D01*
X92978Y-83163D01*
X93471Y-82671D01*
X93971Y-82878D01*
Y-87122D01*
X93471Y-87329D01*
X92978Y-86837D01*
X92077Y-86317D01*
X91072Y-86047D01*
X90031D01*
X89025Y-86317D01*
X88124Y-86837D01*
X87388Y-87573D01*
X86868Y-88474D01*
X86598Y-89480D01*
Y-90520D01*
X86868Y-91526D01*
X87388Y-92427D01*
X88124Y-93163D01*
X89025Y-93683D01*
X90031Y-93953D01*
X91072D01*
X92077Y-93683D01*
X92978Y-93163D01*
X93471Y-92671D01*
X93971Y-92878D01*
Y-97122D01*
X93471Y-97329D01*
X92978Y-96837D01*
X92077Y-96317D01*
X91072Y-96047D01*
X90031D01*
X89025Y-96317D01*
X88124Y-96837D01*
X87388Y-97573D01*
X86868Y-98474D01*
X86598Y-99480D01*
Y-100520D01*
X86868Y-101526D01*
X87388Y-102427D01*
X88124Y-103163D01*
X89025Y-103683D01*
X90031Y-103953D01*
X91072D01*
X92077Y-103683D01*
X92978Y-103163D01*
X93471Y-102671D01*
X93971Y-102878D01*
Y-107122D01*
X93471Y-107329D01*
X92978Y-106837D01*
X92077Y-106317D01*
X91072Y-106047D01*
X90031D01*
X89025Y-106317D01*
X88124Y-106837D01*
X87388Y-107573D01*
X86868Y-108474D01*
X86598Y-109480D01*
Y-110520D01*
X86868Y-111526D01*
X87388Y-112427D01*
X88124Y-113163D01*
X89025Y-113683D01*
X90031Y-113953D01*
X91072D01*
X92077Y-113683D01*
X92978Y-113163D01*
X93471Y-112671D01*
X93971Y-112878D01*
Y-117122D01*
X93471Y-117329D01*
X92978Y-116837D01*
X92077Y-116317D01*
X91072Y-116047D01*
X90031D01*
X89025Y-116317D01*
X88124Y-116837D01*
X87388Y-117573D01*
X86868Y-118474D01*
X86598Y-119480D01*
Y-120520D01*
X86868Y-121526D01*
X87388Y-122427D01*
X88124Y-123163D01*
X89025Y-123683D01*
X90031Y-123953D01*
X91072D01*
X92077Y-123683D01*
X92978Y-123163D01*
X93471Y-122671D01*
X93971Y-122878D01*
Y-127122D01*
X93471Y-127329D01*
X92978Y-126837D01*
X92077Y-126317D01*
X91072Y-126047D01*
X90031D01*
X89025Y-126317D01*
X88124Y-126837D01*
X87388Y-127573D01*
X86868Y-128474D01*
X86598Y-129480D01*
Y-130520D01*
X86868Y-131526D01*
X87388Y-132427D01*
X88124Y-133163D01*
X89025Y-133683D01*
X90031Y-133953D01*
X91072D01*
X92077Y-133683D01*
X92978Y-133163D01*
X93471Y-132671D01*
X93971Y-132878D01*
Y-137122D01*
X93471Y-137329D01*
X92978Y-136837D01*
X92077Y-136317D01*
X91072Y-136047D01*
X90031D01*
X89025Y-136317D01*
X88124Y-136837D01*
X87388Y-137573D01*
X86868Y-138474D01*
X86598Y-139480D01*
Y-140520D01*
X86868Y-141526D01*
X87388Y-142427D01*
X88124Y-143163D01*
X89025Y-143683D01*
X90031Y-143953D01*
X91072D01*
X92077Y-143683D01*
X92978Y-143163D01*
X93471Y-142671D01*
X93971Y-142878D01*
Y-147122D01*
X93471Y-147329D01*
X92978Y-146837D01*
X92077Y-146317D01*
X91072Y-146047D01*
X90031D01*
X89025Y-146317D01*
X88124Y-146837D01*
X87388Y-147573D01*
X86868Y-148474D01*
X86598Y-149480D01*
Y-150520D01*
X86868Y-151526D01*
X87388Y-152427D01*
X88124Y-153163D01*
X89025Y-153683D01*
X90031Y-153953D01*
X91072D01*
X92077Y-153683D01*
X92978Y-153163D01*
X93471Y-152671D01*
X93971Y-152878D01*
Y-157122D01*
X93471Y-157329D01*
X92978Y-156837D01*
X92077Y-156317D01*
X91072Y-156047D01*
X90031D01*
X89025Y-156317D01*
X88124Y-156837D01*
X87388Y-157573D01*
X86868Y-158474D01*
X86598Y-159480D01*
Y-160520D01*
X86868Y-161526D01*
X87388Y-162427D01*
X88124Y-163163D01*
X89025Y-163683D01*
X90031Y-163953D01*
X91072D01*
X92077Y-163683D01*
X92978Y-163163D01*
X93471Y-162671D01*
X93971Y-162878D01*
Y-167122D01*
X93471Y-167329D01*
X92978Y-166837D01*
X92077Y-166317D01*
X91072Y-166047D01*
X90031D01*
X89025Y-166317D01*
X88124Y-166837D01*
X87388Y-167573D01*
X86868Y-168474D01*
X86598Y-169480D01*
Y-170520D01*
X86868Y-171526D01*
X87388Y-172427D01*
X88124Y-173163D01*
X89025Y-173683D01*
X90031Y-173953D01*
X91072D01*
X92077Y-173683D01*
X92978Y-173163D01*
X93471Y-172671D01*
X93971Y-172878D01*
Y-181896D01*
X-267500D01*
Y-118000D01*
X-265734D01*
X-265448Y-118403D01*
X-265462Y-118500D01*
X-265724Y-119480D01*
Y-120520D01*
X-265455Y-121526D01*
X-264935Y-122427D01*
X-264199Y-123163D01*
X-263297Y-123683D01*
X-262292Y-123953D01*
X-261251D01*
X-260246Y-123683D01*
X-259345Y-123163D01*
X-258609Y-122427D01*
X-258088Y-121526D01*
X-257819Y-120520D01*
Y-119480D01*
X-258081Y-118500D01*
X-258095Y-118403D01*
X-257810Y-118000D01*
X-255734D01*
X-255448Y-118403D01*
X-255462Y-118500D01*
X-255724Y-119480D01*
Y-120520D01*
X-255455Y-121526D01*
X-254935Y-122427D01*
X-254199Y-123163D01*
X-253297Y-123683D01*
X-252292Y-123953D01*
X-251251D01*
X-250246Y-123683D01*
X-249345Y-123163D01*
X-248609Y-122427D01*
X-248088Y-121526D01*
X-247819Y-120520D01*
Y-119480D01*
X-248081Y-118500D01*
X-248095Y-118403D01*
X-247810Y-118000D01*
X-246500D01*
Y-167000D01*
X-188000D01*
Y-158906D01*
X-187943Y-158862D01*
X-187057D01*
X-186202Y-158633D01*
X-185436Y-158190D01*
X-184810Y-157564D01*
X-184367Y-156798D01*
X-184138Y-155943D01*
Y-155057D01*
X-184367Y-154202D01*
X-184810Y-153436D01*
X-185436Y-152810D01*
X-186202Y-152367D01*
X-187057Y-152138D01*
X-187943D01*
X-188000Y-152094D01*
Y-107000D01*
X-166000Y-85000D01*
X-116324D01*
X-112265Y-89059D01*
X-112378Y-89480D01*
Y-90520D01*
X-112109Y-91526D01*
X-111588Y-92427D01*
X-110852Y-93163D01*
X-109951Y-93683D01*
X-108946Y-93953D01*
X-107905D01*
X-106899Y-93683D01*
X-105998Y-93163D01*
X-105262Y-92427D01*
X-104742Y-91526D01*
X-104472Y-90520D01*
Y-89480D01*
X-104742Y-88474D01*
X-105262Y-87573D01*
X-105998Y-86837D01*
X-106899Y-86317D01*
X-107905Y-86047D01*
X-108946D01*
X-109426Y-86176D01*
X-110140Y-85462D01*
X-109948Y-85000D01*
X-59500D01*
X-15000Y-40500D01*
X-15000Y-36500D01*
X-12797D01*
X-12590Y-37000D01*
X-13163Y-37573D01*
X-13683Y-38474D01*
X-13953Y-39480D01*
Y-40520D01*
X-13683Y-41526D01*
X-13163Y-42427D01*
X-12427Y-43163D01*
X-11526Y-43683D01*
X-10520Y-43953D01*
X-9480D01*
X-8474Y-43683D01*
X-7573Y-43163D01*
X-6837Y-42427D01*
X-6317Y-41526D01*
X-6047Y-40520D01*
Y-39480D01*
X-6317Y-38474D01*
X-6837Y-37573D01*
X-7410Y-37000D01*
X-7203Y-36500D01*
X-2797D01*
X-2590Y-37000D01*
X-3163Y-37573D01*
X-3683Y-38474D01*
X-3953Y-39480D01*
Y-40520D01*
X-3683Y-41526D01*
X-3163Y-42427D01*
X-2427Y-43163D01*
X-1526Y-43683D01*
X-520Y-43953D01*
X520D01*
X1526Y-43683D01*
X2427Y-43163D01*
X3163Y-42427D01*
X3683Y-41526D01*
X3953Y-40520D01*
Y-39480D01*
X3683Y-38474D01*
X3163Y-37573D01*
X2590Y-37000D01*
X2797Y-36500D01*
X77754D01*
X77961Y-37000D01*
X77388Y-37573D01*
X76868Y-38474D01*
X76598Y-39480D01*
Y-40520D01*
X76868Y-41526D01*
X77388Y-42427D01*
X78124Y-43163D01*
X79026Y-43683D01*
X80031Y-43953D01*
X81072D01*
X82077Y-43683D01*
X82978Y-43163D01*
X83714Y-42427D01*
X84235Y-41526D01*
X84504Y-40520D01*
Y-39480D01*
X84235Y-38474D01*
X83714Y-37573D01*
X83141Y-37000D01*
X83348Y-36500D01*
X87754D01*
X87961Y-37000D01*
D02*
G37*
%LPC*%
G36*
X81072Y-46047D02*
X80031D01*
X79026Y-46317D01*
X78124Y-46837D01*
X77388Y-47573D01*
X76868Y-48474D01*
X76598Y-49480D01*
Y-50520D01*
X76868Y-51526D01*
X77388Y-52427D01*
X78124Y-53163D01*
X79026Y-53683D01*
X80031Y-53953D01*
X81072D01*
X82077Y-53683D01*
X82978Y-53163D01*
X83714Y-52427D01*
X84235Y-51526D01*
X84504Y-50520D01*
Y-49480D01*
X84235Y-48474D01*
X83714Y-47573D01*
X82978Y-46837D01*
X82077Y-46317D01*
X81072Y-46047D01*
D02*
G37*
G36*
X520D02*
X-520D01*
X-1526Y-46317D01*
X-2427Y-46837D01*
X-3163Y-47573D01*
X-3683Y-48474D01*
X-3953Y-49480D01*
Y-50520D01*
X-3683Y-51526D01*
X-3163Y-52427D01*
X-2427Y-53163D01*
X-1526Y-53683D01*
X-520Y-53953D01*
X520D01*
X1526Y-53683D01*
X2427Y-53163D01*
X3163Y-52427D01*
X3683Y-51526D01*
X3953Y-50520D01*
Y-49480D01*
X3683Y-48474D01*
X3163Y-47573D01*
X2427Y-46837D01*
X1526Y-46317D01*
X520Y-46047D01*
D02*
G37*
G36*
X-9480D02*
X-10520D01*
X-11526Y-46317D01*
X-12427Y-46837D01*
X-13163Y-47573D01*
X-13683Y-48474D01*
X-13953Y-49480D01*
Y-50520D01*
X-13683Y-51526D01*
X-13163Y-52427D01*
X-12427Y-53163D01*
X-11526Y-53683D01*
X-10520Y-53953D01*
X-9480D01*
X-8474Y-53683D01*
X-7573Y-53163D01*
X-6837Y-52427D01*
X-6317Y-51526D01*
X-6047Y-50520D01*
Y-49480D01*
X-6317Y-48474D01*
X-6837Y-47573D01*
X-7573Y-46837D01*
X-8474Y-46317D01*
X-9480Y-46047D01*
D02*
G37*
G36*
X81072Y-56047D02*
X80031D01*
X79026Y-56317D01*
X78124Y-56837D01*
X77388Y-57573D01*
X76868Y-58474D01*
X76598Y-59480D01*
Y-60520D01*
X76868Y-61526D01*
X77388Y-62427D01*
X78124Y-63163D01*
X79026Y-63683D01*
X80031Y-63953D01*
X81072D01*
X82077Y-63683D01*
X82978Y-63163D01*
X83714Y-62427D01*
X84235Y-61526D01*
X84504Y-60520D01*
Y-59480D01*
X84235Y-58474D01*
X83714Y-57573D01*
X82978Y-56837D01*
X82077Y-56317D01*
X81072Y-56047D01*
D02*
G37*
G36*
X520D02*
X-520D01*
X-1526Y-56317D01*
X-2427Y-56837D01*
X-3163Y-57573D01*
X-3683Y-58474D01*
X-3953Y-59480D01*
Y-60520D01*
X-3683Y-61526D01*
X-3163Y-62427D01*
X-2427Y-63163D01*
X-1526Y-63683D01*
X-520Y-63953D01*
X520D01*
X1526Y-63683D01*
X2427Y-63163D01*
X3163Y-62427D01*
X3683Y-61526D01*
X3953Y-60520D01*
Y-59480D01*
X3683Y-58474D01*
X3163Y-57573D01*
X2427Y-56837D01*
X1526Y-56317D01*
X520Y-56047D01*
D02*
G37*
G36*
X-9480D02*
X-10520D01*
X-11526Y-56317D01*
X-12427Y-56837D01*
X-13163Y-57573D01*
X-13683Y-58474D01*
X-13953Y-59480D01*
Y-60520D01*
X-13683Y-61526D01*
X-13163Y-62427D01*
X-12427Y-63163D01*
X-11526Y-63683D01*
X-10520Y-63953D01*
X-9480D01*
X-8474Y-63683D01*
X-7573Y-63163D01*
X-6837Y-62427D01*
X-6317Y-61526D01*
X-6047Y-60520D01*
Y-59480D01*
X-6317Y-58474D01*
X-6837Y-57573D01*
X-7573Y-56837D01*
X-8474Y-56317D01*
X-9480Y-56047D01*
D02*
G37*
G36*
X-21057Y-60638D02*
X-21943D01*
X-22798Y-60867D01*
X-23564Y-61310D01*
X-24190Y-61936D01*
X-24633Y-62702D01*
X-24862Y-63557D01*
Y-64443D01*
X-24633Y-65298D01*
X-24190Y-66064D01*
X-23564Y-66690D01*
X-22798Y-67133D01*
X-21943Y-67362D01*
X-21057D01*
X-20202Y-67133D01*
X-19436Y-66690D01*
X-18810Y-66064D01*
X-18367Y-65298D01*
X-18138Y-64443D01*
Y-63557D01*
X-18367Y-62702D01*
X-18810Y-61936D01*
X-19436Y-61310D01*
X-20202Y-60867D01*
X-21057Y-60638D01*
D02*
G37*
G36*
X-30557D02*
X-31443D01*
X-32298Y-60867D01*
X-33064Y-61310D01*
X-33690Y-61936D01*
X-34133Y-62702D01*
X-34362Y-63557D01*
Y-64443D01*
X-34133Y-65298D01*
X-33690Y-66064D01*
X-33064Y-66690D01*
X-32298Y-67133D01*
X-31443Y-67362D01*
X-30557D01*
X-29702Y-67133D01*
X-28936Y-66690D01*
X-28310Y-66064D01*
X-27867Y-65298D01*
X-27638Y-64443D01*
Y-63557D01*
X-27867Y-62702D01*
X-28310Y-61936D01*
X-28936Y-61310D01*
X-29702Y-60867D01*
X-30557Y-60638D01*
D02*
G37*
G36*
X81072Y-66047D02*
X80031D01*
X79026Y-66317D01*
X78124Y-66837D01*
X77388Y-67573D01*
X76868Y-68474D01*
X76598Y-69480D01*
Y-70520D01*
X76868Y-71526D01*
X77388Y-72427D01*
X78124Y-73163D01*
X79026Y-73683D01*
X80031Y-73953D01*
X81072D01*
X82077Y-73683D01*
X82978Y-73163D01*
X83714Y-72427D01*
X84235Y-71526D01*
X84504Y-70520D01*
Y-69480D01*
X84235Y-68474D01*
X83714Y-67573D01*
X82978Y-66837D01*
X82077Y-66317D01*
X81072Y-66047D01*
D02*
G37*
G36*
X520D02*
X-520D01*
X-1526Y-66317D01*
X-2427Y-66837D01*
X-3163Y-67573D01*
X-3683Y-68474D01*
X-3953Y-69480D01*
Y-70520D01*
X-3683Y-71526D01*
X-3163Y-72427D01*
X-2427Y-73163D01*
X-1526Y-73683D01*
X-520Y-73953D01*
X520D01*
X1526Y-73683D01*
X2427Y-73163D01*
X3163Y-72427D01*
X3683Y-71526D01*
X3953Y-70520D01*
Y-69480D01*
X3683Y-68474D01*
X3163Y-67573D01*
X2427Y-66837D01*
X1526Y-66317D01*
X520Y-66047D01*
D02*
G37*
G36*
X-9480D02*
X-10520D01*
X-11526Y-66317D01*
X-12427Y-66837D01*
X-13163Y-67573D01*
X-13683Y-68474D01*
X-13953Y-69480D01*
Y-70520D01*
X-13683Y-71526D01*
X-13163Y-72427D01*
X-12427Y-73163D01*
X-11526Y-73683D01*
X-10520Y-73953D01*
X-9480D01*
X-8474Y-73683D01*
X-7573Y-73163D01*
X-6837Y-72427D01*
X-6317Y-71526D01*
X-6047Y-70520D01*
Y-69480D01*
X-6317Y-68474D01*
X-6837Y-67573D01*
X-7573Y-66837D01*
X-8474Y-66317D01*
X-9480Y-66047D01*
D02*
G37*
G36*
X81072Y-76047D02*
X80031D01*
X79026Y-76317D01*
X78124Y-76837D01*
X77388Y-77573D01*
X76868Y-78474D01*
X76598Y-79480D01*
Y-80520D01*
X76868Y-81526D01*
X77388Y-82427D01*
X78124Y-83163D01*
X79026Y-83683D01*
X80031Y-83953D01*
X81072D01*
X82077Y-83683D01*
X82978Y-83163D01*
X83714Y-82427D01*
X84235Y-81526D01*
X84504Y-80520D01*
Y-79480D01*
X84235Y-78474D01*
X83714Y-77573D01*
X82978Y-76837D01*
X82077Y-76317D01*
X81072Y-76047D01*
D02*
G37*
G36*
X520D02*
X-520D01*
X-1526Y-76317D01*
X-2427Y-76837D01*
X-3163Y-77573D01*
X-3683Y-78474D01*
X-3953Y-79480D01*
Y-80520D01*
X-3683Y-81526D01*
X-3163Y-82427D01*
X-2427Y-83163D01*
X-1526Y-83683D01*
X-520Y-83953D01*
X520D01*
X1526Y-83683D01*
X2427Y-83163D01*
X3163Y-82427D01*
X3683Y-81526D01*
X3953Y-80520D01*
Y-79480D01*
X3683Y-78474D01*
X3163Y-77573D01*
X2427Y-76837D01*
X1526Y-76317D01*
X520Y-76047D01*
D02*
G37*
G36*
X-9480D02*
X-10520D01*
X-11526Y-76317D01*
X-12427Y-76837D01*
X-13163Y-77573D01*
X-13683Y-78474D01*
X-13953Y-79480D01*
Y-80520D01*
X-13683Y-81526D01*
X-13163Y-82427D01*
X-12427Y-83163D01*
X-11526Y-83683D01*
X-10520Y-83953D01*
X-9480D01*
X-8474Y-83683D01*
X-7573Y-83163D01*
X-6837Y-82427D01*
X-6317Y-81526D01*
X-6047Y-80520D01*
Y-79480D01*
X-6317Y-78474D01*
X-6837Y-77573D01*
X-7573Y-76837D01*
X-8474Y-76317D01*
X-9480Y-76047D01*
D02*
G37*
G36*
X24443Y-80138D02*
X23557D01*
X22702Y-80367D01*
X21936Y-80810D01*
X21310Y-81436D01*
X20867Y-82202D01*
X20638Y-83057D01*
Y-83943D01*
X20867Y-84798D01*
X21310Y-85564D01*
X21936Y-86190D01*
X22702Y-86633D01*
X23557Y-86862D01*
X24443D01*
X25298Y-86633D01*
X26064Y-86190D01*
X26690Y-85564D01*
X27133Y-84798D01*
X27362Y-83943D01*
Y-83057D01*
X27133Y-82202D01*
X26690Y-81436D01*
X26064Y-80810D01*
X25298Y-80367D01*
X24443Y-80138D01*
D02*
G37*
G36*
X81072Y-86047D02*
X80031D01*
X79026Y-86317D01*
X78124Y-86837D01*
X77388Y-87573D01*
X76868Y-88474D01*
X76598Y-89480D01*
Y-90520D01*
X76868Y-91526D01*
X77388Y-92427D01*
X78124Y-93163D01*
X79026Y-93683D01*
X80031Y-93953D01*
X81072D01*
X82077Y-93683D01*
X82978Y-93163D01*
X83714Y-92427D01*
X84235Y-91526D01*
X84504Y-90520D01*
Y-89480D01*
X84235Y-88474D01*
X83714Y-87573D01*
X82978Y-86837D01*
X82077Y-86317D01*
X81072Y-86047D01*
D02*
G37*
G36*
X520D02*
X-520D01*
X-1526Y-86317D01*
X-2427Y-86837D01*
X-3163Y-87573D01*
X-3683Y-88474D01*
X-3953Y-89480D01*
Y-90520D01*
X-3683Y-91526D01*
X-3163Y-92427D01*
X-2427Y-93163D01*
X-1526Y-93683D01*
X-520Y-93953D01*
X520D01*
X1526Y-93683D01*
X2427Y-93163D01*
X3163Y-92427D01*
X3683Y-91526D01*
X3953Y-90520D01*
Y-89480D01*
X3683Y-88474D01*
X3163Y-87573D01*
X2427Y-86837D01*
X1526Y-86317D01*
X520Y-86047D01*
D02*
G37*
G36*
X-9480D02*
X-10520D01*
X-11526Y-86317D01*
X-12427Y-86837D01*
X-13163Y-87573D01*
X-13683Y-88474D01*
X-13953Y-89480D01*
Y-90520D01*
X-13683Y-91526D01*
X-13163Y-92427D01*
X-12427Y-93163D01*
X-11526Y-93683D01*
X-10520Y-93953D01*
X-9480D01*
X-8474Y-93683D01*
X-7573Y-93163D01*
X-6837Y-92427D01*
X-6317Y-91526D01*
X-6047Y-90520D01*
Y-89480D01*
X-6317Y-88474D01*
X-6837Y-87573D01*
X-7573Y-86837D01*
X-8474Y-86317D01*
X-9480Y-86047D01*
D02*
G37*
G36*
X-97905D02*
X-98946D01*
X-99951Y-86317D01*
X-100852Y-86837D01*
X-101588Y-87573D01*
X-102109Y-88474D01*
X-102378Y-89480D01*
Y-90520D01*
X-102109Y-91526D01*
X-101588Y-92427D01*
X-100852Y-93163D01*
X-99951Y-93683D01*
X-98946Y-93953D01*
X-97905D01*
X-96899Y-93683D01*
X-95998Y-93163D01*
X-95262Y-92427D01*
X-94742Y-91526D01*
X-94472Y-90520D01*
Y-89480D01*
X-94742Y-88474D01*
X-95262Y-87573D01*
X-95998Y-86837D01*
X-96899Y-86317D01*
X-97905Y-86047D01*
D02*
G37*
G36*
X-150980D02*
X-152020D01*
X-153026Y-86317D01*
X-153927Y-86837D01*
X-154663Y-87573D01*
X-155183Y-88474D01*
X-155453Y-89480D01*
Y-90520D01*
X-155183Y-91526D01*
X-154663Y-92427D01*
X-153927Y-93163D01*
X-153026Y-93683D01*
X-152020Y-93953D01*
X-150980D01*
X-149974Y-93683D01*
X-149073Y-93163D01*
X-148337Y-92427D01*
X-147817Y-91526D01*
X-147547Y-90520D01*
Y-89480D01*
X-147817Y-88474D01*
X-148337Y-87573D01*
X-149073Y-86837D01*
X-149974Y-86317D01*
X-150980Y-86047D01*
D02*
G37*
G36*
X-160980D02*
X-162020D01*
X-163026Y-86317D01*
X-163927Y-86837D01*
X-164663Y-87573D01*
X-165183Y-88474D01*
X-165453Y-89480D01*
Y-90520D01*
X-165183Y-91526D01*
X-164663Y-92427D01*
X-163927Y-93163D01*
X-163026Y-93683D01*
X-162020Y-93953D01*
X-160980D01*
X-159974Y-93683D01*
X-159073Y-93163D01*
X-158337Y-92427D01*
X-157817Y-91526D01*
X-157547Y-90520D01*
Y-89480D01*
X-157817Y-88474D01*
X-158337Y-87573D01*
X-159073Y-86837D01*
X-159974Y-86317D01*
X-160980Y-86047D01*
D02*
G37*
G36*
X-132557Y-88638D02*
X-133443D01*
X-134298Y-88867D01*
X-135064Y-89310D01*
X-135690Y-89936D01*
X-136133Y-90702D01*
X-136362Y-91557D01*
Y-92443D01*
X-136133Y-93298D01*
X-135690Y-94064D01*
X-135064Y-94690D01*
X-134298Y-95133D01*
X-133443Y-95362D01*
X-132557D01*
X-131702Y-95133D01*
X-130936Y-94690D01*
X-130310Y-94064D01*
X-129867Y-93298D01*
X-129638Y-92443D01*
Y-91557D01*
X-129867Y-90702D01*
X-130310Y-89936D01*
X-130936Y-89310D01*
X-131702Y-88867D01*
X-132557Y-88638D01*
D02*
G37*
G36*
X81072Y-96047D02*
X80031D01*
X79026Y-96317D01*
X78124Y-96837D01*
X77388Y-97573D01*
X77039Y-98178D01*
X7000D01*
X6303Y-98316D01*
X5711Y-98711D01*
X5711Y-98711D01*
X4415Y-100008D01*
X3953Y-99817D01*
Y-99480D01*
X3683Y-98474D01*
X3163Y-97573D01*
X2427Y-96837D01*
X1526Y-96317D01*
X520Y-96047D01*
X-520D01*
X-1526Y-96317D01*
X-2427Y-96837D01*
X-3163Y-97573D01*
X-3683Y-98474D01*
X-3953Y-99480D01*
Y-100520D01*
X-3683Y-101526D01*
X-3178Y-102402D01*
X-3244Y-102666D01*
X-3341Y-102902D01*
X-6659D01*
X-6756Y-102666D01*
X-6822Y-102402D01*
X-6317Y-101526D01*
X-6047Y-100520D01*
Y-99480D01*
X-6317Y-98474D01*
X-6837Y-97573D01*
X-7573Y-96837D01*
X-8474Y-96317D01*
X-9480Y-96047D01*
X-10520D01*
X-11526Y-96317D01*
X-12427Y-96837D01*
X-13163Y-97573D01*
X-13683Y-98474D01*
X-13953Y-99480D01*
Y-100520D01*
X-13683Y-101526D01*
X-13178Y-102402D01*
X-13244Y-102666D01*
X-13341Y-102902D01*
X-95084D01*
X-95181Y-102666D01*
X-95248Y-102402D01*
X-94742Y-101526D01*
X-94472Y-100520D01*
Y-99480D01*
X-94742Y-98474D01*
X-95262Y-97573D01*
X-95998Y-96837D01*
X-96899Y-96317D01*
X-97905Y-96047D01*
X-98946D01*
X-99951Y-96317D01*
X-100852Y-96837D01*
X-101588Y-97573D01*
X-102109Y-98474D01*
X-102378Y-99480D01*
Y-100520D01*
X-102109Y-101526D01*
X-101603Y-102402D01*
X-101669Y-102666D01*
X-101767Y-102902D01*
X-102946D01*
X-104653Y-101195D01*
X-104472Y-100520D01*
Y-99480D01*
X-104742Y-98474D01*
X-105262Y-97573D01*
X-105998Y-96837D01*
X-106899Y-96317D01*
X-107905Y-96047D01*
X-108946D01*
X-109951Y-96317D01*
X-110852Y-96837D01*
X-111588Y-97573D01*
X-112109Y-98474D01*
X-112378Y-99480D01*
Y-100520D01*
X-112109Y-101526D01*
X-111588Y-102427D01*
X-110852Y-103163D01*
X-109951Y-103683D01*
X-108946Y-103953D01*
X-107905D01*
X-107230Y-103772D01*
X-104990Y-106013D01*
X-104989Y-106013D01*
X-104398Y-106408D01*
X-103701Y-106547D01*
X-101269D01*
X-101062Y-107047D01*
X-101588Y-107573D01*
X-102109Y-108474D01*
X-102378Y-109480D01*
Y-110520D01*
X-102109Y-111526D01*
X-101603Y-112402D01*
X-101669Y-112666D01*
X-101767Y-112902D01*
X-102946D01*
X-104653Y-111195D01*
X-104472Y-110520D01*
Y-109480D01*
X-104742Y-108474D01*
X-105262Y-107573D01*
X-105998Y-106837D01*
X-106899Y-106317D01*
X-107905Y-106047D01*
X-108946D01*
X-109951Y-106317D01*
X-110852Y-106837D01*
X-111588Y-107573D01*
X-112109Y-108474D01*
X-112378Y-109480D01*
Y-110520D01*
X-112109Y-111526D01*
X-111588Y-112427D01*
X-110852Y-113163D01*
X-109951Y-113683D01*
X-108946Y-113953D01*
X-107905D01*
X-107230Y-113772D01*
X-104990Y-116013D01*
X-104989Y-116013D01*
X-104398Y-116408D01*
X-103701Y-116547D01*
X-101269D01*
X-101062Y-117047D01*
X-101588Y-117573D01*
X-102109Y-118474D01*
X-102378Y-119480D01*
Y-120520D01*
X-102109Y-121526D01*
X-101603Y-122402D01*
X-101669Y-122667D01*
X-101767Y-122902D01*
X-102946D01*
X-104653Y-121195D01*
X-104472Y-120520D01*
Y-119480D01*
X-104742Y-118474D01*
X-105262Y-117573D01*
X-105998Y-116837D01*
X-106899Y-116317D01*
X-107905Y-116047D01*
X-108946D01*
X-109951Y-116317D01*
X-110852Y-116837D01*
X-111588Y-117573D01*
X-112109Y-118474D01*
X-112378Y-119480D01*
Y-120520D01*
X-112109Y-121526D01*
X-111588Y-122427D01*
X-110852Y-123163D01*
X-109951Y-123683D01*
X-108946Y-123953D01*
X-107905D01*
X-107230Y-123772D01*
X-104990Y-126013D01*
X-104989Y-126013D01*
X-104398Y-126408D01*
X-103701Y-126547D01*
X-101269D01*
X-101062Y-127047D01*
X-101588Y-127573D01*
X-102109Y-128474D01*
X-102378Y-129480D01*
Y-130520D01*
X-102109Y-131526D01*
X-101603Y-132402D01*
X-101669Y-132667D01*
X-101767Y-132902D01*
X-102946D01*
X-104653Y-131195D01*
X-104472Y-130520D01*
Y-129480D01*
X-104742Y-128474D01*
X-105262Y-127573D01*
X-105998Y-126837D01*
X-106899Y-126317D01*
X-107905Y-126047D01*
X-108946D01*
X-109951Y-126317D01*
X-110852Y-126837D01*
X-111588Y-127573D01*
X-112109Y-128474D01*
X-112378Y-129480D01*
Y-130520D01*
X-112109Y-131526D01*
X-111588Y-132427D01*
X-110852Y-133163D01*
X-109951Y-133683D01*
X-108946Y-133953D01*
X-107905D01*
X-107230Y-133772D01*
X-104990Y-136013D01*
X-104989Y-136013D01*
X-104398Y-136408D01*
X-103701Y-136547D01*
X-101269D01*
X-101062Y-137047D01*
X-101588Y-137573D01*
X-102109Y-138474D01*
X-102378Y-139480D01*
Y-140520D01*
X-102109Y-141526D01*
X-101603Y-142402D01*
X-101669Y-142666D01*
X-101767Y-142902D01*
X-102946D01*
X-104653Y-141195D01*
X-104472Y-140520D01*
Y-139480D01*
X-104742Y-138474D01*
X-105262Y-137573D01*
X-105998Y-136837D01*
X-106899Y-136317D01*
X-107905Y-136047D01*
X-108946D01*
X-109951Y-136317D01*
X-110852Y-136837D01*
X-111588Y-137573D01*
X-112109Y-138474D01*
X-112378Y-139480D01*
Y-140520D01*
X-112109Y-141526D01*
X-111588Y-142427D01*
X-110852Y-143163D01*
X-109951Y-143683D01*
X-108946Y-143953D01*
X-107905D01*
X-107230Y-143772D01*
X-104990Y-146013D01*
X-104989Y-146013D01*
X-104398Y-146408D01*
X-103701Y-146547D01*
X-101269D01*
X-101062Y-147047D01*
X-101588Y-147573D01*
X-102109Y-148474D01*
X-102378Y-149480D01*
Y-150520D01*
X-102109Y-151526D01*
X-101603Y-152402D01*
X-101669Y-152666D01*
X-101767Y-152902D01*
X-102946D01*
X-104653Y-151195D01*
X-104472Y-150520D01*
Y-149480D01*
X-104742Y-148474D01*
X-105262Y-147573D01*
X-105998Y-146837D01*
X-106899Y-146317D01*
X-107905Y-146047D01*
X-108946D01*
X-109951Y-146317D01*
X-110852Y-146837D01*
X-111588Y-147573D01*
X-112109Y-148474D01*
X-112378Y-149480D01*
Y-150520D01*
X-112109Y-151526D01*
X-111588Y-152427D01*
X-110852Y-153163D01*
X-109951Y-153683D01*
X-108946Y-153953D01*
X-107905D01*
X-107230Y-153772D01*
X-104990Y-156013D01*
X-104989Y-156013D01*
X-104398Y-156408D01*
X-103701Y-156547D01*
X-101269D01*
X-101062Y-157047D01*
X-101588Y-157573D01*
X-102109Y-158474D01*
X-102378Y-159480D01*
Y-160520D01*
X-102109Y-161526D01*
X-101588Y-162427D01*
X-100852Y-163163D01*
X-99951Y-163683D01*
X-98946Y-163953D01*
X-97905D01*
X-96899Y-163683D01*
X-95998Y-163163D01*
X-95262Y-162427D01*
X-94742Y-161526D01*
X-94472Y-160520D01*
Y-159480D01*
X-94742Y-158474D01*
X-95262Y-157573D01*
X-95788Y-157047D01*
X-95581Y-156547D01*
X-12844D01*
X-12637Y-157047D01*
X-13163Y-157573D01*
X-13683Y-158474D01*
X-13953Y-159480D01*
Y-160520D01*
X-13683Y-161526D01*
X-13163Y-162427D01*
X-12427Y-163163D01*
X-11526Y-163683D01*
X-10520Y-163953D01*
X-9480D01*
X-8474Y-163683D01*
X-7573Y-163163D01*
X-6837Y-162427D01*
X-6317Y-161526D01*
X-6047Y-160520D01*
Y-159480D01*
X-6317Y-158474D01*
X-6837Y-157573D01*
X-7363Y-157047D01*
X-7156Y-156547D01*
X-2844D01*
X-2637Y-157047D01*
X-3163Y-157573D01*
X-3683Y-158474D01*
X-3953Y-159480D01*
Y-160520D01*
X-3683Y-161526D01*
X-3163Y-162427D01*
X-2427Y-163163D01*
X-1526Y-163683D01*
X-520Y-163953D01*
X520D01*
X1526Y-163683D01*
X2427Y-163163D01*
X3163Y-162427D01*
X3683Y-161526D01*
X3953Y-160520D01*
Y-159480D01*
X3683Y-158474D01*
X3163Y-157573D01*
X2532Y-156942D01*
X2602Y-156507D01*
X2654Y-156408D01*
X3246Y-156013D01*
X7436Y-151822D01*
X77039D01*
X77388Y-152427D01*
X78124Y-153163D01*
X79026Y-153683D01*
X80031Y-153953D01*
X81072D01*
X82077Y-153683D01*
X82978Y-153163D01*
X83714Y-152427D01*
X84235Y-151526D01*
X84504Y-150520D01*
Y-149480D01*
X84235Y-148474D01*
X83714Y-147573D01*
X82978Y-146837D01*
X82077Y-146317D01*
X81072Y-146047D01*
X80031D01*
X79026Y-146317D01*
X78124Y-146837D01*
X77388Y-147573D01*
X77039Y-148178D01*
X6681D01*
X5984Y-148316D01*
X5393Y-148711D01*
X5393Y-148711D01*
X4415Y-149689D01*
X4179Y-149592D01*
X3945Y-149452D01*
X3683Y-148474D01*
X3163Y-147573D01*
X2532Y-146942D01*
X2602Y-146507D01*
X2654Y-146408D01*
X3246Y-146013D01*
X7436Y-141822D01*
X77039D01*
X77388Y-142427D01*
X78124Y-143163D01*
X79026Y-143683D01*
X80031Y-143953D01*
X81072D01*
X82077Y-143683D01*
X82978Y-143163D01*
X83714Y-142427D01*
X84235Y-141526D01*
X84504Y-140520D01*
Y-139480D01*
X84235Y-138474D01*
X83714Y-137573D01*
X82978Y-136837D01*
X82077Y-136317D01*
X81072Y-136047D01*
X80031D01*
X79026Y-136317D01*
X78124Y-136837D01*
X77388Y-137573D01*
X77039Y-138178D01*
X6681D01*
X5984Y-138316D01*
X5393Y-138711D01*
X5393Y-138711D01*
X4415Y-139689D01*
X4179Y-139592D01*
X3945Y-139452D01*
X3683Y-138474D01*
X3163Y-137573D01*
X2532Y-136942D01*
X2602Y-136507D01*
X2654Y-136408D01*
X3246Y-136013D01*
X7436Y-131822D01*
X77039D01*
X77388Y-132427D01*
X78124Y-133163D01*
X79026Y-133683D01*
X80031Y-133953D01*
X81072D01*
X82077Y-133683D01*
X82978Y-133163D01*
X83714Y-132427D01*
X84235Y-131526D01*
X84504Y-130520D01*
Y-129480D01*
X84235Y-128474D01*
X83714Y-127573D01*
X82978Y-126837D01*
X82077Y-126317D01*
X81072Y-126047D01*
X80031D01*
X79026Y-126317D01*
X78124Y-126837D01*
X77388Y-127573D01*
X77039Y-128178D01*
X6681D01*
X5984Y-128316D01*
X5393Y-128711D01*
X5393Y-128711D01*
X4415Y-129689D01*
X4179Y-129592D01*
X3945Y-129452D01*
X3683Y-128474D01*
X3163Y-127573D01*
X2532Y-126942D01*
X2602Y-126507D01*
X2654Y-126408D01*
X3246Y-126013D01*
X7436Y-121822D01*
X77039D01*
X77388Y-122427D01*
X78124Y-123163D01*
X79026Y-123683D01*
X80031Y-123953D01*
X81072D01*
X82077Y-123683D01*
X82978Y-123163D01*
X83714Y-122427D01*
X84235Y-121526D01*
X84504Y-120520D01*
Y-119480D01*
X84235Y-118474D01*
X83714Y-117573D01*
X82978Y-116837D01*
X82077Y-116317D01*
X81072Y-116047D01*
X80031D01*
X79026Y-116317D01*
X78124Y-116837D01*
X77388Y-117573D01*
X77039Y-118178D01*
X6681D01*
X5984Y-118316D01*
X5393Y-118711D01*
X5393Y-118711D01*
X4415Y-119689D01*
X4179Y-119592D01*
X3945Y-119452D01*
X3683Y-118474D01*
X3163Y-117573D01*
X2532Y-116942D01*
X2602Y-116507D01*
X2654Y-116408D01*
X3246Y-116013D01*
X7436Y-111822D01*
X77039D01*
X77388Y-112427D01*
X78124Y-113163D01*
X79026Y-113683D01*
X80031Y-113953D01*
X81072D01*
X82077Y-113683D01*
X82978Y-113163D01*
X83714Y-112427D01*
X84235Y-111526D01*
X84504Y-110520D01*
Y-109480D01*
X84235Y-108474D01*
X83714Y-107573D01*
X82978Y-106837D01*
X82077Y-106317D01*
X81072Y-106047D01*
X80031D01*
X79026Y-106317D01*
X78124Y-106837D01*
X77388Y-107573D01*
X77039Y-108178D01*
X6681D01*
X5984Y-108316D01*
X5393Y-108711D01*
X5393Y-108711D01*
X4415Y-109689D01*
X4179Y-109592D01*
X3945Y-109452D01*
X3683Y-108474D01*
X3163Y-107573D01*
X2585Y-106995D01*
X2720Y-106458D01*
X2973Y-106408D01*
X3564Y-106013D01*
X7755Y-101822D01*
X77039D01*
X77388Y-102427D01*
X78124Y-103163D01*
X79026Y-103683D01*
X80031Y-103953D01*
X81072D01*
X82077Y-103683D01*
X82978Y-103163D01*
X83714Y-102427D01*
X84235Y-101526D01*
X84504Y-100520D01*
Y-99480D01*
X84235Y-98474D01*
X83714Y-97573D01*
X82978Y-96837D01*
X82077Y-96317D01*
X81072Y-96047D01*
D02*
G37*
G36*
X-150980D02*
X-152020D01*
X-153026Y-96317D01*
X-153927Y-96837D01*
X-154663Y-97573D01*
X-155183Y-98474D01*
X-155453Y-99480D01*
Y-100520D01*
X-155183Y-101526D01*
X-154663Y-102427D01*
X-153927Y-103163D01*
X-153026Y-103683D01*
X-152020Y-103953D01*
X-150980D01*
X-149974Y-103683D01*
X-149073Y-103163D01*
X-148337Y-102427D01*
X-147817Y-101526D01*
X-147547Y-100520D01*
Y-99480D01*
X-147817Y-98474D01*
X-148337Y-97573D01*
X-149073Y-96837D01*
X-149974Y-96317D01*
X-150980Y-96047D01*
D02*
G37*
G36*
X-160980D02*
X-162020D01*
X-163026Y-96317D01*
X-163927Y-96837D01*
X-164663Y-97573D01*
X-165183Y-98474D01*
X-165453Y-99480D01*
Y-100520D01*
X-165183Y-101526D01*
X-164663Y-102427D01*
X-163927Y-103163D01*
X-163026Y-103683D01*
X-162020Y-103953D01*
X-160980D01*
X-159974Y-103683D01*
X-159073Y-103163D01*
X-158337Y-102427D01*
X-157817Y-101526D01*
X-157547Y-100520D01*
Y-99480D01*
X-157817Y-98474D01*
X-158337Y-97573D01*
X-159073Y-96837D01*
X-159974Y-96317D01*
X-160980Y-96047D01*
D02*
G37*
G36*
X-171557Y-109638D02*
X-172443D01*
X-173298Y-109867D01*
X-174064Y-110310D01*
X-174690Y-110936D01*
X-175133Y-111702D01*
X-175241Y-112106D01*
X-175759D01*
X-175867Y-111702D01*
X-176310Y-110936D01*
X-176936Y-110310D01*
X-177702Y-109867D01*
X-178557Y-109638D01*
X-179443D01*
X-180298Y-109867D01*
X-181064Y-110310D01*
X-181690Y-110936D01*
X-182133Y-111702D01*
X-182362Y-112557D01*
Y-113443D01*
X-182133Y-114298D01*
X-181690Y-115064D01*
X-181064Y-115690D01*
X-180298Y-116133D01*
X-179443Y-116362D01*
X-178557D01*
X-177702Y-116133D01*
X-176936Y-115690D01*
X-176310Y-115064D01*
X-175867Y-114298D01*
X-175759Y-113894D01*
X-175241D01*
X-175133Y-114298D01*
X-174690Y-115064D01*
X-174064Y-115690D01*
X-173298Y-116133D01*
X-172443Y-116362D01*
X-171557D01*
X-170702Y-116133D01*
X-169936Y-115690D01*
X-169310Y-115064D01*
X-168867Y-114298D01*
X-168638Y-113443D01*
Y-112557D01*
X-168867Y-111702D01*
X-169310Y-110936D01*
X-169936Y-110310D01*
X-170702Y-109867D01*
X-171557Y-109638D01*
D02*
G37*
G36*
X-150980Y-106047D02*
X-152020D01*
X-153026Y-106317D01*
X-153927Y-106837D01*
X-154663Y-107573D01*
X-155183Y-108474D01*
X-155453Y-109480D01*
Y-110520D01*
X-155183Y-111526D01*
X-154663Y-112427D01*
X-153927Y-113163D01*
X-153026Y-113683D01*
X-152020Y-113953D01*
X-150980D01*
X-149974Y-113683D01*
X-149073Y-113163D01*
X-148337Y-112427D01*
X-147817Y-111526D01*
X-147547Y-110520D01*
Y-109480D01*
X-147817Y-108474D01*
X-148337Y-107573D01*
X-149073Y-106837D01*
X-149974Y-106317D01*
X-150980Y-106047D01*
D02*
G37*
G36*
X-160980D02*
X-162020D01*
X-163026Y-106317D01*
X-163927Y-106837D01*
X-164663Y-107573D01*
X-165183Y-108474D01*
X-165453Y-109480D01*
Y-110520D01*
X-165183Y-111526D01*
X-164663Y-112427D01*
X-163927Y-113163D01*
X-163026Y-113683D01*
X-162020Y-113953D01*
X-160980D01*
X-159974Y-113683D01*
X-159073Y-113163D01*
X-158337Y-112427D01*
X-157817Y-111526D01*
X-157547Y-110520D01*
Y-109480D01*
X-157817Y-108474D01*
X-158337Y-107573D01*
X-159073Y-106837D01*
X-159974Y-106317D01*
X-160980Y-106047D01*
D02*
G37*
G36*
X-150980Y-116047D02*
X-152020D01*
X-153026Y-116317D01*
X-153927Y-116837D01*
X-154663Y-117573D01*
X-155183Y-118474D01*
X-155453Y-119480D01*
Y-120520D01*
X-155183Y-121526D01*
X-154663Y-122427D01*
X-153927Y-123163D01*
X-153026Y-123683D01*
X-152020Y-123953D01*
X-150980D01*
X-149974Y-123683D01*
X-149073Y-123163D01*
X-148337Y-122427D01*
X-147817Y-121526D01*
X-147547Y-120520D01*
Y-119480D01*
X-147817Y-118474D01*
X-148337Y-117573D01*
X-149073Y-116837D01*
X-149974Y-116317D01*
X-150980Y-116047D01*
D02*
G37*
G36*
X-160980D02*
X-162020D01*
X-163026Y-116317D01*
X-163927Y-116837D01*
X-164663Y-117573D01*
X-165183Y-118474D01*
X-165453Y-119480D01*
Y-120520D01*
X-165183Y-121526D01*
X-164663Y-122427D01*
X-163927Y-123163D01*
X-163026Y-123683D01*
X-162020Y-123953D01*
X-160980D01*
X-159974Y-123683D01*
X-159073Y-123163D01*
X-158337Y-122427D01*
X-157817Y-121526D01*
X-157547Y-120520D01*
Y-119480D01*
X-157817Y-118474D01*
X-158337Y-117573D01*
X-159073Y-116837D01*
X-159974Y-116317D01*
X-160980Y-116047D01*
D02*
G37*
G36*
X-150980Y-126047D02*
X-152020D01*
X-153026Y-126317D01*
X-153927Y-126837D01*
X-154663Y-127573D01*
X-155183Y-128474D01*
X-155453Y-129480D01*
Y-130520D01*
X-155183Y-131526D01*
X-154663Y-132427D01*
X-153927Y-133163D01*
X-153026Y-133683D01*
X-152020Y-133953D01*
X-150980D01*
X-149974Y-133683D01*
X-149073Y-133163D01*
X-148337Y-132427D01*
X-147817Y-131526D01*
X-147547Y-130520D01*
Y-129480D01*
X-147817Y-128474D01*
X-148337Y-127573D01*
X-149073Y-126837D01*
X-149974Y-126317D01*
X-150980Y-126047D01*
D02*
G37*
G36*
X-160980D02*
X-162020D01*
X-163026Y-126317D01*
X-163927Y-126837D01*
X-164663Y-127573D01*
X-165183Y-128474D01*
X-165453Y-129480D01*
Y-130520D01*
X-165183Y-131526D01*
X-164663Y-132427D01*
X-163927Y-133163D01*
X-163026Y-133683D01*
X-162020Y-133953D01*
X-160980D01*
X-159974Y-133683D01*
X-159073Y-133163D01*
X-158337Y-132427D01*
X-157817Y-131526D01*
X-157547Y-130520D01*
Y-129480D01*
X-157817Y-128474D01*
X-158337Y-127573D01*
X-159073Y-126837D01*
X-159974Y-126317D01*
X-160980Y-126047D01*
D02*
G37*
G36*
X-251251D02*
X-252292D01*
X-253297Y-126317D01*
X-254199Y-126837D01*
X-254935Y-127573D01*
X-255455Y-128474D01*
X-255724Y-129480D01*
Y-130520D01*
X-255455Y-131526D01*
X-254935Y-132427D01*
X-254199Y-133163D01*
X-253297Y-133683D01*
X-252292Y-133953D01*
X-251251D01*
X-250246Y-133683D01*
X-249345Y-133163D01*
X-248609Y-132427D01*
X-248088Y-131526D01*
X-247819Y-130520D01*
Y-129480D01*
X-248088Y-128474D01*
X-248609Y-127573D01*
X-249345Y-126837D01*
X-250246Y-126317D01*
X-251251Y-126047D01*
D02*
G37*
G36*
X-261251D02*
X-262292D01*
X-263297Y-126317D01*
X-264199Y-126837D01*
X-264935Y-127573D01*
X-265455Y-128474D01*
X-265724Y-129480D01*
Y-130520D01*
X-265455Y-131526D01*
X-264935Y-132427D01*
X-264199Y-133163D01*
X-263297Y-133683D01*
X-262292Y-133953D01*
X-261251D01*
X-260246Y-133683D01*
X-259345Y-133163D01*
X-258609Y-132427D01*
X-258088Y-131526D01*
X-257819Y-130520D01*
Y-129480D01*
X-258088Y-128474D01*
X-258609Y-127573D01*
X-259345Y-126837D01*
X-260246Y-126317D01*
X-261251Y-126047D01*
D02*
G37*
G36*
X-150980Y-136047D02*
X-152020D01*
X-153026Y-136317D01*
X-153927Y-136837D01*
X-154663Y-137573D01*
X-155183Y-138474D01*
X-155453Y-139480D01*
Y-140520D01*
X-155183Y-141526D01*
X-154663Y-142427D01*
X-153927Y-143163D01*
X-153026Y-143683D01*
X-152020Y-143953D01*
X-150980D01*
X-149974Y-143683D01*
X-149073Y-143163D01*
X-148337Y-142427D01*
X-147817Y-141526D01*
X-147547Y-140520D01*
Y-139480D01*
X-147817Y-138474D01*
X-148337Y-137573D01*
X-149073Y-136837D01*
X-149974Y-136317D01*
X-150980Y-136047D01*
D02*
G37*
G36*
X-160980D02*
X-162020D01*
X-163026Y-136317D01*
X-163927Y-136837D01*
X-164663Y-137573D01*
X-165183Y-138474D01*
X-165453Y-139480D01*
Y-140520D01*
X-165183Y-141526D01*
X-164663Y-142427D01*
X-163927Y-143163D01*
X-163026Y-143683D01*
X-162020Y-143953D01*
X-160980D01*
X-159974Y-143683D01*
X-159073Y-143163D01*
X-158337Y-142427D01*
X-157817Y-141526D01*
X-157547Y-140520D01*
Y-139480D01*
X-157817Y-138474D01*
X-158337Y-137573D01*
X-159073Y-136837D01*
X-159974Y-136317D01*
X-160980Y-136047D01*
D02*
G37*
G36*
X-150980Y-146047D02*
X-152020D01*
X-153026Y-146317D01*
X-153927Y-146837D01*
X-154663Y-147573D01*
X-155183Y-148474D01*
X-155453Y-149480D01*
Y-150520D01*
X-155183Y-151526D01*
X-154663Y-152427D01*
X-153927Y-153163D01*
X-153026Y-153683D01*
X-152020Y-153953D01*
X-150980D01*
X-149974Y-153683D01*
X-149073Y-153163D01*
X-148337Y-152427D01*
X-147817Y-151526D01*
X-147547Y-150520D01*
Y-149480D01*
X-147817Y-148474D01*
X-148337Y-147573D01*
X-149073Y-146837D01*
X-149974Y-146317D01*
X-150980Y-146047D01*
D02*
G37*
G36*
X-160980D02*
X-162020D01*
X-163026Y-146317D01*
X-163927Y-146837D01*
X-164663Y-147573D01*
X-165183Y-148474D01*
X-165453Y-149480D01*
Y-150520D01*
X-165183Y-151526D01*
X-164663Y-152427D01*
X-163927Y-153163D01*
X-163026Y-153683D01*
X-162020Y-153953D01*
X-160980D01*
X-159974Y-153683D01*
X-159073Y-153163D01*
X-158337Y-152427D01*
X-157817Y-151526D01*
X-157547Y-150520D01*
Y-149480D01*
X-157817Y-148474D01*
X-158337Y-147573D01*
X-159073Y-146837D01*
X-159974Y-146317D01*
X-160980Y-146047D01*
D02*
G37*
G36*
X-171557Y-155138D02*
X-172443D01*
X-173298Y-155367D01*
X-174064Y-155810D01*
X-174690Y-156436D01*
X-175133Y-157202D01*
X-175362Y-158057D01*
Y-158943D01*
X-175133Y-159798D01*
X-174690Y-160564D01*
X-174064Y-161190D01*
X-173298Y-161633D01*
X-172443Y-161862D01*
X-171557D01*
X-170702Y-161633D01*
X-169936Y-161190D01*
X-169310Y-160564D01*
X-168867Y-159798D01*
X-168638Y-158943D01*
Y-158057D01*
X-168867Y-157202D01*
X-169310Y-156436D01*
X-169936Y-155810D01*
X-170702Y-155367D01*
X-171557Y-155138D01*
D02*
G37*
G36*
X-124057Y-155638D02*
X-124943D01*
X-125798Y-155867D01*
X-126564Y-156310D01*
X-127190Y-156936D01*
X-127633Y-157702D01*
X-127862Y-158557D01*
Y-159443D01*
X-127633Y-160298D01*
X-127190Y-161064D01*
X-126564Y-161690D01*
X-125798Y-162133D01*
X-124943Y-162362D01*
X-124057D01*
X-123202Y-162133D01*
X-122436Y-161690D01*
X-121810Y-161064D01*
X-121367Y-160298D01*
X-121138Y-159443D01*
Y-158557D01*
X-121367Y-157702D01*
X-121810Y-156936D01*
X-122436Y-156310D01*
X-123202Y-155867D01*
X-124057Y-155638D01*
D02*
G37*
G36*
X-179057D02*
X-179943D01*
X-180798Y-155867D01*
X-181564Y-156310D01*
X-182190Y-156936D01*
X-182633Y-157702D01*
X-182862Y-158557D01*
Y-159443D01*
X-182633Y-160298D01*
X-182190Y-161064D01*
X-181564Y-161690D01*
X-180798Y-162133D01*
X-179943Y-162362D01*
X-179057D01*
X-178202Y-162133D01*
X-177436Y-161690D01*
X-176810Y-161064D01*
X-176367Y-160298D01*
X-176138Y-159443D01*
Y-158557D01*
X-176367Y-157702D01*
X-176810Y-156936D01*
X-177436Y-156310D01*
X-178202Y-155867D01*
X-179057Y-155638D01*
D02*
G37*
G36*
X-116557Y-156138D02*
X-117443D01*
X-118298Y-156367D01*
X-119064Y-156810D01*
X-119690Y-157436D01*
X-120133Y-158202D01*
X-120362Y-159057D01*
Y-159943D01*
X-120133Y-160798D01*
X-119690Y-161564D01*
X-119064Y-162190D01*
X-118298Y-162633D01*
X-117443Y-162862D01*
X-116557D01*
X-115702Y-162633D01*
X-114936Y-162190D01*
X-114310Y-161564D01*
X-113867Y-160798D01*
X-113638Y-159943D01*
Y-159057D01*
X-113867Y-158202D01*
X-114310Y-157436D01*
X-114936Y-156810D01*
X-115702Y-156367D01*
X-116557Y-156138D01*
D02*
G37*
G36*
X81072Y-156047D02*
X80031D01*
X79026Y-156317D01*
X78124Y-156837D01*
X77388Y-157573D01*
X76868Y-158474D01*
X76598Y-159480D01*
Y-160520D01*
X76868Y-161526D01*
X77388Y-162427D01*
X78124Y-163163D01*
X79026Y-163683D01*
X80031Y-163953D01*
X81072D01*
X82077Y-163683D01*
X82978Y-163163D01*
X83714Y-162427D01*
X84235Y-161526D01*
X84504Y-160520D01*
Y-159480D01*
X84235Y-158474D01*
X83714Y-157573D01*
X82978Y-156837D01*
X82077Y-156317D01*
X81072Y-156047D01*
D02*
G37*
G36*
X-107905D02*
X-108946D01*
X-109951Y-156317D01*
X-110852Y-156837D01*
X-111588Y-157573D01*
X-112109Y-158474D01*
X-112378Y-159480D01*
Y-160520D01*
X-112109Y-161526D01*
X-111588Y-162427D01*
X-110852Y-163163D01*
X-109951Y-163683D01*
X-108946Y-163953D01*
X-107905D01*
X-106899Y-163683D01*
X-105998Y-163163D01*
X-105262Y-162427D01*
X-104742Y-161526D01*
X-104472Y-160520D01*
Y-159480D01*
X-104742Y-158474D01*
X-105262Y-157573D01*
X-105998Y-156837D01*
X-106899Y-156317D01*
X-107905Y-156047D01*
D02*
G37*
G36*
X-150980D02*
X-152020D01*
X-153026Y-156317D01*
X-153927Y-156837D01*
X-154663Y-157573D01*
X-155183Y-158474D01*
X-155453Y-159480D01*
Y-160520D01*
X-155183Y-161526D01*
X-154663Y-162427D01*
X-153927Y-163163D01*
X-153026Y-163683D01*
X-152020Y-163953D01*
X-150980D01*
X-149974Y-163683D01*
X-149073Y-163163D01*
X-148337Y-162427D01*
X-147817Y-161526D01*
X-147547Y-160520D01*
Y-159480D01*
X-147817Y-158474D01*
X-148337Y-157573D01*
X-149073Y-156837D01*
X-149974Y-156317D01*
X-150980Y-156047D01*
D02*
G37*
G36*
X-160980D02*
X-162020D01*
X-163026Y-156317D01*
X-163927Y-156837D01*
X-164663Y-157573D01*
X-165183Y-158474D01*
X-165453Y-159480D01*
Y-160520D01*
X-165183Y-161526D01*
X-164663Y-162427D01*
X-163927Y-163163D01*
X-163026Y-163683D01*
X-162020Y-163953D01*
X-160980D01*
X-159974Y-163683D01*
X-159073Y-163163D01*
X-158337Y-162427D01*
X-157817Y-161526D01*
X-157547Y-160520D01*
Y-159480D01*
X-157817Y-158474D01*
X-158337Y-157573D01*
X-159073Y-156837D01*
X-159974Y-156317D01*
X-160980Y-156047D01*
D02*
G37*
G36*
X-251251D02*
X-252292D01*
X-253297Y-156317D01*
X-254199Y-156837D01*
X-254935Y-157573D01*
X-255455Y-158474D01*
X-255724Y-159480D01*
Y-160520D01*
X-255455Y-161526D01*
X-254935Y-162427D01*
X-254199Y-163163D01*
X-253297Y-163683D01*
X-252292Y-163953D01*
X-251251D01*
X-250246Y-163683D01*
X-249345Y-163163D01*
X-248609Y-162427D01*
X-248088Y-161526D01*
X-247819Y-160520D01*
Y-159480D01*
X-248088Y-158474D01*
X-248609Y-157573D01*
X-249345Y-156837D01*
X-250246Y-156317D01*
X-251251Y-156047D01*
D02*
G37*
G36*
X-261251D02*
X-262292D01*
X-263297Y-156317D01*
X-264199Y-156837D01*
X-264935Y-157573D01*
X-265455Y-158474D01*
X-265724Y-159480D01*
Y-160520D01*
X-265455Y-161526D01*
X-264935Y-162427D01*
X-264199Y-163163D01*
X-263297Y-163683D01*
X-262292Y-163953D01*
X-261251D01*
X-260246Y-163683D01*
X-259345Y-163163D01*
X-258609Y-162427D01*
X-258088Y-161526D01*
X-257819Y-160520D01*
Y-159480D01*
X-258088Y-158474D01*
X-258609Y-157573D01*
X-259345Y-156837D01*
X-260246Y-156317D01*
X-261251Y-156047D01*
D02*
G37*
G36*
X81072Y-166047D02*
X80031D01*
X79026Y-166317D01*
X78124Y-166837D01*
X77388Y-167573D01*
X76868Y-168474D01*
X76598Y-169480D01*
Y-170520D01*
X76868Y-171526D01*
X77388Y-172427D01*
X78124Y-173163D01*
X79026Y-173683D01*
X80031Y-173953D01*
X81072D01*
X82077Y-173683D01*
X82978Y-173163D01*
X83714Y-172427D01*
X84235Y-171526D01*
X84504Y-170520D01*
Y-169480D01*
X84235Y-168474D01*
X83714Y-167573D01*
X82978Y-166837D01*
X82077Y-166317D01*
X81072Y-166047D01*
D02*
G37*
G36*
X520D02*
X-520D01*
X-1526Y-166317D01*
X-2427Y-166837D01*
X-3163Y-167573D01*
X-3683Y-168474D01*
X-3953Y-169480D01*
Y-170520D01*
X-3683Y-171526D01*
X-3163Y-172427D01*
X-2427Y-173163D01*
X-1526Y-173683D01*
X-520Y-173953D01*
X520D01*
X1526Y-173683D01*
X2427Y-173163D01*
X3163Y-172427D01*
X3683Y-171526D01*
X3953Y-170520D01*
Y-169480D01*
X3683Y-168474D01*
X3163Y-167573D01*
X2427Y-166837D01*
X1526Y-166317D01*
X520Y-166047D01*
D02*
G37*
G36*
X-9480D02*
X-10520D01*
X-11526Y-166317D01*
X-12427Y-166837D01*
X-13163Y-167573D01*
X-13683Y-168474D01*
X-13953Y-169480D01*
Y-170520D01*
X-13683Y-171526D01*
X-13163Y-172427D01*
X-12427Y-173163D01*
X-11526Y-173683D01*
X-10520Y-173953D01*
X-9480D01*
X-8474Y-173683D01*
X-7573Y-173163D01*
X-6837Y-172427D01*
X-6317Y-171526D01*
X-6047Y-170520D01*
Y-169480D01*
X-6317Y-168474D01*
X-6837Y-167573D01*
X-7573Y-166837D01*
X-8474Y-166317D01*
X-9480Y-166047D01*
D02*
G37*
G36*
X-97905D02*
X-98946D01*
X-99951Y-166317D01*
X-100852Y-166837D01*
X-101588Y-167573D01*
X-102109Y-168474D01*
X-102378Y-169480D01*
Y-170520D01*
X-102109Y-171526D01*
X-101588Y-172427D01*
X-100852Y-173163D01*
X-99951Y-173683D01*
X-98946Y-173953D01*
X-97905D01*
X-96899Y-173683D01*
X-95998Y-173163D01*
X-95262Y-172427D01*
X-94742Y-171526D01*
X-94472Y-170520D01*
Y-169480D01*
X-94742Y-168474D01*
X-95262Y-167573D01*
X-95998Y-166837D01*
X-96899Y-166317D01*
X-97905Y-166047D01*
D02*
G37*
G36*
X-107905D02*
X-108946D01*
X-109951Y-166317D01*
X-110852Y-166837D01*
X-111588Y-167573D01*
X-112109Y-168474D01*
X-112378Y-169480D01*
Y-170520D01*
X-112109Y-171526D01*
X-111588Y-172427D01*
X-110852Y-173163D01*
X-109951Y-173683D01*
X-108946Y-173953D01*
X-107905D01*
X-106899Y-173683D01*
X-105998Y-173163D01*
X-105262Y-172427D01*
X-104742Y-171526D01*
X-104472Y-170520D01*
Y-169480D01*
X-104742Y-168474D01*
X-105262Y-167573D01*
X-105998Y-166837D01*
X-106899Y-166317D01*
X-107905Y-166047D01*
D02*
G37*
G36*
X-147547D02*
X-155453D01*
Y-173953D01*
X-147547D01*
Y-166047D01*
D02*
G37*
G36*
X-160980D02*
X-162020D01*
X-163026Y-166317D01*
X-163927Y-166837D01*
X-164663Y-167573D01*
X-165183Y-168474D01*
X-165453Y-169480D01*
Y-170520D01*
X-165183Y-171526D01*
X-164663Y-172427D01*
X-163927Y-173163D01*
X-163026Y-173683D01*
X-162020Y-173953D01*
X-160980D01*
X-159974Y-173683D01*
X-159073Y-173163D01*
X-158337Y-172427D01*
X-157817Y-171526D01*
X-157547Y-170520D01*
Y-169480D01*
X-157817Y-168474D01*
X-158337Y-167573D01*
X-159073Y-166837D01*
X-159974Y-166317D01*
X-160980Y-166047D01*
D02*
G37*
G36*
X-251251D02*
X-252292D01*
X-253297Y-166317D01*
X-254199Y-166837D01*
X-254935Y-167573D01*
X-255455Y-168474D01*
X-255724Y-169480D01*
Y-170520D01*
X-255455Y-171526D01*
X-254935Y-172427D01*
X-254199Y-173163D01*
X-253297Y-173683D01*
X-252292Y-173953D01*
X-251251D01*
X-250246Y-173683D01*
X-249345Y-173163D01*
X-248609Y-172427D01*
X-248088Y-171526D01*
X-247819Y-170520D01*
Y-169480D01*
X-248088Y-168474D01*
X-248609Y-167573D01*
X-249345Y-166837D01*
X-250246Y-166317D01*
X-251251Y-166047D01*
D02*
G37*
G36*
X-261251D02*
X-262292D01*
X-263297Y-166317D01*
X-264199Y-166837D01*
X-264935Y-167573D01*
X-265455Y-168474D01*
X-265724Y-169480D01*
Y-170520D01*
X-265455Y-171526D01*
X-264935Y-172427D01*
X-264199Y-173163D01*
X-263297Y-173683D01*
X-262292Y-173953D01*
X-261251D01*
X-260246Y-173683D01*
X-259345Y-173163D01*
X-258609Y-172427D01*
X-258088Y-171526D01*
X-257819Y-170520D01*
Y-169480D01*
X-258088Y-168474D01*
X-258609Y-167573D01*
X-259345Y-166837D01*
X-260246Y-166317D01*
X-261251Y-166047D01*
D02*
G37*
%LPD*%
G36*
X-12637Y-107047D02*
X-13163Y-107573D01*
X-13683Y-108474D01*
X-13953Y-109480D01*
Y-110520D01*
X-13683Y-111526D01*
X-13178Y-112402D01*
X-13244Y-112666D01*
X-13341Y-112902D01*
X-95084D01*
X-95181Y-112666D01*
X-95248Y-112402D01*
X-94742Y-111526D01*
X-94472Y-110520D01*
Y-109480D01*
X-94742Y-108474D01*
X-95262Y-107573D01*
X-95788Y-107047D01*
X-95581Y-106547D01*
X-12844D01*
X-12637Y-107047D01*
D02*
G37*
G36*
Y-117047D02*
X-13163Y-117573D01*
X-13683Y-118474D01*
X-13953Y-119480D01*
Y-120520D01*
X-13683Y-121526D01*
X-13178Y-122402D01*
X-13244Y-122667D01*
X-13341Y-122902D01*
X-95084D01*
X-95181Y-122667D01*
X-95248Y-122402D01*
X-94742Y-121526D01*
X-94472Y-120520D01*
Y-119480D01*
X-94742Y-118474D01*
X-95262Y-117573D01*
X-95788Y-117047D01*
X-95581Y-116547D01*
X-12844D01*
X-12637Y-117047D01*
D02*
G37*
G36*
Y-127047D02*
X-13163Y-127573D01*
X-13683Y-128474D01*
X-13953Y-129480D01*
Y-130520D01*
X-13683Y-131526D01*
X-13178Y-132402D01*
X-13244Y-132667D01*
X-13341Y-132902D01*
X-95084D01*
X-95181Y-132667D01*
X-95248Y-132402D01*
X-94742Y-131526D01*
X-94472Y-130520D01*
Y-129480D01*
X-94742Y-128474D01*
X-95262Y-127573D01*
X-95788Y-127047D01*
X-95581Y-126547D01*
X-12844D01*
X-12637Y-127047D01*
D02*
G37*
G36*
Y-137047D02*
X-13163Y-137573D01*
X-13683Y-138474D01*
X-13953Y-139480D01*
Y-140520D01*
X-13683Y-141526D01*
X-13178Y-142402D01*
X-13244Y-142666D01*
X-13341Y-142902D01*
X-95084D01*
X-95181Y-142666D01*
X-95248Y-142402D01*
X-94742Y-141526D01*
X-94472Y-140520D01*
Y-139480D01*
X-94742Y-138474D01*
X-95262Y-137573D01*
X-95788Y-137047D01*
X-95581Y-136547D01*
X-12844D01*
X-12637Y-137047D01*
D02*
G37*
G36*
Y-147047D02*
X-13163Y-147573D01*
X-13683Y-148474D01*
X-13953Y-149480D01*
Y-150520D01*
X-13683Y-151526D01*
X-13178Y-152402D01*
X-13244Y-152666D01*
X-13341Y-152902D01*
X-95084D01*
X-95181Y-152666D01*
X-95248Y-152402D01*
X-94742Y-151526D01*
X-94472Y-150520D01*
Y-149480D01*
X-94742Y-148474D01*
X-95262Y-147573D01*
X-95788Y-147047D01*
X-95581Y-146547D01*
X-12844D01*
X-12637Y-147047D01*
D02*
G37*
D22*
X-261772Y-70000D02*
X-251772D01*
X-239500Y-8000D02*
X-202500D01*
X-251772Y-70000D02*
X-246000Y-64228D01*
Y-14500D01*
X-239500Y-8000D01*
X-121000Y-77500D02*
X-120963D01*
X-108463Y-90000D01*
X-108425D01*
D29*
X-103701Y-104724D02*
X2276D01*
X7000Y-100000D02*
X80551D01*
X2276Y-104724D02*
X7000Y-100000D01*
X-108425D02*
X-103701Y-104724D01*
Y-114724D02*
X1957D01*
X-108425Y-110000D02*
X-103701Y-114724D01*
X1957D02*
X6681Y-110000D01*
X80551D01*
X-108425Y-120000D02*
X-103701Y-124724D01*
X1957D01*
X6681Y-120000D02*
X80551D01*
X1957Y-124724D02*
X6681Y-120000D01*
X-108425Y-130000D02*
X-103701Y-134724D01*
X1957D01*
X6681Y-130000D01*
X80551D01*
X-108425Y-140000D02*
X-103701Y-144724D01*
X1957D01*
X6681Y-140000D01*
X80551D01*
X-108425Y-150000D02*
X-103701Y-154724D01*
X1957D01*
X6681Y-150000D01*
X80551D01*
D31*
X-161500Y0D02*
D03*
X-151500D02*
D03*
X-161500Y-10000D02*
D03*
X-151500D02*
D03*
X-161500Y-20000D02*
D03*
X-151500D02*
D03*
X-161500Y-30000D02*
D03*
X-151500D02*
D03*
X-161500Y-40000D02*
D03*
X-151500D02*
D03*
X-161500Y-50000D02*
D03*
X-151500D02*
D03*
X-161500Y-60000D02*
D03*
X-151500D02*
D03*
X-161500Y-70000D02*
D03*
X-151500D02*
D03*
X-161500Y-80000D02*
D03*
X-151500D02*
D03*
X-161500Y-90000D02*
D03*
X-151500D02*
D03*
X-161500Y-100000D02*
D03*
X-151500D02*
D03*
X-161500Y-110000D02*
D03*
X-151500D02*
D03*
X-161500Y-120000D02*
D03*
X-151500D02*
D03*
X-161500Y-130000D02*
D03*
X-151500D02*
D03*
X-161500Y-140000D02*
D03*
X-151500D02*
D03*
X-161500Y-150000D02*
D03*
X-151500D02*
D03*
X-161500Y-160000D02*
D03*
X-151500D02*
D03*
X-161500Y-170000D02*
D03*
X80551Y0D02*
D03*
Y-10000D02*
D03*
Y-20000D02*
D03*
X-261772Y-160000D02*
D03*
X-251772D02*
D03*
X-261772Y-170000D02*
D03*
X-251772D02*
D03*
X80551D02*
D03*
X90551D02*
D03*
X80551Y-160000D02*
D03*
X90551Y-130000D02*
D03*
X80551Y-90000D02*
D03*
X90551Y-70000D02*
D03*
Y-50000D02*
D03*
Y-40000D02*
D03*
Y-30000D02*
D03*
Y-20000D02*
D03*
Y-10000D02*
D03*
X-98425Y-90000D02*
D03*
X-108425D02*
D03*
X-98425Y-100000D02*
D03*
Y-110000D02*
D03*
Y-120000D02*
D03*
Y-130000D02*
D03*
Y-140000D02*
D03*
Y-150000D02*
D03*
Y-160000D02*
D03*
Y-170000D02*
D03*
X0Y-10000D02*
D03*
Y-20000D02*
D03*
Y-30000D02*
D03*
Y-40000D02*
D03*
Y-50000D02*
D03*
Y-60000D02*
D03*
Y-70000D02*
D03*
Y-80000D02*
D03*
Y-90000D02*
D03*
Y-100000D02*
D03*
Y-110000D02*
D03*
Y-120000D02*
D03*
Y-130000D02*
D03*
X-10000D02*
D03*
X0Y-140000D02*
D03*
Y-150000D02*
D03*
Y-160000D02*
D03*
Y-170000D02*
D03*
X-261772Y-120000D02*
D03*
X-251772D02*
D03*
X-261772Y-130000D02*
D03*
X-251772D02*
D03*
X80551Y-30000D02*
D03*
Y-40000D02*
D03*
Y-50000D02*
D03*
X90551Y-60000D02*
D03*
X80551D02*
D03*
Y-70000D02*
D03*
X90551Y-80000D02*
D03*
X80551D02*
D03*
X90551Y-90000D02*
D03*
Y-100000D02*
D03*
X80551D02*
D03*
X90551Y-110000D02*
D03*
X80551D02*
D03*
X90551Y-120000D02*
D03*
X80551D02*
D03*
Y-130000D02*
D03*
X90551Y-140000D02*
D03*
X80551D02*
D03*
X90551Y-150000D02*
D03*
X80551D02*
D03*
X90551Y-160000D02*
D03*
X-10000Y-170000D02*
D03*
Y-160000D02*
D03*
Y-150000D02*
D03*
Y-140000D02*
D03*
Y-120000D02*
D03*
Y-110000D02*
D03*
Y-100000D02*
D03*
Y-90000D02*
D03*
Y-80000D02*
D03*
Y-70000D02*
D03*
Y-60000D02*
D03*
Y-50000D02*
D03*
Y-40000D02*
D03*
Y-30000D02*
D03*
Y-20000D02*
D03*
Y-10000D02*
D03*
Y0D02*
D03*
X-108425Y-170000D02*
D03*
Y-160000D02*
D03*
Y-150000D02*
D03*
Y-140000D02*
D03*
Y-130000D02*
D03*
Y-120000D02*
D03*
Y-110000D02*
D03*
Y-100000D02*
D03*
Y-80000D02*
D03*
X-98425D02*
D03*
X-108425Y-70000D02*
D03*
X-98425D02*
D03*
X-108425Y-60000D02*
D03*
X-98425D02*
D03*
X-108425Y-50000D02*
D03*
X-98425D02*
D03*
X-108425Y-40000D02*
D03*
X-98425D02*
D03*
X-108425Y-30000D02*
D03*
X-98425D02*
D03*
X-108425Y-20000D02*
D03*
X-98425D02*
D03*
X-108425Y-10000D02*
D03*
X-98425D02*
D03*
X-108425Y0D02*
D03*
X-251772Y-150000D02*
D03*
X-261772D02*
D03*
X-251772Y-140000D02*
D03*
X-261772D02*
D03*
X-251772Y-110000D02*
D03*
X-261772D02*
D03*
X-251772Y-100000D02*
D03*
X-261772D02*
D03*
X-251772Y-90000D02*
D03*
X-261772D02*
D03*
X-251772Y-80000D02*
D03*
X-261772D02*
D03*
X-251772Y-70000D02*
D03*
X-261772D02*
D03*
X-251772Y-60000D02*
D03*
X-261772D02*
D03*
X-251772Y-50000D02*
D03*
X-261772D02*
D03*
X-251772Y-40000D02*
D03*
X-261772D02*
D03*
X-251772Y-30000D02*
D03*
X-261772D02*
D03*
X-251772Y-20000D02*
D03*
X-261772D02*
D03*
X-251772Y-10000D02*
D03*
X-261772D02*
D03*
X-251772Y0D02*
D03*
D32*
X-151500Y-170000D02*
D03*
X90551Y0D02*
D03*
X0D02*
D03*
X-98425D02*
D03*
X-261772D02*
D03*
D33*
X-204724Y-29528D02*
D03*
X-224410D02*
D03*
Y-49213D02*
D03*
X-204724D02*
D03*
X-214567Y-39370D02*
D03*
D34*
X-185500Y-109000D02*
D03*
X-185000Y-75500D02*
D03*
X-172500Y-62500D02*
D03*
X-202500Y-8000D02*
D03*
X-187500Y-155500D02*
D03*
X-172000Y-158500D02*
D03*
X-133000Y-157500D02*
D03*
X-124500Y-159000D02*
D03*
X-117000Y-159500D02*
D03*
X-121000Y-77500D02*
D03*
X-132500Y-52000D02*
D03*
X-125000Y-50500D02*
D03*
X-116500Y-51000D02*
D03*
X-132500Y-5000D02*
D03*
X-124500Y-6500D02*
D03*
X-116500Y-8000D02*
D03*
X-187500Y-57870D02*
D03*
X-178500Y3000D02*
D03*
X-172000Y3500D02*
D03*
X-179000Y-30500D02*
D03*
X-172000Y-31500D02*
D03*
X-179000Y-62500D02*
D03*
Y-113000D02*
D03*
X-172000D02*
D03*
X-179500Y-159000D02*
D03*
X-133000Y-92000D02*
D03*
X24000Y-83500D02*
D03*
X46000D02*
D03*
X-21500Y-64000D02*
D03*
X-31000D02*
D03*
X-42000Y-73000D02*
D03*
X-57000Y-20500D02*
D03*
X-30539Y-6961D02*
D03*
X-22000Y-6500D02*
D03*
X36000Y-40000D02*
D03*
X61500Y-29000D02*
D03*
X69500D02*
D03*
X35500Y-10500D02*
D03*
X69000Y2000D02*
D03*
X60461Y2039D02*
D03*
M02*
