G04*
G04 #@! TF.GenerationSoftware,Altium Limited,Altium Designer,22.4.2 (48)*
G04*
G04 Layer_Color=32896*
%FSLAX25Y25*%
%MOIN*%
G70*
G04*
G04 #@! TF.SameCoordinates,154311A6-9ECD-46E4-9684-3F5A4E7587EB*
G04*
G04*
G04 #@! TF.FilePolarity,Positive*
G04*
G01*
G75*
%ADD11C,0.00787*%
%ADD12C,0.01000*%
G36*
X-20701Y-115202D02*
Y-124539D01*
Y-152500D01*
X-81299D01*
Y-124539D01*
Y-115202D01*
Y-88500D01*
X-20701D01*
Y-115202D01*
D02*
G37*
%LPC*%
G36*
X-41373Y-107510D02*
X-42374D01*
Y-111881D01*
Y-111889D01*
Y-111922D01*
Y-111971D01*
Y-112045D01*
X-42382Y-112127D01*
Y-112217D01*
X-42390Y-112324D01*
X-42398Y-112430D01*
X-42415Y-112668D01*
X-42447Y-112906D01*
X-42497Y-113136D01*
X-42521Y-113242D01*
X-42554Y-113332D01*
Y-113341D01*
X-42562Y-113349D01*
X-42570Y-113373D01*
X-42587Y-113406D01*
X-42636Y-113496D01*
X-42702Y-113595D01*
X-42784Y-113718D01*
X-42890Y-113833D01*
X-43021Y-113947D01*
X-43177Y-114054D01*
X-43185D01*
X-43202Y-114062D01*
X-43226Y-114079D01*
X-43259Y-114095D01*
X-43300Y-114111D01*
X-43358Y-114128D01*
X-43415Y-114152D01*
X-43481Y-114177D01*
X-43645Y-114218D01*
X-43833Y-114259D01*
X-44046Y-114292D01*
X-44276Y-114300D01*
X-44383D01*
X-44456Y-114292D01*
X-44547Y-114284D01*
X-44653Y-114275D01*
X-44768Y-114259D01*
X-44891Y-114234D01*
X-45145Y-114177D01*
X-45276Y-114136D01*
X-45408Y-114087D01*
X-45531Y-114029D01*
X-45645Y-113964D01*
X-45752Y-113890D01*
X-45850Y-113800D01*
X-45859Y-113792D01*
X-45875Y-113775D01*
X-45891Y-113742D01*
X-45924Y-113701D01*
X-45957Y-113644D01*
X-45998Y-113570D01*
X-46047Y-113480D01*
X-46088Y-113373D01*
X-46129Y-113250D01*
X-46178Y-113111D01*
X-46219Y-112955D01*
X-46252Y-112783D01*
X-46285Y-112586D01*
X-46310Y-112373D01*
X-46318Y-112135D01*
X-46326Y-111881D01*
Y-107510D01*
X-47326D01*
Y-112070D01*
X-47318Y-112168D01*
X-47310Y-112275D01*
X-47302Y-112398D01*
X-47294Y-112537D01*
X-47261Y-112824D01*
X-47220Y-113127D01*
X-47154Y-113423D01*
X-47113Y-113562D01*
X-47064Y-113693D01*
Y-113701D01*
X-47056Y-113726D01*
X-47039Y-113759D01*
X-47015Y-113808D01*
X-46982Y-113865D01*
X-46949Y-113931D01*
X-46851Y-114079D01*
X-46793Y-114169D01*
X-46728Y-114251D01*
X-46646Y-114349D01*
X-46564Y-114439D01*
X-46465Y-114530D01*
X-46367Y-114620D01*
X-46252Y-114702D01*
X-46129Y-114784D01*
X-46121Y-114792D01*
X-46096Y-114800D01*
X-46064Y-114825D01*
X-46006Y-114849D01*
X-45941Y-114882D01*
X-45859Y-114915D01*
X-45768Y-114956D01*
X-45654Y-114989D01*
X-45539Y-115030D01*
X-45408Y-115071D01*
X-45260Y-115104D01*
X-45104Y-115136D01*
X-44932Y-115161D01*
X-44752Y-115186D01*
X-44563Y-115194D01*
X-44366Y-115202D01*
X-44260D01*
X-44186Y-115194D01*
X-44096D01*
X-43997Y-115186D01*
X-43874Y-115169D01*
X-43751Y-115153D01*
X-43472Y-115112D01*
X-43177Y-115046D01*
X-42890Y-114956D01*
X-42751Y-114907D01*
X-42620Y-114841D01*
X-42611Y-114833D01*
X-42587Y-114825D01*
X-42554Y-114800D01*
X-42513Y-114776D01*
X-42456Y-114735D01*
X-42390Y-114685D01*
X-42324Y-114636D01*
X-42251Y-114571D01*
X-42087Y-114423D01*
X-41931Y-114243D01*
X-41783Y-114029D01*
X-41718Y-113906D01*
X-41660Y-113783D01*
Y-113775D01*
X-41652Y-113751D01*
X-41636Y-113710D01*
X-41619Y-113652D01*
X-41595Y-113587D01*
X-41570Y-113496D01*
X-41545Y-113398D01*
X-41521Y-113283D01*
X-41488Y-113152D01*
X-41463Y-113013D01*
X-41439Y-112857D01*
X-41422Y-112685D01*
X-41398Y-112504D01*
X-41390Y-112307D01*
X-41373Y-112102D01*
Y-107510D01*
D02*
G37*
G36*
X-48425D02*
X-54411D01*
Y-108404D01*
X-51918D01*
Y-115079D01*
X-50918D01*
Y-108404D01*
X-48425D01*
Y-107510D01*
D02*
G37*
G36*
X-55469D02*
X-60947D01*
Y-108404D01*
X-56469D01*
Y-110717D01*
X-60660D01*
Y-111610D01*
X-56469D01*
Y-114185D01*
X-61119D01*
Y-115079D01*
X-55469D01*
Y-107510D01*
D02*
G37*
G36*
X-62513D02*
X-66031D01*
X-66121Y-107519D01*
X-66211D01*
X-66318Y-107527D01*
X-66441Y-107535D01*
X-66687Y-107560D01*
X-66941Y-107601D01*
X-67187Y-107650D01*
X-67293Y-107683D01*
X-67400Y-107715D01*
X-67408D01*
X-67425Y-107724D01*
X-67449Y-107740D01*
X-67490Y-107756D01*
X-67589Y-107806D01*
X-67703Y-107879D01*
X-67843Y-107978D01*
X-67982Y-108109D01*
X-68122Y-108257D01*
X-68245Y-108437D01*
Y-108445D01*
X-68261Y-108462D01*
X-68277Y-108486D01*
X-68294Y-108527D01*
X-68318Y-108576D01*
X-68343Y-108634D01*
X-68376Y-108699D01*
X-68409Y-108773D01*
X-68466Y-108945D01*
X-68515Y-109134D01*
X-68548Y-109347D01*
X-68564Y-109577D01*
Y-109585D01*
Y-109610D01*
Y-109659D01*
X-68556Y-109708D01*
X-68548Y-109782D01*
X-68540Y-109864D01*
X-68523Y-109954D01*
X-68499Y-110052D01*
X-68433Y-110266D01*
X-68392Y-110380D01*
X-68343Y-110495D01*
X-68286Y-110610D01*
X-68212Y-110725D01*
X-68130Y-110831D01*
X-68040Y-110938D01*
X-68031Y-110946D01*
X-68015Y-110963D01*
X-67982Y-110987D01*
X-67941Y-111028D01*
X-67884Y-111069D01*
X-67818Y-111118D01*
X-67736Y-111176D01*
X-67638Y-111233D01*
X-67531Y-111291D01*
X-67416Y-111348D01*
X-67285Y-111405D01*
X-67138Y-111463D01*
X-66982Y-111512D01*
X-66810Y-111561D01*
X-66621Y-111602D01*
X-66424Y-111635D01*
X-66432D01*
X-66441Y-111643D01*
X-66490Y-111668D01*
X-66564Y-111709D01*
X-66654Y-111758D01*
X-66752Y-111815D01*
X-66851Y-111873D01*
X-66949Y-111947D01*
X-67031Y-112012D01*
X-67039Y-112020D01*
X-67047Y-112029D01*
X-67072Y-112053D01*
X-67105Y-112086D01*
X-67146Y-112127D01*
X-67195Y-112176D01*
X-67302Y-112291D01*
X-67425Y-112439D01*
X-67564Y-112611D01*
X-67712Y-112808D01*
X-67859Y-113021D01*
X-69171Y-115079D01*
X-67917D01*
X-66916Y-113505D01*
X-66908Y-113496D01*
X-66900Y-113472D01*
X-66875Y-113439D01*
X-66842Y-113390D01*
X-66810Y-113332D01*
X-66760Y-113267D01*
X-66662Y-113119D01*
X-66547Y-112947D01*
X-66432Y-112775D01*
X-66309Y-112611D01*
X-66195Y-112463D01*
Y-112455D01*
X-66178Y-112447D01*
X-66145Y-112406D01*
X-66096Y-112340D01*
X-66022Y-112266D01*
X-65949Y-112184D01*
X-65858Y-112102D01*
X-65768Y-112020D01*
X-65686Y-111963D01*
X-65678Y-111955D01*
X-65645Y-111938D01*
X-65604Y-111914D01*
X-65547Y-111881D01*
X-65473Y-111848D01*
X-65399Y-111815D01*
X-65317Y-111783D01*
X-65227Y-111758D01*
X-65219D01*
X-65194Y-111750D01*
X-65153Y-111742D01*
X-65096Y-111733D01*
X-65014D01*
X-64915Y-111725D01*
X-64801Y-111717D01*
X-63513D01*
Y-115079D01*
X-62513D01*
Y-107510D01*
D02*
G37*
G36*
X-36453Y-107379D02*
X-36552D01*
X-36625Y-107387D01*
X-36724Y-107396D01*
X-36830Y-107404D01*
X-36945Y-107420D01*
X-37076Y-107445D01*
X-37224Y-107469D01*
X-37372Y-107502D01*
X-37527Y-107543D01*
X-37691Y-107592D01*
X-37855Y-107650D01*
X-38019Y-107715D01*
X-38175Y-107789D01*
X-38339Y-107879D01*
X-38347Y-107888D01*
X-38380Y-107904D01*
X-38421Y-107929D01*
X-38479Y-107970D01*
X-38552Y-108019D01*
X-38626Y-108084D01*
X-38716Y-108158D01*
X-38815Y-108240D01*
X-38921Y-108339D01*
X-39028Y-108445D01*
X-39135Y-108560D01*
X-39241Y-108683D01*
X-39340Y-108814D01*
X-39446Y-108962D01*
X-39536Y-109118D01*
X-39627Y-109282D01*
X-39635Y-109290D01*
X-39643Y-109323D01*
X-39668Y-109372D01*
X-39692Y-109437D01*
X-39733Y-109519D01*
X-39766Y-109626D01*
X-39807Y-109741D01*
X-39848Y-109872D01*
X-39889Y-110011D01*
X-39930Y-110167D01*
X-39971Y-110339D01*
X-40004Y-110512D01*
X-40028Y-110700D01*
X-40053Y-110897D01*
X-40061Y-111094D01*
X-40069Y-111307D01*
Y-111422D01*
X-40061Y-111504D01*
X-40053Y-111602D01*
X-40045Y-111717D01*
X-40028Y-111848D01*
X-40012Y-111996D01*
X-39987Y-112152D01*
X-39955Y-112316D01*
X-39922Y-112488D01*
X-39873Y-112660D01*
X-39815Y-112840D01*
X-39758Y-113013D01*
X-39684Y-113193D01*
X-39602Y-113365D01*
X-39594Y-113373D01*
X-39577Y-113406D01*
X-39553Y-113455D01*
X-39520Y-113513D01*
X-39471Y-113587D01*
X-39413Y-113677D01*
X-39340Y-113775D01*
X-39266Y-113882D01*
X-39176Y-113988D01*
X-39077Y-114103D01*
X-38962Y-114218D01*
X-38848Y-114333D01*
X-38725Y-114439D01*
X-38585Y-114546D01*
X-38438Y-114653D01*
X-38282Y-114743D01*
X-38274Y-114751D01*
X-38241Y-114759D01*
X-38200Y-114784D01*
X-38134Y-114817D01*
X-38052Y-114849D01*
X-37962Y-114890D01*
X-37855Y-114931D01*
X-37732Y-114972D01*
X-37601Y-115013D01*
X-37462Y-115054D01*
X-37306Y-115095D01*
X-37150Y-115128D01*
X-36806Y-115186D01*
X-36625Y-115194D01*
X-36445Y-115202D01*
X-36338D01*
X-36265Y-115194D01*
X-36174Y-115186D01*
X-36060Y-115177D01*
X-35945Y-115161D01*
X-35805Y-115136D01*
X-35666Y-115112D01*
X-35510Y-115079D01*
X-35354Y-115038D01*
X-35190Y-114989D01*
X-35026Y-114931D01*
X-34862Y-114858D01*
X-34698Y-114784D01*
X-34534Y-114694D01*
X-34526Y-114685D01*
X-34502Y-114669D01*
X-34452Y-114636D01*
X-34395Y-114595D01*
X-34329Y-114546D01*
X-34247Y-114480D01*
X-34157Y-114407D01*
X-34059Y-114325D01*
X-33952Y-114226D01*
X-33854Y-114120D01*
X-33747Y-114005D01*
X-33641Y-113882D01*
X-33534Y-113742D01*
X-33436Y-113603D01*
X-33345Y-113447D01*
X-33255Y-113283D01*
X-33247Y-113275D01*
X-33239Y-113242D01*
X-33214Y-113193D01*
X-33190Y-113127D01*
X-33157Y-113045D01*
X-33124Y-112947D01*
X-33083Y-112840D01*
X-33042Y-112709D01*
X-33001Y-112578D01*
X-32960Y-112430D01*
X-32927Y-112275D01*
X-32894Y-112111D01*
X-32845Y-111766D01*
X-32837Y-111578D01*
X-32829Y-111397D01*
Y-111315D01*
X-32837Y-111266D01*
Y-111217D01*
X-32845Y-111086D01*
X-32862Y-110930D01*
X-32886Y-110741D01*
X-32911Y-110544D01*
X-32952Y-110323D01*
X-33009Y-110085D01*
X-33075Y-109847D01*
X-33157Y-109601D01*
X-33255Y-109355D01*
X-33370Y-109109D01*
X-33501Y-108880D01*
X-33657Y-108650D01*
X-33837Y-108445D01*
X-33846Y-108437D01*
X-33887Y-108396D01*
X-33944Y-108347D01*
X-34018Y-108281D01*
X-34124Y-108199D01*
X-34239Y-108109D01*
X-34379Y-108011D01*
X-34543Y-107912D01*
X-34723Y-107814D01*
X-34920Y-107715D01*
X-35133Y-107625D01*
X-35371Y-107543D01*
X-35617Y-107478D01*
X-35879Y-107428D01*
X-36158Y-107387D01*
X-36453Y-107379D01*
D02*
G37*
G36*
X-46740Y-116847D02*
X-47741D01*
Y-124416D01*
X-46740D01*
Y-116847D01*
D02*
G37*
G36*
X-49503D02*
X-52324D01*
X-52406Y-116855D01*
X-52505D01*
X-52603Y-116863D01*
X-52824Y-116872D01*
X-53046Y-116896D01*
X-53267Y-116921D01*
X-53366Y-116945D01*
X-53456Y-116962D01*
X-53464D01*
X-53489Y-116970D01*
X-53522Y-116978D01*
X-53562Y-116995D01*
X-53620Y-117011D01*
X-53685Y-117027D01*
X-53841Y-117085D01*
X-54014Y-117158D01*
X-54194Y-117249D01*
X-54382Y-117364D01*
X-54563Y-117503D01*
X-54571Y-117511D01*
X-54588Y-117527D01*
X-54620Y-117552D01*
X-54661Y-117593D01*
X-54711Y-117642D01*
X-54768Y-117708D01*
X-54834Y-117773D01*
X-54899Y-117856D01*
X-54973Y-117946D01*
X-55047Y-118044D01*
X-55120Y-118151D01*
X-55194Y-118265D01*
X-55334Y-118520D01*
X-55457Y-118798D01*
Y-118807D01*
X-55473Y-118831D01*
X-55481Y-118880D01*
X-55506Y-118938D01*
X-55531Y-119012D01*
X-55555Y-119102D01*
X-55580Y-119200D01*
X-55612Y-119315D01*
X-55637Y-119446D01*
X-55662Y-119586D01*
X-55686Y-119733D01*
X-55711Y-119889D01*
X-55735Y-120053D01*
X-55744Y-120225D01*
X-55760Y-120594D01*
Y-120742D01*
X-55752Y-120816D01*
Y-120906D01*
X-55744Y-121004D01*
X-55735Y-121111D01*
X-55711Y-121349D01*
X-55670Y-121603D01*
X-55621Y-121865D01*
X-55555Y-122128D01*
Y-122136D01*
X-55547Y-122160D01*
X-55531Y-122193D01*
X-55522Y-122234D01*
X-55498Y-122292D01*
X-55473Y-122357D01*
X-55416Y-122513D01*
X-55342Y-122685D01*
X-55252Y-122874D01*
X-55153Y-123054D01*
X-55038Y-123226D01*
Y-123235D01*
X-55022Y-123243D01*
X-55006Y-123267D01*
X-54981Y-123300D01*
X-54924Y-123374D01*
X-54834Y-123472D01*
X-54735Y-123587D01*
X-54620Y-123702D01*
X-54489Y-123809D01*
X-54350Y-123915D01*
X-54342D01*
X-54333Y-123924D01*
X-54284Y-123956D01*
X-54202Y-123997D01*
X-54096Y-124055D01*
X-53964Y-124112D01*
X-53808Y-124178D01*
X-53628Y-124235D01*
X-53439Y-124293D01*
X-53431D01*
X-53415Y-124301D01*
X-53390D01*
X-53349Y-124309D01*
X-53300Y-124317D01*
X-53234Y-124334D01*
X-53169Y-124342D01*
X-53095Y-124350D01*
X-52915Y-124374D01*
X-52710Y-124399D01*
X-52480Y-124407D01*
X-52234Y-124416D01*
X-49503D01*
Y-116847D01*
D02*
G37*
G36*
X-57162D02*
X-62640D01*
Y-117741D01*
X-58163D01*
Y-120053D01*
X-62353D01*
Y-120947D01*
X-58163D01*
Y-123522D01*
X-62812D01*
Y-124416D01*
X-57162D01*
Y-116847D01*
D02*
G37*
G36*
X-42132Y-116716D02*
X-42271D01*
X-42345Y-116724D01*
X-42435Y-116732D01*
X-42525Y-116740D01*
X-42632Y-116748D01*
X-42862Y-116781D01*
X-43116Y-116831D01*
X-43370Y-116904D01*
X-43616Y-116995D01*
X-43624D01*
X-43641Y-117011D01*
X-43681Y-117019D01*
X-43723Y-117044D01*
X-43772Y-117077D01*
X-43837Y-117109D01*
X-43977Y-117191D01*
X-44141Y-117306D01*
X-44305Y-117446D01*
X-44460Y-117601D01*
X-44600Y-117790D01*
X-44608Y-117798D01*
X-44616Y-117815D01*
X-44633Y-117839D01*
X-44657Y-117880D01*
X-44682Y-117929D01*
X-44715Y-117987D01*
X-44739Y-118061D01*
X-44780Y-118134D01*
X-44846Y-118307D01*
X-44903Y-118511D01*
X-44952Y-118733D01*
X-44977Y-118979D01*
X-44018Y-119053D01*
Y-119044D01*
X-44010Y-119020D01*
Y-118987D01*
X-44001Y-118938D01*
X-43985Y-118872D01*
X-43968Y-118807D01*
X-43919Y-118651D01*
X-43854Y-118479D01*
X-43755Y-118298D01*
X-43641Y-118126D01*
X-43567Y-118052D01*
X-43485Y-117979D01*
X-43477Y-117970D01*
X-43468Y-117962D01*
X-43435Y-117946D01*
X-43403Y-117921D01*
X-43354Y-117896D01*
X-43296Y-117864D01*
X-43231Y-117831D01*
X-43157Y-117790D01*
X-43066Y-117757D01*
X-42968Y-117724D01*
X-42862Y-117692D01*
X-42747Y-117667D01*
X-42616Y-117642D01*
X-42476Y-117626D01*
X-42329Y-117610D01*
X-42091D01*
X-42025Y-117618D01*
X-41951D01*
X-41869Y-117626D01*
X-41771Y-117634D01*
X-41673Y-117650D01*
X-41451Y-117692D01*
X-41238Y-117749D01*
X-41033Y-117831D01*
X-40935Y-117888D01*
X-40852Y-117946D01*
X-40844D01*
X-40836Y-117962D01*
X-40787Y-118003D01*
X-40721Y-118077D01*
X-40648Y-118175D01*
X-40574Y-118290D01*
X-40508Y-118430D01*
X-40459Y-118577D01*
X-40451Y-118659D01*
X-40442Y-118749D01*
Y-118757D01*
Y-118766D01*
X-40451Y-118815D01*
X-40459Y-118889D01*
X-40475Y-118979D01*
X-40516Y-119086D01*
X-40565Y-119200D01*
X-40631Y-119307D01*
X-40729Y-119413D01*
X-40746Y-119422D01*
X-40762Y-119438D01*
X-40795Y-119463D01*
X-40836Y-119487D01*
X-40885Y-119512D01*
X-40951Y-119545D01*
X-41025Y-119586D01*
X-41115Y-119627D01*
X-41221Y-119668D01*
X-41344Y-119709D01*
X-41484Y-119758D01*
X-41648Y-119807D01*
X-41820Y-119856D01*
X-42017Y-119914D01*
X-42238Y-119963D01*
X-42255D01*
X-42296Y-119971D01*
X-42353Y-119987D01*
X-42435Y-120012D01*
X-42533Y-120028D01*
X-42648Y-120061D01*
X-42771Y-120086D01*
X-42902Y-120127D01*
X-43181Y-120201D01*
X-43460Y-120274D01*
X-43591Y-120316D01*
X-43706Y-120357D01*
X-43821Y-120397D01*
X-43911Y-120439D01*
X-43919D01*
X-43944Y-120455D01*
X-43977Y-120471D01*
X-44018Y-120496D01*
X-44075Y-120520D01*
X-44141Y-120562D01*
X-44280Y-120652D01*
X-44444Y-120758D01*
X-44600Y-120889D01*
X-44756Y-121045D01*
X-44821Y-121127D01*
X-44887Y-121209D01*
Y-121218D01*
X-44903Y-121234D01*
X-44920Y-121258D01*
X-44936Y-121291D01*
X-44961Y-121332D01*
X-44985Y-121390D01*
X-45051Y-121521D01*
X-45108Y-121677D01*
X-45158Y-121857D01*
X-45190Y-122062D01*
X-45207Y-122283D01*
Y-122341D01*
X-45199Y-122382D01*
Y-122439D01*
X-45190Y-122497D01*
X-45166Y-122652D01*
X-45125Y-122825D01*
X-45059Y-123013D01*
X-44969Y-123210D01*
X-44920Y-123317D01*
X-44854Y-123415D01*
Y-123423D01*
X-44838Y-123440D01*
X-44821Y-123464D01*
X-44789Y-123505D01*
X-44715Y-123595D01*
X-44600Y-123719D01*
X-44460Y-123850D01*
X-44288Y-123989D01*
X-44091Y-124120D01*
X-43862Y-124243D01*
X-43854D01*
X-43829Y-124260D01*
X-43796Y-124268D01*
X-43747Y-124293D01*
X-43690Y-124309D01*
X-43616Y-124334D01*
X-43534Y-124366D01*
X-43435Y-124391D01*
X-43337Y-124416D01*
X-43222Y-124448D01*
X-42976Y-124489D01*
X-42706Y-124522D01*
X-42410Y-124539D01*
X-42312D01*
X-42238Y-124530D01*
X-42148D01*
X-42050Y-124522D01*
X-41935Y-124514D01*
X-41804Y-124497D01*
X-41533Y-124465D01*
X-41246Y-124416D01*
X-40959Y-124342D01*
X-40680Y-124243D01*
X-40672D01*
X-40648Y-124227D01*
X-40615Y-124211D01*
X-40565Y-124186D01*
X-40508Y-124153D01*
X-40442Y-124120D01*
X-40287Y-124022D01*
X-40115Y-123899D01*
X-39934Y-123743D01*
X-39754Y-123563D01*
X-39598Y-123349D01*
X-39590Y-123341D01*
X-39582Y-123325D01*
X-39565Y-123292D01*
X-39540Y-123243D01*
X-39508Y-123186D01*
X-39475Y-123120D01*
X-39434Y-123038D01*
X-39401Y-122948D01*
X-39360Y-122857D01*
X-39327Y-122751D01*
X-39262Y-122513D01*
X-39213Y-122259D01*
X-39196Y-122119D01*
X-39188Y-121980D01*
X-40131Y-121898D01*
Y-121906D01*
Y-121923D01*
X-40139Y-121956D01*
X-40147Y-121996D01*
X-40156Y-122046D01*
X-40164Y-122095D01*
X-40196Y-122234D01*
X-40238Y-122382D01*
X-40287Y-122538D01*
X-40352Y-122694D01*
X-40434Y-122841D01*
X-40442Y-122857D01*
X-40483Y-122898D01*
X-40541Y-122964D01*
X-40623Y-123046D01*
X-40729Y-123144D01*
X-40861Y-123235D01*
X-41017Y-123333D01*
X-41197Y-123423D01*
X-41205D01*
X-41221Y-123432D01*
X-41246Y-123440D01*
X-41287Y-123456D01*
X-41336Y-123472D01*
X-41394Y-123497D01*
X-41459Y-123513D01*
X-41533Y-123530D01*
X-41705Y-123571D01*
X-41910Y-123612D01*
X-42123Y-123636D01*
X-42361Y-123645D01*
X-42460D01*
X-42509Y-123636D01*
X-42566D01*
X-42698Y-123620D01*
X-42853Y-123604D01*
X-43025Y-123579D01*
X-43198Y-123538D01*
X-43362Y-123481D01*
X-43370D01*
X-43378Y-123472D01*
X-43403Y-123464D01*
X-43435Y-123448D01*
X-43509Y-123407D01*
X-43608Y-123358D01*
X-43714Y-123292D01*
X-43829Y-123210D01*
X-43927Y-123120D01*
X-44018Y-123013D01*
X-44026Y-122997D01*
X-44050Y-122964D01*
X-44091Y-122898D01*
X-44133Y-122817D01*
X-44165Y-122718D01*
X-44206Y-122611D01*
X-44231Y-122488D01*
X-44239Y-122365D01*
Y-122357D01*
Y-122349D01*
Y-122308D01*
X-44231Y-122234D01*
X-44214Y-122152D01*
X-44190Y-122054D01*
X-44149Y-121947D01*
X-44100Y-121841D01*
X-44026Y-121742D01*
X-44018Y-121734D01*
X-43985Y-121701D01*
X-43936Y-121652D01*
X-43862Y-121587D01*
X-43772Y-121521D01*
X-43649Y-121447D01*
X-43509Y-121373D01*
X-43345Y-121300D01*
X-43329Y-121291D01*
X-43312Y-121283D01*
X-43280Y-121275D01*
X-43247Y-121267D01*
X-43198Y-121250D01*
X-43132Y-121226D01*
X-43066Y-121209D01*
X-42976Y-121185D01*
X-42886Y-121152D01*
X-42771Y-121127D01*
X-42648Y-121095D01*
X-42509Y-121054D01*
X-42361Y-121021D01*
X-42189Y-120972D01*
X-42000Y-120931D01*
X-41992D01*
X-41960Y-120922D01*
X-41902Y-120906D01*
X-41837Y-120889D01*
X-41746Y-120865D01*
X-41648Y-120840D01*
X-41550Y-120808D01*
X-41435Y-120775D01*
X-41189Y-120701D01*
X-40951Y-120619D01*
X-40836Y-120578D01*
X-40729Y-120537D01*
X-40631Y-120496D01*
X-40549Y-120455D01*
X-40541D01*
X-40525Y-120439D01*
X-40500Y-120422D01*
X-40459Y-120406D01*
X-40361Y-120348D01*
X-40246Y-120266D01*
X-40106Y-120160D01*
X-39975Y-120045D01*
X-39844Y-119905D01*
X-39737Y-119758D01*
Y-119750D01*
X-39729Y-119741D01*
X-39713Y-119717D01*
X-39696Y-119684D01*
X-39655Y-119594D01*
X-39606Y-119479D01*
X-39557Y-119340D01*
X-39516Y-119176D01*
X-39483Y-118995D01*
X-39475Y-118807D01*
Y-118798D01*
Y-118782D01*
Y-118749D01*
X-39483Y-118708D01*
Y-118659D01*
X-39491Y-118602D01*
X-39516Y-118454D01*
X-39557Y-118290D01*
X-39606Y-118118D01*
X-39688Y-117929D01*
X-39795Y-117741D01*
Y-117733D01*
X-39811Y-117716D01*
X-39827Y-117692D01*
X-39852Y-117659D01*
X-39934Y-117569D01*
X-40041Y-117454D01*
X-40172Y-117331D01*
X-40336Y-117208D01*
X-40525Y-117085D01*
X-40746Y-116978D01*
X-40754D01*
X-40771Y-116970D01*
X-40811Y-116954D01*
X-40852Y-116937D01*
X-40910Y-116921D01*
X-40984Y-116896D01*
X-41066Y-116872D01*
X-41156Y-116847D01*
X-41254Y-116822D01*
X-41361Y-116798D01*
X-41590Y-116757D01*
X-41853Y-116724D01*
X-42132Y-116716D01*
D02*
G37*
G36*
X-37023Y-126052D02*
X-38023D01*
Y-129160D01*
X-41951D01*
Y-126052D01*
X-42952D01*
Y-133621D01*
X-41951D01*
Y-130054D01*
X-38023D01*
Y-133621D01*
X-37023D01*
Y-126052D01*
D02*
G37*
G36*
X-44641D02*
X-50118D01*
Y-126946D01*
X-45641D01*
Y-129258D01*
X-49832D01*
Y-130152D01*
X-45641D01*
Y-132727D01*
X-50291D01*
Y-133621D01*
X-44641D01*
Y-126052D01*
D02*
G37*
G36*
X-51685D02*
X-55203D01*
X-55293Y-126060D01*
X-55383D01*
X-55489Y-126069D01*
X-55612Y-126077D01*
X-55858Y-126101D01*
X-56113Y-126142D01*
X-56359Y-126192D01*
X-56465Y-126224D01*
X-56572Y-126257D01*
X-56580D01*
X-56596Y-126265D01*
X-56621Y-126282D01*
X-56662Y-126298D01*
X-56761Y-126347D01*
X-56875Y-126421D01*
X-57015Y-126520D01*
X-57154Y-126651D01*
X-57293Y-126798D01*
X-57416Y-126979D01*
Y-126987D01*
X-57433Y-127003D01*
X-57449Y-127028D01*
X-57466Y-127069D01*
X-57490Y-127118D01*
X-57515Y-127176D01*
X-57548Y-127241D01*
X-57581Y-127315D01*
X-57638Y-127487D01*
X-57687Y-127676D01*
X-57720Y-127889D01*
X-57736Y-128119D01*
Y-128127D01*
Y-128151D01*
Y-128201D01*
X-57728Y-128250D01*
X-57720Y-128324D01*
X-57712Y-128406D01*
X-57695Y-128496D01*
X-57671Y-128594D01*
X-57605Y-128807D01*
X-57564Y-128922D01*
X-57515Y-129037D01*
X-57458Y-129152D01*
X-57384Y-129267D01*
X-57302Y-129373D01*
X-57212Y-129480D01*
X-57203Y-129488D01*
X-57187Y-129504D01*
X-57154Y-129529D01*
X-57113Y-129570D01*
X-57056Y-129611D01*
X-56990Y-129660D01*
X-56908Y-129718D01*
X-56810Y-129775D01*
X-56703Y-129832D01*
X-56588Y-129890D01*
X-56457Y-129947D01*
X-56309Y-130005D01*
X-56154Y-130054D01*
X-55981Y-130103D01*
X-55793Y-130144D01*
X-55596Y-130177D01*
X-55604D01*
X-55612Y-130185D01*
X-55662Y-130210D01*
X-55735Y-130251D01*
X-55826Y-130300D01*
X-55924Y-130357D01*
X-56023Y-130415D01*
X-56121Y-130488D01*
X-56203Y-130554D01*
X-56211Y-130562D01*
X-56219Y-130570D01*
X-56244Y-130595D01*
X-56277Y-130628D01*
X-56318Y-130669D01*
X-56367Y-130718D01*
X-56473Y-130833D01*
X-56596Y-130980D01*
X-56736Y-131153D01*
X-56884Y-131349D01*
X-57031Y-131563D01*
X-58343Y-133621D01*
X-57089D01*
X-56088Y-132046D01*
X-56080Y-132038D01*
X-56072Y-132014D01*
X-56047Y-131981D01*
X-56014Y-131932D01*
X-55981Y-131874D01*
X-55932Y-131809D01*
X-55834Y-131661D01*
X-55719Y-131489D01*
X-55604Y-131317D01*
X-55481Y-131153D01*
X-55366Y-131005D01*
Y-130997D01*
X-55350Y-130989D01*
X-55317Y-130948D01*
X-55268Y-130882D01*
X-55194Y-130808D01*
X-55120Y-130726D01*
X-55030Y-130644D01*
X-54940Y-130562D01*
X-54858Y-130505D01*
X-54850Y-130497D01*
X-54817Y-130480D01*
X-54776Y-130456D01*
X-54719Y-130423D01*
X-54645Y-130390D01*
X-54571Y-130357D01*
X-54489Y-130324D01*
X-54399Y-130300D01*
X-54391D01*
X-54366Y-130292D01*
X-54325Y-130283D01*
X-54268Y-130275D01*
X-54186D01*
X-54087Y-130267D01*
X-53973Y-130259D01*
X-52685D01*
Y-133621D01*
X-51685D01*
Y-126052D01*
D02*
G37*
G36*
X-59327D02*
X-64805D01*
Y-126946D01*
X-60328D01*
Y-129258D01*
X-64518D01*
Y-130152D01*
X-60328D01*
Y-132727D01*
X-64977D01*
Y-133621D01*
X-59327D01*
Y-126052D01*
D02*
G37*
%LPD*%
G36*
X-63513Y-110848D02*
X-65776D01*
X-65834Y-110840D01*
X-65899D01*
X-66055Y-110831D01*
X-66227Y-110815D01*
X-66408Y-110790D01*
X-66580Y-110758D01*
X-66736Y-110708D01*
X-66744D01*
X-66752Y-110700D01*
X-66801Y-110684D01*
X-66867Y-110651D01*
X-66957Y-110602D01*
X-67047Y-110536D01*
X-67146Y-110462D01*
X-67244Y-110364D01*
X-67326Y-110257D01*
X-67334Y-110241D01*
X-67359Y-110200D01*
X-67392Y-110143D01*
X-67433Y-110052D01*
X-67466Y-109954D01*
X-67498Y-109839D01*
X-67523Y-109708D01*
X-67531Y-109577D01*
Y-109569D01*
Y-109552D01*
Y-109528D01*
X-67523Y-109487D01*
Y-109446D01*
X-67515Y-109388D01*
X-67482Y-109265D01*
X-67433Y-109126D01*
X-67367Y-108978D01*
X-67269Y-108839D01*
X-67203Y-108765D01*
X-67138Y-108699D01*
X-67129Y-108691D01*
X-67121Y-108683D01*
X-67097Y-108667D01*
X-67064Y-108642D01*
X-67023Y-108617D01*
X-66965Y-108585D01*
X-66908Y-108552D01*
X-66834Y-108519D01*
X-66752Y-108486D01*
X-66662Y-108462D01*
X-66564Y-108429D01*
X-66457Y-108404D01*
X-66334Y-108380D01*
X-66203Y-108363D01*
X-66063Y-108347D01*
X-63513D01*
Y-110848D01*
D02*
G37*
G36*
X-36355Y-108248D02*
X-36273D01*
X-36183Y-108265D01*
X-36076Y-108281D01*
X-35961Y-108306D01*
X-35830Y-108330D01*
X-35691Y-108371D01*
X-35543Y-108421D01*
X-35387Y-108478D01*
X-35240Y-108552D01*
X-35084Y-108634D01*
X-34928Y-108732D01*
X-34772Y-108847D01*
X-34625Y-108978D01*
X-34616Y-108986D01*
X-34592Y-109011D01*
X-34551Y-109060D01*
X-34510Y-109118D01*
X-34444Y-109200D01*
X-34387Y-109298D01*
X-34313Y-109421D01*
X-34247Y-109552D01*
X-34174Y-109716D01*
X-34100Y-109897D01*
X-34042Y-110093D01*
X-33985Y-110315D01*
X-33936Y-110553D01*
X-33895Y-110815D01*
X-33870Y-111102D01*
X-33862Y-111414D01*
Y-111430D01*
Y-111471D01*
X-33870Y-111545D01*
Y-111643D01*
X-33887Y-111758D01*
X-33903Y-111889D01*
X-33919Y-112037D01*
X-33952Y-112193D01*
X-33993Y-112365D01*
X-34042Y-112545D01*
X-34100Y-112717D01*
X-34174Y-112898D01*
X-34256Y-113078D01*
X-34354Y-113250D01*
X-34461Y-113414D01*
X-34592Y-113570D01*
X-34600Y-113578D01*
X-34625Y-113603D01*
X-34666Y-113644D01*
X-34723Y-113693D01*
X-34797Y-113751D01*
X-34887Y-113816D01*
X-34985Y-113890D01*
X-35100Y-113956D01*
X-35223Y-114029D01*
X-35371Y-114103D01*
X-35518Y-114169D01*
X-35682Y-114226D01*
X-35855Y-114275D01*
X-36043Y-114316D01*
X-36232Y-114341D01*
X-36437Y-114349D01*
X-36486D01*
X-36543Y-114341D01*
X-36625Y-114333D01*
X-36724Y-114325D01*
X-36830Y-114308D01*
X-36962Y-114284D01*
X-37093Y-114251D01*
X-37240Y-114210D01*
X-37388Y-114161D01*
X-37544Y-114095D01*
X-37700Y-114013D01*
X-37855Y-113923D01*
X-38011Y-113824D01*
X-38159Y-113701D01*
X-38298Y-113562D01*
X-38306Y-113554D01*
X-38331Y-113521D01*
X-38364Y-113480D01*
X-38413Y-113414D01*
X-38470Y-113332D01*
X-38536Y-113234D01*
X-38602Y-113119D01*
X-38667Y-112980D01*
X-38733Y-112832D01*
X-38807Y-112660D01*
X-38864Y-112480D01*
X-38921Y-112275D01*
X-38971Y-112053D01*
X-39003Y-111824D01*
X-39028Y-111569D01*
X-39036Y-111307D01*
Y-111299D01*
Y-111266D01*
Y-111217D01*
X-39028Y-111151D01*
Y-111069D01*
X-39020Y-110979D01*
X-39012Y-110872D01*
X-38995Y-110758D01*
X-38962Y-110503D01*
X-38905Y-110233D01*
X-38823Y-109962D01*
X-38716Y-109692D01*
Y-109683D01*
X-38700Y-109659D01*
X-38684Y-109626D01*
X-38659Y-109577D01*
X-38626Y-109519D01*
X-38585Y-109454D01*
X-38487Y-109298D01*
X-38356Y-109126D01*
X-38200Y-108954D01*
X-38019Y-108781D01*
X-37806Y-108626D01*
X-37798Y-108617D01*
X-37782Y-108609D01*
X-37749Y-108593D01*
X-37700Y-108568D01*
X-37642Y-108535D01*
X-37577Y-108503D01*
X-37503Y-108470D01*
X-37413Y-108429D01*
X-37314Y-108396D01*
X-37216Y-108363D01*
X-36986Y-108298D01*
X-36732Y-108257D01*
X-36593Y-108240D01*
X-36404D01*
X-36355Y-108248D01*
D02*
G37*
G36*
X-50504Y-123522D02*
X-52242D01*
X-52308Y-123513D01*
X-52382D01*
X-52546Y-123505D01*
X-52734Y-123489D01*
X-52931Y-123464D01*
X-53120Y-123432D01*
X-53292Y-123390D01*
X-53300D01*
X-53308Y-123382D01*
X-53333Y-123374D01*
X-53366Y-123366D01*
X-53439Y-123333D01*
X-53538Y-123292D01*
X-53645Y-123235D01*
X-53759Y-123169D01*
X-53874Y-123087D01*
X-53973Y-122997D01*
X-53981Y-122989D01*
X-53989Y-122980D01*
X-54030Y-122931D01*
X-54096Y-122849D01*
X-54177Y-122743D01*
X-54260Y-122603D01*
X-54350Y-122439D01*
X-54440Y-122251D01*
X-54522Y-122037D01*
Y-122029D01*
X-54530Y-122013D01*
X-54538Y-121980D01*
X-54555Y-121931D01*
X-54571Y-121873D01*
X-54588Y-121800D01*
X-54604Y-121718D01*
X-54628Y-121627D01*
X-54645Y-121529D01*
X-54661Y-121414D01*
X-54678Y-121300D01*
X-54694Y-121168D01*
X-54719Y-120889D01*
X-54727Y-120578D01*
Y-120562D01*
Y-120529D01*
Y-120463D01*
X-54719Y-120381D01*
Y-120283D01*
X-54711Y-120168D01*
X-54694Y-120045D01*
X-54678Y-119905D01*
X-54628Y-119610D01*
X-54563Y-119307D01*
X-54465Y-119020D01*
X-54399Y-118880D01*
X-54333Y-118757D01*
X-54325Y-118749D01*
X-54317Y-118733D01*
X-54292Y-118700D01*
X-54260Y-118651D01*
X-54227Y-118602D01*
X-54177Y-118544D01*
X-54071Y-118413D01*
X-53931Y-118265D01*
X-53768Y-118126D01*
X-53587Y-117995D01*
X-53489Y-117946D01*
X-53382Y-117896D01*
X-53374D01*
X-53366Y-117888D01*
X-53341Y-117880D01*
X-53308Y-117872D01*
X-53259Y-117864D01*
X-53210Y-117847D01*
X-53144Y-117831D01*
X-53070Y-117815D01*
X-52988Y-117806D01*
X-52890Y-117790D01*
X-52784Y-117773D01*
X-52669Y-117765D01*
X-52538Y-117757D01*
X-52398Y-117749D01*
X-52250Y-117741D01*
X-50504D01*
Y-123522D01*
D02*
G37*
G36*
X-52685Y-129390D02*
X-54948D01*
X-55006Y-129381D01*
X-55071D01*
X-55227Y-129373D01*
X-55399Y-129357D01*
X-55580Y-129332D01*
X-55752Y-129299D01*
X-55908Y-129250D01*
X-55916D01*
X-55924Y-129242D01*
X-55973Y-129226D01*
X-56039Y-129193D01*
X-56129Y-129144D01*
X-56219Y-129078D01*
X-56318Y-129004D01*
X-56416Y-128906D01*
X-56498Y-128799D01*
X-56506Y-128783D01*
X-56531Y-128742D01*
X-56564Y-128684D01*
X-56605Y-128594D01*
X-56638Y-128496D01*
X-56670Y-128381D01*
X-56695Y-128250D01*
X-56703Y-128119D01*
Y-128110D01*
Y-128094D01*
Y-128069D01*
X-56695Y-128028D01*
Y-127987D01*
X-56687Y-127930D01*
X-56654Y-127807D01*
X-56605Y-127668D01*
X-56539Y-127520D01*
X-56441Y-127381D01*
X-56375Y-127307D01*
X-56309Y-127241D01*
X-56301Y-127233D01*
X-56293Y-127225D01*
X-56269Y-127208D01*
X-56236Y-127184D01*
X-56195Y-127159D01*
X-56137Y-127126D01*
X-56080Y-127094D01*
X-56006Y-127061D01*
X-55924Y-127028D01*
X-55834Y-127003D01*
X-55735Y-126971D01*
X-55629Y-126946D01*
X-55506Y-126921D01*
X-55375Y-126905D01*
X-55235Y-126889D01*
X-52685D01*
Y-129390D01*
D02*
G37*
D11*
X-207480Y-39370D02*
G03*
X-207480Y-39370I-7087J0D01*
G01*
X-218504Y-26969D02*
X-210630D01*
X-226969Y-43307D02*
Y-35433D01*
X-218504Y-51772D02*
X-210630D01*
X-202165Y-43307D02*
Y-35433D01*
X75551Y-175000D02*
X95551D01*
X75551Y5000D02*
X95551D01*
X75551Y-175000D02*
Y5000D01*
X95551Y-175000D02*
Y5000D01*
X5000Y-175000D02*
Y5000D01*
X-15000Y-175000D02*
Y5000D01*
X5000D01*
X-15000Y-175000D02*
X5000D01*
X-93425D02*
Y5000D01*
X-113425Y-175000D02*
Y5000D01*
X-93425D01*
X-113425Y-175000D02*
X-93425D01*
D12*
X62500Y1001D02*
Y5000D01*
X58501Y1001D01*
X57502D01*
X56502Y2001D01*
Y4000D01*
X57502Y5000D01*
X71500Y4000D02*
Y2001D01*
Y3000D01*
X65502D01*
X66502Y4000D01*
X69502Y-166500D02*
X68502Y-167500D01*
Y-169499D01*
X69502Y-170499D01*
X70501D01*
X71501Y-169499D01*
Y-168499D01*
Y-169499D01*
X72501Y-170499D01*
X73500D01*
X74500Y-169499D01*
Y-167500D01*
X73500Y-166500D01*
X68502Y-176497D02*
Y-172498D01*
X71501D01*
X70501Y-174497D01*
Y-175497D01*
X71501Y-176497D01*
X73500D01*
X74500Y-175497D01*
Y-173498D01*
X73500Y-172498D01*
X59002Y-167000D02*
X58002Y-168000D01*
Y-169999D01*
X59002Y-170999D01*
X60001D01*
X61001Y-169999D01*
Y-168999D01*
Y-169999D01*
X62001Y-170999D01*
X63000D01*
X64000Y-169999D01*
Y-168000D01*
X63000Y-167000D01*
X58002Y-176997D02*
X59002Y-174997D01*
X61001Y-172998D01*
X63000D01*
X64000Y-173998D01*
Y-175997D01*
X63000Y-176997D01*
X62001D01*
X61001Y-175997D01*
Y-172998D01*
X-23498Y-167500D02*
X-24498Y-168500D01*
Y-170499D01*
X-23498Y-171499D01*
X-22499D01*
X-21499Y-170499D01*
Y-169499D01*
Y-170499D01*
X-20499Y-171499D01*
X-19500D01*
X-18500Y-170499D01*
Y-168500D01*
X-19500Y-167500D01*
X-24498Y-177497D02*
X-23498Y-175497D01*
X-21499Y-173498D01*
X-19500D01*
X-18500Y-174498D01*
Y-176497D01*
X-19500Y-177497D01*
X-20499D01*
X-21499Y-176497D01*
Y-173498D01*
X9502Y-167000D02*
X8502Y-168000D01*
Y-169999D01*
X9502Y-170999D01*
X10501D01*
X11501Y-169999D01*
Y-168999D01*
Y-169999D01*
X12501Y-170999D01*
X13500D01*
X14500Y-169999D01*
Y-168000D01*
X13500Y-167000D01*
X8502Y-176997D02*
Y-172998D01*
X11501D01*
X10501Y-174997D01*
Y-175997D01*
X11501Y-176997D01*
X13500D01*
X14500Y-175997D01*
Y-173998D01*
X13500Y-172998D01*
X13000Y3000D02*
Y1001D01*
Y2000D01*
X7002D01*
X8002Y3000D01*
X-18500Y1D02*
Y4000D01*
X-22499Y1D01*
X-23498D01*
X-24498Y1001D01*
Y3000D01*
X-23498Y4000D01*
X-121998Y-167000D02*
X-122998Y-168000D01*
Y-169999D01*
X-121998Y-170999D01*
X-120999D01*
X-119999Y-169999D01*
Y-168999D01*
Y-169999D01*
X-118999Y-170999D01*
X-118000D01*
X-117000Y-169999D01*
Y-168000D01*
X-118000Y-167000D01*
X-122998Y-176997D02*
X-121998Y-174997D01*
X-119999Y-172998D01*
X-118000D01*
X-117000Y-173998D01*
Y-175997D01*
X-118000Y-176997D01*
X-118999D01*
X-119999Y-175997D01*
Y-172998D01*
X-87998Y-166500D02*
X-88998Y-167500D01*
Y-169499D01*
X-87998Y-170499D01*
X-86999D01*
X-85999Y-169499D01*
Y-168499D01*
Y-169499D01*
X-84999Y-170499D01*
X-84000D01*
X-83000Y-169499D01*
Y-167500D01*
X-84000Y-166500D01*
X-88998Y-176497D02*
Y-172498D01*
X-85999D01*
X-86999Y-174497D01*
Y-175497D01*
X-85999Y-176497D01*
X-84000D01*
X-83000Y-175497D01*
Y-173498D01*
X-84000Y-172498D01*
X-84500Y4000D02*
Y2001D01*
Y3000D01*
X-90498D01*
X-89498Y4000D01*
X-116500Y-1499D02*
Y2500D01*
X-120499Y-1499D01*
X-121498D01*
X-122498Y-499D01*
Y1500D01*
X-121498Y2500D01*
M02*
