M48
;Layer_Color=9474304
;FILE_FORMAT=2:5
INCH,LZ
;TYPE=PLATED
T1F00S00C0.01968
T2F00S00C0.03543
T3F00S00C0.05906
%
T01
X-01875Y-01555
X-01795Y-0159
X-0172Y-01585
X-0133Y-01575
X-01245Y-0159
X-0117Y-01595
X0024Y-00835
X0046
X0036Y-004
X00355Y-00105
X0060461Y0002039
X0069Y0002
X00695Y-0029
X00615
X-0022Y-00065
X-0030539Y-0006961
X-0057Y-00205
X-0042Y-0073
X-0031Y-0064
X-00215
X-01165Y-0051
X-0125Y-00505
X-01325Y-0052
X-0121Y-00775
X-0133Y-0092
X-01325Y-0005
X-01245Y-00065
X-01165Y-0008
X-0172Y00035
X-01785Y0003
X-0179Y-00305
X-0172Y-00315
X-01725Y-00625
X-0179
X-01875Y-005787
X-0185Y-00755
X-01855Y-0109
X-0179Y-0113
X-0172
X-02025Y-0008
T02
X-0261772Y-017
Y-016
X-0251772
Y-017
Y-015
X-0261772
Y-014
Y-013
X-0251772
Y-014
X-01615
Y-013
Y-015
Y-016
Y-017
X-01515
Y-016
Y-015
Y-014
Y-013
X-0108425
X-0098425
Y-014
Y-015
Y-016
Y-017
X-0108425
Y-016
Y-015
Y-014
X-001
Y-013
X0
Y-014
Y-015
Y-016
Y-017
X-001
Y-016
Y-015
X0080551
Y-016
Y-017
X0090551
Y-016
Y-015
Y-014
Y-013
X0080551
Y-014
Y-012
Y-011
Y-01
Y-009
Y-008
Y-007
X0090551
Y-006
Y-005
Y-004
Y-003
Y-002
X0080551
Y-001
Y0
X0090551
Y-001
X0080551Y-003
Y-004
Y-005
Y-006
X0090551Y-008
Y-009
Y-01
Y-011
Y-012
X0
Y-011
Y-01
Y-009
Y-008
Y-007
Y-006
Y-005
Y-004
Y-003
Y-002
Y-001
Y0
X-001
Y-001
Y-002
Y-003
Y-004
Y-005
Y-006
Y-007
Y-008
Y-009
Y-01
Y-011
Y-012
X-0098425
Y-011
Y-01
Y-009
X-0108425
Y-01
Y-011
Y-012
Y-008
X-0098425
Y-007
X-0108425
Y-006
X-0098425
Y-005
X-0108425
Y-004
X-0098425
Y-003
X-0108425
Y-002
X-0098425
Y-001
X-0108425
Y0
X-0098425
X-01515
Y-001
Y-002
Y-003
Y-004
Y-005
Y-006
Y-007
Y-008
Y-009
Y-01
Y-011
Y-012
X-01615
Y-011
Y-01
Y-009
Y-008
Y-007
Y-006
Y-005
Y-004
Y-003
Y-002
Y-001
Y0
X-0251772
Y-001
Y-002
Y-003
Y-004
Y-005
Y-006
Y-007
Y-008
Y-009
Y-01
Y-011
Y-012
X-0261772
Y-011
Y-01
Y-009
Y-008
Y-007
Y-006
Y-005
Y-004
Y-003
Y-002
Y-001
Y0
T03
X-022441Y-0049213
Y-0029528
X-0204724
Y-0049213
X-0214567Y-003937
M30
