G04*
G04 #@! TF.GenerationSoftware,Altium Limited,Altium Designer,22.4.2 (48)*
G04*
G04 Layer_Color=32896*
%FSLAX25Y25*%
%MOIN*%
G70*
G04*
G04 #@! TF.SameCoordinates,CDC420FF-F511-4FEA-BDED-44E7EBAE7E28*
G04*
G04*
G04 #@! TF.FilePolarity,Positive*
G04*
G01*
G75*
%ADD11C,0.00787*%
%ADD34C,0.01000*%
G36*
X70799Y-29702D02*
Y-39039D01*
Y-67000D01*
X10201D01*
Y-39039D01*
Y-29702D01*
Y-3000D01*
X70799D01*
Y-29702D01*
D02*
G37*
G36*
X51194Y-172792D02*
X42967D01*
D01*
X33818D01*
X22806D01*
Y-75208D01*
X51194D01*
Y-172792D01*
D02*
G37*
%LPC*%
G36*
X50127Y-22010D02*
X49126D01*
Y-26381D01*
Y-26389D01*
Y-26422D01*
Y-26471D01*
Y-26545D01*
X49118Y-26627D01*
Y-26717D01*
X49110Y-26824D01*
X49102Y-26930D01*
X49085Y-27168D01*
X49053Y-27406D01*
X49003Y-27636D01*
X48979Y-27742D01*
X48946Y-27832D01*
Y-27841D01*
X48938Y-27849D01*
X48930Y-27873D01*
X48913Y-27906D01*
X48864Y-27996D01*
X48798Y-28095D01*
X48716Y-28218D01*
X48610Y-28333D01*
X48479Y-28447D01*
X48323Y-28554D01*
X48315D01*
X48298Y-28562D01*
X48274Y-28579D01*
X48241Y-28595D01*
X48200Y-28611D01*
X48142Y-28628D01*
X48085Y-28652D01*
X48019Y-28677D01*
X47855Y-28718D01*
X47667Y-28759D01*
X47454Y-28792D01*
X47224Y-28800D01*
X47117D01*
X47044Y-28792D01*
X46953Y-28784D01*
X46847Y-28775D01*
X46732Y-28759D01*
X46609Y-28734D01*
X46355Y-28677D01*
X46224Y-28636D01*
X46092Y-28587D01*
X45969Y-28529D01*
X45855Y-28464D01*
X45748Y-28390D01*
X45650Y-28300D01*
X45641Y-28292D01*
X45625Y-28275D01*
X45609Y-28242D01*
X45576Y-28201D01*
X45543Y-28144D01*
X45502Y-28070D01*
X45453Y-27980D01*
X45412Y-27873D01*
X45371Y-27750D01*
X45322Y-27611D01*
X45281Y-27455D01*
X45248Y-27283D01*
X45215Y-27086D01*
X45190Y-26873D01*
X45182Y-26635D01*
X45174Y-26381D01*
Y-22010D01*
X44174D01*
Y-26570D01*
X44182Y-26668D01*
X44190Y-26775D01*
X44198Y-26898D01*
X44206Y-27037D01*
X44239Y-27324D01*
X44280Y-27627D01*
X44346Y-27923D01*
X44387Y-28062D01*
X44436Y-28193D01*
Y-28201D01*
X44444Y-28226D01*
X44461Y-28259D01*
X44485Y-28308D01*
X44518Y-28365D01*
X44551Y-28431D01*
X44649Y-28579D01*
X44707Y-28669D01*
X44772Y-28751D01*
X44854Y-28849D01*
X44936Y-28939D01*
X45035Y-29030D01*
X45133Y-29120D01*
X45248Y-29202D01*
X45371Y-29284D01*
X45379Y-29292D01*
X45404Y-29300D01*
X45436Y-29325D01*
X45494Y-29349D01*
X45559Y-29382D01*
X45641Y-29415D01*
X45732Y-29456D01*
X45846Y-29489D01*
X45961Y-29530D01*
X46092Y-29571D01*
X46240Y-29604D01*
X46396Y-29636D01*
X46568Y-29661D01*
X46748Y-29686D01*
X46937Y-29694D01*
X47134Y-29702D01*
X47240D01*
X47314Y-29694D01*
X47404D01*
X47503Y-29686D01*
X47626Y-29669D01*
X47749Y-29653D01*
X48028Y-29612D01*
X48323Y-29546D01*
X48610Y-29456D01*
X48749Y-29407D01*
X48880Y-29341D01*
X48889Y-29333D01*
X48913Y-29325D01*
X48946Y-29300D01*
X48987Y-29276D01*
X49044Y-29235D01*
X49110Y-29185D01*
X49176Y-29136D01*
X49249Y-29071D01*
X49413Y-28923D01*
X49569Y-28743D01*
X49717Y-28529D01*
X49782Y-28406D01*
X49840Y-28283D01*
Y-28275D01*
X49848Y-28251D01*
X49864Y-28210D01*
X49881Y-28152D01*
X49905Y-28087D01*
X49930Y-27996D01*
X49955Y-27898D01*
X49979Y-27783D01*
X50012Y-27652D01*
X50037Y-27513D01*
X50061Y-27357D01*
X50078Y-27185D01*
X50102Y-27004D01*
X50110Y-26807D01*
X50127Y-26602D01*
Y-22010D01*
D02*
G37*
G36*
X43075D02*
X37089D01*
Y-22904D01*
X39582D01*
Y-29579D01*
X40582D01*
Y-22904D01*
X43075D01*
Y-22010D01*
D02*
G37*
G36*
X36031D02*
X30553D01*
Y-22904D01*
X35031D01*
Y-25217D01*
X30840D01*
Y-26110D01*
X35031D01*
Y-28685D01*
X30381D01*
Y-29579D01*
X36031D01*
Y-22010D01*
D02*
G37*
G36*
X28987D02*
X25469D01*
X25379Y-22019D01*
X25289D01*
X25182Y-22027D01*
X25059Y-22035D01*
X24813Y-22060D01*
X24559Y-22101D01*
X24313Y-22150D01*
X24207Y-22183D01*
X24100Y-22215D01*
X24092D01*
X24075Y-22224D01*
X24051Y-22240D01*
X24010Y-22256D01*
X23911Y-22306D01*
X23797Y-22379D01*
X23657Y-22478D01*
X23518Y-22609D01*
X23378Y-22757D01*
X23255Y-22937D01*
Y-22945D01*
X23239Y-22962D01*
X23223Y-22986D01*
X23206Y-23027D01*
X23182Y-23076D01*
X23157Y-23134D01*
X23124Y-23199D01*
X23091Y-23273D01*
X23034Y-23445D01*
X22985Y-23634D01*
X22952Y-23847D01*
X22936Y-24077D01*
Y-24085D01*
Y-24110D01*
Y-24159D01*
X22944Y-24208D01*
X22952Y-24282D01*
X22960Y-24364D01*
X22977Y-24454D01*
X23001Y-24552D01*
X23067Y-24766D01*
X23108Y-24880D01*
X23157Y-24995D01*
X23214Y-25110D01*
X23288Y-25225D01*
X23370Y-25331D01*
X23460Y-25438D01*
X23469Y-25446D01*
X23485Y-25463D01*
X23518Y-25487D01*
X23559Y-25528D01*
X23616Y-25569D01*
X23682Y-25618D01*
X23764Y-25676D01*
X23862Y-25733D01*
X23969Y-25791D01*
X24084Y-25848D01*
X24215Y-25905D01*
X24362Y-25963D01*
X24518Y-26012D01*
X24690Y-26061D01*
X24879Y-26102D01*
X25076Y-26135D01*
X25068D01*
X25059Y-26143D01*
X25010Y-26168D01*
X24936Y-26209D01*
X24846Y-26258D01*
X24748Y-26315D01*
X24649Y-26373D01*
X24551Y-26447D01*
X24469Y-26512D01*
X24461Y-26520D01*
X24453Y-26529D01*
X24428Y-26553D01*
X24395Y-26586D01*
X24354Y-26627D01*
X24305Y-26676D01*
X24198Y-26791D01*
X24075Y-26939D01*
X23936Y-27111D01*
X23788Y-27308D01*
X23641Y-27521D01*
X22329Y-29579D01*
X23583D01*
X24584Y-28005D01*
X24592Y-27996D01*
X24600Y-27972D01*
X24625Y-27939D01*
X24658Y-27890D01*
X24690Y-27832D01*
X24740Y-27767D01*
X24838Y-27619D01*
X24953Y-27447D01*
X25068Y-27275D01*
X25191Y-27111D01*
X25305Y-26963D01*
Y-26955D01*
X25322Y-26947D01*
X25355Y-26906D01*
X25404Y-26840D01*
X25478Y-26766D01*
X25551Y-26684D01*
X25642Y-26602D01*
X25732Y-26520D01*
X25814Y-26463D01*
X25822Y-26455D01*
X25855Y-26438D01*
X25896Y-26414D01*
X25953Y-26381D01*
X26027Y-26348D01*
X26101Y-26315D01*
X26183Y-26283D01*
X26273Y-26258D01*
X26281D01*
X26306Y-26250D01*
X26347Y-26242D01*
X26404Y-26233D01*
X26486D01*
X26585Y-26225D01*
X26699Y-26217D01*
X27987D01*
Y-29579D01*
X28987D01*
Y-22010D01*
D02*
G37*
G36*
X55047Y-21879D02*
X54948D01*
X54875Y-21887D01*
X54776Y-21896D01*
X54670Y-21904D01*
X54555Y-21920D01*
X54424Y-21945D01*
X54276Y-21969D01*
X54128Y-22002D01*
X53973Y-22043D01*
X53809Y-22092D01*
X53645Y-22150D01*
X53481Y-22215D01*
X53325Y-22289D01*
X53161Y-22379D01*
X53153Y-22388D01*
X53120Y-22404D01*
X53079Y-22429D01*
X53021Y-22470D01*
X52948Y-22519D01*
X52874Y-22584D01*
X52784Y-22658D01*
X52685Y-22740D01*
X52579Y-22839D01*
X52472Y-22945D01*
X52365Y-23060D01*
X52259Y-23183D01*
X52160Y-23314D01*
X52054Y-23462D01*
X51964Y-23618D01*
X51873Y-23782D01*
X51865Y-23790D01*
X51857Y-23823D01*
X51832Y-23872D01*
X51808Y-23937D01*
X51767Y-24019D01*
X51734Y-24126D01*
X51693Y-24241D01*
X51652Y-24372D01*
X51611Y-24511D01*
X51570Y-24667D01*
X51529Y-24839D01*
X51496Y-25012D01*
X51472Y-25200D01*
X51447Y-25397D01*
X51439Y-25594D01*
X51431Y-25807D01*
Y-25922D01*
X51439Y-26004D01*
X51447Y-26102D01*
X51455Y-26217D01*
X51472Y-26348D01*
X51488Y-26496D01*
X51513Y-26652D01*
X51545Y-26816D01*
X51578Y-26988D01*
X51627Y-27160D01*
X51685Y-27340D01*
X51742Y-27513D01*
X51816Y-27693D01*
X51898Y-27865D01*
X51906Y-27873D01*
X51923Y-27906D01*
X51947Y-27955D01*
X51980Y-28013D01*
X52029Y-28087D01*
X52087Y-28177D01*
X52160Y-28275D01*
X52234Y-28382D01*
X52324Y-28488D01*
X52423Y-28603D01*
X52538Y-28718D01*
X52652Y-28833D01*
X52775Y-28939D01*
X52915Y-29046D01*
X53062Y-29153D01*
X53218Y-29243D01*
X53226Y-29251D01*
X53259Y-29259D01*
X53300Y-29284D01*
X53366Y-29317D01*
X53448Y-29349D01*
X53538Y-29390D01*
X53645Y-29431D01*
X53768Y-29472D01*
X53899Y-29513D01*
X54038Y-29554D01*
X54194Y-29595D01*
X54350Y-29628D01*
X54694Y-29686D01*
X54875Y-29694D01*
X55055Y-29702D01*
X55162D01*
X55235Y-29694D01*
X55326Y-29686D01*
X55440Y-29677D01*
X55555Y-29661D01*
X55695Y-29636D01*
X55834Y-29612D01*
X55990Y-29579D01*
X56146Y-29538D01*
X56310Y-29489D01*
X56474Y-29431D01*
X56638Y-29358D01*
X56802Y-29284D01*
X56966Y-29194D01*
X56974Y-29185D01*
X56998Y-29169D01*
X57048Y-29136D01*
X57105Y-29095D01*
X57171Y-29046D01*
X57253Y-28980D01*
X57343Y-28907D01*
X57441Y-28825D01*
X57548Y-28726D01*
X57646Y-28620D01*
X57753Y-28505D01*
X57859Y-28382D01*
X57966Y-28242D01*
X58064Y-28103D01*
X58155Y-27947D01*
X58245Y-27783D01*
X58253Y-27775D01*
X58261Y-27742D01*
X58286Y-27693D01*
X58310Y-27627D01*
X58343Y-27545D01*
X58376Y-27447D01*
X58417Y-27340D01*
X58458Y-27209D01*
X58499Y-27078D01*
X58540Y-26930D01*
X58573Y-26775D01*
X58606Y-26611D01*
X58655Y-26266D01*
X58663Y-26078D01*
X58671Y-25897D01*
Y-25815D01*
X58663Y-25766D01*
Y-25717D01*
X58655Y-25586D01*
X58638Y-25430D01*
X58614Y-25241D01*
X58589Y-25044D01*
X58548Y-24823D01*
X58491Y-24585D01*
X58425Y-24347D01*
X58343Y-24101D01*
X58245Y-23855D01*
X58130Y-23609D01*
X57999Y-23380D01*
X57843Y-23150D01*
X57663Y-22945D01*
X57654Y-22937D01*
X57613Y-22896D01*
X57556Y-22847D01*
X57482Y-22781D01*
X57376Y-22699D01*
X57261Y-22609D01*
X57121Y-22511D01*
X56957Y-22412D01*
X56777Y-22314D01*
X56580Y-22215D01*
X56367Y-22125D01*
X56129Y-22043D01*
X55883Y-21978D01*
X55621Y-21928D01*
X55342Y-21887D01*
X55047Y-21879D01*
D02*
G37*
G36*
X44760Y-31347D02*
X43760D01*
Y-38916D01*
X44760D01*
Y-31347D01*
D02*
G37*
G36*
X41996D02*
X39176D01*
X39094Y-31355D01*
X38995D01*
X38897Y-31363D01*
X38675Y-31372D01*
X38454Y-31396D01*
X38233Y-31421D01*
X38134Y-31445D01*
X38044Y-31462D01*
X38036D01*
X38011Y-31470D01*
X37979Y-31478D01*
X37938Y-31495D01*
X37880Y-31511D01*
X37815Y-31527D01*
X37659Y-31585D01*
X37486Y-31659D01*
X37306Y-31749D01*
X37117Y-31863D01*
X36937Y-32003D01*
X36929Y-32011D01*
X36913Y-32028D01*
X36880Y-32052D01*
X36839Y-32093D01*
X36790Y-32142D01*
X36732Y-32208D01*
X36667Y-32274D01*
X36601Y-32355D01*
X36527Y-32446D01*
X36453Y-32544D01*
X36380Y-32651D01*
X36306Y-32765D01*
X36166Y-33020D01*
X36043Y-33299D01*
Y-33307D01*
X36027Y-33331D01*
X36019Y-33380D01*
X35994Y-33438D01*
X35969Y-33512D01*
X35945Y-33602D01*
X35920Y-33700D01*
X35888Y-33815D01*
X35863Y-33946D01*
X35838Y-34086D01*
X35814Y-34233D01*
X35789Y-34389D01*
X35765Y-34553D01*
X35756Y-34725D01*
X35740Y-35094D01*
Y-35242D01*
X35748Y-35316D01*
Y-35406D01*
X35756Y-35504D01*
X35765Y-35611D01*
X35789Y-35849D01*
X35830Y-36103D01*
X35879Y-36365D01*
X35945Y-36628D01*
Y-36636D01*
X35953Y-36661D01*
X35969Y-36693D01*
X35978Y-36734D01*
X36002Y-36792D01*
X36027Y-36857D01*
X36084Y-37013D01*
X36158Y-37185D01*
X36248Y-37374D01*
X36347Y-37554D01*
X36461Y-37727D01*
Y-37735D01*
X36478Y-37743D01*
X36494Y-37767D01*
X36519Y-37800D01*
X36576Y-37874D01*
X36667Y-37973D01*
X36765Y-38087D01*
X36880Y-38202D01*
X37011Y-38309D01*
X37150Y-38415D01*
X37159D01*
X37167Y-38423D01*
X37216Y-38456D01*
X37298Y-38497D01*
X37405Y-38555D01*
X37536Y-38612D01*
X37692Y-38678D01*
X37872Y-38735D01*
X38061Y-38792D01*
X38069D01*
X38085Y-38801D01*
X38110D01*
X38151Y-38809D01*
X38200Y-38817D01*
X38265Y-38833D01*
X38331Y-38842D01*
X38405Y-38850D01*
X38585Y-38875D01*
X38790Y-38899D01*
X39020Y-38907D01*
X39266Y-38916D01*
X41996D01*
Y-31347D01*
D02*
G37*
G36*
X34338D02*
X28860D01*
Y-32241D01*
X33337D01*
Y-34553D01*
X29147D01*
Y-35447D01*
X33337D01*
Y-38022D01*
X28688D01*
Y-38916D01*
X34338D01*
Y-31347D01*
D02*
G37*
G36*
X49368Y-31216D02*
X49229D01*
X49155Y-31224D01*
X49065Y-31232D01*
X48975Y-31240D01*
X48868Y-31249D01*
X48638Y-31281D01*
X48384Y-31330D01*
X48130Y-31404D01*
X47884Y-31495D01*
X47876D01*
X47859Y-31511D01*
X47818Y-31519D01*
X47778Y-31544D01*
X47728Y-31576D01*
X47663Y-31609D01*
X47523Y-31691D01*
X47359Y-31806D01*
X47195Y-31945D01*
X47039Y-32101D01*
X46900Y-32290D01*
X46892Y-32298D01*
X46884Y-32315D01*
X46867Y-32339D01*
X46843Y-32380D01*
X46818Y-32429D01*
X46785Y-32487D01*
X46761Y-32561D01*
X46720Y-32634D01*
X46654Y-32807D01*
X46597Y-33011D01*
X46547Y-33233D01*
X46523Y-33479D01*
X47482Y-33553D01*
Y-33544D01*
X47491Y-33520D01*
Y-33487D01*
X47499Y-33438D01*
X47515Y-33372D01*
X47532Y-33307D01*
X47581Y-33151D01*
X47646Y-32979D01*
X47745Y-32798D01*
X47859Y-32626D01*
X47933Y-32552D01*
X48015Y-32478D01*
X48024Y-32470D01*
X48032Y-32462D01*
X48065Y-32446D01*
X48097Y-32421D01*
X48147Y-32397D01*
X48204Y-32364D01*
X48270Y-32331D01*
X48343Y-32290D01*
X48434Y-32257D01*
X48532Y-32224D01*
X48638Y-32192D01*
X48753Y-32167D01*
X48884Y-32142D01*
X49024Y-32126D01*
X49172Y-32109D01*
X49409D01*
X49475Y-32118D01*
X49549D01*
X49631Y-32126D01*
X49729Y-32134D01*
X49828Y-32151D01*
X50049Y-32192D01*
X50262Y-32249D01*
X50467Y-32331D01*
X50565Y-32388D01*
X50647Y-32446D01*
X50656D01*
X50664Y-32462D01*
X50713Y-32503D01*
X50779Y-32577D01*
X50853Y-32675D01*
X50926Y-32790D01*
X50992Y-32930D01*
X51041Y-33077D01*
X51049Y-33159D01*
X51057Y-33249D01*
Y-33257D01*
Y-33266D01*
X51049Y-33315D01*
X51041Y-33389D01*
X51025Y-33479D01*
X50984Y-33586D01*
X50934Y-33700D01*
X50869Y-33807D01*
X50770Y-33913D01*
X50754Y-33922D01*
X50738Y-33938D01*
X50705Y-33963D01*
X50664Y-33987D01*
X50615Y-34012D01*
X50549Y-34045D01*
X50475Y-34086D01*
X50385Y-34127D01*
X50279Y-34168D01*
X50156Y-34209D01*
X50016Y-34258D01*
X49852Y-34307D01*
X49680Y-34356D01*
X49483Y-34414D01*
X49262Y-34463D01*
X49245D01*
X49204Y-34471D01*
X49147Y-34488D01*
X49065Y-34512D01*
X48967Y-34528D01*
X48852Y-34561D01*
X48729Y-34586D01*
X48597Y-34627D01*
X48319Y-34701D01*
X48040Y-34775D01*
X47909Y-34815D01*
X47794Y-34857D01*
X47679Y-34898D01*
X47589Y-34938D01*
X47581D01*
X47556Y-34955D01*
X47523Y-34971D01*
X47482Y-34996D01*
X47425Y-35021D01*
X47359Y-35061D01*
X47220Y-35152D01*
X47056Y-35258D01*
X46900Y-35390D01*
X46744Y-35545D01*
X46679Y-35627D01*
X46613Y-35709D01*
Y-35717D01*
X46597Y-35734D01*
X46580Y-35759D01*
X46564Y-35791D01*
X46539Y-35832D01*
X46515Y-35890D01*
X46449Y-36021D01*
X46392Y-36177D01*
X46343Y-36357D01*
X46310Y-36562D01*
X46293Y-36783D01*
Y-36841D01*
X46301Y-36882D01*
Y-36939D01*
X46310Y-36997D01*
X46334Y-37152D01*
X46375Y-37325D01*
X46441Y-37513D01*
X46531Y-37710D01*
X46580Y-37817D01*
X46646Y-37915D01*
Y-37923D01*
X46662Y-37940D01*
X46679Y-37964D01*
X46712Y-38005D01*
X46785Y-38096D01*
X46900Y-38219D01*
X47039Y-38350D01*
X47212Y-38489D01*
X47409Y-38620D01*
X47638Y-38743D01*
X47646D01*
X47671Y-38760D01*
X47704Y-38768D01*
X47753Y-38792D01*
X47810Y-38809D01*
X47884Y-38833D01*
X47966Y-38866D01*
X48065Y-38891D01*
X48163Y-38916D01*
X48278Y-38948D01*
X48524Y-38989D01*
X48794Y-39022D01*
X49090Y-39039D01*
X49188D01*
X49262Y-39030D01*
X49352D01*
X49450Y-39022D01*
X49565Y-39014D01*
X49696Y-38998D01*
X49967Y-38965D01*
X50254Y-38916D01*
X50541Y-38842D01*
X50820Y-38743D01*
X50828D01*
X50853Y-38727D01*
X50885Y-38710D01*
X50934Y-38686D01*
X50992Y-38653D01*
X51057Y-38620D01*
X51213Y-38522D01*
X51385Y-38399D01*
X51566Y-38243D01*
X51746Y-38063D01*
X51902Y-37850D01*
X51910Y-37841D01*
X51919Y-37825D01*
X51935Y-37792D01*
X51960Y-37743D01*
X51992Y-37685D01*
X52025Y-37620D01*
X52066Y-37538D01*
X52099Y-37448D01*
X52140Y-37358D01*
X52173Y-37251D01*
X52238Y-37013D01*
X52288Y-36759D01*
X52304Y-36619D01*
X52312Y-36480D01*
X51369Y-36398D01*
Y-36406D01*
Y-36423D01*
X51361Y-36456D01*
X51353Y-36496D01*
X51345Y-36546D01*
X51336Y-36595D01*
X51303Y-36734D01*
X51262Y-36882D01*
X51213Y-37038D01*
X51148Y-37194D01*
X51066Y-37341D01*
X51057Y-37358D01*
X51016Y-37398D01*
X50959Y-37464D01*
X50877Y-37546D01*
X50770Y-37644D01*
X50639Y-37735D01*
X50484Y-37833D01*
X50303Y-37923D01*
X50295D01*
X50279Y-37931D01*
X50254Y-37940D01*
X50213Y-37956D01*
X50164Y-37973D01*
X50106Y-37997D01*
X50041Y-38013D01*
X49967Y-38030D01*
X49795Y-38071D01*
X49590Y-38112D01*
X49376Y-38137D01*
X49139Y-38145D01*
X49040D01*
X48991Y-38137D01*
X48934D01*
X48803Y-38120D01*
X48647Y-38104D01*
X48474Y-38079D01*
X48302Y-38038D01*
X48138Y-37981D01*
X48130D01*
X48122Y-37973D01*
X48097Y-37964D01*
X48065Y-37948D01*
X47991Y-37907D01*
X47892Y-37858D01*
X47786Y-37792D01*
X47671Y-37710D01*
X47572Y-37620D01*
X47482Y-37513D01*
X47474Y-37497D01*
X47449Y-37464D01*
X47409Y-37398D01*
X47368Y-37317D01*
X47335Y-37218D01*
X47294Y-37111D01*
X47269Y-36988D01*
X47261Y-36865D01*
Y-36857D01*
Y-36849D01*
Y-36808D01*
X47269Y-36734D01*
X47286Y-36652D01*
X47310Y-36554D01*
X47351Y-36447D01*
X47400Y-36341D01*
X47474Y-36242D01*
X47482Y-36234D01*
X47515Y-36201D01*
X47564Y-36152D01*
X47638Y-36086D01*
X47728Y-36021D01*
X47851Y-35947D01*
X47991Y-35873D01*
X48155Y-35800D01*
X48171Y-35791D01*
X48188Y-35783D01*
X48220Y-35775D01*
X48253Y-35767D01*
X48302Y-35750D01*
X48368Y-35726D01*
X48434Y-35709D01*
X48524Y-35685D01*
X48614Y-35652D01*
X48729Y-35627D01*
X48852Y-35594D01*
X48991Y-35554D01*
X49139Y-35521D01*
X49311Y-35471D01*
X49499Y-35430D01*
X49508D01*
X49540Y-35422D01*
X49598Y-35406D01*
X49663Y-35390D01*
X49754Y-35365D01*
X49852Y-35340D01*
X49951Y-35307D01*
X50065Y-35275D01*
X50311Y-35201D01*
X50549Y-35119D01*
X50664Y-35078D01*
X50770Y-35037D01*
X50869Y-34996D01*
X50951Y-34955D01*
X50959D01*
X50976Y-34938D01*
X51000Y-34922D01*
X51041Y-34906D01*
X51139Y-34848D01*
X51254Y-34766D01*
X51394Y-34660D01*
X51525Y-34545D01*
X51656Y-34405D01*
X51763Y-34258D01*
Y-34250D01*
X51771Y-34242D01*
X51787Y-34217D01*
X51804Y-34184D01*
X51845Y-34094D01*
X51894Y-33979D01*
X51943Y-33840D01*
X51984Y-33676D01*
X52017Y-33495D01*
X52025Y-33307D01*
Y-33299D01*
Y-33282D01*
Y-33249D01*
X52017Y-33208D01*
Y-33159D01*
X52009Y-33102D01*
X51984Y-32954D01*
X51943Y-32790D01*
X51894Y-32618D01*
X51812Y-32429D01*
X51705Y-32241D01*
Y-32232D01*
X51689Y-32216D01*
X51673Y-32192D01*
X51648Y-32159D01*
X51566Y-32068D01*
X51459Y-31954D01*
X51328Y-31831D01*
X51164Y-31708D01*
X50976Y-31585D01*
X50754Y-31478D01*
X50746D01*
X50730Y-31470D01*
X50688Y-31453D01*
X50647Y-31437D01*
X50590Y-31421D01*
X50516Y-31396D01*
X50434Y-31372D01*
X50344Y-31347D01*
X50246Y-31322D01*
X50139Y-31298D01*
X49909Y-31257D01*
X49647Y-31224D01*
X49368Y-31216D01*
D02*
G37*
G36*
X54477Y-40552D02*
X53477D01*
Y-43660D01*
X49549D01*
Y-40552D01*
X48548D01*
Y-48121D01*
X49549D01*
Y-44554D01*
X53477D01*
Y-48121D01*
X54477D01*
Y-40552D01*
D02*
G37*
G36*
X46859D02*
X41381D01*
Y-41446D01*
X45859D01*
Y-43758D01*
X41668D01*
Y-44652D01*
X45859D01*
Y-47227D01*
X41209D01*
Y-48121D01*
X46859D01*
Y-40552D01*
D02*
G37*
G36*
X39815D02*
X36298D01*
X36207Y-40560D01*
X36117D01*
X36011Y-40569D01*
X35888Y-40577D01*
X35642Y-40601D01*
X35387Y-40642D01*
X35141Y-40692D01*
X35035Y-40724D01*
X34928Y-40757D01*
X34920D01*
X34903Y-40765D01*
X34879Y-40782D01*
X34838Y-40798D01*
X34740Y-40847D01*
X34625Y-40921D01*
X34485Y-41020D01*
X34346Y-41151D01*
X34207Y-41298D01*
X34084Y-41479D01*
Y-41487D01*
X34067Y-41503D01*
X34051Y-41528D01*
X34034Y-41569D01*
X34010Y-41618D01*
X33985Y-41676D01*
X33952Y-41741D01*
X33920Y-41815D01*
X33862Y-41987D01*
X33813Y-42176D01*
X33780Y-42389D01*
X33764Y-42619D01*
Y-42627D01*
Y-42651D01*
Y-42701D01*
X33772Y-42750D01*
X33780Y-42824D01*
X33788Y-42906D01*
X33805Y-42996D01*
X33829Y-43094D01*
X33895Y-43307D01*
X33936Y-43422D01*
X33985Y-43537D01*
X34043Y-43652D01*
X34116Y-43767D01*
X34198Y-43873D01*
X34288Y-43980D01*
X34297Y-43988D01*
X34313Y-44004D01*
X34346Y-44029D01*
X34387Y-44070D01*
X34444Y-44111D01*
X34510Y-44160D01*
X34592Y-44218D01*
X34690Y-44275D01*
X34797Y-44332D01*
X34912Y-44390D01*
X35043Y-44447D01*
X35190Y-44505D01*
X35346Y-44554D01*
X35519Y-44603D01*
X35707Y-44644D01*
X35904Y-44677D01*
X35896D01*
X35888Y-44685D01*
X35838Y-44710D01*
X35765Y-44751D01*
X35674Y-44800D01*
X35576Y-44857D01*
X35478Y-44915D01*
X35379Y-44988D01*
X35297Y-45054D01*
X35289Y-45062D01*
X35281Y-45070D01*
X35256Y-45095D01*
X35223Y-45128D01*
X35182Y-45169D01*
X35133Y-45218D01*
X35026Y-45333D01*
X34903Y-45480D01*
X34764Y-45653D01*
X34617Y-45849D01*
X34469Y-46063D01*
X33157Y-48121D01*
X34411D01*
X35412Y-46546D01*
X35420Y-46538D01*
X35428Y-46514D01*
X35453Y-46481D01*
X35486Y-46432D01*
X35519Y-46374D01*
X35568Y-46309D01*
X35666Y-46161D01*
X35781Y-45989D01*
X35896Y-45817D01*
X36019Y-45653D01*
X36134Y-45505D01*
Y-45497D01*
X36150Y-45489D01*
X36183Y-45448D01*
X36232Y-45382D01*
X36306Y-45308D01*
X36380Y-45226D01*
X36470Y-45144D01*
X36560Y-45062D01*
X36642Y-45005D01*
X36650Y-44997D01*
X36683Y-44980D01*
X36724Y-44956D01*
X36781Y-44923D01*
X36855Y-44890D01*
X36929Y-44857D01*
X37011Y-44824D01*
X37101Y-44800D01*
X37109D01*
X37134Y-44792D01*
X37175Y-44783D01*
X37232Y-44775D01*
X37314D01*
X37413Y-44767D01*
X37527Y-44759D01*
X38815D01*
Y-48121D01*
X39815D01*
Y-40552D01*
D02*
G37*
G36*
X32173D02*
X26695D01*
Y-41446D01*
X31172D01*
Y-43758D01*
X26982D01*
Y-44652D01*
X31172D01*
Y-47227D01*
X26523D01*
Y-48121D01*
X32173D01*
Y-40552D01*
D02*
G37*
%LPD*%
G36*
X27987Y-25348D02*
X25724D01*
X25666Y-25340D01*
X25601D01*
X25445Y-25331D01*
X25273Y-25315D01*
X25092Y-25290D01*
X24920Y-25258D01*
X24764Y-25208D01*
X24756D01*
X24748Y-25200D01*
X24699Y-25184D01*
X24633Y-25151D01*
X24543Y-25102D01*
X24453Y-25036D01*
X24354Y-24962D01*
X24256Y-24864D01*
X24174Y-24757D01*
X24166Y-24741D01*
X24141Y-24700D01*
X24108Y-24643D01*
X24067Y-24552D01*
X24034Y-24454D01*
X24002Y-24339D01*
X23977Y-24208D01*
X23969Y-24077D01*
Y-24069D01*
Y-24052D01*
Y-24028D01*
X23977Y-23987D01*
Y-23946D01*
X23985Y-23888D01*
X24018Y-23765D01*
X24067Y-23626D01*
X24133Y-23478D01*
X24231Y-23339D01*
X24297Y-23265D01*
X24362Y-23199D01*
X24371Y-23191D01*
X24379Y-23183D01*
X24403Y-23167D01*
X24436Y-23142D01*
X24477Y-23117D01*
X24535Y-23085D01*
X24592Y-23052D01*
X24666Y-23019D01*
X24748Y-22986D01*
X24838Y-22962D01*
X24936Y-22929D01*
X25043Y-22904D01*
X25166Y-22880D01*
X25297Y-22863D01*
X25437Y-22847D01*
X27987D01*
Y-25348D01*
D02*
G37*
G36*
X55145Y-22748D02*
X55227D01*
X55317Y-22765D01*
X55424Y-22781D01*
X55539Y-22806D01*
X55670Y-22830D01*
X55809Y-22871D01*
X55957Y-22921D01*
X56113Y-22978D01*
X56260Y-23052D01*
X56416Y-23134D01*
X56572Y-23232D01*
X56728Y-23347D01*
X56875Y-23478D01*
X56884Y-23486D01*
X56908Y-23511D01*
X56949Y-23560D01*
X56990Y-23618D01*
X57056Y-23700D01*
X57113Y-23798D01*
X57187Y-23921D01*
X57253Y-24052D01*
X57326Y-24216D01*
X57400Y-24397D01*
X57458Y-24593D01*
X57515Y-24815D01*
X57564Y-25053D01*
X57605Y-25315D01*
X57630Y-25602D01*
X57638Y-25914D01*
Y-25930D01*
Y-25971D01*
X57630Y-26045D01*
Y-26143D01*
X57613Y-26258D01*
X57597Y-26389D01*
X57581Y-26537D01*
X57548Y-26693D01*
X57507Y-26865D01*
X57458Y-27045D01*
X57400Y-27217D01*
X57326Y-27398D01*
X57244Y-27578D01*
X57146Y-27750D01*
X57039Y-27914D01*
X56908Y-28070D01*
X56900Y-28078D01*
X56875Y-28103D01*
X56834Y-28144D01*
X56777Y-28193D01*
X56703Y-28251D01*
X56613Y-28316D01*
X56515Y-28390D01*
X56400Y-28456D01*
X56277Y-28529D01*
X56129Y-28603D01*
X55982Y-28669D01*
X55818Y-28726D01*
X55645Y-28775D01*
X55457Y-28816D01*
X55268Y-28841D01*
X55063Y-28849D01*
X55014D01*
X54957Y-28841D01*
X54875Y-28833D01*
X54776Y-28825D01*
X54670Y-28808D01*
X54538Y-28784D01*
X54407Y-28751D01*
X54260Y-28710D01*
X54112Y-28661D01*
X53956Y-28595D01*
X53800Y-28513D01*
X53645Y-28423D01*
X53489Y-28324D01*
X53341Y-28201D01*
X53202Y-28062D01*
X53194Y-28054D01*
X53169Y-28021D01*
X53136Y-27980D01*
X53087Y-27914D01*
X53030Y-27832D01*
X52964Y-27734D01*
X52898Y-27619D01*
X52833Y-27480D01*
X52767Y-27332D01*
X52693Y-27160D01*
X52636Y-26980D01*
X52579Y-26775D01*
X52529Y-26553D01*
X52497Y-26324D01*
X52472Y-26069D01*
X52464Y-25807D01*
Y-25799D01*
Y-25766D01*
Y-25717D01*
X52472Y-25651D01*
Y-25569D01*
X52480Y-25479D01*
X52488Y-25372D01*
X52505Y-25258D01*
X52538Y-25003D01*
X52595Y-24733D01*
X52677Y-24462D01*
X52784Y-24192D01*
Y-24183D01*
X52800Y-24159D01*
X52816Y-24126D01*
X52841Y-24077D01*
X52874Y-24019D01*
X52915Y-23954D01*
X53013Y-23798D01*
X53144Y-23626D01*
X53300Y-23454D01*
X53481Y-23281D01*
X53694Y-23126D01*
X53702Y-23117D01*
X53718Y-23109D01*
X53751Y-23093D01*
X53800Y-23068D01*
X53858Y-23035D01*
X53923Y-23003D01*
X53997Y-22970D01*
X54087Y-22929D01*
X54186Y-22896D01*
X54284Y-22863D01*
X54514Y-22798D01*
X54768Y-22757D01*
X54907Y-22740D01*
X55096D01*
X55145Y-22748D01*
D02*
G37*
G36*
X40996Y-38022D02*
X39258D01*
X39192Y-38013D01*
X39118D01*
X38954Y-38005D01*
X38766Y-37989D01*
X38569Y-37964D01*
X38380Y-37931D01*
X38208Y-37890D01*
X38200D01*
X38192Y-37882D01*
X38167Y-37874D01*
X38134Y-37866D01*
X38061Y-37833D01*
X37962Y-37792D01*
X37855Y-37735D01*
X37741Y-37669D01*
X37626Y-37587D01*
X37527Y-37497D01*
X37519Y-37489D01*
X37511Y-37481D01*
X37470Y-37431D01*
X37405Y-37349D01*
X37323Y-37243D01*
X37240Y-37103D01*
X37150Y-36939D01*
X37060Y-36751D01*
X36978Y-36538D01*
Y-36529D01*
X36970Y-36513D01*
X36962Y-36480D01*
X36945Y-36431D01*
X36929Y-36373D01*
X36913Y-36300D01*
X36896Y-36218D01*
X36871Y-36127D01*
X36855Y-36029D01*
X36839Y-35914D01*
X36822Y-35800D01*
X36806Y-35668D01*
X36781Y-35390D01*
X36773Y-35078D01*
Y-35061D01*
Y-35029D01*
Y-34963D01*
X36781Y-34881D01*
Y-34783D01*
X36790Y-34668D01*
X36806Y-34545D01*
X36822Y-34405D01*
X36871Y-34110D01*
X36937Y-33807D01*
X37036Y-33520D01*
X37101Y-33380D01*
X37167Y-33257D01*
X37175Y-33249D01*
X37183Y-33233D01*
X37208Y-33200D01*
X37240Y-33151D01*
X37273Y-33102D01*
X37323Y-33044D01*
X37429Y-32913D01*
X37569Y-32765D01*
X37732Y-32626D01*
X37913Y-32495D01*
X38011Y-32446D01*
X38118Y-32397D01*
X38126D01*
X38134Y-32388D01*
X38159Y-32380D01*
X38192Y-32372D01*
X38241Y-32364D01*
X38290Y-32347D01*
X38356Y-32331D01*
X38429Y-32315D01*
X38511Y-32306D01*
X38610Y-32290D01*
X38717Y-32274D01*
X38831Y-32265D01*
X38963Y-32257D01*
X39102Y-32249D01*
X39250Y-32241D01*
X40996D01*
Y-38022D01*
D02*
G37*
G36*
X38815Y-43890D02*
X36552D01*
X36494Y-43881D01*
X36429D01*
X36273Y-43873D01*
X36101Y-43857D01*
X35920Y-43832D01*
X35748Y-43799D01*
X35592Y-43750D01*
X35584D01*
X35576Y-43742D01*
X35527Y-43726D01*
X35461Y-43693D01*
X35371Y-43644D01*
X35281Y-43578D01*
X35182Y-43504D01*
X35084Y-43406D01*
X35002Y-43299D01*
X34994Y-43283D01*
X34969Y-43242D01*
X34936Y-43184D01*
X34895Y-43094D01*
X34863Y-42996D01*
X34830Y-42881D01*
X34805Y-42750D01*
X34797Y-42619D01*
Y-42610D01*
Y-42594D01*
Y-42569D01*
X34805Y-42528D01*
Y-42487D01*
X34813Y-42430D01*
X34846Y-42307D01*
X34895Y-42168D01*
X34961Y-42020D01*
X35059Y-41881D01*
X35125Y-41807D01*
X35190Y-41741D01*
X35199Y-41733D01*
X35207Y-41725D01*
X35232Y-41708D01*
X35264Y-41684D01*
X35305Y-41659D01*
X35363Y-41626D01*
X35420Y-41594D01*
X35494Y-41561D01*
X35576Y-41528D01*
X35666Y-41503D01*
X35765Y-41471D01*
X35871Y-41446D01*
X35994Y-41421D01*
X36125Y-41405D01*
X36265Y-41389D01*
X38815D01*
Y-43890D01*
D02*
G37*
%LPC*%
G36*
X37787Y-77414D02*
X37676D01*
X37597Y-77421D01*
X37499Y-77427D01*
X37380Y-77434D01*
X37249Y-77447D01*
X37098Y-77467D01*
X36941Y-77493D01*
X36770Y-77519D01*
X36593Y-77552D01*
X36410Y-77598D01*
X36219Y-77644D01*
X36022Y-77703D01*
X35832Y-77768D01*
X35636Y-77847D01*
X35622Y-77854D01*
X35590Y-77867D01*
X35537Y-77893D01*
X35458Y-77926D01*
X35373Y-77965D01*
X35268Y-78011D01*
X35150Y-78070D01*
X35019Y-78136D01*
X34881Y-78208D01*
X34737Y-78287D01*
X34435Y-78464D01*
X34120Y-78661D01*
X33818Y-78877D01*
Y-79408D01*
X33825Y-79402D01*
X33838Y-79395D01*
X33871Y-79376D01*
X33910Y-79356D01*
X33956Y-79330D01*
X34015Y-79297D01*
X34081Y-79258D01*
X34159Y-79218D01*
X34245Y-79172D01*
X34337Y-79120D01*
X34442Y-79074D01*
X34547Y-79015D01*
X34665Y-78962D01*
X34789Y-78910D01*
X35052Y-78792D01*
X35347Y-78674D01*
X35655Y-78562D01*
X35983Y-78464D01*
X36324Y-78365D01*
X36678Y-78287D01*
X37039Y-78228D01*
X37407Y-78188D01*
X37597Y-78182D01*
X37781Y-78175D01*
X37787D01*
X37813D01*
X37859D01*
X37912D01*
X37984Y-78182D01*
X38069D01*
X38161Y-78188D01*
X38266Y-78195D01*
X38378Y-78208D01*
X38496Y-78221D01*
X38627Y-78234D01*
X38758Y-78254D01*
X39034Y-78300D01*
X39322Y-78359D01*
X39329D01*
X39349Y-78365D01*
X39381Y-78372D01*
X39427Y-78385D01*
X39480Y-78398D01*
X39545Y-78418D01*
X39624Y-78438D01*
X39703Y-78457D01*
X39788Y-78483D01*
X39886Y-78516D01*
X40083Y-78582D01*
X40293Y-78661D01*
X40510Y-78746D01*
X40516D01*
X40529Y-78752D01*
X40549Y-78765D01*
X40582Y-78779D01*
X40621Y-78798D01*
X40674Y-78825D01*
X40733Y-78857D01*
X40805Y-78890D01*
X40883Y-78930D01*
X40975Y-78982D01*
X41074Y-79035D01*
X41185Y-79093D01*
X41310Y-79159D01*
X41448Y-79238D01*
X41592Y-79317D01*
X41749Y-79408D01*
Y-78877D01*
X41736Y-78870D01*
X41704Y-78844D01*
X41644Y-78805D01*
X41572Y-78752D01*
X41480Y-78687D01*
X41369Y-78615D01*
X41238Y-78529D01*
X41100Y-78444D01*
X40949Y-78352D01*
X40785Y-78260D01*
X40615Y-78162D01*
X40431Y-78070D01*
X40057Y-77893D01*
X39860Y-77808D01*
X39663Y-77736D01*
X39650Y-77729D01*
X39624Y-77723D01*
X39571Y-77703D01*
X39506Y-77683D01*
X39427Y-77663D01*
X39329Y-77631D01*
X39217Y-77604D01*
X39093Y-77572D01*
X38955Y-77545D01*
X38811Y-77513D01*
X38653Y-77486D01*
X38496Y-77467D01*
X38325Y-77440D01*
X38148Y-77427D01*
X37971Y-77421D01*
X37787Y-77414D01*
D02*
G37*
G36*
X35596Y-80281D02*
Y-81055D01*
X35609Y-81062D01*
X35636Y-81075D01*
X35688Y-81094D01*
X35754Y-81114D01*
X35832Y-81140D01*
X35924Y-81166D01*
X36029Y-81186D01*
X36147Y-81199D01*
X36141Y-81206D01*
X36134Y-81219D01*
X36114Y-81239D01*
X36088Y-81271D01*
X36062Y-81311D01*
X36022Y-81350D01*
X35950Y-81455D01*
X35865Y-81580D01*
X35780Y-81711D01*
X35708Y-81855D01*
X35642Y-82000D01*
Y-82006D01*
X35636Y-82019D01*
X35629Y-82039D01*
X35622Y-82065D01*
X35609Y-82098D01*
X35596Y-82144D01*
X35570Y-82242D01*
X35544Y-82367D01*
X35517Y-82505D01*
X35504Y-82656D01*
X35498Y-82820D01*
Y-84315D01*
Y-82892D01*
X35504Y-82938D01*
X35511Y-82997D01*
X35517Y-83069D01*
X35524Y-83148D01*
X35544Y-83226D01*
X35583Y-83410D01*
X35642Y-83594D01*
X35681Y-83679D01*
X35734Y-83771D01*
X35786Y-83850D01*
X35845Y-83928D01*
X35852Y-83935D01*
X35865Y-83948D01*
X35885Y-83961D01*
X35911Y-83987D01*
X35944Y-84020D01*
X35990Y-84053D01*
X36036Y-84086D01*
X36095Y-84118D01*
X36219Y-84191D01*
X36377Y-84256D01*
X36462Y-84282D01*
X36554Y-84296D01*
X36652Y-84309D01*
X36751Y-84315D01*
X36803D01*
X36869Y-84309D01*
X36948Y-84296D01*
X37039Y-84282D01*
X37138Y-84256D01*
X37236Y-84217D01*
X37341Y-84171D01*
X37354Y-84164D01*
X37387Y-84145D01*
X37433Y-84112D01*
X37499Y-84066D01*
X37564Y-84013D01*
X37636Y-83948D01*
X37702Y-83876D01*
X37767Y-83790D01*
X37774Y-83777D01*
X37794Y-83745D01*
X37826Y-83699D01*
X37859Y-83633D01*
X37899Y-83554D01*
X37938Y-83463D01*
X37977Y-83358D01*
X38010Y-83253D01*
Y-83239D01*
X38023Y-83213D01*
X38030Y-83161D01*
X38050Y-83089D01*
X38063Y-82997D01*
X38082Y-82879D01*
X38102Y-82747D01*
X38122Y-82590D01*
Y-82577D01*
X38128Y-82551D01*
X38135Y-82505D01*
X38141Y-82446D01*
X38155Y-82367D01*
X38168Y-82282D01*
X38181Y-82190D01*
X38194Y-82085D01*
X38233Y-81868D01*
X38279Y-81652D01*
X38305Y-81547D01*
X38332Y-81442D01*
X38358Y-81350D01*
X38384Y-81265D01*
X38391D01*
X38410D01*
X38437D01*
X38463Y-81258D01*
X38528D01*
X38555D01*
X38574D01*
X38581D01*
X38594D01*
X38620D01*
X38647D01*
X38725Y-81271D01*
X38824Y-81285D01*
X38929Y-81311D01*
X39034Y-81350D01*
X39132Y-81403D01*
X39211Y-81475D01*
X39224Y-81488D01*
X39237Y-81501D01*
X39250Y-81527D01*
X39270Y-81560D01*
X39289Y-81593D01*
X39342Y-81685D01*
X39388Y-81803D01*
X39427Y-81947D01*
X39453Y-82118D01*
X39467Y-82314D01*
Y-82400D01*
X39460Y-82446D01*
Y-82492D01*
X39447Y-82610D01*
X39421Y-82734D01*
X39388Y-82859D01*
X39342Y-82984D01*
X39283Y-83089D01*
X39276Y-83102D01*
X39250Y-83128D01*
X39198Y-83174D01*
X39132Y-83226D01*
X39047Y-83285D01*
X38929Y-83351D01*
X38797Y-83403D01*
X38719Y-83430D01*
X38633Y-83456D01*
X38732Y-84184D01*
X38738D01*
X38752Y-84178D01*
X38778Y-84171D01*
X38811Y-84164D01*
X38850Y-84151D01*
X38896Y-84138D01*
X39001Y-84105D01*
X39119Y-84059D01*
X39244Y-84007D01*
X39368Y-83941D01*
X39480Y-83863D01*
X39486D01*
X39493Y-83850D01*
X39526Y-83817D01*
X39578Y-83764D01*
X39644Y-83692D01*
X39716Y-83600D01*
X39788Y-83489D01*
X39860Y-83358D01*
X39926Y-83207D01*
Y-83200D01*
X39932Y-83187D01*
X39939Y-83161D01*
X39952Y-83128D01*
X39965Y-83089D01*
X39978Y-83043D01*
X39991Y-82984D01*
X40005Y-82918D01*
X40018Y-82852D01*
X40031Y-82774D01*
X40057Y-82603D01*
X40077Y-82413D01*
X40083Y-82209D01*
Y-82118D01*
X40077Y-82072D01*
Y-82013D01*
X40064Y-81888D01*
X40050Y-81744D01*
X40024Y-81593D01*
X39991Y-81442D01*
X39945Y-81304D01*
Y-81298D01*
X39939Y-81291D01*
X39932Y-81271D01*
X39919Y-81245D01*
X39893Y-81186D01*
X39854Y-81107D01*
X39808Y-81022D01*
X39749Y-80937D01*
X39683Y-80858D01*
X39611Y-80786D01*
X39604Y-80779D01*
X39578Y-80760D01*
X39532Y-80727D01*
X39473Y-80694D01*
X39401Y-80655D01*
X39316Y-80615D01*
X39217Y-80576D01*
X39106Y-80550D01*
X39099D01*
X39066Y-80543D01*
X39020Y-80537D01*
X38948Y-80530D01*
X38857Y-80524D01*
X38738Y-80517D01*
X38666D01*
X38594Y-80510D01*
X38515D01*
X38423D01*
X37433D01*
X37420D01*
X37387D01*
X37334D01*
X37269D01*
X37184D01*
X37092D01*
X36987Y-80504D01*
X36882D01*
X36659Y-80497D01*
X36547D01*
X36442Y-80491D01*
X36344Y-80484D01*
X36259Y-80478D01*
X36180Y-80471D01*
X36121Y-80465D01*
X36108D01*
X36075Y-80458D01*
X36022Y-80445D01*
X35950Y-80425D01*
X35872Y-80399D01*
X35786Y-80366D01*
X35688Y-80327D01*
X35596Y-80281D01*
D02*
G37*
G36*
X41651Y-85194D02*
X35596D01*
Y-85936D01*
X39985D01*
Y-85194D01*
X40805D01*
Y-85936D01*
X41651D01*
Y-85194D01*
D02*
G37*
G36*
X36882Y-86821D02*
X35498D01*
X36816D01*
X36744Y-86834D01*
X36652Y-86847D01*
X36547Y-86874D01*
X36429Y-86913D01*
X36305Y-86972D01*
X36180Y-87044D01*
X36173D01*
X36167Y-87057D01*
X36127Y-87084D01*
X36068Y-87136D01*
X35996Y-87202D01*
X35911Y-87293D01*
X35826Y-87398D01*
X35747Y-87523D01*
X35675Y-87667D01*
Y-87674D01*
X35668Y-87687D01*
X35662Y-87707D01*
X35649Y-87740D01*
X35636Y-87779D01*
X35616Y-87825D01*
X35603Y-87877D01*
X35590Y-87936D01*
X35557Y-88074D01*
X35524Y-88232D01*
X35504Y-88402D01*
X35498Y-88592D01*
Y-88678D01*
X35504Y-88737D01*
X35511Y-88802D01*
X35517Y-88888D01*
X35524Y-88979D01*
X35544Y-89078D01*
X35583Y-89288D01*
X35642Y-89511D01*
X35681Y-89616D01*
X35734Y-89721D01*
X35786Y-89813D01*
X35845Y-89904D01*
X35852Y-89911D01*
X35865Y-89924D01*
X35885Y-89944D01*
X35911Y-89977D01*
X35950Y-90009D01*
X35996Y-90049D01*
X36049Y-90095D01*
X36108Y-90141D01*
X36180Y-90193D01*
X36259Y-90239D01*
X36344Y-90285D01*
X36442Y-90331D01*
X36541Y-90370D01*
X36652Y-90409D01*
X36777Y-90442D01*
X36902Y-90469D01*
X35498D01*
X36902D01*
D01*
X37020Y-89734D01*
X37013D01*
X37000Y-89727D01*
X36980D01*
X36948Y-89721D01*
X36908Y-89714D01*
X36869Y-89701D01*
X36770Y-89668D01*
X36659Y-89622D01*
X36541Y-89563D01*
X36436Y-89491D01*
X36337Y-89393D01*
Y-89386D01*
X36331Y-89380D01*
X36305Y-89340D01*
X36265Y-89275D01*
X36226Y-89183D01*
X36180Y-89071D01*
X36147Y-88933D01*
X36121Y-88776D01*
X36108Y-88599D01*
Y-88547D01*
X36114Y-88514D01*
Y-88468D01*
X36121Y-88422D01*
X36134Y-88310D01*
X36160Y-88186D01*
X36193Y-88055D01*
X36246Y-87936D01*
X36311Y-87831D01*
X36318Y-87818D01*
X36351Y-87792D01*
X36390Y-87753D01*
X36449Y-87707D01*
X36521Y-87661D01*
X36606Y-87621D01*
X36698Y-87595D01*
X36803Y-87582D01*
X36816D01*
X36843D01*
X36895Y-87595D01*
X36948Y-87608D01*
X37013Y-87635D01*
X37079Y-87674D01*
X37144Y-87733D01*
X37203Y-87805D01*
X37210Y-87812D01*
X37223Y-87838D01*
X37243Y-87884D01*
X37256Y-87917D01*
X37269Y-87956D01*
X37289Y-88009D01*
X37308Y-88061D01*
X37328Y-88120D01*
X37348Y-88192D01*
X37374Y-88271D01*
X37400Y-88363D01*
X37426Y-88461D01*
X37453Y-88566D01*
Y-88573D01*
X37459Y-88599D01*
X37472Y-88645D01*
X37485Y-88697D01*
X37505Y-88763D01*
X37525Y-88842D01*
X37551Y-88927D01*
X37577Y-89019D01*
X37636Y-89202D01*
X37695Y-89393D01*
X37722Y-89485D01*
X37754Y-89563D01*
X37787Y-89642D01*
X37813Y-89708D01*
Y-89714D01*
X37820Y-89721D01*
X37840Y-89760D01*
X37872Y-89813D01*
X37925Y-89885D01*
X37984Y-89963D01*
X38050Y-90042D01*
X38135Y-90121D01*
X38227Y-90187D01*
X38240Y-90193D01*
X38273Y-90213D01*
X38332Y-90239D01*
X38404Y-90265D01*
X38489Y-90291D01*
X38587Y-90318D01*
X38699Y-90337D01*
X38817Y-90344D01*
X38824D01*
X38830D01*
X38870D01*
X38922Y-90337D01*
X38994Y-90324D01*
X39079Y-90311D01*
X39171Y-90291D01*
X39270Y-90259D01*
X39362Y-90213D01*
X39375Y-90206D01*
X39401Y-90187D01*
X39447Y-90160D01*
X39506Y-90114D01*
X39571Y-90068D01*
X39644Y-90003D01*
X39709Y-89931D01*
X39775Y-89845D01*
X39781Y-89839D01*
X39794Y-89813D01*
X39821Y-89773D01*
X39847Y-89721D01*
X39880Y-89655D01*
X39919Y-89576D01*
X39959Y-89478D01*
X39991Y-89373D01*
Y-89367D01*
X39998Y-89360D01*
X40005Y-89321D01*
X40018Y-89262D01*
X40037Y-89176D01*
X40057Y-89084D01*
X40070Y-88973D01*
X40077Y-88855D01*
X40083Y-88730D01*
Y-88586D01*
Y-88645D01*
X40077Y-88599D01*
Y-88547D01*
X40064Y-88422D01*
X40044Y-88284D01*
X40018Y-88127D01*
X39985Y-87976D01*
X39932Y-87825D01*
Y-87818D01*
X39926Y-87805D01*
X39919Y-87786D01*
X39906Y-87759D01*
X39873Y-87694D01*
X39827Y-87602D01*
X39768Y-87510D01*
X39696Y-87418D01*
X39617Y-87326D01*
X39526Y-87248D01*
X39513Y-87241D01*
X39480Y-87215D01*
X39421Y-87182D01*
X39349Y-87143D01*
X39250Y-87097D01*
X39132Y-87057D01*
X39001Y-87018D01*
X38850Y-86985D01*
X38752Y-87713D01*
X38758D01*
X38765D01*
X38804Y-87726D01*
X38870Y-87740D01*
X38942Y-87766D01*
X39027Y-87805D01*
X39112Y-87858D01*
X39198Y-87923D01*
X39276Y-88002D01*
X39283Y-88015D01*
X39309Y-88048D01*
X39342Y-88100D01*
X39375Y-88173D01*
X39414Y-88271D01*
X39440Y-88389D01*
X39467Y-88520D01*
X39473Y-88678D01*
Y-88763D01*
X39467Y-88802D01*
Y-88848D01*
X39453Y-88960D01*
X39434Y-89078D01*
X39401Y-89202D01*
X39362Y-89314D01*
X39335Y-89360D01*
X39303Y-89406D01*
X39296Y-89412D01*
X39270Y-89439D01*
X39237Y-89471D01*
X39191Y-89511D01*
X39132Y-89557D01*
X39060Y-89590D01*
X38988Y-89616D01*
X38902Y-89622D01*
X38896D01*
X38876D01*
X38850Y-89616D01*
X38817Y-89609D01*
X38732Y-89583D01*
X38686Y-89563D01*
X38640Y-89537D01*
X38633Y-89530D01*
X38620Y-89517D01*
X38601Y-89498D01*
X38574Y-89465D01*
X38542Y-89425D01*
X38509Y-89373D01*
X38476Y-89314D01*
X38443Y-89248D01*
Y-89242D01*
X38437Y-89222D01*
X38423Y-89183D01*
X38404Y-89124D01*
X38391Y-89084D01*
X38378Y-89038D01*
X38364Y-88986D01*
X38345Y-88927D01*
X38325Y-88855D01*
X38305Y-88776D01*
X38279Y-88691D01*
X38253Y-88592D01*
Y-88586D01*
X38246Y-88560D01*
X38233Y-88520D01*
X38220Y-88461D01*
X38201Y-88402D01*
X38181Y-88330D01*
X38155Y-88245D01*
X38128Y-88159D01*
X38076Y-87976D01*
X38017Y-87799D01*
X37990Y-87713D01*
X37958Y-87635D01*
X37931Y-87563D01*
X37905Y-87497D01*
Y-87490D01*
X37899Y-87484D01*
X37879Y-87444D01*
X37853Y-87385D01*
X37807Y-87320D01*
X37754Y-87241D01*
X37689Y-87156D01*
X37610Y-87077D01*
X37518Y-87005D01*
X37505Y-86998D01*
X37472Y-86979D01*
X37420Y-86946D01*
X37341Y-86913D01*
X37249Y-86880D01*
X37144Y-86847D01*
X37020Y-86828D01*
X36882Y-86821D01*
D02*
G37*
G36*
X30941Y-86477D02*
X26454D01*
Y-89035D01*
Y-87218D01*
X29216D01*
X29222D01*
X29236D01*
X29262D01*
X29288D01*
X29367Y-87225D01*
X29465D01*
X29570Y-87238D01*
X29675Y-87251D01*
X29774Y-87264D01*
X29859Y-87290D01*
X29865D01*
X29892Y-87303D01*
X29924Y-87323D01*
X29970Y-87349D01*
X30023Y-87389D01*
X30075Y-87428D01*
X30128Y-87487D01*
X30174Y-87553D01*
X30180Y-87559D01*
X30193Y-87585D01*
X30213Y-87625D01*
X30239Y-87677D01*
X30259Y-87743D01*
X30279Y-87822D01*
X30292Y-87907D01*
X30298Y-87999D01*
Y-88045D01*
X30292Y-88077D01*
Y-88117D01*
X30285Y-88163D01*
X30259Y-88268D01*
X30226Y-88392D01*
X30167Y-88524D01*
X30095Y-88648D01*
X30042Y-88714D01*
X29990Y-88773D01*
X29983D01*
X29977Y-88786D01*
X29957Y-88799D01*
X29931Y-88819D01*
X29898Y-88845D01*
X29859Y-88871D01*
X29806Y-88897D01*
X29754Y-88924D01*
X29688Y-88956D01*
X29616Y-88983D01*
X29531Y-89009D01*
X29445Y-89035D01*
X29347Y-89055D01*
X29236Y-89068D01*
X29124Y-89075D01*
X28999Y-89081D01*
X26454D01*
Y-89822D01*
X29301D01*
X29308D01*
X29321D01*
X29347D01*
X29386D01*
X29426Y-89829D01*
X29472D01*
X29583Y-89842D01*
X29701Y-89868D01*
X29826Y-89901D01*
X29944Y-89947D01*
X30049Y-90006D01*
X30062Y-90013D01*
X30088Y-90039D01*
X30128Y-90085D01*
X30174Y-90144D01*
X30220Y-90229D01*
X30259Y-90328D01*
X30285Y-90452D01*
X30298Y-90596D01*
Y-90649D01*
X30292Y-90708D01*
X30279Y-90787D01*
X30259Y-90879D01*
X30226Y-90977D01*
X30187Y-91075D01*
X30128Y-91180D01*
X30121Y-91193D01*
X30095Y-91226D01*
X30062Y-91272D01*
X30003Y-91325D01*
X29937Y-91390D01*
X29852Y-91456D01*
X29754Y-91515D01*
X29642Y-91567D01*
X29636D01*
X29629Y-91574D01*
X29610Y-91580D01*
X29583Y-91587D01*
X29550Y-91594D01*
X29511Y-91607D01*
X29465Y-91613D01*
X29413Y-91626D01*
X29347Y-91640D01*
X29281Y-91646D01*
X29209Y-91659D01*
X29124Y-91666D01*
X29039Y-91672D01*
X28940Y-91679D01*
X28842Y-91685D01*
X28730D01*
X26454D01*
Y-92427D01*
X30843D01*
Y-91764D01*
X30233D01*
X30239Y-91751D01*
X30279Y-91725D01*
X30338Y-91679D01*
X30410Y-91613D01*
X30495Y-91535D01*
X30580Y-91443D01*
X30666Y-91338D01*
X30744Y-91213D01*
Y-91207D01*
X30751Y-91200D01*
X30764Y-91180D01*
X30777Y-91154D01*
X30790Y-91121D01*
X30810Y-91082D01*
X30843Y-90990D01*
X30882Y-90872D01*
X30908Y-90741D01*
X30935Y-90590D01*
X30941Y-90433D01*
Y-90308D01*
Y-90354D01*
X30935Y-90308D01*
X30928Y-90262D01*
X30915Y-90150D01*
X30889Y-90026D01*
X30856Y-89895D01*
X30803Y-89763D01*
X30738Y-89639D01*
Y-89632D01*
X30731Y-89626D01*
X30698Y-89586D01*
X30652Y-89534D01*
X30593Y-89462D01*
X30508Y-89389D01*
X30416Y-89317D01*
X30305Y-89252D01*
X30174Y-89193D01*
X30180Y-89186D01*
X30206Y-89166D01*
X30246Y-89140D01*
X30292Y-89094D01*
X30351Y-89048D01*
X30416Y-88983D01*
X30488Y-88911D01*
X30561Y-88825D01*
X30626Y-88733D01*
X30698Y-88629D01*
X30764Y-88517D01*
X30823Y-88399D01*
X30869Y-88268D01*
X30908Y-88130D01*
X30935Y-87986D01*
X30941Y-87835D01*
Y-86477D01*
D02*
G37*
G36*
X36882Y-91052D02*
X35498D01*
Y-94700D01*
D01*
Y-92909D01*
X35504Y-92968D01*
X35511Y-93033D01*
X35517Y-93119D01*
X35524Y-93211D01*
X35544Y-93309D01*
X35583Y-93519D01*
X35642Y-93742D01*
X35681Y-93847D01*
X35734Y-93952D01*
X35786Y-94044D01*
X35845Y-94136D01*
X35852Y-94142D01*
X35865Y-94155D01*
X35885Y-94175D01*
X35911Y-94208D01*
X35950Y-94241D01*
X35996Y-94280D01*
X36049Y-94326D01*
X36108Y-94372D01*
X36180Y-94424D01*
X36259Y-94470D01*
X36344Y-94516D01*
X36442Y-94562D01*
X36541Y-94601D01*
X36652Y-94641D01*
X36777Y-94674D01*
X36902Y-94700D01*
X35498D01*
X36902D01*
D01*
X37020Y-93965D01*
X37013D01*
X37000Y-93958D01*
X36980D01*
X36948Y-93952D01*
X36908Y-93945D01*
X36869Y-93932D01*
X36770Y-93899D01*
X36659Y-93853D01*
X36541Y-93795D01*
X36436Y-93722D01*
X36337Y-93624D01*
Y-93617D01*
X36331Y-93611D01*
X36305Y-93571D01*
X36265Y-93506D01*
X36226Y-93414D01*
X36180Y-93303D01*
X36147Y-93165D01*
X36121Y-93007D01*
X36108Y-92830D01*
Y-92778D01*
X36114Y-92745D01*
Y-92699D01*
X36121Y-92653D01*
X36134Y-92541D01*
X36160Y-92417D01*
X36193Y-92286D01*
X36246Y-92168D01*
X36311Y-92063D01*
X36318Y-92049D01*
X36351Y-92023D01*
X36390Y-91984D01*
X36449Y-91938D01*
X36521Y-91892D01*
X36606Y-91853D01*
X36698Y-91826D01*
X36803Y-91813D01*
X36816D01*
X36843D01*
X36895Y-91826D01*
X36948Y-91840D01*
X37013Y-91866D01*
X37079Y-91905D01*
X37144Y-91964D01*
X37203Y-92036D01*
X37210Y-92043D01*
X37223Y-92069D01*
X37243Y-92115D01*
X37256Y-92148D01*
X37269Y-92187D01*
X37289Y-92240D01*
X37308Y-92292D01*
X37328Y-92351D01*
X37348Y-92423D01*
X37374Y-92502D01*
X37400Y-92594D01*
X37426Y-92692D01*
X37453Y-92797D01*
Y-92804D01*
X37459Y-92830D01*
X37472Y-92876D01*
X37485Y-92929D01*
X37505Y-92994D01*
X37525Y-93073D01*
X37551Y-93158D01*
X37577Y-93250D01*
X37636Y-93434D01*
X37695Y-93624D01*
X37722Y-93716D01*
X37754Y-93795D01*
X37787Y-93873D01*
X37813Y-93939D01*
Y-93945D01*
X37820Y-93952D01*
X37840Y-93991D01*
X37872Y-94044D01*
X37925Y-94116D01*
X37984Y-94195D01*
X38050Y-94273D01*
X38135Y-94352D01*
X38227Y-94418D01*
X38240Y-94424D01*
X38273Y-94444D01*
X38332Y-94470D01*
X38404Y-94496D01*
X38489Y-94523D01*
X38587Y-94549D01*
X38699Y-94569D01*
X38817Y-94575D01*
X38824D01*
X38830D01*
X38870D01*
X38922Y-94569D01*
X38994Y-94555D01*
X39079Y-94542D01*
X39171Y-94523D01*
X39270Y-94490D01*
X39362Y-94444D01*
X39375Y-94437D01*
X39401Y-94418D01*
X39447Y-94391D01*
X39506Y-94345D01*
X39571Y-94300D01*
X39644Y-94234D01*
X39709Y-94162D01*
X39775Y-94077D01*
X39781Y-94070D01*
X39794Y-94044D01*
X39821Y-94004D01*
X39847Y-93952D01*
X39880Y-93886D01*
X39919Y-93808D01*
X39959Y-93709D01*
X39991Y-93604D01*
Y-93598D01*
X39998Y-93591D01*
X40005Y-93552D01*
X40018Y-93493D01*
X40037Y-93407D01*
X40057Y-93316D01*
X40070Y-93204D01*
X40077Y-93086D01*
X40083Y-92961D01*
Y-92876D01*
X40077Y-92830D01*
Y-92778D01*
X40064Y-92653D01*
X40044Y-92515D01*
X40018Y-92358D01*
X39985Y-92207D01*
X39932Y-92056D01*
Y-92049D01*
X39926Y-92036D01*
X39919Y-92017D01*
X39906Y-91991D01*
X39873Y-91925D01*
X39827Y-91833D01*
X39768Y-91741D01*
X39696Y-91649D01*
X39617Y-91558D01*
X39526Y-91479D01*
X39513Y-91472D01*
X39480Y-91446D01*
X39421Y-91413D01*
X39349Y-91374D01*
X39250Y-91328D01*
X39132Y-91289D01*
X39001Y-91249D01*
X38850Y-91216D01*
X38752Y-91945D01*
X38758D01*
X38765D01*
X38804Y-91958D01*
X38870Y-91971D01*
X38942Y-91997D01*
X39027Y-92036D01*
X39112Y-92089D01*
X39198Y-92155D01*
X39276Y-92233D01*
X39283Y-92246D01*
X39309Y-92279D01*
X39342Y-92332D01*
X39375Y-92404D01*
X39414Y-92502D01*
X39440Y-92620D01*
X39467Y-92751D01*
X39473Y-92909D01*
Y-92994D01*
X39467Y-93033D01*
Y-93079D01*
X39453Y-93191D01*
X39434Y-93309D01*
X39401Y-93434D01*
X39362Y-93545D01*
X39335Y-93591D01*
X39303Y-93637D01*
X39296Y-93644D01*
X39270Y-93670D01*
X39237Y-93703D01*
X39191Y-93742D01*
X39132Y-93788D01*
X39060Y-93821D01*
X38988Y-93847D01*
X38902Y-93853D01*
X38896D01*
X38876D01*
X38850Y-93847D01*
X38817Y-93840D01*
X38732Y-93814D01*
X38686Y-93795D01*
X38640Y-93768D01*
X38633Y-93762D01*
X38620Y-93749D01*
X38601Y-93729D01*
X38574Y-93696D01*
X38542Y-93657D01*
X38509Y-93604D01*
X38476Y-93545D01*
X38443Y-93480D01*
Y-93473D01*
X38437Y-93453D01*
X38423Y-93414D01*
X38404Y-93355D01*
X38391Y-93316D01*
X38378Y-93270D01*
X38364Y-93217D01*
X38345Y-93158D01*
X38325Y-93086D01*
X38305Y-93007D01*
X38279Y-92922D01*
X38253Y-92824D01*
Y-92817D01*
X38246Y-92791D01*
X38233Y-92751D01*
X38220Y-92692D01*
X38201Y-92633D01*
X38181Y-92561D01*
X38155Y-92476D01*
X38128Y-92391D01*
X38076Y-92207D01*
X38017Y-92030D01*
X37990Y-91945D01*
X37958Y-91866D01*
X37931Y-91794D01*
X37905Y-91728D01*
Y-91721D01*
X37899Y-91715D01*
X37879Y-91676D01*
X37853Y-91617D01*
X37807Y-91551D01*
X37754Y-91472D01*
X37689Y-91387D01*
X37610Y-91308D01*
X37518Y-91236D01*
X37505Y-91229D01*
X37472Y-91210D01*
X37420Y-91177D01*
X37341Y-91144D01*
X37249Y-91111D01*
X37144Y-91079D01*
X37020Y-91059D01*
X36882Y-91052D01*
D02*
G37*
G36*
X30941Y-95769D02*
Y-97399D01*
D01*
Y-95769D01*
D02*
G37*
G36*
Y-93293D02*
X26356D01*
X28626D01*
X28566Y-93299D01*
X28494D01*
X28409Y-93306D01*
X28317Y-93312D01*
X28219Y-93325D01*
X28009Y-93352D01*
X27786Y-93398D01*
X27569Y-93463D01*
X27471Y-93503D01*
X27373Y-93549D01*
X27366D01*
X27353Y-93562D01*
X27327Y-93575D01*
X27294Y-93594D01*
X27254Y-93621D01*
X27202Y-93653D01*
X27097Y-93739D01*
X26972Y-93844D01*
X26848Y-93968D01*
X26730Y-94119D01*
X26618Y-94290D01*
Y-94296D01*
X26605Y-94309D01*
X26592Y-94336D01*
X26579Y-94375D01*
X26559Y-94421D01*
X26533Y-94473D01*
X26513Y-94533D01*
X26487Y-94605D01*
X26461Y-94677D01*
X26441Y-94762D01*
X26395Y-94939D01*
X26369Y-95136D01*
X26356Y-95346D01*
Y-95385D01*
X26362Y-95431D01*
Y-95497D01*
X26375Y-95575D01*
X26388Y-95667D01*
X26408Y-95766D01*
X26428Y-95877D01*
X26461Y-95995D01*
X26500Y-96113D01*
X26546Y-96238D01*
X26605Y-96363D01*
X26671Y-96487D01*
X26749Y-96605D01*
X26841Y-96724D01*
X26946Y-96835D01*
X26953Y-96842D01*
X26972Y-96861D01*
X27005Y-96887D01*
X27058Y-96920D01*
X27117Y-96966D01*
X27189Y-97012D01*
X27281Y-97065D01*
X27379Y-97117D01*
X27497Y-97170D01*
X27622Y-97222D01*
X27760Y-97268D01*
X27910Y-97314D01*
X28074Y-97347D01*
X28252Y-97373D01*
X28442Y-97393D01*
X28645Y-97399D01*
X28698D01*
X28763Y-97393D01*
X28842Y-97386D01*
X28947Y-97379D01*
X29065Y-97366D01*
X29190Y-97340D01*
X29327Y-97314D01*
X29472Y-97281D01*
X29623Y-97235D01*
X29774Y-97176D01*
X29924Y-97117D01*
X30069Y-97038D01*
X30206Y-96947D01*
X30331Y-96842D01*
X30449Y-96724D01*
X30456Y-96717D01*
X30469Y-96697D01*
X30495Y-96665D01*
X30528Y-96625D01*
X30561Y-96566D01*
X30607Y-96500D01*
X30652Y-96428D01*
X30698Y-96337D01*
X30744Y-96245D01*
X30784Y-96140D01*
X30830Y-96028D01*
X30862Y-95903D01*
X30895Y-95772D01*
X30922Y-95641D01*
X30935Y-95497D01*
X30941Y-95346D01*
Y-95307D01*
X30935Y-95261D01*
Y-95195D01*
X30922Y-95116D01*
X30908Y-95031D01*
X30889Y-94933D01*
X30869Y-94821D01*
X30836Y-94710D01*
X30797Y-94585D01*
X30744Y-94467D01*
X30692Y-94342D01*
X30620Y-94218D01*
X30541Y-94099D01*
X30449Y-93981D01*
X30344Y-93870D01*
X30338Y-93863D01*
X30318Y-93844D01*
X30285Y-93817D01*
X30233Y-93778D01*
X30174Y-93739D01*
X30101Y-93686D01*
X30016Y-93634D01*
X29918Y-93581D01*
X29806Y-93529D01*
X29682Y-93476D01*
X29550Y-93424D01*
X29406Y-93384D01*
X29249Y-93345D01*
X29078Y-93319D01*
X28894Y-93299D01*
X28704Y-93293D01*
X30941D01*
D01*
D02*
G37*
G36*
X43780Y-93755D02*
X43065D01*
Y-97763D01*
X43164D01*
X43229Y-97757D01*
X43308Y-97750D01*
X43393Y-97730D01*
X43485Y-97711D01*
X43577Y-97678D01*
X43584D01*
X43597Y-97671D01*
X43616Y-97665D01*
X43649Y-97652D01*
X43682Y-97632D01*
X43728Y-97612D01*
X43833Y-97560D01*
X43957Y-97494D01*
X44095Y-97409D01*
X44240Y-97311D01*
X44384Y-97193D01*
X44390Y-97186D01*
X44404Y-97179D01*
X44423Y-97160D01*
X44456Y-97127D01*
X44489Y-97094D01*
X44535Y-97048D01*
X44587Y-97002D01*
X44646Y-96943D01*
X44712Y-96878D01*
X44778Y-96806D01*
X44856Y-96727D01*
X44935Y-96635D01*
X45020Y-96543D01*
X45105Y-96438D01*
X45197Y-96333D01*
X45296Y-96215D01*
X45302Y-96202D01*
X45335Y-96169D01*
X45375Y-96123D01*
X45434Y-96058D01*
X45499Y-95979D01*
X45578Y-95887D01*
X45663Y-95782D01*
X45761Y-95677D01*
X45965Y-95454D01*
X46181Y-95238D01*
X46286Y-95133D01*
X46391Y-95034D01*
X46490Y-94949D01*
X46582Y-94877D01*
X46588Y-94870D01*
X46601Y-94864D01*
X46627Y-94844D01*
X46660Y-94824D01*
X46706Y-94792D01*
X46752Y-94765D01*
X46870Y-94700D01*
X47008Y-94634D01*
X47159Y-94575D01*
X47316Y-94536D01*
X47395Y-94529D01*
X47474Y-94523D01*
X47480D01*
X47493D01*
X47520D01*
X47546Y-94529D01*
X47585D01*
X47631Y-94542D01*
X47730Y-94562D01*
X47848Y-94601D01*
X47972Y-94660D01*
X48038Y-94693D01*
X48097Y-94739D01*
X48156Y-94785D01*
X48215Y-94844D01*
X48221Y-94851D01*
X48228Y-94857D01*
X48241Y-94877D01*
X48261Y-94903D01*
X48287Y-94936D01*
X48313Y-94975D01*
X48372Y-95067D01*
X48425Y-95192D01*
X48477Y-95329D01*
X48510Y-95494D01*
X48523Y-95585D01*
Y-95730D01*
X48517Y-95769D01*
Y-95815D01*
X48504Y-95867D01*
X48484Y-95986D01*
X48445Y-96123D01*
X48386Y-96268D01*
X48346Y-96340D01*
X48307Y-96412D01*
X48254Y-96478D01*
X48195Y-96543D01*
X48189Y-96550D01*
X48182Y-96556D01*
X48162Y-96569D01*
X48136Y-96596D01*
X48103Y-96615D01*
X48064Y-96641D01*
X48018Y-96674D01*
X47966Y-96701D01*
X47907Y-96733D01*
X47841Y-96760D01*
X47684Y-96812D01*
X47513Y-96851D01*
X47415Y-96858D01*
X47310Y-96865D01*
X47388Y-97625D01*
X47401D01*
X47428Y-97619D01*
X47467Y-97612D01*
X47526Y-97606D01*
X47598Y-97593D01*
X47684Y-97573D01*
X47775Y-97553D01*
X47874Y-97521D01*
X47972Y-97488D01*
X48084Y-97448D01*
X48189Y-97396D01*
X48294Y-97343D01*
X48405Y-97278D01*
X48504Y-97206D01*
X48602Y-97127D01*
X48687Y-97035D01*
X48694Y-97029D01*
X48707Y-97009D01*
X48727Y-96983D01*
X48759Y-96943D01*
X48792Y-96891D01*
X48832Y-96825D01*
X48871Y-96753D01*
X48917Y-96668D01*
X48956Y-96576D01*
X48996Y-96471D01*
X49035Y-96359D01*
X49068Y-96235D01*
X49101Y-96104D01*
X49120Y-95966D01*
X49133Y-95815D01*
X49140Y-95657D01*
Y-95572D01*
X49133Y-95513D01*
X49127Y-95441D01*
X49114Y-95356D01*
X49101Y-95257D01*
X49081Y-95159D01*
X49055Y-95047D01*
X49022Y-94936D01*
X48983Y-94818D01*
X48937Y-94706D01*
X48878Y-94588D01*
X48812Y-94477D01*
X48740Y-94372D01*
X48654Y-94273D01*
X48648Y-94267D01*
X48635Y-94254D01*
X48602Y-94227D01*
X48569Y-94195D01*
X48523Y-94155D01*
X48464Y-94109D01*
X48399Y-94063D01*
X48320Y-94017D01*
X48241Y-93972D01*
X48149Y-93926D01*
X48051Y-93880D01*
X47946Y-93840D01*
X47828Y-93808D01*
X47710Y-93781D01*
X47585Y-93768D01*
X47454Y-93762D01*
X47447D01*
X47441D01*
X47421D01*
X47395D01*
X47323Y-93768D01*
X47231Y-93781D01*
X47119Y-93801D01*
X47001Y-93827D01*
X46870Y-93860D01*
X46739Y-93913D01*
X46732D01*
X46726Y-93919D01*
X46706Y-93926D01*
X46680Y-93939D01*
X46608Y-93978D01*
X46516Y-94031D01*
X46404Y-94103D01*
X46280Y-94188D01*
X46149Y-94287D01*
X46004Y-94411D01*
X45998Y-94418D01*
X45985Y-94424D01*
X45965Y-94450D01*
X45932Y-94477D01*
X45893Y-94516D01*
X45847Y-94562D01*
X45788Y-94614D01*
X45729Y-94680D01*
X45657Y-94759D01*
X45578Y-94844D01*
X45486Y-94936D01*
X45394Y-95041D01*
X45289Y-95152D01*
X45184Y-95277D01*
X45066Y-95415D01*
X44941Y-95559D01*
X44935Y-95566D01*
X44915Y-95585D01*
X44889Y-95625D01*
X44850Y-95664D01*
X44804Y-95723D01*
X44751Y-95782D01*
X44633Y-95920D01*
X44509Y-96064D01*
X44377Y-96202D01*
X44318Y-96268D01*
X44266Y-96327D01*
X44213Y-96379D01*
X44174Y-96418D01*
X44167Y-96425D01*
X44141Y-96451D01*
X44102Y-96484D01*
X44049Y-96530D01*
X43990Y-96583D01*
X43925Y-96635D01*
X43780Y-96740D01*
Y-93755D01*
D02*
G37*
G36*
X39985Y-95572D02*
X35498D01*
X35596D01*
Y-96235D01*
X36239D01*
X36233Y-96241D01*
X36206Y-96261D01*
X36173Y-96287D01*
X36121Y-96327D01*
X36068Y-96379D01*
X36003Y-96445D01*
X35937Y-96517D01*
X35872Y-96602D01*
X35800Y-96701D01*
X35734Y-96806D01*
X35668Y-96917D01*
X35616Y-97042D01*
X35563Y-97179D01*
X35530Y-97317D01*
X35504Y-97468D01*
X35498Y-97632D01*
Y-99128D01*
Y-97698D01*
X35504Y-97770D01*
X35517Y-97868D01*
X35530Y-97980D01*
X35557Y-98104D01*
X35596Y-98229D01*
X35642Y-98360D01*
Y-98367D01*
X35649Y-98373D01*
X35668Y-98413D01*
X35701Y-98472D01*
X35747Y-98550D01*
X35800Y-98629D01*
X35865Y-98715D01*
X35937Y-98793D01*
X36016Y-98859D01*
X36029Y-98865D01*
X36055Y-98885D01*
X36108Y-98911D01*
X36173Y-98944D01*
X36252Y-98983D01*
X36344Y-99023D01*
X36449Y-99056D01*
X36567Y-99088D01*
X36580D01*
X36606Y-99095D01*
X36665Y-99102D01*
X36738Y-99108D01*
X36836Y-99115D01*
X36954Y-99121D01*
X37098Y-99128D01*
X39985D01*
Y-98334D01*
Y-98387D01*
X37551D01*
X37545D01*
X37525D01*
X37499D01*
X37459D01*
X37407D01*
X37354D01*
X37236Y-98380D01*
X37105D01*
X36974Y-98367D01*
X36856Y-98360D01*
X36803Y-98354D01*
X36764Y-98347D01*
X36751Y-98341D01*
X36718Y-98334D01*
X36659Y-98314D01*
X36593Y-98282D01*
X36521Y-98242D01*
X36449Y-98190D01*
X36370Y-98124D01*
X36305Y-98045D01*
X36298Y-98032D01*
X36278Y-98006D01*
X36252Y-97953D01*
X36226Y-97888D01*
X36193Y-97809D01*
X36167Y-97711D01*
X36147Y-97599D01*
X36141Y-97481D01*
Y-97422D01*
X36147Y-97363D01*
X36160Y-97278D01*
X36180Y-97179D01*
X36213Y-97075D01*
X36252Y-96969D01*
X36311Y-96858D01*
Y-96851D01*
X36318Y-96845D01*
X36344Y-96812D01*
X36383Y-96760D01*
X36436Y-96694D01*
X36501Y-96628D01*
X36580Y-96556D01*
X36672Y-96491D01*
X36777Y-96438D01*
X36783D01*
X36790Y-96432D01*
X36810Y-96425D01*
X36829Y-96418D01*
X36862Y-96412D01*
X36902Y-96399D01*
X36941Y-96386D01*
X36993Y-96373D01*
X37118Y-96353D01*
X37262Y-96333D01*
X37433Y-96320D01*
X37630Y-96314D01*
X39985D01*
Y-95572D01*
D02*
G37*
G36*
X43912Y-98747D02*
X43065D01*
Y-99594D01*
X43912D01*
Y-98747D01*
D02*
G37*
G36*
X30941Y-97760D02*
X26356D01*
X27956D01*
X27930Y-97767D01*
X27891Y-97773D01*
X27838Y-97786D01*
X27773Y-97806D01*
X27700Y-97826D01*
X27622Y-97852D01*
X27530Y-97885D01*
X27346Y-97963D01*
X27248Y-98016D01*
X27150Y-98075D01*
X27051Y-98134D01*
X26953Y-98206D01*
X26867Y-98291D01*
X26782Y-98377D01*
X26776Y-98383D01*
X26762Y-98396D01*
X26743Y-98429D01*
X26717Y-98462D01*
X26684Y-98514D01*
X26644Y-98567D01*
X26612Y-98639D01*
X26572Y-98711D01*
X26526Y-98796D01*
X26493Y-98888D01*
X26454Y-98987D01*
X26421Y-99092D01*
X26395Y-99210D01*
X26375Y-99328D01*
X26362Y-99453D01*
X26356Y-99584D01*
Y-99623D01*
X26362Y-99669D01*
Y-99735D01*
X26375Y-99807D01*
X26388Y-99899D01*
X26402Y-99997D01*
X26428Y-100102D01*
X26461Y-100213D01*
X26500Y-100331D01*
X26546Y-100450D01*
X26605Y-100574D01*
X26671Y-100692D01*
X26749Y-100810D01*
X26835Y-100922D01*
X26940Y-101027D01*
X26946Y-101033D01*
X26966Y-101053D01*
X26999Y-101079D01*
X27051Y-101112D01*
X27110Y-101152D01*
X27182Y-101197D01*
X27274Y-101250D01*
X27373Y-101296D01*
X27484Y-101348D01*
X27609Y-101401D01*
X27746Y-101447D01*
X27897Y-101486D01*
X28061Y-101519D01*
X28238Y-101545D01*
X28429Y-101565D01*
X28626Y-101571D01*
X28698D01*
X28744Y-101565D01*
X28809D01*
X28881Y-101558D01*
X28960Y-101552D01*
X29052Y-101545D01*
X29242Y-101512D01*
X29452Y-101473D01*
X29669Y-101420D01*
X29872Y-101342D01*
X29878D01*
X29898Y-101329D01*
X29924Y-101315D01*
X29957Y-101296D01*
X30003Y-101270D01*
X30056Y-101243D01*
X30174Y-101165D01*
X30298Y-101066D01*
X30436Y-100942D01*
X30561Y-100797D01*
X30672Y-100627D01*
Y-100620D01*
X30685Y-100607D01*
X30698Y-100581D01*
X30712Y-100541D01*
X30738Y-100496D01*
X30757Y-100443D01*
X30784Y-100384D01*
X30810Y-100318D01*
X30830Y-100240D01*
X30856Y-100161D01*
X30902Y-99984D01*
X30928Y-99787D01*
X30941Y-99584D01*
Y-101260D01*
Y-99511D01*
X30935Y-99466D01*
X30928Y-99407D01*
X30922Y-99334D01*
X30908Y-99256D01*
X30895Y-99170D01*
X30849Y-98987D01*
X30784Y-98790D01*
X30744Y-98691D01*
X30698Y-98593D01*
X30639Y-98501D01*
X30574Y-98416D01*
X30567Y-98409D01*
X30554Y-98396D01*
X30534Y-98370D01*
X30508Y-98344D01*
X30469Y-98304D01*
X30423Y-98265D01*
X30370Y-98219D01*
X30311Y-98173D01*
X30239Y-98121D01*
X30167Y-98075D01*
X30082Y-98022D01*
X29990Y-97976D01*
X29892Y-97937D01*
X29787Y-97898D01*
X29669Y-97858D01*
X29550Y-97832D01*
X29439Y-98554D01*
X29445D01*
X29459Y-98560D01*
X29478Y-98567D01*
X29511Y-98573D01*
X29590Y-98600D01*
X29688Y-98639D01*
X29793Y-98691D01*
X29905Y-98751D01*
X30010Y-98829D01*
X30101Y-98921D01*
X30115Y-98934D01*
X30141Y-98967D01*
X30174Y-99026D01*
X30220Y-99098D01*
X30259Y-99190D01*
X30298Y-99295D01*
X30325Y-99420D01*
X30331Y-99551D01*
Y-99603D01*
X30325Y-99643D01*
X30318Y-99695D01*
X30311Y-99748D01*
X30279Y-99879D01*
X30233Y-100023D01*
X30200Y-100095D01*
X30160Y-100174D01*
X30115Y-100246D01*
X30056Y-100325D01*
X29996Y-100397D01*
X29924Y-100463D01*
X29918Y-100469D01*
X29905Y-100476D01*
X29885Y-100496D01*
X29846Y-100515D01*
X29806Y-100541D01*
X29754Y-100574D01*
X29688Y-100607D01*
X29616Y-100633D01*
X29531Y-100666D01*
X29439Y-100699D01*
X29334Y-100732D01*
X29216Y-100758D01*
X29091Y-100778D01*
X28960Y-100797D01*
X28809Y-100804D01*
X28652Y-100810D01*
X28645D01*
X28612D01*
X28566D01*
X28507Y-100804D01*
X28435Y-100797D01*
X28350Y-100791D01*
X28258Y-100784D01*
X28160Y-100771D01*
X27950Y-100732D01*
X27733Y-100666D01*
X27635Y-100633D01*
X27536Y-100587D01*
X27445Y-100535D01*
X27366Y-100476D01*
X27359Y-100469D01*
X27346Y-100463D01*
X27327Y-100443D01*
X27307Y-100417D01*
X27274Y-100377D01*
X27241Y-100338D01*
X27202Y-100292D01*
X27169Y-100240D01*
X27090Y-100109D01*
X27031Y-99958D01*
X27005Y-99872D01*
X26985Y-99787D01*
X26972Y-99689D01*
X26966Y-99590D01*
Y-99551D01*
X26972Y-99518D01*
Y-99479D01*
X26979Y-99439D01*
X26999Y-99334D01*
X27031Y-99223D01*
X27077Y-99098D01*
X27143Y-98980D01*
X27228Y-98862D01*
X27235Y-98856D01*
X27241Y-98849D01*
X27281Y-98816D01*
X27346Y-98764D01*
X27386Y-98737D01*
X27432Y-98705D01*
X27491Y-98672D01*
X27550Y-98639D01*
X27615Y-98613D01*
X27694Y-98580D01*
X27773Y-98554D01*
X27865Y-98527D01*
X27956Y-98508D01*
X28061Y-98488D01*
X27963Y-97760D01*
X30941D01*
D01*
D02*
G37*
G36*
X27300Y-102647D02*
X26454D01*
Y-103493D01*
X27300D01*
Y-102647D01*
D02*
G37*
G36*
X47454Y-100459D02*
X43065Y-102126D01*
Y-102834D01*
X47454Y-104494D01*
Y-103707D01*
X44823Y-102762D01*
X44817D01*
X44804Y-102755D01*
X44784Y-102749D01*
X44751Y-102736D01*
X44712Y-102723D01*
X44666Y-102709D01*
X44554Y-102670D01*
X44423Y-102624D01*
X44272Y-102578D01*
X44108Y-102532D01*
X43938Y-102480D01*
X43944D01*
X43951Y-102473D01*
X43971Y-102467D01*
X43997Y-102460D01*
X44036Y-102454D01*
X44076Y-102441D01*
X44174Y-102408D01*
X44292Y-102368D01*
X44436Y-102322D01*
X44594Y-102270D01*
X44771Y-102204D01*
X47454Y-101227D01*
Y-100459D01*
D02*
G37*
G36*
X41651Y-99784D02*
X35596D01*
Y-105111D01*
X41651D01*
Y-102296D01*
X41644Y-102224D01*
Y-102152D01*
X41638Y-102067D01*
X41631Y-101968D01*
X41612Y-101771D01*
X41579Y-101568D01*
X41539Y-101371D01*
X41513Y-101286D01*
X41487Y-101201D01*
Y-101194D01*
X41480Y-101181D01*
X41467Y-101161D01*
X41454Y-101129D01*
X41415Y-101050D01*
X41356Y-100958D01*
X41277Y-100847D01*
X41172Y-100735D01*
X41054Y-100623D01*
X40910Y-100525D01*
X40903D01*
X40890Y-100512D01*
X40870Y-100499D01*
X40838Y-100486D01*
X40798Y-100466D01*
X40752Y-100446D01*
X40700Y-100420D01*
X40641Y-100394D01*
X40503Y-100348D01*
X40352Y-100309D01*
X40182Y-100282D01*
X39998Y-100269D01*
X39991D01*
X39972D01*
X39932D01*
X39893Y-100276D01*
X39834Y-100282D01*
X39768Y-100289D01*
X39696Y-100302D01*
X39617Y-100322D01*
X39447Y-100374D01*
X39355Y-100407D01*
X39263Y-100446D01*
X39171Y-100492D01*
X39079Y-100551D01*
X38994Y-100617D01*
X38909Y-100689D01*
X38902Y-100696D01*
X38889Y-100709D01*
X38870Y-100735D01*
X38837Y-100768D01*
X38804Y-100814D01*
X38765Y-100866D01*
X38719Y-100932D01*
X38673Y-101011D01*
X38627Y-101096D01*
X38581Y-101188D01*
X38535Y-101293D01*
X38489Y-101411D01*
X38450Y-101535D01*
X38410Y-101673D01*
X38378Y-101824D01*
X38351Y-101981D01*
Y-101975D01*
X38345Y-101968D01*
X38325Y-101929D01*
X38292Y-101870D01*
X38253Y-101798D01*
X38207Y-101719D01*
X38161Y-101640D01*
X38102Y-101561D01*
X38050Y-101496D01*
X38043Y-101489D01*
X38037Y-101483D01*
X38017Y-101463D01*
X37990Y-101437D01*
X37958Y-101404D01*
X37918Y-101365D01*
X37826Y-101279D01*
X37709Y-101181D01*
X37571Y-101069D01*
X37413Y-100951D01*
X37243Y-100833D01*
X35596Y-99784D01*
X41651D01*
D02*
G37*
G36*
X30941Y-104582D02*
X26356D01*
X27674D01*
X27602Y-104595D01*
X27510Y-104609D01*
X27405Y-104635D01*
X27287Y-104674D01*
X27163Y-104733D01*
X27038Y-104805D01*
X27031D01*
X27025Y-104819D01*
X26985Y-104845D01*
X26926Y-104897D01*
X26854Y-104963D01*
X26769Y-105055D01*
X26684Y-105160D01*
X26605Y-105284D01*
X26533Y-105429D01*
Y-105435D01*
X26526Y-105448D01*
X26520Y-105468D01*
X26507Y-105501D01*
X26493Y-105540D01*
X26474Y-105586D01*
X26461Y-105639D01*
X26448Y-105698D01*
X26415Y-105835D01*
X26382Y-105993D01*
X26362Y-106163D01*
X26356Y-106354D01*
Y-106439D01*
X26362Y-106498D01*
X26369Y-106563D01*
X26375Y-106649D01*
X26382Y-106741D01*
X26402Y-106839D01*
X26441Y-107049D01*
X26500Y-107272D01*
X26539Y-107377D01*
X26592Y-107482D01*
X26644Y-107574D01*
X26703Y-107666D01*
X26710Y-107672D01*
X26723Y-107685D01*
X26743Y-107705D01*
X26769Y-107738D01*
X26808Y-107771D01*
X26854Y-107810D01*
X26907Y-107856D01*
X26966Y-107902D01*
X27038Y-107954D01*
X27117Y-108000D01*
X27202Y-108046D01*
X27300Y-108092D01*
X27399Y-108131D01*
X27510Y-108171D01*
X27635Y-108203D01*
X27760Y-108230D01*
D01*
X27878Y-107495D01*
X27871D01*
X27858Y-107489D01*
X27838D01*
X27806Y-107482D01*
X27766Y-107475D01*
X27727Y-107462D01*
X27628Y-107429D01*
X27517Y-107384D01*
X27399Y-107325D01*
X27294Y-107252D01*
X27195Y-107154D01*
Y-107147D01*
X27189Y-107141D01*
X27163Y-107101D01*
X27123Y-107036D01*
X27084Y-106944D01*
X27038Y-106833D01*
X27005Y-106695D01*
X26979Y-106537D01*
X26966Y-106360D01*
Y-106308D01*
X26972Y-106275D01*
Y-106229D01*
X26979Y-106183D01*
X26992Y-106071D01*
X27018Y-105947D01*
X27051Y-105816D01*
X27104Y-105698D01*
X27169Y-105593D01*
X27176Y-105579D01*
X27209Y-105553D01*
X27248Y-105514D01*
X27307Y-105468D01*
X27379Y-105422D01*
X27464Y-105383D01*
X27556Y-105357D01*
X27661Y-105343D01*
X27674D01*
X27700D01*
X27753Y-105357D01*
X27806Y-105370D01*
X27871Y-105396D01*
X27937Y-105435D01*
X28002Y-105494D01*
X28061Y-105566D01*
X28068Y-105573D01*
X28081Y-105599D01*
X28101Y-105645D01*
X28114Y-105678D01*
X28127Y-105717D01*
X28147Y-105770D01*
X28166Y-105822D01*
X28186Y-105881D01*
X28206Y-105953D01*
X28232Y-106032D01*
X28258Y-106124D01*
X28284Y-106222D01*
X28311Y-106327D01*
Y-106334D01*
X28317Y-106360D01*
X28330Y-106406D01*
X28343Y-106459D01*
X28363Y-106524D01*
X28383Y-106603D01*
X28409Y-106688D01*
X28435Y-106780D01*
X28494Y-106964D01*
X28553Y-107154D01*
X28580Y-107246D01*
X28612Y-107325D01*
X28645Y-107403D01*
X28671Y-107469D01*
Y-107475D01*
X28678Y-107482D01*
X28698Y-107521D01*
X28730Y-107574D01*
X28783Y-107646D01*
X28842Y-107725D01*
X28908Y-107803D01*
X28993Y-107882D01*
X29085Y-107948D01*
X29098Y-107954D01*
X29131Y-107974D01*
X29190Y-108000D01*
X29262Y-108026D01*
X29347Y-108053D01*
X29445Y-108079D01*
X29557Y-108099D01*
X29675Y-108105D01*
X29682D01*
X29688D01*
X29728D01*
X29780Y-108099D01*
X29852Y-108085D01*
X29937Y-108072D01*
X30029Y-108053D01*
X30128Y-108020D01*
X30220Y-107974D01*
X30233Y-107967D01*
X30259Y-107948D01*
X30305Y-107921D01*
X30364Y-107876D01*
X30430Y-107830D01*
X30502Y-107764D01*
X30567Y-107692D01*
X30633Y-107607D01*
X30639Y-107600D01*
X30652Y-107574D01*
X30679Y-107534D01*
X30705Y-107482D01*
X30738Y-107416D01*
X30777Y-107338D01*
X30817Y-107239D01*
X30849Y-107134D01*
Y-107128D01*
X30856Y-107121D01*
X30862Y-107082D01*
X30876Y-107023D01*
X30895Y-106937D01*
X30915Y-106846D01*
X30928Y-106734D01*
X30935Y-106616D01*
X30941Y-106491D01*
Y-106347D01*
Y-106406D01*
X30935Y-106360D01*
Y-106308D01*
X30922Y-106183D01*
X30902Y-106045D01*
X30876Y-105888D01*
X30843Y-105737D01*
X30790Y-105586D01*
Y-105579D01*
X30784Y-105566D01*
X30777Y-105547D01*
X30764Y-105520D01*
X30731Y-105455D01*
X30685Y-105363D01*
X30626Y-105271D01*
X30554Y-105179D01*
X30475Y-105087D01*
X30384Y-105009D01*
X30370Y-105002D01*
X30338Y-104976D01*
X30279Y-104943D01*
X30206Y-104904D01*
X30108Y-104858D01*
X29990Y-104819D01*
X29859Y-104779D01*
X29708Y-104746D01*
X29610Y-105475D01*
X29616D01*
X29623D01*
X29662Y-105488D01*
X29728Y-105501D01*
X29800Y-105527D01*
X29885Y-105566D01*
X29970Y-105619D01*
X30056Y-105684D01*
X30134Y-105763D01*
X30141Y-105776D01*
X30167Y-105809D01*
X30200Y-105862D01*
X30233Y-105934D01*
X30272Y-106032D01*
X30298Y-106150D01*
X30325Y-106281D01*
X30331Y-106439D01*
Y-106524D01*
X30325Y-106563D01*
Y-106609D01*
X30311Y-106721D01*
X30292Y-106839D01*
X30259Y-106964D01*
X30220Y-107075D01*
X30193Y-107121D01*
X30160Y-107167D01*
X30154Y-107174D01*
X30128Y-107200D01*
X30095Y-107233D01*
X30049Y-107272D01*
X29990Y-107318D01*
X29918Y-107351D01*
X29846Y-107377D01*
X29760Y-107384D01*
X29754D01*
X29734D01*
X29708Y-107377D01*
X29675Y-107370D01*
X29590Y-107344D01*
X29544Y-107325D01*
X29498Y-107298D01*
X29491Y-107292D01*
X29478Y-107279D01*
X29459Y-107259D01*
X29432Y-107226D01*
X29400Y-107187D01*
X29367Y-107134D01*
X29334Y-107075D01*
X29301Y-107010D01*
Y-107003D01*
X29295Y-106983D01*
X29281Y-106944D01*
X29262Y-106885D01*
X29249Y-106846D01*
X29236Y-106800D01*
X29222Y-106747D01*
X29203Y-106688D01*
X29183Y-106616D01*
X29163Y-106537D01*
X29137Y-106452D01*
X29111Y-106354D01*
Y-106347D01*
X29104Y-106321D01*
X29091Y-106281D01*
X29078Y-106222D01*
X29058Y-106163D01*
X29039Y-106091D01*
X29013Y-106006D01*
X28986Y-105921D01*
X28934Y-105737D01*
X28875Y-105560D01*
X28848Y-105475D01*
X28816Y-105396D01*
X28789Y-105324D01*
X28763Y-105258D01*
Y-105252D01*
X28757Y-105245D01*
X28737Y-105206D01*
X28711Y-105147D01*
X28665Y-105081D01*
X28612Y-105002D01*
X28547Y-104917D01*
X28468Y-104838D01*
X28376Y-104766D01*
X28363Y-104760D01*
X28330Y-104740D01*
X28278Y-104707D01*
X28199Y-104674D01*
X28107Y-104641D01*
X28002Y-104609D01*
X27878Y-104589D01*
X27740Y-104582D01*
X30941D01*
D01*
D02*
G37*
G36*
X36442Y-108869D02*
X35517D01*
X35478Y-108876D01*
X35432D01*
X35327Y-108889D01*
X35209Y-108909D01*
X35085Y-108941D01*
X34960Y-108981D01*
X34842Y-109040D01*
X34829Y-109046D01*
X34796Y-109073D01*
X34743Y-109112D01*
X34678Y-109165D01*
X34606Y-109237D01*
X34533Y-109329D01*
X34461Y-109440D01*
X34396Y-109565D01*
D01*
X34710Y-109768D01*
X34717Y-109755D01*
X34730Y-109729D01*
X34756Y-109689D01*
X34789Y-109637D01*
X34835Y-109578D01*
X34888Y-109519D01*
X34947Y-109466D01*
X35019Y-109420D01*
X35025Y-109414D01*
X35058Y-109401D01*
X35104Y-109381D01*
X35170Y-109361D01*
X35249Y-109342D01*
X35347Y-109322D01*
X35465Y-109302D01*
X35596Y-109296D01*
Y-109716D01*
X36442D01*
Y-109768D01*
X34710D01*
X34396D01*
X36442D01*
Y-108869D01*
D02*
G37*
G36*
X32371Y-108564D02*
X26395D01*
D01*
X26461D01*
Y-108577D01*
X26448Y-108617D01*
X26441Y-108676D01*
X26428Y-108755D01*
X26415Y-108840D01*
X26408Y-108932D01*
X26395Y-109128D01*
Y-109194D01*
X26402Y-109266D01*
X26408Y-109358D01*
X26428Y-109463D01*
X26448Y-109568D01*
X26480Y-109666D01*
X26520Y-109758D01*
X26526Y-109765D01*
X26546Y-109791D01*
X26572Y-109830D01*
X26612Y-109883D01*
X26658Y-109935D01*
X26717Y-109988D01*
X26782Y-110034D01*
X26854Y-110073D01*
X26867Y-110080D01*
X26900Y-110086D01*
X26926Y-110093D01*
X26959Y-110099D01*
X26999Y-110106D01*
X27044Y-110113D01*
X27097Y-110126D01*
X27163Y-110132D01*
X27235Y-110139D01*
X27314Y-110145D01*
X27405Y-110152D01*
X27504D01*
X27615Y-110158D01*
X27733D01*
X30266D01*
Y-110709D01*
X30843D01*
Y-110158D01*
X31925D01*
X32371Y-109417D01*
X30843D01*
Y-108663D01*
X30266D01*
Y-109417D01*
X27694D01*
X27687D01*
X27681D01*
X27641D01*
X27589D01*
X27523Y-109411D01*
X27458D01*
X27392Y-109397D01*
X27333Y-109391D01*
X27287Y-109378D01*
X27281D01*
X27274Y-109371D01*
X27235Y-109345D01*
X27189Y-109306D01*
X27143Y-109253D01*
Y-109247D01*
X27136Y-109233D01*
X27130Y-109214D01*
X27117Y-109187D01*
X27110Y-109148D01*
X27097Y-109109D01*
X27090Y-109056D01*
Y-108945D01*
X27097Y-108905D01*
Y-108860D01*
X27104Y-108800D01*
X27110Y-108735D01*
X27117Y-108663D01*
X26461Y-108564D01*
X32371D01*
D01*
D02*
G37*
G36*
X49120Y-107636D02*
X43065D01*
Y-108463D01*
X47815Y-111638D01*
X43065D01*
Y-112405D01*
X49120D01*
Y-111572D01*
Y-111585D01*
X44364Y-108404D01*
X49120D01*
Y-107636D01*
D02*
G37*
G36*
Y-113809D02*
X43065D01*
Y-114609D01*
X49120D01*
Y-113809D01*
D02*
G37*
G36*
X35596Y-110831D02*
Y-111605D01*
X35609Y-111611D01*
X35636Y-111625D01*
X35688Y-111644D01*
X35754Y-111664D01*
X35832Y-111690D01*
X35924Y-111716D01*
X36029Y-111736D01*
X36147Y-111749D01*
X36141Y-111756D01*
X36134Y-111769D01*
X36114Y-111789D01*
X36088Y-111821D01*
X36062Y-111861D01*
X36022Y-111900D01*
X35950Y-112005D01*
X35865Y-112130D01*
X35780Y-112261D01*
X35708Y-112405D01*
X35642Y-112549D01*
Y-112556D01*
X35636Y-112569D01*
X35629Y-112589D01*
X35622Y-112615D01*
X35609Y-112648D01*
X35596Y-112694D01*
X35570Y-112792D01*
X35544Y-112917D01*
X35517Y-113055D01*
X35504Y-113206D01*
X35498Y-113370D01*
Y-114865D01*
Y-113442D01*
X35504Y-113488D01*
X35511Y-113547D01*
X35517Y-113619D01*
X35524Y-113698D01*
X35544Y-113776D01*
X35583Y-113960D01*
X35642Y-114144D01*
X35681Y-114229D01*
X35734Y-114321D01*
X35786Y-114399D01*
X35845Y-114478D01*
X35852Y-114485D01*
X35865Y-114498D01*
X35885Y-114511D01*
X35911Y-114537D01*
X35944Y-114570D01*
X35990Y-114603D01*
X36036Y-114636D01*
X36095Y-114668D01*
X36219Y-114741D01*
X36377Y-114806D01*
X36462Y-114832D01*
X36554Y-114846D01*
X36652Y-114859D01*
X36751Y-114865D01*
X36803D01*
X36869Y-114859D01*
X36948Y-114846D01*
X37039Y-114832D01*
X37138Y-114806D01*
X37236Y-114767D01*
X37341Y-114721D01*
X37354Y-114714D01*
X37387Y-114695D01*
X37433Y-114662D01*
X37499Y-114616D01*
X37564Y-114563D01*
X37636Y-114498D01*
X37702Y-114426D01*
X37767Y-114340D01*
X37774Y-114327D01*
X37794Y-114295D01*
X37826Y-114249D01*
X37859Y-114183D01*
X37899Y-114104D01*
X37938Y-114012D01*
X37977Y-113907D01*
X38010Y-113803D01*
Y-113789D01*
X38023Y-113763D01*
X38030Y-113711D01*
X38050Y-113638D01*
X38063Y-113547D01*
X38082Y-113429D01*
X38102Y-113297D01*
X38122Y-113140D01*
Y-113127D01*
X38128Y-113101D01*
X38135Y-113055D01*
X38141Y-112996D01*
X38155Y-112917D01*
X38168Y-112832D01*
X38181Y-112740D01*
X38194Y-112635D01*
X38233Y-112418D01*
X38279Y-112202D01*
X38305Y-112097D01*
X38332Y-111992D01*
X38358Y-111900D01*
X38384Y-111815D01*
X38391D01*
X38410D01*
X38437D01*
X38463Y-111808D01*
X38528D01*
X38555D01*
X38574D01*
X38581D01*
X38594D01*
X38620D01*
X38647D01*
X38725Y-111821D01*
X38824Y-111835D01*
X38929Y-111861D01*
X39034Y-111900D01*
X39132Y-111953D01*
X39211Y-112025D01*
X39224Y-112038D01*
X39237Y-112051D01*
X39250Y-112077D01*
X39270Y-112110D01*
X39289Y-112143D01*
X39342Y-112235D01*
X39388Y-112353D01*
X39427Y-112497D01*
X39453Y-112668D01*
X39467Y-112864D01*
Y-112950D01*
X39460Y-112996D01*
Y-113041D01*
X39447Y-113160D01*
X39421Y-113284D01*
X39388Y-113409D01*
X39342Y-113533D01*
X39283Y-113638D01*
X39276Y-113652D01*
X39250Y-113678D01*
X39198Y-113724D01*
X39132Y-113776D01*
X39047Y-113835D01*
X38929Y-113901D01*
X38797Y-113953D01*
X38719Y-113980D01*
X38633Y-114006D01*
X38732Y-114734D01*
X38738D01*
X38752Y-114727D01*
X38778Y-114721D01*
X38811Y-114714D01*
X38850Y-114701D01*
X38896Y-114688D01*
X39001Y-114655D01*
X39119Y-114609D01*
X39244Y-114557D01*
X39368Y-114491D01*
X39480Y-114413D01*
X39486D01*
X39493Y-114399D01*
X39526Y-114367D01*
X39578Y-114314D01*
X39644Y-114242D01*
X39716Y-114150D01*
X39788Y-114039D01*
X39860Y-113907D01*
X39926Y-113757D01*
Y-113750D01*
X39932Y-113737D01*
X39939Y-113711D01*
X39952Y-113678D01*
X39965Y-113638D01*
X39978Y-113593D01*
X39991Y-113533D01*
X40005Y-113468D01*
X40018Y-113402D01*
X40031Y-113324D01*
X40057Y-113153D01*
X40077Y-112963D01*
X40083Y-112759D01*
Y-112668D01*
X40077Y-112622D01*
Y-112563D01*
X40064Y-112438D01*
X40050Y-112294D01*
X40024Y-112143D01*
X39991Y-111992D01*
X39945Y-111854D01*
Y-111848D01*
X39939Y-111841D01*
X39932Y-111821D01*
X39919Y-111795D01*
X39893Y-111736D01*
X39854Y-111657D01*
X39808Y-111572D01*
X39749Y-111487D01*
X39683Y-111408D01*
X39611Y-111336D01*
X39604Y-111329D01*
X39578Y-111310D01*
X39532Y-111277D01*
X39473Y-111244D01*
X39401Y-111205D01*
X39316Y-111165D01*
X39217Y-111126D01*
X39106Y-111100D01*
X39099D01*
X39066Y-111093D01*
X39020Y-111087D01*
X38948Y-111080D01*
X38857Y-111074D01*
X38738Y-111067D01*
X38666D01*
X38594Y-111060D01*
X38515D01*
X38423D01*
X37433D01*
X37420D01*
X37387D01*
X37334D01*
X37269D01*
X37184D01*
X37092D01*
X36987Y-111054D01*
X36882D01*
X36659Y-111047D01*
X36547D01*
X36442Y-111041D01*
X36344Y-111034D01*
X36259Y-111028D01*
X36180Y-111021D01*
X36121Y-111014D01*
X36108D01*
X36075Y-111008D01*
X36022Y-110995D01*
X35950Y-110975D01*
X35872Y-110949D01*
X35786Y-110916D01*
X35688Y-110877D01*
X35596Y-110831D01*
D02*
G37*
G36*
X30843Y-111451D02*
X26356D01*
X26454D01*
Y-112113D01*
X27097D01*
X27090Y-112120D01*
X27064Y-112139D01*
X27031Y-112166D01*
X26979Y-112205D01*
X26926Y-112258D01*
X26861Y-112323D01*
X26795Y-112395D01*
X26730Y-112481D01*
X26658Y-112579D01*
X26592Y-112684D01*
X26526Y-112795D01*
X26474Y-112920D01*
X26421Y-113058D01*
X26388Y-113196D01*
X26362Y-113347D01*
X26356Y-113511D01*
Y-115006D01*
Y-113576D01*
X26362Y-113648D01*
X26375Y-113747D01*
X26388Y-113858D01*
X26415Y-113983D01*
X26454Y-114108D01*
X26500Y-114239D01*
Y-114245D01*
X26507Y-114252D01*
X26526Y-114291D01*
X26559Y-114350D01*
X26605Y-114429D01*
X26658Y-114508D01*
X26723Y-114593D01*
X26795Y-114672D01*
X26874Y-114737D01*
X26887Y-114744D01*
X26913Y-114763D01*
X26966Y-114790D01*
X27031Y-114823D01*
X27110Y-114862D01*
X27202Y-114901D01*
X27307Y-114934D01*
X27425Y-114967D01*
X27438D01*
X27464Y-114973D01*
X27523Y-114980D01*
X27596Y-114987D01*
X27694Y-114993D01*
X27812Y-115000D01*
X27956Y-115006D01*
X30843D01*
Y-114213D01*
Y-114265D01*
X28409D01*
X28402D01*
X28383D01*
X28357D01*
X28317D01*
X28265D01*
X28212D01*
X28094Y-114258D01*
X27963D01*
X27832Y-114245D01*
X27714Y-114239D01*
X27661Y-114232D01*
X27622Y-114226D01*
X27609Y-114219D01*
X27576Y-114213D01*
X27517Y-114193D01*
X27451Y-114160D01*
X27379Y-114121D01*
X27307Y-114068D01*
X27228Y-114003D01*
X27163Y-113924D01*
X27156Y-113911D01*
X27136Y-113884D01*
X27110Y-113832D01*
X27084Y-113766D01*
X27051Y-113688D01*
X27025Y-113589D01*
X27005Y-113478D01*
X26999Y-113360D01*
Y-113301D01*
X27005Y-113242D01*
X27018Y-113156D01*
X27038Y-113058D01*
X27071Y-112953D01*
X27110Y-112848D01*
X27169Y-112736D01*
Y-112730D01*
X27176Y-112723D01*
X27202Y-112691D01*
X27241Y-112638D01*
X27294Y-112573D01*
X27359Y-112507D01*
X27438Y-112435D01*
X27530Y-112369D01*
X27635Y-112317D01*
X27641D01*
X27648Y-112310D01*
X27668Y-112303D01*
X27687Y-112297D01*
X27720Y-112290D01*
X27760Y-112277D01*
X27799Y-112264D01*
X27851Y-112251D01*
X27976Y-112231D01*
X28120Y-112212D01*
X28291Y-112199D01*
X28488Y-112192D01*
X30843D01*
Y-111451D01*
D02*
G37*
G36*
X41651Y-115770D02*
X35596D01*
Y-116512D01*
X41651D01*
Y-115770D01*
D02*
G37*
G36*
X49120Y-115698D02*
Y-118683D01*
X43780D01*
Y-115698D01*
X43065D01*
Y-119483D01*
X49120D01*
Y-115698D01*
D02*
G37*
G36*
X30941Y-116128D02*
X26454D01*
Y-116869D01*
X29124D01*
X29131D01*
X29144D01*
X29170D01*
X29196D01*
X29236D01*
X29281Y-116876D01*
X29380Y-116882D01*
X29491Y-116889D01*
X29603Y-116909D01*
X29708Y-116928D01*
X29800Y-116961D01*
X29813Y-116968D01*
X29839Y-116981D01*
X29878Y-117000D01*
X29931Y-117033D01*
X29990Y-117073D01*
X30049Y-117125D01*
X30108Y-117191D01*
X30160Y-117269D01*
X30167Y-117276D01*
X30180Y-117309D01*
X30206Y-117355D01*
X30233Y-117414D01*
X30252Y-117492D01*
X30279Y-117578D01*
X30292Y-117676D01*
X30298Y-117788D01*
Y-117834D01*
X30292Y-117866D01*
Y-117906D01*
X30285Y-117958D01*
X30259Y-118070D01*
X30226Y-118194D01*
X30174Y-118332D01*
X30095Y-118470D01*
X30049Y-118542D01*
X29996Y-118608D01*
X29990Y-118614D01*
X29983Y-118621D01*
X29964Y-118640D01*
X29937Y-118660D01*
X29898Y-118686D01*
X29859Y-118713D01*
X29806Y-118745D01*
X29741Y-118778D01*
X29669Y-118811D01*
X29583Y-118844D01*
X29491Y-118870D01*
X29386Y-118896D01*
X29268Y-118916D01*
X29144Y-118936D01*
X28999Y-118942D01*
X28848Y-118949D01*
X26454D01*
Y-119690D01*
X30843D01*
Y-119021D01*
X30213D01*
X30220Y-119014D01*
X30246Y-119001D01*
X30279Y-118968D01*
X30325Y-118929D01*
X30384Y-118883D01*
X30443Y-118824D01*
X30508Y-118752D01*
X30580Y-118667D01*
X30646Y-118575D01*
X30712Y-118470D01*
X30771Y-118358D01*
X30830Y-118234D01*
X30876Y-118096D01*
X30908Y-117952D01*
X30935Y-117794D01*
X30941Y-117630D01*
Y-119690D01*
D01*
Y-116128D01*
D02*
G37*
G36*
X39985Y-117660D02*
X35596D01*
Y-118322D01*
X36239D01*
X36233Y-118329D01*
X36206Y-118349D01*
X36173Y-118375D01*
X36121Y-118414D01*
X36068Y-118467D01*
X36003Y-118532D01*
X35937Y-118604D01*
X35872Y-118690D01*
X35800Y-118788D01*
X35734Y-118893D01*
X35668Y-119005D01*
X35616Y-119129D01*
X35563Y-119267D01*
X35530Y-119405D01*
X35504Y-119556D01*
X35498Y-119720D01*
Y-121215D01*
Y-119785D01*
X35504Y-119857D01*
X35517Y-119956D01*
X35530Y-120067D01*
X35557Y-120192D01*
X35596Y-120317D01*
X35642Y-120448D01*
Y-120454D01*
X35649Y-120461D01*
X35668Y-120500D01*
X35701Y-120559D01*
X35747Y-120638D01*
X35800Y-120717D01*
X35865Y-120802D01*
X35937Y-120881D01*
X36016Y-120946D01*
X36029Y-120953D01*
X36055Y-120973D01*
X36108Y-120999D01*
X36173Y-121032D01*
X36252Y-121071D01*
X36344Y-121110D01*
X36449Y-121143D01*
X36567Y-121176D01*
X36580D01*
X36606Y-121183D01*
X36665Y-121189D01*
X36738Y-121196D01*
X36836Y-121202D01*
X36954Y-121209D01*
X37098Y-121215D01*
X35498D01*
X39985D01*
Y-120422D01*
Y-120474D01*
X37551D01*
X37545D01*
X37525D01*
X37499D01*
X37459D01*
X37407D01*
X37354D01*
X37236Y-120467D01*
X37105D01*
X36974Y-120454D01*
X36856Y-120448D01*
X36803Y-120441D01*
X36764Y-120435D01*
X36751Y-120428D01*
X36718Y-120422D01*
X36659Y-120402D01*
X36593Y-120369D01*
X36521Y-120330D01*
X36449Y-120277D01*
X36370Y-120212D01*
X36305Y-120133D01*
X36298Y-120120D01*
X36278Y-120094D01*
X36252Y-120041D01*
X36226Y-119975D01*
X36193Y-119897D01*
X36167Y-119798D01*
X36147Y-119687D01*
X36141Y-119569D01*
Y-119510D01*
X36147Y-119451D01*
X36160Y-119365D01*
X36180Y-119267D01*
X36213Y-119162D01*
X36252Y-119057D01*
X36311Y-118946D01*
Y-118939D01*
X36318Y-118932D01*
X36344Y-118900D01*
X36383Y-118847D01*
X36436Y-118781D01*
X36501Y-118716D01*
X36580Y-118644D01*
X36672Y-118578D01*
X36777Y-118526D01*
X36783D01*
X36790Y-118519D01*
X36810Y-118513D01*
X36829Y-118506D01*
X36862Y-118499D01*
X36902Y-118486D01*
X36941Y-118473D01*
X36993Y-118460D01*
X37118Y-118440D01*
X37262Y-118421D01*
X37433Y-118408D01*
X37630Y-118401D01*
X39985D01*
Y-117660D01*
D02*
G37*
G36*
X30941Y-120589D02*
X24775D01*
D01*
X28612D01*
X28566Y-120595D01*
X28507D01*
X28435Y-120602D01*
X28357Y-120608D01*
X28271Y-120622D01*
X28088Y-120648D01*
X27884Y-120694D01*
X27674Y-120753D01*
X27464Y-120832D01*
X27458D01*
X27438Y-120845D01*
X27412Y-120858D01*
X27379Y-120877D01*
X27333Y-120904D01*
X27281Y-120930D01*
X27163Y-121009D01*
X27025Y-121107D01*
X26887Y-121232D01*
X26756Y-121369D01*
X26638Y-121533D01*
Y-121540D01*
X26625Y-121553D01*
X26612Y-121579D01*
X26592Y-121612D01*
X26572Y-121658D01*
X26546Y-121704D01*
X26526Y-121763D01*
X26500Y-121829D01*
X26448Y-121973D01*
X26402Y-122137D01*
X26369Y-122314D01*
X26362Y-122406D01*
X26356Y-122504D01*
Y-122570D01*
X26362Y-122635D01*
X26375Y-122727D01*
X26395Y-122832D01*
X26421Y-122944D01*
X26454Y-123062D01*
X26507Y-123173D01*
X26513Y-123187D01*
X26533Y-123219D01*
X26572Y-123278D01*
X26618Y-123344D01*
X26671Y-123423D01*
X26743Y-123501D01*
X26822Y-123580D01*
X26907Y-123652D01*
X24775D01*
Y-124394D01*
X30843D01*
Y-123718D01*
X30272D01*
X30279Y-123705D01*
X30318Y-123679D01*
X30384Y-123626D01*
X30456Y-123561D01*
X30534Y-123482D01*
X30620Y-123390D01*
X30698Y-123292D01*
X30771Y-123180D01*
Y-123173D01*
X30777Y-123167D01*
X30797Y-123127D01*
X30823Y-123062D01*
X30856Y-122977D01*
X30889Y-122872D01*
X30915Y-122747D01*
X30935Y-122603D01*
X30941Y-122452D01*
Y-124394D01*
D01*
Y-120589D01*
D02*
G37*
G36*
X46155Y-120631D02*
X42967D01*
D01*
X43905D01*
X43898Y-120638D01*
X43885Y-120658D01*
X43859Y-120691D01*
X43826Y-120736D01*
X43787Y-120789D01*
X43748Y-120854D01*
X43695Y-120927D01*
X43643Y-121005D01*
X43590Y-121091D01*
X43531Y-121189D01*
X43413Y-121392D01*
X43301Y-121615D01*
X43203Y-121852D01*
Y-121858D01*
X43190Y-121878D01*
X43183Y-121911D01*
X43164Y-121963D01*
X43151Y-122016D01*
X43131Y-122088D01*
X43105Y-122160D01*
X43085Y-122245D01*
X43065Y-122344D01*
X43039Y-122442D01*
X43006Y-122659D01*
X42980Y-122895D01*
X42967Y-123137D01*
Y-123223D01*
X42974Y-123288D01*
X42980Y-123367D01*
X42987Y-123459D01*
X43000Y-123564D01*
X43013Y-123675D01*
X43033Y-123793D01*
X43059Y-123925D01*
X43092Y-124056D01*
X43131Y-124200D01*
X43170Y-124338D01*
X43223Y-124476D01*
X43282Y-124620D01*
X43347Y-124758D01*
X43354Y-124764D01*
X43367Y-124791D01*
X43387Y-124830D01*
X43420Y-124876D01*
X43459Y-124935D01*
X43505Y-125007D01*
X43564Y-125086D01*
X43630Y-125171D01*
X43702Y-125256D01*
X43787Y-125348D01*
X43872Y-125440D01*
X43971Y-125532D01*
X44082Y-125617D01*
X44194Y-125702D01*
X44318Y-125788D01*
X44449Y-125860D01*
X44456Y-125866D01*
X44482Y-125873D01*
X44522Y-125893D01*
X44574Y-125919D01*
X44646Y-125945D01*
X44725Y-125978D01*
X44817Y-126011D01*
X44922Y-126043D01*
X45033Y-126076D01*
X45158Y-126109D01*
X45296Y-126142D01*
X45434Y-126168D01*
X45584Y-126194D01*
X45735Y-126214D01*
X45899Y-126221D01*
X46063Y-126227D01*
X45539D01*
X46149D01*
X46214Y-126221D01*
X46293Y-126214D01*
X46385Y-126207D01*
X46490Y-126194D01*
X46601Y-126181D01*
X46726Y-126162D01*
X46857Y-126135D01*
X47133Y-126070D01*
X47277Y-126030D01*
X47421Y-125978D01*
X47565Y-125925D01*
X47710Y-125860D01*
X47716Y-125853D01*
X47743Y-125840D01*
X47782Y-125820D01*
X47835Y-125794D01*
X47900Y-125755D01*
X47972Y-125709D01*
X48051Y-125650D01*
X48143Y-125591D01*
X48235Y-125519D01*
X48327Y-125440D01*
X48418Y-125355D01*
X48517Y-125256D01*
X48609Y-125158D01*
X48694Y-125046D01*
X48779Y-124928D01*
X48851Y-124804D01*
X48858Y-124797D01*
X48864Y-124771D01*
X48884Y-124731D01*
X48910Y-124679D01*
X48937Y-124613D01*
X48969Y-124535D01*
X49002Y-124443D01*
X49042Y-124344D01*
X49074Y-124233D01*
X49107Y-124108D01*
X49140Y-123977D01*
X49166Y-123833D01*
X49192Y-123688D01*
X49212Y-123531D01*
X49219Y-123367D01*
X49225Y-123203D01*
Y-123091D01*
X49219Y-123032D01*
X49212Y-122967D01*
X49205Y-122895D01*
X49199Y-122809D01*
X49173Y-122626D01*
X49133Y-122422D01*
X49081Y-122219D01*
X49009Y-122016D01*
Y-122009D01*
X49002Y-121989D01*
X48989Y-121963D01*
X48969Y-121930D01*
X48950Y-121884D01*
X48923Y-121832D01*
X48858Y-121714D01*
X48773Y-121576D01*
X48674Y-121438D01*
X48556Y-121307D01*
X48418Y-121183D01*
X48412Y-121176D01*
X48399Y-121169D01*
X48379Y-121156D01*
X48353Y-121130D01*
X48313Y-121110D01*
X48267Y-121078D01*
X48215Y-121045D01*
X48149Y-121012D01*
X48084Y-120973D01*
X48012Y-120940D01*
X47926Y-120900D01*
X47841Y-120861D01*
X47644Y-120789D01*
X47428Y-120723D01*
X47231Y-121451D01*
X47238D01*
X47251Y-121458D01*
X47277Y-121465D01*
X47310Y-121478D01*
X47343Y-121491D01*
X47388Y-121504D01*
X47493Y-121543D01*
X47611Y-121596D01*
X47730Y-121655D01*
X47848Y-121720D01*
X47953Y-121793D01*
X47966Y-121799D01*
X47998Y-121832D01*
X48044Y-121878D01*
X48110Y-121937D01*
X48176Y-122022D01*
X48248Y-122121D01*
X48313Y-122239D01*
X48379Y-122370D01*
Y-122376D01*
X48386Y-122389D01*
X48392Y-122409D01*
X48405Y-122435D01*
X48418Y-122468D01*
X48431Y-122514D01*
X48464Y-122613D01*
X48491Y-122737D01*
X48517Y-122875D01*
X48536Y-123032D01*
X48543Y-123196D01*
Y-123288D01*
X48536Y-123334D01*
Y-123393D01*
X48530Y-123452D01*
X48523Y-123524D01*
X48504Y-123669D01*
X48471Y-123833D01*
X48431Y-123990D01*
X48372Y-124148D01*
Y-124154D01*
X48366Y-124167D01*
X48353Y-124187D01*
X48340Y-124213D01*
X48307Y-124285D01*
X48254Y-124377D01*
X48189Y-124482D01*
X48110Y-124587D01*
X48025Y-124699D01*
X47926Y-124797D01*
X47913Y-124810D01*
X47880Y-124836D01*
X47821Y-124882D01*
X47749Y-124935D01*
X47664Y-124994D01*
X47559Y-125059D01*
X47447Y-125119D01*
X47329Y-125171D01*
X47323D01*
X47303Y-125178D01*
X47277Y-125191D01*
X47231Y-125204D01*
X47179Y-125223D01*
X47119Y-125243D01*
X47047Y-125263D01*
X46969Y-125283D01*
X46883Y-125309D01*
X46785Y-125328D01*
X46582Y-125361D01*
X46352Y-125387D01*
X46109Y-125401D01*
X46103D01*
X46076D01*
X46031D01*
X45978Y-125394D01*
X45906D01*
X45827Y-125387D01*
X45735Y-125374D01*
X45637Y-125368D01*
X45420Y-125335D01*
X45197Y-125283D01*
X44968Y-125217D01*
X44751Y-125125D01*
X44745Y-125119D01*
X44725Y-125112D01*
X44699Y-125099D01*
X44659Y-125073D01*
X44620Y-125046D01*
X44568Y-125007D01*
X44449Y-124922D01*
X44318Y-124804D01*
X44181Y-124666D01*
X44056Y-124508D01*
X43997Y-124417D01*
X43944Y-124318D01*
Y-124312D01*
X43931Y-124292D01*
X43918Y-124266D01*
X43905Y-124226D01*
X43885Y-124174D01*
X43859Y-124115D01*
X43839Y-124049D01*
X43813Y-123977D01*
X43787Y-123898D01*
X43767Y-123807D01*
X43721Y-123616D01*
X43695Y-123406D01*
X43682Y-123183D01*
Y-123131D01*
X43689Y-123091D01*
Y-123046D01*
X43695Y-122993D01*
X43702Y-122934D01*
X43708Y-122862D01*
X43728Y-122711D01*
X43767Y-122540D01*
X43813Y-122357D01*
X43879Y-122173D01*
Y-122167D01*
X43885Y-122153D01*
X43898Y-122127D01*
X43912Y-122088D01*
X43931Y-122048D01*
X43957Y-122002D01*
X44010Y-121891D01*
X44076Y-121766D01*
X44148Y-121642D01*
X44220Y-121524D01*
X44305Y-121419D01*
X45440D01*
Y-123196D01*
X46155D01*
Y-120631D01*
D02*
G37*
G36*
X41651Y-121930D02*
X35596D01*
Y-126719D01*
D01*
Y-124725D01*
X40936D01*
Y-126719D01*
X41651D01*
Y-121930D01*
D02*
G37*
G36*
X36949Y-127224D02*
X33818D01*
D01*
X36949D01*
D02*
G37*
G36*
X41749D02*
X41743Y-127231D01*
X41710Y-127244D01*
X41671Y-127270D01*
X41612Y-127303D01*
X41539Y-127349D01*
X41461Y-127395D01*
X41369Y-127441D01*
X41277Y-127493D01*
X41074Y-127605D01*
X40870Y-127716D01*
X40772Y-127769D01*
X40680Y-127815D01*
X40595Y-127854D01*
X40523Y-127887D01*
X40516D01*
X40497Y-127900D01*
X40464Y-127913D01*
X40424Y-127926D01*
X40372Y-127946D01*
X40313Y-127972D01*
X40241Y-127998D01*
X40162Y-128031D01*
X40077Y-128057D01*
X39985Y-128090D01*
X39781Y-128156D01*
X39565Y-128221D01*
X39335Y-128280D01*
X39329D01*
X39303Y-128287D01*
X39257Y-128294D01*
X39204Y-128307D01*
X39132Y-128320D01*
X39047Y-128339D01*
X38955Y-128353D01*
X38850Y-128366D01*
X38738Y-128385D01*
X38614Y-128399D01*
X38489Y-128418D01*
X38351Y-128431D01*
X38069Y-128451D01*
X37781Y-128457D01*
X37774D01*
X37761D01*
X37728D01*
X37689D01*
X37643Y-128451D01*
X37584D01*
X37518Y-128444D01*
X37440Y-128438D01*
X37354Y-128431D01*
X37262Y-128418D01*
X37157Y-128405D01*
X37046Y-128392D01*
X36928Y-128372D01*
X36810Y-128353D01*
X36541Y-128300D01*
X36252Y-128241D01*
X35937Y-128156D01*
X35609Y-128057D01*
X35268Y-127939D01*
X34920Y-127795D01*
X34553Y-127631D01*
X34369Y-127539D01*
X34186Y-127441D01*
X34002Y-127336D01*
X33818Y-127224D01*
Y-127756D01*
X33825Y-127762D01*
X33851Y-127782D01*
X33897Y-127815D01*
X33956Y-127861D01*
X34028Y-127913D01*
X34120Y-127972D01*
X34225Y-128044D01*
X34337Y-128116D01*
X34468Y-128195D01*
X34606Y-128280D01*
X34756Y-128366D01*
X34914Y-128457D01*
X35085Y-128543D01*
X35262Y-128628D01*
X35445Y-128713D01*
X35636Y-128799D01*
X35649Y-128805D01*
X35681Y-128818D01*
X35741Y-128838D01*
X35813Y-128864D01*
X35911Y-128897D01*
X36022Y-128930D01*
X36154Y-128969D01*
X36292Y-129009D01*
X36449Y-129048D01*
X36619Y-129087D01*
X36797Y-129120D01*
X36980Y-129153D01*
X37177Y-129179D01*
X37374Y-129199D01*
X37577Y-129212D01*
X37787Y-129218D01*
X37886D01*
X37951Y-129212D01*
X38043D01*
X38141Y-129199D01*
X38260Y-129192D01*
X38391Y-129179D01*
X38528Y-129159D01*
X38673Y-129140D01*
X38830Y-129113D01*
X38994Y-129087D01*
X39322Y-129009D01*
X39493Y-128956D01*
X39663Y-128904D01*
X39676Y-128897D01*
X39709Y-128884D01*
X39768Y-128864D01*
X39847Y-128831D01*
X39939Y-128792D01*
X40050Y-128746D01*
X40175Y-128687D01*
X40319Y-128621D01*
X40470Y-128549D01*
X40634Y-128464D01*
X40805Y-128366D01*
X40988Y-128267D01*
X41172Y-128149D01*
X41362Y-128031D01*
X41553Y-127900D01*
X41749Y-127756D01*
Y-127224D01*
D02*
G37*
G36*
Y-129218D02*
X38219D01*
X41749D01*
D01*
D02*
G37*
G36*
X45630Y-126942D02*
X44883D01*
Y-129232D01*
X45630D01*
Y-126942D01*
D02*
G37*
G36*
X30941Y-125496D02*
X26454D01*
Y-126237D01*
X29216D01*
X29222D01*
X29236D01*
X29262D01*
X29288D01*
X29367Y-126243D01*
X29465D01*
X29570Y-126257D01*
X29675Y-126270D01*
X29774Y-126283D01*
X29859Y-126309D01*
X29865D01*
X29892Y-126322D01*
X29924Y-126342D01*
X29970Y-126368D01*
X30023Y-126408D01*
X30075Y-126447D01*
X30128Y-126506D01*
X30174Y-126572D01*
X30180Y-126578D01*
X30193Y-126604D01*
X30213Y-126644D01*
X30239Y-126696D01*
X30259Y-126762D01*
X30279Y-126840D01*
X30292Y-126926D01*
X30298Y-127018D01*
Y-127064D01*
X30292Y-127096D01*
Y-127136D01*
X30285Y-127182D01*
X30259Y-127287D01*
X30226Y-127411D01*
X30167Y-127542D01*
X30095Y-127667D01*
X30042Y-127733D01*
X29990Y-127792D01*
X29983D01*
X29977Y-127805D01*
X29957Y-127818D01*
X29931Y-127838D01*
X29898Y-127864D01*
X29859Y-127890D01*
X29806Y-127916D01*
X29754Y-127943D01*
X29688Y-127975D01*
X29616Y-128002D01*
X29531Y-128028D01*
X29445Y-128054D01*
X29347Y-128074D01*
X29236Y-128087D01*
X29124Y-128093D01*
X28999Y-128100D01*
X26454D01*
Y-128841D01*
X29301D01*
X29308D01*
X29321D01*
X29347D01*
X29386D01*
X29426Y-128848D01*
X29472D01*
X29583Y-128861D01*
X29701Y-128887D01*
X29826Y-128920D01*
X29944Y-128966D01*
X30049Y-129025D01*
X30062Y-129032D01*
X30088Y-129058D01*
X30128Y-129104D01*
X30174Y-129163D01*
X30220Y-129248D01*
X30259Y-129346D01*
X30285Y-129471D01*
X30298Y-129615D01*
Y-129668D01*
X30292Y-129727D01*
X30279Y-129806D01*
X30259Y-129897D01*
X30226Y-129996D01*
X30187Y-130094D01*
X30128Y-130199D01*
X30121Y-130212D01*
X30095Y-130245D01*
X30062Y-130291D01*
X30003Y-130343D01*
X29937Y-130409D01*
X29852Y-130475D01*
X29754Y-130534D01*
X29642Y-130586D01*
X29636D01*
X29629Y-130593D01*
X29610Y-130599D01*
X29583Y-130606D01*
X29550Y-130613D01*
X29511Y-130626D01*
X29465Y-130632D01*
X29413Y-130645D01*
X29347Y-130658D01*
X29281Y-130665D01*
X29209Y-130678D01*
X29124Y-130685D01*
X29039Y-130691D01*
X28940Y-130698D01*
X28842Y-130704D01*
X28730D01*
X26454D01*
Y-131446D01*
X30843D01*
Y-130783D01*
X30233D01*
X30239Y-130770D01*
X30279Y-130744D01*
X30338Y-130698D01*
X30410Y-130632D01*
X30495Y-130553D01*
X30580Y-130462D01*
X30666Y-130357D01*
X30744Y-130232D01*
Y-130225D01*
X30751Y-130219D01*
X30764Y-130199D01*
X30777Y-130173D01*
X30790Y-130140D01*
X30810Y-130101D01*
X30843Y-130009D01*
X30882Y-129891D01*
X30908Y-129760D01*
X30935Y-129609D01*
X30941Y-129451D01*
Y-131446D01*
D01*
Y-129373D01*
X30935Y-129327D01*
X30928Y-129281D01*
X30915Y-129169D01*
X30889Y-129045D01*
X30856Y-128913D01*
X30803Y-128782D01*
X30738Y-128658D01*
Y-128651D01*
X30731Y-128645D01*
X30698Y-128605D01*
X30652Y-128553D01*
X30593Y-128481D01*
X30508Y-128408D01*
X30416Y-128336D01*
X30305Y-128271D01*
X30174Y-128211D01*
X30180Y-128205D01*
X30206Y-128185D01*
X30246Y-128159D01*
X30292Y-128113D01*
X30351Y-128067D01*
X30416Y-128002D01*
X30488Y-127929D01*
X30561Y-127844D01*
X30626Y-127752D01*
X30698Y-127647D01*
X30764Y-127536D01*
X30823Y-127418D01*
X30869Y-127287D01*
X30908Y-127149D01*
X30935Y-127005D01*
X30941Y-126854D01*
Y-129373D01*
Y-125496D01*
D02*
G37*
G36*
X47552Y-130078D02*
X43065D01*
Y-133640D01*
X47454D01*
Y-132971D01*
X46824D01*
X46831Y-132964D01*
X46857Y-132951D01*
X46890Y-132918D01*
X46936Y-132879D01*
X46995Y-132833D01*
X47054Y-132774D01*
X47119Y-132702D01*
X47192Y-132617D01*
X47257Y-132525D01*
X47323Y-132420D01*
X47382Y-132308D01*
X47441Y-132184D01*
X47487Y-132046D01*
X47520Y-131902D01*
X47546Y-131744D01*
X47552Y-131580D01*
Y-131515D01*
X47546Y-131475D01*
Y-131436D01*
X47533Y-131337D01*
X47520Y-131226D01*
X47493Y-131101D01*
X47454Y-130977D01*
X47408Y-130852D01*
Y-130845D01*
X47401Y-130839D01*
X47382Y-130799D01*
X47349Y-130740D01*
X47310Y-130662D01*
X47251Y-130583D01*
X47192Y-130498D01*
X47119Y-130419D01*
X47034Y-130353D01*
X47021Y-130347D01*
X46995Y-130327D01*
X46942Y-130301D01*
X46877Y-130262D01*
X46798Y-130222D01*
X46706Y-130189D01*
X46601Y-130150D01*
X46483Y-130124D01*
X46477D01*
X46444Y-130117D01*
X46391Y-130111D01*
X46319Y-130097D01*
X46221Y-130091D01*
X46162D01*
X46096Y-130084D01*
X46024D01*
X45939Y-130078D01*
X47552D01*
D02*
G37*
G36*
X40083Y-132662D02*
X35596D01*
Y-136225D01*
X39985D01*
Y-135555D01*
X39355D01*
X39362Y-135549D01*
X39388Y-135536D01*
X39421Y-135503D01*
X39467Y-135464D01*
X39526Y-135418D01*
X39585Y-135359D01*
X39650Y-135286D01*
X39722Y-135201D01*
X39788Y-135109D01*
X39854Y-135004D01*
X39913Y-134893D01*
X39972Y-134768D01*
X40018Y-134631D01*
X40050Y-134486D01*
X40077Y-134329D01*
X40083Y-134165D01*
Y-134099D01*
X40077Y-134060D01*
Y-134020D01*
X40064Y-133922D01*
X40050Y-133810D01*
X40024Y-133686D01*
X39985Y-133561D01*
X39939Y-133437D01*
Y-133430D01*
X39932Y-133423D01*
X39913Y-133384D01*
X39880Y-133325D01*
X39840Y-133246D01*
X39781Y-133168D01*
X39722Y-133082D01*
X39650Y-133004D01*
X39565Y-132938D01*
X39552Y-132931D01*
X39526Y-132912D01*
X39473Y-132886D01*
X39408Y-132846D01*
X39329Y-132807D01*
X39237Y-132774D01*
X39132Y-132735D01*
X39014Y-132708D01*
X39007D01*
X38974Y-132702D01*
X38922Y-132695D01*
X38850Y-132682D01*
X38752Y-132676D01*
X38693D01*
X38627Y-132669D01*
X38555D01*
X38469Y-132662D01*
X40083D01*
D02*
G37*
G36*
X30941Y-132357D02*
X26356D01*
D01*
X26454D01*
Y-133132D01*
X26467Y-133138D01*
X26493Y-133151D01*
X26546Y-133171D01*
X26612Y-133191D01*
X26690Y-133217D01*
X26782Y-133243D01*
X26887Y-133263D01*
X27005Y-133276D01*
X26999Y-133282D01*
X26992Y-133296D01*
X26972Y-133315D01*
X26946Y-133348D01*
X26920Y-133387D01*
X26880Y-133427D01*
X26808Y-133532D01*
X26723Y-133656D01*
X26638Y-133788D01*
X26566Y-133932D01*
X26500Y-134076D01*
Y-134083D01*
X26493Y-134096D01*
X26487Y-134116D01*
X26480Y-134142D01*
X26467Y-134175D01*
X26454Y-134221D01*
X26428Y-134319D01*
X26402Y-134443D01*
X26375Y-134581D01*
X26362Y-134732D01*
X26356Y-134896D01*
Y-136392D01*
Y-134968D01*
X26362Y-135014D01*
X26369Y-135073D01*
X26375Y-135145D01*
X26382Y-135224D01*
X26402Y-135303D01*
X26441Y-135487D01*
X26500Y-135670D01*
X26539Y-135756D01*
X26592Y-135847D01*
X26644Y-135926D01*
X26703Y-136005D01*
X26710Y-136011D01*
X26723Y-136024D01*
X26743Y-136038D01*
X26769Y-136064D01*
X26802Y-136097D01*
X26848Y-136129D01*
X26894Y-136162D01*
X26953Y-136195D01*
X27077Y-136267D01*
X27235Y-136333D01*
X27320Y-136359D01*
X27412Y-136372D01*
X27510Y-136385D01*
X27609Y-136392D01*
X27661D01*
X27727Y-136385D01*
X27806Y-136372D01*
X27897Y-136359D01*
X27996Y-136333D01*
X28094Y-136293D01*
X28199Y-136248D01*
X28212Y-136241D01*
X28245Y-136221D01*
X28291Y-136188D01*
X28357Y-136143D01*
X28422Y-136090D01*
X28494Y-136024D01*
X28560Y-135952D01*
X28626Y-135867D01*
X28632Y-135854D01*
X28652Y-135821D01*
X28684Y-135775D01*
X28717Y-135710D01*
X28757Y-135631D01*
X28796Y-135539D01*
X28835Y-135434D01*
X28868Y-135329D01*
Y-135316D01*
X28881Y-135290D01*
X28888Y-135237D01*
X28908Y-135165D01*
X28921Y-135073D01*
X28940Y-134955D01*
X28960Y-134824D01*
X28980Y-134667D01*
Y-134653D01*
X28986Y-134627D01*
X28993Y-134581D01*
X28999Y-134522D01*
X29013Y-134443D01*
X29026Y-134358D01*
X29039Y-134266D01*
X29052Y-134161D01*
X29091Y-133945D01*
X29137Y-133729D01*
X29163Y-133624D01*
X29190Y-133519D01*
X29216Y-133427D01*
X29242Y-133341D01*
X29249D01*
X29268D01*
X29295D01*
X29321Y-133335D01*
X29386D01*
X29413D01*
X29432D01*
X29439D01*
X29452D01*
X29478D01*
X29504D01*
X29583Y-133348D01*
X29682Y-133361D01*
X29787Y-133387D01*
X29892Y-133427D01*
X29990Y-133479D01*
X30069Y-133551D01*
X30082Y-133564D01*
X30095Y-133578D01*
X30108Y-133604D01*
X30128Y-133637D01*
X30147Y-133669D01*
X30200Y-133761D01*
X30246Y-133879D01*
X30285Y-134024D01*
X30311Y-134194D01*
X30325Y-134391D01*
Y-134476D01*
X30318Y-134522D01*
Y-134568D01*
X30305Y-134686D01*
X30279Y-134811D01*
X30246Y-134935D01*
X30200Y-135060D01*
X30141Y-135165D01*
X30134Y-135178D01*
X30108Y-135205D01*
X30056Y-135250D01*
X29990Y-135303D01*
X29905Y-135362D01*
X29787Y-135427D01*
X29655Y-135480D01*
X29577Y-135506D01*
X29491Y-135532D01*
X29590Y-136261D01*
X29596D01*
X29610Y-136254D01*
X29636Y-136248D01*
X29669Y-136241D01*
X29708Y-136228D01*
X29754Y-136215D01*
X29859Y-136182D01*
X29977Y-136136D01*
X30101Y-136083D01*
X30226Y-136018D01*
X30338Y-135939D01*
X30344D01*
X30351Y-135926D01*
X30384Y-135893D01*
X30436Y-135841D01*
X30502Y-135769D01*
X30574Y-135677D01*
X30646Y-135565D01*
X30718Y-135434D01*
X30784Y-135283D01*
Y-135277D01*
X30790Y-135264D01*
X30797Y-135237D01*
X30810Y-135205D01*
X30823Y-135165D01*
X30836Y-135119D01*
X30849Y-135060D01*
X30862Y-134995D01*
X30876Y-134929D01*
X30889Y-134850D01*
X30915Y-134680D01*
X30935Y-134489D01*
X30941Y-134286D01*
Y-134194D01*
X30935Y-134148D01*
Y-134089D01*
X30922Y-133965D01*
X30908Y-133820D01*
X30882Y-133669D01*
X30849Y-133519D01*
X30803Y-133381D01*
Y-133374D01*
X30797Y-133368D01*
X30790Y-133348D01*
X30777Y-133322D01*
X30751Y-133263D01*
X30712Y-133184D01*
X30666Y-133099D01*
X30607Y-133013D01*
X30541Y-132935D01*
X30469Y-132863D01*
X30462Y-132856D01*
X30436Y-132836D01*
X30390Y-132803D01*
X30331Y-132771D01*
X30259Y-132731D01*
X30174Y-132692D01*
X30075Y-132653D01*
X29964Y-132626D01*
X29957D01*
X29924Y-132620D01*
X29878Y-132613D01*
X29806Y-132607D01*
X29714Y-132600D01*
X29596Y-132594D01*
X29524D01*
X29452Y-132587D01*
X29373D01*
X29281D01*
X28291D01*
X28278D01*
X28245D01*
X28192D01*
X28127D01*
X28042D01*
X27950D01*
X27845Y-132580D01*
X27740D01*
X27517Y-132574D01*
X27405D01*
X27300Y-132567D01*
X27202Y-132561D01*
X27117Y-132554D01*
X27038Y-132548D01*
X26979Y-132541D01*
X26966D01*
X26933Y-132535D01*
X26880Y-132521D01*
X26808Y-132502D01*
X26730Y-132475D01*
X26644Y-132443D01*
X26546Y-132403D01*
X26454Y-132357D01*
X30941D01*
D01*
D02*
G37*
G36*
X47552Y-134512D02*
X42967D01*
D01*
X45237D01*
X45178Y-134519D01*
X45105D01*
X45020Y-134526D01*
X44928Y-134532D01*
X44830Y-134545D01*
X44620Y-134571D01*
X44397Y-134617D01*
X44181Y-134683D01*
X44082Y-134722D01*
X43984Y-134768D01*
X43977D01*
X43964Y-134781D01*
X43938Y-134794D01*
X43905Y-134814D01*
X43866Y-134840D01*
X43813Y-134873D01*
X43708Y-134959D01*
X43584Y-135063D01*
X43459Y-135188D01*
X43341Y-135339D01*
X43229Y-135510D01*
Y-135516D01*
X43216Y-135529D01*
X43203Y-135555D01*
X43190Y-135595D01*
X43170Y-135641D01*
X43144Y-135693D01*
X43124Y-135752D01*
X43098Y-135824D01*
X43072Y-135897D01*
X43052Y-135982D01*
X43006Y-136159D01*
X42980Y-136356D01*
X42967Y-136566D01*
Y-136605D01*
X42974Y-136651D01*
Y-136717D01*
X42987Y-136795D01*
X43000Y-136887D01*
X43019Y-136986D01*
X43039Y-137097D01*
X43072Y-137215D01*
X43111Y-137333D01*
X43157Y-137458D01*
X43216Y-137583D01*
X43282Y-137707D01*
X43361Y-137825D01*
X43452Y-137943D01*
X43557Y-138055D01*
X43564Y-138061D01*
X43584Y-138081D01*
X43616Y-138107D01*
X43669Y-138140D01*
X43728Y-138186D01*
X43800Y-138232D01*
X43892Y-138284D01*
X43990Y-138337D01*
X44108Y-138389D01*
X44233Y-138442D01*
X44371Y-138488D01*
X44522Y-138534D01*
X44686Y-138567D01*
X44863Y-138593D01*
X45053Y-138612D01*
X45256Y-138619D01*
X45309D01*
X45375Y-138612D01*
X45453Y-138606D01*
X45558Y-138599D01*
X45676Y-138586D01*
X45801Y-138560D01*
X45939Y-138534D01*
X46083Y-138501D01*
X46234Y-138455D01*
X46385Y-138396D01*
X46536Y-138337D01*
X46680Y-138258D01*
X46818Y-138166D01*
X46942Y-138061D01*
X47060Y-137943D01*
X47067Y-137937D01*
X47080Y-137917D01*
X47106Y-137884D01*
X47139Y-137845D01*
X47172Y-137786D01*
X47218Y-137720D01*
X47264Y-137648D01*
X47310Y-137556D01*
X47356Y-137464D01*
X47395Y-137359D01*
X47441Y-137248D01*
X47474Y-137123D01*
X47506Y-136992D01*
X47533Y-136861D01*
X47546Y-136717D01*
X47552Y-136566D01*
Y-136992D01*
Y-136566D01*
Y-136526D01*
X47546Y-136480D01*
Y-136415D01*
X47533Y-136336D01*
X47520Y-136251D01*
X47500Y-136152D01*
X47480Y-136041D01*
X47447Y-135929D01*
X47408Y-135805D01*
X47356Y-135687D01*
X47303Y-135562D01*
X47231Y-135437D01*
X47152Y-135319D01*
X47060Y-135201D01*
X46955Y-135090D01*
X46949Y-135083D01*
X46929Y-135063D01*
X46896Y-135037D01*
X46844Y-134998D01*
X46785Y-134959D01*
X46713Y-134906D01*
X46627Y-134853D01*
X46529Y-134801D01*
X46417Y-134749D01*
X46293Y-134696D01*
X46162Y-134644D01*
X46017Y-134604D01*
X45860Y-134565D01*
X45689Y-134539D01*
X45506Y-134519D01*
X45315Y-134512D01*
X47552D01*
D02*
G37*
G36*
X32607Y-136694D02*
X26349D01*
D01*
X32607D01*
X26349Y-138452D01*
Y-138422D01*
Y-138452D01*
Y-141397D01*
D01*
X32607Y-139639D01*
Y-136694D01*
D02*
G37*
G36*
X47552Y-136992D02*
Y-138619D01*
D01*
Y-136992D01*
D02*
G37*
G36*
X35596Y-137143D02*
Y-137917D01*
X35609Y-137924D01*
X35636Y-137937D01*
X35688Y-137956D01*
X35754Y-137976D01*
X35832Y-138002D01*
X35924Y-138029D01*
X36029Y-138048D01*
X36147Y-138061D01*
X36141Y-138068D01*
X36134Y-138081D01*
X36114Y-138101D01*
X36088Y-138134D01*
X36062Y-138173D01*
X36022Y-138212D01*
X35950Y-138317D01*
X35865Y-138442D01*
X35780Y-138573D01*
X35708Y-138717D01*
X35642Y-138862D01*
Y-138868D01*
X35636Y-138881D01*
X35629Y-138901D01*
X35622Y-138927D01*
X35609Y-138960D01*
X35596Y-139006D01*
X35570Y-139104D01*
X35544Y-139229D01*
X35517Y-139367D01*
X35504Y-139518D01*
X35498Y-139682D01*
Y-141177D01*
Y-139754D01*
X35504Y-139800D01*
X35511Y-139859D01*
X35517Y-139931D01*
X35524Y-140010D01*
X35544Y-140088D01*
X35583Y-140272D01*
X35642Y-140456D01*
X35681Y-140541D01*
X35734Y-140633D01*
X35786Y-140712D01*
X35845Y-140790D01*
X35852Y-140797D01*
X35865Y-140810D01*
X35885Y-140823D01*
X35911Y-140849D01*
X35944Y-140882D01*
X35990Y-140915D01*
X36036Y-140948D01*
X36095Y-140981D01*
X36219Y-141053D01*
X36377Y-141118D01*
X36462Y-141145D01*
X36554Y-141158D01*
X36652Y-141171D01*
X36751Y-141177D01*
X40083D01*
X36803D01*
X36869Y-141171D01*
X36948Y-141158D01*
X37039Y-141145D01*
X37138Y-141118D01*
X37236Y-141079D01*
X37341Y-141033D01*
X37354Y-141026D01*
X37387Y-141007D01*
X37433Y-140974D01*
X37499Y-140928D01*
X37564Y-140876D01*
X37636Y-140810D01*
X37702Y-140738D01*
X37767Y-140653D01*
X37774Y-140639D01*
X37794Y-140607D01*
X37826Y-140561D01*
X37859Y-140495D01*
X37899Y-140416D01*
X37938Y-140325D01*
X37977Y-140220D01*
X38010Y-140115D01*
Y-140102D01*
X38023Y-140075D01*
X38030Y-140023D01*
X38050Y-139951D01*
X38063Y-139859D01*
X38082Y-139741D01*
X38102Y-139610D01*
X38122Y-139452D01*
Y-139439D01*
X38128Y-139413D01*
X38135Y-139367D01*
X38141Y-139308D01*
X38155Y-139229D01*
X38168Y-139144D01*
X38181Y-139052D01*
X38194Y-138947D01*
X38233Y-138731D01*
X38279Y-138514D01*
X38305Y-138409D01*
X38332Y-138304D01*
X38358Y-138212D01*
X38384Y-138127D01*
X38391D01*
X38410D01*
X38437D01*
X38463Y-138120D01*
X38528D01*
X38555D01*
X38574D01*
X38581D01*
X38594D01*
X38620D01*
X38647D01*
X38725Y-138134D01*
X38824Y-138147D01*
X38929Y-138173D01*
X39034Y-138212D01*
X39132Y-138265D01*
X39211Y-138337D01*
X39224Y-138350D01*
X39237Y-138363D01*
X39250Y-138389D01*
X39270Y-138422D01*
X39289Y-138455D01*
X39342Y-138547D01*
X39388Y-138665D01*
X39427Y-138809D01*
X39453Y-138980D01*
X39467Y-139177D01*
Y-139262D01*
X39460Y-139308D01*
Y-139354D01*
X39447Y-139472D01*
X39421Y-139596D01*
X39388Y-139721D01*
X39342Y-139846D01*
X39283Y-139951D01*
X39276Y-139964D01*
X39250Y-139990D01*
X39198Y-140036D01*
X39132Y-140088D01*
X39047Y-140147D01*
X38929Y-140213D01*
X38797Y-140266D01*
X38719Y-140292D01*
X38633Y-140318D01*
X38732Y-141046D01*
X38738D01*
X38752Y-141040D01*
X38778Y-141033D01*
X38811Y-141026D01*
X38850Y-141013D01*
X38896Y-141000D01*
X39001Y-140967D01*
X39119Y-140921D01*
X39244Y-140869D01*
X39368Y-140803D01*
X39480Y-140725D01*
X39486D01*
X39493Y-140712D01*
X39526Y-140679D01*
X39578Y-140626D01*
X39644Y-140554D01*
X39716Y-140462D01*
X39788Y-140351D01*
X39860Y-140220D01*
X39926Y-140069D01*
Y-140062D01*
X39932Y-140049D01*
X39939Y-140023D01*
X39952Y-139990D01*
X39965Y-139951D01*
X39978Y-139905D01*
X39991Y-139846D01*
X40005Y-139780D01*
X40018Y-139715D01*
X40031Y-139636D01*
X40057Y-139465D01*
X40077Y-139275D01*
X40083Y-139072D01*
Y-138980D01*
X40077Y-138934D01*
Y-138875D01*
X40064Y-138750D01*
X40050Y-138606D01*
X40024Y-138455D01*
X39991Y-138304D01*
X39945Y-138166D01*
Y-138160D01*
X39939Y-138153D01*
X39932Y-138134D01*
X39919Y-138107D01*
X39893Y-138048D01*
X39854Y-137970D01*
X39808Y-137884D01*
X39749Y-137799D01*
X39683Y-137720D01*
X39611Y-137648D01*
X39604Y-137642D01*
X39578Y-137622D01*
X39532Y-137589D01*
X39473Y-137556D01*
X39401Y-137517D01*
X39316Y-137478D01*
X39217Y-137438D01*
X39106Y-137412D01*
X39099D01*
X39066Y-137405D01*
X39020Y-137399D01*
X38948Y-137392D01*
X38857Y-137386D01*
X38738Y-137379D01*
X38666D01*
X38594Y-137373D01*
X38515D01*
X38423D01*
X37433D01*
X37420D01*
X37387D01*
X37334D01*
X37269D01*
X37184D01*
X37092D01*
X36987Y-137366D01*
X36882D01*
X36659Y-137359D01*
X36547D01*
X36442Y-137353D01*
X36344Y-137346D01*
X36259Y-137340D01*
X36180Y-137333D01*
X36121Y-137327D01*
X36108D01*
X36075Y-137320D01*
X36022Y-137307D01*
X35950Y-137287D01*
X35872Y-137261D01*
X35786Y-137228D01*
X35688Y-137189D01*
X35596Y-137143D01*
D02*
G37*
G36*
X47310Y-138783D02*
X46621Y-139045D01*
X46627Y-139058D01*
X46647Y-139091D01*
X46673Y-139144D01*
X46706Y-139216D01*
X46732Y-139295D01*
X46759Y-139386D01*
X46778Y-139485D01*
X46785Y-139590D01*
Y-139629D01*
X46778Y-139675D01*
X46765Y-139734D01*
X46745Y-139806D01*
X46719Y-139878D01*
X46687Y-139951D01*
X46634Y-140029D01*
X46627Y-140036D01*
X46608Y-140062D01*
X46575Y-140095D01*
X46529Y-140134D01*
X46470Y-140180D01*
X46404Y-140226D01*
X46319Y-140266D01*
X46227Y-140305D01*
X46221D01*
X46208Y-140311D01*
X46188Y-140318D01*
X46162Y-140325D01*
X46122Y-140331D01*
X46076Y-140344D01*
X45971Y-140364D01*
X45840Y-140384D01*
X45696Y-140403D01*
X45532Y-140416D01*
X45361Y-140423D01*
X43065D01*
Y-141164D01*
X47454D01*
Y-140495D01*
X46791D01*
X46805Y-140482D01*
X46831Y-140469D01*
X46857Y-140449D01*
X46942Y-140403D01*
X47034Y-140338D01*
X47139Y-140266D01*
X47244Y-140187D01*
X47329Y-140108D01*
X47369Y-140062D01*
X47401Y-140023D01*
X47408Y-140010D01*
X47428Y-139983D01*
X47447Y-139937D01*
X47480Y-139885D01*
X47506Y-139813D01*
X47526Y-139734D01*
X47546Y-139642D01*
X47552Y-139550D01*
Y-139511D01*
X47546Y-139485D01*
Y-139452D01*
X47539Y-139413D01*
X47520Y-139314D01*
X47493Y-139196D01*
X47447Y-139072D01*
X47388Y-138927D01*
X47310Y-138783D01*
D02*
G37*
G36*
X30843Y-142138D02*
X26454D01*
Y-142985D01*
X27300D01*
Y-142138D01*
X29996D01*
Y-142985D01*
X30843D01*
Y-142138D01*
D02*
G37*
G36*
X47552Y-141794D02*
X43777D01*
X44568D01*
X44541Y-141801D01*
X44502Y-141807D01*
X44449Y-141820D01*
X44384Y-141840D01*
X44312Y-141860D01*
X44233Y-141886D01*
X44141Y-141919D01*
X43957Y-141997D01*
X43859Y-142050D01*
X43761Y-142109D01*
X43662Y-142168D01*
X43564Y-142240D01*
X43479Y-142325D01*
X43393Y-142411D01*
X43387Y-142417D01*
X43374Y-142430D01*
X43354Y-142463D01*
X43328Y-142496D01*
X43295Y-142548D01*
X43256Y-142601D01*
X43223Y-142673D01*
X43183Y-142745D01*
X43137Y-142831D01*
X43105Y-142922D01*
X43065Y-143021D01*
X43033Y-143126D01*
X43006Y-143244D01*
X42987Y-143362D01*
X42974Y-143486D01*
X42967Y-143618D01*
Y-143657D01*
X42974Y-143703D01*
Y-143769D01*
X42987Y-143841D01*
X43000Y-143933D01*
X43013Y-144031D01*
X43039Y-144136D01*
X43072Y-144247D01*
X43111Y-144366D01*
X43157Y-144484D01*
X43216Y-144608D01*
X43282Y-144726D01*
X43361Y-144844D01*
X43446Y-144956D01*
X43551Y-145061D01*
X43557Y-145067D01*
X43577Y-145087D01*
X43610Y-145113D01*
X43662Y-145146D01*
X43721Y-145185D01*
X43793Y-145231D01*
X43885Y-145284D01*
X43984Y-145330D01*
X44095Y-145382D01*
X44220Y-145435D01*
X44358Y-145481D01*
X44509Y-145520D01*
X44673Y-145553D01*
X44850Y-145579D01*
X45040Y-145599D01*
X45237Y-145605D01*
X47552D01*
Y-143545D01*
X47546Y-143500D01*
X47539Y-143441D01*
X47533Y-143368D01*
X47520Y-143290D01*
X47506Y-143204D01*
X47461Y-143021D01*
X47395Y-142824D01*
X47356Y-142726D01*
X47310Y-142627D01*
X47251Y-142535D01*
X47185Y-142450D01*
X47179Y-142443D01*
X47165Y-142430D01*
X47146Y-142404D01*
X47119Y-142378D01*
X47080Y-142339D01*
X47034Y-142299D01*
X46982Y-142253D01*
X46923Y-142207D01*
X46850Y-142155D01*
X46778Y-142109D01*
X46693Y-142056D01*
X46601Y-142010D01*
X46503Y-141971D01*
X46398Y-141932D01*
X46280Y-141892D01*
X46162Y-141866D01*
X46050Y-142588D01*
X46057D01*
X46070Y-142594D01*
X46090Y-142601D01*
X46122Y-142607D01*
X46201Y-142634D01*
X46299Y-142673D01*
X46404Y-142726D01*
X46516Y-142785D01*
X46621Y-142863D01*
X46713Y-142955D01*
X46726Y-142968D01*
X46752Y-143001D01*
X46785Y-143060D01*
X46831Y-143132D01*
X46870Y-143224D01*
X46909Y-143329D01*
X46936Y-143454D01*
X46942Y-143585D01*
Y-143637D01*
X46936Y-143677D01*
X46929Y-143729D01*
X46923Y-143782D01*
X46890Y-143913D01*
X46844Y-144057D01*
X46811Y-144129D01*
X46772Y-144208D01*
X46726Y-144280D01*
X46667Y-144359D01*
X46608Y-144431D01*
X46536Y-144497D01*
X46529Y-144503D01*
X46516Y-144510D01*
X46496Y-144529D01*
X46457Y-144549D01*
X46417Y-144575D01*
X46365Y-144608D01*
X46299Y-144641D01*
X46227Y-144667D01*
X46142Y-144700D01*
X46050Y-144733D01*
X45945Y-144766D01*
X45827Y-144792D01*
X45702Y-144812D01*
X45571Y-144831D01*
X45420Y-144838D01*
X45263Y-144844D01*
X45256D01*
X45224D01*
X45178D01*
X45119Y-144838D01*
X45046Y-144831D01*
X44961Y-144825D01*
X44869Y-144818D01*
X44771Y-144805D01*
X44561Y-144766D01*
X44345Y-144700D01*
X44246Y-144667D01*
X44148Y-144621D01*
X44056Y-144569D01*
X43977Y-144510D01*
X43971Y-144503D01*
X43957Y-144497D01*
X43938Y-144477D01*
X43918Y-144451D01*
X43885Y-144411D01*
X43853Y-144372D01*
X43813Y-144326D01*
X43780Y-144274D01*
X43702Y-144142D01*
X43643Y-143992D01*
X43616Y-143906D01*
X43597Y-143821D01*
X43584Y-143723D01*
X43577Y-143624D01*
Y-143585D01*
X43584Y-143552D01*
Y-143513D01*
X43590Y-143473D01*
X43610Y-143368D01*
X43643Y-143257D01*
X43689Y-143132D01*
X43754Y-143014D01*
X43839Y-142896D01*
X43846Y-142889D01*
X43853Y-142883D01*
X43892Y-142850D01*
X43957Y-142798D01*
X43997Y-142771D01*
X44043Y-142739D01*
X44102Y-142706D01*
X44161Y-142673D01*
X44227Y-142647D01*
X44305Y-142614D01*
X44384Y-142588D01*
X44476Y-142561D01*
X44568Y-142542D01*
X44673Y-142522D01*
X44574Y-141794D01*
X47552D01*
D02*
G37*
G36*
X41651Y-142102D02*
X35596D01*
Y-142791D01*
X36147D01*
X36141Y-142798D01*
X36121Y-142811D01*
X36088Y-142837D01*
X36049Y-142870D01*
X35996Y-142916D01*
X35944Y-142968D01*
X35885Y-143027D01*
X35826Y-143099D01*
X35760Y-143185D01*
X35701Y-143277D01*
X35649Y-143375D01*
X35603Y-143486D01*
X35557Y-143611D01*
X35524Y-143736D01*
X35504Y-143874D01*
X35498Y-144024D01*
Y-145907D01*
Y-144077D01*
X35504Y-144116D01*
Y-144162D01*
X35511Y-144215D01*
X35524Y-144274D01*
X35537Y-144339D01*
X35570Y-144490D01*
X35622Y-144654D01*
X35695Y-144818D01*
X35734Y-144903D01*
X35786Y-144989D01*
X35793Y-144995D01*
X35800Y-145008D01*
X35819Y-145028D01*
X35839Y-145061D01*
X35872Y-145100D01*
X35904Y-145140D01*
X35996Y-145238D01*
X36108Y-145350D01*
X36246Y-145461D01*
X36410Y-145573D01*
X36593Y-145671D01*
X36600D01*
X36619Y-145684D01*
X36646Y-145691D01*
X36685Y-145710D01*
X36731Y-145723D01*
X36790Y-145743D01*
X36862Y-145769D01*
X36934Y-145789D01*
X37020Y-145809D01*
X37111Y-145835D01*
X37210Y-145855D01*
X37315Y-145868D01*
X37538Y-145894D01*
X37781Y-145907D01*
X35498D01*
X41651D01*
X37846D01*
X37892Y-145901D01*
X37951D01*
X38017Y-145894D01*
X38096Y-145887D01*
X38181Y-145881D01*
X38364Y-145855D01*
X38561Y-145815D01*
X38771Y-145763D01*
X38974Y-145691D01*
X38981D01*
X39001Y-145677D01*
X39027Y-145664D01*
X39066Y-145651D01*
X39106Y-145625D01*
X39158Y-145599D01*
X39276Y-145527D01*
X39414Y-145435D01*
X39545Y-145323D01*
X39676Y-145192D01*
X39794Y-145035D01*
X39801Y-145028D01*
X39808Y-145015D01*
X39821Y-144989D01*
X39840Y-144956D01*
X39860Y-144917D01*
X39886Y-144864D01*
X39913Y-144812D01*
X39939Y-144746D01*
X39991Y-144602D01*
X40037Y-144438D01*
X40070Y-144254D01*
X40083Y-144156D01*
Y-143992D01*
X40077Y-143913D01*
X40064Y-143821D01*
X40044Y-143710D01*
X40011Y-143591D01*
X39972Y-143467D01*
X39913Y-143349D01*
Y-143342D01*
X39906Y-143336D01*
X39880Y-143296D01*
X39847Y-143244D01*
X39794Y-143172D01*
X39729Y-143093D01*
X39657Y-143008D01*
X39571Y-142922D01*
X39473Y-142844D01*
X41651D01*
Y-142102D01*
D02*
G37*
G36*
X49120Y-146517D02*
X48274D01*
Y-147258D01*
X47454D01*
Y-146517D01*
X43065D01*
Y-147258D01*
X49120D01*
Y-146517D01*
D02*
G37*
G36*
X30941Y-144067D02*
X26356D01*
D01*
X27674D01*
X27602Y-144080D01*
X27510Y-144093D01*
X27405Y-144120D01*
X27287Y-144159D01*
X27163Y-144218D01*
X27038Y-144290D01*
X27031D01*
X27025Y-144303D01*
X26985Y-144329D01*
X26926Y-144382D01*
X26854Y-144448D01*
X26769Y-144539D01*
X26684Y-144644D01*
X26605Y-144769D01*
X26533Y-144913D01*
Y-144920D01*
X26526Y-144933D01*
X26520Y-144953D01*
X26507Y-144985D01*
X26493Y-145025D01*
X26474Y-145071D01*
X26461Y-145123D01*
X26448Y-145182D01*
X26415Y-145320D01*
X26382Y-145477D01*
X26362Y-145648D01*
X26356Y-145838D01*
Y-145923D01*
X26362Y-145983D01*
X26369Y-146048D01*
X26375Y-146133D01*
X26382Y-146225D01*
X26402Y-146324D01*
X26441Y-146534D01*
X26500Y-146757D01*
X26539Y-146862D01*
X26592Y-146967D01*
X26644Y-147058D01*
X26703Y-147150D01*
X26710Y-147157D01*
X26723Y-147170D01*
X26743Y-147190D01*
X26769Y-147222D01*
X26808Y-147255D01*
X26854Y-147295D01*
X26907Y-147341D01*
X26966Y-147386D01*
X27038Y-147439D01*
X27117Y-147485D01*
X27202Y-147531D01*
X27300Y-147577D01*
X27399Y-147616D01*
X27510Y-147655D01*
X27635Y-147688D01*
X27760Y-147714D01*
D01*
X27878Y-146980D01*
X27871D01*
X27858Y-146973D01*
X27838D01*
X27806Y-146967D01*
X27766Y-146960D01*
X27727Y-146947D01*
X27628Y-146914D01*
X27517Y-146868D01*
X27399Y-146809D01*
X27294Y-146737D01*
X27195Y-146639D01*
Y-146632D01*
X27189Y-146625D01*
X27163Y-146586D01*
X27123Y-146520D01*
X27084Y-146429D01*
X27038Y-146317D01*
X27005Y-146179D01*
X26979Y-146022D01*
X26966Y-145845D01*
Y-145792D01*
X26972Y-145759D01*
Y-145714D01*
X26979Y-145668D01*
X26992Y-145556D01*
X27018Y-145431D01*
X27051Y-145300D01*
X27104Y-145182D01*
X27169Y-145077D01*
X27176Y-145064D01*
X27209Y-145038D01*
X27248Y-144999D01*
X27307Y-144953D01*
X27379Y-144907D01*
X27464Y-144867D01*
X27556Y-144841D01*
X27661Y-144828D01*
X27674D01*
X27700D01*
X27753Y-144841D01*
X27806Y-144854D01*
X27871Y-144880D01*
X27937Y-144920D01*
X28002Y-144979D01*
X28061Y-145051D01*
X28068Y-145058D01*
X28081Y-145084D01*
X28101Y-145130D01*
X28114Y-145163D01*
X28127Y-145202D01*
X28147Y-145254D01*
X28166Y-145307D01*
X28186Y-145366D01*
X28206Y-145438D01*
X28232Y-145517D01*
X28258Y-145609D01*
X28284Y-145707D01*
X28311Y-145812D01*
Y-145819D01*
X28317Y-145845D01*
X28330Y-145891D01*
X28343Y-145943D01*
X28363Y-146009D01*
X28383Y-146088D01*
X28409Y-146173D01*
X28435Y-146265D01*
X28494Y-146448D01*
X28553Y-146639D01*
X28580Y-146730D01*
X28612Y-146809D01*
X28645Y-146888D01*
X28671Y-146953D01*
Y-146960D01*
X28678Y-146967D01*
X28698Y-147006D01*
X28730Y-147058D01*
X28783Y-147131D01*
X28842Y-147209D01*
X28908Y-147288D01*
X28993Y-147367D01*
X29085Y-147432D01*
X29098Y-147439D01*
X29131Y-147459D01*
X29190Y-147485D01*
X29262Y-147511D01*
X29347Y-147537D01*
X29445Y-147564D01*
X29557Y-147583D01*
X29675Y-147590D01*
X29682D01*
X29688D01*
X29728D01*
X29780Y-147583D01*
X29852Y-147570D01*
X29937Y-147557D01*
X30029Y-147537D01*
X30128Y-147504D01*
X30220Y-147459D01*
X30233Y-147452D01*
X30259Y-147432D01*
X30305Y-147406D01*
X30364Y-147360D01*
X30430Y-147314D01*
X30502Y-147249D01*
X30567Y-147177D01*
X30633Y-147091D01*
X30639Y-147085D01*
X30652Y-147058D01*
X30679Y-147019D01*
X30705Y-146967D01*
X30738Y-146901D01*
X30777Y-146822D01*
X30817Y-146724D01*
X30849Y-146619D01*
Y-146612D01*
X30856Y-146606D01*
X30862Y-146566D01*
X30876Y-146507D01*
X30895Y-146422D01*
X30915Y-146330D01*
X30928Y-146219D01*
X30935Y-146101D01*
X30941Y-145976D01*
Y-147714D01*
D01*
Y-145891D01*
X30935Y-145845D01*
Y-145792D01*
X30922Y-145668D01*
X30902Y-145530D01*
X30876Y-145372D01*
X30843Y-145222D01*
X30790Y-145071D01*
Y-145064D01*
X30784Y-145051D01*
X30777Y-145031D01*
X30764Y-145005D01*
X30731Y-144939D01*
X30685Y-144848D01*
X30626Y-144756D01*
X30554Y-144664D01*
X30475Y-144572D01*
X30384Y-144493D01*
X30370Y-144487D01*
X30338Y-144461D01*
X30279Y-144428D01*
X30206Y-144388D01*
X30108Y-144343D01*
X29990Y-144303D01*
X29859Y-144264D01*
X29708Y-144231D01*
X29610Y-144959D01*
X29616D01*
X29623D01*
X29662Y-144972D01*
X29728Y-144985D01*
X29800Y-145012D01*
X29885Y-145051D01*
X29970Y-145104D01*
X30056Y-145169D01*
X30134Y-145248D01*
X30141Y-145261D01*
X30167Y-145294D01*
X30200Y-145346D01*
X30233Y-145418D01*
X30272Y-145517D01*
X30298Y-145635D01*
X30325Y-145766D01*
X30331Y-145923D01*
Y-146009D01*
X30325Y-146048D01*
Y-146094D01*
X30311Y-146206D01*
X30292Y-146324D01*
X30259Y-146448D01*
X30220Y-146560D01*
X30193Y-146606D01*
X30160Y-146652D01*
X30154Y-146658D01*
X30128Y-146685D01*
X30095Y-146717D01*
X30049Y-146757D01*
X29990Y-146803D01*
X29918Y-146835D01*
X29846Y-146862D01*
X29760Y-146868D01*
X29754D01*
X29734D01*
X29708Y-146862D01*
X29675Y-146855D01*
X29590Y-146829D01*
X29544Y-146809D01*
X29498Y-146783D01*
X29491Y-146776D01*
X29478Y-146763D01*
X29459Y-146744D01*
X29432Y-146711D01*
X29400Y-146671D01*
X29367Y-146619D01*
X29334Y-146560D01*
X29301Y-146494D01*
Y-146488D01*
X29295Y-146468D01*
X29281Y-146429D01*
X29262Y-146370D01*
X29249Y-146330D01*
X29236Y-146284D01*
X29222Y-146232D01*
X29203Y-146173D01*
X29183Y-146101D01*
X29163Y-146022D01*
X29137Y-145937D01*
X29111Y-145838D01*
Y-145832D01*
X29104Y-145805D01*
X29091Y-145766D01*
X29078Y-145707D01*
X29058Y-145648D01*
X29039Y-145576D01*
X29013Y-145491D01*
X28986Y-145405D01*
X28934Y-145222D01*
X28875Y-145045D01*
X28848Y-144959D01*
X28816Y-144880D01*
X28789Y-144808D01*
X28763Y-144743D01*
Y-144736D01*
X28757Y-144730D01*
X28737Y-144690D01*
X28711Y-144631D01*
X28665Y-144566D01*
X28612Y-144487D01*
X28547Y-144402D01*
X28468Y-144323D01*
X28376Y-144251D01*
X28363Y-144244D01*
X28330Y-144225D01*
X28278Y-144192D01*
X28199Y-144159D01*
X28107Y-144126D01*
X28002Y-144093D01*
X27878Y-144074D01*
X27740Y-144067D01*
X30941D01*
D01*
D02*
G37*
G36*
X37846Y-146504D02*
X35498D01*
Y-150611D01*
Y-148597D01*
X35504Y-148643D01*
Y-148708D01*
X35517Y-148787D01*
X35530Y-148879D01*
X35550Y-148977D01*
X35570Y-149089D01*
X35603Y-149207D01*
X35642Y-149325D01*
X35688Y-149450D01*
X35747Y-149574D01*
X35813Y-149699D01*
X35891Y-149817D01*
X35983Y-149935D01*
X36088Y-150047D01*
X36095Y-150053D01*
X36114Y-150073D01*
X36147Y-150099D01*
X36200Y-150132D01*
X36259Y-150178D01*
X36331Y-150224D01*
X36423Y-150276D01*
X36521Y-150329D01*
X36639Y-150381D01*
X36764Y-150434D01*
X36902Y-150479D01*
X37053Y-150525D01*
X37216Y-150558D01*
X37394Y-150584D01*
X37584Y-150604D01*
X37787Y-150611D01*
X37840D01*
D01*
X40083D01*
X37840D01*
X37905Y-150604D01*
X37984Y-150598D01*
X38089Y-150591D01*
X38207Y-150578D01*
X38332Y-150552D01*
X38469Y-150525D01*
X38614Y-150493D01*
X38765Y-150447D01*
X38916Y-150388D01*
X39066Y-150329D01*
X39211Y-150250D01*
X39349Y-150158D01*
X39473Y-150053D01*
X39591Y-149935D01*
X39598Y-149928D01*
X39611Y-149909D01*
X39637Y-149876D01*
X39670Y-149837D01*
X39703Y-149777D01*
X39749Y-149712D01*
X39794Y-149640D01*
X39840Y-149548D01*
X39886Y-149456D01*
X39926Y-149351D01*
X39972Y-149240D01*
X40005Y-149115D01*
X40037Y-148984D01*
X40064Y-148853D01*
X40077Y-148708D01*
X40083Y-148557D01*
Y-148518D01*
X40077Y-148472D01*
Y-148407D01*
X40064Y-148328D01*
X40050Y-148242D01*
X40031Y-148144D01*
X40011Y-148033D01*
X39978Y-147921D01*
X39939Y-147796D01*
X39886Y-147678D01*
X39834Y-147554D01*
X39762Y-147429D01*
X39683Y-147311D01*
X39591Y-147193D01*
X39486Y-147081D01*
X39480Y-147075D01*
X39460Y-147055D01*
X39427Y-147029D01*
X39375Y-146990D01*
X39316Y-146950D01*
X39244Y-146898D01*
X39158Y-146845D01*
X39060Y-146793D01*
X38948Y-146740D01*
X38824Y-146688D01*
X38693Y-146635D01*
X38548Y-146596D01*
X38391Y-146557D01*
X38220Y-146530D01*
X38037Y-146511D01*
X37846Y-146504D01*
D02*
G37*
G36*
X30941Y-148318D02*
X24775D01*
D01*
X28612D01*
X28566Y-148325D01*
X28507D01*
X28435Y-148331D01*
X28357Y-148338D01*
X28271Y-148351D01*
X28088Y-148377D01*
X27884Y-148423D01*
X27674Y-148482D01*
X27464Y-148561D01*
X27458D01*
X27438Y-148574D01*
X27412Y-148587D01*
X27379Y-148607D01*
X27333Y-148633D01*
X27281Y-148659D01*
X27163Y-148738D01*
X27025Y-148836D01*
X26887Y-148961D01*
X26756Y-149099D01*
X26638Y-149263D01*
Y-149269D01*
X26625Y-149282D01*
X26612Y-149309D01*
X26592Y-149341D01*
X26572Y-149387D01*
X26546Y-149433D01*
X26526Y-149492D01*
X26500Y-149558D01*
X26448Y-149702D01*
X26402Y-149866D01*
X26369Y-150043D01*
X26362Y-150135D01*
X26356Y-150233D01*
Y-150299D01*
X26362Y-150365D01*
X26375Y-150457D01*
X26395Y-150561D01*
X26421Y-150673D01*
X26454Y-150791D01*
X26507Y-150903D01*
X26513Y-150916D01*
X26533Y-150949D01*
X26572Y-151007D01*
X26618Y-151073D01*
X26671Y-151152D01*
X26743Y-151231D01*
X26822Y-151309D01*
X26907Y-151381D01*
X24775D01*
Y-152123D01*
X30843D01*
Y-151447D01*
X30272D01*
X30279Y-151434D01*
X30318Y-151408D01*
X30384Y-151355D01*
X30456Y-151290D01*
X30534Y-151211D01*
X30620Y-151119D01*
X30698Y-151021D01*
X30771Y-150909D01*
Y-150903D01*
X30777Y-150896D01*
X30797Y-150857D01*
X30823Y-150791D01*
X30856Y-150706D01*
X30889Y-150601D01*
X30915Y-150476D01*
X30935Y-150332D01*
X30941Y-150181D01*
Y-150128D01*
X30935Y-150089D01*
Y-150037D01*
X30928Y-149978D01*
X30915Y-149919D01*
X30902Y-149846D01*
X30869Y-149689D01*
X30817Y-149525D01*
X30744Y-149354D01*
X30698Y-149269D01*
X30646Y-149190D01*
Y-149184D01*
X30633Y-149171D01*
X30613Y-149151D01*
X30593Y-149118D01*
X30528Y-149039D01*
X30436Y-148948D01*
X30318Y-148843D01*
X30180Y-148731D01*
X30016Y-148633D01*
X29833Y-148541D01*
X29826D01*
X29806Y-148534D01*
X29780Y-148521D01*
X29741Y-148508D01*
X29695Y-148488D01*
X29636Y-148469D01*
X29564Y-148449D01*
X29491Y-148429D01*
X29406Y-148410D01*
X29321Y-148390D01*
X29124Y-148351D01*
X28908Y-148325D01*
X28678Y-148318D01*
X30941D01*
D01*
D02*
G37*
G36*
X49120Y-148459D02*
X43065D01*
Y-150949D01*
Y-149233D01*
X48136D01*
X43065Y-151004D01*
Y-151726D01*
X48221Y-153471D01*
X43065D01*
Y-153435D01*
Y-153471D01*
Y-154245D01*
X49120D01*
Y-148459D01*
D02*
G37*
G36*
X41651Y-151477D02*
Y-154297D01*
X39473D01*
X39480Y-154291D01*
X39499Y-154271D01*
X39532Y-154245D01*
X39571Y-154206D01*
X39617Y-154153D01*
X39663Y-154094D01*
X39722Y-154022D01*
X39781Y-153937D01*
X39834Y-153851D01*
X39893Y-153753D01*
X39939Y-153641D01*
X39991Y-153530D01*
X40024Y-153405D01*
X40057Y-153274D01*
X40077Y-153136D01*
X40083Y-152992D01*
Y-152913D01*
X40077Y-152867D01*
X40070Y-152821D01*
X40057Y-152703D01*
X40037Y-152572D01*
X39998Y-152434D01*
X39952Y-152290D01*
X39886Y-152152D01*
Y-152146D01*
X39880Y-152139D01*
X39867Y-152119D01*
X39854Y-152093D01*
X39808Y-152028D01*
X39749Y-151949D01*
X39676Y-151870D01*
X39585Y-151778D01*
X39473Y-151700D01*
X39355Y-151634D01*
X39349D01*
X39342Y-151627D01*
X39322Y-151621D01*
X39296Y-151608D01*
X39257Y-151595D01*
X39217Y-151582D01*
X39165Y-151568D01*
X39106Y-151555D01*
X39040Y-151542D01*
X38968Y-151529D01*
X38889Y-151516D01*
X38797Y-151503D01*
X38706Y-151490D01*
X38601Y-151483D01*
X38489Y-151477D01*
X41651D01*
X35596D01*
Y-152290D01*
Y-152218D01*
X38371D01*
X38378D01*
X38397D01*
X38423D01*
X38463Y-152224D01*
X38509D01*
X38561Y-152231D01*
X38679Y-152251D01*
X38817Y-152277D01*
X38948Y-152323D01*
X39079Y-152382D01*
X39132Y-152415D01*
X39184Y-152461D01*
X39198Y-152474D01*
X39224Y-152506D01*
X39263Y-152559D01*
X39316Y-152638D01*
X39362Y-152736D01*
X39401Y-152848D01*
X39427Y-152985D01*
X39440Y-153143D01*
Y-153195D01*
X39434Y-153261D01*
X39421Y-153346D01*
X39394Y-153438D01*
X39368Y-153543D01*
X39322Y-153655D01*
X39263Y-153766D01*
X39257Y-153779D01*
X39230Y-153812D01*
X39191Y-153864D01*
X39138Y-153923D01*
X39073Y-153996D01*
X38994Y-154061D01*
X38902Y-154127D01*
X38797Y-154179D01*
X38784Y-154186D01*
X38765Y-154192D01*
X38745Y-154199D01*
X38679Y-154219D01*
X38587Y-154238D01*
X38476Y-154258D01*
X38338Y-154278D01*
X38174Y-154291D01*
X37990Y-154297D01*
X35596D01*
Y-154245D01*
Y-154297D01*
Y-155039D01*
X41651D01*
Y-151477D01*
D02*
G37*
G36*
X32371Y-152752D02*
X26395D01*
D01*
X26461D01*
Y-152766D01*
X26448Y-152805D01*
X26441Y-152864D01*
X26428Y-152943D01*
X26415Y-153028D01*
X26408Y-153120D01*
X26395Y-153317D01*
Y-153382D01*
X26402Y-153454D01*
X26408Y-153546D01*
X26428Y-153651D01*
X26448Y-153756D01*
X26480Y-153855D01*
X26520Y-153946D01*
X26526Y-153953D01*
X26546Y-153979D01*
X26572Y-154019D01*
X26612Y-154071D01*
X26658Y-154123D01*
X26717Y-154176D01*
X26782Y-154222D01*
X26854Y-154261D01*
X26867Y-154268D01*
X26900Y-154274D01*
X26926Y-154281D01*
X26959Y-154288D01*
X26999Y-154294D01*
X27044Y-154301D01*
X27097Y-154314D01*
X27163Y-154320D01*
X27235Y-154327D01*
X27314Y-154333D01*
X27405Y-154340D01*
X27504D01*
X27615Y-154347D01*
X27733D01*
X30266D01*
Y-154898D01*
X30843D01*
Y-154347D01*
X31925D01*
X32371Y-153605D01*
Y-154898D01*
Y-152752D01*
D02*
G37*
G36*
Y-155101D02*
X26395D01*
D01*
X26461D01*
Y-155114D01*
X26448Y-155153D01*
X26441Y-155212D01*
X26428Y-155291D01*
X26415Y-155377D01*
X26408Y-155468D01*
X26395Y-155665D01*
Y-155731D01*
X26402Y-155803D01*
X26408Y-155895D01*
X26428Y-156000D01*
X26448Y-156105D01*
X26480Y-156203D01*
X26520Y-156295D01*
X26526Y-156301D01*
X26546Y-156328D01*
X26572Y-156367D01*
X26612Y-156420D01*
X26658Y-156472D01*
X26717Y-156525D01*
X26782Y-156570D01*
X26854Y-156610D01*
X26867Y-156616D01*
X26900Y-156623D01*
X26926Y-156629D01*
X26959Y-156636D01*
X26999Y-156643D01*
X27044Y-156649D01*
X27097Y-156662D01*
X27163Y-156669D01*
X27235Y-156675D01*
X27314Y-156682D01*
X27405Y-156688D01*
X27504D01*
X27615Y-156695D01*
X27733D01*
X30266D01*
Y-157246D01*
X30843D01*
Y-156695D01*
X31925D01*
X32371Y-155954D01*
Y-157197D01*
Y-155101D01*
D02*
G37*
G36*
X37302Y-156036D02*
X35498D01*
Y-160851D01*
D01*
Y-158351D01*
X35504Y-158411D01*
Y-158483D01*
X35511Y-158561D01*
X35517Y-158653D01*
X35530Y-158758D01*
X35557Y-158975D01*
X35596Y-159204D01*
X35655Y-159434D01*
X35734Y-159657D01*
Y-159663D01*
X35747Y-159683D01*
X35760Y-159709D01*
X35780Y-159749D01*
X35806Y-159795D01*
X35832Y-159847D01*
X35911Y-159972D01*
X36009Y-160109D01*
X36134Y-160254D01*
X36278Y-160398D01*
X36449Y-160523D01*
X36456Y-160529D01*
X36469Y-160536D01*
X36495Y-160549D01*
X36534Y-160569D01*
X36580Y-160595D01*
X36633Y-160621D01*
X36698Y-160654D01*
X36770Y-160680D01*
X36843Y-160713D01*
X36928Y-160739D01*
X37118Y-160792D01*
X37321Y-160831D01*
X37433Y-160844D01*
X37545Y-160851D01*
X37610Y-160096D01*
X37604D01*
X37590D01*
X37564Y-160090D01*
X37531Y-160083D01*
X37492Y-160077D01*
X37453Y-160070D01*
X37341Y-160044D01*
X37223Y-160011D01*
X37098Y-159972D01*
X36974Y-159919D01*
X36856Y-159854D01*
X36843Y-159847D01*
X36810Y-159814D01*
X36757Y-159768D01*
X36692Y-159703D01*
X36613Y-159617D01*
X36541Y-159513D01*
X36462Y-159388D01*
X36390Y-159244D01*
Y-159237D01*
X36383Y-159224D01*
X36377Y-159204D01*
X36364Y-159171D01*
X36351Y-159132D01*
X36331Y-159086D01*
X36318Y-159034D01*
X36305Y-158975D01*
X36272Y-158837D01*
X36239Y-158673D01*
X36219Y-158502D01*
X36213Y-158312D01*
Y-158233D01*
X36219Y-158194D01*
Y-158148D01*
X36233Y-158043D01*
X36246Y-157919D01*
X36265Y-157781D01*
X36298Y-157643D01*
X36344Y-157512D01*
Y-157505D01*
X36351Y-157499D01*
X36357Y-157479D01*
X36370Y-157453D01*
X36403Y-157394D01*
X36442Y-157315D01*
X36495Y-157230D01*
X36560Y-157138D01*
X36633Y-157059D01*
X36718Y-156987D01*
X36731Y-156980D01*
X36757Y-156961D01*
X36810Y-156928D01*
X36875Y-156895D01*
X36954Y-156869D01*
X37039Y-156836D01*
X37138Y-156816D01*
X37236Y-156810D01*
X37243D01*
X37249D01*
X37282D01*
X37341Y-156816D01*
X37407Y-156830D01*
X37485Y-156849D01*
X37571Y-156882D01*
X37656Y-156921D01*
X37735Y-156980D01*
X37741Y-156987D01*
X37767Y-157013D01*
X37807Y-157053D01*
X37859Y-157112D01*
X37912Y-157184D01*
X37971Y-157282D01*
X38030Y-157394D01*
X38089Y-157525D01*
X38096Y-157538D01*
X38102Y-157551D01*
X38109Y-157577D01*
X38115Y-157604D01*
X38128Y-157643D01*
X38148Y-157695D01*
X38161Y-157748D01*
X38181Y-157820D01*
X38207Y-157892D01*
X38227Y-157984D01*
X38253Y-158082D01*
X38286Y-158194D01*
X38312Y-158312D01*
X38351Y-158450D01*
X38384Y-158601D01*
Y-158607D01*
X38391Y-158633D01*
X38404Y-158679D01*
X38417Y-158732D01*
X38437Y-158804D01*
X38456Y-158883D01*
X38482Y-158961D01*
X38509Y-159053D01*
X38568Y-159250D01*
X38633Y-159440D01*
X38666Y-159532D01*
X38699Y-159617D01*
X38732Y-159696D01*
X38765Y-159762D01*
Y-159768D01*
X38778Y-159782D01*
X38791Y-159801D01*
X38804Y-159834D01*
X38850Y-159913D01*
X38916Y-160005D01*
X39001Y-160116D01*
X39093Y-160221D01*
X39204Y-160326D01*
X39322Y-160411D01*
X39329D01*
X39335Y-160418D01*
X39355Y-160431D01*
X39381Y-160444D01*
X39453Y-160477D01*
X39545Y-160516D01*
X39657Y-160556D01*
X39788Y-160588D01*
X39932Y-160615D01*
X40083Y-160621D01*
X40090D01*
X40103D01*
X40129D01*
X40162Y-160615D01*
X40201D01*
X40247Y-160608D01*
X40365Y-160588D01*
X40497Y-160556D01*
X40634Y-160516D01*
X40785Y-160451D01*
X40936Y-160365D01*
X40942D01*
X40956Y-160352D01*
X40975Y-160339D01*
X41002Y-160319D01*
X41074Y-160254D01*
X41166Y-160169D01*
X41264Y-160064D01*
X41362Y-159932D01*
X41461Y-159782D01*
X41546Y-159604D01*
Y-159598D01*
X41553Y-159585D01*
X41566Y-159552D01*
X41579Y-159519D01*
X41592Y-159473D01*
X41612Y-159414D01*
X41631Y-159349D01*
X41651Y-159276D01*
X41671Y-159198D01*
X41690Y-159112D01*
X41723Y-158929D01*
X41749Y-158719D01*
X41756Y-158496D01*
Y-158384D01*
X41749Y-158325D01*
X41743Y-158253D01*
X41736Y-158181D01*
X41730Y-158096D01*
X41704Y-157912D01*
X41664Y-157709D01*
X41605Y-157505D01*
X41533Y-157308D01*
Y-157302D01*
X41520Y-157289D01*
X41513Y-157256D01*
X41494Y-157223D01*
X41467Y-157184D01*
X41441Y-157131D01*
X41375Y-157020D01*
X41284Y-156889D01*
X41172Y-156757D01*
X41047Y-156633D01*
X40897Y-156521D01*
X40890Y-156515D01*
X40877Y-156508D01*
X40857Y-156495D01*
X40824Y-156475D01*
X40785Y-156456D01*
X40739Y-156429D01*
X40680Y-156410D01*
X40621Y-156377D01*
X40483Y-156324D01*
X40319Y-156279D01*
X40142Y-156239D01*
X39945Y-156219D01*
X39886Y-156987D01*
X39893D01*
X39913Y-156993D01*
X39939D01*
X39978Y-157000D01*
X40031Y-157013D01*
X40083Y-157026D01*
X40208Y-157066D01*
X40346Y-157118D01*
X40490Y-157197D01*
X40628Y-157289D01*
X40687Y-157348D01*
X40746Y-157413D01*
X40752Y-157420D01*
X40759Y-157427D01*
X40772Y-157453D01*
X40792Y-157479D01*
X40811Y-157518D01*
X40838Y-157564D01*
X40864Y-157617D01*
X40897Y-157676D01*
X40923Y-157748D01*
X40949Y-157827D01*
X40975Y-157912D01*
X40995Y-158004D01*
X41015Y-158109D01*
X41028Y-158220D01*
X41041Y-158338D01*
Y-158529D01*
X41034Y-158581D01*
Y-158640D01*
X41028Y-158706D01*
X41021Y-158784D01*
X41008Y-158863D01*
X40975Y-159040D01*
X40929Y-159211D01*
X40864Y-159375D01*
X40818Y-159453D01*
X40772Y-159519D01*
Y-159526D01*
X40759Y-159532D01*
X40726Y-159572D01*
X40667Y-159624D01*
X40588Y-159683D01*
X40497Y-159742D01*
X40385Y-159795D01*
X40267Y-159834D01*
X40201Y-159841D01*
X40129Y-159847D01*
X40123D01*
X40116D01*
X40077Y-159841D01*
X40018Y-159834D01*
X39945Y-159821D01*
X39860Y-159788D01*
X39768Y-159749D01*
X39683Y-159696D01*
X39598Y-159617D01*
X39591Y-159604D01*
X39578Y-159591D01*
X39558Y-159565D01*
X39539Y-159532D01*
X39519Y-159493D01*
X39493Y-159440D01*
X39460Y-159381D01*
X39427Y-159309D01*
X39394Y-159224D01*
X39362Y-159125D01*
X39322Y-159014D01*
X39283Y-158883D01*
X39244Y-158745D01*
X39198Y-158588D01*
X39158Y-158411D01*
Y-158397D01*
X39152Y-158365D01*
X39138Y-158319D01*
X39119Y-158253D01*
X39106Y-158174D01*
X39079Y-158082D01*
X39060Y-157984D01*
X39027Y-157879D01*
X38968Y-157656D01*
X38909Y-157433D01*
X38876Y-157328D01*
X38843Y-157236D01*
X38811Y-157144D01*
X38778Y-157072D01*
Y-157066D01*
X38765Y-157046D01*
X38752Y-157020D01*
X38732Y-156987D01*
X38712Y-156941D01*
X38679Y-156889D01*
X38607Y-156777D01*
X38522Y-156646D01*
X38417Y-156521D01*
X38292Y-156397D01*
X38227Y-156344D01*
X38161Y-156292D01*
X38155D01*
X38141Y-156279D01*
X38122Y-156265D01*
X38096Y-156252D01*
X38063Y-156233D01*
X38017Y-156213D01*
X37912Y-156160D01*
X37787Y-156114D01*
X37643Y-156075D01*
X37479Y-156049D01*
X37302Y-156036D01*
D02*
G37*
G36*
X32509Y-157961D02*
X26454D01*
Y-158702D01*
X29229D01*
X29236D01*
X29255D01*
X29281D01*
X29321Y-158709D01*
X29367D01*
X29419Y-158715D01*
X29537Y-158735D01*
X29675Y-158761D01*
X29806Y-158807D01*
X29937Y-158866D01*
X29990Y-158899D01*
X30042Y-158945D01*
X30056Y-158958D01*
X30082Y-158991D01*
X30121Y-159044D01*
X30174Y-159122D01*
X30220Y-159221D01*
X30259Y-159332D01*
X30285Y-159470D01*
X30298Y-159627D01*
Y-159680D01*
X30292Y-159745D01*
X30279Y-159831D01*
X30252Y-159923D01*
X30226Y-160028D01*
X30180Y-160139D01*
X30121Y-160251D01*
X30115Y-160264D01*
X30088Y-160296D01*
X30049Y-160349D01*
X29996Y-160408D01*
X29931Y-160480D01*
X29852Y-160546D01*
X29760Y-160611D01*
X29655Y-160664D01*
X29642Y-160670D01*
X29623Y-160677D01*
X29603Y-160684D01*
X29537Y-160703D01*
X29445Y-160723D01*
X29334Y-160743D01*
X29196Y-160762D01*
X29032Y-160775D01*
X28848Y-160782D01*
X26454D01*
Y-161523D01*
X32509D01*
Y-157961D01*
D02*
G37*
G36*
X41749Y-161546D02*
X37676D01*
X37597Y-161553D01*
X37499Y-161559D01*
X37380Y-161566D01*
X37249Y-161579D01*
X37098Y-161599D01*
X36941Y-161625D01*
X36770Y-161651D01*
X36593Y-161684D01*
X36410Y-161730D01*
X36219Y-161776D01*
X36022Y-161835D01*
X35832Y-161900D01*
X35636Y-161979D01*
X35622Y-161986D01*
X35590Y-161999D01*
X35537Y-162025D01*
X35458Y-162058D01*
X35373Y-162097D01*
X35268Y-162143D01*
X35150Y-162202D01*
X35019Y-162268D01*
X34881Y-162340D01*
X34737Y-162419D01*
X34435Y-162596D01*
X34120Y-162793D01*
X33818Y-163009D01*
Y-163540D01*
X33825Y-163534D01*
X33838Y-163527D01*
X33871Y-163508D01*
X33910Y-163488D01*
X33956Y-163462D01*
X34015Y-163429D01*
X34081Y-163390D01*
X34159Y-163350D01*
X34245Y-163304D01*
X34337Y-163252D01*
X34442Y-163206D01*
X34547Y-163147D01*
X34665Y-163094D01*
X34789Y-163042D01*
X35052Y-162924D01*
X35347Y-162806D01*
X35655Y-162694D01*
X35983Y-162596D01*
X36324Y-162497D01*
X36678Y-162419D01*
X37039Y-162360D01*
X37407Y-162320D01*
X37597Y-162314D01*
X37781Y-162307D01*
X37787D01*
X37813D01*
X37859D01*
X37912D01*
X37984Y-162314D01*
X38069D01*
X38161Y-162320D01*
X38266Y-162327D01*
X38378Y-162340D01*
X38496Y-162353D01*
X38627Y-162366D01*
X38758Y-162386D01*
X39034Y-162432D01*
X39322Y-162491D01*
X39329D01*
X39349Y-162497D01*
X39381Y-162504D01*
X39427Y-162517D01*
X39480Y-162530D01*
X39545Y-162550D01*
X39624Y-162569D01*
X39703Y-162589D01*
X39788Y-162615D01*
X39886Y-162648D01*
X40083Y-162714D01*
X40293Y-162793D01*
X40510Y-162878D01*
X40516D01*
X40529Y-162884D01*
X40549Y-162898D01*
X40582Y-162911D01*
X40621Y-162930D01*
X40674Y-162957D01*
X40733Y-162989D01*
X40805Y-163022D01*
X40883Y-163061D01*
X40975Y-163114D01*
X41074Y-163166D01*
X41185Y-163225D01*
X41310Y-163291D01*
X41448Y-163370D01*
X41592Y-163449D01*
X41749Y-163540D01*
Y-163009D01*
X41736Y-163003D01*
X41704Y-162976D01*
X41644Y-162937D01*
X41572Y-162884D01*
X41480Y-162819D01*
X41369Y-162747D01*
X41238Y-162661D01*
X41100Y-162576D01*
X40949Y-162484D01*
X40785Y-162392D01*
X40615Y-162294D01*
X40431Y-162202D01*
X40057Y-162025D01*
X39860Y-161940D01*
X39663Y-161868D01*
X39650Y-161861D01*
X39624Y-161855D01*
X39571Y-161835D01*
X39506Y-161815D01*
X39427Y-161795D01*
X39329Y-161763D01*
X39217Y-161736D01*
X39093Y-161704D01*
X38955Y-161677D01*
X38811Y-161645D01*
X38653Y-161618D01*
X38496Y-161599D01*
X38325Y-161572D01*
X38148Y-161559D01*
X37971Y-161553D01*
X37787Y-161546D01*
X41749D01*
D02*
G37*
G36*
X40083Y-164131D02*
X35498D01*
Y-167942D01*
D01*
Y-165994D01*
X35504Y-166040D01*
Y-166105D01*
X35517Y-166177D01*
X35530Y-166269D01*
X35544Y-166368D01*
X35570Y-166473D01*
X35603Y-166584D01*
X35642Y-166702D01*
X35688Y-166820D01*
X35747Y-166945D01*
X35813Y-167063D01*
X35891Y-167181D01*
X35977Y-167293D01*
X36082Y-167398D01*
X36088Y-167404D01*
X36108Y-167424D01*
X36141Y-167450D01*
X36193Y-167483D01*
X36252Y-167522D01*
X36324Y-167568D01*
X36416Y-167621D01*
X36514Y-167667D01*
X36626Y-167719D01*
X36751Y-167772D01*
X36889Y-167817D01*
X37039Y-167857D01*
X37203Y-167890D01*
X37380Y-167916D01*
X37571Y-167936D01*
X37767Y-167942D01*
X40083D01*
X37840D01*
X37886Y-167936D01*
X37951D01*
X38023Y-167929D01*
X38102Y-167922D01*
X38194Y-167916D01*
X38384Y-167883D01*
X38594Y-167844D01*
X38811Y-167791D01*
X39014Y-167713D01*
X39020D01*
X39040Y-167699D01*
X39066Y-167686D01*
X39099Y-167667D01*
X39145Y-167640D01*
X39198Y-167614D01*
X39316Y-167535D01*
X39440Y-167437D01*
X39578Y-167312D01*
X39703Y-167168D01*
X39814Y-166998D01*
Y-166991D01*
X39827Y-166978D01*
X39840Y-166952D01*
X39854Y-166912D01*
X39880Y-166866D01*
X39900Y-166814D01*
X39926Y-166755D01*
X39952Y-166689D01*
X39972Y-166611D01*
X39998Y-166532D01*
X40044Y-166355D01*
X40070Y-166158D01*
X40083Y-165954D01*
Y-165882D01*
X40077Y-165836D01*
X40070Y-165777D01*
X40064Y-165705D01*
X40050Y-165627D01*
X40037Y-165541D01*
X39991Y-165357D01*
X39926Y-165161D01*
X39886Y-165062D01*
X39840Y-164964D01*
X39781Y-164872D01*
X39716Y-164787D01*
X39709Y-164780D01*
X39696Y-164767D01*
X39676Y-164741D01*
X39650Y-164715D01*
X39611Y-164675D01*
X39565Y-164636D01*
X39513Y-164590D01*
X39453Y-164544D01*
X39381Y-164492D01*
X39309Y-164446D01*
X39224Y-164393D01*
X39132Y-164347D01*
X39034Y-164308D01*
X38929Y-164269D01*
X38811Y-164229D01*
X38693Y-164203D01*
X38581Y-164925D01*
X38587D01*
X38601Y-164931D01*
X38620Y-164938D01*
X38653Y-164944D01*
X38732Y-164971D01*
X38830Y-165010D01*
X38935Y-165062D01*
X39047Y-165121D01*
X39152Y-165200D01*
X39244Y-165292D01*
X39257Y-165305D01*
X39283Y-165338D01*
X39316Y-165397D01*
X39362Y-165469D01*
X39401Y-165561D01*
X39440Y-165666D01*
X39467Y-165790D01*
X39473Y-165922D01*
Y-165974D01*
X39467Y-166014D01*
X39460Y-166066D01*
X39453Y-166119D01*
X39421Y-166250D01*
X39375Y-166394D01*
X39342Y-166466D01*
X39303Y-166545D01*
X39257Y-166617D01*
X39198Y-166696D01*
X39138Y-166768D01*
X39066Y-166833D01*
X39060Y-166840D01*
X39047Y-166847D01*
X39027Y-166866D01*
X38988Y-166886D01*
X38948Y-166912D01*
X38896Y-166945D01*
X38830Y-166978D01*
X38758Y-167004D01*
X38673Y-167037D01*
X38581Y-167070D01*
X38476Y-167103D01*
X38358Y-167129D01*
X38233Y-167148D01*
X38102Y-167168D01*
X37951Y-167175D01*
X37794Y-167181D01*
X37787D01*
X37754D01*
X37709D01*
X37649Y-167175D01*
X37577Y-167168D01*
X37492Y-167162D01*
X37400Y-167155D01*
X37302Y-167142D01*
X37092Y-167103D01*
X36875Y-167037D01*
X36777Y-167004D01*
X36678Y-166958D01*
X36587Y-166906D01*
X36508Y-166847D01*
X36501Y-166840D01*
X36488Y-166833D01*
X36469Y-166814D01*
X36449Y-166788D01*
X36416Y-166748D01*
X36383Y-166709D01*
X36344Y-166663D01*
X36311Y-166611D01*
X36233Y-166479D01*
X36173Y-166328D01*
X36147Y-166243D01*
X36127Y-166158D01*
X36114Y-166059D01*
X36108Y-165961D01*
Y-165922D01*
X36114Y-165889D01*
Y-165849D01*
X36121Y-165810D01*
X36141Y-165705D01*
X36173Y-165594D01*
X36219Y-165469D01*
X36285Y-165351D01*
X36370Y-165233D01*
X36377Y-165226D01*
X36383Y-165220D01*
X36423Y-165187D01*
X36488Y-165135D01*
X36528Y-165108D01*
X36574Y-165075D01*
X36633Y-165043D01*
X36692Y-165010D01*
X36757Y-164984D01*
X36836Y-164951D01*
X36915Y-164925D01*
X37007Y-164898D01*
X37098Y-164879D01*
X37203Y-164859D01*
X37105Y-164131D01*
X40083D01*
D02*
G37*
G36*
X41749Y-168592D02*
X41743Y-168598D01*
X41710Y-168611D01*
X41671Y-168638D01*
X41612Y-168670D01*
X41539Y-168716D01*
X41461Y-168762D01*
X41369Y-168808D01*
X41277Y-168861D01*
X41074Y-168972D01*
X40870Y-169084D01*
X40772Y-169136D01*
X40680Y-169182D01*
X40595Y-169221D01*
X40523Y-169254D01*
X40516D01*
X40497Y-169267D01*
X40464Y-169280D01*
X40424Y-169293D01*
X40372Y-169313D01*
X40313Y-169339D01*
X40241Y-169366D01*
X40162Y-169398D01*
X40077Y-169425D01*
X39985Y-169457D01*
X39781Y-169523D01*
X39565Y-169589D01*
X39335Y-169648D01*
X39329D01*
X39303Y-169654D01*
X39257Y-169661D01*
X39204Y-169674D01*
X39132Y-169687D01*
X39047Y-169707D01*
X38955Y-169720D01*
X38850Y-169733D01*
X38738Y-169753D01*
X38614Y-169766D01*
X38489Y-169785D01*
X38351Y-169799D01*
X38069Y-169818D01*
X37781Y-169825D01*
X37774D01*
X37761D01*
X37728D01*
X37689D01*
X37643Y-169818D01*
X37584D01*
X37518Y-169812D01*
X37440Y-169805D01*
X37354Y-169799D01*
X37262Y-169785D01*
X37157Y-169772D01*
X37046Y-169759D01*
X36928Y-169740D01*
X36810Y-169720D01*
X36541Y-169667D01*
X36252Y-169608D01*
X35937Y-169523D01*
X35609Y-169425D01*
X35268Y-169307D01*
X34920Y-169162D01*
X34553Y-168998D01*
X34369Y-168906D01*
X34186Y-168808D01*
X34002Y-168703D01*
X33818Y-168592D01*
Y-169123D01*
X33825Y-169130D01*
X33851Y-169149D01*
X33897Y-169182D01*
X33956Y-169228D01*
X34028Y-169280D01*
X34120Y-169339D01*
X34225Y-169412D01*
X34337Y-169484D01*
X34468Y-169562D01*
X34606Y-169648D01*
X34756Y-169733D01*
X34914Y-169825D01*
X35085Y-169910D01*
X35262Y-169995D01*
X35445Y-170081D01*
X35636Y-170166D01*
X35649Y-170173D01*
X35681Y-170186D01*
X35741Y-170205D01*
X35813Y-170232D01*
X35911Y-170264D01*
X36022Y-170297D01*
X36154Y-170337D01*
X36292Y-170376D01*
X36449Y-170415D01*
X36619Y-170455D01*
X36797Y-170487D01*
X36980Y-170520D01*
X37177Y-170546D01*
X37374Y-170566D01*
X37577Y-170579D01*
X37787Y-170586D01*
X37886D01*
X37951Y-170579D01*
X38043D01*
X38141Y-170566D01*
X38260Y-170560D01*
X38391Y-170546D01*
X38528Y-170527D01*
X38673Y-170507D01*
X38830Y-170481D01*
X38994Y-170455D01*
X39322Y-170376D01*
X39493Y-170323D01*
X39663Y-170271D01*
X39676Y-170264D01*
X39709Y-170251D01*
X39768Y-170232D01*
X39847Y-170199D01*
X39939Y-170159D01*
X40050Y-170114D01*
X40175Y-170054D01*
X40319Y-169989D01*
X40470Y-169917D01*
X40634Y-169831D01*
X40805Y-169733D01*
X40988Y-169635D01*
X41172Y-169517D01*
X41362Y-169398D01*
X41553Y-169267D01*
X41749Y-169123D01*
Y-168592D01*
D02*
G37*
%LPD*%
G36*
X37800Y-81265D02*
X37794Y-81278D01*
X37787Y-81304D01*
X37774Y-81337D01*
X37754Y-81376D01*
X37741Y-81429D01*
X37722Y-81494D01*
X37702Y-81560D01*
X37682Y-81645D01*
X37656Y-81737D01*
X37636Y-81836D01*
X37610Y-81947D01*
X37584Y-82065D01*
X37564Y-82190D01*
X37538Y-82328D01*
X37518Y-82478D01*
Y-82498D01*
X37512Y-82524D01*
X37505Y-82551D01*
X37492Y-82636D01*
X37472Y-82734D01*
X37453Y-82839D01*
X37426Y-82944D01*
X37400Y-83043D01*
X37367Y-83128D01*
X37361Y-83135D01*
X37354Y-83161D01*
X37334Y-83193D01*
X37308Y-83233D01*
X37269Y-83285D01*
X37230Y-83331D01*
X37184Y-83377D01*
X37125Y-83423D01*
X37118Y-83430D01*
X37098Y-83436D01*
X37066Y-83456D01*
X37020Y-83469D01*
X36967Y-83489D01*
X36908Y-83508D01*
X36843Y-83515D01*
X36770Y-83521D01*
X36757D01*
X36724Y-83515D01*
X36665Y-83508D01*
X36600Y-83495D01*
X36521Y-83469D01*
X36436Y-83430D01*
X36357Y-83371D01*
X36278Y-83298D01*
X36272Y-83285D01*
X36246Y-83259D01*
X36219Y-83207D01*
X36180Y-83135D01*
X36147Y-83043D01*
X36114Y-82925D01*
X36088Y-82793D01*
X36082Y-82643D01*
Y-82570D01*
X36088Y-82531D01*
X36095Y-82485D01*
X36108Y-82387D01*
X36127Y-82262D01*
X36160Y-82137D01*
X36206Y-82006D01*
X36265Y-81875D01*
Y-81868D01*
X36272Y-81862D01*
X36298Y-81823D01*
X36344Y-81763D01*
X36403Y-81685D01*
X36475Y-81606D01*
X36567Y-81527D01*
X36665Y-81449D01*
X36783Y-81383D01*
X36797Y-81376D01*
X36829Y-81363D01*
X36889Y-81344D01*
X36967Y-81324D01*
X37072Y-81304D01*
X37203Y-81285D01*
X37354Y-81271D01*
X37525Y-81265D01*
X37800Y-81258D01*
Y-81265D01*
D02*
G37*
G36*
X30941Y-87769D02*
X30935Y-87730D01*
X30928Y-87671D01*
X30922Y-87612D01*
X30908Y-87539D01*
X30895Y-87461D01*
X30849Y-87303D01*
X30784Y-87133D01*
X30744Y-87054D01*
X30698Y-86975D01*
X30639Y-86897D01*
X30574Y-86831D01*
X30567Y-86825D01*
X30554Y-86818D01*
X30534Y-86798D01*
X30508Y-86779D01*
X30469Y-86746D01*
X30423Y-86720D01*
X30364Y-86687D01*
X30298Y-86654D01*
X30226Y-86621D01*
X30147Y-86588D01*
X30056Y-86555D01*
X29957Y-86529D01*
X29846Y-86510D01*
X29728Y-86490D01*
X29603Y-86483D01*
X29465Y-86477D01*
X30941D01*
Y-87769D01*
D02*
G37*
G36*
X36744Y-91066D02*
X36652Y-91079D01*
X36547Y-91105D01*
X36429Y-91144D01*
X36305Y-91203D01*
X36180Y-91275D01*
X36173D01*
X36167Y-91289D01*
X36127Y-91315D01*
X36068Y-91367D01*
X35996Y-91433D01*
X35911Y-91525D01*
X35826Y-91630D01*
X35747Y-91754D01*
X35675Y-91899D01*
Y-91905D01*
X35668Y-91918D01*
X35662Y-91938D01*
X35649Y-91971D01*
X35636Y-92010D01*
X35616Y-92056D01*
X35603Y-92109D01*
X35590Y-92168D01*
X35557Y-92305D01*
X35524Y-92463D01*
X35504Y-92633D01*
X35498Y-92824D01*
Y-91052D01*
X36816D01*
X36744Y-91066D01*
D02*
G37*
G36*
X28803Y-94060D02*
X28875Y-94067D01*
X28953Y-94073D01*
X29039Y-94086D01*
X29131Y-94099D01*
X29327Y-94145D01*
X29432Y-94172D01*
X29537Y-94211D01*
X29636Y-94257D01*
X29734Y-94303D01*
X29819Y-94362D01*
X29905Y-94428D01*
X29911Y-94434D01*
X29924Y-94447D01*
X29944Y-94467D01*
X29970Y-94493D01*
X30003Y-94533D01*
X30036Y-94572D01*
X30075Y-94624D01*
X30115Y-94677D01*
X30193Y-94815D01*
X30259Y-94972D01*
X30285Y-95057D01*
X30305Y-95149D01*
X30318Y-95248D01*
X30325Y-95346D01*
Y-95398D01*
X30318Y-95438D01*
X30311Y-95484D01*
X30305Y-95543D01*
X30272Y-95667D01*
X30220Y-95818D01*
X30187Y-95890D01*
X30147Y-95969D01*
X30101Y-96048D01*
X30042Y-96127D01*
X29977Y-96199D01*
X29905Y-96271D01*
X29898Y-96277D01*
X29885Y-96284D01*
X29859Y-96304D01*
X29826Y-96330D01*
X29780Y-96356D01*
X29728Y-96389D01*
X29662Y-96422D01*
X29590Y-96455D01*
X29504Y-96487D01*
X29413Y-96520D01*
X29308Y-96553D01*
X29196Y-96579D01*
X29072Y-96605D01*
X28940Y-96625D01*
X28796Y-96632D01*
X28645Y-96638D01*
X28639D01*
X28606D01*
X28566D01*
X28507Y-96632D01*
X28435Y-96625D01*
X28357Y-96619D01*
X28265Y-96605D01*
X28173Y-96592D01*
X27963Y-96546D01*
X27753Y-96481D01*
X27655Y-96441D01*
X27556Y-96389D01*
X27464Y-96337D01*
X27379Y-96271D01*
X27373Y-96264D01*
X27359Y-96251D01*
X27340Y-96232D01*
X27314Y-96205D01*
X27281Y-96166D01*
X27248Y-96127D01*
X27209Y-96074D01*
X27176Y-96015D01*
X27097Y-95884D01*
X27031Y-95726D01*
X27005Y-95641D01*
X26985Y-95543D01*
X26972Y-95451D01*
X26966Y-95346D01*
Y-95293D01*
X26972Y-95254D01*
X26979Y-95208D01*
X26985Y-95149D01*
X27018Y-95025D01*
X27071Y-94880D01*
X27104Y-94801D01*
X27143Y-94723D01*
X27189Y-94651D01*
X27248Y-94572D01*
X27314Y-94500D01*
X27386Y-94428D01*
X27392Y-94421D01*
X27405Y-94414D01*
X27432Y-94395D01*
X27464Y-94368D01*
X27510Y-94342D01*
X27563Y-94309D01*
X27628Y-94277D01*
X27707Y-94237D01*
X27786Y-94204D01*
X27884Y-94172D01*
X27989Y-94139D01*
X28107Y-94113D01*
X28232Y-94086D01*
X28370Y-94067D01*
X28514Y-94060D01*
X28671Y-94054D01*
X28678D01*
X28704D01*
X28750D01*
X28803Y-94060D01*
D02*
G37*
G36*
X40070Y-101102D02*
X40103D01*
X40149Y-101109D01*
X40247Y-101135D01*
X40359Y-101174D01*
X40477Y-101227D01*
X40588Y-101306D01*
X40647Y-101358D01*
X40700Y-101411D01*
X40706Y-101417D01*
X40713Y-101424D01*
X40726Y-101443D01*
X40746Y-101470D01*
X40765Y-101503D01*
X40792Y-101548D01*
X40818Y-101594D01*
X40844Y-101653D01*
X40870Y-101719D01*
X40890Y-101791D01*
X40916Y-101870D01*
X40936Y-101955D01*
X40956Y-102053D01*
X40969Y-102158D01*
X40982Y-102270D01*
Y-104310D01*
X38981D01*
Y-102500D01*
X38988Y-102454D01*
Y-102401D01*
X38994Y-102277D01*
X39007Y-102139D01*
X39027Y-101995D01*
X39053Y-101857D01*
X39093Y-101732D01*
Y-101725D01*
X39099Y-101719D01*
X39112Y-101680D01*
X39138Y-101627D01*
X39178Y-101555D01*
X39230Y-101483D01*
X39289Y-101404D01*
X39368Y-101325D01*
X39453Y-101260D01*
X39467Y-101253D01*
X39499Y-101233D01*
X39545Y-101207D01*
X39617Y-101174D01*
X39696Y-101148D01*
X39788Y-101122D01*
X39893Y-101102D01*
X39998Y-101096D01*
X40005D01*
X40018D01*
X40037D01*
X40070Y-101102D01*
D02*
G37*
G36*
X36856Y-101588D02*
X36862Y-101594D01*
X36882Y-101601D01*
X36908Y-101621D01*
X36948Y-101647D01*
X36993Y-101673D01*
X37046Y-101712D01*
X37164Y-101791D01*
X37302Y-101883D01*
X37440Y-101975D01*
X37571Y-102073D01*
X37689Y-102165D01*
X37695D01*
X37702Y-102178D01*
X37735Y-102204D01*
X37787Y-102244D01*
X37846Y-102303D01*
X37912Y-102362D01*
X37977Y-102434D01*
X38043Y-102506D01*
X38089Y-102572D01*
X38096Y-102578D01*
X38109Y-102605D01*
X38128Y-102637D01*
X38155Y-102683D01*
X38181Y-102742D01*
X38207Y-102801D01*
X38233Y-102867D01*
X38253Y-102939D01*
Y-102946D01*
X38260Y-102965D01*
X38266Y-102998D01*
X38273Y-103044D01*
Y-103110D01*
X38279Y-103188D01*
X38286Y-103280D01*
Y-104310D01*
X35596D01*
Y-100787D01*
X36856Y-101588D01*
D02*
G37*
G36*
X37800Y-111815D02*
X37794Y-111828D01*
X37787Y-111854D01*
X37774Y-111887D01*
X37754Y-111926D01*
X37741Y-111979D01*
X37722Y-112044D01*
X37702Y-112110D01*
X37682Y-112195D01*
X37656Y-112287D01*
X37636Y-112385D01*
X37610Y-112497D01*
X37584Y-112615D01*
X37564Y-112740D01*
X37538Y-112878D01*
X37518Y-113028D01*
Y-113048D01*
X37512Y-113074D01*
X37505Y-113101D01*
X37492Y-113186D01*
X37472Y-113284D01*
X37453Y-113389D01*
X37426Y-113494D01*
X37400Y-113593D01*
X37367Y-113678D01*
X37361Y-113684D01*
X37354Y-113711D01*
X37334Y-113743D01*
X37308Y-113783D01*
X37269Y-113835D01*
X37230Y-113881D01*
X37184Y-113927D01*
X37125Y-113973D01*
X37118Y-113980D01*
X37098Y-113986D01*
X37066Y-114006D01*
X37020Y-114019D01*
X36967Y-114039D01*
X36908Y-114058D01*
X36843Y-114065D01*
X36770Y-114071D01*
X36757D01*
X36724Y-114065D01*
X36665Y-114058D01*
X36600Y-114045D01*
X36521Y-114019D01*
X36436Y-113980D01*
X36357Y-113921D01*
X36278Y-113848D01*
X36272Y-113835D01*
X36246Y-113809D01*
X36219Y-113757D01*
X36180Y-113684D01*
X36147Y-113593D01*
X36114Y-113475D01*
X36088Y-113343D01*
X36082Y-113192D01*
Y-113120D01*
X36088Y-113081D01*
X36095Y-113035D01*
X36108Y-112937D01*
X36127Y-112812D01*
X36160Y-112687D01*
X36206Y-112556D01*
X36265Y-112425D01*
Y-112418D01*
X36272Y-112412D01*
X36298Y-112372D01*
X36344Y-112313D01*
X36403Y-112235D01*
X36475Y-112156D01*
X36567Y-112077D01*
X36665Y-111998D01*
X36783Y-111933D01*
X36797Y-111926D01*
X36829Y-111913D01*
X36889Y-111893D01*
X36967Y-111874D01*
X37072Y-111854D01*
X37203Y-111835D01*
X37354Y-111821D01*
X37525Y-111815D01*
X37800Y-111808D01*
Y-111815D01*
D02*
G37*
G36*
X30941Y-117565D02*
X30935Y-117525D01*
Y-117486D01*
X30922Y-117387D01*
X30908Y-117276D01*
X30882Y-117151D01*
X30843Y-117027D01*
X30797Y-116902D01*
Y-116895D01*
X30790Y-116889D01*
X30771Y-116850D01*
X30738Y-116791D01*
X30698Y-116712D01*
X30639Y-116633D01*
X30580Y-116548D01*
X30508Y-116469D01*
X30423Y-116403D01*
X30410Y-116397D01*
X30384Y-116377D01*
X30331Y-116351D01*
X30266Y-116312D01*
X30187Y-116272D01*
X30095Y-116240D01*
X29990Y-116200D01*
X29872Y-116174D01*
X29865D01*
X29833Y-116167D01*
X29780Y-116161D01*
X29708Y-116148D01*
X29610Y-116141D01*
X29550D01*
X29485Y-116135D01*
X29413D01*
X29327Y-116128D01*
X30941D01*
Y-117565D01*
D02*
G37*
G36*
Y-122399D02*
X30935Y-122360D01*
Y-122308D01*
X30928Y-122248D01*
X30915Y-122189D01*
X30902Y-122117D01*
X30869Y-121960D01*
X30817Y-121796D01*
X30744Y-121625D01*
X30698Y-121540D01*
X30646Y-121461D01*
Y-121455D01*
X30633Y-121442D01*
X30613Y-121422D01*
X30593Y-121389D01*
X30528Y-121310D01*
X30436Y-121219D01*
X30318Y-121114D01*
X30180Y-121002D01*
X30016Y-120904D01*
X29833Y-120812D01*
X29826D01*
X29806Y-120805D01*
X29780Y-120792D01*
X29741Y-120779D01*
X29695Y-120759D01*
X29636Y-120740D01*
X29564Y-120720D01*
X29491Y-120700D01*
X29406Y-120681D01*
X29321Y-120661D01*
X29124Y-120622D01*
X28908Y-120595D01*
X28678Y-120589D01*
X30941D01*
Y-122399D01*
D02*
G37*
G36*
X28816Y-121356D02*
X28888Y-121363D01*
X28967Y-121369D01*
X29052Y-121376D01*
X29150Y-121396D01*
X29354Y-121435D01*
X29564Y-121494D01*
X29669Y-121533D01*
X29760Y-121579D01*
X29852Y-121638D01*
X29937Y-121697D01*
X29944Y-121704D01*
X29957Y-121711D01*
X29977Y-121730D01*
X30003Y-121756D01*
X30036Y-121789D01*
X30069Y-121835D01*
X30147Y-121934D01*
X30226Y-122052D01*
X30292Y-122189D01*
X30318Y-122268D01*
X30338Y-122353D01*
X30351Y-122439D01*
X30357Y-122524D01*
Y-122570D01*
X30351Y-122603D01*
X30344Y-122642D01*
X30331Y-122695D01*
X30305Y-122806D01*
X30246Y-122937D01*
X30213Y-123003D01*
X30167Y-123075D01*
X30121Y-123147D01*
X30056Y-123219D01*
X29990Y-123292D01*
X29911Y-123364D01*
X29905Y-123370D01*
X29892Y-123377D01*
X29865Y-123397D01*
X29826Y-123423D01*
X29780Y-123449D01*
X29728Y-123475D01*
X29662Y-123508D01*
X29583Y-123541D01*
X29498Y-123580D01*
X29400Y-123613D01*
X29295Y-123639D01*
X29177Y-123665D01*
X29052Y-123692D01*
X28921Y-123711D01*
X28776Y-123718D01*
X28619Y-123724D01*
X28612D01*
X28580D01*
X28540D01*
X28481Y-123718D01*
X28409Y-123711D01*
X28330Y-123705D01*
X28238Y-123698D01*
X28147Y-123679D01*
X27943Y-123639D01*
X27733Y-123580D01*
X27635Y-123541D01*
X27536Y-123495D01*
X27445Y-123442D01*
X27366Y-123383D01*
X27359Y-123377D01*
X27346Y-123370D01*
X27327Y-123351D01*
X27307Y-123324D01*
X27274Y-123292D01*
X27241Y-123252D01*
X27169Y-123154D01*
X27090Y-123029D01*
X27031Y-122891D01*
X27005Y-122813D01*
X26985Y-122734D01*
X26972Y-122649D01*
X26966Y-122557D01*
Y-122511D01*
X26972Y-122471D01*
X26979Y-122432D01*
X26985Y-122380D01*
X27018Y-122262D01*
X27064Y-122130D01*
X27104Y-122058D01*
X27143Y-121986D01*
X27189Y-121914D01*
X27241Y-121842D01*
X27307Y-121770D01*
X27379Y-121704D01*
X27386Y-121697D01*
X27399Y-121691D01*
X27425Y-121671D01*
X27458Y-121651D01*
X27504Y-121619D01*
X27556Y-121592D01*
X27622Y-121560D01*
X27700Y-121527D01*
X27786Y-121494D01*
X27878Y-121461D01*
X27989Y-121429D01*
X28107Y-121402D01*
X28232Y-121383D01*
X28370Y-121363D01*
X28521Y-121356D01*
X28678Y-121350D01*
X28684D01*
X28717D01*
X28757D01*
X28816Y-121356D01*
D02*
G37*
G36*
X40936Y-123925D02*
X35596D01*
Y-121930D01*
X40936D01*
Y-123925D01*
D02*
G37*
G36*
X30941Y-126788D02*
X30935Y-126749D01*
X30928Y-126690D01*
X30922Y-126631D01*
X30908Y-126558D01*
X30895Y-126480D01*
X30849Y-126322D01*
X30784Y-126152D01*
X30744Y-126073D01*
X30698Y-125994D01*
X30639Y-125916D01*
X30574Y-125850D01*
X30567Y-125843D01*
X30554Y-125837D01*
X30534Y-125817D01*
X30508Y-125797D01*
X30469Y-125765D01*
X30423Y-125738D01*
X30364Y-125706D01*
X30298Y-125673D01*
X30226Y-125640D01*
X30147Y-125607D01*
X30056Y-125574D01*
X29957Y-125548D01*
X29846Y-125529D01*
X29728Y-125509D01*
X29603Y-125502D01*
X29465Y-125496D01*
X30941D01*
Y-126788D01*
D02*
G37*
G36*
X45893Y-130826D02*
X45991Y-130832D01*
X46103Y-130839D01*
X46214Y-130859D01*
X46319Y-130878D01*
X46411Y-130911D01*
X46424Y-130918D01*
X46450Y-130931D01*
X46490Y-130950D01*
X46542Y-130983D01*
X46601Y-131023D01*
X46660Y-131075D01*
X46719Y-131141D01*
X46772Y-131219D01*
X46778Y-131226D01*
X46791Y-131259D01*
X46818Y-131305D01*
X46844Y-131364D01*
X46864Y-131442D01*
X46890Y-131528D01*
X46903Y-131626D01*
X46909Y-131737D01*
Y-131783D01*
X46903Y-131816D01*
Y-131856D01*
X46896Y-131908D01*
X46870Y-132020D01*
X46837Y-132144D01*
X46785Y-132282D01*
X46706Y-132420D01*
X46660Y-132492D01*
X46608Y-132557D01*
X46601Y-132564D01*
X46595Y-132571D01*
X46575Y-132590D01*
X46549Y-132610D01*
X46509Y-132636D01*
X46470Y-132662D01*
X46417Y-132695D01*
X46352Y-132728D01*
X46280Y-132761D01*
X46194Y-132794D01*
X46103Y-132820D01*
X45998Y-132846D01*
X45880Y-132866D01*
X45755Y-132886D01*
X45611Y-132892D01*
X45460Y-132899D01*
X43065D01*
Y-130819D01*
X45735D01*
X45742D01*
X45755D01*
X45781D01*
X45807D01*
X45847D01*
X45893Y-130826D01*
D02*
G37*
G36*
X38423Y-133410D02*
X38522Y-133417D01*
X38633Y-133423D01*
X38745Y-133443D01*
X38850Y-133463D01*
X38942Y-133496D01*
X38955Y-133502D01*
X38981Y-133515D01*
X39020Y-133535D01*
X39073Y-133568D01*
X39132Y-133607D01*
X39191Y-133660D01*
X39250Y-133725D01*
X39303Y-133804D01*
X39309Y-133810D01*
X39322Y-133843D01*
X39349Y-133889D01*
X39375Y-133948D01*
X39394Y-134027D01*
X39421Y-134112D01*
X39434Y-134211D01*
X39440Y-134322D01*
Y-134368D01*
X39434Y-134401D01*
Y-134440D01*
X39427Y-134493D01*
X39401Y-134604D01*
X39368Y-134729D01*
X39316Y-134867D01*
X39237Y-135004D01*
X39191Y-135077D01*
X39138Y-135142D01*
X39132Y-135149D01*
X39125Y-135155D01*
X39106Y-135175D01*
X39079Y-135195D01*
X39040Y-135221D01*
X39001Y-135247D01*
X38948Y-135280D01*
X38883Y-135313D01*
X38811Y-135345D01*
X38725Y-135378D01*
X38633Y-135405D01*
X38528Y-135431D01*
X38410Y-135450D01*
X38286Y-135470D01*
X38141Y-135477D01*
X37990Y-135483D01*
X35596D01*
Y-133404D01*
X38266D01*
X38273D01*
X38286D01*
X38312D01*
X38338D01*
X38378D01*
X38423Y-133410D01*
D02*
G37*
G36*
X28658Y-133341D02*
X28652Y-133355D01*
X28645Y-133381D01*
X28632Y-133414D01*
X28612Y-133453D01*
X28599Y-133505D01*
X28580Y-133571D01*
X28560Y-133637D01*
X28540Y-133722D01*
X28514Y-133814D01*
X28494Y-133912D01*
X28468Y-134024D01*
X28442Y-134142D01*
X28422Y-134266D01*
X28396Y-134404D01*
X28376Y-134555D01*
Y-134575D01*
X28370Y-134601D01*
X28363Y-134627D01*
X28350Y-134713D01*
X28330Y-134811D01*
X28311Y-134916D01*
X28284Y-135021D01*
X28258Y-135119D01*
X28225Y-135205D01*
X28219Y-135211D01*
X28212Y-135237D01*
X28192Y-135270D01*
X28166Y-135309D01*
X28127Y-135362D01*
X28088Y-135408D01*
X28042Y-135454D01*
X27983Y-135500D01*
X27976Y-135506D01*
X27956Y-135513D01*
X27924Y-135532D01*
X27878Y-135546D01*
X27825Y-135565D01*
X27766Y-135585D01*
X27700Y-135591D01*
X27628Y-135598D01*
X27615D01*
X27582Y-135591D01*
X27523Y-135585D01*
X27458Y-135572D01*
X27379Y-135546D01*
X27294Y-135506D01*
X27215Y-135447D01*
X27136Y-135375D01*
X27130Y-135362D01*
X27104Y-135336D01*
X27077Y-135283D01*
X27038Y-135211D01*
X27005Y-135119D01*
X26972Y-135001D01*
X26946Y-134870D01*
X26940Y-134719D01*
Y-134647D01*
X26946Y-134608D01*
X26953Y-134562D01*
X26966Y-134463D01*
X26985Y-134339D01*
X27018Y-134214D01*
X27064Y-134083D01*
X27123Y-133951D01*
Y-133945D01*
X27130Y-133938D01*
X27156Y-133899D01*
X27202Y-133840D01*
X27261Y-133761D01*
X27333Y-133683D01*
X27425Y-133604D01*
X27523Y-133525D01*
X27641Y-133459D01*
X27655Y-133453D01*
X27687Y-133440D01*
X27746Y-133420D01*
X27825Y-133400D01*
X27930Y-133381D01*
X28061Y-133361D01*
X28212Y-133348D01*
X28383Y-133341D01*
X28658Y-133335D01*
Y-133341D01*
D02*
G37*
G36*
X45414Y-135280D02*
X45486Y-135286D01*
X45565Y-135293D01*
X45650Y-135306D01*
X45742Y-135319D01*
X45939Y-135365D01*
X46044Y-135391D01*
X46149Y-135431D01*
X46247Y-135477D01*
X46345Y-135523D01*
X46431Y-135582D01*
X46516Y-135647D01*
X46523Y-135654D01*
X46536Y-135667D01*
X46555Y-135687D01*
X46582Y-135713D01*
X46614Y-135752D01*
X46647Y-135792D01*
X46687Y-135844D01*
X46726Y-135897D01*
X46805Y-136034D01*
X46870Y-136192D01*
X46896Y-136277D01*
X46916Y-136369D01*
X46929Y-136467D01*
X46936Y-136566D01*
Y-136618D01*
X46929Y-136658D01*
X46923Y-136703D01*
X46916Y-136762D01*
X46883Y-136887D01*
X46831Y-137038D01*
X46798Y-137110D01*
X46759Y-137189D01*
X46713Y-137268D01*
X46654Y-137346D01*
X46588Y-137418D01*
X46516Y-137491D01*
X46509Y-137497D01*
X46496Y-137504D01*
X46470Y-137523D01*
X46437Y-137550D01*
X46391Y-137576D01*
X46339Y-137609D01*
X46273Y-137642D01*
X46201Y-137674D01*
X46116Y-137707D01*
X46024Y-137740D01*
X45919Y-137773D01*
X45807Y-137799D01*
X45683Y-137825D01*
X45552Y-137845D01*
X45407Y-137851D01*
X45256Y-137858D01*
X45250D01*
X45217D01*
X45178D01*
X45119Y-137851D01*
X45046Y-137845D01*
X44968Y-137838D01*
X44876Y-137825D01*
X44784Y-137812D01*
X44574Y-137766D01*
X44364Y-137701D01*
X44266Y-137661D01*
X44167Y-137609D01*
X44076Y-137556D01*
X43990Y-137491D01*
X43984Y-137484D01*
X43971Y-137471D01*
X43951Y-137451D01*
X43925Y-137425D01*
X43892Y-137386D01*
X43859Y-137346D01*
X43820Y-137294D01*
X43787Y-137235D01*
X43708Y-137104D01*
X43643Y-136946D01*
X43616Y-136861D01*
X43597Y-136762D01*
X43584Y-136671D01*
X43577Y-136566D01*
Y-136513D01*
X43584Y-136474D01*
X43590Y-136428D01*
X43597Y-136369D01*
X43630Y-136244D01*
X43682Y-136100D01*
X43715Y-136021D01*
X43754Y-135942D01*
X43800Y-135870D01*
X43859Y-135792D01*
X43925Y-135719D01*
X43997Y-135647D01*
X44003Y-135641D01*
X44017Y-135634D01*
X44043Y-135615D01*
X44076Y-135588D01*
X44122Y-135562D01*
X44174Y-135529D01*
X44240Y-135496D01*
X44318Y-135457D01*
X44397Y-135424D01*
X44495Y-135391D01*
X44600Y-135359D01*
X44719Y-135332D01*
X44843Y-135306D01*
X44981Y-135286D01*
X45125Y-135280D01*
X45283Y-135273D01*
X45289D01*
X45315D01*
X45361D01*
X45414Y-135280D01*
D02*
G37*
G36*
X32607Y-139042D02*
D01*
X26349Y-140800D01*
Y-139049D01*
D01*
X32607Y-137291D01*
Y-139042D01*
D02*
G37*
G36*
X37800Y-138127D02*
X37794Y-138140D01*
X37787Y-138166D01*
X37774Y-138199D01*
X37754Y-138239D01*
X37741Y-138291D01*
X37722Y-138357D01*
X37702Y-138422D01*
X37682Y-138507D01*
X37656Y-138599D01*
X37636Y-138698D01*
X37610Y-138809D01*
X37584Y-138927D01*
X37564Y-139052D01*
X37538Y-139190D01*
X37518Y-139341D01*
Y-139360D01*
X37512Y-139386D01*
X37505Y-139413D01*
X37492Y-139498D01*
X37472Y-139596D01*
X37453Y-139701D01*
X37426Y-139806D01*
X37400Y-139905D01*
X37367Y-139990D01*
X37361Y-139997D01*
X37354Y-140023D01*
X37334Y-140056D01*
X37308Y-140095D01*
X37269Y-140147D01*
X37230Y-140193D01*
X37184Y-140239D01*
X37125Y-140285D01*
X37118Y-140292D01*
X37098Y-140298D01*
X37066Y-140318D01*
X37020Y-140331D01*
X36967Y-140351D01*
X36908Y-140371D01*
X36843Y-140377D01*
X36770Y-140384D01*
X36757D01*
X36724Y-140377D01*
X36665Y-140371D01*
X36600Y-140357D01*
X36521Y-140331D01*
X36436Y-140292D01*
X36357Y-140233D01*
X36278Y-140161D01*
X36272Y-140147D01*
X36246Y-140121D01*
X36219Y-140069D01*
X36180Y-139997D01*
X36147Y-139905D01*
X36114Y-139787D01*
X36088Y-139655D01*
X36082Y-139505D01*
Y-139432D01*
X36088Y-139393D01*
X36095Y-139347D01*
X36108Y-139249D01*
X36127Y-139124D01*
X36160Y-138999D01*
X36206Y-138868D01*
X36265Y-138737D01*
Y-138731D01*
X36272Y-138724D01*
X36298Y-138685D01*
X36344Y-138626D01*
X36403Y-138547D01*
X36475Y-138468D01*
X36567Y-138389D01*
X36665Y-138311D01*
X36783Y-138245D01*
X36797Y-138239D01*
X36829Y-138225D01*
X36889Y-138206D01*
X36967Y-138186D01*
X37072Y-138166D01*
X37203Y-138147D01*
X37354Y-138134D01*
X37525Y-138127D01*
X37800Y-138120D01*
Y-138127D01*
D02*
G37*
G36*
X47552Y-145605D02*
X45309D01*
X45355Y-145599D01*
X45420D01*
X45493Y-145592D01*
X45571Y-145586D01*
X45663Y-145579D01*
X45853Y-145546D01*
X46063Y-145507D01*
X46280Y-145455D01*
X46483Y-145376D01*
X46490D01*
X46509Y-145363D01*
X46536Y-145350D01*
X46568Y-145330D01*
X46614Y-145304D01*
X46667Y-145277D01*
X46785Y-145199D01*
X46909Y-145100D01*
X47047Y-144976D01*
X47172Y-144831D01*
X47283Y-144661D01*
Y-144654D01*
X47297Y-144641D01*
X47310Y-144615D01*
X47323Y-144575D01*
X47349Y-144529D01*
X47369Y-144477D01*
X47395Y-144418D01*
X47421Y-144352D01*
X47441Y-144274D01*
X47467Y-144195D01*
X47513Y-144018D01*
X47539Y-143821D01*
X47552Y-143618D01*
Y-145605D01*
D02*
G37*
G36*
X37866Y-142778D02*
X37945Y-142785D01*
X38030Y-142791D01*
X38122Y-142798D01*
X38227Y-142817D01*
X38437Y-142857D01*
X38660Y-142922D01*
X38765Y-142962D01*
X38863Y-143008D01*
X38955Y-143060D01*
X39040Y-143126D01*
X39047Y-143132D01*
X39060Y-143139D01*
X39079Y-143158D01*
X39106Y-143185D01*
X39138Y-143224D01*
X39178Y-143263D01*
X39257Y-143362D01*
X39329Y-143486D01*
X39401Y-143637D01*
X39427Y-143716D01*
X39447Y-143801D01*
X39460Y-143893D01*
X39467Y-143985D01*
Y-144031D01*
X39460Y-144070D01*
X39453Y-144110D01*
X39447Y-144162D01*
X39414Y-144274D01*
X39368Y-144405D01*
X39335Y-144477D01*
X39296Y-144549D01*
X39250Y-144615D01*
X39191Y-144687D01*
X39132Y-144753D01*
X39060Y-144818D01*
X39053Y-144825D01*
X39040Y-144831D01*
X39014Y-144851D01*
X38981Y-144871D01*
X38942Y-144897D01*
X38883Y-144923D01*
X38824Y-144949D01*
X38745Y-144982D01*
X38666Y-145015D01*
X38568Y-145041D01*
X38463Y-145067D01*
X38351Y-145094D01*
X38220Y-145113D01*
X38089Y-145133D01*
X37938Y-145140D01*
X37781Y-145146D01*
X37774D01*
X37741D01*
X37702D01*
X37643Y-145140D01*
X37571Y-145133D01*
X37492Y-145126D01*
X37407Y-145113D01*
X37308Y-145100D01*
X37105Y-145061D01*
X36895Y-144995D01*
X36797Y-144956D01*
X36698Y-144910D01*
X36606Y-144851D01*
X36521Y-144792D01*
X36514Y-144785D01*
X36501Y-144779D01*
X36482Y-144753D01*
X36456Y-144726D01*
X36423Y-144694D01*
X36390Y-144654D01*
X36318Y-144556D01*
X36239Y-144431D01*
X36173Y-144287D01*
X36147Y-144208D01*
X36127Y-144129D01*
X36114Y-144044D01*
X36108Y-143952D01*
Y-143906D01*
X36114Y-143867D01*
X36121Y-143828D01*
X36127Y-143775D01*
X36160Y-143664D01*
X36206Y-143532D01*
X36239Y-143460D01*
X36272Y-143395D01*
X36318Y-143323D01*
X36370Y-143250D01*
X36429Y-143185D01*
X36501Y-143119D01*
X36508Y-143113D01*
X36521Y-143106D01*
X36541Y-143086D01*
X36580Y-143067D01*
X36619Y-143040D01*
X36672Y-143008D01*
X36731Y-142975D01*
X36803Y-142942D01*
X36882Y-142916D01*
X36974Y-142883D01*
X37079Y-142850D01*
X37184Y-142824D01*
X37302Y-142804D01*
X37433Y-142785D01*
X37571Y-142778D01*
X37722Y-142771D01*
X37735D01*
X37761D01*
X37807D01*
X37866Y-142778D01*
D02*
G37*
G36*
X37709Y-146511D02*
X37636D01*
X37551Y-146517D01*
X37459Y-146524D01*
X37361Y-146537D01*
X37151Y-146563D01*
X36928Y-146609D01*
X36711Y-146675D01*
X36613Y-146714D01*
X36514Y-146760D01*
X36508D01*
X36495Y-146773D01*
X36469Y-146786D01*
X36436Y-146806D01*
X36397Y-146832D01*
X36344Y-146865D01*
X36239Y-146950D01*
X36114Y-147055D01*
X35990Y-147180D01*
X35872Y-147331D01*
X35760Y-147501D01*
Y-147508D01*
X35747Y-147521D01*
X35734Y-147547D01*
X35721Y-147587D01*
X35701Y-147632D01*
X35675Y-147685D01*
X35655Y-147744D01*
X35629Y-147816D01*
X35603Y-147888D01*
X35583Y-147974D01*
X35537Y-148151D01*
X35511Y-148347D01*
X35498Y-148557D01*
Y-146504D01*
X37767D01*
X37709Y-146511D01*
D02*
G37*
G36*
X37945Y-147272D02*
X38017Y-147278D01*
X38096Y-147285D01*
X38181Y-147298D01*
X38273Y-147311D01*
X38469Y-147357D01*
X38574Y-147383D01*
X38679Y-147423D01*
X38778Y-147468D01*
X38876Y-147514D01*
X38961Y-147573D01*
X39047Y-147639D01*
X39053Y-147645D01*
X39066Y-147659D01*
X39086Y-147678D01*
X39112Y-147705D01*
X39145Y-147744D01*
X39178Y-147783D01*
X39217Y-147836D01*
X39257Y-147888D01*
X39335Y-148026D01*
X39401Y-148183D01*
X39427Y-148269D01*
X39447Y-148361D01*
X39460Y-148459D01*
X39467Y-148557D01*
Y-148610D01*
X39460Y-148649D01*
X39453Y-148695D01*
X39447Y-148754D01*
X39414Y-148879D01*
X39362Y-149030D01*
X39329Y-149102D01*
X39289Y-149181D01*
X39244Y-149259D01*
X39184Y-149338D01*
X39119Y-149410D01*
X39047Y-149482D01*
X39040Y-149489D01*
X39027Y-149495D01*
X39001Y-149515D01*
X38968Y-149541D01*
X38922Y-149568D01*
X38870Y-149600D01*
X38804Y-149633D01*
X38732Y-149666D01*
X38647Y-149699D01*
X38555Y-149732D01*
X38450Y-149764D01*
X38338Y-149791D01*
X38214Y-149817D01*
X38082Y-149837D01*
X37938Y-149843D01*
X37787Y-149850D01*
X37781D01*
X37748D01*
X37709D01*
X37649Y-149843D01*
X37577Y-149837D01*
X37499Y-149830D01*
X37407Y-149817D01*
X37315Y-149804D01*
X37105Y-149758D01*
X36895Y-149692D01*
X36797Y-149653D01*
X36698Y-149600D01*
X36606Y-149548D01*
X36521Y-149482D01*
X36514Y-149476D01*
X36501Y-149463D01*
X36482Y-149443D01*
X36456Y-149417D01*
X36423Y-149377D01*
X36390Y-149338D01*
X36351Y-149285D01*
X36318Y-149226D01*
X36239Y-149095D01*
X36173Y-148938D01*
X36147Y-148853D01*
X36127Y-148754D01*
X36114Y-148662D01*
X36108Y-148557D01*
Y-148505D01*
X36114Y-148466D01*
X36121Y-148420D01*
X36127Y-148361D01*
X36160Y-148236D01*
X36213Y-148092D01*
X36246Y-148013D01*
X36285Y-147934D01*
X36331Y-147862D01*
X36390Y-147783D01*
X36456Y-147711D01*
X36528Y-147639D01*
X36534Y-147632D01*
X36547Y-147626D01*
X36574Y-147606D01*
X36606Y-147580D01*
X36652Y-147554D01*
X36705Y-147521D01*
X36770Y-147488D01*
X36849Y-147449D01*
X36928Y-147416D01*
X37026Y-147383D01*
X37131Y-147350D01*
X37249Y-147324D01*
X37374Y-147298D01*
X37512Y-147278D01*
X37656Y-147272D01*
X37813Y-147265D01*
X37820D01*
X37846D01*
X37892D01*
X37945Y-147272D01*
D02*
G37*
G36*
X28816Y-149085D02*
X28888Y-149092D01*
X28967Y-149099D01*
X29052Y-149105D01*
X29150Y-149125D01*
X29354Y-149164D01*
X29564Y-149223D01*
X29669Y-149263D01*
X29760Y-149309D01*
X29852Y-149367D01*
X29937Y-149427D01*
X29944Y-149433D01*
X29957Y-149440D01*
X29977Y-149459D01*
X30003Y-149486D01*
X30036Y-149518D01*
X30069Y-149564D01*
X30147Y-149663D01*
X30226Y-149781D01*
X30292Y-149919D01*
X30318Y-149997D01*
X30338Y-150083D01*
X30351Y-150168D01*
X30357Y-150253D01*
Y-150299D01*
X30351Y-150332D01*
X30344Y-150371D01*
X30331Y-150424D01*
X30305Y-150535D01*
X30246Y-150666D01*
X30213Y-150732D01*
X30167Y-150804D01*
X30121Y-150876D01*
X30056Y-150949D01*
X29990Y-151021D01*
X29911Y-151093D01*
X29905Y-151099D01*
X29892Y-151106D01*
X29865Y-151126D01*
X29826Y-151152D01*
X29780Y-151178D01*
X29728Y-151204D01*
X29662Y-151237D01*
X29583Y-151270D01*
X29498Y-151309D01*
X29400Y-151342D01*
X29295Y-151368D01*
X29177Y-151395D01*
X29052Y-151421D01*
X28921Y-151441D01*
X28776Y-151447D01*
X28619Y-151454D01*
X28612D01*
X28580D01*
X28540D01*
X28481Y-151447D01*
X28409Y-151441D01*
X28330Y-151434D01*
X28238Y-151427D01*
X28147Y-151408D01*
X27943Y-151368D01*
X27733Y-151309D01*
X27635Y-151270D01*
X27536Y-151224D01*
X27445Y-151172D01*
X27366Y-151112D01*
X27359Y-151106D01*
X27346Y-151099D01*
X27327Y-151080D01*
X27307Y-151053D01*
X27274Y-151021D01*
X27241Y-150981D01*
X27169Y-150883D01*
X27090Y-150758D01*
X27031Y-150620D01*
X27005Y-150542D01*
X26985Y-150463D01*
X26972Y-150378D01*
X26966Y-150286D01*
Y-150240D01*
X26972Y-150201D01*
X26979Y-150161D01*
X26985Y-150109D01*
X27018Y-149991D01*
X27064Y-149859D01*
X27104Y-149787D01*
X27143Y-149715D01*
X27189Y-149643D01*
X27241Y-149571D01*
X27307Y-149499D01*
X27379Y-149433D01*
X27386Y-149427D01*
X27399Y-149420D01*
X27425Y-149400D01*
X27458Y-149381D01*
X27504Y-149348D01*
X27556Y-149322D01*
X27622Y-149289D01*
X27700Y-149256D01*
X27786Y-149223D01*
X27878Y-149190D01*
X27989Y-149158D01*
X28107Y-149131D01*
X28232Y-149112D01*
X28370Y-149092D01*
X28521Y-149085D01*
X28678Y-149079D01*
X28684D01*
X28717D01*
X28757D01*
X28816Y-149085D01*
D02*
G37*
G36*
X49120Y-153044D02*
X44830Y-151608D01*
X44823D01*
X44804Y-151601D01*
X44771Y-151588D01*
X44732Y-151575D01*
X44686Y-151562D01*
X44627Y-151542D01*
X44495Y-151496D01*
X44351Y-151450D01*
X44200Y-151404D01*
X44063Y-151358D01*
X43997Y-151339D01*
X43938Y-151319D01*
X43944D01*
X43951Y-151313D01*
X43971Y-151306D01*
X43997Y-151299D01*
X44036Y-151286D01*
X44076Y-151273D01*
X44128Y-151260D01*
X44181Y-151240D01*
X44246Y-151221D01*
X44318Y-151195D01*
X44397Y-151168D01*
X44489Y-151142D01*
X44581Y-151109D01*
X44686Y-151076D01*
X44791Y-151037D01*
X44909Y-150998D01*
X49120Y-149541D01*
Y-153044D01*
D02*
G37*
G36*
X32371Y-153605D02*
X30843D01*
Y-152851D01*
X30266D01*
Y-153605D01*
X27694D01*
X27687D01*
X27681D01*
X27641D01*
X27589D01*
X27523Y-153599D01*
X27458D01*
X27392Y-153586D01*
X27333Y-153579D01*
X27287Y-153566D01*
X27281D01*
X27274Y-153559D01*
X27235Y-153533D01*
X27189Y-153494D01*
X27143Y-153441D01*
Y-153435D01*
X27136Y-153422D01*
X27130Y-153402D01*
X27117Y-153376D01*
X27110Y-153336D01*
X27097Y-153297D01*
X27090Y-153244D01*
Y-153133D01*
X27097Y-153094D01*
Y-153048D01*
X27104Y-152989D01*
X27110Y-152923D01*
X27117Y-152851D01*
X26461Y-152752D01*
X32371D01*
Y-153605D01*
D02*
G37*
G36*
Y-155954D02*
X30843D01*
Y-155199D01*
X30266D01*
Y-155954D01*
X27694D01*
X27687D01*
X27681D01*
X27641D01*
X27589D01*
X27523Y-155947D01*
X27458D01*
X27392Y-155934D01*
X27333Y-155928D01*
X27287Y-155914D01*
X27281D01*
X27274Y-155908D01*
X27235Y-155882D01*
X27189Y-155842D01*
X27143Y-155790D01*
Y-155783D01*
X27136Y-155770D01*
X27130Y-155750D01*
X27117Y-155724D01*
X27110Y-155685D01*
X27097Y-155645D01*
X27090Y-155593D01*
Y-155481D01*
X27097Y-155442D01*
Y-155396D01*
X27104Y-155337D01*
X27110Y-155271D01*
X27117Y-155199D01*
X26461Y-155101D01*
X32371D01*
Y-155954D01*
D02*
G37*
G36*
X37223Y-156042D02*
X37177D01*
X37131Y-156049D01*
X37007Y-156069D01*
X36869Y-156101D01*
X36718Y-156154D01*
X36560Y-156226D01*
X36475Y-156265D01*
X36397Y-156318D01*
X36390D01*
X36377Y-156331D01*
X36357Y-156344D01*
X36324Y-156370D01*
X36252Y-156429D01*
X36154Y-156521D01*
X36049Y-156633D01*
X35937Y-156771D01*
X35832Y-156928D01*
X35734Y-157112D01*
Y-157118D01*
X35721Y-157138D01*
X35714Y-157164D01*
X35695Y-157203D01*
X35681Y-157249D01*
X35662Y-157308D01*
X35636Y-157374D01*
X35616Y-157453D01*
X35596Y-157531D01*
X35570Y-157623D01*
X35537Y-157820D01*
X35511Y-158037D01*
X35498Y-158273D01*
Y-156036D01*
X37256D01*
X37223Y-156042D01*
D02*
G37*
G36*
X32509Y-160782D02*
X30331D01*
X30338Y-160775D01*
X30357Y-160756D01*
X30390Y-160729D01*
X30430Y-160690D01*
X30475Y-160638D01*
X30521Y-160579D01*
X30580Y-160506D01*
X30639Y-160421D01*
X30692Y-160336D01*
X30751Y-160237D01*
X30797Y-160126D01*
X30849Y-160014D01*
X30882Y-159890D01*
X30915Y-159759D01*
X30935Y-159621D01*
X30941Y-159476D01*
Y-159398D01*
X30935Y-159352D01*
X30928Y-159306D01*
X30915Y-159188D01*
X30895Y-159057D01*
X30856Y-158919D01*
X30810Y-158775D01*
X30744Y-158637D01*
Y-158630D01*
X30738Y-158624D01*
X30725Y-158604D01*
X30712Y-158578D01*
X30666Y-158512D01*
X30607Y-158433D01*
X30534Y-158355D01*
X30443Y-158263D01*
X30331Y-158184D01*
X30213Y-158119D01*
X30206D01*
X30200Y-158112D01*
X30180Y-158105D01*
X30154Y-158092D01*
X30115Y-158079D01*
X30075Y-158066D01*
X30023Y-158053D01*
X29964Y-158040D01*
X29898Y-158027D01*
X29826Y-158014D01*
X29747Y-158001D01*
X29655Y-157987D01*
X29564Y-157974D01*
X29459Y-157968D01*
X29347Y-157961D01*
X32509D01*
Y-160782D01*
D02*
G37*
G36*
X37072Y-164137D02*
X37033Y-164144D01*
X36980Y-164157D01*
X36915Y-164177D01*
X36843Y-164196D01*
X36764Y-164223D01*
X36672Y-164255D01*
X36488Y-164334D01*
X36390Y-164387D01*
X36292Y-164446D01*
X36193Y-164505D01*
X36095Y-164577D01*
X36009Y-164662D01*
X35924Y-164747D01*
X35918Y-164754D01*
X35904Y-164767D01*
X35885Y-164800D01*
X35859Y-164833D01*
X35826Y-164885D01*
X35786Y-164938D01*
X35754Y-165010D01*
X35714Y-165082D01*
X35668Y-165167D01*
X35636Y-165259D01*
X35596Y-165357D01*
X35563Y-165463D01*
X35537Y-165581D01*
X35517Y-165699D01*
X35504Y-165823D01*
X35498Y-165954D01*
Y-164131D01*
X37098D01*
X37072Y-164137D01*
D02*
G37*
D11*
X-207480Y-39370D02*
G03*
X-207480Y-39370I-7087J0D01*
G01*
X-167087Y5000D02*
X-147087D01*
X-167087Y-175000D02*
X-147087D01*
Y5000D01*
X-167087Y-175000D02*
Y5000D01*
X-218504Y-26969D02*
X-210630D01*
X-226969Y-43307D02*
Y-35433D01*
X-218504Y-51772D02*
X-210630D01*
X-202165Y-43307D02*
Y-35433D01*
X75551Y-175000D02*
X95551D01*
X75551Y5000D02*
X95551D01*
X75551Y-175000D02*
Y5000D01*
X95551Y-175000D02*
Y5000D01*
X5000Y-175000D02*
Y5000D01*
X-15000Y-175000D02*
Y5000D01*
X5000D01*
X-15000Y-175000D02*
X5000D01*
X-93425D02*
Y5000D01*
X-113425Y-175000D02*
Y5000D01*
X-93425D01*
X-113425Y-175000D02*
X-93425D01*
D34*
X-168587Y-179000D02*
Y-177001D01*
Y-178000D01*
X-162589D01*
X-163589Y-179000D01*
X-145587Y-175001D02*
Y-179000D01*
X-141588Y-175001D01*
X-140588D01*
X-139589Y-176001D01*
Y-178000D01*
X-140588Y-179000D01*
X62500Y1001D02*
Y5000D01*
X58501Y1001D01*
X57502D01*
X56502Y2001D01*
Y4000D01*
X57502Y5000D01*
X71500Y4000D02*
Y2001D01*
Y3000D01*
X65502D01*
X66502Y4000D01*
X69502Y-166500D02*
X68502Y-167500D01*
Y-169499D01*
X69502Y-170499D01*
X70501D01*
X71501Y-169499D01*
Y-168499D01*
Y-169499D01*
X72501Y-170499D01*
X73500D01*
X74500Y-169499D01*
Y-167500D01*
X73500Y-166500D01*
X68502Y-176497D02*
Y-172498D01*
X71501D01*
X70501Y-174497D01*
Y-175497D01*
X71501Y-176497D01*
X73500D01*
X74500Y-175497D01*
Y-173498D01*
X73500Y-172498D01*
X59002Y-167000D02*
X58002Y-168000D01*
Y-169999D01*
X59002Y-170999D01*
X60001D01*
X61001Y-169999D01*
Y-168999D01*
Y-169999D01*
X62001Y-170999D01*
X63000D01*
X64000Y-169999D01*
Y-168000D01*
X63000Y-167000D01*
X58002Y-176997D02*
X59002Y-174997D01*
X61001Y-172998D01*
X63000D01*
X64000Y-173998D01*
Y-175997D01*
X63000Y-176997D01*
X62001D01*
X61001Y-175997D01*
Y-172998D01*
X-23498Y-167500D02*
X-24498Y-168500D01*
Y-170499D01*
X-23498Y-171499D01*
X-22499D01*
X-21499Y-170499D01*
Y-169499D01*
Y-170499D01*
X-20499Y-171499D01*
X-19500D01*
X-18500Y-170499D01*
Y-168500D01*
X-19500Y-167500D01*
X-24498Y-177497D02*
X-23498Y-175497D01*
X-21499Y-173498D01*
X-19500D01*
X-18500Y-174498D01*
Y-176497D01*
X-19500Y-177497D01*
X-20499D01*
X-21499Y-176497D01*
Y-173498D01*
X9502Y-167000D02*
X8502Y-168000D01*
Y-169999D01*
X9502Y-170999D01*
X10501D01*
X11501Y-169999D01*
Y-168999D01*
Y-169999D01*
X12501Y-170999D01*
X13500D01*
X14500Y-169999D01*
Y-168000D01*
X13500Y-167000D01*
X8502Y-176997D02*
Y-172998D01*
X11501D01*
X10501Y-174997D01*
Y-175997D01*
X11501Y-176997D01*
X13500D01*
X14500Y-175997D01*
Y-173998D01*
X13500Y-172998D01*
X13000Y3000D02*
Y1001D01*
Y2000D01*
X7002D01*
X8002Y3000D01*
X-18500Y1D02*
Y4000D01*
X-22499Y1D01*
X-23498D01*
X-24498Y1001D01*
Y3000D01*
X-23498Y4000D01*
X-121998Y-167000D02*
X-122998Y-168000D01*
Y-169999D01*
X-121998Y-170999D01*
X-120999D01*
X-119999Y-169999D01*
Y-168999D01*
Y-169999D01*
X-118999Y-170999D01*
X-118000D01*
X-117000Y-169999D01*
Y-168000D01*
X-118000Y-167000D01*
X-122998Y-176997D02*
X-121998Y-174997D01*
X-119999Y-172998D01*
X-118000D01*
X-117000Y-173998D01*
Y-175997D01*
X-118000Y-176997D01*
X-118999D01*
X-119999Y-175997D01*
Y-172998D01*
X-87998Y-166500D02*
X-88998Y-167500D01*
Y-169499D01*
X-87998Y-170499D01*
X-86999D01*
X-85999Y-169499D01*
Y-168499D01*
Y-169499D01*
X-84999Y-170499D01*
X-84000D01*
X-83000Y-169499D01*
Y-167500D01*
X-84000Y-166500D01*
X-88998Y-176497D02*
Y-172498D01*
X-85999D01*
X-86999Y-174497D01*
Y-175497D01*
X-85999Y-176497D01*
X-84000D01*
X-83000Y-175497D01*
Y-173498D01*
X-84000Y-172498D01*
X-84500Y4000D02*
Y2001D01*
Y3000D01*
X-90498D01*
X-89498Y4000D01*
X-116500Y-1499D02*
Y2500D01*
X-120499Y-1499D01*
X-121498D01*
X-122498Y-499D01*
Y1500D01*
X-121498Y2500D01*
M02*
