G04*
G04 #@! TF.GenerationSoftware,Altium Limited,Altium Designer,22.4.2 (48)*
G04*
G04 Layer_Physical_Order=3*
G04 Layer_Color=16440176*
%FSLAX25Y25*%
%MOIN*%
G70*
G04*
G04 #@! TF.SameCoordinates,5D1A3173-D847-458D-9732-A4640AA2F51D*
G04*
G04*
G04 #@! TF.FilePolarity,Positive*
G04*
G01*
G75*
%ADD21C,0.00984*%
%ADD28C,0.05906*%
%ADD29R,0.05906X0.05906*%
%ADD30C,0.04921*%
%ADD33C,0.03543*%
%ADD34C,0.03937*%
G36*
X195321Y-27982D02*
X194821Y-28133D01*
X193937Y-26810D01*
X192564Y-25437D01*
X190949Y-24358D01*
X189155Y-23615D01*
X187250Y-23236D01*
X185309D01*
X183404Y-23615D01*
X181610Y-24358D01*
X179995Y-25437D01*
X178622Y-26810D01*
X177543Y-28425D01*
X176800Y-30219D01*
X176421Y-32124D01*
Y-34065D01*
X176800Y-35970D01*
X177543Y-37764D01*
X178622Y-39379D01*
X179995Y-40752D01*
X181610Y-41831D01*
X183404Y-42574D01*
X185309Y-42953D01*
X187250D01*
X189155Y-42574D01*
X190949Y-41831D01*
X192564Y-40752D01*
X193937Y-39379D01*
X194821Y-38056D01*
X195321Y-38207D01*
Y-323257D01*
X194821Y-323409D01*
X193937Y-322086D01*
X192564Y-320713D01*
X190949Y-319634D01*
X189155Y-318891D01*
X187250Y-318512D01*
X185309D01*
X183404Y-318891D01*
X181610Y-319634D01*
X179995Y-320713D01*
X178622Y-322086D01*
X177543Y-323700D01*
X176919Y-325207D01*
X176419Y-325107D01*
Y-188144D01*
X176917Y-188070D01*
X177282Y-188702D01*
X177798Y-189218D01*
X178430Y-189583D01*
X179135Y-189772D01*
X179865D01*
X180570Y-189583D01*
X181202Y-189218D01*
X181718Y-188702D01*
X182083Y-188070D01*
X182272Y-187365D01*
Y-186635D01*
X182083Y-185930D01*
X181718Y-185298D01*
X181202Y-184782D01*
X180570Y-184417D01*
X179865Y-184228D01*
X179135D01*
X178430Y-184417D01*
X177798Y-184782D01*
X177282Y-185298D01*
X176917Y-185930D01*
X176419Y-185856D01*
Y-148748D01*
Y-126533D01*
X176919Y-126339D01*
X177298Y-126718D01*
X177930Y-127083D01*
X178635Y-127272D01*
X179365D01*
X180070Y-127083D01*
X180702Y-126718D01*
X181218Y-126202D01*
X181583Y-125570D01*
X181772Y-124865D01*
Y-124135D01*
X181583Y-123430D01*
X181218Y-122798D01*
X180702Y-122282D01*
X180070Y-121917D01*
X179365Y-121728D01*
X178635D01*
X177930Y-121917D01*
X177298Y-122282D01*
X176919Y-122661D01*
X176419Y-122467D01*
Y-86925D01*
X176317Y-86150D01*
X176142Y-85727D01*
X176018Y-85428D01*
X175542Y-84808D01*
X171365Y-80631D01*
X170745Y-80155D01*
X170023Y-79856D01*
X169248Y-79754D01*
X150369D01*
X150162Y-79254D01*
X150466Y-78950D01*
X150831Y-78318D01*
X151020Y-77613D01*
Y-76883D01*
X150831Y-76178D01*
X150466Y-75546D01*
X149950Y-75030D01*
X149318Y-74665D01*
X148613Y-74476D01*
X147883D01*
X147178Y-74665D01*
X146546Y-75030D01*
X146030Y-75546D01*
X145665Y-76178D01*
X145476Y-76883D01*
Y-77613D01*
X145665Y-78318D01*
X146030Y-78950D01*
X146334Y-79254D01*
X146127Y-79754D01*
X133248D01*
X132473Y-79856D01*
X131751Y-80155D01*
X131131Y-80631D01*
X130655Y-81251D01*
X130356Y-81973D01*
X130254Y-82748D01*
X130356Y-83523D01*
X130655Y-84245D01*
X131131Y-84865D01*
X131751Y-85341D01*
X132473Y-85640D01*
X133248Y-85742D01*
X168008D01*
X170431Y-88165D01*
Y-140866D01*
X169969Y-141058D01*
X169042Y-140131D01*
X168422Y-139655D01*
X167700Y-139356D01*
X166925Y-139254D01*
X152748D01*
X151973Y-139356D01*
X151251Y-139655D01*
X150631Y-140131D01*
X150155Y-140751D01*
X149856Y-141473D01*
X149754Y-142248D01*
X149856Y-143023D01*
X150155Y-143745D01*
X150631Y-144365D01*
X151251Y-144841D01*
X151973Y-145140D01*
X152748Y-145242D01*
X165685D01*
X170431Y-149988D01*
Y-170352D01*
X170086Y-170496D01*
X169931Y-170511D01*
X169450Y-170030D01*
X168818Y-169665D01*
X168113Y-169476D01*
X167383D01*
X166678Y-169665D01*
X166046Y-170030D01*
X165530Y-170546D01*
X165165Y-171178D01*
X164976Y-171883D01*
Y-172613D01*
X165165Y-173318D01*
X165530Y-173950D01*
X166046Y-174466D01*
X166678Y-174831D01*
X167383Y-175020D01*
X168113D01*
X168818Y-174831D01*
X169450Y-174466D01*
X169931Y-173985D01*
X170086Y-174000D01*
X170431Y-174144D01*
Y-177358D01*
X170197Y-177455D01*
X169931Y-177519D01*
X169318Y-177165D01*
X168613Y-176976D01*
X167883D01*
X167178Y-177165D01*
X166546Y-177530D01*
X166030Y-178046D01*
X165665Y-178678D01*
X165476Y-179383D01*
Y-180113D01*
X165665Y-180818D01*
X166030Y-181450D01*
X166546Y-181966D01*
X167178Y-182331D01*
X167883Y-182520D01*
X168613D01*
X169318Y-182331D01*
X169931Y-181977D01*
X170197Y-182041D01*
X170431Y-182138D01*
Y-372833D01*
X166021D01*
X165852Y-372664D01*
X164951Y-372143D01*
X163946Y-371874D01*
X162905D01*
X161899Y-372143D01*
X160998Y-372664D01*
X160262Y-373400D01*
X159742Y-374301D01*
X159473Y-375306D01*
Y-376347D01*
X159742Y-377352D01*
X160262Y-378254D01*
X160998Y-378990D01*
X161899Y-379510D01*
X162905Y-379780D01*
X163946D01*
X164951Y-379510D01*
X165852Y-378990D01*
X166021Y-378821D01*
X170829D01*
X170998Y-378990D01*
X171899Y-379510D01*
X172905Y-379780D01*
X173946D01*
X174951Y-379510D01*
X175852Y-378990D01*
X176021Y-378821D01*
X180829D01*
X180998Y-378990D01*
X181899Y-379510D01*
X182905Y-379780D01*
X183946D01*
X184951Y-379510D01*
X185852Y-378990D01*
X186588Y-378254D01*
X187109Y-377352D01*
X187378Y-376347D01*
Y-375306D01*
X187109Y-374301D01*
X186588Y-373400D01*
X185852Y-372664D01*
X184951Y-372143D01*
X183946Y-371874D01*
X182905D01*
X181899Y-372143D01*
X180998Y-372664D01*
X180829Y-372833D01*
X176419D01*
Y-331633D01*
X176919Y-331533D01*
X177543Y-333040D01*
X178622Y-334654D01*
X179995Y-336028D01*
X181610Y-337106D01*
X183404Y-337849D01*
X185309Y-338228D01*
X187250D01*
X189155Y-337849D01*
X190949Y-337106D01*
X192564Y-336028D01*
X193937Y-334654D01*
X194821Y-333331D01*
X195321Y-333483D01*
Y-392171D01*
X1529D01*
Y-155248D01*
X122748D01*
Y-41248D01*
X71912Y-41456D01*
X71704Y-40956D01*
X72502Y-40158D01*
X73506Y-38777D01*
X74280Y-37257D01*
X74808Y-35633D01*
X75075Y-33948D01*
Y-32241D01*
X74808Y-30555D01*
X74280Y-28932D01*
X73506Y-27412D01*
X72502Y-26031D01*
X71296Y-24824D01*
X69915Y-23821D01*
X68394Y-23046D01*
X66771Y-22519D01*
X65086Y-22252D01*
X64291D01*
X64225Y-21752D01*
X64951Y-21557D01*
X65852Y-21037D01*
X66588Y-20301D01*
X67109Y-19400D01*
X67378Y-18394D01*
Y-17354D01*
X67109Y-16348D01*
X66588Y-15447D01*
X65852Y-14711D01*
X64951Y-14191D01*
X63946Y-13921D01*
X62905D01*
X61900Y-14191D01*
X60998Y-14711D01*
X60262Y-15447D01*
X59742Y-16348D01*
X59473Y-17354D01*
Y-18394D01*
X59742Y-19400D01*
X60262Y-20301D01*
X60998Y-21037D01*
X61900Y-21557D01*
X62905Y-21827D01*
X62907Y-22327D01*
X61693Y-22519D01*
X60070Y-23046D01*
X58550Y-23821D01*
X57169Y-24824D01*
X55962Y-26031D01*
X54959Y-27412D01*
X54184Y-28932D01*
X53657Y-30555D01*
X53390Y-32241D01*
Y-33948D01*
X53657Y-35633D01*
X54184Y-37257D01*
X54959Y-38777D01*
X55962Y-40158D01*
X56821Y-41017D01*
X56615Y-41518D01*
X39093Y-41589D01*
X1884Y-41741D01*
X1529Y-41388D01*
Y-1529D01*
X195321D01*
Y-27982D01*
D02*
G37*
G36*
X104248Y-71748D02*
Y-123248D01*
X100748Y-126748D01*
X1748D01*
Y-63248D01*
X95748D01*
X104248Y-71748D01*
D02*
G37*
%LPC*%
G36*
X183946Y-3921D02*
X182905D01*
X181899Y-4191D01*
X180998Y-4711D01*
X180262Y-5447D01*
X179742Y-6348D01*
X179472Y-7354D01*
Y-8394D01*
X179742Y-9400D01*
X180262Y-10301D01*
X180998Y-11037D01*
X181899Y-11557D01*
X182905Y-11827D01*
X183946D01*
X184951Y-11557D01*
X185852Y-11037D01*
X186588Y-10301D01*
X187109Y-9400D01*
X187378Y-8394D01*
Y-7354D01*
X187109Y-6348D01*
X186588Y-5447D01*
X185852Y-4711D01*
X184951Y-4191D01*
X183946Y-3921D01*
D02*
G37*
G36*
X173946D02*
X172905D01*
X171899Y-4191D01*
X170998Y-4711D01*
X170262Y-5447D01*
X169742Y-6348D01*
X169473Y-7354D01*
Y-8394D01*
X169742Y-9400D01*
X170262Y-10301D01*
X170998Y-11037D01*
X171899Y-11557D01*
X172905Y-11827D01*
X173946D01*
X174951Y-11557D01*
X175852Y-11037D01*
X176588Y-10301D01*
X177109Y-9400D01*
X177378Y-8394D01*
Y-7354D01*
X177109Y-6348D01*
X176588Y-5447D01*
X175852Y-4711D01*
X174951Y-4191D01*
X173946Y-3921D01*
D02*
G37*
G36*
X163946D02*
X162905D01*
X161899Y-4191D01*
X160998Y-4711D01*
X160262Y-5447D01*
X159742Y-6348D01*
X159473Y-7354D01*
Y-8394D01*
X159742Y-9400D01*
X160262Y-10301D01*
X160998Y-11037D01*
X161899Y-11557D01*
X162905Y-11827D01*
X163946D01*
X164951Y-11557D01*
X165852Y-11037D01*
X166588Y-10301D01*
X167109Y-9400D01*
X167378Y-8394D01*
Y-7354D01*
X167109Y-6348D01*
X166588Y-5447D01*
X165852Y-4711D01*
X164951Y-4191D01*
X163946Y-3921D01*
D02*
G37*
G36*
X153946D02*
X152905D01*
X151900Y-4191D01*
X150998Y-4711D01*
X150262Y-5447D01*
X149742Y-6348D01*
X149472Y-7354D01*
Y-8394D01*
X149742Y-9400D01*
X150262Y-10301D01*
X150998Y-11037D01*
X151900Y-11557D01*
X152905Y-11827D01*
X153946D01*
X154951Y-11557D01*
X155852Y-11037D01*
X156588Y-10301D01*
X157109Y-9400D01*
X157378Y-8394D01*
Y-7354D01*
X157109Y-6348D01*
X156588Y-5447D01*
X155852Y-4711D01*
X154951Y-4191D01*
X153946Y-3921D01*
D02*
G37*
G36*
X143946D02*
X142905D01*
X141900Y-4191D01*
X140998Y-4711D01*
X140262Y-5447D01*
X139742Y-6348D01*
X139472Y-7354D01*
Y-8394D01*
X139742Y-9400D01*
X140262Y-10301D01*
X140998Y-11037D01*
X141900Y-11557D01*
X142905Y-11827D01*
X143946D01*
X144951Y-11557D01*
X145852Y-11037D01*
X146588Y-10301D01*
X147109Y-9400D01*
X147378Y-8394D01*
Y-7354D01*
X147109Y-6348D01*
X146588Y-5447D01*
X145852Y-4711D01*
X144951Y-4191D01*
X143946Y-3921D01*
D02*
G37*
G36*
X133946D02*
X132905D01*
X131899Y-4191D01*
X130998Y-4711D01*
X130262Y-5447D01*
X129742Y-6348D01*
X129472Y-7354D01*
Y-8394D01*
X129742Y-9400D01*
X130262Y-10301D01*
X130998Y-11037D01*
X131899Y-11557D01*
X132905Y-11827D01*
X133946D01*
X134951Y-11557D01*
X135852Y-11037D01*
X136588Y-10301D01*
X137109Y-9400D01*
X137378Y-8394D01*
Y-7354D01*
X137109Y-6348D01*
X136588Y-5447D01*
X135852Y-4711D01*
X134951Y-4191D01*
X133946Y-3921D01*
D02*
G37*
G36*
X123946D02*
X122905D01*
X121899Y-4191D01*
X120998Y-4711D01*
X120262Y-5447D01*
X119742Y-6348D01*
X119473Y-7354D01*
Y-8394D01*
X119742Y-9400D01*
X120262Y-10301D01*
X120998Y-11037D01*
X121899Y-11557D01*
X122905Y-11827D01*
X123946D01*
X124951Y-11557D01*
X125852Y-11037D01*
X126588Y-10301D01*
X127109Y-9400D01*
X127378Y-8394D01*
Y-7354D01*
X127109Y-6348D01*
X126588Y-5447D01*
X125852Y-4711D01*
X124951Y-4191D01*
X123946Y-3921D01*
D02*
G37*
G36*
X113946D02*
X112905D01*
X111899Y-4191D01*
X110998Y-4711D01*
X110262Y-5447D01*
X109742Y-6348D01*
X109473Y-7354D01*
Y-8394D01*
X109742Y-9400D01*
X110262Y-10301D01*
X110998Y-11037D01*
X111899Y-11557D01*
X112905Y-11827D01*
X113946D01*
X114951Y-11557D01*
X115852Y-11037D01*
X116588Y-10301D01*
X117109Y-9400D01*
X117378Y-8394D01*
Y-7354D01*
X117109Y-6348D01*
X116588Y-5447D01*
X115852Y-4711D01*
X114951Y-4191D01*
X113946Y-3921D01*
D02*
G37*
G36*
X103946D02*
X102905D01*
X101900Y-4191D01*
X100998Y-4711D01*
X100262Y-5447D01*
X99742Y-6348D01*
X99472Y-7354D01*
Y-8394D01*
X99742Y-9400D01*
X100262Y-10301D01*
X100998Y-11037D01*
X101900Y-11557D01*
X102905Y-11827D01*
X103946D01*
X104951Y-11557D01*
X105852Y-11037D01*
X106588Y-10301D01*
X107109Y-9400D01*
X107378Y-8394D01*
Y-7354D01*
X107109Y-6348D01*
X106588Y-5447D01*
X105852Y-4711D01*
X104951Y-4191D01*
X103946Y-3921D01*
D02*
G37*
G36*
X93946D02*
X92905D01*
X91900Y-4191D01*
X90998Y-4711D01*
X90262Y-5447D01*
X89742Y-6348D01*
X89473Y-7354D01*
Y-8394D01*
X89742Y-9400D01*
X90262Y-10301D01*
X90998Y-11037D01*
X91900Y-11557D01*
X92905Y-11827D01*
X93946D01*
X94951Y-11557D01*
X95852Y-11037D01*
X96588Y-10301D01*
X97109Y-9400D01*
X97378Y-8394D01*
Y-7354D01*
X97109Y-6348D01*
X96588Y-5447D01*
X95852Y-4711D01*
X94951Y-4191D01*
X93946Y-3921D01*
D02*
G37*
G36*
X83946D02*
X82905D01*
X81899Y-4191D01*
X80998Y-4711D01*
X80262Y-5447D01*
X79742Y-6348D01*
X79473Y-7354D01*
Y-8394D01*
X79742Y-9400D01*
X80262Y-10301D01*
X80998Y-11037D01*
X81899Y-11557D01*
X82905Y-11827D01*
X83946D01*
X84951Y-11557D01*
X85852Y-11037D01*
X86588Y-10301D01*
X87109Y-9400D01*
X87378Y-8394D01*
Y-7354D01*
X87109Y-6348D01*
X86588Y-5447D01*
X85852Y-4711D01*
X84951Y-4191D01*
X83946Y-3921D01*
D02*
G37*
G36*
X73946D02*
X72905D01*
X71899Y-4191D01*
X70998Y-4711D01*
X70262Y-5447D01*
X69742Y-6348D01*
X69472Y-7354D01*
Y-8394D01*
X69742Y-9400D01*
X70262Y-10301D01*
X70998Y-11037D01*
X71899Y-11557D01*
X72905Y-11827D01*
X73946D01*
X74951Y-11557D01*
X75852Y-11037D01*
X76588Y-10301D01*
X77109Y-9400D01*
X77378Y-8394D01*
Y-7354D01*
X77109Y-6348D01*
X76588Y-5447D01*
X75852Y-4711D01*
X74951Y-4191D01*
X73946Y-3921D01*
D02*
G37*
G36*
X63946D02*
X62905D01*
X61900Y-4191D01*
X60998Y-4711D01*
X60262Y-5447D01*
X59742Y-6348D01*
X59473Y-7354D01*
Y-8394D01*
X59742Y-9400D01*
X60262Y-10301D01*
X60998Y-11037D01*
X61900Y-11557D01*
X62905Y-11827D01*
X63946D01*
X64951Y-11557D01*
X65852Y-11037D01*
X66588Y-10301D01*
X67109Y-9400D01*
X67378Y-8394D01*
Y-7354D01*
X67109Y-6348D01*
X66588Y-5447D01*
X65852Y-4711D01*
X64951Y-4191D01*
X63946Y-3921D01*
D02*
G37*
G36*
X53946D02*
X52905D01*
X51899Y-4191D01*
X50998Y-4711D01*
X50262Y-5447D01*
X49742Y-6348D01*
X49472Y-7354D01*
Y-8394D01*
X49742Y-9400D01*
X50262Y-10301D01*
X50998Y-11037D01*
X51899Y-11557D01*
X52905Y-11827D01*
X53946D01*
X54951Y-11557D01*
X55852Y-11037D01*
X56588Y-10301D01*
X57109Y-9400D01*
X57378Y-8394D01*
Y-7354D01*
X57109Y-6348D01*
X56588Y-5447D01*
X55852Y-4711D01*
X54951Y-4191D01*
X53946Y-3921D01*
D02*
G37*
G36*
X43946D02*
X42905D01*
X41899Y-4191D01*
X40998Y-4711D01*
X40262Y-5447D01*
X39742Y-6348D01*
X39472Y-7354D01*
Y-8394D01*
X39742Y-9400D01*
X40262Y-10301D01*
X40998Y-11037D01*
X41899Y-11557D01*
X42905Y-11827D01*
X43946D01*
X44951Y-11557D01*
X45852Y-11037D01*
X46588Y-10301D01*
X47109Y-9400D01*
X47378Y-8394D01*
Y-7354D01*
X47109Y-6348D01*
X46588Y-5447D01*
X45852Y-4711D01*
X44951Y-4191D01*
X43946Y-3921D01*
D02*
G37*
G36*
X33946D02*
X32905D01*
X31899Y-4191D01*
X30998Y-4711D01*
X30262Y-5447D01*
X29742Y-6348D01*
X29472Y-7354D01*
Y-8394D01*
X29742Y-9400D01*
X30262Y-10301D01*
X30998Y-11037D01*
X31899Y-11557D01*
X32905Y-11827D01*
X33946D01*
X34951Y-11557D01*
X35852Y-11037D01*
X36588Y-10301D01*
X37109Y-9400D01*
X37378Y-8394D01*
Y-7354D01*
X37109Y-6348D01*
X36588Y-5447D01*
X35852Y-4711D01*
X34951Y-4191D01*
X33946Y-3921D01*
D02*
G37*
G36*
X23946D02*
X22905D01*
X21900Y-4191D01*
X20998Y-4711D01*
X20262Y-5447D01*
X19742Y-6348D01*
X19473Y-7354D01*
Y-8394D01*
X19742Y-9400D01*
X20262Y-10301D01*
X20998Y-11037D01*
X21900Y-11557D01*
X22905Y-11827D01*
X23946D01*
X24951Y-11557D01*
X25852Y-11037D01*
X26588Y-10301D01*
X27109Y-9400D01*
X27378Y-8394D01*
Y-7354D01*
X27109Y-6348D01*
X26588Y-5447D01*
X25852Y-4711D01*
X24951Y-4191D01*
X23946Y-3921D01*
D02*
G37*
G36*
X13946D02*
X12905D01*
X11900Y-4191D01*
X10998Y-4711D01*
X10262Y-5447D01*
X9742Y-6348D01*
X9472Y-7354D01*
Y-8394D01*
X9742Y-9400D01*
X10262Y-10301D01*
X10998Y-11037D01*
X11900Y-11557D01*
X12905Y-11827D01*
X13946D01*
X14951Y-11557D01*
X15852Y-11037D01*
X16588Y-10301D01*
X17109Y-9400D01*
X17378Y-8394D01*
Y-7354D01*
X17109Y-6348D01*
X16588Y-5447D01*
X15852Y-4711D01*
X14951Y-4191D01*
X13946Y-3921D01*
D02*
G37*
G36*
X187378Y-13921D02*
X179472D01*
Y-21827D01*
X187378D01*
Y-13921D01*
D02*
G37*
G36*
X173946D02*
X172905D01*
X171899Y-14191D01*
X170998Y-14711D01*
X170262Y-15447D01*
X169742Y-16348D01*
X169473Y-17354D01*
Y-18394D01*
X169742Y-19400D01*
X170262Y-20301D01*
X170998Y-21037D01*
X171899Y-21557D01*
X172905Y-21827D01*
X173946D01*
X174951Y-21557D01*
X175852Y-21037D01*
X176588Y-20301D01*
X177109Y-19400D01*
X177378Y-18394D01*
Y-17354D01*
X177109Y-16348D01*
X176588Y-15447D01*
X175852Y-14711D01*
X174951Y-14191D01*
X173946Y-13921D01*
D02*
G37*
G36*
X163946D02*
X162905D01*
X161899Y-14191D01*
X160998Y-14711D01*
X160262Y-15447D01*
X159742Y-16348D01*
X159473Y-17354D01*
Y-18394D01*
X159742Y-19400D01*
X160262Y-20301D01*
X160998Y-21037D01*
X161899Y-21557D01*
X162905Y-21827D01*
X163946D01*
X164951Y-21557D01*
X165852Y-21037D01*
X166588Y-20301D01*
X167109Y-19400D01*
X167378Y-18394D01*
Y-17354D01*
X167109Y-16348D01*
X166588Y-15447D01*
X165852Y-14711D01*
X164951Y-14191D01*
X163946Y-13921D01*
D02*
G37*
G36*
X153946D02*
X152905D01*
X151900Y-14191D01*
X150998Y-14711D01*
X150262Y-15447D01*
X149742Y-16348D01*
X149472Y-17354D01*
Y-18394D01*
X149742Y-19400D01*
X150262Y-20301D01*
X150998Y-21037D01*
X151900Y-21557D01*
X152905Y-21827D01*
X153946D01*
X154951Y-21557D01*
X155852Y-21037D01*
X156588Y-20301D01*
X157109Y-19400D01*
X157378Y-18394D01*
Y-17354D01*
X157109Y-16348D01*
X156588Y-15447D01*
X155852Y-14711D01*
X154951Y-14191D01*
X153946Y-13921D01*
D02*
G37*
G36*
X143946D02*
X142905D01*
X141900Y-14191D01*
X140998Y-14711D01*
X140262Y-15447D01*
X139742Y-16348D01*
X139472Y-17354D01*
Y-18394D01*
X139742Y-19400D01*
X140262Y-20301D01*
X140998Y-21037D01*
X141900Y-21557D01*
X142905Y-21827D01*
X143946D01*
X144951Y-21557D01*
X145852Y-21037D01*
X146588Y-20301D01*
X147109Y-19400D01*
X147378Y-18394D01*
Y-17354D01*
X147109Y-16348D01*
X146588Y-15447D01*
X145852Y-14711D01*
X144951Y-14191D01*
X143946Y-13921D01*
D02*
G37*
G36*
X133946D02*
X132905D01*
X131899Y-14191D01*
X130998Y-14711D01*
X130262Y-15447D01*
X129742Y-16348D01*
X129472Y-17354D01*
Y-18394D01*
X129742Y-19400D01*
X130262Y-20301D01*
X130998Y-21037D01*
X131899Y-21557D01*
X132905Y-21827D01*
X133946D01*
X134951Y-21557D01*
X135852Y-21037D01*
X136588Y-20301D01*
X137109Y-19400D01*
X137378Y-18394D01*
Y-17354D01*
X137109Y-16348D01*
X136588Y-15447D01*
X135852Y-14711D01*
X134951Y-14191D01*
X133946Y-13921D01*
D02*
G37*
G36*
X123946D02*
X122905D01*
X121899Y-14191D01*
X120998Y-14711D01*
X120262Y-15447D01*
X119742Y-16348D01*
X119473Y-17354D01*
Y-18394D01*
X119742Y-19400D01*
X120262Y-20301D01*
X120998Y-21037D01*
X121899Y-21557D01*
X122905Y-21827D01*
X123946D01*
X124951Y-21557D01*
X125852Y-21037D01*
X126588Y-20301D01*
X127109Y-19400D01*
X127378Y-18394D01*
Y-17354D01*
X127109Y-16348D01*
X126588Y-15447D01*
X125852Y-14711D01*
X124951Y-14191D01*
X123946Y-13921D01*
D02*
G37*
G36*
X113946D02*
X112905D01*
X111899Y-14191D01*
X110998Y-14711D01*
X110262Y-15447D01*
X109742Y-16348D01*
X109473Y-17354D01*
Y-18394D01*
X109742Y-19400D01*
X110262Y-20301D01*
X110998Y-21037D01*
X111899Y-21557D01*
X112905Y-21827D01*
X113946D01*
X114951Y-21557D01*
X115852Y-21037D01*
X116588Y-20301D01*
X117109Y-19400D01*
X117378Y-18394D01*
Y-17354D01*
X117109Y-16348D01*
X116588Y-15447D01*
X115852Y-14711D01*
X114951Y-14191D01*
X113946Y-13921D01*
D02*
G37*
G36*
X103946D02*
X102905D01*
X101900Y-14191D01*
X100998Y-14711D01*
X100262Y-15447D01*
X99742Y-16348D01*
X99472Y-17354D01*
Y-18394D01*
X99742Y-19400D01*
X100262Y-20301D01*
X100998Y-21037D01*
X101900Y-21557D01*
X102905Y-21827D01*
X103946D01*
X104951Y-21557D01*
X105852Y-21037D01*
X106588Y-20301D01*
X107109Y-19400D01*
X107378Y-18394D01*
Y-17354D01*
X107109Y-16348D01*
X106588Y-15447D01*
X105852Y-14711D01*
X104951Y-14191D01*
X103946Y-13921D01*
D02*
G37*
G36*
X93946D02*
X92905D01*
X91900Y-14191D01*
X90998Y-14711D01*
X90262Y-15447D01*
X89742Y-16348D01*
X89473Y-17354D01*
Y-18394D01*
X89742Y-19400D01*
X90262Y-20301D01*
X90998Y-21037D01*
X91900Y-21557D01*
X92905Y-21827D01*
X93946D01*
X94951Y-21557D01*
X95852Y-21037D01*
X96588Y-20301D01*
X97109Y-19400D01*
X97378Y-18394D01*
Y-17354D01*
X97109Y-16348D01*
X96588Y-15447D01*
X95852Y-14711D01*
X94951Y-14191D01*
X93946Y-13921D01*
D02*
G37*
G36*
X83946D02*
X82905D01*
X81899Y-14191D01*
X80998Y-14711D01*
X80262Y-15447D01*
X79742Y-16348D01*
X79473Y-17354D01*
Y-18394D01*
X79742Y-19400D01*
X80262Y-20301D01*
X80998Y-21037D01*
X81899Y-21557D01*
X82905Y-21827D01*
X83946D01*
X84951Y-21557D01*
X85852Y-21037D01*
X86588Y-20301D01*
X87109Y-19400D01*
X87378Y-18394D01*
Y-17354D01*
X87109Y-16348D01*
X86588Y-15447D01*
X85852Y-14711D01*
X84951Y-14191D01*
X83946Y-13921D01*
D02*
G37*
G36*
X73946D02*
X72905D01*
X71899Y-14191D01*
X70998Y-14711D01*
X70262Y-15447D01*
X69742Y-16348D01*
X69472Y-17354D01*
Y-18394D01*
X69742Y-19400D01*
X70262Y-20301D01*
X70998Y-21037D01*
X71899Y-21557D01*
X72905Y-21827D01*
X73946D01*
X74951Y-21557D01*
X75852Y-21037D01*
X76588Y-20301D01*
X77109Y-19400D01*
X77378Y-18394D01*
Y-17354D01*
X77109Y-16348D01*
X76588Y-15447D01*
X75852Y-14711D01*
X74951Y-14191D01*
X73946Y-13921D01*
D02*
G37*
G36*
X53946D02*
X52905D01*
X51899Y-14191D01*
X50998Y-14711D01*
X50262Y-15447D01*
X49742Y-16348D01*
X49472Y-17354D01*
Y-18394D01*
X49742Y-19400D01*
X50262Y-20301D01*
X50998Y-21037D01*
X51899Y-21557D01*
X52905Y-21827D01*
X53946D01*
X54951Y-21557D01*
X55852Y-21037D01*
X56588Y-20301D01*
X57109Y-19400D01*
X57378Y-18394D01*
Y-17354D01*
X57109Y-16348D01*
X56588Y-15447D01*
X55852Y-14711D01*
X54951Y-14191D01*
X53946Y-13921D01*
D02*
G37*
G36*
X43946D02*
X42905D01*
X41899Y-14191D01*
X40998Y-14711D01*
X40262Y-15447D01*
X39742Y-16348D01*
X39472Y-17354D01*
Y-18394D01*
X39742Y-19400D01*
X40262Y-20301D01*
X40998Y-21037D01*
X41899Y-21557D01*
X42905Y-21827D01*
X43946D01*
X44951Y-21557D01*
X45852Y-21037D01*
X46588Y-20301D01*
X47109Y-19400D01*
X47378Y-18394D01*
Y-17354D01*
X47109Y-16348D01*
X46588Y-15447D01*
X45852Y-14711D01*
X44951Y-14191D01*
X43946Y-13921D01*
D02*
G37*
G36*
X33946D02*
X32905D01*
X31899Y-14191D01*
X30998Y-14711D01*
X30262Y-15447D01*
X29742Y-16348D01*
X29472Y-17354D01*
Y-18394D01*
X29742Y-19400D01*
X30262Y-20301D01*
X30998Y-21037D01*
X31899Y-21557D01*
X32905Y-21827D01*
X33946D01*
X34951Y-21557D01*
X35852Y-21037D01*
X36588Y-20301D01*
X37109Y-19400D01*
X37378Y-18394D01*
Y-17354D01*
X37109Y-16348D01*
X36588Y-15447D01*
X35852Y-14711D01*
X34951Y-14191D01*
X33946Y-13921D01*
D02*
G37*
G36*
X23946D02*
X22905D01*
X21900Y-14191D01*
X20998Y-14711D01*
X20262Y-15447D01*
X19742Y-16348D01*
X19473Y-17354D01*
Y-18394D01*
X19742Y-19400D01*
X20262Y-20301D01*
X20998Y-21037D01*
X21900Y-21557D01*
X22905Y-21827D01*
X23946D01*
X24951Y-21557D01*
X25852Y-21037D01*
X26588Y-20301D01*
X27109Y-19400D01*
X27378Y-18394D01*
Y-17354D01*
X27109Y-16348D01*
X26588Y-15447D01*
X25852Y-14711D01*
X24951Y-14191D01*
X23946Y-13921D01*
D02*
G37*
G36*
X13946D02*
X12905D01*
X11900Y-14191D01*
X10998Y-14711D01*
X10262Y-15447D01*
X9742Y-16348D01*
X9472Y-17354D01*
Y-18394D01*
X9742Y-19400D01*
X10262Y-20301D01*
X10998Y-21037D01*
X11900Y-21557D01*
X12905Y-21827D01*
X13946D01*
X14951Y-21557D01*
X15852Y-21037D01*
X16588Y-20301D01*
X17109Y-19400D01*
X17378Y-18394D01*
Y-17354D01*
X17109Y-16348D01*
X16588Y-15447D01*
X15852Y-14711D01*
X14951Y-14191D01*
X13946Y-13921D01*
D02*
G37*
G36*
X153613Y-52976D02*
X152883D01*
X152178Y-53165D01*
X151546Y-53530D01*
X151030Y-54046D01*
X150665Y-54678D01*
X150476Y-55383D01*
Y-56113D01*
X150665Y-56818D01*
X151030Y-57450D01*
X151546Y-57966D01*
X152178Y-58331D01*
X152883Y-58520D01*
X153613D01*
X154318Y-58331D01*
X154950Y-57966D01*
X155466Y-57450D01*
X155831Y-56818D01*
X156020Y-56113D01*
Y-55383D01*
X155831Y-54678D01*
X155466Y-54046D01*
X154950Y-53530D01*
X154318Y-53165D01*
X153613Y-52976D01*
D02*
G37*
G36*
X154613Y-70476D02*
X153883D01*
X153178Y-70665D01*
X152546Y-71030D01*
X152030Y-71546D01*
X151665Y-72178D01*
X151476Y-72883D01*
Y-73613D01*
X151665Y-74318D01*
X152030Y-74950D01*
X152546Y-75466D01*
X153178Y-75831D01*
X153883Y-76020D01*
X154613D01*
X155318Y-75831D01*
X155950Y-75466D01*
X156466Y-74950D01*
X156831Y-74318D01*
X157020Y-73613D01*
Y-72883D01*
X156831Y-72178D01*
X156466Y-71546D01*
X155950Y-71030D01*
X155318Y-70665D01*
X154613Y-70476D01*
D02*
G37*
G36*
X152633Y-91496D02*
X151903D01*
X151198Y-91685D01*
X150566Y-92050D01*
X150050Y-92566D01*
X149685Y-93198D01*
X149496Y-93903D01*
Y-94633D01*
X149685Y-95337D01*
X150050Y-95970D01*
X150566Y-96486D01*
X151198Y-96851D01*
X151903Y-97039D01*
X152633D01*
X153338Y-96851D01*
X153970Y-96486D01*
X154486Y-95970D01*
X154850Y-95337D01*
X155039Y-94633D01*
Y-93903D01*
X154850Y-93198D01*
X154486Y-92566D01*
X153970Y-92050D01*
X153338Y-91685D01*
X152633Y-91496D01*
D02*
G37*
G36*
X152613Y-98976D02*
X151883D01*
X151178Y-99165D01*
X150546Y-99530D01*
X150030Y-100046D01*
X149665Y-100678D01*
X149476Y-101383D01*
Y-102113D01*
X149665Y-102818D01*
X150030Y-103450D01*
X150546Y-103966D01*
X151178Y-104331D01*
X151883Y-104520D01*
X152613D01*
X153318Y-104331D01*
X153950Y-103966D01*
X154466Y-103450D01*
X154831Y-102818D01*
X155020Y-102113D01*
Y-101383D01*
X154831Y-100678D01*
X154466Y-100046D01*
X153950Y-99530D01*
X153318Y-99165D01*
X152613Y-98976D01*
D02*
G37*
G36*
X146365Y-114728D02*
X145635D01*
X144930Y-114917D01*
X144298Y-115282D01*
X143782Y-115798D01*
X143417Y-116430D01*
X143228Y-117135D01*
Y-117865D01*
X143417Y-118570D01*
X143782Y-119202D01*
X144298Y-119718D01*
X144930Y-120083D01*
X145635Y-120272D01*
X146365D01*
X147070Y-120083D01*
X147702Y-119718D01*
X148218Y-119202D01*
X148583Y-118570D01*
X148772Y-117865D01*
Y-117135D01*
X148583Y-116430D01*
X148218Y-115798D01*
X147702Y-115282D01*
X147070Y-114917D01*
X146365Y-114728D01*
D02*
G37*
G36*
X144113Y-152976D02*
X143383D01*
X142678Y-153165D01*
X142046Y-153530D01*
X141530Y-154046D01*
X141165Y-154678D01*
X140976Y-155383D01*
Y-156113D01*
X141165Y-156818D01*
X141530Y-157450D01*
X142046Y-157966D01*
X142678Y-158331D01*
X143383Y-158520D01*
X144113D01*
X144818Y-158331D01*
X145450Y-157966D01*
X145966Y-157450D01*
X146331Y-156818D01*
X146520Y-156113D01*
Y-155383D01*
X146331Y-154678D01*
X145966Y-154046D01*
X145450Y-153530D01*
X144818Y-153165D01*
X144113Y-152976D01*
D02*
G37*
G36*
X160613Y-148976D02*
X159883D01*
X159178Y-149165D01*
X158546Y-149530D01*
X158030Y-150046D01*
X157665Y-150678D01*
X157476Y-151383D01*
Y-152113D01*
X157665Y-152818D01*
X158030Y-153450D01*
X158546Y-153966D01*
X159178Y-154331D01*
X159462Y-154407D01*
X159612Y-154965D01*
X159530Y-155046D01*
X159165Y-155678D01*
X158976Y-156383D01*
Y-157113D01*
X159165Y-157818D01*
X159530Y-158450D01*
X160046Y-158966D01*
X160678Y-159331D01*
X161383Y-159520D01*
X162113D01*
X162818Y-159331D01*
X163450Y-158966D01*
X163966Y-158450D01*
X164331Y-157818D01*
X164520Y-157113D01*
Y-156383D01*
X164331Y-155678D01*
X163966Y-155046D01*
X163450Y-154530D01*
X162818Y-154165D01*
X162534Y-154089D01*
X162384Y-153531D01*
X162466Y-153450D01*
X162831Y-152818D01*
X163020Y-152113D01*
Y-151383D01*
X162831Y-150678D01*
X162466Y-150046D01*
X161950Y-149530D01*
X161318Y-149165D01*
X160613Y-148976D01*
D02*
G37*
G36*
X99113Y-165476D02*
X98383D01*
X97678Y-165665D01*
X97046Y-166030D01*
X96530Y-166546D01*
X96165Y-167178D01*
X95976Y-167883D01*
Y-168613D01*
X96165Y-169318D01*
X96530Y-169950D01*
X97046Y-170466D01*
X97678Y-170831D01*
X98383Y-171020D01*
X99113D01*
X99818Y-170831D01*
X100450Y-170466D01*
X100966Y-169950D01*
X101331Y-169318D01*
X101520Y-168613D01*
Y-167883D01*
X101331Y-167178D01*
X100966Y-166546D01*
X100450Y-166030D01*
X99818Y-165665D01*
X99113Y-165476D01*
D02*
G37*
G36*
X69113Y-170976D02*
X68383D01*
X67678Y-171165D01*
X67046Y-171530D01*
X66530Y-172046D01*
X66165Y-172678D01*
X65976Y-173383D01*
Y-174113D01*
X66165Y-174818D01*
X66530Y-175450D01*
X67046Y-175966D01*
X67678Y-176331D01*
X68383Y-176520D01*
X69113D01*
X69818Y-176331D01*
X70450Y-175966D01*
X70966Y-175450D01*
X71331Y-174818D01*
X71520Y-174113D01*
Y-173383D01*
X71331Y-172678D01*
X70966Y-172046D01*
X70450Y-171530D01*
X69818Y-171165D01*
X69113Y-170976D01*
D02*
G37*
G36*
X190217Y-49785D02*
X186279D01*
X185505Y-49887D01*
X184783Y-50187D01*
X184162Y-50662D01*
X183686Y-51283D01*
X183387Y-52005D01*
X183285Y-52780D01*
Y-56717D01*
X183387Y-57491D01*
X183686Y-58214D01*
X184162Y-58834D01*
X184783Y-59310D01*
X185188Y-59477D01*
Y-60019D01*
X184783Y-60186D01*
X184162Y-60662D01*
X183686Y-61282D01*
X183387Y-62005D01*
X183285Y-62779D01*
Y-66716D01*
X183387Y-67492D01*
X183686Y-68214D01*
X184162Y-68834D01*
X184783Y-69310D01*
X185188Y-69477D01*
Y-70019D01*
X184783Y-70187D01*
X184162Y-70662D01*
X183686Y-71283D01*
X183387Y-72005D01*
X183285Y-72780D01*
Y-76717D01*
X183387Y-77491D01*
X183686Y-78214D01*
X184162Y-78834D01*
X184783Y-79309D01*
X185188Y-79477D01*
Y-80019D01*
X184783Y-80186D01*
X184162Y-80662D01*
X183686Y-81283D01*
X183387Y-82005D01*
X183285Y-82780D01*
Y-86717D01*
X183387Y-87492D01*
X183686Y-88214D01*
X184162Y-88834D01*
X184783Y-89310D01*
X185188Y-89477D01*
Y-90019D01*
X184783Y-90187D01*
X184162Y-90662D01*
X183686Y-91282D01*
X183387Y-92005D01*
X183285Y-92779D01*
Y-96716D01*
X183387Y-97492D01*
X183686Y-98214D01*
X184162Y-98834D01*
X184783Y-99309D01*
X185188Y-99477D01*
Y-100019D01*
X184783Y-100187D01*
X184162Y-100662D01*
X183686Y-101283D01*
X183387Y-102005D01*
X183285Y-102779D01*
Y-106717D01*
X183387Y-107492D01*
X183686Y-108214D01*
X184162Y-108834D01*
X184783Y-109309D01*
X185188Y-109477D01*
Y-110019D01*
X184783Y-110187D01*
X184162Y-110662D01*
X183686Y-111283D01*
X183387Y-112005D01*
X183285Y-112779D01*
Y-116717D01*
X183387Y-117491D01*
X183686Y-118214D01*
X184162Y-118834D01*
X184783Y-119309D01*
X185188Y-119477D01*
Y-120019D01*
X184783Y-120186D01*
X184162Y-120662D01*
X183686Y-121282D01*
X183387Y-122005D01*
X183285Y-122780D01*
Y-126716D01*
X183387Y-127491D01*
X183686Y-128214D01*
X184162Y-128834D01*
X184783Y-129309D01*
X185188Y-129477D01*
Y-130019D01*
X184783Y-130186D01*
X184162Y-130662D01*
X183686Y-131282D01*
X183387Y-132005D01*
X183285Y-132780D01*
Y-136716D01*
X183387Y-137492D01*
X183686Y-138214D01*
X184162Y-138834D01*
X184783Y-139310D01*
X185188Y-139477D01*
Y-140019D01*
X184783Y-140187D01*
X184162Y-140662D01*
X183686Y-141282D01*
X183387Y-142005D01*
X183285Y-142780D01*
Y-146716D01*
X183387Y-147492D01*
X183686Y-148214D01*
X184162Y-148834D01*
X184783Y-149310D01*
X185188Y-149477D01*
Y-150019D01*
X184783Y-150187D01*
X184162Y-150662D01*
X183686Y-151283D01*
X183387Y-152005D01*
X183285Y-152779D01*
Y-156717D01*
X183387Y-157492D01*
X183686Y-158214D01*
X184162Y-158834D01*
X184783Y-159309D01*
X185188Y-159477D01*
Y-160019D01*
X184783Y-160187D01*
X184162Y-160662D01*
X183686Y-161283D01*
X183387Y-162005D01*
X183285Y-162779D01*
Y-166717D01*
X183387Y-167491D01*
X183686Y-168214D01*
X184162Y-168834D01*
X184783Y-169309D01*
X185188Y-169477D01*
Y-170019D01*
X184783Y-170186D01*
X184162Y-170662D01*
X183686Y-171282D01*
X183387Y-172005D01*
X183285Y-172780D01*
Y-176716D01*
X183387Y-177491D01*
X183686Y-178214D01*
X184162Y-178834D01*
X184783Y-179309D01*
X185188Y-179477D01*
Y-180019D01*
X184783Y-180186D01*
X184162Y-180662D01*
X183686Y-181282D01*
X183387Y-182005D01*
X183285Y-182780D01*
Y-186716D01*
X183387Y-187492D01*
X183686Y-188214D01*
X184162Y-188834D01*
X184783Y-189310D01*
X185188Y-189477D01*
Y-190019D01*
X184783Y-190187D01*
X184162Y-190662D01*
X183686Y-191282D01*
X183387Y-192005D01*
X183285Y-192780D01*
Y-196716D01*
X183387Y-197492D01*
X183686Y-198214D01*
X184162Y-198834D01*
X184783Y-199310D01*
X185188Y-199477D01*
Y-200019D01*
X184783Y-200186D01*
X184162Y-200662D01*
X183686Y-201283D01*
X183387Y-202005D01*
X183285Y-202780D01*
Y-206716D01*
X183387Y-207491D01*
X183686Y-208214D01*
X184162Y-208834D01*
X184783Y-209310D01*
X185505Y-209609D01*
X186279Y-209711D01*
X190217D01*
X190991Y-209609D01*
X191714Y-209310D01*
X192334Y-208834D01*
X192809Y-208214D01*
X193109Y-207491D01*
X193211Y-206716D01*
Y-202780D01*
X193109Y-202005D01*
X192809Y-201283D01*
X192334Y-200662D01*
X191714Y-200186D01*
X191308Y-200019D01*
Y-199477D01*
X191714Y-199310D01*
X192334Y-198834D01*
X192809Y-198214D01*
X193109Y-197492D01*
X193211Y-196716D01*
Y-192780D01*
X193109Y-192005D01*
X192809Y-191282D01*
X192334Y-190662D01*
X191714Y-190187D01*
X191308Y-190019D01*
Y-189477D01*
X191714Y-189310D01*
X192334Y-188834D01*
X192809Y-188214D01*
X193109Y-187492D01*
X193211Y-186716D01*
Y-182780D01*
X193109Y-182005D01*
X192809Y-181282D01*
X192334Y-180662D01*
X191714Y-180186D01*
X191308Y-180019D01*
Y-179477D01*
X191714Y-179309D01*
X192334Y-178834D01*
X192809Y-178214D01*
X193109Y-177491D01*
X193211Y-176716D01*
Y-172780D01*
X193109Y-172005D01*
X192809Y-171282D01*
X192334Y-170662D01*
X191714Y-170186D01*
X191308Y-170019D01*
Y-169477D01*
X191714Y-169309D01*
X192334Y-168834D01*
X192809Y-168214D01*
X193109Y-167491D01*
X193211Y-166717D01*
Y-162779D01*
X193109Y-162005D01*
X192809Y-161283D01*
X192334Y-160662D01*
X191714Y-160187D01*
X191308Y-160019D01*
Y-159477D01*
X191714Y-159309D01*
X192334Y-158834D01*
X192809Y-158214D01*
X193109Y-157492D01*
X193211Y-156717D01*
Y-152779D01*
X193109Y-152005D01*
X192809Y-151283D01*
X192334Y-150662D01*
X191714Y-150187D01*
X191308Y-150019D01*
Y-149477D01*
X191714Y-149310D01*
X192334Y-148834D01*
X192809Y-148214D01*
X193109Y-147492D01*
X193211Y-146716D01*
Y-142780D01*
X193109Y-142005D01*
X192809Y-141282D01*
X192334Y-140662D01*
X191714Y-140187D01*
X191308Y-140019D01*
Y-139477D01*
X191714Y-139310D01*
X192334Y-138834D01*
X192809Y-138214D01*
X193109Y-137492D01*
X193211Y-136716D01*
Y-132780D01*
X193109Y-132005D01*
X192809Y-131282D01*
X192334Y-130662D01*
X191714Y-130186D01*
X191308Y-130019D01*
Y-129477D01*
X191714Y-129309D01*
X192334Y-128834D01*
X192809Y-128214D01*
X193109Y-127491D01*
X193211Y-126716D01*
Y-122780D01*
X193109Y-122005D01*
X192809Y-121282D01*
X192334Y-120662D01*
X191714Y-120186D01*
X191308Y-120019D01*
Y-119477D01*
X191714Y-119309D01*
X192334Y-118834D01*
X192809Y-118214D01*
X193109Y-117491D01*
X193211Y-116717D01*
Y-112779D01*
X193109Y-112005D01*
X192809Y-111283D01*
X192334Y-110662D01*
X191714Y-110187D01*
X191308Y-110019D01*
Y-109477D01*
X191714Y-109309D01*
X192334Y-108834D01*
X192809Y-108214D01*
X193109Y-107492D01*
X193211Y-106717D01*
Y-102779D01*
X193109Y-102005D01*
X192809Y-101283D01*
X192334Y-100662D01*
X191714Y-100187D01*
X191308Y-100019D01*
Y-99477D01*
X191714Y-99309D01*
X192334Y-98834D01*
X192809Y-98214D01*
X193109Y-97492D01*
X193211Y-96716D01*
Y-92779D01*
X193109Y-92005D01*
X192809Y-91282D01*
X192334Y-90662D01*
X191714Y-90187D01*
X191308Y-90019D01*
Y-89477D01*
X191714Y-89310D01*
X192334Y-88834D01*
X192809Y-88214D01*
X193109Y-87492D01*
X193211Y-86717D01*
Y-82780D01*
X193109Y-82005D01*
X192809Y-81283D01*
X192334Y-80662D01*
X191714Y-80186D01*
X191308Y-80019D01*
Y-79477D01*
X191714Y-79309D01*
X192334Y-78834D01*
X192809Y-78214D01*
X193109Y-77491D01*
X193211Y-76717D01*
Y-72780D01*
X193109Y-72005D01*
X192809Y-71283D01*
X192334Y-70662D01*
X191714Y-70187D01*
X191308Y-70019D01*
Y-69477D01*
X191714Y-69310D01*
X192334Y-68834D01*
X192809Y-68214D01*
X193109Y-67492D01*
X193211Y-66716D01*
Y-62779D01*
X193109Y-62005D01*
X192809Y-61282D01*
X192334Y-60662D01*
X191714Y-60186D01*
X191308Y-60019D01*
Y-59477D01*
X191714Y-59310D01*
X192334Y-58834D01*
X192809Y-58214D01*
X193109Y-57491D01*
X193211Y-56717D01*
Y-52780D01*
X193109Y-52005D01*
X192809Y-51283D01*
X192334Y-50662D01*
X191714Y-50187D01*
X190991Y-49887D01*
X190217Y-49785D01*
D02*
G37*
G36*
X37580Y-215000D02*
X36539D01*
X35533Y-215269D01*
X34632Y-215790D01*
X33896Y-216526D01*
X33376Y-217427D01*
X33106Y-218432D01*
Y-219473D01*
X33376Y-220479D01*
X33896Y-221380D01*
X34632Y-222116D01*
X35533Y-222636D01*
X36539Y-222905D01*
X37580D01*
X38585Y-222636D01*
X39486Y-222116D01*
X40222Y-221380D01*
X40742Y-220479D01*
X41012Y-219473D01*
Y-218432D01*
X40742Y-217427D01*
X40222Y-216526D01*
X39486Y-215790D01*
X38585Y-215269D01*
X37580Y-215000D01*
D02*
G37*
G36*
X19863D02*
X18822D01*
X17817Y-215269D01*
X16916Y-215790D01*
X16180Y-216526D01*
X15659Y-217427D01*
X15390Y-218432D01*
Y-219473D01*
X15659Y-220479D01*
X16180Y-221380D01*
X16916Y-222116D01*
X17817Y-222636D01*
X18822Y-222905D01*
X19863D01*
X20868Y-222636D01*
X21770Y-222116D01*
X22505Y-221380D01*
X23026Y-220479D01*
X23295Y-219473D01*
Y-218432D01*
X23026Y-217427D01*
X22505Y-216526D01*
X21770Y-215790D01*
X20868Y-215269D01*
X19863Y-215000D01*
D02*
G37*
G36*
X37580Y-240591D02*
X36539D01*
X35533Y-240860D01*
X34632Y-241380D01*
X33896Y-242116D01*
X33376Y-243018D01*
X33106Y-244023D01*
Y-245064D01*
X33376Y-246069D01*
X33896Y-246970D01*
X34632Y-247706D01*
X35533Y-248227D01*
X36539Y-248496D01*
X37580D01*
X38585Y-248227D01*
X39486Y-247706D01*
X40222Y-246970D01*
X40742Y-246069D01*
X41012Y-245064D01*
Y-244023D01*
X40742Y-243018D01*
X40222Y-242116D01*
X39486Y-241380D01*
X38585Y-240860D01*
X37580Y-240591D01*
D02*
G37*
G36*
X19863D02*
X18822D01*
X17817Y-240860D01*
X16916Y-241380D01*
X16180Y-242116D01*
X15659Y-243018D01*
X15390Y-244023D01*
Y-245064D01*
X15659Y-246069D01*
X16180Y-246970D01*
X16916Y-247706D01*
X17817Y-248227D01*
X18822Y-248496D01*
X19863D01*
X20868Y-248227D01*
X21770Y-247706D01*
X22505Y-246970D01*
X23026Y-246069D01*
X23295Y-245064D01*
Y-244023D01*
X23026Y-243018D01*
X22505Y-242116D01*
X21770Y-241380D01*
X20868Y-240860D01*
X19863Y-240591D01*
D02*
G37*
G36*
X102365Y-245728D02*
X101635D01*
X100930Y-245917D01*
X100298Y-246282D01*
X99782Y-246798D01*
X99417Y-247430D01*
X99228Y-248135D01*
Y-248865D01*
X99417Y-249570D01*
X99782Y-250202D01*
X100298Y-250718D01*
X100930Y-251083D01*
X101635Y-251272D01*
X102365D01*
X103070Y-251083D01*
X103702Y-250718D01*
X104218Y-250202D01*
X104583Y-249570D01*
X104772Y-248865D01*
Y-248135D01*
X104583Y-247430D01*
X104218Y-246798D01*
X103702Y-246282D01*
X103070Y-245917D01*
X102365Y-245728D01*
D02*
G37*
G36*
X157865Y-263228D02*
X157135D01*
X156430Y-263417D01*
X155798Y-263782D01*
X155282Y-264298D01*
X154917Y-264930D01*
X154728Y-265635D01*
Y-266365D01*
X154917Y-267070D01*
X155282Y-267702D01*
X155798Y-268218D01*
X156430Y-268583D01*
X157135Y-268772D01*
X157865D01*
X158570Y-268583D01*
X159202Y-268218D01*
X159718Y-267702D01*
X160083Y-267070D01*
X160272Y-266365D01*
Y-265635D01*
X160083Y-264930D01*
X159718Y-264298D01*
X159202Y-263782D01*
X158570Y-263417D01*
X157865Y-263228D01*
D02*
G37*
G36*
X185865Y-265228D02*
X185135D01*
X184430Y-265417D01*
X183798Y-265782D01*
X183282Y-266298D01*
X182917Y-266930D01*
X182728Y-267635D01*
Y-268365D01*
X182917Y-269070D01*
X183282Y-269702D01*
X183798Y-270218D01*
X184430Y-270583D01*
X185135Y-270772D01*
X185865D01*
X186570Y-270583D01*
X187202Y-270218D01*
X187718Y-269702D01*
X188083Y-269070D01*
X188272Y-268365D01*
Y-267635D01*
X188083Y-266930D01*
X187718Y-266298D01*
X187202Y-265782D01*
X186570Y-265417D01*
X185865Y-265228D01*
D02*
G37*
G36*
X102613Y-268476D02*
X101883D01*
X101178Y-268665D01*
X100546Y-269030D01*
X100030Y-269546D01*
X99665Y-270178D01*
X99476Y-270883D01*
Y-271613D01*
X99665Y-272318D01*
X100030Y-272950D01*
X100546Y-273466D01*
X101178Y-273831D01*
X101883Y-274020D01*
X102613D01*
X102814Y-273966D01*
X103172Y-274324D01*
X103172Y-274324D01*
X103666Y-274654D01*
X104248Y-274769D01*
X104248Y-274769D01*
X121605D01*
X121807Y-275269D01*
X121434Y-275643D01*
X121329Y-275823D01*
X98974D01*
X98869Y-275643D01*
X98353Y-275127D01*
X97721Y-274762D01*
X97017Y-274573D01*
X96287D01*
X95582Y-274762D01*
X94950Y-275127D01*
X94434Y-275643D01*
X94069Y-276275D01*
X93880Y-276980D01*
Y-277709D01*
X94069Y-278414D01*
X94434Y-279046D01*
X94950Y-279562D01*
X95582Y-279927D01*
X96287Y-280116D01*
X97017D01*
X97721Y-279927D01*
X98353Y-279562D01*
X98869Y-279046D01*
X98974Y-278866D01*
X121329D01*
X121434Y-279046D01*
X121710Y-279322D01*
X121560Y-279880D01*
X121428Y-279915D01*
X120796Y-280280D01*
X120280Y-280796D01*
X120032Y-281227D01*
X95570D01*
X95466Y-281046D01*
X94950Y-280530D01*
X94318Y-280165D01*
X93613Y-279976D01*
X92883D01*
X92178Y-280165D01*
X91546Y-280530D01*
X91030Y-281046D01*
X90665Y-281678D01*
X90476Y-282383D01*
Y-283113D01*
X90665Y-283818D01*
X91030Y-284450D01*
X91546Y-284966D01*
X92178Y-285331D01*
X92883Y-285520D01*
X93613D01*
X94318Y-285331D01*
X94950Y-284966D01*
X95466Y-284450D01*
X95570Y-284269D01*
X120350D01*
X120796Y-284716D01*
X121428Y-285081D01*
X122133Y-285270D01*
X122863D01*
X123568Y-285081D01*
X124200Y-284716D01*
X124716Y-284200D01*
X125081Y-283568D01*
X125270Y-282863D01*
Y-282133D01*
X125081Y-281428D01*
X124716Y-280796D01*
X124440Y-280520D01*
X124589Y-279963D01*
X124721Y-279927D01*
X125353Y-279562D01*
X125870Y-279046D01*
X126234Y-278414D01*
X126423Y-277709D01*
Y-276980D01*
X126234Y-276275D01*
X126128Y-276091D01*
X126494Y-275725D01*
X126678Y-275831D01*
X127383Y-276020D01*
X128113D01*
X128818Y-275831D01*
X129450Y-275466D01*
X129966Y-274950D01*
X130331Y-274318D01*
X130520Y-273613D01*
Y-272883D01*
X130331Y-272178D01*
X129966Y-271546D01*
X129450Y-271030D01*
X128818Y-270665D01*
X128113Y-270476D01*
X127383D01*
X126678Y-270665D01*
X126046Y-271030D01*
X125530Y-271546D01*
X125426Y-271727D01*
X105107D01*
X105020Y-271613D01*
Y-270883D01*
X104831Y-270178D01*
X104466Y-269546D01*
X103950Y-269030D01*
X103318Y-268665D01*
X102613Y-268476D01*
D02*
G37*
G36*
X142520Y-273047D02*
X141480D01*
X140474Y-273317D01*
X139573Y-273837D01*
X138837Y-274573D01*
X138317Y-275474D01*
X138047Y-276480D01*
Y-277520D01*
X138317Y-278526D01*
X138837Y-279427D01*
X139573Y-280163D01*
X140474Y-280683D01*
X141480Y-280953D01*
X142520D01*
X143526Y-280683D01*
X144427Y-280163D01*
X145163Y-279427D01*
X145683Y-278526D01*
X145953Y-277520D01*
Y-276480D01*
X145683Y-275474D01*
X145163Y-274573D01*
X144427Y-273837D01*
X143526Y-273317D01*
X142520Y-273047D01*
D02*
G37*
G36*
X46613Y-286476D02*
X45883D01*
X45178Y-286665D01*
X44546Y-287030D01*
X44030Y-287546D01*
X43665Y-288178D01*
X43494Y-288815D01*
X43001D01*
X42831Y-288178D01*
X42466Y-287546D01*
X41950Y-287030D01*
X41318Y-286665D01*
X40613Y-286476D01*
X39883D01*
X39178Y-286665D01*
X38546Y-287030D01*
X38030Y-287546D01*
X37665Y-288178D01*
X37476Y-288883D01*
Y-289613D01*
X37665Y-290318D01*
X38030Y-290950D01*
X38546Y-291466D01*
X39178Y-291831D01*
X39883Y-292020D01*
X40613D01*
X41318Y-291831D01*
X41950Y-291466D01*
X42466Y-290950D01*
X42831Y-290318D01*
X43001Y-289681D01*
X43494D01*
X43665Y-290318D01*
X44030Y-290950D01*
X44546Y-291466D01*
X45178Y-291831D01*
X45883Y-292020D01*
X46613D01*
X47318Y-291831D01*
X47950Y-291466D01*
X48466Y-290950D01*
X48831Y-290318D01*
X49020Y-289613D01*
Y-288883D01*
X48831Y-288178D01*
X48466Y-287546D01*
X47950Y-287030D01*
X47318Y-286665D01*
X46613Y-286476D01*
D02*
G37*
G36*
X142520Y-283047D02*
X141480D01*
X140474Y-283317D01*
X139573Y-283837D01*
X138837Y-284573D01*
X138317Y-285474D01*
X138047Y-286480D01*
Y-287520D01*
X138317Y-288526D01*
X138837Y-289427D01*
X139573Y-290163D01*
X140474Y-290683D01*
X141480Y-290953D01*
X142520D01*
X143526Y-290683D01*
X144427Y-290163D01*
X145163Y-289427D01*
X145683Y-288526D01*
X145953Y-287520D01*
Y-286480D01*
X145683Y-285474D01*
X145163Y-284573D01*
X144427Y-283837D01*
X143526Y-283317D01*
X142520Y-283047D01*
D02*
G37*
G36*
X109865Y-290228D02*
X109135D01*
X108430Y-290417D01*
X107798Y-290782D01*
X107282Y-291298D01*
X106917Y-291930D01*
X106728Y-292635D01*
Y-293365D01*
X106917Y-294070D01*
X107282Y-294702D01*
X107798Y-295218D01*
X108430Y-295583D01*
X109135Y-295772D01*
X109865D01*
X110570Y-295583D01*
X111202Y-295218D01*
X111718Y-294702D01*
X112083Y-294070D01*
X112272Y-293365D01*
Y-292635D01*
X112083Y-291930D01*
X111718Y-291298D01*
X111202Y-290782D01*
X110570Y-290417D01*
X109865Y-290228D01*
D02*
G37*
G36*
X38693Y-295709D02*
X37393D01*
X36138Y-296045D01*
X35012Y-296695D01*
X34093Y-297614D01*
X33443Y-298740D01*
X33372Y-299004D01*
X32872D01*
X32801Y-298740D01*
X32151Y-297614D01*
X31232Y-296695D01*
X30106Y-296045D01*
X28851Y-295709D01*
X27551D01*
X26295Y-296045D01*
X25169Y-296695D01*
X24250Y-297614D01*
X23600Y-298740D01*
X23529Y-299004D01*
X23030D01*
X22959Y-298740D01*
X22309Y-297614D01*
X21390Y-296695D01*
X20264Y-296045D01*
X19008Y-295709D01*
X17708D01*
X16453Y-296045D01*
X15327Y-296695D01*
X14408Y-297614D01*
X13758Y-298740D01*
X13421Y-299996D01*
Y-301296D01*
X13758Y-302551D01*
X14408Y-303677D01*
X15327Y-304596D01*
X16453Y-305246D01*
X17708Y-305583D01*
X19008D01*
X20264Y-305246D01*
X21390Y-304596D01*
X22309Y-303677D01*
X22959Y-302551D01*
X23030Y-302287D01*
X23529D01*
X23600Y-302551D01*
X24250Y-303677D01*
X25169Y-304596D01*
X26295Y-305246D01*
X27551Y-305583D01*
X28851D01*
X30106Y-305246D01*
X31232Y-304596D01*
X32151Y-303677D01*
X32801Y-302551D01*
X32872Y-302287D01*
X33372D01*
X33443Y-302551D01*
X34093Y-303677D01*
X35012Y-304596D01*
X36138Y-305246D01*
X37393Y-305583D01*
X38693D01*
X39949Y-305246D01*
X41075Y-304596D01*
X41994Y-303677D01*
X42644Y-302551D01*
X42980Y-301296D01*
Y-299996D01*
X42644Y-298740D01*
X41994Y-297614D01*
X41075Y-296695D01*
X39949Y-296045D01*
X38693Y-295709D01*
D02*
G37*
G36*
X142520Y-293047D02*
X141480D01*
X140474Y-293317D01*
X139573Y-293837D01*
X138837Y-294573D01*
X138317Y-295474D01*
X138047Y-296480D01*
Y-297520D01*
X138317Y-298526D01*
X138837Y-299427D01*
X139573Y-300163D01*
X140474Y-300683D01*
X141480Y-300953D01*
X142520D01*
X143526Y-300683D01*
X144427Y-300163D01*
X145163Y-299427D01*
X145683Y-298526D01*
X145953Y-297520D01*
Y-296480D01*
X145683Y-295474D01*
X145163Y-294573D01*
X144427Y-293837D01*
X143526Y-293317D01*
X142520Y-293047D01*
D02*
G37*
G36*
X95613Y-300476D02*
X94883D01*
X94178Y-300665D01*
X93546Y-301030D01*
X93030Y-301546D01*
X92665Y-302178D01*
X92476Y-302883D01*
Y-303613D01*
X92665Y-304318D01*
X93030Y-304950D01*
X93546Y-305466D01*
X94178Y-305831D01*
X94883Y-306020D01*
X95613D01*
X96318Y-305831D01*
X96950Y-305466D01*
X97466Y-304950D01*
X97831Y-304318D01*
X98020Y-303613D01*
Y-302883D01*
X97831Y-302178D01*
X97466Y-301546D01*
X96950Y-301030D01*
X96318Y-300665D01*
X95613Y-300476D01*
D02*
G37*
G36*
X104113Y-301976D02*
X103383D01*
X102678Y-302165D01*
X102046Y-302530D01*
X101530Y-303046D01*
X101165Y-303678D01*
X100976Y-304383D01*
Y-305113D01*
X101165Y-305818D01*
X101530Y-306450D01*
X102046Y-306966D01*
X102678Y-307331D01*
X103383Y-307520D01*
X104113D01*
X104818Y-307331D01*
X105450Y-306966D01*
X105966Y-306450D01*
X106331Y-305818D01*
X106520Y-305113D01*
Y-304383D01*
X106331Y-303678D01*
X105966Y-303046D01*
X105450Y-302530D01*
X104818Y-302165D01*
X104113Y-301976D01*
D02*
G37*
G36*
X124885Y-303205D02*
X124155D01*
X123450Y-303394D01*
X122818Y-303759D01*
X122302Y-304275D01*
X121937Y-304907D01*
X121748Y-305611D01*
Y-306341D01*
X121937Y-307046D01*
X122302Y-307678D01*
X122818Y-308194D01*
X123450Y-308559D01*
X124155Y-308748D01*
X124885D01*
X125590Y-308559D01*
X126222Y-308194D01*
X126738Y-307678D01*
X127102Y-307046D01*
X127291Y-306341D01*
Y-305611D01*
X127102Y-304907D01*
X126738Y-304275D01*
X126222Y-303759D01*
X125590Y-303394D01*
X124885Y-303205D01*
D02*
G37*
G36*
X111396Y-299815D02*
X110667D01*
X109962Y-300004D01*
X109330Y-300369D01*
X108814Y-300885D01*
X108449Y-301517D01*
X108260Y-302222D01*
Y-302952D01*
X108449Y-303656D01*
X108814Y-304288D01*
X109170Y-304645D01*
X109172Y-304876D01*
X109105Y-305164D01*
X109068Y-305223D01*
X108542Y-305526D01*
X108026Y-306042D01*
X107661Y-306674D01*
X107472Y-307379D01*
Y-308109D01*
X107661Y-308814D01*
X108026Y-309446D01*
X108542Y-309962D01*
X109174Y-310327D01*
X109879Y-310516D01*
X110609D01*
X111314Y-310327D01*
X111946Y-309962D01*
X112462Y-309446D01*
X112827Y-308814D01*
X113016Y-308109D01*
Y-307379D01*
X112827Y-306674D01*
X112462Y-306042D01*
X112106Y-305686D01*
X112104Y-305455D01*
X112171Y-305167D01*
X112207Y-305108D01*
X112733Y-304804D01*
X113249Y-304288D01*
X113614Y-303656D01*
X113803Y-302952D01*
Y-302222D01*
X113614Y-301517D01*
X113249Y-300885D01*
X112733Y-300369D01*
X112101Y-300004D01*
X111396Y-299815D01*
D02*
G37*
G36*
X101007Y-310464D02*
X100277D01*
X99572Y-310652D01*
X98940Y-311017D01*
X98424Y-311533D01*
X98059Y-312165D01*
X97870Y-312870D01*
Y-313600D01*
X98059Y-314305D01*
X98424Y-314937D01*
X98940Y-315453D01*
X99572Y-315818D01*
X100277Y-316007D01*
X101007D01*
X101711Y-315818D01*
X102344Y-315453D01*
X102860Y-314937D01*
X103225Y-314305D01*
X103413Y-313600D01*
Y-312870D01*
X103225Y-312165D01*
X102860Y-311533D01*
X102344Y-311017D01*
X101711Y-310652D01*
X101007Y-310464D01*
D02*
G37*
G36*
X85519Y-315383D02*
X84790D01*
X84085Y-315572D01*
X83453Y-315937D01*
X82937Y-316453D01*
X82572Y-317085D01*
X82383Y-317790D01*
Y-318519D01*
X82572Y-319224D01*
X82937Y-319857D01*
X83453Y-320373D01*
X84085Y-320737D01*
X84790Y-320926D01*
X85519D01*
X86225Y-320737D01*
X86857Y-320373D01*
X87372Y-319857D01*
X87737Y-319224D01*
X87926Y-318519D01*
Y-317790D01*
X87737Y-317085D01*
X87372Y-316453D01*
X86857Y-315937D01*
X86225Y-315572D01*
X85519Y-315383D01*
D02*
G37*
G36*
X90113Y-319976D02*
X89383D01*
X88678Y-320165D01*
X88046Y-320530D01*
X87530Y-321046D01*
X87165Y-321678D01*
X87073Y-322024D01*
X86495Y-322268D01*
X86318Y-322165D01*
X85613Y-321976D01*
X84883D01*
X84178Y-322165D01*
X83546Y-322530D01*
X83030Y-323046D01*
X82665Y-323678D01*
X82476Y-324383D01*
Y-325113D01*
X82665Y-325818D01*
X83030Y-326450D01*
X83546Y-326966D01*
X84178Y-327331D01*
X84883Y-327520D01*
X85613D01*
X86318Y-327331D01*
X86950Y-326966D01*
X87466Y-326450D01*
X87831Y-325818D01*
X87923Y-325472D01*
X88501Y-325228D01*
X88678Y-325331D01*
X89383Y-325520D01*
X90113D01*
X90818Y-325331D01*
X91450Y-324966D01*
X91966Y-324450D01*
X92331Y-323818D01*
X92520Y-323113D01*
Y-322383D01*
X92331Y-321678D01*
X91966Y-321046D01*
X91450Y-320530D01*
X90818Y-320165D01*
X90113Y-319976D01*
D02*
G37*
G36*
X156157Y-318339D02*
X155428D01*
X154723Y-318528D01*
X154091Y-318892D01*
X153575Y-319408D01*
X153210Y-320040D01*
X153021Y-320745D01*
Y-321475D01*
X153210Y-322180D01*
X153575Y-322812D01*
X154091Y-323328D01*
X154723Y-323693D01*
X155428Y-323882D01*
X156157D01*
X156862Y-323693D01*
X157494Y-323328D01*
X158010Y-322812D01*
X158375Y-322180D01*
X158564Y-321475D01*
Y-320745D01*
X158375Y-320040D01*
X158010Y-319408D01*
X157494Y-318892D01*
X156862Y-318528D01*
X156157Y-318339D01*
D02*
G37*
G36*
X65086Y-317528D02*
X63379D01*
X61693Y-317794D01*
X60070Y-318322D01*
X58550Y-319097D01*
X57169Y-320100D01*
X55962Y-321307D01*
X54959Y-322687D01*
X54299Y-323983D01*
X53746Y-324036D01*
X53729Y-324030D01*
X53692Y-323974D01*
X53196Y-323642D01*
X52610Y-323526D01*
X45524D01*
X44938Y-323642D01*
X44442Y-323974D01*
X44111Y-324470D01*
X43994Y-325055D01*
Y-335291D01*
X44111Y-335877D01*
X44442Y-336373D01*
X44938Y-336704D01*
X45524Y-336821D01*
X52610D01*
X53196Y-336704D01*
X53692Y-336373D01*
X54023Y-335877D01*
X54140Y-335291D01*
Y-333546D01*
X54640Y-333426D01*
X54959Y-334053D01*
X55962Y-335434D01*
X57169Y-336640D01*
X58550Y-337643D01*
X60070Y-338418D01*
X61693Y-338946D01*
X63379Y-339213D01*
X65086D01*
X66771Y-338946D01*
X68394Y-338418D01*
X69915Y-337643D01*
X71296Y-336640D01*
X72502Y-335434D01*
X73506Y-334053D01*
X74280Y-332532D01*
X74808Y-330909D01*
X75075Y-329223D01*
Y-327517D01*
X74808Y-325831D01*
X74280Y-324208D01*
X73506Y-322687D01*
X72502Y-321307D01*
X71296Y-320100D01*
X69915Y-319097D01*
X68394Y-318322D01*
X66771Y-317794D01*
X65086Y-317528D01*
D02*
G37*
G36*
X152585Y-328772D02*
X151856D01*
X151151Y-328960D01*
X150519Y-329325D01*
X150003Y-329841D01*
X149638Y-330473D01*
X149556Y-330778D01*
X148974Y-331019D01*
X148818Y-330929D01*
X148113Y-330740D01*
X147383D01*
X146678Y-330929D01*
X146046Y-331294D01*
X145530Y-331810D01*
X145165Y-332442D01*
X144976Y-333147D01*
Y-333877D01*
X145165Y-334582D01*
X145530Y-335214D01*
X146046Y-335730D01*
X146678Y-336095D01*
X147383Y-336283D01*
X148113D01*
X148818Y-336095D01*
X149450Y-335730D01*
X149966Y-335214D01*
X150331Y-334582D01*
X150412Y-334277D01*
X150995Y-334036D01*
X151151Y-334126D01*
X151856Y-334315D01*
X152585D01*
X153290Y-334126D01*
X153922Y-333761D01*
X154438Y-333245D01*
X154803Y-332613D01*
X154992Y-331908D01*
Y-331178D01*
X154803Y-330473D01*
X154438Y-329841D01*
X153922Y-329325D01*
X153290Y-328960D01*
X152585Y-328772D01*
D02*
G37*
G36*
X27365Y-327228D02*
X26635D01*
X25930Y-327417D01*
X25298Y-327782D01*
X24782Y-328298D01*
X24417Y-328930D01*
X24228Y-329635D01*
Y-330365D01*
X24417Y-331070D01*
X24782Y-331702D01*
X25298Y-332218D01*
X25930Y-332583D01*
X26635Y-332772D01*
X27365D01*
X28070Y-332583D01*
X28702Y-332218D01*
X29218Y-331702D01*
X29583Y-331070D01*
X29772Y-330365D01*
Y-329635D01*
X29583Y-328930D01*
X29218Y-328298D01*
X28702Y-327782D01*
X28070Y-327417D01*
X27365Y-327228D01*
D02*
G37*
G36*
X10878Y-323526D02*
X3791D01*
X3206Y-323642D01*
X2710Y-323974D01*
X2378Y-324470D01*
X2262Y-325055D01*
Y-335291D01*
X2378Y-335877D01*
X2710Y-336373D01*
X3206Y-336704D01*
X3791Y-336821D01*
X10878D01*
X11463Y-336704D01*
X11959Y-336373D01*
X12291Y-335877D01*
X12407Y-335291D01*
Y-325055D01*
X12291Y-324470D01*
X11959Y-323974D01*
X11463Y-323642D01*
X10878Y-323526D01*
D02*
G37*
G36*
X137113Y-332760D02*
X136383D01*
X135678Y-332949D01*
X135046Y-333314D01*
X134530Y-333830D01*
X134165Y-334462D01*
X133976Y-335167D01*
Y-335896D01*
X134165Y-336601D01*
X134530Y-337233D01*
X135046Y-337749D01*
X135678Y-338114D01*
X136383Y-338303D01*
X137113D01*
X137818Y-338114D01*
X138450Y-337749D01*
X138966Y-337233D01*
X139331Y-336601D01*
X139520Y-335896D01*
Y-335167D01*
X139331Y-334462D01*
X138966Y-333830D01*
X138450Y-333314D01*
X137818Y-332949D01*
X137113Y-332760D01*
D02*
G37*
G36*
X88613Y-328976D02*
X87883D01*
X87178Y-329165D01*
X86546Y-329530D01*
X86030Y-330046D01*
X85665Y-330678D01*
X85476Y-331383D01*
Y-332113D01*
X85548Y-332380D01*
X85434Y-332880D01*
X84729Y-333069D01*
X84097Y-333434D01*
X83581Y-333950D01*
X83216Y-334582D01*
X83027Y-335286D01*
Y-336016D01*
X83216Y-336721D01*
X82785Y-336975D01*
X82551Y-337038D01*
X81919Y-337403D01*
X81403Y-337919D01*
X81038Y-338551D01*
X80849Y-339256D01*
Y-339986D01*
X81038Y-340691D01*
X81403Y-341323D01*
X81919Y-341839D01*
X82551Y-342203D01*
X83256Y-342392D01*
X83986D01*
X84691Y-342203D01*
X85323Y-341839D01*
X85839Y-341323D01*
X86203Y-340691D01*
X86392Y-339986D01*
Y-339256D01*
X86203Y-338551D01*
X86634Y-338297D01*
X86868Y-338234D01*
X87501Y-337869D01*
X88016Y-337353D01*
X88381Y-336721D01*
X88570Y-336016D01*
Y-335286D01*
X88499Y-335020D01*
X88613Y-334520D01*
X89318Y-334331D01*
X89950Y-333966D01*
X90466Y-333450D01*
X90831Y-332818D01*
X91020Y-332113D01*
Y-331383D01*
X90831Y-330678D01*
X90466Y-330046D01*
X89950Y-329530D01*
X89318Y-329165D01*
X88613Y-328976D01*
D02*
G37*
G36*
X137524Y-341224D02*
X136794D01*
X136089Y-341413D01*
X135457Y-341778D01*
X134941Y-342294D01*
X134576Y-342926D01*
X134387Y-343631D01*
Y-344361D01*
X134576Y-345066D01*
X134941Y-345698D01*
X135457Y-346214D01*
X136089Y-346579D01*
X136794Y-346768D01*
X137524D01*
X138229Y-346579D01*
X138861Y-346214D01*
X139377Y-345698D01*
X139742Y-345066D01*
X139930Y-344361D01*
Y-343631D01*
X139742Y-342926D01*
X139377Y-342294D01*
X138861Y-341778D01*
X138229Y-341413D01*
X137524Y-341224D01*
D02*
G37*
G36*
X147417Y-336814D02*
X146687D01*
X145982Y-337002D01*
X145350Y-337367D01*
X144834Y-337883D01*
X144469Y-338515D01*
X144280Y-339220D01*
Y-339950D01*
X144469Y-340655D01*
X144834Y-341287D01*
X145253Y-341706D01*
X145212Y-342093D01*
X145134Y-342256D01*
X145020Y-342286D01*
X144388Y-342651D01*
X143872Y-343167D01*
X143508Y-343799D01*
X143319Y-344504D01*
Y-345234D01*
X143508Y-345939D01*
X143872Y-346571D01*
X144388Y-347087D01*
X145020Y-347452D01*
X145725Y-347641D01*
X146455D01*
X147160Y-347452D01*
X147792Y-347087D01*
X148308Y-346571D01*
X148673Y-345939D01*
X148862Y-345234D01*
Y-344504D01*
X148673Y-343799D01*
X148308Y-343167D01*
X147889Y-342748D01*
X147931Y-342361D01*
X148008Y-342198D01*
X148122Y-342168D01*
X148754Y-341803D01*
X149270Y-341287D01*
X149635Y-340655D01*
X149824Y-339950D01*
Y-339220D01*
X149635Y-338515D01*
X149270Y-337883D01*
X148754Y-337367D01*
X148122Y-337002D01*
X147417Y-336814D01*
D02*
G37*
G36*
X128113Y-347476D02*
X127383D01*
X126678Y-347665D01*
X126046Y-348030D01*
X125530Y-348546D01*
X125165Y-349178D01*
X124976Y-349883D01*
Y-350613D01*
X125165Y-351318D01*
X125530Y-351950D01*
X126046Y-352466D01*
X126678Y-352831D01*
X127383Y-353020D01*
X128113D01*
X128818Y-352831D01*
X129450Y-352466D01*
X129966Y-351950D01*
X130331Y-351318D01*
X130520Y-350613D01*
Y-349883D01*
X130331Y-349178D01*
X129966Y-348546D01*
X129450Y-348030D01*
X128818Y-347665D01*
X128113Y-347476D01*
D02*
G37*
G36*
X63865Y-347728D02*
X63135D01*
X62430Y-347917D01*
X61798Y-348282D01*
X61282Y-348798D01*
X60917Y-349430D01*
X60728Y-350135D01*
Y-350865D01*
X60917Y-351570D01*
X61282Y-352202D01*
X61798Y-352718D01*
X62430Y-353083D01*
X63135Y-353272D01*
X63865D01*
X64570Y-353083D01*
X65202Y-352718D01*
X65718Y-352202D01*
X66083Y-351570D01*
X66272Y-350865D01*
Y-350135D01*
X66083Y-349430D01*
X65718Y-348798D01*
X65202Y-348282D01*
X64570Y-347917D01*
X63865Y-347728D01*
D02*
G37*
G36*
X114613Y-351476D02*
X113883D01*
X113178Y-351665D01*
X112546Y-352030D01*
X112030Y-352546D01*
X111665Y-353178D01*
X111476Y-353883D01*
Y-354613D01*
X111665Y-355318D01*
X112030Y-355950D01*
X112546Y-356466D01*
X113178Y-356831D01*
X113883Y-357020D01*
X114613D01*
X115318Y-356831D01*
X115950Y-356466D01*
X116466Y-355950D01*
X116831Y-355318D01*
X117020Y-354613D01*
Y-353883D01*
X116831Y-353178D01*
X116466Y-352546D01*
X115950Y-352030D01*
X115318Y-351665D01*
X114613Y-351476D01*
D02*
G37*
G36*
X184865Y-354228D02*
X184135D01*
X183430Y-354417D01*
X182798Y-354782D01*
X182282Y-355298D01*
X181917Y-355930D01*
X181728Y-356635D01*
Y-357365D01*
X181917Y-358070D01*
X182282Y-358702D01*
X182798Y-359218D01*
X183430Y-359583D01*
X184135Y-359772D01*
X184865D01*
X185570Y-359583D01*
X186202Y-359218D01*
X186718Y-358702D01*
X187083Y-358070D01*
X187272Y-357365D01*
Y-356635D01*
X187083Y-355930D01*
X186718Y-355298D01*
X186202Y-354782D01*
X185570Y-354417D01*
X184865Y-354228D01*
D02*
G37*
G36*
X38693Y-352795D02*
X37393D01*
X36138Y-353132D01*
X35012Y-353782D01*
X34093Y-354701D01*
X33443Y-355827D01*
X33106Y-357082D01*
Y-358382D01*
X33443Y-359638D01*
X34093Y-360764D01*
X35012Y-361683D01*
X36138Y-362333D01*
X37393Y-362669D01*
X38693D01*
X39949Y-362333D01*
X41075Y-361683D01*
X41994Y-360764D01*
X42644Y-359638D01*
X42980Y-358382D01*
Y-357082D01*
X42644Y-355827D01*
X41994Y-354701D01*
X41075Y-353782D01*
X39949Y-353132D01*
X38693Y-352795D01*
D02*
G37*
G36*
X19008D02*
X17708D01*
X16453Y-353132D01*
X15327Y-353782D01*
X14408Y-354701D01*
X13758Y-355827D01*
X13421Y-357082D01*
Y-358382D01*
X13758Y-359638D01*
X14408Y-360764D01*
X15327Y-361683D01*
X16453Y-362333D01*
X17708Y-362669D01*
X19008D01*
X20264Y-362333D01*
X21390Y-361683D01*
X22309Y-360764D01*
X22959Y-359638D01*
X23295Y-358382D01*
Y-357082D01*
X22959Y-355827D01*
X22309Y-354701D01*
X21390Y-353782D01*
X20264Y-353132D01*
X19008Y-352795D01*
D02*
G37*
G36*
X77113Y-358476D02*
X76383D01*
X75678Y-358665D01*
X75046Y-359030D01*
X74530Y-359546D01*
X74165Y-360178D01*
X73976Y-360883D01*
Y-361613D01*
X74165Y-362318D01*
X74530Y-362950D01*
X75046Y-363466D01*
X75678Y-363831D01*
X76383Y-364020D01*
X77113D01*
X77818Y-363831D01*
X78450Y-363466D01*
X78966Y-362950D01*
X79331Y-362318D01*
X79520Y-361613D01*
Y-360883D01*
X79331Y-360178D01*
X78966Y-359546D01*
X78450Y-359030D01*
X77818Y-358665D01*
X77113Y-358476D01*
D02*
G37*
G36*
X151865Y-361228D02*
X151135D01*
X150430Y-361417D01*
X149798Y-361782D01*
X149282Y-362298D01*
X148917Y-362930D01*
X148728Y-363635D01*
Y-364365D01*
X148917Y-365070D01*
X149282Y-365702D01*
X149798Y-366218D01*
X150430Y-366583D01*
X151135Y-366772D01*
X151865D01*
X152570Y-366583D01*
X153202Y-366218D01*
X153718Y-365702D01*
X154083Y-365070D01*
X154272Y-364365D01*
Y-363635D01*
X154083Y-362930D01*
X153718Y-362298D01*
X153202Y-361782D01*
X152570Y-361417D01*
X151865Y-361228D01*
D02*
G37*
G36*
X133113Y-363976D02*
X132383D01*
X131678Y-364165D01*
X131046Y-364530D01*
X130530Y-365046D01*
X130165Y-365678D01*
X129976Y-366383D01*
Y-367113D01*
X130030Y-367314D01*
X127672Y-369672D01*
X127342Y-370166D01*
X127227Y-370748D01*
Y-373506D01*
X126727Y-373640D01*
X126588Y-373400D01*
X125852Y-372664D01*
X124951Y-372143D01*
X123946Y-371874D01*
X122905D01*
X121899Y-372143D01*
X120998Y-372664D01*
X120262Y-373400D01*
X119742Y-374301D01*
X119473Y-375306D01*
Y-376347D01*
X119742Y-377352D01*
X120262Y-378254D01*
X120735Y-378727D01*
X120528Y-379227D01*
X116322D01*
X116115Y-378727D01*
X116588Y-378254D01*
X117109Y-377352D01*
X117378Y-376347D01*
Y-375306D01*
X117109Y-374301D01*
X116588Y-373400D01*
X115852Y-372664D01*
X114951Y-372143D01*
X113946Y-371874D01*
X112905D01*
X111899Y-372143D01*
X110998Y-372664D01*
X110262Y-373400D01*
X109742Y-374301D01*
X109473Y-375306D01*
Y-376347D01*
X109742Y-377352D01*
X110262Y-378254D01*
X110735Y-378727D01*
X110528Y-379227D01*
X106322D01*
X106115Y-378727D01*
X106588Y-378254D01*
X107109Y-377352D01*
X107378Y-376347D01*
Y-375306D01*
X107109Y-374301D01*
X106588Y-373400D01*
X105852Y-372664D01*
X104951Y-372143D01*
X103946Y-371874D01*
X102905D01*
X101900Y-372143D01*
X100998Y-372664D01*
X100262Y-373400D01*
X99742Y-374301D01*
X99472Y-375306D01*
Y-376347D01*
X99742Y-377352D01*
X100262Y-378254D01*
X100735Y-378727D01*
X100528Y-379227D01*
X96322D01*
X96115Y-378727D01*
X96588Y-378254D01*
X97109Y-377352D01*
X97378Y-376347D01*
Y-375306D01*
X97109Y-374301D01*
X96588Y-373400D01*
X95852Y-372664D01*
X94951Y-372143D01*
X93946Y-371874D01*
X92905D01*
X91900Y-372143D01*
X90998Y-372664D01*
X90262Y-373400D01*
X89742Y-374301D01*
X89473Y-375306D01*
Y-376347D01*
X89742Y-377352D01*
X90262Y-378254D01*
X90735Y-378727D01*
X90528Y-379227D01*
X86322D01*
X86115Y-378727D01*
X86588Y-378254D01*
X87109Y-377352D01*
X87378Y-376347D01*
Y-375306D01*
X87109Y-374301D01*
X86588Y-373400D01*
X85852Y-372664D01*
X84951Y-372143D01*
X83946Y-371874D01*
X82905D01*
X81899Y-372143D01*
X80998Y-372664D01*
X80262Y-373400D01*
X79742Y-374301D01*
X79473Y-375306D01*
Y-376347D01*
X79742Y-377352D01*
X80262Y-378254D01*
X80735Y-378727D01*
X80528Y-379227D01*
X76322D01*
X76115Y-378727D01*
X76588Y-378254D01*
X77109Y-377352D01*
X77378Y-376347D01*
Y-375306D01*
X77109Y-374301D01*
X76588Y-373400D01*
X75852Y-372664D01*
X74951Y-372143D01*
X73946Y-371874D01*
X72905D01*
X71899Y-372143D01*
X70998Y-372664D01*
X70262Y-373400D01*
X69742Y-374301D01*
X69472Y-375306D01*
Y-376347D01*
X69742Y-377352D01*
X70262Y-378254D01*
X70735Y-378727D01*
X70528Y-379227D01*
X66322D01*
X66115Y-378727D01*
X66588Y-378254D01*
X67109Y-377352D01*
X67378Y-376347D01*
Y-375306D01*
X67109Y-374301D01*
X66588Y-373400D01*
X65852Y-372664D01*
X64951Y-372143D01*
X63946Y-371874D01*
X62905D01*
X61900Y-372143D01*
X60998Y-372664D01*
X60262Y-373400D01*
X59742Y-374301D01*
X59473Y-375306D01*
Y-376347D01*
X59742Y-377352D01*
X60262Y-378254D01*
X60735Y-378727D01*
X60528Y-379227D01*
X56322D01*
X56115Y-378727D01*
X56588Y-378254D01*
X57109Y-377352D01*
X57378Y-376347D01*
Y-375306D01*
X57109Y-374301D01*
X56588Y-373400D01*
X55852Y-372664D01*
X54951Y-372143D01*
X53946Y-371874D01*
X52905D01*
X51899Y-372143D01*
X50998Y-372664D01*
X50262Y-373400D01*
X49742Y-374301D01*
X49472Y-375306D01*
Y-376347D01*
X49742Y-377352D01*
X50262Y-378254D01*
X50735Y-378727D01*
X50528Y-379227D01*
X48977D01*
X47106Y-377356D01*
X47109Y-377352D01*
X47378Y-376347D01*
Y-375306D01*
X47109Y-374301D01*
X46588Y-373400D01*
X45852Y-372664D01*
X44951Y-372143D01*
X43946Y-371874D01*
X42905D01*
X41899Y-372143D01*
X40998Y-372664D01*
X40262Y-373400D01*
X39742Y-374301D01*
X39472Y-375306D01*
Y-376347D01*
X39742Y-377352D01*
X40262Y-378254D01*
X40998Y-378990D01*
X41899Y-379510D01*
X42905Y-379780D01*
X43946D01*
X44951Y-379510D01*
X44955Y-379508D01*
X47271Y-381824D01*
X47764Y-382154D01*
X48346Y-382269D01*
X50743D01*
X50893Y-382769D01*
X50262Y-383400D01*
X49742Y-384301D01*
X49472Y-385306D01*
Y-386347D01*
X49742Y-387352D01*
X50262Y-388254D01*
X50998Y-388990D01*
X51899Y-389510D01*
X52905Y-389779D01*
X53946D01*
X54951Y-389510D01*
X55852Y-388990D01*
X56588Y-388254D01*
X57109Y-387352D01*
X57378Y-386347D01*
Y-385306D01*
X57109Y-384301D01*
X56588Y-383400D01*
X55958Y-382769D01*
X56107Y-382269D01*
X60743D01*
X60893Y-382769D01*
X60262Y-383400D01*
X59742Y-384301D01*
X59473Y-385306D01*
Y-386347D01*
X59742Y-387352D01*
X60262Y-388254D01*
X60998Y-388990D01*
X61900Y-389510D01*
X62905Y-389779D01*
X63946D01*
X64951Y-389510D01*
X65852Y-388990D01*
X66588Y-388254D01*
X67109Y-387352D01*
X67378Y-386347D01*
Y-385306D01*
X67109Y-384301D01*
X66588Y-383400D01*
X65958Y-382769D01*
X66107Y-382269D01*
X70743D01*
X70893Y-382769D01*
X70262Y-383400D01*
X69742Y-384301D01*
X69472Y-385306D01*
Y-386347D01*
X69742Y-387352D01*
X70262Y-388254D01*
X70998Y-388990D01*
X71899Y-389510D01*
X72905Y-389779D01*
X73946D01*
X74951Y-389510D01*
X75852Y-388990D01*
X76588Y-388254D01*
X77109Y-387352D01*
X77378Y-386347D01*
Y-385306D01*
X77109Y-384301D01*
X76588Y-383400D01*
X75958Y-382769D01*
X76107Y-382269D01*
X80743D01*
X80893Y-382769D01*
X80262Y-383400D01*
X79742Y-384301D01*
X79473Y-385306D01*
Y-386347D01*
X79742Y-387352D01*
X80262Y-388254D01*
X80998Y-388990D01*
X81899Y-389510D01*
X82905Y-389779D01*
X83946D01*
X84951Y-389510D01*
X85852Y-388990D01*
X86588Y-388254D01*
X87109Y-387352D01*
X87378Y-386347D01*
Y-385306D01*
X87109Y-384301D01*
X86588Y-383400D01*
X85958Y-382769D01*
X86107Y-382269D01*
X90743D01*
X90893Y-382769D01*
X90262Y-383400D01*
X89742Y-384301D01*
X89473Y-385306D01*
Y-386347D01*
X89742Y-387352D01*
X90262Y-388254D01*
X90998Y-388990D01*
X91900Y-389510D01*
X92905Y-389779D01*
X93946D01*
X94951Y-389510D01*
X95852Y-388990D01*
X96588Y-388254D01*
X97109Y-387352D01*
X97378Y-386347D01*
Y-385306D01*
X97109Y-384301D01*
X96588Y-383400D01*
X95958Y-382769D01*
X96107Y-382269D01*
X100743D01*
X100893Y-382769D01*
X100262Y-383400D01*
X99742Y-384301D01*
X99472Y-385306D01*
Y-386347D01*
X99742Y-387352D01*
X100262Y-388254D01*
X100998Y-388990D01*
X101900Y-389510D01*
X102905Y-389779D01*
X103946D01*
X104951Y-389510D01*
X105852Y-388990D01*
X106588Y-388254D01*
X107109Y-387352D01*
X107378Y-386347D01*
Y-385306D01*
X107109Y-384301D01*
X106588Y-383400D01*
X105958Y-382769D01*
X106107Y-382269D01*
X110743D01*
X110893Y-382769D01*
X110262Y-383400D01*
X109742Y-384301D01*
X109473Y-385306D01*
Y-386347D01*
X109742Y-387352D01*
X110262Y-388254D01*
X110998Y-388990D01*
X111899Y-389510D01*
X112905Y-389779D01*
X113946D01*
X114951Y-389510D01*
X115852Y-388990D01*
X116588Y-388254D01*
X117109Y-387352D01*
X117378Y-386347D01*
Y-385306D01*
X117109Y-384301D01*
X116588Y-383400D01*
X115958Y-382769D01*
X116107Y-382269D01*
X120743D01*
X120893Y-382769D01*
X120262Y-383400D01*
X119742Y-384301D01*
X119473Y-385306D01*
Y-386347D01*
X119742Y-387352D01*
X120262Y-388254D01*
X120998Y-388990D01*
X121899Y-389510D01*
X122905Y-389779D01*
X123946D01*
X124951Y-389510D01*
X125852Y-388990D01*
X126588Y-388254D01*
X127109Y-387352D01*
X127378Y-386347D01*
Y-385306D01*
X127109Y-384301D01*
X126588Y-383400D01*
X125931Y-382743D01*
X125969Y-382408D01*
X126061Y-382207D01*
X126330Y-382154D01*
X126824Y-381824D01*
X129824Y-378824D01*
X130154Y-378330D01*
X130269Y-377748D01*
Y-371378D01*
X132182Y-369466D01*
X132383Y-369520D01*
X133113D01*
X133818Y-369331D01*
X134450Y-368966D01*
X134966Y-368450D01*
X135331Y-367818D01*
X135520Y-367113D01*
Y-366383D01*
X135331Y-365678D01*
X134966Y-365046D01*
X134450Y-364530D01*
X133818Y-364165D01*
X133113Y-363976D01*
D02*
G37*
G36*
X65113Y-364976D02*
X64383D01*
X63678Y-365165D01*
X63046Y-365530D01*
X62530Y-366046D01*
X62165Y-366678D01*
X61976Y-367383D01*
Y-368113D01*
X62165Y-368818D01*
X62530Y-369450D01*
X63046Y-369966D01*
X63678Y-370331D01*
X64383Y-370520D01*
X65113D01*
X65818Y-370331D01*
X66450Y-369966D01*
X66966Y-369450D01*
X67331Y-368818D01*
X67520Y-368113D01*
Y-367383D01*
X67331Y-366678D01*
X66966Y-366046D01*
X66450Y-365530D01*
X65818Y-365165D01*
X65113Y-364976D01*
D02*
G37*
G36*
X74613Y-365378D02*
X73883D01*
X73178Y-365567D01*
X72546Y-365932D01*
X72030Y-366448D01*
X71665Y-367080D01*
X71476Y-367785D01*
Y-368514D01*
X71665Y-369219D01*
X72030Y-369851D01*
X72546Y-370368D01*
X73178Y-370732D01*
X73883Y-370921D01*
X74613D01*
X75318Y-370732D01*
X75950Y-370368D01*
X76466Y-369851D01*
X76831Y-369219D01*
X77020Y-368514D01*
Y-367785D01*
X76831Y-367080D01*
X76466Y-366448D01*
X75950Y-365932D01*
X75318Y-365567D01*
X74613Y-365378D01*
D02*
G37*
G36*
X107113Y-365476D02*
X106383D01*
X105678Y-365665D01*
X105046Y-366030D01*
X104530Y-366546D01*
X104165Y-367178D01*
X103976Y-367883D01*
Y-368613D01*
X104165Y-369318D01*
X104530Y-369950D01*
X105046Y-370466D01*
X105678Y-370831D01*
X106383Y-371020D01*
X107113D01*
X107818Y-370831D01*
X108450Y-370466D01*
X108966Y-369950D01*
X109331Y-369318D01*
X109520Y-368613D01*
Y-367883D01*
X109331Y-367178D01*
X108966Y-366546D01*
X108450Y-366030D01*
X107818Y-365665D01*
X107113Y-365476D01*
D02*
G37*
G36*
X33946Y-371874D02*
X32905D01*
X31899Y-372143D01*
X30998Y-372664D01*
X30262Y-373400D01*
X29742Y-374301D01*
X29472Y-375306D01*
Y-376347D01*
X29742Y-377352D01*
X30262Y-378254D01*
X30998Y-378990D01*
X31899Y-379510D01*
X32905Y-379780D01*
X33946D01*
X34951Y-379510D01*
X35852Y-378990D01*
X36588Y-378254D01*
X37109Y-377352D01*
X37378Y-376347D01*
Y-375306D01*
X37109Y-374301D01*
X36588Y-373400D01*
X35852Y-372664D01*
X34951Y-372143D01*
X33946Y-371874D01*
D02*
G37*
G36*
X23946D02*
X22905D01*
X21900Y-372143D01*
X20998Y-372664D01*
X20262Y-373400D01*
X19742Y-374301D01*
X19473Y-375306D01*
Y-376347D01*
X19742Y-377352D01*
X20262Y-378254D01*
X20998Y-378990D01*
X21900Y-379510D01*
X22905Y-379780D01*
X23946D01*
X24951Y-379510D01*
X25852Y-378990D01*
X26588Y-378254D01*
X27109Y-377352D01*
X27378Y-376347D01*
Y-375306D01*
X27109Y-374301D01*
X26588Y-373400D01*
X25852Y-372664D01*
X24951Y-372143D01*
X23946Y-371874D01*
D02*
G37*
G36*
X13946D02*
X12905D01*
X11900Y-372143D01*
X10998Y-372664D01*
X10262Y-373400D01*
X9742Y-374301D01*
X9472Y-375306D01*
Y-376347D01*
X9742Y-377352D01*
X10262Y-378254D01*
X10998Y-378990D01*
X11900Y-379510D01*
X12905Y-379780D01*
X13946D01*
X14951Y-379510D01*
X15852Y-378990D01*
X16588Y-378254D01*
X17109Y-377352D01*
X17378Y-376347D01*
Y-375306D01*
X17109Y-374301D01*
X16588Y-373400D01*
X15852Y-372664D01*
X14951Y-372143D01*
X13946Y-371874D01*
D02*
G37*
G36*
X187378Y-381874D02*
X179472D01*
Y-389779D01*
X187378D01*
Y-381874D01*
D02*
G37*
G36*
X173946D02*
X172905D01*
X171899Y-382143D01*
X170998Y-382664D01*
X170262Y-383400D01*
X169742Y-384301D01*
X169473Y-385306D01*
Y-386347D01*
X169742Y-387352D01*
X170262Y-388254D01*
X170998Y-388990D01*
X171899Y-389510D01*
X172905Y-389779D01*
X173946D01*
X174951Y-389510D01*
X175852Y-388990D01*
X176588Y-388254D01*
X177109Y-387352D01*
X177378Y-386347D01*
Y-385306D01*
X177109Y-384301D01*
X176588Y-383400D01*
X175852Y-382664D01*
X174951Y-382143D01*
X173946Y-381874D01*
D02*
G37*
G36*
X163946D02*
X162905D01*
X161899Y-382143D01*
X160998Y-382664D01*
X160262Y-383400D01*
X159742Y-384301D01*
X159473Y-385306D01*
Y-386347D01*
X159742Y-387352D01*
X160262Y-388254D01*
X160998Y-388990D01*
X161899Y-389510D01*
X162905Y-389779D01*
X163946D01*
X164951Y-389510D01*
X165852Y-388990D01*
X166588Y-388254D01*
X167109Y-387352D01*
X167378Y-386347D01*
Y-385306D01*
X167109Y-384301D01*
X166588Y-383400D01*
X165852Y-382664D01*
X164951Y-382143D01*
X163946Y-381874D01*
D02*
G37*
G36*
X153946D02*
X152905D01*
X151900Y-382143D01*
X150998Y-382664D01*
X150262Y-383400D01*
X149742Y-384301D01*
X149472Y-385306D01*
Y-386347D01*
X149742Y-387352D01*
X150262Y-388254D01*
X150998Y-388990D01*
X151900Y-389510D01*
X152905Y-389779D01*
X153946D01*
X154951Y-389510D01*
X155852Y-388990D01*
X156588Y-388254D01*
X157109Y-387352D01*
X157378Y-386347D01*
Y-385306D01*
X157109Y-384301D01*
X156588Y-383400D01*
X155852Y-382664D01*
X154951Y-382143D01*
X153946Y-381874D01*
D02*
G37*
G36*
X143946D02*
X142905D01*
X141900Y-382143D01*
X140998Y-382664D01*
X140262Y-383400D01*
X139742Y-384301D01*
X139472Y-385306D01*
Y-386347D01*
X139742Y-387352D01*
X140262Y-388254D01*
X140998Y-388990D01*
X141900Y-389510D01*
X142905Y-389779D01*
X143946D01*
X144951Y-389510D01*
X145852Y-388990D01*
X146588Y-388254D01*
X147109Y-387352D01*
X147378Y-386347D01*
Y-385306D01*
X147109Y-384301D01*
X146588Y-383400D01*
X145852Y-382664D01*
X144951Y-382143D01*
X143946Y-381874D01*
D02*
G37*
G36*
X133946D02*
X132905D01*
X131899Y-382143D01*
X130998Y-382664D01*
X130262Y-383400D01*
X129742Y-384301D01*
X129472Y-385306D01*
Y-386347D01*
X129742Y-387352D01*
X130262Y-388254D01*
X130998Y-388990D01*
X131899Y-389510D01*
X132905Y-389779D01*
X133946D01*
X134951Y-389510D01*
X135852Y-388990D01*
X136588Y-388254D01*
X137109Y-387352D01*
X137378Y-386347D01*
Y-385306D01*
X137109Y-384301D01*
X136588Y-383400D01*
X135852Y-382664D01*
X134951Y-382143D01*
X133946Y-381874D01*
D02*
G37*
G36*
X43946D02*
X42905D01*
X41899Y-382143D01*
X40998Y-382664D01*
X40262Y-383400D01*
X39742Y-384301D01*
X39472Y-385306D01*
Y-386347D01*
X39742Y-387352D01*
X40262Y-388254D01*
X40998Y-388990D01*
X41899Y-389510D01*
X42905Y-389779D01*
X43946D01*
X44951Y-389510D01*
X45852Y-388990D01*
X46588Y-388254D01*
X47109Y-387352D01*
X47378Y-386347D01*
Y-385306D01*
X47109Y-384301D01*
X46588Y-383400D01*
X45852Y-382664D01*
X44951Y-382143D01*
X43946Y-381874D01*
D02*
G37*
G36*
X33946D02*
X32905D01*
X31899Y-382143D01*
X30998Y-382664D01*
X30262Y-383400D01*
X29742Y-384301D01*
X29472Y-385306D01*
Y-386347D01*
X29742Y-387352D01*
X30262Y-388254D01*
X30998Y-388990D01*
X31899Y-389510D01*
X32905Y-389779D01*
X33946D01*
X34951Y-389510D01*
X35852Y-388990D01*
X36588Y-388254D01*
X37109Y-387352D01*
X37378Y-386347D01*
Y-385306D01*
X37109Y-384301D01*
X36588Y-383400D01*
X35852Y-382664D01*
X34951Y-382143D01*
X33946Y-381874D01*
D02*
G37*
G36*
X23946D02*
X22905D01*
X21900Y-382143D01*
X20998Y-382664D01*
X20262Y-383400D01*
X19742Y-384301D01*
X19473Y-385306D01*
Y-386347D01*
X19742Y-387352D01*
X20262Y-388254D01*
X20998Y-388990D01*
X21900Y-389510D01*
X22905Y-389779D01*
X23946D01*
X24951Y-389510D01*
X25852Y-388990D01*
X26588Y-388254D01*
X27109Y-387352D01*
X27378Y-386347D01*
Y-385306D01*
X27109Y-384301D01*
X26588Y-383400D01*
X25852Y-382664D01*
X24951Y-382143D01*
X23946Y-381874D01*
D02*
G37*
G36*
X13946D02*
X12905D01*
X11900Y-382143D01*
X10998Y-382664D01*
X10262Y-383400D01*
X9742Y-384301D01*
X9472Y-385306D01*
Y-386347D01*
X9742Y-387352D01*
X10262Y-388254D01*
X10998Y-388990D01*
X11900Y-389510D01*
X12905Y-389779D01*
X13946D01*
X14951Y-389510D01*
X15852Y-388990D01*
X16588Y-388254D01*
X17109Y-387352D01*
X17378Y-386347D01*
Y-385306D01*
X17109Y-384301D01*
X16588Y-383400D01*
X15852Y-382664D01*
X14951Y-382143D01*
X13946Y-381874D01*
D02*
G37*
%LPD*%
G36*
X51081Y-333762D02*
X47053D01*
Y-326585D01*
X51081D01*
Y-333762D01*
D02*
G37*
G36*
X9349D02*
X5321D01*
Y-326585D01*
X9349D01*
Y-333762D01*
D02*
G37*
%LPC*%
G36*
X33122Y-63983D02*
X23280D01*
X22299Y-64112D01*
X21385Y-64491D01*
X20601Y-65093D01*
X19999Y-65877D01*
X19620Y-66791D01*
X19491Y-67772D01*
X19620Y-68752D01*
X19999Y-69666D01*
X20601Y-70450D01*
X21385Y-71052D01*
X22299Y-71431D01*
X23280Y-71560D01*
X33122D01*
X34102Y-71431D01*
X35016Y-71052D01*
X35801Y-70450D01*
X36403Y-69666D01*
X36781Y-68752D01*
X36910Y-67772D01*
X36781Y-66791D01*
X36403Y-65877D01*
X35801Y-65093D01*
X35016Y-64491D01*
X34102Y-64112D01*
X33122Y-63983D01*
D02*
G37*
G36*
X33775Y-72382D02*
X32863D01*
X31983Y-72618D01*
X31194Y-73073D01*
X30550Y-73718D01*
X30094Y-74507D01*
X29858Y-75387D01*
Y-76298D01*
X30094Y-77178D01*
X30550Y-77967D01*
X31194Y-78612D01*
X31420Y-78742D01*
Y-79242D01*
X31194Y-79373D01*
X30550Y-80017D01*
X30094Y-80806D01*
X29858Y-81686D01*
Y-82597D01*
X30094Y-83477D01*
X30550Y-84267D01*
X31194Y-84911D01*
X31983Y-85366D01*
X32863Y-85602D01*
X33775D01*
X34655Y-85366D01*
X35444Y-84911D01*
X36088Y-84267D01*
X36544Y-83477D01*
X36779Y-82597D01*
Y-81686D01*
X36544Y-80806D01*
X36088Y-80017D01*
X35444Y-79373D01*
X35218Y-79242D01*
Y-78742D01*
X35444Y-78612D01*
X36088Y-77967D01*
X36544Y-77178D01*
X36779Y-76298D01*
Y-75387D01*
X36544Y-74507D01*
X36088Y-73718D01*
X35444Y-73073D01*
X34655Y-72618D01*
X33775Y-72382D01*
D02*
G37*
G36*
X23538Y-75532D02*
X22627D01*
X21747Y-75767D01*
X20958Y-76223D01*
X20313Y-76867D01*
X19858Y-77656D01*
X19622Y-78536D01*
Y-79448D01*
X19858Y-80328D01*
X20313Y-81117D01*
X20958Y-81761D01*
X21184Y-81892D01*
Y-82392D01*
X20958Y-82522D01*
X20313Y-83166D01*
X19858Y-83956D01*
X19622Y-84836D01*
Y-85747D01*
X19858Y-86627D01*
X20313Y-87416D01*
X20958Y-88060D01*
X21747Y-88516D01*
X22627Y-88752D01*
X23538D01*
X24418Y-88516D01*
X25208Y-88060D01*
X25852Y-87416D01*
X26307Y-86627D01*
X26543Y-85747D01*
Y-84836D01*
X26307Y-83956D01*
X25852Y-83166D01*
X25208Y-82522D01*
X24982Y-82392D01*
Y-81892D01*
X25208Y-81761D01*
X25852Y-81117D01*
X26307Y-80328D01*
X26543Y-79448D01*
Y-78536D01*
X26307Y-77656D01*
X25852Y-76867D01*
X25208Y-76223D01*
X24418Y-75767D01*
X23538Y-75532D01*
D02*
G37*
G36*
X61613Y-94476D02*
X60883D01*
X60178Y-94665D01*
X59546Y-95030D01*
X59030Y-95546D01*
X58665Y-96178D01*
X58476Y-96883D01*
Y-97613D01*
X58665Y-98318D01*
X59030Y-98950D01*
X59546Y-99466D01*
X60178Y-99831D01*
X60883Y-100020D01*
X61613D01*
X62318Y-99831D01*
X62950Y-99466D01*
X63466Y-98950D01*
X63831Y-98318D01*
X64020Y-97613D01*
Y-96883D01*
X63831Y-96178D01*
X63466Y-95546D01*
X62950Y-95030D01*
X62318Y-94665D01*
X61613Y-94476D01*
D02*
G37*
G36*
X33122Y-92724D02*
X23280D01*
X22299Y-92853D01*
X21385Y-93231D01*
X20601Y-93833D01*
X19999Y-94618D01*
X19620Y-95531D01*
X19491Y-96512D01*
X19620Y-97492D01*
X19999Y-98406D01*
X20601Y-99191D01*
X21385Y-99793D01*
X22299Y-100171D01*
X23280Y-100300D01*
X33122D01*
X34102Y-100171D01*
X35016Y-99793D01*
X35801Y-99191D01*
X36403Y-98406D01*
X36781Y-97492D01*
X36910Y-96512D01*
X36781Y-95531D01*
X36403Y-94618D01*
X35801Y-93833D01*
X35016Y-93231D01*
X34102Y-92853D01*
X33122Y-92724D01*
D02*
G37*
G36*
X99613Y-109976D02*
X98883D01*
X98178Y-110165D01*
X97546Y-110530D01*
X97030Y-111046D01*
X96665Y-111678D01*
X96476Y-112383D01*
Y-113113D01*
X96665Y-113818D01*
X97030Y-114450D01*
X97546Y-114966D01*
X98178Y-115331D01*
X98883Y-115520D01*
X99613D01*
X100318Y-115331D01*
X100950Y-114966D01*
X101466Y-114450D01*
X101831Y-113818D01*
X102020Y-113113D01*
Y-112383D01*
X101831Y-111678D01*
X101466Y-111046D01*
X100950Y-110530D01*
X100318Y-110165D01*
X99613Y-109976D01*
D02*
G37*
G36*
X69613Y-110976D02*
X68883D01*
X68178Y-111165D01*
X67546Y-111530D01*
X67030Y-112046D01*
X66665Y-112678D01*
X66476Y-113383D01*
Y-114113D01*
X66665Y-114818D01*
X67030Y-115450D01*
X67546Y-115966D01*
X68178Y-116331D01*
X68883Y-116520D01*
X69613D01*
X70318Y-116331D01*
X70950Y-115966D01*
X71466Y-115450D01*
X71831Y-114818D01*
X72020Y-114113D01*
Y-113383D01*
X71831Y-112678D01*
X71466Y-112046D01*
X70950Y-111530D01*
X70318Y-111165D01*
X69613Y-110976D01*
D02*
G37*
G36*
X44613Y-111976D02*
X43883D01*
X43178Y-112165D01*
X42546Y-112530D01*
X42030Y-113046D01*
X41665Y-113678D01*
X41476Y-114383D01*
Y-115113D01*
X41665Y-115818D01*
X42030Y-116450D01*
X42546Y-116966D01*
X43178Y-117331D01*
X43883Y-117520D01*
X44613D01*
X45318Y-117331D01*
X45950Y-116966D01*
X46466Y-116450D01*
X46831Y-115818D01*
X47020Y-115113D01*
Y-114383D01*
X46831Y-113678D01*
X46466Y-113046D01*
X45950Y-112530D01*
X45318Y-112165D01*
X44613Y-111976D01*
D02*
G37*
G36*
X39613Y-117976D02*
X38883D01*
X38178Y-118165D01*
X37546Y-118530D01*
X37030Y-119046D01*
X36665Y-119678D01*
X36476Y-120383D01*
Y-121113D01*
X36665Y-121818D01*
X37030Y-122450D01*
X37546Y-122966D01*
X38178Y-123331D01*
X38883Y-123520D01*
X39613D01*
X40318Y-123331D01*
X40950Y-122966D01*
X41466Y-122450D01*
X41831Y-121818D01*
X42020Y-121113D01*
Y-120383D01*
X41831Y-119678D01*
X41466Y-119046D01*
X40950Y-118530D01*
X40318Y-118165D01*
X39613Y-117976D01*
D02*
G37*
%LPD*%
D21*
X102248Y-271248D02*
X104248Y-273248D01*
X127748D01*
X122498Y-282498D02*
X122748Y-282248D01*
X122248Y-282748D02*
X122498Y-282498D01*
X93248Y-282748D02*
X122248D01*
X96652Y-277344D02*
X123652D01*
X128748Y-377748D02*
Y-370748D01*
X132748Y-366748D01*
X125748Y-380748D02*
X128748Y-377748D01*
X48346Y-380748D02*
X125748D01*
X43425Y-375827D02*
X48346Y-380748D01*
D28*
X43425Y-375827D02*
D03*
X133425D02*
D03*
X143425D02*
D03*
X153425D02*
D03*
X163425D02*
D03*
X173425D02*
D03*
X183425D02*
D03*
D29*
X142000Y-267000D02*
D03*
D30*
X33319Y-88441D02*
D03*
D33*
X20248Y-279248D02*
D03*
X74248Y-173748D02*
D03*
X62248Y-166248D02*
D03*
X102248Y-271248D02*
D03*
X127748Y-273248D02*
D03*
X139886Y-347610D02*
D03*
X122498Y-282498D02*
D03*
X123652Y-277344D02*
D03*
X93248Y-282748D02*
D03*
X96652Y-277344D02*
D03*
X132748Y-366748D02*
D03*
X85248Y-311248D02*
D03*
X131055Y-306441D02*
D03*
X105748Y-353248D02*
D03*
X81393Y-100245D02*
D03*
X152748Y-142248D02*
D03*
X133248Y-82748D02*
D03*
X61748Y-109748D02*
D03*
D34*
X173425Y-148748D02*
Y-86925D01*
Y-375827D02*
Y-148748D01*
X166925Y-142248D02*
X173425Y-148748D01*
X152748Y-142248D02*
X166925D01*
X133248Y-82748D02*
X169248D01*
X173425Y-86925D01*
Y-375827D02*
X183425D01*
X163425D02*
X173425D01*
M02*
