G04*
G04 #@! TF.GenerationSoftware,Altium Limited,Altium Designer,22.4.2 (48)*
G04*
G04 Layer_Physical_Order=1*
G04 Layer_Color=255*
%FSLAX25Y25*%
%MOIN*%
G70*
G04*
G04 #@! TF.SameCoordinates,5D1A3173-D847-458D-9732-A4640AA2F51D*
G04*
G04*
G04 #@! TF.FilePolarity,Positive*
G04*
G01*
G75*
%ADD21C,0.00984*%
%ADD22C,0.01575*%
%ADD23C,0.02756*%
%ADD24C,0.07874*%
%ADD25C,0.17717*%
G04:AMPARAMS|DCode=26|XSize=78.74mil|YSize=78.74mil|CornerRadius=19.68mil|HoleSize=0mil|Usage=FLASHONLY|Rotation=270.000|XOffset=0mil|YOffset=0mil|HoleType=Round|Shape=RoundedRectangle|*
%AMROUNDEDRECTD26*
21,1,0.07874,0.03937,0,0,270.0*
21,1,0.03937,0.07874,0,0,270.0*
1,1,0.03937,-0.01968,-0.01968*
1,1,0.03937,-0.01968,0.01968*
1,1,0.03937,0.01968,0.01968*
1,1,0.03937,0.01968,-0.01968*
%
%ADD26ROUNDEDRECTD26*%
%ADD27C,0.19685*%
%ADD28C,0.05906*%
%ADD29R,0.05906X0.05906*%
%ADD30C,0.04921*%
%ADD31O,0.15354X0.05512*%
%ADD32R,0.05906X0.05906*%
%ADD33C,0.03543*%
G36*
X104248Y-72248D02*
Y-123248D01*
X100248Y-127248D01*
X1529D01*
Y-63248D01*
X95248D01*
X104248Y-72248D01*
D02*
G37*
G36*
X195321Y-392171D02*
X1529D01*
Y-154748D01*
X122748D01*
Y-40748D01*
X1884Y-41241D01*
X1529Y-40889D01*
Y-1529D01*
X195321D01*
Y-392171D01*
D02*
G37*
%LPC*%
G36*
X23538Y-75532D02*
X22627D01*
X21747Y-75767D01*
X20958Y-76223D01*
X20313Y-76867D01*
X19858Y-77656D01*
X19622Y-78536D01*
Y-79448D01*
X19858Y-80328D01*
X20313Y-81117D01*
X20958Y-81761D01*
X21184Y-81892D01*
Y-82392D01*
X20958Y-82522D01*
X20313Y-83166D01*
X19858Y-83956D01*
X19622Y-84836D01*
Y-85747D01*
X19858Y-86627D01*
X20313Y-87416D01*
X20958Y-88060D01*
X21747Y-88516D01*
X22627Y-88752D01*
X23538D01*
X24418Y-88516D01*
X25208Y-88060D01*
X25852Y-87416D01*
X26307Y-86627D01*
X26543Y-85747D01*
Y-84836D01*
X26307Y-83956D01*
X25852Y-83166D01*
X25208Y-82522D01*
X24982Y-82392D01*
Y-81892D01*
X25208Y-81761D01*
X25852Y-81117D01*
X26307Y-80328D01*
X26543Y-79448D01*
Y-78536D01*
X26307Y-77656D01*
X25852Y-76867D01*
X25208Y-76223D01*
X24418Y-75767D01*
X23538Y-75532D01*
D02*
G37*
G36*
X33775Y-78681D02*
X32863D01*
X31983Y-78917D01*
X31194Y-79373D01*
X30550Y-80017D01*
X30094Y-80806D01*
X29858Y-81686D01*
Y-82597D01*
X30094Y-83477D01*
X30550Y-84267D01*
X31194Y-84911D01*
X31420Y-85041D01*
Y-85541D01*
X31194Y-85672D01*
X30550Y-86316D01*
X30094Y-87105D01*
X29858Y-87985D01*
Y-88897D01*
X30094Y-89777D01*
X30550Y-90566D01*
X31194Y-91210D01*
X31983Y-91666D01*
X32863Y-91902D01*
X33775D01*
X34655Y-91666D01*
X35444Y-91210D01*
X36088Y-90566D01*
X36544Y-89777D01*
X36779Y-88897D01*
Y-87985D01*
X36544Y-87105D01*
X36088Y-86316D01*
X35444Y-85672D01*
X35218Y-85541D01*
Y-85041D01*
X35444Y-84911D01*
X36088Y-84267D01*
X36544Y-83477D01*
X36779Y-82597D01*
Y-81686D01*
X36544Y-80806D01*
X36088Y-80017D01*
X35444Y-79373D01*
X34655Y-78917D01*
X33775Y-78681D01*
D02*
G37*
G36*
X81758Y-97473D02*
X81028D01*
X80323Y-97662D01*
X79691Y-98027D01*
X79175Y-98543D01*
X78810Y-99175D01*
X78621Y-99880D01*
Y-100610D01*
X78810Y-101315D01*
X79175Y-101947D01*
X79691Y-102463D01*
X80323Y-102828D01*
X81028Y-103016D01*
X81758D01*
X82463Y-102828D01*
X83095Y-102463D01*
X83611Y-101947D01*
X83976Y-101315D01*
X84165Y-100610D01*
Y-99880D01*
X83976Y-99175D01*
X83611Y-98543D01*
X83095Y-98027D01*
X82463Y-97662D01*
X81758Y-97473D01*
D02*
G37*
G36*
X62113Y-106976D02*
X61383D01*
X60678Y-107165D01*
X60046Y-107530D01*
X59530Y-108046D01*
X59165Y-108678D01*
X58976Y-109383D01*
Y-110113D01*
X59165Y-110818D01*
X59530Y-111450D01*
X60046Y-111966D01*
X60678Y-112331D01*
X61383Y-112520D01*
X62113D01*
X62818Y-112331D01*
X63450Y-111966D01*
X63966Y-111450D01*
X64331Y-110818D01*
X64520Y-110113D01*
Y-109383D01*
X64331Y-108678D01*
X63966Y-108046D01*
X63450Y-107530D01*
X62818Y-107165D01*
X62113Y-106976D01*
D02*
G37*
G36*
X183946Y-3921D02*
X182905D01*
X181899Y-4191D01*
X180998Y-4711D01*
X180262Y-5447D01*
X179742Y-6348D01*
X179472Y-7354D01*
Y-8394D01*
X179742Y-9400D01*
X180262Y-10301D01*
X180998Y-11037D01*
X181899Y-11557D01*
X182905Y-11827D01*
X183946D01*
X184951Y-11557D01*
X185852Y-11037D01*
X186588Y-10301D01*
X187109Y-9400D01*
X187378Y-8394D01*
Y-7354D01*
X187109Y-6348D01*
X186588Y-5447D01*
X185852Y-4711D01*
X184951Y-4191D01*
X183946Y-3921D01*
D02*
G37*
G36*
X173946D02*
X172905D01*
X171899Y-4191D01*
X170998Y-4711D01*
X170262Y-5447D01*
X169742Y-6348D01*
X169473Y-7354D01*
Y-8394D01*
X169742Y-9400D01*
X170262Y-10301D01*
X170998Y-11037D01*
X171899Y-11557D01*
X172905Y-11827D01*
X173946D01*
X174951Y-11557D01*
X175852Y-11037D01*
X176588Y-10301D01*
X177109Y-9400D01*
X177378Y-8394D01*
Y-7354D01*
X177109Y-6348D01*
X176588Y-5447D01*
X175852Y-4711D01*
X174951Y-4191D01*
X173946Y-3921D01*
D02*
G37*
G36*
X163946D02*
X162905D01*
X161899Y-4191D01*
X160998Y-4711D01*
X160262Y-5447D01*
X159742Y-6348D01*
X159473Y-7354D01*
Y-8394D01*
X159742Y-9400D01*
X160262Y-10301D01*
X160998Y-11037D01*
X161899Y-11557D01*
X162905Y-11827D01*
X163946D01*
X164951Y-11557D01*
X165852Y-11037D01*
X166588Y-10301D01*
X167109Y-9400D01*
X167378Y-8394D01*
Y-7354D01*
X167109Y-6348D01*
X166588Y-5447D01*
X165852Y-4711D01*
X164951Y-4191D01*
X163946Y-3921D01*
D02*
G37*
G36*
X153946D02*
X152905D01*
X151900Y-4191D01*
X150998Y-4711D01*
X150262Y-5447D01*
X149742Y-6348D01*
X149472Y-7354D01*
Y-8394D01*
X149742Y-9400D01*
X150262Y-10301D01*
X150998Y-11037D01*
X151900Y-11557D01*
X152905Y-11827D01*
X153946D01*
X154951Y-11557D01*
X155852Y-11037D01*
X156588Y-10301D01*
X157109Y-9400D01*
X157378Y-8394D01*
Y-7354D01*
X157109Y-6348D01*
X156588Y-5447D01*
X155852Y-4711D01*
X154951Y-4191D01*
X153946Y-3921D01*
D02*
G37*
G36*
X143946D02*
X142905D01*
X141900Y-4191D01*
X140998Y-4711D01*
X140262Y-5447D01*
X139742Y-6348D01*
X139472Y-7354D01*
Y-8394D01*
X139742Y-9400D01*
X140262Y-10301D01*
X140998Y-11037D01*
X141900Y-11557D01*
X142905Y-11827D01*
X143946D01*
X144951Y-11557D01*
X145852Y-11037D01*
X146588Y-10301D01*
X147109Y-9400D01*
X147378Y-8394D01*
Y-7354D01*
X147109Y-6348D01*
X146588Y-5447D01*
X145852Y-4711D01*
X144951Y-4191D01*
X143946Y-3921D01*
D02*
G37*
G36*
X133946D02*
X132905D01*
X131899Y-4191D01*
X130998Y-4711D01*
X130262Y-5447D01*
X129742Y-6348D01*
X129472Y-7354D01*
Y-8394D01*
X129742Y-9400D01*
X130262Y-10301D01*
X130998Y-11037D01*
X131899Y-11557D01*
X132905Y-11827D01*
X133946D01*
X134951Y-11557D01*
X135852Y-11037D01*
X136588Y-10301D01*
X137109Y-9400D01*
X137378Y-8394D01*
Y-7354D01*
X137109Y-6348D01*
X136588Y-5447D01*
X135852Y-4711D01*
X134951Y-4191D01*
X133946Y-3921D01*
D02*
G37*
G36*
X123946D02*
X122905D01*
X121899Y-4191D01*
X120998Y-4711D01*
X120262Y-5447D01*
X119742Y-6348D01*
X119473Y-7354D01*
Y-8394D01*
X119742Y-9400D01*
X120262Y-10301D01*
X120998Y-11037D01*
X121899Y-11557D01*
X122905Y-11827D01*
X123946D01*
X124951Y-11557D01*
X125852Y-11037D01*
X126588Y-10301D01*
X127109Y-9400D01*
X127378Y-8394D01*
Y-7354D01*
X127109Y-6348D01*
X126588Y-5447D01*
X125852Y-4711D01*
X124951Y-4191D01*
X123946Y-3921D01*
D02*
G37*
G36*
X113946D02*
X112905D01*
X111899Y-4191D01*
X110998Y-4711D01*
X110262Y-5447D01*
X109742Y-6348D01*
X109473Y-7354D01*
Y-8394D01*
X109742Y-9400D01*
X110262Y-10301D01*
X110998Y-11037D01*
X111899Y-11557D01*
X112905Y-11827D01*
X113946D01*
X114951Y-11557D01*
X115852Y-11037D01*
X116588Y-10301D01*
X117109Y-9400D01*
X117378Y-8394D01*
Y-7354D01*
X117109Y-6348D01*
X116588Y-5447D01*
X115852Y-4711D01*
X114951Y-4191D01*
X113946Y-3921D01*
D02*
G37*
G36*
X103946D02*
X102905D01*
X101900Y-4191D01*
X100998Y-4711D01*
X100262Y-5447D01*
X99742Y-6348D01*
X99472Y-7354D01*
Y-8394D01*
X99742Y-9400D01*
X100262Y-10301D01*
X100998Y-11037D01*
X101900Y-11557D01*
X102905Y-11827D01*
X103946D01*
X104951Y-11557D01*
X105852Y-11037D01*
X106588Y-10301D01*
X107109Y-9400D01*
X107378Y-8394D01*
Y-7354D01*
X107109Y-6348D01*
X106588Y-5447D01*
X105852Y-4711D01*
X104951Y-4191D01*
X103946Y-3921D01*
D02*
G37*
G36*
X93946D02*
X92905D01*
X91900Y-4191D01*
X90998Y-4711D01*
X90262Y-5447D01*
X89742Y-6348D01*
X89473Y-7354D01*
Y-8394D01*
X89742Y-9400D01*
X90262Y-10301D01*
X90998Y-11037D01*
X91900Y-11557D01*
X92905Y-11827D01*
X93946D01*
X94951Y-11557D01*
X95852Y-11037D01*
X96588Y-10301D01*
X97109Y-9400D01*
X97378Y-8394D01*
Y-7354D01*
X97109Y-6348D01*
X96588Y-5447D01*
X95852Y-4711D01*
X94951Y-4191D01*
X93946Y-3921D01*
D02*
G37*
G36*
X83946D02*
X82905D01*
X81899Y-4191D01*
X80998Y-4711D01*
X80262Y-5447D01*
X79742Y-6348D01*
X79473Y-7354D01*
Y-8394D01*
X79742Y-9400D01*
X80262Y-10301D01*
X80998Y-11037D01*
X81899Y-11557D01*
X82905Y-11827D01*
X83946D01*
X84951Y-11557D01*
X85852Y-11037D01*
X86588Y-10301D01*
X87109Y-9400D01*
X87378Y-8394D01*
Y-7354D01*
X87109Y-6348D01*
X86588Y-5447D01*
X85852Y-4711D01*
X84951Y-4191D01*
X83946Y-3921D01*
D02*
G37*
G36*
X73946D02*
X72905D01*
X71899Y-4191D01*
X70998Y-4711D01*
X70262Y-5447D01*
X69742Y-6348D01*
X69472Y-7354D01*
Y-8394D01*
X69742Y-9400D01*
X70262Y-10301D01*
X70998Y-11037D01*
X71899Y-11557D01*
X72905Y-11827D01*
X73946D01*
X74951Y-11557D01*
X75852Y-11037D01*
X76588Y-10301D01*
X77109Y-9400D01*
X77378Y-8394D01*
Y-7354D01*
X77109Y-6348D01*
X76588Y-5447D01*
X75852Y-4711D01*
X74951Y-4191D01*
X73946Y-3921D01*
D02*
G37*
G36*
X63946D02*
X62905D01*
X61900Y-4191D01*
X60998Y-4711D01*
X60262Y-5447D01*
X59742Y-6348D01*
X59473Y-7354D01*
Y-8394D01*
X59742Y-9400D01*
X60262Y-10301D01*
X60998Y-11037D01*
X61900Y-11557D01*
X62905Y-11827D01*
X63946D01*
X64951Y-11557D01*
X65852Y-11037D01*
X66588Y-10301D01*
X67109Y-9400D01*
X67378Y-8394D01*
Y-7354D01*
X67109Y-6348D01*
X66588Y-5447D01*
X65852Y-4711D01*
X64951Y-4191D01*
X63946Y-3921D01*
D02*
G37*
G36*
X53946D02*
X52905D01*
X51899Y-4191D01*
X50998Y-4711D01*
X50262Y-5447D01*
X49742Y-6348D01*
X49472Y-7354D01*
Y-8394D01*
X49742Y-9400D01*
X50262Y-10301D01*
X50998Y-11037D01*
X51899Y-11557D01*
X52905Y-11827D01*
X53946D01*
X54951Y-11557D01*
X55852Y-11037D01*
X56588Y-10301D01*
X57109Y-9400D01*
X57378Y-8394D01*
Y-7354D01*
X57109Y-6348D01*
X56588Y-5447D01*
X55852Y-4711D01*
X54951Y-4191D01*
X53946Y-3921D01*
D02*
G37*
G36*
X43946D02*
X42905D01*
X41899Y-4191D01*
X40998Y-4711D01*
X40262Y-5447D01*
X39742Y-6348D01*
X39472Y-7354D01*
Y-8394D01*
X39742Y-9400D01*
X40262Y-10301D01*
X40998Y-11037D01*
X41899Y-11557D01*
X42905Y-11827D01*
X43946D01*
X44951Y-11557D01*
X45852Y-11037D01*
X46588Y-10301D01*
X47109Y-9400D01*
X47378Y-8394D01*
Y-7354D01*
X47109Y-6348D01*
X46588Y-5447D01*
X45852Y-4711D01*
X44951Y-4191D01*
X43946Y-3921D01*
D02*
G37*
G36*
X33946D02*
X32905D01*
X31899Y-4191D01*
X30998Y-4711D01*
X30262Y-5447D01*
X29742Y-6348D01*
X29472Y-7354D01*
Y-8394D01*
X29742Y-9400D01*
X30262Y-10301D01*
X30998Y-11037D01*
X31899Y-11557D01*
X32905Y-11827D01*
X33946D01*
X34951Y-11557D01*
X35852Y-11037D01*
X36588Y-10301D01*
X37109Y-9400D01*
X37378Y-8394D01*
Y-7354D01*
X37109Y-6348D01*
X36588Y-5447D01*
X35852Y-4711D01*
X34951Y-4191D01*
X33946Y-3921D01*
D02*
G37*
G36*
X23946D02*
X22905D01*
X21900Y-4191D01*
X20998Y-4711D01*
X20262Y-5447D01*
X19742Y-6348D01*
X19473Y-7354D01*
Y-8394D01*
X19742Y-9400D01*
X20262Y-10301D01*
X20998Y-11037D01*
X21900Y-11557D01*
X22905Y-11827D01*
X23946D01*
X24951Y-11557D01*
X25852Y-11037D01*
X26588Y-10301D01*
X27109Y-9400D01*
X27378Y-8394D01*
Y-7354D01*
X27109Y-6348D01*
X26588Y-5447D01*
X25852Y-4711D01*
X24951Y-4191D01*
X23946Y-3921D01*
D02*
G37*
G36*
X13946D02*
X12905D01*
X11900Y-4191D01*
X10998Y-4711D01*
X10262Y-5447D01*
X9742Y-6348D01*
X9472Y-7354D01*
Y-8394D01*
X9742Y-9400D01*
X10262Y-10301D01*
X10998Y-11037D01*
X11900Y-11557D01*
X12905Y-11827D01*
X13946D01*
X14951Y-11557D01*
X15852Y-11037D01*
X16588Y-10301D01*
X17109Y-9400D01*
X17378Y-8394D01*
Y-7354D01*
X17109Y-6348D01*
X16588Y-5447D01*
X15852Y-4711D01*
X14951Y-4191D01*
X13946Y-3921D01*
D02*
G37*
G36*
X187378Y-13921D02*
X179472D01*
Y-21827D01*
X187378D01*
Y-13921D01*
D02*
G37*
G36*
X173946D02*
X172905D01*
X171899Y-14191D01*
X170998Y-14711D01*
X170262Y-15447D01*
X169742Y-16348D01*
X169473Y-17354D01*
Y-18394D01*
X169742Y-19400D01*
X170262Y-20301D01*
X170998Y-21037D01*
X171899Y-21557D01*
X172905Y-21827D01*
X173946D01*
X174951Y-21557D01*
X175852Y-21037D01*
X176588Y-20301D01*
X177109Y-19400D01*
X177378Y-18394D01*
Y-17354D01*
X177109Y-16348D01*
X176588Y-15447D01*
X175852Y-14711D01*
X174951Y-14191D01*
X173946Y-13921D01*
D02*
G37*
G36*
X163946D02*
X162905D01*
X161899Y-14191D01*
X160998Y-14711D01*
X160262Y-15447D01*
X159742Y-16348D01*
X159473Y-17354D01*
Y-18394D01*
X159742Y-19400D01*
X160262Y-20301D01*
X160998Y-21037D01*
X161899Y-21557D01*
X162905Y-21827D01*
X163946D01*
X164951Y-21557D01*
X165852Y-21037D01*
X166588Y-20301D01*
X167109Y-19400D01*
X167378Y-18394D01*
Y-17354D01*
X167109Y-16348D01*
X166588Y-15447D01*
X165852Y-14711D01*
X164951Y-14191D01*
X163946Y-13921D01*
D02*
G37*
G36*
X153946D02*
X152905D01*
X151900Y-14191D01*
X150998Y-14711D01*
X150262Y-15447D01*
X149742Y-16348D01*
X149472Y-17354D01*
Y-18394D01*
X149742Y-19400D01*
X150262Y-20301D01*
X150998Y-21037D01*
X151900Y-21557D01*
X152905Y-21827D01*
X153946D01*
X154951Y-21557D01*
X155852Y-21037D01*
X156588Y-20301D01*
X157109Y-19400D01*
X157378Y-18394D01*
Y-17354D01*
X157109Y-16348D01*
X156588Y-15447D01*
X155852Y-14711D01*
X154951Y-14191D01*
X153946Y-13921D01*
D02*
G37*
G36*
X143946D02*
X142905D01*
X141900Y-14191D01*
X140998Y-14711D01*
X140262Y-15447D01*
X139742Y-16348D01*
X139472Y-17354D01*
Y-18394D01*
X139742Y-19400D01*
X140262Y-20301D01*
X140998Y-21037D01*
X141900Y-21557D01*
X142905Y-21827D01*
X143946D01*
X144951Y-21557D01*
X145852Y-21037D01*
X146588Y-20301D01*
X147109Y-19400D01*
X147378Y-18394D01*
Y-17354D01*
X147109Y-16348D01*
X146588Y-15447D01*
X145852Y-14711D01*
X144951Y-14191D01*
X143946Y-13921D01*
D02*
G37*
G36*
X133946D02*
X132905D01*
X131899Y-14191D01*
X130998Y-14711D01*
X130262Y-15447D01*
X129742Y-16348D01*
X129472Y-17354D01*
Y-18394D01*
X129742Y-19400D01*
X130262Y-20301D01*
X130998Y-21037D01*
X131899Y-21557D01*
X132905Y-21827D01*
X133946D01*
X134951Y-21557D01*
X135852Y-21037D01*
X136588Y-20301D01*
X137109Y-19400D01*
X137378Y-18394D01*
Y-17354D01*
X137109Y-16348D01*
X136588Y-15447D01*
X135852Y-14711D01*
X134951Y-14191D01*
X133946Y-13921D01*
D02*
G37*
G36*
X123946D02*
X122905D01*
X121899Y-14191D01*
X120998Y-14711D01*
X120262Y-15447D01*
X119742Y-16348D01*
X119473Y-17354D01*
Y-18394D01*
X119742Y-19400D01*
X120262Y-20301D01*
X120998Y-21037D01*
X121899Y-21557D01*
X122905Y-21827D01*
X123946D01*
X124951Y-21557D01*
X125852Y-21037D01*
X126588Y-20301D01*
X127109Y-19400D01*
X127378Y-18394D01*
Y-17354D01*
X127109Y-16348D01*
X126588Y-15447D01*
X125852Y-14711D01*
X124951Y-14191D01*
X123946Y-13921D01*
D02*
G37*
G36*
X113946D02*
X112905D01*
X111899Y-14191D01*
X110998Y-14711D01*
X110262Y-15447D01*
X109742Y-16348D01*
X109473Y-17354D01*
Y-18394D01*
X109742Y-19400D01*
X110262Y-20301D01*
X110998Y-21037D01*
X111899Y-21557D01*
X112905Y-21827D01*
X113946D01*
X114951Y-21557D01*
X115852Y-21037D01*
X116588Y-20301D01*
X117109Y-19400D01*
X117378Y-18394D01*
Y-17354D01*
X117109Y-16348D01*
X116588Y-15447D01*
X115852Y-14711D01*
X114951Y-14191D01*
X113946Y-13921D01*
D02*
G37*
G36*
X103946D02*
X102905D01*
X101900Y-14191D01*
X100998Y-14711D01*
X100262Y-15447D01*
X99742Y-16348D01*
X99472Y-17354D01*
Y-18394D01*
X99742Y-19400D01*
X100262Y-20301D01*
X100998Y-21037D01*
X101900Y-21557D01*
X102905Y-21827D01*
X103946D01*
X104951Y-21557D01*
X105852Y-21037D01*
X106588Y-20301D01*
X107109Y-19400D01*
X107378Y-18394D01*
Y-17354D01*
X107109Y-16348D01*
X106588Y-15447D01*
X105852Y-14711D01*
X104951Y-14191D01*
X103946Y-13921D01*
D02*
G37*
G36*
X93946D02*
X92905D01*
X91900Y-14191D01*
X90998Y-14711D01*
X90262Y-15447D01*
X89742Y-16348D01*
X89473Y-17354D01*
Y-18394D01*
X89742Y-19400D01*
X90262Y-20301D01*
X90998Y-21037D01*
X91900Y-21557D01*
X92905Y-21827D01*
X93946D01*
X94951Y-21557D01*
X95852Y-21037D01*
X96588Y-20301D01*
X97109Y-19400D01*
X97378Y-18394D01*
Y-17354D01*
X97109Y-16348D01*
X96588Y-15447D01*
X95852Y-14711D01*
X94951Y-14191D01*
X93946Y-13921D01*
D02*
G37*
G36*
X83946D02*
X82905D01*
X81899Y-14191D01*
X80998Y-14711D01*
X80262Y-15447D01*
X79742Y-16348D01*
X79473Y-17354D01*
Y-18394D01*
X79742Y-19400D01*
X80262Y-20301D01*
X80998Y-21037D01*
X81899Y-21557D01*
X82905Y-21827D01*
X83946D01*
X84951Y-21557D01*
X85852Y-21037D01*
X86588Y-20301D01*
X87109Y-19400D01*
X87378Y-18394D01*
Y-17354D01*
X87109Y-16348D01*
X86588Y-15447D01*
X85852Y-14711D01*
X84951Y-14191D01*
X83946Y-13921D01*
D02*
G37*
G36*
X73946D02*
X72905D01*
X71899Y-14191D01*
X70998Y-14711D01*
X70262Y-15447D01*
X69742Y-16348D01*
X69472Y-17354D01*
Y-18394D01*
X69742Y-19400D01*
X70262Y-20301D01*
X70998Y-21037D01*
X71899Y-21557D01*
X72905Y-21827D01*
X73946D01*
X74951Y-21557D01*
X75852Y-21037D01*
X76588Y-20301D01*
X77109Y-19400D01*
X77378Y-18394D01*
Y-17354D01*
X77109Y-16348D01*
X76588Y-15447D01*
X75852Y-14711D01*
X74951Y-14191D01*
X73946Y-13921D01*
D02*
G37*
G36*
X63946D02*
X62905D01*
X61900Y-14191D01*
X60998Y-14711D01*
X60262Y-15447D01*
X59742Y-16348D01*
X59473Y-17354D01*
Y-18394D01*
X59742Y-19400D01*
X60262Y-20301D01*
X60998Y-21037D01*
X61900Y-21557D01*
X62905Y-21827D01*
X63946D01*
X64951Y-21557D01*
X65852Y-21037D01*
X66588Y-20301D01*
X67109Y-19400D01*
X67378Y-18394D01*
Y-17354D01*
X67109Y-16348D01*
X66588Y-15447D01*
X65852Y-14711D01*
X64951Y-14191D01*
X63946Y-13921D01*
D02*
G37*
G36*
X53946D02*
X52905D01*
X51899Y-14191D01*
X50998Y-14711D01*
X50262Y-15447D01*
X49742Y-16348D01*
X49472Y-17354D01*
Y-18394D01*
X49742Y-19400D01*
X50262Y-20301D01*
X50998Y-21037D01*
X51899Y-21557D01*
X52905Y-21827D01*
X53946D01*
X54951Y-21557D01*
X55852Y-21037D01*
X56588Y-20301D01*
X57109Y-19400D01*
X57378Y-18394D01*
Y-17354D01*
X57109Y-16348D01*
X56588Y-15447D01*
X55852Y-14711D01*
X54951Y-14191D01*
X53946Y-13921D01*
D02*
G37*
G36*
X43946D02*
X42905D01*
X41899Y-14191D01*
X40998Y-14711D01*
X40262Y-15447D01*
X39742Y-16348D01*
X39472Y-17354D01*
Y-18394D01*
X39742Y-19400D01*
X40262Y-20301D01*
X40998Y-21037D01*
X41899Y-21557D01*
X42905Y-21827D01*
X43946D01*
X44951Y-21557D01*
X45852Y-21037D01*
X46588Y-20301D01*
X47109Y-19400D01*
X47378Y-18394D01*
Y-17354D01*
X47109Y-16348D01*
X46588Y-15447D01*
X45852Y-14711D01*
X44951Y-14191D01*
X43946Y-13921D01*
D02*
G37*
G36*
X33946D02*
X32905D01*
X31899Y-14191D01*
X30998Y-14711D01*
X30262Y-15447D01*
X29742Y-16348D01*
X29472Y-17354D01*
Y-18394D01*
X29742Y-19400D01*
X30262Y-20301D01*
X30998Y-21037D01*
X31899Y-21557D01*
X32905Y-21827D01*
X33946D01*
X34951Y-21557D01*
X35852Y-21037D01*
X36588Y-20301D01*
X37109Y-19400D01*
X37378Y-18394D01*
Y-17354D01*
X37109Y-16348D01*
X36588Y-15447D01*
X35852Y-14711D01*
X34951Y-14191D01*
X33946Y-13921D01*
D02*
G37*
G36*
X23946D02*
X22905D01*
X21900Y-14191D01*
X20998Y-14711D01*
X20262Y-15447D01*
X19742Y-16348D01*
X19473Y-17354D01*
Y-18394D01*
X19742Y-19400D01*
X20262Y-20301D01*
X20998Y-21037D01*
X21900Y-21557D01*
X22905Y-21827D01*
X23946D01*
X24951Y-21557D01*
X25852Y-21037D01*
X26588Y-20301D01*
X27109Y-19400D01*
X27378Y-18394D01*
Y-17354D01*
X27109Y-16348D01*
X26588Y-15447D01*
X25852Y-14711D01*
X24951Y-14191D01*
X23946Y-13921D01*
D02*
G37*
G36*
X13946D02*
X12905D01*
X11900Y-14191D01*
X10998Y-14711D01*
X10262Y-15447D01*
X9742Y-16348D01*
X9472Y-17354D01*
Y-18394D01*
X9742Y-19400D01*
X10262Y-20301D01*
X10998Y-21037D01*
X11900Y-21557D01*
X12905Y-21827D01*
X13946D01*
X14951Y-21557D01*
X15852Y-21037D01*
X16588Y-20301D01*
X17109Y-19400D01*
X17378Y-18394D01*
Y-17354D01*
X17109Y-16348D01*
X16588Y-15447D01*
X15852Y-14711D01*
X14951Y-14191D01*
X13946Y-13921D01*
D02*
G37*
G36*
X133613Y-79976D02*
X132883D01*
X132178Y-80165D01*
X131546Y-80530D01*
X131030Y-81046D01*
X130665Y-81678D01*
X130476Y-82383D01*
Y-83113D01*
X130665Y-83818D01*
X131030Y-84450D01*
X131546Y-84966D01*
X132178Y-85331D01*
X132883Y-85520D01*
X133613D01*
X134318Y-85331D01*
X134950Y-84966D01*
X135466Y-84450D01*
X135831Y-83818D01*
X136020Y-83113D01*
Y-82383D01*
X135831Y-81678D01*
X135466Y-81046D01*
X134950Y-80530D01*
X134318Y-80165D01*
X133613Y-79976D01*
D02*
G37*
G36*
X190217Y-59785D02*
X186279D01*
X185505Y-59887D01*
X184783Y-60186D01*
X184162Y-60662D01*
X183686Y-61282D01*
X183387Y-62005D01*
X183285Y-62779D01*
Y-66716D01*
X183387Y-67492D01*
X183686Y-68214D01*
X184162Y-68834D01*
X184783Y-69310D01*
X185188Y-69477D01*
Y-70019D01*
X184783Y-70187D01*
X184162Y-70662D01*
X183686Y-71283D01*
X183387Y-72005D01*
X183285Y-72780D01*
Y-76717D01*
X183387Y-77491D01*
X183686Y-78214D01*
X184162Y-78834D01*
X184783Y-79309D01*
X185188Y-79477D01*
Y-80019D01*
X184783Y-80186D01*
X184162Y-80662D01*
X183686Y-81283D01*
X183387Y-82005D01*
X183285Y-82780D01*
Y-86717D01*
X183387Y-87492D01*
X183686Y-88214D01*
X184162Y-88834D01*
X184783Y-89310D01*
X185188Y-89477D01*
Y-90019D01*
X184783Y-90187D01*
X184162Y-90662D01*
X183686Y-91282D01*
X183387Y-92005D01*
X183285Y-92779D01*
Y-96716D01*
X183383Y-97461D01*
X154269Y-126575D01*
X153769Y-126368D01*
Y-104070D01*
X153950Y-103966D01*
X154466Y-103450D01*
X154831Y-102818D01*
X155020Y-102113D01*
Y-101383D01*
X154831Y-100678D01*
X154466Y-100046D01*
X153950Y-99530D01*
X153318Y-99165D01*
X152613Y-98976D01*
X151883D01*
X151178Y-99165D01*
X150546Y-99530D01*
X150030Y-100046D01*
X149665Y-100678D01*
X149476Y-101383D01*
Y-102113D01*
X149665Y-102818D01*
X150030Y-103450D01*
X150546Y-103966D01*
X150727Y-104070D01*
Y-126118D01*
X146456Y-130389D01*
X146126Y-130882D01*
X146010Y-131465D01*
Y-153383D01*
X145510Y-153590D01*
X145450Y-153530D01*
X144818Y-153165D01*
X144113Y-152976D01*
X143383D01*
X142678Y-153165D01*
X142046Y-153530D01*
X141530Y-154046D01*
X141165Y-154678D01*
X140976Y-155383D01*
Y-156113D01*
X141165Y-156818D01*
X141530Y-157450D01*
X142046Y-157966D01*
X142678Y-158331D01*
X143383Y-158520D01*
X143862D01*
Y-236470D01*
X96264Y-284068D01*
X95831Y-283818D01*
X96020Y-283113D01*
Y-282383D01*
X95831Y-281678D01*
X95466Y-281046D01*
X94950Y-280530D01*
X94318Y-280165D01*
X93613Y-279976D01*
X92883D01*
X92178Y-280165D01*
X91546Y-280530D01*
X91030Y-281046D01*
X90665Y-281678D01*
X90476Y-282383D01*
Y-283113D01*
X90665Y-283818D01*
X91030Y-284450D01*
X91546Y-284966D01*
X92178Y-285331D01*
X92883Y-285520D01*
X93613D01*
X94318Y-285331D01*
X94568Y-285764D01*
X76735Y-303596D01*
X76406Y-304090D01*
X76290Y-304672D01*
Y-328095D01*
X76406Y-328677D01*
X76735Y-329171D01*
X80227Y-332662D01*
Y-337748D01*
X80343Y-338330D01*
X80672Y-338824D01*
X80903Y-339055D01*
X80849Y-339256D01*
Y-339986D01*
X81038Y-340691D01*
X81403Y-341323D01*
X81919Y-341839D01*
X82551Y-342203D01*
X82726Y-342250D01*
X82875Y-342808D01*
X70885Y-354798D01*
X54676D01*
X54094Y-354914D01*
X53601Y-355244D01*
X53601Y-355244D01*
X44701Y-364143D01*
X37324D01*
X37324Y-364143D01*
X36741Y-364259D01*
X36248Y-364589D01*
X26903Y-373934D01*
X26573Y-374427D01*
X26457Y-375009D01*
Y-380643D01*
X24955Y-382146D01*
X24951Y-382143D01*
X23946Y-381874D01*
X22905D01*
X21900Y-382143D01*
X20998Y-382664D01*
X20262Y-383400D01*
X19742Y-384301D01*
X19473Y-385306D01*
Y-386347D01*
X19742Y-387352D01*
X20262Y-388254D01*
X20998Y-388990D01*
X21900Y-389510D01*
X22905Y-389779D01*
X23946D01*
X24951Y-389510D01*
X25852Y-388990D01*
X26588Y-388254D01*
X27109Y-387352D01*
X27378Y-386347D01*
Y-385306D01*
X27109Y-384301D01*
X27106Y-384297D01*
X29054Y-382349D01*
X29384Y-381856D01*
X29500Y-381273D01*
Y-377934D01*
X30000Y-377800D01*
X30262Y-378254D01*
X30998Y-378990D01*
X31899Y-379510D01*
X32905Y-379780D01*
X33946D01*
X34951Y-379510D01*
X35852Y-378990D01*
X36588Y-378254D01*
X37109Y-377352D01*
X37378Y-376347D01*
Y-375306D01*
X37109Y-374301D01*
X37106Y-374297D01*
X41134Y-370269D01*
X48248D01*
X48830Y-370154D01*
X49324Y-369824D01*
X58378Y-360769D01*
X59378D01*
X59463Y-360889D01*
X59567Y-361269D01*
X47672Y-373164D01*
X47343Y-373658D01*
X47335Y-373694D01*
X46808Y-373781D01*
X46588Y-373400D01*
X45852Y-372664D01*
X44951Y-372143D01*
X43946Y-371874D01*
X42905D01*
X41899Y-372143D01*
X40998Y-372664D01*
X40262Y-373400D01*
X39742Y-374301D01*
X39472Y-375306D01*
Y-376347D01*
X39742Y-377352D01*
X40262Y-378254D01*
X40998Y-378990D01*
X41452Y-379252D01*
X41318Y-379752D01*
X37979D01*
X37396Y-379868D01*
X36903Y-380198D01*
X34955Y-382146D01*
X34951Y-382143D01*
X33946Y-381874D01*
X32905D01*
X31899Y-382143D01*
X30998Y-382664D01*
X30262Y-383400D01*
X29742Y-384301D01*
X29472Y-385306D01*
Y-386347D01*
X29742Y-387352D01*
X30262Y-388254D01*
X30998Y-388990D01*
X31899Y-389510D01*
X32905Y-389779D01*
X33946D01*
X34951Y-389510D01*
X35852Y-388990D01*
X36588Y-388254D01*
X37109Y-387352D01*
X37378Y-386347D01*
Y-385306D01*
X37109Y-384301D01*
X37106Y-384297D01*
X38609Y-382795D01*
X40214D01*
X40405Y-383257D01*
X40262Y-383400D01*
X39742Y-384301D01*
X39472Y-385306D01*
Y-386347D01*
X39742Y-387352D01*
X40262Y-388254D01*
X40998Y-388990D01*
X41899Y-389510D01*
X42905Y-389779D01*
X43946D01*
X44951Y-389510D01*
X45852Y-388990D01*
X46588Y-388254D01*
X47109Y-387352D01*
X47378Y-386347D01*
Y-385306D01*
X47109Y-384301D01*
X47106Y-384297D01*
X49134Y-382269D01*
X60743D01*
X60893Y-382769D01*
X60262Y-383400D01*
X59742Y-384301D01*
X59473Y-385306D01*
Y-386347D01*
X59742Y-387352D01*
X60262Y-388254D01*
X60998Y-388990D01*
X61900Y-389510D01*
X62905Y-389779D01*
X63946D01*
X64951Y-389510D01*
X65852Y-388990D01*
X66588Y-388254D01*
X67109Y-387352D01*
X67378Y-386347D01*
Y-385306D01*
X67109Y-384301D01*
X66588Y-383400D01*
X65958Y-382769D01*
X66107Y-382269D01*
X70743D01*
X70893Y-382769D01*
X70262Y-383400D01*
X69742Y-384301D01*
X69472Y-385306D01*
Y-386347D01*
X69742Y-387352D01*
X70262Y-388254D01*
X70998Y-388990D01*
X71899Y-389510D01*
X72905Y-389779D01*
X73946D01*
X74951Y-389510D01*
X75852Y-388990D01*
X76588Y-388254D01*
X77109Y-387352D01*
X77378Y-386347D01*
Y-385306D01*
X77109Y-384301D01*
X76588Y-383400D01*
X75958Y-382769D01*
X76107Y-382269D01*
X80743D01*
X80893Y-382769D01*
X80262Y-383400D01*
X79742Y-384301D01*
X79473Y-385306D01*
Y-386347D01*
X79742Y-387352D01*
X80262Y-388254D01*
X80998Y-388990D01*
X81899Y-389510D01*
X82905Y-389779D01*
X83946D01*
X84951Y-389510D01*
X85852Y-388990D01*
X86588Y-388254D01*
X87109Y-387352D01*
X87378Y-386347D01*
Y-385306D01*
X87109Y-384301D01*
X86588Y-383400D01*
X85958Y-382769D01*
X86107Y-382269D01*
X86248D01*
X86830Y-382154D01*
X87324Y-381824D01*
X90072Y-379076D01*
X90072Y-379076D01*
X90402Y-378582D01*
X90517Y-378000D01*
X90517Y-378000D01*
Y-347821D01*
X96765Y-341573D01*
X97227Y-341765D01*
Y-381150D01*
X97342Y-381732D01*
X97672Y-382225D01*
X99744Y-384297D01*
X99742Y-384301D01*
X99472Y-385306D01*
Y-386347D01*
X99742Y-387352D01*
X100262Y-388254D01*
X100998Y-388990D01*
X101900Y-389510D01*
X102905Y-389779D01*
X103946D01*
X104951Y-389510D01*
X105852Y-388990D01*
X106588Y-388254D01*
X107109Y-387352D01*
X107378Y-386347D01*
Y-385306D01*
X107109Y-384301D01*
X106588Y-383400D01*
X105852Y-382664D01*
X104951Y-382143D01*
X103946Y-381874D01*
X102905D01*
X101900Y-382143D01*
X101896Y-382146D01*
X100269Y-380519D01*
Y-378914D01*
X100731Y-378723D01*
X100998Y-378990D01*
X101900Y-379510D01*
X102905Y-379780D01*
X103946D01*
X104951Y-379510D01*
X105852Y-378990D01*
X106588Y-378254D01*
X107109Y-377352D01*
X107378Y-376347D01*
Y-375306D01*
X107179Y-374562D01*
X109472Y-372269D01*
X110743D01*
X110893Y-372769D01*
X110262Y-373400D01*
X109742Y-374301D01*
X109473Y-375306D01*
Y-376347D01*
X109742Y-377352D01*
X110262Y-378254D01*
X110998Y-378990D01*
X111899Y-379510D01*
X112905Y-379780D01*
X113946D01*
X114951Y-379510D01*
X115852Y-378990D01*
X116588Y-378254D01*
X117109Y-377352D01*
X117349Y-376457D01*
X117854D01*
X118437Y-376341D01*
X118930Y-376011D01*
X119010Y-375931D01*
X119473Y-376122D01*
Y-376347D01*
X119742Y-377352D01*
X120262Y-378254D01*
X120998Y-378990D01*
X121899Y-379510D01*
X122905Y-379780D01*
X123946D01*
X124951Y-379510D01*
X125852Y-378990D01*
X126588Y-378254D01*
X127109Y-377352D01*
X127378Y-376347D01*
Y-375306D01*
X127109Y-374301D01*
X126588Y-373400D01*
X125852Y-372664D01*
X124951Y-372143D01*
X123946Y-371874D01*
X123721D01*
X123529Y-371412D01*
X130032Y-364910D01*
X130432Y-365217D01*
X130165Y-365678D01*
X129976Y-366383D01*
Y-367113D01*
X130165Y-367818D01*
X130530Y-368450D01*
X131046Y-368966D01*
X131678Y-369331D01*
X132383Y-369520D01*
X133113D01*
X133818Y-369331D01*
X134450Y-368966D01*
X134966Y-368450D01*
X135331Y-367818D01*
X135520Y-367113D01*
Y-366383D01*
X135466Y-366182D01*
X156868Y-344779D01*
X156868Y-344779D01*
X157198Y-344286D01*
X157314Y-343704D01*
Y-323432D01*
X157494Y-323328D01*
X158010Y-322812D01*
X158375Y-322180D01*
X158564Y-321475D01*
Y-320745D01*
X158375Y-320040D01*
X158010Y-319408D01*
X157494Y-318892D01*
X156862Y-318528D01*
X156157Y-318339D01*
X155428D01*
X154723Y-318528D01*
X154091Y-318892D01*
X153575Y-319408D01*
X153210Y-320040D01*
X153021Y-320745D01*
Y-321475D01*
X153210Y-322180D01*
X153575Y-322812D01*
X154091Y-323328D01*
X154271Y-323432D01*
Y-329021D01*
X153771Y-329238D01*
X153290Y-328960D01*
X152585Y-328772D01*
X151856D01*
X151654Y-328826D01*
X150753Y-327924D01*
X150259Y-327594D01*
X149677Y-327479D01*
X137130D01*
X136269Y-326618D01*
Y-288441D01*
X136154Y-287859D01*
X135824Y-287365D01*
X126369Y-277911D01*
X126423Y-277709D01*
Y-276980D01*
X126234Y-276275D01*
X126128Y-276091D01*
X126494Y-275725D01*
X126678Y-275831D01*
X127383Y-276020D01*
X128113D01*
X128818Y-275831D01*
X129450Y-275466D01*
X129966Y-274950D01*
X130331Y-274318D01*
X130520Y-273613D01*
Y-272883D01*
X130331Y-272178D01*
X129966Y-271546D01*
X129450Y-271030D01*
X128818Y-270665D01*
X128113Y-270476D01*
X127383D01*
X126678Y-270665D01*
X126046Y-271030D01*
X125530Y-271546D01*
X125426Y-271727D01*
X124697D01*
X124506Y-271265D01*
X159324Y-236446D01*
X159654Y-235953D01*
X159769Y-235371D01*
Y-159364D01*
X160269Y-159095D01*
X160678Y-159331D01*
X161383Y-159520D01*
X162113D01*
X162818Y-159331D01*
X163450Y-158966D01*
X163966Y-158450D01*
X164221Y-158008D01*
X183601D01*
X183686Y-158214D01*
X184162Y-158834D01*
X184783Y-159309D01*
X185188Y-159477D01*
Y-160019D01*
X184783Y-160187D01*
X184162Y-160662D01*
X183686Y-161283D01*
X183387Y-162005D01*
X183285Y-162779D01*
Y-163227D01*
X175248D01*
X174666Y-163342D01*
X174172Y-163672D01*
X168314Y-169530D01*
X168113Y-169476D01*
X167383D01*
X166678Y-169665D01*
X166046Y-170030D01*
X165530Y-170546D01*
X165165Y-171178D01*
X164976Y-171883D01*
Y-172613D01*
X165165Y-173318D01*
X165530Y-173950D01*
X166046Y-174466D01*
X166678Y-174831D01*
X167383Y-175020D01*
X168113D01*
X168818Y-174831D01*
X169450Y-174466D01*
X169966Y-173950D01*
X170331Y-173318D01*
X170520Y-172613D01*
Y-171883D01*
X170466Y-171682D01*
X175878Y-166269D01*
X183285D01*
Y-166717D01*
X183387Y-167491D01*
X183686Y-168214D01*
X184162Y-168834D01*
X184783Y-169309D01*
X185188Y-169477D01*
Y-170019D01*
X184783Y-170186D01*
X184162Y-170662D01*
X183686Y-171282D01*
X183387Y-172005D01*
X183285Y-172780D01*
Y-173227D01*
X173248D01*
X173248Y-173227D01*
X172666Y-173343D01*
X172172Y-173672D01*
X168814Y-177030D01*
X168613Y-176976D01*
X167883D01*
X167178Y-177165D01*
X166546Y-177530D01*
X166030Y-178046D01*
X165665Y-178678D01*
X165476Y-179383D01*
Y-180113D01*
X165665Y-180818D01*
X166030Y-181450D01*
X166546Y-181966D01*
X167178Y-182331D01*
X167883Y-182520D01*
X168613D01*
X169318Y-182331D01*
X169950Y-181966D01*
X170466Y-181450D01*
X170831Y-180818D01*
X171020Y-180113D01*
Y-179383D01*
X170966Y-179182D01*
X173878Y-176269D01*
X183285D01*
Y-176716D01*
X183387Y-177491D01*
X183686Y-178214D01*
X184162Y-178834D01*
X184783Y-179309D01*
X185188Y-179477D01*
Y-180019D01*
X184783Y-180186D01*
X184162Y-180662D01*
X183686Y-181282D01*
X183387Y-182005D01*
X183285Y-182780D01*
Y-186716D01*
X183387Y-187492D01*
X183686Y-188214D01*
X184162Y-188834D01*
X184783Y-189310D01*
X185188Y-189477D01*
Y-190019D01*
X184783Y-190187D01*
X184162Y-190662D01*
X183686Y-191282D01*
X183387Y-192005D01*
X183285Y-192780D01*
Y-196716D01*
X183387Y-197492D01*
X183686Y-198214D01*
X184162Y-198834D01*
X184783Y-199310D01*
X185188Y-199477D01*
Y-200019D01*
X184783Y-200186D01*
X184162Y-200662D01*
X183686Y-201283D01*
X183387Y-202005D01*
X183285Y-202780D01*
Y-206716D01*
X183387Y-207491D01*
X183686Y-208214D01*
X184162Y-208834D01*
X184783Y-209310D01*
X185505Y-209609D01*
X186279Y-209711D01*
X190217D01*
X190991Y-209609D01*
X191714Y-209310D01*
X192334Y-208834D01*
X192809Y-208214D01*
X193109Y-207491D01*
X193211Y-206716D01*
Y-202780D01*
X193109Y-202005D01*
X192809Y-201283D01*
X192334Y-200662D01*
X191714Y-200186D01*
X191308Y-200019D01*
Y-199477D01*
X191714Y-199310D01*
X192334Y-198834D01*
X192809Y-198214D01*
X193109Y-197492D01*
X193211Y-196716D01*
Y-192780D01*
X193109Y-192005D01*
X192809Y-191282D01*
X192334Y-190662D01*
X191714Y-190187D01*
X191308Y-190019D01*
Y-189477D01*
X191714Y-189310D01*
X192334Y-188834D01*
X192809Y-188214D01*
X193109Y-187492D01*
X193211Y-186716D01*
Y-182780D01*
X193109Y-182005D01*
X192809Y-181282D01*
X192334Y-180662D01*
X191714Y-180186D01*
X191308Y-180019D01*
Y-179477D01*
X191714Y-179309D01*
X192334Y-178834D01*
X192809Y-178214D01*
X193109Y-177491D01*
X193211Y-176716D01*
Y-172780D01*
X193109Y-172005D01*
X192809Y-171282D01*
X192334Y-170662D01*
X191714Y-170186D01*
X191308Y-170019D01*
Y-169477D01*
X191714Y-169309D01*
X192334Y-168834D01*
X192809Y-168214D01*
X193109Y-167491D01*
X193211Y-166717D01*
Y-162779D01*
X193109Y-162005D01*
X192809Y-161283D01*
X192334Y-160662D01*
X191714Y-160187D01*
X191308Y-160019D01*
Y-159477D01*
X191714Y-159309D01*
X192334Y-158834D01*
X192809Y-158214D01*
X193109Y-157492D01*
X193211Y-156717D01*
Y-152779D01*
X193109Y-152005D01*
X192809Y-151283D01*
X192334Y-150662D01*
X191714Y-150187D01*
X191308Y-150019D01*
Y-149477D01*
X191714Y-149310D01*
X192334Y-148834D01*
X192809Y-148214D01*
X193109Y-147492D01*
X193211Y-146716D01*
Y-142780D01*
X193109Y-142005D01*
X192809Y-141282D01*
X192334Y-140662D01*
X191714Y-140187D01*
X191308Y-140019D01*
Y-139477D01*
X191714Y-139310D01*
X192334Y-138834D01*
X192809Y-138214D01*
X193109Y-137492D01*
X193211Y-136716D01*
Y-132780D01*
X193109Y-132005D01*
X192809Y-131282D01*
X192334Y-130662D01*
X191714Y-130186D01*
X191308Y-130019D01*
Y-129477D01*
X191714Y-129309D01*
X192334Y-128834D01*
X192809Y-128214D01*
X193109Y-127491D01*
X193211Y-126716D01*
Y-122780D01*
X193109Y-122005D01*
X192809Y-121282D01*
X192334Y-120662D01*
X191714Y-120186D01*
X191308Y-120019D01*
Y-119477D01*
X191714Y-119309D01*
X192334Y-118834D01*
X192809Y-118214D01*
X193109Y-117491D01*
X193211Y-116717D01*
Y-112779D01*
X193109Y-112005D01*
X192809Y-111283D01*
X192334Y-110662D01*
X191714Y-110187D01*
X191308Y-110019D01*
Y-109477D01*
X191714Y-109309D01*
X192334Y-108834D01*
X192809Y-108214D01*
X193109Y-107492D01*
X193211Y-106717D01*
Y-102779D01*
X193109Y-102005D01*
X192809Y-101283D01*
X192334Y-100662D01*
X191714Y-100187D01*
X191308Y-100019D01*
Y-99477D01*
X191714Y-99309D01*
X192334Y-98834D01*
X192809Y-98214D01*
X193109Y-97492D01*
X193211Y-96716D01*
Y-92779D01*
X193109Y-92005D01*
X192809Y-91282D01*
X192334Y-90662D01*
X191714Y-90187D01*
X191308Y-90019D01*
Y-89477D01*
X191714Y-89310D01*
X192334Y-88834D01*
X192809Y-88214D01*
X193109Y-87492D01*
X193211Y-86717D01*
Y-82780D01*
X193109Y-82005D01*
X192809Y-81283D01*
X192334Y-80662D01*
X191714Y-80186D01*
X191308Y-80019D01*
Y-79477D01*
X191714Y-79309D01*
X192334Y-78834D01*
X192809Y-78214D01*
X193109Y-77491D01*
X193211Y-76717D01*
Y-72780D01*
X193109Y-72005D01*
X192809Y-71283D01*
X192334Y-70662D01*
X191714Y-70187D01*
X191308Y-70019D01*
Y-69477D01*
X191714Y-69310D01*
X192334Y-68834D01*
X192809Y-68214D01*
X193109Y-67492D01*
X193211Y-66716D01*
Y-62779D01*
X193109Y-62005D01*
X192809Y-61282D01*
X192334Y-60662D01*
X191714Y-60186D01*
X190991Y-59887D01*
X190217Y-59785D01*
D02*
G37*
G36*
X62613Y-163476D02*
X61883D01*
X61178Y-163665D01*
X60546Y-164030D01*
X60030Y-164546D01*
X59665Y-165178D01*
X59476Y-165883D01*
Y-166613D01*
X59665Y-167318D01*
X60030Y-167950D01*
X60546Y-168466D01*
X61178Y-168831D01*
X61883Y-169020D01*
X62613D01*
X63318Y-168831D01*
X63950Y-168466D01*
X64466Y-167950D01*
X64831Y-167318D01*
X65020Y-166613D01*
Y-165883D01*
X64831Y-165178D01*
X64466Y-164546D01*
X63950Y-164030D01*
X63318Y-163665D01*
X62613Y-163476D01*
D02*
G37*
G36*
X74613Y-170976D02*
X73883D01*
X73178Y-171165D01*
X72546Y-171530D01*
X72030Y-172046D01*
X71665Y-172678D01*
X71476Y-173383D01*
Y-174113D01*
X71665Y-174818D01*
X72030Y-175450D01*
X72546Y-175966D01*
X73178Y-176331D01*
X73883Y-176520D01*
X74613D01*
X75318Y-176331D01*
X75950Y-175966D01*
X76466Y-175450D01*
X76831Y-174818D01*
X77020Y-174113D01*
Y-173383D01*
X76831Y-172678D01*
X76466Y-172046D01*
X75950Y-171530D01*
X75318Y-171165D01*
X74613Y-170976D01*
D02*
G37*
G36*
X37580Y-215000D02*
X36539D01*
X35533Y-215269D01*
X34632Y-215790D01*
X33896Y-216526D01*
X33376Y-217427D01*
X33106Y-218432D01*
Y-219473D01*
X33376Y-220479D01*
X33896Y-221380D01*
X34632Y-222116D01*
X35533Y-222636D01*
X35538Y-222637D01*
Y-240859D01*
X35533Y-240860D01*
X34632Y-241380D01*
X33896Y-242116D01*
X33376Y-243018D01*
X33106Y-244023D01*
Y-245064D01*
X33376Y-246069D01*
X33896Y-246970D01*
X34632Y-247706D01*
X35533Y-248227D01*
X36539Y-248496D01*
X37580D01*
X38585Y-248227D01*
X39486Y-247706D01*
X40222Y-246970D01*
X40742Y-246069D01*
X41012Y-245064D01*
Y-244023D01*
X40742Y-243018D01*
X40222Y-242116D01*
X39486Y-241380D01*
X38585Y-240860D01*
X38580Y-240859D01*
Y-222637D01*
X38585Y-222636D01*
X39486Y-222116D01*
X40222Y-221380D01*
X40742Y-220479D01*
X41012Y-219473D01*
Y-218432D01*
X40742Y-217427D01*
X40222Y-216526D01*
X39486Y-215790D01*
X38585Y-215269D01*
X37580Y-215000D01*
D02*
G37*
G36*
X145953Y-263047D02*
X138047D01*
Y-270953D01*
X145953D01*
Y-263047D01*
D02*
G37*
G36*
X102613Y-268476D02*
X101883D01*
X101178Y-268665D01*
X100546Y-269030D01*
X100030Y-269546D01*
X99665Y-270178D01*
X99476Y-270883D01*
Y-271613D01*
X99665Y-272318D01*
X100030Y-272950D01*
X100546Y-273466D01*
X101178Y-273831D01*
X101883Y-274020D01*
X102613D01*
X103318Y-273831D01*
X103950Y-273466D01*
X104466Y-272950D01*
X104831Y-272318D01*
X105020Y-271613D01*
Y-270883D01*
X104831Y-270178D01*
X104466Y-269546D01*
X103950Y-269030D01*
X103318Y-268665D01*
X102613Y-268476D01*
D02*
G37*
G36*
X97017Y-274573D02*
X96287D01*
X95582Y-274762D01*
X94950Y-275127D01*
X94434Y-275643D01*
X94069Y-276275D01*
X93880Y-276980D01*
Y-277709D01*
X94069Y-278414D01*
X94434Y-279046D01*
X94950Y-279562D01*
X95582Y-279927D01*
X96287Y-280116D01*
X97017D01*
X97721Y-279927D01*
X98353Y-279562D01*
X98869Y-279046D01*
X99234Y-278414D01*
X99423Y-277709D01*
Y-276980D01*
X99234Y-276275D01*
X98869Y-275643D01*
X98353Y-275127D01*
X97721Y-274762D01*
X97017Y-274573D01*
D02*
G37*
G36*
X142520Y-273047D02*
X141480D01*
X140474Y-273317D01*
X139573Y-273837D01*
X138837Y-274573D01*
X138317Y-275474D01*
X138047Y-276480D01*
Y-277520D01*
X138317Y-278526D01*
X138837Y-279427D01*
X139573Y-280163D01*
X140474Y-280683D01*
X141480Y-280953D01*
X142520D01*
X143526Y-280683D01*
X144427Y-280163D01*
X145163Y-279427D01*
X145683Y-278526D01*
X145953Y-277520D01*
Y-276480D01*
X145683Y-275474D01*
X145163Y-274573D01*
X144427Y-273837D01*
X143526Y-273317D01*
X142520Y-273047D01*
D02*
G37*
G36*
X20613Y-276476D02*
X19883D01*
X19178Y-276665D01*
X18546Y-277030D01*
X18030Y-277546D01*
X17665Y-278178D01*
X17476Y-278883D01*
Y-279613D01*
X17665Y-280318D01*
X18030Y-280950D01*
X18546Y-281466D01*
X19178Y-281831D01*
X19883Y-282020D01*
X20613D01*
X21318Y-281831D01*
X21950Y-281466D01*
X22466Y-280950D01*
X22831Y-280318D01*
X23020Y-279613D01*
Y-278883D01*
X22831Y-278178D01*
X22466Y-277546D01*
X21950Y-277030D01*
X21318Y-276665D01*
X20613Y-276476D01*
D02*
G37*
G36*
X142520Y-283047D02*
X141480D01*
X140474Y-283317D01*
X139573Y-283837D01*
X138837Y-284573D01*
X138317Y-285474D01*
X138047Y-286480D01*
Y-287520D01*
X138317Y-288526D01*
X138837Y-289427D01*
X139573Y-290163D01*
X140474Y-290683D01*
X141480Y-290953D01*
X142520D01*
X143526Y-290683D01*
X144427Y-290163D01*
X145163Y-289427D01*
X145683Y-288526D01*
X145953Y-287520D01*
Y-286480D01*
X145683Y-285474D01*
X145163Y-284573D01*
X144427Y-283837D01*
X143526Y-283317D01*
X142520Y-283047D01*
D02*
G37*
G36*
X38693Y-295709D02*
X37393D01*
X36138Y-296045D01*
X35012Y-296695D01*
X34093Y-297614D01*
X33443Y-298740D01*
X33106Y-299996D01*
Y-301296D01*
X33443Y-302551D01*
X34093Y-303677D01*
X35012Y-304596D01*
X36138Y-305246D01*
X37393Y-305583D01*
X38693D01*
X39949Y-305246D01*
X41075Y-304596D01*
X41994Y-303677D01*
X42644Y-302551D01*
X42980Y-301296D01*
Y-299996D01*
X42644Y-298740D01*
X41994Y-297614D01*
X41075Y-296695D01*
X39949Y-296045D01*
X38693Y-295709D01*
D02*
G37*
G36*
X19008D02*
X17708D01*
X16453Y-296045D01*
X15327Y-296695D01*
X14408Y-297614D01*
X13758Y-298740D01*
X13421Y-299996D01*
Y-301296D01*
X13758Y-302551D01*
X14408Y-303677D01*
X15327Y-304596D01*
X16453Y-305246D01*
X17708Y-305583D01*
X19008D01*
X20264Y-305246D01*
X21390Y-304596D01*
X22309Y-303677D01*
X22959Y-302551D01*
X23295Y-301296D01*
Y-299996D01*
X22959Y-298740D01*
X22309Y-297614D01*
X21390Y-296695D01*
X20264Y-296045D01*
X19008Y-295709D01*
D02*
G37*
G36*
X52610Y-323526D02*
X45524D01*
X44938Y-323642D01*
X44442Y-323974D01*
X44111Y-324470D01*
X43994Y-325055D01*
Y-335291D01*
X44111Y-335877D01*
X44442Y-336373D01*
X44938Y-336704D01*
X45524Y-336821D01*
X52610D01*
X53196Y-336704D01*
X53692Y-336373D01*
X54023Y-335877D01*
X54140Y-335291D01*
Y-325055D01*
X54023Y-324470D01*
X53692Y-323974D01*
X53196Y-323642D01*
X52610Y-323526D01*
D02*
G37*
G36*
X10878D02*
X3791D01*
X3206Y-323642D01*
X2710Y-323974D01*
X2378Y-324470D01*
X2262Y-325055D01*
Y-335291D01*
X2378Y-335877D01*
X2710Y-336373D01*
X3206Y-336704D01*
X3791Y-336821D01*
X10878D01*
X11463Y-336704D01*
X11959Y-336373D01*
X12291Y-335877D01*
X12407Y-335291D01*
Y-325055D01*
X12291Y-324470D01*
X11959Y-323974D01*
X11463Y-323642D01*
X10878Y-323526D01*
D02*
G37*
G36*
X19008Y-352795D02*
X17708D01*
X16453Y-353132D01*
X15327Y-353782D01*
X14408Y-354701D01*
X13758Y-355827D01*
X13421Y-357082D01*
Y-358382D01*
X13758Y-359638D01*
X14408Y-360764D01*
X15327Y-361683D01*
X16453Y-362333D01*
X17708Y-362669D01*
X19008D01*
X20264Y-362333D01*
X21390Y-361683D01*
X22309Y-360764D01*
X22959Y-359638D01*
X23295Y-358382D01*
Y-357082D01*
X22959Y-355827D01*
X22309Y-354701D01*
X21390Y-353782D01*
X20264Y-353132D01*
X19008Y-352795D01*
D02*
G37*
G36*
X183946Y-371874D02*
X182905D01*
X181899Y-372143D01*
X180998Y-372664D01*
X180262Y-373400D01*
X179742Y-374301D01*
X179472Y-375306D01*
Y-376347D01*
X179742Y-377352D01*
X180262Y-378254D01*
X180998Y-378990D01*
X181899Y-379510D01*
X182905Y-379780D01*
X183946D01*
X184951Y-379510D01*
X185852Y-378990D01*
X186588Y-378254D01*
X187109Y-377352D01*
X187378Y-376347D01*
Y-375306D01*
X187109Y-374301D01*
X186588Y-373400D01*
X185852Y-372664D01*
X184951Y-372143D01*
X183946Y-371874D01*
D02*
G37*
G36*
X173946D02*
X172905D01*
X171899Y-372143D01*
X170998Y-372664D01*
X170262Y-373400D01*
X169742Y-374301D01*
X169473Y-375306D01*
Y-376347D01*
X169742Y-377352D01*
X170262Y-378254D01*
X170998Y-378990D01*
X171899Y-379510D01*
X172905Y-379780D01*
X173946D01*
X174951Y-379510D01*
X175852Y-378990D01*
X176588Y-378254D01*
X177109Y-377352D01*
X177378Y-376347D01*
Y-375306D01*
X177109Y-374301D01*
X176588Y-373400D01*
X175852Y-372664D01*
X174951Y-372143D01*
X173946Y-371874D01*
D02*
G37*
G36*
X163946D02*
X162905D01*
X161899Y-372143D01*
X160998Y-372664D01*
X160262Y-373400D01*
X159742Y-374301D01*
X159473Y-375306D01*
Y-376347D01*
X159742Y-377352D01*
X160262Y-378254D01*
X160998Y-378990D01*
X161899Y-379510D01*
X162905Y-379780D01*
X163946D01*
X164951Y-379510D01*
X165852Y-378990D01*
X166588Y-378254D01*
X167109Y-377352D01*
X167378Y-376347D01*
Y-375306D01*
X167109Y-374301D01*
X166588Y-373400D01*
X165852Y-372664D01*
X164951Y-372143D01*
X163946Y-371874D01*
D02*
G37*
G36*
X153946D02*
X152905D01*
X151900Y-372143D01*
X150998Y-372664D01*
X150262Y-373400D01*
X149742Y-374301D01*
X149472Y-375306D01*
Y-376347D01*
X149742Y-377352D01*
X150262Y-378254D01*
X150998Y-378990D01*
X151900Y-379510D01*
X152905Y-379780D01*
X153946D01*
X154951Y-379510D01*
X155852Y-378990D01*
X156588Y-378254D01*
X157109Y-377352D01*
X157378Y-376347D01*
Y-375306D01*
X157109Y-374301D01*
X156588Y-373400D01*
X155852Y-372664D01*
X154951Y-372143D01*
X153946Y-371874D01*
D02*
G37*
G36*
X143946D02*
X142905D01*
X141900Y-372143D01*
X140998Y-372664D01*
X140262Y-373400D01*
X139742Y-374301D01*
X139472Y-375306D01*
Y-376347D01*
X139742Y-377352D01*
X140262Y-378254D01*
X140998Y-378990D01*
X141900Y-379510D01*
X142905Y-379780D01*
X143946D01*
X144951Y-379510D01*
X145852Y-378990D01*
X146588Y-378254D01*
X147109Y-377352D01*
X147378Y-376347D01*
Y-375306D01*
X147109Y-374301D01*
X146588Y-373400D01*
X145852Y-372664D01*
X144951Y-372143D01*
X143946Y-371874D01*
D02*
G37*
G36*
X133946D02*
X132905D01*
X131899Y-372143D01*
X130998Y-372664D01*
X130262Y-373400D01*
X129742Y-374301D01*
X129472Y-375306D01*
Y-376347D01*
X129742Y-377352D01*
X130262Y-378254D01*
X130998Y-378990D01*
X131899Y-379510D01*
X132905Y-379780D01*
X133946D01*
X134951Y-379510D01*
X135852Y-378990D01*
X136588Y-378254D01*
X137109Y-377352D01*
X137378Y-376347D01*
Y-375306D01*
X137109Y-374301D01*
X136588Y-373400D01*
X135852Y-372664D01*
X134951Y-372143D01*
X133946Y-371874D01*
D02*
G37*
G36*
X123946Y-381874D02*
X122905D01*
X121899Y-382143D01*
X120998Y-382664D01*
X120262Y-383400D01*
X119742Y-384301D01*
X119473Y-385306D01*
Y-386347D01*
X119742Y-387352D01*
X120262Y-388254D01*
X120998Y-388990D01*
X121899Y-389510D01*
X122905Y-389779D01*
X123946D01*
X124951Y-389510D01*
X125852Y-388990D01*
X126588Y-388254D01*
X127109Y-387352D01*
X127378Y-386347D01*
Y-385306D01*
X127109Y-384301D01*
X126588Y-383400D01*
X125852Y-382664D01*
X124951Y-382143D01*
X123946Y-381874D01*
D02*
G37*
G36*
X93946D02*
X92905D01*
X91900Y-382143D01*
X90998Y-382664D01*
X90262Y-383400D01*
X89742Y-384301D01*
X89473Y-385306D01*
Y-386347D01*
X89742Y-387352D01*
X90262Y-388254D01*
X90998Y-388990D01*
X91900Y-389510D01*
X92905Y-389779D01*
X93946D01*
X94951Y-389510D01*
X95852Y-388990D01*
X96588Y-388254D01*
X97109Y-387352D01*
X97378Y-386347D01*
Y-385306D01*
X97109Y-384301D01*
X96588Y-383400D01*
X95852Y-382664D01*
X94951Y-382143D01*
X93946Y-381874D01*
D02*
G37*
%LPD*%
G36*
X183317Y-102537D02*
X183285Y-102779D01*
Y-106717D01*
X183383Y-107461D01*
X154920Y-135924D01*
X154590Y-136418D01*
X154475Y-137000D01*
Y-139467D01*
X153975Y-139756D01*
X153818Y-139665D01*
X153113Y-139476D01*
X152383D01*
X151678Y-139665D01*
X151521Y-139756D01*
X151021Y-139467D01*
Y-134126D01*
X182844Y-102304D01*
X183317Y-102537D01*
D02*
G37*
G36*
Y-112537D02*
X183285Y-112779D01*
Y-116717D01*
X183387Y-117491D01*
X183686Y-118214D01*
X184162Y-118834D01*
X184783Y-119309D01*
X185188Y-119477D01*
Y-120019D01*
X184783Y-120186D01*
X184162Y-120662D01*
X183686Y-121282D01*
X183387Y-122005D01*
X183285Y-122780D01*
Y-126716D01*
X183387Y-127491D01*
X183686Y-128214D01*
X184162Y-128834D01*
X184783Y-129309D01*
X185188Y-129477D01*
Y-130019D01*
X184783Y-130186D01*
X184162Y-130662D01*
X183686Y-131282D01*
X183387Y-132005D01*
X183285Y-132780D01*
Y-136716D01*
X183387Y-137492D01*
X183686Y-138214D01*
X184162Y-138834D01*
X184783Y-139310D01*
X185188Y-139477D01*
Y-140019D01*
X184783Y-140187D01*
X184162Y-140662D01*
X183686Y-141282D01*
X183387Y-142005D01*
X183285Y-142780D01*
Y-146716D01*
X183387Y-147492D01*
X183686Y-148214D01*
X184162Y-148834D01*
X184783Y-149310D01*
X185188Y-149477D01*
Y-150019D01*
X184783Y-150187D01*
X184162Y-150662D01*
X183686Y-151283D01*
X183387Y-152005D01*
X183285Y-152779D01*
Y-154965D01*
X163885D01*
X163450Y-154530D01*
X162818Y-154165D01*
X162534Y-154089D01*
X162384Y-153531D01*
X162466Y-153450D01*
X162831Y-152818D01*
X163020Y-152113D01*
Y-151383D01*
X162831Y-150678D01*
X162466Y-150046D01*
X161950Y-149530D01*
X161318Y-149165D01*
X160613Y-148976D01*
X159883D01*
X159178Y-149165D01*
X158546Y-149530D01*
X158030Y-150046D01*
X158017Y-150068D01*
X157517Y-149934D01*
Y-137630D01*
X182844Y-112304D01*
X183317Y-112537D01*
D02*
G37*
G36*
X151678Y-144831D02*
X152383Y-145020D01*
X153113D01*
X153818Y-144831D01*
X153975Y-144740D01*
X154475Y-145029D01*
Y-234209D01*
X151483Y-237200D01*
X151021Y-237009D01*
Y-145029D01*
X151521Y-144740D01*
X151678Y-144831D01*
D02*
G37*
G36*
X133227Y-289071D02*
Y-304040D01*
X132990Y-304138D01*
X132727Y-304206D01*
X132125Y-303858D01*
X131420Y-303669D01*
X130690D01*
X129985Y-303858D01*
X129828Y-303949D01*
X129328Y-303660D01*
Y-287807D01*
X129213Y-287225D01*
X128883Y-286731D01*
X128883Y-286731D01*
X125216Y-283064D01*
X125270Y-282863D01*
Y-282133D01*
X125155Y-281707D01*
X125604Y-281448D01*
X133227Y-289071D01*
D02*
G37*
G36*
X107829Y-303173D02*
X107829Y-303173D01*
X108322Y-303502D01*
X108412Y-303520D01*
X108449Y-303656D01*
X108814Y-304288D01*
X109170Y-304645D01*
X109172Y-304876D01*
X109105Y-305164D01*
X109068Y-305223D01*
X108542Y-305526D01*
X108026Y-306042D01*
X107661Y-306674D01*
X107472Y-307379D01*
Y-308109D01*
X107655Y-308790D01*
X103856Y-312589D01*
X103298Y-312440D01*
X103225Y-312165D01*
X102860Y-311533D01*
X102344Y-311017D01*
X101711Y-310652D01*
X101007Y-310464D01*
X100891D01*
X100684Y-309963D01*
X103182Y-307466D01*
X103383Y-307520D01*
X104113D01*
X104818Y-307331D01*
X105450Y-306966D01*
X105966Y-306450D01*
X106331Y-305818D01*
X106520Y-305113D01*
Y-304383D01*
X106331Y-303678D01*
X106240Y-303521D01*
X106529Y-303021D01*
X107677D01*
X107829Y-303173D01*
D02*
G37*
G36*
X132990Y-308744D02*
X133227Y-308842D01*
Y-327248D01*
X133343Y-327830D01*
X133672Y-328324D01*
X134334Y-328985D01*
X134142Y-329447D01*
X132335D01*
X129328Y-326441D01*
Y-309222D01*
X129828Y-308933D01*
X129985Y-309024D01*
X130690Y-309213D01*
X131420D01*
X132125Y-309024D01*
X132727Y-308676D01*
X132990Y-308744D01*
D02*
G37*
G36*
X87790Y-313333D02*
Y-317962D01*
X84662Y-321089D01*
X84332Y-321583D01*
X84218Y-322154D01*
X84178Y-322165D01*
X83769Y-322401D01*
X83269Y-322132D01*
Y-313864D01*
X83769Y-313595D01*
X84178Y-313831D01*
X84883Y-314020D01*
X85613D01*
X86318Y-313831D01*
X86950Y-313466D01*
X87290Y-313126D01*
X87790Y-313333D01*
D02*
G37*
G36*
X91727Y-325364D02*
Y-333957D01*
X88876Y-336807D01*
X88428Y-336549D01*
X88570Y-336016D01*
Y-335286D01*
X88499Y-335020D01*
X88613Y-334520D01*
X89318Y-334331D01*
X89950Y-333966D01*
X90466Y-333450D01*
X90831Y-332818D01*
X91020Y-332113D01*
Y-331383D01*
X90831Y-330678D01*
X90466Y-330046D01*
X89950Y-329530D01*
X89318Y-329165D01*
X88613Y-328976D01*
X87883D01*
X87214Y-329156D01*
X85993Y-327935D01*
X86143Y-327378D01*
X86318Y-327331D01*
X86950Y-326966D01*
X87466Y-326450D01*
X87831Y-325818D01*
X87923Y-325472D01*
X88501Y-325228D01*
X88678Y-325331D01*
X89383Y-325520D01*
X90113D01*
X90818Y-325331D01*
X91227Y-325095D01*
X91727Y-325364D01*
D02*
G37*
G36*
X116727Y-279697D02*
Y-320748D01*
X116842Y-321330D01*
X117172Y-321824D01*
X120727Y-325378D01*
Y-344748D01*
X120843Y-345330D01*
X121172Y-345824D01*
X125030Y-349682D01*
X124976Y-349883D01*
Y-350613D01*
X125165Y-351318D01*
X125530Y-351950D01*
X126046Y-352466D01*
X126678Y-352831D01*
X127383Y-353020D01*
X128113D01*
X128818Y-352831D01*
X129450Y-352466D01*
X129966Y-351950D01*
X130331Y-351318D01*
X130520Y-350613D01*
Y-349883D01*
X130331Y-349178D01*
X129966Y-348546D01*
X129450Y-348030D01*
X128818Y-347665D01*
X128113Y-347476D01*
X127383D01*
X127182Y-347530D01*
X123769Y-344118D01*
Y-324748D01*
X123654Y-324166D01*
X123324Y-323672D01*
X123324Y-323672D01*
X119769Y-320118D01*
Y-284315D01*
X120269Y-284181D01*
X120280Y-284200D01*
X120796Y-284716D01*
X121428Y-285081D01*
X122133Y-285270D01*
X122863D01*
X123064Y-285216D01*
X126286Y-288437D01*
Y-327071D01*
X126401Y-327653D01*
X126731Y-328147D01*
X130629Y-332044D01*
X131123Y-332374D01*
X131705Y-332490D01*
X144574D01*
X145030Y-332946D01*
X144976Y-333147D01*
Y-333877D01*
X145165Y-334582D01*
X145530Y-335214D01*
X146046Y-335730D01*
X146678Y-336095D01*
X147383Y-336283D01*
X148113D01*
X148818Y-336095D01*
X149450Y-335730D01*
X149966Y-335214D01*
X150331Y-334582D01*
X150412Y-334277D01*
X150995Y-334036D01*
X151151Y-334126D01*
X151856Y-334315D01*
X152585D01*
X153290Y-334126D01*
X153771Y-333848D01*
X154271Y-334065D01*
Y-343074D01*
X148073Y-349271D01*
X147612Y-349080D01*
Y-347191D01*
X147792Y-347087D01*
X148308Y-346571D01*
X148673Y-345939D01*
X148862Y-345234D01*
Y-344504D01*
X148673Y-343799D01*
X148308Y-343167D01*
X147889Y-342748D01*
X147931Y-342361D01*
X148008Y-342198D01*
X148122Y-342168D01*
X148754Y-341803D01*
X149270Y-341287D01*
X149635Y-340655D01*
X149824Y-339950D01*
Y-339220D01*
X149635Y-338515D01*
X149270Y-337883D01*
X148754Y-337367D01*
X148122Y-337002D01*
X147417Y-336814D01*
X146687D01*
X145982Y-337002D01*
X145350Y-337367D01*
X144834Y-337883D01*
X144469Y-338515D01*
X144280Y-339220D01*
Y-339934D01*
X141767Y-342448D01*
X141437Y-342942D01*
X141321Y-343524D01*
Y-344725D01*
X140821Y-344991D01*
X140251Y-344839D01*
X139521D01*
X138816Y-345027D01*
X138184Y-345392D01*
X137668Y-345908D01*
X137303Y-346540D01*
X137114Y-347245D01*
Y-347975D01*
X137303Y-348680D01*
X137668Y-349312D01*
X138184Y-349828D01*
X138816Y-350193D01*
X138991Y-350240D01*
X139140Y-350798D01*
X132956Y-356982D01*
X131503D01*
X130921Y-357097D01*
X130427Y-357427D01*
X118628Y-369227D01*
X108841D01*
X108259Y-369342D01*
X107766Y-369672D01*
X107766Y-369672D01*
X105169Y-372269D01*
X104951Y-372143D01*
X103946Y-371874D01*
X102905D01*
X101900Y-372143D01*
X100998Y-372664D01*
X100731Y-372931D01*
X100269Y-372739D01*
Y-341626D01*
X104824Y-337072D01*
X105154Y-336578D01*
X105269Y-335996D01*
X105269Y-335996D01*
Y-315478D01*
X110232Y-310516D01*
X110609D01*
X111314Y-310327D01*
X111946Y-309962D01*
X112462Y-309446D01*
X112827Y-308814D01*
X113016Y-308109D01*
Y-307379D01*
X112827Y-306674D01*
X112462Y-306042D01*
X112106Y-305686D01*
X112104Y-305455D01*
X112171Y-305167D01*
X112207Y-305108D01*
X112733Y-304804D01*
X113249Y-304288D01*
X113614Y-303656D01*
X113803Y-302952D01*
Y-302222D01*
X113614Y-301517D01*
X113249Y-300885D01*
X112733Y-300369D01*
X112101Y-300004D01*
X111396Y-299815D01*
X110667D01*
X109962Y-300004D01*
X109330Y-300369D01*
X109318Y-300380D01*
X108890Y-300095D01*
X108308Y-299979D01*
X102403D01*
X101821Y-300095D01*
X101327Y-300424D01*
X98520Y-303232D01*
X98020Y-303024D01*
Y-302883D01*
X97831Y-302178D01*
X97466Y-301546D01*
X96950Y-301030D01*
X96318Y-300665D01*
X95919Y-300558D01*
X95770Y-300001D01*
X116265Y-279506D01*
X116727Y-279697D01*
D02*
G37*
G36*
X87475Y-348733D02*
Y-373935D01*
X86975Y-374069D01*
X86588Y-373400D01*
X85852Y-372664D01*
X84951Y-372143D01*
X84947Y-372142D01*
Y-367925D01*
X84831Y-367343D01*
X84501Y-366849D01*
X84501Y-366849D01*
X79466Y-361814D01*
X79520Y-361613D01*
Y-360883D01*
X79331Y-360178D01*
X78966Y-359546D01*
X78450Y-359030D01*
X77818Y-358665D01*
X77643Y-358618D01*
X77494Y-358061D01*
X87013Y-348541D01*
X87475Y-348733D01*
D02*
G37*
G36*
X74118Y-362143D02*
X74165Y-362318D01*
X74530Y-362950D01*
X75046Y-363466D01*
X75678Y-363831D01*
X76383Y-364020D01*
X77113D01*
X77314Y-363966D01*
X81904Y-368555D01*
Y-372142D01*
X81899Y-372143D01*
X80998Y-372664D01*
X80262Y-373400D01*
X79742Y-374301D01*
X79473Y-375306D01*
Y-376347D01*
X79742Y-377352D01*
X80262Y-378254D01*
X80735Y-378727D01*
X80528Y-379227D01*
X76322D01*
X76115Y-378727D01*
X76588Y-378254D01*
X77109Y-377352D01*
X77378Y-376347D01*
Y-375306D01*
X77109Y-374301D01*
X76588Y-373400D01*
X75852Y-372664D01*
X75358Y-372378D01*
Y-370709D01*
X75950Y-370368D01*
X76466Y-369851D01*
X76831Y-369219D01*
X77020Y-368514D01*
Y-367785D01*
X76831Y-367080D01*
X76466Y-366448D01*
X75950Y-365932D01*
X75318Y-365567D01*
X74613Y-365378D01*
X73883D01*
X73178Y-365567D01*
X72546Y-365932D01*
X72030Y-366448D01*
X71665Y-367080D01*
X71476Y-367785D01*
Y-368514D01*
X71665Y-369219D01*
X72030Y-369851D01*
X72315Y-370137D01*
Y-372032D01*
X71899Y-372143D01*
X70998Y-372664D01*
X70262Y-373400D01*
X69742Y-374301D01*
X69472Y-375306D01*
Y-376347D01*
X69742Y-377352D01*
X70262Y-378254D01*
X70735Y-378727D01*
X70528Y-379227D01*
X66322D01*
X66115Y-378727D01*
X66588Y-378254D01*
X67109Y-377352D01*
X67378Y-376347D01*
Y-375306D01*
X67109Y-374301D01*
X66588Y-373400D01*
X65852Y-372664D01*
X64951Y-372143D01*
X64947Y-372142D01*
Y-370520D01*
X65113D01*
X65818Y-370331D01*
X66450Y-369966D01*
X66966Y-369450D01*
X67331Y-368818D01*
X67520Y-368113D01*
Y-367383D01*
X67331Y-366678D01*
X66966Y-366046D01*
X66450Y-365530D01*
X65818Y-365165D01*
X65113Y-364976D01*
X64383D01*
X63678Y-365165D01*
X63046Y-365530D01*
X62530Y-366046D01*
X62165Y-366678D01*
X61976Y-367383D01*
Y-368113D01*
X62165Y-368818D01*
X62210Y-368896D01*
X62020Y-369181D01*
X61904Y-369763D01*
Y-372142D01*
X61900Y-372143D01*
X60998Y-372664D01*
X60262Y-373400D01*
X59742Y-374301D01*
X59473Y-375306D01*
Y-376347D01*
X59742Y-377352D01*
X60262Y-378254D01*
X60735Y-378727D01*
X60528Y-379227D01*
X56322D01*
X56115Y-378727D01*
X56588Y-378254D01*
X57109Y-377352D01*
X57378Y-376347D01*
Y-375306D01*
X57109Y-374301D01*
X56588Y-373400D01*
X55852Y-372664D01*
X54951Y-372143D01*
X53967Y-371880D01*
X53825Y-371646D01*
X53728Y-371412D01*
X61370Y-363769D01*
X71155D01*
X71737Y-363654D01*
X72230Y-363324D01*
X73561Y-361994D01*
X74118Y-362143D01*
D02*
G37*
%LPC*%
G36*
X106113Y-350476D02*
X105383D01*
X104678Y-350665D01*
X104046Y-351030D01*
X103530Y-351546D01*
X103165Y-352178D01*
X102976Y-352883D01*
Y-353613D01*
X103165Y-354318D01*
X103530Y-354950D01*
X104046Y-355466D01*
X104678Y-355831D01*
X105383Y-356020D01*
X106113D01*
X106818Y-355831D01*
X107450Y-355466D01*
X107966Y-354950D01*
X108331Y-354318D01*
X108520Y-353613D01*
Y-352883D01*
X108331Y-352178D01*
X107966Y-351546D01*
X107450Y-351030D01*
X106818Y-350665D01*
X106113Y-350476D01*
D02*
G37*
%LPD*%
G36*
X51081Y-333762D02*
X47053D01*
Y-326585D01*
X51081D01*
Y-333762D01*
D02*
G37*
G36*
X9349D02*
X5321D01*
Y-326585D01*
X9349D01*
Y-333762D01*
D02*
G37*
D21*
X37059Y-244543D02*
Y-218953D01*
X123155Y-273248D02*
X127748D01*
X91280Y-320524D02*
Y-302339D01*
X118248Y-278155D02*
X123155Y-273248D01*
X91280Y-302339D02*
X158248Y-235371D01*
X89311Y-318592D02*
Y-301524D01*
X158248Y-235371D02*
Y-153748D01*
X79779Y-327279D02*
Y-305488D01*
X147531Y-237736D01*
X89311Y-301524D02*
X155996Y-234839D01*
X149500Y-238551D02*
Y-133496D01*
X118248Y-320748D02*
Y-278155D01*
X81748Y-325841D02*
Y-306303D01*
X155996Y-234839D02*
Y-137000D01*
X81748Y-306303D02*
X149500Y-238551D01*
X77811Y-304672D02*
X145384Y-237100D01*
X147531Y-237736D02*
Y-131465D01*
X145384Y-237100D02*
Y-156325D01*
X77811Y-328095D02*
Y-304672D01*
X118248Y-320748D02*
X122248Y-324748D01*
Y-344748D02*
Y-324748D01*
Y-344748D02*
X127748Y-350248D01*
X142842Y-343524D02*
X146781Y-339585D01*
X147052D01*
X119258Y-370748D02*
X131503Y-358503D01*
X133587D01*
X136025Y-360472D02*
X146090Y-350406D01*
X117854Y-374936D02*
X132318Y-360472D01*
X136025D01*
X143134Y-348956D02*
Y-346265D01*
X142842Y-345973D02*
X143134Y-346265D01*
X142842Y-345973D02*
Y-343524D01*
X133587Y-358503D02*
X143134Y-348956D01*
X146090Y-350406D02*
Y-344869D01*
X131705Y-330968D02*
X145205D01*
X127807Y-327071D02*
X131705Y-330968D01*
X155792Y-343704D02*
Y-321110D01*
X136500Y-329000D02*
X149677D01*
X145205Y-330968D02*
X147748Y-333512D01*
X132748Y-366748D02*
X155792Y-343704D01*
X149677Y-329000D02*
X152220Y-331543D01*
X134748Y-327248D02*
X136500Y-329000D01*
X114316Y-374936D02*
X117854D01*
X108841Y-370748D02*
X119258D01*
X103425Y-375827D02*
X103763D01*
X108841Y-370748D01*
X113425Y-375827D02*
X114316Y-374936D01*
X103748Y-335996D02*
Y-314848D01*
X98748Y-340996D02*
X103748Y-335996D01*
Y-314848D02*
X110244Y-308352D01*
X88996Y-347190D02*
X100642Y-335545D01*
Y-313235D01*
X123652Y-277344D02*
X134748Y-288441D01*
Y-327248D02*
Y-288441D01*
X127807Y-327071D02*
Y-287807D01*
X122498Y-282498D02*
X127807Y-287807D01*
X98748Y-381150D02*
X103425Y-385827D01*
X98748Y-381150D02*
Y-340996D01*
X88996Y-378000D02*
Y-347190D01*
X175248Y-164748D02*
X177248D01*
X167748Y-172248D02*
X175248Y-164748D01*
X173248Y-174748D02*
X188248D01*
X168248Y-179748D02*
X173248Y-174748D01*
X110542Y-302097D02*
X111031Y-302587D01*
X102403Y-301500D02*
X108308D01*
X95217Y-308686D02*
X102403Y-301500D01*
X108904Y-302097D02*
X110542D01*
X108308Y-301500D02*
X108904Y-302097D01*
X97185Y-311311D02*
X103748Y-304748D01*
X110244Y-308352D02*
Y-307744D01*
X177248Y-164748D02*
X188248D01*
X158248Y-153748D02*
X160248Y-151748D01*
X162010Y-156486D02*
X186510D01*
X161748Y-156748D02*
X162010Y-156486D01*
X186510D02*
X188248Y-154748D01*
X85799Y-335651D02*
Y-335106D01*
X83996Y-333304D02*
X85799Y-335106D01*
X97185Y-336218D02*
Y-311311D01*
X95217Y-335402D02*
Y-308686D01*
X93248Y-334587D02*
Y-305248D01*
X81748Y-337748D02*
X83621Y-339621D01*
X71515Y-356320D02*
X93248Y-334587D01*
X71371Y-359248D02*
X95217Y-335402D01*
X71155Y-362248D02*
X97185Y-336218D01*
X77811Y-328095D02*
X81748Y-332032D01*
Y-337748D02*
Y-332032D01*
X83996Y-333304D02*
Y-331496D01*
X79779Y-327279D02*
X83996Y-331496D01*
X143748Y-155748D02*
X144807D01*
X145384Y-156325D01*
X152248Y-126748D02*
Y-101748D01*
X147531Y-131465D02*
X152248Y-126748D01*
X149500Y-133496D02*
X188248Y-94748D01*
X87655Y-331748D02*
X88248D01*
X81748Y-325841D02*
X87655Y-331748D01*
X155996Y-137000D02*
X188248Y-104748D01*
X85738Y-322165D02*
X89311Y-318592D01*
X85738Y-324258D02*
Y-322165D01*
X85248Y-324748D02*
X85738Y-324258D01*
X93248Y-305248D02*
X95248Y-303248D01*
X89748Y-322056D02*
X91280Y-320524D01*
X89748Y-322748D02*
Y-322056D01*
X37324Y-365665D02*
X45331D01*
X54676Y-356320D02*
X71515D01*
X45331Y-365665D02*
X54676Y-356320D01*
X27979Y-375009D02*
X37324Y-365665D01*
X27979Y-381273D02*
Y-375009D01*
X23425Y-385827D02*
X27979Y-381273D01*
X60740Y-362248D02*
X71155D01*
X57748Y-359248D02*
X71371D01*
X48248Y-368748D02*
X57748Y-359248D01*
X40504Y-368748D02*
X48248D01*
X33425Y-375827D02*
X40504Y-368748D01*
X48748Y-374240D02*
X60740Y-362248D01*
X48748Y-376768D02*
Y-374240D01*
X44243Y-381273D02*
X48748Y-376768D01*
X37979Y-381273D02*
X44243D01*
X33425Y-385827D02*
X37979Y-381273D01*
X48504Y-380748D02*
X86248D01*
X43425Y-385827D02*
X48504Y-380748D01*
X86248D02*
X88996Y-378000D01*
X63425Y-369763D02*
X64748Y-368441D01*
X63425Y-375827D02*
Y-369763D01*
X64748Y-368441D02*
Y-367748D01*
X73425Y-375827D02*
X73837Y-375415D01*
Y-368561D01*
X74248Y-368150D01*
X76748Y-361248D02*
X83425Y-367925D01*
Y-375827D02*
Y-367925D01*
D22*
X133222Y-375624D02*
X133425Y-375827D01*
X93425D02*
Y-374655D01*
D23*
X153425Y-375827D02*
X153472Y-375780D01*
D24*
X28201Y-300646D02*
D03*
X38043D02*
D03*
X18358D02*
D03*
X38043Y-357732D02*
D03*
X18358D02*
D03*
D25*
X186279Y-33094D02*
D03*
Y-328370D02*
D03*
D26*
X188248Y-174748D02*
D03*
Y-184748D02*
D03*
Y-194748D02*
D03*
Y-204748D02*
D03*
Y-54748D02*
D03*
Y-64748D02*
D03*
Y-74748D02*
D03*
Y-84748D02*
D03*
Y-94748D02*
D03*
Y-104748D02*
D03*
Y-114748D02*
D03*
Y-124748D02*
D03*
Y-134748D02*
D03*
Y-144748D02*
D03*
Y-154748D02*
D03*
Y-164748D02*
D03*
D27*
X64232Y-328370D02*
D03*
Y-33094D02*
D03*
D28*
X19342Y-244543D02*
D03*
Y-218953D02*
D03*
X37059Y-244543D02*
D03*
Y-218953D02*
D03*
X142000Y-277000D02*
D03*
Y-287000D02*
D03*
Y-297000D02*
D03*
X13425Y-7874D02*
D03*
Y-17874D02*
D03*
X23425Y-7874D02*
D03*
Y-17874D02*
D03*
X33425Y-7874D02*
D03*
Y-17874D02*
D03*
X43425Y-7874D02*
D03*
Y-17874D02*
D03*
X53425Y-7874D02*
D03*
Y-17874D02*
D03*
X63425Y-7874D02*
D03*
Y-17874D02*
D03*
X73425Y-7874D02*
D03*
Y-17874D02*
D03*
X83425Y-7874D02*
D03*
Y-17874D02*
D03*
X93425Y-7874D02*
D03*
Y-17874D02*
D03*
X103425Y-7874D02*
D03*
Y-17874D02*
D03*
X113425Y-7874D02*
D03*
Y-17874D02*
D03*
X123425Y-7874D02*
D03*
Y-17874D02*
D03*
X133425Y-7874D02*
D03*
Y-17874D02*
D03*
X143425Y-7874D02*
D03*
Y-17874D02*
D03*
X153425Y-7874D02*
D03*
Y-17874D02*
D03*
X163425Y-7874D02*
D03*
Y-17874D02*
D03*
X173425Y-7874D02*
D03*
Y-17874D02*
D03*
X183425Y-7874D02*
D03*
X13425Y-375827D02*
D03*
Y-385827D02*
D03*
X23425Y-375827D02*
D03*
Y-385827D02*
D03*
X33425Y-375827D02*
D03*
Y-385827D02*
D03*
X43425Y-375827D02*
D03*
Y-385827D02*
D03*
X53425Y-375827D02*
D03*
Y-385827D02*
D03*
X63425Y-375827D02*
D03*
Y-385827D02*
D03*
X73425Y-375827D02*
D03*
Y-385827D02*
D03*
X83425Y-375827D02*
D03*
Y-385827D02*
D03*
X93425Y-375827D02*
D03*
Y-385827D02*
D03*
X103425Y-375827D02*
D03*
Y-385827D02*
D03*
X113425Y-375827D02*
D03*
Y-385827D02*
D03*
X123425Y-375827D02*
D03*
Y-385827D02*
D03*
X133425Y-375827D02*
D03*
Y-385827D02*
D03*
X143425Y-375827D02*
D03*
Y-385827D02*
D03*
X153425Y-375827D02*
D03*
Y-385827D02*
D03*
X163425Y-375827D02*
D03*
Y-385827D02*
D03*
X173425Y-375827D02*
D03*
Y-385827D02*
D03*
X183425Y-375827D02*
D03*
D29*
X142000Y-267000D02*
D03*
D30*
X33319Y-75842D02*
D03*
Y-82142D02*
D03*
X23083Y-85291D02*
D03*
Y-78992D02*
D03*
X33319Y-88441D02*
D03*
D31*
X28201Y-96512D02*
D03*
Y-67772D02*
D03*
D32*
X183425Y-17874D02*
D03*
Y-385827D02*
D03*
D33*
X179500Y-187000D02*
D03*
X179000Y-124500D02*
D03*
X146000Y-117500D02*
D03*
X63500Y-350500D02*
D03*
X109500Y-293000D02*
D03*
X184500Y-357000D02*
D03*
X185500Y-268000D02*
D03*
X157500Y-266000D02*
D03*
X102000Y-248500D02*
D03*
X27000Y-330000D02*
D03*
X151500Y-364000D02*
D03*
X20248Y-279248D02*
D03*
X46248Y-289248D02*
D03*
X40248D02*
D03*
X74248Y-173748D02*
D03*
X68748D02*
D03*
X62248Y-166248D02*
D03*
X98748Y-168248D02*
D03*
X102248Y-271248D02*
D03*
X127748Y-273248D02*
D03*
Y-350248D02*
D03*
X137159Y-343996D02*
D03*
X136748Y-335531D02*
D03*
X146090Y-344869D02*
D03*
X147052Y-339585D02*
D03*
X152220Y-331543D02*
D03*
X147748Y-333512D02*
D03*
X155792Y-321110D02*
D03*
X139886Y-347610D02*
D03*
X122498Y-282498D02*
D03*
X123652Y-277344D02*
D03*
X93248Y-282748D02*
D03*
X96652Y-277344D02*
D03*
X132748Y-366748D02*
D03*
X167748Y-172248D02*
D03*
X168248Y-179748D02*
D03*
X111031Y-302587D02*
D03*
X103748Y-304748D02*
D03*
X110244Y-307744D02*
D03*
X100642Y-313235D02*
D03*
X160248Y-151748D02*
D03*
X85799Y-335651D02*
D03*
X83621Y-339621D02*
D03*
X161748Y-156748D02*
D03*
X143748Y-155748D02*
D03*
X85155Y-318155D02*
D03*
X85248Y-311248D02*
D03*
X95248Y-303248D02*
D03*
X89748Y-322748D02*
D03*
X85248Y-324748D02*
D03*
X88248Y-331748D02*
D03*
X124520Y-305976D02*
D03*
X131055Y-306441D02*
D03*
X105748Y-353248D02*
D03*
X106748Y-368248D02*
D03*
X114248Y-354248D02*
D03*
X69248Y-113748D02*
D03*
X99248Y-112748D02*
D03*
X39248Y-120748D02*
D03*
X44248Y-114748D02*
D03*
X61248Y-97248D02*
D03*
X81393Y-100245D02*
D03*
X64748Y-367748D02*
D03*
X76748Y-361248D02*
D03*
X74248Y-368150D02*
D03*
X152248Y-101748D02*
D03*
X152268Y-94268D02*
D03*
X148248Y-77248D02*
D03*
X154248Y-73248D02*
D03*
X153248Y-55748D02*
D03*
X152748Y-142248D02*
D03*
X133248Y-82748D02*
D03*
X61748Y-109748D02*
D03*
M02*
