M48
;Layer_Color=9474304
;FILE_FORMAT=2:5
INCH,LZ
;TYPE=PLATED
T1F00S00C0.01181
T2F00S00C0.02756
T4F00S00C0.03543
T5F00S00C0.03937
T6F00S00C0.09843
%
T01
X0027Y-033
X00635Y-03505
X0064748Y-0367748
X0074248Y-036815
X0076748Y-0361248
X0083621Y-0339621
X0085799Y-0335651
X0088248Y-0331748
X0085248Y-0324748
X0089748Y-0322748
X0085155Y-0318155
X0105748Y-0353248
X0114248Y-0354248
X0127748Y-0350248
X0139886Y-034761
X0137159Y-0343996
X0136748Y-0335531
X0147748Y-0333512
X015222Y-0331543
X0147052Y-0339585
X014609Y-0344869
X01515Y-0364
X0132748Y-0366748
X0106748Y-0368248
X0155792Y-032111
X01845Y-0357
X01855Y-0268
X01575Y-0266
X0168248Y-0179748
X0167748Y-0172248
X01795Y-0187
X0098748Y-0168248
X0074248Y-0173748
X0068748
X0062248Y-0166248
X0102Y-02485
X0102248Y-0271248
X0096652Y-0277344
X0093248Y-0282748
X0095248Y-0303248
X0103748Y-0304748
X0111031Y-0302587
X0110244Y-0307744
X0100642Y-0313235
X0085248Y-0311248
X01095Y-0293
X0122498Y-0282498
X0123652Y-0277344
X0127748Y-0273248
X012452Y-0305976
X0131055Y-0306441
X0046248Y-0289248
X0040248
X0020248Y-0279248
X0039248Y-0120748
X0044248Y-0114748
X0061748Y-0109748
X0069248Y-0113748
X0061248Y-0097248
X0081393Y-0100245
X0099248Y-0112748
X0146Y-01175
X0152248Y-0101748
X0152268Y-0094268
X0148248Y-0077248
X0154248Y-0073248
X0153248Y-0055748
X0133248Y-0082748
X0152748Y-0142248
X0143748Y-0155748
X0161748Y-0156748
X0160248Y-0151748
X0179Y-01245
T02
X0023083Y-0085291
Y-0078992
X0033319Y-0075842
Y-0082142
Y-0088441
T04
X0013425Y-0385827
Y-0375827
X0023425
Y-0385827
X0033425
Y-0375827
X0043425
Y-0385827
X0053425
Y-0375827
X0063425
Y-0385827
X0073425
Y-0375827
X0083425
Y-0385827
X0093425
Y-0375827
X0103425
Y-0385827
X0113425
Y-0375827
X0123425
Y-0385827
X0133425
Y-0375827
X0143425
Y-0385827
X0153425
Y-0375827
X0163425
Y-0385827
X0173425
Y-0375827
X0183425
Y-0385827
X0142Y-0297
Y-0287
Y-0277
Y-0267
X0143425Y-0017874
X0133425
X0123425
X0113425
X0103425
X0093425
X0083425
X0073425
X0063425
X0053425
X0043425
X0033425
X0023425
X0013425
Y-0007874
X0023425
X0033425
X0043425
X0053425
X0063425
X0073425
X0083425
X0093425
X0103425
X0113425
X0123425
X0133425
X0143425
X0153425
Y-0017874
X0163425
Y-0007874
X0173425
Y-0017874
X0183425
Y-0007874
T05
X0018358Y-0357732
X0038043
X0188248Y-0204748
Y-0194748
Y-0184748
Y-0174748
Y-0164748
X0037059Y-0218953
X0019342
Y-0244543
X0037059
X0038043Y-0300646
X0028201
X0018358
X0188248Y-0154748
Y-0144748
Y-0134748
Y-0124748
Y-0114748
Y-0104748
Y-0094748
Y-0084748
Y-0074748
Y-0064748
Y-0054748
T06
X0064232Y-032837
X0186279
X0064232Y-0033094
X0186279Y-0033094
M30
