G04*
G04 #@! TF.GenerationSoftware,Altium Limited,Altium Designer,22.4.2 (48)*
G04*
G04 Layer_Color=65535*
%FSLAX25Y25*%
%MOIN*%
G70*
G04*
G04 #@! TF.SameCoordinates,95B67B14-C50E-4141-B1D7-7F991BD8D4DD*
G04*
G04*
G04 #@! TF.FilePolarity,Positive*
G04*
G01*
G75*
%ADD10C,0.00787*%
%ADD11C,0.01000*%
G36*
X81461Y-157663D02*
X92060D01*
Y-266833D01*
X81461D01*
Y-266833D01*
X71169D01*
X57437D01*
Y-157663D01*
X71169D01*
X81461D01*
Y-157663D01*
D02*
G37*
%LPC*%
G36*
X75744Y-159839D02*
X75634D01*
X75397Y-159846D01*
X75169Y-159861D01*
X74947Y-159883D01*
X74726Y-159913D01*
X74519Y-159950D01*
X74320Y-159987D01*
X74128Y-160031D01*
X73951Y-160075D01*
X73796Y-160119D01*
X73648Y-160164D01*
X73523Y-160201D01*
X73412Y-160238D01*
X73331Y-160267D01*
X73265Y-160289D01*
X73228Y-160304D01*
X73213Y-160311D01*
X72999Y-160407D01*
X72792Y-160503D01*
X72593Y-160599D01*
X72401Y-160695D01*
X72224Y-160798D01*
X72054Y-160894D01*
X71899Y-160990D01*
X71752Y-161079D01*
X71626Y-161160D01*
X71508Y-161241D01*
X71405Y-161308D01*
X71324Y-161367D01*
X71257Y-161418D01*
X71206Y-161455D01*
X71176Y-161477D01*
X71169Y-161485D01*
Y-162083D01*
X71375Y-161957D01*
X71582Y-161839D01*
X71789Y-161728D01*
X71995Y-161625D01*
X72409Y-161440D01*
X72800Y-161278D01*
X73184Y-161145D01*
X73553Y-161035D01*
X73907Y-160939D01*
X74231Y-160872D01*
X74534Y-160813D01*
X74667Y-160791D01*
X74800Y-160769D01*
X74925Y-160754D01*
X75043Y-160739D01*
X75147Y-160725D01*
X75243Y-160717D01*
X75331Y-160710D01*
X75405Y-160702D01*
X75471D01*
X75523Y-160695D01*
X75567D01*
X75604D01*
X75619D01*
X75626D01*
X75951Y-160702D01*
X76268Y-160725D01*
X76423Y-160739D01*
X76564Y-160761D01*
X76704Y-160776D01*
X76829Y-160798D01*
X76947Y-160813D01*
X77051Y-160828D01*
X77147Y-160850D01*
X77228Y-160865D01*
X77287Y-160880D01*
X77338Y-160887D01*
X77368Y-160894D01*
X77375D01*
X77634Y-160961D01*
X77877Y-161035D01*
X78106Y-161108D01*
X78209Y-161145D01*
X78305Y-161175D01*
X78394Y-161212D01*
X78475Y-161241D01*
X78541Y-161271D01*
X78600Y-161293D01*
X78645Y-161308D01*
X78682Y-161322D01*
X78704Y-161337D01*
X78711D01*
X78792Y-161374D01*
X78888Y-161418D01*
X78992Y-161470D01*
X79102Y-161529D01*
X79331Y-161654D01*
X79560Y-161780D01*
X79663Y-161839D01*
X79766Y-161891D01*
X79855Y-161942D01*
X79936Y-161994D01*
X80003Y-162031D01*
X80047Y-162060D01*
X80084Y-162075D01*
X80091Y-162083D01*
Y-161485D01*
X79870Y-161322D01*
X79656Y-161175D01*
X79442Y-161042D01*
X79235Y-160909D01*
X79028Y-160798D01*
X78837Y-160688D01*
X78652Y-160592D01*
X78482Y-160511D01*
X78320Y-160437D01*
X78180Y-160370D01*
X78054Y-160319D01*
X77951Y-160274D01*
X77862Y-160238D01*
X77796Y-160215D01*
X77759Y-160201D01*
X77744Y-160193D01*
X77552Y-160134D01*
X77361Y-160075D01*
X76992Y-159987D01*
X76807Y-159957D01*
X76630Y-159927D01*
X76468Y-159905D01*
X76313Y-159883D01*
X76165Y-159869D01*
X76032Y-159861D01*
X75921Y-159846D01*
X75818D01*
X75744Y-159839D01*
D02*
G37*
G36*
X75693Y-162813D02*
X75612D01*
X75390Y-162820D01*
X75176Y-162843D01*
X74977Y-162872D01*
X74792Y-162909D01*
X74623Y-162953D01*
X74468Y-163005D01*
X74327Y-163064D01*
X74202Y-163123D01*
X74091Y-163175D01*
X73988Y-163234D01*
X73907Y-163285D01*
X73840Y-163330D01*
X73781Y-163367D01*
X73744Y-163396D01*
X73722Y-163418D01*
X73715Y-163426D01*
X73597Y-163544D01*
X73501Y-163669D01*
X73412Y-163802D01*
X73339Y-163935D01*
X73272Y-164075D01*
X73220Y-164208D01*
X73176Y-164341D01*
X73139Y-164466D01*
X73110Y-164584D01*
X73095Y-164695D01*
X73080Y-164798D01*
X73065Y-164880D01*
Y-164953D01*
X73058Y-165005D01*
Y-162813D01*
D01*
Y-167101D01*
Y-165049D01*
X73065Y-165197D01*
X73080Y-165337D01*
X73102Y-165470D01*
X73132Y-165603D01*
X73169Y-165721D01*
X73213Y-165831D01*
X73250Y-165935D01*
X73302Y-166031D01*
X73346Y-166112D01*
X73383Y-166193D01*
X73427Y-166252D01*
X73464Y-166311D01*
X73493Y-166348D01*
X73516Y-166385D01*
X73530Y-166400D01*
X73538Y-166407D01*
X73634Y-166503D01*
X73730Y-166599D01*
X73840Y-166680D01*
X73951Y-166747D01*
X74062Y-166813D01*
X74172Y-166872D01*
X74379Y-166961D01*
X74482Y-166998D01*
X74571Y-167027D01*
X74652Y-167049D01*
X74726Y-167071D01*
X74785Y-167086D01*
X74829Y-167094D01*
X74859Y-167101D01*
X73058D01*
X78217D01*
X74866D01*
X74977Y-166282D01*
X74859Y-166260D01*
X74755Y-166237D01*
X74652Y-166208D01*
X74563Y-166178D01*
X74475Y-166141D01*
X74401Y-166112D01*
X74335Y-166075D01*
X74268Y-166038D01*
X74217Y-166001D01*
X74172Y-165972D01*
X74099Y-165913D01*
X74054Y-165876D01*
X74047Y-165868D01*
X74040Y-165861D01*
X73944Y-165728D01*
X73870Y-165595D01*
X73818Y-165455D01*
X73781Y-165330D01*
X73759Y-165212D01*
X73752Y-165167D01*
Y-165123D01*
X73744Y-165086D01*
Y-165042D01*
X73752Y-164931D01*
X73766Y-164821D01*
X73789Y-164725D01*
X73818Y-164629D01*
X73885Y-164459D01*
X73973Y-164311D01*
X74010Y-164252D01*
X74054Y-164200D01*
X74091Y-164156D01*
X74128Y-164112D01*
X74150Y-164083D01*
X74172Y-164060D01*
X74187Y-164053D01*
X74195Y-164046D01*
X74283Y-163979D01*
X74386Y-163920D01*
X74497Y-163868D01*
X74608Y-163831D01*
X74851Y-163758D01*
X75087Y-163714D01*
X75198Y-163699D01*
X75301Y-163691D01*
X75397Y-163684D01*
X75479Y-163677D01*
X75545Y-163669D01*
X75597D01*
X75634D01*
X75641D01*
X75818Y-163677D01*
X75988Y-163684D01*
X76135Y-163706D01*
X76276Y-163728D01*
X76409Y-163758D01*
X76527Y-163795D01*
X76630Y-163831D01*
X76726Y-163868D01*
X76807Y-163898D01*
X76881Y-163935D01*
X76940Y-163972D01*
X76984Y-164001D01*
X77029Y-164023D01*
X77051Y-164046D01*
X77065Y-164053D01*
X77073Y-164060D01*
X77154Y-164134D01*
X77220Y-164215D01*
X77287Y-164304D01*
X77338Y-164385D01*
X77383Y-164474D01*
X77420Y-164555D01*
X77471Y-164717D01*
X77508Y-164865D01*
X77516Y-164924D01*
X77523Y-164983D01*
X77530Y-165027D01*
Y-165086D01*
X77523Y-165234D01*
X77493Y-165374D01*
X77449Y-165492D01*
X77405Y-165595D01*
X77353Y-165676D01*
X77316Y-165743D01*
X77287Y-165780D01*
X77272Y-165795D01*
X77169Y-165898D01*
X77051Y-165987D01*
X76925Y-166053D01*
X76807Y-166112D01*
X76696Y-166156D01*
X76608Y-166186D01*
X76571Y-166193D01*
X76549Y-166200D01*
X76534Y-166208D01*
X76527D01*
X76652Y-167020D01*
X76785Y-166990D01*
X76918Y-166946D01*
X77036Y-166902D01*
X77147Y-166857D01*
X77250Y-166806D01*
X77346Y-166747D01*
X77427Y-166695D01*
X77508Y-166636D01*
X77575Y-166584D01*
X77634Y-166533D01*
X77685Y-166488D01*
X77730Y-166444D01*
X77759Y-166414D01*
X77781Y-166385D01*
X77796Y-166370D01*
X77803Y-166363D01*
X77877Y-166267D01*
X77944Y-166164D01*
X77995Y-166053D01*
X78039Y-165942D01*
X78113Y-165721D01*
X78165Y-165514D01*
X78180Y-165418D01*
X78194Y-165330D01*
X78202Y-165249D01*
X78209Y-165182D01*
X78217Y-165130D01*
Y-165049D01*
X78202Y-164821D01*
X78172Y-164599D01*
X78121Y-164400D01*
X78091Y-164311D01*
X78069Y-164223D01*
X78039Y-164149D01*
X78010Y-164083D01*
X77988Y-164023D01*
X77958Y-163972D01*
X77944Y-163927D01*
X77929Y-163898D01*
X77914Y-163883D01*
Y-163876D01*
X77789Y-163684D01*
X77648Y-163522D01*
X77493Y-163381D01*
X77353Y-163271D01*
X77220Y-163182D01*
X77161Y-163153D01*
X77110Y-163123D01*
X77073Y-163101D01*
X77043Y-163086D01*
X77021Y-163071D01*
X77014D01*
X76785Y-162983D01*
X76541Y-162924D01*
X76305Y-162880D01*
X76091Y-162843D01*
X75988Y-162835D01*
X75899Y-162828D01*
X75818Y-162820D01*
X75744D01*
X75693Y-162813D01*
D02*
G37*
G36*
X80091Y-167765D02*
X79914Y-167868D01*
X79752Y-167957D01*
X79597Y-168045D01*
X79457Y-168119D01*
X79331Y-168186D01*
X79220Y-168245D01*
X79117Y-168304D01*
X79028Y-168348D01*
X78947Y-168385D01*
X78881Y-168422D01*
X78822Y-168451D01*
X78777Y-168474D01*
X78741Y-168488D01*
X78719Y-168503D01*
X78704Y-168510D01*
X78696D01*
X78453Y-168606D01*
X78217Y-168695D01*
X77995Y-168769D01*
X77885Y-168806D01*
X77789Y-168835D01*
X77700Y-168857D01*
X77612Y-168879D01*
X77538Y-168902D01*
X77479Y-168916D01*
X77427Y-168931D01*
X77390Y-168939D01*
X77368Y-168946D01*
X77361D01*
X77036Y-169012D01*
X76726Y-169064D01*
X76578Y-169086D01*
X76431Y-169101D01*
X76298Y-169116D01*
X76172Y-169130D01*
X76054Y-169138D01*
X75951Y-169145D01*
X75855D01*
X75774Y-169152D01*
X75715D01*
X75663D01*
X75634D01*
X75626D01*
X75420Y-169145D01*
X75206Y-169138D01*
X74792Y-169094D01*
X74386Y-169027D01*
X73988Y-168939D01*
X73604Y-168828D01*
X73235Y-168717D01*
X72888Y-168592D01*
X72556Y-168459D01*
X72261Y-168326D01*
X72121Y-168267D01*
X71988Y-168208D01*
X71870Y-168141D01*
X71752Y-168090D01*
X71649Y-168031D01*
X71552Y-167979D01*
X71464Y-167935D01*
X71390Y-167891D01*
X71324Y-167854D01*
X71272Y-167824D01*
X71228Y-167802D01*
X71191Y-167780D01*
X71176Y-167772D01*
X71169Y-167765D01*
Y-168363D01*
X71508Y-168606D01*
X71863Y-168828D01*
X72202Y-169027D01*
X72364Y-169116D01*
X72519Y-169197D01*
X72667Y-169271D01*
X72800Y-169337D01*
X72918Y-169389D01*
X73014Y-169433D01*
X73102Y-169470D01*
X73161Y-169499D01*
X73198Y-169514D01*
X73213Y-169521D01*
X73434Y-169610D01*
X73648Y-169684D01*
X73870Y-169750D01*
X74084Y-169802D01*
X74291Y-169854D01*
X74490Y-169890D01*
X74682Y-169920D01*
X74859Y-169950D01*
X75029Y-169972D01*
X75176Y-169986D01*
X75309Y-169994D01*
X75420Y-170001D01*
X75508Y-170009D01*
X80091D01*
X75634D01*
X75840Y-170001D01*
X76039Y-169994D01*
X76239Y-169979D01*
X76431Y-169950D01*
X76608Y-169927D01*
X76785Y-169898D01*
X76947Y-169861D01*
X77102Y-169832D01*
X77242Y-169795D01*
X77368Y-169765D01*
X77479Y-169728D01*
X77567Y-169706D01*
X77641Y-169684D01*
X77700Y-169662D01*
X77730Y-169654D01*
X77744Y-169647D01*
X77966Y-169566D01*
X78187Y-169470D01*
X78608Y-169271D01*
X78814Y-169167D01*
X79006Y-169057D01*
X79191Y-168953D01*
X79361Y-168850D01*
X79515Y-168754D01*
X79663Y-168658D01*
X79789Y-168577D01*
X79892Y-168503D01*
X79973Y-168444D01*
X80040Y-168400D01*
X80076Y-168370D01*
X80091Y-168363D01*
Y-167765D01*
D02*
G37*
G36*
X80099Y-170791D02*
X75361D01*
D01*
X80099D01*
D01*
D02*
G37*
G36*
X69696Y-170034D02*
X62884D01*
Y-174042D01*
X66138D01*
X66264Y-174034D01*
X66382Y-174027D01*
X66485Y-174012D01*
X66589Y-173997D01*
X66677Y-173983D01*
X66759Y-173968D01*
X66832Y-173953D01*
X66899Y-173938D01*
X66958Y-173924D01*
X67002Y-173909D01*
X67046Y-173894D01*
X67076Y-173879D01*
X67098Y-173872D01*
X67105Y-173865D01*
X67113D01*
X67246Y-173791D01*
X67371Y-173702D01*
X67474Y-173599D01*
X67555Y-173510D01*
X67622Y-173422D01*
X67674Y-173348D01*
X67688Y-173319D01*
X67703Y-173296D01*
X67711Y-173289D01*
Y-173282D01*
X67784Y-173127D01*
X67836Y-172964D01*
X67880Y-172809D01*
X67902Y-172662D01*
X67917Y-172529D01*
X67924Y-172477D01*
X67932Y-172425D01*
Y-172337D01*
X67924Y-172175D01*
X67902Y-172020D01*
X67866Y-171872D01*
X67829Y-171732D01*
X67769Y-171606D01*
X67718Y-171481D01*
X67651Y-171370D01*
X67592Y-171274D01*
X67526Y-171178D01*
X67460Y-171097D01*
X67408Y-171031D01*
X67356Y-170972D01*
X67312Y-170927D01*
X67275Y-170898D01*
X67253Y-170876D01*
X67246Y-170868D01*
X69696D01*
Y-170034D01*
D02*
G37*
G36*
X75361Y-170791D02*
X73058D01*
Y-176208D01*
D01*
Y-173691D01*
X73073Y-173957D01*
X73102Y-174200D01*
X73139Y-174422D01*
X73169Y-174525D01*
X73191Y-174614D01*
X73213Y-174702D01*
X73242Y-174776D01*
X73265Y-174843D01*
X73279Y-174894D01*
X73302Y-174938D01*
X73309Y-174968D01*
X73324Y-174990D01*
Y-174997D01*
X73434Y-175204D01*
X73553Y-175381D01*
X73678Y-175536D01*
X73796Y-175662D01*
X73907Y-175765D01*
X73988Y-175831D01*
X74025Y-175861D01*
X74047Y-175876D01*
X74062Y-175891D01*
X74069D01*
X74158Y-175950D01*
X74254Y-175994D01*
X74431Y-176075D01*
X74600Y-176134D01*
X74755Y-176171D01*
X74896Y-176193D01*
X74947Y-176200D01*
X74999D01*
X75036Y-176208D01*
X73058D01*
X80099D01*
X75087D01*
X75287Y-176193D01*
X75471Y-176163D01*
X75634Y-176119D01*
X75774Y-176068D01*
X75892Y-176008D01*
X75944Y-175986D01*
X75981Y-175964D01*
X76010Y-175950D01*
X76032Y-175935D01*
X76047Y-175920D01*
X76054D01*
X76128Y-175861D01*
X76202Y-175802D01*
X76342Y-175662D01*
X76460Y-175522D01*
X76556Y-175374D01*
X76637Y-175248D01*
X76674Y-175189D01*
X76696Y-175138D01*
X76718Y-175101D01*
X76733Y-175071D01*
X76748Y-175049D01*
Y-175042D01*
X76785Y-174961D01*
X76822Y-174857D01*
X76859Y-174754D01*
X76896Y-174636D01*
X76962Y-174385D01*
X77029Y-174134D01*
X77065Y-174016D01*
X77087Y-173905D01*
X77117Y-173802D01*
X77132Y-173713D01*
X77154Y-173640D01*
X77169Y-173588D01*
X77176Y-173551D01*
Y-173536D01*
X77220Y-173337D01*
X77272Y-173160D01*
X77316Y-173005D01*
X77361Y-172857D01*
X77405Y-172732D01*
X77442Y-172621D01*
X77479Y-172525D01*
X77516Y-172444D01*
X77552Y-172378D01*
X77582Y-172318D01*
X77604Y-172274D01*
X77626Y-172237D01*
X77648Y-172208D01*
X77663Y-172193D01*
X77671Y-172178D01*
X77767Y-172090D01*
X77862Y-172031D01*
X77966Y-171986D01*
X78062Y-171950D01*
X78143Y-171935D01*
X78209Y-171927D01*
X78254Y-171920D01*
X78261D01*
X78268D01*
X78350Y-171927D01*
X78423Y-171935D01*
X78556Y-171979D01*
X78682Y-172038D01*
X78785Y-172105D01*
X78873Y-172171D01*
X78940Y-172230D01*
X78977Y-172274D01*
X78992Y-172282D01*
Y-172289D01*
X79043Y-172363D01*
X79095Y-172451D01*
X79169Y-172636D01*
X79220Y-172828D01*
X79257Y-173027D01*
X79272Y-173116D01*
X79279Y-173204D01*
X79287Y-173278D01*
Y-173344D01*
X79294Y-173403D01*
Y-173617D01*
X79279Y-173750D01*
X79265Y-173876D01*
X79242Y-173994D01*
X79220Y-174097D01*
X79191Y-174193D01*
X79161Y-174282D01*
X79132Y-174363D01*
X79095Y-174429D01*
X79065Y-174488D01*
X79036Y-174540D01*
X79014Y-174584D01*
X78992Y-174614D01*
X78977Y-174643D01*
X78969Y-174651D01*
X78962Y-174658D01*
X78896Y-174732D01*
X78829Y-174798D01*
X78674Y-174901D01*
X78512Y-174990D01*
X78357Y-175049D01*
X78217Y-175093D01*
X78158Y-175108D01*
X78099Y-175123D01*
X78054Y-175130D01*
X78025D01*
X78003Y-175138D01*
X77995D01*
X78062Y-176001D01*
X78283Y-175979D01*
X78482Y-175935D01*
X78667Y-175883D01*
X78822Y-175824D01*
X78888Y-175787D01*
X78955Y-175765D01*
X79006Y-175735D01*
X79051Y-175713D01*
X79088Y-175691D01*
X79110Y-175676D01*
X79124Y-175669D01*
X79132Y-175662D01*
X79302Y-175536D01*
X79442Y-175396D01*
X79567Y-175248D01*
X79671Y-175101D01*
X79744Y-174975D01*
X79774Y-174916D01*
X79803Y-174872D01*
X79826Y-174835D01*
X79833Y-174798D01*
X79848Y-174784D01*
Y-174776D01*
X79929Y-174555D01*
X79995Y-174326D01*
X80040Y-174097D01*
X80069Y-173890D01*
X80076Y-173794D01*
X80084Y-173713D01*
X80091Y-173632D01*
X80099Y-173566D01*
Y-173440D01*
X80091Y-173189D01*
X80062Y-172953D01*
X80025Y-172747D01*
X80003Y-172651D01*
X79980Y-172562D01*
X79958Y-172481D01*
X79936Y-172407D01*
X79914Y-172341D01*
X79899Y-172289D01*
X79884Y-172252D01*
X79870Y-172215D01*
X79862Y-172201D01*
Y-172193D01*
X79766Y-171994D01*
X79656Y-171824D01*
X79545Y-171677D01*
X79434Y-171558D01*
X79331Y-171463D01*
X79250Y-171389D01*
X79220Y-171367D01*
X79198Y-171352D01*
X79183Y-171337D01*
X79176D01*
X79006Y-171241D01*
X78837Y-171167D01*
X78682Y-171123D01*
X78534Y-171086D01*
X78401Y-171064D01*
X78350Y-171057D01*
X78305D01*
X78268Y-171049D01*
X78239D01*
X78224D01*
X78217D01*
X78047Y-171057D01*
X77885Y-171086D01*
X77737Y-171123D01*
X77612Y-171167D01*
X77508Y-171212D01*
X77427Y-171248D01*
X77398Y-171263D01*
X77375Y-171278D01*
X77368Y-171285D01*
X77361D01*
X77228Y-171381D01*
X77102Y-171499D01*
X76999Y-171617D01*
X76903Y-171743D01*
X76829Y-171846D01*
X76777Y-171935D01*
X76763Y-171972D01*
X76748Y-171994D01*
X76733Y-172009D01*
Y-172016D01*
X76696Y-172090D01*
X76660Y-172178D01*
X76623Y-172274D01*
X76586Y-172378D01*
X76512Y-172592D01*
X76446Y-172813D01*
X76416Y-172916D01*
X76386Y-173005D01*
X76364Y-173093D01*
X76342Y-173175D01*
X76327Y-173234D01*
X76313Y-173285D01*
X76305Y-173315D01*
Y-173322D01*
X76268Y-173492D01*
X76224Y-173647D01*
X76195Y-173780D01*
X76158Y-173905D01*
X76128Y-174016D01*
X76106Y-174119D01*
X76076Y-174200D01*
X76054Y-174282D01*
X76039Y-174341D01*
X76017Y-174400D01*
X76003Y-174444D01*
X75995Y-174474D01*
X75988Y-174503D01*
X75981Y-174518D01*
X75973Y-174532D01*
X75907Y-174680D01*
X75840Y-174806D01*
X75774Y-174916D01*
X75715Y-174997D01*
X75656Y-175064D01*
X75612Y-175108D01*
X75582Y-175138D01*
X75575Y-175145D01*
X75486Y-175212D01*
X75390Y-175256D01*
X75294Y-175293D01*
X75206Y-175315D01*
X75132Y-175330D01*
X75065Y-175337D01*
X75029D01*
X75021D01*
X75014D01*
X74903Y-175330D01*
X74792Y-175307D01*
X74696Y-175270D01*
X74608Y-175241D01*
X74534Y-175204D01*
X74475Y-175167D01*
X74445Y-175145D01*
X74431Y-175138D01*
X74335Y-175057D01*
X74254Y-174968D01*
X74180Y-174865D01*
X74121Y-174769D01*
X74076Y-174680D01*
X74040Y-174614D01*
X74025Y-174584D01*
X74017Y-174562D01*
X74010Y-174555D01*
Y-174547D01*
X73958Y-174400D01*
X73922Y-174245D01*
X73899Y-174090D01*
X73885Y-173950D01*
X73870Y-173831D01*
Y-173780D01*
X73862Y-173735D01*
Y-173647D01*
X73870Y-173433D01*
X73892Y-173241D01*
X73929Y-173056D01*
X73966Y-172902D01*
X73980Y-172835D01*
X73995Y-172776D01*
X74017Y-172724D01*
X74032Y-172680D01*
X74047Y-172643D01*
X74054Y-172621D01*
X74062Y-172606D01*
Y-172599D01*
X74143Y-172437D01*
X74231Y-172296D01*
X74313Y-172178D01*
X74401Y-172082D01*
X74475Y-172009D01*
X74534Y-171957D01*
X74571Y-171920D01*
X74586Y-171913D01*
X74718Y-171839D01*
X74859Y-171780D01*
X74999Y-171736D01*
X75132Y-171699D01*
X75257Y-171669D01*
X75301Y-171662D01*
X75346Y-171654D01*
X75383Y-171647D01*
X75412Y-171640D01*
X75427D01*
X75434D01*
X75361Y-170791D01*
D01*
X75235Y-170798D01*
X75110Y-170813D01*
X74881Y-170857D01*
X74667Y-170916D01*
X74571Y-170946D01*
X74490Y-170983D01*
X74409Y-171012D01*
X74335Y-171049D01*
X74276Y-171079D01*
X74224Y-171108D01*
X74180Y-171130D01*
X74150Y-171145D01*
X74136Y-171152D01*
X74128Y-171160D01*
X73936Y-171300D01*
X73774Y-171463D01*
X73634Y-171625D01*
X73523Y-171780D01*
X73434Y-171920D01*
X73405Y-171979D01*
X73375Y-172031D01*
X73353Y-172075D01*
X73339Y-172105D01*
X73324Y-172127D01*
Y-172134D01*
X73235Y-172385D01*
X73169Y-172643D01*
X73124Y-172902D01*
X73095Y-173145D01*
X73080Y-173263D01*
X73073Y-173366D01*
X73065Y-173455D01*
Y-173536D01*
X73058Y-173603D01*
Y-170791D01*
X75361D01*
D01*
D02*
G37*
G36*
X69541Y-174846D02*
X62818D01*
X67172D01*
Y-175466D01*
X64323D01*
X64190D01*
X64065Y-175473D01*
X63954D01*
X63851Y-175481D01*
X63762Y-175488D01*
X63681Y-175496D01*
X63607Y-175503D01*
X63548Y-175518D01*
X63497Y-175525D01*
X63452Y-175532D01*
X63415Y-175540D01*
X63386Y-175547D01*
X63349Y-175555D01*
X63334Y-175562D01*
X63253Y-175606D01*
X63179Y-175658D01*
X63113Y-175717D01*
X63061Y-175776D01*
X63017Y-175835D01*
X62987Y-175879D01*
X62965Y-175909D01*
X62958Y-175916D01*
X62914Y-176020D01*
X62877Y-176130D01*
X62854Y-176248D01*
X62832Y-176366D01*
X62825Y-176470D01*
X62818Y-176551D01*
Y-176426D01*
Y-176625D01*
X62832Y-176846D01*
X62840Y-176950D01*
X62854Y-177045D01*
X62869Y-177134D01*
X62877Y-177200D01*
X62891Y-177245D01*
Y-177259D01*
D01*
X63629Y-177149D01*
X63622Y-177068D01*
X63615Y-176994D01*
X63607Y-176927D01*
Y-176876D01*
X63600Y-176831D01*
Y-176706D01*
X63607Y-176647D01*
X63622Y-176603D01*
X63629Y-176558D01*
X63644Y-176529D01*
X63652Y-176507D01*
X63659Y-176492D01*
Y-176485D01*
X63710Y-176426D01*
X63762Y-176381D01*
X63806Y-176352D01*
X63814Y-176344D01*
X63821D01*
X63873Y-176330D01*
X63939Y-176322D01*
X64013Y-176307D01*
X64087D01*
X64161Y-176300D01*
X64220D01*
X64264D01*
X64271D01*
X64279D01*
X67172D01*
Y-177149D01*
X67821D01*
Y-176300D01*
X69541D01*
Y-177149D01*
Y-174846D01*
D02*
G37*
G36*
Y-177488D02*
X62818D01*
X67172D01*
Y-178108D01*
X64323D01*
X64190D01*
X64065Y-178115D01*
X63954D01*
X63851Y-178123D01*
X63762Y-178130D01*
X63681Y-178138D01*
X63607Y-178145D01*
X63548Y-178160D01*
X63497Y-178167D01*
X63452Y-178175D01*
X63415Y-178182D01*
X63386Y-178189D01*
X63349Y-178197D01*
X63334Y-178204D01*
X63253Y-178248D01*
X63179Y-178300D01*
X63113Y-178359D01*
X63061Y-178418D01*
X63017Y-178477D01*
X62987Y-178521D01*
X62965Y-178551D01*
X62958Y-178558D01*
X62914Y-178662D01*
X62877Y-178772D01*
X62854Y-178890D01*
X62832Y-179008D01*
X62825Y-179112D01*
X62818Y-179193D01*
Y-179068D01*
Y-179267D01*
X62832Y-179488D01*
X62840Y-179592D01*
X62854Y-179688D01*
X62869Y-179776D01*
X62877Y-179842D01*
X62891Y-179887D01*
Y-179902D01*
D01*
X63629Y-179791D01*
X63622Y-179710D01*
X63615Y-179636D01*
X63607Y-179569D01*
Y-179518D01*
X63600Y-179473D01*
Y-179348D01*
X63607Y-179289D01*
X63622Y-179245D01*
X63629Y-179200D01*
X63644Y-179171D01*
X63652Y-179149D01*
X63659Y-179134D01*
Y-179127D01*
X63710Y-179068D01*
X63762Y-179023D01*
X63806Y-178994D01*
X63814Y-178986D01*
X63821D01*
X63873Y-178972D01*
X63939Y-178964D01*
X64013Y-178949D01*
X64087D01*
X64161Y-178942D01*
X64220D01*
X64264D01*
X64271D01*
X64279D01*
X67172D01*
Y-179791D01*
X67821D01*
Y-178942D01*
X69541D01*
Y-179791D01*
Y-177488D01*
D02*
G37*
G36*
X79980Y-177330D02*
X73169D01*
Y-178164D01*
X75862D01*
X76069Y-178171D01*
X76254Y-178186D01*
X76409Y-178208D01*
X76534Y-178230D01*
X76637Y-178252D01*
X76711Y-178274D01*
X76733Y-178282D01*
X76755Y-178289D01*
X76770Y-178296D01*
X76888Y-178355D01*
X76992Y-178429D01*
X77080Y-178503D01*
X77154Y-178584D01*
X77213Y-178651D01*
X77257Y-178710D01*
X77287Y-178746D01*
X77294Y-178761D01*
X77361Y-178887D01*
X77412Y-179012D01*
X77442Y-179130D01*
X77471Y-179234D01*
X77486Y-179330D01*
X77493Y-179403D01*
Y-179462D01*
X77479Y-179639D01*
X77449Y-179795D01*
X77405Y-179920D01*
X77353Y-180031D01*
X77294Y-180119D01*
X77250Y-180178D01*
X77220Y-180215D01*
X77206Y-180230D01*
X77147Y-180282D01*
X77087Y-180318D01*
X76940Y-180385D01*
X76792Y-180437D01*
X76637Y-180466D01*
X76504Y-180488D01*
X76446Y-180496D01*
X76394D01*
X76350Y-180503D01*
X76320D01*
X76298D01*
X76291D01*
X73169D01*
Y-181337D01*
X79980D01*
Y-177330D01*
D02*
G37*
G36*
X88383Y-178223D02*
X81572D01*
Y-179093D01*
X87372D01*
X81572Y-181056D01*
Y-181868D01*
X87276Y-183861D01*
X81572D01*
Y-184732D01*
X88383D01*
Y-178223D01*
D02*
G37*
G36*
X67932Y-180610D02*
X60995D01*
Y-184890D01*
D01*
Y-181444D01*
X63393D01*
X63297Y-181525D01*
X63209Y-181614D01*
X63127Y-181702D01*
X63068Y-181791D01*
X63017Y-181865D01*
X62972Y-181931D01*
X62950Y-181968D01*
X62943Y-181983D01*
X62884Y-182108D01*
X62847Y-182241D01*
X62818Y-182366D01*
X62795Y-182484D01*
X62781Y-182588D01*
X62773Y-182662D01*
Y-182735D01*
X62781Y-182846D01*
X62788Y-182949D01*
X62825Y-183149D01*
X62877Y-183333D01*
X62936Y-183496D01*
X62965Y-183569D01*
X62987Y-183636D01*
X63017Y-183687D01*
X63039Y-183739D01*
X63061Y-183776D01*
X63076Y-183806D01*
X63091Y-183820D01*
Y-183828D01*
X63223Y-184012D01*
X63371Y-184167D01*
X63526Y-184307D01*
X63681Y-184418D01*
X63814Y-184507D01*
X63873Y-184536D01*
X63924Y-184566D01*
X63961Y-184588D01*
X63991Y-184602D01*
X64013Y-184617D01*
X64021D01*
X64257Y-184706D01*
X64493Y-184772D01*
X64722Y-184824D01*
X64928Y-184853D01*
X65024Y-184868D01*
X65113Y-184876D01*
X65194Y-184883D01*
X65260D01*
X65312Y-184890D01*
X67932D01*
X65386D01*
X65644Y-184883D01*
X65888Y-184853D01*
X66109Y-184809D01*
X66205Y-184787D01*
X66301Y-184765D01*
X66382Y-184743D01*
X66463Y-184721D01*
X66530Y-184698D01*
X66581Y-184676D01*
X66626Y-184662D01*
X66655Y-184647D01*
X66677Y-184640D01*
X66685D01*
X66891Y-184536D01*
X67076Y-184425D01*
X67231Y-184300D01*
X67364Y-184182D01*
X67467Y-184079D01*
X67541Y-183990D01*
X67563Y-183953D01*
X67585Y-183931D01*
X67600Y-183916D01*
Y-183909D01*
X67659Y-183820D01*
X67711Y-183724D01*
X67792Y-183532D01*
X67851Y-183348D01*
X67888Y-183171D01*
X67902Y-183090D01*
X67917Y-183023D01*
X67924Y-182957D01*
Y-182898D01*
X67932Y-182853D01*
Y-182794D01*
X67924Y-182625D01*
X67902Y-182462D01*
X67873Y-182322D01*
X67836Y-182204D01*
X67799Y-182108D01*
X67769Y-182034D01*
X67747Y-181990D01*
X67740Y-181983D01*
Y-181975D01*
X67659Y-181850D01*
X67570Y-181739D01*
X67474Y-181636D01*
X67386Y-181547D01*
X67305Y-181473D01*
X67231Y-181414D01*
X67186Y-181385D01*
X67179Y-181370D01*
X67821D01*
Y-180610D01*
X67932D01*
D02*
G37*
G36*
Y-185569D02*
X62773D01*
D01*
X67932D01*
D02*
G37*
G36*
X88383Y-186082D02*
X87431D01*
Y-186916D01*
X86509D01*
Y-186082D01*
X81572D01*
Y-186916D01*
X88383D01*
Y-186082D01*
D02*
G37*
G36*
X75693Y-182311D02*
X75634D01*
X75405Y-182318D01*
X75191Y-182341D01*
X74992Y-182370D01*
X74807Y-182407D01*
X74637Y-182459D01*
X74482Y-182510D01*
X74342Y-182569D01*
X74209Y-182628D01*
X74099Y-182687D01*
X73995Y-182747D01*
X73914Y-182798D01*
X73848Y-182850D01*
X73789Y-182887D01*
X73752Y-182916D01*
X73730Y-182938D01*
X73722Y-182946D01*
X73604Y-183071D01*
X73501Y-183204D01*
X73412Y-183337D01*
X73339Y-183477D01*
X73272Y-183617D01*
X73220Y-183757D01*
X73176Y-183890D01*
X73139Y-184023D01*
X73117Y-184149D01*
X73095Y-184259D01*
X73080Y-184363D01*
X73065Y-184451D01*
Y-184525D01*
X73058Y-184577D01*
Y-184621D01*
X73073Y-184857D01*
X73102Y-185079D01*
X73154Y-185278D01*
X73176Y-185374D01*
X73206Y-185455D01*
X73235Y-185536D01*
X73257Y-185602D01*
X73287Y-185662D01*
X73309Y-185713D01*
X73324Y-185758D01*
X73339Y-185787D01*
X73353Y-185802D01*
Y-185809D01*
X73479Y-186001D01*
X73611Y-186171D01*
X73752Y-186311D01*
X73892Y-186429D01*
X74010Y-186525D01*
X74069Y-186562D01*
X74113Y-186591D01*
X74150Y-186614D01*
X74180Y-186628D01*
X74195Y-186643D01*
X74202D01*
X74313Y-186695D01*
X74423Y-186739D01*
X74667Y-186813D01*
X74918Y-186864D01*
X75154Y-186894D01*
X75265Y-186909D01*
X75368Y-186916D01*
X75464Y-186924D01*
X75545D01*
X75612Y-186931D01*
X73058D01*
X75700D01*
X75914Y-186924D01*
X76121Y-186901D01*
X76313Y-186872D01*
X76490Y-186828D01*
X76652Y-186783D01*
X76800Y-186724D01*
X76940Y-186665D01*
X77065Y-186606D01*
X77176Y-186547D01*
X77272Y-186488D01*
X77353Y-186429D01*
X77420Y-186385D01*
X77479Y-186340D01*
X77516Y-186311D01*
X77538Y-186289D01*
X77545Y-186282D01*
X77663Y-186156D01*
X77767Y-186023D01*
X77855Y-185890D01*
X77936Y-185750D01*
X77995Y-185610D01*
X78054Y-185477D01*
X78099Y-185337D01*
X78136Y-185211D01*
X78158Y-185086D01*
X78180Y-184975D01*
X78194Y-184879D01*
X78209Y-184791D01*
Y-184717D01*
X78217Y-184665D01*
Y-184621D01*
X78209Y-184451D01*
X78194Y-184289D01*
X78165Y-184141D01*
X78128Y-183994D01*
X78091Y-183853D01*
X78039Y-183728D01*
X77995Y-183610D01*
X77944Y-183507D01*
X77892Y-183403D01*
X77840Y-183322D01*
X77789Y-183248D01*
X77752Y-183182D01*
X77715Y-183138D01*
X77685Y-183101D01*
X77671Y-183079D01*
X77663Y-183071D01*
X77530Y-182938D01*
X77390Y-182820D01*
X77235Y-182717D01*
X77073Y-182628D01*
X76903Y-182562D01*
X76733Y-182496D01*
X76564Y-182444D01*
X76401Y-182407D01*
X76246Y-182378D01*
X76106Y-182348D01*
X75973Y-182333D01*
X75855Y-182326D01*
X75766Y-182318D01*
X75693Y-182311D01*
D02*
G37*
G36*
X64353Y-185569D02*
X64212Y-185599D01*
X64072Y-185636D01*
X63947Y-185680D01*
X63836Y-185724D01*
X63725Y-185776D01*
X63629Y-185828D01*
X63541Y-185879D01*
X63460Y-185938D01*
X63393Y-185990D01*
X63334Y-186042D01*
X63283Y-186086D01*
X63238Y-186123D01*
X63209Y-186160D01*
X63187Y-186182D01*
X63172Y-186197D01*
X63164Y-186204D01*
X63098Y-186307D01*
X63039Y-186411D01*
X62980Y-186529D01*
X62936Y-186647D01*
X62869Y-186898D01*
X62825Y-187134D01*
X62803Y-187245D01*
X62795Y-187348D01*
X62788Y-187444D01*
X62781Y-187518D01*
X62773Y-187584D01*
Y-189673D01*
Y-187680D01*
X62781Y-187894D01*
X62803Y-188086D01*
X62840Y-188263D01*
X62877Y-188418D01*
X62891Y-188484D01*
X62906Y-188543D01*
X62928Y-188595D01*
X62943Y-188639D01*
X62958Y-188676D01*
X62965Y-188698D01*
X62972Y-188713D01*
Y-188721D01*
X63054Y-188883D01*
X63142Y-189023D01*
X63238Y-189141D01*
X63334Y-189245D01*
X63415Y-189318D01*
X63482Y-189377D01*
X63526Y-189407D01*
X63533Y-189422D01*
X63541D01*
X63681Y-189503D01*
X63821Y-189569D01*
X63954Y-189614D01*
X64072Y-189643D01*
X64175Y-189658D01*
X64257Y-189673D01*
X64330D01*
X64485Y-189665D01*
X64626Y-189643D01*
X64744Y-189606D01*
X64847Y-189569D01*
X64936Y-189532D01*
X64995Y-189496D01*
X65031Y-189473D01*
X65046Y-189466D01*
X65150Y-189385D01*
X65238Y-189296D01*
X65312Y-189200D01*
X65371Y-189112D01*
X65423Y-189038D01*
X65452Y-188971D01*
X65474Y-188927D01*
X65482Y-188920D01*
Y-188912D01*
X65511Y-188839D01*
X65541Y-188758D01*
X65578Y-188669D01*
X65607Y-188573D01*
X65674Y-188374D01*
X65733Y-188167D01*
X65762Y-188071D01*
X65792Y-187975D01*
X65814Y-187894D01*
X65836Y-187828D01*
X65851Y-187761D01*
X65865Y-187717D01*
X65873Y-187687D01*
Y-187680D01*
X65902Y-187569D01*
X65932Y-187473D01*
X65954Y-187385D01*
X65976Y-187304D01*
X65998Y-187237D01*
X66013Y-187178D01*
X66028Y-187127D01*
X66043Y-187082D01*
X66065Y-187016D01*
X66079Y-186971D01*
X66087Y-186949D01*
Y-186942D01*
X66124Y-186868D01*
X66161Y-186802D01*
X66198Y-186743D01*
X66234Y-186698D01*
X66264Y-186662D01*
X66286Y-186639D01*
X66301Y-186625D01*
X66308Y-186617D01*
X66360Y-186588D01*
X66412Y-186566D01*
X66508Y-186536D01*
X66544Y-186529D01*
X66574Y-186521D01*
X66596D01*
X66603D01*
X66699Y-186529D01*
X66781Y-186558D01*
X66862Y-186595D01*
X66928Y-186647D01*
X66980Y-186691D01*
X67017Y-186728D01*
X67046Y-186758D01*
X67054Y-186765D01*
X67091Y-186817D01*
X67120Y-186868D01*
X67164Y-186994D01*
X67201Y-187134D01*
X67223Y-187267D01*
X67238Y-187392D01*
Y-187444D01*
X67246Y-187488D01*
Y-187584D01*
X67238Y-187761D01*
X67209Y-187909D01*
X67179Y-188042D01*
X67135Y-188152D01*
X67098Y-188233D01*
X67061Y-188293D01*
X67032Y-188329D01*
X67024Y-188344D01*
X66936Y-188433D01*
X66840Y-188507D01*
X66744Y-188566D01*
X66648Y-188610D01*
X66567Y-188639D01*
X66493Y-188654D01*
X66448Y-188669D01*
X66441D01*
X66434D01*
X66544Y-189488D01*
X66714Y-189451D01*
X66862Y-189407D01*
X66995Y-189363D01*
X67105Y-189311D01*
X67186Y-189267D01*
X67253Y-189230D01*
X67290Y-189200D01*
X67305Y-189193D01*
X67408Y-189104D01*
X67497Y-189001D01*
X67578Y-188898D01*
X67644Y-188794D01*
X67696Y-188691D01*
X67733Y-188617D01*
X67747Y-188588D01*
X67755Y-188566D01*
X67762Y-188551D01*
Y-188543D01*
X67821Y-188374D01*
X67858Y-188204D01*
X67888Y-188027D01*
X67910Y-187872D01*
X67924Y-187732D01*
Y-187673D01*
X67932Y-187621D01*
Y-187525D01*
X67924Y-187385D01*
X67917Y-187252D01*
X67902Y-187127D01*
X67880Y-187023D01*
X67858Y-186927D01*
X67843Y-186861D01*
X67836Y-186817D01*
X67829Y-186809D01*
Y-186802D01*
X67792Y-186684D01*
X67747Y-186573D01*
X67703Y-186484D01*
X67666Y-186411D01*
X67637Y-186352D01*
X67607Y-186307D01*
X67592Y-186278D01*
X67585Y-186270D01*
X67511Y-186174D01*
X67437Y-186093D01*
X67356Y-186020D01*
X67282Y-185968D01*
X67216Y-185916D01*
X67164Y-185887D01*
X67135Y-185864D01*
X67120Y-185857D01*
X67017Y-185805D01*
X66906Y-185769D01*
X66803Y-185747D01*
X66707Y-185732D01*
X66626Y-185717D01*
X66567Y-185710D01*
X66522D01*
X66515D01*
X66508D01*
X66375Y-185717D01*
X66249Y-185739D01*
X66138Y-185769D01*
X66043Y-185798D01*
X65961Y-185828D01*
X65895Y-185857D01*
X65858Y-185879D01*
X65843Y-185887D01*
X65740Y-185960D01*
X65644Y-186049D01*
X65570Y-186138D01*
X65504Y-186226D01*
X65445Y-186307D01*
X65408Y-186366D01*
X65386Y-186411D01*
X65378Y-186418D01*
Y-186425D01*
X65349Y-186499D01*
X65312Y-186588D01*
X65275Y-186676D01*
X65246Y-186780D01*
X65179Y-186994D01*
X65113Y-187200D01*
X65083Y-187304D01*
X65054Y-187400D01*
X65031Y-187488D01*
X65009Y-187562D01*
X64995Y-187621D01*
X64980Y-187673D01*
X64973Y-187702D01*
Y-187709D01*
X64943Y-187828D01*
X64913Y-187938D01*
X64884Y-188042D01*
X64854Y-188130D01*
X64832Y-188211D01*
X64810Y-188278D01*
X64788Y-188337D01*
X64766Y-188396D01*
X64751Y-188440D01*
X64736Y-188477D01*
X64714Y-188529D01*
X64699Y-188558D01*
X64692Y-188566D01*
X64626Y-188647D01*
X64552Y-188713D01*
X64478Y-188758D01*
X64404Y-188787D01*
X64345Y-188802D01*
X64286Y-188816D01*
X64257D01*
X64242D01*
X64124Y-188802D01*
X64021Y-188772D01*
X63924Y-188728D01*
X63843Y-188676D01*
X63777Y-188625D01*
X63733Y-188580D01*
X63696Y-188551D01*
X63688Y-188536D01*
X63615Y-188418D01*
X63556Y-188285D01*
X63519Y-188138D01*
X63489Y-187997D01*
X63474Y-187872D01*
X63467Y-187820D01*
Y-187769D01*
X63460Y-187732D01*
Y-187673D01*
X63474Y-187473D01*
X63504Y-187296D01*
X63541Y-187141D01*
X63592Y-187016D01*
X63637Y-186913D01*
X63681Y-186839D01*
X63710Y-186794D01*
X63718Y-186787D01*
Y-186780D01*
X63829Y-186669D01*
X63947Y-186588D01*
X64079Y-186521D01*
X64205Y-186470D01*
X64316Y-186433D01*
X64360Y-186418D01*
X64404Y-186411D01*
X64441Y-186403D01*
X64463D01*
X64478Y-186396D01*
X64485D01*
X64353Y-185569D01*
D02*
G37*
G36*
X79980Y-187602D02*
D01*
Y-191049D01*
X77530D01*
X77641Y-190960D01*
X77737Y-190865D01*
X77818Y-190769D01*
X77892Y-190680D01*
X77951Y-190599D01*
X77988Y-190540D01*
X78017Y-190496D01*
X78025Y-190488D01*
Y-190481D01*
X78091Y-190348D01*
X78136Y-190208D01*
X78172Y-190075D01*
X78194Y-189949D01*
X78209Y-189846D01*
X78217Y-189758D01*
Y-189573D01*
X78202Y-189462D01*
X78165Y-189256D01*
X78113Y-189071D01*
X78054Y-188909D01*
X78025Y-188835D01*
X77995Y-188776D01*
X77966Y-188717D01*
X77944Y-188673D01*
X77921Y-188636D01*
X77907Y-188606D01*
X77899Y-188591D01*
X77892Y-188584D01*
X77759Y-188407D01*
X77612Y-188259D01*
X77464Y-188134D01*
X77309Y-188031D01*
X77176Y-187949D01*
X77117Y-187920D01*
X77073Y-187890D01*
X77029Y-187876D01*
X76999Y-187861D01*
X76977Y-187846D01*
X76969D01*
X76741Y-187765D01*
X76504Y-187706D01*
X76283Y-187662D01*
X76076Y-187632D01*
X75981Y-187625D01*
X75892Y-187617D01*
X75818Y-187610D01*
X75752D01*
X75700Y-187602D01*
X79980D01*
X73058D01*
X75626D01*
X75353Y-187617D01*
X75102Y-187647D01*
X74984Y-187662D01*
X74874Y-187684D01*
X74770Y-187713D01*
X74674Y-187735D01*
X74593Y-187758D01*
X74512Y-187787D01*
X74445Y-187809D01*
X74394Y-187824D01*
X74349Y-187846D01*
X74320Y-187853D01*
X74298Y-187868D01*
X74291D01*
X74084Y-187979D01*
X73899Y-188104D01*
X73744Y-188230D01*
X73619Y-188355D01*
X73516Y-188466D01*
X73479Y-188510D01*
X73442Y-188555D01*
X73420Y-188591D01*
X73397Y-188614D01*
X73390Y-188628D01*
X73383Y-188636D01*
X73324Y-188732D01*
X73279Y-188828D01*
X73198Y-189012D01*
X73139Y-189197D01*
X73102Y-189366D01*
X73088Y-189440D01*
X73073Y-189507D01*
X73065Y-189566D01*
Y-189617D01*
X73058Y-189662D01*
Y-189617D01*
Y-189721D01*
X73065Y-189890D01*
X73088Y-190045D01*
X73124Y-190185D01*
X73176Y-190326D01*
X73228Y-190451D01*
X73287Y-190562D01*
X73353Y-190665D01*
X73427Y-190761D01*
X73493Y-190842D01*
X73560Y-190909D01*
X73619Y-190968D01*
X73678Y-191019D01*
X73722Y-191056D01*
X73759Y-191086D01*
X73781Y-191101D01*
X73789Y-191108D01*
X73169D01*
Y-191883D01*
X73058D01*
X79980D01*
Y-187602D01*
D02*
G37*
G36*
X67821Y-190890D02*
X62884D01*
Y-191842D01*
X63836D01*
Y-190890D01*
X66869D01*
Y-191842D01*
X67821D01*
Y-190890D01*
D02*
G37*
G36*
X84096Y-187942D02*
X84014D01*
X83793Y-187949D01*
X83579Y-187971D01*
X83380Y-188001D01*
X83195Y-188038D01*
X83025Y-188082D01*
X82871Y-188134D01*
X82730Y-188193D01*
X82605Y-188252D01*
X82494Y-188304D01*
X82391Y-188363D01*
X82310Y-188414D01*
X82243Y-188459D01*
X82184Y-188496D01*
X82147Y-188525D01*
X82125Y-188547D01*
X82118Y-188555D01*
X82000Y-188673D01*
X81904Y-188798D01*
X81815Y-188931D01*
X81741Y-189064D01*
X81675Y-189204D01*
X81623Y-189337D01*
X81579Y-189470D01*
X81542Y-189595D01*
X81513Y-189713D01*
X81498Y-189824D01*
X81483Y-189927D01*
X81468Y-190008D01*
Y-190082D01*
X81461Y-190134D01*
Y-190178D01*
X81468Y-190326D01*
X81483Y-190466D01*
X81505Y-190599D01*
X81535Y-190732D01*
X81572Y-190850D01*
X81616Y-190960D01*
X81653Y-191064D01*
X81704Y-191160D01*
X81749Y-191241D01*
X81786Y-191322D01*
X81830Y-191381D01*
X81867Y-191440D01*
X81896Y-191477D01*
X81919Y-191514D01*
X81933Y-191529D01*
X81941Y-191536D01*
X82037Y-191632D01*
X82133Y-191728D01*
X82243Y-191809D01*
X82354Y-191876D01*
X82465Y-191942D01*
X82575Y-192001D01*
X82782Y-192090D01*
X82885Y-192127D01*
X82974Y-192156D01*
X83055Y-192178D01*
X83129Y-192200D01*
X83188Y-192215D01*
X83232Y-192222D01*
X83262Y-192230D01*
X81461D01*
X86620D01*
Y-190178D01*
X86605Y-189949D01*
X86575Y-189728D01*
X86524Y-189529D01*
X86494Y-189440D01*
X86472Y-189352D01*
X86442Y-189278D01*
X86413Y-189211D01*
X86391Y-189152D01*
X86361Y-189101D01*
X86347Y-189056D01*
X86332Y-189027D01*
X86317Y-189012D01*
Y-189005D01*
X86191Y-188813D01*
X86051Y-188651D01*
X85896Y-188510D01*
X85756Y-188400D01*
X85623Y-188311D01*
X85564Y-188282D01*
X85513Y-188252D01*
X85476Y-188230D01*
X85446Y-188215D01*
X85424Y-188200D01*
X85417D01*
X85188Y-188112D01*
X84944Y-188053D01*
X84708Y-188008D01*
X84494Y-187971D01*
X84391Y-187964D01*
X84302Y-187957D01*
X84221Y-187949D01*
X84147D01*
X84096Y-187942D01*
D02*
G37*
G36*
X62766Y-192676D02*
Y-197968D01*
Y-195990D01*
X69806Y-197968D01*
Y-197296D01*
X62792Y-195326D01*
D01*
X62766Y-195318D01*
Y-193348D01*
X69780Y-195318D01*
D01*
X69806Y-195326D01*
Y-195514D01*
Y-194654D01*
X62766Y-192676D01*
D02*
G37*
G36*
X86620Y-192938D02*
X81572D01*
Y-193772D01*
X84155D01*
X84346Y-193780D01*
X84531Y-193794D01*
X84693Y-193816D01*
X84841Y-193839D01*
X84959Y-193861D01*
X85011Y-193876D01*
X85055Y-193883D01*
X85084Y-193890D01*
X85107Y-193898D01*
X85121Y-193905D01*
X85129D01*
X85232Y-193949D01*
X85328Y-193994D01*
X85402Y-194045D01*
X85468Y-194097D01*
X85520Y-194141D01*
X85557Y-194178D01*
X85579Y-194208D01*
X85586Y-194215D01*
X85645Y-194304D01*
X85682Y-194385D01*
X85712Y-194466D01*
X85734Y-194547D01*
X85749Y-194614D01*
X85756Y-194665D01*
Y-194710D01*
X85749Y-194827D01*
X85726Y-194938D01*
X85697Y-195042D01*
X85668Y-195130D01*
X85631Y-195211D01*
X85601Y-195270D01*
X85579Y-195307D01*
X85572Y-195322D01*
X86347Y-195617D01*
X86435Y-195455D01*
X86501Y-195292D01*
X86553Y-195152D01*
X86583Y-195019D01*
X86605Y-194909D01*
X86612Y-194864D01*
Y-194827D01*
X86620Y-194798D01*
Y-194754D01*
X86612Y-194650D01*
X86590Y-194547D01*
X86568Y-194458D01*
X86538Y-194377D01*
X86501Y-194318D01*
X86479Y-194267D01*
X86457Y-194237D01*
X86450Y-194222D01*
X86413Y-194178D01*
X86369Y-194126D01*
X86273Y-194038D01*
X86155Y-193949D01*
X86036Y-193868D01*
X85933Y-193794D01*
X85837Y-193743D01*
X85808Y-193720D01*
X85778Y-193706D01*
X85763Y-193691D01*
X86509D01*
Y-192938D01*
X86620D01*
D02*
G37*
G36*
X78217Y-192923D02*
X73058D01*
X74468D01*
X74357Y-192931D01*
X74246Y-192946D01*
X74143Y-192960D01*
X74047Y-192990D01*
X73870Y-193064D01*
X73730Y-193145D01*
X73663Y-193182D01*
X73611Y-193219D01*
X73560Y-193256D01*
X73523Y-193292D01*
X73493Y-193322D01*
X73471Y-193337D01*
X73457Y-193351D01*
X73449Y-193359D01*
X73383Y-193447D01*
X73324Y-193536D01*
X73265Y-193639D01*
X73220Y-193735D01*
X73154Y-193942D01*
X73110Y-194149D01*
X73088Y-194237D01*
X73080Y-194326D01*
X73073Y-194407D01*
X73065Y-194473D01*
X73058Y-194525D01*
Y-194606D01*
X73065Y-194791D01*
X73080Y-194960D01*
X73110Y-195115D01*
X73139Y-195256D01*
X73169Y-195366D01*
X73184Y-195418D01*
X73198Y-195455D01*
X73206Y-195484D01*
X73213Y-195507D01*
X73220Y-195521D01*
Y-195529D01*
X73294Y-195691D01*
X73375Y-195853D01*
X73471Y-196001D01*
X73567Y-196141D01*
X73648Y-196259D01*
X73693Y-196303D01*
X73722Y-196348D01*
X73752Y-196385D01*
X73774Y-196407D01*
X73781Y-196422D01*
X73789Y-196429D01*
X73656Y-196444D01*
X73538Y-196466D01*
X73434Y-196495D01*
X73346Y-196525D01*
X73272Y-196547D01*
X73213Y-196569D01*
X73184Y-196584D01*
X73169Y-196591D01*
Y-197462D01*
X73272Y-197411D01*
X73383Y-197366D01*
X73479Y-197329D01*
X73567Y-197300D01*
X73648Y-197278D01*
X73707Y-197263D01*
X73744Y-197256D01*
X73759D01*
X73826Y-197248D01*
X73914Y-197241D01*
X74010Y-197233D01*
X74121Y-197226D01*
X74239Y-197219D01*
X74364D01*
X74615Y-197211D01*
X74733D01*
X74851Y-197204D01*
X74955D01*
X75051D01*
X75124D01*
X75183D01*
X75220D01*
X75235D01*
X76350D01*
X76453D01*
X76541D01*
X76623Y-197196D01*
X76704D01*
X76837Y-197189D01*
X76940Y-197182D01*
X77021Y-197174D01*
X77073Y-197167D01*
X77110Y-197160D01*
X77117D01*
X77242Y-197130D01*
X77353Y-197086D01*
X77449Y-197041D01*
X77530Y-196997D01*
X77597Y-196960D01*
X77648Y-196923D01*
X77678Y-196901D01*
X77685Y-196894D01*
X77767Y-196813D01*
X77840Y-196724D01*
X77907Y-196628D01*
X77958Y-196532D01*
X78003Y-196444D01*
X78032Y-196377D01*
X78047Y-196348D01*
X78054Y-196326D01*
X78062Y-196318D01*
Y-196311D01*
X78113Y-196156D01*
X78150Y-195986D01*
X78180Y-195817D01*
X78194Y-195654D01*
X78209Y-195514D01*
Y-195448D01*
X78217Y-195396D01*
Y-195233D01*
Y-195292D01*
X78209Y-195064D01*
X78187Y-194850D01*
X78158Y-194658D01*
X78143Y-194569D01*
X78128Y-194495D01*
X78113Y-194422D01*
X78099Y-194355D01*
X78084Y-194304D01*
X78069Y-194259D01*
X78054Y-194222D01*
X78047Y-194193D01*
X78039Y-194178D01*
Y-194171D01*
X77966Y-194001D01*
X77885Y-193853D01*
X77803Y-193728D01*
X77722Y-193625D01*
X77648Y-193543D01*
X77589Y-193484D01*
X77552Y-193447D01*
X77545Y-193433D01*
X77538D01*
X77412Y-193344D01*
X77272Y-193270D01*
X77132Y-193211D01*
X76999Y-193160D01*
X76881Y-193123D01*
X76829Y-193108D01*
X76785Y-193093D01*
X76748Y-193086D01*
X76718Y-193078D01*
X76704Y-193071D01*
X76696D01*
X76586Y-193890D01*
X76682Y-193920D01*
X76770Y-193949D01*
X76918Y-194008D01*
X77051Y-194082D01*
X77147Y-194149D01*
X77220Y-194208D01*
X77279Y-194259D01*
X77309Y-194289D01*
X77316Y-194304D01*
X77383Y-194422D01*
X77434Y-194562D01*
X77471Y-194702D01*
X77501Y-194842D01*
X77516Y-194975D01*
Y-195027D01*
X77523Y-195079D01*
Y-195174D01*
X77508Y-195396D01*
X77479Y-195588D01*
X77434Y-195750D01*
X77383Y-195883D01*
X77324Y-195986D01*
X77302Y-196023D01*
X77279Y-196060D01*
X77265Y-196089D01*
X77250Y-196104D01*
X77235Y-196119D01*
X77147Y-196200D01*
X77036Y-196259D01*
X76918Y-196303D01*
X76800Y-196333D01*
X76689Y-196348D01*
X76600Y-196363D01*
X76571D01*
X76541D01*
X76527D01*
X76519D01*
X76497D01*
X76468D01*
X76394D01*
X76364Y-196355D01*
X76335D01*
X76313D01*
X76305D01*
X76276Y-196259D01*
X76246Y-196156D01*
X76217Y-196038D01*
X76187Y-195920D01*
X76135Y-195676D01*
X76091Y-195433D01*
X76076Y-195315D01*
X76062Y-195211D01*
X76047Y-195115D01*
X76032Y-195027D01*
X76025Y-194960D01*
X76017Y-194909D01*
X76010Y-194879D01*
Y-194864D01*
X75988Y-194687D01*
X75966Y-194540D01*
X75944Y-194407D01*
X75929Y-194304D01*
X75907Y-194222D01*
X75899Y-194163D01*
X75885Y-194134D01*
Y-194119D01*
X75848Y-194001D01*
X75803Y-193883D01*
X75759Y-193780D01*
X75715Y-193691D01*
X75678Y-193617D01*
X75641Y-193566D01*
X75619Y-193529D01*
X75612Y-193514D01*
X75538Y-193418D01*
X75464Y-193337D01*
X75383Y-193263D01*
X75309Y-193204D01*
X75235Y-193152D01*
X75183Y-193115D01*
X75147Y-193093D01*
X75132Y-193086D01*
X75014Y-193034D01*
X74903Y-192990D01*
X74792Y-192960D01*
X74689Y-192946D01*
X74600Y-192931D01*
X74527Y-192923D01*
X78217D01*
D02*
G37*
G36*
X86620Y-195802D02*
D01*
Y-198112D01*
X86612Y-197942D01*
X86597Y-197780D01*
X86568Y-197632D01*
X86531Y-197484D01*
X86494Y-197344D01*
X86442Y-197219D01*
X86398Y-197101D01*
X86347Y-196997D01*
X86295Y-196894D01*
X86243Y-196813D01*
X86191Y-196739D01*
X86155Y-196672D01*
X86118Y-196628D01*
X86088Y-196591D01*
X86073Y-196569D01*
X86066Y-196562D01*
X85933Y-196429D01*
X85793Y-196311D01*
X85638Y-196208D01*
X85476Y-196119D01*
X85306Y-196053D01*
X85136Y-195986D01*
X84966Y-195934D01*
X84804Y-195898D01*
X84649Y-195868D01*
X84509Y-195839D01*
X84376Y-195824D01*
X84258Y-195817D01*
X84169Y-195809D01*
X84096Y-195802D01*
X84036D01*
X83808Y-195809D01*
X83594Y-195831D01*
X83394Y-195861D01*
X83210Y-195898D01*
X83040Y-195949D01*
X82885Y-196001D01*
X82745Y-196060D01*
X82612Y-196119D01*
X82502Y-196178D01*
X82398Y-196237D01*
X82317Y-196289D01*
X82251Y-196340D01*
X82191Y-196377D01*
X82155Y-196407D01*
X82133Y-196429D01*
X82125Y-196436D01*
X82007Y-196562D01*
X81904Y-196695D01*
X81815Y-196827D01*
X81741Y-196968D01*
X81675Y-197108D01*
X81623Y-197248D01*
X81579Y-197381D01*
X81542Y-197514D01*
X81520Y-197639D01*
X81498Y-197750D01*
X81483Y-197853D01*
X81468Y-197942D01*
Y-198016D01*
X81461Y-198067D01*
Y-198112D01*
X81476Y-198348D01*
X81505Y-198569D01*
X81557Y-198768D01*
X81579Y-198864D01*
X81608Y-198946D01*
X81638Y-199027D01*
X81660Y-199093D01*
X81690Y-199152D01*
X81712Y-199204D01*
X81727Y-199248D01*
X81741Y-199278D01*
X81756Y-199292D01*
Y-199300D01*
X81882Y-199492D01*
X82014Y-199661D01*
X82155Y-199802D01*
X82295Y-199920D01*
X82413Y-200016D01*
X82472Y-200053D01*
X82516Y-200082D01*
X82553Y-200104D01*
X82583Y-200119D01*
X82597Y-200134D01*
X82605D01*
X82715Y-200185D01*
X82826Y-200230D01*
X83070Y-200304D01*
X83321Y-200355D01*
X83557Y-200385D01*
X83667Y-200399D01*
X83771Y-200407D01*
X83867Y-200414D01*
X83948D01*
X84014Y-200422D01*
X81461D01*
X84103D01*
X84317Y-200414D01*
X84524Y-200392D01*
X84715Y-200362D01*
X84893Y-200318D01*
X85055Y-200274D01*
X85203Y-200215D01*
X85343Y-200156D01*
X85468Y-200097D01*
X85579Y-200038D01*
X85675Y-199979D01*
X85756Y-199920D01*
X85822Y-199875D01*
X85882Y-199831D01*
X85918Y-199802D01*
X85941Y-199779D01*
X85948Y-199772D01*
X86066Y-199647D01*
X86169Y-199514D01*
X86258Y-199381D01*
X86339Y-199241D01*
X86398Y-199101D01*
X86457Y-198968D01*
X86501Y-198828D01*
X86538Y-198702D01*
X86560Y-198577D01*
X86583Y-198466D01*
X86597Y-198370D01*
X86612Y-198281D01*
Y-198208D01*
X86620Y-198156D01*
Y-195802D01*
D02*
G37*
G36*
X78217Y-198495D02*
X73169D01*
Y-199329D01*
X75862D01*
X76032Y-199337D01*
X76195Y-199344D01*
X76335Y-199366D01*
X76468Y-199388D01*
X76586Y-199418D01*
X76689Y-199447D01*
X76785Y-199484D01*
X76866Y-199521D01*
X76940Y-199558D01*
X76999Y-199595D01*
X77043Y-199625D01*
X77087Y-199654D01*
X77117Y-199676D01*
X77139Y-199698D01*
X77147Y-199706D01*
X77154Y-199713D01*
X77213Y-199787D01*
X77265Y-199868D01*
X77353Y-200023D01*
X77412Y-200178D01*
X77449Y-200318D01*
X77479Y-200444D01*
X77486Y-200503D01*
Y-200547D01*
X77493Y-200584D01*
Y-200636D01*
X77486Y-200761D01*
X77471Y-200872D01*
X77442Y-200968D01*
X77420Y-201056D01*
X77390Y-201123D01*
X77361Y-201174D01*
X77346Y-201211D01*
X77338Y-201219D01*
X77279Y-201307D01*
X77213Y-201381D01*
X77147Y-201440D01*
X77080Y-201484D01*
X77021Y-201521D01*
X76977Y-201543D01*
X76947Y-201558D01*
X76933Y-201566D01*
X76829Y-201602D01*
X76711Y-201624D01*
X76586Y-201647D01*
X76460Y-201654D01*
X76350Y-201661D01*
X76298Y-201669D01*
X76254D01*
X76224D01*
X76195D01*
X76180D01*
X76172D01*
X73169D01*
Y-202503D01*
X78217D01*
X76401D01*
X76497Y-202495D01*
X76578D01*
X76652Y-202488D01*
X76718D01*
X76829Y-202481D01*
X76910Y-202466D01*
X76969Y-202459D01*
X77006Y-202451D01*
X77014D01*
X77147Y-202422D01*
X77265Y-202377D01*
X77368Y-202340D01*
X77456Y-202296D01*
X77530Y-202252D01*
X77589Y-202222D01*
X77619Y-202200D01*
X77634Y-202193D01*
X77730Y-202119D01*
X77811Y-202030D01*
X77877Y-201935D01*
X77944Y-201846D01*
X77988Y-201757D01*
X78025Y-201691D01*
X78047Y-201647D01*
X78054Y-201639D01*
Y-201632D01*
X78106Y-201492D01*
X78150Y-201351D01*
X78180Y-201211D01*
X78194Y-201086D01*
X78209Y-200975D01*
Y-200931D01*
X78217Y-200887D01*
Y-200757D01*
Y-200813D01*
X78209Y-200628D01*
X78180Y-200451D01*
X78143Y-200289D01*
X78091Y-200134D01*
X78025Y-199994D01*
X77958Y-199868D01*
X77885Y-199750D01*
X77811Y-199647D01*
X77730Y-199551D01*
X77656Y-199470D01*
X77589Y-199403D01*
X77523Y-199352D01*
X77471Y-199307D01*
X77434Y-199270D01*
X77405Y-199256D01*
X77398Y-199248D01*
X78106D01*
Y-198495D01*
X78217D01*
D02*
G37*
G36*
X67932Y-198307D02*
X62773D01*
D01*
X64183D01*
X64072Y-198315D01*
X63961Y-198329D01*
X63858Y-198344D01*
X63762Y-198374D01*
X63585Y-198447D01*
X63445Y-198529D01*
X63378Y-198565D01*
X63327Y-198602D01*
X63275Y-198639D01*
X63238Y-198676D01*
X63209Y-198706D01*
X63187Y-198721D01*
X63172Y-198735D01*
X63164Y-198743D01*
X63098Y-198831D01*
X63039Y-198920D01*
X62980Y-199023D01*
X62936Y-199119D01*
X62869Y-199326D01*
X62825Y-199532D01*
X62803Y-199621D01*
X62795Y-199709D01*
X62788Y-199791D01*
X62781Y-199857D01*
X62773Y-199909D01*
Y-199990D01*
X62781Y-200174D01*
X62795Y-200344D01*
X62825Y-200499D01*
X62854Y-200639D01*
X62884Y-200750D01*
X62899Y-200802D01*
X62914Y-200839D01*
X62921Y-200868D01*
X62928Y-200890D01*
X62936Y-200905D01*
Y-200912D01*
X63009Y-201075D01*
X63091Y-201237D01*
X63187Y-201385D01*
X63283Y-201525D01*
X63364Y-201643D01*
X63408Y-201687D01*
X63437Y-201731D01*
X63467Y-201768D01*
X63489Y-201791D01*
X63497Y-201805D01*
X63504Y-201813D01*
X63371Y-201828D01*
X63253Y-201850D01*
X63150Y-201879D01*
X63061Y-201909D01*
X62987Y-201931D01*
X62928Y-201953D01*
X62899Y-201968D01*
X62884Y-201975D01*
Y-202846D01*
D01*
X62987Y-202794D01*
X63098Y-202750D01*
X63194Y-202713D01*
X63283Y-202683D01*
X63364Y-202661D01*
X63423Y-202647D01*
X63460Y-202639D01*
X63474D01*
X63541Y-202632D01*
X63629Y-202625D01*
X63725Y-202617D01*
X63836Y-202610D01*
X63954Y-202602D01*
X64079D01*
X64330Y-202595D01*
X64448D01*
X64567Y-202588D01*
X64670D01*
X64766D01*
X64840D01*
X64899D01*
X64936D01*
X64950D01*
X66065D01*
X66168D01*
X66257D01*
X66338Y-202580D01*
X66419D01*
X66552Y-202573D01*
X66655Y-202566D01*
X66736Y-202558D01*
X66788Y-202551D01*
X66825Y-202543D01*
X66832D01*
X66958Y-202514D01*
X67068Y-202469D01*
X67164Y-202425D01*
X67246Y-202381D01*
X67312Y-202344D01*
X67364Y-202307D01*
X67393Y-202285D01*
X67400Y-202278D01*
X67482Y-202197D01*
X67555Y-202108D01*
X67622Y-202012D01*
X67674Y-201916D01*
X67718Y-201828D01*
X67747Y-201761D01*
X67762Y-201731D01*
X67769Y-201709D01*
X67777Y-201702D01*
Y-201695D01*
X67829Y-201540D01*
X67866Y-201370D01*
X67895Y-201200D01*
X67910Y-201038D01*
X67924Y-200898D01*
Y-200831D01*
X67932Y-200780D01*
Y-200617D01*
Y-200676D01*
X67924Y-200447D01*
X67902Y-200233D01*
X67873Y-200042D01*
X67858Y-199953D01*
X67843Y-199879D01*
X67829Y-199805D01*
X67814Y-199739D01*
X67799Y-199687D01*
X67784Y-199643D01*
X67769Y-199606D01*
X67762Y-199577D01*
X67755Y-199562D01*
Y-199554D01*
X67681Y-199385D01*
X67600Y-199237D01*
X67519Y-199112D01*
X67437Y-199008D01*
X67364Y-198927D01*
X67305Y-198868D01*
X67268Y-198831D01*
X67260Y-198816D01*
X67253D01*
X67128Y-198728D01*
X66987Y-198654D01*
X66847Y-198595D01*
X66714Y-198543D01*
X66596Y-198506D01*
X66544Y-198492D01*
X66500Y-198477D01*
X66463Y-198470D01*
X66434Y-198462D01*
X66419Y-198455D01*
X66412D01*
X66301Y-199274D01*
X66397Y-199303D01*
X66485Y-199333D01*
X66633Y-199392D01*
X66766Y-199466D01*
X66862Y-199532D01*
X66936Y-199591D01*
X66995Y-199643D01*
X67024Y-199672D01*
X67032Y-199687D01*
X67098Y-199805D01*
X67150Y-199946D01*
X67186Y-200086D01*
X67216Y-200226D01*
X67231Y-200359D01*
Y-200411D01*
X67238Y-200462D01*
Y-200558D01*
X67223Y-200780D01*
X67194Y-200971D01*
X67150Y-201134D01*
X67098Y-201267D01*
X67039Y-201370D01*
X67017Y-201407D01*
X66995Y-201444D01*
X66980Y-201473D01*
X66965Y-201488D01*
X66950Y-201503D01*
X66862Y-201584D01*
X66751Y-201643D01*
X66633Y-201687D01*
X66515Y-201717D01*
X66404Y-201731D01*
X66316Y-201746D01*
X66286D01*
X66257D01*
X66242D01*
X66234D01*
X66212D01*
X66183D01*
X66109D01*
X66079Y-201739D01*
X66050D01*
X66028D01*
X66021D01*
X65991Y-201643D01*
X65961Y-201540D01*
X65932Y-201422D01*
X65902Y-201304D01*
X65851Y-201060D01*
X65806Y-200816D01*
X65792Y-200698D01*
X65777Y-200595D01*
X65762Y-200499D01*
X65747Y-200411D01*
X65740Y-200344D01*
X65733Y-200292D01*
X65725Y-200263D01*
Y-200248D01*
X65703Y-200071D01*
X65681Y-199923D01*
X65659Y-199791D01*
X65644Y-199687D01*
X65622Y-199606D01*
X65615Y-199547D01*
X65600Y-199518D01*
Y-199503D01*
X65563Y-199385D01*
X65519Y-199267D01*
X65474Y-199163D01*
X65430Y-199075D01*
X65393Y-199001D01*
X65356Y-198949D01*
X65334Y-198912D01*
X65327Y-198898D01*
X65253Y-198802D01*
X65179Y-198721D01*
X65098Y-198647D01*
X65024Y-198588D01*
X64950Y-198536D01*
X64899Y-198499D01*
X64862Y-198477D01*
X64847Y-198470D01*
X64729Y-198418D01*
X64618Y-198374D01*
X64508Y-198344D01*
X64404Y-198329D01*
X64316Y-198315D01*
X64242Y-198307D01*
X67932D01*
D02*
G37*
G36*
X86620Y-201403D02*
X81572D01*
Y-205411D01*
X86620D01*
X84804D01*
X84900Y-205403D01*
X84981D01*
X85055Y-205396D01*
X85121D01*
X85232Y-205388D01*
X85313Y-205374D01*
X85372Y-205366D01*
X85409Y-205359D01*
X85417D01*
X85549Y-205329D01*
X85668Y-205285D01*
X85771Y-205248D01*
X85859Y-205204D01*
X85933Y-205159D01*
X85992Y-205130D01*
X86022Y-205108D01*
X86036Y-205100D01*
X86132Y-205027D01*
X86214Y-204938D01*
X86280Y-204842D01*
X86347Y-204754D01*
X86391Y-204665D01*
X86428Y-204599D01*
X86450Y-204554D01*
X86457Y-204547D01*
Y-204540D01*
X86509Y-204399D01*
X86553Y-204259D01*
X86583Y-204119D01*
X86597Y-203994D01*
X86612Y-203883D01*
Y-203838D01*
X86620Y-203794D01*
Y-203720D01*
X86612Y-203536D01*
X86583Y-203359D01*
X86546Y-203197D01*
X86494Y-203042D01*
X86428Y-202901D01*
X86361Y-202776D01*
X86287Y-202658D01*
X86214Y-202554D01*
X86132Y-202459D01*
X86059Y-202377D01*
X85992Y-202311D01*
X85926Y-202259D01*
X85874Y-202215D01*
X85837Y-202178D01*
X85808Y-202163D01*
X85800Y-202156D01*
X86509D01*
Y-201403D01*
X86620D01*
D02*
G37*
G36*
X75744Y-206377D02*
X75634D01*
X75397Y-206385D01*
X75169Y-206399D01*
X74947Y-206421D01*
X74726Y-206451D01*
X74519Y-206488D01*
X74320Y-206525D01*
X74128Y-206569D01*
X73951Y-206613D01*
X73796Y-206658D01*
X73648Y-206702D01*
X73523Y-206739D01*
X73412Y-206776D01*
X73331Y-206805D01*
X73265Y-206827D01*
X73228Y-206842D01*
X73213Y-206850D01*
X72999Y-206945D01*
X72792Y-207041D01*
X72593Y-207137D01*
X72401Y-207233D01*
X72224Y-207337D01*
X72054Y-207433D01*
X71899Y-207528D01*
X71752Y-207617D01*
X71626Y-207698D01*
X71508Y-207779D01*
X71405Y-207846D01*
X71324Y-207905D01*
X71257Y-207957D01*
X71206Y-207994D01*
X71176Y-208016D01*
X71169Y-208023D01*
Y-208621D01*
X71375Y-208495D01*
X71582Y-208377D01*
X71789Y-208266D01*
X71995Y-208163D01*
X72409Y-207979D01*
X72800Y-207816D01*
X73184Y-207683D01*
X73553Y-207573D01*
X73907Y-207477D01*
X74231Y-207410D01*
X74534Y-207351D01*
X74667Y-207329D01*
X74800Y-207307D01*
X74925Y-207292D01*
X75043Y-207278D01*
X75147Y-207263D01*
X75243Y-207256D01*
X75331Y-207248D01*
X75405Y-207241D01*
X75471D01*
X75523Y-207233D01*
X75567D01*
X75604D01*
X75619D01*
X75626D01*
X75951Y-207241D01*
X76268Y-207263D01*
X76423Y-207278D01*
X76564Y-207300D01*
X76704Y-207314D01*
X76829Y-207337D01*
X76947Y-207351D01*
X77051Y-207366D01*
X77147Y-207388D01*
X77228Y-207403D01*
X77287Y-207418D01*
X77338Y-207425D01*
X77368Y-207433D01*
X77375D01*
X77634Y-207499D01*
X77877Y-207573D01*
X78106Y-207647D01*
X78209Y-207683D01*
X78305Y-207713D01*
X78394Y-207750D01*
X78475Y-207779D01*
X78541Y-207809D01*
X78600Y-207831D01*
X78645Y-207846D01*
X78682Y-207861D01*
X78704Y-207875D01*
X78711D01*
X78792Y-207912D01*
X78888Y-207957D01*
X78992Y-208008D01*
X79102Y-208067D01*
X79331Y-208193D01*
X79560Y-208318D01*
X79663Y-208377D01*
X79766Y-208429D01*
X79855Y-208481D01*
X79936Y-208532D01*
X80003Y-208569D01*
X80047Y-208599D01*
X80084Y-208613D01*
X80091Y-208621D01*
Y-208023D01*
X79870Y-207861D01*
X79656Y-207713D01*
X79442Y-207580D01*
X79235Y-207447D01*
X79028Y-207337D01*
X78837Y-207226D01*
X78652Y-207130D01*
X78482Y-207049D01*
X78320Y-206975D01*
X78180Y-206909D01*
X78054Y-206857D01*
X77951Y-206813D01*
X77862Y-206776D01*
X77796Y-206754D01*
X77759Y-206739D01*
X77744Y-206732D01*
X77552Y-206672D01*
X77361Y-206613D01*
X76992Y-206525D01*
X76807Y-206495D01*
X76630Y-206466D01*
X76468Y-206444D01*
X76313Y-206421D01*
X76165Y-206407D01*
X76032Y-206399D01*
X75921Y-206385D01*
X75818D01*
X75744Y-206377D01*
D02*
G37*
G36*
X84457Y-206363D02*
X83616D01*
Y-208938D01*
X84457D01*
Y-206363D01*
D02*
G37*
G36*
X88501Y-209742D02*
X85311D01*
X88501D01*
D01*
D02*
G37*
G36*
X85311D02*
X85040D01*
D01*
X85311D01*
D02*
G37*
G36*
X85040D02*
X84944D01*
D01*
X81556D01*
X84944D01*
X84760Y-209750D01*
X84575Y-209757D01*
X84405Y-209779D01*
X84236Y-209809D01*
X84081Y-209839D01*
X83926Y-209875D01*
X83786Y-209912D01*
X83660Y-209949D01*
X83542Y-209986D01*
X83439Y-210023D01*
X83350Y-210060D01*
X83269Y-210089D01*
X83210Y-210119D01*
X83166Y-210141D01*
X83136Y-210148D01*
X83129Y-210156D01*
X82981Y-210237D01*
X82841Y-210333D01*
X82715Y-210429D01*
X82590Y-210525D01*
X82479Y-210628D01*
X82383Y-210731D01*
X82288Y-210835D01*
X82206Y-210931D01*
X82133Y-211027D01*
X82066Y-211115D01*
X82014Y-211196D01*
X81970Y-211263D01*
X81933Y-211315D01*
X81911Y-211359D01*
X81896Y-211388D01*
X81889Y-211396D01*
X81815Y-211551D01*
X81749Y-211713D01*
X81690Y-211868D01*
X81645Y-212023D01*
X81601Y-212185D01*
X81564Y-212333D01*
X81535Y-212480D01*
X81513Y-212613D01*
X81498Y-212739D01*
X81483Y-212857D01*
X81476Y-212960D01*
X81468Y-213049D01*
X81461Y-213123D01*
Y-213219D01*
X81476Y-213492D01*
X81505Y-213757D01*
X81542Y-214001D01*
X81572Y-214111D01*
X81594Y-214222D01*
X81616Y-214318D01*
X81645Y-214399D01*
X81668Y-214480D01*
X81682Y-214540D01*
X81704Y-214599D01*
X81712Y-214635D01*
X81727Y-214658D01*
Y-214665D01*
X81837Y-214931D01*
X81963Y-215182D01*
X82096Y-215410D01*
X82162Y-215521D01*
X82221Y-215617D01*
X82280Y-215706D01*
X82339Y-215787D01*
X82383Y-215861D01*
X82428Y-215920D01*
X82465Y-215971D01*
X82494Y-216008D01*
X82509Y-216030D01*
X82516Y-216038D01*
X81623D01*
X85048D01*
Y-213152D01*
X84243D01*
Y-215152D01*
X82966D01*
X82871Y-215034D01*
X82789Y-214901D01*
X82708Y-214761D01*
X82634Y-214621D01*
X82575Y-214495D01*
X82546Y-214444D01*
X82524Y-214399D01*
X82509Y-214355D01*
X82494Y-214325D01*
X82487Y-214311D01*
Y-214303D01*
X82413Y-214097D01*
X82361Y-213890D01*
X82317Y-213698D01*
X82295Y-213528D01*
X82288Y-213447D01*
X82280Y-213381D01*
X82273Y-213322D01*
Y-213270D01*
X82265Y-213226D01*
Y-213167D01*
X82280Y-212916D01*
X82310Y-212680D01*
X82361Y-212466D01*
X82383Y-212362D01*
X82413Y-212274D01*
X82442Y-212193D01*
X82465Y-212119D01*
X82494Y-212052D01*
X82516Y-211993D01*
X82531Y-211949D01*
X82546Y-211920D01*
X82560Y-211897D01*
Y-211890D01*
X82620Y-211779D01*
X82686Y-211676D01*
X82826Y-211499D01*
X82981Y-211344D01*
X83129Y-211211D01*
X83262Y-211115D01*
X83321Y-211071D01*
X83365Y-211041D01*
X83409Y-211012D01*
X83439Y-210997D01*
X83461Y-210990D01*
X83468Y-210982D01*
X83712Y-210879D01*
X83970Y-210805D01*
X84221Y-210746D01*
X84465Y-210709D01*
X84575Y-210702D01*
X84679Y-210687D01*
X84767Y-210680D01*
X84848D01*
X84907Y-210672D01*
X84959D01*
X84988D01*
X84996D01*
X85269Y-210687D01*
X85527Y-210717D01*
X85756Y-210754D01*
X85867Y-210776D01*
X85963Y-210805D01*
X86051Y-210827D01*
X86132Y-210849D01*
X86199Y-210872D01*
X86258Y-210894D01*
X86310Y-210909D01*
X86339Y-210923D01*
X86361Y-210931D01*
X86369D01*
X86501Y-210990D01*
X86627Y-211056D01*
X86745Y-211130D01*
X86841Y-211196D01*
X86922Y-211255D01*
X86989Y-211307D01*
X87025Y-211337D01*
X87040Y-211351D01*
X87151Y-211462D01*
X87247Y-211588D01*
X87335Y-211706D01*
X87409Y-211824D01*
X87468Y-211927D01*
X87505Y-212008D01*
X87520Y-212038D01*
X87535Y-212060D01*
X87542Y-212075D01*
Y-212082D01*
X87608Y-212259D01*
X87653Y-212436D01*
X87690Y-212621D01*
X87712Y-212783D01*
X87719Y-212864D01*
X87726Y-212931D01*
Y-212997D01*
X87734Y-213049D01*
Y-213152D01*
X87726Y-213337D01*
X87704Y-213514D01*
X87675Y-213669D01*
X87645Y-213809D01*
X87608Y-213920D01*
X87594Y-213971D01*
X87579Y-214008D01*
X87564Y-214038D01*
X87557Y-214060D01*
X87549Y-214075D01*
Y-214082D01*
X87476Y-214230D01*
X87402Y-214362D01*
X87321Y-214473D01*
X87247Y-214569D01*
X87173Y-214635D01*
X87121Y-214687D01*
X87085Y-214724D01*
X87070Y-214731D01*
X86952Y-214813D01*
X86819Y-214886D01*
X86686Y-214953D01*
X86553Y-215012D01*
X86435Y-215056D01*
X86383Y-215071D01*
X86347Y-215086D01*
X86310Y-215100D01*
X86280Y-215108D01*
X86265Y-215115D01*
X86258D01*
X86479Y-215934D01*
X86723Y-215861D01*
X86944Y-215779D01*
X87040Y-215735D01*
X87136Y-215691D01*
X87217Y-215654D01*
X87291Y-215610D01*
X87365Y-215573D01*
X87424Y-215536D01*
X87476Y-215499D01*
X87520Y-215477D01*
X87549Y-215447D01*
X87572Y-215433D01*
X87586Y-215425D01*
X87594Y-215418D01*
X87749Y-215278D01*
X87881Y-215130D01*
X87992Y-214975D01*
X88088Y-214820D01*
X88162Y-214687D01*
X88191Y-214628D01*
X88214Y-214576D01*
X88236Y-214540D01*
X88250Y-214510D01*
X88258Y-214488D01*
Y-214480D01*
X88339Y-214252D01*
X88398Y-214023D01*
X88442Y-213794D01*
X88472Y-213587D01*
X88479Y-213492D01*
X88487Y-213410D01*
X88494Y-213337D01*
X88501Y-213270D01*
Y-215362D01*
Y-213089D01*
Y-213145D01*
X88494Y-212960D01*
X88487Y-212776D01*
X88464Y-212599D01*
X88435Y-212436D01*
X88406Y-212274D01*
X88369Y-212126D01*
X88332Y-211986D01*
X88295Y-211861D01*
X88250Y-211750D01*
X88214Y-211647D01*
X88177Y-211558D01*
X88147Y-211484D01*
X88118Y-211425D01*
X88095Y-211381D01*
X88088Y-211351D01*
X88081Y-211344D01*
X88000Y-211204D01*
X87904Y-211071D01*
X87808Y-210946D01*
X87704Y-210835D01*
X87594Y-210724D01*
X87490Y-210628D01*
X87387Y-210540D01*
X87284Y-210458D01*
X87180Y-210392D01*
X87092Y-210326D01*
X87011Y-210274D01*
X86937Y-210230D01*
X86878Y-210200D01*
X86834Y-210178D01*
X86804Y-210163D01*
X86797Y-210156D01*
X86634Y-210082D01*
X86472Y-210023D01*
X86310Y-209964D01*
X86147Y-209920D01*
X85837Y-209846D01*
X85690Y-209816D01*
X85549Y-209794D01*
X85424Y-209779D01*
X85306Y-209765D01*
X85203Y-209757D01*
X85114Y-209750D01*
X85040Y-209742D01*
D02*
G37*
G36*
X67932Y-203872D02*
X62884D01*
Y-209731D01*
Y-207635D01*
X65747D01*
X65888Y-207643D01*
X66013Y-207650D01*
X66138Y-207665D01*
X66249Y-207687D01*
X66345Y-207717D01*
X66441Y-207746D01*
X66522Y-207776D01*
X66596Y-207813D01*
X66655Y-207842D01*
X66714Y-207872D01*
X66759Y-207901D01*
X66795Y-207931D01*
X66825Y-207953D01*
X66847Y-207968D01*
X66854Y-207982D01*
X66862D01*
X66921Y-208049D01*
X66980Y-208123D01*
X67061Y-208263D01*
X67128Y-208410D01*
X67164Y-208551D01*
X67194Y-208669D01*
X67201Y-208720D01*
Y-208765D01*
X67209Y-208802D01*
Y-208853D01*
X67201Y-208957D01*
X67186Y-209052D01*
X67164Y-209141D01*
X67142Y-209215D01*
X67113Y-209274D01*
X67091Y-209318D01*
X67076Y-209348D01*
X67068Y-209355D01*
X67017Y-209429D01*
X66958Y-209495D01*
X66899Y-209540D01*
X66840Y-209584D01*
X66788Y-209613D01*
X66751Y-209635D01*
X66722Y-209650D01*
X66714D01*
X66618Y-209680D01*
X66508Y-209695D01*
X66390Y-209709D01*
X66271Y-209724D01*
X66161D01*
X66072Y-209731D01*
X66043D01*
X66013D01*
X65998D01*
X65991D01*
X62884D01*
Y-210565D01*
X66271D01*
X66426Y-210558D01*
X66567Y-210551D01*
X66699Y-210528D01*
X66825Y-210506D01*
X66936Y-210477D01*
X67039Y-210440D01*
X67128Y-210403D01*
X67209Y-210366D01*
X67282Y-210329D01*
X67349Y-210292D01*
X67400Y-210263D01*
X67445Y-210226D01*
X67474Y-210204D01*
X67497Y-210182D01*
X67511Y-210174D01*
X67519Y-210167D01*
X67592Y-210093D01*
X67659Y-210004D01*
X67711Y-209916D01*
X67755Y-209827D01*
X67829Y-209635D01*
X67880Y-209458D01*
X67895Y-209370D01*
X67910Y-209289D01*
X67917Y-209222D01*
X67924Y-209156D01*
X67932Y-209111D01*
Y-209038D01*
X67924Y-208868D01*
X67895Y-208706D01*
X67851Y-208551D01*
X67799Y-208403D01*
X67733Y-208270D01*
X67659Y-208145D01*
X67578Y-208027D01*
X67504Y-207923D01*
X67423Y-207827D01*
X67342Y-207746D01*
X67268Y-207672D01*
X67201Y-207621D01*
X67150Y-207569D01*
X67105Y-207540D01*
X67076Y-207518D01*
X67068Y-207510D01*
X67216Y-207444D01*
X67342Y-207370D01*
X67445Y-207289D01*
X67541Y-207207D01*
X67607Y-207126D01*
X67659Y-207067D01*
X67696Y-207023D01*
X67703Y-207016D01*
Y-207008D01*
X67777Y-206868D01*
X67836Y-206720D01*
X67873Y-206573D01*
X67902Y-206433D01*
X67917Y-206307D01*
X67924Y-206256D01*
X67932Y-206204D01*
Y-206115D01*
X67924Y-205938D01*
X67895Y-205768D01*
X67866Y-205621D01*
X67821Y-205488D01*
X67784Y-205385D01*
X67762Y-205340D01*
X67747Y-205304D01*
X67733Y-205274D01*
X67718Y-205252D01*
X67711Y-205244D01*
Y-205237D01*
X67622Y-205097D01*
X67526Y-204979D01*
X67430Y-204875D01*
X67334Y-204787D01*
X67253Y-204713D01*
X67186Y-204661D01*
X67142Y-204632D01*
X67135Y-204617D01*
X67821D01*
Y-203872D01*
X67932D01*
D02*
G37*
G36*
X79980Y-209189D02*
X79176D01*
Y-211433D01*
X73169D01*
Y-214576D01*
Y-212333D01*
X79176D01*
Y-214576D01*
X73169D01*
X79980D01*
Y-209189D01*
D02*
G37*
G36*
X67932Y-211805D02*
X60995D01*
Y-216086D01*
D01*
Y-212639D01*
X63393D01*
X63297Y-212720D01*
X63209Y-212809D01*
X63127Y-212897D01*
X63068Y-212986D01*
X63017Y-213060D01*
X62972Y-213126D01*
X62950Y-213163D01*
X62943Y-213178D01*
X62884Y-213303D01*
X62847Y-213436D01*
X62818Y-213562D01*
X62795Y-213680D01*
X62781Y-213783D01*
X62773Y-213857D01*
Y-213931D01*
X62781Y-214041D01*
X62788Y-214145D01*
X62825Y-214344D01*
X62877Y-214528D01*
X62936Y-214691D01*
X62965Y-214765D01*
X62987Y-214831D01*
X63017Y-214883D01*
X63039Y-214934D01*
X63061Y-214971D01*
X63076Y-215001D01*
X63091Y-215016D01*
Y-215023D01*
X63223Y-215207D01*
X63371Y-215362D01*
X63526Y-215503D01*
X63681Y-215613D01*
X63814Y-215702D01*
X63873Y-215731D01*
X63924Y-215761D01*
X63961Y-215783D01*
X63991Y-215798D01*
X64013Y-215813D01*
X64021D01*
X64257Y-215901D01*
X64493Y-215967D01*
X64722Y-216019D01*
X64928Y-216049D01*
X65024Y-216063D01*
X65113Y-216071D01*
X65194Y-216078D01*
X65260D01*
X65312Y-216086D01*
X65386D01*
X65644Y-216078D01*
X65888Y-216049D01*
X66109Y-216004D01*
X66205Y-215982D01*
X66301Y-215960D01*
X66382Y-215938D01*
X66463Y-215916D01*
X66530Y-215894D01*
X66581Y-215872D01*
X66626Y-215857D01*
X66655Y-215842D01*
X66677Y-215835D01*
X66685D01*
X66891Y-215731D01*
X67076Y-215621D01*
X67231Y-215495D01*
X67364Y-215377D01*
X67467Y-215274D01*
X67541Y-215185D01*
X67563Y-215148D01*
X67585Y-215126D01*
X67600Y-215111D01*
Y-215104D01*
X67659Y-215016D01*
X67711Y-214920D01*
X67792Y-214728D01*
X67851Y-214543D01*
X67888Y-214366D01*
X67902Y-214285D01*
X67917Y-214218D01*
X67924Y-214152D01*
Y-214093D01*
X67932Y-214049D01*
Y-213990D01*
X67924Y-213820D01*
X67902Y-213658D01*
X67873Y-213517D01*
X67836Y-213399D01*
X67799Y-213303D01*
X67769Y-213230D01*
X67747Y-213185D01*
X67740Y-213178D01*
Y-213171D01*
X67659Y-213045D01*
X67570Y-212934D01*
X67474Y-212831D01*
X67386Y-212742D01*
X67305Y-212669D01*
X67231Y-212610D01*
X67186Y-212580D01*
X67179Y-212565D01*
X67821D01*
Y-211805D01*
X67932D01*
D02*
G37*
G36*
X78106Y-215381D02*
X74859D01*
X74696Y-215388D01*
X74563Y-215396D01*
X74453Y-215403D01*
X74372Y-215410D01*
X74305Y-215418D01*
X74276Y-215425D01*
X74261D01*
X74128Y-215462D01*
X74010Y-215499D01*
X73907Y-215543D01*
X73818Y-215587D01*
X73744Y-215624D01*
X73685Y-215654D01*
X73656Y-215676D01*
X73641Y-215683D01*
X73553Y-215757D01*
X73471Y-215846D01*
X73397Y-215942D01*
X73339Y-216030D01*
X73287Y-216119D01*
X73250Y-216185D01*
X73228Y-216230D01*
X73220Y-216237D01*
Y-216244D01*
X73169Y-216392D01*
X73124Y-216532D01*
X73095Y-216672D01*
X73080Y-216798D01*
X73065Y-216909D01*
X73058Y-216990D01*
Y-217063D01*
X73065Y-217248D01*
X73095Y-217418D01*
X73132Y-217573D01*
X73191Y-217728D01*
X73250Y-217868D01*
X73324Y-217993D01*
X73397Y-218111D01*
X73479Y-218222D01*
X73553Y-218318D01*
X73626Y-218399D01*
X73700Y-218473D01*
X73759Y-218532D01*
X73818Y-218576D01*
X73855Y-218606D01*
X73885Y-218628D01*
X73892Y-218635D01*
X73169D01*
Y-219381D01*
X73058D01*
X78106D01*
Y-218547D01*
X75457D01*
X75235Y-218540D01*
X75043Y-218525D01*
X74881Y-218503D01*
X74741Y-218480D01*
X74682Y-218466D01*
X74637Y-218451D01*
X74593Y-218436D01*
X74556Y-218429D01*
X74534Y-218421D01*
X74512Y-218414D01*
X74505Y-218407D01*
X74497D01*
X74379Y-218348D01*
X74276Y-218274D01*
X74187Y-218193D01*
X74113Y-218119D01*
X74054Y-218045D01*
X74010Y-217986D01*
X73980Y-217949D01*
X73973Y-217942D01*
Y-217934D01*
X73907Y-217809D01*
X73862Y-217691D01*
X73826Y-217573D01*
X73803Y-217462D01*
X73789Y-217366D01*
X73781Y-217300D01*
Y-217233D01*
X73789Y-217100D01*
X73811Y-216975D01*
X73840Y-216864D01*
X73877Y-216776D01*
X73907Y-216702D01*
X73936Y-216643D01*
X73958Y-216613D01*
X73966Y-216599D01*
X74040Y-216510D01*
X74128Y-216436D01*
X74209Y-216377D01*
X74291Y-216333D01*
X74364Y-216296D01*
X74431Y-216274D01*
X74468Y-216266D01*
X74482Y-216259D01*
X74527Y-216252D01*
X74586Y-216244D01*
X74718Y-216237D01*
X74866Y-216222D01*
X75014D01*
X75147Y-216215D01*
X75206D01*
X75265D01*
X75309D01*
X75339D01*
X75361D01*
X75368D01*
X78106D01*
Y-216990D01*
Y-215381D01*
D02*
G37*
G36*
X67932Y-217097D02*
X62884D01*
Y-217931D01*
X65578D01*
X65747Y-217938D01*
X65910Y-217945D01*
X66050Y-217968D01*
X66183Y-217990D01*
X66301Y-218019D01*
X66404Y-218049D01*
X66500Y-218086D01*
X66581Y-218123D01*
X66655Y-218159D01*
X66714Y-218196D01*
X66759Y-218226D01*
X66803Y-218255D01*
X66832Y-218278D01*
X66854Y-218300D01*
X66862Y-218307D01*
X66869Y-218314D01*
X66928Y-218388D01*
X66980Y-218469D01*
X67068Y-218624D01*
X67128Y-218779D01*
X67164Y-218919D01*
X67194Y-219045D01*
X67201Y-219104D01*
Y-219148D01*
X67209Y-219185D01*
Y-219237D01*
X67201Y-219362D01*
X67186Y-219473D01*
X67157Y-219569D01*
X67135Y-219657D01*
X67105Y-219724D01*
X67076Y-219776D01*
X67061Y-219812D01*
X67054Y-219820D01*
X66995Y-219908D01*
X66928Y-219982D01*
X66862Y-220041D01*
X66795Y-220086D01*
X66736Y-220123D01*
X66692Y-220145D01*
X66663Y-220159D01*
X66648Y-220167D01*
X66544Y-220204D01*
X66426Y-220226D01*
X66301Y-220248D01*
X66175Y-220255D01*
X66065Y-220263D01*
X66013Y-220270D01*
X65969D01*
X65939D01*
X65910D01*
X65895D01*
X65888D01*
X62884D01*
Y-221104D01*
X66116D01*
X66212Y-221097D01*
X66294D01*
X66367Y-221089D01*
X66434D01*
X66544Y-221082D01*
X66626Y-221067D01*
X66685Y-221060D01*
X66722Y-221052D01*
X66729D01*
X66862Y-221023D01*
X66980Y-220979D01*
X67083Y-220942D01*
X67172Y-220897D01*
X67246Y-220853D01*
X67305Y-220824D01*
X67334Y-220801D01*
X67349Y-220794D01*
X67445Y-220720D01*
X67526Y-220632D01*
X67592Y-220536D01*
X67659Y-220447D01*
X67703Y-220359D01*
X67740Y-220292D01*
X67762Y-220248D01*
X67769Y-220241D01*
Y-220233D01*
X67821Y-220093D01*
X67866Y-219953D01*
X67895Y-219812D01*
X67910Y-219687D01*
X67924Y-219576D01*
Y-219532D01*
X67932Y-219488D01*
Y-219414D01*
X67924Y-219230D01*
X67895Y-219052D01*
X67858Y-218890D01*
X67806Y-218735D01*
X67740Y-218595D01*
X67674Y-218469D01*
X67600Y-218351D01*
X67526Y-218248D01*
X67445Y-218152D01*
X67371Y-218071D01*
X67305Y-218004D01*
X67238Y-217953D01*
X67186Y-217909D01*
X67150Y-217872D01*
X67120Y-217857D01*
X67113Y-217849D01*
X67821D01*
Y-217097D01*
X67932D01*
D02*
G37*
G36*
X79980Y-220672D02*
X73169D01*
Y-221506D01*
X79980D01*
Y-220672D01*
D02*
G37*
G36*
X88383Y-217329D02*
X81572D01*
Y-221587D01*
X88383D01*
X82376D01*
Y-218230D01*
X88383D01*
Y-217329D01*
D02*
G37*
G36*
Y-222813D02*
X81572D01*
Y-223713D01*
X88383D01*
Y-222813D01*
D02*
G37*
G36*
X67821Y-222366D02*
X62773D01*
Y-226366D01*
D01*
Y-224049D01*
X62781Y-224233D01*
X62810Y-224403D01*
X62847Y-224558D01*
X62906Y-224713D01*
X62965Y-224853D01*
X63039Y-224978D01*
X63113Y-225097D01*
X63194Y-225207D01*
X63268Y-225303D01*
X63341Y-225384D01*
X63415Y-225458D01*
X63474Y-225517D01*
X63533Y-225561D01*
X63570Y-225591D01*
X63600Y-225613D01*
X63607Y-225621D01*
X62884D01*
Y-226366D01*
X67821D01*
Y-225532D01*
X65172D01*
X64950Y-225525D01*
X64758Y-225510D01*
X64596Y-225488D01*
X64456Y-225466D01*
X64397Y-225451D01*
X64353Y-225436D01*
X64308Y-225421D01*
X64271Y-225414D01*
X64249Y-225407D01*
X64227Y-225399D01*
X64220Y-225392D01*
X64212D01*
X64094Y-225333D01*
X63991Y-225259D01*
X63902Y-225178D01*
X63829Y-225104D01*
X63770Y-225030D01*
X63725Y-224971D01*
X63696Y-224934D01*
X63688Y-224927D01*
Y-224920D01*
X63622Y-224794D01*
X63578Y-224676D01*
X63541Y-224558D01*
X63519Y-224447D01*
X63504Y-224351D01*
X63497Y-224285D01*
Y-224218D01*
X63504Y-224086D01*
X63526Y-223960D01*
X63556Y-223849D01*
X63592Y-223761D01*
X63622Y-223687D01*
X63652Y-223628D01*
X63674Y-223599D01*
X63681Y-223584D01*
X63755Y-223495D01*
X63843Y-223421D01*
X63924Y-223362D01*
X64006Y-223318D01*
X64079Y-223281D01*
X64146Y-223259D01*
X64183Y-223252D01*
X64198Y-223244D01*
X64242Y-223237D01*
X64301Y-223230D01*
X64434Y-223222D01*
X64581Y-223207D01*
X64729D01*
X64862Y-223200D01*
X64921D01*
X64980D01*
X65024D01*
X65054D01*
X65076D01*
X65083D01*
X67821D01*
Y-222366D01*
D02*
G37*
G36*
X78217Y-222525D02*
X73058D01*
X74468D01*
X74357Y-222532D01*
X74246Y-222547D01*
X74143Y-222562D01*
X74047Y-222591D01*
X73870Y-222665D01*
X73730Y-222746D01*
X73663Y-222783D01*
X73611Y-222820D01*
X73560Y-222857D01*
X73523Y-222894D01*
X73493Y-222923D01*
X73471Y-222938D01*
X73457Y-222953D01*
X73449Y-222960D01*
X73383Y-223049D01*
X73324Y-223137D01*
X73265Y-223240D01*
X73220Y-223337D01*
X73154Y-223543D01*
X73110Y-223750D01*
X73088Y-223838D01*
X73080Y-223927D01*
X73073Y-224008D01*
X73065Y-224075D01*
X73058Y-224126D01*
Y-224207D01*
X73065Y-224392D01*
X73080Y-224562D01*
X73110Y-224716D01*
X73139Y-224857D01*
X73169Y-224968D01*
X73184Y-225019D01*
X73198Y-225056D01*
X73206Y-225085D01*
X73213Y-225108D01*
X73220Y-225122D01*
Y-225130D01*
X73294Y-225292D01*
X73375Y-225454D01*
X73471Y-225602D01*
X73567Y-225742D01*
X73648Y-225860D01*
X73693Y-225905D01*
X73722Y-225949D01*
X73752Y-225986D01*
X73774Y-226008D01*
X73781Y-226023D01*
X73789Y-226030D01*
X73656Y-226045D01*
X73538Y-226067D01*
X73434Y-226097D01*
X73346Y-226126D01*
X73272Y-226148D01*
X73213Y-226170D01*
X73184Y-226185D01*
X73169Y-226192D01*
Y-227063D01*
X73272Y-227012D01*
X73383Y-226967D01*
X73479Y-226930D01*
X73567Y-226901D01*
X73648Y-226879D01*
X73707Y-226864D01*
X73744Y-226857D01*
X73759D01*
X73826Y-226849D01*
X73914Y-226842D01*
X74010Y-226835D01*
X74121Y-226827D01*
X74239Y-226820D01*
X74364D01*
X74615Y-226813D01*
X74733D01*
X74851Y-226805D01*
X74955D01*
X75051D01*
X75124D01*
X75183D01*
X75220D01*
X75235D01*
X76350D01*
X76453D01*
X76541D01*
X76623Y-226798D01*
X76704D01*
X76837Y-226790D01*
X76940Y-226783D01*
X77021Y-226776D01*
X77073Y-226768D01*
X77110Y-226761D01*
X77117D01*
X77242Y-226731D01*
X77353Y-226687D01*
X77449Y-226643D01*
X77530Y-226598D01*
X77597Y-226561D01*
X77648Y-226525D01*
X77678Y-226502D01*
X77685Y-226495D01*
X77767Y-226414D01*
X77840Y-226325D01*
X77907Y-226229D01*
X77958Y-226133D01*
X78003Y-226045D01*
X78032Y-225978D01*
X78047Y-225949D01*
X78054Y-225927D01*
X78062Y-225920D01*
Y-225912D01*
X78113Y-225757D01*
X78150Y-225587D01*
X78180Y-225418D01*
X78194Y-225255D01*
X78209Y-225115D01*
Y-225049D01*
X78217Y-224997D01*
Y-227063D01*
X73058D01*
X78217D01*
Y-224894D01*
X78209Y-224665D01*
X78187Y-224451D01*
X78158Y-224259D01*
X78143Y-224170D01*
X78128Y-224097D01*
X78113Y-224023D01*
X78099Y-223956D01*
X78084Y-223905D01*
X78069Y-223861D01*
X78054Y-223824D01*
X78047Y-223794D01*
X78039Y-223779D01*
Y-223772D01*
X77966Y-223602D01*
X77885Y-223455D01*
X77803Y-223329D01*
X77722Y-223226D01*
X77648Y-223145D01*
X77589Y-223086D01*
X77552Y-223049D01*
X77545Y-223034D01*
X77538D01*
X77412Y-222945D01*
X77272Y-222871D01*
X77132Y-222813D01*
X76999Y-222761D01*
X76881Y-222724D01*
X76829Y-222709D01*
X76785Y-222694D01*
X76748Y-222687D01*
X76718Y-222680D01*
X76704Y-222672D01*
X76696D01*
X76586Y-223492D01*
X76682Y-223521D01*
X76770Y-223551D01*
X76918Y-223609D01*
X77051Y-223683D01*
X77147Y-223750D01*
X77220Y-223809D01*
X77279Y-223861D01*
X77309Y-223890D01*
X77316Y-223905D01*
X77383Y-224023D01*
X77434Y-224163D01*
X77471Y-224303D01*
X77501Y-224444D01*
X77516Y-224576D01*
Y-224628D01*
X77523Y-224680D01*
Y-224776D01*
X77508Y-224997D01*
X77479Y-225189D01*
X77434Y-225351D01*
X77383Y-225484D01*
X77324Y-225587D01*
X77302Y-225624D01*
X77279Y-225661D01*
X77265Y-225691D01*
X77250Y-225706D01*
X77235Y-225720D01*
X77147Y-225801D01*
X77036Y-225860D01*
X76918Y-225905D01*
X76800Y-225934D01*
X76689Y-225949D01*
X76600Y-225964D01*
X76571D01*
X76541D01*
X76527D01*
X76519D01*
X76497D01*
X76468D01*
X76394D01*
X76364Y-225956D01*
X76335D01*
X76313D01*
X76305D01*
X76276Y-225860D01*
X76246Y-225757D01*
X76217Y-225639D01*
X76187Y-225521D01*
X76135Y-225277D01*
X76091Y-225034D01*
X76076Y-224916D01*
X76062Y-224813D01*
X76047Y-224716D01*
X76032Y-224628D01*
X76025Y-224562D01*
X76017Y-224510D01*
X76010Y-224480D01*
Y-224466D01*
X75988Y-224289D01*
X75966Y-224141D01*
X75944Y-224008D01*
X75929Y-223905D01*
X75907Y-223824D01*
X75899Y-223764D01*
X75885Y-223735D01*
Y-223720D01*
X75848Y-223602D01*
X75803Y-223484D01*
X75759Y-223381D01*
X75715Y-223292D01*
X75678Y-223218D01*
X75641Y-223167D01*
X75619Y-223130D01*
X75612Y-223115D01*
X75538Y-223019D01*
X75464Y-222938D01*
X75383Y-222864D01*
X75309Y-222805D01*
X75235Y-222754D01*
X75183Y-222717D01*
X75147Y-222694D01*
X75132Y-222687D01*
X75014Y-222635D01*
X74903Y-222591D01*
X74792Y-222562D01*
X74689Y-222547D01*
X74600Y-222532D01*
X74527Y-222525D01*
X78217D01*
D02*
G37*
G36*
X74121Y-228259D02*
X71818D01*
Y-229270D01*
Y-228488D01*
Y-228259D01*
X74121D01*
Y-228318D01*
X73169D01*
Y-228790D01*
X73021Y-228783D01*
X72888Y-228761D01*
X72778Y-228739D01*
X72689Y-228716D01*
X72615Y-228694D01*
X72564Y-228672D01*
X72527Y-228658D01*
X72519Y-228650D01*
X72438Y-228598D01*
X72372Y-228539D01*
X72313Y-228473D01*
X72261Y-228407D01*
X72224Y-228347D01*
X72195Y-228303D01*
X72180Y-228274D01*
X72172Y-228259D01*
X71818Y-228488D01*
X71892Y-228628D01*
X71973Y-228753D01*
X72054Y-228857D01*
X72136Y-228938D01*
X72209Y-228997D01*
X72268Y-229041D01*
X72305Y-229071D01*
X72320Y-229078D01*
X72453Y-229145D01*
X72593Y-229189D01*
X72733Y-229226D01*
X72866Y-229248D01*
X72984Y-229263D01*
X73036D01*
X73080Y-229270D01*
X74121D01*
Y-228259D01*
D02*
G37*
G36*
X69541Y-227200D02*
X62818D01*
X67172D01*
Y-227820D01*
X64323D01*
X64190D01*
X64065Y-227827D01*
X63954D01*
X63851Y-227835D01*
X63762Y-227842D01*
X63681Y-227849D01*
X63607Y-227857D01*
X63548Y-227871D01*
X63497Y-227879D01*
X63452Y-227886D01*
X63415Y-227894D01*
X63386Y-227901D01*
X63349Y-227908D01*
X63334Y-227916D01*
X63253Y-227960D01*
X63179Y-228012D01*
X63113Y-228071D01*
X63061Y-228130D01*
X63017Y-228189D01*
X62987Y-228233D01*
X62965Y-228263D01*
X62958Y-228270D01*
X62914Y-228373D01*
X62877Y-228484D01*
X62854Y-228602D01*
X62832Y-228720D01*
X62825Y-228823D01*
X62818Y-228905D01*
Y-228860D01*
Y-228978D01*
X62832Y-229200D01*
X62840Y-229303D01*
X62854Y-229399D01*
X62869Y-229488D01*
X62877Y-229554D01*
X62891Y-229598D01*
Y-229613D01*
D01*
D01*
D01*
X63853D01*
X62891D01*
X63629Y-229503D01*
X63622Y-229421D01*
X63615Y-229347D01*
X63607Y-229281D01*
Y-229229D01*
X63600Y-229185D01*
Y-229060D01*
X63607Y-229001D01*
X63622Y-228956D01*
X63629Y-228912D01*
X63644Y-228883D01*
X63652Y-228860D01*
X63659Y-228846D01*
Y-228838D01*
X63710Y-228779D01*
X63762Y-228735D01*
X63806Y-228705D01*
X63814Y-228698D01*
X63821D01*
X63873Y-228683D01*
X63939Y-228676D01*
X64013Y-228661D01*
X64087D01*
X64161Y-228654D01*
X64220D01*
X64264D01*
X64271D01*
X64279D01*
X67172D01*
Y-229503D01*
X67821D01*
Y-228654D01*
X69541D01*
Y-229503D01*
Y-227200D01*
D02*
G37*
G36*
X67932Y-229990D02*
X62773D01*
D01*
X67932D01*
D02*
G37*
G36*
X88383Y-225292D02*
X81572D01*
Y-226156D01*
X86915D01*
X81572Y-229728D01*
Y-230657D01*
X88383D01*
Y-225292D01*
D02*
G37*
G36*
X64353Y-229990D02*
X64212Y-230019D01*
X64072Y-230056D01*
X63947Y-230100D01*
X63836Y-230145D01*
X63725Y-230196D01*
X63629Y-230248D01*
X63541Y-230299D01*
X63460Y-230359D01*
X63393Y-230410D01*
X63334Y-230462D01*
X63283Y-230506D01*
X63238Y-230543D01*
X63209Y-230580D01*
X63187Y-230602D01*
X63172Y-230617D01*
X63164Y-230624D01*
X63098Y-230728D01*
X63039Y-230831D01*
X62980Y-230949D01*
X62936Y-231067D01*
X62869Y-231318D01*
X62825Y-231554D01*
X62803Y-231665D01*
X62795Y-231768D01*
X62788Y-231864D01*
X62781Y-231938D01*
X62773Y-232004D01*
Y-234093D01*
Y-232100D01*
X62781Y-232314D01*
X62803Y-232506D01*
X62840Y-232683D01*
X62877Y-232838D01*
X62891Y-232905D01*
X62906Y-232964D01*
X62928Y-233015D01*
X62943Y-233060D01*
X62958Y-233097D01*
X62965Y-233119D01*
X62972Y-233133D01*
Y-233141D01*
X63054Y-233303D01*
X63142Y-233443D01*
X63238Y-233561D01*
X63334Y-233665D01*
X63415Y-233739D01*
X63482Y-233798D01*
X63526Y-233827D01*
X63533Y-233842D01*
X63541D01*
X63681Y-233923D01*
X63821Y-233990D01*
X63954Y-234034D01*
X64072Y-234063D01*
X64175Y-234078D01*
X64257Y-234093D01*
X64330D01*
X64485Y-234085D01*
X64626Y-234063D01*
X64744Y-234026D01*
X64847Y-233990D01*
X64936Y-233953D01*
X64995Y-233916D01*
X65031Y-233894D01*
X65046Y-233886D01*
X65150Y-233805D01*
X65238Y-233716D01*
X65312Y-233621D01*
X65371Y-233532D01*
X65423Y-233458D01*
X65452Y-233392D01*
X65474Y-233347D01*
X65482Y-233340D01*
Y-233333D01*
X65511Y-233259D01*
X65541Y-233178D01*
X65578Y-233089D01*
X65607Y-232993D01*
X65674Y-232794D01*
X65733Y-232587D01*
X65762Y-232491D01*
X65792Y-232395D01*
X65814Y-232314D01*
X65836Y-232248D01*
X65851Y-232181D01*
X65865Y-232137D01*
X65873Y-232108D01*
Y-232100D01*
X65902Y-231990D01*
X65932Y-231894D01*
X65954Y-231805D01*
X65976Y-231724D01*
X65998Y-231657D01*
X66013Y-231598D01*
X66028Y-231547D01*
X66043Y-231502D01*
X66065Y-231436D01*
X66079Y-231392D01*
X66087Y-231370D01*
Y-231362D01*
X66124Y-231288D01*
X66161Y-231222D01*
X66198Y-231163D01*
X66234Y-231119D01*
X66264Y-231082D01*
X66286Y-231060D01*
X66301Y-231045D01*
X66308Y-231037D01*
X66360Y-231008D01*
X66412Y-230986D01*
X66508Y-230956D01*
X66544Y-230949D01*
X66574Y-230942D01*
X66596D01*
X66603D01*
X66699Y-230949D01*
X66781Y-230978D01*
X66862Y-231015D01*
X66928Y-231067D01*
X66980Y-231111D01*
X67017Y-231148D01*
X67046Y-231178D01*
X67054Y-231185D01*
X67091Y-231237D01*
X67120Y-231288D01*
X67164Y-231414D01*
X67201Y-231554D01*
X67223Y-231687D01*
X67238Y-231812D01*
Y-231864D01*
X67246Y-231908D01*
Y-232004D01*
X67238Y-232181D01*
X67209Y-232329D01*
X67179Y-232462D01*
X67135Y-232573D01*
X67098Y-232654D01*
X67061Y-232713D01*
X67032Y-232750D01*
X67024Y-232764D01*
X66936Y-232853D01*
X66840Y-232927D01*
X66744Y-232986D01*
X66648Y-233030D01*
X66567Y-233060D01*
X66493Y-233074D01*
X66448Y-233089D01*
X66441D01*
X66434D01*
X66544Y-233908D01*
X66714Y-233871D01*
X66862Y-233827D01*
X66995Y-233783D01*
X67105Y-233731D01*
X67186Y-233687D01*
X67253Y-233650D01*
X67290Y-233621D01*
X67305Y-233613D01*
X67408Y-233525D01*
X67497Y-233421D01*
X67578Y-233318D01*
X67644Y-233215D01*
X67696Y-233111D01*
X67733Y-233037D01*
X67747Y-233008D01*
X67755Y-232986D01*
X67762Y-232971D01*
Y-232964D01*
X67821Y-232794D01*
X67858Y-232624D01*
X67888Y-232447D01*
X67910Y-232292D01*
X67924Y-232152D01*
Y-232093D01*
X67932Y-232041D01*
Y-231945D01*
X67924Y-231805D01*
X67917Y-231672D01*
X67902Y-231547D01*
X67880Y-231443D01*
X67858Y-231347D01*
X67843Y-231281D01*
X67836Y-231237D01*
X67829Y-231229D01*
Y-231222D01*
X67792Y-231104D01*
X67747Y-230993D01*
X67703Y-230905D01*
X67666Y-230831D01*
X67637Y-230772D01*
X67607Y-230728D01*
X67592Y-230698D01*
X67585Y-230691D01*
X67511Y-230595D01*
X67437Y-230514D01*
X67356Y-230440D01*
X67282Y-230388D01*
X67216Y-230336D01*
X67164Y-230307D01*
X67135Y-230285D01*
X67120Y-230277D01*
X67017Y-230226D01*
X66906Y-230189D01*
X66803Y-230167D01*
X66707Y-230152D01*
X66626Y-230137D01*
X66567Y-230130D01*
X66522D01*
X66515D01*
X66508D01*
X66375Y-230137D01*
X66249Y-230159D01*
X66138Y-230189D01*
X66043Y-230218D01*
X65961Y-230248D01*
X65895Y-230277D01*
X65858Y-230299D01*
X65843Y-230307D01*
X65740Y-230381D01*
X65644Y-230469D01*
X65570Y-230558D01*
X65504Y-230646D01*
X65445Y-230728D01*
X65408Y-230787D01*
X65386Y-230831D01*
X65378Y-230838D01*
Y-230846D01*
X65349Y-230919D01*
X65312Y-231008D01*
X65275Y-231097D01*
X65246Y-231200D01*
X65179Y-231414D01*
X65113Y-231621D01*
X65083Y-231724D01*
X65054Y-231820D01*
X65031Y-231908D01*
X65009Y-231982D01*
X64995Y-232041D01*
X64980Y-232093D01*
X64973Y-232122D01*
Y-232130D01*
X64943Y-232248D01*
X64913Y-232359D01*
X64884Y-232462D01*
X64854Y-232550D01*
X64832Y-232632D01*
X64810Y-232698D01*
X64788Y-232757D01*
X64766Y-232816D01*
X64751Y-232860D01*
X64736Y-232897D01*
X64714Y-232949D01*
X64699Y-232979D01*
X64692Y-232986D01*
X64626Y-233067D01*
X64552Y-233133D01*
X64478Y-233178D01*
X64404Y-233207D01*
X64345Y-233222D01*
X64286Y-233237D01*
X64257D01*
X64242D01*
X64124Y-233222D01*
X64021Y-233192D01*
X63924Y-233148D01*
X63843Y-233097D01*
X63777Y-233045D01*
X63733Y-233001D01*
X63696Y-232971D01*
X63688Y-232956D01*
X63615Y-232838D01*
X63556Y-232705D01*
X63519Y-232558D01*
X63489Y-232418D01*
X63474Y-232292D01*
X63467Y-232241D01*
Y-232189D01*
X63460Y-232152D01*
Y-232093D01*
X63474Y-231894D01*
X63504Y-231716D01*
X63541Y-231561D01*
X63592Y-231436D01*
X63637Y-231333D01*
X63681Y-231259D01*
X63710Y-231215D01*
X63718Y-231207D01*
Y-231200D01*
X63829Y-231089D01*
X63947Y-231008D01*
X64079Y-230942D01*
X64205Y-230890D01*
X64316Y-230853D01*
X64360Y-230838D01*
X64404Y-230831D01*
X64441Y-230823D01*
X64463D01*
X64478Y-230816D01*
X64485D01*
X64353Y-229990D01*
D02*
G37*
G36*
X86509Y-234192D02*
X81572Y-236060D01*
Y-234192D01*
X86509D01*
X81572D01*
Y-238731D01*
Y-236857D01*
X86509Y-238731D01*
Y-237868D01*
X83490Y-236768D01*
X83291Y-236694D01*
X83114Y-236635D01*
X82952Y-236584D01*
X82819Y-236539D01*
X82708Y-236502D01*
X82664Y-236488D01*
X82620Y-236480D01*
X82590Y-236473D01*
X82568Y-236466D01*
X82560Y-236458D01*
X82553D01*
X82745Y-236399D01*
X82929Y-236347D01*
X83099Y-236296D01*
X83247Y-236244D01*
X83372Y-236200D01*
X83424Y-236185D01*
X83468Y-236170D01*
X83505Y-236156D01*
X83527Y-236148D01*
X83542Y-236141D01*
X83549D01*
X86509Y-235078D01*
Y-234192D01*
D02*
G37*
G36*
X63836Y-235318D02*
X62884D01*
Y-236270D01*
X63836D01*
Y-235318D01*
D02*
G37*
G36*
X79980Y-233499D02*
X73169D01*
Y-239491D01*
D01*
X75021Y-238311D01*
X75213Y-238178D01*
X75390Y-238045D01*
X75545Y-237919D01*
X75678Y-237809D01*
X75781Y-237713D01*
X75826Y-237668D01*
X75862Y-237632D01*
X75892Y-237602D01*
X75914Y-237580D01*
X75921Y-237573D01*
X75929Y-237565D01*
X75988Y-237491D01*
X76054Y-237403D01*
X76106Y-237314D01*
X76158Y-237226D01*
X76202Y-237144D01*
X76239Y-237078D01*
X76261Y-237034D01*
X76268Y-237026D01*
Y-237019D01*
X76298Y-237196D01*
X76335Y-237366D01*
X76379Y-237521D01*
X76423Y-237661D01*
X76475Y-237794D01*
X76527Y-237912D01*
X76578Y-238015D01*
X76630Y-238111D01*
X76682Y-238200D01*
X76733Y-238274D01*
X76777Y-238333D01*
X76814Y-238384D01*
X76851Y-238421D01*
X76873Y-238451D01*
X76888Y-238465D01*
X76896Y-238473D01*
X76992Y-238554D01*
X77087Y-238628D01*
X77191Y-238694D01*
X77294Y-238746D01*
X77398Y-238790D01*
X77501Y-238827D01*
X77693Y-238886D01*
X77781Y-238908D01*
X77862Y-238923D01*
X77936Y-238930D01*
X78003Y-238938D01*
X78047Y-238945D01*
X78091D01*
X78113D01*
X78121D01*
X78327Y-238930D01*
X78519Y-238901D01*
X78689Y-238857D01*
X78844Y-238805D01*
X78910Y-238775D01*
X78969Y-238746D01*
X79021Y-238724D01*
X79065Y-238702D01*
X79102Y-238687D01*
X79124Y-238672D01*
X79139Y-238657D01*
X79146D01*
X79309Y-238547D01*
X79442Y-238421D01*
X79560Y-238296D01*
X79648Y-238170D01*
X79715Y-238067D01*
X79759Y-237978D01*
X79774Y-237942D01*
X79789Y-237919D01*
X79796Y-237905D01*
Y-237897D01*
X79826Y-237801D01*
X79855Y-237705D01*
X79899Y-237484D01*
X79936Y-237255D01*
X79958Y-237034D01*
X79966Y-236923D01*
X79973Y-236827D01*
Y-236746D01*
X79980Y-236665D01*
Y-233499D01*
D02*
G37*
G36*
X82524Y-239705D02*
X81572D01*
Y-240657D01*
X82524D01*
Y-239705D01*
D02*
G37*
G36*
X67932Y-237480D02*
X62773D01*
Y-241768D01*
Y-239716D01*
X62781Y-239864D01*
X62795Y-240004D01*
X62818Y-240137D01*
X62847Y-240270D01*
X62884Y-240388D01*
X62928Y-240499D01*
X62965Y-240602D01*
X63017Y-240698D01*
X63061Y-240779D01*
X63098Y-240860D01*
X63142Y-240919D01*
X63179Y-240978D01*
X63209Y-241015D01*
X63231Y-241052D01*
X63246Y-241067D01*
X63253Y-241074D01*
X63349Y-241170D01*
X63445Y-241266D01*
X63556Y-241347D01*
X63666Y-241414D01*
X63777Y-241480D01*
X63888Y-241539D01*
X64094Y-241628D01*
X64198Y-241665D01*
X64286Y-241694D01*
X64367Y-241716D01*
X64441Y-241739D01*
X64500Y-241753D01*
X64544Y-241761D01*
X64574Y-241768D01*
X64581D01*
X64692Y-240949D01*
X64574Y-240927D01*
X64471Y-240905D01*
X64367Y-240875D01*
X64279Y-240845D01*
X64190Y-240809D01*
X64116Y-240779D01*
X64050Y-240742D01*
X63984Y-240705D01*
X63932Y-240668D01*
X63888Y-240639D01*
X63814Y-240580D01*
X63770Y-240543D01*
X63762Y-240536D01*
X63755Y-240528D01*
X63659Y-240395D01*
X63585Y-240263D01*
X63533Y-240122D01*
X63497Y-239997D01*
X63474Y-239879D01*
X63467Y-239834D01*
Y-239790D01*
X63460Y-239753D01*
Y-239709D01*
X63467Y-239598D01*
X63482Y-239488D01*
X63504Y-239392D01*
X63533Y-239296D01*
X63600Y-239126D01*
X63688Y-238978D01*
X63725Y-238919D01*
X63770Y-238868D01*
X63806Y-238823D01*
X63843Y-238779D01*
X63866Y-238750D01*
X63888Y-238727D01*
X63902Y-238720D01*
X63910Y-238713D01*
X63998Y-238646D01*
X64102Y-238587D01*
X64212Y-238536D01*
X64323Y-238499D01*
X64567Y-238425D01*
X64803Y-238381D01*
X64913Y-238366D01*
X65017Y-238358D01*
X65113Y-238351D01*
X65194Y-238344D01*
X65260Y-238336D01*
X65312D01*
X65349D01*
X65356D01*
X65533Y-238344D01*
X65703Y-238351D01*
X65851Y-238373D01*
X65991Y-238395D01*
X66124Y-238425D01*
X66242Y-238462D01*
X66345Y-238499D01*
X66441Y-238536D01*
X66522Y-238565D01*
X66596Y-238602D01*
X66655Y-238639D01*
X66699Y-238668D01*
X66744Y-238691D01*
X66766Y-238713D01*
X66781Y-238720D01*
X66788Y-238727D01*
X66869Y-238801D01*
X66936Y-238882D01*
X67002Y-238971D01*
X67054Y-239052D01*
X67098Y-239141D01*
X67135Y-239222D01*
X67186Y-239384D01*
X67223Y-239532D01*
X67231Y-239591D01*
X67238Y-239650D01*
X67246Y-239694D01*
Y-239753D01*
X67238Y-239901D01*
X67209Y-240041D01*
X67164Y-240159D01*
X67120Y-240263D01*
X67068Y-240344D01*
X67032Y-240410D01*
X67002Y-240447D01*
X66987Y-240462D01*
X66884Y-240565D01*
X66766Y-240654D01*
X66640Y-240720D01*
X66522Y-240779D01*
X66412Y-240823D01*
X66323Y-240853D01*
X66286Y-240860D01*
X66264Y-240868D01*
X66249Y-240875D01*
X66242D01*
X66367Y-241687D01*
X66500Y-241657D01*
X66633Y-241613D01*
X66751Y-241569D01*
X66862Y-241525D01*
X66965Y-241473D01*
X67061Y-241414D01*
X67142Y-241362D01*
X67223Y-241303D01*
X67290Y-241251D01*
X67349Y-241200D01*
X67400Y-241156D01*
X67445Y-241111D01*
X67474Y-241082D01*
X67497Y-241052D01*
X67511Y-241037D01*
X67519Y-241030D01*
X67592Y-240934D01*
X67659Y-240831D01*
X67711Y-240720D01*
X67755Y-240609D01*
X67829Y-240388D01*
X67880Y-240181D01*
X67895Y-240085D01*
X67910Y-239997D01*
X67917Y-239916D01*
X67924Y-239849D01*
X67932Y-239798D01*
Y-239716D01*
X67917Y-239488D01*
X67888Y-239266D01*
X67836Y-239067D01*
X67806Y-238978D01*
X67784Y-238890D01*
X67755Y-238816D01*
X67725Y-238750D01*
X67703Y-238691D01*
X67674Y-238639D01*
X67659Y-238595D01*
X67644Y-238565D01*
X67629Y-238550D01*
Y-238543D01*
X67504Y-238351D01*
X67364Y-238189D01*
X67209Y-238049D01*
X67068Y-237938D01*
X66936Y-237849D01*
X66877Y-237820D01*
X66825Y-237790D01*
X66788Y-237768D01*
X66759Y-237753D01*
X66736Y-237738D01*
X66729D01*
X66500Y-237650D01*
X66257Y-237591D01*
X66021Y-237547D01*
X65806Y-237510D01*
X65703Y-237502D01*
X65615Y-237495D01*
X65533Y-237488D01*
X65460D01*
X65408Y-237480D01*
X67932D01*
D02*
G37*
G36*
X78106Y-240229D02*
X74859D01*
X74696Y-240237D01*
X74563Y-240244D01*
X74453Y-240251D01*
X74372Y-240259D01*
X74305Y-240266D01*
X74276Y-240274D01*
X74261D01*
X74128Y-240311D01*
X74010Y-240347D01*
X73907Y-240392D01*
X73818Y-240436D01*
X73744Y-240473D01*
X73685Y-240502D01*
X73656Y-240525D01*
X73641Y-240532D01*
X73553Y-240606D01*
X73471Y-240694D01*
X73397Y-240790D01*
X73339Y-240879D01*
X73287Y-240967D01*
X73250Y-241034D01*
X73228Y-241078D01*
X73220Y-241085D01*
Y-241093D01*
X73169Y-241240D01*
X73124Y-241381D01*
X73095Y-241521D01*
X73080Y-241646D01*
X73065Y-241757D01*
X73058Y-241838D01*
Y-241912D01*
X73065Y-242096D01*
X73095Y-242266D01*
X73132Y-242421D01*
X73191Y-242576D01*
X73250Y-242716D01*
X73324Y-242842D01*
X73397Y-242960D01*
X73479Y-243071D01*
X73553Y-243166D01*
X73626Y-243248D01*
X73700Y-243321D01*
X73759Y-243381D01*
X73818Y-243425D01*
X73855Y-243454D01*
X73885Y-243477D01*
X73892Y-243484D01*
X73169D01*
Y-244229D01*
X73058D01*
X78106D01*
Y-243395D01*
X75457D01*
X75235Y-243388D01*
X75043Y-243373D01*
X74881Y-243351D01*
X74741Y-243329D01*
X74682Y-243314D01*
X74637Y-243299D01*
X74593Y-243285D01*
X74556Y-243277D01*
X74534Y-243270D01*
X74512Y-243263D01*
X74505Y-243255D01*
X74497D01*
X74379Y-243196D01*
X74276Y-243122D01*
X74187Y-243041D01*
X74113Y-242967D01*
X74054Y-242894D01*
X74010Y-242834D01*
X73980Y-242797D01*
X73973Y-242790D01*
Y-242783D01*
X73907Y-242657D01*
X73862Y-242539D01*
X73826Y-242421D01*
X73803Y-242311D01*
X73789Y-242214D01*
X73781Y-242148D01*
Y-242082D01*
X73789Y-241949D01*
X73811Y-241823D01*
X73840Y-241713D01*
X73877Y-241624D01*
X73907Y-241550D01*
X73936Y-241491D01*
X73958Y-241462D01*
X73966Y-241447D01*
X74040Y-241358D01*
X74128Y-241285D01*
X74209Y-241226D01*
X74291Y-241181D01*
X74364Y-241144D01*
X74431Y-241122D01*
X74468Y-241115D01*
X74482Y-241108D01*
X74527Y-241100D01*
X74586Y-241093D01*
X74718Y-241085D01*
X74866Y-241071D01*
X75014D01*
X75147Y-241063D01*
X75206D01*
X75265D01*
X75309D01*
X75339D01*
X75361D01*
X75368D01*
X78106D01*
Y-241993D01*
Y-240229D01*
D02*
G37*
G36*
X81682Y-241764D02*
X81572D01*
Y-246273D01*
X88406D01*
D01*
X82376D01*
Y-242916D01*
X82538Y-243034D01*
X82612Y-243093D01*
X82679Y-243152D01*
X82738Y-243203D01*
X82782Y-243240D01*
X82811Y-243270D01*
X82819Y-243277D01*
X82863Y-243321D01*
X82922Y-243381D01*
X82981Y-243447D01*
X83048Y-243521D01*
X83195Y-243676D01*
X83335Y-243838D01*
X83468Y-243993D01*
X83527Y-244059D01*
X83579Y-244126D01*
X83623Y-244170D01*
X83653Y-244215D01*
X83675Y-244237D01*
X83682Y-244244D01*
X83823Y-244406D01*
X83955Y-244561D01*
X84073Y-244702D01*
X84192Y-244827D01*
X84295Y-244945D01*
X84398Y-245048D01*
X84487Y-245144D01*
X84568Y-245233D01*
X84634Y-245307D01*
X84701Y-245366D01*
X84752Y-245417D01*
X84797Y-245462D01*
X84834Y-245491D01*
X84856Y-245521D01*
X84870Y-245528D01*
X84878Y-245535D01*
X85040Y-245676D01*
X85188Y-245786D01*
X85328Y-245882D01*
X85453Y-245964D01*
X85557Y-246023D01*
X85638Y-246067D01*
X85668Y-246082D01*
X85690Y-246089D01*
X85697Y-246096D01*
X85704D01*
X85852Y-246155D01*
X86000Y-246192D01*
X86132Y-246222D01*
X86258Y-246244D01*
X86361Y-246259D01*
X86442Y-246266D01*
X86472D01*
X86494D01*
X86501D01*
X86509D01*
X86656Y-246259D01*
X86797Y-246244D01*
X86930Y-246215D01*
X87062Y-246178D01*
X87180Y-246133D01*
X87291Y-246082D01*
X87394Y-246030D01*
X87483Y-245978D01*
X87572Y-245927D01*
X87645Y-245875D01*
X87712Y-245823D01*
X87763Y-245779D01*
X87800Y-245742D01*
X87837Y-245713D01*
X87852Y-245698D01*
X87859Y-245690D01*
X87955Y-245580D01*
X88037Y-245462D01*
X88110Y-245336D01*
X88177Y-245203D01*
X88228Y-245078D01*
X88273Y-244945D01*
X88310Y-244820D01*
X88339Y-244694D01*
X88361Y-244584D01*
X88376Y-244473D01*
X88391Y-244377D01*
X88398Y-244296D01*
X88406Y-244229D01*
Y-244133D01*
X88398Y-243956D01*
X88383Y-243787D01*
X88361Y-243632D01*
X88324Y-243484D01*
X88287Y-243344D01*
X88243Y-243218D01*
X88199Y-243100D01*
X88155Y-242997D01*
X88103Y-242901D01*
X88059Y-242820D01*
X88014Y-242746D01*
X87977Y-242687D01*
X87941Y-242643D01*
X87918Y-242613D01*
X87904Y-242591D01*
X87896Y-242583D01*
X87800Y-242480D01*
X87690Y-242392D01*
X87579Y-242311D01*
X87454Y-242237D01*
X87335Y-242178D01*
X87217Y-242119D01*
X87092Y-242074D01*
X86981Y-242037D01*
X86870Y-242001D01*
X86767Y-241978D01*
X86671Y-241956D01*
X86590Y-241941D01*
X86524Y-241934D01*
X86479Y-241927D01*
X86450Y-241919D01*
X86435D01*
X86347Y-242775D01*
X86465Y-242783D01*
X86575Y-242790D01*
X86767Y-242834D01*
X86944Y-242894D01*
X87018Y-242923D01*
X87085Y-242960D01*
X87143Y-242989D01*
X87195Y-243026D01*
X87239Y-243056D01*
X87276Y-243078D01*
X87306Y-243108D01*
X87328Y-243122D01*
X87335Y-243130D01*
X87343Y-243137D01*
X87409Y-243211D01*
X87468Y-243285D01*
X87512Y-243366D01*
X87557Y-243447D01*
X87623Y-243609D01*
X87668Y-243764D01*
X87690Y-243897D01*
X87704Y-243956D01*
Y-244008D01*
X87712Y-244052D01*
Y-244215D01*
X87697Y-244318D01*
X87660Y-244502D01*
X87601Y-244657D01*
X87542Y-244797D01*
X87476Y-244901D01*
X87446Y-244945D01*
X87417Y-244982D01*
X87394Y-245011D01*
X87380Y-245034D01*
X87372Y-245041D01*
X87365Y-245048D01*
X87299Y-245115D01*
X87232Y-245166D01*
X87166Y-245218D01*
X87092Y-245255D01*
X86952Y-245321D01*
X86819Y-245366D01*
X86708Y-245388D01*
X86656Y-245403D01*
X86612D01*
X86583Y-245410D01*
X86553D01*
X86538D01*
X86531D01*
X86442Y-245403D01*
X86354Y-245395D01*
X86177Y-245351D01*
X86007Y-245285D01*
X85852Y-245211D01*
X85719Y-245137D01*
X85668Y-245108D01*
X85616Y-245071D01*
X85579Y-245048D01*
X85549Y-245026D01*
X85535Y-245019D01*
X85527Y-245011D01*
X85424Y-244930D01*
X85313Y-244834D01*
X85195Y-244724D01*
X85077Y-244606D01*
X84834Y-244362D01*
X84605Y-244111D01*
X84494Y-243993D01*
X84398Y-243875D01*
X84310Y-243772D01*
X84236Y-243683D01*
X84169Y-243609D01*
X84125Y-243558D01*
X84088Y-243521D01*
X84081Y-243506D01*
X83970Y-243373D01*
X83867Y-243255D01*
X83771Y-243137D01*
X83675Y-243034D01*
X83586Y-242930D01*
X83498Y-242842D01*
X83424Y-242761D01*
X83350Y-242687D01*
X83284Y-242620D01*
X83225Y-242569D01*
X83173Y-242517D01*
X83136Y-242480D01*
X83099Y-242443D01*
X83077Y-242421D01*
X83062Y-242414D01*
X83055Y-242406D01*
X82893Y-242274D01*
X82730Y-242163D01*
X82575Y-242067D01*
X82435Y-241993D01*
X82317Y-241934D01*
X82265Y-241912D01*
X82228Y-241890D01*
X82191Y-241875D01*
X82169Y-241868D01*
X82155Y-241860D01*
X82147D01*
X82044Y-241823D01*
X81941Y-241801D01*
X81845Y-241779D01*
X81756Y-241772D01*
X81682Y-241764D01*
D02*
G37*
G36*
X67932Y-242174D02*
X62773D01*
D01*
X65349D01*
X65120Y-242181D01*
X64906Y-242203D01*
X64707Y-242233D01*
X64522Y-242270D01*
X64353Y-242321D01*
X64198Y-242373D01*
X64057Y-242432D01*
X63924Y-242491D01*
X63814Y-242550D01*
X63710Y-242609D01*
X63629Y-242661D01*
X63563Y-242713D01*
X63504Y-242750D01*
X63467Y-242779D01*
X63445Y-242801D01*
X63437Y-242809D01*
X63319Y-242934D01*
X63216Y-243067D01*
X63127Y-243200D01*
X63054Y-243340D01*
X62987Y-243480D01*
X62936Y-243620D01*
X62891Y-243753D01*
X62854Y-243886D01*
X62832Y-244011D01*
X62810Y-244122D01*
X62795Y-244226D01*
X62781Y-244314D01*
Y-244388D01*
X62773Y-244440D01*
Y-244484D01*
X62788Y-244720D01*
X62818Y-244941D01*
X62869Y-245141D01*
X62891Y-245237D01*
X62921Y-245318D01*
X62950Y-245399D01*
X62972Y-245465D01*
X63002Y-245524D01*
X63024Y-245576D01*
X63039Y-245620D01*
X63054Y-245650D01*
X63068Y-245665D01*
Y-245672D01*
X63194Y-245864D01*
X63327Y-246034D01*
X63467Y-246174D01*
X63607Y-246292D01*
X63725Y-246388D01*
X63784Y-246425D01*
X63829Y-246454D01*
X63866Y-246477D01*
X63895Y-246491D01*
X63910Y-246506D01*
X63917D01*
X64028Y-246558D01*
X64139Y-246602D01*
X64382Y-246676D01*
X64633Y-246727D01*
X64869Y-246757D01*
X64980Y-246772D01*
X65083Y-246779D01*
X65179Y-246786D01*
X65260D01*
X65327Y-246794D01*
X65415D01*
X65629Y-246786D01*
X65836Y-246764D01*
X66028Y-246735D01*
X66205Y-246691D01*
X66367Y-246646D01*
X66515Y-246587D01*
X66655Y-246528D01*
X66781Y-246469D01*
X66891Y-246410D01*
X66987Y-246351D01*
X67068Y-246292D01*
X67135Y-246248D01*
X67194Y-246203D01*
X67231Y-246174D01*
X67253Y-246152D01*
X67260Y-246144D01*
X67378Y-246019D01*
X67482Y-245886D01*
X67570Y-245753D01*
X67651Y-245613D01*
X67711Y-245473D01*
X67769Y-245340D01*
X67814Y-245200D01*
X67851Y-245074D01*
X67873Y-244949D01*
X67895Y-244838D01*
X67910Y-244742D01*
X67924Y-244654D01*
Y-244580D01*
X67932Y-244528D01*
Y-244484D01*
X67924Y-244314D01*
X67910Y-244152D01*
X67880Y-244004D01*
X67843Y-243857D01*
X67806Y-243716D01*
X67755Y-243591D01*
X67711Y-243473D01*
X67659Y-243370D01*
X67607Y-243266D01*
X67555Y-243185D01*
X67504Y-243111D01*
X67467Y-243045D01*
X67430Y-243001D01*
X67400Y-242964D01*
X67386Y-242941D01*
X67378Y-242934D01*
X67246Y-242801D01*
X67105Y-242683D01*
X66950Y-242580D01*
X66788Y-242491D01*
X66618Y-242425D01*
X66448Y-242358D01*
X66279Y-242307D01*
X66116Y-242270D01*
X65961Y-242240D01*
X65821Y-242211D01*
X65688Y-242196D01*
X65570Y-242189D01*
X65482Y-242181D01*
X65408Y-242174D01*
X67932D01*
D01*
D02*
G37*
G36*
X74637Y-245211D02*
X74497Y-245240D01*
X74357Y-245277D01*
X74231Y-245321D01*
X74121Y-245366D01*
X74010Y-245417D01*
X73914Y-245469D01*
X73826Y-245521D01*
X73744Y-245580D01*
X73678Y-245632D01*
X73619Y-245683D01*
X73567Y-245727D01*
X73523Y-245764D01*
X73493Y-245801D01*
X73471Y-245823D01*
X73457Y-245838D01*
X73449Y-245846D01*
X73383Y-245949D01*
X73324Y-246052D01*
X73265Y-246170D01*
X73220Y-246288D01*
X73154Y-246539D01*
X73110Y-246775D01*
X73088Y-246886D01*
X73080Y-246989D01*
X73073Y-247085D01*
X73065Y-247159D01*
X73058Y-247225D01*
Y-249314D01*
Y-247322D01*
X73065Y-247535D01*
X73088Y-247727D01*
X73124Y-247904D01*
X73161Y-248060D01*
X73176Y-248126D01*
X73191Y-248185D01*
X73213Y-248237D01*
X73228Y-248281D01*
X73242Y-248318D01*
X73250Y-248340D01*
X73257Y-248355D01*
Y-248362D01*
X73339Y-248524D01*
X73427Y-248665D01*
X73523Y-248783D01*
X73619Y-248886D01*
X73700Y-248960D01*
X73766Y-249019D01*
X73811Y-249048D01*
X73818Y-249063D01*
X73826D01*
X73966Y-249144D01*
X74106Y-249211D01*
X74239Y-249255D01*
X74357Y-249285D01*
X74460Y-249299D01*
X74541Y-249314D01*
X78217D01*
X74615D01*
X74770Y-249307D01*
X74910Y-249285D01*
X75029Y-249248D01*
X75132Y-249211D01*
X75220Y-249174D01*
X75279Y-249137D01*
X75316Y-249115D01*
X75331Y-249107D01*
X75434Y-249026D01*
X75523Y-248938D01*
X75597Y-248842D01*
X75656Y-248753D01*
X75707Y-248679D01*
X75737Y-248613D01*
X75759Y-248569D01*
X75766Y-248561D01*
Y-248554D01*
X75796Y-248480D01*
X75826Y-248399D01*
X75862Y-248310D01*
X75892Y-248215D01*
X75958Y-248015D01*
X76017Y-247809D01*
X76047Y-247713D01*
X76076Y-247617D01*
X76099Y-247535D01*
X76121Y-247469D01*
X76135Y-247403D01*
X76150Y-247358D01*
X76158Y-247329D01*
Y-247322D01*
X76187Y-247211D01*
X76217Y-247115D01*
X76239Y-247026D01*
X76261Y-246945D01*
X76283Y-246879D01*
X76298Y-246820D01*
X76313Y-246768D01*
X76327Y-246724D01*
X76350Y-246657D01*
X76364Y-246613D01*
X76372Y-246591D01*
Y-246584D01*
X76409Y-246510D01*
X76446Y-246443D01*
X76482Y-246384D01*
X76519Y-246340D01*
X76549Y-246303D01*
X76571Y-246281D01*
X76586Y-246266D01*
X76593Y-246259D01*
X76645Y-246229D01*
X76696Y-246207D01*
X76792Y-246178D01*
X76829Y-246170D01*
X76859Y-246163D01*
X76881D01*
X76888D01*
X76984Y-246170D01*
X77065Y-246200D01*
X77147Y-246237D01*
X77213Y-246288D01*
X77265Y-246333D01*
X77302Y-246370D01*
X77331Y-246399D01*
X77338Y-246406D01*
X77375Y-246458D01*
X77405Y-246510D01*
X77449Y-246635D01*
X77486Y-246775D01*
X77508Y-246908D01*
X77523Y-247034D01*
Y-247085D01*
X77530Y-247130D01*
Y-247225D01*
X77523Y-247403D01*
X77493Y-247550D01*
X77464Y-247683D01*
X77420Y-247794D01*
X77383Y-247875D01*
X77346Y-247934D01*
X77316Y-247971D01*
X77309Y-247986D01*
X77220Y-248074D01*
X77124Y-248148D01*
X77029Y-248207D01*
X76933Y-248251D01*
X76851Y-248281D01*
X76777Y-248296D01*
X76733Y-248310D01*
X76726D01*
X76718D01*
X76829Y-249130D01*
X76999Y-249093D01*
X77147Y-249048D01*
X77279Y-249004D01*
X77390Y-248953D01*
X77471Y-248908D01*
X77538Y-248871D01*
X77575Y-248842D01*
X77589Y-248834D01*
X77693Y-248746D01*
X77781Y-248642D01*
X77862Y-248539D01*
X77929Y-248436D01*
X77981Y-248333D01*
X78017Y-248259D01*
X78032Y-248229D01*
X78039Y-248207D01*
X78047Y-248192D01*
Y-248185D01*
X78106Y-248015D01*
X78143Y-247846D01*
X78172Y-247668D01*
X78194Y-247513D01*
X78209Y-247373D01*
Y-247314D01*
X78217Y-247262D01*
Y-247166D01*
X78209Y-247026D01*
X78202Y-246893D01*
X78187Y-246768D01*
X78165Y-246665D01*
X78143Y-246569D01*
X78128Y-246502D01*
X78121Y-246458D01*
X78113Y-246451D01*
Y-246443D01*
X78076Y-246325D01*
X78032Y-246215D01*
X77988Y-246126D01*
X77951Y-246052D01*
X77921Y-245993D01*
X77892Y-245949D01*
X77877Y-245919D01*
X77870Y-245912D01*
X77796Y-245816D01*
X77722Y-245735D01*
X77641Y-245661D01*
X77567Y-245609D01*
X77501Y-245558D01*
X77449Y-245528D01*
X77420Y-245506D01*
X77405Y-245499D01*
X77302Y-245447D01*
X77191Y-245410D01*
X77087Y-245388D01*
X76992Y-245373D01*
X76910Y-245358D01*
X76851Y-245351D01*
X76807D01*
X76800D01*
X76792D01*
X76660Y-245358D01*
X76534Y-245380D01*
X76423Y-245410D01*
X76327Y-245440D01*
X76246Y-245469D01*
X76180Y-245499D01*
X76143Y-245521D01*
X76128Y-245528D01*
X76025Y-245602D01*
X75929Y-245690D01*
X75855Y-245779D01*
X75789Y-245868D01*
X75730Y-245949D01*
X75693Y-246008D01*
X75671Y-246052D01*
X75663Y-246059D01*
Y-246067D01*
X75634Y-246141D01*
X75597Y-246229D01*
X75560Y-246318D01*
X75530Y-246421D01*
X75464Y-246635D01*
X75397Y-246842D01*
X75368Y-246945D01*
X75339Y-247041D01*
X75316Y-247130D01*
X75294Y-247203D01*
X75279Y-247262D01*
X75265Y-247314D01*
X75257Y-247344D01*
Y-247351D01*
X75228Y-247469D01*
X75198Y-247580D01*
X75169Y-247683D01*
X75139Y-247772D01*
X75117Y-247853D01*
X75095Y-247919D01*
X75073Y-247978D01*
X75051Y-248037D01*
X75036Y-248082D01*
X75021Y-248118D01*
X74999Y-248170D01*
X74984Y-248200D01*
X74977Y-248207D01*
X74910Y-248288D01*
X74837Y-248355D01*
X74763Y-248399D01*
X74689Y-248429D01*
X74630Y-248443D01*
X74571Y-248458D01*
X74541D01*
X74527D01*
X74409Y-248443D01*
X74305Y-248414D01*
X74209Y-248369D01*
X74128Y-248318D01*
X74062Y-248266D01*
X74017Y-248222D01*
X73980Y-248192D01*
X73973Y-248178D01*
X73899Y-248060D01*
X73840Y-247927D01*
X73803Y-247779D01*
X73774Y-247639D01*
X73759Y-247513D01*
X73752Y-247462D01*
Y-247410D01*
X73744Y-247373D01*
Y-247314D01*
X73759Y-247115D01*
X73789Y-246938D01*
X73826Y-246783D01*
X73877Y-246657D01*
X73922Y-246554D01*
X73966Y-246480D01*
X73995Y-246436D01*
X74003Y-246428D01*
Y-246421D01*
X74113Y-246310D01*
X74231Y-246229D01*
X74364Y-246163D01*
X74490Y-246111D01*
X74600Y-246074D01*
X74645Y-246059D01*
X74689Y-246052D01*
X74726Y-246045D01*
X74748D01*
X74763Y-246037D01*
X74770D01*
X74637Y-245211D01*
D02*
G37*
G36*
Y-249971D02*
X74497Y-250000D01*
X74357Y-250037D01*
X74231Y-250082D01*
X74121Y-250126D01*
X74010Y-250178D01*
X73914Y-250229D01*
X73826Y-250281D01*
X73744Y-250340D01*
X73678Y-250392D01*
X73619Y-250443D01*
X73567Y-250487D01*
X73523Y-250524D01*
X73493Y-250561D01*
X73471Y-250583D01*
X73457Y-250598D01*
X73449Y-250606D01*
X73383Y-250709D01*
X73324Y-250812D01*
X73265Y-250930D01*
X73220Y-251048D01*
X73154Y-251299D01*
X73110Y-251536D01*
X73088Y-251646D01*
X73080Y-251749D01*
X73073Y-251845D01*
X73065Y-251919D01*
X73058Y-251986D01*
Y-254074D01*
Y-252082D01*
X73065Y-252296D01*
X73088Y-252487D01*
X73124Y-252665D01*
X73161Y-252820D01*
X73176Y-252886D01*
X73191Y-252945D01*
X73213Y-252997D01*
X73228Y-253041D01*
X73242Y-253078D01*
X73250Y-253100D01*
X73257Y-253115D01*
Y-253122D01*
X73339Y-253285D01*
X73427Y-253425D01*
X73523Y-253543D01*
X73619Y-253646D01*
X73700Y-253720D01*
X73766Y-253779D01*
X73811Y-253808D01*
X73818Y-253823D01*
X73826D01*
X73966Y-253904D01*
X74106Y-253971D01*
X74239Y-254015D01*
X74357Y-254045D01*
X74460Y-254059D01*
X74541Y-254074D01*
X78217D01*
X74615D01*
X74770Y-254067D01*
X74910Y-254045D01*
X75029Y-254008D01*
X75132Y-253971D01*
X75220Y-253934D01*
X75279Y-253897D01*
X75316Y-253875D01*
X75331Y-253868D01*
X75434Y-253786D01*
X75523Y-253698D01*
X75597Y-253602D01*
X75656Y-253513D01*
X75707Y-253439D01*
X75737Y-253373D01*
X75759Y-253329D01*
X75766Y-253321D01*
Y-253314D01*
X75796Y-253240D01*
X75826Y-253159D01*
X75862Y-253070D01*
X75892Y-252975D01*
X75958Y-252775D01*
X76017Y-252569D01*
X76047Y-252473D01*
X76076Y-252377D01*
X76099Y-252296D01*
X76121Y-252229D01*
X76135Y-252163D01*
X76150Y-252118D01*
X76158Y-252089D01*
Y-252082D01*
X76187Y-251971D01*
X76217Y-251875D01*
X76239Y-251786D01*
X76261Y-251705D01*
X76283Y-251639D01*
X76298Y-251580D01*
X76313Y-251528D01*
X76327Y-251484D01*
X76350Y-251417D01*
X76364Y-251373D01*
X76372Y-251351D01*
Y-251344D01*
X76409Y-251270D01*
X76446Y-251203D01*
X76482Y-251144D01*
X76519Y-251100D01*
X76549Y-251063D01*
X76571Y-251041D01*
X76586Y-251026D01*
X76593Y-251019D01*
X76645Y-250989D01*
X76696Y-250967D01*
X76792Y-250938D01*
X76829Y-250930D01*
X76859Y-250923D01*
X76881D01*
X76888D01*
X76984Y-250930D01*
X77065Y-250960D01*
X77147Y-250997D01*
X77213Y-251048D01*
X77265Y-251093D01*
X77302Y-251130D01*
X77331Y-251159D01*
X77338Y-251167D01*
X77375Y-251218D01*
X77405Y-251270D01*
X77449Y-251395D01*
X77486Y-251536D01*
X77508Y-251668D01*
X77523Y-251794D01*
Y-251845D01*
X77530Y-251890D01*
Y-251986D01*
X77523Y-252163D01*
X77493Y-252310D01*
X77464Y-252443D01*
X77420Y-252554D01*
X77383Y-252635D01*
X77346Y-252694D01*
X77316Y-252731D01*
X77309Y-252746D01*
X77220Y-252834D01*
X77124Y-252908D01*
X77029Y-252967D01*
X76933Y-253011D01*
X76851Y-253041D01*
X76777Y-253056D01*
X76733Y-253070D01*
X76726D01*
X76718D01*
X76829Y-253890D01*
X76999Y-253853D01*
X77147Y-253808D01*
X77279Y-253764D01*
X77390Y-253713D01*
X77471Y-253668D01*
X77538Y-253631D01*
X77575Y-253602D01*
X77589Y-253594D01*
X77693Y-253506D01*
X77781Y-253403D01*
X77862Y-253299D01*
X77929Y-253196D01*
X77981Y-253093D01*
X78017Y-253019D01*
X78032Y-252989D01*
X78039Y-252967D01*
X78047Y-252952D01*
Y-252945D01*
X78106Y-252775D01*
X78143Y-252606D01*
X78172Y-252428D01*
X78194Y-252274D01*
X78209Y-252133D01*
Y-252074D01*
X78217Y-252023D01*
Y-251927D01*
X78209Y-251786D01*
X78202Y-251654D01*
X78187Y-251528D01*
X78165Y-251425D01*
X78143Y-251329D01*
X78128Y-251262D01*
X78121Y-251218D01*
X78113Y-251211D01*
Y-251203D01*
X78076Y-251085D01*
X78032Y-250975D01*
X77988Y-250886D01*
X77951Y-250812D01*
X77921Y-250753D01*
X77892Y-250709D01*
X77877Y-250679D01*
X77870Y-250672D01*
X77796Y-250576D01*
X77722Y-250495D01*
X77641Y-250421D01*
X77567Y-250369D01*
X77501Y-250318D01*
X77449Y-250288D01*
X77420Y-250266D01*
X77405Y-250259D01*
X77302Y-250207D01*
X77191Y-250170D01*
X77087Y-250148D01*
X76992Y-250133D01*
X76910Y-250118D01*
X76851Y-250111D01*
X76807D01*
X76800D01*
X76792D01*
X76660Y-250118D01*
X76534Y-250141D01*
X76423Y-250170D01*
X76327Y-250200D01*
X76246Y-250229D01*
X76180Y-250259D01*
X76143Y-250281D01*
X76128Y-250288D01*
X76025Y-250362D01*
X75929Y-250451D01*
X75855Y-250539D01*
X75789Y-250628D01*
X75730Y-250709D01*
X75693Y-250768D01*
X75671Y-250812D01*
X75663Y-250820D01*
Y-250827D01*
X75634Y-250901D01*
X75597Y-250989D01*
X75560Y-251078D01*
X75530Y-251181D01*
X75464Y-251395D01*
X75397Y-251602D01*
X75368Y-251705D01*
X75339Y-251801D01*
X75316Y-251890D01*
X75294Y-251963D01*
X75279Y-252023D01*
X75265Y-252074D01*
X75257Y-252104D01*
Y-252111D01*
X75228Y-252229D01*
X75198Y-252340D01*
X75169Y-252443D01*
X75139Y-252532D01*
X75117Y-252613D01*
X75095Y-252679D01*
X75073Y-252738D01*
X75051Y-252797D01*
X75036Y-252842D01*
X75021Y-252879D01*
X74999Y-252930D01*
X74984Y-252960D01*
X74977Y-252967D01*
X74910Y-253048D01*
X74837Y-253115D01*
X74763Y-253159D01*
X74689Y-253189D01*
X74630Y-253203D01*
X74571Y-253218D01*
X74541D01*
X74527D01*
X74409Y-253203D01*
X74305Y-253174D01*
X74209Y-253130D01*
X74128Y-253078D01*
X74062Y-253026D01*
X74017Y-252982D01*
X73980Y-252952D01*
X73973Y-252938D01*
X73899Y-252820D01*
X73840Y-252687D01*
X73803Y-252539D01*
X73774Y-252399D01*
X73759Y-252274D01*
X73752Y-252222D01*
Y-252170D01*
X73744Y-252133D01*
Y-252074D01*
X73759Y-251875D01*
X73789Y-251698D01*
X73826Y-251543D01*
X73877Y-251417D01*
X73922Y-251314D01*
X73966Y-251240D01*
X73995Y-251196D01*
X74003Y-251189D01*
Y-251181D01*
X74113Y-251070D01*
X74231Y-250989D01*
X74364Y-250923D01*
X74490Y-250871D01*
X74600Y-250834D01*
X74645Y-250820D01*
X74689Y-250812D01*
X74726Y-250805D01*
X74748D01*
X74763Y-250798D01*
X74770D01*
X74637Y-249971D01*
D02*
G37*
G36*
X67932Y-247768D02*
X62884D01*
Y-248602D01*
X65445D01*
X65570D01*
X65681Y-248609D01*
X65792Y-248617D01*
X65888Y-248624D01*
X65984Y-248631D01*
X66065Y-248646D01*
X66138Y-248654D01*
X66212Y-248668D01*
X66271Y-248683D01*
X66323Y-248691D01*
X66367Y-248705D01*
X66404Y-248713D01*
X66434Y-248720D01*
X66456Y-248727D01*
X66463Y-248735D01*
X66471D01*
X66596Y-248794D01*
X66707Y-248860D01*
X66803Y-248934D01*
X66877Y-249008D01*
X66943Y-249067D01*
X66980Y-249118D01*
X67009Y-249155D01*
X67017Y-249170D01*
X67083Y-249288D01*
X67128Y-249399D01*
X67164Y-249510D01*
X67186Y-249613D01*
X67201Y-249701D01*
X67209Y-249768D01*
Y-249827D01*
X67194Y-249989D01*
X67164Y-250130D01*
X67120Y-250240D01*
X67068Y-250336D01*
X67017Y-250403D01*
X66973Y-250454D01*
X66943Y-250484D01*
X66928Y-250491D01*
X66810Y-250558D01*
X66677Y-250609D01*
X66537Y-250646D01*
X66404Y-250676D01*
X66279Y-250691D01*
X66227D01*
X66183Y-250698D01*
X66138D01*
X66109D01*
X66094D01*
X66087D01*
X62884D01*
Y-251532D01*
X65747D01*
X65888Y-251539D01*
X66013Y-251547D01*
X66138Y-251561D01*
X66249Y-251583D01*
X66345Y-251613D01*
X66441Y-251642D01*
X66522Y-251672D01*
X66596Y-251709D01*
X66655Y-251738D01*
X66714Y-251768D01*
X66759Y-251797D01*
X66795Y-251827D01*
X66825Y-251849D01*
X66847Y-251864D01*
X66854Y-251879D01*
X66862D01*
X66921Y-251945D01*
X66980Y-252019D01*
X67061Y-252159D01*
X67128Y-252307D01*
X67164Y-252447D01*
X67194Y-252565D01*
X67201Y-252617D01*
Y-252661D01*
X67209Y-252698D01*
Y-252749D01*
X67201Y-252853D01*
X67186Y-252949D01*
X67164Y-253037D01*
X67142Y-253111D01*
X67113Y-253170D01*
X67091Y-253214D01*
X67076Y-253244D01*
X67068Y-253251D01*
X67017Y-253325D01*
X66958Y-253392D01*
X66899Y-253436D01*
X66840Y-253480D01*
X66788Y-253510D01*
X66751Y-253532D01*
X66722Y-253547D01*
X66714D01*
X66618Y-253576D01*
X66508Y-253591D01*
X66390Y-253606D01*
X66271Y-253620D01*
X66161D01*
X66072Y-253628D01*
X66043D01*
X66013D01*
X65998D01*
X65991D01*
X62884D01*
Y-254462D01*
X66271D01*
X66426Y-254454D01*
X66567Y-254447D01*
X66699Y-254425D01*
X66825Y-254403D01*
X66936Y-254373D01*
X67039Y-254336D01*
X67128Y-254299D01*
X67209Y-254262D01*
X67282Y-254225D01*
X67349Y-254189D01*
X67400Y-254159D01*
X67445Y-254122D01*
X67474Y-254100D01*
X67497Y-254078D01*
X67511Y-254070D01*
X67519Y-254063D01*
X67592Y-253989D01*
X67659Y-253901D01*
X67711Y-253812D01*
X67755Y-253724D01*
X67829Y-253532D01*
X67880Y-253355D01*
X67895Y-253266D01*
X67910Y-253185D01*
X67917Y-253118D01*
X67924Y-253052D01*
X67932Y-253008D01*
Y-252934D01*
X67924Y-252764D01*
X67895Y-252602D01*
X67851Y-252447D01*
X67799Y-252299D01*
X67733Y-252166D01*
X67659Y-252041D01*
X67578Y-251923D01*
X67504Y-251820D01*
X67423Y-251724D01*
X67342Y-251642D01*
X67268Y-251569D01*
X67201Y-251517D01*
X67150Y-251465D01*
X67105Y-251436D01*
X67076Y-251414D01*
X67068Y-251406D01*
X67216Y-251340D01*
X67342Y-251266D01*
X67445Y-251185D01*
X67541Y-251104D01*
X67607Y-251023D01*
X67659Y-250963D01*
X67696Y-250919D01*
X67703Y-250912D01*
Y-250904D01*
X67777Y-250764D01*
X67836Y-250617D01*
X67873Y-250469D01*
X67902Y-250329D01*
X67917Y-250203D01*
X67924Y-250152D01*
X67932Y-250100D01*
Y-250011D01*
X67924Y-249834D01*
X67895Y-249665D01*
X67866Y-249517D01*
X67821Y-249384D01*
X67784Y-249281D01*
X67762Y-249237D01*
X67747Y-249200D01*
X67733Y-249170D01*
X67718Y-249148D01*
X67711Y-249141D01*
Y-249133D01*
X67622Y-248993D01*
X67526Y-248875D01*
X67430Y-248772D01*
X67334Y-248683D01*
X67253Y-248609D01*
X67186Y-248558D01*
X67142Y-248528D01*
X67135Y-248513D01*
X67821D01*
Y-247768D01*
X67932D01*
D01*
D02*
G37*
G36*
X79980Y-255070D02*
X73169D01*
Y-255904D01*
X78106D01*
Y-255070D01*
X79028D01*
Y-255904D01*
X79980D01*
Y-255070D01*
D02*
G37*
G36*
X78217Y-256893D02*
X73058D01*
X74468D01*
X74357Y-256901D01*
X74246Y-256915D01*
X74143Y-256930D01*
X74047Y-256960D01*
X73870Y-257034D01*
X73730Y-257115D01*
X73663Y-257152D01*
X73611Y-257189D01*
X73560Y-257225D01*
X73523Y-257262D01*
X73493Y-257292D01*
X73471Y-257307D01*
X73457Y-257321D01*
X73449Y-257329D01*
X73383Y-257417D01*
X73324Y-257506D01*
X73265Y-257609D01*
X73220Y-257705D01*
X73154Y-257912D01*
X73110Y-258118D01*
X73088Y-258207D01*
X73080Y-258295D01*
X73073Y-258377D01*
X73065Y-258443D01*
X73058Y-258495D01*
Y-258576D01*
X73065Y-258760D01*
X73080Y-258930D01*
X73110Y-259085D01*
X73139Y-259225D01*
X73169Y-259336D01*
X73184Y-259388D01*
X73198Y-259425D01*
X73206Y-259454D01*
X73213Y-259476D01*
X73220Y-259491D01*
Y-259499D01*
X73294Y-259661D01*
X73375Y-259823D01*
X73471Y-259971D01*
X73567Y-260111D01*
X73648Y-260229D01*
X73693Y-260273D01*
X73722Y-260318D01*
X73752Y-260355D01*
X73774Y-260377D01*
X73781Y-260391D01*
X73789Y-260399D01*
X73656Y-260414D01*
X73538Y-260436D01*
X73434Y-260465D01*
X73346Y-260495D01*
X73272Y-260517D01*
X73213Y-260539D01*
X73184Y-260554D01*
X73169Y-260561D01*
Y-261432D01*
X73272Y-261380D01*
X73383Y-261336D01*
X73479Y-261299D01*
X73567Y-261270D01*
X73648Y-261247D01*
X73707Y-261233D01*
X73744Y-261225D01*
X73759D01*
X73826Y-261218D01*
X73914Y-261211D01*
X74010Y-261203D01*
X74121Y-261196D01*
X74239Y-261189D01*
X74364D01*
X74615Y-261181D01*
X74733D01*
X74851Y-261174D01*
X74955D01*
X75051D01*
X75124D01*
X75183D01*
X75220D01*
X75235D01*
X76350D01*
X76453D01*
X76541D01*
X76623Y-261166D01*
X76704D01*
X76837Y-261159D01*
X76940Y-261152D01*
X77021Y-261144D01*
X77073Y-261137D01*
X77110Y-261129D01*
X77117D01*
X77242Y-261100D01*
X77353Y-261056D01*
X77449Y-261011D01*
X77530Y-260967D01*
X77597Y-260930D01*
X77648Y-260893D01*
X77678Y-260871D01*
X77685Y-260864D01*
X77767Y-260783D01*
X77840Y-260694D01*
X77907Y-260598D01*
X77958Y-260502D01*
X78003Y-260414D01*
X78032Y-260347D01*
X78047Y-260318D01*
X78054Y-260296D01*
X78062Y-260288D01*
Y-260281D01*
X78113Y-260126D01*
X78150Y-259956D01*
X78180Y-259786D01*
X78194Y-259624D01*
X78209Y-259484D01*
Y-259417D01*
X78217Y-259366D01*
Y-261432D01*
X73058D01*
X78217D01*
Y-259262D01*
X78209Y-259033D01*
X78187Y-258820D01*
X78158Y-258628D01*
X78143Y-258539D01*
X78128Y-258465D01*
X78113Y-258391D01*
X78099Y-258325D01*
X78084Y-258273D01*
X78069Y-258229D01*
X78054Y-258192D01*
X78047Y-258163D01*
X78039Y-258148D01*
Y-258141D01*
X77966Y-257971D01*
X77885Y-257823D01*
X77803Y-257698D01*
X77722Y-257594D01*
X77648Y-257513D01*
X77589Y-257454D01*
X77552Y-257417D01*
X77545Y-257403D01*
X77538D01*
X77412Y-257314D01*
X77272Y-257240D01*
X77132Y-257181D01*
X76999Y-257130D01*
X76881Y-257093D01*
X76829Y-257078D01*
X76785Y-257063D01*
X76748Y-257056D01*
X76718Y-257048D01*
X76704Y-257041D01*
X76696D01*
X76586Y-257860D01*
X76682Y-257890D01*
X76770Y-257919D01*
X76918Y-257978D01*
X77051Y-258052D01*
X77147Y-258118D01*
X77220Y-258177D01*
X77279Y-258229D01*
X77309Y-258259D01*
X77316Y-258273D01*
X77383Y-258391D01*
X77434Y-258532D01*
X77471Y-258672D01*
X77501Y-258812D01*
X77516Y-258945D01*
Y-258997D01*
X77523Y-259048D01*
Y-259144D01*
X77508Y-259366D01*
X77479Y-259558D01*
X77434Y-259720D01*
X77383Y-259853D01*
X77324Y-259956D01*
X77302Y-259993D01*
X77279Y-260030D01*
X77265Y-260059D01*
X77250Y-260074D01*
X77235Y-260089D01*
X77147Y-260170D01*
X77036Y-260229D01*
X76918Y-260273D01*
X76800Y-260303D01*
X76689Y-260318D01*
X76600Y-260332D01*
X76571D01*
X76541D01*
X76527D01*
X76519D01*
X76497D01*
X76468D01*
X76394D01*
X76364Y-260325D01*
X76335D01*
X76313D01*
X76305D01*
X76276Y-260229D01*
X76246Y-260126D01*
X76217Y-260008D01*
X76187Y-259890D01*
X76135Y-259646D01*
X76091Y-259402D01*
X76076Y-259284D01*
X76062Y-259181D01*
X76047Y-259085D01*
X76032Y-258997D01*
X76025Y-258930D01*
X76017Y-258879D01*
X76010Y-258849D01*
Y-258834D01*
X75988Y-258657D01*
X75966Y-258510D01*
X75944Y-258377D01*
X75929Y-258273D01*
X75907Y-258192D01*
X75899Y-258133D01*
X75885Y-258104D01*
Y-258089D01*
X75848Y-257971D01*
X75803Y-257853D01*
X75759Y-257749D01*
X75715Y-257661D01*
X75678Y-257587D01*
X75641Y-257535D01*
X75619Y-257499D01*
X75612Y-257484D01*
X75538Y-257388D01*
X75464Y-257307D01*
X75383Y-257233D01*
X75309Y-257174D01*
X75235Y-257122D01*
X75183Y-257085D01*
X75147Y-257063D01*
X75132Y-257056D01*
X75014Y-257004D01*
X74903Y-256960D01*
X74792Y-256930D01*
X74689Y-256915D01*
X74600Y-256901D01*
X74527Y-256893D01*
X78217D01*
D02*
G37*
G36*
X80091Y-262414D02*
X79914Y-262517D01*
X79752Y-262606D01*
X79597Y-262694D01*
X79457Y-262768D01*
X79331Y-262834D01*
X79220Y-262893D01*
X79117Y-262952D01*
X79028Y-262997D01*
X78947Y-263034D01*
X78881Y-263070D01*
X78822Y-263100D01*
X78777Y-263122D01*
X78741Y-263137D01*
X78719Y-263152D01*
X78704Y-263159D01*
X78696D01*
X78453Y-263255D01*
X78217Y-263344D01*
X77995Y-263417D01*
X77885Y-263454D01*
X77789Y-263484D01*
X77700Y-263506D01*
X77612Y-263528D01*
X77538Y-263550D01*
X77479Y-263565D01*
X77427Y-263580D01*
X77390Y-263587D01*
X77368Y-263594D01*
X77361D01*
X77036Y-263661D01*
X76726Y-263713D01*
X76578Y-263735D01*
X76431Y-263749D01*
X76298Y-263764D01*
X76172Y-263779D01*
X76054Y-263786D01*
X75951Y-263794D01*
X75855D01*
X75774Y-263801D01*
X75715D01*
X75663D01*
X75634D01*
X75626D01*
X75420Y-263794D01*
X75206Y-263786D01*
X74792Y-263742D01*
X74386Y-263676D01*
X73988Y-263587D01*
X73604Y-263476D01*
X73235Y-263366D01*
X72888Y-263240D01*
X72556Y-263107D01*
X72261Y-262975D01*
X72121Y-262915D01*
X71988Y-262856D01*
X71870Y-262790D01*
X71752Y-262738D01*
X71649Y-262679D01*
X71552Y-262628D01*
X71464Y-262583D01*
X71390Y-262539D01*
X71324Y-262502D01*
X71272Y-262473D01*
X71228Y-262451D01*
X71191Y-262428D01*
X71176Y-262421D01*
X71169Y-262414D01*
Y-263011D01*
X71508Y-263255D01*
X71863Y-263476D01*
X72202Y-263676D01*
X72364Y-263764D01*
X72519Y-263845D01*
X72667Y-263919D01*
X72800Y-263985D01*
X72918Y-264037D01*
X73014Y-264082D01*
X73102Y-264118D01*
X73161Y-264148D01*
X73198Y-264163D01*
X73213Y-264170D01*
X73434Y-264259D01*
X73648Y-264332D01*
X73870Y-264399D01*
X74084Y-264451D01*
X74291Y-264502D01*
X74490Y-264539D01*
X74682Y-264568D01*
X74859Y-264598D01*
X75029Y-264620D01*
X75176Y-264635D01*
X75309Y-264642D01*
X75420Y-264650D01*
X75508Y-264657D01*
X80091D01*
X75634D01*
X75840Y-264650D01*
X76039Y-264642D01*
X76239Y-264628D01*
X76431Y-264598D01*
X76608Y-264576D01*
X76785Y-264546D01*
X76947Y-264510D01*
X77102Y-264480D01*
X77242Y-264443D01*
X77368Y-264414D01*
X77479Y-264377D01*
X77567Y-264354D01*
X77641Y-264332D01*
X77700Y-264310D01*
X77730Y-264303D01*
X77744Y-264296D01*
X77966Y-264214D01*
X78187Y-264118D01*
X78608Y-263919D01*
X78814Y-263816D01*
X79006Y-263705D01*
X79191Y-263602D01*
X79361Y-263498D01*
X79515Y-263403D01*
X79663Y-263307D01*
X79789Y-263225D01*
X79892Y-263152D01*
X79973Y-263092D01*
X80040Y-263048D01*
X80076Y-263019D01*
X80091Y-263011D01*
Y-262414D01*
D02*
G37*
%LPD*%
G36*
X65784Y-170876D02*
X65969Y-170890D01*
X66124Y-170913D01*
X66249Y-170935D01*
X66353Y-170957D01*
X66426Y-170979D01*
X66448Y-170986D01*
X66471Y-170994D01*
X66485Y-171001D01*
X66603Y-171060D01*
X66707Y-171134D01*
X66795Y-171208D01*
X66869Y-171289D01*
X66928Y-171355D01*
X66973Y-171414D01*
X67002Y-171451D01*
X67009Y-171466D01*
X67076Y-171592D01*
X67128Y-171717D01*
X67157Y-171835D01*
X67186Y-171939D01*
X67201Y-172034D01*
X67209Y-172108D01*
Y-172167D01*
X67194Y-172344D01*
X67164Y-172499D01*
X67120Y-172625D01*
X67068Y-172736D01*
X67009Y-172824D01*
X66965Y-172883D01*
X66936Y-172920D01*
X66921Y-172935D01*
X66862Y-172986D01*
X66803Y-173023D01*
X66655Y-173090D01*
X66508Y-173141D01*
X66353Y-173171D01*
X66220Y-173193D01*
X66161Y-173201D01*
X66109D01*
X66065Y-173208D01*
X66035D01*
X66013D01*
X66006D01*
X62884D01*
Y-170868D01*
X65578D01*
X65784Y-170876D01*
D02*
G37*
G36*
X69541Y-176300D02*
X69039Y-175466D01*
X67821D01*
Y-174846D01*
X69541D01*
Y-176300D01*
D02*
G37*
G36*
Y-178942D02*
X69039Y-178108D01*
X67821D01*
Y-177488D01*
X69541D01*
Y-178942D01*
D02*
G37*
G36*
X79980Y-181337D02*
X76423D01*
X76549Y-181330D01*
X76667Y-181322D01*
X76770Y-181307D01*
X76873Y-181293D01*
X76962Y-181278D01*
X77043Y-181263D01*
X77117Y-181248D01*
X77184Y-181234D01*
X77242Y-181219D01*
X77287Y-181204D01*
X77331Y-181189D01*
X77361Y-181175D01*
X77383Y-181167D01*
X77390Y-181160D01*
X77398D01*
X77530Y-181086D01*
X77656Y-180997D01*
X77759Y-180894D01*
X77840Y-180806D01*
X77907Y-180717D01*
X77958Y-180643D01*
X77973Y-180614D01*
X77988Y-180591D01*
X77995Y-180584D01*
Y-180577D01*
X78069Y-180422D01*
X78121Y-180259D01*
X78165Y-180104D01*
X78187Y-179957D01*
X78202Y-179824D01*
X78209Y-179772D01*
X78217Y-179721D01*
Y-179632D01*
X78209Y-179470D01*
X78187Y-179315D01*
X78150Y-179167D01*
X78113Y-179027D01*
X78054Y-178902D01*
X78003Y-178776D01*
X77936Y-178665D01*
X77877Y-178569D01*
X77811Y-178473D01*
X77744Y-178392D01*
X77693Y-178326D01*
X77641Y-178267D01*
X77597Y-178223D01*
X77560Y-178193D01*
X77538Y-178171D01*
X77530Y-178164D01*
X79980D01*
Y-181337D01*
D02*
G37*
G36*
X88383Y-183514D02*
X83645Y-181876D01*
X83513Y-181831D01*
X83394Y-181787D01*
X83276Y-181750D01*
X83173Y-181713D01*
X83070Y-181684D01*
X82981Y-181654D01*
X82900Y-181625D01*
X82826Y-181603D01*
X82767Y-181580D01*
X82708Y-181566D01*
X82664Y-181551D01*
X82620Y-181536D01*
X82590Y-181529D01*
X82568Y-181521D01*
X82560Y-181514D01*
X82553D01*
X82620Y-181492D01*
X82693Y-181470D01*
X82848Y-181418D01*
X83018Y-181366D01*
X83180Y-181315D01*
X83328Y-181263D01*
X83394Y-181241D01*
X83446Y-181226D01*
X83490Y-181211D01*
X83527Y-181197D01*
X83549Y-181189D01*
X83557D01*
X88383Y-179573D01*
Y-183514D01*
D02*
G37*
G36*
X65496Y-181370D02*
X65659Y-181377D01*
X65806Y-181400D01*
X65947Y-181429D01*
X66079Y-181459D01*
X66198Y-181488D01*
X66308Y-181525D01*
X66404Y-181569D01*
X66493Y-181606D01*
X66567Y-181643D01*
X66626Y-181673D01*
X66677Y-181702D01*
X66722Y-181732D01*
X66751Y-181754D01*
X66766Y-181761D01*
X66773Y-181769D01*
X66862Y-181850D01*
X66936Y-181931D01*
X67009Y-182012D01*
X67061Y-182093D01*
X67113Y-182175D01*
X67150Y-182248D01*
X67216Y-182396D01*
X67246Y-182521D01*
X67260Y-182580D01*
X67268Y-182625D01*
X67275Y-182662D01*
Y-182713D01*
X67268Y-182809D01*
X67253Y-182905D01*
X67231Y-183001D01*
X67201Y-183090D01*
X67128Y-183245D01*
X67039Y-183378D01*
X66950Y-183488D01*
X66913Y-183540D01*
X66877Y-183577D01*
X66847Y-183606D01*
X66825Y-183628D01*
X66810Y-183636D01*
X66803Y-183643D01*
X66707Y-183710D01*
X66603Y-183776D01*
X66500Y-183828D01*
X66382Y-183872D01*
X66146Y-183938D01*
X65917Y-183983D01*
X65806Y-184005D01*
X65711Y-184012D01*
X65622Y-184019D01*
X65541Y-184027D01*
X65474Y-184034D01*
X65430D01*
X65393D01*
X65386D01*
X65209Y-184027D01*
X65039Y-184019D01*
X64884Y-183997D01*
X64744Y-183975D01*
X64611Y-183946D01*
X64485Y-183909D01*
X64382Y-183872D01*
X64286Y-183835D01*
X64198Y-183798D01*
X64124Y-183761D01*
X64065Y-183732D01*
X64013Y-183695D01*
X63976Y-183673D01*
X63947Y-183651D01*
X63932Y-183643D01*
X63924Y-183636D01*
X63843Y-183562D01*
X63770Y-183481D01*
X63710Y-183400D01*
X63659Y-183318D01*
X63615Y-183237D01*
X63570Y-183156D01*
X63519Y-183009D01*
X63482Y-182876D01*
X63474Y-182817D01*
X63467Y-182772D01*
X63460Y-182728D01*
Y-182676D01*
X63467Y-182573D01*
X63482Y-182477D01*
X63504Y-182389D01*
X63533Y-182300D01*
X63600Y-182145D01*
X63688Y-182005D01*
X63770Y-181894D01*
X63806Y-181850D01*
X63843Y-181813D01*
X63866Y-181783D01*
X63888Y-181761D01*
X63902Y-181754D01*
X63910Y-181746D01*
X63998Y-181680D01*
X64102Y-181621D01*
X64212Y-181569D01*
X64323Y-181525D01*
X64559Y-181459D01*
X64788Y-181414D01*
X64891Y-181392D01*
X64995Y-181385D01*
X65083Y-181377D01*
X65164Y-181370D01*
X65231Y-181363D01*
X65275D01*
X65312D01*
X65319D01*
X65496Y-181370D01*
D02*
G37*
G36*
X75803Y-183175D02*
X75966Y-183182D01*
X76113Y-183204D01*
X76254Y-183234D01*
X76379Y-183263D01*
X76497Y-183300D01*
X76600Y-183337D01*
X76696Y-183374D01*
X76777Y-183411D01*
X76851Y-183448D01*
X76910Y-183484D01*
X76962Y-183514D01*
X76999Y-183544D01*
X77029Y-183566D01*
X77043Y-183573D01*
X77051Y-183580D01*
X77132Y-183662D01*
X77206Y-183743D01*
X77272Y-183831D01*
X77324Y-183920D01*
X77368Y-184009D01*
X77405Y-184090D01*
X77464Y-184259D01*
X77501Y-184400D01*
X77508Y-184466D01*
X77516Y-184518D01*
X77523Y-184562D01*
Y-184621D01*
X77516Y-184732D01*
X77501Y-184842D01*
X77479Y-184946D01*
X77449Y-185042D01*
X77375Y-185219D01*
X77287Y-185374D01*
X77242Y-185433D01*
X77198Y-185492D01*
X77161Y-185536D01*
X77124Y-185580D01*
X77095Y-185610D01*
X77073Y-185632D01*
X77058Y-185647D01*
X77051Y-185654D01*
X76955Y-185728D01*
X76859Y-185794D01*
X76748Y-185846D01*
X76637Y-185898D01*
X76519Y-185942D01*
X76401Y-185971D01*
X76180Y-186023D01*
X76076Y-186038D01*
X75981Y-186053D01*
X75892Y-186060D01*
X75811Y-186067D01*
X75752Y-186075D01*
X75700D01*
X75671D01*
X75663D01*
X75486Y-186067D01*
X75324Y-186060D01*
X75169Y-186038D01*
X75029Y-186008D01*
X74896Y-185979D01*
X74778Y-185942D01*
X74667Y-185905D01*
X74578Y-185868D01*
X74490Y-185824D01*
X74416Y-185787D01*
X74357Y-185750D01*
X74305Y-185721D01*
X74268Y-185691D01*
X74239Y-185669D01*
X74224Y-185662D01*
X74217Y-185654D01*
X74136Y-185573D01*
X74062Y-185492D01*
X73995Y-185403D01*
X73944Y-185322D01*
X73899Y-185233D01*
X73862Y-185145D01*
X73803Y-184983D01*
X73766Y-184842D01*
X73759Y-184776D01*
X73752Y-184724D01*
X73744Y-184680D01*
Y-184621D01*
X73752Y-184503D01*
X73766Y-184400D01*
X73789Y-184289D01*
X73818Y-184193D01*
X73892Y-184016D01*
X73980Y-183868D01*
X74017Y-183802D01*
X74062Y-183743D01*
X74099Y-183698D01*
X74136Y-183654D01*
X74165Y-183625D01*
X74187Y-183603D01*
X74202Y-183588D01*
X74209Y-183580D01*
X74305Y-183507D01*
X74409Y-183448D01*
X74519Y-183388D01*
X74630Y-183344D01*
X74866Y-183271D01*
X75102Y-183219D01*
X75206Y-183204D01*
X75309Y-183189D01*
X75397Y-183182D01*
X75479Y-183175D01*
X75545Y-183167D01*
X75589D01*
X75626D01*
X75634D01*
X75803Y-183175D01*
D02*
G37*
G36*
Y-188466D02*
X75973Y-188473D01*
X76121Y-188496D01*
X76268Y-188518D01*
X76394Y-188547D01*
X76512Y-188577D01*
X76623Y-188606D01*
X76711Y-188643D01*
X76800Y-188680D01*
X76866Y-188709D01*
X76933Y-188739D01*
X76977Y-188769D01*
X77014Y-188791D01*
X77043Y-188813D01*
X77058Y-188820D01*
X77065Y-188828D01*
X77147Y-188901D01*
X77213Y-188975D01*
X77279Y-189056D01*
X77331Y-189130D01*
X77375Y-189211D01*
X77412Y-189293D01*
X77464Y-189440D01*
X77501Y-189566D01*
X77508Y-189625D01*
X77516Y-189669D01*
X77523Y-189713D01*
Y-189765D01*
X77516Y-189868D01*
X77501Y-189971D01*
X77479Y-190067D01*
X77449Y-190156D01*
X77368Y-190326D01*
X77287Y-190466D01*
X77198Y-190577D01*
X77154Y-190621D01*
X77117Y-190665D01*
X77087Y-190695D01*
X77065Y-190717D01*
X77051Y-190724D01*
X77043Y-190732D01*
X76947Y-190805D01*
X76844Y-190865D01*
X76733Y-190916D01*
X76615Y-190960D01*
X76364Y-191034D01*
X76128Y-191078D01*
X76010Y-191101D01*
X75907Y-191108D01*
X75811Y-191115D01*
X75722Y-191123D01*
X75656Y-191130D01*
X75604D01*
X75575D01*
X75560D01*
X75390Y-191123D01*
X75235Y-191115D01*
X75087Y-191093D01*
X74955Y-191071D01*
X74837Y-191042D01*
X74718Y-191005D01*
X74615Y-190968D01*
X74527Y-190938D01*
X74445Y-190901D01*
X74379Y-190865D01*
X74320Y-190828D01*
X74276Y-190798D01*
X74231Y-190776D01*
X74209Y-190754D01*
X74195Y-190746D01*
X74187Y-190739D01*
X74106Y-190665D01*
X74040Y-190591D01*
X73980Y-190510D01*
X73929Y-190429D01*
X73892Y-190355D01*
X73855Y-190274D01*
X73803Y-190127D01*
X73766Y-190001D01*
X73759Y-189942D01*
X73752Y-189898D01*
X73744Y-189853D01*
Y-189802D01*
X73752Y-189698D01*
X73766Y-189602D01*
X73789Y-189514D01*
X73818Y-189425D01*
X73892Y-189263D01*
X73980Y-189123D01*
X74062Y-189012D01*
X74099Y-188968D01*
X74136Y-188931D01*
X74165Y-188901D01*
X74187Y-188872D01*
X74202Y-188865D01*
X74209Y-188857D01*
X74305Y-188791D01*
X74409Y-188724D01*
X74519Y-188673D01*
X74630Y-188628D01*
X74866Y-188555D01*
X75095Y-188510D01*
X75206Y-188496D01*
X75301Y-188481D01*
X75390Y-188473D01*
X75471Y-188466D01*
X75538Y-188459D01*
X75582D01*
X75619D01*
X75626D01*
X75803Y-188466D01*
D02*
G37*
G36*
X84221Y-188805D02*
X84391Y-188813D01*
X84538Y-188835D01*
X84679Y-188857D01*
X84811Y-188887D01*
X84930Y-188924D01*
X85033Y-188960D01*
X85129Y-188997D01*
X85210Y-189027D01*
X85284Y-189064D01*
X85343Y-189101D01*
X85387Y-189130D01*
X85431Y-189152D01*
X85453Y-189174D01*
X85468Y-189182D01*
X85476Y-189189D01*
X85557Y-189263D01*
X85623Y-189344D01*
X85690Y-189433D01*
X85741Y-189514D01*
X85786Y-189602D01*
X85822Y-189684D01*
X85874Y-189846D01*
X85911Y-189994D01*
X85918Y-190053D01*
X85926Y-190112D01*
X85933Y-190156D01*
Y-190215D01*
X85926Y-190363D01*
X85896Y-190503D01*
X85852Y-190621D01*
X85808Y-190724D01*
X85756Y-190805D01*
X85719Y-190872D01*
X85690Y-190909D01*
X85675Y-190924D01*
X85572Y-191027D01*
X85453Y-191115D01*
X85328Y-191182D01*
X85210Y-191241D01*
X85099Y-191285D01*
X85011Y-191315D01*
X84974Y-191322D01*
X84952Y-191329D01*
X84937Y-191337D01*
X84930D01*
X85055Y-192149D01*
X85188Y-192119D01*
X85321Y-192075D01*
X85439Y-192031D01*
X85549Y-191986D01*
X85653Y-191935D01*
X85749Y-191876D01*
X85830Y-191824D01*
X85911Y-191765D01*
X85978Y-191713D01*
X86036Y-191662D01*
X86088Y-191617D01*
X86132Y-191573D01*
X86162Y-191543D01*
X86184Y-191514D01*
X86199Y-191499D01*
X86206Y-191492D01*
X86280Y-191396D01*
X86347Y-191293D01*
X86398Y-191182D01*
X86442Y-191071D01*
X86516Y-190850D01*
X86568Y-190643D01*
X86583Y-190547D01*
X86597Y-190459D01*
X86605Y-190377D01*
X86612Y-190311D01*
X86620Y-190259D01*
Y-192230D01*
X83269D01*
X83380Y-191411D01*
X83262Y-191388D01*
X83158Y-191366D01*
X83055Y-191337D01*
X82966Y-191307D01*
X82878Y-191270D01*
X82804Y-191241D01*
X82738Y-191204D01*
X82671Y-191167D01*
X82620Y-191130D01*
X82575Y-191101D01*
X82502Y-191042D01*
X82457Y-191005D01*
X82450Y-190997D01*
X82442Y-190990D01*
X82346Y-190857D01*
X82273Y-190724D01*
X82221Y-190584D01*
X82184Y-190459D01*
X82162Y-190340D01*
X82155Y-190296D01*
Y-190252D01*
X82147Y-190215D01*
Y-190171D01*
X82155Y-190060D01*
X82169Y-189949D01*
X82191Y-189853D01*
X82221Y-189758D01*
X82288Y-189588D01*
X82376Y-189440D01*
X82413Y-189381D01*
X82457Y-189329D01*
X82494Y-189285D01*
X82531Y-189241D01*
X82553Y-189211D01*
X82575Y-189189D01*
X82590Y-189182D01*
X82597Y-189174D01*
X82686Y-189108D01*
X82789Y-189049D01*
X82900Y-188997D01*
X83011Y-188960D01*
X83254Y-188887D01*
X83490Y-188842D01*
X83601Y-188828D01*
X83704Y-188820D01*
X83800Y-188813D01*
X83881Y-188805D01*
X83948Y-188798D01*
X84000D01*
X84036D01*
X84044D01*
X84221Y-188805D01*
D02*
G37*
G36*
X74571Y-193824D02*
X74645Y-193831D01*
X74711Y-193853D01*
X74770Y-193876D01*
X74822Y-193890D01*
X74859Y-193912D01*
X74881Y-193920D01*
X74888Y-193927D01*
X74955Y-193979D01*
X75006Y-194030D01*
X75051Y-194082D01*
X75095Y-194141D01*
X75124Y-194185D01*
X75147Y-194222D01*
X75154Y-194252D01*
X75161Y-194259D01*
X75198Y-194355D01*
X75228Y-194466D01*
X75257Y-194584D01*
X75279Y-194702D01*
X75301Y-194813D01*
X75316Y-194909D01*
X75324Y-194938D01*
X75331Y-194968D01*
Y-194990D01*
X75353Y-195160D01*
X75383Y-195315D01*
X75405Y-195455D01*
X75434Y-195588D01*
X75464Y-195713D01*
X75486Y-195824D01*
X75516Y-195927D01*
X75538Y-196023D01*
X75560Y-196097D01*
X75582Y-196171D01*
X75597Y-196230D01*
X75619Y-196274D01*
X75634Y-196311D01*
X75641Y-196340D01*
X75648Y-196355D01*
Y-196363D01*
X75339Y-196355D01*
X75147Y-196348D01*
X74977Y-196333D01*
X74829Y-196311D01*
X74711Y-196289D01*
X74623Y-196267D01*
X74556Y-196245D01*
X74519Y-196230D01*
X74505Y-196222D01*
X74372Y-196149D01*
X74261Y-196060D01*
X74158Y-195971D01*
X74076Y-195883D01*
X74010Y-195794D01*
X73958Y-195728D01*
X73929Y-195684D01*
X73922Y-195676D01*
Y-195669D01*
X73855Y-195521D01*
X73803Y-195374D01*
X73766Y-195233D01*
X73744Y-195093D01*
X73730Y-194983D01*
X73722Y-194931D01*
X73715Y-194887D01*
Y-194805D01*
X73722Y-194636D01*
X73752Y-194488D01*
X73789Y-194355D01*
X73826Y-194252D01*
X73870Y-194171D01*
X73899Y-194112D01*
X73929Y-194082D01*
X73936Y-194067D01*
X74025Y-193986D01*
X74113Y-193920D01*
X74209Y-193876D01*
X74298Y-193846D01*
X74372Y-193831D01*
X74438Y-193824D01*
X74475Y-193816D01*
X74490D01*
X74571Y-193824D01*
D02*
G37*
G36*
X84206Y-196665D02*
X84369Y-196672D01*
X84516Y-196695D01*
X84656Y-196724D01*
X84782Y-196754D01*
X84900Y-196791D01*
X85003Y-196827D01*
X85099Y-196864D01*
X85180Y-196901D01*
X85254Y-196938D01*
X85313Y-196975D01*
X85365Y-197005D01*
X85402Y-197034D01*
X85431Y-197056D01*
X85446Y-197064D01*
X85453Y-197071D01*
X85535Y-197152D01*
X85609Y-197233D01*
X85675Y-197322D01*
X85726Y-197411D01*
X85771Y-197499D01*
X85808Y-197580D01*
X85867Y-197750D01*
X85904Y-197890D01*
X85911Y-197957D01*
X85918Y-198008D01*
X85926Y-198053D01*
Y-198112D01*
X85918Y-198222D01*
X85904Y-198333D01*
X85882Y-198436D01*
X85852Y-198532D01*
X85778Y-198709D01*
X85690Y-198864D01*
X85645Y-198923D01*
X85601Y-198983D01*
X85564Y-199027D01*
X85527Y-199071D01*
X85498Y-199101D01*
X85476Y-199123D01*
X85461Y-199137D01*
X85453Y-199145D01*
X85357Y-199219D01*
X85262Y-199285D01*
X85151Y-199337D01*
X85040Y-199388D01*
X84922Y-199433D01*
X84804Y-199462D01*
X84583Y-199514D01*
X84479Y-199529D01*
X84383Y-199543D01*
X84295Y-199551D01*
X84214Y-199558D01*
X84155Y-199565D01*
X84103D01*
X84073D01*
X84066D01*
X83889Y-199558D01*
X83727Y-199551D01*
X83572Y-199529D01*
X83431Y-199499D01*
X83298Y-199470D01*
X83180Y-199433D01*
X83070Y-199396D01*
X82981Y-199359D01*
X82893Y-199315D01*
X82819Y-199278D01*
X82760Y-199241D01*
X82708Y-199211D01*
X82671Y-199182D01*
X82642Y-199160D01*
X82627Y-199152D01*
X82620Y-199145D01*
X82538Y-199064D01*
X82465Y-198983D01*
X82398Y-198894D01*
X82346Y-198813D01*
X82302Y-198724D01*
X82265Y-198636D01*
X82206Y-198473D01*
X82169Y-198333D01*
X82162Y-198267D01*
X82155Y-198215D01*
X82147Y-198171D01*
Y-198112D01*
X82155Y-197994D01*
X82169Y-197890D01*
X82191Y-197780D01*
X82221Y-197684D01*
X82295Y-197506D01*
X82383Y-197359D01*
X82420Y-197292D01*
X82465Y-197233D01*
X82502Y-197189D01*
X82538Y-197145D01*
X82568Y-197115D01*
X82590Y-197093D01*
X82605Y-197078D01*
X82612Y-197071D01*
X82708Y-196997D01*
X82811Y-196938D01*
X82922Y-196879D01*
X83033Y-196835D01*
X83269Y-196761D01*
X83505Y-196709D01*
X83609Y-196695D01*
X83712Y-196680D01*
X83800Y-196672D01*
X83881Y-196665D01*
X83948Y-196658D01*
X83992D01*
X84029D01*
X84036D01*
X84206Y-196665D01*
D02*
G37*
G36*
X64286Y-199208D02*
X64360Y-199215D01*
X64426Y-199237D01*
X64485Y-199259D01*
X64537Y-199274D01*
X64574Y-199296D01*
X64596Y-199303D01*
X64604Y-199311D01*
X64670Y-199363D01*
X64722Y-199414D01*
X64766Y-199466D01*
X64810Y-199525D01*
X64840Y-199569D01*
X64862Y-199606D01*
X64869Y-199636D01*
X64877Y-199643D01*
X64913Y-199739D01*
X64943Y-199850D01*
X64973Y-199968D01*
X64995Y-200086D01*
X65017Y-200197D01*
X65031Y-200292D01*
X65039Y-200322D01*
X65046Y-200352D01*
Y-200374D01*
X65068Y-200543D01*
X65098Y-200698D01*
X65120Y-200839D01*
X65150Y-200971D01*
X65179Y-201097D01*
X65201Y-201207D01*
X65231Y-201311D01*
X65253Y-201407D01*
X65275Y-201481D01*
X65297Y-201554D01*
X65312Y-201613D01*
X65334Y-201658D01*
X65349Y-201695D01*
X65356Y-201724D01*
X65364Y-201739D01*
Y-201746D01*
X65054Y-201739D01*
X64862Y-201731D01*
X64692Y-201717D01*
X64544Y-201695D01*
X64426Y-201673D01*
X64338Y-201650D01*
X64271Y-201628D01*
X64235Y-201613D01*
X64220Y-201606D01*
X64087Y-201532D01*
X63976Y-201444D01*
X63873Y-201355D01*
X63792Y-201267D01*
X63725Y-201178D01*
X63674Y-201112D01*
X63644Y-201067D01*
X63637Y-201060D01*
Y-201053D01*
X63570Y-200905D01*
X63519Y-200757D01*
X63482Y-200617D01*
X63460Y-200477D01*
X63445Y-200366D01*
X63437Y-200315D01*
X63430Y-200270D01*
Y-200189D01*
X63437Y-200019D01*
X63467Y-199872D01*
X63504Y-199739D01*
X63541Y-199636D01*
X63585Y-199554D01*
X63615Y-199495D01*
X63644Y-199466D01*
X63652Y-199451D01*
X63740Y-199370D01*
X63829Y-199303D01*
X63924Y-199259D01*
X64013Y-199230D01*
X64087Y-199215D01*
X64153Y-199208D01*
X64190Y-199200D01*
X64205D01*
X64286Y-199208D01*
D02*
G37*
G36*
X84435Y-202244D02*
X84597Y-202252D01*
X84738Y-202274D01*
X84870Y-202296D01*
X84988Y-202326D01*
X85092Y-202355D01*
X85188Y-202392D01*
X85269Y-202429D01*
X85343Y-202466D01*
X85402Y-202503D01*
X85446Y-202532D01*
X85490Y-202562D01*
X85520Y-202584D01*
X85542Y-202606D01*
X85549Y-202613D01*
X85557Y-202621D01*
X85616Y-202695D01*
X85668Y-202776D01*
X85756Y-202931D01*
X85815Y-203086D01*
X85852Y-203226D01*
X85882Y-203351D01*
X85889Y-203411D01*
Y-203455D01*
X85896Y-203492D01*
Y-203543D01*
X85889Y-203669D01*
X85874Y-203780D01*
X85845Y-203875D01*
X85822Y-203964D01*
X85793Y-204030D01*
X85763Y-204082D01*
X85749Y-204119D01*
X85741Y-204126D01*
X85682Y-204215D01*
X85616Y-204289D01*
X85549Y-204348D01*
X85483Y-204392D01*
X85424Y-204429D01*
X85380Y-204451D01*
X85350Y-204466D01*
X85335Y-204473D01*
X85232Y-204510D01*
X85114Y-204532D01*
X84988Y-204554D01*
X84863Y-204562D01*
X84752Y-204569D01*
X84701Y-204576D01*
X84656D01*
X84627D01*
X84597D01*
X84583D01*
X84575D01*
X81572D01*
Y-202237D01*
X84265D01*
X84435Y-202244D01*
D02*
G37*
G36*
X65681Y-204713D02*
X65792Y-204720D01*
X65888Y-204728D01*
X65984Y-204735D01*
X66065Y-204750D01*
X66138Y-204757D01*
X66212Y-204772D01*
X66271Y-204787D01*
X66323Y-204794D01*
X66367Y-204809D01*
X66404Y-204816D01*
X66434Y-204824D01*
X66456Y-204831D01*
X66463Y-204838D01*
X66471D01*
X66596Y-204898D01*
X66707Y-204964D01*
X66803Y-205038D01*
X66877Y-205112D01*
X66943Y-205171D01*
X66980Y-205222D01*
X67009Y-205259D01*
X67017Y-205274D01*
X67083Y-205392D01*
X67128Y-205503D01*
X67164Y-205613D01*
X67186Y-205717D01*
X67201Y-205805D01*
X67209Y-205872D01*
Y-205931D01*
X67194Y-206093D01*
X67164Y-206233D01*
X67120Y-206344D01*
X67068Y-206440D01*
X67017Y-206506D01*
X66973Y-206558D01*
X66943Y-206588D01*
X66928Y-206595D01*
X66810Y-206661D01*
X66677Y-206713D01*
X66537Y-206750D01*
X66404Y-206779D01*
X66279Y-206794D01*
X66227D01*
X66183Y-206802D01*
X66138D01*
X66109D01*
X66094D01*
X66087D01*
X62884D01*
Y-204706D01*
X65445D01*
X65570D01*
X65681Y-204713D01*
D02*
G37*
G36*
X65496Y-212565D02*
X65659Y-212573D01*
X65806Y-212595D01*
X65947Y-212624D01*
X66079Y-212654D01*
X66198Y-212683D01*
X66308Y-212720D01*
X66404Y-212765D01*
X66493Y-212802D01*
X66567Y-212838D01*
X66626Y-212868D01*
X66677Y-212897D01*
X66722Y-212927D01*
X66751Y-212949D01*
X66766Y-212957D01*
X66773Y-212964D01*
X66862Y-213045D01*
X66936Y-213126D01*
X67009Y-213207D01*
X67061Y-213289D01*
X67113Y-213370D01*
X67150Y-213444D01*
X67216Y-213591D01*
X67246Y-213717D01*
X67260Y-213776D01*
X67268Y-213820D01*
X67275Y-213857D01*
Y-213909D01*
X67268Y-214004D01*
X67253Y-214100D01*
X67231Y-214196D01*
X67201Y-214285D01*
X67128Y-214440D01*
X67039Y-214573D01*
X66950Y-214683D01*
X66913Y-214735D01*
X66877Y-214772D01*
X66847Y-214802D01*
X66825Y-214824D01*
X66810Y-214831D01*
X66803Y-214838D01*
X66707Y-214905D01*
X66603Y-214971D01*
X66500Y-215023D01*
X66382Y-215067D01*
X66146Y-215134D01*
X65917Y-215178D01*
X65806Y-215200D01*
X65711Y-215207D01*
X65622Y-215215D01*
X65541Y-215222D01*
X65474Y-215230D01*
X65430D01*
X65393D01*
X65386D01*
X65209Y-215222D01*
X65039Y-215215D01*
X64884Y-215193D01*
X64744Y-215171D01*
X64611Y-215141D01*
X64485Y-215104D01*
X64382Y-215067D01*
X64286Y-215030D01*
X64198Y-214993D01*
X64124Y-214956D01*
X64065Y-214927D01*
X64013Y-214890D01*
X63976Y-214868D01*
X63947Y-214846D01*
X63932Y-214838D01*
X63924Y-214831D01*
X63843Y-214757D01*
X63770Y-214676D01*
X63710Y-214595D01*
X63659Y-214514D01*
X63615Y-214433D01*
X63570Y-214351D01*
X63519Y-214204D01*
X63482Y-214071D01*
X63474Y-214012D01*
X63467Y-213968D01*
X63460Y-213923D01*
Y-213872D01*
X63467Y-213768D01*
X63482Y-213672D01*
X63504Y-213584D01*
X63533Y-213495D01*
X63600Y-213340D01*
X63688Y-213200D01*
X63770Y-213089D01*
X63806Y-213045D01*
X63843Y-213008D01*
X63866Y-212979D01*
X63888Y-212957D01*
X63902Y-212949D01*
X63910Y-212942D01*
X63998Y-212875D01*
X64102Y-212816D01*
X64212Y-212765D01*
X64323Y-212720D01*
X64559Y-212654D01*
X64788Y-212610D01*
X64891Y-212587D01*
X64995Y-212580D01*
X65083Y-212573D01*
X65164Y-212565D01*
X65231Y-212558D01*
X65275D01*
X65312D01*
X65319D01*
X65496Y-212565D01*
D02*
G37*
G36*
X64412Y-222373D02*
X64279Y-222381D01*
X64168Y-222388D01*
X64087Y-222395D01*
X64021Y-222403D01*
X63991Y-222410D01*
X63976D01*
X63843Y-222447D01*
X63725Y-222484D01*
X63622Y-222528D01*
X63533Y-222573D01*
X63460Y-222609D01*
X63401Y-222639D01*
X63371Y-222661D01*
X63356Y-222669D01*
X63268Y-222742D01*
X63187Y-222831D01*
X63113Y-222927D01*
X63054Y-223015D01*
X63002Y-223104D01*
X62965Y-223170D01*
X62943Y-223215D01*
X62936Y-223222D01*
Y-223230D01*
X62884Y-223377D01*
X62840Y-223517D01*
X62810Y-223657D01*
X62795Y-223783D01*
X62781Y-223894D01*
X62773Y-223975D01*
Y-222366D01*
X64574D01*
X64412Y-222373D01*
D02*
G37*
G36*
X74571Y-223425D02*
X74645Y-223432D01*
X74711Y-223455D01*
X74770Y-223477D01*
X74822Y-223492D01*
X74859Y-223514D01*
X74881Y-223521D01*
X74888Y-223528D01*
X74955Y-223580D01*
X75006Y-223632D01*
X75051Y-223683D01*
X75095Y-223742D01*
X75124Y-223787D01*
X75147Y-223824D01*
X75154Y-223853D01*
X75161Y-223861D01*
X75198Y-223956D01*
X75228Y-224067D01*
X75257Y-224185D01*
X75279Y-224303D01*
X75301Y-224414D01*
X75316Y-224510D01*
X75324Y-224539D01*
X75331Y-224569D01*
Y-224591D01*
X75353Y-224761D01*
X75383Y-224916D01*
X75405Y-225056D01*
X75434Y-225189D01*
X75464Y-225314D01*
X75486Y-225425D01*
X75516Y-225528D01*
X75538Y-225624D01*
X75560Y-225698D01*
X75582Y-225772D01*
X75597Y-225831D01*
X75619Y-225875D01*
X75634Y-225912D01*
X75641Y-225942D01*
X75648Y-225956D01*
Y-225964D01*
X75339Y-225956D01*
X75147Y-225949D01*
X74977Y-225934D01*
X74829Y-225912D01*
X74711Y-225890D01*
X74623Y-225868D01*
X74556Y-225846D01*
X74519Y-225831D01*
X74505Y-225823D01*
X74372Y-225750D01*
X74261Y-225661D01*
X74158Y-225573D01*
X74076Y-225484D01*
X74010Y-225395D01*
X73958Y-225329D01*
X73929Y-225285D01*
X73922Y-225277D01*
Y-225270D01*
X73855Y-225122D01*
X73803Y-224975D01*
X73766Y-224835D01*
X73744Y-224694D01*
X73730Y-224584D01*
X73722Y-224532D01*
X73715Y-224488D01*
Y-224407D01*
X73722Y-224237D01*
X73752Y-224089D01*
X73789Y-223956D01*
X73826Y-223853D01*
X73870Y-223772D01*
X73899Y-223713D01*
X73929Y-223683D01*
X73936Y-223669D01*
X74025Y-223587D01*
X74113Y-223521D01*
X74209Y-223477D01*
X74298Y-223447D01*
X74372Y-223432D01*
X74438Y-223425D01*
X74475Y-223418D01*
X74490D01*
X74571Y-223425D01*
D02*
G37*
G36*
X69541Y-228654D02*
X69039Y-227820D01*
X67821D01*
Y-227200D01*
X69541D01*
Y-228654D01*
D02*
G37*
G36*
X88383Y-229794D02*
X83033D01*
X88383Y-226215D01*
Y-229794D01*
D02*
G37*
G36*
X79228Y-236694D02*
X79213Y-236820D01*
X79198Y-236938D01*
X79176Y-237049D01*
X79154Y-237144D01*
X79124Y-237233D01*
X79102Y-237314D01*
X79073Y-237388D01*
X79043Y-237454D01*
X79014Y-237506D01*
X78984Y-237558D01*
X78962Y-237595D01*
X78940Y-237624D01*
X78925Y-237646D01*
X78918Y-237654D01*
X78910Y-237661D01*
X78851Y-237720D01*
X78785Y-237779D01*
X78659Y-237868D01*
X78527Y-237927D01*
X78401Y-237971D01*
X78290Y-238000D01*
X78239Y-238008D01*
X78202D01*
X78165Y-238015D01*
X78143D01*
X78128D01*
X78121D01*
X78003Y-238008D01*
X77885Y-237986D01*
X77781Y-237956D01*
X77693Y-237927D01*
X77612Y-237890D01*
X77560Y-237860D01*
X77523Y-237838D01*
X77508Y-237831D01*
X77412Y-237757D01*
X77324Y-237668D01*
X77257Y-237580D01*
X77198Y-237499D01*
X77154Y-237418D01*
X77124Y-237358D01*
X77110Y-237314D01*
X77102Y-237307D01*
Y-237299D01*
X77058Y-237159D01*
X77029Y-237004D01*
X77006Y-236842D01*
X76992Y-236687D01*
X76984Y-236547D01*
Y-236488D01*
X76977Y-236436D01*
Y-234399D01*
X79228D01*
Y-236694D01*
D02*
G37*
G36*
X76195Y-235558D02*
X76187Y-235661D01*
X76180Y-235750D01*
Y-235823D01*
X76172Y-235875D01*
X76165Y-235912D01*
X76158Y-235934D01*
Y-235942D01*
X76135Y-236023D01*
X76106Y-236097D01*
X76076Y-236163D01*
X76047Y-236229D01*
X76017Y-236281D01*
X75995Y-236318D01*
X75981Y-236347D01*
X75973Y-236355D01*
X75921Y-236429D01*
X75848Y-236510D01*
X75774Y-236591D01*
X75700Y-236657D01*
X75634Y-236724D01*
X75575Y-236768D01*
X75538Y-236798D01*
X75530Y-236812D01*
X75523D01*
X75390Y-236916D01*
X75243Y-237026D01*
X75087Y-237130D01*
X74933Y-237233D01*
X74800Y-237322D01*
X74741Y-237366D01*
X74689Y-237395D01*
X74645Y-237425D01*
X74615Y-237447D01*
X74593Y-237454D01*
X74586Y-237462D01*
X73169Y-238362D01*
Y-234399D01*
X76195D01*
Y-235558D01*
D02*
G37*
G36*
X65105Y-237488D02*
X64891Y-237510D01*
X64692Y-237539D01*
X64508Y-237576D01*
X64338Y-237620D01*
X64183Y-237672D01*
X64043Y-237731D01*
X63917Y-237790D01*
X63806Y-237842D01*
X63703Y-237901D01*
X63622Y-237953D01*
X63556Y-237997D01*
X63497Y-238034D01*
X63460Y-238063D01*
X63437Y-238085D01*
X63430Y-238093D01*
X63312Y-238211D01*
X63216Y-238336D01*
X63127Y-238469D01*
X63054Y-238602D01*
X62987Y-238742D01*
X62936Y-238875D01*
X62891Y-239008D01*
X62854Y-239133D01*
X62825Y-239251D01*
X62810Y-239362D01*
X62795Y-239465D01*
X62781Y-239547D01*
Y-239620D01*
X62773Y-239672D01*
Y-237480D01*
X65327D01*
X65105Y-237488D01*
D02*
G37*
G36*
X65519Y-243037D02*
X65681Y-243045D01*
X65829Y-243067D01*
X65969Y-243096D01*
X66094Y-243126D01*
X66212Y-243163D01*
X66316Y-243200D01*
X66412Y-243237D01*
X66493Y-243273D01*
X66567Y-243310D01*
X66626Y-243347D01*
X66677Y-243377D01*
X66714Y-243406D01*
X66744Y-243428D01*
X66759Y-243436D01*
X66766Y-243443D01*
X66847Y-243525D01*
X66921Y-243606D01*
X66987Y-243694D01*
X67039Y-243783D01*
X67083Y-243871D01*
X67120Y-243952D01*
X67179Y-244122D01*
X67216Y-244263D01*
X67223Y-244329D01*
X67231Y-244380D01*
X67238Y-244425D01*
Y-244484D01*
X67231Y-244595D01*
X67216Y-244705D01*
X67194Y-244809D01*
X67164Y-244904D01*
X67091Y-245082D01*
X67002Y-245237D01*
X66958Y-245296D01*
X66913Y-245355D01*
X66877Y-245399D01*
X66840Y-245443D01*
X66810Y-245473D01*
X66788Y-245495D01*
X66773Y-245510D01*
X66766Y-245517D01*
X66670Y-245591D01*
X66574Y-245657D01*
X66463Y-245709D01*
X66353Y-245761D01*
X66234Y-245805D01*
X66116Y-245834D01*
X65895Y-245886D01*
X65792Y-245901D01*
X65696Y-245916D01*
X65607Y-245923D01*
X65526Y-245930D01*
X65467Y-245938D01*
X65415D01*
X65386D01*
X65378D01*
X65201Y-245930D01*
X65039Y-245923D01*
X64884Y-245901D01*
X64744Y-245871D01*
X64611Y-245842D01*
X64493Y-245805D01*
X64382Y-245768D01*
X64293Y-245731D01*
X64205Y-245687D01*
X64131Y-245650D01*
X64072Y-245613D01*
X64021Y-245584D01*
X63984Y-245554D01*
X63954Y-245532D01*
X63939Y-245524D01*
X63932Y-245517D01*
X63851Y-245436D01*
X63777Y-245355D01*
X63710Y-245266D01*
X63659Y-245185D01*
X63615Y-245096D01*
X63578Y-245008D01*
X63519Y-244846D01*
X63482Y-244705D01*
X63474Y-244639D01*
X63467Y-244587D01*
X63460Y-244543D01*
Y-244484D01*
X63467Y-244366D01*
X63482Y-244263D01*
X63504Y-244152D01*
X63533Y-244056D01*
X63607Y-243879D01*
X63696Y-243731D01*
X63733Y-243665D01*
X63777Y-243606D01*
X63814Y-243561D01*
X63851Y-243517D01*
X63880Y-243488D01*
X63902Y-243465D01*
X63917Y-243451D01*
X63924Y-243443D01*
X64021Y-243370D01*
X64124Y-243310D01*
X64235Y-243251D01*
X64345Y-243207D01*
X64581Y-243133D01*
X64818Y-243082D01*
X64921Y-243067D01*
X65024Y-243052D01*
X65113Y-243045D01*
X65194Y-243037D01*
X65260Y-243030D01*
X65305D01*
X65342D01*
X65349D01*
X65519Y-243037D01*
D02*
G37*
G36*
X74571Y-257794D02*
X74645Y-257801D01*
X74711Y-257823D01*
X74770Y-257845D01*
X74822Y-257860D01*
X74859Y-257882D01*
X74881Y-257890D01*
X74888Y-257897D01*
X74955Y-257949D01*
X75006Y-258000D01*
X75051Y-258052D01*
X75095Y-258111D01*
X75124Y-258155D01*
X75147Y-258192D01*
X75154Y-258222D01*
X75161Y-258229D01*
X75198Y-258325D01*
X75228Y-258436D01*
X75257Y-258554D01*
X75279Y-258672D01*
X75301Y-258783D01*
X75316Y-258879D01*
X75324Y-258908D01*
X75331Y-258938D01*
Y-258960D01*
X75353Y-259130D01*
X75383Y-259284D01*
X75405Y-259425D01*
X75434Y-259558D01*
X75464Y-259683D01*
X75486Y-259794D01*
X75516Y-259897D01*
X75538Y-259993D01*
X75560Y-260067D01*
X75582Y-260140D01*
X75597Y-260200D01*
X75619Y-260244D01*
X75634Y-260281D01*
X75641Y-260310D01*
X75648Y-260325D01*
Y-260332D01*
X75339Y-260325D01*
X75147Y-260318D01*
X74977Y-260303D01*
X74829Y-260281D01*
X74711Y-260259D01*
X74623Y-260237D01*
X74556Y-260214D01*
X74519Y-260200D01*
X74505Y-260192D01*
X74372Y-260118D01*
X74261Y-260030D01*
X74158Y-259941D01*
X74076Y-259853D01*
X74010Y-259764D01*
X73958Y-259698D01*
X73929Y-259653D01*
X73922Y-259646D01*
Y-259639D01*
X73855Y-259491D01*
X73803Y-259344D01*
X73766Y-259203D01*
X73744Y-259063D01*
X73730Y-258952D01*
X73722Y-258901D01*
X73715Y-258856D01*
Y-258775D01*
X73722Y-258606D01*
X73752Y-258458D01*
X73789Y-258325D01*
X73826Y-258222D01*
X73870Y-258141D01*
X73899Y-258082D01*
X73929Y-258052D01*
X73936Y-258037D01*
X74025Y-257956D01*
X74113Y-257890D01*
X74209Y-257845D01*
X74298Y-257816D01*
X74372Y-257801D01*
X74438Y-257794D01*
X74475Y-257786D01*
X74490D01*
X74571Y-257794D01*
D02*
G37*
D10*
X20130Y-231748D02*
G03*
X20130Y-231748I-787J0D01*
G01*
X37846D02*
G03*
X37846Y-231748I-787J0D01*
G01*
X25248D02*
X31018Y-229440D01*
X19342Y-231748D02*
X25248D01*
X31154D02*
X37059D01*
Y-239622D02*
Y-223874D01*
X19342Y-239622D02*
Y-223874D01*
X40405Y-241984D02*
Y-221512D01*
X23476Y-243953D02*
X32925D01*
X15996Y-241984D02*
Y-221512D01*
X23476Y-219543D02*
X32925D01*
X26626Y-77276D02*
Y-73480D01*
Y-83575D02*
Y-80708D01*
X20720Y-75842D02*
Y-71265D01*
X18752Y-70724D02*
X20111D01*
X18752Y-73283D02*
Y-70724D01*
Y-73283D02*
X20720D01*
X18752Y-91000D02*
X20720D01*
X18752Y-93559D02*
Y-91000D01*
Y-93559D02*
X20111D01*
X37256Y-95221D02*
Y-69063D01*
X27807Y-76531D02*
X29579D01*
X27807D02*
Y-74957D01*
X29579D01*
X27807Y-79779D02*
X30169D01*
X27807D02*
Y-78205D01*
X30169D01*
Y-79779D02*
Y-78205D01*
X27807Y-82831D02*
X29579D01*
X27807D02*
Y-81256D01*
X29579D01*
X27807Y-86079D02*
X30169D01*
X27807D02*
Y-84504D01*
X30169D01*
Y-86079D02*
Y-84504D01*
X27807Y-89228D02*
X29579D01*
X27807D02*
Y-87653D01*
X29579D01*
X26626Y-90803D02*
X27020Y-91197D01*
X29382D01*
X30138Y-90760D01*
X29382Y-73087D02*
X30138Y-73523D01*
X27020Y-73087D02*
X29382D01*
X26626Y-73480D02*
X27020Y-73087D01*
X26626Y-90803D02*
Y-87007D01*
Y-90803D02*
X27020Y-91197D01*
X20720Y-93018D02*
Y-88441D01*
D11*
X52807Y-356551D02*
Y-303795D01*
X3594Y-356551D02*
Y-303795D01*
Y-356551D02*
X52807D01*
X3594Y-303795D02*
X52807D01*
X54390Y-23252D02*
X196122D01*
X54390Y-338213D02*
X196122D01*
Y-23252D01*
X54390Y-338213D02*
Y-23252D01*
X21750Y-256747D02*
Y-250749D01*
X24749D01*
X25749Y-251749D01*
Y-253748D01*
X24749Y-254748D01*
X21750D01*
X27748Y-250749D02*
Y-256747D01*
X30747D01*
X31747Y-255747D01*
Y-254748D01*
X30747Y-253748D01*
X27748D01*
X30747D01*
X31747Y-252748D01*
Y-251749D01*
X30747Y-250749D01*
X27748D01*
X33746Y-256747D02*
X35746D01*
X34746D01*
Y-250749D01*
X33746Y-251749D01*
X24249Y-286749D02*
X23249Y-285749D01*
X21250D01*
X20250Y-286749D01*
Y-287748D01*
X21250Y-288748D01*
X23249D01*
X24249Y-289748D01*
Y-290747D01*
X23249Y-291747D01*
X21250D01*
X20250Y-290747D01*
X26248Y-285749D02*
Y-291747D01*
X28248Y-289748D01*
X30247Y-291747D01*
Y-285749D01*
X32246Y-291747D02*
X34246D01*
X33246D01*
Y-285749D01*
X32246Y-286749D01*
X13353Y-81248D02*
Y-79249D01*
Y-80248D01*
X8355D01*
X7355Y-79249D01*
Y-78249D01*
X8355Y-77249D01*
X7355Y-83247D02*
Y-85247D01*
Y-84247D01*
X13353D01*
X12354Y-83247D01*
X52247Y-167755D02*
X46249D01*
Y-170754D01*
X47248Y-171754D01*
X51247D01*
X52247Y-170754D01*
Y-167755D01*
X46249Y-173753D02*
Y-175752D01*
Y-174753D01*
X50247D01*
Y-173753D01*
X46249Y-178751D02*
Y-181750D01*
X47248Y-182750D01*
X48248Y-181750D01*
Y-179751D01*
X49248Y-178751D01*
X50247Y-179751D01*
Y-182750D01*
X44249Y-184749D02*
X50247D01*
Y-187748D01*
X49248Y-188748D01*
X47248D01*
X46249Y-187748D01*
Y-184749D01*
Y-190747D02*
Y-192747D01*
Y-191747D01*
X52247D01*
Y-190747D01*
X50247Y-196746D02*
Y-198745D01*
X49248Y-199744D01*
X46249D01*
Y-196746D01*
X47248Y-195746D01*
X48248Y-196746D01*
Y-199744D01*
X50247Y-201744D02*
X47248D01*
X46249Y-202744D01*
Y-205743D01*
X45249D01*
X44249Y-204743D01*
Y-203743D01*
X46249Y-205743D02*
X50247D01*
X46249Y-207742D02*
Y-209741D01*
Y-208742D01*
X52247D01*
X51247Y-207742D01*
M02*
