G04*
G04 #@! TF.GenerationSoftware,Altium Limited,Altium Designer,22.4.2 (48)*
G04*
G04 Layer_Physical_Order=4*
G04 Layer_Color=16711680*
%FSLAX25Y25*%
%MOIN*%
G70*
G04*
G04 #@! TF.SameCoordinates,BF995A2F-270A-488B-8232-C5E1CECBCCF0*
G04*
G04*
G04 #@! TF.FilePolarity,Positive*
G04*
G01*
G75*
%ADD21C,0.00984*%
%ADD22C,0.01575*%
%ADD24C,0.07874*%
%ADD25C,0.17717*%
G04:AMPARAMS|DCode=26|XSize=78.74mil|YSize=78.74mil|CornerRadius=19.68mil|HoleSize=0mil|Usage=FLASHONLY|Rotation=270.000|XOffset=0mil|YOffset=0mil|HoleType=Round|Shape=RoundedRectangle|*
%AMROUNDEDRECTD26*
21,1,0.07874,0.03937,0,0,270.0*
21,1,0.03937,0.07874,0,0,270.0*
1,1,0.03937,-0.01968,-0.01968*
1,1,0.03937,-0.01968,0.01968*
1,1,0.03937,0.01968,0.01968*
1,1,0.03937,0.01968,-0.01968*
%
%ADD26ROUNDEDRECTD26*%
%ADD27C,0.19685*%
%ADD28C,0.05906*%
%ADD29R,0.05906X0.05906*%
%ADD30C,0.04921*%
%ADD31O,0.15354X0.05512*%
%ADD32R,0.05906X0.05906*%
%ADD33C,0.03543*%
%ADD35R,0.03150X0.03543*%
%ADD36R,0.22047X0.22047*%
%ADD37O,0.03347X0.00984*%
%ADD38O,0.00984X0.03347*%
%ADD39R,0.03543X0.03150*%
%ADD40R,0.01772X0.03347*%
%ADD41R,0.03347X0.01772*%
%ADD42R,0.04331X0.06693*%
%ADD43R,0.04134X0.02362*%
G04:AMPARAMS|DCode=44|XSize=15.75mil|YSize=74.8mil|CornerRadius=3.94mil|HoleSize=0mil|Usage=FLASHONLY|Rotation=0.000|XOffset=0mil|YOffset=0mil|HoleType=Round|Shape=RoundedRectangle|*
%AMROUNDEDRECTD44*
21,1,0.01575,0.06693,0,0,0.0*
21,1,0.00787,0.07480,0,0,0.0*
1,1,0.00787,0.00394,-0.03347*
1,1,0.00787,-0.00394,-0.03347*
1,1,0.00787,-0.00394,0.03347*
1,1,0.00787,0.00394,0.03347*
%
%ADD44ROUNDEDRECTD44*%
%ADD45R,0.04724X0.02362*%
%ADD46R,0.02197X0.07756*%
%ADD47C,0.01968*%
%ADD48C,0.01181*%
G36*
X183285Y-66716D02*
X183387Y-67492D01*
X183686Y-68214D01*
X184162Y-68834D01*
X184783Y-69310D01*
X185188Y-69477D01*
Y-70019D01*
X184783Y-70187D01*
X184162Y-70662D01*
X183686Y-71283D01*
X183387Y-72005D01*
X183285Y-72780D01*
Y-76717D01*
X183387Y-77491D01*
X183686Y-78214D01*
X184162Y-78834D01*
X184783Y-79309D01*
X185188Y-79477D01*
Y-80019D01*
X184783Y-80186D01*
X184162Y-80662D01*
X183686Y-81283D01*
X183387Y-82005D01*
X183285Y-82780D01*
Y-84302D01*
X182871D01*
X182174Y-84441D01*
X181583Y-84836D01*
X181583Y-84836D01*
X170370Y-96049D01*
X169870Y-95855D01*
Y-95827D01*
X164070D01*
Y-82003D01*
X166344Y-79730D01*
X166344Y-79730D01*
X166739Y-79138D01*
X166877Y-78441D01*
Y-76059D01*
X167630D01*
Y-73093D01*
X168852Y-71871D01*
X168852Y-71871D01*
X169247Y-71280D01*
X169385Y-70583D01*
Y-69095D01*
X170728D01*
Y-66571D01*
X183285D01*
Y-66716D01*
D02*
G37*
G36*
X183852Y-88429D02*
X184162Y-88834D01*
X184783Y-89310D01*
X185188Y-89477D01*
Y-90019D01*
X184783Y-90187D01*
X184162Y-90662D01*
X183686Y-91282D01*
X183387Y-92005D01*
X183285Y-92779D01*
Y-96716D01*
X183383Y-97461D01*
X176172Y-104672D01*
X175842Y-105166D01*
X175727Y-105748D01*
Y-108118D01*
X168182Y-115662D01*
X167720Y-115471D01*
Y-114702D01*
X167750Y-114555D01*
X167750Y-114555D01*
Y-114398D01*
X167879Y-114269D01*
X167879Y-114269D01*
X168209Y-113775D01*
X168324Y-113193D01*
Y-100189D01*
X169870D01*
Y-99830D01*
X170988D01*
X170988Y-99830D01*
X171686Y-99692D01*
X172277Y-99296D01*
X183240Y-88333D01*
X183852Y-88429D01*
D02*
G37*
G36*
X104248Y-72248D02*
Y-123248D01*
X100248Y-127248D01*
X1529D01*
Y-63248D01*
X95248D01*
X104248Y-72248D01*
D02*
G37*
G36*
X183859Y-108438D02*
X184162Y-108834D01*
X184783Y-109309D01*
X185188Y-109477D01*
Y-110019D01*
X184783Y-110187D01*
X184162Y-110662D01*
X183686Y-111283D01*
X183387Y-112005D01*
X183285Y-112779D01*
Y-116717D01*
X183387Y-117491D01*
X183686Y-118214D01*
X184162Y-118834D01*
X184783Y-119309D01*
X185188Y-119477D01*
Y-120019D01*
X184783Y-120186D01*
X184162Y-120662D01*
X183686Y-121282D01*
X183387Y-122005D01*
X183285Y-122780D01*
Y-126716D01*
X183387Y-127491D01*
X183686Y-128214D01*
X184162Y-128834D01*
X184783Y-129309D01*
X185188Y-129477D01*
Y-130019D01*
X184783Y-130186D01*
X184162Y-130662D01*
X183686Y-131282D01*
X183387Y-132005D01*
X183285Y-132780D01*
Y-136716D01*
X183326Y-137024D01*
X182845Y-137205D01*
X182824Y-137172D01*
X168973Y-123322D01*
X168758Y-123178D01*
X168830Y-122654D01*
X169324Y-122324D01*
X183234Y-108414D01*
X183280Y-108393D01*
X183859Y-108438D01*
D02*
G37*
G36*
X165282Y-112563D02*
X165153Y-112692D01*
X164905Y-113063D01*
X162374D01*
Y-116835D01*
Y-119984D01*
Y-123134D01*
Y-126284D01*
X167632D01*
X180227Y-138878D01*
Y-144984D01*
X179727Y-145033D01*
X179654Y-144666D01*
X179324Y-144172D01*
X171025Y-135873D01*
X170531Y-135543D01*
X169949Y-135427D01*
X168220D01*
Y-135063D01*
X162874D01*
Y-138835D01*
Y-141984D01*
Y-145134D01*
Y-148284D01*
X164026D01*
Y-148819D01*
X162866Y-149979D01*
X162398D01*
X161950Y-149530D01*
X161318Y-149165D01*
X160613Y-148976D01*
X159883D01*
X159178Y-149165D01*
X158546Y-149530D01*
X158030Y-150046D01*
X157926Y-150227D01*
X156878D01*
X155171Y-148519D01*
X155378Y-148019D01*
X156575D01*
Y-148284D01*
X161921D01*
Y-145134D01*
Y-141984D01*
Y-138835D01*
Y-135063D01*
X161071D01*
Y-126284D01*
X161421D01*
Y-123134D01*
Y-119984D01*
Y-116835D01*
Y-113063D01*
X160571D01*
Y-112003D01*
X163537Y-109037D01*
X163537Y-109037D01*
X163932Y-108445D01*
X164070Y-107748D01*
X164070Y-107748D01*
Y-100189D01*
X165282D01*
Y-112563D01*
D02*
G37*
G36*
X183383Y-162035D02*
X183285Y-162779D01*
Y-166717D01*
X183317Y-166959D01*
X182844Y-167192D01*
X176769Y-161118D01*
Y-156110D01*
X176888Y-156026D01*
X177269Y-155921D01*
X183383Y-162035D01*
D02*
G37*
G36*
Y-172035D02*
X183285Y-172780D01*
Y-176716D01*
X183317Y-176959D01*
X182844Y-177192D01*
X174519Y-168868D01*
Y-163824D01*
X174981Y-163633D01*
X183383Y-172035D01*
D02*
G37*
G36*
X195321Y-391496D02*
X1529D01*
Y-153996D01*
X61650D01*
Y-163026D01*
X61650D01*
X61698Y-163526D01*
X61178Y-163665D01*
X60546Y-164030D01*
X60030Y-164546D01*
X59665Y-165178D01*
X59476Y-165883D01*
Y-166613D01*
X59665Y-167318D01*
X60030Y-167950D01*
X60546Y-168466D01*
X61178Y-168831D01*
X61883Y-169020D01*
X62613D01*
X63318Y-168831D01*
X63950Y-168466D01*
X64466Y-167950D01*
X64831Y-167318D01*
X65020Y-166613D01*
Y-165883D01*
X64952Y-165631D01*
X65154Y-165330D01*
X65269Y-164748D01*
Y-163026D01*
X65847D01*
Y-153996D01*
X67050D01*
Y-157648D01*
X68748D01*
X70446D01*
Y-153996D01*
X71650D01*
Y-163026D01*
X72227D01*
Y-167976D01*
X71902D01*
Y-172269D01*
X71665Y-172678D01*
X71476Y-173383D01*
Y-174113D01*
X71665Y-174818D01*
X71980Y-175364D01*
Y-180059D01*
X77130D01*
Y-174516D01*
X77130D01*
X76968Y-174305D01*
X77020Y-174113D01*
Y-173520D01*
X77051D01*
Y-167976D01*
X75269D01*
Y-163026D01*
X75846D01*
Y-159669D01*
X76650D01*
Y-163026D01*
X80847D01*
Y-159669D01*
X81650D01*
Y-163026D01*
X85847D01*
Y-153996D01*
X86650D01*
Y-163026D01*
X87227D01*
Y-170248D01*
X87343Y-170830D01*
X87672Y-171324D01*
X114179Y-197831D01*
Y-301694D01*
X113679Y-301760D01*
X113614Y-301517D01*
X113249Y-300885D01*
X112733Y-300369D01*
X112101Y-300004D01*
X111396Y-299815D01*
X110667D01*
X109962Y-300004D01*
X109330Y-300369D01*
X108814Y-300885D01*
X108449Y-301517D01*
X108347Y-301895D01*
X107790Y-302045D01*
X103870Y-298126D01*
X103377Y-297796D01*
X102795Y-297680D01*
X92701D01*
X92119Y-297796D01*
X91626Y-298126D01*
X91625Y-298126D01*
X80831Y-308920D01*
X80501Y-309414D01*
X80385Y-309996D01*
Y-331459D01*
X67582Y-344263D01*
X36712D01*
X36712Y-344263D01*
X36130Y-344379D01*
X35636Y-344709D01*
X35636Y-344709D01*
X24134Y-356211D01*
X23062D01*
X22959Y-355827D01*
X22309Y-354701D01*
X21390Y-353782D01*
X20264Y-353132D01*
X19008Y-352795D01*
X17708D01*
X16453Y-353132D01*
X15327Y-353782D01*
X14408Y-354701D01*
X13758Y-355827D01*
X13421Y-357082D01*
Y-358382D01*
X13758Y-359638D01*
X14408Y-360764D01*
X15327Y-361683D01*
X16453Y-362333D01*
X17708Y-362669D01*
X19008D01*
X20264Y-362333D01*
X21390Y-361683D01*
X22309Y-360764D01*
X22959Y-359638D01*
X23062Y-359254D01*
X24764D01*
X25346Y-359138D01*
X25839Y-358808D01*
X37342Y-347306D01*
X68212D01*
X68794Y-347190D01*
X69288Y-346860D01*
X79765Y-336383D01*
X80227Y-336574D01*
Y-337748D01*
X80343Y-338330D01*
X80672Y-338824D01*
X80903Y-339055D01*
X80849Y-339256D01*
Y-339986D01*
X81038Y-340691D01*
X81403Y-341323D01*
X81919Y-341839D01*
X82551Y-342203D01*
X83256Y-342392D01*
X83299D01*
X83490Y-342854D01*
X72172Y-354172D01*
X71842Y-354666D01*
X71727Y-355248D01*
Y-358618D01*
X65314Y-365030D01*
X65113Y-364976D01*
X64383D01*
X63678Y-365165D01*
X63046Y-365530D01*
X62530Y-366046D01*
X62165Y-366678D01*
X61976Y-367383D01*
Y-368113D01*
X62165Y-368818D01*
X62401Y-369227D01*
X62132Y-369727D01*
X58004D01*
X58004Y-369727D01*
X57422Y-369843D01*
X56928Y-370172D01*
X56928Y-370172D01*
X54955Y-372146D01*
X54951Y-372143D01*
X53946Y-371874D01*
X52905D01*
X51899Y-372143D01*
X50998Y-372664D01*
X50262Y-373400D01*
X49742Y-374301D01*
X49472Y-375306D01*
Y-376347D01*
X49742Y-377352D01*
X50262Y-378254D01*
X50998Y-378990D01*
X51899Y-379510D01*
X52905Y-379780D01*
X53946D01*
X54951Y-379510D01*
X55852Y-378990D01*
X56588Y-378254D01*
X57109Y-377352D01*
X57378Y-376347D01*
Y-375306D01*
X57109Y-374301D01*
X57106Y-374297D01*
X58634Y-372769D01*
X60239D01*
X60431Y-373231D01*
X60262Y-373400D01*
X59742Y-374301D01*
X59473Y-375306D01*
Y-376347D01*
X59742Y-377352D01*
X60262Y-378254D01*
X60998Y-378990D01*
X61900Y-379510D01*
X62905Y-379780D01*
X63946D01*
X64951Y-379510D01*
X65852Y-378990D01*
X66227Y-378615D01*
X66727Y-378822D01*
Y-380374D01*
X64955Y-382146D01*
X64951Y-382143D01*
X63946Y-381874D01*
X62905D01*
X61900Y-382143D01*
X60998Y-382664D01*
X60262Y-383400D01*
X59742Y-384301D01*
X59473Y-385306D01*
Y-386347D01*
X59742Y-387352D01*
X60262Y-388254D01*
X60998Y-388990D01*
X61900Y-389510D01*
X62905Y-389779D01*
X63946D01*
X64951Y-389510D01*
X65852Y-388990D01*
X66588Y-388254D01*
X67109Y-387352D01*
X67378Y-386347D01*
Y-385306D01*
X67109Y-384301D01*
X67106Y-384297D01*
X69324Y-382080D01*
X69654Y-381586D01*
X69769Y-381004D01*
Y-378366D01*
X70153Y-378263D01*
X70269Y-378261D01*
X70998Y-378990D01*
X71899Y-379510D01*
X72905Y-379780D01*
X73946D01*
X74951Y-379510D01*
X75852Y-378990D01*
X76588Y-378254D01*
X76975Y-377584D01*
X77475Y-377718D01*
Y-379626D01*
X74955Y-382146D01*
X74951Y-382143D01*
X73946Y-381874D01*
X72905D01*
X71899Y-382143D01*
X70998Y-382664D01*
X70262Y-383400D01*
X69742Y-384301D01*
X69472Y-385306D01*
Y-386347D01*
X69742Y-387352D01*
X70262Y-388254D01*
X70998Y-388990D01*
X71899Y-389510D01*
X72905Y-389779D01*
X73946D01*
X74951Y-389510D01*
X75852Y-388990D01*
X76588Y-388254D01*
X77109Y-387352D01*
X77378Y-386347D01*
Y-385306D01*
X77109Y-384301D01*
X77106Y-384297D01*
X80072Y-381332D01*
X80402Y-380838D01*
X80517Y-380256D01*
Y-379162D01*
X80752Y-379065D01*
X81017Y-379001D01*
X81899Y-379510D01*
X82905Y-379780D01*
X83946D01*
X84951Y-379510D01*
X85852Y-378990D01*
X86588Y-378254D01*
X86975Y-377584D01*
X87475Y-377718D01*
Y-379626D01*
X84955Y-382146D01*
X84951Y-382143D01*
X83946Y-381874D01*
X82905D01*
X81899Y-382143D01*
X80998Y-382664D01*
X80262Y-383400D01*
X79742Y-384301D01*
X79473Y-385306D01*
Y-386347D01*
X79742Y-387352D01*
X80262Y-388254D01*
X80998Y-388990D01*
X81899Y-389510D01*
X82905Y-389779D01*
X83946D01*
X84951Y-389510D01*
X85852Y-388990D01*
X86588Y-388254D01*
X87109Y-387352D01*
X87378Y-386347D01*
Y-385306D01*
X87109Y-384301D01*
X87106Y-384297D01*
X90072Y-381332D01*
X90402Y-380838D01*
X90517Y-380256D01*
Y-367130D01*
X93824Y-363824D01*
X93824Y-363824D01*
X94154Y-363330D01*
X94269Y-362748D01*
Y-358796D01*
X96265Y-356801D01*
X96727Y-356992D01*
Y-380374D01*
X94955Y-382146D01*
X94951Y-382143D01*
X93946Y-381874D01*
X92905D01*
X91900Y-382143D01*
X90998Y-382664D01*
X90262Y-383400D01*
X89742Y-384301D01*
X89473Y-385306D01*
Y-386347D01*
X89742Y-387352D01*
X90262Y-388254D01*
X90998Y-388990D01*
X91900Y-389510D01*
X92905Y-389779D01*
X93946D01*
X94951Y-389510D01*
X95852Y-388990D01*
X96588Y-388254D01*
X97109Y-387352D01*
X97378Y-386347D01*
Y-385306D01*
X97109Y-384301D01*
X97106Y-384297D01*
X99324Y-382080D01*
X99654Y-381586D01*
X99769Y-381004D01*
Y-378366D01*
X100153Y-378263D01*
X100269Y-378261D01*
X100998Y-378990D01*
X101900Y-379510D01*
X102905Y-379780D01*
X103946D01*
X104951Y-379510D01*
X105852Y-378990D01*
X106588Y-378254D01*
X107109Y-377352D01*
X107378Y-376347D01*
Y-375306D01*
X107109Y-374301D01*
X106588Y-373400D01*
X105852Y-372664D01*
X104951Y-372143D01*
X103946Y-371874D01*
X102905D01*
X101900Y-372143D01*
X100998Y-372664D01*
X100269Y-373393D01*
X100153Y-373390D01*
X99769Y-373287D01*
Y-360414D01*
X100016Y-360016D01*
X105559D01*
Y-356020D01*
X106113D01*
X106818Y-355831D01*
X107450Y-355466D01*
X107966Y-354950D01*
X108331Y-354318D01*
X108520Y-353613D01*
Y-352883D01*
X108331Y-352180D01*
X108380Y-352106D01*
X108903Y-351584D01*
X109232Y-351090D01*
X109348Y-350508D01*
Y-347743D01*
X109795Y-347322D01*
X110221Y-347237D01*
X110274Y-347202D01*
X110688Y-347284D01*
X111182Y-347614D01*
X111764Y-347730D01*
X111824Y-347718D01*
X112211Y-348035D01*
Y-349540D01*
X109924Y-351827D01*
X109595Y-352321D01*
X109479Y-352903D01*
Y-353007D01*
X109475Y-353027D01*
Y-355799D01*
X109413Y-355891D01*
X109341Y-356252D01*
X109125Y-356397D01*
X108817Y-356858D01*
X108709Y-357402D01*
Y-364094D01*
X108817Y-364638D01*
X109125Y-365099D01*
X109586Y-365407D01*
X110130Y-365515D01*
X110917D01*
X111461Y-365407D01*
X111922Y-365099D01*
X112230Y-364638D01*
X112338Y-364094D01*
Y-360462D01*
X112340Y-360453D01*
Y-356970D01*
X112402Y-356878D01*
X112517Y-356296D01*
X112517Y-356296D01*
Y-353537D01*
X114701Y-351353D01*
X118451Y-355103D01*
Y-356581D01*
X118266Y-356858D01*
X118158Y-357402D01*
Y-364094D01*
X118266Y-364638D01*
X118574Y-365099D01*
X119035Y-365407D01*
X119579Y-365515D01*
X120366D01*
X120910Y-365407D01*
X121371Y-365099D01*
X121404Y-365050D01*
X121904Y-365202D01*
Y-372142D01*
X121899Y-372143D01*
X120998Y-372664D01*
X120262Y-373400D01*
X119742Y-374301D01*
X119473Y-375306D01*
Y-376347D01*
X119742Y-377352D01*
X120262Y-378254D01*
X120998Y-378990D01*
X121899Y-379510D01*
X122905Y-379780D01*
X123946D01*
X124951Y-379510D01*
X125852Y-378990D01*
X126588Y-378254D01*
X126695Y-378068D01*
X127195Y-378203D01*
Y-379905D01*
X124955Y-382146D01*
X124951Y-382143D01*
X123946Y-381874D01*
X122905D01*
X121899Y-382143D01*
X120998Y-382664D01*
X120262Y-383400D01*
X119742Y-384301D01*
X119473Y-385306D01*
Y-386347D01*
X119742Y-387352D01*
X120262Y-388254D01*
X120998Y-388990D01*
X121899Y-389510D01*
X122905Y-389779D01*
X123946D01*
X124951Y-389510D01*
X125852Y-388990D01*
X126588Y-388254D01*
X127109Y-387352D01*
X127378Y-386347D01*
Y-385306D01*
X127109Y-384301D01*
X127106Y-384297D01*
X129792Y-381611D01*
X130122Y-381118D01*
X130238Y-380535D01*
Y-378937D01*
X130738Y-378730D01*
X130998Y-378990D01*
X131899Y-379510D01*
X132905Y-379780D01*
X133946D01*
X134951Y-379510D01*
X135852Y-378990D01*
X136588Y-378254D01*
X137109Y-377352D01*
X137378Y-376347D01*
Y-375306D01*
X137109Y-374301D01*
X136588Y-373400D01*
X135852Y-372664D01*
X134951Y-372143D01*
X133946Y-371874D01*
X132905D01*
X131899Y-372143D01*
X130998Y-372664D01*
X130738Y-372924D01*
X130238Y-372717D01*
Y-368865D01*
X130738Y-368658D01*
X131046Y-368966D01*
X131678Y-369331D01*
X132383Y-369520D01*
X133113D01*
X133818Y-369331D01*
X134450Y-368966D01*
X134966Y-368450D01*
X135331Y-367818D01*
X135520Y-367113D01*
Y-366383D01*
X135331Y-365678D01*
X134966Y-365046D01*
X134450Y-364530D01*
X133818Y-364165D01*
X133113Y-363976D01*
X132383D01*
X131678Y-364165D01*
X131046Y-364530D01*
X130738Y-364839D01*
X130238Y-364631D01*
Y-356933D01*
X130122Y-356350D01*
X129792Y-355857D01*
X129792Y-355857D01*
X127455Y-353520D01*
X127662Y-353020D01*
X128113D01*
X128818Y-352831D01*
X129450Y-352466D01*
X129966Y-351950D01*
X130331Y-351318D01*
X130520Y-350613D01*
Y-349883D01*
X130331Y-349178D01*
X129966Y-348546D01*
X129450Y-348030D01*
X128818Y-347665D01*
X128113Y-347476D01*
X127383D01*
X126678Y-347665D01*
X126046Y-348030D01*
X125759Y-348318D01*
X125103Y-348370D01*
X124550Y-347816D01*
X124599Y-347319D01*
X124651Y-347284D01*
X124980Y-346791D01*
X125096Y-346209D01*
Y-344056D01*
X125258Y-343758D01*
X125556Y-343596D01*
X127078D01*
X132530Y-349048D01*
X132937Y-349320D01*
Y-353130D01*
X138480D01*
Y-350518D01*
X138980Y-350237D01*
X139521Y-350382D01*
X140251D01*
X140956Y-350193D01*
X141588Y-349828D01*
X142104Y-349312D01*
X142469Y-348680D01*
X142657Y-347975D01*
Y-347245D01*
X142469Y-346540D01*
X142177Y-346036D01*
X142187Y-346028D01*
X142592Y-345743D01*
X143085Y-346073D01*
X143650Y-346185D01*
X143872Y-346571D01*
X144388Y-347087D01*
X145020Y-347452D01*
X145725Y-347641D01*
X146455D01*
X147160Y-347452D01*
X147792Y-347087D01*
X148308Y-346571D01*
X148673Y-345939D01*
X148862Y-345234D01*
Y-344504D01*
X148673Y-343799D01*
X148308Y-343167D01*
X147889Y-342748D01*
X147931Y-342361D01*
X148008Y-342198D01*
X148122Y-342168D01*
X148754Y-341803D01*
X149270Y-341287D01*
X149635Y-340655D01*
X149824Y-339950D01*
Y-339220D01*
X149635Y-338515D01*
X149270Y-337883D01*
X148754Y-337367D01*
X148122Y-337002D01*
X147417Y-336814D01*
X146687D01*
X145982Y-337002D01*
X145539Y-337258D01*
X134410D01*
X132245Y-335093D01*
X131752Y-334764D01*
X131169Y-334648D01*
X129243D01*
X128822Y-334201D01*
X129243Y-333754D01*
X144976D01*
Y-333877D01*
X145165Y-334582D01*
X145530Y-335214D01*
X146046Y-335730D01*
X146678Y-336095D01*
X147383Y-336283D01*
X148113D01*
X148818Y-336095D01*
X149450Y-335730D01*
X149966Y-335214D01*
X150331Y-334582D01*
X150412Y-334277D01*
X150995Y-334036D01*
X151151Y-334126D01*
X151856Y-334315D01*
X152585D01*
X153290Y-334126D01*
X153922Y-333761D01*
X154438Y-333245D01*
X154803Y-332613D01*
X154992Y-331908D01*
Y-331178D01*
X154803Y-330473D01*
X154713Y-330317D01*
X155001Y-329817D01*
X161201D01*
X161783Y-329701D01*
X162276Y-329371D01*
X174324Y-317324D01*
X174324Y-317324D01*
X174654Y-316830D01*
X174769Y-316248D01*
Y-200378D01*
X182844Y-192304D01*
X183317Y-192537D01*
X183285Y-192780D01*
Y-196716D01*
X183387Y-197492D01*
X183686Y-198214D01*
X184162Y-198834D01*
X184783Y-199310D01*
X185188Y-199477D01*
Y-200019D01*
X184783Y-200186D01*
X184162Y-200662D01*
X183686Y-201283D01*
X183387Y-202005D01*
X183285Y-202780D01*
Y-206716D01*
X183387Y-207491D01*
X183686Y-208214D01*
X184162Y-208834D01*
X184783Y-209310D01*
X185505Y-209609D01*
X186279Y-209711D01*
X190217D01*
X190991Y-209609D01*
X191714Y-209310D01*
X192334Y-208834D01*
X192809Y-208214D01*
X193109Y-207491D01*
X193211Y-206716D01*
Y-202780D01*
X193109Y-202005D01*
X192809Y-201283D01*
X192334Y-200662D01*
X191714Y-200186D01*
X191308Y-200019D01*
Y-199477D01*
X191714Y-199310D01*
X192334Y-198834D01*
X192809Y-198214D01*
X193109Y-197492D01*
X193211Y-196716D01*
Y-192780D01*
X193109Y-192005D01*
X192809Y-191282D01*
X192334Y-190662D01*
X191714Y-190187D01*
X191308Y-190019D01*
Y-189477D01*
X191714Y-189310D01*
X192334Y-188834D01*
X192809Y-188214D01*
X193109Y-187492D01*
X193211Y-186716D01*
Y-182780D01*
X193109Y-182005D01*
X192809Y-181282D01*
X192334Y-180662D01*
X191714Y-180186D01*
X191308Y-180019D01*
Y-179477D01*
X191714Y-179309D01*
X192334Y-178834D01*
X192809Y-178214D01*
X193109Y-177491D01*
X193211Y-176716D01*
Y-172780D01*
X193109Y-172005D01*
X192809Y-171282D01*
X192334Y-170662D01*
X191714Y-170186D01*
X191308Y-170019D01*
Y-169477D01*
X191714Y-169309D01*
X192334Y-168834D01*
X192809Y-168214D01*
X193109Y-167491D01*
X193211Y-166717D01*
Y-162779D01*
X193109Y-162005D01*
X192809Y-161283D01*
X192334Y-160662D01*
X191714Y-160187D01*
X191308Y-160019D01*
Y-159477D01*
X191714Y-159309D01*
X192334Y-158834D01*
X192809Y-158214D01*
X193109Y-157492D01*
X193211Y-156717D01*
Y-152779D01*
X193109Y-152005D01*
X192809Y-151283D01*
X192334Y-150662D01*
X191714Y-150187D01*
X191308Y-150019D01*
Y-149477D01*
X191714Y-149310D01*
X192334Y-148834D01*
X192809Y-148214D01*
X193109Y-147492D01*
X193211Y-146716D01*
Y-142780D01*
X193109Y-142005D01*
X192809Y-141282D01*
X192334Y-140662D01*
X191714Y-140187D01*
X191308Y-140019D01*
Y-139477D01*
X191714Y-139310D01*
X192334Y-138834D01*
X192809Y-138214D01*
X193109Y-137492D01*
X193211Y-136716D01*
Y-132780D01*
X193109Y-132005D01*
X192809Y-131282D01*
X192334Y-130662D01*
X191714Y-130186D01*
X191308Y-130019D01*
Y-129477D01*
X191714Y-129309D01*
X192334Y-128834D01*
X192809Y-128214D01*
X193109Y-127491D01*
X193211Y-126716D01*
Y-122780D01*
X193109Y-122005D01*
X192809Y-121282D01*
X192334Y-120662D01*
X191714Y-120186D01*
X191308Y-120019D01*
Y-119477D01*
X191714Y-119309D01*
X192334Y-118834D01*
X192809Y-118214D01*
X193109Y-117491D01*
X193211Y-116717D01*
Y-112779D01*
X193109Y-112005D01*
X192809Y-111283D01*
X192334Y-110662D01*
X191714Y-110187D01*
X191308Y-110019D01*
Y-109477D01*
X191714Y-109309D01*
X192334Y-108834D01*
X192809Y-108214D01*
X193109Y-107492D01*
X193211Y-106717D01*
Y-102779D01*
X193109Y-102005D01*
X192809Y-101283D01*
X192334Y-100662D01*
X191714Y-100187D01*
X191308Y-100019D01*
Y-99477D01*
X191714Y-99309D01*
X192334Y-98834D01*
X192809Y-98214D01*
X193109Y-97492D01*
X193211Y-96716D01*
Y-92779D01*
X193109Y-92005D01*
X192809Y-91282D01*
X192334Y-90662D01*
X191714Y-90187D01*
X191308Y-90019D01*
Y-89477D01*
X191714Y-89310D01*
X192334Y-88834D01*
X192809Y-88214D01*
X193109Y-87492D01*
X193211Y-86717D01*
Y-82780D01*
X193109Y-82005D01*
X192809Y-81283D01*
X192334Y-80662D01*
X191714Y-80186D01*
X191308Y-80019D01*
Y-79477D01*
X191714Y-79309D01*
X192334Y-78834D01*
X192809Y-78214D01*
X193109Y-77491D01*
X193211Y-76717D01*
Y-72780D01*
X193109Y-72005D01*
X192809Y-71283D01*
X192334Y-70662D01*
X191714Y-70187D01*
X191308Y-70019D01*
Y-69477D01*
X191714Y-69310D01*
X192334Y-68834D01*
X192809Y-68214D01*
X193109Y-67492D01*
X193211Y-66716D01*
Y-62779D01*
X193109Y-62005D01*
X192809Y-61282D01*
X192334Y-60662D01*
X191714Y-60186D01*
X190991Y-59887D01*
X190217Y-59785D01*
X186279D01*
X185505Y-59887D01*
X184783Y-60186D01*
X184162Y-60662D01*
X183686Y-61282D01*
X183387Y-62005D01*
X183285Y-62779D01*
Y-62926D01*
X170728D01*
Y-60402D01*
X169385D01*
Y-57992D01*
X169385Y-57992D01*
X169247Y-57295D01*
X168852Y-56704D01*
X168852Y-56703D01*
X168130Y-55982D01*
Y-53016D01*
X162980D01*
Y-58559D01*
X165553D01*
X165741Y-58747D01*
Y-60402D01*
X164398D01*
Y-69095D01*
X165741D01*
Y-69828D01*
X165053Y-70516D01*
X162480D01*
Y-76059D01*
X163233D01*
Y-77686D01*
X160959Y-79959D01*
X160564Y-80551D01*
X160426Y-81248D01*
X160426Y-81248D01*
Y-91991D01*
X160415Y-92487D01*
X159926Y-92487D01*
X158248D01*
Y-94268D01*
Y-96049D01*
X160415Y-96049D01*
X160426Y-96544D01*
Y-99567D01*
X154681D01*
Y-99567D01*
X154181Y-99761D01*
X153950Y-99530D01*
X153318Y-99165D01*
X152613Y-98976D01*
X151883D01*
X151178Y-99165D01*
X150546Y-99530D01*
X150030Y-100046D01*
X149665Y-100678D01*
X149476Y-101383D01*
Y-102113D01*
X149665Y-102818D01*
X150030Y-103450D01*
X150546Y-103966D01*
X151178Y-104331D01*
X151883Y-104520D01*
X152613D01*
X153318Y-104331D01*
X153950Y-103966D01*
X154181Y-103735D01*
X154681Y-103929D01*
Y-103929D01*
X160426D01*
Y-106993D01*
X157459Y-109959D01*
X157064Y-110551D01*
X156926Y-111248D01*
X156926Y-111248D01*
Y-113063D01*
X156075D01*
Y-116835D01*
Y-119984D01*
Y-123134D01*
Y-126284D01*
X157426D01*
Y-135063D01*
X156575D01*
Y-138835D01*
Y-141984D01*
Y-144776D01*
X155830D01*
X154980Y-143926D01*
X155331Y-143318D01*
X155520Y-142613D01*
Y-141883D01*
X155331Y-141178D01*
X154966Y-140546D01*
X154450Y-140030D01*
X153818Y-139665D01*
X153113Y-139476D01*
X152383D01*
X151678Y-139665D01*
X151046Y-140030D01*
X150530Y-140546D01*
X150165Y-141178D01*
X149976Y-141883D01*
Y-142613D01*
X149978Y-142620D01*
X149530Y-142878D01*
X142769Y-136118D01*
Y-85120D01*
X143976D01*
Y-82748D01*
Y-80376D01*
X142769D01*
Y-79120D01*
X143976D01*
Y-76748D01*
Y-74376D01*
X142769D01*
Y-73516D01*
X142654Y-72934D01*
X142324Y-72440D01*
X139317Y-69433D01*
Y-69177D01*
X139287Y-69030D01*
Y-66307D01*
X133320D01*
X133084Y-65836D01*
X135731Y-63189D01*
X139287D01*
Y-58827D01*
X133153D01*
Y-60612D01*
X129459Y-64306D01*
X129064Y-64897D01*
X128926Y-65595D01*
X128926Y-65595D01*
Y-72248D01*
X128926Y-72248D01*
X129064Y-72945D01*
X129459Y-73537D01*
X130709Y-74786D01*
X131300Y-75181D01*
X131997Y-75320D01*
X131997Y-75320D01*
X134171D01*
X135366Y-76514D01*
Y-79480D01*
X135366D01*
Y-79937D01*
X135248Y-80221D01*
X134727Y-80401D01*
X134318Y-80165D01*
X133613Y-79976D01*
X132883D01*
X132178Y-80165D01*
X131546Y-80530D01*
X131030Y-81046D01*
X130665Y-81678D01*
X130476Y-82383D01*
Y-82651D01*
X130465Y-82709D01*
X130476Y-82766D01*
Y-83113D01*
X130665Y-83818D01*
X131030Y-84450D01*
X131546Y-84966D01*
X132178Y-85331D01*
X132883Y-85520D01*
X133613D01*
X134318Y-85331D01*
X134866Y-85014D01*
X135366Y-85182D01*
Y-85480D01*
X139727D01*
Y-136748D01*
X139842Y-137330D01*
X140172Y-137824D01*
X155172Y-152824D01*
X155172Y-152824D01*
X155666Y-153154D01*
X156248Y-153269D01*
X157926D01*
X158030Y-153450D01*
X158307Y-153727D01*
X158100Y-154227D01*
X146070D01*
X145966Y-154046D01*
X145450Y-153530D01*
X144818Y-153165D01*
X144113Y-152976D01*
X143383D01*
X142678Y-153165D01*
X142046Y-153530D01*
X141530Y-154046D01*
X141165Y-154678D01*
X140976Y-155383D01*
Y-156113D01*
X141165Y-156818D01*
X141530Y-157450D01*
X142046Y-157966D01*
X142678Y-158331D01*
X143383Y-158520D01*
X144113D01*
X144818Y-158331D01*
X145450Y-157966D01*
X145966Y-157450D01*
X146070Y-157269D01*
X159018D01*
X159165Y-157818D01*
X159530Y-158450D01*
X160046Y-158966D01*
X160678Y-159331D01*
X161383Y-159520D01*
X162113D01*
X162818Y-159331D01*
X163450Y-158966D01*
X163966Y-158450D01*
X164331Y-157818D01*
X164520Y-157113D01*
Y-156383D01*
X164331Y-155678D01*
X163966Y-155046D01*
X163450Y-154530D01*
X162818Y-154165D01*
X162534Y-154089D01*
X162384Y-153531D01*
X162466Y-153450D01*
X162713Y-153021D01*
X163496D01*
X164078Y-152905D01*
X164572Y-152576D01*
X166623Y-150525D01*
X166623Y-150525D01*
X166953Y-150031D01*
X167069Y-149449D01*
X167069Y-149449D01*
Y-148284D01*
X168220D01*
Y-146025D01*
X168682Y-145834D01*
X171477Y-148628D01*
Y-169498D01*
X171592Y-170080D01*
X171922Y-170574D01*
X183383Y-182035D01*
X183285Y-182780D01*
Y-186716D01*
X183383Y-187461D01*
X173263Y-197582D01*
X172801Y-197390D01*
Y-182780D01*
X172801Y-182780D01*
X172685Y-182197D01*
X172355Y-181704D01*
X170966Y-180314D01*
X171020Y-180113D01*
Y-179383D01*
X170831Y-178678D01*
X170466Y-178046D01*
X169950Y-177530D01*
X169318Y-177165D01*
X168613Y-176976D01*
X167883D01*
X167178Y-177165D01*
X167021Y-177256D01*
X166521Y-176967D01*
Y-175626D01*
X167182Y-174966D01*
X167383Y-175020D01*
X168113D01*
X168818Y-174831D01*
X169450Y-174466D01*
X169966Y-173950D01*
X170331Y-173318D01*
X170520Y-172613D01*
Y-171883D01*
X170331Y-171178D01*
X169966Y-170546D01*
X169450Y-170030D01*
X168818Y-169665D01*
X168113Y-169476D01*
X167383D01*
X166678Y-169665D01*
X166046Y-170030D01*
X165530Y-170546D01*
X165165Y-171178D01*
X164976Y-171883D01*
Y-172613D01*
X165030Y-172814D01*
X163924Y-173920D01*
X163594Y-174414D01*
X163479Y-174996D01*
Y-183500D01*
X163594Y-184082D01*
X163924Y-184576D01*
X167227Y-187878D01*
Y-312118D01*
X158980Y-320365D01*
X158422Y-320215D01*
X158375Y-320040D01*
X158010Y-319408D01*
X157494Y-318892D01*
X156862Y-318528D01*
X156157Y-318339D01*
X155428D01*
X154723Y-318528D01*
X154091Y-318892D01*
X153575Y-319408D01*
X153210Y-320040D01*
X153021Y-320745D01*
Y-320868D01*
X129535D01*
X129218Y-320482D01*
X129230Y-320421D01*
X129230Y-320421D01*
Y-319698D01*
X137324Y-311605D01*
X137324Y-311605D01*
X137654Y-311111D01*
X137769Y-310529D01*
Y-296882D01*
X140630Y-294021D01*
X145246D01*
X145828Y-293905D01*
X146322Y-293576D01*
X148576Y-291322D01*
X148906Y-290828D01*
X149021Y-290246D01*
Y-282500D01*
X148906Y-281918D01*
X148576Y-281424D01*
X148576Y-281424D01*
X145681Y-278530D01*
X145683Y-278526D01*
X145953Y-277520D01*
Y-276480D01*
X145683Y-275474D01*
X145163Y-274573D01*
X144427Y-273837D01*
X143526Y-273317D01*
X142520Y-273047D01*
X141480D01*
X140474Y-273317D01*
X139573Y-273837D01*
X138837Y-274573D01*
X138317Y-275474D01*
X138047Y-276480D01*
Y-277520D01*
X138317Y-278526D01*
X138837Y-279427D01*
X139573Y-280163D01*
X140474Y-280683D01*
X141480Y-280953D01*
X142520D01*
X143526Y-280683D01*
X143530Y-280681D01*
X145979Y-283130D01*
Y-284986D01*
X145479Y-285120D01*
X145163Y-284573D01*
X144427Y-283837D01*
X143526Y-283317D01*
X142520Y-283047D01*
X141480D01*
X140474Y-283317D01*
X139573Y-283837D01*
X138837Y-284573D01*
X138317Y-285474D01*
X138047Y-286480D01*
Y-287520D01*
X138317Y-288526D01*
X138319Y-288530D01*
X132083Y-294765D01*
X129616D01*
X129616Y-294765D01*
X129034Y-294881D01*
X128541Y-295211D01*
X128541Y-295211D01*
X119653Y-304099D01*
X119191Y-303907D01*
Y-196169D01*
X119075Y-195587D01*
X118745Y-195094D01*
X118745Y-195094D01*
X95269Y-171618D01*
Y-163026D01*
X95846D01*
Y-153996D01*
X97050D01*
Y-157648D01*
X98748D01*
X100446D01*
Y-153996D01*
X123496D01*
Y-39996D01*
X1884Y-40492D01*
X1529Y-40140D01*
Y-1529D01*
X195321D01*
Y-391496D01*
D02*
G37*
G36*
X134727Y-297078D02*
Y-309899D01*
X134092Y-310533D01*
X133630Y-310342D01*
Y-307525D01*
X133638Y-307511D01*
X133827Y-306806D01*
Y-306076D01*
X133638Y-305371D01*
X133273Y-304739D01*
X132757Y-304223D01*
X132125Y-303858D01*
X131420Y-303669D01*
X130690D01*
X129985Y-303858D01*
X129353Y-304223D01*
X128837Y-304739D01*
X128472Y-305371D01*
X128284Y-306076D01*
Y-306806D01*
X128472Y-307511D01*
X128480Y-307525D01*
Y-310908D01*
X127194Y-312193D01*
X126695Y-311986D01*
Y-310748D01*
X124520D01*
X122345D01*
Y-312620D01*
X124384D01*
X124591Y-313120D01*
X122499Y-315212D01*
X122499Y-315212D01*
X122085Y-315294D01*
X122032Y-315259D01*
X121606Y-315174D01*
X121159Y-314753D01*
Y-306895D01*
X130246Y-297808D01*
X132714D01*
X133296Y-297692D01*
X133789Y-297362D01*
X134265Y-296887D01*
X134727Y-297078D01*
D02*
G37*
G36*
X88016Y-312924D02*
Y-314016D01*
X90644D01*
X90661Y-314102D01*
X90991Y-314595D01*
X91735Y-315340D01*
X91544Y-315802D01*
X91248D01*
Y-317976D01*
X90748D01*
Y-318476D01*
X88376D01*
Y-320151D01*
X88062Y-320521D01*
X88046Y-320530D01*
X87530Y-321046D01*
X87165Y-321678D01*
X87073Y-322024D01*
X86495Y-322268D01*
X86318Y-322165D01*
X85613Y-321976D01*
X84883D01*
X84178Y-322165D01*
X83928Y-322310D01*
X83428Y-322021D01*
Y-313975D01*
X83928Y-313686D01*
X84178Y-313831D01*
X84883Y-314020D01*
X85613D01*
X86318Y-313831D01*
X86950Y-313466D01*
X87466Y-312950D01*
X87516Y-312863D01*
X88016Y-312924D01*
D02*
G37*
G36*
X92778Y-301984D02*
X92665Y-302178D01*
X92476Y-302883D01*
Y-303613D01*
X92665Y-304318D01*
X93030Y-304950D01*
X93546Y-305466D01*
X94178Y-305831D01*
X94883Y-306020D01*
X95613D01*
X95814Y-305966D01*
X99896Y-310048D01*
X99747Y-310606D01*
X99572Y-310652D01*
X98940Y-311017D01*
X98424Y-311533D01*
X98059Y-312165D01*
X97870Y-312870D01*
Y-313600D01*
X98059Y-314305D01*
X98424Y-314937D01*
X98940Y-315453D01*
X99572Y-315818D01*
X99679Y-315847D01*
X99726Y-316080D01*
X100056Y-316573D01*
X100400Y-316918D01*
Y-318440D01*
X100238Y-318738D01*
X99940Y-318900D01*
X99388D01*
X99376Y-318841D01*
X99046Y-318347D01*
X99046Y-318347D01*
X93559Y-312860D01*
Y-308866D01*
X88016D01*
Y-309573D01*
X87516Y-309632D01*
X87466Y-309546D01*
X86950Y-309030D01*
X86318Y-308665D01*
X86143Y-308618D01*
X85993Y-308061D01*
X92377Y-301677D01*
X92778Y-301984D01*
D02*
G37*
G36*
X127195Y-357563D02*
Y-373451D01*
X126695Y-373585D01*
X126588Y-373400D01*
X125852Y-372664D01*
X124951Y-372143D01*
X124947Y-372142D01*
Y-355967D01*
X125408Y-355776D01*
X127195Y-357563D01*
D02*
G37*
%LPC*%
G36*
X23538Y-75532D02*
X22627D01*
X21747Y-75767D01*
X20958Y-76223D01*
X20313Y-76867D01*
X19858Y-77656D01*
X19622Y-78536D01*
Y-79448D01*
X19858Y-80328D01*
X20313Y-81117D01*
X20958Y-81761D01*
X21184Y-81892D01*
Y-82392D01*
X20958Y-82522D01*
X20313Y-83166D01*
X19858Y-83956D01*
X19622Y-84836D01*
Y-85747D01*
X19858Y-86627D01*
X19906Y-86710D01*
X16672Y-89944D01*
X16342Y-90438D01*
X16227Y-91020D01*
Y-99172D01*
X16342Y-99754D01*
X16672Y-100247D01*
X19249Y-102824D01*
X19742Y-103154D01*
X20325Y-103269D01*
X49417D01*
Y-104520D01*
X54429D01*
X54567Y-104520D01*
X54929D01*
X55067Y-104520D01*
X60079D01*
Y-103269D01*
X63858D01*
Y-103669D01*
X70583D01*
Y-99307D01*
X70183D01*
Y-98248D01*
X67220D01*
X64258D01*
Y-99307D01*
X63858D01*
Y-100227D01*
X60079D01*
Y-98976D01*
X55067D01*
X54929Y-98976D01*
X54567D01*
X54429Y-98976D01*
X49417D01*
Y-100227D01*
X20955D01*
X19269Y-98541D01*
Y-91650D01*
X22264Y-88655D01*
X22627Y-88752D01*
X23538D01*
X24418Y-88516D01*
X25208Y-88060D01*
X25852Y-87416D01*
X26307Y-86627D01*
X26543Y-85747D01*
Y-84836D01*
X26307Y-83956D01*
X25852Y-83166D01*
X25208Y-82522D01*
X24982Y-82392D01*
Y-81892D01*
X25208Y-81761D01*
X25852Y-81117D01*
X26307Y-80328D01*
X26543Y-79448D01*
Y-78536D01*
X26307Y-77656D01*
X25852Y-76867D01*
X25208Y-76223D01*
X24418Y-75767D01*
X23538Y-75532D01*
D02*
G37*
G36*
X33775Y-78681D02*
X32863D01*
X31983Y-78917D01*
X31194Y-79373D01*
X30550Y-80017D01*
X30094Y-80806D01*
X29858Y-81686D01*
Y-82597D01*
X30094Y-83477D01*
X30550Y-84267D01*
X31194Y-84911D01*
X31420Y-85041D01*
Y-85541D01*
X31194Y-85672D01*
X30550Y-86316D01*
X30094Y-87105D01*
X29858Y-87985D01*
Y-88897D01*
X30094Y-89777D01*
X30550Y-90566D01*
X31194Y-91210D01*
X31983Y-91666D01*
X32863Y-91902D01*
X33775D01*
X34655Y-91666D01*
X35444Y-91210D01*
X36088Y-90566D01*
X36544Y-89777D01*
X36779Y-88897D01*
Y-87985D01*
X36544Y-87105D01*
X36088Y-86316D01*
X35444Y-85672D01*
X35218Y-85541D01*
Y-85041D01*
X35444Y-84911D01*
X36088Y-84267D01*
X36375Y-83769D01*
X49417D01*
Y-85520D01*
X54429D01*
X54567Y-85520D01*
X54929D01*
X55067Y-85520D01*
X59868D01*
X63829Y-89481D01*
Y-93319D01*
X63858Y-93466D01*
Y-96189D01*
X64258D01*
Y-97248D01*
X67220D01*
X70183D01*
Y-96189D01*
X70583D01*
Y-91827D01*
X66872D01*
Y-88850D01*
X66756Y-88268D01*
X66426Y-87775D01*
X66426Y-87775D01*
X61054Y-82403D01*
X60561Y-82073D01*
X60079Y-81977D01*
Y-79976D01*
X55067D01*
X54929Y-79976D01*
X54567D01*
X54429Y-79976D01*
X49417D01*
Y-80727D01*
X36498D01*
X36088Y-80017D01*
X35444Y-79373D01*
X34655Y-78917D01*
X33775Y-78681D01*
D02*
G37*
G36*
X70116Y-106837D02*
X68441D01*
Y-108709D01*
X70116D01*
Y-106837D01*
D02*
G37*
G36*
X67441D02*
X65766D01*
Y-108709D01*
X67441D01*
Y-106837D01*
D02*
G37*
G36*
X70116Y-109709D02*
X68441D01*
Y-111580D01*
X70116D01*
Y-109709D01*
D02*
G37*
G36*
X67441D02*
X65766D01*
Y-111580D01*
X67441D01*
Y-109709D01*
D02*
G37*
G36*
X62113Y-106976D02*
X61383D01*
X60678Y-107165D01*
X60046Y-107530D01*
X59530Y-108046D01*
X59165Y-108678D01*
X58976Y-109383D01*
Y-110113D01*
X59165Y-110818D01*
X59530Y-111450D01*
X60046Y-111966D01*
X60678Y-112331D01*
X61383Y-112520D01*
X61775D01*
X62227Y-112972D01*
Y-116370D01*
X61650D01*
Y-118727D01*
X54051D01*
Y-117476D01*
X48902D01*
Y-123020D01*
X54051D01*
Y-121769D01*
X61650D01*
Y-126126D01*
X65847D01*
Y-116370D01*
X65269D01*
Y-112341D01*
X65269Y-112341D01*
X65154Y-111759D01*
X64824Y-111266D01*
X64824Y-111266D01*
X64340Y-110782D01*
X64520Y-110113D01*
Y-109383D01*
X64331Y-108678D01*
X63966Y-108046D01*
X63450Y-107530D01*
X62818Y-107165D01*
X62113Y-106976D01*
D02*
G37*
G36*
X47116Y-117837D02*
X45441D01*
Y-119709D01*
X47116D01*
Y-117837D01*
D02*
G37*
G36*
X44441D02*
X42766D01*
Y-119709D01*
X44441D01*
Y-117837D01*
D02*
G37*
G36*
X100446Y-116770D02*
X99248D01*
Y-120748D01*
X100446D01*
Y-116770D01*
D02*
G37*
G36*
X70446D02*
X69248D01*
Y-120748D01*
X70446D01*
Y-116770D01*
D02*
G37*
G36*
X98248D02*
X97050D01*
Y-120748D01*
X98248D01*
Y-116770D01*
D02*
G37*
G36*
X68248D02*
X67050D01*
Y-120748D01*
X68248D01*
Y-116770D01*
D02*
G37*
G36*
X47116Y-120709D02*
X45441D01*
Y-122580D01*
X47116D01*
Y-120709D01*
D02*
G37*
G36*
X44441D02*
X42766D01*
Y-122580D01*
X44441D01*
Y-120709D01*
D02*
G37*
G36*
X100446Y-121748D02*
X99248D01*
Y-125726D01*
X100446D01*
Y-121748D01*
D02*
G37*
G36*
X98248D02*
X97050D01*
Y-125726D01*
X98248D01*
Y-121748D01*
D02*
G37*
G36*
X70446D02*
X69248D01*
Y-125726D01*
X70446D01*
Y-121748D01*
D02*
G37*
G36*
X68248D02*
X67050D01*
Y-125726D01*
X68248D01*
Y-121748D01*
D02*
G37*
G36*
X79638Y-91827D02*
X72913D01*
Y-96189D01*
Y-99929D01*
Y-103669D01*
X77486D01*
X87227Y-113410D01*
Y-116370D01*
X86650D01*
Y-126126D01*
X90847D01*
Y-116370D01*
X90269D01*
Y-112779D01*
X90154Y-112197D01*
X89824Y-111704D01*
X81579Y-103459D01*
X81826Y-102998D01*
X82463Y-102828D01*
X83095Y-102463D01*
X83611Y-101947D01*
X83976Y-101315D01*
X84023Y-101140D01*
X84580Y-100990D01*
X92227Y-108637D01*
Y-116370D01*
X91650D01*
Y-126126D01*
X95846D01*
Y-116370D01*
X95269D01*
Y-108006D01*
X95154Y-107424D01*
X94824Y-106931D01*
X81190Y-93297D01*
X80696Y-92967D01*
X80114Y-92851D01*
X79638D01*
Y-91827D01*
D02*
G37*
G36*
X77051Y-106476D02*
X71902D01*
Y-112020D01*
X72227D01*
Y-116370D01*
X71650D01*
Y-126126D01*
X75846D01*
Y-116370D01*
X75269D01*
Y-113043D01*
X75731Y-112851D01*
X77227Y-114347D01*
Y-116370D01*
X76650D01*
Y-126126D01*
X80847D01*
Y-116370D01*
X80269D01*
Y-113717D01*
X80269Y-113716D01*
X80154Y-113134D01*
X79908Y-112766D01*
X80296Y-112448D01*
X82227Y-114378D01*
Y-116370D01*
X81650D01*
Y-126126D01*
X85847D01*
Y-116370D01*
X85269D01*
Y-113748D01*
X85154Y-113166D01*
X84824Y-112672D01*
X80324Y-108172D01*
X79830Y-107843D01*
X79248Y-107727D01*
X77051D01*
Y-106476D01*
D02*
G37*
G36*
X183946Y-3921D02*
X182905D01*
X181899Y-4191D01*
X180998Y-4711D01*
X180262Y-5447D01*
X179742Y-6348D01*
X179472Y-7354D01*
Y-8394D01*
X179742Y-9400D01*
X180262Y-10301D01*
X180998Y-11037D01*
X181899Y-11557D01*
X182905Y-11827D01*
X183946D01*
X184951Y-11557D01*
X185852Y-11037D01*
X186588Y-10301D01*
X187109Y-9400D01*
X187378Y-8394D01*
Y-7354D01*
X187109Y-6348D01*
X186588Y-5447D01*
X185852Y-4711D01*
X184951Y-4191D01*
X183946Y-3921D01*
D02*
G37*
G36*
X173946D02*
X172905D01*
X171899Y-4191D01*
X170998Y-4711D01*
X170262Y-5447D01*
X169742Y-6348D01*
X169473Y-7354D01*
Y-8394D01*
X169742Y-9400D01*
X170262Y-10301D01*
X170998Y-11037D01*
X171899Y-11557D01*
X172905Y-11827D01*
X173946D01*
X174951Y-11557D01*
X175852Y-11037D01*
X176588Y-10301D01*
X177109Y-9400D01*
X177378Y-8394D01*
Y-7354D01*
X177109Y-6348D01*
X176588Y-5447D01*
X175852Y-4711D01*
X174951Y-4191D01*
X173946Y-3921D01*
D02*
G37*
G36*
X163946D02*
X162905D01*
X161899Y-4191D01*
X160998Y-4711D01*
X160262Y-5447D01*
X159742Y-6348D01*
X159473Y-7354D01*
Y-8394D01*
X159742Y-9400D01*
X160262Y-10301D01*
X160998Y-11037D01*
X161899Y-11557D01*
X162905Y-11827D01*
X163946D01*
X164951Y-11557D01*
X165852Y-11037D01*
X166588Y-10301D01*
X167109Y-9400D01*
X167378Y-8394D01*
Y-7354D01*
X167109Y-6348D01*
X166588Y-5447D01*
X165852Y-4711D01*
X164951Y-4191D01*
X163946Y-3921D01*
D02*
G37*
G36*
X153946D02*
X152905D01*
X151900Y-4191D01*
X150998Y-4711D01*
X150262Y-5447D01*
X149742Y-6348D01*
X149472Y-7354D01*
Y-8394D01*
X149742Y-9400D01*
X150262Y-10301D01*
X150998Y-11037D01*
X151900Y-11557D01*
X152905Y-11827D01*
X153946D01*
X154951Y-11557D01*
X155852Y-11037D01*
X156588Y-10301D01*
X157109Y-9400D01*
X157378Y-8394D01*
Y-7354D01*
X157109Y-6348D01*
X156588Y-5447D01*
X155852Y-4711D01*
X154951Y-4191D01*
X153946Y-3921D01*
D02*
G37*
G36*
X143946D02*
X142905D01*
X141900Y-4191D01*
X140998Y-4711D01*
X140262Y-5447D01*
X139742Y-6348D01*
X139472Y-7354D01*
Y-8394D01*
X139742Y-9400D01*
X140262Y-10301D01*
X140998Y-11037D01*
X141900Y-11557D01*
X142905Y-11827D01*
X143946D01*
X144951Y-11557D01*
X145852Y-11037D01*
X146588Y-10301D01*
X147109Y-9400D01*
X147378Y-8394D01*
Y-7354D01*
X147109Y-6348D01*
X146588Y-5447D01*
X145852Y-4711D01*
X144951Y-4191D01*
X143946Y-3921D01*
D02*
G37*
G36*
X133946D02*
X132905D01*
X131899Y-4191D01*
X130998Y-4711D01*
X130262Y-5447D01*
X129742Y-6348D01*
X129472Y-7354D01*
Y-8394D01*
X129742Y-9400D01*
X130262Y-10301D01*
X130998Y-11037D01*
X131899Y-11557D01*
X132905Y-11827D01*
X133946D01*
X134951Y-11557D01*
X135852Y-11037D01*
X136588Y-10301D01*
X137109Y-9400D01*
X137378Y-8394D01*
Y-7354D01*
X137109Y-6348D01*
X136588Y-5447D01*
X135852Y-4711D01*
X134951Y-4191D01*
X133946Y-3921D01*
D02*
G37*
G36*
X123946D02*
X122905D01*
X121899Y-4191D01*
X120998Y-4711D01*
X120262Y-5447D01*
X119742Y-6348D01*
X119473Y-7354D01*
Y-8394D01*
X119742Y-9400D01*
X120262Y-10301D01*
X120998Y-11037D01*
X121899Y-11557D01*
X122905Y-11827D01*
X123946D01*
X124951Y-11557D01*
X125852Y-11037D01*
X126588Y-10301D01*
X127109Y-9400D01*
X127378Y-8394D01*
Y-7354D01*
X127109Y-6348D01*
X126588Y-5447D01*
X125852Y-4711D01*
X124951Y-4191D01*
X123946Y-3921D01*
D02*
G37*
G36*
X113946D02*
X112905D01*
X111899Y-4191D01*
X110998Y-4711D01*
X110262Y-5447D01*
X109742Y-6348D01*
X109473Y-7354D01*
Y-8394D01*
X109742Y-9400D01*
X110262Y-10301D01*
X110998Y-11037D01*
X111899Y-11557D01*
X112905Y-11827D01*
X113946D01*
X114951Y-11557D01*
X115852Y-11037D01*
X116588Y-10301D01*
X117109Y-9400D01*
X117378Y-8394D01*
Y-7354D01*
X117109Y-6348D01*
X116588Y-5447D01*
X115852Y-4711D01*
X114951Y-4191D01*
X113946Y-3921D01*
D02*
G37*
G36*
X103946D02*
X102905D01*
X101900Y-4191D01*
X100998Y-4711D01*
X100262Y-5447D01*
X99742Y-6348D01*
X99472Y-7354D01*
Y-8394D01*
X99742Y-9400D01*
X100262Y-10301D01*
X100998Y-11037D01*
X101900Y-11557D01*
X102905Y-11827D01*
X103946D01*
X104951Y-11557D01*
X105852Y-11037D01*
X106588Y-10301D01*
X107109Y-9400D01*
X107378Y-8394D01*
Y-7354D01*
X107109Y-6348D01*
X106588Y-5447D01*
X105852Y-4711D01*
X104951Y-4191D01*
X103946Y-3921D01*
D02*
G37*
G36*
X93946D02*
X92905D01*
X91900Y-4191D01*
X90998Y-4711D01*
X90262Y-5447D01*
X89742Y-6348D01*
X89473Y-7354D01*
Y-8394D01*
X89742Y-9400D01*
X90262Y-10301D01*
X90998Y-11037D01*
X91900Y-11557D01*
X92905Y-11827D01*
X93946D01*
X94951Y-11557D01*
X95852Y-11037D01*
X96588Y-10301D01*
X97109Y-9400D01*
X97378Y-8394D01*
Y-7354D01*
X97109Y-6348D01*
X96588Y-5447D01*
X95852Y-4711D01*
X94951Y-4191D01*
X93946Y-3921D01*
D02*
G37*
G36*
X83946D02*
X82905D01*
X81899Y-4191D01*
X80998Y-4711D01*
X80262Y-5447D01*
X79742Y-6348D01*
X79473Y-7354D01*
Y-8394D01*
X79742Y-9400D01*
X80262Y-10301D01*
X80998Y-11037D01*
X81899Y-11557D01*
X82905Y-11827D01*
X83946D01*
X84951Y-11557D01*
X85852Y-11037D01*
X86588Y-10301D01*
X87109Y-9400D01*
X87378Y-8394D01*
Y-7354D01*
X87109Y-6348D01*
X86588Y-5447D01*
X85852Y-4711D01*
X84951Y-4191D01*
X83946Y-3921D01*
D02*
G37*
G36*
X73946D02*
X72905D01*
X71899Y-4191D01*
X70998Y-4711D01*
X70262Y-5447D01*
X69742Y-6348D01*
X69472Y-7354D01*
Y-8394D01*
X69742Y-9400D01*
X70262Y-10301D01*
X70998Y-11037D01*
X71899Y-11557D01*
X72905Y-11827D01*
X73946D01*
X74951Y-11557D01*
X75852Y-11037D01*
X76588Y-10301D01*
X77109Y-9400D01*
X77378Y-8394D01*
Y-7354D01*
X77109Y-6348D01*
X76588Y-5447D01*
X75852Y-4711D01*
X74951Y-4191D01*
X73946Y-3921D01*
D02*
G37*
G36*
X63946D02*
X62905D01*
X61900Y-4191D01*
X60998Y-4711D01*
X60262Y-5447D01*
X59742Y-6348D01*
X59473Y-7354D01*
Y-8394D01*
X59742Y-9400D01*
X60262Y-10301D01*
X60998Y-11037D01*
X61900Y-11557D01*
X62905Y-11827D01*
X63946D01*
X64951Y-11557D01*
X65852Y-11037D01*
X66588Y-10301D01*
X67109Y-9400D01*
X67378Y-8394D01*
Y-7354D01*
X67109Y-6348D01*
X66588Y-5447D01*
X65852Y-4711D01*
X64951Y-4191D01*
X63946Y-3921D01*
D02*
G37*
G36*
X53946D02*
X52905D01*
X51899Y-4191D01*
X50998Y-4711D01*
X50262Y-5447D01*
X49742Y-6348D01*
X49472Y-7354D01*
Y-8394D01*
X49742Y-9400D01*
X50262Y-10301D01*
X50998Y-11037D01*
X51899Y-11557D01*
X52905Y-11827D01*
X53946D01*
X54951Y-11557D01*
X55852Y-11037D01*
X56588Y-10301D01*
X57109Y-9400D01*
X57378Y-8394D01*
Y-7354D01*
X57109Y-6348D01*
X56588Y-5447D01*
X55852Y-4711D01*
X54951Y-4191D01*
X53946Y-3921D01*
D02*
G37*
G36*
X43946D02*
X42905D01*
X41899Y-4191D01*
X40998Y-4711D01*
X40262Y-5447D01*
X39742Y-6348D01*
X39472Y-7354D01*
Y-8394D01*
X39742Y-9400D01*
X40262Y-10301D01*
X40998Y-11037D01*
X41899Y-11557D01*
X42905Y-11827D01*
X43946D01*
X44951Y-11557D01*
X45852Y-11037D01*
X46588Y-10301D01*
X47109Y-9400D01*
X47378Y-8394D01*
Y-7354D01*
X47109Y-6348D01*
X46588Y-5447D01*
X45852Y-4711D01*
X44951Y-4191D01*
X43946Y-3921D01*
D02*
G37*
G36*
X33946D02*
X32905D01*
X31899Y-4191D01*
X30998Y-4711D01*
X30262Y-5447D01*
X29742Y-6348D01*
X29472Y-7354D01*
Y-8394D01*
X29742Y-9400D01*
X30262Y-10301D01*
X30998Y-11037D01*
X31899Y-11557D01*
X32905Y-11827D01*
X33946D01*
X34951Y-11557D01*
X35852Y-11037D01*
X36588Y-10301D01*
X37109Y-9400D01*
X37378Y-8394D01*
Y-7354D01*
X37109Y-6348D01*
X36588Y-5447D01*
X35852Y-4711D01*
X34951Y-4191D01*
X33946Y-3921D01*
D02*
G37*
G36*
X23946D02*
X22905D01*
X21900Y-4191D01*
X20998Y-4711D01*
X20262Y-5447D01*
X19742Y-6348D01*
X19473Y-7354D01*
Y-8394D01*
X19742Y-9400D01*
X20262Y-10301D01*
X20998Y-11037D01*
X21900Y-11557D01*
X22905Y-11827D01*
X23946D01*
X24951Y-11557D01*
X25852Y-11037D01*
X26588Y-10301D01*
X27109Y-9400D01*
X27378Y-8394D01*
Y-7354D01*
X27109Y-6348D01*
X26588Y-5447D01*
X25852Y-4711D01*
X24951Y-4191D01*
X23946Y-3921D01*
D02*
G37*
G36*
X13946D02*
X12905D01*
X11900Y-4191D01*
X10998Y-4711D01*
X10262Y-5447D01*
X9742Y-6348D01*
X9472Y-7354D01*
Y-8394D01*
X9742Y-9400D01*
X10262Y-10301D01*
X10998Y-11037D01*
X11900Y-11557D01*
X12905Y-11827D01*
X13946D01*
X14951Y-11557D01*
X15852Y-11037D01*
X16588Y-10301D01*
X17109Y-9400D01*
X17378Y-8394D01*
Y-7354D01*
X17109Y-6348D01*
X16588Y-5447D01*
X15852Y-4711D01*
X14951Y-4191D01*
X13946Y-3921D01*
D02*
G37*
G36*
X187378Y-13921D02*
X179472D01*
Y-21827D01*
X187378D01*
Y-13921D01*
D02*
G37*
G36*
X173946D02*
X172905D01*
X171899Y-14191D01*
X170998Y-14711D01*
X170262Y-15447D01*
X169742Y-16348D01*
X169473Y-17354D01*
Y-18394D01*
X169742Y-19400D01*
X170262Y-20301D01*
X170998Y-21037D01*
X171899Y-21557D01*
X172905Y-21827D01*
X173946D01*
X174951Y-21557D01*
X175852Y-21037D01*
X176588Y-20301D01*
X177109Y-19400D01*
X177378Y-18394D01*
Y-17354D01*
X177109Y-16348D01*
X176588Y-15447D01*
X175852Y-14711D01*
X174951Y-14191D01*
X173946Y-13921D01*
D02*
G37*
G36*
X163946D02*
X162905D01*
X161899Y-14191D01*
X160998Y-14711D01*
X160262Y-15447D01*
X159742Y-16348D01*
X159473Y-17354D01*
Y-18394D01*
X159742Y-19400D01*
X160262Y-20301D01*
X160998Y-21037D01*
X161899Y-21557D01*
X162905Y-21827D01*
X163946D01*
X164951Y-21557D01*
X165852Y-21037D01*
X166588Y-20301D01*
X167109Y-19400D01*
X167378Y-18394D01*
Y-17354D01*
X167109Y-16348D01*
X166588Y-15447D01*
X165852Y-14711D01*
X164951Y-14191D01*
X163946Y-13921D01*
D02*
G37*
G36*
X153946D02*
X152905D01*
X151900Y-14191D01*
X150998Y-14711D01*
X150262Y-15447D01*
X149742Y-16348D01*
X149472Y-17354D01*
Y-18394D01*
X149742Y-19400D01*
X150262Y-20301D01*
X150998Y-21037D01*
X151900Y-21557D01*
X152905Y-21827D01*
X153946D01*
X154951Y-21557D01*
X155852Y-21037D01*
X156588Y-20301D01*
X157109Y-19400D01*
X157378Y-18394D01*
Y-17354D01*
X157109Y-16348D01*
X156588Y-15447D01*
X155852Y-14711D01*
X154951Y-14191D01*
X153946Y-13921D01*
D02*
G37*
G36*
X143946D02*
X142905D01*
X141900Y-14191D01*
X140998Y-14711D01*
X140262Y-15447D01*
X139742Y-16348D01*
X139472Y-17354D01*
Y-18394D01*
X139742Y-19400D01*
X140262Y-20301D01*
X140998Y-21037D01*
X141900Y-21557D01*
X142905Y-21827D01*
X143946D01*
X144951Y-21557D01*
X145852Y-21037D01*
X146588Y-20301D01*
X147109Y-19400D01*
X147378Y-18394D01*
Y-17354D01*
X147109Y-16348D01*
X146588Y-15447D01*
X145852Y-14711D01*
X144951Y-14191D01*
X143946Y-13921D01*
D02*
G37*
G36*
X133946D02*
X132905D01*
X131899Y-14191D01*
X130998Y-14711D01*
X130262Y-15447D01*
X129742Y-16348D01*
X129472Y-17354D01*
Y-18394D01*
X129742Y-19400D01*
X130262Y-20301D01*
X130998Y-21037D01*
X131899Y-21557D01*
X132905Y-21827D01*
X133946D01*
X134951Y-21557D01*
X135852Y-21037D01*
X136588Y-20301D01*
X137109Y-19400D01*
X137378Y-18394D01*
Y-17354D01*
X137109Y-16348D01*
X136588Y-15447D01*
X135852Y-14711D01*
X134951Y-14191D01*
X133946Y-13921D01*
D02*
G37*
G36*
X123946D02*
X122905D01*
X121899Y-14191D01*
X120998Y-14711D01*
X120262Y-15447D01*
X119742Y-16348D01*
X119473Y-17354D01*
Y-18394D01*
X119742Y-19400D01*
X120262Y-20301D01*
X120998Y-21037D01*
X121899Y-21557D01*
X122905Y-21827D01*
X123946D01*
X124951Y-21557D01*
X125852Y-21037D01*
X126588Y-20301D01*
X127109Y-19400D01*
X127378Y-18394D01*
Y-17354D01*
X127109Y-16348D01*
X126588Y-15447D01*
X125852Y-14711D01*
X124951Y-14191D01*
X123946Y-13921D01*
D02*
G37*
G36*
X113946D02*
X112905D01*
X111899Y-14191D01*
X110998Y-14711D01*
X110262Y-15447D01*
X109742Y-16348D01*
X109473Y-17354D01*
Y-18394D01*
X109742Y-19400D01*
X110262Y-20301D01*
X110998Y-21037D01*
X111899Y-21557D01*
X112905Y-21827D01*
X113946D01*
X114951Y-21557D01*
X115852Y-21037D01*
X116588Y-20301D01*
X117109Y-19400D01*
X117378Y-18394D01*
Y-17354D01*
X117109Y-16348D01*
X116588Y-15447D01*
X115852Y-14711D01*
X114951Y-14191D01*
X113946Y-13921D01*
D02*
G37*
G36*
X103946D02*
X102905D01*
X101900Y-14191D01*
X100998Y-14711D01*
X100262Y-15447D01*
X99742Y-16348D01*
X99472Y-17354D01*
Y-18394D01*
X99742Y-19400D01*
X100262Y-20301D01*
X100998Y-21037D01*
X101900Y-21557D01*
X102905Y-21827D01*
X103946D01*
X104951Y-21557D01*
X105852Y-21037D01*
X106588Y-20301D01*
X107109Y-19400D01*
X107378Y-18394D01*
Y-17354D01*
X107109Y-16348D01*
X106588Y-15447D01*
X105852Y-14711D01*
X104951Y-14191D01*
X103946Y-13921D01*
D02*
G37*
G36*
X93946D02*
X92905D01*
X91900Y-14191D01*
X90998Y-14711D01*
X90262Y-15447D01*
X89742Y-16348D01*
X89473Y-17354D01*
Y-18394D01*
X89742Y-19400D01*
X90262Y-20301D01*
X90998Y-21037D01*
X91900Y-21557D01*
X92905Y-21827D01*
X93946D01*
X94951Y-21557D01*
X95852Y-21037D01*
X96588Y-20301D01*
X97109Y-19400D01*
X97378Y-18394D01*
Y-17354D01*
X97109Y-16348D01*
X96588Y-15447D01*
X95852Y-14711D01*
X94951Y-14191D01*
X93946Y-13921D01*
D02*
G37*
G36*
X83946D02*
X82905D01*
X81899Y-14191D01*
X80998Y-14711D01*
X80262Y-15447D01*
X79742Y-16348D01*
X79473Y-17354D01*
Y-18394D01*
X79742Y-19400D01*
X80262Y-20301D01*
X80998Y-21037D01*
X81899Y-21557D01*
X82905Y-21827D01*
X83946D01*
X84951Y-21557D01*
X85852Y-21037D01*
X86588Y-20301D01*
X87109Y-19400D01*
X87378Y-18394D01*
Y-17354D01*
X87109Y-16348D01*
X86588Y-15447D01*
X85852Y-14711D01*
X84951Y-14191D01*
X83946Y-13921D01*
D02*
G37*
G36*
X73946D02*
X72905D01*
X71899Y-14191D01*
X70998Y-14711D01*
X70262Y-15447D01*
X69742Y-16348D01*
X69472Y-17354D01*
Y-18394D01*
X69742Y-19400D01*
X70262Y-20301D01*
X70998Y-21037D01*
X71899Y-21557D01*
X72905Y-21827D01*
X73946D01*
X74951Y-21557D01*
X75852Y-21037D01*
X76588Y-20301D01*
X77109Y-19400D01*
X77378Y-18394D01*
Y-17354D01*
X77109Y-16348D01*
X76588Y-15447D01*
X75852Y-14711D01*
X74951Y-14191D01*
X73946Y-13921D01*
D02*
G37*
G36*
X63946D02*
X62905D01*
X61900Y-14191D01*
X60998Y-14711D01*
X60262Y-15447D01*
X59742Y-16348D01*
X59473Y-17354D01*
Y-18394D01*
X59742Y-19400D01*
X60262Y-20301D01*
X60998Y-21037D01*
X61900Y-21557D01*
X62905Y-21827D01*
X63946D01*
X64951Y-21557D01*
X65852Y-21037D01*
X66588Y-20301D01*
X67109Y-19400D01*
X67378Y-18394D01*
Y-17354D01*
X67109Y-16348D01*
X66588Y-15447D01*
X65852Y-14711D01*
X64951Y-14191D01*
X63946Y-13921D01*
D02*
G37*
G36*
X53946D02*
X52905D01*
X51899Y-14191D01*
X50998Y-14711D01*
X50262Y-15447D01*
X49742Y-16348D01*
X49472Y-17354D01*
Y-18394D01*
X49742Y-19400D01*
X50262Y-20301D01*
X50998Y-21037D01*
X51899Y-21557D01*
X52905Y-21827D01*
X53946D01*
X54951Y-21557D01*
X55852Y-21037D01*
X56588Y-20301D01*
X57109Y-19400D01*
X57378Y-18394D01*
Y-17354D01*
X57109Y-16348D01*
X56588Y-15447D01*
X55852Y-14711D01*
X54951Y-14191D01*
X53946Y-13921D01*
D02*
G37*
G36*
X43946D02*
X42905D01*
X41899Y-14191D01*
X40998Y-14711D01*
X40262Y-15447D01*
X39742Y-16348D01*
X39472Y-17354D01*
Y-18394D01*
X39742Y-19400D01*
X40262Y-20301D01*
X40998Y-21037D01*
X41899Y-21557D01*
X42905Y-21827D01*
X43946D01*
X44951Y-21557D01*
X45852Y-21037D01*
X46588Y-20301D01*
X47109Y-19400D01*
X47378Y-18394D01*
Y-17354D01*
X47109Y-16348D01*
X46588Y-15447D01*
X45852Y-14711D01*
X44951Y-14191D01*
X43946Y-13921D01*
D02*
G37*
G36*
X33946D02*
X32905D01*
X31899Y-14191D01*
X30998Y-14711D01*
X30262Y-15447D01*
X29742Y-16348D01*
X29472Y-17354D01*
Y-18394D01*
X29742Y-19400D01*
X30262Y-20301D01*
X30998Y-21037D01*
X31899Y-21557D01*
X32905Y-21827D01*
X33946D01*
X34951Y-21557D01*
X35852Y-21037D01*
X36588Y-20301D01*
X37109Y-19400D01*
X37378Y-18394D01*
Y-17354D01*
X37109Y-16348D01*
X36588Y-15447D01*
X35852Y-14711D01*
X34951Y-14191D01*
X33946Y-13921D01*
D02*
G37*
G36*
X23946D02*
X22905D01*
X21900Y-14191D01*
X20998Y-14711D01*
X20262Y-15447D01*
X19742Y-16348D01*
X19473Y-17354D01*
Y-18394D01*
X19742Y-19400D01*
X20262Y-20301D01*
X20998Y-21037D01*
X21900Y-21557D01*
X22905Y-21827D01*
X23946D01*
X24951Y-21557D01*
X25852Y-21037D01*
X26588Y-20301D01*
X27109Y-19400D01*
X27378Y-18394D01*
Y-17354D01*
X27109Y-16348D01*
X26588Y-15447D01*
X25852Y-14711D01*
X24951Y-14191D01*
X23946Y-13921D01*
D02*
G37*
G36*
X13946D02*
X12905D01*
X11900Y-14191D01*
X10998Y-14711D01*
X10262Y-15447D01*
X9742Y-16348D01*
X9472Y-17354D01*
Y-18394D01*
X9742Y-19400D01*
X10262Y-20301D01*
X10998Y-21037D01*
X11900Y-21557D01*
X12905Y-21827D01*
X13946D01*
X14951Y-21557D01*
X15852Y-21037D01*
X16588Y-20301D01*
X17109Y-19400D01*
X17378Y-18394D01*
Y-17354D01*
X17109Y-16348D01*
X16588Y-15447D01*
X15852Y-14711D01*
X14951Y-14191D01*
X13946Y-13921D01*
D02*
G37*
G36*
X161195Y-53376D02*
X159520D01*
Y-55248D01*
X161195D01*
Y-53376D01*
D02*
G37*
G36*
X158520D02*
X156845D01*
Y-55248D01*
X158520D01*
Y-53376D01*
D02*
G37*
G36*
X161195Y-56248D02*
X159520D01*
Y-58120D01*
X161195D01*
Y-56248D01*
D02*
G37*
G36*
X158520D02*
X156845D01*
Y-58120D01*
X158520D01*
Y-56248D01*
D02*
G37*
G36*
X160098Y-60402D02*
X153768D01*
Y-62926D01*
X148343D01*
Y-62567D01*
X142209D01*
Y-66929D01*
X148343D01*
Y-66571D01*
X153768D01*
Y-69095D01*
X160098D01*
Y-60402D01*
D02*
G37*
G36*
X160695Y-70876D02*
X159020D01*
Y-72748D01*
X160695D01*
Y-70876D01*
D02*
G37*
G36*
X158020D02*
X156345D01*
Y-72748D01*
X158020D01*
Y-70876D01*
D02*
G37*
G36*
X160695Y-73748D02*
X159020D01*
Y-75620D01*
X160695D01*
Y-73748D01*
D02*
G37*
G36*
X158020D02*
X156345D01*
Y-75620D01*
X158020D01*
Y-73748D01*
D02*
G37*
G36*
X146651Y-74376D02*
X144976D01*
Y-76248D01*
X146651D01*
Y-74376D01*
D02*
G37*
G36*
Y-77248D02*
X144976D01*
Y-79120D01*
X146651D01*
Y-77248D01*
D02*
G37*
G36*
Y-80376D02*
X144976D01*
Y-82248D01*
X146651D01*
Y-80376D01*
D02*
G37*
G36*
Y-83248D02*
X144976D01*
Y-85120D01*
X146651D01*
Y-83248D01*
D02*
G37*
G36*
X157248Y-92487D02*
X155081D01*
Y-93768D01*
X157248D01*
Y-92487D01*
D02*
G37*
G36*
Y-94768D02*
X155081D01*
Y-96049D01*
X157248D01*
Y-94768D01*
D02*
G37*
G36*
X100446Y-158648D02*
X99248D01*
Y-162626D01*
X100446D01*
Y-158648D01*
D02*
G37*
G36*
X98248D02*
X97050D01*
Y-162626D01*
X98248D01*
Y-158648D01*
D02*
G37*
G36*
X70446D02*
X69248D01*
Y-162626D01*
X70446D01*
Y-158648D01*
D02*
G37*
G36*
X68248D02*
X67050D01*
Y-162626D01*
X68248D01*
Y-158648D01*
D02*
G37*
G36*
X70116Y-168337D02*
X68441D01*
Y-170209D01*
X70116D01*
Y-168337D01*
D02*
G37*
G36*
X67441D02*
X65766D01*
Y-170209D01*
X67441D01*
Y-168337D01*
D02*
G37*
G36*
X70116Y-171209D02*
X68441D01*
Y-173080D01*
X70116D01*
Y-171209D01*
D02*
G37*
G36*
X67441D02*
X65766D01*
Y-173080D01*
X67441D01*
Y-171209D01*
D02*
G37*
G36*
X70195Y-174876D02*
X68520D01*
Y-176748D01*
X70195D01*
Y-174876D01*
D02*
G37*
G36*
X67520D02*
X65845D01*
Y-176748D01*
X67520D01*
Y-174876D01*
D02*
G37*
G36*
X70195Y-177748D02*
X68520D01*
Y-179620D01*
X70195D01*
Y-177748D01*
D02*
G37*
G36*
X67520D02*
X65845D01*
Y-179620D01*
X67520D01*
Y-177748D01*
D02*
G37*
G36*
X37580Y-215000D02*
X36539D01*
X35533Y-215269D01*
X34632Y-215790D01*
X33896Y-216526D01*
X33376Y-217427D01*
X33106Y-218432D01*
Y-219473D01*
X33376Y-220479D01*
X33896Y-221380D01*
X34632Y-222116D01*
X35533Y-222636D01*
X36539Y-222905D01*
X37580D01*
X38585Y-222636D01*
X39486Y-222116D01*
X40222Y-221380D01*
X40742Y-220479D01*
X41012Y-219473D01*
Y-218432D01*
X40742Y-217427D01*
X40222Y-216526D01*
X39486Y-215790D01*
X38585Y-215269D01*
X37580Y-215000D01*
D02*
G37*
G36*
X145953Y-263047D02*
X138047D01*
Y-270953D01*
X145953D01*
Y-263047D01*
D02*
G37*
G36*
X37580Y-240591D02*
X36539D01*
X35533Y-240860D01*
X34632Y-241380D01*
X33896Y-242116D01*
X33376Y-243018D01*
X33106Y-244023D01*
Y-245064D01*
X33376Y-246069D01*
X33896Y-246970D01*
X34632Y-247706D01*
X35533Y-248227D01*
X36539Y-248496D01*
X37580D01*
X38585Y-248227D01*
X38589Y-248224D01*
X62688Y-272324D01*
X62688Y-272324D01*
X63182Y-272654D01*
X63764Y-272769D01*
X63764Y-272769D01*
X99926D01*
X100030Y-272950D01*
X100546Y-273466D01*
X101178Y-273831D01*
X101883Y-274020D01*
X102613D01*
X103318Y-273831D01*
X103950Y-273466D01*
X104466Y-272950D01*
X104831Y-272318D01*
X105020Y-271613D01*
Y-270883D01*
X104831Y-270178D01*
X104466Y-269546D01*
X103950Y-269030D01*
X103318Y-268665D01*
X102613Y-268476D01*
X101883D01*
X101178Y-268665D01*
X100546Y-269030D01*
X100030Y-269546D01*
X99926Y-269727D01*
X64394D01*
X40740Y-246073D01*
X40742Y-246069D01*
X41012Y-245064D01*
Y-244023D01*
X40742Y-243018D01*
X40222Y-242116D01*
X39486Y-241380D01*
X38585Y-240860D01*
X37580Y-240591D01*
D02*
G37*
G36*
X128113Y-270476D02*
X127383D01*
X126678Y-270665D01*
X126046Y-271030D01*
X125530Y-271546D01*
X125165Y-272178D01*
X124976Y-272883D01*
Y-273613D01*
X125165Y-274318D01*
X125272Y-274502D01*
X124906Y-274868D01*
X124721Y-274762D01*
X124016Y-274573D01*
X123287D01*
X122582Y-274762D01*
X121950Y-275127D01*
X121434Y-275643D01*
X121069Y-276275D01*
X120880Y-276980D01*
Y-277709D01*
X121069Y-278414D01*
X121434Y-279046D01*
X121710Y-279322D01*
X121560Y-279880D01*
X121428Y-279915D01*
X120796Y-280280D01*
X120280Y-280796D01*
X119915Y-281428D01*
X119726Y-282133D01*
Y-282863D01*
X119915Y-283568D01*
X120280Y-284200D01*
X120796Y-284716D01*
X121428Y-285081D01*
X122133Y-285270D01*
X122863D01*
X123568Y-285081D01*
X124200Y-284716D01*
X124716Y-284200D01*
X125081Y-283568D01*
X125270Y-282863D01*
Y-282133D01*
X125081Y-281428D01*
X124716Y-280796D01*
X124440Y-280520D01*
X124589Y-279963D01*
X124721Y-279927D01*
X125353Y-279562D01*
X125870Y-279046D01*
X126234Y-278414D01*
X126423Y-277709D01*
Y-276980D01*
X126234Y-276275D01*
X126128Y-276091D01*
X126494Y-275725D01*
X126678Y-275831D01*
X127383Y-276020D01*
X128113D01*
X128818Y-275831D01*
X129450Y-275466D01*
X129966Y-274950D01*
X130331Y-274318D01*
X130520Y-273613D01*
Y-272883D01*
X130331Y-272178D01*
X129966Y-271546D01*
X129450Y-271030D01*
X128818Y-270665D01*
X128113Y-270476D01*
D02*
G37*
G36*
X31719Y-272609D02*
X31137Y-272724D01*
X30643Y-273054D01*
X27416Y-276281D01*
X27220Y-276575D01*
X23063D01*
Y-277727D01*
X22570D01*
X22466Y-277546D01*
X21950Y-277030D01*
X21318Y-276665D01*
X20613Y-276476D01*
X19883D01*
X19178Y-276665D01*
X18546Y-277030D01*
X18030Y-277546D01*
X17665Y-278178D01*
X17476Y-278883D01*
Y-279613D01*
X17665Y-280318D01*
X18030Y-280950D01*
X18546Y-281466D01*
X19178Y-281831D01*
X19883Y-282020D01*
X20613D01*
X21318Y-281831D01*
X21950Y-281466D01*
X22466Y-280950D01*
X22570Y-280769D01*
X23063D01*
Y-281921D01*
X24071D01*
X24267Y-282215D01*
X24464Y-282412D01*
X24273Y-282874D01*
X23063D01*
Y-288221D01*
X23427D01*
Y-293425D01*
X20608Y-296244D01*
X20264Y-296045D01*
X19008Y-295709D01*
X17708D01*
X16453Y-296045D01*
X15327Y-296695D01*
X14408Y-297614D01*
X13758Y-298740D01*
X13421Y-299996D01*
Y-301296D01*
X13758Y-302551D01*
X14408Y-303677D01*
X15327Y-304596D01*
X16453Y-305246D01*
X17708Y-305583D01*
X19008D01*
X20264Y-305246D01*
X21390Y-304596D01*
X22309Y-303677D01*
X22959Y-302551D01*
X23295Y-301296D01*
Y-299996D01*
X22959Y-298740D01*
X22760Y-298395D01*
X26025Y-295131D01*
X26354Y-294637D01*
X26470Y-294055D01*
Y-288221D01*
X32876D01*
Y-296636D01*
X32992Y-297218D01*
X33322Y-297711D01*
X33775Y-298165D01*
X33443Y-298740D01*
X33106Y-299996D01*
Y-301296D01*
X33443Y-302551D01*
X34093Y-303677D01*
X35012Y-304596D01*
X36138Y-305246D01*
X37393Y-305583D01*
X38693D01*
X39949Y-305246D01*
X41075Y-304596D01*
X41994Y-303677D01*
X42644Y-302551D01*
X42980Y-301296D01*
Y-299996D01*
X42644Y-298740D01*
X41994Y-297614D01*
X41075Y-296695D01*
X39949Y-296045D01*
X38693Y-295709D01*
X37393D01*
X36419Y-295970D01*
X35936Y-295642D01*
X35919Y-295608D01*
Y-288221D01*
X36283D01*
Y-282874D01*
X35074D01*
X34883Y-282412D01*
X35080Y-282215D01*
X35276Y-281921D01*
X36283D01*
Y-278439D01*
X36745Y-278247D01*
X37516Y-279018D01*
Y-282016D01*
X40907D01*
X42193Y-283302D01*
X41986Y-283802D01*
X40748D01*
Y-285476D01*
X42620D01*
Y-284361D01*
X43120Y-284094D01*
X43209Y-284154D01*
X43791Y-284269D01*
X43876D01*
Y-285476D01*
X46248D01*
X48620D01*
Y-284269D01*
X90926D01*
X91030Y-284450D01*
X91546Y-284966D01*
X92178Y-285331D01*
X92883Y-285520D01*
X93613D01*
X94318Y-285331D01*
X94950Y-284966D01*
X95466Y-284450D01*
X95831Y-283818D01*
X96020Y-283113D01*
Y-282383D01*
X95831Y-281678D01*
X95466Y-281046D01*
X95510Y-280597D01*
X95631Y-280517D01*
X96085Y-280062D01*
X96287Y-280116D01*
X97017D01*
X97721Y-279927D01*
X98353Y-279562D01*
X98869Y-279046D01*
X99234Y-278414D01*
X99423Y-277709D01*
Y-276980D01*
X99234Y-276275D01*
X98869Y-275643D01*
X98353Y-275127D01*
X97721Y-274762D01*
X97017Y-274573D01*
X96287D01*
X95582Y-274762D01*
X94950Y-275127D01*
X94434Y-275643D01*
X94069Y-276275D01*
X93880Y-276980D01*
Y-277709D01*
X93419Y-277920D01*
X49059D01*
Y-276866D01*
X45667D01*
X41855Y-273054D01*
X41362Y-272724D01*
X40780Y-272609D01*
X31719D01*
X31719Y-272609D01*
D02*
G37*
G36*
X39748Y-283802D02*
X37876D01*
Y-285476D01*
X39748D01*
Y-283802D01*
D02*
G37*
G36*
X48620Y-286476D02*
X46748D01*
Y-288151D01*
X48620D01*
Y-286476D01*
D02*
G37*
G36*
X45748D02*
X43876D01*
Y-288151D01*
X45748D01*
Y-286476D01*
D02*
G37*
G36*
X42620D02*
X40748D01*
Y-288151D01*
X42620D01*
Y-286476D01*
D02*
G37*
G36*
X39748D02*
X37876D01*
Y-288151D01*
X39748D01*
Y-286476D01*
D02*
G37*
G36*
X52610Y-323526D02*
X45524D01*
X44938Y-323642D01*
X44442Y-323974D01*
X44111Y-324470D01*
X43994Y-325055D01*
Y-335291D01*
X44111Y-335877D01*
X44442Y-336373D01*
X44938Y-336704D01*
X45524Y-336821D01*
X52610D01*
X53196Y-336704D01*
X53692Y-336373D01*
X54023Y-335877D01*
X54140Y-335291D01*
Y-325055D01*
X54023Y-324470D01*
X53692Y-323974D01*
X53196Y-323642D01*
X52610Y-323526D01*
D02*
G37*
G36*
X10878D02*
X3791D01*
X3206Y-323642D01*
X2710Y-323974D01*
X2378Y-324470D01*
X2262Y-325055D01*
Y-335291D01*
X2378Y-335877D01*
X2710Y-336373D01*
X3206Y-336704D01*
X3791Y-336821D01*
X10878D01*
X11463Y-336704D01*
X11959Y-336373D01*
X12291Y-335877D01*
X12407Y-335291D01*
Y-325055D01*
X12291Y-324470D01*
X11959Y-323974D01*
X11463Y-323642D01*
X10878Y-323526D01*
D02*
G37*
G36*
X115748Y-356410D02*
Y-360248D01*
X116655D01*
Y-357402D01*
X116578Y-357014D01*
X116358Y-356685D01*
X116029Y-356466D01*
X115748Y-356410D01*
D02*
G37*
G36*
X114748D02*
X114467Y-356466D01*
X114138Y-356685D01*
X113918Y-357014D01*
X113841Y-357402D01*
Y-360248D01*
X114748D01*
Y-356410D01*
D02*
G37*
G36*
X105120Y-361802D02*
X103248D01*
Y-363476D01*
X105120D01*
Y-361802D01*
D02*
G37*
G36*
X102248D02*
X100376D01*
Y-363476D01*
X102248D01*
Y-361802D01*
D02*
G37*
G36*
X116655Y-361248D02*
X115748D01*
Y-365087D01*
X116029Y-365031D01*
X116358Y-364811D01*
X116578Y-364482D01*
X116655Y-364094D01*
Y-361248D01*
D02*
G37*
G36*
X114748D02*
X113841D01*
Y-364094D01*
X113918Y-364482D01*
X114138Y-364811D01*
X114467Y-365031D01*
X114748Y-365087D01*
Y-361248D01*
D02*
G37*
G36*
X105120Y-364476D02*
X103248D01*
Y-366151D01*
X105120D01*
Y-364476D01*
D02*
G37*
G36*
X102248D02*
X100376D01*
Y-366151D01*
X102248D01*
Y-364476D01*
D02*
G37*
G36*
X183946Y-371874D02*
X182905D01*
X181899Y-372143D01*
X180998Y-372664D01*
X180262Y-373400D01*
X179742Y-374301D01*
X179472Y-375306D01*
Y-376347D01*
X179742Y-377352D01*
X180262Y-378254D01*
X180998Y-378990D01*
X181899Y-379510D01*
X182905Y-379780D01*
X183946D01*
X184951Y-379510D01*
X185852Y-378990D01*
X186588Y-378254D01*
X187109Y-377352D01*
X187378Y-376347D01*
Y-375306D01*
X187109Y-374301D01*
X186588Y-373400D01*
X185852Y-372664D01*
X184951Y-372143D01*
X183946Y-371874D01*
D02*
G37*
G36*
X173946D02*
X172905D01*
X171899Y-372143D01*
X170998Y-372664D01*
X170262Y-373400D01*
X169742Y-374301D01*
X169473Y-375306D01*
Y-376347D01*
X169742Y-377352D01*
X170262Y-378254D01*
X170998Y-378990D01*
X171899Y-379510D01*
X172905Y-379780D01*
X173946D01*
X174951Y-379510D01*
X175852Y-378990D01*
X176588Y-378254D01*
X177109Y-377352D01*
X177378Y-376347D01*
Y-375306D01*
X177109Y-374301D01*
X176588Y-373400D01*
X175852Y-372664D01*
X174951Y-372143D01*
X173946Y-371874D01*
D02*
G37*
G36*
X163946D02*
X162905D01*
X161899Y-372143D01*
X160998Y-372664D01*
X160262Y-373400D01*
X159742Y-374301D01*
X159473Y-375306D01*
Y-376347D01*
X159742Y-377352D01*
X160262Y-378254D01*
X160998Y-378990D01*
X161899Y-379510D01*
X162905Y-379780D01*
X163946D01*
X164951Y-379510D01*
X165852Y-378990D01*
X166588Y-378254D01*
X167109Y-377352D01*
X167378Y-376347D01*
Y-375306D01*
X167109Y-374301D01*
X166588Y-373400D01*
X165852Y-372664D01*
X164951Y-372143D01*
X163946Y-371874D01*
D02*
G37*
G36*
X153946D02*
X152905D01*
X151900Y-372143D01*
X150998Y-372664D01*
X150262Y-373400D01*
X149742Y-374301D01*
X149472Y-375306D01*
Y-376347D01*
X149742Y-377352D01*
X150262Y-378254D01*
X150998Y-378990D01*
X151900Y-379510D01*
X152905Y-379780D01*
X153946D01*
X154951Y-379510D01*
X155852Y-378990D01*
X156588Y-378254D01*
X157109Y-377352D01*
X157378Y-376347D01*
Y-375306D01*
X157109Y-374301D01*
X156588Y-373400D01*
X155852Y-372664D01*
X154951Y-372143D01*
X153946Y-371874D01*
D02*
G37*
G36*
X143946D02*
X142905D01*
X141900Y-372143D01*
X140998Y-372664D01*
X140262Y-373400D01*
X139742Y-374301D01*
X139472Y-375306D01*
Y-376347D01*
X139742Y-377352D01*
X140262Y-378254D01*
X140998Y-378990D01*
X141900Y-379510D01*
X142905Y-379780D01*
X143946D01*
X144951Y-379510D01*
X145852Y-378990D01*
X146588Y-378254D01*
X147109Y-377352D01*
X147378Y-376347D01*
Y-375306D01*
X147109Y-374301D01*
X146588Y-373400D01*
X145852Y-372664D01*
X144951Y-372143D01*
X143946Y-371874D01*
D02*
G37*
G36*
X113946D02*
X112905D01*
X111899Y-372143D01*
X110998Y-372664D01*
X110262Y-373400D01*
X109742Y-374301D01*
X109473Y-375306D01*
Y-376347D01*
X109742Y-377352D01*
X110262Y-378254D01*
X110998Y-378990D01*
X111899Y-379510D01*
X112905Y-379780D01*
X113946D01*
X114951Y-379510D01*
X115852Y-378990D01*
X116588Y-378254D01*
X117109Y-377352D01*
X117378Y-376347D01*
Y-375306D01*
X117109Y-374301D01*
X116588Y-373400D01*
X115852Y-372664D01*
X114951Y-372143D01*
X113946Y-371874D01*
D02*
G37*
G36*
X43946D02*
X42905D01*
X41899Y-372143D01*
X40998Y-372664D01*
X40262Y-373400D01*
X39742Y-374301D01*
X39472Y-375306D01*
Y-376347D01*
X39742Y-377352D01*
X40262Y-378254D01*
X40998Y-378990D01*
X41899Y-379510D01*
X42905Y-379780D01*
X43946D01*
X44951Y-379510D01*
X45852Y-378990D01*
X46588Y-378254D01*
X47109Y-377352D01*
X47378Y-376347D01*
Y-375306D01*
X47109Y-374301D01*
X46588Y-373400D01*
X45852Y-372664D01*
X44951Y-372143D01*
X43946Y-371874D01*
D02*
G37*
G36*
X33946D02*
X32905D01*
X31899Y-372143D01*
X30998Y-372664D01*
X30262Y-373400D01*
X29742Y-374301D01*
X29472Y-375306D01*
Y-376347D01*
X29742Y-377352D01*
X30262Y-378254D01*
X30998Y-378990D01*
X31899Y-379510D01*
X32905Y-379780D01*
X33946D01*
X34951Y-379510D01*
X35852Y-378990D01*
X36588Y-378254D01*
X37109Y-377352D01*
X37378Y-376347D01*
Y-375306D01*
X37109Y-374301D01*
X36588Y-373400D01*
X35852Y-372664D01*
X34951Y-372143D01*
X33946Y-371874D01*
D02*
G37*
G36*
X103946Y-381874D02*
X102905D01*
X101900Y-382143D01*
X100998Y-382664D01*
X100262Y-383400D01*
X99742Y-384301D01*
X99472Y-385306D01*
Y-386347D01*
X99742Y-387352D01*
X100262Y-388254D01*
X100998Y-388990D01*
X101900Y-389510D01*
X102905Y-389779D01*
X103946D01*
X104951Y-389510D01*
X105852Y-388990D01*
X106588Y-388254D01*
X107109Y-387352D01*
X107378Y-386347D01*
Y-385306D01*
X107109Y-384301D01*
X106588Y-383400D01*
X105852Y-382664D01*
X104951Y-382143D01*
X103946Y-381874D01*
D02*
G37*
G36*
X43946D02*
X42905D01*
X41899Y-382143D01*
X40998Y-382664D01*
X40262Y-383400D01*
X39742Y-384301D01*
X39472Y-385306D01*
Y-386347D01*
X39742Y-387352D01*
X40262Y-388254D01*
X40998Y-388990D01*
X41899Y-389510D01*
X42905Y-389779D01*
X43946D01*
X44951Y-389510D01*
X45852Y-388990D01*
X46588Y-388254D01*
X47109Y-387352D01*
X47378Y-386347D01*
Y-385306D01*
X47109Y-384301D01*
X46588Y-383400D01*
X45852Y-382664D01*
X44951Y-382143D01*
X43946Y-381874D01*
D02*
G37*
G36*
X33946D02*
X32905D01*
X31899Y-382143D01*
X30998Y-382664D01*
X30262Y-383400D01*
X29742Y-384301D01*
X29472Y-385306D01*
Y-386347D01*
X29742Y-387352D01*
X30262Y-388254D01*
X30998Y-388990D01*
X31899Y-389510D01*
X32905Y-389779D01*
X33946D01*
X34951Y-389510D01*
X35852Y-388990D01*
X36588Y-388254D01*
X37109Y-387352D01*
X37378Y-386347D01*
Y-385306D01*
X37109Y-384301D01*
X36588Y-383400D01*
X35852Y-382664D01*
X34951Y-382143D01*
X33946Y-381874D01*
D02*
G37*
G36*
X23946D02*
X22905D01*
X21900Y-382143D01*
X20998Y-382664D01*
X20262Y-383400D01*
X19742Y-384301D01*
X19473Y-385306D01*
Y-386347D01*
X19742Y-387352D01*
X20262Y-388254D01*
X20998Y-388990D01*
X21900Y-389510D01*
X22905Y-389779D01*
X23946D01*
X24951Y-389510D01*
X25852Y-388990D01*
X26588Y-388254D01*
X27109Y-387352D01*
X27378Y-386347D01*
Y-385306D01*
X27109Y-384301D01*
X26588Y-383400D01*
X25852Y-382664D01*
X24951Y-382143D01*
X23946Y-381874D01*
D02*
G37*
%LPD*%
G36*
X51081Y-333762D02*
X47053D01*
Y-326585D01*
X51081D01*
Y-333762D01*
D02*
G37*
G36*
X9349D02*
X5321D01*
Y-326585D01*
X9349D01*
Y-333762D01*
D02*
G37*
%LPC*%
G36*
X126695Y-307876D02*
X125020D01*
Y-309748D01*
X126695D01*
Y-307876D01*
D02*
G37*
G36*
X124020D02*
X122345D01*
Y-309748D01*
X124020D01*
Y-307876D01*
D02*
G37*
G36*
X90248Y-315802D02*
X88376D01*
Y-317476D01*
X90248D01*
Y-315802D01*
D02*
G37*
%LPD*%
D21*
X91963Y-319559D02*
G03*
X92107Y-319607I144J195D01*
G01*
X177248Y-108748D02*
Y-105748D01*
X188248Y-94748D02*
X188248D01*
X177248Y-105748D02*
X188248Y-94748D01*
X172998Y-169498D02*
Y-147998D01*
Y-169498D02*
X188248Y-184748D01*
X145246Y-292500D02*
X147500Y-290246D01*
X142000Y-277000D02*
X147500Y-282500D01*
Y-290246D02*
Y-282500D01*
X129616Y-296286D02*
X132714D01*
X142000Y-287000D01*
X119638Y-306265D02*
X129616Y-296286D01*
X119638Y-317469D02*
Y-306265D01*
X140000Y-292500D02*
X145246D01*
X136248Y-310529D02*
Y-296252D01*
X140000Y-292500D01*
X73748Y-109976D02*
X74476Y-109248D01*
X73748Y-121248D02*
Y-109976D01*
X74476Y-109445D02*
Y-109248D01*
X78748Y-121248D02*
Y-113716D01*
X74476Y-109445D02*
X78748Y-113716D01*
X79248Y-109248D02*
X83748Y-113748D01*
X74476Y-109248D02*
X79248D01*
X83748Y-121248D02*
Y-113748D01*
X20248Y-279248D02*
X24949D01*
X46248Y-289248D02*
Y-285976D01*
X40248Y-289248D02*
Y-285976D01*
X68748Y-176520D02*
Y-158148D01*
X68020Y-177248D02*
X68748Y-176520D01*
X62248Y-166248D02*
X63748Y-164748D01*
Y-158148D01*
X73748Y-176480D02*
Y-158148D01*
Y-176480D02*
X74555Y-177287D01*
X78748Y-158148D02*
X83748D01*
X73748D02*
X78748D01*
X98748Y-168248D02*
X99748Y-169248D01*
X98748Y-168248D02*
Y-158148D01*
X63764Y-271248D02*
X102248D01*
X37059Y-244543D02*
X63764Y-271248D01*
X124830Y-350248D02*
X127748D01*
X121606Y-347024D02*
Y-345028D01*
Y-347024D02*
X124830Y-350248D01*
X145888Y-344667D02*
X146090Y-344869D01*
X139748Y-340748D02*
X143667Y-344667D01*
X131950Y-340748D02*
X139748D01*
X143667Y-344667D02*
X145888D01*
X137028Y-343996D02*
X137159D01*
X136787Y-343756D02*
X137028Y-343996D01*
X136787Y-343756D02*
Y-343256D01*
X133780Y-338779D02*
X145554D01*
X146359Y-339585D01*
X147052D01*
X129339Y-338138D02*
X131950Y-340748D01*
X131169Y-336169D02*
X133780Y-338779D01*
X126528Y-336169D02*
X131169D01*
X134725Y-334201D02*
X136056Y-335531D01*
X126528Y-334201D02*
X134725D01*
X136056Y-335531D02*
X136748D01*
X131666Y-343248D02*
X134976D01*
X128524Y-340106D02*
X131666Y-343248D01*
X134976D02*
X135748Y-344020D01*
X126528Y-338138D02*
X129339D01*
X126528Y-340106D02*
X128524D01*
X126528Y-332232D02*
X145892D01*
X147171Y-333512D01*
X147748D01*
X126528Y-330264D02*
X150248D01*
X151528Y-331543D01*
X152220D01*
X157138Y-324358D02*
X168748Y-312748D01*
X126528Y-324358D02*
X157138D01*
X126528Y-326327D02*
X158669D01*
X126528Y-322390D02*
X153936D01*
X155216Y-321110D01*
X158669Y-326327D02*
X171280Y-313717D01*
X155216Y-321110D02*
X155792D01*
X139524Y-347972D02*
X140248Y-347248D01*
X136209Y-349055D02*
X137291Y-347972D01*
X139524D01*
X126528Y-342075D02*
X127709D01*
X133606Y-347972D01*
X135126D02*
X136209Y-349055D01*
X133606Y-347972D02*
X135126D01*
X168748Y-312748D02*
Y-187248D01*
X171280Y-313717D02*
Y-182780D01*
X126528Y-328295D02*
X161201D01*
X173248Y-316248D02*
Y-199748D01*
X161201Y-328295D02*
X173248Y-316248D01*
X43791Y-282748D02*
X93248D01*
X40484Y-279441D02*
X43791Y-282748D01*
X40287Y-279441D02*
X40484D01*
X94555D02*
X96652Y-277344D01*
X46287Y-279441D02*
X94555D01*
X165000Y-174996D02*
X167748Y-172248D01*
X165000Y-183500D02*
X168748Y-187248D01*
X165000Y-183500D02*
Y-174996D01*
X168248Y-179748D02*
X171280Y-182780D01*
X173248Y-199748D02*
X188248Y-184748D01*
X127709Y-320421D02*
Y-319068D01*
X136248Y-310529D01*
X126528Y-320421D02*
X127709D01*
X111031Y-302664D02*
X113732Y-305365D01*
X111031Y-302664D02*
Y-302587D01*
X113732Y-317469D02*
Y-305365D01*
X103748Y-308748D02*
Y-304748D01*
Y-308748D02*
X107827Y-312827D01*
X95248Y-303248D02*
X103890Y-311890D01*
X101131Y-315497D02*
X101921Y-316287D01*
X110244Y-308437D02*
Y-307744D01*
Y-308437D02*
X111764Y-309956D01*
X100642Y-313235D02*
X101131Y-313725D01*
Y-315497D02*
Y-313725D01*
X95248Y-303248D02*
X95248D01*
X103890Y-317469D02*
Y-311890D01*
X156248Y-151748D02*
X160248D01*
X68212Y-345784D02*
X81907Y-332089D01*
X36712Y-345784D02*
X68212D01*
X81748Y-337748D02*
Y-335032D01*
X87107Y-328295D02*
X98968D01*
X84428Y-330975D02*
X87107Y-328295D01*
X81748Y-335032D02*
X84428Y-332352D01*
Y-330975D01*
X81907Y-332089D02*
Y-309996D01*
X85799Y-335651D02*
X85895Y-335748D01*
X81748Y-337748D02*
X83621Y-339621D01*
X85895Y-335748D02*
X89964D01*
X93480Y-332232D01*
X73248Y-359248D02*
Y-355248D01*
X94295Y-334201D01*
X98968D01*
X18358Y-357732D02*
X24764D01*
X36712Y-345784D01*
X102795Y-299201D02*
X106996Y-303403D01*
X81907Y-309996D02*
X92701Y-299201D01*
X102795D01*
X159748Y-155748D02*
X160748Y-156748D01*
X143748Y-155748D02*
X159748D01*
X160496Y-151500D02*
X163496D01*
X165547Y-149449D01*
X160248Y-151748D02*
X160496Y-151500D01*
X141248Y-136748D02*
X156248Y-151748D01*
X165547Y-149449D02*
Y-146398D01*
X85155Y-318155D02*
X90426D01*
X90748Y-318476D01*
X90398Y-311248D02*
X90550Y-311401D01*
X85248Y-311248D02*
X90398D01*
X107827Y-317469D02*
Y-312827D01*
X106996Y-309212D02*
Y-303403D01*
Y-309212D02*
X109795Y-312011D01*
Y-317469D02*
Y-312011D01*
X101921Y-317469D02*
Y-316287D01*
X117669Y-317469D02*
Y-196169D01*
X93748Y-172248D02*
X117669Y-196169D01*
X88748Y-170248D02*
X115701Y-197201D01*
Y-317469D02*
Y-197201D01*
X111764Y-317469D02*
Y-309956D01*
X122184Y-313291D02*
Y-312781D01*
X124520Y-310445D02*
Y-305976D01*
X121606Y-317469D02*
Y-313869D01*
X122184Y-313291D01*
Y-312781D02*
X124520Y-310445D01*
X93480Y-332232D02*
X98968D01*
X90550Y-311507D02*
Y-311401D01*
Y-311507D02*
X92067Y-313024D01*
X88748Y-170248D02*
Y-158148D01*
X93748Y-172248D02*
Y-158148D01*
X92107Y-319607D02*
X93932Y-321432D01*
X91963Y-319560D02*
Y-319559D01*
X90748Y-318476D02*
X91963Y-319559D01*
X93932Y-321432D02*
X94890Y-322390D01*
X92067Y-313520D02*
Y-313024D01*
Y-313520D02*
X97970Y-319423D01*
Y-320421D02*
X98968D01*
X97970D02*
Y-319423D01*
X94890Y-322390D02*
X98968D01*
X90748Y-323248D02*
X91858Y-324358D01*
X98968D01*
X85248Y-324748D02*
X86827Y-326327D01*
X98968D01*
X89248Y-331748D02*
X90732Y-330264D01*
X98968D01*
X84748Y-352330D02*
X96972Y-340106D01*
X98968D01*
X84748Y-362032D02*
Y-352330D01*
X76748Y-361248D02*
Y-354763D01*
X95341Y-336169D02*
X98968D01*
X81248Y-362748D02*
Y-353046D01*
X96157Y-338138D01*
X76748Y-354763D02*
X95341Y-336169D01*
X96157Y-338138D02*
X98968D01*
X46091Y-279441D02*
X46287D01*
X40780Y-274130D02*
X46091Y-279441D01*
X31719Y-274130D02*
X40780D01*
X36748Y-276098D02*
X40091Y-279441D01*
X32900Y-276098D02*
X36748D01*
X28492Y-277357D02*
X31719Y-274130D01*
X28098Y-279248D02*
X28492Y-278854D01*
Y-277357D01*
X31642D02*
X32900Y-276098D01*
X40091Y-279441D02*
X40287D01*
X31248Y-279248D02*
X31642Y-278854D01*
Y-277357D01*
X32745Y-282398D02*
X34004Y-281139D01*
Y-279642D02*
X34398Y-279248D01*
X34004Y-281139D02*
Y-279642D01*
X25343Y-281139D02*
X26601Y-282398D01*
X32745D01*
X24949Y-279248D02*
X25343Y-279642D01*
Y-281139D02*
Y-279642D01*
X18358Y-300646D02*
X24949Y-294055D01*
Y-285547D01*
X31248D02*
X34398D01*
X24949D02*
X28098D01*
X34398Y-296636D02*
Y-285547D01*
Y-296636D02*
X38043Y-300281D01*
Y-300646D02*
Y-300281D01*
X165047Y-114949D02*
X165835D01*
X166228Y-114555D02*
Y-113768D01*
X166803Y-113193D01*
Y-98008D01*
X165835Y-114949D02*
X166228Y-114555D01*
X102748Y-363976D02*
X102945D01*
X106748Y-367779D01*
Y-368248D02*
Y-367779D01*
X131055Y-310287D02*
Y-306441D01*
X125935Y-313927D02*
X127612D01*
X123575Y-317469D02*
Y-316287D01*
X125935Y-313927D01*
X127612D02*
X131055Y-310484D01*
Y-310287D01*
X111000Y-352903D02*
X113732Y-350170D01*
X111000Y-353023D02*
Y-352903D01*
X105498Y-352957D02*
X107063Y-351392D01*
Y-351272D02*
X107827Y-350508D01*
X109031Y-352087D02*
X109795Y-351324D01*
X109028Y-352211D02*
X109031Y-352207D01*
X102787Y-357441D02*
X102834D01*
X103917Y-356358D02*
Y-355104D01*
X107063Y-351392D02*
Y-351272D01*
X102834Y-357441D02*
X103917Y-356358D01*
Y-355104D02*
X105498Y-353523D01*
X109028Y-355480D02*
Y-352211D01*
X109795Y-351324D02*
Y-345028D01*
X110996Y-356296D02*
Y-353027D01*
X109031Y-352207D02*
Y-352087D01*
X105498Y-353523D02*
Y-352957D01*
X107827Y-350508D02*
Y-345028D01*
X110996Y-353027D02*
X111000Y-353023D01*
X113732Y-350170D02*
Y-345028D01*
X108260Y-358661D02*
Y-356248D01*
X110819Y-360453D02*
Y-356473D01*
X110524Y-360748D02*
X110819Y-360453D01*
Y-356473D02*
X110996Y-356296D01*
X108260Y-356248D02*
X109028Y-355480D01*
X102945Y-363976D02*
X108260Y-358661D01*
X98248Y-381004D02*
Y-355450D01*
X105858Y-347839D01*
Y-345028D01*
X92748Y-358166D02*
X103890Y-347024D01*
Y-345028D01*
X92748Y-362748D02*
Y-358166D01*
X115701Y-350201D02*
X119972Y-354472D01*
X115701Y-350201D02*
Y-345028D01*
X119972Y-360748D02*
Y-354472D01*
X117669Y-348669D02*
X123425Y-354425D01*
X117669Y-348669D02*
Y-345028D01*
X119638Y-347854D02*
Y-345028D01*
Y-347854D02*
X128717Y-356933D01*
Y-380535D02*
Y-356933D01*
X123425Y-375827D02*
Y-354425D01*
X17748Y-99172D02*
X20325Y-101748D01*
X17748Y-91020D02*
X23476Y-85291D01*
X17748Y-99172D02*
Y-91020D01*
X63748Y-120854D02*
Y-112341D01*
Y-121248D02*
Y-120854D01*
X61748Y-110341D02*
Y-109748D01*
Y-110341D02*
X63748Y-112341D01*
X63142Y-120248D02*
X63748Y-120854D01*
X51476Y-120248D02*
X63142D01*
X58235Y-83478D02*
X59978D01*
X57504Y-82748D02*
X58235Y-83478D01*
X59978D02*
X65350Y-88850D01*
Y-93319D02*
Y-88850D01*
Y-93319D02*
X66039Y-94008D01*
X67220D01*
X65405Y-101748D02*
X66748Y-100406D01*
X57504Y-101748D02*
X65405D01*
X20325D02*
X51992D01*
X80700Y-100245D02*
X81393D01*
X76276Y-97748D02*
X76965Y-98437D01*
X78893D01*
X80700Y-100245D01*
X76640Y-94372D02*
X80114D01*
X76276Y-94008D02*
X76640Y-94372D01*
X80114D02*
X93748Y-108006D01*
Y-121248D02*
Y-108006D01*
X88748Y-121248D02*
Y-112779D01*
X77457Y-101488D02*
X88748Y-112779D01*
X76276Y-101488D02*
X77457D01*
X167898Y-118098D02*
X177248Y-108748D01*
X165047Y-118098D02*
X167898D01*
X78630Y-368150D02*
X84748Y-362032D01*
X88996Y-366500D02*
X92748Y-362748D01*
X78996Y-373352D02*
X90248Y-362100D01*
Y-356701D02*
X101921Y-345028D01*
X90248Y-362100D02*
Y-356701D01*
X78166Y-371398D02*
X87248Y-362316D01*
Y-353795D02*
X98968Y-342075D01*
X87248Y-362316D02*
Y-353795D01*
X79094Y-364902D02*
X81248Y-362748D01*
X64748Y-367748D02*
X73248Y-359248D01*
X88996Y-380256D02*
Y-366500D01*
X78996Y-380256D02*
Y-373352D01*
X72903Y-364902D02*
X79094D01*
X74248Y-368150D02*
X78630D01*
X71591Y-371398D02*
X78166D01*
X53425Y-375827D02*
X58004Y-371248D01*
X66556D02*
X72903Y-364902D01*
X58004Y-371248D02*
X66556D01*
X68248Y-381004D02*
Y-374740D01*
X63425Y-385827D02*
X68248Y-381004D01*
Y-374740D02*
X71591Y-371398D01*
X73425Y-385827D02*
X78996Y-380256D01*
X83425Y-385827D02*
X88996Y-380256D01*
X93425Y-385827D02*
X98248Y-381004D01*
X123425Y-385827D02*
X128717Y-380535D01*
X152248Y-101748D02*
X157748D01*
X137795Y-70063D02*
X141248Y-73516D01*
Y-136748D02*
Y-73516D01*
X137795Y-70063D02*
Y-69177D01*
X137106Y-68488D02*
X137795Y-69177D01*
X136221Y-68488D02*
X137106D01*
X51492Y-82248D02*
X51992Y-82748D01*
X33366Y-82248D02*
X51492D01*
X168248Y-143248D02*
X172998Y-147998D01*
X175248Y-161748D02*
X188248Y-174748D01*
X175248Y-161748D02*
Y-146748D01*
X165547Y-143248D02*
X168248D01*
X168598Y-140098D02*
X175248Y-146748D01*
X165547Y-140098D02*
X168598D01*
X178248Y-154748D02*
X188248Y-164748D01*
X169949Y-136949D02*
X178248Y-145248D01*
Y-154748D02*
Y-145248D01*
X181748Y-148248D02*
X188248Y-154748D01*
X181748Y-148248D02*
Y-138248D01*
X167898Y-124398D02*
X181748Y-138248D01*
X165547Y-136949D02*
X169949D01*
X186335Y-106661D02*
X188248Y-104748D01*
X182835Y-106661D02*
X186335D01*
X168248Y-121248D02*
X182835Y-106661D01*
X165047Y-121248D02*
X168248D01*
X165047Y-124398D02*
X167898D01*
D22*
X182871Y-86125D02*
X186871D01*
X166803Y-98008D02*
X170988D01*
X182871Y-86125D01*
X186871D02*
X188248Y-84748D01*
X132287Y-82709D02*
X137941D01*
Y-76709D01*
X134926Y-73497D02*
X137941Y-76512D01*
X130748Y-72248D02*
X131997Y-73497D01*
X137941Y-76709D02*
Y-76512D01*
X131997Y-73497D02*
X134926D01*
X130748Y-72248D02*
Y-65595D01*
X135335Y-61008D01*
X136221D01*
X159248Y-136949D02*
Y-115047D01*
Y-140098D02*
Y-136949D01*
Y-143248D02*
Y-140098D01*
X158748Y-114949D02*
X159150D01*
X159248Y-115047D01*
X162248Y-81248D02*
X165055Y-78441D01*
X158748Y-111248D02*
X162248Y-107748D01*
Y-81248D01*
X158748Y-114949D02*
Y-111248D01*
X165055Y-78441D02*
Y-73287D01*
X145276Y-64748D02*
X156933D01*
X167563D02*
X188248D01*
X167563D02*
Y-57992D01*
X165555Y-55984D02*
X167563Y-57992D01*
X165555Y-55984D02*
Y-55787D01*
X165055Y-73090D02*
X167563Y-70583D01*
X165055Y-73287D02*
Y-73090D01*
X167563Y-70583D02*
Y-64748D01*
D24*
X28201Y-300646D02*
D03*
X38043D02*
D03*
X18358D02*
D03*
X38043Y-357732D02*
D03*
X18358D02*
D03*
D25*
X186279Y-33094D02*
D03*
Y-328370D02*
D03*
D26*
X188248Y-174748D02*
D03*
Y-184748D02*
D03*
Y-194748D02*
D03*
Y-204748D02*
D03*
Y-54748D02*
D03*
Y-64748D02*
D03*
Y-74748D02*
D03*
Y-84748D02*
D03*
Y-94748D02*
D03*
Y-104748D02*
D03*
Y-114748D02*
D03*
Y-124748D02*
D03*
Y-134748D02*
D03*
Y-144748D02*
D03*
Y-154748D02*
D03*
Y-164748D02*
D03*
D27*
X64232Y-328370D02*
D03*
Y-33094D02*
D03*
D28*
X19342Y-244543D02*
D03*
Y-218953D02*
D03*
X37059Y-244543D02*
D03*
Y-218953D02*
D03*
X142000Y-277000D02*
D03*
Y-287000D02*
D03*
Y-297000D02*
D03*
X13425Y-7874D02*
D03*
Y-17874D02*
D03*
X23425Y-7874D02*
D03*
Y-17874D02*
D03*
X33425Y-7874D02*
D03*
Y-17874D02*
D03*
X43425Y-7874D02*
D03*
Y-17874D02*
D03*
X53425Y-7874D02*
D03*
Y-17874D02*
D03*
X63425Y-7874D02*
D03*
Y-17874D02*
D03*
X73425Y-7874D02*
D03*
Y-17874D02*
D03*
X83425Y-7874D02*
D03*
Y-17874D02*
D03*
X93425Y-7874D02*
D03*
Y-17874D02*
D03*
X103425Y-7874D02*
D03*
Y-17874D02*
D03*
X113425Y-7874D02*
D03*
Y-17874D02*
D03*
X123425Y-7874D02*
D03*
Y-17874D02*
D03*
X133425Y-7874D02*
D03*
Y-17874D02*
D03*
X143425Y-7874D02*
D03*
Y-17874D02*
D03*
X153425Y-7874D02*
D03*
Y-17874D02*
D03*
X163425Y-7874D02*
D03*
Y-17874D02*
D03*
X173425Y-7874D02*
D03*
Y-17874D02*
D03*
X183425Y-7874D02*
D03*
X13425Y-375827D02*
D03*
Y-385827D02*
D03*
X23425Y-375827D02*
D03*
Y-385827D02*
D03*
X33425Y-375827D02*
D03*
Y-385827D02*
D03*
X43425Y-375827D02*
D03*
Y-385827D02*
D03*
X53425Y-375827D02*
D03*
Y-385827D02*
D03*
X63425Y-375827D02*
D03*
Y-385827D02*
D03*
X73425Y-375827D02*
D03*
Y-385827D02*
D03*
X83425Y-375827D02*
D03*
Y-385827D02*
D03*
X93425Y-375827D02*
D03*
Y-385827D02*
D03*
X103425Y-375827D02*
D03*
Y-385827D02*
D03*
X113425Y-375827D02*
D03*
Y-385827D02*
D03*
X123425Y-375827D02*
D03*
Y-385827D02*
D03*
X133425Y-375827D02*
D03*
Y-385827D02*
D03*
X143425Y-375827D02*
D03*
Y-385827D02*
D03*
X153425Y-375827D02*
D03*
Y-385827D02*
D03*
X163425Y-375827D02*
D03*
Y-385827D02*
D03*
X173425Y-375827D02*
D03*
Y-385827D02*
D03*
X183425Y-375827D02*
D03*
D29*
X142000Y-267000D02*
D03*
D30*
X33319Y-75842D02*
D03*
Y-82142D02*
D03*
X23083Y-85291D02*
D03*
Y-78992D02*
D03*
X33319Y-88441D02*
D03*
D31*
X28201Y-96512D02*
D03*
Y-67772D02*
D03*
D32*
X183425Y-17874D02*
D03*
Y-385827D02*
D03*
D33*
X179500Y-187000D02*
D03*
X179000Y-124500D02*
D03*
X146000Y-117500D02*
D03*
X63500Y-350500D02*
D03*
X109500Y-293000D02*
D03*
X184500Y-357000D02*
D03*
X185500Y-268000D02*
D03*
X157500Y-266000D02*
D03*
X102000Y-248500D02*
D03*
X27000Y-330000D02*
D03*
X151500Y-364000D02*
D03*
X20248Y-279248D02*
D03*
X46248Y-289248D02*
D03*
X40248D02*
D03*
X74248Y-173748D02*
D03*
X68748D02*
D03*
X62248Y-166248D02*
D03*
X98748Y-168248D02*
D03*
X102248Y-271248D02*
D03*
X127748Y-273248D02*
D03*
Y-350248D02*
D03*
X137159Y-343996D02*
D03*
X136748Y-335531D02*
D03*
X146090Y-344869D02*
D03*
X147052Y-339585D02*
D03*
X152220Y-331543D02*
D03*
X147748Y-333512D02*
D03*
X155792Y-321110D02*
D03*
X139886Y-347610D02*
D03*
X122498Y-282498D02*
D03*
X123652Y-277344D02*
D03*
X93248Y-282748D02*
D03*
X96652Y-277344D02*
D03*
X132748Y-366748D02*
D03*
X167748Y-172248D02*
D03*
X168248Y-179748D02*
D03*
X111031Y-302587D02*
D03*
X103748Y-304748D02*
D03*
X110244Y-307744D02*
D03*
X100642Y-313235D02*
D03*
X160248Y-151748D02*
D03*
X85799Y-335651D02*
D03*
X83621Y-339621D02*
D03*
X161748Y-156748D02*
D03*
X143748Y-155748D02*
D03*
X85155Y-318155D02*
D03*
X85248Y-311248D02*
D03*
X95248Y-303248D02*
D03*
X89748Y-322748D02*
D03*
X85248Y-324748D02*
D03*
X88248Y-331748D02*
D03*
X124520Y-305976D02*
D03*
X131055Y-306441D02*
D03*
X105748Y-353248D02*
D03*
X106748Y-368248D02*
D03*
X114248Y-354248D02*
D03*
X69248Y-113748D02*
D03*
X99248Y-112748D02*
D03*
X39248Y-120748D02*
D03*
X44248Y-114748D02*
D03*
X61248Y-97248D02*
D03*
X81393Y-100245D02*
D03*
X64748Y-367748D02*
D03*
X76748Y-361248D02*
D03*
X74248Y-368150D02*
D03*
X152248Y-101748D02*
D03*
X152268Y-94268D02*
D03*
X148248Y-77248D02*
D03*
X154248Y-73248D02*
D03*
X153248Y-55748D02*
D03*
X152748Y-142248D02*
D03*
X133248Y-82748D02*
D03*
X61748Y-109748D02*
D03*
D35*
X68020Y-177248D02*
D03*
X74555Y-177287D02*
D03*
X137941Y-82709D02*
D03*
X144476Y-82748D02*
D03*
X137941Y-76709D02*
D03*
X144476Y-76748D02*
D03*
X67941Y-109209D02*
D03*
X74476Y-109248D02*
D03*
X165055Y-73287D02*
D03*
X158520Y-73248D02*
D03*
X165555Y-55787D02*
D03*
X159020Y-55748D02*
D03*
X131055Y-310287D02*
D03*
X124520Y-310248D02*
D03*
X67941Y-170709D02*
D03*
X74476Y-170748D02*
D03*
X44941Y-120209D02*
D03*
X51476Y-120248D02*
D03*
X57504Y-101748D02*
D03*
X51992D02*
D03*
X57504Y-82748D02*
D03*
X51992D02*
D03*
D36*
X112748Y-331248D02*
D03*
D37*
X126528Y-342075D02*
D03*
Y-340106D02*
D03*
Y-338138D02*
D03*
Y-336169D02*
D03*
Y-334201D02*
D03*
Y-332232D02*
D03*
Y-330264D02*
D03*
Y-328295D02*
D03*
Y-326327D02*
D03*
Y-324358D02*
D03*
Y-322390D02*
D03*
Y-320421D02*
D03*
X98968D02*
D03*
Y-322390D02*
D03*
Y-324358D02*
D03*
Y-326327D02*
D03*
Y-328295D02*
D03*
Y-330264D02*
D03*
Y-332232D02*
D03*
Y-334201D02*
D03*
Y-336169D02*
D03*
Y-338138D02*
D03*
Y-340106D02*
D03*
Y-342075D02*
D03*
D38*
X123575Y-317469D02*
D03*
X121606D02*
D03*
X119638D02*
D03*
X117669D02*
D03*
X115701D02*
D03*
X113732D02*
D03*
X111764D02*
D03*
X109795D02*
D03*
X107827D02*
D03*
X105858D02*
D03*
X103890D02*
D03*
X101921D02*
D03*
Y-345028D02*
D03*
X103890D02*
D03*
X105858D02*
D03*
X107827D02*
D03*
X109795D02*
D03*
X111764D02*
D03*
X113732D02*
D03*
X115701D02*
D03*
X117669D02*
D03*
X119638D02*
D03*
X121606D02*
D03*
X123575D02*
D03*
D39*
X46248Y-285976D02*
D03*
X46287Y-279441D02*
D03*
X40248Y-285976D02*
D03*
X40287Y-279441D02*
D03*
X135748Y-344020D02*
D03*
X135709Y-350555D02*
D03*
X102748Y-363976D02*
D03*
X102787Y-357441D02*
D03*
X90787Y-311441D02*
D03*
X90748Y-317976D02*
D03*
D40*
X24949Y-279248D02*
D03*
X28098D02*
D03*
X34398D02*
D03*
X31248D02*
D03*
Y-285547D02*
D03*
X34398D02*
D03*
X28098D02*
D03*
X24949D02*
D03*
D41*
X165547Y-146398D02*
D03*
Y-143248D02*
D03*
Y-136949D02*
D03*
Y-140098D02*
D03*
X159248D02*
D03*
Y-136949D02*
D03*
Y-143248D02*
D03*
Y-146398D02*
D03*
X165047Y-124398D02*
D03*
Y-121248D02*
D03*
Y-114949D02*
D03*
Y-118098D02*
D03*
X158748D02*
D03*
Y-114949D02*
D03*
Y-121248D02*
D03*
Y-124398D02*
D03*
D42*
X156933Y-64748D02*
D03*
X167563D02*
D03*
D43*
X136221Y-68488D02*
D03*
Y-61008D02*
D03*
X145276Y-64748D02*
D03*
X157748Y-101748D02*
D03*
Y-94268D02*
D03*
X166803Y-98008D02*
D03*
D44*
X119972Y-360748D02*
D03*
X115248D02*
D03*
X110524D02*
D03*
D45*
X67220Y-101488D02*
D03*
Y-97748D02*
D03*
Y-94008D02*
D03*
X76276D02*
D03*
Y-97748D02*
D03*
Y-101488D02*
D03*
D46*
X63748Y-158148D02*
D03*
X68748D02*
D03*
X73748D02*
D03*
X78748D02*
D03*
X83748D02*
D03*
X88748D02*
D03*
X93748D02*
D03*
X98748D02*
D03*
Y-121248D02*
D03*
X93748D02*
D03*
X88748D02*
D03*
X83748D02*
D03*
X78748D02*
D03*
X73748D02*
D03*
X68748D02*
D03*
X63748D02*
D03*
D47*
X114248Y-354674D02*
X115051Y-355477D01*
X114248Y-354674D02*
Y-354248D01*
X115051Y-360551D02*
X115248Y-360748D01*
X115051Y-360551D02*
Y-355477D01*
X152248Y-94248D02*
X152268Y-94268D01*
X157748D01*
X144976Y-77248D02*
X148248D01*
X144476Y-76748D02*
X144976Y-77248D01*
X144476Y-82748D02*
Y-76748D01*
X154248Y-73248D02*
X158520D01*
X153248Y-55748D02*
X159020D01*
D48*
X152748Y-142248D02*
X153200Y-142700D01*
Y-144439D02*
X155158Y-146398D01*
X158926D01*
X153200Y-144439D02*
Y-142700D01*
X158926Y-146398D02*
X158926Y-146398D01*
X159248D01*
M02*
