G04*
G04 #@! TF.GenerationSoftware,Altium Limited,Altium Designer,22.4.2 (48)*
G04*
G04 Layer_Physical_Order=4*
G04 Layer_Color=16711680*
%FSLAX25Y25*%
%MOIN*%
G70*
G04*
G04 #@! TF.SameCoordinates,D9425D36-0AFB-4970-BFF6-08718D8895E8*
G04*
G04*
G04 #@! TF.FilePolarity,Positive*
G04*
G01*
G75*
%ADD11C,0.01575*%
%ADD18O,0.02362X0.07480*%
%ADD19R,0.03543X0.03150*%
%ADD20R,0.03150X0.03543*%
%ADD26R,0.04528X0.07087*%
%ADD38C,0.00799*%
%ADD40C,0.01968*%
%ADD41C,0.05906*%
%ADD42R,0.05906X0.05906*%
%ADD43C,0.05512*%
%ADD44C,0.04780*%
%ADD45C,0.02756*%
%ADD46C,0.02362*%
%ADD47C,0.07874*%
%ADD48C,0.05118*%
%ADD50R,0.04331X0.02165*%
%ADD51R,0.04331X0.06693*%
G04:AMPARAMS|DCode=52|XSize=19.68mil|YSize=23.62mil|CornerRadius=4.92mil|HoleSize=0mil|Usage=FLASHONLY|Rotation=180.000|XOffset=0mil|YOffset=0mil|HoleType=Round|Shape=RoundedRectangle|*
%AMROUNDEDRECTD52*
21,1,0.01968,0.01378,0,0,180.0*
21,1,0.00984,0.02362,0,0,180.0*
1,1,0.00984,-0.00492,0.00689*
1,1,0.00984,0.00492,0.00689*
1,1,0.00984,0.00492,-0.00689*
1,1,0.00984,-0.00492,-0.00689*
%
%ADD52ROUNDEDRECTD52*%
G36*
X-45114Y103600D02*
X-45576Y103409D01*
X-45604Y103437D01*
X-46377Y103883D01*
X-47239Y104114D01*
X-48131D01*
X-48993Y103883D01*
X-49766Y103437D01*
X-50397Y102806D01*
X-50844Y102033D01*
X-51075Y101171D01*
Y100278D01*
X-50844Y99416D01*
X-50397Y98643D01*
X-49766Y98012D01*
X-48993Y97566D01*
X-48131Y97334D01*
X-47239D01*
X-46377Y97566D01*
X-45604Y98012D01*
X-45576Y98040D01*
X-45114Y97848D01*
Y83295D01*
X-50091D01*
Y83795D01*
X-50591D01*
Y87939D01*
X-52954D01*
X-53033Y88406D01*
Y111295D01*
X-45114D01*
Y103600D01*
D02*
G37*
G36*
X-114185D02*
X-114647Y103409D01*
X-114675Y103437D01*
X-115448Y103883D01*
X-116310Y104114D01*
X-117202D01*
X-118064Y103883D01*
X-118837Y103437D01*
X-119469Y102806D01*
X-119915Y102033D01*
X-120146Y101171D01*
Y100278D01*
X-119915Y99416D01*
X-119469Y98643D01*
X-118837Y98012D01*
X-118064Y97566D01*
X-117202Y97334D01*
X-116310D01*
X-115448Y97566D01*
X-114675Y98012D01*
X-114647Y98040D01*
X-114185Y97848D01*
Y83295D01*
X-119091D01*
Y83795D01*
X-119591D01*
Y87939D01*
X-121685D01*
Y111795D01*
X-114185D01*
Y103600D01*
D02*
G37*
G36*
X-35185Y88343D02*
X-35416Y87939D01*
X-37780D01*
Y83795D01*
X-38280D01*
Y83295D01*
X-41143D01*
Y82795D01*
X-43114D01*
Y97799D01*
X-42614Y97965D01*
X-41922Y97566D01*
X-41060Y97334D01*
X-40168D01*
X-39306Y97566D01*
X-38533Y98012D01*
X-37901Y98643D01*
X-37455Y99416D01*
X-37224Y100278D01*
Y101171D01*
X-37455Y102033D01*
X-37901Y102806D01*
X-38533Y103437D01*
X-39306Y103883D01*
X-40168Y104114D01*
X-41060D01*
X-41922Y103883D01*
X-42614Y103484D01*
X-43114Y103650D01*
Y106295D01*
Y111295D01*
X-35185D01*
Y88343D01*
D02*
G37*
G36*
X-104685Y87939D02*
X-106780D01*
Y83795D01*
X-107280D01*
Y83295D01*
X-112185D01*
Y97799D01*
X-111685Y97965D01*
X-110993Y97566D01*
X-110131Y97334D01*
X-109239D01*
X-108377Y97566D01*
X-107604Y98012D01*
X-106973Y98643D01*
X-106526Y99416D01*
X-106295Y100278D01*
Y101171D01*
X-106526Y102033D01*
X-106973Y102806D01*
X-107604Y103437D01*
X-108377Y103883D01*
X-109239Y104114D01*
X-110131D01*
X-110993Y103883D01*
X-111685Y103484D01*
X-112185Y103650D01*
Y106795D01*
Y111795D01*
X-104685D01*
Y87939D01*
D02*
G37*
G36*
X1732Y158911D02*
X3552Y158157D01*
X5190Y157063D01*
X6583Y155670D01*
X7677Y154032D01*
X8431Y152212D01*
X8815Y150280D01*
Y149295D01*
Y26295D01*
Y25310D01*
X8431Y23378D01*
X7677Y21558D01*
X6583Y19921D01*
X5190Y18528D01*
X3552Y17433D01*
X1732Y16680D01*
X-200Y16295D01*
X-60454D01*
X-60646Y16757D01*
X-48179Y29224D01*
X-47824Y29577D01*
X-47824Y29577D01*
X-46619Y30988D01*
X-45650Y32570D01*
X-44940Y34284D01*
X-44507Y36088D01*
X-44361Y37937D01*
X-44363D01*
Y40999D01*
X-43872Y41062D01*
X-43477Y39760D01*
X-42836Y38560D01*
X-41983Y37520D01*
X-41974Y37507D01*
X-41984Y37496D01*
X-40412Y36206D01*
X-38619Y35247D01*
X-36673Y34657D01*
X-34650Y34458D01*
Y34473D01*
X-21242D01*
X-21033Y34110D01*
X-20370Y33447D01*
X-19559Y32979D01*
X-18654Y32736D01*
X-17717D01*
X-16811Y32979D01*
X-16000Y33447D01*
X-15337Y34110D01*
X-14868Y34922D01*
X-14626Y35827D01*
Y36764D01*
X-14868Y37669D01*
X-15337Y38481D01*
X-16000Y39143D01*
X-16811Y39612D01*
X-17717Y39854D01*
X-18654D01*
X-19559Y39612D01*
X-20370Y39143D01*
X-21033Y38481D01*
X-21242Y38118D01*
X-34650D01*
X-34704Y38107D01*
X-35962Y38231D01*
X-37225Y38614D01*
X-38388Y39236D01*
X-39365Y40038D01*
X-39396Y40084D01*
X-39428Y40105D01*
X-39931Y40761D01*
X-39980Y40879D01*
X-39702Y41295D01*
X-33976D01*
X-33976Y41295D01*
X-33825D01*
X-33678Y41266D01*
X-33206D01*
X-33185Y41264D01*
Y41266D01*
X-21685D01*
Y41264D01*
X-21664Y41266D01*
X-21193D01*
X-21045Y41295D01*
X-20894D01*
X-20432Y41387D01*
X-20411Y41389D01*
X-20391Y41395D01*
X-19928Y41487D01*
X-19789Y41545D01*
X-19641Y41574D01*
X-19206Y41755D01*
X-19186Y41761D01*
X-19167Y41771D01*
X-18731Y41951D01*
X-18606Y42035D01*
X-18467Y42093D01*
X-18075Y42355D01*
X-18056Y42365D01*
X-18040Y42378D01*
X-17648Y42640D01*
X-17542Y42746D01*
X-17416Y42830D01*
X-17083Y43164D01*
X-17067Y43177D01*
X-17053Y43193D01*
X-16720Y43527D01*
X-16636Y43652D01*
X-16530Y43758D01*
X-16268Y44150D01*
X-16254Y44167D01*
X-16244Y44185D01*
X-15982Y44577D01*
X-15925Y44716D01*
X-15841Y44842D01*
X-15661Y45277D01*
X-15651Y45296D01*
X-15645Y45316D01*
X-15464Y45752D01*
X-15435Y45899D01*
X-15377Y46038D01*
X-15285Y46501D01*
X-15279Y46521D01*
X-15277Y46542D01*
X-15185Y47005D01*
Y47155D01*
X-15156Y47303D01*
Y47774D01*
X-15154Y47795D01*
X-15156D01*
Y103295D01*
Y126795D01*
X-15154D01*
X-15156Y126816D01*
Y127288D01*
X-15185Y127436D01*
Y127586D01*
X-15277Y128049D01*
X-15279Y128069D01*
X-15285Y128090D01*
X-15377Y128552D01*
X-15435Y128691D01*
X-15464Y128839D01*
X-15645Y129275D01*
X-15651Y129295D01*
X-15661Y129313D01*
X-15841Y129749D01*
X-15925Y129874D01*
X-15982Y130013D01*
X-16244Y130405D01*
X-16254Y130424D01*
X-16268Y130440D01*
X-16530Y130832D01*
X-16636Y130939D01*
X-16720Y131064D01*
X-17053Y131397D01*
X-17067Y131414D01*
X-17083Y131427D01*
X-17416Y131761D01*
X-17541Y131844D01*
X-17648Y131951D01*
X-18040Y132213D01*
X-18056Y132226D01*
X-18075Y132236D01*
X-18467Y132498D01*
X-18606Y132555D01*
X-18731Y132639D01*
X-19167Y132820D01*
X-19186Y132829D01*
X-19206Y132836D01*
X-19641Y133016D01*
X-19789Y133045D01*
X-19928Y133103D01*
X-20391Y133195D01*
X-20411Y133201D01*
X-20432Y133203D01*
X-20894Y133295D01*
X-21045D01*
X-21193Y133325D01*
X-21664D01*
X-21685Y133327D01*
Y133325D01*
X-67685D01*
Y133327D01*
X-67706Y133325D01*
X-68177D01*
X-68325Y133295D01*
X-68476D01*
X-68938Y133203D01*
X-68959Y133201D01*
X-68979Y133195D01*
X-69442Y133103D01*
X-69581Y133045D01*
X-69729Y133016D01*
X-70164Y132836D01*
X-70184Y132829D01*
X-70203Y132820D01*
X-70639Y132639D01*
X-70764Y132555D01*
X-70903Y132498D01*
X-71295Y132236D01*
X-71314Y132226D01*
X-71330Y132213D01*
X-71722Y131951D01*
X-71829Y131844D01*
X-71954Y131761D01*
X-72287Y131427D01*
X-72303Y131414D01*
X-72317Y131397D01*
X-72650Y131064D01*
X-72734Y130939D01*
X-72840Y130832D01*
X-73102Y130440D01*
X-73116Y130424D01*
X-73126Y130405D01*
X-73388Y130013D01*
X-73445Y129874D01*
X-73529Y129749D01*
X-73709Y129313D01*
X-73719Y129295D01*
X-73725Y129275D01*
X-73906Y128839D01*
X-73935Y128691D01*
X-73993Y128552D01*
X-74085Y128090D01*
X-74091Y128069D01*
X-74093Y128049D01*
X-74185Y127586D01*
Y127435D01*
X-74214Y127288D01*
Y126816D01*
X-74217Y126795D01*
X-74214D01*
Y47795D01*
X-74217D01*
X-74214Y47774D01*
Y47303D01*
X-74185Y47155D01*
Y47005D01*
X-74093Y46542D01*
X-74091Y46521D01*
X-74085Y46501D01*
X-73993Y46038D01*
X-73935Y45899D01*
X-73906Y45752D01*
X-73725Y45316D01*
X-73719Y45296D01*
X-73709Y45277D01*
X-73529Y44842D01*
X-73445Y44716D01*
X-73388Y44577D01*
X-73126Y44185D01*
X-73116Y44167D01*
X-73102Y44150D01*
X-72840Y43758D01*
X-72734Y43652D01*
X-72650Y43527D01*
X-72317Y43193D01*
X-72303Y43177D01*
X-72287Y43164D01*
X-71954Y42830D01*
X-71829Y42746D01*
X-71722Y42640D01*
X-71330Y42378D01*
X-71314Y42365D01*
X-71295Y42355D01*
X-70903Y42093D01*
X-70764Y42035D01*
X-70639Y41951D01*
X-70203Y41771D01*
X-70184Y41761D01*
X-70165Y41755D01*
X-69729Y41574D01*
X-69581Y41545D01*
X-69442Y41487D01*
X-68979Y41395D01*
X-68959Y41389D01*
X-68938Y41387D01*
X-68476Y41295D01*
X-68325D01*
X-68177Y41266D01*
X-67706D01*
X-67685Y41264D01*
Y41266D01*
X-56185D01*
Y41264D01*
X-56164Y41266D01*
X-55693D01*
X-55545Y41295D01*
X-48008D01*
Y37937D01*
X-47992Y37859D01*
X-48142Y36338D01*
X-48608Y34799D01*
X-49366Y33381D01*
X-50074Y32519D01*
X-50403Y32155D01*
X-50403Y32155D01*
X-66262Y16295D01*
X-98608D01*
X-106695Y24382D01*
X-106694Y24383D01*
X-108096Y25580D01*
X-109667Y26543D01*
X-111370Y27249D01*
X-113162Y27679D01*
X-115000Y27824D01*
Y27822D01*
X-116672D01*
X-116753Y27806D01*
X-117974Y27967D01*
X-119188Y28470D01*
X-119843Y28972D01*
X-120211Y29289D01*
X-120408Y29485D01*
X-120438Y29506D01*
X-120936Y30154D01*
X-121263Y30943D01*
X-121370Y31754D01*
X-121363Y31790D01*
X-121375Y31853D01*
X-121242Y33199D01*
X-120832Y34553D01*
X-120164Y35802D01*
X-119577Y36517D01*
X-119253Y36882D01*
X-118900Y37236D01*
X-117179Y38957D01*
X-116824Y39309D01*
X-116824Y39309D01*
X-115619Y40720D01*
X-115267Y41295D01*
X-112489D01*
X-112461Y41178D01*
X-111792Y39562D01*
X-110877Y38070D01*
X-109741Y36739D01*
X-108411Y35603D01*
X-106919Y34689D01*
X-106724Y34608D01*
X-106821Y34118D01*
X-116145D01*
X-116338Y34311D01*
X-117212Y34673D01*
X-118158D01*
X-119032Y34311D01*
X-119701Y33642D01*
X-120063Y32768D01*
Y31822D01*
X-119701Y30948D01*
X-119032Y30279D01*
X-118158Y29917D01*
X-117212D01*
X-116338Y30279D01*
X-116145Y30473D01*
X-85130D01*
Y30472D01*
X-83688Y30614D01*
X-82302Y31035D01*
X-81025Y31718D01*
X-79905Y32637D01*
X-79905Y32637D01*
X-79619Y32987D01*
X-79604Y33012D01*
X-79460Y33247D01*
X-78650Y34569D01*
X-77940Y36284D01*
X-77507Y38088D01*
X-77361Y39937D01*
X-77363D01*
Y47465D01*
X-76413D01*
Y52476D01*
X-76413Y52614D01*
Y52976D01*
X-76413Y53114D01*
Y58126D01*
X-76803D01*
X-76868Y58183D01*
X-77096Y58626D01*
X-76807Y59322D01*
Y60268D01*
X-77169Y61142D01*
X-77838Y61811D01*
X-78712Y62173D01*
X-79658D01*
X-80532Y61811D01*
X-81201Y61142D01*
X-81563Y60268D01*
Y59322D01*
X-81275Y58626D01*
X-81503Y58183D01*
X-81568Y58126D01*
X-81957D01*
Y53114D01*
X-81957Y52976D01*
Y52614D01*
X-81957Y52476D01*
Y47465D01*
X-81007D01*
Y39937D01*
X-80992Y39859D01*
X-81142Y38337D01*
X-81608Y36799D01*
X-82366Y35381D01*
X-82583Y35118D01*
X-83250Y34606D01*
X-84157Y34230D01*
X-84916Y34130D01*
X-85079Y34613D01*
X-84500Y34947D01*
X-83837Y35610D01*
X-83368Y36421D01*
X-83126Y37327D01*
Y38264D01*
X-83368Y39169D01*
X-83837Y39981D01*
X-84500Y40643D01*
X-85311Y41112D01*
X-86216Y41354D01*
X-87154D01*
X-88059Y41112D01*
X-88870Y40643D01*
X-89533Y39981D01*
X-90001Y39169D01*
X-90244Y38264D01*
Y37327D01*
X-90404Y37118D01*
X-101857D01*
X-101924Y37104D01*
X-103325Y37242D01*
X-104737Y37670D01*
X-106038Y38366D01*
X-107178Y39302D01*
X-108114Y40442D01*
X-108341Y40866D01*
X-108084Y41295D01*
X-102976D01*
X-102976Y41295D01*
X-102825D01*
X-102678Y41266D01*
X-102206D01*
X-102185Y41264D01*
Y41266D01*
X-90685D01*
Y41264D01*
X-90664Y41266D01*
X-90193D01*
X-90045Y41295D01*
X-89894D01*
X-89432Y41387D01*
X-89411Y41389D01*
X-89391Y41395D01*
X-88928Y41487D01*
X-88789Y41545D01*
X-88641Y41574D01*
X-88206Y41755D01*
X-88186Y41761D01*
X-88167Y41771D01*
X-87731Y41951D01*
X-87606Y42035D01*
X-87467Y42093D01*
X-87075Y42355D01*
X-87056Y42365D01*
X-87040Y42378D01*
X-86648Y42640D01*
X-86542Y42746D01*
X-86416Y42830D01*
X-86083Y43164D01*
X-86067Y43177D01*
X-86053Y43193D01*
X-85720Y43527D01*
X-85636Y43652D01*
X-85530Y43758D01*
X-85268Y44150D01*
X-85254Y44167D01*
X-85244Y44185D01*
X-84983Y44577D01*
X-84925Y44716D01*
X-84841Y44842D01*
X-84661Y45277D01*
X-84651Y45296D01*
X-84645Y45316D01*
X-84464Y45752D01*
X-84435Y45899D01*
X-84377Y46038D01*
X-84285Y46501D01*
X-84279Y46521D01*
X-84277Y46542D01*
X-84185Y47005D01*
Y47155D01*
X-84156Y47303D01*
Y47774D01*
X-84154Y47795D01*
X-84156D01*
Y126795D01*
X-84154D01*
X-84156Y126816D01*
Y127288D01*
X-84185Y127436D01*
Y127586D01*
X-84277Y128049D01*
X-84279Y128069D01*
X-84285Y128090D01*
X-84377Y128552D01*
X-84435Y128691D01*
X-84464Y128839D01*
X-84645Y129275D01*
X-84651Y129295D01*
X-84661Y129313D01*
X-84841Y129749D01*
X-84925Y129874D01*
X-84983Y130013D01*
X-85244Y130405D01*
X-85254Y130424D01*
X-85268Y130440D01*
X-85530Y130832D01*
X-85636Y130939D01*
X-85720Y131064D01*
X-86053Y131397D01*
X-86067Y131414D01*
X-86083Y131427D01*
X-86416Y131761D01*
X-86541Y131844D01*
X-86648Y131951D01*
X-87040Y132213D01*
X-87056Y132226D01*
X-87075Y132236D01*
X-87467Y132498D01*
X-87606Y132555D01*
X-87731Y132639D01*
X-88167Y132820D01*
X-88186Y132829D01*
X-88206Y132836D01*
X-88641Y133016D01*
X-88789Y133045D01*
X-88928Y133103D01*
X-89391Y133195D01*
X-89411Y133201D01*
X-89432Y133203D01*
X-89894Y133295D01*
X-90045D01*
X-90193Y133325D01*
X-90664D01*
X-90685Y133327D01*
Y133325D01*
X-136685D01*
Y133327D01*
X-136706Y133325D01*
X-137178D01*
X-137325Y133295D01*
X-137476D01*
X-137938Y133203D01*
X-137959Y133201D01*
X-137979Y133195D01*
X-138442Y133103D01*
X-138581Y133045D01*
X-138729Y133016D01*
X-139164Y132836D01*
X-139184Y132829D01*
X-139203Y132820D01*
X-139639Y132639D01*
X-139764Y132555D01*
X-139903Y132498D01*
X-140295Y132236D01*
X-140314Y132226D01*
X-140330Y132213D01*
X-140722Y131951D01*
X-140829Y131844D01*
X-140954Y131761D01*
X-141287Y131427D01*
X-141304Y131414D01*
X-141317Y131397D01*
X-141650Y131064D01*
X-141734Y130939D01*
X-141840Y130832D01*
X-142102Y130440D01*
X-142116Y130424D01*
X-142126Y130405D01*
X-142388Y130013D01*
X-142445Y129874D01*
X-142529Y129749D01*
X-142709Y129313D01*
X-142719Y129295D01*
X-142725Y129275D01*
X-142906Y128839D01*
X-142935Y128691D01*
X-142993Y128552D01*
X-143085Y128090D01*
X-143091Y128069D01*
X-143093Y128049D01*
X-143185Y127586D01*
Y127435D01*
X-143214Y127288D01*
Y126816D01*
X-143217Y126795D01*
X-143214D01*
Y47795D01*
X-143217D01*
X-143214Y47774D01*
Y47303D01*
X-143185Y47155D01*
Y47005D01*
X-143093Y46542D01*
X-143091Y46521D01*
X-143085Y46501D01*
X-142993Y46038D01*
X-142935Y45899D01*
X-142906Y45752D01*
X-142725Y45316D01*
X-142719Y45296D01*
X-142709Y45277D01*
X-142529Y44842D01*
X-142445Y44716D01*
X-142388Y44577D01*
X-142126Y44185D01*
X-142116Y44167D01*
X-142102Y44150D01*
X-141840Y43758D01*
X-141734Y43652D01*
X-141650Y43527D01*
X-141317Y43193D01*
X-141304Y43177D01*
X-141287Y43164D01*
X-140954Y42830D01*
X-140829Y42746D01*
X-140722Y42640D01*
X-140330Y42378D01*
X-140314Y42365D01*
X-140295Y42355D01*
X-139903Y42093D01*
X-139764Y42035D01*
X-139639Y41951D01*
X-139203Y41771D01*
X-139184Y41761D01*
X-139164Y41755D01*
X-138729Y41574D01*
X-138581Y41545D01*
X-138442Y41487D01*
X-137979Y41395D01*
X-137959Y41389D01*
X-137938Y41387D01*
X-137476Y41295D01*
X-137325D01*
X-137178Y41266D01*
X-136706D01*
X-136685Y41264D01*
Y41266D01*
X-125185D01*
Y41264D01*
X-125164Y41266D01*
X-124693D01*
X-124545Y41295D01*
X-120648D01*
X-120457Y40833D01*
X-121830Y39460D01*
X-121838Y39449D01*
X-122935Y38165D01*
X-123824Y36714D01*
X-124475Y35141D01*
X-124872Y33487D01*
X-125005Y31803D01*
X-125007Y31790D01*
X-125004Y31772D01*
X-124873Y30443D01*
X-124480Y29149D01*
X-123842Y27955D01*
X-122995Y26923D01*
X-122985Y26908D01*
Y26908D01*
X-122793Y26707D01*
X-122626Y26569D01*
X-121481Y25630D01*
X-119985Y24830D01*
X-118361Y24337D01*
X-116672Y24171D01*
Y24178D01*
X-115000D01*
X-114923Y24193D01*
X-113415Y24045D01*
X-111891Y23582D01*
X-110487Y22831D01*
X-109316Y21870D01*
X-109272Y21805D01*
X-104224Y16757D01*
X-104416Y16295D01*
X-157670D01*
X-159602Y16680D01*
X-161422Y17433D01*
X-163060Y18528D01*
X-164453Y19921D01*
X-165547Y21558D01*
X-166301Y23378D01*
X-166685Y25310D01*
Y26295D01*
Y47295D01*
X-166185Y136295D01*
Y149295D01*
Y150280D01*
X-165801Y152212D01*
X-165047Y154032D01*
X-163953Y155670D01*
X-162560Y157063D01*
X-160922Y158157D01*
X-159102Y158911D01*
X-157170Y159295D01*
X-200D01*
X1732Y158911D01*
D02*
G37*
G36*
X-111200Y12800D02*
Y7285D01*
X-133992D01*
Y7287D01*
X-134013Y7285D01*
X-134485D01*
X-134632Y7256D01*
X-134783D01*
X-135245Y7164D01*
X-135266Y7162D01*
X-135286Y7156D01*
X-135749Y7064D01*
X-135888Y7006D01*
X-136036Y6977D01*
X-136471Y6796D01*
X-136492Y6790D01*
X-136510Y6780D01*
X-136946Y6600D01*
X-137071Y6516D01*
X-137210Y6459D01*
X-137602Y6196D01*
X-137621Y6187D01*
X-137637Y6173D01*
X-138029Y5911D01*
X-138136Y5805D01*
X-138261Y5721D01*
X-138594Y5388D01*
X-138611Y5374D01*
X-138624Y5358D01*
X-138957Y5025D01*
X-139041Y4899D01*
X-139147Y4793D01*
X-139409Y4401D01*
X-139423Y4385D01*
X-139433Y4366D01*
X-139695Y3974D01*
X-139752Y3835D01*
X-139836Y3710D01*
X-140016Y3274D01*
X-140026Y3255D01*
X-140032Y3235D01*
X-140213Y2800D01*
X-140242Y2652D01*
X-140300Y2513D01*
X-140392Y2050D01*
X-140398Y2030D01*
X-140400Y2009D01*
X-140492Y1547D01*
Y1396D01*
X-140522Y1248D01*
Y777D01*
X-140524Y756D01*
X-140522D01*
Y-7744D01*
Y-125500D01*
X-172599D01*
X-172783Y-125424D01*
X-172924Y-125283D01*
X-173000Y-125100D01*
Y-125000D01*
Y3000D01*
Y3985D01*
X-172616Y5917D01*
X-171862Y7737D01*
X-170767Y9375D01*
X-169375Y10768D01*
X-167737Y11862D01*
X-165917Y12616D01*
X-163985Y13000D01*
X-163000Y13000D01*
X-163000Y13000D01*
X-111200Y12800D01*
D02*
G37*
G36*
X-75378Y-4116D02*
X-73703D01*
Y-2244D01*
X-58207D01*
X-58098Y-2790D01*
X-57766Y-3286D01*
X-57270Y-3618D01*
X-56685Y-3734D01*
X-32530D01*
X-32359Y-3743D01*
X-31982Y-3792D01*
X-31487Y-3891D01*
X-30860Y-4151D01*
X-30439Y-4431D01*
X-30234Y-4589D01*
X-29877Y-4946D01*
X-29719Y-5152D01*
X-29438Y-5572D01*
X-29178Y-6199D01*
X-29079Y-6695D01*
X-29030Y-7071D01*
X-29021Y-7242D01*
Y-95244D01*
Y-151898D01*
X-29024Y-151898D01*
X-29022Y-151920D01*
X-28999Y-152035D01*
X-28998Y-152037D01*
X-28992Y-152068D01*
Y-152744D01*
X-78992D01*
Y-104744D01*
X-81724D01*
X-81992Y-104244D01*
X-81971Y-104214D01*
X-81887Y-103787D01*
Y-103598D01*
X-82370D01*
X-82476Y-103440D01*
X-82807Y-103219D01*
X-83197Y-103142D01*
X-83492D01*
X-83886D01*
X-84059Y-103176D01*
X-84233Y-103202D01*
X-84253Y-103215D01*
X-84276Y-103219D01*
X-84423Y-103317D01*
X-84574Y-103408D01*
X-84587Y-103427D01*
X-84607Y-103440D01*
X-84705Y-103587D01*
X-84713Y-103598D01*
X-85098D01*
Y-103787D01*
X-85013Y-104214D01*
X-84993Y-104244D01*
X-85171Y-104744D01*
X-89892D01*
X-89980Y-104727D01*
X-89992Y-104709D01*
Y-96264D01*
Y-95244D01*
X-129463D01*
Y-7242D01*
X-129454Y-7071D01*
X-129405Y-6695D01*
X-129306Y-6199D01*
X-129046Y-5572D01*
X-128766Y-5152D01*
X-128608Y-4946D01*
X-128251Y-4589D01*
X-128045Y-4431D01*
X-127625Y-4151D01*
X-126997Y-3891D01*
X-126502Y-3792D01*
X-126126Y-3743D01*
X-125954Y-3734D01*
X-124851D01*
X-124653Y-3774D01*
X-124646Y-3774D01*
Y-3774D01*
X-103724D01*
X-103724Y-3774D01*
X-103717Y-3774D01*
X-103445Y-3720D01*
X-103434Y-3717D01*
X-103132Y-3657D01*
X-103128Y-3656D01*
X-103124Y-3655D01*
X-103121Y-3653D01*
X-103117Y-3651D01*
X-103117Y-3651D01*
X-103117Y-3651D01*
X-102879Y-3492D01*
X-102621Y-3320D01*
X-102621Y-3320D01*
X-102621Y-3320D01*
X-102618Y-3317D01*
X-102615Y-3314D01*
X-102612Y-3311D01*
X-102610Y-3308D01*
X-102451Y-3071D01*
X-102278Y-2813D01*
X-102277Y-2809D01*
X-102274Y-2805D01*
X-102274Y-2802D01*
X-102272Y-2798D01*
X-102272Y-2798D01*
X-102272Y-2798D01*
X-102214Y-2504D01*
X-102162Y-2244D01*
X-88760D01*
X-88554Y-2744D01*
X-88878Y-3527D01*
Y-4473D01*
X-88516Y-5347D01*
X-87847Y-6016D01*
X-86973Y-6378D01*
X-86027D01*
X-85153Y-6016D01*
X-84484Y-5347D01*
X-84154Y-4551D01*
X-84114Y-4511D01*
X-83201D01*
X-83201Y-4511D01*
X-83025Y-4476D01*
X-79839D01*
Y-2244D01*
X-78053D01*
Y-4116D01*
X-76378D01*
Y-1744D01*
X-75378D01*
Y-4116D01*
D02*
G37*
G36*
X-83197Y-106327D02*
X-83984D01*
X-83886Y-104161D01*
X-83197D01*
Y-106327D01*
D02*
G37*
G36*
X12114Y13000D02*
X12114Y13000D01*
X12512Y12649D01*
X13229Y11867D01*
X13860Y11013D01*
X14396Y10098D01*
X14833Y9131D01*
X15164Y8123D01*
X15388Y7086D01*
X15500Y6030D01*
X15500Y5500D01*
X15500Y-124000D01*
X-17963D01*
Y-4205D01*
Y756D01*
X-17961D01*
X-17963Y777D01*
Y1248D01*
X-17992Y1396D01*
Y1547D01*
X-18084Y2009D01*
X-18086Y2030D01*
X-18092Y2050D01*
X-18184Y2513D01*
X-18242Y2652D01*
X-18271Y2800D01*
X-18452Y3235D01*
X-18458Y3255D01*
X-18468Y3274D01*
X-18648Y3710D01*
X-18732Y3835D01*
X-18789Y3974D01*
X-19051Y4366D01*
X-19061Y4385D01*
X-19075Y4401D01*
X-19337Y4793D01*
X-19443Y4899D01*
X-19527Y5025D01*
X-19860Y5358D01*
X-19874Y5374D01*
X-19890Y5388D01*
X-20223Y5721D01*
X-20349Y5805D01*
X-20455Y5911D01*
X-20847Y6173D01*
X-20864Y6187D01*
X-20882Y6196D01*
X-21274Y6459D01*
X-21413Y6516D01*
X-21539Y6600D01*
X-21974Y6780D01*
X-21993Y6790D01*
X-22013Y6796D01*
X-22448Y6977D01*
X-22596Y7006D01*
X-22735Y7064D01*
X-23198Y7156D01*
X-23218Y7162D01*
X-23239Y7164D01*
X-23701Y7256D01*
X-23852D01*
X-24000Y7285D01*
X-24471D01*
X-24492Y7287D01*
Y7285D01*
X-54000D01*
Y13000D01*
X11647D01*
X12114Y13000D01*
D02*
G37*
G36*
X-91012Y-104744D02*
X-90992Y-104843D01*
Y-105244D01*
X-90861D01*
X-90713Y-105465D01*
X-90382Y-105686D01*
X-89992Y-105764D01*
X-85480D01*
X-85014Y-106178D01*
X-85000Y-106216D01*
X-85002Y-106258D01*
X-85013Y-106275D01*
X-85098Y-106701D01*
Y-106890D01*
X-84813D01*
X-84737Y-107014D01*
X-84718Y-107028D01*
X-84705Y-107048D01*
X-84559Y-107146D01*
X-84417Y-107250D01*
X-84394Y-107256D01*
X-84374Y-107269D01*
X-84202Y-107303D01*
X-84031Y-107345D01*
X-84007Y-107342D01*
X-83984Y-107347D01*
X-83492D01*
X-83197D01*
X-82807Y-107269D01*
X-82476Y-107048D01*
X-82370Y-106890D01*
X-81887D01*
Y-106701D01*
X-81971Y-106275D01*
X-82005Y-106224D01*
X-81971Y-106097D01*
X-81758Y-105809D01*
X-81711Y-105764D01*
X-80012D01*
Y-152744D01*
X-129168D01*
X-129485Y-152358D01*
X-129463Y-152244D01*
Y-96264D01*
X-91012D01*
Y-104744D01*
D02*
G37*
%LPC*%
G36*
X-49591Y87939D02*
Y84295D01*
X-47227D01*
Y87939D01*
X-49591D01*
D02*
G37*
G36*
X-116227D02*
X-118591D01*
Y84295D01*
X-116227D01*
Y87939D01*
D02*
G37*
G36*
X-38780D02*
X-41143D01*
Y84295D01*
X-38780D01*
Y87939D01*
D02*
G37*
G36*
X-107780D02*
X-110143D01*
Y84295D01*
X-107780D01*
Y87939D01*
D02*
G37*
G36*
X-4371Y155592D02*
X-5999D01*
X-6147Y155563D01*
X-6298D01*
X-7895Y155245D01*
X-8034Y155188D01*
X-8182Y155158D01*
X-9686Y154535D01*
X-9812Y154451D01*
X-9951Y154394D01*
X-11305Y153489D01*
X-11412Y153382D01*
X-11537Y153299D01*
X-12688Y152147D01*
X-12772Y152022D01*
X-12879Y151915D01*
X-13783Y150561D01*
X-13841Y150422D01*
X-13925Y150297D01*
X-14548Y148792D01*
X-14577Y148644D01*
X-14635Y148505D01*
X-14953Y146908D01*
Y146757D01*
X-14982Y146610D01*
Y144981D01*
X-14953Y144833D01*
Y144683D01*
X-14635Y143085D01*
X-14577Y142946D01*
X-14548Y142798D01*
X-13925Y141294D01*
X-13841Y141168D01*
X-13783Y141029D01*
X-12879Y139675D01*
X-12772Y139569D01*
X-12688Y139444D01*
X-11537Y138292D01*
X-11412Y138208D01*
X-11305Y138102D01*
X-9951Y137197D01*
X-9812Y137139D01*
X-9686Y137056D01*
X-8182Y136432D01*
X-8034Y136403D01*
X-7895Y136345D01*
X-6298Y136028D01*
X-6147D01*
X-5999Y135998D01*
X-4371D01*
X-4223Y136028D01*
X-4072D01*
X-2475Y136345D01*
X-2336Y136403D01*
X-2188Y136432D01*
X-684Y137056D01*
X-558Y137139D01*
X-419Y137197D01*
X935Y138102D01*
X1041Y138208D01*
X1167Y138292D01*
X2318Y139444D01*
X2402Y139569D01*
X2509Y139675D01*
X3413Y141029D01*
X3471Y141168D01*
X3555Y141294D01*
X4178Y142798D01*
X4207Y142946D01*
X4265Y143085D01*
X4583Y144683D01*
Y144833D01*
X4612Y144981D01*
Y146610D01*
X4583Y146757D01*
Y146908D01*
X4265Y148505D01*
X4207Y148644D01*
X4178Y148792D01*
X3555Y150297D01*
X3471Y150422D01*
X3413Y150561D01*
X2509Y151915D01*
X2402Y152022D01*
X2318Y152147D01*
X1167Y153299D01*
X1041Y153382D01*
X935Y153489D01*
X-419Y154394D01*
X-558Y154451D01*
X-684Y154535D01*
X-2188Y155158D01*
X-2336Y155188D01*
X-2475Y155245D01*
X-4072Y155563D01*
X-4223D01*
X-4371Y155592D01*
D02*
G37*
G36*
X-152371D02*
X-153999D01*
X-154147Y155563D01*
X-154298D01*
X-155895Y155245D01*
X-156034Y155188D01*
X-156182Y155158D01*
X-157687Y154535D01*
X-157812Y154451D01*
X-157951Y154394D01*
X-159305Y153489D01*
X-159412Y153382D01*
X-159537Y153299D01*
X-160688Y152147D01*
X-160772Y152022D01*
X-160879Y151915D01*
X-161783Y150561D01*
X-161841Y150422D01*
X-161925Y150297D01*
X-162548Y148792D01*
X-162577Y148644D01*
X-162635Y148505D01*
X-162953Y146908D01*
Y146757D01*
X-162982Y146610D01*
Y144981D01*
X-162953Y144833D01*
Y144683D01*
X-162635Y143085D01*
X-162577Y142946D01*
X-162548Y142798D01*
X-161925Y141294D01*
X-161841Y141168D01*
X-161783Y141029D01*
X-160879Y139675D01*
X-160772Y139569D01*
X-160688Y139444D01*
X-159537Y138292D01*
X-159412Y138208D01*
X-159305Y138102D01*
X-157951Y137197D01*
X-157812Y137139D01*
X-157687Y137056D01*
X-156182Y136432D01*
X-156034Y136403D01*
X-155895Y136345D01*
X-154298Y136028D01*
X-154147D01*
X-153999Y135998D01*
X-152371D01*
X-152223Y136028D01*
X-152072D01*
X-150475Y136345D01*
X-150336Y136403D01*
X-150188Y136432D01*
X-148684Y137056D01*
X-148558Y137139D01*
X-148419Y137197D01*
X-147065Y138102D01*
X-146958Y138208D01*
X-146833Y138292D01*
X-145682Y139444D01*
X-145598Y139569D01*
X-145492Y139675D01*
X-144587Y141029D01*
X-144529Y141168D01*
X-144445Y141294D01*
X-143822Y142798D01*
X-143793Y142946D01*
X-143735Y143085D01*
X-143417Y144683D01*
Y144833D01*
X-143388Y144981D01*
Y146610D01*
X-143417Y146757D01*
Y146908D01*
X-143735Y148505D01*
X-143793Y148644D01*
X-143822Y148792D01*
X-144445Y150297D01*
X-144529Y150422D01*
X-144587Y150561D01*
X-145492Y151915D01*
X-145598Y152022D01*
X-145682Y152147D01*
X-146833Y153299D01*
X-146958Y153382D01*
X-147065Y153489D01*
X-148419Y154394D01*
X-148558Y154451D01*
X-148684Y154535D01*
X-150188Y155158D01*
X-150336Y155188D01*
X-150475Y155245D01*
X-152072Y155563D01*
X-152223D01*
X-152371Y155592D01*
D02*
G37*
G36*
X-4371Y40592D02*
X-5999D01*
X-6147Y40563D01*
X-6298D01*
X-7895Y40245D01*
X-8034Y40188D01*
X-8182Y40158D01*
X-9686Y39535D01*
X-9812Y39451D01*
X-9951Y39394D01*
X-11305Y38489D01*
X-11412Y38382D01*
X-11537Y38299D01*
X-12688Y37147D01*
X-12772Y37022D01*
X-12879Y36915D01*
X-13783Y35561D01*
X-13841Y35422D01*
X-13925Y35297D01*
X-14548Y33792D01*
X-14577Y33644D01*
X-14635Y33505D01*
X-14953Y31908D01*
Y31757D01*
X-14982Y31610D01*
Y29981D01*
X-14953Y29833D01*
Y29683D01*
X-14635Y28085D01*
X-14577Y27946D01*
X-14548Y27798D01*
X-13925Y26294D01*
X-13841Y26169D01*
X-13783Y26029D01*
X-12879Y24675D01*
X-12772Y24569D01*
X-12688Y24443D01*
X-11537Y23292D01*
X-11412Y23208D01*
X-11305Y23102D01*
X-9951Y22197D01*
X-9812Y22139D01*
X-9686Y22055D01*
X-8182Y21432D01*
X-8034Y21403D01*
X-7895Y21345D01*
X-6298Y21028D01*
X-6147D01*
X-5999Y20998D01*
X-4371D01*
X-4223Y21028D01*
X-4072D01*
X-2475Y21345D01*
X-2336Y21403D01*
X-2188Y21432D01*
X-684Y22055D01*
X-558Y22139D01*
X-419Y22197D01*
X935Y23102D01*
X1041Y23208D01*
X1167Y23292D01*
X2318Y24443D01*
X2402Y24569D01*
X2509Y24675D01*
X3413Y26029D01*
X3471Y26169D01*
X3555Y26294D01*
X4178Y27798D01*
X4207Y27946D01*
X4265Y28085D01*
X4583Y29683D01*
Y29833D01*
X4612Y29981D01*
Y31610D01*
X4583Y31757D01*
Y31908D01*
X4265Y33505D01*
X4207Y33644D01*
X4178Y33792D01*
X3555Y35297D01*
X3471Y35422D01*
X3413Y35561D01*
X2509Y36915D01*
X2402Y37022D01*
X2318Y37147D01*
X1167Y38299D01*
X1041Y38382D01*
X935Y38489D01*
X-419Y39394D01*
X-558Y39451D01*
X-684Y39535D01*
X-2188Y40158D01*
X-2336Y40188D01*
X-2475Y40245D01*
X-4072Y40563D01*
X-4223D01*
X-4371Y40592D01*
D02*
G37*
G36*
X-152371D02*
X-153999D01*
X-154147Y40563D01*
X-154298D01*
X-155895Y40245D01*
X-156034Y40188D01*
X-156182Y40158D01*
X-157687Y39535D01*
X-157812Y39451D01*
X-157951Y39394D01*
X-159305Y38489D01*
X-159412Y38382D01*
X-159537Y38299D01*
X-160688Y37147D01*
X-160772Y37022D01*
X-160879Y36915D01*
X-161783Y35561D01*
X-161841Y35422D01*
X-161925Y35297D01*
X-162548Y33792D01*
X-162577Y33644D01*
X-162635Y33505D01*
X-162953Y31908D01*
Y31757D01*
X-162982Y31610D01*
Y29981D01*
X-162953Y29833D01*
Y29683D01*
X-162635Y28085D01*
X-162577Y27946D01*
X-162548Y27798D01*
X-161925Y26294D01*
X-161841Y26169D01*
X-161783Y26029D01*
X-160879Y24675D01*
X-160772Y24569D01*
X-160688Y24443D01*
X-159537Y23292D01*
X-159412Y23208D01*
X-159305Y23102D01*
X-157951Y22197D01*
X-157812Y22139D01*
X-157687Y22055D01*
X-156182Y21432D01*
X-156034Y21403D01*
X-155895Y21345D01*
X-154298Y21028D01*
X-154147D01*
X-153999Y20998D01*
X-152371D01*
X-152223Y21028D01*
X-152072D01*
X-150475Y21345D01*
X-150336Y21403D01*
X-150188Y21432D01*
X-148684Y22055D01*
X-148558Y22139D01*
X-148419Y22197D01*
X-147065Y23102D01*
X-146958Y23208D01*
X-146833Y23292D01*
X-145682Y24443D01*
X-145598Y24569D01*
X-145492Y24675D01*
X-144587Y26029D01*
X-144529Y26169D01*
X-144445Y26294D01*
X-143822Y27798D01*
X-143793Y27946D01*
X-143735Y28085D01*
X-143417Y29683D01*
Y29833D01*
X-143388Y29981D01*
Y31610D01*
X-143417Y31757D01*
Y31908D01*
X-143735Y33505D01*
X-143793Y33644D01*
X-143822Y33792D01*
X-144445Y35297D01*
X-144529Y35422D01*
X-144587Y35561D01*
X-145492Y36915D01*
X-145598Y37022D01*
X-145682Y37147D01*
X-146833Y38299D01*
X-146958Y38382D01*
X-147065Y38489D01*
X-148419Y39394D01*
X-148558Y39451D01*
X-148684Y39535D01*
X-150188Y40158D01*
X-150336Y40188D01*
X-150475Y40245D01*
X-152072Y40563D01*
X-152223D01*
X-152371Y40592D01*
D02*
G37*
G36*
X-156682Y9632D02*
X-158318D01*
X-158466Y9603D01*
X-158617D01*
X-160222Y9284D01*
X-160361Y9226D01*
X-160509Y9197D01*
X-162021Y8570D01*
X-162146Y8487D01*
X-162285Y8429D01*
X-163646Y7520D01*
X-163752Y7413D01*
X-163877Y7330D01*
X-165034Y6173D01*
X-165118Y6047D01*
X-165225Y5941D01*
X-166134Y4580D01*
X-166191Y4441D01*
X-166275Y4316D01*
X-166901Y2804D01*
X-166931Y2656D01*
X-166989Y2517D01*
X-167308Y912D01*
Y761D01*
X-167337Y613D01*
Y-205D01*
Y-1023D01*
X-167308Y-1171D01*
Y-1321D01*
X-166989Y-2926D01*
X-166931Y-3066D01*
X-166901Y-3213D01*
X-166275Y-4725D01*
X-166191Y-4850D01*
X-166134Y-4990D01*
X-165225Y-6350D01*
X-165118Y-6457D01*
X-165034Y-6582D01*
X-163877Y-7739D01*
X-163752Y-7823D01*
X-163646Y-7929D01*
X-162285Y-8839D01*
X-162146Y-8896D01*
X-162021Y-8980D01*
X-160509Y-9606D01*
X-160361Y-9635D01*
X-160222Y-9693D01*
X-158617Y-10012D01*
X-158466D01*
X-158318Y-10042D01*
X-156682D01*
X-156534Y-10012D01*
X-156383D01*
X-154778Y-9693D01*
X-154639Y-9635D01*
X-154491Y-9606D01*
X-152980Y-8980D01*
X-152854Y-8896D01*
X-152715Y-8839D01*
X-151354Y-7929D01*
X-151248Y-7823D01*
X-151123Y-7739D01*
X-149966Y-6582D01*
X-149882Y-6457D01*
X-149775Y-6350D01*
X-148866Y-4990D01*
X-148809Y-4850D01*
X-148725Y-4725D01*
X-148099Y-3213D01*
X-148069Y-3066D01*
X-148012Y-2926D01*
X-147692Y-1321D01*
Y-1171D01*
X-147663Y-1023D01*
Y-205D01*
Y613D01*
X-147692Y761D01*
Y912D01*
X-148012Y2517D01*
X-148069Y2656D01*
X-148099Y2804D01*
X-148725Y4316D01*
X-148809Y4441D01*
X-148866Y4580D01*
X-149775Y5941D01*
X-149882Y6047D01*
X-149966Y6173D01*
X-151123Y7330D01*
X-151248Y7413D01*
X-151354Y7520D01*
X-152715Y8429D01*
X-152854Y8487D01*
X-152980Y8570D01*
X-154491Y9197D01*
X-154639Y9226D01*
X-154778Y9284D01*
X-156383Y9603D01*
X-156534D01*
X-156682Y9632D01*
D02*
G37*
G36*
X-61221Y-11441D02*
X-66764D01*
Y-14013D01*
X-69946Y-17196D01*
X-71223D01*
X-72019Y-16866D01*
X-72965D01*
X-73839Y-17228D01*
X-74508Y-17897D01*
X-74778Y-18550D01*
X-75320D01*
X-75484Y-18153D01*
X-76153Y-17484D01*
X-77027Y-17122D01*
X-77973D01*
X-78847Y-17484D01*
X-79516Y-18153D01*
X-79878Y-19027D01*
Y-19301D01*
X-84289Y-23711D01*
X-84684Y-24303D01*
X-84822Y-25000D01*
X-84822Y-25000D01*
Y-32991D01*
X-85054Y-33338D01*
X-85224Y-34189D01*
Y-39307D01*
X-85054Y-40158D01*
X-84822Y-40505D01*
Y-41531D01*
X-84822Y-41531D01*
X-84684Y-42228D01*
X-84289Y-42820D01*
X-82820Y-44289D01*
X-82820Y-44289D01*
X-82228Y-44684D01*
X-81531Y-44822D01*
X-81531Y-44822D01*
X-74587D01*
X-74395Y-45284D01*
X-74508Y-45397D01*
X-74870Y-46271D01*
Y-47217D01*
X-74868Y-47223D01*
X-75103Y-47664D01*
X-75414Y-47726D01*
X-76005Y-48121D01*
X-76005Y-48121D01*
X-78441Y-50557D01*
X-78851Y-50638D01*
X-79572Y-51120D01*
X-80054Y-51842D01*
X-80224Y-52693D01*
Y-57811D01*
X-80054Y-58662D01*
X-79572Y-59383D01*
X-78851Y-59866D01*
X-78000Y-60035D01*
X-77149Y-59866D01*
X-76428Y-59383D01*
X-75946Y-58662D01*
X-75776Y-57811D01*
Y-53514D01*
X-75724Y-53479D01*
X-75224Y-53746D01*
Y-57811D01*
X-75055Y-58662D01*
X-74572Y-59383D01*
X-73851Y-59866D01*
X-73000Y-60035D01*
X-72149Y-59866D01*
X-71428Y-59383D01*
X-70946Y-58662D01*
X-70776Y-57811D01*
Y-52693D01*
X-70946Y-51842D01*
X-71058Y-51673D01*
X-70823Y-51232D01*
X-68410D01*
X-68410Y-51232D01*
X-67712Y-51093D01*
X-67121Y-50698D01*
X-63745Y-47322D01*
X-62653D01*
Y-47583D01*
X-56323D01*
Y-43582D01*
X-53756D01*
Y-43843D01*
X-47425D01*
Y-39677D01*
X-53756D01*
Y-39937D01*
X-67760D01*
X-67760Y-39937D01*
X-68457Y-40076D01*
X-69049Y-40471D01*
X-69049Y-40471D01*
X-69755Y-41178D01*
X-71042D01*
X-71293Y-40678D01*
X-70946Y-40158D01*
X-70776Y-39307D01*
Y-34189D01*
X-70946Y-33338D01*
X-71428Y-32616D01*
X-72149Y-32134D01*
X-73000Y-31965D01*
X-73851Y-32134D01*
X-74572Y-32616D01*
X-75055Y-33338D01*
X-75224Y-34189D01*
Y-39307D01*
X-75055Y-40158D01*
X-74708Y-40678D01*
X-74958Y-41178D01*
X-76042D01*
X-76293Y-40678D01*
X-75946Y-40158D01*
X-75776Y-39307D01*
Y-34189D01*
X-75946Y-33338D01*
X-76178Y-32991D01*
Y-31541D01*
X-75984Y-31347D01*
X-75622Y-30473D01*
Y-29527D01*
X-75984Y-28653D01*
X-76653Y-27984D01*
X-77527Y-27622D01*
X-78473D01*
X-79347Y-27984D01*
X-80016Y-28653D01*
X-80378Y-29527D01*
Y-30473D01*
X-80016Y-31347D01*
X-79822Y-31541D01*
Y-32991D01*
X-80054Y-33338D01*
X-80224Y-34189D01*
Y-39307D01*
X-80054Y-40158D01*
X-79707Y-40678D01*
X-79958Y-41178D01*
X-80776D01*
X-81178Y-40776D01*
Y-40505D01*
X-80945Y-40158D01*
X-80776Y-39307D01*
Y-34189D01*
X-80945Y-33338D01*
X-81178Y-32991D01*
Y-25755D01*
X-77301Y-21878D01*
X-77027D01*
X-76153Y-21516D01*
X-75484Y-20847D01*
X-75214Y-20194D01*
X-74673D01*
X-74508Y-20591D01*
X-73839Y-21260D01*
X-72965Y-21622D01*
X-72019D01*
X-71145Y-21260D01*
X-70726Y-20841D01*
X-69191D01*
X-69191Y-20841D01*
X-68494Y-20702D01*
X-67903Y-20307D01*
X-66865Y-19269D01*
X-66403Y-19460D01*
Y-20051D01*
X-64531D01*
Y-18376D01*
X-65319D01*
X-65510Y-17914D01*
X-64187Y-16590D01*
X-61221D01*
Y-11441D01*
D02*
G37*
G36*
X-61660Y-18376D02*
X-63532D01*
Y-20051D01*
X-61660D01*
Y-18376D01*
D02*
G37*
G36*
Y-21051D02*
X-63532D01*
Y-22726D01*
X-61660D01*
Y-21051D01*
D02*
G37*
G36*
X-64531D02*
X-66403D01*
Y-22726D01*
X-64531D01*
Y-21051D01*
D02*
G37*
G36*
X-96081Y-24762D02*
X-97953D01*
Y-26437D01*
X-96081D01*
Y-24762D01*
D02*
G37*
G36*
X-62581D02*
X-64453D01*
Y-26437D01*
X-62581D01*
Y-24762D01*
D02*
G37*
G36*
X-51081D02*
X-52953D01*
Y-26437D01*
X-51081D01*
Y-24762D01*
D02*
G37*
G36*
X-118581D02*
X-120453D01*
Y-26437D01*
X-118581D01*
Y-24762D01*
D02*
G37*
G36*
X-98953D02*
X-100824D01*
Y-26437D01*
X-98953D01*
Y-24762D01*
D02*
G37*
G36*
X-53953D02*
X-55824D01*
Y-26437D01*
X-53953D01*
Y-24762D01*
D02*
G37*
G36*
X-65453D02*
X-67324D01*
Y-26437D01*
X-65453D01*
Y-24762D01*
D02*
G37*
G36*
X-121453D02*
X-123324D01*
Y-26437D01*
X-121453D01*
Y-24762D01*
D02*
G37*
G36*
X-51081Y-27437D02*
X-52953D01*
Y-29112D01*
X-51081D01*
Y-27437D01*
D02*
G37*
G36*
X-53953D02*
X-55824D01*
Y-29112D01*
X-53953D01*
Y-27437D01*
D02*
G37*
G36*
X-62581D02*
X-64453D01*
Y-29112D01*
X-62581D01*
Y-27437D01*
D02*
G37*
G36*
X-65453D02*
X-67324D01*
Y-29112D01*
X-65453D01*
Y-27437D01*
D02*
G37*
G36*
X-96081D02*
X-97953D01*
Y-29112D01*
X-96081D01*
Y-27437D01*
D02*
G37*
G36*
X-98953D02*
X-100824D01*
Y-29112D01*
X-98953D01*
Y-27437D01*
D02*
G37*
G36*
X-118581D02*
X-120453D01*
Y-29112D01*
X-118581D01*
Y-27437D01*
D02*
G37*
G36*
X-121453D02*
X-123324D01*
Y-29112D01*
X-121453D01*
Y-27437D01*
D02*
G37*
G36*
X-50721Y-30898D02*
X-56264D01*
Y-31650D01*
X-62221D01*
Y-30898D01*
X-67764D01*
Y-36047D01*
X-62221D01*
Y-35295D01*
X-56264D01*
Y-36047D01*
X-55228D01*
X-54838Y-36438D01*
X-54508Y-37234D01*
X-53839Y-37903D01*
X-52965Y-38265D01*
X-52019D01*
X-51145Y-37903D01*
X-50476Y-37234D01*
X-50114Y-36360D01*
Y-35414D01*
X-50476Y-34540D01*
X-50721Y-34295D01*
Y-30898D01*
D02*
G37*
G36*
X-95720D02*
X-101264D01*
Y-36047D01*
X-99870D01*
Y-36360D01*
X-99508Y-37234D01*
X-98839Y-37903D01*
X-97965Y-38265D01*
X-97019D01*
X-96145Y-37903D01*
X-95476Y-37234D01*
X-95114Y-36360D01*
Y-35414D01*
X-95476Y-34540D01*
X-95720Y-34295D01*
Y-30898D01*
D02*
G37*
G36*
X-118220D02*
X-123764D01*
Y-36047D01*
X-122370D01*
Y-36360D01*
X-122008Y-37234D01*
X-121339Y-37903D01*
X-120465Y-38265D01*
X-119519D01*
X-118645Y-37903D01*
X-117976Y-37234D01*
X-117614Y-36360D01*
Y-35414D01*
X-117976Y-34540D01*
X-118220Y-34295D01*
Y-30898D01*
D02*
G37*
G36*
X-48022Y-47558D02*
X-50287D01*
Y-48740D01*
X-48022D01*
Y-47558D01*
D02*
G37*
G36*
X-51287D02*
X-53553D01*
Y-48740D01*
X-51287D01*
Y-47558D01*
D02*
G37*
G36*
X-48022Y-49740D02*
X-50287D01*
Y-50923D01*
X-48022D01*
Y-49740D01*
D02*
G37*
G36*
X-51287D02*
X-53553D01*
Y-50923D01*
X-51287D01*
Y-49740D01*
D02*
G37*
G36*
X-96066Y-51701D02*
X-96934D01*
X-97736Y-52033D01*
X-98349Y-52647D01*
X-98369Y-52694D01*
X-111443D01*
X-111627Y-52511D01*
X-112428Y-52179D01*
X-113296D01*
X-114098Y-52511D01*
X-114711Y-53124D01*
X-115043Y-53926D01*
Y-54794D01*
X-114711Y-55595D01*
X-114098Y-56209D01*
X-113296Y-56541D01*
X-112428D01*
X-111627Y-56209D01*
X-111013Y-55595D01*
X-110994Y-55548D01*
X-97919D01*
X-97736Y-55731D01*
X-96934Y-56063D01*
X-96066D01*
X-95265Y-55731D01*
X-94651Y-55118D01*
X-94319Y-54316D01*
Y-53448D01*
X-94651Y-52647D01*
X-95265Y-52033D01*
X-96066Y-51701D01*
D02*
G37*
G36*
X-87500Y-50976D02*
Y-54752D01*
X-86184D01*
Y-52693D01*
X-86322Y-51998D01*
X-86716Y-51409D01*
X-87305Y-51015D01*
X-87500Y-50976D01*
D02*
G37*
G36*
X-88500D02*
X-88695Y-51015D01*
X-89284Y-51409D01*
X-89678Y-51998D01*
X-89816Y-52693D01*
Y-54752D01*
X-88500D01*
Y-50976D01*
D02*
G37*
G36*
X-87027Y-13622D02*
X-87973D01*
X-88847Y-13984D01*
X-89516Y-14653D01*
X-89878Y-15527D01*
Y-16473D01*
X-89702Y-16897D01*
X-89822Y-17500D01*
X-89822Y-17500D01*
Y-27245D01*
X-93289Y-30711D01*
X-93684Y-31303D01*
X-93822Y-32000D01*
X-93822Y-32000D01*
Y-40000D01*
X-93822Y-40000D01*
X-93684Y-40697D01*
X-93289Y-41289D01*
X-84822Y-49755D01*
Y-51494D01*
X-85054Y-51842D01*
X-85224Y-52693D01*
Y-56644D01*
X-85268Y-56673D01*
X-85268Y-56673D01*
X-85722Y-57127D01*
X-86184Y-56936D01*
Y-55752D01*
X-89816D01*
Y-57811D01*
X-89678Y-58506D01*
X-89284Y-59095D01*
X-88752Y-59451D01*
X-88623Y-59726D01*
X-88553Y-59958D01*
X-91209Y-62614D01*
X-91244Y-62667D01*
X-92728Y-64151D01*
X-93228Y-63944D01*
Y-63669D01*
X-98772D01*
Y-63669D01*
X-99252Y-63623D01*
X-99316Y-63303D01*
X-99711Y-62711D01*
X-99711Y-62711D01*
X-101711Y-60711D01*
X-102303Y-60316D01*
X-103000Y-60178D01*
X-103000Y-60178D01*
X-106928D01*
X-106928Y-60178D01*
X-107626Y-60316D01*
X-108217Y-60711D01*
X-108217Y-60711D01*
X-108872Y-61366D01*
X-109465D01*
X-110339Y-61728D01*
X-111008Y-62397D01*
X-111370Y-63271D01*
Y-64217D01*
X-111008Y-65091D01*
X-110339Y-65760D01*
X-109465Y-66122D01*
X-108764D01*
Y-68590D01*
X-103220D01*
Y-67514D01*
X-102720Y-67465D01*
X-102684Y-67650D01*
X-102289Y-68241D01*
X-98772Y-71758D01*
Y-74331D01*
X-93228D01*
Y-69319D01*
X-93228Y-69181D01*
X-93228D01*
Y-68819D01*
X-93228D01*
Y-68067D01*
X-92244D01*
X-92244Y-68067D01*
X-91547Y-67928D01*
X-90955Y-67533D01*
X-89004Y-65581D01*
X-88407Y-65692D01*
X-87839Y-66260D01*
X-86965Y-66622D01*
X-86264D01*
Y-68590D01*
X-80721D01*
Y-63441D01*
X-83687D01*
X-83946Y-63181D01*
X-84537Y-62786D01*
X-84599Y-62774D01*
X-85145Y-62228D01*
X-85232Y-61792D01*
X-83396Y-59956D01*
X-83000Y-60035D01*
X-82149Y-59866D01*
X-81428Y-59383D01*
X-80945Y-58662D01*
X-80776Y-57811D01*
Y-52693D01*
X-80945Y-51842D01*
X-81178Y-51494D01*
Y-49000D01*
X-81316Y-48303D01*
X-81711Y-47711D01*
X-81711Y-47711D01*
X-87535Y-41888D01*
X-87390Y-41410D01*
X-87149Y-41362D01*
X-86427Y-40880D01*
X-85945Y-40158D01*
X-85776Y-39307D01*
Y-34189D01*
X-85945Y-33338D01*
X-86427Y-32616D01*
X-87149Y-32134D01*
X-88000Y-31965D01*
X-88851Y-32134D01*
X-89167Y-31744D01*
X-86711Y-29289D01*
X-86711Y-29289D01*
X-86316Y-28697D01*
X-86178Y-28000D01*
Y-18238D01*
X-85816Y-17697D01*
X-85812Y-17675D01*
X-85484Y-17347D01*
X-85122Y-16473D01*
Y-15527D01*
X-85484Y-14653D01*
X-86153Y-13984D01*
X-87027Y-13622D01*
D02*
G37*
G36*
X-41019Y-61866D02*
X-41965D01*
X-42839Y-62228D01*
X-43508Y-62897D01*
X-43870Y-63771D01*
Y-64717D01*
X-43508Y-65591D01*
X-42839Y-66260D01*
X-41965Y-66622D01*
X-41264D01*
Y-68590D01*
X-35721D01*
Y-63441D01*
X-38686D01*
X-38946Y-63181D01*
X-39537Y-62786D01*
X-39599Y-62774D01*
X-40145Y-62228D01*
X-41019Y-61866D01*
D02*
G37*
G36*
X-63519D02*
X-64465D01*
X-65339Y-62228D01*
X-66008Y-62897D01*
X-66370Y-63771D01*
Y-64717D01*
X-66008Y-65591D01*
X-65339Y-66260D01*
X-64465Y-66622D01*
X-63764D01*
Y-68590D01*
X-58220D01*
Y-63441D01*
X-61186D01*
X-61446Y-63181D01*
X-62037Y-62786D01*
X-62099Y-62774D01*
X-62645Y-62228D01*
X-63519Y-61866D01*
D02*
G37*
G36*
X-36160Y-70376D02*
X-38032D01*
Y-72051D01*
X-36160D01*
Y-70376D01*
D02*
G37*
G36*
X-39031D02*
X-40903D01*
Y-72051D01*
X-39031D01*
Y-70376D01*
D02*
G37*
G36*
X-58660D02*
X-60532D01*
Y-72051D01*
X-58660D01*
Y-70376D01*
D02*
G37*
G36*
X-61532D02*
X-63403D01*
Y-72051D01*
X-61532D01*
Y-70376D01*
D02*
G37*
G36*
X-81160D02*
X-83031D01*
Y-72051D01*
X-81160D01*
Y-70376D01*
D02*
G37*
G36*
X-84031D02*
X-85903D01*
Y-72051D01*
X-84031D01*
Y-70376D01*
D02*
G37*
G36*
X-103660D02*
X-105532D01*
Y-72051D01*
X-103660D01*
Y-70376D01*
D02*
G37*
G36*
X-106532D02*
X-108403D01*
Y-72051D01*
X-106532D01*
Y-70376D01*
D02*
G37*
G36*
X-36160Y-73051D02*
X-38032D01*
Y-74726D01*
X-36160D01*
Y-73051D01*
D02*
G37*
G36*
X-39031D02*
X-40903D01*
Y-74726D01*
X-39031D01*
Y-73051D01*
D02*
G37*
G36*
X-58660D02*
X-60532D01*
Y-74726D01*
X-58660D01*
Y-73051D01*
D02*
G37*
G36*
X-61532D02*
X-63403D01*
Y-74726D01*
X-61532D01*
Y-73051D01*
D02*
G37*
G36*
X-81160D02*
X-83031D01*
Y-74726D01*
X-81160D01*
Y-73051D01*
D02*
G37*
G36*
X-84031D02*
X-85903D01*
Y-74726D01*
X-84031D01*
Y-73051D01*
D02*
G37*
G36*
X-103660D02*
X-105532D01*
Y-74726D01*
X-103660D01*
Y-73051D01*
D02*
G37*
G36*
X-106532D02*
X-108403D01*
Y-74726D01*
X-106532D01*
Y-73051D01*
D02*
G37*
G36*
X-66527Y-76622D02*
X-67473D01*
X-68347Y-76984D01*
X-69016Y-77653D01*
X-69026Y-77678D01*
X-75459D01*
X-75653Y-77484D01*
X-76527Y-77122D01*
X-77473D01*
X-78347Y-77484D01*
X-79016Y-78153D01*
X-79378Y-79027D01*
Y-79973D01*
X-79016Y-80847D01*
X-78347Y-81516D01*
X-77473Y-81878D01*
X-76527D01*
X-75653Y-81516D01*
X-75459Y-81322D01*
X-67820D01*
X-67820Y-81322D01*
X-67676Y-81294D01*
X-67473Y-81378D01*
X-66527D01*
X-65653Y-81016D01*
X-64984Y-80347D01*
X-64622Y-79473D01*
Y-78527D01*
X-64984Y-77653D01*
X-65653Y-76984D01*
X-66527Y-76622D01*
D02*
G37*
G36*
X-49519Y-86866D02*
X-50465D01*
X-51339Y-87228D01*
X-51533Y-87422D01*
X-56512D01*
Y-86964D01*
X-62843D01*
Y-95244D01*
Y-95657D01*
X-56512D01*
Y-95244D01*
Y-94470D01*
D01*
Y-91066D01*
X-51533D01*
X-51339Y-91260D01*
X-50465Y-91622D01*
X-49519D01*
X-48645Y-91260D01*
X-47976Y-90591D01*
X-47614Y-89717D01*
Y-88771D01*
X-47976Y-87897D01*
X-48645Y-87228D01*
X-49519Y-86866D01*
D02*
G37*
G36*
X-67542Y-87364D02*
X-69807D01*
Y-90810D01*
X-67542D01*
Y-87364D01*
D02*
G37*
G36*
X-70807D02*
X-73072D01*
Y-90810D01*
X-70807D01*
Y-87364D01*
D02*
G37*
G36*
X-67542Y-91810D02*
X-69807D01*
Y-95257D01*
X-67542D01*
Y-95244D01*
Y-94560D01*
D01*
Y-91810D01*
D02*
G37*
G36*
X-70807D02*
X-73072D01*
Y-95244D01*
Y-95257D01*
X-70807D01*
Y-91810D01*
D02*
G37*
G36*
X-82992Y-101297D02*
Y-102599D01*
X-81887D01*
Y-102409D01*
X-81971Y-101983D01*
X-82213Y-101622D01*
X-82574Y-101381D01*
X-82992Y-101297D01*
D02*
G37*
G36*
X-83992D02*
X-84410Y-101381D01*
X-84772Y-101622D01*
X-85013Y-101983D01*
X-85098Y-102409D01*
Y-102599D01*
X-83992D01*
Y-101297D01*
D02*
G37*
G36*
X-67542Y-99231D02*
X-69807D01*
Y-102678D01*
X-67542D01*
Y-99231D01*
D02*
G37*
G36*
X-70807D02*
X-73072D01*
Y-102678D01*
X-70807D01*
Y-99231D01*
D02*
G37*
G36*
X-67542Y-103678D02*
X-69807D01*
Y-107124D01*
X-67542D01*
Y-103678D01*
D02*
G37*
G36*
X-70807D02*
X-73072D01*
Y-107124D01*
X-70807D01*
Y-103678D01*
D02*
G37*
G36*
X-56512Y-98831D02*
X-62843D01*
Y-107524D01*
X-56512D01*
Y-107067D01*
X-51533D01*
X-51339Y-107260D01*
X-50465Y-107622D01*
X-49519D01*
X-48645Y-107260D01*
X-47976Y-106591D01*
X-47614Y-105717D01*
Y-104771D01*
X-47976Y-103897D01*
X-48645Y-103228D01*
X-49519Y-102866D01*
X-50465D01*
X-51339Y-103228D01*
X-51533Y-103422D01*
X-56512D01*
Y-98831D01*
D02*
G37*
G36*
X-44498Y-135488D02*
X-45487D01*
X-46442Y-135744D01*
X-47298Y-136239D01*
X-47998Y-136938D01*
X-48492Y-137794D01*
X-48748Y-138750D01*
Y-139739D01*
X-48492Y-140694D01*
X-47998Y-141550D01*
X-47298Y-142250D01*
X-46442Y-142744D01*
X-45487Y-143000D01*
X-44498D01*
X-43542Y-142744D01*
X-42686Y-142250D01*
X-41987Y-141550D01*
X-41492Y-140694D01*
X-41236Y-139739D01*
Y-138750D01*
X-41492Y-137794D01*
X-41987Y-136938D01*
X-42686Y-136239D01*
X-43542Y-135744D01*
X-44498Y-135488D01*
D02*
G37*
G36*
X795Y9592D02*
X-834D01*
X-982Y9563D01*
X-1132D01*
X-2730Y9245D01*
X-2869Y9188D01*
X-3017Y9158D01*
X-4521Y8535D01*
X-4646Y8451D01*
X-4786Y8394D01*
X-6140Y7489D01*
X-6246Y7382D01*
X-6372Y7299D01*
X-7523Y6147D01*
X-7607Y6022D01*
X-7713Y5915D01*
X-8618Y4561D01*
X-8676Y4422D01*
X-8759Y4297D01*
X-9383Y2792D01*
X-9412Y2644D01*
X-9470Y2505D01*
X-9787Y908D01*
Y757D01*
X-9817Y610D01*
Y-1019D01*
X-9787Y-1167D01*
Y-1317D01*
X-9470Y-2915D01*
X-9412Y-3054D01*
X-9383Y-3202D01*
X-8759Y-4706D01*
X-8676Y-4831D01*
X-8618Y-4971D01*
X-7713Y-6325D01*
X-7607Y-6431D01*
X-7523Y-6556D01*
X-6372Y-7708D01*
X-6246Y-7792D01*
X-6140Y-7898D01*
X-4786Y-8803D01*
X-4646Y-8861D01*
X-4521Y-8944D01*
X-3017Y-9568D01*
X-2869Y-9597D01*
X-2730Y-9655D01*
X-1132Y-9972D01*
X-982D01*
X-834Y-10002D01*
X795D01*
X942Y-9972D01*
X1093D01*
X2690Y-9655D01*
X2829Y-9597D01*
X2977Y-9568D01*
X4482Y-8944D01*
X4607Y-8861D01*
X4746Y-8803D01*
X6100Y-7898D01*
X6207Y-7792D01*
X6332Y-7708D01*
X7484Y-6556D01*
X7567Y-6431D01*
X7674Y-6325D01*
X8579Y-4971D01*
X8636Y-4831D01*
X8720Y-4706D01*
X9343Y-3202D01*
X9373Y-3054D01*
X9430Y-2915D01*
X9748Y-1317D01*
Y-1167D01*
X9777Y-1019D01*
Y610D01*
X9748Y757D01*
Y908D01*
X9430Y2505D01*
X9373Y2644D01*
X9343Y2792D01*
X8720Y4297D01*
X8636Y4422D01*
X8579Y4561D01*
X7674Y5915D01*
X7567Y6022D01*
X7484Y6147D01*
X6332Y7299D01*
X6207Y7382D01*
X6100Y7489D01*
X4746Y8394D01*
X4607Y8451D01*
X4482Y8535D01*
X2977Y9158D01*
X2829Y9188D01*
X2690Y9245D01*
X1093Y9563D01*
X942D01*
X795Y9592D01*
D02*
G37*
G36*
X-81887Y-107890D02*
X-82992D01*
Y-109191D01*
X-82574Y-109107D01*
X-82213Y-108866D01*
X-81971Y-108505D01*
X-81887Y-108079D01*
Y-107890D01*
D02*
G37*
G36*
X-83992D02*
X-85098D01*
Y-108079D01*
X-85013Y-108505D01*
X-84772Y-108866D01*
X-84410Y-109107D01*
X-83992Y-109191D01*
Y-107890D01*
D02*
G37*
G36*
X-119712Y-115827D02*
X-120658D01*
X-121532Y-116189D01*
X-122201Y-116858D01*
X-122563Y-117732D01*
Y-118678D01*
X-122201Y-119552D01*
X-121532Y-120221D01*
X-120658Y-120583D01*
X-119712D01*
X-118838Y-120221D01*
X-118169Y-119552D01*
X-117807Y-118678D01*
Y-117732D01*
X-118169Y-116858D01*
X-118838Y-116189D01*
X-119712Y-115827D01*
D02*
G37*
%LPD*%
D11*
X-49114Y30866D02*
G03*
X-46185Y37937I-7071J7071D01*
G01*
X-59677Y-103178D02*
G03*
X-57611Y-105244I2066J0D01*
G01*
X-77827Y6295D02*
G03*
X-70756Y9224I0J10000D01*
G01*
X-107983Y23094D02*
G03*
X-115000Y26000I-7017J-7017D01*
G01*
X-118114Y40599D02*
G03*
X-115197Y47193I-7071J7071D01*
G01*
X-120542Y38171D02*
G03*
X-123185Y31790I6381J-6381D01*
G01*
D02*
G03*
X-121697Y28197I5082J0D01*
G01*
X-121500Y28000D02*
G03*
X-116672Y26000I4828J4828D01*
G01*
X-115197Y47193D02*
G03*
X-115185Y47670I-9989J478D01*
G01*
X-111185Y44624D02*
G03*
X-101857Y35295I9328J0D01*
G01*
X-40685Y38795D02*
G03*
X-34650Y36295I6036J6036D01*
G01*
X-42185Y42417D02*
G03*
X-40685Y38795I5121J0D01*
G01*
X-57611Y-89244D02*
G03*
X-59677Y-91310I0J-2066D01*
G01*
X-81194Y33926D02*
G03*
X-79185Y39937I-7991J6012D01*
G01*
X-85130Y32295D02*
G03*
X-81194Y33926I0J5567D01*
G01*
X-84869Y-2689D02*
X-83201D01*
X-86500Y-4000D02*
X-86180D01*
X-82413Y-1902D02*
Y-1705D01*
X-83201Y-2689D02*
X-82413Y-1902D01*
X-86180Y-4000D02*
X-84869Y-2689D01*
X-83000Y-57598D02*
Y-49000D01*
X-92000Y-40000D02*
X-83000Y-49000D01*
X-92000Y-40000D02*
Y-32000D01*
X-83979Y-57962D02*
X-83364D01*
X-89920Y-63903D02*
X-83979Y-57962D01*
X-83364D02*
X-83000Y-57598D01*
X-97492Y-35887D02*
X-97387Y-35992D01*
X-92244Y-66244D02*
X-89920Y-63920D01*
Y-63903D01*
X-96000Y-66244D02*
X-92244D01*
X-96197Y-71756D02*
X-96000D01*
X-101000Y-66953D02*
X-96197Y-71756D01*
X-101000Y-66953D02*
Y-64000D01*
X-103000Y-62000D02*
X-101000Y-64000D01*
X-108672Y-63744D02*
X-106928Y-62000D01*
X-103000D01*
X-108992Y-63744D02*
X-108672D01*
X-78000Y-36748D02*
Y-30000D01*
X-50888Y83498D02*
X-50091Y82701D01*
X-70756Y9224D02*
X-49114Y30866D01*
X-55226Y-33472D02*
X-52812Y-35887D01*
X-57611Y-105244D02*
X-49992D01*
X-91185Y6295D02*
X-77827D01*
X-119888Y83498D02*
X-119091Y82701D01*
X-116672Y26000D02*
X-115000D01*
X-120542Y38171D02*
X-118114Y40599D01*
X-121697Y28197D02*
X-121500Y28000D01*
X-67320Y-79000D02*
X-67000D01*
X-67820Y-79500D02*
X-67320Y-79000D01*
X-77000Y-79500D02*
X-67820D01*
X-88000Y-28000D02*
Y-17500D01*
X-87500Y-17000D01*
X-92000Y-32000D02*
X-88000Y-28000D01*
X-81531Y-43000D02*
X-69000D01*
X-83000Y-41531D02*
X-81531Y-43000D01*
X-67760Y-41760D02*
X-50591D01*
X-69000Y-43000D02*
X-67760Y-41760D01*
X-64500Y-45500D02*
X-59488D01*
X-68410Y-49409D02*
X-64500Y-45500D01*
X-74717Y-49409D02*
X-68410D01*
X-78000Y-52693D02*
X-74717Y-49409D01*
X-78000Y-55252D02*
Y-52693D01*
X-83000Y-41531D02*
Y-36748D01*
Y-25000D01*
X-77500Y-19500D01*
X-107983Y23094D02*
X-91185Y6295D01*
X-46185Y37937D02*
Y78795D01*
X-115185Y47670D02*
Y78795D01*
X-89379Y35295D02*
X-86879Y37795D01*
X-86685D01*
X-101857Y35295D02*
X-89379D01*
X-117685Y32295D02*
X-85130D01*
X-34650Y36295D02*
X-18185D01*
X-42185Y79295D02*
X-37982Y83498D01*
X-42185Y42417D02*
Y79295D01*
X-57611Y-89244D02*
X-49992D01*
X-111185Y79295D02*
X-106982Y83498D01*
X-111185Y44624D02*
Y79295D01*
X-50091Y82516D02*
Y82701D01*
X-48614Y81039D02*
X-48429D01*
X-50091Y82516D02*
X-48614Y81039D01*
X-48429D02*
X-46185Y78795D01*
X-119091Y82516D02*
X-117614Y81039D01*
X-117429D01*
X-115185Y78795D01*
X-119091Y82516D02*
Y82701D01*
X-79185Y39937D02*
Y50039D01*
Y59795D02*
X-79185Y59795D01*
X-79185Y55551D02*
Y59795D01*
X-72492Y-19244D02*
X-72266Y-19018D01*
X-69191D01*
X-64189Y-14016D01*
X-86266Y-64470D02*
X-85235D01*
X-61189Y-66016D02*
X-60992D01*
X-83689D02*
X-83492D01*
X-86492Y-64244D02*
X-86266Y-64470D01*
X-85235D02*
X-83689Y-66016D01*
X-63766Y-64470D02*
X-62735D01*
X-63992Y-64244D02*
X-63766Y-64470D01*
X-62735D02*
X-61189Y-66016D01*
X-64992Y-33472D02*
X-55226D01*
X-106189Y-66016D02*
X-105992D01*
X-64189Y-14016D02*
X-63992D01*
X-52812Y-35887D02*
X-52492D01*
X-41266Y-64470D02*
X-40235D01*
X-38689Y-66016D02*
X-38492D01*
X-40235Y-64470D02*
X-38689Y-66016D01*
X-41492Y-64244D02*
X-41266Y-64470D01*
X-108992Y-63744D02*
X-108766Y-63970D01*
X-108235D02*
X-106189Y-66016D01*
X-108766Y-63970D02*
X-108235D01*
D18*
X-88000Y-36748D02*
D03*
X-83000D02*
D03*
X-78000D02*
D03*
X-73000D02*
D03*
X-88000Y-55252D02*
D03*
X-83000D02*
D03*
X-78000D02*
D03*
X-73000D02*
D03*
D19*
X-96000Y-71756D02*
D03*
Y-66244D02*
D03*
X-38532Y-72551D02*
D03*
X-38492Y-66016D02*
D03*
X-61032Y-72551D02*
D03*
X-60992Y-66016D02*
D03*
X-83531Y-72551D02*
D03*
X-83492Y-66016D02*
D03*
X-106032Y-72551D02*
D03*
X-105992Y-66016D02*
D03*
X-64031Y-20551D02*
D03*
X-63992Y-14016D02*
D03*
X-53453Y-26937D02*
D03*
X-53492Y-33472D02*
D03*
X-64953Y-26937D02*
D03*
X-64992Y-33472D02*
D03*
X-98453Y-26937D02*
D03*
X-98492Y-33472D02*
D03*
X-120953Y-26937D02*
D03*
X-120992Y-33472D02*
D03*
X-79185Y55551D02*
D03*
Y50039D02*
D03*
D20*
X-75878Y-1744D02*
D03*
X-82413Y-1705D02*
D03*
D26*
X-107280Y83795D02*
D03*
X-119091D02*
D03*
X-38280D02*
D03*
X-50091D02*
D03*
D38*
X-112623Y-54121D02*
X-96739D01*
X-112862Y-54360D02*
X-112623Y-54121D01*
X-96739D02*
X-96500Y-53882D01*
D40*
X-101000Y11500D02*
G03*
X-102207Y12000I-1207J-1207D01*
G01*
X-97500Y3858D02*
G03*
X-100429Y10929I-10000J0D01*
G01*
X-63000Y-6000D02*
G03*
X-62000Y-7000I1000J0D01*
G01*
X-58500Y11500D02*
G03*
X-63000Y7000I0J-4500D01*
G01*
X-117500Y12000D02*
X-102207D01*
X-101000Y11500D02*
X-100429Y10929D01*
X-97500Y-6500D02*
Y3858D01*
X-63000Y-6000D02*
Y7000D01*
X-58500Y11500D02*
X-50000D01*
D41*
X-163760Y190921D02*
D03*
Y180921D02*
D03*
X-153760Y190921D02*
D03*
Y180921D02*
D03*
X-143760Y190921D02*
D03*
Y180921D02*
D03*
X-133760Y190921D02*
D03*
Y180921D02*
D03*
X-123760Y190921D02*
D03*
Y180921D02*
D03*
X-113760Y190921D02*
D03*
Y180921D02*
D03*
X-103760Y190921D02*
D03*
Y180921D02*
D03*
X-93760Y190921D02*
D03*
Y180921D02*
D03*
X-83760Y190921D02*
D03*
Y180921D02*
D03*
X-73760Y190921D02*
D03*
Y180921D02*
D03*
X-63760Y190921D02*
D03*
Y180921D02*
D03*
X-53760Y190921D02*
D03*
Y180921D02*
D03*
X-43760Y190921D02*
D03*
Y180921D02*
D03*
X-33760Y190921D02*
D03*
Y180921D02*
D03*
X-23760Y190921D02*
D03*
Y180921D02*
D03*
X-13760Y190921D02*
D03*
Y180921D02*
D03*
X-3760Y190921D02*
D03*
Y180921D02*
D03*
X6240Y190921D02*
D03*
X-163760Y-177032D02*
D03*
Y-187031D02*
D03*
X-153760Y-177032D02*
D03*
Y-187031D02*
D03*
X-143760Y-177032D02*
D03*
Y-187031D02*
D03*
X-133760Y-177032D02*
D03*
Y-187031D02*
D03*
X-123760Y-177032D02*
D03*
Y-187031D02*
D03*
X-113760Y-177032D02*
D03*
Y-187031D02*
D03*
X-103760Y-177032D02*
D03*
Y-187031D02*
D03*
X-93760Y-177032D02*
D03*
Y-187031D02*
D03*
X-83760Y-177032D02*
D03*
Y-187031D02*
D03*
X-73760Y-177032D02*
D03*
Y-187031D02*
D03*
X-63760Y-177032D02*
D03*
Y-187031D02*
D03*
X-53760Y-177032D02*
D03*
Y-187031D02*
D03*
X-43760Y-177032D02*
D03*
Y-187031D02*
D03*
X-33760Y-177032D02*
D03*
Y-187031D02*
D03*
X-23760Y-177032D02*
D03*
Y-187031D02*
D03*
X-13760Y-177032D02*
D03*
Y-187031D02*
D03*
X-3760Y-177032D02*
D03*
Y-187031D02*
D03*
X6240Y-177032D02*
D03*
D42*
Y180921D02*
D03*
Y-187031D02*
D03*
D43*
X-44992Y-139244D02*
D03*
X-39992Y-144244D02*
D03*
Y-134244D02*
D03*
X-49992D02*
D03*
Y-144244D02*
D03*
D44*
X-116756Y107795D02*
D03*
X-109685D02*
D03*
Y100724D02*
D03*
X-116756D02*
D03*
X-47685Y107795D02*
D03*
X-40614D02*
D03*
Y100724D02*
D03*
X-47685D02*
D03*
D45*
X-78000Y-30000D02*
D03*
X-77000Y-79500D02*
D03*
X-67000Y-79000D02*
D03*
X-87500Y-16000D02*
D03*
X-77500Y-19500D02*
D03*
X-86500Y-4000D02*
D03*
X-39185Y91795D02*
D03*
X-48685D02*
D03*
X-117685D02*
D03*
X-108185D02*
D03*
X-128110Y72441D02*
D03*
X-97756Y72295D02*
D03*
X-59039Y72441D02*
D03*
X-28685Y72295D02*
D03*
X-117685Y32295D02*
D03*
X-29185Y-156205D02*
D03*
X-36185D02*
D03*
X-42185D02*
D03*
X-48185D02*
D03*
X-54185D02*
D03*
X-60185D02*
D03*
X-125685Y-156705D02*
D03*
X-118185Y-89205D02*
D03*
X-124185Y-102705D02*
D03*
X-65492Y-101244D02*
D03*
Y-93244D02*
D03*
X-49992Y-94744D02*
D03*
X-109992Y-105244D02*
D03*
X-108992Y-92244D02*
D03*
X-76992Y-123744D02*
D03*
X-102492Y-119744D02*
D03*
X-66992Y-4744D02*
D03*
X-89992Y-79244D02*
D03*
X-65492Y-106744D02*
D03*
X-78992Y-89244D02*
D03*
X-109992Y-109244D02*
D03*
X-49992Y-89244D02*
D03*
X-109992Y-97744D02*
D03*
X-102992Y-134244D02*
D03*
X-75492Y-110244D02*
D03*
X-49992Y-110744D02*
D03*
Y-100244D02*
D03*
X-120185Y-118205D02*
D03*
X-74457Y-161205D02*
D03*
X-79185Y59795D02*
D03*
X-49992Y-105244D02*
D03*
X-119992Y-35887D02*
D03*
X-73492Y-14744D02*
D03*
X-33492Y-72244D02*
D03*
X-38492Y-77744D02*
D03*
X-42992Y-72244D02*
D03*
X-126492Y-26744D02*
D03*
X-120992Y-21744D02*
D03*
X-115992Y-26744D02*
D03*
X-110992Y-70744D02*
D03*
X-96492Y-112744D02*
D03*
X-41492Y-64244D02*
D03*
X-63992D02*
D03*
X-72492Y-19244D02*
D03*
Y-46744D02*
D03*
X-52492Y-35887D02*
D03*
X-57992Y-27244D02*
D03*
X-68992Y-32744D02*
D03*
X-77492Y-68744D02*
D03*
X-64492Y-50744D02*
D03*
X-108992Y-63744D02*
D03*
X-86492Y-64244D02*
D03*
X-97492Y-35887D02*
D03*
X-93492Y-27244D02*
D03*
X-103492Y-26744D02*
D03*
X-106492Y-77244D02*
D03*
X-88492Y-68744D02*
D03*
X-68492Y-21744D02*
D03*
X-53492Y-22244D02*
D03*
X-48492Y-27744D02*
D03*
X-59492Y-77744D02*
D03*
X-66058Y-72744D02*
D03*
X-63492Y-79244D02*
D03*
D46*
X-112862Y-54360D02*
D03*
X-96500Y-53882D02*
D03*
D47*
X-91185Y6295D02*
D03*
D48*
X-18185Y36295D02*
D03*
X-86685Y37795D02*
D03*
X-30185Y25795D02*
D03*
X-94685Y24295D02*
D03*
D50*
X-50591Y-41760D02*
D03*
X-50787Y-49240D02*
D03*
X-59488Y-45500D02*
D03*
D51*
X-59677Y-91310D02*
D03*
X-70307D02*
D03*
X-59677Y-103178D02*
D03*
X-70307D02*
D03*
D52*
X-83492Y-107390D02*
D03*
Y-103098D02*
D03*
M02*
