G04*
G04 #@! TF.GenerationSoftware,Altium Limited,Altium Designer,22.4.2 (48)*
G04*
G04 Layer_Physical_Order=1*
G04 Layer_Color=255*
%FSLAX25Y25*%
%MOIN*%
G70*
G04*
G04 #@! TF.SameCoordinates,F473D59A-574F-4481-BB9C-DFA0211E3A26*
G04*
G04*
G04 #@! TF.FilePolarity,Positive*
G04*
G01*
G75*
%ADD11C,0.01575*%
%ADD14C,0.00787*%
%ADD15C,0.00600*%
%ADD18O,0.02362X0.07480*%
%ADD19R,0.03543X0.03150*%
%ADD20R,0.03150X0.03543*%
G04:AMPARAMS|DCode=21|XSize=64.96mil|YSize=35.43mil|CornerRadius=8.86mil|HoleSize=0mil|Usage=FLASHONLY|Rotation=270.000|XOffset=0mil|YOffset=0mil|HoleType=Round|Shape=RoundedRectangle|*
%AMROUNDEDRECTD21*
21,1,0.06496,0.01772,0,0,270.0*
21,1,0.04724,0.03543,0,0,270.0*
1,1,0.01772,-0.00886,-0.02362*
1,1,0.01772,-0.00886,0.02362*
1,1,0.01772,0.00886,0.02362*
1,1,0.01772,0.00886,-0.02362*
%
%ADD21ROUNDEDRECTD21*%
%ADD22R,0.01772X0.03347*%
%ADD23R,0.00900X0.05350*%
%ADD24R,0.05350X0.00900*%
%ADD25R,0.02362X0.01968*%
%ADD26R,0.04528X0.07087*%
%ADD38C,0.00799*%
%ADD39C,0.00799*%
%ADD40C,0.01968*%
%ADD41C,0.05906*%
%ADD42R,0.05906X0.05906*%
%ADD43C,0.05512*%
%ADD44C,0.04780*%
%ADD45C,0.02756*%
%ADD46C,0.02362*%
%ADD47C,0.07874*%
%ADD48C,0.05118*%
G36*
X-45114Y103600D02*
X-45576Y103409D01*
X-45604Y103437D01*
X-46377Y103883D01*
X-47239Y104114D01*
X-48131D01*
X-48993Y103883D01*
X-49766Y103437D01*
X-50397Y102806D01*
X-50844Y102033D01*
X-51075Y101171D01*
Y100278D01*
X-50844Y99416D01*
X-50397Y98643D01*
X-49766Y98012D01*
X-48993Y97566D01*
X-48131Y97334D01*
X-47246D01*
X-47041Y97129D01*
Y83339D01*
X-52740D01*
X-52740Y83339D01*
Y83339D01*
X-52740Y83339D01*
X-53185Y83472D01*
Y111295D01*
X-45114D01*
Y103600D01*
D02*
G37*
G36*
X-114185D02*
X-114647Y103409D01*
X-114675Y103437D01*
X-115448Y103883D01*
X-116310Y104114D01*
X-117202D01*
X-118064Y103883D01*
X-118837Y103437D01*
X-119469Y102806D01*
X-119915Y102033D01*
X-120146Y101171D01*
Y100278D01*
X-119915Y99416D01*
X-119469Y98643D01*
X-118837Y98012D01*
X-118064Y97566D01*
X-117202Y97334D01*
X-116317D01*
X-116112Y97129D01*
Y83295D01*
X-121685D01*
Y110795D01*
X-114185D01*
Y103600D01*
D02*
G37*
G36*
X-35185Y83780D02*
X-35327Y83339D01*
X-41028D01*
Y97215D01*
X-40909Y97334D01*
X-40168D01*
X-39306Y97566D01*
X-38533Y98012D01*
X-37901Y98643D01*
X-37455Y99416D01*
X-37224Y100278D01*
Y101171D01*
X-37455Y102033D01*
X-37901Y102806D01*
X-38533Y103437D01*
X-39306Y103883D01*
X-40168Y104114D01*
X-41060D01*
X-41922Y103883D01*
X-42614Y103484D01*
X-43114Y103650D01*
Y106795D01*
Y111295D01*
X-35185D01*
Y83780D01*
D02*
G37*
G36*
X-104685Y83295D02*
X-110099D01*
Y97215D01*
X-109980Y97334D01*
X-109239D01*
X-108377Y97566D01*
X-107604Y98012D01*
X-106973Y98643D01*
X-106526Y99416D01*
X-106295Y100278D01*
Y101171D01*
X-106526Y102033D01*
X-106973Y102806D01*
X-107604Y103437D01*
X-108377Y103883D01*
X-109239Y104114D01*
X-110131D01*
X-110993Y103883D01*
X-111685Y103484D01*
X-112185Y103650D01*
Y106795D01*
Y110795D01*
X-104685D01*
Y83295D01*
D02*
G37*
G36*
X-44634Y16795D02*
X-68614D01*
Y40933D01*
X-68177Y41266D01*
X-67706D01*
X-67685Y41264D01*
Y41266D01*
X-56185D01*
Y41264D01*
X-56164Y41266D01*
X-55693D01*
X-55545Y41295D01*
X-55394D01*
X-54932Y41387D01*
X-54911Y41389D01*
X-54891Y41395D01*
X-54428Y41487D01*
X-54289Y41545D01*
X-54141Y41574D01*
X-53706Y41755D01*
X-53686Y41761D01*
X-53667Y41771D01*
X-53608Y41795D01*
X-44634D01*
Y16795D01*
D02*
G37*
G36*
X-114205Y16814D02*
X-114220Y16795D01*
X-138185D01*
Y40967D01*
X-138160Y41014D01*
X-137685Y41337D01*
X-137476Y41295D01*
X-137325D01*
X-137178Y41266D01*
X-136706D01*
X-136685Y41264D01*
Y41266D01*
X-125185D01*
Y41264D01*
X-125164Y41266D01*
X-124693D01*
X-124545Y41295D01*
X-124394D01*
X-123932Y41387D01*
X-123911Y41389D01*
X-123891Y41395D01*
X-123428Y41487D01*
X-123289Y41545D01*
X-123141Y41574D01*
X-122706Y41755D01*
X-122686Y41761D01*
X-122667Y41771D01*
X-122608Y41795D01*
X-114205D01*
Y16814D01*
D02*
G37*
G36*
X-35703Y41771D02*
X-35684Y41761D01*
X-35664Y41755D01*
X-35229Y41574D01*
X-35081Y41545D01*
X-34942Y41487D01*
X-34479Y41395D01*
X-34459Y41389D01*
X-34438Y41387D01*
X-33976Y41295D01*
X-33825D01*
X-33678Y41266D01*
X-33206D01*
X-33185Y41264D01*
Y41266D01*
X-21685D01*
Y41264D01*
X-21664Y41266D01*
X-21193D01*
X-21045Y41295D01*
X-20894D01*
X-20432Y41387D01*
X-20411Y41389D01*
X-20391Y41395D01*
X-20114Y41451D01*
X-19709Y41200D01*
X-19618Y41082D01*
X-19614Y41070D01*
Y39580D01*
X-20370Y39143D01*
X-21033Y38481D01*
X-21502Y37669D01*
X-21744Y36764D01*
Y35827D01*
X-21502Y34922D01*
X-21033Y34110D01*
X-20370Y33447D01*
X-19614Y33011D01*
Y16795D01*
X-43614D01*
Y41795D01*
X-35762D01*
X-35703Y41771D01*
D02*
G37*
G36*
X-104703D02*
X-104684Y41761D01*
X-104665Y41755D01*
X-104229Y41574D01*
X-104081Y41545D01*
X-103942Y41487D01*
X-103479Y41395D01*
X-103459Y41389D01*
X-103438Y41387D01*
X-102976Y41295D01*
X-102825D01*
X-102678Y41266D01*
X-102206D01*
X-102185Y41264D01*
Y41266D01*
X-90685D01*
Y41264D01*
X-90664Y41266D01*
X-90193D01*
X-90045Y41295D01*
X-89894D01*
X-89685Y41337D01*
X-89210Y41014D01*
X-89185Y40967D01*
Y40328D01*
X-89533Y39981D01*
X-90001Y39169D01*
X-90244Y38264D01*
Y37327D01*
X-90001Y36421D01*
X-89533Y35610D01*
X-89185Y35262D01*
Y16795D01*
X-113150D01*
X-113185Y16814D01*
Y41795D01*
X-104762D01*
X-104703Y41771D01*
D02*
G37*
G36*
X-96122Y5645D02*
X-95786Y4390D01*
X-95136Y3264D01*
X-94216Y2345D01*
X-93091Y1695D01*
X-91835Y1358D01*
X-90847D01*
X-90640Y858D01*
X-98072Y-6574D01*
X-98078Y-6568D01*
X-99243Y-7933D01*
X-100181Y-9463D01*
X-100867Y-11120D01*
X-101178Y-12413D01*
X-102764D01*
Y-17563D01*
X-102764D01*
Y-17925D01*
X-102764D01*
Y-23075D01*
X-97220D01*
Y-21927D01*
X-96264D01*
Y-23075D01*
X-90720D01*
Y-21927D01*
X-86812D01*
Y-21928D01*
X-86811Y-21928D01*
X-86737Y-22423D01*
X-87188Y-22512D01*
X-87909Y-22994D01*
X-88391Y-23716D01*
X-88560Y-24567D01*
Y-29685D01*
X-88391Y-30536D01*
X-87909Y-31258D01*
X-87188Y-31740D01*
X-86798Y-31817D01*
X-86847Y-32317D01*
X-89664D01*
Y-32305D01*
X-91277Y-32463D01*
X-92828Y-32934D01*
X-94257Y-33698D01*
X-94480Y-33881D01*
X-94855Y-34181D01*
X-94989Y-34253D01*
X-95058Y-34343D01*
X-95681Y-34334D01*
X-95720Y-34295D01*
Y-30898D01*
X-101264D01*
Y-36047D01*
X-99870D01*
Y-36360D01*
X-99528Y-37185D01*
X-99547Y-37212D01*
X-99716Y-38063D01*
Y-43181D01*
X-99547Y-44032D01*
X-99065Y-44754D01*
X-98343Y-45236D01*
X-98039Y-45296D01*
X-97874Y-45839D01*
X-100043Y-48007D01*
X-100043Y-48008D01*
X-100051Y-47999D01*
X-101062Y-49230D01*
X-101671Y-50370D01*
X-102237D01*
X-102446Y-49979D01*
X-103474Y-48726D01*
X-103474Y-48726D01*
X-103837Y-48382D01*
X-107233Y-44985D01*
X-107235Y-44984D01*
X-107236Y-44982D01*
X-107277Y-44955D01*
X-107970Y-44051D01*
X-107996Y-43989D01*
X-107938Y-43902D01*
X-107768Y-43051D01*
Y-37933D01*
X-107938Y-37082D01*
X-108420Y-36361D01*
X-109141Y-35879D01*
X-109992Y-35709D01*
X-110843Y-35879D01*
X-111565Y-36361D01*
X-112047Y-37082D01*
X-112216Y-37933D01*
Y-43051D01*
X-112047Y-43902D01*
X-111565Y-44624D01*
X-110843Y-45106D01*
X-110566Y-45161D01*
X-110179Y-45886D01*
X-109565Y-46633D01*
X-109260Y-47005D01*
X-109257Y-47009D01*
X-109251Y-47003D01*
X-105848Y-50407D01*
X-105501Y-50753D01*
X-105187Y-51123D01*
X-104622Y-51860D01*
X-104080Y-53168D01*
X-103979Y-53935D01*
X-104432Y-54325D01*
X-104992Y-54213D01*
X-105843Y-54382D01*
X-106565Y-54865D01*
X-107047Y-55586D01*
X-107216Y-56437D01*
Y-60455D01*
X-107716Y-60685D01*
X-107768Y-60641D01*
Y-56437D01*
X-107938Y-55586D01*
X-108420Y-54865D01*
X-109141Y-54382D01*
X-109992Y-54213D01*
X-110294Y-54273D01*
X-110681Y-53956D01*
Y-53926D01*
X-111013Y-53124D01*
X-111627Y-52511D01*
X-112428Y-52179D01*
X-113296D01*
X-114098Y-52511D01*
X-114711Y-53124D01*
X-115043Y-53926D01*
Y-54223D01*
X-115843Y-54382D01*
X-116565Y-54865D01*
X-117047Y-55586D01*
X-117216Y-56437D01*
Y-61555D01*
X-117047Y-62406D01*
X-116565Y-63128D01*
X-115843Y-63610D01*
X-114992Y-63779D01*
X-114141Y-63610D01*
X-113420Y-63128D01*
X-112938Y-62406D01*
X-112768Y-61555D01*
Y-56864D01*
X-112716Y-56841D01*
X-112216Y-57170D01*
Y-61555D01*
X-112047Y-62406D01*
X-111565Y-63128D01*
X-111366Y-63261D01*
X-111370Y-63271D01*
Y-64217D01*
X-111008Y-65091D01*
X-110339Y-65760D01*
X-109465Y-66122D01*
X-108764D01*
Y-68590D01*
X-103863D01*
X-103758Y-69649D01*
X-103690Y-69876D01*
X-104060Y-70376D01*
X-105453D01*
Y-72051D01*
X-103581D01*
Y-71793D01*
X-103081Y-71668D01*
X-102375Y-72989D01*
X-101533Y-74015D01*
X-101226Y-74390D01*
X-101223Y-74393D01*
X-101210Y-74381D01*
X-98920Y-76672D01*
X-98920Y-76672D01*
X-98920Y-76672D01*
X-98616Y-77046D01*
X-98248Y-77526D01*
X-97831Y-78532D01*
X-97694Y-79572D01*
X-97702Y-79612D01*
Y-80569D01*
X-99694D01*
Y-82244D01*
X-129463D01*
Y-7242D01*
X-129454Y-7071D01*
X-129405Y-6695D01*
X-129306Y-6199D01*
X-129206Y-5958D01*
X-127239Y-3991D01*
X-126997Y-3891D01*
X-126502Y-3792D01*
X-126126Y-3743D01*
X-125954Y-3734D01*
X-124851D01*
X-124653Y-3774D01*
X-124646Y-3774D01*
Y-3774D01*
X-103724D01*
X-103724Y-3774D01*
X-103717Y-3774D01*
X-103445Y-3720D01*
X-103434Y-3717D01*
X-103132Y-3657D01*
X-103128Y-3656D01*
X-103124Y-3655D01*
X-103121Y-3653D01*
X-103117Y-3651D01*
X-103117Y-3651D01*
X-103117Y-3651D01*
X-102879Y-3492D01*
X-102621Y-3320D01*
X-102621Y-3320D01*
X-102621Y-3320D01*
X-102618Y-3317D01*
X-102615Y-3314D01*
X-102612Y-3311D01*
X-102610Y-3308D01*
X-102451Y-3071D01*
X-102278Y-2813D01*
X-102277Y-2809D01*
X-102274Y-2805D01*
X-102274Y-2802D01*
X-102272Y-2798D01*
X-102272Y-2798D01*
X-102272Y-2798D01*
X-102214Y-2504D01*
X-102212Y-2495D01*
X-102156Y-2213D01*
X-102155Y-2205D01*
X-102156D01*
Y1756D01*
Y5756D01*
X-102123Y5795D01*
X-96122D01*
Y5645D01*
D02*
G37*
G36*
X-83257Y-5011D02*
X-83391Y-5212D01*
X-83561Y-6063D01*
Y-11181D01*
X-83391Y-12032D01*
X-82909Y-12754D01*
X-82764Y-12851D01*
Y-13535D01*
X-82758Y-13566D01*
X-82881Y-14823D01*
X-83257Y-16061D01*
X-83867Y-17202D01*
X-84668Y-18178D01*
X-84694Y-18196D01*
X-84699Y-18203D01*
X-85313Y-18674D01*
X-86036Y-18974D01*
X-86803Y-19075D01*
X-86812Y-19073D01*
X-90720D01*
Y-17925D01*
X-90720D01*
Y-17563D01*
X-90720D01*
Y-15451D01*
X-90259Y-15260D01*
X-89878Y-15640D01*
Y-16473D01*
X-89516Y-17347D01*
X-88847Y-18016D01*
X-87973Y-18378D01*
X-87027D01*
X-86153Y-18016D01*
X-85484Y-17347D01*
X-85122Y-16473D01*
Y-15527D01*
X-85484Y-14653D01*
X-86153Y-13984D01*
X-86178Y-13883D01*
X-85808Y-13300D01*
X-85486Y-13236D01*
X-84764Y-12754D01*
X-84282Y-12032D01*
X-84113Y-11181D01*
Y-6063D01*
X-84282Y-5212D01*
X-84372Y-5077D01*
X-84154Y-4551D01*
X-84114Y-4511D01*
X-83524D01*
X-83257Y-5011D01*
D02*
G37*
G36*
X-58214Y5756D02*
Y1795D01*
Y-2205D01*
X-58098Y-2790D01*
X-57766Y-3286D01*
X-57270Y-3618D01*
X-56685Y-3734D01*
X-32530D01*
X-32359Y-3743D01*
X-31982Y-3792D01*
X-31487Y-3891D01*
X-30860Y-4151D01*
X-30439Y-4431D01*
X-30234Y-4589D01*
X-29877Y-4946D01*
X-29719Y-5152D01*
X-29438Y-5572D01*
X-29178Y-6199D01*
X-29079Y-6695D01*
X-29030Y-7071D01*
X-29021Y-7242D01*
Y-82244D01*
X-43108D01*
X-43198Y-81097D01*
X-43617Y-79353D01*
X-44304Y-77695D01*
X-45241Y-76165D01*
X-45507Y-75854D01*
X-45551Y-75787D01*
X-45823Y-75400D01*
X-45942Y-75222D01*
X-46071Y-74575D01*
X-46065Y-74547D01*
Y-63225D01*
X-45920Y-63128D01*
X-45438Y-62406D01*
X-45268Y-61555D01*
Y-56437D01*
X-45438Y-55586D01*
X-45920Y-54865D01*
X-46029Y-54792D01*
X-45940Y-53891D01*
X-45535Y-52555D01*
X-44877Y-51324D01*
X-44305Y-50627D01*
X-43971Y-50265D01*
X-43971Y-50265D01*
X-42839Y-48885D01*
X-41998Y-47311D01*
X-41480Y-45603D01*
X-41416Y-44955D01*
X-40920Y-44624D01*
X-40438Y-43902D01*
X-40268Y-43051D01*
Y-37933D01*
X-40438Y-37082D01*
X-40920Y-36361D01*
X-41641Y-35879D01*
X-42492Y-35709D01*
X-43343Y-35879D01*
X-44065Y-36361D01*
X-44547Y-37082D01*
X-44716Y-37933D01*
Y-43051D01*
X-44547Y-43902D01*
X-44223Y-44387D01*
X-44287Y-45044D01*
X-44643Y-46215D01*
X-45220Y-47294D01*
X-45682Y-47859D01*
X-46016Y-48220D01*
X-46016Y-48220D01*
X-47257Y-49733D01*
X-48180Y-51459D01*
X-48748Y-53332D01*
X-48887Y-54746D01*
X-49065Y-54865D01*
X-49547Y-55586D01*
X-49716Y-56437D01*
Y-61555D01*
X-49547Y-62406D01*
X-49065Y-63128D01*
X-48919Y-63225D01*
Y-74547D01*
X-48931D01*
X-48774Y-75743D01*
X-48312Y-76857D01*
X-48036Y-77217D01*
X-48022Y-77237D01*
X-48048Y-77260D01*
X-47348Y-78113D01*
X-46554Y-79598D01*
X-46066Y-81210D01*
X-46000Y-81874D01*
X-46336Y-82244D01*
X-55968D01*
X-56225Y-81815D01*
X-55804Y-81029D01*
X-55236Y-79156D01*
X-55045Y-77209D01*
X-55065D01*
Y-62363D01*
X-54565Y-62313D01*
X-54547Y-62406D01*
X-54065Y-63128D01*
X-53343Y-63610D01*
X-52492Y-63779D01*
X-51641Y-63610D01*
X-50920Y-63128D01*
X-50438Y-62406D01*
X-50268Y-61555D01*
Y-56437D01*
X-50438Y-55586D01*
X-50920Y-54865D01*
X-51641Y-54382D01*
X-52492Y-54213D01*
X-53343Y-54382D01*
X-53740Y-54648D01*
X-54122Y-54301D01*
X-53355Y-52867D01*
X-52131Y-51376D01*
X-52054Y-51324D01*
X-49412Y-48682D01*
X-49406Y-48688D01*
X-48241Y-47323D01*
X-47304Y-45793D01*
X-47053Y-45188D01*
X-46641Y-45106D01*
X-45920Y-44624D01*
X-45438Y-43902D01*
X-45268Y-43051D01*
Y-37933D01*
X-45438Y-37082D01*
X-45920Y-36361D01*
X-46641Y-35879D01*
X-47492Y-35709D01*
X-48343Y-35879D01*
X-49065Y-36361D01*
X-49547Y-37082D01*
X-49716Y-37933D01*
Y-43051D01*
X-49551Y-43879D01*
X-49554Y-43890D01*
X-50348Y-45375D01*
X-51376Y-46628D01*
X-51430Y-46664D01*
X-54072Y-49306D01*
X-54072Y-49306D01*
X-54081Y-49297D01*
X-55421Y-50866D01*
X-56499Y-52625D01*
X-57289Y-54531D01*
X-57515Y-55473D01*
X-58048Y-55551D01*
X-58420Y-54994D01*
X-59141Y-54512D01*
X-59992Y-54343D01*
X-60843Y-54512D01*
X-61565Y-54994D01*
X-62047Y-55716D01*
X-62216Y-56567D01*
Y-60523D01*
X-62716Y-60753D01*
X-62768Y-60708D01*
Y-56567D01*
X-62938Y-55716D01*
X-63420Y-54994D01*
X-64141Y-54512D01*
X-64992Y-54343D01*
X-65843Y-54512D01*
X-66565Y-54994D01*
X-67047Y-55716D01*
X-67216Y-56567D01*
Y-61685D01*
X-67047Y-62536D01*
X-66565Y-63257D01*
X-66246Y-63471D01*
X-66370Y-63771D01*
Y-64717D01*
X-66008Y-65591D01*
X-65339Y-66260D01*
X-64465Y-66622D01*
X-63764D01*
Y-68590D01*
X-58220D01*
X-57919Y-68966D01*
Y-77209D01*
X-57911Y-77248D01*
X-58044Y-78598D01*
X-58449Y-79933D01*
X-59107Y-81164D01*
X-59684Y-81867D01*
X-60001Y-82235D01*
X-60001Y-82235D01*
X-60010Y-82244D01*
X-75135D01*
Y-80998D01*
X-74984Y-80847D01*
X-74622Y-79973D01*
Y-79027D01*
X-74984Y-78153D01*
X-75653Y-77484D01*
X-76269Y-77229D01*
X-76275Y-77223D01*
X-76390Y-76660D01*
X-70098Y-70368D01*
X-69740Y-70018D01*
X-69630Y-69892D01*
X-69577Y-69812D01*
X-69576Y-69812D01*
X-69544Y-69763D01*
X-69447Y-69637D01*
X-69133Y-69228D01*
X-67843D01*
Y-65260D01*
X-68565D01*
Y-63355D01*
X-68420Y-63257D01*
X-67938Y-62536D01*
X-67768Y-61685D01*
Y-56567D01*
X-67938Y-55716D01*
X-68420Y-54994D01*
X-69141Y-54512D01*
X-69332Y-54474D01*
X-69489Y-53934D01*
X-68608Y-52860D01*
X-68554Y-52824D01*
X-66837Y-51107D01*
X-66469Y-50768D01*
X-66469Y-50768D01*
X-65227Y-49255D01*
X-64304Y-47529D01*
X-63736Y-45656D01*
X-63663Y-44916D01*
X-63420Y-44754D01*
X-62938Y-44032D01*
X-62768Y-43181D01*
Y-38063D01*
X-62938Y-37212D01*
X-63420Y-36490D01*
X-63684Y-36314D01*
X-63786Y-35645D01*
X-63707Y-35547D01*
X-61721D01*
Y-30398D01*
X-67264D01*
Y-34357D01*
X-67585Y-34748D01*
X-68147Y-35800D01*
X-68664Y-35706D01*
X-68673Y-35640D01*
X-68985Y-34884D01*
X-69478Y-34243D01*
X-69483Y-34235D01*
X-69480Y-34232D01*
X-70473Y-33417D01*
X-71606Y-32812D01*
X-72835Y-32439D01*
X-74114Y-32313D01*
Y-32317D01*
X-75826D01*
X-75875Y-31817D01*
X-75486Y-31740D01*
X-74764Y-31258D01*
X-74282Y-30536D01*
X-74113Y-29685D01*
Y-25183D01*
X-74060Y-25132D01*
X-73561Y-25344D01*
Y-29685D01*
X-73391Y-30536D01*
X-72909Y-31258D01*
X-72188Y-31740D01*
X-71337Y-31909D01*
X-70486Y-31740D01*
X-69764Y-31258D01*
X-69282Y-30536D01*
X-69113Y-29685D01*
Y-24567D01*
X-69282Y-23716D01*
X-69764Y-22994D01*
X-70486Y-22512D01*
X-71337Y-22343D01*
X-71924Y-22460D01*
X-72170Y-21999D01*
X-71633Y-21462D01*
X-71145Y-21260D01*
X-70476Y-20591D01*
X-70274Y-20103D01*
X-66761Y-16590D01*
X-61721D01*
Y-11441D01*
X-67264D01*
Y-12827D01*
X-67349Y-12838D01*
X-68389Y-13269D01*
X-69282Y-13954D01*
X-69281Y-13955D01*
X-72192Y-16866D01*
X-72965D01*
X-73839Y-17228D01*
X-74508Y-17897D01*
X-74778Y-18550D01*
X-75320D01*
X-75484Y-18153D01*
X-76153Y-17484D01*
X-76673Y-17269D01*
X-76824Y-16665D01*
X-76727Y-16547D01*
X-75804Y-14821D01*
X-75282Y-13100D01*
X-74764Y-12754D01*
X-74282Y-12032D01*
X-74113Y-11181D01*
Y-6063D01*
X-74282Y-5212D01*
X-74733Y-4537D01*
X-74611Y-4037D01*
X-73703D01*
Y-2165D01*
X-75878D01*
X-78053D01*
Y-4037D01*
X-78053D01*
X-77940Y-4537D01*
X-78391Y-5212D01*
X-78561Y-6063D01*
Y-11181D01*
X-78391Y-12032D01*
X-78078Y-12501D01*
X-78449Y-13725D01*
X-79107Y-14956D01*
X-79525Y-15465D01*
X-80033Y-15379D01*
X-80069Y-15340D01*
X-79891Y-13535D01*
X-79910D01*
Y-12851D01*
X-79764Y-12754D01*
X-79282Y-12032D01*
X-79113Y-11181D01*
Y-6063D01*
X-79282Y-5212D01*
X-79764Y-4490D01*
X-79839Y-4441D01*
Y1067D01*
X-82242D01*
X-82433Y1529D01*
X-78167Y5795D01*
X-58247D01*
X-58214Y5756D01*
D02*
G37*
G36*
X-89664Y-35171D02*
X-74114D01*
X-74086Y-35166D01*
X-73155Y-35288D01*
X-72262Y-35658D01*
X-71877Y-35953D01*
X-71774Y-36036D01*
X-71565Y-36490D01*
X-72047Y-37212D01*
X-72216Y-38063D01*
Y-42874D01*
X-72229Y-42892D01*
X-72716Y-43113D01*
X-72768Y-43067D01*
Y-38063D01*
X-72938Y-37212D01*
X-73420Y-36490D01*
X-74141Y-36008D01*
X-74992Y-35839D01*
X-75843Y-36008D01*
X-76565Y-36490D01*
X-77047Y-37212D01*
X-77216Y-38063D01*
Y-43181D01*
X-77047Y-44032D01*
X-76565Y-44754D01*
X-75843Y-45236D01*
X-75021Y-45399D01*
X-74721Y-45785D01*
X-74774Y-46038D01*
X-74870Y-46271D01*
Y-47217D01*
X-74508Y-48091D01*
X-73839Y-48760D01*
X-72965Y-49122D01*
X-72019D01*
X-71145Y-48760D01*
X-70476Y-48091D01*
X-70114Y-47217D01*
Y-47155D01*
X-69094Y-47021D01*
X-67935Y-46541D01*
X-67374Y-46111D01*
X-66942Y-46410D01*
X-66949Y-46433D01*
X-67607Y-47664D01*
X-68184Y-48366D01*
X-68501Y-48735D01*
X-68501Y-48735D01*
X-70572Y-50806D01*
X-70578Y-50801D01*
X-71743Y-52165D01*
X-72681Y-53695D01*
X-73083Y-54667D01*
X-73686Y-54816D01*
X-74141Y-54512D01*
X-74992Y-54343D01*
X-75843Y-54512D01*
X-76565Y-54994D01*
X-77047Y-55716D01*
X-77216Y-56567D01*
Y-61685D01*
X-77047Y-62536D01*
X-76565Y-63257D01*
X-75843Y-63740D01*
X-74992Y-63909D01*
X-74428Y-63797D01*
X-73975Y-64184D01*
X-74033Y-64629D01*
X-74295Y-65260D01*
X-76142D01*
Y-69187D01*
X-76297Y-69475D01*
X-76391Y-69625D01*
X-80572Y-73806D01*
X-80578Y-73801D01*
X-80612Y-73841D01*
X-81081Y-73668D01*
Y-73051D01*
X-83453D01*
X-85824D01*
Y-73740D01*
X-86286Y-73932D01*
X-89416Y-70803D01*
X-89769Y-70449D01*
X-90076Y-70076D01*
X-90342Y-69728D01*
X-90342Y-69228D01*
X-90342Y-69228D01*
X-90342Y-69228D01*
Y-65260D01*
X-91065D01*
Y-63355D01*
X-90920Y-63257D01*
X-90438Y-62536D01*
X-90268Y-61685D01*
Y-56567D01*
X-90438Y-55716D01*
X-90920Y-54994D01*
X-91641Y-54512D01*
X-91832Y-54474D01*
X-91989Y-53934D01*
X-91108Y-52860D01*
X-91054Y-52824D01*
X-89337Y-51107D01*
X-88968Y-50768D01*
X-88968Y-50768D01*
X-87727Y-49255D01*
X-86804Y-47529D01*
X-86236Y-45656D01*
X-86163Y-44916D01*
X-85920Y-44754D01*
X-85438Y-44032D01*
X-85268Y-43181D01*
Y-38063D01*
X-85438Y-37212D01*
X-85920Y-36490D01*
X-86641Y-36008D01*
X-87492Y-35839D01*
X-88343Y-36008D01*
X-89065Y-36490D01*
X-89547Y-37212D01*
X-89716Y-38063D01*
Y-43181D01*
X-89547Y-44032D01*
X-89065Y-44754D01*
X-89014Y-44788D01*
X-89044Y-45098D01*
X-89449Y-46433D01*
X-90107Y-47664D01*
X-90684Y-48366D01*
X-91001Y-48735D01*
X-91001Y-48735D01*
X-93072Y-50806D01*
X-93078Y-50801D01*
X-94195Y-52109D01*
X-94581Y-52171D01*
X-94764Y-52174D01*
X-95073Y-51895D01*
Y-50506D01*
X-95073Y-50506D01*
X-95182Y-49960D01*
X-95491Y-49497D01*
X-95238Y-49076D01*
X-93432Y-47270D01*
X-93290Y-47128D01*
X-93271Y-47111D01*
X-93042Y-46937D01*
X-93028Y-46905D01*
X-92767Y-46474D01*
X-92427Y-46060D01*
X-92027Y-45312D01*
X-91641Y-45236D01*
X-90920Y-44754D01*
X-90438Y-44032D01*
X-90268Y-43181D01*
Y-38063D01*
X-90438Y-37212D01*
X-90920Y-36490D01*
X-91547Y-36072D01*
X-91589Y-35548D01*
X-91068Y-35332D01*
X-89736Y-35157D01*
X-89664Y-35171D01*
D02*
G37*
%LPC*%
G36*
X-96160Y-24762D02*
X-98032D01*
Y-26437D01*
X-96160D01*
Y-24762D01*
D02*
G37*
G36*
X-99032D02*
X-100903D01*
Y-26437D01*
X-99032D01*
Y-24762D01*
D02*
G37*
G36*
X-118660D02*
X-120531D01*
Y-26437D01*
X-118660D01*
Y-24762D01*
D02*
G37*
G36*
X-121531D02*
X-123403D01*
Y-26437D01*
X-121531D01*
Y-24762D01*
D02*
G37*
G36*
X-96160Y-27437D02*
X-98032D01*
Y-29112D01*
X-96160D01*
Y-27437D01*
D02*
G37*
G36*
X-99032D02*
X-100903D01*
Y-29112D01*
X-99032D01*
Y-27437D01*
D02*
G37*
G36*
X-118660D02*
X-120531D01*
Y-29112D01*
X-118660D01*
Y-27437D01*
D02*
G37*
G36*
X-121531D02*
X-123403D01*
Y-29112D01*
X-121531D01*
Y-27437D01*
D02*
G37*
G36*
X-114492Y-36217D02*
Y-39992D01*
X-113176D01*
Y-37933D01*
X-113314Y-37238D01*
X-113708Y-36649D01*
X-114297Y-36255D01*
X-114492Y-36217D01*
D02*
G37*
G36*
X-115492D02*
X-115687Y-36255D01*
X-116276Y-36649D01*
X-116670Y-37238D01*
X-116808Y-37933D01*
Y-39992D01*
X-115492D01*
Y-36217D01*
D02*
G37*
G36*
X-113176Y-40992D02*
X-114492D01*
Y-44768D01*
X-114297Y-44729D01*
X-113708Y-44335D01*
X-113314Y-43746D01*
X-113176Y-43051D01*
Y-40992D01*
D02*
G37*
G36*
X-115492D02*
X-116808D01*
Y-43051D01*
X-116670Y-43746D01*
X-116276Y-44335D01*
X-115687Y-44729D01*
X-115492Y-44768D01*
Y-40992D01*
D02*
G37*
G36*
X-104992Y-35709D02*
X-105843Y-35879D01*
X-106565Y-36361D01*
X-107047Y-37082D01*
X-107216Y-37933D01*
Y-43051D01*
X-107047Y-43902D01*
X-106565Y-44624D01*
X-105843Y-45106D01*
X-104992Y-45275D01*
X-104141Y-45106D01*
X-103420Y-44624D01*
X-102938Y-43902D01*
X-102768Y-43051D01*
Y-37933D01*
X-102938Y-37082D01*
X-103420Y-36361D01*
X-104141Y-35879D01*
X-104992Y-35709D01*
D02*
G37*
G36*
X-118220Y-30898D02*
X-123764D01*
Y-36047D01*
X-122370D01*
Y-36360D01*
X-122055Y-37121D01*
X-122216Y-37933D01*
Y-43051D01*
X-122047Y-43902D01*
X-121565Y-44624D01*
X-120843Y-45106D01*
X-119992Y-45275D01*
X-119141Y-45106D01*
X-118420Y-44624D01*
X-117938Y-43902D01*
X-117768Y-43051D01*
Y-37933D01*
X-117930Y-37121D01*
X-117614Y-36360D01*
Y-35414D01*
X-117976Y-34540D01*
X-118220Y-34295D01*
Y-30898D01*
D02*
G37*
G36*
X-119992Y-54213D02*
X-120843Y-54382D01*
X-121565Y-54865D01*
X-122047Y-55586D01*
X-122216Y-56437D01*
Y-61555D01*
X-122047Y-62406D01*
X-121565Y-63128D01*
X-120843Y-63610D01*
X-119992Y-63779D01*
X-119141Y-63610D01*
X-118420Y-63128D01*
X-117938Y-62406D01*
X-117768Y-61555D01*
Y-56437D01*
X-117938Y-55586D01*
X-118420Y-54865D01*
X-119141Y-54382D01*
X-119992Y-54213D01*
D02*
G37*
G36*
X-106453Y-70376D02*
X-108324D01*
Y-72051D01*
X-106453D01*
Y-70376D01*
D02*
G37*
G36*
X-103581Y-73051D02*
X-105453D01*
Y-74726D01*
X-103581D01*
Y-73051D01*
D02*
G37*
G36*
X-106453D02*
X-108324D01*
Y-74726D01*
X-106453D01*
Y-73051D01*
D02*
G37*
G36*
X-73703Y706D02*
X-75378D01*
Y-1165D01*
X-73703D01*
Y706D01*
D02*
G37*
G36*
X-76378D02*
X-78053D01*
Y-1165D01*
X-76378D01*
Y706D01*
D02*
G37*
G36*
X-71337Y-3839D02*
X-72188Y-4008D01*
X-72909Y-4490D01*
X-73391Y-5212D01*
X-73561Y-6063D01*
Y-11181D01*
X-73391Y-12032D01*
X-72909Y-12754D01*
X-72188Y-13236D01*
X-71337Y-13405D01*
X-70486Y-13236D01*
X-69764Y-12754D01*
X-69282Y-12032D01*
X-69113Y-11181D01*
Y-6063D01*
X-69282Y-5212D01*
X-69764Y-4490D01*
X-70486Y-4008D01*
X-71337Y-3839D01*
D02*
G37*
G36*
X-62081Y-18376D02*
X-63953D01*
Y-20051D01*
X-62081D01*
Y-18376D01*
D02*
G37*
G36*
X-64953D02*
X-66824D01*
Y-20051D01*
X-64953D01*
Y-18376D01*
D02*
G37*
G36*
X-62081Y-21051D02*
X-63953D01*
Y-22726D01*
X-62081D01*
Y-21051D01*
D02*
G37*
G36*
X-64953D02*
X-66824D01*
Y-22726D01*
X-64953D01*
Y-21051D01*
D02*
G37*
G36*
X-62160Y-24262D02*
X-64031D01*
Y-25937D01*
X-62160D01*
Y-24262D01*
D02*
G37*
G36*
X-65031D02*
X-66903D01*
Y-25937D01*
X-65031D01*
Y-24262D01*
D02*
G37*
G36*
X-51160Y-24762D02*
X-53031D01*
Y-26437D01*
X-51160D01*
Y-24762D01*
D02*
G37*
G36*
X-54031D02*
X-55903D01*
Y-26437D01*
X-54031D01*
Y-24762D01*
D02*
G37*
G36*
X-62160Y-26937D02*
X-64031D01*
Y-28612D01*
X-62160D01*
Y-26937D01*
D02*
G37*
G36*
X-65031D02*
X-66903D01*
Y-28612D01*
X-65031D01*
Y-26937D01*
D02*
G37*
G36*
X-51160Y-27437D02*
X-53031D01*
Y-29112D01*
X-51160D01*
Y-27437D01*
D02*
G37*
G36*
X-54031D02*
X-55903D01*
Y-29112D01*
X-54031D01*
Y-27437D01*
D02*
G37*
G36*
X-37492Y-35709D02*
X-38343Y-35879D01*
X-39065Y-36361D01*
X-39547Y-37082D01*
X-39716Y-37933D01*
Y-43051D01*
X-39547Y-43902D01*
X-39065Y-44624D01*
X-38343Y-45106D01*
X-37492Y-45275D01*
X-36641Y-45106D01*
X-35920Y-44624D01*
X-35438Y-43902D01*
X-35268Y-43051D01*
Y-37933D01*
X-35438Y-37082D01*
X-35920Y-36361D01*
X-36641Y-35879D01*
X-37492Y-35709D01*
D02*
G37*
G36*
X-50721Y-30898D02*
X-56264D01*
Y-36047D01*
X-54870D01*
Y-36360D01*
X-54554Y-37121D01*
X-54716Y-37933D01*
Y-43051D01*
X-54547Y-43902D01*
X-54065Y-44624D01*
X-53343Y-45106D01*
X-52492Y-45275D01*
X-51641Y-45106D01*
X-50920Y-44624D01*
X-50438Y-43902D01*
X-50268Y-43051D01*
Y-37933D01*
X-50430Y-37121D01*
X-50114Y-36360D01*
Y-35414D01*
X-50476Y-34540D01*
X-50721Y-34295D01*
Y-30898D01*
D02*
G37*
G36*
X-59992Y-35839D02*
X-60843Y-36008D01*
X-61565Y-36490D01*
X-62047Y-37212D01*
X-62216Y-38063D01*
Y-43181D01*
X-62047Y-44032D01*
X-61565Y-44754D01*
X-60843Y-45236D01*
X-59992Y-45405D01*
X-59141Y-45236D01*
X-58420Y-44754D01*
X-57938Y-44032D01*
X-57768Y-43181D01*
Y-38063D01*
X-57938Y-37212D01*
X-58420Y-36490D01*
X-59141Y-36008D01*
X-59992Y-35839D01*
D02*
G37*
G36*
X-37492Y-54213D02*
X-38343Y-54382D01*
X-39065Y-54865D01*
X-39547Y-55586D01*
X-39716Y-56437D01*
Y-60455D01*
X-40216Y-60685D01*
X-40268Y-60641D01*
Y-56437D01*
X-40438Y-55586D01*
X-40920Y-54865D01*
X-41641Y-54382D01*
X-42492Y-54213D01*
X-43343Y-54382D01*
X-44065Y-54865D01*
X-44547Y-55586D01*
X-44716Y-56437D01*
Y-61555D01*
X-44547Y-62406D01*
X-44065Y-63128D01*
X-43703Y-63369D01*
X-43870Y-63771D01*
Y-64717D01*
X-43508Y-65591D01*
X-42839Y-66260D01*
X-41965Y-66622D01*
X-41264D01*
Y-68590D01*
X-35721D01*
Y-63441D01*
X-35721Y-63441D01*
X-35721D01*
X-35795Y-62941D01*
X-35438Y-62406D01*
X-35268Y-61555D01*
Y-56437D01*
X-35438Y-55586D01*
X-35920Y-54865D01*
X-36641Y-54382D01*
X-37492Y-54213D01*
D02*
G37*
G36*
X-58581Y-70376D02*
X-60453D01*
Y-72051D01*
X-58581D01*
Y-70376D01*
D02*
G37*
G36*
X-36081D02*
X-37953D01*
Y-72051D01*
X-36081D01*
Y-70376D01*
D02*
G37*
G36*
X-61453D02*
X-63324D01*
Y-72051D01*
X-61453D01*
Y-70376D01*
D02*
G37*
G36*
X-38953D02*
X-40824D01*
Y-72051D01*
X-38953D01*
Y-70376D01*
D02*
G37*
G36*
X-36081Y-73051D02*
X-37953D01*
Y-74726D01*
X-36081D01*
Y-73051D01*
D02*
G37*
G36*
X-38953D02*
X-40824D01*
Y-74726D01*
X-38953D01*
Y-73051D01*
D02*
G37*
G36*
X-58581D02*
X-60453D01*
Y-74726D01*
X-58581D01*
Y-73051D01*
D02*
G37*
G36*
X-61453D02*
X-63324D01*
Y-74726D01*
X-61453D01*
Y-73051D01*
D02*
G37*
G36*
X-66527Y-76622D02*
X-67473D01*
X-68347Y-76984D01*
X-69016Y-77653D01*
X-69378Y-78527D01*
Y-79473D01*
X-69016Y-80347D01*
X-68347Y-81016D01*
X-67473Y-81378D01*
X-66527D01*
X-65653Y-81016D01*
X-64984Y-80347D01*
X-64622Y-79473D01*
Y-78527D01*
X-64984Y-77653D01*
X-65653Y-76984D01*
X-66527Y-76622D01*
D02*
G37*
G36*
X-82492Y-35839D02*
X-83343Y-36008D01*
X-84065Y-36490D01*
X-84547Y-37212D01*
X-84716Y-38063D01*
Y-43181D01*
X-84547Y-44032D01*
X-84065Y-44754D01*
X-83343Y-45236D01*
X-82492Y-45405D01*
X-81641Y-45236D01*
X-80920Y-44754D01*
X-80438Y-44032D01*
X-80268Y-43181D01*
Y-38063D01*
X-80438Y-37212D01*
X-80920Y-36490D01*
X-81641Y-36008D01*
X-82492Y-35839D01*
D02*
G37*
G36*
Y-54343D02*
X-83343Y-54512D01*
X-84065Y-54994D01*
X-84547Y-55716D01*
X-84716Y-56567D01*
Y-60523D01*
X-85216Y-60753D01*
X-85268Y-60708D01*
Y-56567D01*
X-85438Y-55716D01*
X-85920Y-54994D01*
X-86641Y-54512D01*
X-87492Y-54343D01*
X-88343Y-54512D01*
X-89065Y-54994D01*
X-89547Y-55716D01*
X-89716Y-56567D01*
Y-61685D01*
X-89547Y-62536D01*
X-89065Y-63257D01*
X-88746Y-63471D01*
X-88870Y-63771D01*
Y-64717D01*
X-88508Y-65591D01*
X-87839Y-66260D01*
X-86965Y-66622D01*
X-86264D01*
Y-68590D01*
X-80721D01*
Y-63441D01*
X-80721Y-63441D01*
X-80721D01*
X-80711Y-62945D01*
X-80438Y-62536D01*
X-80268Y-61685D01*
Y-56567D01*
X-80438Y-55716D01*
X-80920Y-54994D01*
X-81641Y-54512D01*
X-82492Y-54343D01*
D02*
G37*
G36*
X-81081Y-70376D02*
X-82953D01*
Y-72051D01*
X-81081D01*
Y-70376D01*
D02*
G37*
G36*
X-83953D02*
X-85824D01*
Y-72051D01*
X-83953D01*
Y-70376D01*
D02*
G37*
%LPD*%
D11*
X-109992Y-58996D02*
G03*
X-107857Y-64151I7290J0D01*
G01*
X-50958Y-105644D02*
G03*
X-49992Y-105244I0J1366D01*
G01*
X-51199Y-89744D02*
G03*
X-49992Y-89244I0J1707D01*
G01*
X-66234Y-14516D02*
G03*
X-67992Y-15244I0J-2487D01*
G01*
X-67142Y-4594D02*
G03*
X-74213Y-1665I-7071J-7071D01*
G01*
X-79185Y49674D02*
G03*
X-77149Y44760I6950J0D01*
G01*
X-75114Y42724D02*
G03*
X-68043Y39795I7071J7071D01*
G01*
X-50234Y-100344D02*
G03*
X-49992Y-100244I0J341D01*
G01*
X-53039Y-94744D02*
G03*
X-53764Y-95044I0J-1024D01*
G01*
X-36185Y-156205D02*
G03*
X-36224Y-156300I95J-95D01*
G01*
X-29185Y-156205D02*
G03*
X-30224Y-158714I2509J-2509D01*
G01*
X-42185Y-156205D02*
G03*
X-42224Y-156300I95J-95D01*
G01*
X-50475Y-110944D02*
G03*
X-49992Y-110744I0J683D01*
G01*
X-54185Y-156205D02*
G03*
X-54224Y-156300I95J-95D01*
G01*
X-48185Y-156205D02*
G03*
X-48224Y-156300I95J-95D01*
G01*
X-60185Y-156205D02*
G03*
X-60224Y-156300I95J-95D01*
G01*
X-74457Y-158426D02*
G03*
X-75685Y-155461I-4193J0D01*
G01*
X-87492Y-59126D02*
G03*
X-85449Y-64059I6977J0D01*
G01*
X-42492Y-58996D02*
G03*
X-40357Y-64151I7290J0D01*
G01*
X-73835Y-21087D02*
G03*
X-76337Y-27126I6039J-6039D01*
G01*
X-64992Y-59126D02*
G03*
X-60782Y-65530I6977J0D01*
G01*
X-107857Y-64151D02*
X-105992Y-66016D01*
X-54276Y-105644D02*
X-50958D01*
X-86500Y-4000D02*
X-86418Y-4082D01*
X-83201Y-2689D02*
X-82413Y-1902D01*
X-84869Y-2689D02*
X-83201D01*
X-86500Y-4000D02*
X-86180D01*
X-82413Y-1902D02*
Y-1705D01*
X-86180Y-4000D02*
X-84869Y-2689D01*
X-86418Y-8540D02*
X-86337Y-8622D01*
X-86418Y-8540D02*
Y-4082D01*
X-73835Y-21087D02*
X-67992Y-15244D01*
X-54276Y-89744D02*
X-51199D01*
X-66234Y-14516D02*
X-64492D01*
X-75878Y-1665D02*
X-74213D01*
X-79185Y49674D02*
Y50039D01*
X-77149Y44760D02*
X-75114Y42724D01*
X-68043Y39795D02*
X-66185D01*
X-53039Y-94744D02*
X-49992D01*
X-53764Y-100344D02*
X-50234D01*
X-67142Y-4594D02*
X-66992Y-4744D01*
X-30224Y-160398D02*
Y-158714D01*
X-36224Y-160398D02*
Y-156300D01*
X-42224Y-160398D02*
Y-156300D01*
X-53764Y-110944D02*
X-50475D01*
X-54224Y-160398D02*
Y-156300D01*
X-48224Y-160398D02*
Y-156300D01*
X-60224Y-160398D02*
Y-156300D01*
X-144433Y-157705D02*
X-132185D01*
X-122068Y-150359D02*
X-121685Y-149976D01*
X-132185Y-157705D02*
X-124840Y-150359D01*
X-122068D01*
X-120972Y-150492D02*
X-119701Y-149221D01*
X-118185Y-92476D02*
Y-89705D01*
X-118146Y-115846D02*
Y-99012D01*
X-120185Y-117885D02*
X-118146Y-115846D01*
X-120185Y-118205D02*
Y-117885D01*
X-124146Y-127823D02*
X-119701Y-132268D01*
X-124146Y-127823D02*
Y-113512D01*
X-119701Y-133744D02*
Y-132268D01*
X-74457Y-161205D02*
Y-158426D01*
X-119701Y-125244D02*
Y-119009D01*
X-120185Y-118524D02*
X-119701Y-119009D01*
X-120185Y-118524D02*
Y-118205D01*
X-163760Y-177032D02*
X-144433Y-157705D01*
X-119701Y-149221D02*
Y-133744D01*
X-137933Y-161205D02*
X-114185D01*
X-153760Y-177032D02*
X-137933Y-161205D01*
X-114185D02*
X-112240Y-159260D01*
X-124933Y-168205D02*
X-112185D01*
X-105842Y-161862D01*
X-133760Y-177032D02*
X-124933Y-168205D01*
X-131933Y-165205D02*
X-113185D01*
X-108992Y-161012D01*
X-143760Y-177032D02*
X-131933Y-165205D01*
X-105842Y-161862D02*
Y-156744D01*
X-112240Y-156843D02*
X-112142Y-156744D01*
X-112240Y-159260D02*
Y-156843D01*
X-101291Y-161811D02*
Y-156744D01*
X-117933Y-171205D02*
X-110685D01*
X-101291Y-161811D01*
X-113760Y-177032D02*
X-112931Y-176203D01*
X-110683D01*
X-98142Y-163661D02*
Y-156744D01*
X-110683Y-176203D02*
X-98142Y-163661D01*
X-103760Y-177032D02*
Y-175860D01*
X-102452Y-174552D01*
Y-173972D01*
X-94992Y-166512D02*
Y-156744D01*
X-102452Y-173972D02*
X-94992Y-166512D01*
X-93685Y-170205D02*
X-91843Y-168362D01*
Y-156744D01*
X-93685Y-176957D02*
Y-170205D01*
X-93760Y-177032D02*
X-93685Y-176957D01*
X-123760Y-177032D02*
X-123760D01*
X-117933Y-171205D01*
X-108992Y-161012D02*
Y-156744D01*
X-79185Y59795D02*
X-79185Y59795D01*
Y55551D02*
Y59795D01*
D14*
X-129894Y78295D02*
X-128110Y76512D01*
Y72441D02*
Y76512D01*
X-114685Y40795D02*
Y64174D01*
X-45614Y40795D02*
Y64174D01*
D15*
X-114685Y40795D02*
Y64174D01*
D18*
X-82492Y-40622D02*
D03*
X-87492D02*
D03*
X-92492D02*
D03*
X-97492D02*
D03*
X-82492Y-59126D02*
D03*
X-87492D02*
D03*
X-92492D02*
D03*
X-97492D02*
D03*
X-119992Y-58996D02*
D03*
X-114992D02*
D03*
X-109992D02*
D03*
X-104992D02*
D03*
X-119992Y-40492D02*
D03*
X-114992D02*
D03*
X-109992D02*
D03*
X-104992D02*
D03*
X-52492Y-58996D02*
D03*
X-47492D02*
D03*
X-42492D02*
D03*
X-37492D02*
D03*
X-52492Y-40492D02*
D03*
X-47492D02*
D03*
X-42492D02*
D03*
X-37492D02*
D03*
X-74992Y-59126D02*
D03*
X-69992D02*
D03*
X-64992D02*
D03*
X-59992D02*
D03*
X-74992Y-40622D02*
D03*
X-69992D02*
D03*
X-64992D02*
D03*
X-59992D02*
D03*
X-86337Y-27126D02*
D03*
X-81337D02*
D03*
X-76337D02*
D03*
X-71337D02*
D03*
X-86337Y-8622D02*
D03*
X-81337D02*
D03*
X-76337D02*
D03*
X-71337D02*
D03*
D19*
X-30185Y-166933D02*
D03*
X-30224Y-160398D02*
D03*
X-36185Y-166933D02*
D03*
X-36224Y-160398D02*
D03*
X-42185Y-166933D02*
D03*
X-42224Y-160398D02*
D03*
X-48185Y-166933D02*
D03*
X-48224Y-160398D02*
D03*
X-54185Y-166933D02*
D03*
X-54224Y-160398D02*
D03*
X-60185Y-166933D02*
D03*
X-60224Y-160398D02*
D03*
X-118146Y-99012D02*
D03*
X-118185Y-92476D02*
D03*
X-124146Y-113512D02*
D03*
X-124185Y-106976D02*
D03*
X-121646Y-156512D02*
D03*
X-121685Y-149976D02*
D03*
X-105953Y-72551D02*
D03*
X-105992Y-66016D02*
D03*
X-83453Y-72551D02*
D03*
X-83492Y-66016D02*
D03*
X-60953Y-72551D02*
D03*
X-60992Y-66016D02*
D03*
X-38453Y-72551D02*
D03*
X-38492Y-66016D02*
D03*
X-64453Y-20551D02*
D03*
X-64492Y-14016D02*
D03*
X-121031Y-26937D02*
D03*
X-120992Y-33472D02*
D03*
X-98532Y-26937D02*
D03*
X-98492Y-33472D02*
D03*
X-64531Y-26437D02*
D03*
X-64492Y-32972D02*
D03*
X-53531Y-26937D02*
D03*
X-53492Y-33472D02*
D03*
X-75685Y-149949D02*
D03*
Y-155461D02*
D03*
X-53685Y-127461D02*
D03*
Y-121949D02*
D03*
X-44492Y-127500D02*
D03*
Y-121988D02*
D03*
X-79185Y55551D02*
D03*
Y50039D02*
D03*
X-99992Y-20500D02*
D03*
Y-14988D02*
D03*
X-93492Y-20500D02*
D03*
Y-14988D02*
D03*
D20*
X-60299Y-110983D02*
D03*
X-53764Y-110944D02*
D03*
X-96185Y-124205D02*
D03*
X-102720Y-124244D02*
D03*
X-96185Y-130205D02*
D03*
X-102720Y-130244D02*
D03*
X-60299Y-95083D02*
D03*
X-53764Y-95044D02*
D03*
X-60299Y-100383D02*
D03*
X-53764Y-100344D02*
D03*
X-75878Y-1665D02*
D03*
X-82413Y-1705D02*
D03*
X-59787Y-89744D02*
D03*
X-54276D02*
D03*
X-59787Y-105644D02*
D03*
X-54276D02*
D03*
D21*
X-108283Y-125244D02*
D03*
X-119701D02*
D03*
X-108283Y-133744D02*
D03*
X-119701D02*
D03*
D22*
X-115291Y-156744D02*
D03*
Y-150445D02*
D03*
X-112142Y-156744D02*
D03*
X-105842D02*
D03*
X-108992D02*
D03*
Y-150445D02*
D03*
X-105842D02*
D03*
X-112142D02*
D03*
X-101291Y-156744D02*
D03*
X-98142D02*
D03*
X-91843D02*
D03*
X-94992D02*
D03*
Y-150445D02*
D03*
X-91843D02*
D03*
X-98142D02*
D03*
X-101291D02*
D03*
D23*
X-78554Y-84244D02*
D03*
X-90368D02*
D03*
X-94306Y-117894D02*
D03*
X-92337D02*
D03*
X-78554D02*
D03*
X-76585D02*
D03*
X-80523D02*
D03*
X-82492D02*
D03*
X-84461D02*
D03*
X-86430D02*
D03*
X-88399D02*
D03*
X-90368D02*
D03*
X-96275D02*
D03*
X-98244D02*
D03*
Y-84244D02*
D03*
X-96275D02*
D03*
X-94306D02*
D03*
X-92337D02*
D03*
X-88399D02*
D03*
X-86430D02*
D03*
X-84461D02*
D03*
X-82492D02*
D03*
X-80523D02*
D03*
X-76585D02*
D03*
D24*
X-104240Y-92209D02*
D03*
Y-96147D02*
D03*
Y-98116D02*
D03*
Y-104023D02*
D03*
Y-105992D02*
D03*
Y-107961D02*
D03*
Y-109930D02*
D03*
X-70590D02*
D03*
Y-107961D02*
D03*
Y-105992D02*
D03*
Y-104023D02*
D03*
Y-102054D02*
D03*
Y-100085D02*
D03*
Y-98116D02*
D03*
Y-96147D02*
D03*
Y-94178D02*
D03*
Y-92209D02*
D03*
Y-90240D02*
D03*
Y-111899D02*
D03*
X-104240D02*
D03*
Y-102054D02*
D03*
Y-100085D02*
D03*
Y-94178D02*
D03*
Y-90240D02*
D03*
D25*
X-73961Y-67244D02*
D03*
X-70024D02*
D03*
X-96461Y-67244D02*
D03*
X-92524D02*
D03*
D26*
X-49476Y78795D02*
D03*
X-60894D02*
D03*
X-118476Y78295D02*
D03*
X-129894D02*
D03*
X-26779Y78795D02*
D03*
X-38591D02*
D03*
X-95780Y78295D02*
D03*
X-107591D02*
D03*
D38*
X-65575Y-34556D02*
G03*
X-67492Y-39183I4628J-4628D01*
G01*
X-67959Y-44759D02*
G03*
X-67492Y-42623I-4654J2136D01*
G01*
X-70337Y-45744D02*
G03*
X-67959Y-44759I0J3362D01*
G01*
X-90563Y-4583D02*
G03*
X-93492Y-11654I7071J-7071D01*
G01*
X-70513Y15467D02*
G03*
X-67685Y22295I-6828J6828D01*
G01*
X-97926Y-49746D02*
G03*
X-99573Y-53724I3983J-3978D01*
G01*
X-92063Y-51815D02*
G03*
X-94992Y-58886I7071J-7071D01*
G01*
X-97924Y-49744D02*
G03*
X-97926Y-49746I3980J-3980D01*
G01*
X-94299Y-46119D02*
G03*
X-94292Y-46112I-915J922D01*
G01*
X-86812Y-20500D02*
G03*
X-83685Y-19205I0J4422D01*
G01*
D02*
G03*
X-81337Y-13535I-5670J5670D01*
G01*
X-84685Y9381D02*
G03*
X-85685Y11795I-3414J0D01*
G01*
X-84938Y6419D02*
G03*
X-84685Y8545I-8800J2126D01*
G01*
X-85958Y3917D02*
G03*
X-84938Y6419I-7781J4629D01*
G01*
X-87337Y2144D02*
G03*
X-85958Y3917I-6402J6402D01*
G01*
X-85685Y11795D02*
G03*
X-91721Y14295I-6036J-6036D01*
G01*
X-116114Y17224D02*
G03*
X-109043Y14295I7071J7071D01*
G01*
X-97063Y-7583D02*
G03*
X-99992Y-14654I7071J-7071D01*
G01*
X-65492Y-101244D02*
G03*
X-66652Y-100085I-1159J0D01*
G01*
X-66302Y-102054D02*
G03*
X-65492Y-101244I0J809D01*
G01*
Y-106744D02*
G03*
X-66245Y-105992I-752J0D01*
G01*
X-65492Y-93244D02*
G03*
X-67992Y-92209I-2500J-2500D01*
G01*
X-67746Y-94178D02*
G03*
X-65492Y-93244I0J3187D01*
G01*
X-75178Y-109930D02*
G03*
X-75492Y-110244I0J-314D01*
G01*
X-78554Y-122182D02*
G03*
X-76992Y-123744I1562J0D01*
G01*
X-89992Y-79244D02*
G03*
X-90368Y-80152I908J-908D01*
G01*
X-62638Y-122390D02*
G03*
X-60299Y-116744I-5646J5646D01*
G01*
X-72756Y-132508D02*
G03*
X-75685Y-139579I7071J-7071D01*
G01*
X-60299Y-100284D02*
G03*
X-65533Y-98116I-5234J-5234D01*
G01*
X-60299Y-104408D02*
G03*
X-59787Y-105644I1747J0D01*
G01*
X-108771Y-104023D02*
G03*
X-109992Y-105244I0J-1221D01*
G01*
D02*
G03*
X-109245Y-105992I747J0D01*
G01*
X-108283Y-126744D02*
G03*
X-107783Y-127244I500J0D01*
G01*
X-99224D02*
G03*
X-96185Y-124205I0J3039D01*
G01*
D02*
G03*
X-94306Y-122326I0J1879D01*
G01*
X-63590Y-96147D02*
G03*
X-60299Y-94784I0J4654D01*
G01*
X-59787Y-89744D02*
G03*
X-60299Y-90980I1236J-1236D01*
G01*
X-102492Y-119744D02*
G03*
X-102720Y-119972I0J-228D01*
G01*
X-78992Y-89244D02*
G03*
X-78554Y-88187I-1057J1057D01*
G01*
X-109992Y-109244D02*
G03*
X-109307Y-109930I685J0D01*
G01*
X-108709Y-107961D02*
G03*
X-109992Y-109244I0J-1283D01*
G01*
X-96185Y-129705D02*
G03*
X-92337Y-125857I0J3848D01*
G01*
X-102724Y-136744D02*
G03*
X-96331Y-131577I0J6539D01*
G01*
X-107034Y-136494D02*
G03*
X-105992Y-136744I1042J2041D01*
G01*
X-108033Y-135495D02*
G03*
X-107034Y-136494I2041J1042D01*
G01*
X-108283Y-134453D02*
G03*
X-108033Y-135495I2291J0D01*
G01*
X-109992Y-97744D02*
G03*
X-109621Y-98116I372J0D01*
G01*
X-108395Y-96147D02*
G03*
X-109992Y-97744I0J-1598D01*
G01*
X-102720Y-130244D02*
G03*
X-102992Y-130516I0J-272D01*
G01*
X-60831Y-134607D02*
G03*
X-63760Y-141677I7071J-7071D01*
G01*
X-53685Y-121949D02*
G03*
X-53590Y-121988I95J95D01*
G01*
X-96275Y-112961D02*
G03*
X-96492Y-112744I-217J0D01*
G01*
X-99573Y-68282D02*
G03*
X-98242Y-71494I4543J0D01*
G01*
X-100992Y-67916D02*
G03*
X-98992Y-72744I6828J0D01*
G01*
X-102492Y-67842D02*
G03*
X-100204Y-73369I7821J0D01*
G01*
D02*
G03*
X-100201Y-73372I5533J5527D01*
G01*
X-93989Y-75747D02*
G03*
X-93992Y-75744I-3998J-3993D01*
G01*
X-92524Y-67244D02*
G03*
X-90778Y-71458I5959J0D01*
G01*
X-96461Y-67244D02*
G03*
X-95378Y-69858I3697J0D01*
G01*
X-93024Y-67244D02*
G03*
X-92492Y-65961I-1283J1283D01*
G01*
X-96461Y-67244D02*
G03*
X-94992Y-63699I-3545J3545D01*
G01*
X-97909Y-75664D02*
G03*
X-97911Y-75663I-3950J-3948D01*
G01*
X-79563Y-74815D02*
G03*
X-82492Y-81886I7071J-7071D01*
G01*
X-77594Y-75846D02*
G03*
X-80523Y-82917I7071J-7071D01*
G01*
X-84461Y-80647D02*
G03*
X-86492Y-75744I-6934J0D01*
G01*
X-73961Y-67244D02*
G03*
X-72492Y-63699I-3545J3545D01*
G01*
X-75353Y-70604D02*
G03*
X-73961Y-67244I-3360J3360D01*
G01*
X-99034Y-49016D02*
G03*
X-100992Y-53744I4728J-4728D01*
G01*
X-102492Y-54572D02*
G03*
X-104492Y-49744I-6828J0D01*
G01*
X-96275Y-79612D02*
G03*
X-97909Y-75664I-5585J0D01*
G01*
X-94306Y-79744D02*
G03*
X-95942Y-75794I-5587J0D01*
G01*
X-92337Y-79740D02*
G03*
X-93989Y-75747I-5650J0D01*
G01*
X-86430Y-82429D02*
G03*
X-88992Y-76244I-8747J0D01*
G01*
X-96316Y-46299D02*
G03*
X-96314Y-46296I-3197J3197D01*
G01*
X-94162Y-45963D02*
G03*
X-92613Y-42800I-5042J4431D01*
G01*
X-94292Y-46112D02*
G03*
X-94187Y-45993I-922J915D01*
G01*
X-92613Y-42800D02*
G03*
X-92492Y-41532I-6591J1268D01*
G01*
X-89992Y-49744D02*
G03*
X-87492Y-43709I-6036J6036D01*
G01*
X-94162Y-45963D02*
G03*
X-94187Y-45993I603J-524D01*
G01*
X-96314Y-46296D02*
G03*
X-94992Y-43102I-3200J3195D01*
G01*
X-109992Y-41769D02*
G03*
X-109705Y-43599I5975J0D01*
G01*
D02*
G03*
X-108245Y-45991I5688J1830D01*
G01*
D02*
G03*
X-108242Y-45994I4228J4222D01*
G01*
X-44492Y-82886D02*
G03*
X-46959Y-76309I-10000J0D01*
G01*
X-47492Y-74547D02*
G03*
X-46959Y-76309I3181J0D01*
G01*
D02*
G03*
X-46560Y-76796I2649J1762D01*
G01*
X-44992Y-139244D02*
G03*
X-44492Y-138037I-1207J1207D01*
G01*
X-50421Y-47673D02*
G03*
X-47492Y-40602I-7071J7071D01*
G01*
X-44992Y-49244D02*
G03*
X-47492Y-55280I6036J-6036D01*
G01*
X-53063Y-50315D02*
G03*
X-56492Y-58593I8278J-8278D01*
G01*
X-44992Y-49244D02*
G03*
X-42748Y-43826I-5418J5418D01*
G01*
X-89664Y-33744D02*
G03*
X-93969Y-35272I0J-6828D01*
G01*
D02*
G03*
X-94992Y-37742I2470J-2470D01*
G01*
X-69563Y-51815D02*
G03*
X-72492Y-58886I7071J-7071D01*
G01*
X-70492Y-35244D02*
G03*
X-74114Y-33744I-3621J-3621D01*
G01*
X-69992Y-36451D02*
G03*
X-70492Y-35244I-1707J0D01*
G01*
X-67492Y-49744D02*
G03*
X-64992Y-43709I-6036J6036D01*
G01*
X-78992Y-92244D02*
G03*
X-76432Y-91183I0J3621D01*
G01*
X-86395Y-90600D02*
G03*
X-80902Y-92244I5493J8356D01*
G01*
X-88399Y-87837D02*
G03*
X-88025Y-89263I2907J0D01*
G01*
X-87973Y-89315D02*
G03*
X-86395Y-90600I7071J7071D01*
G01*
X-78992Y-17036D02*
G03*
X-76492Y-11001I-6036J6036D01*
G01*
X-78992Y-17036D02*
G03*
X-81492Y-23072I6036J-6036D01*
G01*
X-70639Y-68883D02*
G03*
X-70024Y-67244I-1875J1639D01*
G01*
X-74992Y-41372D02*
G03*
X-73669Y-44568I4519J0D01*
G01*
X-70753Y-69005D02*
G03*
X-70639Y-68883I-1761J1761D01*
G01*
X-66134Y-86244D02*
G03*
X-59063Y-83315I0J10000D01*
G01*
X-58992Y-83244D02*
G03*
X-56492Y-77209I-6036J6036D01*
G01*
X-68664Y-86244D02*
G03*
X-73492Y-88244I0J-6828D01*
G01*
X-67492Y-42623D02*
Y-39183D01*
X-71914Y-45744D02*
X-70337D01*
X-90563Y-4583D02*
X-70513Y15467D01*
X-90563Y-12937D02*
Y-4583D01*
Y-12937D02*
X-87500Y-16000D01*
X-99573Y-68282D02*
Y-53724D01*
X-114992Y-56463D02*
X-112889Y-54360D01*
X-112862D01*
X-114992Y-58996D02*
Y-56463D01*
X-96500Y-53882D02*
Y-50506D01*
X-97262Y-49744D02*
X-96500Y-50506D01*
X-97924Y-49744D02*
X-97262D01*
X-92063Y-51815D02*
X-89992Y-49744D01*
X-95378Y-69858D02*
X-95378Y-69858D01*
X-97924Y-49744D02*
X-94299Y-46119D01*
X-94292Y-46112D01*
X-70539Y-108011D02*
X-67879D01*
X-66278Y-109611D02*
X-61474D01*
X-67879Y-108011D02*
X-66278Y-109611D01*
X-70590Y-107961D02*
X-70539Y-108011D01*
X-64714Y-104023D02*
X-62789Y-105948D01*
Y-108297D02*
Y-105948D01*
X-61474Y-109611D02*
X-60299Y-110787D01*
X-62789Y-108297D02*
X-61474Y-109611D01*
X-60299Y-110983D02*
Y-110787D01*
X-70590Y-104023D02*
X-64714D01*
X-60299Y-116744D02*
Y-110983D01*
X-114291Y-139782D02*
Y-104043D01*
X-110333Y-100085D01*
X-97644Y74796D02*
Y76431D01*
X-97756Y72295D02*
Y74683D01*
X-97644Y76431D02*
X-95780Y78295D01*
X-97756Y74683D02*
X-97644Y74796D01*
X-60894Y78795D02*
X-59039Y76941D01*
Y72441D02*
Y76941D01*
X-28685Y74872D02*
X-28644Y74913D01*
X-28685Y72295D02*
Y74872D01*
X-28644Y76931D02*
X-26779Y78795D01*
X-28644Y74913D02*
Y76931D01*
X-42455Y41526D02*
Y73652D01*
Y97806D01*
X-39091Y77516D02*
Y78795D01*
X-42455Y73652D02*
X-38591Y77516D01*
X-45614Y73653D02*
Y97720D01*
Y64174D02*
Y73653D01*
X-49476Y77516D02*
Y78795D01*
Y77516D02*
X-45614Y73653D01*
X-47685Y99791D02*
Y100724D01*
Y99791D02*
X-45614Y97720D01*
X-42685Y38295D02*
Y41295D01*
X-42455Y41526D01*
X-111526D02*
Y73080D01*
X-107591Y77016D02*
Y78295D01*
X-111526Y73080D02*
X-107591Y77016D01*
X-114685Y73224D02*
Y97720D01*
Y64174D02*
Y73224D01*
X-118476Y77016D02*
X-114685Y73224D01*
X-118476Y77016D02*
Y78295D01*
X-116756Y99791D02*
Y100724D01*
Y99791D02*
X-114685Y97720D01*
X-111526Y73080D02*
Y97806D01*
X-93492Y-20500D02*
X-86812D01*
X-81337Y-13535D02*
Y-8622D01*
X-84685Y8545D02*
Y9381D01*
X-97063Y-7583D02*
X-87337Y2144D01*
X-109043Y14295D02*
X-91721D01*
X-117685Y18795D02*
X-116114Y17224D01*
X-116185Y17795D02*
X-116114Y17724D01*
X-99992Y-14988D02*
Y-14654D01*
X-93492Y-14988D02*
Y-11654D01*
X-111526Y97806D02*
X-109685Y99647D01*
X-42455Y97806D02*
X-40614Y99647D01*
X-70590Y-94178D02*
X-67746D01*
X-70590Y-92209D02*
X-67992D01*
X-70590Y-100085D02*
X-66652D01*
X-70590Y-102054D02*
X-66302D01*
X-70590Y-105992D02*
X-66245D01*
X-75178Y-109930D02*
X-70590D01*
X-90368Y-84244D02*
Y-80152D01*
X-78554Y-122182D02*
Y-117894D01*
X-59185Y72295D02*
X-59039Y72441D01*
X-45614Y36866D02*
Y40795D01*
X-47185Y35295D02*
X-45614Y36866D01*
X-40614Y99647D02*
Y100724D01*
X-117685Y20295D02*
Y32295D01*
X-72756Y-132508D02*
X-62638Y-122390D01*
X-75685Y-149949D02*
Y-139579D01*
X-60299Y-104408D02*
Y-100383D01*
X-70590Y-98116D02*
X-65533D01*
X-108771Y-104023D02*
X-104240D01*
X-109245Y-105992D02*
X-104240D01*
X-107783Y-127244D02*
X-99224D01*
X-94306Y-122326D02*
Y-117894D01*
X-108957Y-92209D02*
X-104240D01*
X-108992Y-92244D02*
X-108957Y-92209D01*
X-60299Y-95083D02*
Y-94784D01*
Y-90980D01*
X-70590Y-96147D02*
X-63590D01*
X-102720Y-124244D02*
Y-119972D01*
X-78554Y-88187D02*
Y-84244D01*
X-109307Y-109930D02*
X-104240D01*
X-108709Y-107961D02*
X-104240D01*
X-92337Y-125857D02*
Y-117894D01*
X-96331Y-131577D02*
X-96185Y-130205D01*
X-105992Y-136744D02*
X-102724D01*
X-108283Y-134453D02*
Y-133744D01*
X-109621Y-98116D02*
X-104240D01*
X-108395Y-96147D02*
X-104240D01*
X-102992Y-134244D02*
Y-130516D01*
X-60831Y-134607D02*
X-53685Y-127461D01*
X-63760Y-177032D02*
Y-141677D01*
X-44492Y-121988D02*
Y-82886D01*
X-53590Y-121988D02*
X-44492D01*
X-86430Y-128182D02*
Y-117894D01*
X-80523Y-128275D02*
Y-117894D01*
X-84461Y-128213D02*
Y-117894D01*
X-82492Y-128244D02*
Y-117894D01*
X-88399Y-128151D02*
Y-117894D01*
X-105842Y-150445D02*
Y-145595D01*
X-94992Y-150445D02*
Y-140744D01*
X-101291Y-150445D02*
Y-143043D01*
X-98142Y-150445D02*
Y-141894D01*
X-91843Y-150445D02*
Y-139594D01*
X-108992Y-150445D02*
Y-143244D01*
X-112161Y-150426D02*
Y-141913D01*
Y-150426D02*
X-112142Y-150445D01*
X-101291Y-143043D02*
X-86430Y-128182D01*
X-94992Y-140744D02*
X-82492Y-128244D01*
X-91843Y-139594D02*
X-80523Y-128275D01*
X-98142Y-141894D02*
X-84461Y-128213D01*
X-105842Y-145595D02*
X-88399Y-128151D01*
X-96275Y-117894D02*
Y-112961D01*
X-114291Y-139782D02*
X-112161Y-141913D01*
X-112992Y-104744D02*
X-110302Y-102054D01*
X-112992Y-139244D02*
Y-104744D01*
Y-139244D02*
X-108992Y-143244D01*
X-110333Y-100085D02*
X-104240D01*
X-110302Y-102054D02*
X-104240D01*
X-102492Y-67842D02*
Y-54572D01*
X-100992Y-67916D02*
Y-53744D01*
X-79563Y-74815D02*
X-75353Y-70604D01*
X-90778Y-71458D02*
X-86492Y-75744D01*
X-95378Y-69858D02*
X-88992Y-76244D01*
X-92492Y-65961D02*
Y-60374D01*
X-94992Y-63699D02*
Y-58886D01*
X-98242Y-71494D02*
X-93992Y-75744D01*
X-98992Y-72744D02*
X-95942Y-75794D01*
X-100201Y-73372D02*
X-97911Y-75663D01*
X-80523Y-84207D02*
X-80489Y-84241D01*
X-80523Y-84244D02*
Y-84207D01*
Y-82917D01*
X-84461Y-84244D02*
Y-80647D01*
X-82492Y-84244D02*
Y-81886D01*
X-72492Y-63699D02*
Y-58886D01*
X-73669Y-44568D02*
X-72901Y-45336D01*
X-96275Y-84244D02*
Y-79612D01*
X-94306Y-84244D02*
Y-79744D01*
X-92337Y-84244D02*
Y-79740D01*
X-86430Y-84244D02*
Y-82429D01*
X-99034Y-49016D02*
X-96316Y-46299D01*
X-108242Y-45994D02*
X-104492Y-49744D01*
X-47492Y-74547D02*
Y-58996D01*
X-44992Y-127744D02*
X-44492Y-128244D01*
X-44492Y-128244D01*
X-44492Y-128244D02*
Y-127500D01*
Y-138037D02*
Y-128244D01*
X-47492Y-58996D02*
Y-55280D01*
Y-40602D02*
Y-40492D01*
X-53063Y-50315D02*
X-50421Y-47673D01*
X-99992Y-20500D02*
X-93492D01*
X-87492Y-43709D02*
Y-39114D01*
X-92613Y-40743D02*
X-92492Y-40622D01*
Y-41532D02*
Y-40622D01*
X-92613Y-42800D02*
Y-40743D01*
X-89664Y-33744D02*
X-78992D01*
X-81337Y-33369D02*
Y-27126D01*
X-109992Y-41769D02*
Y-40492D01*
X-94992Y-43102D02*
Y-37742D01*
X-69563Y-51815D02*
X-67492Y-49744D01*
X-64992Y-43709D02*
Y-39244D01*
X-78992Y-33744D02*
X-74114D01*
X-69992Y-40622D02*
Y-36451D01*
X-77594Y-75846D02*
X-70753Y-69005D01*
X-81492Y-27796D02*
Y-23072D01*
X-76432Y-91183D02*
X-73492Y-88244D01*
X-80902Y-92244D02*
X-78992D01*
X-88399Y-87837D02*
Y-84244D01*
X-88025Y-89263D02*
X-87973Y-89315D01*
X-88025Y-89263D02*
X-88025Y-89263D01*
X-81337Y-8622D02*
Y-5744D01*
X-65575Y-34556D02*
X-64492Y-33472D01*
X-70024Y-67244D02*
X-69992Y-67213D01*
Y-60504D01*
X-56492Y-77209D02*
Y-58593D01*
X-59063Y-83315D02*
X-58992Y-83244D01*
X-68664Y-86244D02*
X-66134D01*
D39*
X-95378Y-69858D02*
D03*
D40*
X-41988Y-166933D02*
X-31890Y-177032D01*
X-23760D01*
X-42185Y-166933D02*
X-41988D01*
X-43216Y-171705D02*
X-39087D01*
X-33760Y-177032D01*
X-48185Y-166933D02*
X-47988D01*
X-43216Y-171705D01*
X-53988Y-166933D02*
X-43890Y-177032D01*
X-54185Y-166933D02*
X-53988D01*
X-43890Y-177032D02*
X-43760D01*
X-60185Y-170606D02*
X-53760Y-177032D01*
X-60185Y-170606D02*
Y-166933D01*
X-35988D02*
X-31216Y-171705D01*
X-19685D01*
X-36185Y-166933D02*
X-35988D01*
X-19685Y-171705D02*
X-14358Y-177032D01*
X-13760D01*
X-13858Y-166933D02*
X-3760Y-177032D01*
X-30185Y-166933D02*
X-13858D01*
X-53760Y-177032D02*
Y-175966D01*
X-125685Y-156705D02*
X-125589Y-156608D01*
X-121742D02*
X-121646Y-156512D01*
X-125589Y-156608D02*
X-121742D01*
X-124185Y-106976D02*
Y-102705D01*
D41*
X-163760Y190921D02*
D03*
Y180921D02*
D03*
X-153760Y190921D02*
D03*
Y180921D02*
D03*
X-143760Y190921D02*
D03*
Y180921D02*
D03*
X-133760Y190921D02*
D03*
Y180921D02*
D03*
X-123760Y190921D02*
D03*
Y180921D02*
D03*
X-113760Y190921D02*
D03*
Y180921D02*
D03*
X-103760Y190921D02*
D03*
Y180921D02*
D03*
X-93760Y190921D02*
D03*
Y180921D02*
D03*
X-83760Y190921D02*
D03*
Y180921D02*
D03*
X-73760Y190921D02*
D03*
Y180921D02*
D03*
X-63760Y190921D02*
D03*
Y180921D02*
D03*
X-53760Y190921D02*
D03*
Y180921D02*
D03*
X-43760Y190921D02*
D03*
Y180921D02*
D03*
X-33760Y190921D02*
D03*
Y180921D02*
D03*
X-23760Y190921D02*
D03*
Y180921D02*
D03*
X-13760Y190921D02*
D03*
Y180921D02*
D03*
X-3760Y190921D02*
D03*
Y180921D02*
D03*
X6240Y190921D02*
D03*
X-163760Y-177032D02*
D03*
Y-187031D02*
D03*
X-153760Y-177032D02*
D03*
Y-187031D02*
D03*
X-143760Y-177032D02*
D03*
Y-187031D02*
D03*
X-133760Y-177032D02*
D03*
Y-187031D02*
D03*
X-123760Y-177032D02*
D03*
Y-187031D02*
D03*
X-113760Y-177032D02*
D03*
Y-187031D02*
D03*
X-103760Y-177032D02*
D03*
Y-187031D02*
D03*
X-93760Y-177032D02*
D03*
Y-187031D02*
D03*
X-83760Y-177032D02*
D03*
Y-187031D02*
D03*
X-73760Y-177032D02*
D03*
Y-187031D02*
D03*
X-63760Y-177032D02*
D03*
Y-187031D02*
D03*
X-53760Y-177032D02*
D03*
Y-187031D02*
D03*
X-43760Y-177032D02*
D03*
Y-187031D02*
D03*
X-33760Y-177032D02*
D03*
Y-187031D02*
D03*
X-23760Y-177032D02*
D03*
Y-187031D02*
D03*
X-13760Y-177032D02*
D03*
Y-187031D02*
D03*
X-3760Y-177032D02*
D03*
Y-187031D02*
D03*
X6240Y-177032D02*
D03*
D42*
Y180921D02*
D03*
Y-187031D02*
D03*
D43*
X-44992Y-139244D02*
D03*
X-39992Y-144244D02*
D03*
Y-134244D02*
D03*
X-49992D02*
D03*
Y-144244D02*
D03*
D44*
X-116756Y107795D02*
D03*
X-109685D02*
D03*
Y100724D02*
D03*
X-116756D02*
D03*
X-47685Y107795D02*
D03*
X-40614D02*
D03*
Y100724D02*
D03*
X-47685D02*
D03*
D45*
X-78000Y-30000D02*
D03*
X-77000Y-79500D02*
D03*
X-67000Y-79000D02*
D03*
X-87500Y-16000D02*
D03*
X-77500Y-19500D02*
D03*
X-86500Y-4000D02*
D03*
X-39185Y91795D02*
D03*
X-48685D02*
D03*
X-117685D02*
D03*
X-108185D02*
D03*
X-128110Y72441D02*
D03*
X-97756Y72295D02*
D03*
X-59039Y72441D02*
D03*
X-28685Y72295D02*
D03*
X-117685Y32295D02*
D03*
X-29185Y-156205D02*
D03*
X-36185D02*
D03*
X-42185D02*
D03*
X-48185D02*
D03*
X-54185D02*
D03*
X-60185D02*
D03*
X-125685Y-156705D02*
D03*
X-118185Y-89205D02*
D03*
X-124185Y-102705D02*
D03*
X-65492Y-101244D02*
D03*
Y-93244D02*
D03*
X-49992Y-94744D02*
D03*
X-109992Y-105244D02*
D03*
X-108992Y-92244D02*
D03*
X-76992Y-123744D02*
D03*
X-102492Y-119744D02*
D03*
X-66992Y-4744D02*
D03*
X-89992Y-79244D02*
D03*
X-65492Y-106744D02*
D03*
X-78992Y-89244D02*
D03*
X-109992Y-109244D02*
D03*
X-49992Y-89244D02*
D03*
X-109992Y-97744D02*
D03*
X-102992Y-134244D02*
D03*
X-75492Y-110244D02*
D03*
X-49992Y-110744D02*
D03*
Y-100244D02*
D03*
X-120185Y-118205D02*
D03*
X-74457Y-161205D02*
D03*
X-79185Y59795D02*
D03*
X-49992Y-105244D02*
D03*
X-119992Y-35887D02*
D03*
X-73492Y-14744D02*
D03*
X-33492Y-72244D02*
D03*
X-38492Y-77744D02*
D03*
X-42992Y-72244D02*
D03*
X-126492Y-26744D02*
D03*
X-120992Y-21744D02*
D03*
X-115992Y-26744D02*
D03*
X-110992Y-70744D02*
D03*
X-96492Y-112744D02*
D03*
X-41492Y-64244D02*
D03*
X-63992D02*
D03*
X-72492Y-19244D02*
D03*
Y-46744D02*
D03*
X-52492Y-35887D02*
D03*
X-57992Y-27244D02*
D03*
X-68992Y-32744D02*
D03*
X-77492Y-68744D02*
D03*
X-64492Y-50744D02*
D03*
X-108992Y-63744D02*
D03*
X-86492Y-64244D02*
D03*
X-97492Y-35887D02*
D03*
X-93492Y-27244D02*
D03*
X-103492Y-26744D02*
D03*
X-106492Y-77244D02*
D03*
X-88492Y-68744D02*
D03*
X-68492Y-21744D02*
D03*
X-53492Y-22244D02*
D03*
X-48492Y-27744D02*
D03*
X-59492Y-77744D02*
D03*
X-66058Y-72744D02*
D03*
X-63492Y-79244D02*
D03*
D46*
X-112862Y-54360D02*
D03*
X-96500Y-53882D02*
D03*
D47*
X-91185Y6295D02*
D03*
D48*
X-18185Y36295D02*
D03*
X-86685Y37795D02*
D03*
X-30185Y25795D02*
D03*
X-94685Y24295D02*
D03*
M02*
