G04*
G04 #@! TF.GenerationSoftware,Altium Limited,Altium Designer,22.4.2 (48)*
G04*
G04 Layer_Physical_Order=2*
G04 Layer_Color=36540*
%FSLAX25Y25*%
%MOIN*%
G70*
G04*
G04 #@! TF.SameCoordinates,D9425D36-0AFB-4970-BFF6-08718D8895E8*
G04*
G04*
G04 #@! TF.FilePolarity,Positive*
G04*
G01*
G75*
%ADD41C,0.05906*%
%ADD42R,0.05906X0.05906*%
%ADD43C,0.05512*%
%ADD44C,0.04780*%
%ADD45C,0.02756*%
%ADD46C,0.02362*%
%ADD47C,0.07874*%
%ADD48C,0.05118*%
%ADD49C,0.03937*%
G36*
X1732Y158911D02*
X3552Y158157D01*
X5190Y157063D01*
X6583Y155670D01*
X7677Y154032D01*
X8431Y152212D01*
X8815Y150280D01*
Y149295D01*
Y26295D01*
Y25310D01*
X8431Y23378D01*
X7677Y21558D01*
X6583Y19921D01*
X5190Y18528D01*
X3552Y17433D01*
X1732Y16680D01*
X-200Y16295D01*
X-72685D01*
Y-2244D01*
X-58207D01*
X-58098Y-2790D01*
X-57766Y-3286D01*
X-57270Y-3618D01*
X-56685Y-3734D01*
X-32530D01*
X-32359Y-3743D01*
X-31982Y-3792D01*
X-31487Y-3891D01*
X-30860Y-4151D01*
X-30439Y-4431D01*
X-30234Y-4589D01*
X-29877Y-4946D01*
X-29719Y-5152D01*
X-29438Y-5572D01*
X-29178Y-6199D01*
X-29079Y-6695D01*
X-29030Y-7071D01*
X-29021Y-7242D01*
Y-95244D01*
Y-151898D01*
X-29024Y-151898D01*
X-29022Y-151920D01*
X-28999Y-152035D01*
X-28998Y-152037D01*
X-28992Y-152068D01*
Y-152705D01*
X-12421Y-169276D01*
X-12421Y-169276D01*
X-11694Y-169935D01*
X-10064Y-171024D01*
X-8253Y-171774D01*
X-6330Y-172157D01*
X-5350Y-172205D01*
X11315D01*
Y-191705D01*
X-74978D01*
X-74978Y-191705D01*
X-75145Y-191713D01*
X-75473Y-191778D01*
X-75783Y-191906D01*
X-75943Y-192013D01*
X-76377Y-191909D01*
X-76515Y-191829D01*
X-76797Y-191408D01*
X-77054Y-190786D01*
X-77185Y-190127D01*
X-77185Y-189790D01*
Y-173912D01*
X-77185D01*
X-77185Y-173912D01*
X-77185Y-173912D01*
X-77193Y-173744D01*
X-77259Y-173416D01*
X-77387Y-173107D01*
X-77573Y-172829D01*
X-77685Y-172705D01*
X-77996Y-172394D01*
X-78484Y-171663D01*
X-78821Y-170851D01*
X-78992Y-169989D01*
Y-169549D01*
Y-152705D01*
Y-104744D01*
X-89892D01*
X-89976Y-104727D01*
X-89992Y-104644D01*
Y-96264D01*
Y-95244D01*
X-129463D01*
Y-7242D01*
X-129454Y-7071D01*
X-129405Y-6695D01*
X-129306Y-6199D01*
X-129046Y-5572D01*
X-128766Y-5152D01*
X-128608Y-4946D01*
X-128251Y-4589D01*
X-128045Y-4431D01*
X-127625Y-4151D01*
X-126997Y-3891D01*
X-126502Y-3792D01*
X-126126Y-3743D01*
X-125954Y-3734D01*
X-124851D01*
X-124653Y-3774D01*
X-124646Y-3774D01*
Y-3774D01*
X-103724D01*
X-103724Y-3774D01*
X-103717Y-3774D01*
X-103445Y-3720D01*
X-103434Y-3717D01*
X-103132Y-3657D01*
X-103128Y-3656D01*
X-103124Y-3655D01*
X-103121Y-3653D01*
X-103117Y-3651D01*
X-103117Y-3651D01*
X-103117Y-3651D01*
X-102879Y-3492D01*
X-102621Y-3320D01*
X-102621Y-3320D01*
X-102621Y-3320D01*
X-102618Y-3317D01*
X-102615Y-3314D01*
X-102612Y-3311D01*
X-102610Y-3308D01*
X-102451Y-3071D01*
X-102278Y-2813D01*
X-102277Y-2809D01*
X-102274Y-2805D01*
X-102274Y-2802D01*
X-102272Y-2798D01*
X-102272Y-2798D01*
X-102272Y-2798D01*
X-102214Y-2504D01*
X-102162Y-2244D01*
X-88760D01*
X-88554Y-2744D01*
X-88878Y-3527D01*
Y-4473D01*
X-88516Y-5347D01*
X-87847Y-6016D01*
X-86973Y-6378D01*
X-86027D01*
X-85153Y-6016D01*
X-84484Y-5347D01*
X-84122Y-4473D01*
Y-3527D01*
X-84255Y-3205D01*
X-84484Y-2653D01*
X-84685Y-2452D01*
Y16295D01*
X-157670D01*
X-159602Y16680D01*
X-161422Y17433D01*
X-163060Y18528D01*
X-164453Y19921D01*
X-165547Y21558D01*
X-166301Y23378D01*
X-166685Y25310D01*
Y26295D01*
Y47295D01*
X-166185Y136295D01*
Y149295D01*
Y150280D01*
X-165801Y152212D01*
X-165047Y154032D01*
X-163953Y155670D01*
X-162560Y157063D01*
X-160922Y158157D01*
X-159102Y158911D01*
X-157170Y159295D01*
X-200D01*
X1732Y158911D01*
D02*
G37*
G36*
X-91012Y-104744D02*
X-90934Y-105134D01*
X-90713Y-105465D01*
X-90382Y-105686D01*
X-89992Y-105764D01*
X-80012D01*
Y-152705D01*
X-80044Y-152744D01*
X-80185D01*
Y-173205D01*
X-78685Y-174705D01*
Y-191705D01*
X-79185Y-192205D01*
X-79685Y-191705D01*
X-168685D01*
Y-172205D01*
X-168723Y-172167D01*
X-168532Y-171705D01*
X-148129D01*
X-129168Y-152744D01*
D01*
X-129168Y-152744D01*
X-129185Y-152727D01*
Y-152724D01*
X-129485Y-152358D01*
X-129463Y-152244D01*
Y-96264D01*
X-91012D01*
Y-104744D01*
D02*
G37*
%LPC*%
G36*
X-4371Y155592D02*
X-5999D01*
X-6147Y155563D01*
X-6298D01*
X-7895Y155245D01*
X-8034Y155188D01*
X-8182Y155158D01*
X-9686Y154535D01*
X-9812Y154451D01*
X-9951Y154394D01*
X-11305Y153489D01*
X-11412Y153382D01*
X-11537Y153299D01*
X-12688Y152147D01*
X-12772Y152022D01*
X-12879Y151915D01*
X-13783Y150561D01*
X-13841Y150422D01*
X-13925Y150297D01*
X-14548Y148792D01*
X-14577Y148644D01*
X-14635Y148505D01*
X-14953Y146908D01*
Y146757D01*
X-14982Y146610D01*
Y145795D01*
Y144981D01*
X-14953Y144833D01*
Y144683D01*
X-14635Y143085D01*
X-14577Y142946D01*
X-14548Y142798D01*
X-13925Y141294D01*
X-13841Y141168D01*
X-13783Y141029D01*
X-12879Y139675D01*
X-12772Y139569D01*
X-12688Y139444D01*
X-11537Y138292D01*
X-11412Y138208D01*
X-11305Y138102D01*
X-9951Y137197D01*
X-9812Y137139D01*
X-9686Y137056D01*
X-8182Y136432D01*
X-8034Y136403D01*
X-7895Y136345D01*
X-6298Y136028D01*
X-6147D01*
X-5999Y135998D01*
X-4371D01*
X-4223Y136028D01*
X-4072D01*
X-2475Y136345D01*
X-2336Y136403D01*
X-2188Y136432D01*
X-684Y137056D01*
X-558Y137139D01*
X-419Y137197D01*
X935Y138102D01*
X1041Y138208D01*
X1167Y138292D01*
X2318Y139444D01*
X2402Y139569D01*
X2509Y139675D01*
X3413Y141029D01*
X3471Y141168D01*
X3555Y141294D01*
X4178Y142798D01*
X4207Y142946D01*
X4265Y143085D01*
X4583Y144683D01*
Y144833D01*
X4612Y144981D01*
Y145795D01*
Y146610D01*
X4583Y146757D01*
Y146908D01*
X4265Y148505D01*
X4207Y148644D01*
X4178Y148792D01*
X3555Y150297D01*
X3471Y150422D01*
X3413Y150561D01*
X2509Y151915D01*
X2402Y152022D01*
X2318Y152147D01*
X1167Y153299D01*
X1041Y153382D01*
X935Y153489D01*
X-419Y154394D01*
X-558Y154451D01*
X-684Y154535D01*
X-2188Y155158D01*
X-2336Y155188D01*
X-2475Y155245D01*
X-4072Y155563D01*
X-4223D01*
X-4371Y155592D01*
D02*
G37*
G36*
X-152371D02*
X-153999D01*
X-154147Y155563D01*
X-154298D01*
X-155895Y155245D01*
X-156034Y155188D01*
X-156182Y155158D01*
X-157687Y154535D01*
X-157812Y154451D01*
X-157951Y154394D01*
X-159305Y153489D01*
X-159412Y153382D01*
X-159537Y153299D01*
X-160688Y152147D01*
X-160772Y152022D01*
X-160879Y151915D01*
X-161783Y150561D01*
X-161841Y150422D01*
X-161925Y150297D01*
X-162548Y148792D01*
X-162577Y148644D01*
X-162635Y148505D01*
X-162953Y146908D01*
Y146757D01*
X-162982Y146610D01*
Y145795D01*
Y144981D01*
X-162953Y144833D01*
Y144683D01*
X-162635Y143085D01*
X-162577Y142946D01*
X-162548Y142798D01*
X-161925Y141294D01*
X-161841Y141168D01*
X-161783Y141029D01*
X-160879Y139675D01*
X-160772Y139569D01*
X-160688Y139444D01*
X-159537Y138292D01*
X-159412Y138208D01*
X-159305Y138102D01*
X-157951Y137197D01*
X-157812Y137139D01*
X-157687Y137056D01*
X-156182Y136432D01*
X-156034Y136403D01*
X-155895Y136345D01*
X-154298Y136028D01*
X-154147D01*
X-153999Y135998D01*
X-152371D01*
X-152223Y136028D01*
X-152072D01*
X-150475Y136345D01*
X-150336Y136403D01*
X-150188Y136432D01*
X-148684Y137056D01*
X-148558Y137139D01*
X-148419Y137197D01*
X-147065Y138102D01*
X-146958Y138208D01*
X-146833Y138292D01*
X-145682Y139444D01*
X-145598Y139569D01*
X-145492Y139675D01*
X-144587Y141029D01*
X-144529Y141168D01*
X-144445Y141294D01*
X-143822Y142798D01*
X-143793Y142946D01*
X-143735Y143085D01*
X-143417Y144683D01*
Y144833D01*
X-143388Y144981D01*
Y145795D01*
Y146610D01*
X-143417Y146757D01*
Y146908D01*
X-143735Y148505D01*
X-143793Y148644D01*
X-143822Y148792D01*
X-144445Y150297D01*
X-144529Y150422D01*
X-144587Y150561D01*
X-145492Y151915D01*
X-145598Y152022D01*
X-145682Y152147D01*
X-146833Y153299D01*
X-146958Y153382D01*
X-147065Y153489D01*
X-148419Y154394D01*
X-148558Y154451D01*
X-148684Y154535D01*
X-150188Y155158D01*
X-150336Y155188D01*
X-150475Y155245D01*
X-152072Y155563D01*
X-152223D01*
X-152371Y155592D01*
D02*
G37*
G36*
X-21685Y133327D02*
Y133325D01*
X-67685D01*
Y133327D01*
X-67706Y133325D01*
X-68177D01*
X-68325Y133295D01*
X-68476D01*
X-68938Y133203D01*
X-68959Y133201D01*
X-68979Y133195D01*
X-69442Y133103D01*
X-69581Y133045D01*
X-69729Y133016D01*
X-70164Y132836D01*
X-70184Y132829D01*
X-70203Y132820D01*
X-70639Y132639D01*
X-70764Y132555D01*
X-70903Y132498D01*
X-71295Y132236D01*
X-71314Y132226D01*
X-71330Y132213D01*
X-71722Y131951D01*
X-71829Y131844D01*
X-71954Y131761D01*
X-72287Y131427D01*
X-72303Y131414D01*
X-72317Y131397D01*
X-72650Y131064D01*
X-72734Y130939D01*
X-72840Y130832D01*
X-73102Y130440D01*
X-73116Y130424D01*
X-73126Y130405D01*
X-73388Y130013D01*
X-73445Y129874D01*
X-73529Y129749D01*
X-73709Y129313D01*
X-73719Y129295D01*
X-73725Y129275D01*
X-73906Y128839D01*
X-73935Y128691D01*
X-73993Y128552D01*
X-74085Y128090D01*
X-74091Y128069D01*
X-74093Y128049D01*
X-74185Y127586D01*
Y127435D01*
X-74214Y127288D01*
Y126816D01*
X-74217Y126795D01*
X-74214D01*
Y47795D01*
X-74217D01*
X-74214Y47774D01*
Y47303D01*
X-74185Y47155D01*
Y47005D01*
X-74093Y46542D01*
X-74091Y46521D01*
X-74085Y46501D01*
X-73993Y46038D01*
X-73935Y45899D01*
X-73906Y45752D01*
X-73725Y45316D01*
X-73719Y45296D01*
X-73709Y45277D01*
X-73529Y44842D01*
X-73445Y44716D01*
X-73388Y44577D01*
X-73126Y44185D01*
X-73116Y44167D01*
X-73102Y44150D01*
X-72840Y43758D01*
X-72734Y43652D01*
X-72650Y43527D01*
X-72317Y43193D01*
X-72303Y43177D01*
X-72287Y43164D01*
X-71954Y42830D01*
X-71829Y42746D01*
X-71722Y42640D01*
X-71330Y42378D01*
X-71314Y42365D01*
X-71295Y42355D01*
X-70903Y42093D01*
X-70764Y42035D01*
X-70639Y41951D01*
X-70203Y41771D01*
X-70184Y41761D01*
X-70165Y41755D01*
X-69729Y41574D01*
X-69581Y41545D01*
X-69442Y41487D01*
X-68979Y41395D01*
X-68959Y41389D01*
X-68938Y41387D01*
X-68476Y41295D01*
X-68325D01*
X-68177Y41266D01*
X-67706D01*
X-67685Y41264D01*
Y41266D01*
X-56185D01*
Y41264D01*
X-56164Y41266D01*
X-55693D01*
X-55545Y41295D01*
X-33976D01*
X-33976Y41295D01*
X-33825D01*
X-33678Y41266D01*
X-33206D01*
X-33185Y41264D01*
Y41266D01*
X-21685D01*
Y41264D01*
X-21664Y41266D01*
X-21193D01*
X-21045Y41295D01*
X-20894D01*
X-20432Y41387D01*
X-20411Y41389D01*
X-20391Y41395D01*
X-19928Y41487D01*
X-19789Y41545D01*
X-19641Y41574D01*
X-19206Y41755D01*
X-19186Y41761D01*
X-19167Y41771D01*
X-18731Y41951D01*
X-18606Y42035D01*
X-18467Y42093D01*
X-18075Y42355D01*
X-18056Y42365D01*
X-18040Y42378D01*
X-17648Y42640D01*
X-17542Y42746D01*
X-17416Y42830D01*
X-17083Y43164D01*
X-17067Y43177D01*
X-17053Y43193D01*
X-16720Y43527D01*
X-16636Y43652D01*
X-16530Y43758D01*
X-16268Y44150D01*
X-16254Y44167D01*
X-16244Y44185D01*
X-15982Y44577D01*
X-15925Y44716D01*
X-15841Y44842D01*
X-15661Y45277D01*
X-15651Y45296D01*
X-15645Y45316D01*
X-15464Y45752D01*
X-15435Y45899D01*
X-15377Y46038D01*
X-15285Y46501D01*
X-15279Y46521D01*
X-15277Y46542D01*
X-15185Y47005D01*
Y47155D01*
X-15156Y47303D01*
Y47774D01*
X-15154Y47795D01*
X-15156D01*
Y126795D01*
X-15154D01*
X-15156Y126816D01*
Y127288D01*
X-15185Y127436D01*
Y127586D01*
X-15277Y128049D01*
X-15279Y128069D01*
X-15285Y128090D01*
X-15377Y128552D01*
X-15435Y128691D01*
X-15464Y128839D01*
X-15645Y129275D01*
X-15651Y129295D01*
X-15661Y129313D01*
X-15841Y129749D01*
X-15925Y129874D01*
X-15982Y130013D01*
X-16244Y130405D01*
X-16254Y130424D01*
X-16268Y130440D01*
X-16530Y130832D01*
X-16636Y130939D01*
X-16720Y131064D01*
X-17053Y131397D01*
X-17067Y131414D01*
X-17083Y131427D01*
X-17416Y131761D01*
X-17541Y131844D01*
X-17648Y131951D01*
X-18040Y132213D01*
X-18056Y132226D01*
X-18075Y132236D01*
X-18467Y132498D01*
X-18606Y132555D01*
X-18731Y132639D01*
X-19167Y132820D01*
X-19186Y132829D01*
X-19206Y132836D01*
X-19641Y133016D01*
X-19789Y133045D01*
X-19928Y133103D01*
X-20391Y133195D01*
X-20411Y133201D01*
X-20432Y133203D01*
X-20894Y133295D01*
X-21045D01*
X-21193Y133325D01*
X-21664D01*
X-21685Y133327D01*
D02*
G37*
G36*
X-90685D02*
Y133325D01*
X-136685D01*
Y133327D01*
X-136706Y133325D01*
X-137178D01*
X-137325Y133295D01*
X-137476D01*
X-137938Y133203D01*
X-137959Y133201D01*
X-137979Y133195D01*
X-138442Y133103D01*
X-138581Y133045D01*
X-138729Y133016D01*
X-139164Y132836D01*
X-139184Y132829D01*
X-139203Y132820D01*
X-139639Y132639D01*
X-139764Y132555D01*
X-139903Y132498D01*
X-140295Y132236D01*
X-140314Y132226D01*
X-140330Y132213D01*
X-140722Y131951D01*
X-140829Y131844D01*
X-140954Y131761D01*
X-141287Y131427D01*
X-141304Y131414D01*
X-141317Y131397D01*
X-141650Y131064D01*
X-141734Y130939D01*
X-141840Y130832D01*
X-142102Y130440D01*
X-142116Y130424D01*
X-142126Y130405D01*
X-142388Y130013D01*
X-142445Y129874D01*
X-142529Y129749D01*
X-142709Y129313D01*
X-142719Y129295D01*
X-142725Y129275D01*
X-142906Y128839D01*
X-142935Y128691D01*
X-142993Y128552D01*
X-143085Y128090D01*
X-143091Y128069D01*
X-143093Y128049D01*
X-143185Y127586D01*
Y127435D01*
X-143214Y127288D01*
Y126816D01*
X-143217Y126795D01*
X-143214D01*
Y47795D01*
X-143217D01*
X-143214Y47774D01*
Y47303D01*
X-143185Y47155D01*
Y47005D01*
X-143093Y46542D01*
X-143091Y46521D01*
X-143085Y46501D01*
X-142993Y46038D01*
X-142935Y45899D01*
X-142906Y45752D01*
X-142725Y45316D01*
X-142719Y45296D01*
X-142709Y45277D01*
X-142529Y44842D01*
X-142445Y44716D01*
X-142388Y44577D01*
X-142126Y44185D01*
X-142116Y44167D01*
X-142102Y44150D01*
X-141840Y43758D01*
X-141734Y43652D01*
X-141650Y43527D01*
X-141317Y43193D01*
X-141304Y43177D01*
X-141287Y43164D01*
X-140954Y42830D01*
X-140829Y42746D01*
X-140722Y42640D01*
X-140330Y42378D01*
X-140314Y42365D01*
X-140295Y42355D01*
X-139903Y42093D01*
X-139764Y42035D01*
X-139639Y41951D01*
X-139203Y41771D01*
X-139184Y41761D01*
X-139164Y41755D01*
X-138729Y41574D01*
X-138581Y41545D01*
X-138442Y41487D01*
X-137979Y41395D01*
X-137959Y41389D01*
X-137938Y41387D01*
X-137476Y41295D01*
X-137325D01*
X-137178Y41266D01*
X-136706D01*
X-136685Y41264D01*
Y41266D01*
X-125185D01*
Y41264D01*
X-125164Y41266D01*
X-124693D01*
X-124545Y41295D01*
X-102976D01*
X-102976Y41295D01*
X-102825D01*
X-102678Y41266D01*
X-102206D01*
X-102185Y41264D01*
Y41266D01*
X-90685D01*
Y41264D01*
X-90664Y41266D01*
X-90193D01*
X-90045Y41295D01*
X-89894D01*
X-89432Y41387D01*
X-89411Y41389D01*
X-89391Y41395D01*
X-88928Y41487D01*
X-88789Y41545D01*
X-88641Y41574D01*
X-88206Y41755D01*
X-88186Y41761D01*
X-88167Y41771D01*
X-87731Y41951D01*
X-87606Y42035D01*
X-87467Y42093D01*
X-87075Y42355D01*
X-87056Y42365D01*
X-87040Y42378D01*
X-86648Y42640D01*
X-86542Y42746D01*
X-86416Y42830D01*
X-86083Y43164D01*
X-86067Y43177D01*
X-86053Y43193D01*
X-85720Y43527D01*
X-85636Y43652D01*
X-85530Y43758D01*
X-85268Y44150D01*
X-85254Y44167D01*
X-85244Y44185D01*
X-84983Y44577D01*
X-84925Y44716D01*
X-84841Y44842D01*
X-84661Y45277D01*
X-84651Y45296D01*
X-84645Y45316D01*
X-84464Y45752D01*
X-84435Y45899D01*
X-84377Y46038D01*
X-84285Y46501D01*
X-84279Y46521D01*
X-84277Y46542D01*
X-84185Y47005D01*
Y47155D01*
X-84156Y47303D01*
Y47774D01*
X-84154Y47795D01*
X-84156D01*
Y126795D01*
X-84154D01*
X-84156Y126816D01*
Y127288D01*
X-84185Y127436D01*
Y127586D01*
X-84277Y128049D01*
X-84279Y128069D01*
X-84285Y128090D01*
X-84377Y128552D01*
X-84435Y128691D01*
X-84464Y128839D01*
X-84645Y129275D01*
X-84651Y129295D01*
X-84661Y129313D01*
X-84841Y129749D01*
X-84925Y129874D01*
X-84983Y130013D01*
X-85244Y130405D01*
X-85254Y130424D01*
X-85268Y130440D01*
X-85530Y130832D01*
X-85636Y130939D01*
X-85720Y131064D01*
X-86053Y131397D01*
X-86067Y131414D01*
X-86083Y131427D01*
X-86416Y131761D01*
X-86541Y131844D01*
X-86648Y131951D01*
X-87040Y132213D01*
X-87056Y132226D01*
X-87075Y132236D01*
X-87467Y132498D01*
X-87606Y132555D01*
X-87731Y132639D01*
X-88167Y132820D01*
X-88186Y132829D01*
X-88206Y132836D01*
X-88641Y133016D01*
X-88789Y133045D01*
X-88928Y133103D01*
X-89391Y133195D01*
X-89411Y133201D01*
X-89432Y133203D01*
X-89894Y133295D01*
X-90045D01*
X-90193Y133325D01*
X-90664D01*
X-90685Y133327D01*
D02*
G37*
G36*
X-78712Y62173D02*
X-79658D01*
X-80532Y61811D01*
X-81201Y61142D01*
X-81563Y60268D01*
Y59322D01*
X-81201Y58448D01*
X-80532Y57779D01*
X-79658Y57417D01*
X-78712D01*
X-77838Y57779D01*
X-77169Y58448D01*
X-76807Y59322D01*
Y60268D01*
X-77169Y61142D01*
X-77838Y61811D01*
X-78712Y62173D01*
D02*
G37*
G36*
X-86216Y41354D02*
X-87154D01*
X-88059Y41112D01*
X-88870Y40643D01*
X-89533Y39981D01*
X-90001Y39169D01*
X-90244Y38264D01*
Y37327D01*
X-90001Y36421D01*
X-89533Y35610D01*
X-88870Y34947D01*
X-88059Y34479D01*
X-87154Y34236D01*
X-86216D01*
X-85311Y34479D01*
X-84500Y34947D01*
X-83837Y35610D01*
X-83368Y36421D01*
X-83126Y37327D01*
Y38264D01*
X-83368Y39169D01*
X-83837Y39981D01*
X-84500Y40643D01*
X-85311Y41112D01*
X-86216Y41354D01*
D02*
G37*
G36*
X-17717Y39854D02*
X-18654D01*
X-19559Y39612D01*
X-20370Y39143D01*
X-21033Y38481D01*
X-21502Y37669D01*
X-21744Y36764D01*
Y35827D01*
X-21502Y34922D01*
X-21033Y34110D01*
X-20370Y33447D01*
X-19559Y32979D01*
X-18654Y32736D01*
X-17717D01*
X-16811Y32979D01*
X-16000Y33447D01*
X-15337Y34110D01*
X-14868Y34922D01*
X-14626Y35827D01*
Y36764D01*
X-14868Y37669D01*
X-15337Y38481D01*
X-16000Y39143D01*
X-16811Y39612D01*
X-17717Y39854D01*
D02*
G37*
G36*
X-117212Y34673D02*
X-118158D01*
X-119032Y34311D01*
X-119701Y33642D01*
X-120063Y32768D01*
Y31822D01*
X-119701Y30948D01*
X-119032Y30279D01*
X-118158Y29917D01*
X-117212D01*
X-116338Y30279D01*
X-115669Y30948D01*
X-115307Y31822D01*
Y32768D01*
X-115669Y33642D01*
X-116338Y34311D01*
X-117212Y34673D01*
D02*
G37*
G36*
X-4371Y40592D02*
X-5999D01*
X-6147Y40563D01*
X-6298D01*
X-7895Y40245D01*
X-8034Y40188D01*
X-8182Y40158D01*
X-9686Y39535D01*
X-9812Y39451D01*
X-9951Y39394D01*
X-11305Y38489D01*
X-11412Y38382D01*
X-11537Y38299D01*
X-12688Y37147D01*
X-12772Y37022D01*
X-12879Y36915D01*
X-13783Y35561D01*
X-13841Y35422D01*
X-13925Y35297D01*
X-14548Y33792D01*
X-14577Y33644D01*
X-14635Y33505D01*
X-14953Y31908D01*
Y31757D01*
X-14982Y31610D01*
Y30795D01*
Y29981D01*
X-14953Y29833D01*
Y29683D01*
X-14635Y28085D01*
X-14577Y27946D01*
X-14548Y27798D01*
X-13925Y26294D01*
X-13841Y26169D01*
X-13783Y26029D01*
X-12879Y24675D01*
X-12772Y24569D01*
X-12688Y24443D01*
X-11537Y23292D01*
X-11412Y23208D01*
X-11305Y23102D01*
X-9951Y22197D01*
X-9812Y22139D01*
X-9686Y22055D01*
X-8182Y21432D01*
X-8034Y21403D01*
X-7895Y21345D01*
X-6298Y21028D01*
X-6147D01*
X-5999Y20998D01*
X-4371D01*
X-4223Y21028D01*
X-4072D01*
X-2475Y21345D01*
X-2336Y21403D01*
X-2188Y21432D01*
X-684Y22055D01*
X-558Y22139D01*
X-419Y22197D01*
X935Y23102D01*
X1041Y23208D01*
X1167Y23292D01*
X2318Y24443D01*
X2402Y24569D01*
X2509Y24675D01*
X3413Y26029D01*
X3471Y26169D01*
X3555Y26294D01*
X4178Y27798D01*
X4207Y27946D01*
X4265Y28085D01*
X4583Y29683D01*
Y29833D01*
X4612Y29981D01*
Y30795D01*
Y31610D01*
X4583Y31757D01*
Y31908D01*
X4265Y33505D01*
X4207Y33644D01*
X4178Y33792D01*
X3555Y35297D01*
X3471Y35422D01*
X3413Y35561D01*
X2509Y36915D01*
X2402Y37022D01*
X2318Y37147D01*
X1167Y38299D01*
X1041Y38382D01*
X935Y38489D01*
X-419Y39394D01*
X-558Y39451D01*
X-684Y39535D01*
X-2188Y40158D01*
X-2336Y40188D01*
X-2475Y40245D01*
X-4072Y40563D01*
X-4223D01*
X-4371Y40592D01*
D02*
G37*
G36*
X-152371D02*
X-153999D01*
X-154147Y40563D01*
X-154298D01*
X-155895Y40245D01*
X-156034Y40188D01*
X-156182Y40158D01*
X-157687Y39535D01*
X-157812Y39451D01*
X-157951Y39394D01*
X-159305Y38489D01*
X-159412Y38382D01*
X-159537Y38299D01*
X-160688Y37147D01*
X-160772Y37022D01*
X-160879Y36915D01*
X-161783Y35561D01*
X-161841Y35422D01*
X-161925Y35297D01*
X-162548Y33792D01*
X-162577Y33644D01*
X-162635Y33505D01*
X-162953Y31908D01*
Y31757D01*
X-162982Y31610D01*
Y30795D01*
Y29981D01*
X-162953Y29833D01*
Y29683D01*
X-162635Y28085D01*
X-162577Y27946D01*
X-162548Y27798D01*
X-161925Y26294D01*
X-161841Y26169D01*
X-161783Y26029D01*
X-160879Y24675D01*
X-160772Y24569D01*
X-160688Y24443D01*
X-159537Y23292D01*
X-159412Y23208D01*
X-159305Y23102D01*
X-157951Y22197D01*
X-157812Y22139D01*
X-157687Y22055D01*
X-156182Y21432D01*
X-156034Y21403D01*
X-155895Y21345D01*
X-154298Y21028D01*
X-154147D01*
X-153999Y20998D01*
X-152371D01*
X-152223Y21028D01*
X-152072D01*
X-150475Y21345D01*
X-150336Y21403D01*
X-150188Y21432D01*
X-148684Y22055D01*
X-148558Y22139D01*
X-148419Y22197D01*
X-147065Y23102D01*
X-146958Y23208D01*
X-146833Y23292D01*
X-145682Y24443D01*
X-145598Y24569D01*
X-145492Y24675D01*
X-144587Y26029D01*
X-144529Y26169D01*
X-144445Y26294D01*
X-143822Y27798D01*
X-143793Y27946D01*
X-143735Y28085D01*
X-143417Y29683D01*
Y29833D01*
X-143388Y29981D01*
Y30795D01*
Y31610D01*
X-143417Y31757D01*
Y31908D01*
X-143735Y33505D01*
X-143793Y33644D01*
X-143822Y33792D01*
X-144445Y35297D01*
X-144529Y35422D01*
X-144587Y35561D01*
X-145492Y36915D01*
X-145598Y37022D01*
X-145682Y37147D01*
X-146833Y38299D01*
X-146958Y38382D01*
X-147065Y38489D01*
X-148419Y39394D01*
X-148558Y39451D01*
X-148684Y39535D01*
X-150188Y40158D01*
X-150336Y40188D01*
X-150475Y40245D01*
X-152072Y40563D01*
X-152223D01*
X-152371Y40592D01*
D02*
G37*
G36*
X-87027Y-13622D02*
X-87973D01*
X-88847Y-13984D01*
X-89516Y-14653D01*
X-89878Y-15527D01*
Y-16473D01*
X-89516Y-17347D01*
X-88847Y-18016D01*
X-87973Y-18378D01*
X-87027D01*
X-86153Y-18016D01*
X-85484Y-17347D01*
X-85122Y-16473D01*
Y-15527D01*
X-85484Y-14653D01*
X-86153Y-13984D01*
X-87027Y-13622D01*
D02*
G37*
G36*
X-72019Y-16866D02*
X-72965D01*
X-73839Y-17228D01*
X-74508Y-17897D01*
X-74778Y-18550D01*
X-75320D01*
X-75484Y-18153D01*
X-76153Y-17484D01*
X-77027Y-17122D01*
X-77973D01*
X-78847Y-17484D01*
X-79516Y-18153D01*
X-79878Y-19027D01*
Y-19973D01*
X-79516Y-20847D01*
X-78847Y-21516D01*
X-77973Y-21878D01*
X-77027D01*
X-76153Y-21516D01*
X-75484Y-20847D01*
X-75214Y-20194D01*
X-74673D01*
X-74508Y-20591D01*
X-73839Y-21260D01*
X-72965Y-21622D01*
X-72019D01*
X-71145Y-21260D01*
X-70476Y-20591D01*
X-70114Y-19717D01*
Y-18771D01*
X-70476Y-17897D01*
X-71145Y-17228D01*
X-72019Y-16866D01*
D02*
G37*
G36*
X-77527Y-27622D02*
X-78473D01*
X-79347Y-27984D01*
X-80016Y-28653D01*
X-80378Y-29527D01*
Y-30473D01*
X-80016Y-31347D01*
X-79347Y-32016D01*
X-78473Y-32378D01*
X-77527D01*
X-76653Y-32016D01*
X-75984Y-31347D01*
X-75622Y-30473D01*
Y-29527D01*
X-75984Y-28653D01*
X-76653Y-27984D01*
X-77527Y-27622D01*
D02*
G37*
G36*
X-52019Y-33509D02*
X-52965D01*
X-53839Y-33871D01*
X-54508Y-34540D01*
X-54870Y-35414D01*
Y-36360D01*
X-54508Y-37234D01*
X-53839Y-37903D01*
X-52965Y-38265D01*
X-52019D01*
X-51145Y-37903D01*
X-50476Y-37234D01*
X-50114Y-36360D01*
Y-35414D01*
X-50476Y-34540D01*
X-51145Y-33871D01*
X-52019Y-33509D01*
D02*
G37*
G36*
X-97019D02*
X-97965D01*
X-98839Y-33871D01*
X-99508Y-34540D01*
X-99870Y-35414D01*
Y-36360D01*
X-99508Y-37234D01*
X-98839Y-37903D01*
X-97965Y-38265D01*
X-97019D01*
X-96145Y-37903D01*
X-95476Y-37234D01*
X-95114Y-36360D01*
Y-35414D01*
X-95476Y-34540D01*
X-96145Y-33871D01*
X-97019Y-33509D01*
D02*
G37*
G36*
X-119519D02*
X-120465D01*
X-121339Y-33871D01*
X-122008Y-34540D01*
X-122370Y-35414D01*
Y-36360D01*
X-122008Y-37234D01*
X-121339Y-37903D01*
X-120465Y-38265D01*
X-119519D01*
X-118645Y-37903D01*
X-117976Y-37234D01*
X-117614Y-36360D01*
Y-35414D01*
X-117976Y-34540D01*
X-118645Y-33871D01*
X-119519Y-33509D01*
D02*
G37*
G36*
X-72019Y-44366D02*
X-72965D01*
X-73839Y-44728D01*
X-74508Y-45397D01*
X-74870Y-46271D01*
Y-47217D01*
X-74508Y-48091D01*
X-73839Y-48760D01*
X-72965Y-49122D01*
X-72019D01*
X-71145Y-48760D01*
X-70476Y-48091D01*
X-70114Y-47217D01*
Y-46271D01*
X-70476Y-45397D01*
X-71145Y-44728D01*
X-72019Y-44366D01*
D02*
G37*
G36*
X-96066Y-51701D02*
X-96934D01*
X-97736Y-52033D01*
X-98349Y-52647D01*
X-98681Y-53448D01*
Y-54316D01*
X-98349Y-55118D01*
X-97736Y-55731D01*
X-96934Y-56063D01*
X-96066D01*
X-95265Y-55731D01*
X-94651Y-55118D01*
X-94319Y-54316D01*
Y-53448D01*
X-94651Y-52647D01*
X-95265Y-52033D01*
X-96066Y-51701D01*
D02*
G37*
G36*
X-112428Y-52179D02*
X-113296D01*
X-114098Y-52511D01*
X-114711Y-53124D01*
X-115043Y-53926D01*
Y-54794D01*
X-114711Y-55595D01*
X-114098Y-56209D01*
X-113296Y-56541D01*
X-112428D01*
X-111627Y-56209D01*
X-111013Y-55595D01*
X-110681Y-54794D01*
Y-53926D01*
X-111013Y-53124D01*
X-111627Y-52511D01*
X-112428Y-52179D01*
D02*
G37*
G36*
X-108519Y-61366D02*
X-109465D01*
X-110339Y-61728D01*
X-111008Y-62397D01*
X-111370Y-63271D01*
Y-64217D01*
X-111008Y-65091D01*
X-110339Y-65760D01*
X-109465Y-66122D01*
X-108519D01*
X-107645Y-65760D01*
X-106976Y-65091D01*
X-106614Y-64217D01*
Y-63271D01*
X-106976Y-62397D01*
X-107645Y-61728D01*
X-108519Y-61366D01*
D02*
G37*
G36*
X-41019Y-61866D02*
X-41965D01*
X-42839Y-62228D01*
X-43508Y-62897D01*
X-43870Y-63771D01*
Y-64717D01*
X-43508Y-65591D01*
X-42839Y-66260D01*
X-41965Y-66622D01*
X-41019D01*
X-40145Y-66260D01*
X-39476Y-65591D01*
X-39114Y-64717D01*
Y-63771D01*
X-39476Y-62897D01*
X-40145Y-62228D01*
X-41019Y-61866D01*
D02*
G37*
G36*
X-63519D02*
X-64465D01*
X-65339Y-62228D01*
X-66008Y-62897D01*
X-66370Y-63771D01*
Y-64717D01*
X-66008Y-65591D01*
X-65339Y-66260D01*
X-64465Y-66622D01*
X-63519D01*
X-62645Y-66260D01*
X-61976Y-65591D01*
X-61614Y-64717D01*
Y-63771D01*
X-61976Y-62897D01*
X-62645Y-62228D01*
X-63519Y-61866D01*
D02*
G37*
G36*
X-86019D02*
X-86965D01*
X-87839Y-62228D01*
X-88508Y-62897D01*
X-88870Y-63771D01*
Y-64717D01*
X-88508Y-65591D01*
X-87839Y-66260D01*
X-86965Y-66622D01*
X-86019D01*
X-85145Y-66260D01*
X-84476Y-65591D01*
X-84114Y-64717D01*
Y-63771D01*
X-84476Y-62897D01*
X-85145Y-62228D01*
X-86019Y-61866D01*
D02*
G37*
G36*
X-66527Y-76622D02*
X-67473D01*
X-68347Y-76984D01*
X-69016Y-77653D01*
X-69378Y-78527D01*
Y-79473D01*
X-69016Y-80347D01*
X-68347Y-81016D01*
X-67473Y-81378D01*
X-66527D01*
X-65653Y-81016D01*
X-64984Y-80347D01*
X-64622Y-79473D01*
Y-78527D01*
X-64984Y-77653D01*
X-65653Y-76984D01*
X-66527Y-76622D01*
D02*
G37*
G36*
X-76527Y-77122D02*
X-77473D01*
X-78347Y-77484D01*
X-79016Y-78153D01*
X-79378Y-79027D01*
Y-79973D01*
X-79016Y-80847D01*
X-78347Y-81516D01*
X-77473Y-81878D01*
X-76527D01*
X-75653Y-81516D01*
X-74984Y-80847D01*
X-74622Y-79973D01*
Y-79027D01*
X-74984Y-78153D01*
X-75653Y-77484D01*
X-76527Y-77122D01*
D02*
G37*
G36*
X-49519Y-86866D02*
X-50465D01*
X-51339Y-87228D01*
X-52008Y-87897D01*
X-52370Y-88771D01*
Y-89717D01*
X-52008Y-90591D01*
X-51339Y-91260D01*
X-50465Y-91622D01*
X-49519D01*
X-48645Y-91260D01*
X-47976Y-90591D01*
X-47614Y-89717D01*
Y-88771D01*
X-47976Y-87897D01*
X-48645Y-87228D01*
X-49519Y-86866D01*
D02*
G37*
G36*
Y-102866D02*
X-50465D01*
X-51339Y-103228D01*
X-52008Y-103897D01*
X-52370Y-104771D01*
Y-105717D01*
X-52008Y-106591D01*
X-51339Y-107260D01*
X-50465Y-107622D01*
X-49519D01*
X-48645Y-107260D01*
X-47976Y-106591D01*
X-47614Y-105717D01*
Y-104771D01*
X-47976Y-103897D01*
X-48645Y-103228D01*
X-49519Y-102866D01*
D02*
G37*
G36*
X-44498Y-135488D02*
X-45487D01*
X-46442Y-135744D01*
X-47298Y-136239D01*
X-47998Y-136938D01*
X-48492Y-137794D01*
X-48748Y-138750D01*
Y-139739D01*
X-48492Y-140694D01*
X-47998Y-141550D01*
X-47298Y-142250D01*
X-46442Y-142744D01*
X-45487Y-143000D01*
X-44498D01*
X-43542Y-142744D01*
X-42686Y-142250D01*
X-41987Y-141550D01*
X-41492Y-140694D01*
X-41236Y-139739D01*
Y-138750D01*
X-41492Y-137794D01*
X-41987Y-136938D01*
X-42686Y-136239D01*
X-43542Y-135744D01*
X-44498Y-135488D01*
D02*
G37*
G36*
X-73984Y-158827D02*
X-74930D01*
X-75804Y-159189D01*
X-76473Y-159858D01*
X-76835Y-160732D01*
Y-161678D01*
X-76473Y-162552D01*
X-75804Y-163221D01*
X-74930Y-163583D01*
X-73984D01*
X-73110Y-163221D01*
X-72441Y-162552D01*
X-72079Y-161678D01*
Y-160732D01*
X-72441Y-159858D01*
X-73110Y-159189D01*
X-73984Y-158827D01*
D02*
G37*
G36*
X-3240Y-173079D02*
X-4280D01*
X-5285Y-173348D01*
X-6187Y-173869D01*
X-6923Y-174604D01*
X-7443Y-175506D01*
X-7713Y-176511D01*
Y-177552D01*
X-7443Y-178557D01*
X-6923Y-179458D01*
X-6187Y-180194D01*
X-5285Y-180715D01*
X-4280Y-180984D01*
X-3240D01*
X-2234Y-180715D01*
X-1333Y-180194D01*
X-597Y-179458D01*
X-77Y-178557D01*
X193Y-177552D01*
Y-176511D01*
X-77Y-175506D01*
X-597Y-174604D01*
X-1333Y-173869D01*
X-2234Y-173348D01*
X-3240Y-173079D01*
D02*
G37*
G36*
X-13239D02*
X-14280D01*
X-15286Y-173348D01*
X-16187Y-173869D01*
X-16923Y-174604D01*
X-17443Y-175506D01*
X-17713Y-176511D01*
Y-177552D01*
X-17443Y-178557D01*
X-16923Y-179458D01*
X-16187Y-180194D01*
X-15286Y-180715D01*
X-14280Y-180984D01*
X-13239D01*
X-12234Y-180715D01*
X-11333Y-180194D01*
X-10597Y-179458D01*
X-10076Y-178557D01*
X-9807Y-177552D01*
Y-176511D01*
X-10076Y-175506D01*
X-10597Y-174604D01*
X-11333Y-173869D01*
X-12234Y-173348D01*
X-13239Y-173079D01*
D02*
G37*
G36*
X-23239D02*
X-24280D01*
X-25286Y-173348D01*
X-26187Y-173869D01*
X-26923Y-174604D01*
X-27443Y-175506D01*
X-27713Y-176511D01*
Y-177552D01*
X-27443Y-178557D01*
X-26923Y-179458D01*
X-26187Y-180194D01*
X-25286Y-180715D01*
X-24280Y-180984D01*
X-23239D01*
X-22234Y-180715D01*
X-21333Y-180194D01*
X-20597Y-179458D01*
X-20076Y-178557D01*
X-19807Y-177552D01*
Y-176511D01*
X-20076Y-175506D01*
X-20597Y-174604D01*
X-21333Y-173869D01*
X-22234Y-173348D01*
X-23239Y-173079D01*
D02*
G37*
G36*
X-33239D02*
X-34280D01*
X-35286Y-173348D01*
X-36187Y-173869D01*
X-36923Y-174604D01*
X-37443Y-175506D01*
X-37713Y-176511D01*
Y-177552D01*
X-37443Y-178557D01*
X-36923Y-179458D01*
X-36187Y-180194D01*
X-35286Y-180715D01*
X-34280Y-180984D01*
X-33239D01*
X-32234Y-180715D01*
X-31333Y-180194D01*
X-30597Y-179458D01*
X-30077Y-178557D01*
X-29807Y-177552D01*
Y-176511D01*
X-30077Y-175506D01*
X-30597Y-174604D01*
X-31333Y-173869D01*
X-32234Y-173348D01*
X-33239Y-173079D01*
D02*
G37*
G36*
X-43239D02*
X-44280D01*
X-45286Y-173348D01*
X-46187Y-173869D01*
X-46923Y-174604D01*
X-47443Y-175506D01*
X-47713Y-176511D01*
Y-177552D01*
X-47443Y-178557D01*
X-46923Y-179458D01*
X-46187Y-180194D01*
X-45286Y-180715D01*
X-44280Y-180984D01*
X-43239D01*
X-42234Y-180715D01*
X-41333Y-180194D01*
X-40597Y-179458D01*
X-40077Y-178557D01*
X-39807Y-177552D01*
Y-176511D01*
X-40077Y-175506D01*
X-40597Y-174604D01*
X-41333Y-173869D01*
X-42234Y-173348D01*
X-43239Y-173079D01*
D02*
G37*
G36*
X-53239D02*
X-54280D01*
X-55286Y-173348D01*
X-56187Y-173869D01*
X-56923Y-174604D01*
X-57443Y-175506D01*
X-57713Y-176511D01*
Y-177552D01*
X-57443Y-178557D01*
X-56923Y-179458D01*
X-56187Y-180194D01*
X-55286Y-180715D01*
X-54280Y-180984D01*
X-53239D01*
X-52234Y-180715D01*
X-51333Y-180194D01*
X-50597Y-179458D01*
X-50077Y-178557D01*
X-49807Y-177552D01*
Y-176511D01*
X-50077Y-175506D01*
X-50597Y-174604D01*
X-51333Y-173869D01*
X-52234Y-173348D01*
X-53239Y-173079D01*
D02*
G37*
G36*
X-63239D02*
X-64280D01*
X-65286Y-173348D01*
X-66187Y-173869D01*
X-66923Y-174604D01*
X-67443Y-175506D01*
X-67713Y-176511D01*
Y-177552D01*
X-67443Y-178557D01*
X-66923Y-179458D01*
X-66187Y-180194D01*
X-65286Y-180715D01*
X-64280Y-180984D01*
X-63239D01*
X-62234Y-180715D01*
X-61333Y-180194D01*
X-60597Y-179458D01*
X-60076Y-178557D01*
X-59807Y-177552D01*
Y-176511D01*
X-60076Y-175506D01*
X-60597Y-174604D01*
X-61333Y-173869D01*
X-62234Y-173348D01*
X-63239Y-173079D01*
D02*
G37*
%LPD*%
G36*
X-45114Y103600D02*
X-45576Y103409D01*
X-45604Y103437D01*
X-46377Y103883D01*
X-47239Y104114D01*
X-48131D01*
X-48993Y103883D01*
X-49766Y103437D01*
X-50397Y102806D01*
X-50844Y102033D01*
X-51075Y101171D01*
Y100278D01*
X-50844Y99416D01*
X-50397Y98643D01*
X-49766Y98012D01*
X-48993Y97566D01*
X-48131Y97334D01*
X-47239D01*
X-46377Y97566D01*
X-45604Y98012D01*
X-45576Y98040D01*
X-45114Y97848D01*
Y83295D01*
X-53185D01*
Y111295D01*
X-45114D01*
Y103600D01*
D02*
G37*
G36*
X-35185Y83295D02*
X-43114D01*
Y97799D01*
X-42614Y97965D01*
X-41922Y97566D01*
X-41060Y97334D01*
X-40168D01*
X-39306Y97566D01*
X-38533Y98012D01*
X-37901Y98643D01*
X-37455Y99416D01*
X-37224Y100278D01*
Y101171D01*
X-37455Y102033D01*
X-37901Y102806D01*
X-38533Y103437D01*
X-39306Y103883D01*
X-40168Y104114D01*
X-41060D01*
X-41922Y103883D01*
X-42614Y103484D01*
X-43114Y103650D01*
Y106795D01*
Y111295D01*
X-35185D01*
Y83295D01*
D02*
G37*
G36*
X-114185Y103600D02*
X-114647Y103409D01*
X-114675Y103437D01*
X-115448Y103883D01*
X-116310Y104114D01*
X-117202D01*
X-118064Y103883D01*
X-118837Y103437D01*
X-119469Y102806D01*
X-119915Y102033D01*
X-120146Y101171D01*
Y100278D01*
X-119915Y99416D01*
X-119469Y98643D01*
X-118837Y98012D01*
X-118064Y97566D01*
X-117202Y97334D01*
X-116310D01*
X-115448Y97566D01*
X-114675Y98012D01*
X-114647Y98040D01*
X-114185Y97848D01*
Y83295D01*
X-121685D01*
Y110795D01*
X-114185D01*
Y103600D01*
D02*
G37*
G36*
X-104685Y83295D02*
X-112185D01*
Y97799D01*
X-111685Y97965D01*
X-110993Y97566D01*
X-110131Y97334D01*
X-109239D01*
X-108377Y97566D01*
X-107604Y98012D01*
X-106973Y98643D01*
X-106526Y99416D01*
X-106295Y100278D01*
Y101171D01*
X-106526Y102033D01*
X-106973Y102806D01*
X-107604Y103437D01*
X-108377Y103883D01*
X-109239Y104114D01*
X-110131D01*
X-110993Y103883D01*
X-111685Y103484D01*
X-112185Y103650D01*
Y106795D01*
Y110795D01*
X-104685D01*
Y83295D01*
D02*
G37*
%LPC*%
G36*
X-119712Y-115827D02*
X-120658D01*
X-121532Y-116189D01*
X-122201Y-116858D01*
X-122563Y-117732D01*
Y-118678D01*
X-122201Y-119552D01*
X-121532Y-120221D01*
X-120658Y-120583D01*
X-119712D01*
X-118838Y-120221D01*
X-118169Y-119552D01*
X-117807Y-118678D01*
Y-117732D01*
X-118169Y-116858D01*
X-118838Y-116189D01*
X-119712Y-115827D01*
D02*
G37*
G36*
X-93239Y-173079D02*
X-94280D01*
X-95286Y-173348D01*
X-96187Y-173869D01*
X-96923Y-174604D01*
X-97443Y-175506D01*
X-97713Y-176511D01*
Y-177552D01*
X-97443Y-178557D01*
X-96923Y-179458D01*
X-96187Y-180194D01*
X-95286Y-180715D01*
X-94280Y-180984D01*
X-93239D01*
X-92234Y-180715D01*
X-91333Y-180194D01*
X-90597Y-179458D01*
X-90077Y-178557D01*
X-89807Y-177552D01*
Y-176511D01*
X-90077Y-175506D01*
X-90597Y-174604D01*
X-91333Y-173869D01*
X-92234Y-173348D01*
X-93239Y-173079D01*
D02*
G37*
G36*
X-103240D02*
X-104280D01*
X-105286Y-173348D01*
X-106187Y-173869D01*
X-106923Y-174604D01*
X-107443Y-175506D01*
X-107713Y-176511D01*
Y-177552D01*
X-107443Y-178557D01*
X-106923Y-179458D01*
X-106187Y-180194D01*
X-105286Y-180715D01*
X-104280Y-180984D01*
X-103240D01*
X-102234Y-180715D01*
X-101333Y-180194D01*
X-100597Y-179458D01*
X-100076Y-178557D01*
X-99807Y-177552D01*
Y-176511D01*
X-100076Y-175506D01*
X-100597Y-174604D01*
X-101333Y-173869D01*
X-102234Y-173348D01*
X-103240Y-173079D01*
D02*
G37*
G36*
X-113240D02*
X-114280D01*
X-115286Y-173348D01*
X-116187Y-173869D01*
X-116923Y-174604D01*
X-117443Y-175506D01*
X-117713Y-176511D01*
Y-177552D01*
X-117443Y-178557D01*
X-116923Y-179458D01*
X-116187Y-180194D01*
X-115286Y-180715D01*
X-114280Y-180984D01*
X-113240D01*
X-112234Y-180715D01*
X-111333Y-180194D01*
X-110597Y-179458D01*
X-110076Y-178557D01*
X-109807Y-177552D01*
Y-176511D01*
X-110076Y-175506D01*
X-110597Y-174604D01*
X-111333Y-173869D01*
X-112234Y-173348D01*
X-113240Y-173079D01*
D02*
G37*
G36*
X-123240D02*
X-124280D01*
X-125285Y-173348D01*
X-126187Y-173869D01*
X-126923Y-174604D01*
X-127443Y-175506D01*
X-127713Y-176511D01*
Y-177552D01*
X-127443Y-178557D01*
X-126923Y-179458D01*
X-126187Y-180194D01*
X-125285Y-180715D01*
X-124280Y-180984D01*
X-123240D01*
X-122234Y-180715D01*
X-121333Y-180194D01*
X-120597Y-179458D01*
X-120077Y-178557D01*
X-119807Y-177552D01*
Y-176511D01*
X-120077Y-175506D01*
X-120597Y-174604D01*
X-121333Y-173869D01*
X-122234Y-173348D01*
X-123240Y-173079D01*
D02*
G37*
G36*
X-133239D02*
X-134280D01*
X-135285Y-173348D01*
X-136187Y-173869D01*
X-136923Y-174604D01*
X-137443Y-175506D01*
X-137713Y-176511D01*
Y-177552D01*
X-137443Y-178557D01*
X-136923Y-179458D01*
X-136187Y-180194D01*
X-135285Y-180715D01*
X-134280Y-180984D01*
X-133239D01*
X-132234Y-180715D01*
X-131333Y-180194D01*
X-130597Y-179458D01*
X-130077Y-178557D01*
X-129807Y-177552D01*
Y-176511D01*
X-130077Y-175506D01*
X-130597Y-174604D01*
X-131333Y-173869D01*
X-132234Y-173348D01*
X-133239Y-173079D01*
D02*
G37*
G36*
X-143239D02*
X-144280D01*
X-145285Y-173348D01*
X-146187Y-173869D01*
X-146923Y-174604D01*
X-147443Y-175506D01*
X-147713Y-176511D01*
Y-177552D01*
X-147443Y-178557D01*
X-146923Y-179458D01*
X-146187Y-180194D01*
X-145285Y-180715D01*
X-144280Y-180984D01*
X-143239D01*
X-142234Y-180715D01*
X-141333Y-180194D01*
X-140597Y-179458D01*
X-140076Y-178557D01*
X-139807Y-177552D01*
Y-176511D01*
X-140076Y-175506D01*
X-140597Y-174604D01*
X-141333Y-173869D01*
X-142234Y-173348D01*
X-143239Y-173079D01*
D02*
G37*
G36*
X-153240D02*
X-154280D01*
X-155286Y-173348D01*
X-156187Y-173869D01*
X-156923Y-174604D01*
X-157443Y-175506D01*
X-157713Y-176511D01*
Y-177552D01*
X-157443Y-178557D01*
X-156923Y-179458D01*
X-156187Y-180194D01*
X-155286Y-180715D01*
X-154280Y-180984D01*
X-153240D01*
X-152234Y-180715D01*
X-151333Y-180194D01*
X-150597Y-179458D01*
X-150076Y-178557D01*
X-149807Y-177552D01*
Y-176511D01*
X-150076Y-175506D01*
X-150597Y-174604D01*
X-151333Y-173869D01*
X-152234Y-173348D01*
X-153240Y-173079D01*
D02*
G37*
G36*
X-163240D02*
X-164280D01*
X-165286Y-173348D01*
X-166187Y-173869D01*
X-166923Y-174604D01*
X-167443Y-175506D01*
X-167713Y-176511D01*
Y-177552D01*
X-167443Y-178557D01*
X-166923Y-179458D01*
X-166187Y-180194D01*
X-165286Y-180715D01*
X-164280Y-180984D01*
X-163240D01*
X-162234Y-180715D01*
X-161333Y-180194D01*
X-160597Y-179458D01*
X-160076Y-178557D01*
X-159807Y-177552D01*
Y-176511D01*
X-160076Y-175506D01*
X-160597Y-174604D01*
X-161333Y-173869D01*
X-162234Y-173348D01*
X-163240Y-173079D01*
D02*
G37*
%LPD*%
D41*
X-163760Y190921D02*
D03*
Y180921D02*
D03*
X-153760Y190921D02*
D03*
Y180921D02*
D03*
X-143760Y190921D02*
D03*
Y180921D02*
D03*
X-133760Y190921D02*
D03*
Y180921D02*
D03*
X-123760Y190921D02*
D03*
Y180921D02*
D03*
X-113760Y190921D02*
D03*
Y180921D02*
D03*
X-103760Y190921D02*
D03*
Y180921D02*
D03*
X-93760Y190921D02*
D03*
Y180921D02*
D03*
X-83760Y190921D02*
D03*
Y180921D02*
D03*
X-73760Y190921D02*
D03*
Y180921D02*
D03*
X-63760Y190921D02*
D03*
Y180921D02*
D03*
X-53760Y190921D02*
D03*
Y180921D02*
D03*
X-43760Y190921D02*
D03*
Y180921D02*
D03*
X-33760Y190921D02*
D03*
Y180921D02*
D03*
X-23760Y190921D02*
D03*
Y180921D02*
D03*
X-13760Y190921D02*
D03*
Y180921D02*
D03*
X-3760Y190921D02*
D03*
Y180921D02*
D03*
X6240Y190921D02*
D03*
X-163760Y-177032D02*
D03*
Y-187031D02*
D03*
X-153760Y-177032D02*
D03*
Y-187031D02*
D03*
X-143760Y-177032D02*
D03*
Y-187031D02*
D03*
X-133760Y-177032D02*
D03*
Y-187031D02*
D03*
X-123760Y-177032D02*
D03*
Y-187031D02*
D03*
X-113760Y-177032D02*
D03*
Y-187031D02*
D03*
X-103760Y-177032D02*
D03*
Y-187031D02*
D03*
X-93760Y-177032D02*
D03*
Y-187031D02*
D03*
X-83760Y-177032D02*
D03*
Y-187031D02*
D03*
X-73760Y-177032D02*
D03*
Y-187031D02*
D03*
X-63760Y-177032D02*
D03*
Y-187031D02*
D03*
X-53760Y-177032D02*
D03*
Y-187031D02*
D03*
X-43760Y-177032D02*
D03*
Y-187031D02*
D03*
X-33760Y-177032D02*
D03*
Y-187031D02*
D03*
X-23760Y-177032D02*
D03*
Y-187031D02*
D03*
X-13760Y-177032D02*
D03*
Y-187031D02*
D03*
X-3760Y-177032D02*
D03*
Y-187031D02*
D03*
X6240Y-177032D02*
D03*
D42*
Y180921D02*
D03*
Y-187031D02*
D03*
D43*
X-44992Y-139244D02*
D03*
X-39992Y-144244D02*
D03*
Y-134244D02*
D03*
X-49992D02*
D03*
Y-144244D02*
D03*
D44*
X-116756Y107795D02*
D03*
X-109685D02*
D03*
Y100724D02*
D03*
X-116756D02*
D03*
X-47685Y107795D02*
D03*
X-40614D02*
D03*
Y100724D02*
D03*
X-47685D02*
D03*
D45*
X-78000Y-30000D02*
D03*
X-77000Y-79500D02*
D03*
X-67000Y-79000D02*
D03*
X-87500Y-16000D02*
D03*
X-77500Y-19500D02*
D03*
X-86500Y-4000D02*
D03*
X-39185Y91795D02*
D03*
X-48685D02*
D03*
X-117685D02*
D03*
X-108185D02*
D03*
X-128110Y72441D02*
D03*
X-97756Y72295D02*
D03*
X-59039Y72441D02*
D03*
X-28685Y72295D02*
D03*
X-117685Y32295D02*
D03*
X-29185Y-156205D02*
D03*
X-36185D02*
D03*
X-42185D02*
D03*
X-48185D02*
D03*
X-54185D02*
D03*
X-60185D02*
D03*
X-125685Y-156705D02*
D03*
X-118185Y-89205D02*
D03*
X-124185Y-102705D02*
D03*
X-65492Y-101244D02*
D03*
Y-93244D02*
D03*
X-49992Y-94744D02*
D03*
X-109992Y-105244D02*
D03*
X-108992Y-92244D02*
D03*
X-76992Y-123744D02*
D03*
X-102492Y-119744D02*
D03*
X-66992Y-4744D02*
D03*
X-89992Y-79244D02*
D03*
X-65492Y-106744D02*
D03*
X-78992Y-89244D02*
D03*
X-109992Y-109244D02*
D03*
X-49992Y-89244D02*
D03*
X-109992Y-97744D02*
D03*
X-102992Y-134244D02*
D03*
X-75492Y-110244D02*
D03*
X-49992Y-110744D02*
D03*
Y-100244D02*
D03*
X-120185Y-118205D02*
D03*
X-74457Y-161205D02*
D03*
X-79185Y59795D02*
D03*
X-49992Y-105244D02*
D03*
X-119992Y-35887D02*
D03*
X-73492Y-14744D02*
D03*
X-33492Y-72244D02*
D03*
X-38492Y-77744D02*
D03*
X-42992Y-72244D02*
D03*
X-126492Y-26744D02*
D03*
X-120992Y-21744D02*
D03*
X-115992Y-26744D02*
D03*
X-110992Y-70744D02*
D03*
X-96492Y-112744D02*
D03*
X-41492Y-64244D02*
D03*
X-63992D02*
D03*
X-72492Y-19244D02*
D03*
Y-46744D02*
D03*
X-52492Y-35887D02*
D03*
X-57992Y-27244D02*
D03*
X-68992Y-32744D02*
D03*
X-77492Y-68744D02*
D03*
X-64492Y-50744D02*
D03*
X-108992Y-63744D02*
D03*
X-86492Y-64244D02*
D03*
X-97492Y-35887D02*
D03*
X-93492Y-27244D02*
D03*
X-103492Y-26744D02*
D03*
X-106492Y-77244D02*
D03*
X-88492Y-68744D02*
D03*
X-68492Y-21744D02*
D03*
X-53492Y-22244D02*
D03*
X-48492Y-27744D02*
D03*
X-59492Y-77744D02*
D03*
X-66058Y-72744D02*
D03*
X-63492Y-79244D02*
D03*
D46*
X-112862Y-54360D02*
D03*
X-96500Y-53882D02*
D03*
D47*
X-91185Y6295D02*
D03*
D48*
X-18185Y36295D02*
D03*
X-86685Y37795D02*
D03*
X-30185Y25795D02*
D03*
X-94685Y24295D02*
D03*
D49*
X-97902Y72441D02*
X-97756Y72295D01*
X-128110Y72441D02*
X-97902D01*
X-59039D02*
X-28831D01*
X-28685Y72295D01*
M02*
