G04*
G04 #@! TF.GenerationSoftware,Altium Limited,Altium Designer,22.4.2 (48)*
G04*
G04 Layer_Color=65535*
%FSLAX25Y25*%
%MOIN*%
G70*
G04*
G04 #@! TF.SameCoordinates,D9425D36-0AFB-4970-BFF6-08718D8895E8*
G04*
G04*
G04 #@! TF.FilePolarity,Positive*
G04*
G01*
G75*
%ADD10C,0.00984*%
%ADD11C,0.01575*%
%ADD12C,0.01000*%
%ADD13C,0.00394*%
%ADD14C,0.00787*%
%ADD15C,0.00600*%
%ADD16C,0.00300*%
%ADD17C,0.00591*%
G36*
X-107915Y-104773D02*
Y-103273D01*
X-108915D01*
Y-104773D01*
X-107915D01*
D02*
G37*
G36*
X-93556Y-80569D02*
Y-79569D01*
X-95056D01*
Y-80569D01*
X-93556D01*
D02*
G37*
G36*
X-87649Y-121569D02*
Y-122569D01*
X-89149D01*
Y-121569D01*
X-87649D01*
D02*
G37*
G36*
X-66915Y-106742D02*
Y-105242D01*
X-65915D01*
Y-106742D01*
X-66915D01*
D02*
G37*
G36*
X17312Y-123500D02*
X6713D01*
Y-72705D01*
X6713D01*
Y-69886D01*
X6728Y-70159D01*
X6757Y-70424D01*
X6794Y-70668D01*
X6824Y-70779D01*
X6846Y-70889D01*
X6868Y-70985D01*
X6897Y-71066D01*
X6920Y-71148D01*
X6934Y-71207D01*
X6956Y-71266D01*
X6964Y-71302D01*
X6979Y-71325D01*
Y-71332D01*
X7089Y-71598D01*
X7215Y-71849D01*
X7348Y-72077D01*
X7414Y-72188D01*
X7473Y-72284D01*
X7532Y-72373D01*
X7591Y-72454D01*
X7635Y-72528D01*
X7680Y-72587D01*
X7717Y-72638D01*
X7746Y-72675D01*
X7761Y-72697D01*
X7768Y-72705D01*
X6875D01*
X10300D01*
Y-69819D01*
X9495D01*
Y-71819D01*
X8218D01*
X8123Y-71701D01*
X8041Y-71568D01*
X7960Y-71428D01*
X7886Y-71288D01*
X7827Y-71162D01*
X7798Y-71111D01*
X7776Y-71066D01*
X7761Y-71022D01*
X7746Y-70993D01*
X7739Y-70978D01*
Y-70970D01*
X7665Y-70764D01*
X7613Y-70557D01*
X7569Y-70365D01*
X7547Y-70196D01*
X7539Y-70114D01*
X7532Y-70048D01*
X7525Y-69989D01*
Y-69937D01*
X7517Y-69893D01*
Y-69834D01*
X7532Y-69583D01*
X7562Y-69347D01*
X7613Y-69133D01*
X7635Y-69029D01*
X7665Y-68941D01*
X7694Y-68860D01*
X7717Y-68786D01*
X7746Y-68720D01*
X7768Y-68660D01*
X7783Y-68616D01*
X7798Y-68587D01*
X7812Y-68565D01*
Y-68557D01*
X7872Y-68446D01*
X7938Y-68343D01*
X8078Y-68166D01*
X8233Y-68011D01*
X8381Y-67878D01*
X8514Y-67782D01*
X8573Y-67738D01*
X8617Y-67708D01*
X8661Y-67679D01*
X8691Y-67664D01*
X8713Y-67657D01*
X8720Y-67649D01*
X8964Y-67546D01*
X9222Y-67472D01*
X9473Y-67413D01*
X9717Y-67376D01*
X9827Y-67369D01*
X9931Y-67354D01*
X10019Y-67347D01*
X10100D01*
X10159Y-67339D01*
X10211D01*
X10240D01*
X10248D01*
X10521Y-67354D01*
X10779Y-67384D01*
X11008Y-67421D01*
X11119Y-67443D01*
X11215Y-67472D01*
X11303Y-67494D01*
X11384Y-67517D01*
X11451Y-67539D01*
X11510Y-67561D01*
X11562Y-67576D01*
X11591Y-67590D01*
X11613Y-67598D01*
X11621D01*
X11753Y-67657D01*
X11879Y-67723D01*
X11997Y-67797D01*
X12093Y-67864D01*
X12174Y-67923D01*
X12241Y-67974D01*
X12277Y-68004D01*
X12292Y-68018D01*
X12403Y-68129D01*
X12499Y-68255D01*
X12587Y-68373D01*
X12661Y-68491D01*
X12720Y-68594D01*
X12757Y-68675D01*
X12772Y-68705D01*
X12787Y-68727D01*
X12794Y-68742D01*
Y-68749D01*
X12860Y-68926D01*
X12905Y-69103D01*
X12942Y-69288D01*
X12964Y-69450D01*
X12971Y-69531D01*
X12979Y-69598D01*
Y-69664D01*
X12986Y-69716D01*
Y-69819D01*
X12979Y-70004D01*
X12956Y-70181D01*
X12927Y-70336D01*
X12897Y-70476D01*
X12860Y-70587D01*
X12846Y-70638D01*
X12831Y-70675D01*
X12816Y-70705D01*
X12809Y-70727D01*
X12801Y-70742D01*
Y-70749D01*
X12728Y-70897D01*
X12654Y-71030D01*
X12573Y-71140D01*
X12499Y-71236D01*
X12425Y-71302D01*
X12373Y-71354D01*
X12336Y-71391D01*
X12322Y-71399D01*
X12204Y-71480D01*
X12071Y-71553D01*
X11938Y-71620D01*
X11805Y-71679D01*
X11687Y-71723D01*
X11635Y-71738D01*
X11598Y-71753D01*
X11562Y-71767D01*
X11532Y-71775D01*
X11517Y-71782D01*
X11510D01*
X11731Y-72601D01*
X11975Y-72528D01*
X12196Y-72446D01*
X12292Y-72402D01*
X12388Y-72358D01*
X12469Y-72321D01*
X12543Y-72277D01*
X12617Y-72240D01*
X12676Y-72203D01*
X12728Y-72166D01*
X12772Y-72144D01*
X12801Y-72114D01*
X12823Y-72100D01*
X12838Y-72092D01*
X12846Y-72085D01*
X13001Y-71945D01*
X13134Y-71797D01*
X13244Y-71642D01*
X13340Y-71487D01*
X13414Y-71354D01*
X13443Y-71295D01*
X13466Y-71244D01*
X13488Y-71207D01*
X13502Y-71177D01*
X13510Y-71155D01*
Y-71148D01*
X13591Y-70919D01*
X13650Y-70690D01*
X13694Y-70461D01*
X13724Y-70255D01*
X13731Y-70159D01*
X13739Y-70078D01*
X13746Y-70004D01*
X13753Y-69937D01*
Y-72705D01*
D01*
Y-66410D01*
X10787D01*
X13753D01*
Y-69812D01*
X13746Y-69627D01*
X13739Y-69443D01*
X13716Y-69266D01*
X13687Y-69103D01*
X13657Y-68941D01*
X13621Y-68793D01*
X13584Y-68653D01*
X13547Y-68528D01*
X13502Y-68417D01*
X13466Y-68314D01*
X13429Y-68225D01*
X13399Y-68151D01*
X13370Y-68092D01*
X13348Y-68048D01*
X13340Y-68018D01*
X13333Y-68011D01*
X13252Y-67871D01*
X13156Y-67738D01*
X13060Y-67612D01*
X12956Y-67502D01*
X12846Y-67391D01*
X12742Y-67295D01*
X12639Y-67207D01*
X12536Y-67125D01*
X12432Y-67059D01*
X12344Y-66993D01*
X12263Y-66941D01*
X12189Y-66897D01*
X12130Y-66867D01*
X12086Y-66845D01*
X12056Y-66830D01*
X12049Y-66823D01*
X11886Y-66749D01*
X11724Y-66690D01*
X11562Y-66631D01*
X11399Y-66587D01*
X11089Y-66513D01*
X10942Y-66483D01*
X10801Y-66461D01*
X10676Y-66447D01*
X10558Y-66432D01*
X10455Y-66424D01*
X10366Y-66417D01*
X10292Y-66410D01*
X10196D01*
D01*
X6808D01*
X10196D01*
X10012Y-66417D01*
X9827Y-66424D01*
X9657Y-66447D01*
X9488Y-66476D01*
X9333Y-66505D01*
X9178Y-66542D01*
X9038Y-66579D01*
X8912Y-66616D01*
X8794Y-66653D01*
X8691Y-66690D01*
X8602Y-66727D01*
X8521Y-66756D01*
X8462Y-66786D01*
X8418Y-66808D01*
X8388Y-66816D01*
X8381Y-66823D01*
X8233Y-66904D01*
X8093Y-67000D01*
X7967Y-67096D01*
X7842Y-67192D01*
X7731Y-67295D01*
X7635Y-67399D01*
X7539Y-67502D01*
X7458Y-67598D01*
X7384Y-67694D01*
X7318Y-67782D01*
X7266Y-67864D01*
X7222Y-67930D01*
X7185Y-67981D01*
X7163Y-68026D01*
X7148Y-68055D01*
X7141Y-68063D01*
X7067Y-68218D01*
X7001Y-68380D01*
X6942Y-68535D01*
X6897Y-68690D01*
X6853Y-68852D01*
X6816Y-69000D01*
X6787Y-69148D01*
X6764Y-69280D01*
X6750Y-69406D01*
X6735Y-69524D01*
X6728Y-69627D01*
X6720Y-69716D01*
X6713Y-69790D01*
Y-66410D01*
X6713D01*
Y-57089D01*
X9355D01*
X9569Y-57081D01*
X9776Y-57059D01*
X9967Y-57030D01*
X10145Y-56985D01*
X10307Y-56941D01*
X10455Y-56882D01*
X10595Y-56823D01*
X10720Y-56764D01*
X10831Y-56705D01*
X10927Y-56646D01*
X11008Y-56587D01*
X11074Y-56542D01*
X11134Y-56498D01*
X11170Y-56469D01*
X11192Y-56447D01*
X11200Y-56439D01*
X11318Y-56314D01*
X11421Y-56181D01*
X11510Y-56048D01*
X11591Y-55908D01*
X11650Y-55768D01*
X11709Y-55635D01*
X11753Y-55495D01*
X11790Y-55369D01*
X11812Y-55244D01*
X11835Y-55133D01*
X11849Y-55037D01*
X11864Y-54949D01*
Y-54875D01*
X11872Y-54823D01*
Y-56657D01*
Y-54779D01*
X11864Y-54609D01*
X11849Y-54447D01*
X11820Y-54299D01*
X11783Y-54151D01*
X11746Y-54011D01*
X11694Y-53886D01*
X11650Y-53768D01*
X11598Y-53664D01*
X11547Y-53561D01*
X11495Y-53480D01*
X11444Y-53406D01*
X11407Y-53340D01*
X11370Y-53295D01*
X11340Y-53258D01*
X11325Y-53236D01*
X11318Y-53229D01*
X11185Y-53096D01*
X11045Y-52978D01*
X10890Y-52875D01*
X10728Y-52786D01*
X10558Y-52720D01*
X10388Y-52653D01*
X10218Y-52602D01*
X10056Y-52565D01*
X9901Y-52535D01*
X9761Y-52506D01*
X9628Y-52491D01*
X9510Y-52483D01*
X9421Y-52476D01*
X9347Y-52469D01*
X9289D01*
X9060Y-52476D01*
X8846Y-52498D01*
X8647Y-52528D01*
X8462Y-52565D01*
X8292Y-52616D01*
X8137Y-52668D01*
X7997Y-52727D01*
X7864Y-52786D01*
X7754Y-52845D01*
X7650Y-52904D01*
X7569Y-52956D01*
X7502Y-53008D01*
X7444Y-53044D01*
X7407Y-53074D01*
X7384Y-53096D01*
X7377Y-53104D01*
X7259Y-53229D01*
X7156Y-53362D01*
X7067Y-53495D01*
X6993Y-53635D01*
X6927Y-53775D01*
X6875Y-53915D01*
X6831Y-54048D01*
X6794Y-54181D01*
X6772Y-54306D01*
X6750Y-54417D01*
X6735Y-54520D01*
X6720Y-54609D01*
Y-54683D01*
X6713Y-54734D01*
Y-52469D01*
X6713D01*
Y-48897D01*
X11872D01*
X8521D01*
X8632Y-48078D01*
X8514Y-48055D01*
X8410Y-48033D01*
X8307Y-48004D01*
X8218Y-47974D01*
X8130Y-47938D01*
X8056Y-47908D01*
X7990Y-47871D01*
X7923Y-47834D01*
X7872Y-47797D01*
X7827Y-47768D01*
X7754Y-47709D01*
X7709Y-47672D01*
X7702Y-47664D01*
X7694Y-47657D01*
X7598Y-47524D01*
X7525Y-47391D01*
X7473Y-47251D01*
X7436Y-47126D01*
X7414Y-47008D01*
X7407Y-46963D01*
Y-46919D01*
X7399Y-46882D01*
Y-46838D01*
X7407Y-46727D01*
X7421Y-46616D01*
X7444Y-46521D01*
X7473Y-46425D01*
X7539Y-46255D01*
X7628Y-46107D01*
X7665Y-46048D01*
X7709Y-45996D01*
X7746Y-45952D01*
X7783Y-45908D01*
X7805Y-45878D01*
X7827Y-45856D01*
X7842Y-45849D01*
X7849Y-45842D01*
X7938Y-45775D01*
X8041Y-45716D01*
X8152Y-45664D01*
X8263Y-45627D01*
X8506Y-45554D01*
X8742Y-45509D01*
X8853Y-45495D01*
X8956Y-45487D01*
X9052Y-45480D01*
X9133Y-45472D01*
X9200Y-45465D01*
X9252D01*
X9289D01*
X9296D01*
X9473Y-45472D01*
X9643Y-45480D01*
X9790Y-45502D01*
X9931Y-45524D01*
X10063Y-45554D01*
X10182Y-45591D01*
X10285Y-45627D01*
X10381Y-45664D01*
X10462Y-45694D01*
X10536Y-45731D01*
X10595Y-45768D01*
X10639Y-45797D01*
X10683Y-45819D01*
X10706Y-45842D01*
X10720Y-45849D01*
X10728Y-45856D01*
X10809Y-45930D01*
X10875Y-46011D01*
X10942Y-46100D01*
X10993Y-46181D01*
X11038Y-46270D01*
X11074Y-46351D01*
X11126Y-46513D01*
X11163Y-46661D01*
X11170Y-46720D01*
X11178Y-46779D01*
X11185Y-46823D01*
Y-46882D01*
X11178Y-47030D01*
X11148Y-47170D01*
X11104Y-47288D01*
X11060Y-47391D01*
X11008Y-47473D01*
X10971Y-47539D01*
X10942Y-47576D01*
X10927Y-47591D01*
X10824Y-47694D01*
X10706Y-47782D01*
X10580Y-47849D01*
X10462Y-47908D01*
X10351Y-47952D01*
X10263Y-47982D01*
X10226Y-47989D01*
X10204Y-47997D01*
X10189Y-48004D01*
X10182D01*
X10307Y-48816D01*
X10440Y-48786D01*
X10573Y-48742D01*
X10691Y-48698D01*
X10801Y-48653D01*
X10905Y-48602D01*
X11001Y-48543D01*
X11082Y-48491D01*
X11163Y-48432D01*
X11229Y-48380D01*
X11288Y-48329D01*
X11340Y-48284D01*
X11384Y-48240D01*
X11414Y-48210D01*
X11436Y-48181D01*
X11451Y-48166D01*
X11458Y-48159D01*
X11532Y-48063D01*
X11598Y-47960D01*
X11650Y-47849D01*
X11694Y-47738D01*
X11768Y-47517D01*
X11820Y-47310D01*
X11835Y-47214D01*
X11849Y-47126D01*
X11857Y-47045D01*
X11864Y-46978D01*
X11872Y-46926D01*
Y-46779D01*
Y-46845D01*
X11857Y-46616D01*
X11827Y-46395D01*
X11776Y-46196D01*
X11746Y-46107D01*
X11724Y-46019D01*
X11694Y-45945D01*
X11665Y-45878D01*
X11643Y-45819D01*
X11613Y-45768D01*
X11598Y-45724D01*
X11584Y-45694D01*
X11569Y-45679D01*
Y-45672D01*
X11444Y-45480D01*
X11303Y-45318D01*
X11148Y-45177D01*
X11008Y-45067D01*
X10875Y-44978D01*
X10816Y-44949D01*
X10764Y-44919D01*
X10728Y-44897D01*
X10698Y-44882D01*
X10676Y-44867D01*
X10669D01*
X10440Y-44779D01*
X10196Y-44720D01*
X9960Y-44675D01*
X9746Y-44639D01*
X9643Y-44631D01*
X9554Y-44624D01*
X9473Y-44616D01*
X9399D01*
X9347Y-44609D01*
X9266D01*
X9045Y-44616D01*
X8831Y-44639D01*
X8632Y-44668D01*
X8447Y-44705D01*
X8277Y-44749D01*
X8123Y-44801D01*
X7982Y-44860D01*
X7857Y-44919D01*
X7746Y-44971D01*
X7643Y-45030D01*
X7562Y-45081D01*
X7495Y-45126D01*
X7436Y-45163D01*
X7399Y-45192D01*
X7377Y-45214D01*
X7370Y-45222D01*
X7252Y-45340D01*
X7156Y-45465D01*
X7067Y-45598D01*
X6993Y-45731D01*
X6927Y-45871D01*
X6875Y-46004D01*
X6831Y-46137D01*
X6794Y-46262D01*
X6764Y-46380D01*
X6750Y-46491D01*
X6735Y-46594D01*
X6720Y-46676D01*
Y-46749D01*
X6713Y-46801D01*
Y-44609D01*
X6713D01*
Y-14330D01*
X17312D01*
Y-123500D01*
D02*
G37*
G36*
X6720Y-46993D02*
X6735Y-47133D01*
X6757Y-47266D01*
X6787Y-47399D01*
X6824Y-47517D01*
X6868Y-47627D01*
X6905Y-47731D01*
X6956Y-47827D01*
X7001Y-47908D01*
X7038Y-47989D01*
X7082Y-48048D01*
X7119Y-48107D01*
X7148Y-48144D01*
X7170Y-48181D01*
X7185Y-48196D01*
X7193Y-48203D01*
X7288Y-48299D01*
X7384Y-48395D01*
X7495Y-48476D01*
X7606Y-48543D01*
X7717Y-48609D01*
X7827Y-48668D01*
X8034Y-48757D01*
X8137Y-48794D01*
X8226Y-48823D01*
X8307Y-48845D01*
X8381Y-48867D01*
X8440Y-48882D01*
X8484Y-48889D01*
X8514Y-48897D01*
X6713D01*
Y-46845D01*
X6720Y-46993D01*
D02*
G37*
G36*
X9458Y-53332D02*
X9621Y-53340D01*
X9768Y-53362D01*
X9908Y-53391D01*
X10034Y-53421D01*
X10152Y-53458D01*
X10255Y-53495D01*
X10351Y-53531D01*
X10432Y-53568D01*
X10506Y-53605D01*
X10565Y-53642D01*
X10617Y-53672D01*
X10654Y-53701D01*
X10683Y-53723D01*
X10698Y-53731D01*
X10706Y-53738D01*
X10787Y-53819D01*
X10860Y-53900D01*
X10927Y-53989D01*
X10978Y-54078D01*
X11023Y-54166D01*
X11060Y-54247D01*
X11119Y-54417D01*
X11156Y-54557D01*
X11163Y-54624D01*
X11170Y-54675D01*
X11178Y-54720D01*
Y-54779D01*
X11170Y-54889D01*
X11156Y-55000D01*
X11134Y-55103D01*
X11104Y-55199D01*
X11030Y-55376D01*
X10942Y-55532D01*
X10897Y-55590D01*
X10853Y-55650D01*
X10816Y-55694D01*
X10779Y-55738D01*
X10750Y-55768D01*
X10728Y-55790D01*
X10713Y-55805D01*
X10706Y-55812D01*
X10610Y-55886D01*
X10514Y-55952D01*
X10403Y-56004D01*
X10292Y-56055D01*
X10174Y-56100D01*
X10056Y-56129D01*
X9835Y-56181D01*
X9731Y-56196D01*
X9635Y-56210D01*
X9547Y-56218D01*
X9466Y-56225D01*
X9407Y-56233D01*
X9355D01*
X9325D01*
X9318D01*
X9141Y-56225D01*
X8979Y-56218D01*
X8824Y-56196D01*
X8683Y-56166D01*
X8551Y-56137D01*
X8432Y-56100D01*
X8322Y-56063D01*
X8233Y-56026D01*
X8145Y-55982D01*
X8071Y-55945D01*
X8012Y-55908D01*
X7960Y-55878D01*
X7923Y-55849D01*
X7894Y-55827D01*
X7879Y-55819D01*
X7872Y-55812D01*
X7790Y-55731D01*
X7717Y-55650D01*
X7650Y-55561D01*
X7598Y-55480D01*
X7554Y-55391D01*
X7517Y-55303D01*
X7458Y-55140D01*
X7421Y-55000D01*
X7414Y-54934D01*
X7407Y-54882D01*
X7399Y-54838D01*
Y-54779D01*
X7407Y-54661D01*
X7421Y-54557D01*
X7444Y-54447D01*
X7473Y-54351D01*
X7547Y-54174D01*
X7635Y-54026D01*
X7672Y-53960D01*
X7717Y-53900D01*
X7754Y-53856D01*
X7790Y-53812D01*
X7820Y-53782D01*
X7842Y-53760D01*
X7857Y-53746D01*
X7864Y-53738D01*
X7960Y-53664D01*
X8063Y-53605D01*
X8174Y-53546D01*
X8285Y-53502D01*
X8521Y-53428D01*
X8757Y-53377D01*
X8861Y-53362D01*
X8964Y-53347D01*
X9052Y-53340D01*
X9133Y-53332D01*
X9200Y-53325D01*
X9244D01*
X9281D01*
X9289D01*
X9458Y-53332D01*
D02*
G37*
G36*
X6728Y-55015D02*
X6757Y-55236D01*
X6809Y-55436D01*
X6831Y-55532D01*
X6860Y-55613D01*
X6890Y-55694D01*
X6912Y-55760D01*
X6942Y-55819D01*
X6964Y-55871D01*
X6979Y-55915D01*
X6993Y-55945D01*
X7008Y-55959D01*
Y-55967D01*
X7134Y-56159D01*
X7266Y-56328D01*
X7407Y-56469D01*
X7547Y-56587D01*
X7665Y-56683D01*
X7724Y-56720D01*
X7768Y-56749D01*
X7805Y-56771D01*
X7835Y-56786D01*
X7849Y-56801D01*
X7857D01*
X7967Y-56853D01*
X8078Y-56897D01*
X8322Y-56971D01*
X8573Y-57022D01*
X8809Y-57052D01*
X8919Y-57067D01*
X9023Y-57074D01*
X9119Y-57081D01*
X9200D01*
X9266Y-57089D01*
X6713D01*
Y-54779D01*
X6728Y-55015D01*
D02*
G37*
G36*
X6713Y-123500D02*
X-3579D01*
D01*
X-17312D01*
Y-14330D01*
X6713D01*
Y-123500D01*
D02*
G37*
%LPC*%
G36*
X13635Y-38369D02*
Y-38380D01*
D01*
Y-38369D01*
D02*
G37*
G36*
Y-39045D02*
Y-39056D01*
D01*
Y-39045D01*
D02*
G37*
G36*
Y-34890D02*
X6824D01*
Y-37664D01*
Y-35761D01*
X12624D01*
X6824Y-37723D01*
Y-38535D01*
X12528Y-40528D01*
X6824D01*
Y-40502D01*
Y-41399D01*
X13635D01*
Y-40181D01*
X8897Y-38543D01*
X8765Y-38498D01*
X8647Y-38454D01*
X8528Y-38417D01*
X8425Y-38380D01*
X8322Y-38351D01*
X8233Y-38321D01*
X8152Y-38292D01*
X8078Y-38270D01*
X8019Y-38247D01*
X7960Y-38233D01*
X7916Y-38218D01*
X7872Y-38203D01*
X7842Y-38196D01*
X7820Y-38188D01*
X7812Y-38181D01*
X7805D01*
X7872Y-38159D01*
X7945Y-38137D01*
X8100Y-38085D01*
X8270Y-38034D01*
X8432Y-37982D01*
X8580Y-37930D01*
X8647Y-37908D01*
X8698Y-37893D01*
X8742Y-37879D01*
X8779Y-37864D01*
X8801Y-37856D01*
X8809D01*
X13635Y-36240D01*
Y-34890D01*
D02*
G37*
G36*
Y-42749D02*
X12683D01*
Y-43583D01*
X11761D01*
Y-42749D01*
X6824D01*
Y-43583D01*
X13635D01*
Y-42749D01*
D02*
G37*
G36*
X11872Y-49605D02*
X6824D01*
Y-52284D01*
Y-50439D01*
X9407D01*
X9599Y-50447D01*
X9783Y-50461D01*
X9945Y-50484D01*
X10093Y-50506D01*
X10211Y-50528D01*
X10263Y-50543D01*
X10307Y-50550D01*
X10336Y-50557D01*
X10359Y-50565D01*
X10373Y-50572D01*
X10381D01*
X10484Y-50616D01*
X10580Y-50661D01*
X10654Y-50712D01*
X10720Y-50764D01*
X10772Y-50808D01*
X10809Y-50845D01*
X10831Y-50875D01*
X10838Y-50882D01*
X10897Y-50971D01*
X10934Y-51052D01*
X10964Y-51133D01*
X10986Y-51214D01*
X11001Y-51281D01*
X11008Y-51332D01*
Y-51376D01*
X11001Y-51495D01*
X10978Y-51605D01*
X10949Y-51709D01*
X10920Y-51797D01*
X10883Y-51878D01*
X10853Y-51937D01*
X10831Y-51974D01*
X10824Y-51989D01*
X11598Y-52284D01*
X11687Y-52122D01*
X11753Y-51960D01*
X11805Y-51819D01*
X11835Y-51687D01*
X11857Y-51576D01*
X11864Y-51531D01*
Y-51495D01*
X11872Y-51465D01*
Y-52196D01*
Y-51421D01*
X11864Y-51318D01*
X11842Y-51214D01*
X11820Y-51126D01*
X11790Y-51044D01*
X11753Y-50985D01*
X11731Y-50934D01*
X11709Y-50904D01*
X11702Y-50889D01*
X11665Y-50845D01*
X11621Y-50793D01*
X11525Y-50705D01*
X11407Y-50616D01*
X11288Y-50535D01*
X11185Y-50461D01*
X11089Y-50410D01*
X11060Y-50388D01*
X11030Y-50373D01*
X11015Y-50358D01*
X11761D01*
Y-49605D01*
X11872D01*
D02*
G37*
G36*
Y-58070D02*
X6824D01*
Y-62077D01*
X11872D01*
X10056D01*
X10152Y-62070D01*
X10233D01*
X10307Y-62063D01*
X10373D01*
X10484Y-62055D01*
X10565Y-62041D01*
X10624Y-62033D01*
X10661Y-62026D01*
X10669D01*
X10801Y-61996D01*
X10920Y-61952D01*
X11023Y-61915D01*
X11111Y-61871D01*
X11185Y-61827D01*
X11244Y-61797D01*
X11274Y-61775D01*
X11288Y-61768D01*
X11384Y-61694D01*
X11466Y-61605D01*
X11532Y-61509D01*
X11598Y-61421D01*
X11643Y-61332D01*
X11680Y-61266D01*
X11702Y-61221D01*
X11709Y-61214D01*
Y-61207D01*
X11761Y-61067D01*
X11805Y-60926D01*
X11835Y-60786D01*
X11849Y-60661D01*
X11864Y-60550D01*
Y-60506D01*
X11872Y-60461D01*
Y-60387D01*
X11864Y-60203D01*
X11835Y-60026D01*
X11798Y-59864D01*
X11746Y-59709D01*
X11680Y-59568D01*
X11613Y-59443D01*
X11539Y-59325D01*
X11466Y-59222D01*
X11384Y-59126D01*
X11311Y-59044D01*
X11244Y-58978D01*
X11178Y-58926D01*
X11126Y-58882D01*
X11089Y-58845D01*
X11060Y-58830D01*
X11052Y-58823D01*
X11761D01*
Y-58070D01*
X11872D01*
D02*
G37*
G36*
X9709Y-63030D02*
X8868D01*
Y-65605D01*
X9709D01*
Y-63030D01*
D02*
G37*
G36*
X10787Y-66410D02*
X10292D01*
D01*
X10787D01*
D02*
G37*
G36*
X13635Y-73996D02*
X6824D01*
Y-78254D01*
X13635D01*
Y-73996D01*
D02*
G37*
G36*
Y-79480D02*
X6824D01*
Y-80380D01*
X13635D01*
Y-79480D01*
D02*
G37*
G36*
Y-81959D02*
X6824D01*
Y-82823D01*
X12167D01*
X6824Y-86395D01*
Y-87325D01*
X13635D01*
Y-81959D01*
D02*
G37*
G36*
X11761Y-90860D02*
X6824Y-92727D01*
Y-93524D01*
X11761Y-95398D01*
Y-90860D01*
D02*
G37*
G36*
X7776Y-96372D02*
X6824D01*
Y-97324D01*
X7776D01*
Y-96372D01*
D02*
G37*
G36*
X13657Y-98431D02*
D01*
Y-100800D01*
X13650Y-100623D01*
X13635Y-100453D01*
X13613Y-100299D01*
X13576Y-100151D01*
X13539Y-100011D01*
X13495Y-99885D01*
X13451Y-99767D01*
X13407Y-99664D01*
X13355Y-99568D01*
X13311Y-99487D01*
X13266Y-99413D01*
X13229Y-99354D01*
X13193Y-99310D01*
X13170Y-99280D01*
X13156Y-99258D01*
X13148Y-99251D01*
X13052Y-99147D01*
X12942Y-99059D01*
X12831Y-98978D01*
X12706Y-98904D01*
X12587Y-98845D01*
X12469Y-98786D01*
X12344Y-98741D01*
X12233Y-98704D01*
X12122Y-98668D01*
X12019Y-98645D01*
X11923Y-98623D01*
X11842Y-98608D01*
X11776Y-98601D01*
X11731Y-98594D01*
X11702Y-98586D01*
X11687D01*
X11598Y-99442D01*
X11716Y-99450D01*
X11827Y-99457D01*
X12019Y-99502D01*
X12196Y-99561D01*
X12270Y-99590D01*
X12336Y-99627D01*
X12395Y-99656D01*
X12447Y-99693D01*
X12491Y-99723D01*
X12528Y-99745D01*
X12558Y-99775D01*
X12580Y-99789D01*
X12587Y-99797D01*
X12595Y-99804D01*
X12661Y-99878D01*
X12720Y-99952D01*
X12765Y-100033D01*
X12809Y-100114D01*
X12875Y-100276D01*
X12920Y-100431D01*
X12942Y-100564D01*
X12956Y-100623D01*
Y-100675D01*
X12964Y-100719D01*
Y-100882D01*
X12949Y-100985D01*
X12912Y-101169D01*
X12853Y-101324D01*
X12794Y-101465D01*
X12728Y-101568D01*
X12698Y-101612D01*
X12669Y-101649D01*
X12646Y-101679D01*
X12632Y-101701D01*
X12624Y-101708D01*
X12617Y-101716D01*
X12551Y-101782D01*
X12484Y-101834D01*
X12418Y-101885D01*
X12344Y-101922D01*
X12204Y-101989D01*
X12071Y-102033D01*
X11960Y-102055D01*
X11908Y-102070D01*
X11864D01*
X11835Y-102077D01*
X11805D01*
X11790D01*
X11783D01*
X11694Y-102070D01*
X11606Y-102062D01*
X11429Y-102018D01*
X11259Y-101952D01*
X11104Y-101878D01*
X10971Y-101804D01*
X10920Y-101775D01*
X10868Y-101738D01*
X10831Y-101716D01*
X10801Y-101693D01*
X10787Y-101686D01*
X10779Y-101679D01*
X10676Y-101597D01*
X10565Y-101502D01*
X10447Y-101391D01*
X10329Y-101273D01*
X10086Y-101029D01*
X9857Y-100778D01*
X9746Y-100660D01*
X9650Y-100542D01*
X9562Y-100439D01*
X9488Y-100350D01*
X9421Y-100276D01*
X9377Y-100225D01*
X9340Y-100188D01*
X9333Y-100173D01*
X9222Y-100040D01*
X9119Y-99922D01*
X9023Y-99804D01*
X8927Y-99701D01*
X8838Y-99598D01*
X8750Y-99509D01*
X8676Y-99428D01*
X8602Y-99354D01*
X8536Y-99287D01*
X8477Y-99236D01*
X8425Y-99184D01*
X8388Y-99147D01*
X8351Y-99110D01*
X8329Y-99088D01*
X8314Y-99081D01*
X8307Y-99073D01*
X8145Y-98941D01*
X7982Y-98830D01*
X7827Y-98734D01*
X7687Y-98660D01*
X7569Y-98601D01*
X7517Y-98579D01*
X7480Y-98557D01*
X7444Y-98542D01*
X7421Y-98535D01*
X7407Y-98527D01*
X7399D01*
X7296Y-98491D01*
X7193Y-98468D01*
X7097Y-98446D01*
X7008Y-98439D01*
X6934Y-98431D01*
X6824D01*
Y-102941D01*
X13657D01*
Y-98431D01*
D02*
G37*
%LPD*%
G36*
X9687Y-58912D02*
X9849Y-58919D01*
X9990Y-58941D01*
X10123Y-58963D01*
X10240Y-58993D01*
X10344Y-59022D01*
X10440Y-59059D01*
X10521Y-59096D01*
X10595Y-59133D01*
X10654Y-59170D01*
X10698Y-59199D01*
X10742Y-59229D01*
X10772Y-59251D01*
X10794Y-59273D01*
X10801Y-59281D01*
X10809Y-59288D01*
X10868Y-59362D01*
X10920Y-59443D01*
X11008Y-59598D01*
X11067Y-59753D01*
X11104Y-59893D01*
X11134Y-60018D01*
X11141Y-60078D01*
Y-60122D01*
X11148Y-60159D01*
Y-60210D01*
X11141Y-60336D01*
X11126Y-60447D01*
X11097Y-60543D01*
X11074Y-60631D01*
X11045Y-60698D01*
X11015Y-60749D01*
X11001Y-60786D01*
X10993Y-60793D01*
X10934Y-60882D01*
X10868Y-60956D01*
X10801Y-61015D01*
X10735Y-61059D01*
X10676Y-61096D01*
X10632Y-61118D01*
X10602Y-61133D01*
X10587Y-61140D01*
X10484Y-61177D01*
X10366Y-61199D01*
X10240Y-61221D01*
X10115Y-61229D01*
X10004Y-61236D01*
X9953Y-61244D01*
X9908D01*
X9879D01*
X9849D01*
X9835D01*
X9827D01*
X6824D01*
Y-58904D01*
X9517D01*
X9687Y-58912D01*
D02*
G37*
G36*
X13635Y-78254D02*
X7628D01*
Y-74897D01*
X13635D01*
Y-78254D01*
D02*
G37*
G36*
Y-86461D02*
X8285D01*
X13635Y-82882D01*
Y-86461D01*
D02*
G37*
G36*
X11761Y-94535D02*
X8742Y-93435D01*
X8543Y-93361D01*
X8366Y-93302D01*
X8204Y-93251D01*
X8071Y-93206D01*
X7960Y-93169D01*
X7916Y-93155D01*
X7872Y-93147D01*
X7842Y-93140D01*
X7820Y-93133D01*
X7812Y-93125D01*
X7805D01*
X7997Y-93066D01*
X8181Y-93015D01*
X8351Y-92963D01*
X8499Y-92911D01*
X8624Y-92867D01*
X8676Y-92852D01*
X8720Y-92837D01*
X8757Y-92823D01*
X8779Y-92815D01*
X8794Y-92808D01*
X8801D01*
X11761Y-91745D01*
Y-94535D01*
D02*
G37*
G36*
X7790Y-99701D02*
X7864Y-99760D01*
X7931Y-99819D01*
X7990Y-99871D01*
X8034Y-99907D01*
X8063Y-99937D01*
X8071Y-99944D01*
X8115Y-99989D01*
X8174Y-100048D01*
X8233Y-100114D01*
X8300Y-100188D01*
X8447Y-100343D01*
X8587Y-100505D01*
X8720Y-100660D01*
X8779Y-100727D01*
X8831Y-100793D01*
X8875Y-100837D01*
X8905Y-100882D01*
X8927Y-100904D01*
X8934Y-100911D01*
X9075Y-101074D01*
X9207Y-101228D01*
X9325Y-101369D01*
X9443Y-101494D01*
X9547Y-101612D01*
X9650Y-101716D01*
X9739Y-101812D01*
X9820Y-101900D01*
X9886Y-101974D01*
X9953Y-102033D01*
X10004Y-102085D01*
X10049Y-102129D01*
X10086Y-102158D01*
X10108Y-102188D01*
X10123Y-102195D01*
X10130Y-102203D01*
X10292Y-102343D01*
X10440Y-102453D01*
X10580Y-102550D01*
X10706Y-102631D01*
X10809Y-102690D01*
X10890Y-102734D01*
X10920Y-102749D01*
X10942Y-102756D01*
X10949Y-102763D01*
X10956D01*
X11104Y-102822D01*
X11252Y-102859D01*
X11384Y-102889D01*
X11510Y-102911D01*
X11613Y-102926D01*
X11694Y-102933D01*
X11724D01*
X11746D01*
X11753D01*
X11761D01*
X11908Y-102926D01*
X12049Y-102911D01*
X12182Y-102882D01*
X12314Y-102845D01*
X12432Y-102800D01*
X12543Y-102749D01*
X12646Y-102697D01*
X12735Y-102645D01*
X12823Y-102594D01*
X12897Y-102542D01*
X12964Y-102490D01*
X13015Y-102446D01*
X13052Y-102409D01*
X13089Y-102380D01*
X13104Y-102365D01*
X13111Y-102358D01*
X13207Y-102247D01*
X13288Y-102129D01*
X13362Y-102003D01*
X13429Y-101871D01*
X13480Y-101745D01*
X13525Y-101612D01*
X13562Y-101487D01*
X13591Y-101361D01*
X13613Y-101251D01*
X13628Y-101140D01*
X13643Y-101044D01*
X13650Y-100963D01*
X13657Y-100896D01*
Y-102941D01*
X7628D01*
Y-99583D01*
X7790Y-99701D01*
D02*
G37*
%LPC*%
G36*
X5343Y-16506D02*
D01*
Y-18152D01*
X5122Y-17989D01*
X4908Y-17842D01*
X4694Y-17709D01*
X4487Y-17576D01*
X4280Y-17465D01*
X4089Y-17355D01*
X3904Y-17259D01*
X3734Y-17178D01*
X3572Y-17104D01*
X3432Y-17037D01*
X3306Y-16986D01*
X3203Y-16941D01*
X3114Y-16905D01*
X3048Y-16882D01*
X3011Y-16868D01*
X2996Y-16860D01*
X2804Y-16801D01*
X2613Y-16742D01*
X2244Y-16654D01*
X2059Y-16624D01*
X1882Y-16595D01*
X1720Y-16572D01*
X1565Y-16550D01*
X1417Y-16536D01*
X1284Y-16528D01*
X1173Y-16513D01*
X1070D01*
X996Y-16506D01*
X886D01*
X649Y-16513D01*
X421Y-16528D01*
X199Y-16550D01*
X-22Y-16580D01*
X-229Y-16617D01*
X-428Y-16654D01*
X-620Y-16698D01*
X-797Y-16742D01*
X-952Y-16786D01*
X-1100Y-16831D01*
X-1225Y-16868D01*
X-1336Y-16905D01*
X-1417Y-16934D01*
X-1483Y-16956D01*
X-1520Y-16971D01*
X-1535Y-16978D01*
X-1749Y-17074D01*
X-1956Y-17170D01*
X-2155Y-17266D01*
X-2347Y-17362D01*
X-2524Y-17465D01*
X-2694Y-17561D01*
X-2849Y-17657D01*
X-2996Y-17746D01*
X-3122Y-17827D01*
X-3240Y-17908D01*
X-3343Y-17975D01*
X-3424Y-18034D01*
X-3491Y-18085D01*
X-3542Y-18122D01*
X-3572Y-18144D01*
X-3579Y-18152D01*
Y-18750D01*
X-3373Y-18624D01*
X-3166Y-18506D01*
X-2959Y-18395D01*
X-2753Y-18292D01*
X-2339Y-18108D01*
X-1948Y-17945D01*
X-1564Y-17812D01*
X-1196Y-17702D01*
X-841Y-17606D01*
X-517Y-17539D01*
X-214Y-17480D01*
X-81Y-17458D01*
X52Y-17436D01*
X177Y-17421D01*
X295Y-17406D01*
X399Y-17392D01*
X495Y-17384D01*
X583Y-17377D01*
X657Y-17369D01*
X723D01*
X775Y-17362D01*
X819D01*
X856D01*
X871D01*
X878D01*
X1203Y-17369D01*
X1520Y-17392D01*
X1675Y-17406D01*
X1815Y-17428D01*
X1956Y-17443D01*
X2081Y-17465D01*
X2199Y-17480D01*
X2303Y-17495D01*
X2399Y-17517D01*
X2480Y-17532D01*
X2539Y-17547D01*
X2590Y-17554D01*
X2620Y-17561D01*
X2627D01*
X2886Y-17628D01*
X3129Y-17702D01*
X3358Y-17775D01*
X3461Y-17812D01*
X3557Y-17842D01*
X3646Y-17879D01*
X3727Y-17908D01*
X3793Y-17938D01*
X3852Y-17960D01*
X3897Y-17975D01*
X3934Y-17989D01*
X3956Y-18004D01*
X3963D01*
X4044Y-18041D01*
X4140Y-18085D01*
X4244Y-18137D01*
X4354Y-18196D01*
X4583Y-18322D01*
X4812Y-18447D01*
X4915Y-18506D01*
X5018Y-18558D01*
X5107Y-18609D01*
X5188Y-18661D01*
X5255Y-18698D01*
X5299Y-18727D01*
X5336Y-18742D01*
X5343Y-18750D01*
Y-16506D01*
D02*
G37*
G36*
X945Y-19480D02*
X864D01*
X642Y-19488D01*
X428Y-19510D01*
X229Y-19539D01*
X44Y-19576D01*
X-125Y-19620D01*
X-280Y-19672D01*
X-421Y-19731D01*
X-546Y-19790D01*
X-657Y-19842D01*
X-760Y-19901D01*
X-841Y-19952D01*
X-908Y-19997D01*
X-967Y-20034D01*
X-1004Y-20063D01*
X-1026Y-20085D01*
X-1033Y-20093D01*
X-1151Y-20211D01*
X-1247Y-20336D01*
X-1336Y-20469D01*
X-1409Y-20602D01*
X-1476Y-20742D01*
X-1528Y-20875D01*
X-1572Y-21008D01*
X-1609Y-21133D01*
X-1638Y-21251D01*
X-1653Y-21362D01*
X-1668Y-21465D01*
X-1683Y-21547D01*
Y-21620D01*
X-1690Y-21672D01*
Y-19480D01*
D01*
Y-23768D01*
Y-21716D01*
X-1683Y-21864D01*
X-1668Y-22004D01*
X-1646Y-22137D01*
X-1616Y-22270D01*
X-1579Y-22388D01*
X-1535Y-22499D01*
X-1498Y-22602D01*
X-1446Y-22698D01*
X-1402Y-22779D01*
X-1365Y-22860D01*
X-1321Y-22919D01*
X-1284Y-22978D01*
X-1255Y-23015D01*
X-1232Y-23052D01*
X-1218Y-23067D01*
X-1210Y-23074D01*
X-1114Y-23170D01*
X-1018Y-23266D01*
X-908Y-23347D01*
X-797Y-23414D01*
X-686Y-23480D01*
X-576Y-23539D01*
X-369Y-23628D01*
X-266Y-23665D01*
X-177Y-23694D01*
X-96Y-23716D01*
X-22Y-23738D01*
X37Y-23753D01*
X81Y-23761D01*
X111Y-23768D01*
X-1690D01*
X3469D01*
X118D01*
X229Y-22949D01*
X111Y-22927D01*
X7Y-22905D01*
X-96Y-22875D01*
X-184Y-22846D01*
X-273Y-22809D01*
X-347Y-22779D01*
X-413Y-22742D01*
X-480Y-22705D01*
X-531Y-22668D01*
X-576Y-22639D01*
X-649Y-22580D01*
X-694Y-22543D01*
X-701Y-22535D01*
X-708Y-22528D01*
X-804Y-22395D01*
X-878Y-22262D01*
X-930Y-22122D01*
X-967Y-21997D01*
X-989Y-21879D01*
X-996Y-21834D01*
Y-21790D01*
X-1004Y-21753D01*
Y-21709D01*
X-996Y-21598D01*
X-981Y-21487D01*
X-959Y-21392D01*
X-930Y-21296D01*
X-863Y-21126D01*
X-775Y-20978D01*
X-738Y-20919D01*
X-694Y-20868D01*
X-657Y-20823D01*
X-620Y-20779D01*
X-598Y-20750D01*
X-576Y-20727D01*
X-561Y-20720D01*
X-554Y-20713D01*
X-465Y-20646D01*
X-362Y-20587D01*
X-251Y-20536D01*
X-140Y-20499D01*
X103Y-20425D01*
X340Y-20380D01*
X450Y-20366D01*
X554Y-20358D01*
X649Y-20351D01*
X731Y-20344D01*
X797Y-20336D01*
X849D01*
X886D01*
X893D01*
X1070Y-20344D01*
X1240Y-20351D01*
X1388Y-20373D01*
X1528Y-20395D01*
X1660Y-20425D01*
X1779Y-20462D01*
X1882Y-20499D01*
X1978Y-20536D01*
X2059Y-20565D01*
X2133Y-20602D01*
X2192Y-20639D01*
X2236Y-20668D01*
X2280Y-20691D01*
X2303Y-20713D01*
X2317Y-20720D01*
X2325Y-20727D01*
X2406Y-20801D01*
X2472Y-20882D01*
X2539Y-20971D01*
X2590Y-21052D01*
X2635Y-21141D01*
X2672Y-21222D01*
X2723Y-21384D01*
X2760Y-21532D01*
X2767Y-21591D01*
X2775Y-21650D01*
X2782Y-21694D01*
Y-21753D01*
X2775Y-21901D01*
X2745Y-22041D01*
X2701Y-22159D01*
X2657Y-22262D01*
X2605Y-22344D01*
X2568Y-22410D01*
X2539Y-22447D01*
X2524Y-22462D01*
X2421Y-22565D01*
X2303Y-22654D01*
X2177Y-22720D01*
X2059Y-22779D01*
X1948Y-22823D01*
X1860Y-22853D01*
X1823Y-22860D01*
X1801Y-22868D01*
X1786Y-22875D01*
X1779D01*
X1904Y-23687D01*
X2037Y-23657D01*
X2170Y-23613D01*
X2288Y-23569D01*
X2399Y-23524D01*
X2502Y-23473D01*
X2598Y-23414D01*
X2679Y-23362D01*
X2760Y-23303D01*
X2827Y-23251D01*
X2886Y-23200D01*
X2937Y-23155D01*
X2982Y-23111D01*
X3011Y-23082D01*
X3033Y-23052D01*
X3048Y-23037D01*
X3055Y-23030D01*
X3129Y-22934D01*
X3196Y-22831D01*
X3247Y-22720D01*
X3291Y-22609D01*
X3365Y-22388D01*
X3417Y-22181D01*
X3432Y-22085D01*
X3447Y-21997D01*
X3454Y-21916D01*
X3461Y-21849D01*
X3469Y-21798D01*
Y-21650D01*
Y-21716D01*
X3454Y-21487D01*
X3424Y-21266D01*
X3373Y-21067D01*
X3343Y-20978D01*
X3321Y-20890D01*
X3291Y-20816D01*
X3262Y-20750D01*
X3240Y-20691D01*
X3210Y-20639D01*
X3196Y-20595D01*
X3181Y-20565D01*
X3166Y-20550D01*
Y-20543D01*
X3041Y-20351D01*
X2900Y-20189D01*
X2745Y-20048D01*
X2605Y-19938D01*
X2472Y-19849D01*
X2413Y-19820D01*
X2362Y-19790D01*
X2325Y-19768D01*
X2295Y-19753D01*
X2273Y-19738D01*
X2266D01*
X2037Y-19650D01*
X1793Y-19591D01*
X1557Y-19547D01*
X1343Y-19510D01*
X1240Y-19502D01*
X1151Y-19495D01*
X1070Y-19488D01*
X996D01*
X945Y-19480D01*
D02*
G37*
G36*
X5343Y-24432D02*
X5166Y-24535D01*
X5004Y-24624D01*
X4849Y-24713D01*
X4708Y-24786D01*
X4583Y-24853D01*
X4472Y-24912D01*
X4369Y-24971D01*
X4280Y-25015D01*
X4199Y-25052D01*
X4133Y-25089D01*
X4074Y-25118D01*
X4030Y-25141D01*
X3993Y-25155D01*
X3971Y-25170D01*
X3956Y-25177D01*
X3948D01*
X3705Y-25273D01*
X3469Y-25362D01*
X3247Y-25436D01*
X3136Y-25473D01*
X3041Y-25502D01*
X2952Y-25524D01*
X2864Y-25547D01*
X2790Y-25569D01*
X2731Y-25583D01*
X2679Y-25598D01*
X2642Y-25606D01*
X2620Y-25613D01*
X2613D01*
X2288Y-25679D01*
X1978Y-25731D01*
X1830Y-25753D01*
X1683Y-25768D01*
X1550Y-25783D01*
X1424Y-25798D01*
X1306Y-25805D01*
X1203Y-25812D01*
X1107D01*
X1026Y-25820D01*
X967D01*
X915D01*
X886D01*
X878D01*
X672Y-25812D01*
X458Y-25805D01*
X44Y-25761D01*
X-362Y-25694D01*
X-760Y-25606D01*
X-1144Y-25495D01*
X-1513Y-25384D01*
X-1860Y-25259D01*
X-2192Y-25126D01*
X-2487Y-24993D01*
X-2627Y-24934D01*
X-2760Y-24875D01*
X-2878Y-24809D01*
X-2996Y-24757D01*
X-3100Y-24698D01*
X-3196Y-24646D01*
X-3284Y-24602D01*
X-3358Y-24558D01*
X-3424Y-24521D01*
X-3476Y-24491D01*
X-3520Y-24469D01*
X-3557Y-24447D01*
X-3572Y-24440D01*
X-3579Y-24432D01*
X5343D01*
X-3579D01*
Y-26676D01*
Y-25030D01*
X-3240Y-25273D01*
X-2885Y-25495D01*
X-2546Y-25694D01*
X-2384Y-25783D01*
X-2229Y-25864D01*
X-2081Y-25938D01*
X-1948Y-26004D01*
X-1830Y-26056D01*
X-1734Y-26100D01*
X-1646Y-26137D01*
X-1587Y-26166D01*
X-1550Y-26181D01*
X-1535Y-26189D01*
X-1314Y-26277D01*
X-1100Y-26351D01*
X-878Y-26417D01*
X-664Y-26469D01*
X-458Y-26521D01*
X-258Y-26558D01*
X-66Y-26587D01*
X111Y-26617D01*
X280Y-26639D01*
X428Y-26654D01*
X561Y-26661D01*
X672Y-26668D01*
X760Y-26676D01*
X5343D01*
X886D01*
X1092Y-26668D01*
X1292Y-26661D01*
X1491Y-26646D01*
X1683Y-26617D01*
X1860Y-26594D01*
X2037Y-26565D01*
X2199Y-26528D01*
X2354Y-26499D01*
X2495Y-26462D01*
X2620Y-26432D01*
X2731Y-26395D01*
X2819Y-26373D01*
X2893Y-26351D01*
X2952Y-26329D01*
X2982Y-26321D01*
X2996Y-26314D01*
X3218Y-26233D01*
X3439Y-26137D01*
X3860Y-25938D01*
X4066Y-25834D01*
X4258Y-25724D01*
X4443Y-25620D01*
X4612Y-25517D01*
X4767Y-25421D01*
X4915Y-25325D01*
X5041Y-25244D01*
X5144Y-25170D01*
X5225Y-25111D01*
X5291Y-25067D01*
X5328Y-25037D01*
X5343Y-25030D01*
Y-24432D01*
D02*
G37*
G36*
X5350Y-27458D02*
X613D01*
D01*
X5350D01*
D01*
D02*
G37*
G36*
X-5052Y-26702D02*
X-11864D01*
Y-30709D01*
X-8609D01*
X-8484Y-30702D01*
X-8366Y-30694D01*
X-8263Y-30679D01*
X-8159Y-30665D01*
X-8071Y-30650D01*
X-7989Y-30635D01*
X-7916Y-30620D01*
X-7849Y-30606D01*
X-7790Y-30591D01*
X-7746Y-30576D01*
X-7702Y-30561D01*
X-7672Y-30547D01*
X-7650Y-30539D01*
X-7643Y-30532D01*
X-7635D01*
X-7502Y-30458D01*
X-7377Y-30369D01*
X-7274Y-30266D01*
X-7192Y-30178D01*
X-7126Y-30089D01*
X-7074Y-30015D01*
X-7060Y-29986D01*
X-7045Y-29963D01*
X-7038Y-29956D01*
Y-29949D01*
X-6964Y-29794D01*
X-6912Y-29631D01*
X-6868Y-29476D01*
X-6846Y-29329D01*
X-6831Y-29196D01*
X-6824Y-29144D01*
X-6816Y-29093D01*
Y-29004D01*
X-6824Y-28842D01*
X-6846Y-28687D01*
X-6883Y-28539D01*
X-6920Y-28399D01*
X-6978Y-28273D01*
X-7030Y-28148D01*
X-7097Y-28037D01*
X-7156Y-27941D01*
X-7222Y-27845D01*
X-7288Y-27764D01*
X-7340Y-27698D01*
X-7392Y-27639D01*
X-7436Y-27595D01*
X-7473Y-27565D01*
X-7495Y-27543D01*
X-7502Y-27535D01*
X-5052D01*
Y-26702D01*
D02*
G37*
G36*
X613Y-27458D02*
X-1690D01*
Y-32875D01*
D01*
Y-30358D01*
X-1675Y-30624D01*
X-1646Y-30867D01*
X-1609Y-31089D01*
X-1579Y-31192D01*
X-1557Y-31281D01*
X-1535Y-31369D01*
X-1505Y-31443D01*
X-1483Y-31510D01*
X-1469Y-31561D01*
X-1446Y-31605D01*
X-1439Y-31635D01*
X-1424Y-31657D01*
Y-31665D01*
X-1314Y-31871D01*
X-1196Y-32048D01*
X-1070Y-32203D01*
X-952Y-32329D01*
X-841Y-32432D01*
X-760Y-32498D01*
X-723Y-32528D01*
X-701Y-32543D01*
X-686Y-32557D01*
X-679D01*
X-590Y-32617D01*
X-494Y-32661D01*
X-317Y-32742D01*
X-148Y-32801D01*
X7Y-32838D01*
X148Y-32860D01*
X199Y-32868D01*
X251D01*
X288Y-32875D01*
X-1690D01*
X5350D01*
X340D01*
X539Y-32860D01*
X723Y-32831D01*
X886Y-32786D01*
X1026Y-32735D01*
X1144Y-32676D01*
X1196Y-32653D01*
X1233Y-32631D01*
X1262Y-32617D01*
X1284Y-32602D01*
X1299Y-32587D01*
X1306D01*
X1380Y-32528D01*
X1454Y-32469D01*
X1594Y-32329D01*
X1712Y-32188D01*
X1808Y-32041D01*
X1889Y-31916D01*
X1926Y-31856D01*
X1948Y-31805D01*
X1970Y-31768D01*
X1985Y-31738D01*
X2000Y-31716D01*
Y-31709D01*
X2037Y-31628D01*
X2074Y-31524D01*
X2111Y-31421D01*
X2148Y-31303D01*
X2214Y-31052D01*
X2280Y-30801D01*
X2317Y-30683D01*
X2340Y-30572D01*
X2369Y-30469D01*
X2384Y-30380D01*
X2406Y-30307D01*
X2421Y-30255D01*
X2428Y-30218D01*
Y-30203D01*
X2472Y-30004D01*
X2524Y-29827D01*
X2568Y-29672D01*
X2613Y-29524D01*
X2657Y-29399D01*
X2694Y-29288D01*
X2731Y-29192D01*
X2767Y-29111D01*
X2804Y-29045D01*
X2834Y-28986D01*
X2856Y-28941D01*
X2878Y-28904D01*
X2900Y-28875D01*
X2915Y-28860D01*
X2922Y-28845D01*
X3018Y-28757D01*
X3114Y-28698D01*
X3218Y-28653D01*
X3314Y-28617D01*
X3395Y-28602D01*
X3461Y-28594D01*
X3506Y-28587D01*
X3513D01*
X3520D01*
X3602Y-28594D01*
X3675Y-28602D01*
X3808Y-28646D01*
X3934Y-28705D01*
X4037Y-28772D01*
X4126Y-28838D01*
X4192Y-28897D01*
X4229Y-28941D01*
X4244Y-28949D01*
Y-28956D01*
X4295Y-29030D01*
X4347Y-29118D01*
X4421Y-29303D01*
X4472Y-29495D01*
X4509Y-29694D01*
X4524Y-29783D01*
X4531Y-29871D01*
X4539Y-29945D01*
Y-30011D01*
X4546Y-30070D01*
Y-30285D01*
X4531Y-30417D01*
X4517Y-30543D01*
X4495Y-30661D01*
X4472Y-30764D01*
X4443Y-30860D01*
X4413Y-30949D01*
X4384Y-31030D01*
X4347Y-31096D01*
X4317Y-31155D01*
X4288Y-31207D01*
X4266Y-31251D01*
X4244Y-31281D01*
X4229Y-31310D01*
X4221Y-31318D01*
X4214Y-31325D01*
X4148Y-31399D01*
X4081Y-31465D01*
X3926Y-31569D01*
X3764Y-31657D01*
X3609Y-31716D01*
X3469Y-31760D01*
X3410Y-31775D01*
X3351Y-31790D01*
X3306Y-31797D01*
X3277D01*
X3255Y-31805D01*
X3247D01*
X3314Y-32668D01*
X3535Y-32646D01*
X3734Y-32602D01*
X3919Y-32550D01*
X4074Y-32491D01*
X4140Y-32454D01*
X4207Y-32432D01*
X4258Y-32403D01*
X4303Y-32380D01*
X4340Y-32358D01*
X4362Y-32344D01*
X4376Y-32336D01*
X4384Y-32329D01*
X4553Y-32203D01*
X4694Y-32063D01*
X4819Y-31916D01*
X4922Y-31768D01*
X4996Y-31642D01*
X5026Y-31583D01*
X5055Y-31539D01*
X5077Y-31502D01*
X5085Y-31465D01*
X5100Y-31451D01*
Y-31443D01*
X5181Y-31222D01*
X5247Y-30993D01*
X5291Y-30764D01*
X5321Y-30558D01*
X5328Y-30462D01*
X5336Y-30380D01*
X5343Y-30299D01*
X5350Y-30233D01*
Y-30107D01*
X5343Y-29857D01*
X5314Y-29620D01*
X5277Y-29414D01*
X5255Y-29318D01*
X5232Y-29229D01*
X5210Y-29148D01*
X5188Y-29074D01*
X5166Y-29008D01*
X5151Y-28956D01*
X5136Y-28919D01*
X5122Y-28882D01*
X5114Y-28868D01*
Y-28860D01*
X5018Y-28661D01*
X4908Y-28491D01*
X4797Y-28344D01*
X4686Y-28225D01*
X4583Y-28130D01*
X4502Y-28056D01*
X4472Y-28034D01*
X4450Y-28019D01*
X4435Y-28004D01*
X4428D01*
X4258Y-27908D01*
X4089Y-27834D01*
X3934Y-27790D01*
X3786Y-27753D01*
X3653Y-27731D01*
X3602Y-27724D01*
X3557D01*
X3520Y-27716D01*
X3491D01*
X3476D01*
X3469D01*
X3299Y-27724D01*
X3136Y-27753D01*
X2989Y-27790D01*
X2864Y-27834D01*
X2760Y-27879D01*
X2679Y-27915D01*
X2650Y-27930D01*
X2627Y-27945D01*
X2620Y-27952D01*
X2613D01*
X2480Y-28048D01*
X2354Y-28166D01*
X2251Y-28284D01*
X2155Y-28410D01*
X2081Y-28513D01*
X2029Y-28602D01*
X2015Y-28639D01*
X2000Y-28661D01*
X1985Y-28676D01*
Y-28683D01*
X1948Y-28757D01*
X1911Y-28845D01*
X1875Y-28941D01*
X1838Y-29045D01*
X1764Y-29259D01*
X1697Y-29480D01*
X1668Y-29583D01*
X1638Y-29672D01*
X1616Y-29761D01*
X1594Y-29842D01*
X1579Y-29901D01*
X1565Y-29952D01*
X1557Y-29982D01*
Y-29989D01*
X1520Y-30159D01*
X1476Y-30314D01*
X1446Y-30447D01*
X1410Y-30572D01*
X1380Y-30683D01*
X1358Y-30786D01*
X1328Y-30867D01*
X1306Y-30949D01*
X1292Y-31008D01*
X1269Y-31067D01*
X1255Y-31111D01*
X1247Y-31141D01*
X1240Y-31170D01*
X1233Y-31185D01*
X1225Y-31200D01*
X1159Y-31347D01*
X1092Y-31473D01*
X1026Y-31583D01*
X967Y-31665D01*
X908Y-31731D01*
X864Y-31775D01*
X834Y-31805D01*
X827Y-31812D01*
X738Y-31879D01*
X642Y-31923D01*
X546Y-31960D01*
X458Y-31982D01*
X384Y-31997D01*
X317Y-32004D01*
X280D01*
X273D01*
X266D01*
X155Y-31997D01*
X44Y-31975D01*
X-52Y-31938D01*
X-140Y-31908D01*
X-214Y-31871D01*
X-273Y-31834D01*
X-302Y-31812D01*
X-317Y-31805D01*
X-413Y-31724D01*
X-494Y-31635D01*
X-568Y-31532D01*
X-627Y-31436D01*
X-672Y-31347D01*
X-708Y-31281D01*
X-723Y-31251D01*
X-731Y-31229D01*
X-738Y-31222D01*
Y-31214D01*
X-790Y-31067D01*
X-826Y-30912D01*
X-849Y-30757D01*
X-863Y-30617D01*
X-878Y-30498D01*
Y-30447D01*
X-886Y-30403D01*
Y-30314D01*
X-878Y-30100D01*
X-856Y-29908D01*
X-819Y-29724D01*
X-782Y-29569D01*
X-768Y-29502D01*
X-753Y-29443D01*
X-731Y-29392D01*
X-716Y-29347D01*
X-701Y-29310D01*
X-694Y-29288D01*
X-686Y-29273D01*
Y-29266D01*
X-605Y-29104D01*
X-517Y-28964D01*
X-435Y-28845D01*
X-347Y-28749D01*
X-273Y-28676D01*
X-214Y-28624D01*
X-177Y-28587D01*
X-162Y-28580D01*
X-30Y-28506D01*
X111Y-28447D01*
X251Y-28403D01*
X384Y-28366D01*
X509Y-28336D01*
X554Y-28329D01*
X598Y-28321D01*
X635Y-28314D01*
X664Y-28307D01*
X679D01*
X686D01*
X613Y-27458D01*
D01*
X487Y-27465D01*
X362Y-27480D01*
X133Y-27524D01*
X-81Y-27583D01*
X-177Y-27613D01*
X-258Y-27650D01*
X-339Y-27679D01*
X-413Y-27716D01*
X-472Y-27746D01*
X-524Y-27775D01*
X-568Y-27797D01*
X-598Y-27812D01*
X-612Y-27820D01*
X-620Y-27827D01*
X-812Y-27967D01*
X-974Y-28130D01*
X-1114Y-28292D01*
X-1225Y-28447D01*
X-1314Y-28587D01*
X-1343Y-28646D01*
X-1373Y-28698D01*
X-1395Y-28742D01*
X-1409Y-28772D01*
X-1424Y-28794D01*
Y-28801D01*
X-1513Y-29052D01*
X-1579Y-29310D01*
X-1624Y-29569D01*
X-1653Y-29812D01*
X-1668Y-29930D01*
X-1675Y-30034D01*
X-1683Y-30122D01*
Y-30203D01*
X-1690Y-30270D01*
Y-27458D01*
X613D01*
D01*
D02*
G37*
G36*
X-5207Y-31513D02*
X-11930D01*
X-7576D01*
Y-32133D01*
X-10425D01*
X-10558D01*
X-10683Y-32141D01*
X-10794D01*
X-10897Y-32148D01*
X-10986Y-32155D01*
X-11067Y-32163D01*
X-11141Y-32170D01*
X-11200Y-32185D01*
X-11252Y-32192D01*
X-11296Y-32200D01*
X-11333Y-32207D01*
X-11362Y-32214D01*
X-11399Y-32222D01*
X-11414Y-32229D01*
X-11495Y-32273D01*
X-11569Y-32325D01*
X-11635Y-32384D01*
X-11687Y-32443D01*
X-11731Y-32502D01*
X-11761Y-32546D01*
X-11783Y-32576D01*
X-11790Y-32583D01*
X-11834Y-32687D01*
X-11871Y-32797D01*
X-11894Y-32915D01*
X-11916Y-33034D01*
X-11923Y-33137D01*
X-11930Y-33218D01*
Y-33093D01*
Y-33292D01*
X-11916Y-33513D01*
X-11908Y-33617D01*
X-11894Y-33713D01*
X-11879Y-33801D01*
X-11871Y-33867D01*
X-11857Y-33912D01*
Y-33926D01*
D01*
X-11119Y-33816D01*
X-11126Y-33735D01*
X-11133Y-33661D01*
X-11141Y-33594D01*
Y-33543D01*
X-11148Y-33498D01*
Y-33373D01*
X-11141Y-33314D01*
X-11126Y-33270D01*
X-11119Y-33225D01*
X-11104Y-33196D01*
X-11096Y-33174D01*
X-11089Y-33159D01*
Y-33152D01*
X-11038Y-33093D01*
X-10986Y-33048D01*
X-10942Y-33019D01*
X-10934Y-33011D01*
X-10927D01*
X-10875Y-32997D01*
X-10809Y-32989D01*
X-10735Y-32974D01*
X-10661D01*
X-10587Y-32967D01*
X-10528D01*
X-10484D01*
X-10477D01*
X-10469D01*
X-7576D01*
Y-33816D01*
X-6927D01*
Y-32967D01*
X-5207D01*
Y-33816D01*
Y-31513D01*
D02*
G37*
G36*
Y-34155D02*
Y-35609D01*
X-5709Y-34775D01*
X-6927D01*
Y-34155D01*
X-7576D01*
Y-34775D01*
X-10425D01*
X-10558D01*
X-10683Y-34783D01*
X-10794D01*
X-10897Y-34790D01*
X-10986Y-34797D01*
X-11067Y-34805D01*
X-11141Y-34812D01*
X-11200Y-34827D01*
X-11252Y-34834D01*
X-11296Y-34842D01*
X-11333Y-34849D01*
X-11362Y-34856D01*
X-11399Y-34864D01*
X-11414Y-34871D01*
X-11495Y-34915D01*
X-11569Y-34967D01*
X-11635Y-35026D01*
X-11687Y-35085D01*
X-11731Y-35144D01*
X-11761Y-35188D01*
X-11783Y-35218D01*
X-11790Y-35225D01*
X-11834Y-35329D01*
X-11871Y-35439D01*
X-11894Y-35557D01*
X-11916Y-35676D01*
X-11923Y-35779D01*
X-11930Y-35860D01*
Y-35735D01*
Y-35934D01*
X-11916Y-36155D01*
X-11908Y-36259D01*
X-11894Y-36355D01*
X-11879Y-36443D01*
X-11871Y-36509D01*
X-11857Y-36554D01*
Y-36569D01*
X-11930D01*
D01*
X-5207D01*
Y-34155D01*
D02*
G37*
G36*
X5232Y-33997D02*
X-1579D01*
Y-34831D01*
X1114D01*
X1321Y-34838D01*
X1506Y-34853D01*
X1660Y-34875D01*
X1786Y-34897D01*
X1889Y-34919D01*
X1963Y-34941D01*
X1985Y-34949D01*
X2007Y-34956D01*
X2022Y-34963D01*
X2140Y-35023D01*
X2244Y-35096D01*
X2332Y-35170D01*
X2406Y-35251D01*
X2465Y-35318D01*
X2509Y-35377D01*
X2539Y-35414D01*
X2546Y-35428D01*
X2613Y-35554D01*
X2664Y-35679D01*
X2694Y-35797D01*
X2723Y-35901D01*
X2738Y-35997D01*
X2745Y-36070D01*
Y-36130D01*
X2731Y-36307D01*
X2701Y-36462D01*
X2657Y-36587D01*
X2605Y-36698D01*
X2546Y-36786D01*
X2502Y-36845D01*
X2472Y-36882D01*
X2458Y-36897D01*
X2399Y-36949D01*
X2340Y-36985D01*
X2192Y-37052D01*
X2044Y-37104D01*
X1889Y-37133D01*
X1757Y-37155D01*
X1697Y-37163D01*
X1646D01*
X1602Y-37170D01*
X1572D01*
X1550D01*
X1543D01*
X-1579D01*
Y-38004D01*
X5232D01*
X1675D01*
X1801Y-37997D01*
X1919Y-37989D01*
X2022Y-37975D01*
X2125Y-37960D01*
X2214Y-37945D01*
X2295Y-37930D01*
X2369Y-37915D01*
X2435Y-37901D01*
X2495Y-37886D01*
X2539Y-37871D01*
X2583Y-37856D01*
X2613Y-37842D01*
X2635Y-37834D01*
X2642Y-37827D01*
X2650D01*
X2782Y-37753D01*
X2908Y-37664D01*
X3011Y-37561D01*
X3092Y-37473D01*
X3159Y-37384D01*
X3210Y-37310D01*
X3225Y-37281D01*
X3240Y-37259D01*
X3247Y-37251D01*
Y-37244D01*
X3321Y-37089D01*
X3373Y-36926D01*
X3417Y-36772D01*
X3439Y-36624D01*
X3454Y-36491D01*
X3461Y-36439D01*
X3469Y-36388D01*
Y-36299D01*
X3461Y-36137D01*
X3439Y-35982D01*
X3402Y-35834D01*
X3365Y-35694D01*
X3306Y-35569D01*
X3255Y-35443D01*
X3188Y-35332D01*
X3129Y-35236D01*
X3063Y-35140D01*
X2996Y-35059D01*
X2945Y-34993D01*
X2893Y-34934D01*
X2849Y-34890D01*
X2812Y-34860D01*
X2790Y-34838D01*
X2782Y-34831D01*
X5232D01*
Y-33997D01*
D02*
G37*
G36*
X-6927Y-37277D02*
X-13753D01*
Y-38111D01*
X-11355D01*
X-11451Y-38192D01*
X-11539Y-38281D01*
X-11620Y-38369D01*
X-11680Y-38458D01*
X-11731Y-38532D01*
X-11776Y-38598D01*
X-11798Y-38635D01*
X-11805Y-38650D01*
X-11864Y-38775D01*
X-11901Y-38908D01*
X-11930Y-39033D01*
X-11953Y-39152D01*
X-11967Y-39255D01*
X-11975Y-39329D01*
Y-39402D01*
X-11967Y-39513D01*
X-11960Y-39617D01*
X-11923Y-39816D01*
X-11871Y-40000D01*
X-11812Y-40163D01*
X-11783Y-40236D01*
X-11761Y-40303D01*
X-11731Y-40354D01*
X-11709Y-40406D01*
X-11687Y-40443D01*
X-11672Y-40473D01*
X-11657Y-40487D01*
Y-40495D01*
X-11525Y-40679D01*
X-11377Y-40834D01*
X-11222Y-40974D01*
X-11067Y-41085D01*
X-10934Y-41174D01*
X-10875Y-41203D01*
X-10824Y-41233D01*
X-10787Y-41255D01*
X-10757Y-41270D01*
X-10735Y-41284D01*
X-10728D01*
X-10491Y-41373D01*
X-10255Y-41439D01*
X-10026Y-41491D01*
X-9820Y-41521D01*
X-9724Y-41535D01*
X-9635Y-41543D01*
X-9554Y-41550D01*
X-9488D01*
X-9436Y-41557D01*
X-13753D01*
D01*
X-6816D01*
Y-39461D01*
X-6824Y-39292D01*
X-6846Y-39129D01*
X-6875Y-38989D01*
X-6912Y-38871D01*
X-6949Y-38775D01*
X-6978Y-38701D01*
X-7001Y-38657D01*
X-7008Y-38650D01*
Y-38642D01*
X-7089Y-38517D01*
X-7178Y-38406D01*
X-7274Y-38303D01*
X-7362Y-38214D01*
X-7443Y-38140D01*
X-7517Y-38081D01*
X-7562Y-38052D01*
X-7569Y-38037D01*
X-6927D01*
Y-37277D01*
D02*
G37*
G36*
X945Y-38978D02*
X886D01*
X657Y-38985D01*
X443Y-39008D01*
X244Y-39037D01*
X59Y-39074D01*
X-111Y-39126D01*
X-266Y-39177D01*
X-406Y-39236D01*
X-539Y-39296D01*
X-649Y-39355D01*
X-753Y-39414D01*
X-834Y-39465D01*
X-900Y-39517D01*
X-959Y-39554D01*
X-996Y-39583D01*
X-1018Y-39605D01*
X-1026Y-39613D01*
X-1144Y-39738D01*
X-1247Y-39871D01*
X-1336Y-40004D01*
X-1409Y-40144D01*
X-1476Y-40284D01*
X-1528Y-40425D01*
X-1572Y-40558D01*
X-1609Y-40690D01*
X-1631Y-40816D01*
X-1653Y-40927D01*
X-1668Y-41030D01*
X-1683Y-41118D01*
Y-41192D01*
X-1690Y-41244D01*
Y-41288D01*
X-1675Y-41524D01*
X-1646Y-41746D01*
X-1594Y-41945D01*
X-1572Y-42041D01*
X-1542Y-42122D01*
X-1513Y-42203D01*
X-1491Y-42270D01*
X-1461Y-42329D01*
X-1439Y-42380D01*
X-1424Y-42425D01*
X-1409Y-42454D01*
X-1395Y-42469D01*
Y-42476D01*
X-1269Y-42668D01*
X-1137Y-42838D01*
X-996Y-42978D01*
X-856Y-43096D01*
X-738Y-43192D01*
X-679Y-43229D01*
X-635Y-43259D01*
X-598Y-43281D01*
X-568Y-43295D01*
X-554Y-43310D01*
X-546D01*
X-435Y-43362D01*
X-325Y-43406D01*
X-81Y-43480D01*
X170Y-43532D01*
X406Y-43561D01*
X517Y-43576D01*
X620Y-43583D01*
X716Y-43591D01*
X797D01*
X864Y-43598D01*
X-1690D01*
X952D01*
X1166Y-43591D01*
X1373Y-43569D01*
X1565Y-43539D01*
X1742Y-43495D01*
X1904Y-43450D01*
X2052Y-43391D01*
X2192Y-43332D01*
X2317Y-43273D01*
X2428Y-43214D01*
X2524Y-43155D01*
X2605Y-43096D01*
X2672Y-43052D01*
X2731Y-43008D01*
X2767Y-42978D01*
X2790Y-42956D01*
X2797Y-42949D01*
X2915Y-42823D01*
X3018Y-42690D01*
X3107Y-42557D01*
X3188Y-42417D01*
X3247Y-42277D01*
X3306Y-42144D01*
X3351Y-42004D01*
X3387Y-41879D01*
X3410Y-41753D01*
X3432Y-41642D01*
X3447Y-41546D01*
X3461Y-41458D01*
Y-41384D01*
X3469Y-41332D01*
Y-41288D01*
X3461Y-41118D01*
X3447Y-40956D01*
X3417Y-40808D01*
X3380Y-40661D01*
X3343Y-40521D01*
X3291Y-40395D01*
X3247Y-40277D01*
X3196Y-40174D01*
X3144Y-40070D01*
X3092Y-39989D01*
X3041Y-39915D01*
X3004Y-39849D01*
X2967Y-39805D01*
X2937Y-39768D01*
X2922Y-39746D01*
X2915Y-39738D01*
X2782Y-39605D01*
X2642Y-39487D01*
X2487Y-39384D01*
X2325Y-39296D01*
X2155Y-39229D01*
X1985Y-39163D01*
X1815Y-39111D01*
X1653Y-39074D01*
X1498Y-39045D01*
X1358Y-39015D01*
X1225Y-39000D01*
X1107Y-38993D01*
X1018Y-38985D01*
X945Y-38978D01*
D02*
G37*
G36*
X-10395Y-42236D02*
D01*
X-10536Y-42266D01*
X-10676Y-42303D01*
X-10801Y-42347D01*
X-10912Y-42391D01*
X-11023Y-42443D01*
X-11119Y-42495D01*
X-11207Y-42546D01*
X-11288Y-42605D01*
X-11355Y-42657D01*
X-11414Y-42709D01*
X-11466Y-42753D01*
X-11510Y-42790D01*
X-11539Y-42827D01*
X-11562Y-42849D01*
X-11576Y-42864D01*
X-11584Y-42871D01*
X-11650Y-42974D01*
X-11709Y-43078D01*
X-11768Y-43196D01*
X-11812Y-43314D01*
X-11879Y-43565D01*
X-11923Y-43801D01*
X-11945Y-43912D01*
X-11953Y-44015D01*
X-11960Y-44111D01*
X-11967Y-44185D01*
X-11975Y-44251D01*
Y-46340D01*
Y-44347D01*
X-11967Y-44561D01*
X-11945Y-44753D01*
X-11908Y-44930D01*
X-11871Y-45085D01*
X-11857Y-45151D01*
X-11842Y-45211D01*
X-11820Y-45262D01*
X-11805Y-45307D01*
X-11790Y-45343D01*
X-11783Y-45366D01*
X-11776Y-45380D01*
Y-45388D01*
X-11694Y-45550D01*
X-11606Y-45690D01*
X-11510Y-45808D01*
X-11414Y-45912D01*
X-11333Y-45985D01*
X-11266Y-46044D01*
X-11222Y-46074D01*
X-11215Y-46089D01*
X-11207D01*
X-11067Y-46170D01*
X-10927Y-46236D01*
X-10794Y-46281D01*
X-10676Y-46310D01*
X-10572Y-46325D01*
X-10491Y-46340D01*
X-11975D01*
X-6816D01*
D01*
X-10418D01*
X-10263Y-46332D01*
X-10122Y-46310D01*
X-10004Y-46273D01*
X-9901Y-46236D01*
X-9812Y-46200D01*
X-9753Y-46163D01*
X-9717Y-46140D01*
X-9702Y-46133D01*
X-9598Y-46052D01*
X-9510Y-45963D01*
X-9436Y-45867D01*
X-9377Y-45779D01*
X-9325Y-45705D01*
X-9296Y-45639D01*
X-9274Y-45594D01*
X-9266Y-45587D01*
Y-45580D01*
X-9237Y-45506D01*
X-9207Y-45425D01*
X-9170Y-45336D01*
X-9141Y-45240D01*
X-9074Y-45041D01*
X-9015Y-44834D01*
X-8986Y-44738D01*
X-8956Y-44642D01*
X-8934Y-44561D01*
X-8912Y-44495D01*
X-8897Y-44428D01*
X-8883Y-44384D01*
X-8875Y-44355D01*
Y-44347D01*
X-8846Y-44236D01*
X-8816Y-44140D01*
X-8794Y-44052D01*
X-8772Y-43971D01*
X-8750Y-43904D01*
X-8735Y-43845D01*
X-8720Y-43794D01*
X-8705Y-43749D01*
X-8683Y-43683D01*
X-8669Y-43639D01*
X-8661Y-43617D01*
Y-43609D01*
X-8624Y-43535D01*
X-8587Y-43469D01*
X-8550Y-43410D01*
X-8513Y-43366D01*
X-8484Y-43329D01*
X-8462Y-43306D01*
X-8447Y-43292D01*
X-8440Y-43284D01*
X-8388Y-43255D01*
X-8336Y-43233D01*
X-8241Y-43203D01*
X-8204Y-43196D01*
X-8174Y-43188D01*
X-8152D01*
X-8145D01*
X-8049Y-43196D01*
X-7967Y-43225D01*
X-7886Y-43262D01*
X-7820Y-43314D01*
X-7768Y-43358D01*
X-7731Y-43395D01*
X-7702Y-43425D01*
X-7694Y-43432D01*
X-7658Y-43484D01*
X-7628Y-43535D01*
X-7584Y-43661D01*
X-7547Y-43801D01*
X-7525Y-43934D01*
X-7510Y-44059D01*
Y-44111D01*
X-7502Y-44155D01*
Y-44251D01*
X-7510Y-44428D01*
X-7539Y-44576D01*
X-7569Y-44709D01*
X-7613Y-44819D01*
X-7650Y-44901D01*
X-7687Y-44960D01*
X-7717Y-44997D01*
X-7724Y-45011D01*
X-7812Y-45100D01*
X-7908Y-45174D01*
X-8004Y-45233D01*
X-8100Y-45277D01*
X-8181Y-45307D01*
X-8255Y-45321D01*
X-8299Y-45336D01*
X-8307D01*
X-8314D01*
X-8204Y-46155D01*
X-8034Y-46118D01*
X-7886Y-46074D01*
X-7753Y-46030D01*
X-7643Y-45978D01*
X-7562Y-45934D01*
X-7495Y-45897D01*
X-7458Y-45867D01*
X-7443Y-45860D01*
X-7340Y-45771D01*
X-7252Y-45668D01*
X-7170Y-45565D01*
X-7104Y-45461D01*
X-7052Y-45358D01*
X-7015Y-45284D01*
X-7001Y-45255D01*
X-6993Y-45233D01*
X-6986Y-45218D01*
Y-45211D01*
X-6927Y-45041D01*
X-6890Y-44871D01*
X-6860Y-44694D01*
X-6838Y-44539D01*
X-6824Y-44399D01*
Y-44340D01*
X-6816Y-44288D01*
Y-44192D01*
X-6824Y-44052D01*
X-6831Y-43919D01*
X-6846Y-43794D01*
X-6868Y-43690D01*
X-6890Y-43594D01*
X-6905Y-43528D01*
X-6912Y-43484D01*
X-6920Y-43476D01*
Y-43469D01*
X-6956Y-43351D01*
X-7001Y-43240D01*
X-7045Y-43152D01*
X-7082Y-43078D01*
X-7111Y-43019D01*
X-7141Y-42974D01*
X-7156Y-42945D01*
X-7163Y-42937D01*
X-7237Y-42842D01*
X-7311Y-42760D01*
X-7392Y-42687D01*
X-7466Y-42635D01*
X-7532Y-42583D01*
X-7584Y-42554D01*
X-7613Y-42532D01*
X-7628Y-42524D01*
X-7731Y-42473D01*
X-7842Y-42436D01*
X-7945Y-42413D01*
X-8041Y-42399D01*
X-8122Y-42384D01*
X-8181Y-42377D01*
X-8226D01*
X-8233D01*
X-8241D01*
X-8373Y-42384D01*
X-8499Y-42406D01*
X-8609Y-42436D01*
X-8705Y-42465D01*
X-8787Y-42495D01*
X-8853Y-42524D01*
X-8890Y-42546D01*
X-8905Y-42554D01*
X-9008Y-42628D01*
X-9104Y-42716D01*
X-9178Y-42805D01*
X-9244Y-42893D01*
X-9303Y-42974D01*
X-9340Y-43033D01*
X-9362Y-43078D01*
X-9370Y-43085D01*
Y-43093D01*
X-9399Y-43166D01*
X-9436Y-43255D01*
X-9473Y-43343D01*
X-9503Y-43447D01*
X-9569Y-43661D01*
X-9635Y-43867D01*
X-9665Y-43971D01*
X-9694Y-44067D01*
X-9717Y-44155D01*
X-9739Y-44229D01*
X-9753Y-44288D01*
X-9768Y-44340D01*
X-9775Y-44369D01*
Y-44377D01*
X-9805Y-44495D01*
X-9835Y-44605D01*
X-9864Y-44709D01*
X-9894Y-44797D01*
X-9916Y-44878D01*
X-9938Y-44945D01*
X-9960Y-45004D01*
X-9982Y-45063D01*
X-9997Y-45107D01*
X-10012Y-45144D01*
X-10034Y-45196D01*
X-10049Y-45225D01*
X-10056Y-45233D01*
X-10122Y-45314D01*
X-10196Y-45380D01*
X-10270Y-45425D01*
X-10344Y-45454D01*
X-10403Y-45469D01*
X-10462Y-45484D01*
X-10491D01*
X-10506D01*
X-10624Y-45469D01*
X-10728Y-45439D01*
X-10824Y-45395D01*
X-10905Y-45343D01*
X-10971Y-45292D01*
X-11015Y-45247D01*
X-11052Y-45218D01*
X-11060Y-45203D01*
X-11133Y-45085D01*
X-11192Y-44952D01*
X-11229Y-44805D01*
X-11259Y-44664D01*
X-11274Y-44539D01*
X-11281Y-44487D01*
Y-44436D01*
X-11288Y-44399D01*
Y-44340D01*
X-11274Y-44140D01*
X-11244Y-43963D01*
X-11207Y-43808D01*
X-11156Y-43683D01*
X-11111Y-43580D01*
X-11067Y-43506D01*
X-11038Y-43461D01*
X-11030Y-43454D01*
Y-43447D01*
X-10919Y-43336D01*
X-10801Y-43255D01*
X-10668Y-43188D01*
X-10543Y-43137D01*
X-10432Y-43100D01*
X-10388Y-43085D01*
X-10344Y-43078D01*
X-10307Y-43070D01*
X-10285D01*
X-10270Y-43063D01*
X-10263D01*
X-10395Y-42236D01*
D02*
G37*
G36*
X5232Y-44270D02*
Y-47716D01*
X2782D01*
X2893Y-47627D01*
X2989Y-47532D01*
X3070Y-47436D01*
X3144Y-47347D01*
X3203Y-47266D01*
X3240Y-47207D01*
X3269Y-47163D01*
X3277Y-47155D01*
Y-47148D01*
X3343Y-47015D01*
X3387Y-46875D01*
X3424Y-46742D01*
X3447Y-46616D01*
X3461Y-46513D01*
X3469Y-46425D01*
Y-46240D01*
X3454Y-46129D01*
X3417Y-45923D01*
X3365Y-45738D01*
X3306Y-45576D01*
X3277Y-45502D01*
X3247Y-45443D01*
X3218Y-45384D01*
X3196Y-45340D01*
X3173Y-45303D01*
X3159Y-45273D01*
X3151Y-45259D01*
X3144Y-45251D01*
X3011Y-45074D01*
X2864Y-44926D01*
X2716Y-44801D01*
X2561Y-44698D01*
X2428Y-44616D01*
X2369Y-44587D01*
X2325Y-44557D01*
X2280Y-44543D01*
X2251Y-44528D01*
X2229Y-44513D01*
X2221D01*
X1993Y-44432D01*
X1757Y-44373D01*
X1535Y-44329D01*
X1328Y-44299D01*
X1233Y-44292D01*
X1144Y-44284D01*
X1070Y-44277D01*
X1004D01*
X952Y-44270D01*
X5232D01*
X-1690D01*
X878D01*
X605Y-44284D01*
X354Y-44314D01*
X236Y-44329D01*
X126Y-44351D01*
X22Y-44380D01*
X-74Y-44402D01*
X-155Y-44425D01*
X-236Y-44454D01*
X-302Y-44476D01*
X-354Y-44491D01*
X-398Y-44513D01*
X-428Y-44521D01*
X-450Y-44535D01*
X-458D01*
X-664Y-44646D01*
X-849Y-44771D01*
X-1004Y-44897D01*
X-1129Y-45022D01*
X-1232Y-45133D01*
X-1269Y-45177D01*
X-1306Y-45222D01*
X-1328Y-45259D01*
X-1350Y-45281D01*
X-1358Y-45295D01*
X-1365Y-45303D01*
X-1424Y-45399D01*
X-1469Y-45495D01*
X-1550Y-45679D01*
X-1609Y-45864D01*
X-1646Y-46033D01*
X-1660Y-46107D01*
X-1675Y-46174D01*
X-1683Y-46233D01*
Y-46284D01*
X-1690Y-46329D01*
Y-46284D01*
Y-46388D01*
X-1683Y-46557D01*
X-1660Y-46712D01*
X-1624Y-46853D01*
X-1572Y-46993D01*
X-1520Y-47118D01*
X-1461Y-47229D01*
X-1395Y-47332D01*
X-1321Y-47428D01*
X-1255Y-47509D01*
X-1188Y-47576D01*
X-1129Y-47635D01*
X-1070Y-47686D01*
X-1026Y-47723D01*
X-989Y-47753D01*
X-967Y-47768D01*
X-959Y-47775D01*
X-1579D01*
Y-48550D01*
X-1690D01*
X5232D01*
Y-44270D01*
D02*
G37*
G36*
X-6927Y-47557D02*
X-7879D01*
Y-48509D01*
X-9395D01*
X-6927D01*
Y-47557D01*
D02*
G37*
G36*
X-9395D02*
X-11864D01*
Y-48509D01*
X-10912D01*
Y-47557D01*
X-9395D01*
D02*
G37*
G36*
X-11982Y-49343D02*
D01*
Y-54635D01*
X-4942D01*
Y-53963D01*
X-11956Y-51993D01*
D01*
X-11982Y-51985D01*
Y-50015D01*
X-4968Y-51985D01*
D01*
X-4942Y-51993D01*
Y-52181D01*
Y-51321D01*
X-11982Y-49343D01*
D02*
G37*
G36*
X3469Y-49591D02*
X-1690D01*
X-280D01*
X-391Y-49598D01*
X-502Y-49613D01*
X-605Y-49628D01*
X-701Y-49657D01*
X-878Y-49731D01*
X-1018Y-49812D01*
X-1085Y-49849D01*
X-1137Y-49886D01*
X-1188Y-49923D01*
X-1225Y-49960D01*
X-1255Y-49989D01*
X-1277Y-50004D01*
X-1292Y-50019D01*
X-1299Y-50026D01*
X-1365Y-50115D01*
X-1424Y-50203D01*
X-1483Y-50306D01*
X-1528Y-50402D01*
X-1594Y-50609D01*
X-1638Y-50816D01*
X-1660Y-50904D01*
X-1668Y-50993D01*
X-1675Y-51074D01*
X-1683Y-51140D01*
X-1690Y-51192D01*
Y-51273D01*
X-1683Y-51458D01*
X-1668Y-51627D01*
X-1638Y-51782D01*
X-1609Y-51923D01*
X-1579Y-52033D01*
X-1564Y-52085D01*
X-1550Y-52122D01*
X-1542Y-52151D01*
X-1535Y-52174D01*
X-1528Y-52188D01*
Y-52196D01*
X-1454Y-52358D01*
X-1373Y-52520D01*
X-1277Y-52668D01*
X-1181Y-52808D01*
X-1100Y-52926D01*
X-1055Y-52971D01*
X-1026Y-53015D01*
X-996Y-53052D01*
X-974Y-53074D01*
X-967Y-53089D01*
X-959Y-53096D01*
X-1092Y-53111D01*
X-1210Y-53133D01*
X-1314Y-53162D01*
X-1402Y-53192D01*
X-1476Y-53214D01*
X-1535Y-53236D01*
X-1564Y-53251D01*
X-1579Y-53258D01*
Y-54129D01*
X-1476Y-54078D01*
X-1365Y-54033D01*
X-1269Y-53996D01*
X-1181Y-53967D01*
X-1100Y-53945D01*
X-1041Y-53930D01*
X-1004Y-53923D01*
X-989D01*
X-922Y-53915D01*
X-834Y-53908D01*
X-738Y-53900D01*
X-627Y-53893D01*
X-509Y-53886D01*
X-384D01*
X-133Y-53878D01*
X-15D01*
X103Y-53871D01*
X207D01*
X303D01*
X376D01*
X435D01*
X472D01*
X487D01*
X1602D01*
X1705D01*
X1793D01*
X1875Y-53864D01*
X1956D01*
X2089Y-53856D01*
X2192Y-53849D01*
X2273Y-53842D01*
X2325Y-53834D01*
X2362Y-53827D01*
X2369D01*
X2495Y-53797D01*
X2605Y-53753D01*
X2701Y-53709D01*
X2782Y-53664D01*
X2849Y-53627D01*
X2900Y-53591D01*
X2930Y-53568D01*
X2937Y-53561D01*
X3018Y-53480D01*
X3092Y-53391D01*
X3159Y-53295D01*
X3210Y-53199D01*
X3255Y-53111D01*
X3284Y-53044D01*
X3299Y-53015D01*
X3306Y-52993D01*
X3314Y-52985D01*
Y-52978D01*
X3365Y-52823D01*
X3402Y-52653D01*
X3432Y-52483D01*
X3447Y-52321D01*
X3461Y-52181D01*
Y-52114D01*
X3469Y-52063D01*
Y-51960D01*
X3461Y-51731D01*
X3439Y-51517D01*
X3410Y-51325D01*
X3395Y-51236D01*
X3380Y-51162D01*
X3365Y-51089D01*
X3351Y-51022D01*
X3336Y-50971D01*
X3321Y-50926D01*
X3306Y-50889D01*
X3299Y-50860D01*
X3291Y-50845D01*
Y-50838D01*
X3218Y-50668D01*
X3136Y-50520D01*
X3055Y-50395D01*
X2974Y-50292D01*
X2900Y-50210D01*
X2841Y-50151D01*
X2804Y-50115D01*
X2797Y-50100D01*
X2790D01*
X2664Y-50011D01*
X2524Y-49937D01*
X2384Y-49878D01*
X2251Y-49827D01*
X2133Y-49790D01*
X2081Y-49775D01*
X2037Y-49760D01*
X2000Y-49753D01*
X1970Y-49746D01*
X1956Y-49738D01*
X1948D01*
X1838Y-50557D01*
X1934Y-50587D01*
X2022Y-50616D01*
X2170Y-50675D01*
X2303Y-50749D01*
X2399Y-50816D01*
X2472Y-50875D01*
X2531Y-50926D01*
X2561Y-50956D01*
X2568Y-50971D01*
X2635Y-51089D01*
X2686Y-51229D01*
X2723Y-51369D01*
X2753Y-51509D01*
X2767Y-51642D01*
Y-51694D01*
X2775Y-51745D01*
Y-51841D01*
X2760Y-52063D01*
X2731Y-52255D01*
X2686Y-52417D01*
X2635Y-52550D01*
X2576Y-52653D01*
X2554Y-52690D01*
X2531Y-52727D01*
X2517Y-52757D01*
X2502Y-52771D01*
X2487Y-52786D01*
X2399Y-52867D01*
X2288Y-52926D01*
X2170Y-52971D01*
X2052Y-53000D01*
X1941Y-53015D01*
X1852Y-53030D01*
X1823D01*
X1793D01*
X1779D01*
X1771D01*
X1749D01*
X1720D01*
X1646D01*
X1616Y-53022D01*
X1587D01*
X1565D01*
X1557D01*
X1528Y-52926D01*
X1498Y-52823D01*
X1469Y-52705D01*
X1439Y-52587D01*
X1388Y-52343D01*
X1343Y-52100D01*
X1328Y-51982D01*
X1314Y-51878D01*
X1299Y-51782D01*
X1284Y-51694D01*
X1277Y-51627D01*
X1269Y-51576D01*
X1262Y-51546D01*
Y-51531D01*
X1240Y-51354D01*
X1218Y-51207D01*
X1196Y-51074D01*
X1181Y-50971D01*
X1159Y-50889D01*
X1151Y-50830D01*
X1137Y-50801D01*
Y-50786D01*
X1100Y-50668D01*
X1055Y-50550D01*
X1011Y-50447D01*
X967Y-50358D01*
X930Y-50284D01*
X893Y-50233D01*
X871Y-50196D01*
X864Y-50181D01*
X790Y-50085D01*
X716Y-50004D01*
X635Y-49930D01*
X561Y-49871D01*
X487Y-49819D01*
X435Y-49782D01*
X399Y-49760D01*
X384Y-49753D01*
X266Y-49701D01*
X155Y-49657D01*
X44Y-49628D01*
X-59Y-49613D01*
X-148Y-49598D01*
X-221Y-49591D01*
X3469D01*
D02*
G37*
G36*
Y-55163D02*
X-1579D01*
Y-55996D01*
X1114D01*
X1284Y-56004D01*
X1446Y-56011D01*
X1587Y-56033D01*
X1720Y-56055D01*
X1838Y-56085D01*
X1941Y-56115D01*
X2037Y-56151D01*
X2118Y-56188D01*
X2192Y-56225D01*
X2251Y-56262D01*
X2295Y-56292D01*
X2340Y-56321D01*
X2369Y-56343D01*
X2391Y-56365D01*
X2399Y-56373D01*
X2406Y-56380D01*
X2465Y-56454D01*
X2517Y-56535D01*
X2605Y-56690D01*
X2664Y-56845D01*
X2701Y-56985D01*
X2731Y-57111D01*
X2738Y-57170D01*
Y-57214D01*
X2745Y-57251D01*
Y-57303D01*
X2738Y-57428D01*
X2723Y-57539D01*
X2694Y-57635D01*
X2672Y-57723D01*
X2642Y-57790D01*
X2613Y-57841D01*
X2598Y-57878D01*
X2590Y-57886D01*
X2531Y-57974D01*
X2465Y-58048D01*
X2399Y-58107D01*
X2332Y-58151D01*
X2273Y-58188D01*
X2229Y-58210D01*
X2199Y-58225D01*
X2184Y-58233D01*
X2081Y-58270D01*
X1963Y-58292D01*
X1838Y-58314D01*
X1712Y-58321D01*
X1602Y-58328D01*
X1550Y-58336D01*
X1506D01*
X1476D01*
X1446D01*
X1432D01*
X1424D01*
X-1579D01*
Y-59170D01*
X3469D01*
X1653D01*
X1749Y-59162D01*
X1830D01*
X1904Y-59155D01*
X1970D01*
X2081Y-59148D01*
X2162Y-59133D01*
X2221Y-59126D01*
X2258Y-59118D01*
X2266D01*
X2399Y-59089D01*
X2517Y-59044D01*
X2620Y-59008D01*
X2709Y-58963D01*
X2782Y-58919D01*
X2841Y-58889D01*
X2871Y-58867D01*
X2886Y-58860D01*
X2982Y-58786D01*
X3063Y-58697D01*
X3129Y-58602D01*
X3196Y-58513D01*
X3240Y-58424D01*
X3277Y-58358D01*
X3299Y-58314D01*
X3306Y-58306D01*
Y-58299D01*
X3358Y-58159D01*
X3402Y-58018D01*
X3432Y-57878D01*
X3447Y-57753D01*
X3461Y-57642D01*
Y-57598D01*
X3469Y-57554D01*
Y-57480D01*
X3461Y-57295D01*
X3432Y-57118D01*
X3395Y-56956D01*
X3343Y-56801D01*
X3277Y-56661D01*
X3210Y-56535D01*
X3136Y-56417D01*
X3063Y-56314D01*
X2982Y-56218D01*
X2908Y-56137D01*
X2841Y-56070D01*
X2775Y-56019D01*
X2723Y-55974D01*
X2686Y-55937D01*
X2657Y-55923D01*
X2650Y-55915D01*
X3358D01*
Y-55163D01*
X3469D01*
D02*
G37*
G36*
X-10459Y-54974D02*
X-10506D01*
D01*
X-10565D01*
X-10676Y-54982D01*
X-10787Y-54996D01*
X-10890Y-55011D01*
X-10986Y-55041D01*
X-11163Y-55115D01*
X-11303Y-55196D01*
X-11370Y-55233D01*
X-11421Y-55269D01*
X-11473Y-55306D01*
X-11510Y-55343D01*
X-11539Y-55373D01*
X-11562Y-55388D01*
X-11576Y-55402D01*
X-11584Y-55410D01*
X-11650Y-55498D01*
X-11709Y-55587D01*
X-11768Y-55690D01*
X-11812Y-55786D01*
X-11879Y-55993D01*
X-11923Y-56199D01*
X-11945Y-56288D01*
X-11953Y-56376D01*
X-11960Y-56458D01*
X-11967Y-56524D01*
X-11975Y-56576D01*
Y-56657D01*
X-11967Y-56841D01*
X-11953Y-57011D01*
X-11923Y-57166D01*
X-11894Y-57306D01*
X-11864Y-57417D01*
X-11849Y-57469D01*
X-11834Y-57506D01*
X-11827Y-57535D01*
X-11820Y-57557D01*
X-11812Y-57572D01*
Y-57579D01*
X-11739Y-57742D01*
X-11657Y-57904D01*
X-11562Y-58052D01*
X-11466Y-58192D01*
X-11384Y-58310D01*
X-11340Y-58354D01*
X-11311Y-58399D01*
X-11281Y-58435D01*
X-11259Y-58458D01*
X-11252Y-58472D01*
X-11244Y-58480D01*
X-11377Y-58495D01*
X-11495Y-58517D01*
X-11598Y-58546D01*
X-11687Y-58576D01*
X-11761Y-58598D01*
X-11820Y-58620D01*
X-11849Y-58635D01*
X-11864Y-58642D01*
Y-59513D01*
X-11761Y-59461D01*
X-11650Y-59417D01*
X-11554Y-59380D01*
X-11466Y-59351D01*
X-11384Y-59329D01*
X-11325Y-59314D01*
X-11288Y-59306D01*
X-11274D01*
X-11207Y-59299D01*
X-11119Y-59292D01*
X-11023Y-59284D01*
X-10912Y-59277D01*
X-10794Y-59269D01*
X-10668D01*
X-10418Y-59262D01*
X-10300D01*
X-10181Y-59255D01*
X-10078D01*
X-9982D01*
X-9908D01*
X-9849D01*
X-9812D01*
X-9798D01*
X-8683D01*
X-8580D01*
X-8491D01*
X-8410Y-59247D01*
X-8329D01*
X-8196Y-59240D01*
X-8093Y-59233D01*
X-8012Y-59225D01*
X-7960Y-59218D01*
X-7923Y-59210D01*
X-7916D01*
X-7790Y-59181D01*
X-7680Y-59137D01*
X-7584Y-59092D01*
X-7502Y-59048D01*
X-7436Y-59011D01*
X-7384Y-58974D01*
X-7355Y-58952D01*
X-7348Y-58945D01*
X-7266Y-58864D01*
X-7192Y-58775D01*
X-7126Y-58679D01*
X-7074Y-58583D01*
X-7030Y-58495D01*
X-7001Y-58428D01*
X-6986Y-58399D01*
X-6978Y-58376D01*
X-6971Y-58369D01*
Y-58362D01*
X-6920Y-58207D01*
X-6883Y-58037D01*
X-6853Y-57867D01*
X-6838Y-57705D01*
X-6824Y-57565D01*
Y-57498D01*
X-6816Y-57447D01*
Y-57284D01*
Y-57343D01*
X-6824Y-57114D01*
X-6846Y-56901D01*
X-6875Y-56709D01*
X-6890Y-56620D01*
X-6905Y-56546D01*
X-6920Y-56472D01*
X-6934Y-56406D01*
X-6949Y-56354D01*
X-6964Y-56310D01*
X-6978Y-56273D01*
X-6986Y-56244D01*
X-6993Y-56229D01*
Y-56221D01*
X-7067Y-56052D01*
X-7148Y-55904D01*
X-7229Y-55779D01*
X-7311Y-55675D01*
X-7384Y-55594D01*
X-7443Y-55535D01*
X-7480Y-55498D01*
X-7488Y-55484D01*
X-7495D01*
X-7621Y-55395D01*
X-7761Y-55321D01*
X-7901Y-55262D01*
X-8034Y-55211D01*
X-8152Y-55174D01*
X-8204Y-55159D01*
X-8248Y-55144D01*
X-8285Y-55137D01*
X-8314Y-55129D01*
X-8329Y-55122D01*
X-8336D01*
X-8447Y-55941D01*
X-8351Y-55971D01*
X-8263Y-56000D01*
X-8115Y-56059D01*
X-7982Y-56133D01*
X-7886Y-56199D01*
X-7812Y-56258D01*
X-7753Y-56310D01*
X-7724Y-56340D01*
X-7717Y-56354D01*
X-7650Y-56472D01*
X-7598Y-56613D01*
X-7562Y-56753D01*
X-7532Y-56893D01*
X-7517Y-57026D01*
Y-57078D01*
X-7510Y-57129D01*
Y-57225D01*
X-7525Y-57447D01*
X-7554Y-57639D01*
X-7598Y-57801D01*
X-7650Y-57934D01*
X-7709Y-58037D01*
X-7731Y-58074D01*
X-7753Y-58111D01*
X-7768Y-58140D01*
X-7783Y-58155D01*
X-7798Y-58170D01*
X-7886Y-58251D01*
X-7997Y-58310D01*
X-8115Y-58354D01*
X-8233Y-58384D01*
X-8344Y-58399D01*
X-8432Y-58413D01*
X-8462D01*
X-8491D01*
X-8506D01*
X-8513D01*
X-8536D01*
X-8565D01*
X-8639D01*
X-8669Y-58406D01*
X-8698D01*
X-8720D01*
X-8727D01*
X-8757Y-58310D01*
X-8787Y-58207D01*
X-8816Y-58089D01*
X-8846Y-57971D01*
X-8897Y-57727D01*
X-8942Y-57484D01*
X-8956Y-57365D01*
X-8971Y-57262D01*
X-8986Y-57166D01*
X-9001Y-57078D01*
X-9008Y-57011D01*
X-9015Y-56959D01*
X-9023Y-56930D01*
Y-56915D01*
X-9045Y-56738D01*
X-9067Y-56590D01*
X-9089Y-56458D01*
X-9104Y-56354D01*
X-9126Y-56273D01*
X-9133Y-56214D01*
X-9148Y-56185D01*
Y-56170D01*
X-9185Y-56052D01*
X-9229Y-55934D01*
X-9274Y-55830D01*
X-9318Y-55742D01*
X-9355Y-55668D01*
X-9392Y-55616D01*
X-9414Y-55579D01*
X-9421Y-55565D01*
X-9495Y-55469D01*
X-9569Y-55388D01*
X-9650Y-55314D01*
X-9724Y-55255D01*
X-9798Y-55203D01*
X-9849Y-55166D01*
X-9886Y-55144D01*
X-9901Y-55137D01*
X-10019Y-55085D01*
X-10130Y-55041D01*
X-10240Y-55011D01*
X-10344Y-54996D01*
X-10432Y-54982D01*
X-10506Y-54974D01*
X-10459D01*
D02*
G37*
G36*
X-6816Y-59513D02*
X-11975D01*
X-6816D01*
D01*
D02*
G37*
G36*
X996Y-63044D02*
X886D01*
X649Y-63052D01*
X421Y-63067D01*
X199Y-63089D01*
X-22Y-63118D01*
X-229Y-63155D01*
X-428Y-63192D01*
X-620Y-63236D01*
X-797Y-63280D01*
X-952Y-63325D01*
X-1100Y-63369D01*
X-1225Y-63406D01*
X-1336Y-63443D01*
X-1417Y-63472D01*
X-1483Y-63494D01*
X-1520Y-63509D01*
X-1535Y-63517D01*
X-1749Y-63613D01*
X-1956Y-63709D01*
X-2155Y-63805D01*
X-2347Y-63900D01*
X-2524Y-64004D01*
X-2694Y-64100D01*
X-2849Y-64196D01*
X-2996Y-64284D01*
X-3122Y-64365D01*
X-3240Y-64447D01*
X-3343Y-64513D01*
X-3424Y-64572D01*
X-3491Y-64624D01*
X-3542Y-64661D01*
X-3572Y-64683D01*
X-3579Y-64690D01*
Y-63044D01*
D01*
Y-65288D01*
X-3373Y-65162D01*
X-3166Y-65044D01*
X-2959Y-64934D01*
X-2753Y-64830D01*
X-2339Y-64646D01*
X-1948Y-64483D01*
X-1564Y-64351D01*
X-1196Y-64240D01*
X-841Y-64144D01*
X-517Y-64078D01*
X-214Y-64018D01*
X-81Y-63996D01*
X52Y-63974D01*
X177Y-63959D01*
X295Y-63945D01*
X399Y-63930D01*
X495Y-63923D01*
X583Y-63915D01*
X657Y-63908D01*
X723D01*
X775Y-63900D01*
X819D01*
X856D01*
X871D01*
X878D01*
X1203Y-63908D01*
X1520Y-63930D01*
X1675Y-63945D01*
X1815Y-63967D01*
X1956Y-63982D01*
X2081Y-64004D01*
X2199Y-64018D01*
X2303Y-64033D01*
X2399Y-64055D01*
X2480Y-64070D01*
X2539Y-64085D01*
X2590Y-64092D01*
X2620Y-64100D01*
X2627D01*
X2886Y-64166D01*
X3129Y-64240D01*
X3358Y-64314D01*
X3461Y-64351D01*
X3557Y-64380D01*
X3646Y-64417D01*
X3727Y-64447D01*
X3793Y-64476D01*
X3852Y-64498D01*
X3897Y-64513D01*
X3934Y-64528D01*
X3956Y-64543D01*
X3963D01*
X4044Y-64579D01*
X4140Y-64624D01*
X4244Y-64675D01*
X4354Y-64734D01*
X4583Y-64860D01*
X4812Y-64985D01*
X4915Y-65044D01*
X5018Y-65096D01*
X5107Y-65148D01*
X5188Y-65199D01*
X5255Y-65236D01*
X5299Y-65266D01*
X5336Y-65280D01*
X5343Y-65288D01*
Y-64690D01*
X5122Y-64528D01*
X4908Y-64380D01*
X4694Y-64247D01*
X4487Y-64114D01*
X4280Y-64004D01*
X4089Y-63893D01*
X3904Y-63797D01*
X3734Y-63716D01*
X3572Y-63642D01*
X3432Y-63576D01*
X3306Y-63524D01*
X3203Y-63480D01*
X3114Y-63443D01*
X3048Y-63421D01*
X3011Y-63406D01*
X2996Y-63399D01*
X2804Y-63340D01*
X2613Y-63280D01*
X2244Y-63192D01*
X2059Y-63162D01*
X1882Y-63133D01*
X1720Y-63111D01*
X1565Y-63089D01*
X1417Y-63074D01*
X1284Y-63067D01*
X1173Y-63052D01*
X1070D01*
X996Y-63044D01*
D02*
G37*
G36*
X-6927Y-60539D02*
X-11864D01*
Y-66399D01*
Y-64303D01*
X-9001D01*
X-8860Y-64310D01*
X-8735Y-64317D01*
X-8609Y-64332D01*
X-8499Y-64354D01*
X-8403Y-64384D01*
X-8307Y-64413D01*
X-8226Y-64443D01*
X-8152Y-64480D01*
X-8093Y-64509D01*
X-8034Y-64539D01*
X-7989Y-64568D01*
X-7953Y-64598D01*
X-7923Y-64620D01*
X-7901Y-64635D01*
X-7894Y-64649D01*
X-7886D01*
X-7827Y-64716D01*
X-7768Y-64790D01*
X-7687Y-64930D01*
X-7621Y-65078D01*
X-7584Y-65218D01*
X-7554Y-65336D01*
X-7547Y-65387D01*
Y-65432D01*
X-7539Y-65469D01*
Y-65520D01*
X-7547Y-65624D01*
X-7562Y-65720D01*
X-7584Y-65808D01*
X-7606Y-65882D01*
X-7635Y-65941D01*
X-7658Y-65985D01*
X-7672Y-66015D01*
X-7680Y-66022D01*
X-7731Y-66096D01*
X-7790Y-66162D01*
X-7849Y-66207D01*
X-7908Y-66251D01*
X-7960Y-66280D01*
X-7997Y-66303D01*
X-8026Y-66317D01*
X-8034D01*
X-8130Y-66347D01*
X-8241Y-66362D01*
X-8359Y-66376D01*
X-8477Y-66391D01*
X-8587D01*
X-8676Y-66399D01*
X-8705D01*
X-8735D01*
X-8750D01*
X-8757D01*
X-11864D01*
Y-67233D01*
X-6816D01*
D01*
X-8477D01*
X-8322Y-67225D01*
X-8181Y-67218D01*
X-8049Y-67196D01*
X-7923Y-67173D01*
X-7812Y-67144D01*
X-7709Y-67107D01*
X-7621Y-67070D01*
X-7539Y-67033D01*
X-7466Y-66996D01*
X-7399Y-66959D01*
X-7348Y-66930D01*
X-7303Y-66893D01*
X-7274Y-66871D01*
X-7252Y-66849D01*
X-7237Y-66841D01*
X-7229Y-66834D01*
X-7156Y-66760D01*
X-7089Y-66672D01*
X-7038Y-66583D01*
X-6993Y-66495D01*
X-6920Y-66303D01*
X-6868Y-66126D01*
X-6853Y-66037D01*
X-6838Y-65956D01*
X-6831Y-65889D01*
X-6824Y-65823D01*
X-6816Y-65779D01*
Y-65705D01*
X-6824Y-65535D01*
X-6853Y-65373D01*
X-6897Y-65218D01*
X-6949Y-65070D01*
X-7015Y-64937D01*
X-7089Y-64812D01*
X-7170Y-64694D01*
X-7244Y-64590D01*
X-7325Y-64495D01*
X-7406Y-64413D01*
X-7480Y-64340D01*
X-7547Y-64288D01*
X-7598Y-64236D01*
X-7643Y-64207D01*
X-7672Y-64184D01*
X-7680Y-64177D01*
X-7532Y-64111D01*
X-7406Y-64037D01*
X-7303Y-63956D01*
X-7207Y-63875D01*
X-7141Y-63793D01*
X-7089Y-63734D01*
X-7052Y-63690D01*
X-7045Y-63683D01*
Y-63675D01*
X-6971Y-63535D01*
X-6912Y-63388D01*
X-6875Y-63240D01*
X-6846Y-63100D01*
X-6831Y-62974D01*
X-6824Y-62923D01*
X-6816Y-62871D01*
Y-62782D01*
X-6824Y-62605D01*
X-6853Y-62436D01*
X-6883Y-62288D01*
X-6927Y-62155D01*
X-6964Y-62052D01*
X-6986Y-62007D01*
X-7001Y-61971D01*
X-7015Y-61941D01*
X-7030Y-61919D01*
X-7038Y-61911D01*
Y-61904D01*
X-7126Y-61764D01*
X-7222Y-61646D01*
X-7318Y-61542D01*
X-7414Y-61454D01*
X-7495Y-61380D01*
X-7562Y-61329D01*
X-7606Y-61299D01*
X-7613Y-61284D01*
X-6927D01*
Y-60539D01*
D02*
G37*
G36*
X5232Y-65856D02*
X4428D01*
Y-68100D01*
X-1579D01*
Y-71244D01*
Y-69000D01*
X4428D01*
Y-71244D01*
X-1579D01*
X5232D01*
Y-65856D01*
D02*
G37*
G36*
X-6927Y-68472D02*
X-13753D01*
Y-72753D01*
D01*
Y-69306D01*
X-11355D01*
X-11451Y-69387D01*
X-11539Y-69476D01*
X-11620Y-69564D01*
X-11680Y-69653D01*
X-11731Y-69727D01*
X-11776Y-69793D01*
X-11798Y-69830D01*
X-11805Y-69845D01*
X-11864Y-69971D01*
X-11901Y-70103D01*
X-11930Y-70229D01*
X-11953Y-70347D01*
X-11967Y-70450D01*
X-11975Y-70524D01*
Y-70598D01*
X-11967Y-70709D01*
X-11960Y-70812D01*
X-11923Y-71011D01*
X-11871Y-71196D01*
X-11812Y-71358D01*
X-11783Y-71432D01*
X-11761Y-71498D01*
X-11731Y-71550D01*
X-11709Y-71601D01*
X-11687Y-71638D01*
X-11672Y-71668D01*
X-11657Y-71683D01*
Y-71690D01*
X-11525Y-71874D01*
X-11377Y-72030D01*
X-11222Y-72170D01*
X-11067Y-72280D01*
X-10934Y-72369D01*
X-10875Y-72399D01*
X-10824Y-72428D01*
X-10787Y-72450D01*
X-10757Y-72465D01*
X-10735Y-72480D01*
X-10728D01*
X-10491Y-72568D01*
X-10255Y-72635D01*
X-10026Y-72686D01*
X-9820Y-72716D01*
X-9724Y-72731D01*
X-9635Y-72738D01*
X-9554Y-72745D01*
X-9488D01*
X-9436Y-72753D01*
X-13753D01*
X-6816D01*
D01*
X-9362D01*
X-9104Y-72745D01*
X-8860Y-72716D01*
X-8639Y-72672D01*
X-8543Y-72649D01*
X-8447Y-72627D01*
X-8366Y-72605D01*
X-8285Y-72583D01*
X-8218Y-72561D01*
X-8167Y-72539D01*
X-8122Y-72524D01*
X-8093Y-72509D01*
X-8071Y-72502D01*
X-8063D01*
X-7857Y-72399D01*
X-7672Y-72288D01*
X-7517Y-72162D01*
X-7384Y-72044D01*
X-7281Y-71941D01*
X-7207Y-71852D01*
X-7185Y-71815D01*
X-7163Y-71793D01*
X-7148Y-71779D01*
Y-71771D01*
X-7089Y-71683D01*
X-7038Y-71587D01*
X-6956Y-71395D01*
X-6897Y-71210D01*
X-6860Y-71033D01*
X-6846Y-70952D01*
X-6831Y-70886D01*
X-6824Y-70819D01*
Y-70760D01*
X-6816Y-70716D01*
Y-70657D01*
X-6824Y-70487D01*
X-6846Y-70325D01*
X-6875Y-70184D01*
X-6912Y-70066D01*
X-6949Y-69971D01*
X-6978Y-69897D01*
X-7001Y-69852D01*
X-7008Y-69845D01*
Y-69838D01*
X-7089Y-69712D01*
X-7178Y-69601D01*
X-7274Y-69498D01*
X-7362Y-69410D01*
X-7443Y-69336D01*
X-7517Y-69277D01*
X-7562Y-69247D01*
X-7569Y-69232D01*
X-6927D01*
Y-68472D01*
D02*
G37*
G36*
X3358Y-72048D02*
X111D01*
X-52Y-72055D01*
X-184Y-72063D01*
X-295Y-72070D01*
X-376Y-72077D01*
X-443Y-72085D01*
X-472Y-72092D01*
X-487D01*
X-620Y-72129D01*
X-738Y-72166D01*
X-841Y-72210D01*
X-930Y-72255D01*
X-1004Y-72291D01*
X-1063Y-72321D01*
X-1092Y-72343D01*
X-1107Y-72351D01*
X-1196Y-72424D01*
X-1277Y-72513D01*
X-1350Y-72609D01*
X-1409Y-72697D01*
X-1461Y-72786D01*
X-1498Y-72852D01*
X-1520Y-72897D01*
X-1528Y-72904D01*
Y-72911D01*
X-1579Y-73059D01*
X-1624Y-73199D01*
X-1653Y-73339D01*
X-1668Y-73465D01*
X-1683Y-73576D01*
X-1690Y-73657D01*
Y-73731D01*
X-1683Y-73915D01*
X-1653Y-74085D01*
X-1616Y-74240D01*
X-1557Y-74395D01*
X-1498Y-74535D01*
X-1424Y-74660D01*
X-1350Y-74778D01*
X-1269Y-74889D01*
X-1196Y-74985D01*
X-1122Y-75066D01*
X-1048Y-75140D01*
X-989Y-75199D01*
X-930Y-75244D01*
X-893Y-75273D01*
X-863Y-75295D01*
X-856Y-75302D01*
X-1579D01*
Y-76048D01*
X-1690D01*
X3358D01*
Y-73657D01*
Y-75214D01*
X709D01*
X487Y-75207D01*
X295Y-75192D01*
X133Y-75170D01*
X-7Y-75147D01*
X-66Y-75133D01*
X-111Y-75118D01*
X-155Y-75103D01*
X-192Y-75096D01*
X-214Y-75089D01*
X-236Y-75081D01*
X-243Y-75074D01*
X-251D01*
X-369Y-75015D01*
X-472Y-74941D01*
X-561Y-74860D01*
X-635Y-74786D01*
X-694Y-74712D01*
X-738Y-74653D01*
X-768Y-74616D01*
X-775Y-74609D01*
Y-74601D01*
X-841Y-74476D01*
X-886Y-74358D01*
X-922Y-74240D01*
X-945Y-74129D01*
X-959Y-74033D01*
X-967Y-73967D01*
Y-73900D01*
X-959Y-73768D01*
X-937Y-73642D01*
X-908Y-73531D01*
X-871Y-73443D01*
X-841Y-73369D01*
X-812Y-73310D01*
X-790Y-73280D01*
X-782Y-73266D01*
X-708Y-73177D01*
X-620Y-73103D01*
X-539Y-73044D01*
X-458Y-73000D01*
X-384Y-72963D01*
X-317Y-72941D01*
X-280Y-72934D01*
X-266Y-72926D01*
X-221Y-72919D01*
X-162Y-72911D01*
X-30Y-72904D01*
X118Y-72889D01*
X266D01*
X399Y-72882D01*
X458D01*
X517D01*
X561D01*
X590D01*
X613D01*
X620D01*
X3358D01*
Y-72048D01*
D02*
G37*
G36*
X-6927Y-73764D02*
X-11864D01*
Y-74598D01*
X-9170D01*
X-9001Y-74605D01*
X-8838Y-74612D01*
X-8698Y-74635D01*
X-8565Y-74657D01*
X-8447Y-74686D01*
X-8344Y-74716D01*
X-8248Y-74753D01*
X-8167Y-74790D01*
X-8093Y-74827D01*
X-8034Y-74863D01*
X-7989Y-74893D01*
X-7945Y-74922D01*
X-7916Y-74945D01*
X-7894Y-74967D01*
X-7886Y-74974D01*
X-7879Y-74981D01*
X-7820Y-75055D01*
X-7768Y-75137D01*
X-7680Y-75291D01*
X-7621Y-75446D01*
X-7584Y-75587D01*
X-7554Y-75712D01*
X-7547Y-75771D01*
Y-75815D01*
X-7539Y-75852D01*
Y-75904D01*
X-7547Y-76029D01*
X-7562Y-76140D01*
X-7591Y-76236D01*
X-7613Y-76325D01*
X-7643Y-76391D01*
X-7672Y-76443D01*
X-7687Y-76480D01*
X-7694Y-76487D01*
X-7753Y-76575D01*
X-7820Y-76649D01*
X-7886Y-76708D01*
X-7953Y-76753D01*
X-8012Y-76790D01*
X-8056Y-76812D01*
X-8085Y-76827D01*
X-8100Y-76834D01*
X-8204Y-76871D01*
X-8322Y-76893D01*
X-8447Y-76915D01*
X-8573Y-76922D01*
X-8683Y-76930D01*
X-8735Y-76937D01*
X-8779D01*
X-8809D01*
X-8838D01*
X-8853D01*
X-8860D01*
X-11864D01*
Y-77771D01*
X-6816D01*
D01*
X-8632D01*
X-8536Y-77764D01*
X-8455D01*
X-8381Y-77756D01*
X-8314D01*
X-8204Y-77749D01*
X-8122Y-77734D01*
X-8063Y-77727D01*
X-8026Y-77719D01*
X-8019D01*
X-7886Y-77690D01*
X-7768Y-77646D01*
X-7665Y-77609D01*
X-7576Y-77565D01*
X-7502Y-77520D01*
X-7443Y-77491D01*
X-7414Y-77469D01*
X-7399Y-77461D01*
X-7303Y-77387D01*
X-7222Y-77299D01*
X-7156Y-77203D01*
X-7089Y-77114D01*
X-7045Y-77026D01*
X-7008Y-76959D01*
X-6986Y-76915D01*
X-6978Y-76908D01*
Y-76900D01*
X-6927Y-76760D01*
X-6883Y-76620D01*
X-6853Y-76480D01*
X-6838Y-76354D01*
X-6824Y-76243D01*
Y-76199D01*
X-6816Y-76155D01*
Y-76081D01*
X-6824Y-75897D01*
X-6853Y-75719D01*
X-6890Y-75557D01*
X-6942Y-75402D01*
X-7008Y-75262D01*
X-7074Y-75137D01*
X-7148Y-75018D01*
X-7222Y-74915D01*
X-7303Y-74819D01*
X-7377Y-74738D01*
X-7443Y-74672D01*
X-7510Y-74620D01*
X-7562Y-74576D01*
X-7598Y-74539D01*
X-7628Y-74524D01*
X-7635Y-74516D01*
X-6927D01*
Y-73764D01*
D02*
G37*
G36*
X5232Y-77339D02*
X-1579D01*
Y-78173D01*
X5232D01*
Y-77339D01*
D02*
G37*
G36*
X-6927Y-79033D02*
X-10174D01*
X-10336Y-79040D01*
X-10469Y-79048D01*
X-10580Y-79055D01*
X-10661Y-79063D01*
X-10728Y-79070D01*
X-10757Y-79077D01*
X-10772D01*
X-10905Y-79114D01*
X-11023Y-79151D01*
X-11126Y-79195D01*
X-11215Y-79240D01*
X-11288Y-79277D01*
X-11348Y-79306D01*
X-11377Y-79328D01*
X-11392Y-79336D01*
X-11480Y-79409D01*
X-11562Y-79498D01*
X-11635Y-79594D01*
X-11694Y-79682D01*
X-11746Y-79771D01*
X-11783Y-79838D01*
X-11805Y-79882D01*
X-11812Y-79889D01*
Y-79897D01*
X-11864Y-80044D01*
X-11908Y-80184D01*
X-11938Y-80325D01*
X-11953Y-80450D01*
X-11967Y-80561D01*
X-11975Y-80642D01*
Y-79033D01*
Y-83033D01*
D01*
Y-80716D01*
X-11967Y-80900D01*
X-11938Y-81070D01*
X-11901Y-81225D01*
X-11842Y-81380D01*
X-11783Y-81520D01*
X-11709Y-81646D01*
X-11635Y-81764D01*
X-11554Y-81874D01*
X-11480Y-81970D01*
X-11406Y-82051D01*
X-11333Y-82125D01*
X-11274Y-82184D01*
X-11215Y-82229D01*
X-11178Y-82258D01*
X-11148Y-82280D01*
X-11141Y-82288D01*
X-11864D01*
Y-83033D01*
X-11975D01*
X-6927D01*
Y-82199D01*
X-9576D01*
X-9798Y-82192D01*
X-9990Y-82177D01*
X-10152Y-82155D01*
X-10292Y-82133D01*
X-10351Y-82118D01*
X-10395Y-82103D01*
X-10440Y-82088D01*
X-10477Y-82081D01*
X-10499Y-82074D01*
X-10521Y-82066D01*
X-10528Y-82059D01*
X-10536D01*
X-10654Y-82000D01*
X-10757Y-81926D01*
X-10846Y-81845D01*
X-10919Y-81771D01*
X-10978Y-81697D01*
X-11023Y-81638D01*
X-11052Y-81601D01*
X-11060Y-81594D01*
Y-81587D01*
X-11126Y-81461D01*
X-11170Y-81343D01*
X-11207Y-81225D01*
X-11229Y-81114D01*
X-11244Y-81018D01*
X-11252Y-80952D01*
Y-80885D01*
X-11244Y-80753D01*
X-11222Y-80627D01*
X-11192Y-80516D01*
X-11156Y-80428D01*
X-11126Y-80354D01*
X-11096Y-80295D01*
X-11074Y-80265D01*
X-11067Y-80251D01*
X-10993Y-80162D01*
X-10905Y-80088D01*
X-10824Y-80029D01*
X-10742Y-79985D01*
X-10668Y-79948D01*
X-10602Y-79926D01*
X-10565Y-79919D01*
X-10550Y-79911D01*
X-10506Y-79904D01*
X-10447Y-79897D01*
X-10314Y-79889D01*
X-10167Y-79874D01*
X-10019D01*
X-9886Y-79867D01*
X-9827D01*
X-9768D01*
X-9724D01*
X-9694D01*
X-9672D01*
X-9665D01*
X-6927D01*
Y-79033D01*
D02*
G37*
G36*
X3469Y-79192D02*
D01*
Y-81561D01*
X3461Y-81332D01*
X3439Y-81118D01*
X3410Y-80926D01*
X3395Y-80838D01*
X3380Y-80764D01*
X3365Y-80690D01*
X3351Y-80624D01*
X3336Y-80572D01*
X3321Y-80528D01*
X3306Y-80491D01*
X3299Y-80461D01*
X3291Y-80446D01*
Y-80439D01*
X3218Y-80269D01*
X3136Y-80122D01*
X3055Y-79996D01*
X2974Y-79893D01*
X2900Y-79812D01*
X2841Y-79753D01*
X2804Y-79716D01*
X2797Y-79701D01*
X2790D01*
X2664Y-79612D01*
X2524Y-79539D01*
X2384Y-79480D01*
X2251Y-79428D01*
X2133Y-79391D01*
X2081Y-79376D01*
X2037Y-79361D01*
X2000Y-79354D01*
X1970Y-79347D01*
X1956Y-79339D01*
X1948D01*
X1838Y-80159D01*
X1934Y-80188D01*
X2022Y-80218D01*
X2170Y-80277D01*
X2303Y-80350D01*
X2399Y-80417D01*
X2472Y-80476D01*
X2531Y-80528D01*
X2561Y-80557D01*
X2568Y-80572D01*
X2635Y-80690D01*
X2686Y-80830D01*
X2723Y-80970D01*
X2753Y-81111D01*
X2767Y-81243D01*
Y-81295D01*
X2775Y-81347D01*
Y-81443D01*
X2760Y-81664D01*
X2731Y-81856D01*
X2686Y-82018D01*
X2635Y-82151D01*
X2576Y-82254D01*
X2554Y-82291D01*
X2531Y-82328D01*
X2517Y-82358D01*
X2502Y-82372D01*
X2487Y-82387D01*
X2399Y-82468D01*
X2288Y-82528D01*
X2170Y-82572D01*
X2052Y-82601D01*
X1941Y-82616D01*
X1852Y-82631D01*
X1823D01*
X1793D01*
X1779D01*
X1771D01*
X1749D01*
X1720D01*
X1646D01*
X1616Y-82623D01*
X1587D01*
X1565D01*
X1557D01*
X1528Y-82528D01*
X1498Y-82424D01*
X1469Y-82306D01*
X1439Y-82188D01*
X1388Y-81945D01*
X1343Y-81701D01*
X1328Y-81583D01*
X1314Y-81480D01*
X1299Y-81384D01*
X1284Y-81295D01*
X1277Y-81229D01*
X1269Y-81177D01*
X1262Y-81147D01*
Y-81133D01*
X1240Y-80956D01*
X1218Y-80808D01*
X1196Y-80675D01*
X1181Y-80572D01*
X1159Y-80491D01*
X1151Y-80432D01*
X1137Y-80402D01*
Y-80387D01*
X1100Y-80269D01*
X1055Y-80151D01*
X1011Y-80048D01*
X967Y-79959D01*
X930Y-79886D01*
X893Y-79834D01*
X871Y-79797D01*
X864Y-79782D01*
X790Y-79686D01*
X716Y-79605D01*
X635Y-79531D01*
X561Y-79472D01*
X487Y-79421D01*
X435Y-79384D01*
X399Y-79361D01*
X384Y-79354D01*
X266Y-79303D01*
X155Y-79258D01*
X44Y-79229D01*
X-59Y-79214D01*
X-148Y-79199D01*
X-221Y-79192D01*
X3469D01*
X-1690D01*
X-280D01*
X-391Y-79199D01*
X-502Y-79214D01*
X-605Y-79229D01*
X-701Y-79258D01*
X-878Y-79332D01*
X-1018Y-79413D01*
X-1085Y-79450D01*
X-1137Y-79487D01*
X-1188Y-79524D01*
X-1225Y-79561D01*
X-1255Y-79590D01*
X-1277Y-79605D01*
X-1292Y-79620D01*
X-1299Y-79627D01*
X-1365Y-79716D01*
X-1424Y-79804D01*
X-1483Y-79908D01*
X-1528Y-80004D01*
X-1594Y-80210D01*
X-1638Y-80417D01*
X-1660Y-80505D01*
X-1668Y-80594D01*
X-1675Y-80675D01*
X-1683Y-80742D01*
X-1690Y-80793D01*
Y-80874D01*
X-1683Y-81059D01*
X-1668Y-81229D01*
X-1638Y-81384D01*
X-1609Y-81524D01*
X-1579Y-81634D01*
X-1564Y-81686D01*
X-1550Y-81723D01*
X-1542Y-81753D01*
X-1535Y-81775D01*
X-1528Y-81789D01*
Y-81797D01*
X-1454Y-81959D01*
X-1373Y-82122D01*
X-1277Y-82269D01*
X-1181Y-82409D01*
X-1100Y-82528D01*
X-1055Y-82572D01*
X-1026Y-82616D01*
X-996Y-82653D01*
X-974Y-82675D01*
X-967Y-82690D01*
X-959Y-82697D01*
X-1092Y-82712D01*
X-1210Y-82734D01*
X-1314Y-82764D01*
X-1402Y-82793D01*
X-1476Y-82815D01*
X-1535Y-82837D01*
X-1564Y-82852D01*
X-1579Y-82860D01*
Y-83731D01*
X-1476Y-83679D01*
X-1365Y-83635D01*
X-1269Y-83598D01*
X-1181Y-83568D01*
X-1100Y-83546D01*
X-1041Y-83531D01*
X-1004Y-83524D01*
X-989D01*
X-922Y-83516D01*
X-834Y-83509D01*
X-738Y-83502D01*
X-627Y-83494D01*
X-509Y-83487D01*
X-384D01*
X-133Y-83479D01*
X-15D01*
X103Y-83472D01*
X207D01*
X303D01*
X376D01*
X435D01*
X472D01*
X487D01*
X1602D01*
X1705D01*
X1793D01*
X1875Y-83465D01*
X1956D01*
X2089Y-83457D01*
X2192Y-83450D01*
X2273Y-83443D01*
X2325Y-83435D01*
X2362Y-83428D01*
X2369D01*
X2495Y-83398D01*
X2605Y-83354D01*
X2701Y-83310D01*
X2782Y-83266D01*
X2849Y-83229D01*
X2900Y-83192D01*
X2930Y-83170D01*
X2937Y-83162D01*
X3018Y-83081D01*
X3092Y-82993D01*
X3159Y-82897D01*
X3210Y-82801D01*
X3255Y-82712D01*
X3284Y-82646D01*
X3299Y-82616D01*
X3306Y-82594D01*
X3314Y-82587D01*
Y-82579D01*
X3365Y-82424D01*
X3402Y-82254D01*
X3432Y-82085D01*
X3447Y-81922D01*
X3461Y-81782D01*
Y-81716D01*
X3469Y-81664D01*
Y-79192D01*
D02*
G37*
G36*
X-5207Y-83867D02*
Y-85321D01*
X-5709Y-84487D01*
X-6927D01*
Y-83867D01*
X-7576D01*
D01*
X-7688D01*
X-7576D01*
Y-84487D01*
X-10425D01*
X-10558D01*
X-10683Y-84494D01*
X-10794D01*
X-10897Y-84502D01*
X-10986Y-84509D01*
X-11067Y-84516D01*
X-11141Y-84524D01*
X-11200Y-84539D01*
X-11252Y-84546D01*
X-11296Y-84553D01*
X-11333Y-84561D01*
X-11362Y-84568D01*
X-11399Y-84575D01*
X-11414Y-84583D01*
X-11495Y-84627D01*
X-11569Y-84679D01*
X-11635Y-84738D01*
X-11687Y-84797D01*
X-11731Y-84856D01*
X-11761Y-84900D01*
X-11783Y-84930D01*
X-11790Y-84937D01*
X-11834Y-85040D01*
X-11871Y-85151D01*
X-11894Y-85269D01*
X-11916Y-85387D01*
X-11923Y-85491D01*
X-11930Y-85572D01*
Y-85527D01*
Y-85646D01*
X-11916Y-85867D01*
X-11908Y-85970D01*
X-11894Y-86066D01*
X-11879Y-86155D01*
X-11871Y-86221D01*
X-11857Y-86265D01*
Y-86280D01*
X-11930D01*
D01*
X-5207D01*
Y-83867D01*
D02*
G37*
G36*
X-627Y-84926D02*
X-2930D01*
Y-85937D01*
Y-85155D01*
Y-84926D01*
X-627D01*
Y-84985D01*
X-1579D01*
Y-85457D01*
X-1727Y-85450D01*
X-1860Y-85428D01*
X-1970Y-85406D01*
X-2059Y-85384D01*
X-2133Y-85361D01*
X-2184Y-85339D01*
X-2221Y-85325D01*
X-2229Y-85317D01*
X-2310Y-85265D01*
X-2376Y-85207D01*
X-2435Y-85140D01*
X-2487Y-85074D01*
X-2524Y-85015D01*
X-2553Y-84970D01*
X-2568Y-84941D01*
X-2576Y-84926D01*
X-2930Y-85155D01*
X-2856Y-85295D01*
X-2775Y-85421D01*
X-2694Y-85524D01*
X-2613Y-85605D01*
X-2539Y-85664D01*
X-2480Y-85708D01*
X-2443Y-85738D01*
X-2428Y-85745D01*
X-2295Y-85812D01*
X-2155Y-85856D01*
X-2015Y-85893D01*
X-1882Y-85915D01*
X-1764Y-85930D01*
X-1712D01*
X-1668Y-85937D01*
X-627D01*
Y-84926D01*
D02*
G37*
G36*
X-10395Y-86657D02*
D01*
X-10536Y-86686D01*
X-10676Y-86723D01*
X-10801Y-86767D01*
X-10912Y-86812D01*
X-11023Y-86863D01*
X-11119Y-86915D01*
X-11207Y-86967D01*
X-11288Y-87026D01*
X-11355Y-87077D01*
X-11414Y-87129D01*
X-11466Y-87173D01*
X-11510Y-87210D01*
X-11539Y-87247D01*
X-11562Y-87269D01*
X-11576Y-87284D01*
X-11584Y-87291D01*
X-11650Y-87395D01*
X-11709Y-87498D01*
X-11768Y-87616D01*
X-11812Y-87734D01*
X-11879Y-87985D01*
X-11923Y-88221D01*
X-11945Y-88332D01*
X-11953Y-88435D01*
X-11960Y-88531D01*
X-11967Y-88605D01*
X-11975Y-88671D01*
Y-90760D01*
Y-88767D01*
X-11967Y-88981D01*
X-11945Y-89173D01*
X-11908Y-89350D01*
X-11871Y-89505D01*
X-11857Y-89572D01*
X-11842Y-89631D01*
X-11820Y-89682D01*
X-11805Y-89727D01*
X-11790Y-89764D01*
X-11783Y-89786D01*
X-11776Y-89801D01*
Y-89808D01*
X-11694Y-89970D01*
X-11606Y-90110D01*
X-11510Y-90228D01*
X-11414Y-90332D01*
X-11333Y-90406D01*
X-11266Y-90465D01*
X-11222Y-90494D01*
X-11215Y-90509D01*
X-11207D01*
X-11067Y-90590D01*
X-10927Y-90657D01*
X-10794Y-90701D01*
X-10676Y-90730D01*
X-10572Y-90745D01*
X-10491Y-90760D01*
X-11975D01*
X-6816D01*
D01*
X-10418D01*
X-10263Y-90753D01*
X-10122Y-90730D01*
X-10004Y-90693D01*
X-9901Y-90657D01*
X-9812Y-90620D01*
X-9753Y-90583D01*
X-9717Y-90561D01*
X-9702Y-90553D01*
X-9598Y-90472D01*
X-9510Y-90383D01*
X-9436Y-90288D01*
X-9377Y-90199D01*
X-9325Y-90125D01*
X-9296Y-90059D01*
X-9274Y-90014D01*
X-9266Y-90007D01*
Y-90000D01*
X-9237Y-89926D01*
X-9207Y-89845D01*
X-9170Y-89756D01*
X-9141Y-89660D01*
X-9074Y-89461D01*
X-9015Y-89254D01*
X-8986Y-89158D01*
X-8956Y-89062D01*
X-8934Y-88981D01*
X-8912Y-88915D01*
X-8897Y-88849D01*
X-8883Y-88804D01*
X-8875Y-88775D01*
Y-88767D01*
X-8846Y-88657D01*
X-8816Y-88561D01*
X-8794Y-88472D01*
X-8772Y-88391D01*
X-8750Y-88324D01*
X-8735Y-88266D01*
X-8720Y-88214D01*
X-8705Y-88169D01*
X-8683Y-88103D01*
X-8669Y-88059D01*
X-8661Y-88037D01*
Y-88029D01*
X-8624Y-87955D01*
X-8587Y-87889D01*
X-8550Y-87830D01*
X-8513Y-87786D01*
X-8484Y-87749D01*
X-8462Y-87727D01*
X-8447Y-87712D01*
X-8440Y-87705D01*
X-8388Y-87675D01*
X-8336Y-87653D01*
X-8241Y-87623D01*
X-8204Y-87616D01*
X-8174Y-87609D01*
X-8152D01*
X-8145D01*
X-8049Y-87616D01*
X-7967Y-87646D01*
X-7886Y-87682D01*
X-7820Y-87734D01*
X-7768Y-87778D01*
X-7731Y-87815D01*
X-7702Y-87845D01*
X-7694Y-87852D01*
X-7658Y-87904D01*
X-7628Y-87955D01*
X-7584Y-88081D01*
X-7547Y-88221D01*
X-7525Y-88354D01*
X-7510Y-88480D01*
Y-88531D01*
X-7502Y-88575D01*
Y-88671D01*
X-7510Y-88849D01*
X-7539Y-88996D01*
X-7569Y-89129D01*
X-7613Y-89240D01*
X-7650Y-89321D01*
X-7687Y-89380D01*
X-7717Y-89417D01*
X-7724Y-89432D01*
X-7812Y-89520D01*
X-7908Y-89594D01*
X-8004Y-89653D01*
X-8100Y-89697D01*
X-8181Y-89727D01*
X-8255Y-89741D01*
X-8299Y-89756D01*
X-8307D01*
X-8314D01*
X-8204Y-90575D01*
X-8034Y-90539D01*
X-7886Y-90494D01*
X-7753Y-90450D01*
X-7643Y-90398D01*
X-7562Y-90354D01*
X-7495Y-90317D01*
X-7458Y-90288D01*
X-7443Y-90280D01*
X-7340Y-90192D01*
X-7252Y-90088D01*
X-7170Y-89985D01*
X-7104Y-89882D01*
X-7052Y-89778D01*
X-7015Y-89705D01*
X-7001Y-89675D01*
X-6993Y-89653D01*
X-6986Y-89638D01*
Y-89631D01*
X-6927Y-89461D01*
X-6890Y-89291D01*
X-6860Y-89114D01*
X-6838Y-88959D01*
X-6824Y-88819D01*
Y-88760D01*
X-6816Y-88708D01*
Y-88612D01*
X-6824Y-88472D01*
X-6831Y-88339D01*
X-6846Y-88214D01*
X-6868Y-88111D01*
X-6890Y-88015D01*
X-6905Y-87948D01*
X-6912Y-87904D01*
X-6920Y-87897D01*
Y-87889D01*
X-6956Y-87771D01*
X-7001Y-87660D01*
X-7045Y-87572D01*
X-7082Y-87498D01*
X-7111Y-87439D01*
X-7141Y-87395D01*
X-7156Y-87365D01*
X-7163Y-87358D01*
X-7237Y-87262D01*
X-7311Y-87181D01*
X-7392Y-87107D01*
X-7466Y-87055D01*
X-7532Y-87003D01*
X-7584Y-86974D01*
X-7613Y-86952D01*
X-7628Y-86944D01*
X-7731Y-86893D01*
X-7842Y-86856D01*
X-7945Y-86834D01*
X-8041Y-86819D01*
X-8122Y-86804D01*
X-8181Y-86797D01*
X-8226D01*
X-8233D01*
X-8241D01*
X-8373Y-86804D01*
X-8499Y-86826D01*
X-8609Y-86856D01*
X-8705Y-86885D01*
X-8787Y-86915D01*
X-8853Y-86944D01*
X-8890Y-86967D01*
X-8905Y-86974D01*
X-9008Y-87048D01*
X-9104Y-87136D01*
X-9178Y-87225D01*
X-9244Y-87313D01*
X-9303Y-87395D01*
X-9340Y-87454D01*
X-9362Y-87498D01*
X-9370Y-87505D01*
Y-87513D01*
X-9399Y-87586D01*
X-9436Y-87675D01*
X-9473Y-87764D01*
X-9503Y-87867D01*
X-9569Y-88081D01*
X-9635Y-88288D01*
X-9665Y-88391D01*
X-9694Y-88487D01*
X-9717Y-88575D01*
X-9739Y-88649D01*
X-9753Y-88708D01*
X-9768Y-88760D01*
X-9775Y-88789D01*
Y-88797D01*
X-9805Y-88915D01*
X-9835Y-89026D01*
X-9864Y-89129D01*
X-9894Y-89218D01*
X-9916Y-89299D01*
X-9938Y-89365D01*
X-9960Y-89424D01*
X-9982Y-89483D01*
X-9997Y-89527D01*
X-10012Y-89564D01*
X-10034Y-89616D01*
X-10049Y-89645D01*
X-10056Y-89653D01*
X-10122Y-89734D01*
X-10196Y-89801D01*
X-10270Y-89845D01*
X-10344Y-89874D01*
X-10403Y-89889D01*
X-10462Y-89904D01*
X-10491D01*
X-10506D01*
X-10624Y-89889D01*
X-10728Y-89860D01*
X-10824Y-89815D01*
X-10905Y-89764D01*
X-10971Y-89712D01*
X-11015Y-89668D01*
X-11052Y-89638D01*
X-11060Y-89623D01*
X-11133Y-89505D01*
X-11192Y-89372D01*
X-11229Y-89225D01*
X-11259Y-89085D01*
X-11274Y-88959D01*
X-11281Y-88907D01*
Y-88856D01*
X-11288Y-88819D01*
Y-88760D01*
X-11274Y-88561D01*
X-11244Y-88384D01*
X-11207Y-88229D01*
X-11156Y-88103D01*
X-11111Y-88000D01*
X-11067Y-87926D01*
X-11038Y-87882D01*
X-11030Y-87874D01*
Y-87867D01*
X-10919Y-87756D01*
X-10801Y-87675D01*
X-10668Y-87609D01*
X-10543Y-87557D01*
X-10432Y-87520D01*
X-10388Y-87505D01*
X-10344Y-87498D01*
X-10307Y-87491D01*
X-10285D01*
X-10270Y-87483D01*
X-10263D01*
X-10395Y-86657D01*
D02*
G37*
G36*
X-10912Y-91985D02*
X-11864D01*
Y-92937D01*
X-10912D01*
Y-91985D01*
D02*
G37*
G36*
X5232Y-90166D02*
X-1579D01*
Y-96158D01*
D01*
X273Y-94978D01*
X465Y-94845D01*
X642Y-94712D01*
X797Y-94586D01*
X930Y-94476D01*
X1033Y-94380D01*
X1077Y-94336D01*
X1114Y-94299D01*
X1144Y-94269D01*
X1166Y-94247D01*
X1173Y-94240D01*
X1181Y-94232D01*
X1240Y-94158D01*
X1306Y-94070D01*
X1358Y-93981D01*
X1410Y-93893D01*
X1454Y-93812D01*
X1491Y-93745D01*
X1513Y-93701D01*
X1520Y-93694D01*
Y-93686D01*
X1550Y-93863D01*
X1587Y-94033D01*
X1631Y-94188D01*
X1675Y-94328D01*
X1727Y-94461D01*
X1779Y-94579D01*
X1830Y-94682D01*
X1882Y-94778D01*
X1934Y-94867D01*
X1985Y-94941D01*
X2029Y-95000D01*
X2066Y-95051D01*
X2103Y-95088D01*
X2125Y-95118D01*
X2140Y-95133D01*
X2148Y-95140D01*
X2244Y-95221D01*
X2340Y-95295D01*
X2443Y-95361D01*
X2546Y-95413D01*
X2650Y-95457D01*
X2753Y-95494D01*
X2945Y-95553D01*
X3033Y-95575D01*
X3114Y-95590D01*
X3188Y-95597D01*
X3255Y-95605D01*
X3299Y-95612D01*
X3343D01*
X3365D01*
X3373D01*
X3579Y-95597D01*
X3771Y-95568D01*
X3941Y-95524D01*
X4096Y-95472D01*
X4162Y-95442D01*
X4221Y-95413D01*
X4273Y-95391D01*
X4317Y-95369D01*
X4354Y-95354D01*
X4376Y-95339D01*
X4391Y-95324D01*
X4399D01*
X4561Y-95214D01*
X4694Y-95088D01*
X4812Y-94963D01*
X4900Y-94837D01*
X4967Y-94734D01*
X5011Y-94646D01*
X5026Y-94609D01*
X5041Y-94586D01*
X5048Y-94572D01*
Y-94564D01*
X5077Y-94468D01*
X5107Y-94372D01*
X5151Y-94151D01*
X5188Y-93922D01*
X5210Y-93701D01*
X5218Y-93590D01*
X5225Y-93494D01*
Y-93413D01*
X5232Y-93332D01*
Y-95472D01*
Y-90166D01*
D02*
G37*
G36*
X-9340Y-94147D02*
X-9421D01*
X-9643Y-94155D01*
X-9857Y-94177D01*
X-10056Y-94206D01*
X-10240Y-94243D01*
X-10410Y-94288D01*
X-10565Y-94339D01*
X-10705Y-94398D01*
X-10831Y-94457D01*
X-10942Y-94509D01*
X-11045Y-94568D01*
X-11126Y-94620D01*
X-11192Y-94664D01*
X-11252Y-94701D01*
X-11288Y-94730D01*
X-11311Y-94753D01*
X-11318Y-94760D01*
X-11436Y-94878D01*
X-11532Y-95003D01*
X-11620Y-95136D01*
X-11694Y-95269D01*
X-11761Y-95409D01*
X-11812Y-95542D01*
X-11857Y-95675D01*
X-11894Y-95801D01*
X-11923Y-95919D01*
X-11938Y-96029D01*
X-11953Y-96133D01*
X-11967Y-96214D01*
Y-96288D01*
X-11975Y-96339D01*
Y-94147D01*
Y-98435D01*
Y-96384D01*
X-11967Y-96531D01*
X-11953Y-96671D01*
X-11930Y-96804D01*
X-11901Y-96937D01*
X-11864Y-97055D01*
X-11820Y-97166D01*
X-11783Y-97269D01*
X-11731Y-97365D01*
X-11687Y-97446D01*
X-11650Y-97527D01*
X-11606Y-97586D01*
X-11569Y-97645D01*
X-11539Y-97682D01*
X-11517Y-97719D01*
X-11502Y-97734D01*
X-11495Y-97741D01*
X-11399Y-97837D01*
X-11303Y-97933D01*
X-11192Y-98014D01*
X-11082Y-98081D01*
X-10971Y-98147D01*
X-10860Y-98206D01*
X-10654Y-98295D01*
X-10550Y-98332D01*
X-10462Y-98361D01*
X-10381Y-98383D01*
X-10307Y-98406D01*
X-10248Y-98420D01*
X-10204Y-98428D01*
X-10174Y-98435D01*
X-11975D01*
X-6816D01*
X-10167D01*
X-10056Y-97616D01*
X-10174Y-97594D01*
X-10277Y-97572D01*
X-10381Y-97542D01*
X-10469Y-97513D01*
X-10558Y-97476D01*
X-10632Y-97446D01*
X-10698Y-97409D01*
X-10764Y-97372D01*
X-10816Y-97335D01*
X-10860Y-97306D01*
X-10934Y-97247D01*
X-10978Y-97210D01*
X-10986Y-97203D01*
X-10993Y-97195D01*
X-11089Y-97062D01*
X-11163Y-96930D01*
X-11215Y-96789D01*
X-11252Y-96664D01*
X-11274Y-96546D01*
X-11281Y-96501D01*
Y-96457D01*
X-11288Y-96420D01*
Y-96376D01*
X-11281Y-96265D01*
X-11266Y-96155D01*
X-11244Y-96059D01*
X-11215Y-95963D01*
X-11148Y-95793D01*
X-11060Y-95645D01*
X-11023Y-95586D01*
X-10978Y-95535D01*
X-10942Y-95490D01*
X-10905Y-95446D01*
X-10882Y-95417D01*
X-10860Y-95395D01*
X-10846Y-95387D01*
X-10838Y-95380D01*
X-10750Y-95313D01*
X-10646Y-95254D01*
X-10536Y-95203D01*
X-10425Y-95166D01*
X-10181Y-95092D01*
X-9945Y-95048D01*
X-9835Y-95033D01*
X-9731Y-95025D01*
X-9635Y-95018D01*
X-9554Y-95011D01*
X-9488Y-95003D01*
X-9436D01*
X-9399D01*
X-9392D01*
X-9215Y-95011D01*
X-9045Y-95018D01*
X-8897Y-95040D01*
X-8757Y-95063D01*
X-8624Y-95092D01*
X-8506Y-95129D01*
X-8403Y-95166D01*
X-8307Y-95203D01*
X-8226Y-95232D01*
X-8152Y-95269D01*
X-8093Y-95306D01*
X-8049Y-95336D01*
X-8004Y-95358D01*
X-7982Y-95380D01*
X-7967Y-95387D01*
X-7960Y-95395D01*
X-7879Y-95468D01*
X-7812Y-95549D01*
X-7746Y-95638D01*
X-7694Y-95719D01*
X-7650Y-95808D01*
X-7613Y-95889D01*
X-7562Y-96051D01*
X-7525Y-96199D01*
X-7517Y-96258D01*
X-7510Y-96317D01*
X-7502Y-96361D01*
Y-96420D01*
X-7510Y-96568D01*
X-7539Y-96708D01*
X-7584Y-96826D01*
X-7628Y-96930D01*
X-7680Y-97011D01*
X-7717Y-97077D01*
X-7746Y-97114D01*
X-7761Y-97129D01*
X-7864Y-97232D01*
X-7982Y-97321D01*
X-8108Y-97387D01*
X-8226Y-97446D01*
X-8336Y-97491D01*
X-8425Y-97520D01*
X-8462Y-97527D01*
X-8484Y-97535D01*
X-8499Y-97542D01*
X-8506D01*
X-8381Y-98354D01*
X-8248Y-98324D01*
X-8115Y-98280D01*
X-7997Y-98236D01*
X-7886Y-98192D01*
X-7783Y-98140D01*
X-7687Y-98081D01*
X-7606Y-98029D01*
X-7525Y-97970D01*
X-7458Y-97918D01*
X-7399Y-97867D01*
X-7348Y-97823D01*
X-7303Y-97778D01*
X-7274Y-97749D01*
X-7252Y-97719D01*
X-7237Y-97704D01*
X-7229Y-97697D01*
X-7156Y-97601D01*
X-7089Y-97498D01*
X-7038Y-97387D01*
X-6993Y-97276D01*
X-6920Y-97055D01*
X-6868Y-96848D01*
X-6853Y-96753D01*
X-6838Y-96664D01*
X-6831Y-96583D01*
X-6824Y-96516D01*
X-6816Y-96465D01*
Y-96384D01*
X-6831Y-96155D01*
X-6860Y-95933D01*
X-6912Y-95734D01*
X-6942Y-95645D01*
X-6964Y-95557D01*
X-6993Y-95483D01*
X-7023Y-95417D01*
X-7045Y-95358D01*
X-7074Y-95306D01*
X-7089Y-95262D01*
X-7104Y-95232D01*
X-7119Y-95217D01*
Y-95210D01*
X-7244Y-95018D01*
X-7384Y-94856D01*
X-7539Y-94716D01*
X-7680Y-94605D01*
X-7812Y-94516D01*
X-7871Y-94487D01*
X-7923Y-94457D01*
X-7960Y-94435D01*
X-7989Y-94420D01*
X-8012Y-94406D01*
X-8019D01*
X-8248Y-94317D01*
X-8491Y-94258D01*
X-8727Y-94214D01*
X-8942Y-94177D01*
X-9045Y-94169D01*
X-9133Y-94162D01*
X-9215Y-94155D01*
X-9288D01*
X-9340Y-94147D01*
D02*
G37*
G36*
X3358Y-96896D02*
X111D01*
X-52Y-96904D01*
X-184Y-96911D01*
X-295Y-96918D01*
X-376Y-96926D01*
X-443Y-96933D01*
X-472Y-96941D01*
X-487D01*
X-620Y-96978D01*
X-738Y-97014D01*
X-841Y-97059D01*
X-930Y-97103D01*
X-1004Y-97140D01*
X-1063Y-97169D01*
X-1092Y-97192D01*
X-1107Y-97199D01*
X-1196Y-97273D01*
X-1277Y-97361D01*
X-1350Y-97457D01*
X-1409Y-97546D01*
X-1461Y-97634D01*
X-1498Y-97701D01*
X-1520Y-97745D01*
X-1528Y-97752D01*
Y-97760D01*
X-1579Y-97907D01*
X-1624Y-98048D01*
X-1653Y-98188D01*
X-1668Y-98313D01*
X-1683Y-98424D01*
X-1690Y-98505D01*
Y-98579D01*
X-1683Y-98764D01*
X-1653Y-98933D01*
X-1616Y-99088D01*
X-1557Y-99243D01*
X-1498Y-99383D01*
X-1424Y-99509D01*
X-1350Y-99627D01*
X-1269Y-99738D01*
X-1196Y-99834D01*
X-1122Y-99915D01*
X-1048Y-99989D01*
X-989Y-100048D01*
X-930Y-100092D01*
X-893Y-100121D01*
X-863Y-100144D01*
X-856Y-100151D01*
X-1579D01*
Y-100896D01*
X-1690D01*
X3358D01*
Y-96896D01*
D02*
G37*
G36*
X-9340Y-98841D02*
X-9399D01*
X-9628Y-98848D01*
X-9842Y-98870D01*
X-10041Y-98900D01*
X-10226Y-98937D01*
X-10395Y-98989D01*
X-10550Y-99040D01*
X-10691Y-99099D01*
X-10824Y-99158D01*
X-10934Y-99217D01*
X-11038Y-99276D01*
X-11119Y-99328D01*
X-11185Y-99380D01*
X-11244Y-99417D01*
X-11281Y-99446D01*
X-11303Y-99468D01*
X-11311Y-99476D01*
X-11429Y-99601D01*
X-11532Y-99734D01*
X-11620Y-99867D01*
X-11694Y-100007D01*
X-11761Y-100147D01*
X-11812Y-100287D01*
X-11857Y-100420D01*
X-11894Y-100553D01*
X-11916Y-100679D01*
X-11938Y-100789D01*
X-11953Y-100893D01*
X-11967Y-100981D01*
Y-101055D01*
X-11975Y-101107D01*
Y-101151D01*
X-11960Y-101387D01*
X-11930Y-101609D01*
X-11879Y-101808D01*
X-11857Y-101904D01*
X-11827Y-101985D01*
X-11798Y-102066D01*
X-11776Y-102132D01*
X-11746Y-102191D01*
X-11724Y-102243D01*
X-11709Y-102287D01*
X-11694Y-102317D01*
X-11680Y-102332D01*
Y-102339D01*
X-11554Y-102531D01*
X-11421Y-102701D01*
X-11281Y-102841D01*
X-11141Y-102959D01*
X-11023Y-103055D01*
X-10964Y-103092D01*
X-10919Y-103121D01*
X-10882Y-103144D01*
X-10853Y-103158D01*
X-10838Y-103173D01*
X-10831D01*
X-10720Y-103225D01*
X-10609Y-103269D01*
X-10366Y-103343D01*
X-10115Y-103394D01*
X-9879Y-103424D01*
X-9768Y-103439D01*
X-9665Y-103446D01*
X-9569Y-103454D01*
X-9488D01*
X-9421Y-103461D01*
X-11975D01*
X-9333D01*
X-9119Y-103454D01*
X-8912Y-103431D01*
X-8720Y-103402D01*
X-8543Y-103358D01*
X-8381Y-103313D01*
X-8233Y-103254D01*
X-8093Y-103195D01*
X-7967Y-103136D01*
X-7857Y-103077D01*
X-7761Y-103018D01*
X-7680Y-102959D01*
X-7613Y-102915D01*
X-7554Y-102871D01*
X-7517Y-102841D01*
X-7495Y-102819D01*
X-7488Y-102811D01*
X-7370Y-102686D01*
X-7266Y-102553D01*
X-7178Y-102420D01*
X-7097Y-102280D01*
X-7038Y-102140D01*
X-6978Y-102007D01*
X-6934Y-101867D01*
X-6897Y-101741D01*
X-6875Y-101616D01*
X-6853Y-101505D01*
X-6838Y-101409D01*
X-6824Y-101321D01*
Y-101247D01*
X-6816Y-101195D01*
Y-101151D01*
X-6824Y-100981D01*
X-6838Y-100819D01*
X-6868Y-100671D01*
X-6905Y-100524D01*
X-6942Y-100383D01*
X-6993Y-100258D01*
X-7038Y-100140D01*
X-7089Y-100037D01*
X-7141Y-99933D01*
X-7192Y-99852D01*
X-7244Y-99778D01*
X-7281Y-99712D01*
X-7318Y-99668D01*
X-7348Y-99631D01*
X-7362Y-99608D01*
X-7370Y-99601D01*
X-7502Y-99468D01*
X-7643Y-99350D01*
X-7798Y-99247D01*
X-7960Y-99158D01*
X-8130Y-99092D01*
X-8299Y-99025D01*
X-8469Y-98974D01*
X-8632Y-98937D01*
X-8787Y-98907D01*
X-8927Y-98878D01*
X-9060Y-98863D01*
X-9178Y-98856D01*
X-9266Y-98848D01*
X-9340Y-98841D01*
D02*
G37*
G36*
X-111Y-101878D02*
X-251Y-101907D01*
X-391Y-101944D01*
X-517Y-101989D01*
X-627Y-102033D01*
X-738Y-102085D01*
X-834Y-102136D01*
X-922Y-102188D01*
X-1004Y-102247D01*
X-1070Y-102298D01*
X-1129Y-102350D01*
X-1181Y-102394D01*
X-1225Y-102431D01*
X-1255Y-102468D01*
X-1277Y-102490D01*
X-1292Y-102505D01*
X-1299Y-102513D01*
X-1365Y-102616D01*
X-1424Y-102719D01*
X-1483Y-102837D01*
X-1528Y-102955D01*
X-1594Y-103206D01*
X-1638Y-103442D01*
X-1660Y-103553D01*
X-1668Y-103656D01*
X-1675Y-103752D01*
X-1683Y-103826D01*
X-1690Y-103893D01*
Y-105981D01*
Y-103989D01*
X-1683Y-104203D01*
X-1660Y-104394D01*
X-1624Y-104572D01*
X-1587Y-104727D01*
X-1572Y-104793D01*
X-1557Y-104852D01*
X-1535Y-104904D01*
X-1520Y-104948D01*
X-1505Y-104985D01*
X-1498Y-105007D01*
X-1491Y-105022D01*
Y-105029D01*
X-1409Y-105192D01*
X-1321Y-105332D01*
X-1225Y-105450D01*
X-1129Y-105553D01*
X-1048Y-105627D01*
X-981Y-105686D01*
X-937Y-105716D01*
X-930Y-105730D01*
X-922D01*
X-782Y-105811D01*
X-642Y-105878D01*
X-509Y-105922D01*
X-391Y-105952D01*
X-288Y-105966D01*
X-207Y-105981D01*
X-133D01*
X22Y-105974D01*
X162Y-105952D01*
X280Y-105915D01*
X384Y-105878D01*
X472Y-105841D01*
X531Y-105804D01*
X568Y-105782D01*
X583Y-105774D01*
X686Y-105693D01*
X775Y-105605D01*
X849Y-105509D01*
X908Y-105420D01*
X959Y-105347D01*
X989Y-105280D01*
X1011Y-105236D01*
X1018Y-105228D01*
Y-105221D01*
X1048Y-105147D01*
X1077Y-105066D01*
X1114Y-104978D01*
X1144Y-104882D01*
X1210Y-104682D01*
X1269Y-104476D01*
X1299Y-104380D01*
X1328Y-104284D01*
X1351Y-104203D01*
X1373Y-104136D01*
X1388Y-104070D01*
X1402Y-104025D01*
X1410Y-103996D01*
Y-103989D01*
X1439Y-103878D01*
X1469Y-103782D01*
X1491Y-103693D01*
X1513Y-103612D01*
X1535Y-103546D01*
X1550Y-103487D01*
X1565Y-103435D01*
X1579Y-103391D01*
X1602Y-103324D01*
X1616Y-103280D01*
X1624Y-103258D01*
Y-103251D01*
X1660Y-103177D01*
X1697Y-103110D01*
X1734Y-103051D01*
X1771Y-103007D01*
X1801Y-102970D01*
X1823Y-102948D01*
X1838Y-102933D01*
X1845Y-102926D01*
X1897Y-102896D01*
X1948Y-102874D01*
X2044Y-102845D01*
X2081Y-102837D01*
X2111Y-102830D01*
X2133D01*
X2140D01*
X2236Y-102837D01*
X2317Y-102867D01*
X2399Y-102904D01*
X2465Y-102955D01*
X2517Y-103000D01*
X2554Y-103036D01*
X2583Y-103066D01*
X2590Y-103073D01*
X2627Y-103125D01*
X2657Y-103177D01*
X2701Y-103302D01*
X2738Y-103442D01*
X2760Y-103575D01*
X2775Y-103701D01*
Y-103752D01*
X2782Y-103797D01*
Y-103893D01*
X2775Y-104070D01*
X2745Y-104217D01*
X2716Y-104350D01*
X2672Y-104461D01*
X2635Y-104542D01*
X2598Y-104601D01*
X2568Y-104638D01*
X2561Y-104653D01*
X2472Y-104741D01*
X2376Y-104815D01*
X2280Y-104874D01*
X2184Y-104918D01*
X2103Y-104948D01*
X2029Y-104963D01*
X1985Y-104978D01*
X1978D01*
X1970D01*
X2081Y-105797D01*
X2251Y-105760D01*
X2399Y-105716D01*
X2531Y-105671D01*
X2642Y-105620D01*
X2723Y-105575D01*
X2790Y-105538D01*
X2827Y-105509D01*
X2841Y-105501D01*
X2945Y-105413D01*
X3033Y-105310D01*
X3114Y-105206D01*
X3181Y-105103D01*
X3232Y-105000D01*
X3269Y-104926D01*
X3284Y-104896D01*
X3291Y-104874D01*
X3299Y-104859D01*
Y-104852D01*
X3358Y-104682D01*
X3395Y-104513D01*
X3424Y-104335D01*
X3447Y-104180D01*
X3461Y-104040D01*
Y-103981D01*
X3469Y-103929D01*
Y-103834D01*
X3461Y-103693D01*
X3454Y-103560D01*
X3439Y-103435D01*
X3417Y-103332D01*
X3395Y-103236D01*
X3380Y-103169D01*
X3373Y-103125D01*
X3365Y-103118D01*
Y-103110D01*
X3328Y-102992D01*
X3284Y-102882D01*
X3240Y-102793D01*
X3203Y-102719D01*
X3173Y-102660D01*
X3144Y-102616D01*
X3129Y-102586D01*
X3122Y-102579D01*
X3048Y-102483D01*
X2974Y-102402D01*
X2893Y-102328D01*
X2819Y-102276D01*
X2753Y-102225D01*
X2701Y-102195D01*
X2672Y-102173D01*
X2657Y-102166D01*
X2554Y-102114D01*
X2443Y-102077D01*
X2340Y-102055D01*
X2244Y-102040D01*
X2162Y-102025D01*
X2103Y-102018D01*
X2059D01*
X2052D01*
X2044D01*
X1911Y-102025D01*
X1786Y-102048D01*
X1675Y-102077D01*
X1579Y-102107D01*
X1498Y-102136D01*
X1432Y-102166D01*
X1395Y-102188D01*
X1380Y-102195D01*
X1277Y-102269D01*
X1181Y-102358D01*
X1107Y-102446D01*
X1041Y-102535D01*
X982Y-102616D01*
X945Y-102675D01*
X922Y-102719D01*
X915Y-102727D01*
Y-102734D01*
X886Y-102808D01*
X849Y-102896D01*
X812Y-102985D01*
X782Y-103088D01*
X716Y-103302D01*
X649Y-103509D01*
X620Y-103612D01*
X590Y-103708D01*
X568Y-103797D01*
X546Y-103870D01*
X531Y-103929D01*
X517Y-103981D01*
X509Y-104011D01*
Y-104018D01*
X480Y-104136D01*
X450Y-104247D01*
X421Y-104350D01*
X391Y-104439D01*
X369Y-104520D01*
X347Y-104586D01*
X325Y-104645D01*
X303Y-104704D01*
X288Y-104749D01*
X273Y-104786D01*
X251Y-104837D01*
X236Y-104867D01*
X229Y-104874D01*
X162Y-104955D01*
X89Y-105022D01*
X15Y-105066D01*
X-59Y-105096D01*
X-118Y-105110D01*
X-177Y-105125D01*
X-207D01*
X-221D01*
X-339Y-105110D01*
X-443Y-105081D01*
X-539Y-105036D01*
X-620Y-104985D01*
X-686Y-104933D01*
X-731Y-104889D01*
X-768Y-104859D01*
X-775Y-104845D01*
X-849Y-104727D01*
X-908Y-104594D01*
X-945Y-104446D01*
X-974Y-104306D01*
X-989Y-104180D01*
X-996Y-104129D01*
Y-104077D01*
X-1004Y-104040D01*
Y-103981D01*
X-989Y-103782D01*
X-959Y-103605D01*
X-922Y-103450D01*
X-871Y-103324D01*
X-826Y-103221D01*
X-782Y-103147D01*
X-753Y-103103D01*
X-745Y-103096D01*
Y-103088D01*
X-635Y-102978D01*
X-517Y-102896D01*
X-384Y-102830D01*
X-258Y-102778D01*
X-148Y-102741D01*
X-103Y-102727D01*
X-59Y-102719D01*
X-22Y-102712D01*
X0D01*
X15Y-102704D01*
X22D01*
X-111Y-101878D01*
D02*
G37*
G36*
Y-106638D02*
X-251Y-106667D01*
X-391Y-106704D01*
X-517Y-106749D01*
X-627Y-106793D01*
X-738Y-106845D01*
X-834Y-106896D01*
X-922Y-106948D01*
X-1004Y-107007D01*
X-1070Y-107059D01*
X-1129Y-107110D01*
X-1181Y-107155D01*
X-1225Y-107192D01*
X-1255Y-107228D01*
X-1277Y-107250D01*
X-1292Y-107265D01*
X-1299Y-107273D01*
X-1365Y-107376D01*
X-1424Y-107479D01*
X-1483Y-107597D01*
X-1528Y-107715D01*
X-1594Y-107966D01*
X-1638Y-108203D01*
X-1660Y-108313D01*
X-1668Y-108417D01*
X-1675Y-108512D01*
X-1683Y-108586D01*
X-1690Y-108653D01*
Y-110741D01*
Y-108749D01*
X-1683Y-108963D01*
X-1660Y-109155D01*
X-1624Y-109332D01*
X-1587Y-109487D01*
X-1572Y-109553D01*
X-1557Y-109612D01*
X-1535Y-109664D01*
X-1520Y-109708D01*
X-1505Y-109745D01*
X-1498Y-109767D01*
X-1491Y-109782D01*
Y-109789D01*
X-1409Y-109952D01*
X-1321Y-110092D01*
X-1225Y-110210D01*
X-1129Y-110313D01*
X-1048Y-110387D01*
X-981Y-110446D01*
X-937Y-110476D01*
X-930Y-110490D01*
X-922D01*
X-782Y-110572D01*
X-642Y-110638D01*
X-509Y-110682D01*
X-391Y-110712D01*
X-288Y-110726D01*
X-207Y-110741D01*
X-133D01*
X22Y-110734D01*
X162Y-110712D01*
X280Y-110675D01*
X384Y-110638D01*
X472Y-110601D01*
X531Y-110564D01*
X568Y-110542D01*
X583Y-110535D01*
X686Y-110453D01*
X775Y-110365D01*
X849Y-110269D01*
X908Y-110180D01*
X959Y-110107D01*
X989Y-110040D01*
X1011Y-109996D01*
X1018Y-109988D01*
Y-109981D01*
X1048Y-109907D01*
X1077Y-109826D01*
X1114Y-109738D01*
X1144Y-109642D01*
X1210Y-109442D01*
X1269Y-109236D01*
X1299Y-109140D01*
X1328Y-109044D01*
X1351Y-108963D01*
X1373Y-108896D01*
X1388Y-108830D01*
X1402Y-108786D01*
X1410Y-108756D01*
Y-108749D01*
X1439Y-108638D01*
X1469Y-108542D01*
X1491Y-108454D01*
X1513Y-108372D01*
X1535Y-108306D01*
X1550Y-108247D01*
X1565Y-108195D01*
X1579Y-108151D01*
X1602Y-108084D01*
X1616Y-108040D01*
X1624Y-108018D01*
Y-108011D01*
X1660Y-107937D01*
X1697Y-107870D01*
X1734Y-107811D01*
X1771Y-107767D01*
X1801Y-107730D01*
X1823Y-107708D01*
X1838Y-107693D01*
X1845Y-107686D01*
X1897Y-107656D01*
X1948Y-107634D01*
X2044Y-107605D01*
X2081Y-107597D01*
X2111Y-107590D01*
X2133D01*
X2140D01*
X2236Y-107597D01*
X2317Y-107627D01*
X2399Y-107664D01*
X2465Y-107715D01*
X2517Y-107760D01*
X2554Y-107797D01*
X2583Y-107826D01*
X2590Y-107834D01*
X2627Y-107885D01*
X2657Y-107937D01*
X2701Y-108062D01*
X2738Y-108203D01*
X2760Y-108335D01*
X2775Y-108461D01*
Y-108512D01*
X2782Y-108557D01*
Y-108653D01*
X2775Y-108830D01*
X2745Y-108977D01*
X2716Y-109110D01*
X2672Y-109221D01*
X2635Y-109302D01*
X2598Y-109361D01*
X2568Y-109398D01*
X2561Y-109413D01*
X2472Y-109501D01*
X2376Y-109575D01*
X2280Y-109634D01*
X2184Y-109678D01*
X2103Y-109708D01*
X2029Y-109723D01*
X1985Y-109738D01*
X1978D01*
X1970D01*
X2081Y-110557D01*
X2251Y-110520D01*
X2399Y-110476D01*
X2531Y-110431D01*
X2642Y-110380D01*
X2723Y-110335D01*
X2790Y-110299D01*
X2827Y-110269D01*
X2841Y-110262D01*
X2945Y-110173D01*
X3033Y-110070D01*
X3114Y-109966D01*
X3181Y-109863D01*
X3232Y-109760D01*
X3269Y-109686D01*
X3284Y-109656D01*
X3291Y-109634D01*
X3299Y-109619D01*
Y-109612D01*
X3358Y-109442D01*
X3395Y-109273D01*
X3424Y-109096D01*
X3447Y-108940D01*
X3461Y-108800D01*
Y-108741D01*
X3469Y-108690D01*
Y-108594D01*
X3461Y-108454D01*
X3454Y-108321D01*
X3439Y-108195D01*
X3417Y-108092D01*
X3395Y-107996D01*
X3380Y-107930D01*
X3373Y-107885D01*
X3365Y-107878D01*
Y-107870D01*
X3328Y-107752D01*
X3284Y-107642D01*
X3240Y-107553D01*
X3203Y-107479D01*
X3173Y-107420D01*
X3144Y-107376D01*
X3129Y-107346D01*
X3122Y-107339D01*
X3048Y-107243D01*
X2974Y-107162D01*
X2893Y-107088D01*
X2819Y-107036D01*
X2753Y-106985D01*
X2701Y-106955D01*
X2672Y-106933D01*
X2657Y-106926D01*
X2554Y-106874D01*
X2443Y-106837D01*
X2340Y-106815D01*
X2244Y-106800D01*
X2162Y-106786D01*
X2103Y-106778D01*
X2059D01*
X2052D01*
X2044D01*
X1911Y-106786D01*
X1786Y-106808D01*
X1675Y-106837D01*
X1579Y-106867D01*
X1498Y-106896D01*
X1432Y-106926D01*
X1395Y-106948D01*
X1380Y-106955D01*
X1277Y-107029D01*
X1181Y-107118D01*
X1107Y-107206D01*
X1041Y-107295D01*
X982Y-107376D01*
X945Y-107435D01*
X922Y-107479D01*
X915Y-107487D01*
Y-107494D01*
X886Y-107568D01*
X849Y-107656D01*
X812Y-107745D01*
X782Y-107848D01*
X716Y-108062D01*
X649Y-108269D01*
X620Y-108372D01*
X590Y-108468D01*
X568Y-108557D01*
X546Y-108631D01*
X531Y-108690D01*
X517Y-108741D01*
X509Y-108771D01*
Y-108778D01*
X480Y-108896D01*
X450Y-109007D01*
X421Y-109110D01*
X391Y-109199D01*
X369Y-109280D01*
X347Y-109346D01*
X325Y-109406D01*
X303Y-109465D01*
X288Y-109509D01*
X273Y-109546D01*
X251Y-109597D01*
X236Y-109627D01*
X229Y-109634D01*
X162Y-109715D01*
X89Y-109782D01*
X15Y-109826D01*
X-59Y-109856D01*
X-118Y-109870D01*
X-177Y-109885D01*
X-207D01*
X-221D01*
X-339Y-109870D01*
X-443Y-109841D01*
X-539Y-109797D01*
X-620Y-109745D01*
X-686Y-109693D01*
X-731Y-109649D01*
X-768Y-109619D01*
X-775Y-109605D01*
X-849Y-109487D01*
X-908Y-109354D01*
X-945Y-109206D01*
X-974Y-109066D01*
X-989Y-108940D01*
X-996Y-108889D01*
Y-108837D01*
X-1004Y-108800D01*
Y-108741D01*
X-989Y-108542D01*
X-959Y-108365D01*
X-922Y-108210D01*
X-871Y-108084D01*
X-826Y-107981D01*
X-782Y-107907D01*
X-753Y-107863D01*
X-745Y-107856D01*
Y-107848D01*
X-635Y-107738D01*
X-517Y-107656D01*
X-384Y-107590D01*
X-258Y-107538D01*
X-148Y-107501D01*
X-103Y-107487D01*
X-59Y-107479D01*
X-22Y-107472D01*
X0D01*
X15Y-107465D01*
X22D01*
X-111Y-106638D01*
D02*
G37*
G36*
X-6927Y-104435D02*
X-11864D01*
Y-105269D01*
X-9303D01*
X-9178D01*
X-9067Y-105276D01*
X-8956Y-105284D01*
X-8860Y-105291D01*
X-8764Y-105298D01*
X-8683Y-105313D01*
X-8609Y-105321D01*
X-8536Y-105335D01*
X-8477Y-105350D01*
X-8425Y-105358D01*
X-8381Y-105372D01*
X-8344Y-105380D01*
X-8314Y-105387D01*
X-8292Y-105394D01*
X-8285Y-105402D01*
X-8277D01*
X-8152Y-105461D01*
X-8041Y-105527D01*
X-7945Y-105601D01*
X-7871Y-105675D01*
X-7805Y-105734D01*
X-7768Y-105786D01*
X-7739Y-105823D01*
X-7731Y-105837D01*
X-7665Y-105955D01*
X-7621Y-106066D01*
X-7584Y-106177D01*
X-7562Y-106280D01*
X-7547Y-106369D01*
X-7539Y-106435D01*
Y-106494D01*
X-7554Y-106656D01*
X-7584Y-106797D01*
X-7628Y-106907D01*
X-7680Y-107003D01*
X-7731Y-107070D01*
X-7775Y-107121D01*
X-7805Y-107151D01*
X-7820Y-107158D01*
X-7938Y-107225D01*
X-8071Y-107276D01*
X-8211Y-107313D01*
X-8344Y-107343D01*
X-8469Y-107358D01*
X-8521D01*
X-8565Y-107365D01*
X-8609D01*
X-8639D01*
X-8654D01*
X-8661D01*
X-11864D01*
Y-108199D01*
X-9001D01*
X-8860Y-108206D01*
X-8735Y-108214D01*
X-8609Y-108228D01*
X-8499Y-108250D01*
X-8403Y-108280D01*
X-8307Y-108309D01*
X-8226Y-108339D01*
X-8152Y-108376D01*
X-8093Y-108405D01*
X-8034Y-108435D01*
X-7989Y-108465D01*
X-7953Y-108494D01*
X-7923Y-108516D01*
X-7901Y-108531D01*
X-7894Y-108546D01*
X-7886D01*
X-7827Y-108612D01*
X-7768Y-108686D01*
X-7687Y-108826D01*
X-7621Y-108974D01*
X-7584Y-109114D01*
X-7554Y-109232D01*
X-7547Y-109284D01*
Y-109328D01*
X-7539Y-109365D01*
Y-109417D01*
X-7547Y-109520D01*
X-7562Y-109616D01*
X-7584Y-109704D01*
X-7606Y-109778D01*
X-7635Y-109837D01*
X-7658Y-109881D01*
X-7672Y-109911D01*
X-7680Y-109918D01*
X-7731Y-109992D01*
X-7790Y-110059D01*
X-7849Y-110103D01*
X-7908Y-110147D01*
X-7960Y-110177D01*
X-7997Y-110199D01*
X-8026Y-110214D01*
X-8034D01*
X-8130Y-110243D01*
X-8241Y-110258D01*
X-8359Y-110273D01*
X-8477Y-110287D01*
X-8587D01*
X-8676Y-110295D01*
X-8705D01*
X-8735D01*
X-8750D01*
X-8757D01*
X-11864D01*
Y-111129D01*
X-6816D01*
D01*
X-8477D01*
X-8322Y-111121D01*
X-8181Y-111114D01*
X-8049Y-111092D01*
X-7923Y-111070D01*
X-7812Y-111040D01*
X-7709Y-111003D01*
X-7621Y-110966D01*
X-7539Y-110929D01*
X-7466Y-110893D01*
X-7399Y-110856D01*
X-7348Y-110826D01*
X-7303Y-110789D01*
X-7274Y-110767D01*
X-7252Y-110745D01*
X-7237Y-110738D01*
X-7229Y-110730D01*
X-7156Y-110656D01*
X-7089Y-110568D01*
X-7038Y-110479D01*
X-6993Y-110391D01*
X-6920Y-110199D01*
X-6868Y-110022D01*
X-6853Y-109933D01*
X-6838Y-109852D01*
X-6831Y-109785D01*
X-6824Y-109719D01*
X-6816Y-109675D01*
Y-109601D01*
X-6824Y-109431D01*
X-6853Y-109269D01*
X-6897Y-109114D01*
X-6949Y-108966D01*
X-7015Y-108834D01*
X-7089Y-108708D01*
X-7170Y-108590D01*
X-7244Y-108487D01*
X-7325Y-108391D01*
X-7406Y-108309D01*
X-7480Y-108236D01*
X-7547Y-108184D01*
X-7598Y-108132D01*
X-7643Y-108103D01*
X-7672Y-108081D01*
X-7680Y-108073D01*
X-7532Y-108007D01*
X-7406Y-107933D01*
X-7303Y-107852D01*
X-7207Y-107771D01*
X-7141Y-107690D01*
X-7089Y-107631D01*
X-7052Y-107586D01*
X-7045Y-107579D01*
Y-107572D01*
X-6971Y-107431D01*
X-6912Y-107284D01*
X-6875Y-107136D01*
X-6846Y-106996D01*
X-6831Y-106870D01*
X-6824Y-106819D01*
X-6816Y-106767D01*
Y-106679D01*
X-6824Y-106501D01*
X-6853Y-106332D01*
X-6883Y-106184D01*
X-6927Y-106051D01*
X-6964Y-105948D01*
X-6986Y-105904D01*
X-7001Y-105867D01*
X-7015Y-105837D01*
X-7030Y-105815D01*
X-7038Y-105808D01*
Y-105800D01*
X-7126Y-105660D01*
X-7222Y-105542D01*
X-7318Y-105439D01*
X-7414Y-105350D01*
X-7495Y-105276D01*
X-7562Y-105225D01*
X-7606Y-105195D01*
X-7613Y-105180D01*
X-6927D01*
Y-104435D01*
D02*
G37*
G36*
X5232Y-111738D02*
X-1579D01*
Y-112572D01*
X3358D01*
Y-111738D01*
X4280D01*
Y-112572D01*
X5232D01*
Y-111738D01*
D02*
G37*
G36*
X3469Y-113560D02*
Y-115929D01*
X3461Y-115701D01*
X3439Y-115487D01*
X3410Y-115295D01*
X3395Y-115206D01*
X3380Y-115132D01*
X3365Y-115059D01*
X3351Y-114992D01*
X3336Y-114941D01*
X3321Y-114896D01*
X3306Y-114859D01*
X3299Y-114830D01*
X3291Y-114815D01*
Y-114808D01*
X3218Y-114638D01*
X3136Y-114490D01*
X3055Y-114365D01*
X2974Y-114261D01*
X2900Y-114180D01*
X2841Y-114121D01*
X2804Y-114084D01*
X2797Y-114070D01*
X2790D01*
X2664Y-113981D01*
X2524Y-113907D01*
X2384Y-113848D01*
X2251Y-113797D01*
X2133Y-113760D01*
X2081Y-113745D01*
X2037Y-113730D01*
X2000Y-113723D01*
X1970Y-113715D01*
X1956Y-113708D01*
X1948D01*
X1838Y-114527D01*
X1934Y-114557D01*
X2022Y-114586D01*
X2170Y-114645D01*
X2303Y-114719D01*
X2399Y-114786D01*
X2472Y-114845D01*
X2531Y-114896D01*
X2561Y-114926D01*
X2568Y-114941D01*
X2635Y-115059D01*
X2686Y-115199D01*
X2723Y-115339D01*
X2753Y-115479D01*
X2767Y-115612D01*
Y-115664D01*
X2775Y-115715D01*
Y-115811D01*
X2760Y-116033D01*
X2731Y-116225D01*
X2686Y-116387D01*
X2635Y-116520D01*
X2576Y-116623D01*
X2554Y-116660D01*
X2531Y-116697D01*
X2517Y-116726D01*
X2502Y-116741D01*
X2487Y-116756D01*
X2399Y-116837D01*
X2288Y-116896D01*
X2170Y-116940D01*
X2052Y-116970D01*
X1941Y-116985D01*
X1852Y-116999D01*
X1823D01*
X1793D01*
X1779D01*
X1771D01*
X1749D01*
X1720D01*
X1646D01*
X1616Y-116992D01*
X1587D01*
X1565D01*
X1557D01*
X1528Y-116896D01*
X1498Y-116793D01*
X1469Y-116675D01*
X1439Y-116557D01*
X1388Y-116313D01*
X1343Y-116070D01*
X1328Y-115952D01*
X1314Y-115848D01*
X1299Y-115752D01*
X1284Y-115664D01*
X1277Y-115597D01*
X1269Y-115546D01*
X1262Y-115516D01*
Y-115501D01*
X1240Y-115324D01*
X1218Y-115177D01*
X1196Y-115044D01*
X1181Y-114941D01*
X1159Y-114859D01*
X1151Y-114800D01*
X1137Y-114771D01*
Y-114756D01*
X1100Y-114638D01*
X1055Y-114520D01*
X1011Y-114417D01*
X967Y-114328D01*
X930Y-114254D01*
X893Y-114202D01*
X871Y-114166D01*
X864Y-114151D01*
X790Y-114055D01*
X716Y-113974D01*
X635Y-113900D01*
X561Y-113841D01*
X487Y-113789D01*
X435Y-113752D01*
X399Y-113730D01*
X384Y-113723D01*
X266Y-113671D01*
X155Y-113627D01*
X44Y-113597D01*
X-59Y-113583D01*
X-148Y-113568D01*
X-221Y-113560D01*
X3469D01*
X-1690D01*
X-280D01*
X-391Y-113568D01*
X-502Y-113583D01*
X-605Y-113597D01*
X-701Y-113627D01*
X-878Y-113701D01*
X-1018Y-113782D01*
X-1085Y-113819D01*
X-1137Y-113856D01*
X-1188Y-113892D01*
X-1225Y-113929D01*
X-1255Y-113959D01*
X-1277Y-113974D01*
X-1292Y-113988D01*
X-1299Y-113996D01*
X-1365Y-114084D01*
X-1424Y-114173D01*
X-1483Y-114276D01*
X-1528Y-114372D01*
X-1594Y-114579D01*
X-1638Y-114786D01*
X-1660Y-114874D01*
X-1668Y-114963D01*
X-1675Y-115044D01*
X-1683Y-115110D01*
X-1690Y-115162D01*
Y-115243D01*
X-1683Y-115428D01*
X-1668Y-115597D01*
X-1638Y-115752D01*
X-1609Y-115893D01*
X-1579Y-116003D01*
X-1564Y-116055D01*
X-1550Y-116092D01*
X-1542Y-116121D01*
X-1535Y-116143D01*
X-1528Y-116158D01*
Y-116166D01*
X-1454Y-116328D01*
X-1373Y-116490D01*
X-1277Y-116638D01*
X-1181Y-116778D01*
X-1100Y-116896D01*
X-1055Y-116940D01*
X-1026Y-116985D01*
X-996Y-117022D01*
X-974Y-117044D01*
X-967Y-117059D01*
X-959Y-117066D01*
X-1092Y-117081D01*
X-1210Y-117103D01*
X-1314Y-117132D01*
X-1402Y-117162D01*
X-1476Y-117184D01*
X-1535Y-117206D01*
X-1564Y-117221D01*
X-1579Y-117228D01*
Y-118099D01*
X-1476Y-118047D01*
X-1365Y-118003D01*
X-1269Y-117966D01*
X-1181Y-117937D01*
X-1100Y-117915D01*
X-1041Y-117900D01*
X-1004Y-117893D01*
X-989D01*
X-922Y-117885D01*
X-834Y-117878D01*
X-738Y-117870D01*
X-627Y-117863D01*
X-509Y-117856D01*
X-384D01*
X-133Y-117848D01*
X-15D01*
X103Y-117841D01*
X207D01*
X303D01*
X376D01*
X435D01*
X472D01*
X487D01*
X1602D01*
X1705D01*
X1793D01*
X1875Y-117833D01*
X1956D01*
X2089Y-117826D01*
X2192Y-117819D01*
X2273Y-117811D01*
X2325Y-117804D01*
X2362Y-117797D01*
X2369D01*
X2495Y-117767D01*
X2605Y-117723D01*
X2701Y-117678D01*
X2782Y-117634D01*
X2849Y-117597D01*
X2900Y-117560D01*
X2930Y-117538D01*
X2937Y-117531D01*
X3018Y-117450D01*
X3092Y-117361D01*
X3159Y-117265D01*
X3210Y-117169D01*
X3255Y-117081D01*
X3284Y-117014D01*
X3299Y-116985D01*
X3306Y-116963D01*
X3314Y-116955D01*
Y-116948D01*
X3365Y-116793D01*
X3402Y-116623D01*
X3432Y-116453D01*
X3447Y-116291D01*
X3461Y-116151D01*
Y-116084D01*
X3469Y-116033D01*
Y-117819D01*
Y-113560D01*
D02*
G37*
G36*
X5343Y-119081D02*
X5166Y-119184D01*
X5004Y-119272D01*
X4849Y-119361D01*
X4708Y-119435D01*
X4583Y-119501D01*
X4472Y-119560D01*
X4369Y-119619D01*
X4280Y-119664D01*
X4199Y-119701D01*
X4133Y-119738D01*
X4074Y-119767D01*
X4030Y-119789D01*
X3993Y-119804D01*
X3971Y-119819D01*
X3956Y-119826D01*
X3948D01*
X3705Y-119922D01*
X3469Y-120010D01*
X3247Y-120084D01*
X3136Y-120121D01*
X3041Y-120151D01*
X2952Y-120173D01*
X2864Y-120195D01*
X2790Y-120217D01*
X2731Y-120232D01*
X2679Y-120247D01*
X2642Y-120254D01*
X2620Y-120262D01*
X2613D01*
X2288Y-120328D01*
X1978Y-120379D01*
X1830Y-120402D01*
X1683Y-120416D01*
X1550Y-120431D01*
X1424Y-120446D01*
X1306Y-120453D01*
X1203Y-120461D01*
X1107D01*
X1026Y-120468D01*
X967D01*
X915D01*
X886D01*
X878D01*
X672Y-120461D01*
X458Y-120453D01*
X44Y-120409D01*
X-362Y-120343D01*
X-760Y-120254D01*
X-1144Y-120143D01*
X-1513Y-120033D01*
X-1860Y-119907D01*
X-2192Y-119774D01*
X-2487Y-119641D01*
X-2627Y-119582D01*
X-2760Y-119524D01*
X-2878Y-119457D01*
X-2996Y-119405D01*
X-3100Y-119346D01*
X-3196Y-119295D01*
X-3284Y-119250D01*
X-3358Y-119206D01*
X-3424Y-119169D01*
X-3476Y-119140D01*
X-3520Y-119118D01*
X-3557Y-119095D01*
X-3572Y-119088D01*
X-3579Y-119081D01*
X5343D01*
X-3579D01*
Y-121324D01*
Y-119678D01*
X-3240Y-119922D01*
X-2885Y-120143D01*
X-2546Y-120343D01*
X-2384Y-120431D01*
X-2229Y-120512D01*
X-2081Y-120586D01*
X-1948Y-120653D01*
X-1830Y-120704D01*
X-1734Y-120748D01*
X-1646Y-120785D01*
X-1587Y-120815D01*
X-1550Y-120830D01*
X-1535Y-120837D01*
X-1314Y-120926D01*
X-1100Y-121000D01*
X-878Y-121066D01*
X-664Y-121117D01*
X-458Y-121169D01*
X-258Y-121206D01*
X-66Y-121236D01*
X111Y-121265D01*
X280Y-121287D01*
X428Y-121302D01*
X561Y-121309D01*
X672Y-121317D01*
X760Y-121324D01*
X-3579D01*
X5343D01*
X886D01*
X1092Y-121317D01*
X1292Y-121309D01*
X1491Y-121295D01*
X1683Y-121265D01*
X1860Y-121243D01*
X2037Y-121213D01*
X2199Y-121177D01*
X2354Y-121147D01*
X2495Y-121110D01*
X2620Y-121081D01*
X2731Y-121044D01*
X2819Y-121022D01*
X2893Y-121000D01*
X2952Y-120977D01*
X2982Y-120970D01*
X2996Y-120963D01*
X3218Y-120881D01*
X3439Y-120785D01*
X3860Y-120586D01*
X4066Y-120483D01*
X4258Y-120372D01*
X4443Y-120269D01*
X4612Y-120166D01*
X4767Y-120070D01*
X4915Y-119974D01*
X5041Y-119893D01*
X5144Y-119819D01*
X5225Y-119760D01*
X5291Y-119715D01*
X5328Y-119686D01*
X5343Y-119678D01*
Y-119081D01*
D02*
G37*
%LPD*%
G36*
X-8964Y-27543D02*
X-8779Y-27558D01*
X-8624Y-27580D01*
X-8499Y-27602D01*
X-8395Y-27624D01*
X-8322Y-27646D01*
X-8299Y-27654D01*
X-8277Y-27661D01*
X-8263Y-27668D01*
X-8145Y-27727D01*
X-8041Y-27801D01*
X-7953Y-27875D01*
X-7879Y-27956D01*
X-7820Y-28023D01*
X-7775Y-28082D01*
X-7746Y-28119D01*
X-7739Y-28133D01*
X-7672Y-28259D01*
X-7621Y-28384D01*
X-7591Y-28502D01*
X-7562Y-28605D01*
X-7547Y-28701D01*
X-7539Y-28775D01*
Y-28834D01*
X-7554Y-29011D01*
X-7584Y-29166D01*
X-7628Y-29292D01*
X-7680Y-29403D01*
X-7739Y-29491D01*
X-7783Y-29550D01*
X-7812Y-29587D01*
X-7827Y-29602D01*
X-7886Y-29653D01*
X-7945Y-29690D01*
X-8093Y-29757D01*
X-8241Y-29809D01*
X-8395Y-29838D01*
X-8528Y-29860D01*
X-8587Y-29868D01*
X-8639D01*
X-8683Y-29875D01*
X-8713D01*
X-8735D01*
X-8742D01*
X-11864D01*
Y-27535D01*
X-9170D01*
X-8964Y-27543D01*
D02*
G37*
G36*
X-5207Y-32967D02*
X-5709Y-32133D01*
X-6927D01*
Y-31513D01*
X-5207D01*
Y-32967D01*
D02*
G37*
G36*
Y-36569D02*
X-11857D01*
X-11119Y-36458D01*
X-11126Y-36377D01*
X-11133Y-36303D01*
X-11141Y-36237D01*
Y-36185D01*
X-11148Y-36140D01*
Y-36015D01*
X-11141Y-35956D01*
X-11126Y-35912D01*
X-11119Y-35868D01*
X-11104Y-35838D01*
X-11096Y-35816D01*
X-11089Y-35801D01*
Y-35794D01*
X-11038Y-35735D01*
X-10986Y-35690D01*
X-10942Y-35661D01*
X-10934Y-35653D01*
X-10927D01*
X-10875Y-35639D01*
X-10809Y-35631D01*
X-10735Y-35617D01*
X-10661D01*
X-10587Y-35609D01*
X-10528D01*
X-10484D01*
X-10477D01*
X-10469D01*
X-7576D01*
Y-36458D01*
X-6927D01*
Y-35609D01*
X-5207D01*
Y-36569D01*
D02*
G37*
G36*
X-11857D02*
D01*
D01*
D01*
D02*
G37*
G36*
X-9251Y-38037D02*
X-9089Y-38045D01*
X-8942Y-38067D01*
X-8801Y-38096D01*
X-8669Y-38126D01*
X-8550Y-38155D01*
X-8440Y-38192D01*
X-8344Y-38236D01*
X-8255Y-38273D01*
X-8181Y-38310D01*
X-8122Y-38340D01*
X-8071Y-38369D01*
X-8026Y-38399D01*
X-7997Y-38421D01*
X-7982Y-38428D01*
X-7975Y-38436D01*
X-7886Y-38517D01*
X-7812Y-38598D01*
X-7739Y-38679D01*
X-7687Y-38760D01*
X-7635Y-38842D01*
X-7598Y-38915D01*
X-7532Y-39063D01*
X-7502Y-39189D01*
X-7488Y-39248D01*
X-7480Y-39292D01*
X-7473Y-39329D01*
Y-39380D01*
X-7480Y-39476D01*
X-7495Y-39572D01*
X-7517Y-39668D01*
X-7547Y-39757D01*
X-7621Y-39912D01*
X-7709Y-40045D01*
X-7798Y-40155D01*
X-7835Y-40207D01*
X-7871Y-40244D01*
X-7901Y-40273D01*
X-7923Y-40295D01*
X-7938Y-40303D01*
X-7945Y-40310D01*
X-8041Y-40377D01*
X-8145Y-40443D01*
X-8248Y-40495D01*
X-8366Y-40539D01*
X-8602Y-40605D01*
X-8831Y-40650D01*
X-8942Y-40672D01*
X-9037Y-40679D01*
X-9126Y-40687D01*
X-9207Y-40694D01*
X-9274Y-40701D01*
X-9318D01*
X-9355D01*
X-9362D01*
X-9539Y-40694D01*
X-9709Y-40687D01*
X-9864Y-40664D01*
X-10004Y-40642D01*
X-10137Y-40613D01*
X-10263Y-40576D01*
X-10366Y-40539D01*
X-10462Y-40502D01*
X-10550Y-40465D01*
X-10624Y-40428D01*
X-10683Y-40399D01*
X-10735Y-40362D01*
X-10772Y-40340D01*
X-10801Y-40318D01*
X-10816Y-40310D01*
X-10824Y-40303D01*
X-10905Y-40229D01*
X-10978Y-40148D01*
X-11038Y-40067D01*
X-11089Y-39985D01*
X-11133Y-39904D01*
X-11178Y-39823D01*
X-11229Y-39676D01*
X-11266Y-39543D01*
X-11274Y-39484D01*
X-11281Y-39439D01*
X-11288Y-39395D01*
Y-39344D01*
X-11281Y-39240D01*
X-11266Y-39144D01*
X-11244Y-39056D01*
X-11215Y-38967D01*
X-11148Y-38812D01*
X-11060Y-38672D01*
X-10978Y-38561D01*
X-10942Y-38517D01*
X-10905Y-38480D01*
X-10882Y-38451D01*
X-10860Y-38428D01*
X-10846Y-38421D01*
X-10838Y-38414D01*
X-10750Y-38347D01*
X-10646Y-38288D01*
X-10536Y-38236D01*
X-10425Y-38192D01*
X-10189Y-38126D01*
X-9960Y-38081D01*
X-9857Y-38059D01*
X-9753Y-38052D01*
X-9665Y-38045D01*
X-9584Y-38037D01*
X-9517Y-38030D01*
X-9473D01*
X-9436D01*
X-9429D01*
X-9251Y-38037D01*
D02*
G37*
G36*
X-6816Y-41557D02*
X-9362D01*
X-9104Y-41550D01*
X-8860Y-41521D01*
X-8639Y-41476D01*
X-8543Y-41454D01*
X-8447Y-41432D01*
X-8366Y-41410D01*
X-8285Y-41388D01*
X-8218Y-41366D01*
X-8167Y-41343D01*
X-8122Y-41329D01*
X-8093Y-41314D01*
X-8071Y-41306D01*
X-8063D01*
X-7857Y-41203D01*
X-7672Y-41093D01*
X-7517Y-40967D01*
X-7384Y-40849D01*
X-7281Y-40746D01*
X-7207Y-40657D01*
X-7185Y-40620D01*
X-7163Y-40598D01*
X-7148Y-40583D01*
Y-40576D01*
X-7089Y-40487D01*
X-7038Y-40391D01*
X-6956Y-40200D01*
X-6897Y-40015D01*
X-6860Y-39838D01*
X-6846Y-39757D01*
X-6831Y-39690D01*
X-6824Y-39624D01*
Y-39565D01*
X-6816Y-39521D01*
Y-41557D01*
D02*
G37*
G36*
X1055Y-39842D02*
X1218Y-39849D01*
X1365Y-39871D01*
X1506Y-39901D01*
X1631Y-39930D01*
X1749Y-39967D01*
X1852Y-40004D01*
X1948Y-40041D01*
X2029Y-40078D01*
X2103Y-40115D01*
X2162Y-40152D01*
X2214Y-40181D01*
X2251Y-40211D01*
X2280Y-40233D01*
X2295Y-40240D01*
X2303Y-40247D01*
X2384Y-40329D01*
X2458Y-40410D01*
X2524Y-40498D01*
X2576Y-40587D01*
X2620Y-40676D01*
X2657Y-40757D01*
X2716Y-40927D01*
X2753Y-41067D01*
X2760Y-41133D01*
X2767Y-41185D01*
X2775Y-41229D01*
Y-41288D01*
X2767Y-41399D01*
X2753Y-41510D01*
X2731Y-41613D01*
X2701Y-41709D01*
X2627Y-41886D01*
X2539Y-42041D01*
X2495Y-42100D01*
X2450Y-42159D01*
X2413Y-42203D01*
X2376Y-42248D01*
X2347Y-42277D01*
X2325Y-42299D01*
X2310Y-42314D01*
X2303Y-42321D01*
X2207Y-42395D01*
X2111Y-42461D01*
X2000Y-42513D01*
X1889Y-42565D01*
X1771Y-42609D01*
X1653Y-42639D01*
X1432Y-42690D01*
X1328Y-42705D01*
X1233Y-42720D01*
X1144Y-42727D01*
X1063Y-42735D01*
X1004Y-42742D01*
X952D01*
X922D01*
X915D01*
X738Y-42735D01*
X576Y-42727D01*
X421Y-42705D01*
X280Y-42676D01*
X148Y-42646D01*
X30Y-42609D01*
X-81Y-42572D01*
X-170Y-42535D01*
X-258Y-42491D01*
X-332Y-42454D01*
X-391Y-42417D01*
X-443Y-42388D01*
X-480Y-42358D01*
X-509Y-42336D01*
X-524Y-42329D01*
X-531Y-42321D01*
X-612Y-42240D01*
X-686Y-42159D01*
X-753Y-42070D01*
X-804Y-41989D01*
X-849Y-41901D01*
X-886Y-41812D01*
X-945Y-41650D01*
X-981Y-41510D01*
X-989Y-41443D01*
X-996Y-41391D01*
X-1004Y-41347D01*
Y-41288D01*
X-996Y-41170D01*
X-981Y-41067D01*
X-959Y-40956D01*
X-930Y-40860D01*
X-856Y-40683D01*
X-768Y-40535D01*
X-731Y-40469D01*
X-686Y-40410D01*
X-649Y-40366D01*
X-612Y-40321D01*
X-583Y-40292D01*
X-561Y-40270D01*
X-546Y-40255D01*
X-539Y-40247D01*
X-443Y-40174D01*
X-339Y-40115D01*
X-229Y-40056D01*
X-118Y-40011D01*
X118Y-39937D01*
X354Y-39886D01*
X458Y-39871D01*
X561Y-39856D01*
X649Y-39849D01*
X731Y-39842D01*
X797Y-39834D01*
X841D01*
X878D01*
X886D01*
X1055Y-39842D01*
D02*
G37*
G36*
Y-45133D02*
X1225Y-45140D01*
X1373Y-45163D01*
X1520Y-45185D01*
X1646Y-45214D01*
X1764Y-45244D01*
X1875Y-45273D01*
X1963Y-45310D01*
X2052Y-45347D01*
X2118Y-45377D01*
X2184Y-45406D01*
X2229Y-45436D01*
X2266Y-45458D01*
X2295Y-45480D01*
X2310Y-45487D01*
X2317Y-45495D01*
X2399Y-45568D01*
X2465Y-45642D01*
X2531Y-45724D01*
X2583Y-45797D01*
X2627Y-45878D01*
X2664Y-45960D01*
X2716Y-46107D01*
X2753Y-46233D01*
X2760Y-46292D01*
X2767Y-46336D01*
X2775Y-46380D01*
Y-46432D01*
X2767Y-46535D01*
X2753Y-46639D01*
X2731Y-46734D01*
X2701Y-46823D01*
X2620Y-46993D01*
X2539Y-47133D01*
X2450Y-47244D01*
X2406Y-47288D01*
X2369Y-47332D01*
X2340Y-47362D01*
X2317Y-47384D01*
X2303Y-47391D01*
X2295Y-47399D01*
X2199Y-47473D01*
X2096Y-47532D01*
X1985Y-47583D01*
X1867Y-47627D01*
X1616Y-47701D01*
X1380Y-47746D01*
X1262Y-47768D01*
X1159Y-47775D01*
X1063Y-47782D01*
X974Y-47790D01*
X908Y-47797D01*
X856D01*
X827D01*
X812D01*
X642Y-47790D01*
X487Y-47782D01*
X340Y-47760D01*
X207Y-47738D01*
X89Y-47709D01*
X-30Y-47672D01*
X-133Y-47635D01*
X-221Y-47605D01*
X-302Y-47569D01*
X-369Y-47532D01*
X-428Y-47495D01*
X-472Y-47465D01*
X-517Y-47443D01*
X-539Y-47421D01*
X-554Y-47414D01*
X-561Y-47406D01*
X-642Y-47332D01*
X-708Y-47258D01*
X-768Y-47177D01*
X-819Y-47096D01*
X-856Y-47022D01*
X-893Y-46941D01*
X-945Y-46794D01*
X-981Y-46668D01*
X-989Y-46609D01*
X-996Y-46565D01*
X-1004Y-46521D01*
Y-46469D01*
X-996Y-46365D01*
X-981Y-46270D01*
X-959Y-46181D01*
X-930Y-46093D01*
X-856Y-45930D01*
X-768Y-45790D01*
X-686Y-45679D01*
X-649Y-45635D01*
X-612Y-45598D01*
X-583Y-45568D01*
X-561Y-45539D01*
X-546Y-45532D01*
X-539Y-45524D01*
X-443Y-45458D01*
X-339Y-45391D01*
X-229Y-45340D01*
X-118Y-45295D01*
X118Y-45222D01*
X347Y-45177D01*
X458Y-45163D01*
X554Y-45148D01*
X642Y-45140D01*
X723Y-45133D01*
X790Y-45126D01*
X834D01*
X871D01*
X878D01*
X1055Y-45133D01*
D02*
G37*
G36*
X-4942Y-54635D02*
X-11982D01*
Y-52657D01*
X-4942Y-54635D01*
D02*
G37*
G36*
X-177Y-50491D02*
X-103Y-50498D01*
X-37Y-50520D01*
X22Y-50543D01*
X74Y-50557D01*
X111Y-50580D01*
X133Y-50587D01*
X140Y-50594D01*
X207Y-50646D01*
X258Y-50698D01*
X303Y-50749D01*
X347Y-50808D01*
X376Y-50853D01*
X399Y-50889D01*
X406Y-50919D01*
X413Y-50926D01*
X450Y-51022D01*
X480Y-51133D01*
X509Y-51251D01*
X531Y-51369D01*
X554Y-51480D01*
X568Y-51576D01*
X576Y-51605D01*
X583Y-51635D01*
Y-51657D01*
X605Y-51827D01*
X635Y-51982D01*
X657Y-52122D01*
X686Y-52255D01*
X716Y-52380D01*
X738Y-52491D01*
X768Y-52594D01*
X790Y-52690D01*
X812Y-52764D01*
X834Y-52838D01*
X849Y-52897D01*
X871Y-52941D01*
X886Y-52978D01*
X893Y-53008D01*
X900Y-53022D01*
Y-53030D01*
X590Y-53022D01*
X399Y-53015D01*
X229Y-53000D01*
X81Y-52978D01*
X-37Y-52956D01*
X-125Y-52934D01*
X-192Y-52912D01*
X-229Y-52897D01*
X-243Y-52889D01*
X-376Y-52816D01*
X-487Y-52727D01*
X-590Y-52639D01*
X-672Y-52550D01*
X-738Y-52461D01*
X-790Y-52395D01*
X-819Y-52351D01*
X-826Y-52343D01*
Y-52336D01*
X-893Y-52188D01*
X-945Y-52041D01*
X-981Y-51901D01*
X-1004Y-51760D01*
X-1018Y-51650D01*
X-1026Y-51598D01*
X-1033Y-51554D01*
Y-51473D01*
X-1026Y-51303D01*
X-996Y-51155D01*
X-959Y-51022D01*
X-922Y-50919D01*
X-878Y-50838D01*
X-849Y-50779D01*
X-819Y-50749D01*
X-812Y-50735D01*
X-723Y-50653D01*
X-635Y-50587D01*
X-539Y-50543D01*
X-450Y-50513D01*
X-376Y-50498D01*
X-310Y-50491D01*
X-273Y-50484D01*
X-258D01*
X-177Y-50491D01*
D02*
G37*
G36*
X-10462Y-55875D02*
X-10388Y-55882D01*
X-10322Y-55904D01*
X-10263Y-55926D01*
X-10211Y-55941D01*
X-10174Y-55963D01*
X-10152Y-55971D01*
X-10144Y-55978D01*
X-10078Y-56030D01*
X-10026Y-56081D01*
X-9982Y-56133D01*
X-9938Y-56192D01*
X-9908Y-56236D01*
X-9886Y-56273D01*
X-9879Y-56303D01*
X-9871Y-56310D01*
X-9835Y-56406D01*
X-9805Y-56517D01*
X-9775Y-56635D01*
X-9753Y-56753D01*
X-9731Y-56864D01*
X-9717Y-56959D01*
X-9709Y-56989D01*
X-9702Y-57019D01*
Y-57041D01*
X-9680Y-57210D01*
X-9650Y-57365D01*
X-9628Y-57506D01*
X-9598Y-57639D01*
X-9569Y-57764D01*
X-9547Y-57875D01*
X-9517Y-57978D01*
X-9495Y-58074D01*
X-9473Y-58148D01*
X-9451Y-58222D01*
X-9436Y-58280D01*
X-9414Y-58325D01*
X-9399Y-58362D01*
X-9392Y-58391D01*
X-9384Y-58406D01*
Y-58413D01*
X-9694Y-58406D01*
X-9886Y-58399D01*
X-10056Y-58384D01*
X-10204Y-58362D01*
X-10322Y-58340D01*
X-10410Y-58317D01*
X-10477Y-58295D01*
X-10514Y-58280D01*
X-10528Y-58273D01*
X-10661Y-58199D01*
X-10772Y-58111D01*
X-10875Y-58022D01*
X-10956Y-57934D01*
X-11023Y-57845D01*
X-11074Y-57779D01*
X-11104Y-57734D01*
X-11111Y-57727D01*
Y-57720D01*
X-11178Y-57572D01*
X-11229Y-57424D01*
X-11266Y-57284D01*
X-11288Y-57144D01*
X-11303Y-57033D01*
X-11311Y-56982D01*
X-11318Y-56937D01*
Y-56856D01*
X-11311Y-56687D01*
X-11281Y-56539D01*
X-11244Y-56406D01*
X-11207Y-56303D01*
X-11163Y-56221D01*
X-11133Y-56163D01*
X-11104Y-56133D01*
X-11096Y-56118D01*
X-11008Y-56037D01*
X-10919Y-55971D01*
X-10824Y-55926D01*
X-10735Y-55897D01*
X-10661Y-55882D01*
X-10595Y-55875D01*
X-10558Y-55867D01*
X-10543D01*
X-10462Y-55875D01*
D02*
G37*
G36*
X-9067Y-61380D02*
X-8956Y-61387D01*
X-8860Y-61395D01*
X-8764Y-61402D01*
X-8683Y-61417D01*
X-8609Y-61424D01*
X-8536Y-61439D01*
X-8477Y-61454D01*
X-8425Y-61461D01*
X-8381Y-61476D01*
X-8344Y-61484D01*
X-8314Y-61491D01*
X-8292Y-61498D01*
X-8285Y-61506D01*
X-8277D01*
X-8152Y-61565D01*
X-8041Y-61631D01*
X-7945Y-61705D01*
X-7871Y-61779D01*
X-7805Y-61838D01*
X-7768Y-61889D01*
X-7739Y-61926D01*
X-7731Y-61941D01*
X-7665Y-62059D01*
X-7621Y-62170D01*
X-7584Y-62280D01*
X-7562Y-62384D01*
X-7547Y-62472D01*
X-7539Y-62539D01*
Y-62598D01*
X-7554Y-62760D01*
X-7584Y-62900D01*
X-7628Y-63011D01*
X-7680Y-63107D01*
X-7731Y-63174D01*
X-7775Y-63225D01*
X-7805Y-63255D01*
X-7820Y-63262D01*
X-7938Y-63328D01*
X-8071Y-63380D01*
X-8211Y-63417D01*
X-8344Y-63446D01*
X-8469Y-63461D01*
X-8521D01*
X-8565Y-63469D01*
X-8609D01*
X-8639D01*
X-8654D01*
X-8661D01*
X-11864D01*
Y-61373D01*
X-9303D01*
X-9178D01*
X-9067Y-61380D01*
D02*
G37*
G36*
X-9251Y-69232D02*
X-9089Y-69240D01*
X-8942Y-69262D01*
X-8801Y-69292D01*
X-8669Y-69321D01*
X-8550Y-69350D01*
X-8440Y-69387D01*
X-8344Y-69432D01*
X-8255Y-69469D01*
X-8181Y-69506D01*
X-8122Y-69535D01*
X-8071Y-69564D01*
X-8026Y-69594D01*
X-7997Y-69616D01*
X-7982Y-69624D01*
X-7975Y-69631D01*
X-7886Y-69712D01*
X-7812Y-69793D01*
X-7739Y-69875D01*
X-7687Y-69956D01*
X-7635Y-70037D01*
X-7598Y-70111D01*
X-7532Y-70258D01*
X-7502Y-70384D01*
X-7488Y-70443D01*
X-7480Y-70487D01*
X-7473Y-70524D01*
Y-70576D01*
X-7480Y-70672D01*
X-7495Y-70767D01*
X-7517Y-70863D01*
X-7547Y-70952D01*
X-7621Y-71107D01*
X-7709Y-71240D01*
X-7798Y-71351D01*
X-7835Y-71402D01*
X-7871Y-71439D01*
X-7901Y-71469D01*
X-7923Y-71491D01*
X-7938Y-71498D01*
X-7945Y-71505D01*
X-8041Y-71572D01*
X-8145Y-71638D01*
X-8248Y-71690D01*
X-8366Y-71734D01*
X-8602Y-71801D01*
X-8831Y-71845D01*
X-8942Y-71867D01*
X-9037Y-71874D01*
X-9126Y-71882D01*
X-9207Y-71889D01*
X-9274Y-71897D01*
X-9318D01*
X-9355D01*
X-9362D01*
X-9539Y-71889D01*
X-9709Y-71882D01*
X-9864Y-71860D01*
X-10004Y-71838D01*
X-10137Y-71808D01*
X-10263Y-71771D01*
X-10366Y-71734D01*
X-10462Y-71697D01*
X-10550Y-71661D01*
X-10624Y-71624D01*
X-10683Y-71594D01*
X-10735Y-71557D01*
X-10772Y-71535D01*
X-10801Y-71513D01*
X-10816Y-71505D01*
X-10824Y-71498D01*
X-10905Y-71424D01*
X-10978Y-71343D01*
X-11038Y-71262D01*
X-11089Y-71181D01*
X-11133Y-71100D01*
X-11178Y-71018D01*
X-11229Y-70871D01*
X-11266Y-70738D01*
X-11274Y-70679D01*
X-11281Y-70635D01*
X-11288Y-70590D01*
Y-70539D01*
X-11281Y-70435D01*
X-11266Y-70339D01*
X-11244Y-70251D01*
X-11215Y-70162D01*
X-11148Y-70007D01*
X-11060Y-69867D01*
X-10978Y-69756D01*
X-10942Y-69712D01*
X-10905Y-69675D01*
X-10882Y-69646D01*
X-10860Y-69624D01*
X-10846Y-69616D01*
X-10838Y-69609D01*
X-10750Y-69542D01*
X-10646Y-69483D01*
X-10536Y-69432D01*
X-10425Y-69387D01*
X-10189Y-69321D01*
X-9960Y-69277D01*
X-9857Y-69255D01*
X-9753Y-69247D01*
X-9665Y-69240D01*
X-9584Y-69232D01*
X-9517Y-69225D01*
X-9473D01*
X-9436D01*
X-9429D01*
X-9251Y-69232D01*
D02*
G37*
G36*
X-177Y-80092D02*
X-103Y-80099D01*
X-37Y-80122D01*
X22Y-80144D01*
X74Y-80159D01*
X111Y-80181D01*
X133Y-80188D01*
X140Y-80195D01*
X207Y-80247D01*
X258Y-80299D01*
X303Y-80350D01*
X347Y-80409D01*
X376Y-80454D01*
X399Y-80491D01*
X406Y-80520D01*
X413Y-80528D01*
X450Y-80624D01*
X480Y-80734D01*
X509Y-80852D01*
X531Y-80970D01*
X554Y-81081D01*
X568Y-81177D01*
X576Y-81207D01*
X583Y-81236D01*
Y-81258D01*
X605Y-81428D01*
X635Y-81583D01*
X657Y-81723D01*
X686Y-81856D01*
X716Y-81981D01*
X738Y-82092D01*
X768Y-82195D01*
X790Y-82291D01*
X812Y-82365D01*
X834Y-82439D01*
X849Y-82498D01*
X871Y-82542D01*
X886Y-82579D01*
X893Y-82609D01*
X900Y-82623D01*
Y-82631D01*
X590Y-82623D01*
X399Y-82616D01*
X229Y-82601D01*
X81Y-82579D01*
X-37Y-82557D01*
X-125Y-82535D01*
X-192Y-82513D01*
X-229Y-82498D01*
X-243Y-82491D01*
X-376Y-82417D01*
X-487Y-82328D01*
X-590Y-82240D01*
X-672Y-82151D01*
X-738Y-82063D01*
X-790Y-81996D01*
X-819Y-81952D01*
X-826Y-81945D01*
Y-81937D01*
X-893Y-81789D01*
X-945Y-81642D01*
X-981Y-81502D01*
X-1004Y-81362D01*
X-1018Y-81251D01*
X-1026Y-81199D01*
X-1033Y-81155D01*
Y-81074D01*
X-1026Y-80904D01*
X-996Y-80756D01*
X-959Y-80624D01*
X-922Y-80520D01*
X-878Y-80439D01*
X-849Y-80380D01*
X-819Y-80350D01*
X-812Y-80336D01*
X-723Y-80255D01*
X-635Y-80188D01*
X-539Y-80144D01*
X-450Y-80114D01*
X-376Y-80099D01*
X-310Y-80092D01*
X-273Y-80085D01*
X-258D01*
X-177Y-80092D01*
D02*
G37*
G36*
X-5207Y-86280D02*
X-11857D01*
X-11119Y-86170D01*
X-11126Y-86088D01*
X-11133Y-86015D01*
X-11141Y-85948D01*
Y-85896D01*
X-11148Y-85852D01*
Y-85727D01*
X-11141Y-85668D01*
X-11126Y-85623D01*
X-11119Y-85579D01*
X-11104Y-85550D01*
X-11096Y-85527D01*
X-11089Y-85513D01*
Y-85505D01*
X-11038Y-85446D01*
X-10986Y-85402D01*
X-10942Y-85373D01*
X-10934Y-85365D01*
X-10927D01*
X-10875Y-85350D01*
X-10809Y-85343D01*
X-10735Y-85328D01*
X-10661D01*
X-10587Y-85321D01*
X-10528D01*
X-10484D01*
X-10477D01*
X-10469D01*
X-7576D01*
Y-86170D01*
X-6927D01*
Y-85321D01*
X-5207D01*
Y-86280D01*
D02*
G37*
G36*
X-11857D02*
D01*
D01*
D01*
D02*
G37*
G36*
X4480Y-93361D02*
X4465Y-93487D01*
X4450Y-93605D01*
X4428Y-93716D01*
X4406Y-93812D01*
X4376Y-93900D01*
X4354Y-93981D01*
X4325Y-94055D01*
X4295Y-94121D01*
X4266Y-94173D01*
X4236Y-94225D01*
X4214Y-94262D01*
X4192Y-94291D01*
X4177Y-94313D01*
X4170Y-94321D01*
X4162Y-94328D01*
X4103Y-94387D01*
X4037Y-94446D01*
X3911Y-94535D01*
X3779Y-94594D01*
X3653Y-94638D01*
X3542Y-94668D01*
X3491Y-94675D01*
X3454D01*
X3417Y-94682D01*
X3395D01*
X3380D01*
X3373D01*
X3255Y-94675D01*
X3136Y-94653D01*
X3033Y-94623D01*
X2945Y-94594D01*
X2864Y-94557D01*
X2812Y-94527D01*
X2775Y-94505D01*
X2760Y-94498D01*
X2664Y-94424D01*
X2576Y-94336D01*
X2509Y-94247D01*
X2450Y-94166D01*
X2406Y-94085D01*
X2376Y-94026D01*
X2362Y-93981D01*
X2354Y-93974D01*
Y-93967D01*
X2310Y-93826D01*
X2280Y-93671D01*
X2258Y-93509D01*
X2244Y-93354D01*
X2236Y-93214D01*
Y-93155D01*
X2229Y-93103D01*
Y-91066D01*
X4480D01*
Y-93361D01*
D02*
G37*
G36*
X1446Y-92225D02*
X1439Y-92328D01*
X1432Y-92417D01*
Y-92491D01*
X1424Y-92542D01*
X1417Y-92579D01*
X1410Y-92601D01*
Y-92609D01*
X1388Y-92690D01*
X1358Y-92764D01*
X1328Y-92830D01*
X1299Y-92896D01*
X1269Y-92948D01*
X1247Y-92985D01*
X1233Y-93015D01*
X1225Y-93022D01*
X1173Y-93096D01*
X1100Y-93177D01*
X1026Y-93258D01*
X952Y-93325D01*
X886Y-93391D01*
X827Y-93435D01*
X790Y-93465D01*
X782Y-93479D01*
X775D01*
X642Y-93583D01*
X495Y-93694D01*
X340Y-93797D01*
X184Y-93900D01*
X52Y-93989D01*
X-7Y-94033D01*
X-59Y-94063D01*
X-103Y-94092D01*
X-133Y-94114D01*
X-155Y-94121D01*
X-162Y-94129D01*
X-1579Y-95029D01*
Y-91066D01*
X1446D01*
Y-92225D01*
D02*
G37*
G36*
X3358Y-100062D02*
X709D01*
X487Y-100055D01*
X295Y-100040D01*
X133Y-100018D01*
X-7Y-99996D01*
X-66Y-99981D01*
X-111Y-99967D01*
X-155Y-99952D01*
X-192Y-99944D01*
X-214Y-99937D01*
X-236Y-99930D01*
X-243Y-99922D01*
X-251D01*
X-369Y-99863D01*
X-472Y-99789D01*
X-561Y-99708D01*
X-635Y-99634D01*
X-694Y-99561D01*
X-738Y-99502D01*
X-768Y-99465D01*
X-775Y-99457D01*
Y-99450D01*
X-841Y-99324D01*
X-886Y-99206D01*
X-922Y-99088D01*
X-945Y-98978D01*
X-959Y-98882D01*
X-967Y-98815D01*
Y-98749D01*
X-959Y-98616D01*
X-937Y-98491D01*
X-908Y-98380D01*
X-871Y-98291D01*
X-841Y-98217D01*
X-812Y-98158D01*
X-790Y-98129D01*
X-782Y-98114D01*
X-708Y-98026D01*
X-620Y-97952D01*
X-539Y-97893D01*
X-458Y-97848D01*
X-384Y-97812D01*
X-317Y-97789D01*
X-280Y-97782D01*
X-266Y-97775D01*
X-221Y-97767D01*
X-162Y-97760D01*
X-30Y-97752D01*
X118Y-97738D01*
X266D01*
X399Y-97730D01*
X458D01*
X517D01*
X561D01*
X590D01*
X613D01*
X620D01*
X3358D01*
Y-100062D01*
D02*
G37*
G36*
X-9229Y-99704D02*
X-9067Y-99712D01*
X-8919Y-99734D01*
X-8779Y-99764D01*
X-8654Y-99793D01*
X-8536Y-99830D01*
X-8432Y-99867D01*
X-8336Y-99904D01*
X-8255Y-99941D01*
X-8181Y-99977D01*
X-8122Y-100014D01*
X-8071Y-100044D01*
X-8034Y-100074D01*
X-8004Y-100096D01*
X-7989Y-100103D01*
X-7982Y-100110D01*
X-7901Y-100191D01*
X-7827Y-100273D01*
X-7761Y-100361D01*
X-7709Y-100450D01*
X-7665Y-100538D01*
X-7628Y-100620D01*
X-7569Y-100789D01*
X-7532Y-100929D01*
X-7525Y-100996D01*
X-7517Y-101048D01*
X-7510Y-101092D01*
Y-101151D01*
X-7517Y-101262D01*
X-7532Y-101372D01*
X-7554Y-101476D01*
X-7584Y-101572D01*
X-7658Y-101749D01*
X-7746Y-101904D01*
X-7790Y-101963D01*
X-7835Y-102022D01*
X-7871Y-102066D01*
X-7908Y-102110D01*
X-7938Y-102140D01*
X-7960Y-102162D01*
X-7975Y-102177D01*
X-7982Y-102184D01*
X-8078Y-102258D01*
X-8174Y-102324D01*
X-8285Y-102376D01*
X-8395Y-102428D01*
X-8513Y-102472D01*
X-8632Y-102501D01*
X-8853Y-102553D01*
X-8956Y-102568D01*
X-9052Y-102583D01*
X-9141Y-102590D01*
X-9222Y-102597D01*
X-9281Y-102605D01*
X-9333D01*
X-9362D01*
X-9370D01*
X-9547Y-102597D01*
X-9709Y-102590D01*
X-9864Y-102568D01*
X-10004Y-102538D01*
X-10137Y-102509D01*
X-10255Y-102472D01*
X-10366Y-102435D01*
X-10454Y-102398D01*
X-10543Y-102354D01*
X-10617Y-102317D01*
X-10676Y-102280D01*
X-10728Y-102251D01*
X-10764Y-102221D01*
X-10794Y-102199D01*
X-10809Y-102191D01*
X-10816Y-102184D01*
X-10897Y-102103D01*
X-10971Y-102022D01*
X-11038Y-101933D01*
X-11089Y-101852D01*
X-11133Y-101763D01*
X-11170Y-101675D01*
X-11229Y-101513D01*
X-11266Y-101372D01*
X-11274Y-101306D01*
X-11281Y-101254D01*
X-11288Y-101210D01*
Y-101151D01*
X-11281Y-101033D01*
X-11266Y-100929D01*
X-11244Y-100819D01*
X-11215Y-100723D01*
X-11141Y-100546D01*
X-11052Y-100398D01*
X-11015Y-100332D01*
X-10971Y-100273D01*
X-10934Y-100228D01*
X-10897Y-100184D01*
X-10868Y-100155D01*
X-10846Y-100133D01*
X-10831Y-100118D01*
X-10824Y-100110D01*
X-10728Y-100037D01*
X-10624Y-99977D01*
X-10514Y-99919D01*
X-10403Y-99874D01*
X-10167Y-99800D01*
X-9930Y-99749D01*
X-9827Y-99734D01*
X-9724Y-99719D01*
X-9635Y-99712D01*
X-9554Y-99704D01*
X-9488Y-99697D01*
X-9443D01*
X-9407D01*
X-9399D01*
X-9229Y-99704D01*
D02*
G37*
G36*
X-177Y-114461D02*
X-103Y-114468D01*
X-37Y-114490D01*
X22Y-114512D01*
X74Y-114527D01*
X111Y-114549D01*
X133Y-114557D01*
X140Y-114564D01*
X207Y-114616D01*
X258Y-114667D01*
X303Y-114719D01*
X347Y-114778D01*
X376Y-114822D01*
X399Y-114859D01*
X406Y-114889D01*
X413Y-114896D01*
X450Y-114992D01*
X480Y-115103D01*
X509Y-115221D01*
X531Y-115339D01*
X554Y-115450D01*
X568Y-115546D01*
X576Y-115575D01*
X583Y-115605D01*
Y-115627D01*
X605Y-115797D01*
X635Y-115952D01*
X657Y-116092D01*
X686Y-116225D01*
X716Y-116350D01*
X738Y-116461D01*
X768Y-116564D01*
X790Y-116660D01*
X812Y-116734D01*
X834Y-116808D01*
X849Y-116867D01*
X871Y-116911D01*
X886Y-116948D01*
X893Y-116977D01*
X900Y-116992D01*
Y-116999D01*
X590Y-116992D01*
X399Y-116985D01*
X229Y-116970D01*
X81Y-116948D01*
X-37Y-116926D01*
X-125Y-116904D01*
X-192Y-116881D01*
X-229Y-116867D01*
X-243Y-116859D01*
X-376Y-116786D01*
X-487Y-116697D01*
X-590Y-116608D01*
X-672Y-116520D01*
X-738Y-116431D01*
X-790Y-116365D01*
X-819Y-116321D01*
X-826Y-116313D01*
Y-116306D01*
X-893Y-116158D01*
X-945Y-116011D01*
X-981Y-115870D01*
X-1004Y-115730D01*
X-1018Y-115619D01*
X-1026Y-115568D01*
X-1033Y-115524D01*
Y-115442D01*
X-1026Y-115273D01*
X-996Y-115125D01*
X-959Y-114992D01*
X-922Y-114889D01*
X-878Y-114808D01*
X-849Y-114749D01*
X-819Y-114719D01*
X-812Y-114704D01*
X-723Y-114623D01*
X-635Y-114557D01*
X-539Y-114512D01*
X-450Y-114483D01*
X-376Y-114468D01*
X-310Y-114461D01*
X-273Y-114453D01*
X-258D01*
X-177Y-114461D01*
D02*
G37*
D10*
X-78654Y-40622D02*
G03*
X-78654Y-40622I-492J0D01*
G01*
X-101154Y-40492D02*
G03*
X-101154Y-40492I-492J0D01*
G01*
X-33654D02*
G03*
X-33654Y-40492I-492J0D01*
G01*
X-56154Y-40622D02*
G03*
X-56154Y-40622I-492J0D01*
G01*
X-67498Y-8622D02*
G03*
X-67498Y-8622I-492J0D01*
G01*
D11*
X-82512Y-49087D02*
G03*
X-82512Y-49087I-787J0D01*
G01*
X-105012Y-48957D02*
G03*
X-105012Y-48957I-787J0D01*
G01*
X-37512D02*
G03*
X-37512Y-48957I-787J0D01*
G01*
X-60012Y-49087D02*
G03*
X-60012Y-49087I-787J0D01*
G01*
X-71356Y-17087D02*
G03*
X-71356Y-17087I-787J0D01*
G01*
D12*
X-77523Y151295D02*
G03*
X-77523Y151295I-3162J0D01*
G01*
X-161185Y159295D02*
G03*
X-166185Y154295I0J-5000D01*
G01*
Y21295D02*
G03*
X-161185Y16295I5000J0D01*
G01*
X3815D02*
G03*
X8815Y21295I0J5000D01*
G01*
Y154295D02*
G03*
X3815Y159295I-5000J0D01*
G01*
X-161185D02*
X-157685D01*
X-166185Y21295D02*
Y154295D01*
X-161185Y16295D02*
X3815D01*
X8815Y21295D02*
Y154295D01*
X-157685Y159295D02*
X3815Y159295D01*
X-142688Y-20705D02*
X-148686D01*
Y-24703D01*
Y-26703D02*
Y-28702D01*
Y-27703D01*
X-144687D01*
Y-26703D01*
X-148686Y-31701D02*
X-144687D01*
Y-34700D01*
X-145687Y-35700D01*
X-148686D01*
Y-40698D02*
Y-38699D01*
X-147686Y-37699D01*
X-145687D01*
X-144687Y-38699D01*
Y-40698D01*
X-145687Y-41698D01*
X-146686D01*
Y-37699D01*
X-144687Y-44697D02*
Y-46696D01*
X-145687Y-47696D01*
X-148686D01*
Y-44697D01*
X-147686Y-43697D01*
X-146686Y-44697D01*
Y-47696D01*
X-144687Y-49695D02*
X-148686D01*
X-146686D01*
X-145687Y-50695D01*
X-144687Y-51695D01*
Y-52694D01*
X-148686Y-55693D02*
Y-57693D01*
Y-56693D01*
X-144687D01*
Y-55693D01*
X-143687Y-61691D02*
X-144687D01*
Y-60692D01*
Y-62691D01*
Y-61691D01*
X-147686D01*
X-148686Y-62691D01*
X-144687Y-65690D02*
X-147686D01*
X-148686Y-66690D01*
Y-69689D01*
X-149685D01*
X-150685Y-68689D01*
Y-67690D01*
X-148686Y-69689D02*
X-144687D01*
Y-77686D02*
X-148686D01*
X-146686D01*
X-145687Y-78686D01*
X-144687Y-79686D01*
Y-80685D01*
X-148686Y-86683D02*
Y-84684D01*
X-147686Y-83684D01*
X-145687D01*
X-144687Y-84684D01*
Y-86683D01*
X-145687Y-87683D01*
X-146686D01*
Y-83684D01*
X-148686Y-90682D02*
X-143687D01*
X-145687D01*
Y-89682D01*
Y-91682D01*
Y-90682D01*
X-143687D01*
X-142688Y-91682D01*
X-148686Y-97680D02*
Y-95680D01*
X-147686Y-94681D01*
X-145687D01*
X-144687Y-95680D01*
Y-97680D01*
X-145687Y-98680D01*
X-146686D01*
Y-94681D01*
X-144687Y-100679D02*
X-148686D01*
X-146686D01*
X-145687Y-101679D01*
X-144687Y-102678D01*
Y-103678D01*
X-148686Y-109676D02*
Y-107677D01*
X-147686Y-106677D01*
X-145687D01*
X-144687Y-107677D01*
Y-109676D01*
X-145687Y-110676D01*
X-146686D01*
Y-106677D01*
X-148686Y-112675D02*
X-144687D01*
Y-115674D01*
X-145687Y-116674D01*
X-148686D01*
X-144687Y-122672D02*
Y-119673D01*
X-145687Y-118673D01*
X-147686D01*
X-148686Y-119673D01*
Y-122672D01*
Y-127670D02*
Y-125671D01*
X-147686Y-124671D01*
X-145687D01*
X-144687Y-125671D01*
Y-127670D01*
X-145687Y-128670D01*
X-146686D01*
Y-124671D01*
X-155685Y168793D02*
Y162795D01*
X-151686D01*
X-148687D02*
X-146688D01*
X-145688Y163794D01*
Y165794D01*
X-146688Y166793D01*
X-148687D01*
X-149687Y165794D01*
Y163794D01*
X-148687Y162795D01*
X-143689Y166793D02*
Y163794D01*
X-142689Y162795D01*
X-141690Y163794D01*
X-140690Y162795D01*
X-139690Y163794D01*
Y166793D01*
X-131693Y162795D02*
Y166793D01*
X-128694D01*
X-127694Y165794D01*
Y162795D01*
X-124695D02*
X-122696D01*
X-121696Y163794D01*
Y165794D01*
X-122696Y166793D01*
X-124695D01*
X-125695Y165794D01*
Y163794D01*
X-124695Y162795D01*
X-119697D02*
X-117697D01*
X-118697D01*
Y166793D01*
X-119697D01*
X-114698Y162795D02*
X-111699D01*
X-110700Y163794D01*
X-111699Y164794D01*
X-113699D01*
X-114698Y165794D01*
X-113699Y166793D01*
X-110700D01*
X-105701Y162795D02*
X-107701D01*
X-108700Y163794D01*
Y165794D01*
X-107701Y166793D01*
X-105701D01*
X-104701Y165794D01*
Y164794D01*
X-108700D01*
X-96704Y166793D02*
X-94705Y162795D01*
X-92705Y166793D01*
X-89706Y162795D02*
X-87707D01*
X-86707Y163794D01*
Y165794D01*
X-87707Y166793D01*
X-89706D01*
X-90706Y165794D01*
Y163794D01*
X-89706Y162795D01*
X-84708D02*
X-82709D01*
X-83708D01*
Y168793D01*
X-84708D01*
X-78710Y167793D02*
Y166793D01*
X-79710D01*
X-77710D01*
X-78710D01*
Y163794D01*
X-77710Y162795D01*
X-73712Y166793D02*
X-71712D01*
X-70713Y165794D01*
Y162795D01*
X-73712D01*
X-74711Y163794D01*
X-73712Y164794D01*
X-70713D01*
X-66714Y160795D02*
X-65714D01*
X-64714Y161795D01*
Y166793D01*
X-67713D01*
X-68713Y165794D01*
Y163794D01*
X-67713Y162795D01*
X-64714D01*
X-59716D02*
X-61715D01*
X-62715Y163794D01*
Y165794D01*
X-61715Y166793D01*
X-59716D01*
X-58716Y165794D01*
Y164794D01*
X-62715D01*
X-50719Y166793D02*
Y162795D01*
Y164794D01*
X-49719Y165794D01*
X-48720Y166793D01*
X-47720D01*
X-41722Y162795D02*
X-43721D01*
X-44721Y163794D01*
Y165794D01*
X-43721Y166793D01*
X-41722D01*
X-40722Y165794D01*
Y164794D01*
X-44721D01*
X-37723Y162795D02*
Y167793D01*
Y165794D01*
X-38723D01*
X-36724D01*
X-37723D01*
Y167793D01*
X-36724Y168793D01*
X-30725Y162795D02*
X-32725D01*
X-33724Y163794D01*
Y165794D01*
X-32725Y166793D01*
X-30725D01*
X-29726Y165794D01*
Y164794D01*
X-33724D01*
X-27726Y166793D02*
Y162795D01*
Y164794D01*
X-26727Y165794D01*
X-25727Y166793D01*
X-24727D01*
X-18729Y162795D02*
X-20729D01*
X-21728Y163794D01*
Y165794D01*
X-20729Y166793D01*
X-18729D01*
X-17730Y165794D01*
Y164794D01*
X-21728D01*
X-15730Y162795D02*
Y166793D01*
X-12731D01*
X-11732Y165794D01*
Y162795D01*
X-5734Y166793D02*
X-8733D01*
X-9732Y165794D01*
Y163794D01*
X-8733Y162795D01*
X-5734D01*
X-735D02*
X-2734D01*
X-3734Y163794D01*
Y165794D01*
X-2734Y166793D01*
X-735D01*
X264Y165794D01*
Y164794D01*
X-3734D01*
D13*
X-122046Y95435D02*
G03*
X-122324Y95156I-139J-139D01*
G01*
D02*
G03*
X-122046Y95435I139J139D01*
G01*
X-52974D02*
G03*
X-53253Y95156I-139J-139D01*
G01*
D02*
G03*
X-52974Y95435I139J139D01*
G01*
D14*
X-105654Y111826D02*
G03*
X-120787Y96693I-7567J-7567D01*
G01*
D02*
G03*
X-105654Y111826I7567J7567D01*
G01*
X-36583D02*
G03*
X-51716Y96693I-7567J-7567D01*
G01*
D02*
G03*
X-36583Y111826I7567J7567D01*
G01*
X-99835Y-45937D02*
X-80150D01*
X-99835Y-53811D02*
X-80150D01*
Y-45937D01*
X-99835Y-53811D02*
Y-45937D01*
X-116354Y-122390D02*
X-111630D01*
X-116354Y-128098D02*
X-111630D01*
X-116354Y-130890D02*
X-111630D01*
X-116354Y-136598D02*
X-111630D01*
X-46055Y-146134D02*
X-43929D01*
X-46055Y-132354D02*
X-43929D01*
X-38102Y-140307D02*
Y-138181D01*
X-51882Y-140307D02*
Y-138181D01*
X-122335Y-53681D02*
Y-45807D01*
X-102650Y-53681D02*
Y-45807D01*
X-122335Y-53681D02*
X-102650D01*
X-122335Y-45807D02*
X-102650D01*
X-54835Y-53681D02*
Y-45807D01*
X-35150Y-53681D02*
Y-45807D01*
X-54835Y-53681D02*
X-35150D01*
X-54835Y-45807D02*
X-35150D01*
X-77335Y-53811D02*
Y-45937D01*
X-57650Y-53811D02*
Y-45937D01*
X-77335Y-53811D02*
X-57650D01*
X-77335Y-45937D02*
X-57650D01*
X-88679Y-21811D02*
Y-13937D01*
X-68994Y-21811D02*
Y-13937D01*
X-88679Y-21811D02*
X-68994D01*
X-88679Y-13937D02*
X-68994D01*
X-57153Y75252D02*
X-53216D01*
X-57153Y82339D02*
X-53216D01*
X-126154Y74752D02*
X-122216D01*
X-126154Y81839D02*
X-122216D01*
X-34653Y75252D02*
X-30716D01*
X-34653Y82339D02*
X-30716D01*
X-103654Y74752D02*
X-99717D01*
X-103654Y81839D02*
X-99717D01*
D15*
X-74825Y-115719D02*
X-72765D01*
X-102065D02*
Y-113659D01*
Y-86419D02*
X-100004D01*
X-74825D02*
X-72765D01*
Y-115719D02*
Y-113659D01*
X-102065Y-115719D02*
X-100004D01*
X-102065Y-88480D02*
Y-86419D01*
X-72765Y-88480D02*
Y-86419D01*
D16*
X-71020Y-77705D02*
X-74352Y-81037D01*
Y-77705D02*
X-71020Y-81037D01*
X-72686Y-77705D02*
Y-81037D01*
X-74352Y-79371D02*
X-71020D01*
D17*
X-118517Y-84445D02*
X-119009Y-83953D01*
X-119993D01*
X-120485Y-84445D01*
Y-86413D01*
X-119993Y-86905D01*
X-119009D01*
X-118517Y-86413D01*
X-117533Y-86905D02*
X-116549D01*
X-117041D01*
Y-83953D01*
X-117533Y-84445D01*
X-48984Y-110260D02*
X-49476Y-109768D01*
X-50460D01*
X-50952Y-110260D01*
Y-112228D01*
X-50460Y-112720D01*
X-49476D01*
X-48984Y-112228D01*
X-46032Y-112720D02*
X-48000D01*
X-46032Y-110752D01*
Y-110260D01*
X-46524Y-109768D01*
X-47508D01*
X-48000Y-110260D01*
X-91484Y-123760D02*
X-91976Y-123268D01*
X-92960D01*
X-93452Y-123760D01*
Y-125728D01*
X-92960Y-126220D01*
X-91976D01*
X-91484Y-125728D01*
X-90500Y-123760D02*
X-90008Y-123268D01*
X-89024D01*
X-88532Y-123760D01*
Y-124252D01*
X-89024Y-124744D01*
X-89516D01*
X-89024D01*
X-88532Y-125236D01*
Y-125728D01*
X-89024Y-126220D01*
X-90008D01*
X-90500Y-125728D01*
X-124517Y-98945D02*
X-125009Y-98453D01*
X-125993D01*
X-126485Y-98945D01*
Y-100913D01*
X-125993Y-101405D01*
X-125009D01*
X-124517Y-100913D01*
X-122057Y-101405D02*
Y-98453D01*
X-123533Y-99929D01*
X-121565D01*
X-91484Y-129260D02*
X-91976Y-128768D01*
X-92960D01*
X-93452Y-129260D01*
Y-131228D01*
X-92960Y-131720D01*
X-91976D01*
X-91484Y-131228D01*
X-88532Y-128768D02*
X-90500D01*
Y-130244D01*
X-89516Y-129752D01*
X-89024D01*
X-88532Y-130244D01*
Y-131228D01*
X-89024Y-131720D01*
X-90008D01*
X-90500Y-131228D01*
X-122017Y-141945D02*
X-122509Y-141453D01*
X-123493D01*
X-123985Y-141945D01*
Y-143913D01*
X-123493Y-144405D01*
X-122509D01*
X-122017Y-143913D01*
X-119065Y-141453D02*
X-120049Y-141945D01*
X-121033Y-142929D01*
Y-143913D01*
X-120541Y-144405D01*
X-119557D01*
X-119065Y-143913D01*
Y-143421D01*
X-119557Y-142929D01*
X-121033D01*
X-35201Y-154213D02*
X-34709Y-153721D01*
Y-152737D01*
X-35201Y-152245D01*
X-37169D01*
X-37661Y-152737D01*
Y-153721D01*
X-37169Y-154213D01*
X-34709Y-155197D02*
Y-157165D01*
X-35201D01*
X-37169Y-155197D01*
X-37661D01*
X-24701Y-162213D02*
X-24209Y-161721D01*
Y-160737D01*
X-24701Y-160245D01*
X-26669D01*
X-27161Y-160737D01*
Y-161721D01*
X-26669Y-162213D01*
X-24701Y-163197D02*
X-24209Y-163689D01*
Y-164673D01*
X-24701Y-165165D01*
X-25193D01*
X-25685Y-164673D01*
X-26177Y-165165D01*
X-26669D01*
X-27161Y-164673D01*
Y-163689D01*
X-26669Y-163197D01*
X-26177D01*
X-25685Y-163689D01*
X-25193Y-163197D01*
X-24701D01*
X-25685Y-163689D02*
Y-164673D01*
X-47201Y-154713D02*
X-46709Y-154221D01*
Y-153237D01*
X-47201Y-152745D01*
X-49169D01*
X-49661Y-153237D01*
Y-154221D01*
X-49169Y-154713D01*
Y-155697D02*
X-49661Y-156189D01*
Y-157173D01*
X-49169Y-157665D01*
X-47201D01*
X-46709Y-157173D01*
Y-156189D01*
X-47201Y-155697D01*
X-47693D01*
X-48185Y-156189D01*
Y-157665D01*
X-41201Y-151983D02*
X-40709Y-151491D01*
Y-150507D01*
X-41201Y-150015D01*
X-43169D01*
X-43661Y-150507D01*
Y-151491D01*
X-43169Y-151983D01*
X-43661Y-152967D02*
Y-153951D01*
Y-153459D01*
X-40709D01*
X-41201Y-152967D01*
Y-155427D02*
X-40709Y-155919D01*
Y-156903D01*
X-41201Y-157395D01*
X-43169D01*
X-43661Y-156903D01*
Y-155919D01*
X-43169Y-155427D01*
X-41201D01*
X-53201Y-152975D02*
X-52709Y-152483D01*
Y-151499D01*
X-53201Y-151007D01*
X-55169D01*
X-55661Y-151499D01*
Y-152483D01*
X-55169Y-152975D01*
X-55661Y-153959D02*
Y-154943D01*
Y-154451D01*
X-52709D01*
X-53201Y-153959D01*
X-55661Y-156419D02*
Y-157403D01*
Y-156911D01*
X-52709D01*
X-53201Y-156419D01*
X-59201Y-151983D02*
X-58709Y-151491D01*
Y-150507D01*
X-59201Y-150015D01*
X-61169D01*
X-61661Y-150507D01*
Y-151491D01*
X-61169Y-151983D01*
X-61661Y-152967D02*
Y-153951D01*
Y-153459D01*
X-58709D01*
X-59201Y-152967D01*
X-61661Y-157395D02*
Y-155427D01*
X-59693Y-157395D01*
X-59201D01*
X-58709Y-156903D01*
Y-155919D01*
X-59201Y-155427D01*
X-100508Y-68022D02*
X-100016Y-67530D01*
Y-66546D01*
X-100508Y-66054D01*
X-102476D01*
X-102968Y-66546D01*
Y-67530D01*
X-102476Y-68022D01*
X-102968Y-69006D02*
Y-69990D01*
Y-69498D01*
X-100016D01*
X-100508Y-69006D01*
X-102968Y-72942D02*
X-100016D01*
X-101492Y-71466D01*
Y-73434D01*
X-78008Y-67522D02*
X-77516Y-67030D01*
Y-66046D01*
X-78008Y-65554D01*
X-79976D01*
X-80468Y-66046D01*
Y-67030D01*
X-79976Y-67522D01*
X-80468Y-68506D02*
Y-69490D01*
Y-68998D01*
X-77516D01*
X-78008Y-68506D01*
X-77516Y-72934D02*
Y-70966D01*
X-78992D01*
X-78500Y-71950D01*
Y-72442D01*
X-78992Y-72934D01*
X-79976D01*
X-80468Y-72442D01*
Y-71458D01*
X-79976Y-70966D01*
X-55508Y-67522D02*
X-55016Y-67030D01*
Y-66046D01*
X-55508Y-65554D01*
X-57476D01*
X-57968Y-66046D01*
Y-67030D01*
X-57476Y-67522D01*
X-57968Y-68506D02*
Y-69490D01*
Y-68998D01*
X-55016D01*
X-55508Y-68506D01*
X-55016Y-72934D02*
X-55508Y-71950D01*
X-56492Y-70966D01*
X-57476D01*
X-57968Y-71458D01*
Y-72442D01*
X-57476Y-72934D01*
X-56984D01*
X-56492Y-72442D01*
Y-70966D01*
X-33008Y-67522D02*
X-32516Y-67030D01*
Y-66046D01*
X-33008Y-65554D01*
X-34976D01*
X-35468Y-66046D01*
Y-67030D01*
X-34976Y-67522D01*
X-35468Y-68506D02*
Y-69490D01*
Y-68998D01*
X-32516D01*
X-33008Y-68506D01*
X-32516Y-70966D02*
Y-72934D01*
X-33008D01*
X-34976Y-70966D01*
X-35468D01*
X-59008Y-16022D02*
X-58516Y-15530D01*
Y-14546D01*
X-59008Y-14054D01*
X-60976D01*
X-61468Y-14546D01*
Y-15530D01*
X-60976Y-16022D01*
X-61468Y-17006D02*
Y-17990D01*
Y-17498D01*
X-58516D01*
X-59008Y-17006D01*
Y-19466D02*
X-58516Y-19958D01*
Y-20942D01*
X-59008Y-21434D01*
X-59500D01*
X-59992Y-20942D01*
X-60484Y-21434D01*
X-60976D01*
X-61468Y-20942D01*
Y-19958D01*
X-60976Y-19466D01*
X-60484D01*
X-59992Y-19958D01*
X-59500Y-19466D01*
X-59008D01*
X-59992Y-19958D02*
Y-20942D01*
X-124508Y-28276D02*
X-124016Y-27784D01*
Y-26800D01*
X-124508Y-26308D01*
X-126476D01*
X-126968Y-26800D01*
Y-27784D01*
X-126476Y-28276D01*
X-126968Y-31228D02*
Y-29260D01*
X-125000Y-31228D01*
X-124508D01*
X-124016Y-30736D01*
Y-29752D01*
X-124508Y-29260D01*
X-126968Y-33688D02*
X-124016D01*
X-125492Y-32212D01*
Y-34180D01*
X-102008Y-28276D02*
X-101516Y-27784D01*
Y-26800D01*
X-102008Y-26308D01*
X-103976D01*
X-104468Y-26800D01*
Y-27784D01*
X-103976Y-28276D01*
X-104468Y-31228D02*
Y-29260D01*
X-102500Y-31228D01*
X-102008D01*
X-101516Y-30736D01*
Y-29752D01*
X-102008Y-29260D01*
X-101516Y-34180D02*
Y-32212D01*
X-102992D01*
X-102500Y-33196D01*
Y-33688D01*
X-102992Y-34180D01*
X-103976D01*
X-104468Y-33688D01*
Y-32704D01*
X-103976Y-32212D01*
X-59008Y-27276D02*
X-58516Y-26784D01*
Y-25800D01*
X-59008Y-25308D01*
X-60976D01*
X-61468Y-25800D01*
Y-26784D01*
X-60976Y-27276D01*
X-61468Y-30228D02*
Y-28260D01*
X-59500Y-30228D01*
X-59008D01*
X-58516Y-29736D01*
Y-28752D01*
X-59008Y-28260D01*
X-58516Y-33180D02*
X-59008Y-32196D01*
X-59992Y-31212D01*
X-60976D01*
X-61468Y-31704D01*
Y-32688D01*
X-60976Y-33180D01*
X-60484D01*
X-59992Y-32688D01*
Y-31212D01*
X-48008Y-28276D02*
X-47516Y-27784D01*
Y-26800D01*
X-48008Y-26308D01*
X-49976D01*
X-50468Y-26800D01*
Y-27784D01*
X-49976Y-28276D01*
X-50468Y-31228D02*
Y-29260D01*
X-48500Y-31228D01*
X-48008D01*
X-47516Y-30736D01*
Y-29752D01*
X-48008Y-29260D01*
X-47516Y-32212D02*
Y-34180D01*
X-48008D01*
X-49976Y-32212D01*
X-50468D01*
X-48653Y-94221D02*
X-49145Y-93729D01*
X-50129D01*
X-50621Y-94221D01*
Y-96189D01*
X-50129Y-96681D01*
X-49145D01*
X-48653Y-96189D01*
X-47669Y-94221D02*
X-47177Y-93729D01*
X-46193D01*
X-45701Y-94221D01*
Y-94713D01*
X-46193Y-95205D01*
X-46685D01*
X-46193D01*
X-45701Y-95697D01*
Y-96189D01*
X-46193Y-96681D01*
X-47177D01*
X-47669Y-96189D01*
X-42749Y-93729D02*
X-44717D01*
Y-95205D01*
X-43733Y-94713D01*
X-43241D01*
X-42749Y-95205D01*
Y-96189D01*
X-43241Y-96681D01*
X-44225D01*
X-44717Y-96189D01*
X-48653Y-99721D02*
X-49145Y-99229D01*
X-50129D01*
X-50621Y-99721D01*
Y-101689D01*
X-50129Y-102181D01*
X-49145D01*
X-48653Y-101689D01*
X-47669Y-99721D02*
X-47177Y-99229D01*
X-46193D01*
X-45701Y-99721D01*
Y-100213D01*
X-46193Y-100705D01*
X-46685D01*
X-46193D01*
X-45701Y-101197D01*
Y-101689D01*
X-46193Y-102181D01*
X-47177D01*
X-47669Y-101689D01*
X-44717Y-99229D02*
X-42749D01*
Y-99721D01*
X-44717Y-101689D01*
Y-102181D01*
X-80153Y4279D02*
X-80645Y4771D01*
X-81629D01*
X-82121Y4279D01*
Y2311D01*
X-81629Y1819D01*
X-80645D01*
X-80153Y2311D01*
X-77201Y1819D02*
X-79169D01*
X-77201Y3787D01*
Y4279D01*
X-77693Y4771D01*
X-78677D01*
X-79169Y4279D01*
X-76217D02*
X-75725Y4771D01*
X-74741D01*
X-74249Y4279D01*
Y3787D01*
X-74741Y3295D01*
X-74249Y2803D01*
Y2311D01*
X-74741Y1819D01*
X-75725D01*
X-76217Y2311D01*
Y2803D01*
X-75725Y3295D01*
X-76217Y3787D01*
Y4279D01*
X-75725Y3295D02*
X-74741D01*
X-127153Y-127181D02*
Y-124229D01*
X-125677D01*
X-125185Y-124721D01*
Y-125705D01*
X-125677Y-126197D01*
X-127153D01*
X-126169D02*
X-125185Y-127181D01*
X-124201D02*
X-123217D01*
X-123709D01*
Y-124229D01*
X-124201Y-124721D01*
X-71145Y-154181D02*
Y-151229D01*
X-69669D01*
X-69177Y-151721D01*
Y-152705D01*
X-69669Y-153197D01*
X-71145D01*
X-70161D02*
X-69177Y-154181D01*
X-66225D02*
X-68193D01*
X-66225Y-152213D01*
Y-151721D01*
X-66717Y-151229D01*
X-67701D01*
X-68193Y-151721D01*
X-128145Y-135181D02*
Y-132229D01*
X-126669D01*
X-126177Y-132721D01*
Y-133705D01*
X-126669Y-134197D01*
X-128145D01*
X-127161D02*
X-126177Y-135181D01*
X-125193Y-132721D02*
X-124701Y-132229D01*
X-123717D01*
X-123225Y-132721D01*
Y-133213D01*
X-123717Y-133705D01*
X-124209D01*
X-123717D01*
X-123225Y-134197D01*
Y-134689D01*
X-123717Y-135181D01*
X-124701D01*
X-125193Y-134689D01*
X-50452Y-91220D02*
Y-88268D01*
X-48976D01*
X-48484Y-88760D01*
Y-89744D01*
X-48976Y-90236D01*
X-50452D01*
X-49468D02*
X-48484Y-91220D01*
X-46024D02*
Y-88268D01*
X-47500Y-89744D01*
X-45532D01*
X-49952Y-107220D02*
Y-104268D01*
X-48476D01*
X-47984Y-104760D01*
Y-105744D01*
X-48476Y-106236D01*
X-49952D01*
X-48968D02*
X-47984Y-107220D01*
X-45032Y-104268D02*
X-47000D01*
Y-105744D01*
X-46016Y-105252D01*
X-45524D01*
X-45032Y-105744D01*
Y-106728D01*
X-45524Y-107220D01*
X-46508D01*
X-47000Y-106728D01*
X-64875Y-126181D02*
Y-123229D01*
X-63399D01*
X-62907Y-123721D01*
Y-124705D01*
X-63399Y-125197D01*
X-64875D01*
X-63891D02*
X-62907Y-126181D01*
X-61923D02*
X-60939D01*
X-61431D01*
Y-123229D01*
X-61923Y-123721D01*
X-59463D02*
X-58971Y-123229D01*
X-57987D01*
X-57495Y-123721D01*
Y-124213D01*
X-57987Y-124705D01*
X-58479D01*
X-57987D01*
X-57495Y-125197D01*
Y-125689D01*
X-57987Y-126181D01*
X-58971D01*
X-59463Y-125689D01*
X-81645Y60319D02*
Y63271D01*
X-80169D01*
X-79677Y62779D01*
Y61795D01*
X-80169Y61303D01*
X-81645D01*
X-80661D02*
X-79677Y60319D01*
X-78693Y63271D02*
X-76725D01*
Y62779D01*
X-78693Y60811D01*
Y60319D01*
X-40375Y-126681D02*
Y-123729D01*
X-38899D01*
X-38407Y-124221D01*
Y-125205D01*
X-38899Y-125697D01*
X-40375D01*
X-39391D02*
X-38407Y-126681D01*
X-37423D02*
X-36439D01*
X-36931D01*
Y-123729D01*
X-37423Y-124221D01*
X-34963D02*
X-34471Y-123729D01*
X-33487D01*
X-32995Y-124221D01*
Y-126189D01*
X-33487Y-126681D01*
X-34471D01*
X-34963Y-126189D01*
Y-124221D01*
X-114952Y-31768D02*
Y-34228D01*
X-114460Y-34720D01*
X-113476D01*
X-112984Y-34228D01*
Y-31768D01*
X-110032D02*
X-111016Y-32260D01*
X-112000Y-33244D01*
Y-34228D01*
X-111508Y-34720D01*
X-110524D01*
X-110032Y-34228D01*
Y-33736D01*
X-110524Y-33244D01*
X-112000D01*
X-91952Y-32768D02*
Y-35228D01*
X-91460Y-35720D01*
X-90476D01*
X-89984Y-35228D01*
Y-32768D01*
X-87032D02*
X-89000D01*
Y-34244D01*
X-88016Y-33752D01*
X-87524D01*
X-87032Y-34244D01*
Y-35228D01*
X-87524Y-35720D01*
X-88508D01*
X-89000Y-35228D01*
X-68645Y-729D02*
Y-3189D01*
X-68153Y-3681D01*
X-67169D01*
X-66677Y-3189D01*
Y-729D01*
X-65693Y-1221D02*
X-65201Y-729D01*
X-64217D01*
X-63725Y-1221D01*
Y-1713D01*
X-64217Y-2205D01*
X-64709D01*
X-64217D01*
X-63725Y-2697D01*
Y-3189D01*
X-64217Y-3681D01*
X-65201D01*
X-65693Y-3189D01*
X-74452Y-32268D02*
Y-34728D01*
X-73960Y-35220D01*
X-72976D01*
X-72484Y-34728D01*
Y-32268D01*
X-69532Y-35220D02*
X-71500D01*
X-69532Y-33252D01*
Y-32760D01*
X-70024Y-32268D01*
X-71008D01*
X-71500Y-32760D01*
X-101468Y-5284D02*
X-98516D01*
Y-6760D01*
X-99008Y-7252D01*
X-99992D01*
X-100484Y-6760D01*
Y-5284D01*
Y-6268D02*
X-101468Y-7252D01*
X-100976Y-8236D02*
X-101468Y-8728D01*
Y-9712D01*
X-100976Y-10204D01*
X-99008D01*
X-98516Y-9712D01*
Y-8728D01*
X-99008Y-8236D01*
X-99500D01*
X-99992Y-8728D01*
Y-10204D01*
X-94968Y-5284D02*
X-92016D01*
Y-6760D01*
X-92508Y-7252D01*
X-93492D01*
X-93984Y-6760D01*
Y-5284D01*
Y-6268D02*
X-94968Y-7252D01*
X-92508Y-8236D02*
X-92016Y-8728D01*
Y-9712D01*
X-92508Y-10204D01*
X-93000D01*
X-93492Y-9712D01*
X-93984Y-10204D01*
X-94476D01*
X-94968Y-9712D01*
Y-8728D01*
X-94476Y-8236D01*
X-93984D01*
X-93492Y-8728D01*
X-93000Y-8236D01*
X-92508D01*
X-93492Y-8728D02*
Y-9712D01*
X-96460Y-70260D02*
X-96952Y-69768D01*
X-97936D01*
X-98428Y-70260D01*
Y-72228D01*
X-97936Y-72720D01*
X-96952D01*
X-96460Y-72228D01*
X-94000Y-72720D02*
Y-69768D01*
X-95476Y-71244D01*
X-93508D01*
X-92524Y-70260D02*
X-92032Y-69768D01*
X-91048D01*
X-90556Y-70260D01*
Y-70752D01*
X-91048Y-71244D01*
X-91540D01*
X-91048D01*
X-90556Y-71736D01*
Y-72228D01*
X-91048Y-72720D01*
X-92032D01*
X-92524Y-72228D01*
X-70153Y-83229D02*
Y-85689D01*
X-69661Y-86181D01*
X-68677D01*
X-68185Y-85689D01*
Y-83229D01*
X-67201Y-86181D02*
X-66217D01*
X-66709D01*
Y-83229D01*
X-67201Y-83721D01*
X-58875Y70319D02*
Y73271D01*
X-57399D01*
X-56907Y72779D01*
Y71795D01*
X-57399Y71303D01*
X-58875D01*
X-57891D02*
X-56907Y70319D01*
X-55923D02*
X-54939D01*
X-55431D01*
Y73271D01*
X-55923Y72779D01*
X-51495Y70319D02*
X-53463D01*
X-51495Y72287D01*
Y72779D01*
X-51987Y73271D01*
X-52971D01*
X-53463Y72779D01*
X-127383Y69819D02*
Y72771D01*
X-125907D01*
X-125415Y72279D01*
Y71295D01*
X-125907Y70803D01*
X-127383D01*
X-126399D02*
X-125415Y69819D01*
X-124431D02*
X-123447D01*
X-123939D01*
Y72771D01*
X-124431Y72279D01*
X-121971Y69819D02*
X-120987D01*
X-121479D01*
Y72771D01*
X-121971Y72279D01*
X-34653Y72779D02*
X-35145Y73271D01*
X-36129D01*
X-36621Y72779D01*
Y70811D01*
X-36129Y70319D01*
X-35145D01*
X-34653Y70811D01*
X-32193Y70319D02*
Y73271D01*
X-33669Y71795D01*
X-31701D01*
X-28749Y70319D02*
X-30717D01*
X-28749Y72287D01*
Y72779D01*
X-29241Y73271D01*
X-30225D01*
X-30717Y72779D01*
X-103161D02*
X-103653Y73271D01*
X-104637D01*
X-105129Y72779D01*
Y70811D01*
X-104637Y70319D01*
X-103653D01*
X-103161Y70811D01*
X-100701Y70319D02*
Y73271D01*
X-102177Y71795D01*
X-100209D01*
X-99225Y70319D02*
X-98241D01*
X-98733D01*
Y73271D01*
X-99225Y72779D01*
X-41952Y-32268D02*
Y-34728D01*
X-41460Y-35220D01*
X-40476D01*
X-39984Y-34728D01*
Y-32268D01*
X-37524Y-35220D02*
Y-32268D01*
X-39000Y-33744D01*
X-37032D01*
X-114121Y-147181D02*
Y-144229D01*
X-112645D01*
X-112153Y-144721D01*
Y-145705D01*
X-112645Y-146197D01*
X-114121D01*
X-113137D02*
X-112153Y-147181D01*
X-111169D02*
Y-144229D01*
X-109201Y-147181D01*
Y-144229D01*
X-106249Y-147181D02*
X-108217D01*
X-106249Y-145213D01*
Y-144721D01*
X-106741Y-144229D01*
X-107725D01*
X-108217Y-144721D01*
X-99629Y-146681D02*
Y-143729D01*
X-98153D01*
X-97661Y-144221D01*
Y-145205D01*
X-98153Y-145697D01*
X-99629D01*
X-98645D02*
X-97661Y-146681D01*
X-96677D02*
Y-143729D01*
X-94709Y-146681D01*
Y-143729D01*
X-93725Y-146681D02*
X-92741D01*
X-93233D01*
Y-143729D01*
X-93725Y-144221D01*
X-34460Y-140220D02*
Y-137268D01*
X-32984D01*
X-32492Y-137760D01*
Y-138744D01*
X-32984Y-139236D01*
X-34460D01*
X-31508Y-140220D02*
X-30524D01*
X-31016D01*
Y-137268D01*
X-31508Y-137760D01*
X-100875Y114271D02*
X-99891D01*
X-100383D01*
Y111319D01*
X-100875D01*
X-99891D01*
X-96447Y113779D02*
X-96939Y114271D01*
X-97923D01*
X-98415Y113779D01*
Y111811D01*
X-97923Y111319D01*
X-96939D01*
X-96447Y111811D01*
X-93495Y111319D02*
X-95463D01*
X-93495Y113287D01*
Y113779D01*
X-93987Y114271D01*
X-94971D01*
X-95463Y113779D01*
X-31883Y112271D02*
X-30899D01*
X-31391D01*
Y109319D01*
X-31883D01*
X-30899D01*
X-27455Y111779D02*
X-27947Y112271D01*
X-28931D01*
X-29423Y111779D01*
Y109811D01*
X-28931Y109319D01*
X-27947D01*
X-27455Y109811D01*
X-26471Y109319D02*
X-25487D01*
X-25979D01*
Y112271D01*
X-26471Y111779D01*
X-74460Y-70260D02*
X-74952Y-69768D01*
X-75936D01*
X-76428Y-70260D01*
Y-72228D01*
X-75936Y-72720D01*
X-74952D01*
X-74460Y-72228D01*
X-73476Y-70260D02*
X-72984Y-69768D01*
X-72000D01*
X-71508Y-70260D01*
Y-70752D01*
X-72000Y-71244D01*
X-72492D01*
X-72000D01*
X-71508Y-71736D01*
Y-72228D01*
X-72000Y-72720D01*
X-72984D01*
X-73476Y-72228D01*
X-70524D02*
X-70032Y-72720D01*
X-69048D01*
X-68556Y-72228D01*
Y-70260D01*
X-69048Y-69768D01*
X-70032D01*
X-70524Y-70260D01*
Y-70752D01*
X-70032Y-71244D01*
X-68556D01*
M02*
