G04*
G04 #@! TF.GenerationSoftware,Altium Limited,Altium Designer,22.4.2 (48)*
G04*
G04 Layer_Physical_Order=3*
G04 Layer_Color=16440176*
%FSLAX25Y25*%
%MOIN*%
G70*
G04*
G04 #@! TF.SameCoordinates,D9425D36-0AFB-4970-BFF6-08718D8895E8*
G04*
G04*
G04 #@! TF.FilePolarity,Positive*
G04*
G01*
G75*
%ADD11C,0.01575*%
%ADD40C,0.01968*%
%ADD41C,0.05906*%
%ADD42R,0.05906X0.05906*%
%ADD43C,0.05512*%
%ADD44C,0.04780*%
%ADD45C,0.02756*%
%ADD46C,0.02362*%
%ADD47C,0.07874*%
%ADD48C,0.05118*%
%ADD49C,0.03937*%
G36*
X-90734Y-4000D02*
X-95442Y-8707D01*
X-95442Y-8707D01*
X-99609Y-12875D01*
X-100085Y-13495D01*
X-100384Y-14217D01*
X-100486Y-14992D01*
Y-20886D01*
X-100486Y-20886D01*
Y-32893D01*
X-119992D01*
X-120767Y-32994D01*
X-121489Y-33294D01*
X-122109Y-33770D01*
X-122585Y-34390D01*
X-122884Y-35112D01*
X-122986Y-35887D01*
X-122884Y-36662D01*
X-122585Y-37384D01*
X-122109Y-38004D01*
X-121489Y-38480D01*
X-120767Y-38779D01*
X-119992Y-38881D01*
X-87492D01*
X-87451Y-38875D01*
X-86123Y-39006D01*
X-84807Y-39405D01*
X-83594Y-40054D01*
X-82563Y-40900D01*
X-82538Y-40933D01*
X-74986Y-48484D01*
Y-67273D01*
X-75430Y-67385D01*
X-75486Y-67387D01*
X-76145Y-66728D01*
X-77019Y-66366D01*
X-77965D01*
X-78839Y-66728D01*
X-79508Y-67397D01*
X-79870Y-68271D01*
Y-69217D01*
X-79508Y-70091D01*
X-78839Y-70760D01*
X-77965Y-71122D01*
X-77019D01*
X-76145Y-70760D01*
X-75486Y-70101D01*
X-75430Y-70103D01*
X-74986Y-70215D01*
Y-88708D01*
X-74997D01*
X-74852Y-90555D01*
X-74419Y-92357D01*
X-73710Y-94069D01*
X-73257Y-94808D01*
X-73501Y-95244D01*
X-129463D01*
Y-7242D01*
X-129454Y-7071D01*
X-129405Y-6695D01*
X-129306Y-6199D01*
X-129046Y-5572D01*
X-128766Y-5152D01*
X-128608Y-4946D01*
X-128251Y-4589D01*
X-128045Y-4431D01*
X-127625Y-4151D01*
X-126997Y-3891D01*
X-126502Y-3792D01*
X-126126Y-3743D01*
X-125954Y-3734D01*
X-124851D01*
X-124653Y-3774D01*
X-124646Y-3774D01*
Y-3774D01*
X-103724D01*
X-103724Y-3774D01*
X-103717Y-3774D01*
X-103445Y-3720D01*
X-103434Y-3717D01*
X-103132Y-3657D01*
X-103128Y-3656D01*
X-103124Y-3655D01*
X-103121Y-3653D01*
X-103117Y-3651D01*
X-103117Y-3651D01*
X-103117Y-3651D01*
X-102879Y-3492D01*
X-102621Y-3320D01*
X-102621Y-3320D01*
X-102621Y-3320D01*
X-102618Y-3317D01*
X-102615Y-3314D01*
X-102612Y-3311D01*
X-102610Y-3308D01*
X-102451Y-3071D01*
X-102278Y-2813D01*
X-102277Y-2809D01*
X-102274Y-2805D01*
X-102274Y-2802D01*
X-102272Y-2798D01*
X-102272Y-2798D01*
X-102272Y-2798D01*
X-102214Y-2504D01*
X-102162Y-2244D01*
X-92490D01*
X-90734Y-4000D01*
D02*
G37*
G36*
X1732Y158911D02*
X3552Y158157D01*
X5190Y157063D01*
X6583Y155670D01*
X7677Y154032D01*
X8431Y152212D01*
X8815Y150280D01*
Y149295D01*
Y26295D01*
Y25310D01*
X8431Y23378D01*
X7677Y21558D01*
X6583Y19921D01*
X5190Y18528D01*
X3552Y17433D01*
X1732Y16680D01*
X-200Y16295D01*
X-72685D01*
Y-2244D01*
X-68477D01*
X-68359Y-2659D01*
X-68355Y-2744D01*
X-69008Y-3397D01*
X-69370Y-4271D01*
Y-5217D01*
X-69008Y-6091D01*
X-68339Y-6760D01*
X-67465Y-7122D01*
X-66519D01*
X-65645Y-6760D01*
X-64976Y-6091D01*
X-64614Y-5217D01*
Y-4271D01*
X-64976Y-3397D01*
X-65629Y-2744D01*
X-65625Y-2659D01*
X-65507Y-2244D01*
X-58207D01*
X-58098Y-2790D01*
X-57766Y-3286D01*
X-57270Y-3618D01*
X-56685Y-3734D01*
X-32530D01*
X-32359Y-3743D01*
X-31982Y-3792D01*
X-31487Y-3891D01*
X-30860Y-4151D01*
X-30439Y-4431D01*
X-30234Y-4589D01*
X-29877Y-4946D01*
X-29719Y-5152D01*
X-29438Y-5572D01*
X-29178Y-6199D01*
X-29079Y-6695D01*
X-29030Y-7071D01*
X-29021Y-7242D01*
Y-95244D01*
X-47596D01*
X-47614Y-95217D01*
Y-94271D01*
X-47976Y-93397D01*
X-48645Y-92728D01*
X-49519Y-92366D01*
X-50465D01*
X-51339Y-92728D01*
X-52008Y-93397D01*
X-52370Y-94271D01*
Y-95217D01*
X-52388Y-95244D01*
X-57845D01*
X-59368Y-94613D01*
X-61041Y-94212D01*
X-62067Y-94131D01*
X-62263Y-94105D01*
X-62330Y-94096D01*
X-62729Y-94078D01*
X-62898Y-94040D01*
X-63114Y-93717D01*
Y-92771D01*
X-63476Y-91897D01*
X-64145Y-91228D01*
X-65019Y-90866D01*
X-65965D01*
X-66839Y-91228D01*
X-67449Y-91838D01*
X-67897Y-91948D01*
X-67985Y-91960D01*
X-68242Y-91625D01*
X-68825Y-90218D01*
X-69011Y-88805D01*
X-68998Y-88708D01*
Y-47484D01*
X-62446Y-40933D01*
X-62421Y-40900D01*
X-61390Y-40054D01*
X-60177Y-39405D01*
X-58861Y-39006D01*
X-57533Y-38875D01*
X-57493Y-38881D01*
X-52492D01*
X-51717Y-38779D01*
X-50995Y-38480D01*
X-50375Y-38004D01*
X-49899Y-37384D01*
X-49600Y-36662D01*
X-49498Y-35887D01*
X-49600Y-35112D01*
X-49899Y-34390D01*
X-50375Y-33770D01*
X-50995Y-33294D01*
X-51717Y-32994D01*
X-52492Y-32893D01*
X-57493D01*
Y-32878D01*
X-59527Y-33038D01*
X-61512Y-33515D01*
X-63398Y-34296D01*
X-65139Y-35362D01*
X-66691Y-36688D01*
X-66681Y-36698D01*
X-72492Y-42510D01*
X-78303Y-36698D01*
X-78293Y-36688D01*
X-79845Y-35362D01*
X-81586Y-34296D01*
X-83472Y-33515D01*
X-85457Y-33038D01*
X-87492Y-32878D01*
Y-32893D01*
X-94498D01*
Y-29851D01*
X-94082Y-29574D01*
X-93965Y-29622D01*
X-93019D01*
X-92145Y-29260D01*
X-91476Y-28591D01*
X-91114Y-27717D01*
Y-26771D01*
X-91476Y-25897D01*
X-92145Y-25228D01*
X-93019Y-24866D01*
X-93965D01*
X-94082Y-24915D01*
X-94498Y-24637D01*
Y-20886D01*
X-94498Y-20886D01*
Y-16232D01*
X-91207Y-12942D01*
X-91207Y-12942D01*
X-84383Y-6117D01*
X-83907Y-5497D01*
X-83608Y-4775D01*
X-83506Y-4000D01*
X-83608Y-3225D01*
X-83616Y-3205D01*
X-83907Y-2503D01*
X-84185Y-2141D01*
Y16295D01*
X-157670D01*
X-159602Y16680D01*
X-161422Y17433D01*
X-163060Y18528D01*
X-164453Y19921D01*
X-165547Y21558D01*
X-166301Y23378D01*
X-166685Y25310D01*
Y26295D01*
Y47295D01*
X-166185Y136295D01*
Y149295D01*
Y150280D01*
X-165801Y152212D01*
X-165047Y154032D01*
X-163953Y155670D01*
X-162560Y157063D01*
X-160922Y158157D01*
X-159102Y158911D01*
X-157170Y159295D01*
X-200D01*
X1732Y158911D01*
D02*
G37*
%LPC*%
G36*
X-120519Y-19366D02*
X-121465D01*
X-122339Y-19728D01*
X-123008Y-20397D01*
X-123370Y-21271D01*
Y-22217D01*
X-123008Y-23091D01*
X-122339Y-23760D01*
X-121465Y-24122D01*
X-120519D01*
X-119645Y-23760D01*
X-118976Y-23091D01*
X-118614Y-22217D01*
Y-21271D01*
X-118976Y-20397D01*
X-119645Y-19728D01*
X-120519Y-19366D01*
D02*
G37*
G36*
X-103019Y-24366D02*
X-103965D01*
X-104839Y-24728D01*
X-105508Y-25397D01*
X-105870Y-26271D01*
Y-27217D01*
X-105508Y-28091D01*
X-104839Y-28760D01*
X-103965Y-29122D01*
X-103019D01*
X-102145Y-28760D01*
X-101476Y-28091D01*
X-101114Y-27217D01*
Y-26271D01*
X-101476Y-25397D01*
X-102145Y-24728D01*
X-103019Y-24366D01*
D02*
G37*
G36*
X-115519D02*
X-116465D01*
X-117339Y-24728D01*
X-118008Y-25397D01*
X-118370Y-26271D01*
Y-27217D01*
X-118008Y-28091D01*
X-117339Y-28760D01*
X-116465Y-29122D01*
X-115519D01*
X-114645Y-28760D01*
X-113976Y-28091D01*
X-113614Y-27217D01*
Y-26271D01*
X-113976Y-25397D01*
X-114645Y-24728D01*
X-115519Y-24366D01*
D02*
G37*
G36*
X-126019D02*
X-126965D01*
X-127839Y-24728D01*
X-128508Y-25397D01*
X-128870Y-26271D01*
Y-27217D01*
X-128508Y-28091D01*
X-127839Y-28760D01*
X-126965Y-29122D01*
X-126019D01*
X-125145Y-28760D01*
X-124476Y-28091D01*
X-124114Y-27217D01*
Y-26271D01*
X-124476Y-25397D01*
X-125145Y-24728D01*
X-126019Y-24366D01*
D02*
G37*
G36*
X-96066Y-51701D02*
X-96934D01*
X-97736Y-52033D01*
X-98349Y-52647D01*
X-98681Y-53448D01*
Y-54316D01*
X-98349Y-55118D01*
X-97736Y-55731D01*
X-96934Y-56063D01*
X-96066D01*
X-95265Y-55731D01*
X-94651Y-55118D01*
X-94319Y-54316D01*
Y-53448D01*
X-94651Y-52647D01*
X-95265Y-52033D01*
X-96066Y-51701D01*
D02*
G37*
G36*
X-112428Y-52179D02*
X-113296D01*
X-114098Y-52511D01*
X-114711Y-53124D01*
X-115043Y-53926D01*
Y-54794D01*
X-114711Y-55595D01*
X-114098Y-56209D01*
X-113296Y-56541D01*
X-112428D01*
X-111627Y-56209D01*
X-111013Y-55595D01*
X-110681Y-54794D01*
Y-53926D01*
X-111013Y-53124D01*
X-111627Y-52511D01*
X-112428Y-52179D01*
D02*
G37*
G36*
X-88019Y-66366D02*
X-88965D01*
X-89839Y-66728D01*
X-90508Y-67397D01*
X-90870Y-68271D01*
Y-69217D01*
X-90508Y-70091D01*
X-89839Y-70760D01*
X-88965Y-71122D01*
X-88019D01*
X-87145Y-70760D01*
X-86476Y-70091D01*
X-86114Y-69217D01*
Y-68271D01*
X-86476Y-67397D01*
X-87145Y-66728D01*
X-88019Y-66366D01*
D02*
G37*
G36*
X-110519Y-68366D02*
X-111465D01*
X-112339Y-68728D01*
X-113008Y-69397D01*
X-113370Y-70271D01*
Y-71217D01*
X-113008Y-72091D01*
X-112339Y-72760D01*
X-111465Y-73122D01*
X-110519D01*
X-109645Y-72760D01*
X-108976Y-72091D01*
X-108614Y-71217D01*
Y-70271D01*
X-108976Y-69397D01*
X-109645Y-68728D01*
X-110519Y-68366D01*
D02*
G37*
G36*
X-106019Y-74866D02*
X-106965D01*
X-107839Y-75228D01*
X-108508Y-75897D01*
X-108870Y-76771D01*
Y-77717D01*
X-108508Y-78591D01*
X-107839Y-79260D01*
X-106965Y-79622D01*
X-106019D01*
X-105145Y-79260D01*
X-104476Y-78591D01*
X-104114Y-77717D01*
Y-76771D01*
X-104476Y-75897D01*
X-105145Y-75228D01*
X-106019Y-74866D01*
D02*
G37*
G36*
X-89519Y-76866D02*
X-90465D01*
X-91339Y-77228D01*
X-92008Y-77897D01*
X-92370Y-78771D01*
Y-79717D01*
X-92008Y-80591D01*
X-91339Y-81260D01*
X-90465Y-81622D01*
X-89519D01*
X-88645Y-81260D01*
X-87976Y-80591D01*
X-87614Y-79717D01*
Y-78771D01*
X-87976Y-77897D01*
X-88645Y-77228D01*
X-89519Y-76866D01*
D02*
G37*
G36*
X-117712Y-86827D02*
X-118658D01*
X-119532Y-87189D01*
X-120201Y-87858D01*
X-120563Y-88732D01*
Y-89678D01*
X-120201Y-90552D01*
X-119532Y-91221D01*
X-118658Y-91583D01*
X-117712D01*
X-116838Y-91221D01*
X-116169Y-90552D01*
X-115807Y-89678D01*
Y-88732D01*
X-116169Y-87858D01*
X-116838Y-87189D01*
X-117712Y-86827D01*
D02*
G37*
G36*
X-78519Y-86866D02*
X-79465D01*
X-80339Y-87228D01*
X-81008Y-87897D01*
X-81370Y-88771D01*
Y-89717D01*
X-81008Y-90591D01*
X-80339Y-91260D01*
X-79465Y-91622D01*
X-78519D01*
X-77645Y-91260D01*
X-76976Y-90591D01*
X-76614Y-89717D01*
Y-88771D01*
X-76976Y-87897D01*
X-77645Y-87228D01*
X-78519Y-86866D01*
D02*
G37*
G36*
X-108519Y-89866D02*
X-109465D01*
X-110339Y-90228D01*
X-111008Y-90897D01*
X-111370Y-91771D01*
Y-92717D01*
X-111008Y-93591D01*
X-110339Y-94260D01*
X-109465Y-94622D01*
X-108519D01*
X-107645Y-94260D01*
X-106976Y-93591D01*
X-106614Y-92717D01*
Y-91771D01*
X-106976Y-90897D01*
X-107645Y-90228D01*
X-108519Y-89866D01*
D02*
G37*
G36*
X-4371Y155592D02*
X-5999D01*
X-6147Y155563D01*
X-6298D01*
X-7895Y155245D01*
X-8034Y155188D01*
X-8182Y155158D01*
X-9686Y154535D01*
X-9812Y154451D01*
X-9951Y154394D01*
X-11305Y153489D01*
X-11412Y153382D01*
X-11537Y153299D01*
X-12688Y152147D01*
X-12772Y152022D01*
X-12879Y151915D01*
X-13783Y150561D01*
X-13841Y150422D01*
X-13925Y150297D01*
X-14548Y148792D01*
X-14577Y148644D01*
X-14635Y148505D01*
X-14953Y146908D01*
Y146757D01*
X-14982Y146610D01*
Y145795D01*
Y144981D01*
X-14953Y144833D01*
Y144683D01*
X-14635Y143085D01*
X-14577Y142946D01*
X-14548Y142798D01*
X-13925Y141294D01*
X-13841Y141168D01*
X-13783Y141029D01*
X-12879Y139675D01*
X-12772Y139569D01*
X-12688Y139444D01*
X-11537Y138292D01*
X-11412Y138208D01*
X-11305Y138102D01*
X-9951Y137197D01*
X-9812Y137139D01*
X-9686Y137056D01*
X-8182Y136432D01*
X-8034Y136403D01*
X-7895Y136345D01*
X-6298Y136028D01*
X-6147D01*
X-5999Y135998D01*
X-4371D01*
X-4223Y136028D01*
X-4072D01*
X-2475Y136345D01*
X-2336Y136403D01*
X-2188Y136432D01*
X-684Y137056D01*
X-558Y137139D01*
X-419Y137197D01*
X935Y138102D01*
X1041Y138208D01*
X1167Y138292D01*
X2318Y139444D01*
X2402Y139569D01*
X2509Y139675D01*
X3413Y141029D01*
X3471Y141168D01*
X3555Y141294D01*
X4178Y142798D01*
X4207Y142946D01*
X4265Y143085D01*
X4583Y144683D01*
Y144833D01*
X4612Y144981D01*
Y145795D01*
Y146610D01*
X4583Y146757D01*
Y146908D01*
X4265Y148505D01*
X4207Y148644D01*
X4178Y148792D01*
X3555Y150297D01*
X3471Y150422D01*
X3413Y150561D01*
X2509Y151915D01*
X2402Y152022D01*
X2318Y152147D01*
X1167Y153299D01*
X1041Y153382D01*
X935Y153489D01*
X-419Y154394D01*
X-558Y154451D01*
X-684Y154535D01*
X-2188Y155158D01*
X-2336Y155188D01*
X-2475Y155245D01*
X-4072Y155563D01*
X-4223D01*
X-4371Y155592D01*
D02*
G37*
G36*
X-152371D02*
X-153999D01*
X-154147Y155563D01*
X-154298D01*
X-155895Y155245D01*
X-156034Y155188D01*
X-156182Y155158D01*
X-157687Y154535D01*
X-157812Y154451D01*
X-157951Y154394D01*
X-159305Y153489D01*
X-159412Y153382D01*
X-159537Y153299D01*
X-160688Y152147D01*
X-160772Y152022D01*
X-160879Y151915D01*
X-161783Y150561D01*
X-161841Y150422D01*
X-161925Y150297D01*
X-162548Y148792D01*
X-162577Y148644D01*
X-162635Y148505D01*
X-162953Y146908D01*
Y146757D01*
X-162982Y146610D01*
Y145795D01*
Y144981D01*
X-162953Y144833D01*
Y144683D01*
X-162635Y143085D01*
X-162577Y142946D01*
X-162548Y142798D01*
X-161925Y141294D01*
X-161841Y141168D01*
X-161783Y141029D01*
X-160879Y139675D01*
X-160772Y139569D01*
X-160688Y139444D01*
X-159537Y138292D01*
X-159412Y138208D01*
X-159305Y138102D01*
X-157951Y137197D01*
X-157812Y137139D01*
X-157687Y137056D01*
X-156182Y136432D01*
X-156034Y136403D01*
X-155895Y136345D01*
X-154298Y136028D01*
X-154147D01*
X-153999Y135998D01*
X-152371D01*
X-152223Y136028D01*
X-152072D01*
X-150475Y136345D01*
X-150336Y136403D01*
X-150188Y136432D01*
X-148684Y137056D01*
X-148558Y137139D01*
X-148419Y137197D01*
X-147065Y138102D01*
X-146958Y138208D01*
X-146833Y138292D01*
X-145682Y139444D01*
X-145598Y139569D01*
X-145492Y139675D01*
X-144587Y141029D01*
X-144529Y141168D01*
X-144445Y141294D01*
X-143822Y142798D01*
X-143793Y142946D01*
X-143735Y143085D01*
X-143417Y144683D01*
Y144833D01*
X-143388Y144981D01*
Y145795D01*
Y146610D01*
X-143417Y146757D01*
Y146908D01*
X-143735Y148505D01*
X-143793Y148644D01*
X-143822Y148792D01*
X-144445Y150297D01*
X-144529Y150422D01*
X-144587Y150561D01*
X-145492Y151915D01*
X-145598Y152022D01*
X-145682Y152147D01*
X-146833Y153299D01*
X-146958Y153382D01*
X-147065Y153489D01*
X-148419Y154394D01*
X-148558Y154451D01*
X-148684Y154535D01*
X-150188Y155158D01*
X-150336Y155188D01*
X-150475Y155245D01*
X-152072Y155563D01*
X-152223D01*
X-152371Y155592D01*
D02*
G37*
G36*
X-21685Y133327D02*
Y133325D01*
X-67685D01*
Y133327D01*
X-67706Y133325D01*
X-68177D01*
X-68325Y133295D01*
X-68476D01*
X-68938Y133203D01*
X-68959Y133201D01*
X-68979Y133195D01*
X-69442Y133103D01*
X-69581Y133045D01*
X-69729Y133016D01*
X-70164Y132836D01*
X-70184Y132829D01*
X-70203Y132820D01*
X-70639Y132639D01*
X-70764Y132555D01*
X-70903Y132498D01*
X-71295Y132236D01*
X-71314Y132226D01*
X-71330Y132213D01*
X-71722Y131951D01*
X-71829Y131844D01*
X-71954Y131761D01*
X-72287Y131427D01*
X-72303Y131414D01*
X-72317Y131397D01*
X-72650Y131064D01*
X-72734Y130939D01*
X-72840Y130832D01*
X-73102Y130440D01*
X-73116Y130424D01*
X-73126Y130405D01*
X-73388Y130013D01*
X-73445Y129874D01*
X-73529Y129749D01*
X-73709Y129313D01*
X-73719Y129295D01*
X-73725Y129275D01*
X-73906Y128839D01*
X-73935Y128691D01*
X-73993Y128552D01*
X-74085Y128090D01*
X-74091Y128069D01*
X-74093Y128049D01*
X-74185Y127586D01*
Y127435D01*
X-74214Y127288D01*
Y126816D01*
X-74217Y126795D01*
X-74214D01*
Y47795D01*
X-74217D01*
X-74214Y47774D01*
Y47303D01*
X-74185Y47155D01*
Y47005D01*
X-74093Y46542D01*
X-74091Y46521D01*
X-74085Y46501D01*
X-73993Y46038D01*
X-73935Y45899D01*
X-73906Y45752D01*
X-73725Y45316D01*
X-73719Y45296D01*
X-73709Y45277D01*
X-73529Y44842D01*
X-73445Y44716D01*
X-73388Y44577D01*
X-73126Y44185D01*
X-73116Y44167D01*
X-73102Y44150D01*
X-72840Y43758D01*
X-72734Y43652D01*
X-72650Y43527D01*
X-72317Y43193D01*
X-72303Y43177D01*
X-72287Y43164D01*
X-71954Y42830D01*
X-71829Y42746D01*
X-71722Y42640D01*
X-71330Y42378D01*
X-71314Y42365D01*
X-71295Y42355D01*
X-70903Y42093D01*
X-70764Y42035D01*
X-70639Y41951D01*
X-70203Y41771D01*
X-70184Y41761D01*
X-70165Y41755D01*
X-69729Y41574D01*
X-69581Y41545D01*
X-69442Y41487D01*
X-68979Y41395D01*
X-68959Y41389D01*
X-68938Y41387D01*
X-68476Y41295D01*
X-68325D01*
X-68177Y41266D01*
X-67706D01*
X-67685Y41264D01*
Y41266D01*
X-56185D01*
Y41264D01*
X-56164Y41266D01*
X-55693D01*
X-55545Y41295D01*
X-33976D01*
X-33976Y41295D01*
X-33825D01*
X-33678Y41266D01*
X-33206D01*
X-33185Y41264D01*
Y41266D01*
X-21685D01*
Y41264D01*
X-21664Y41266D01*
X-21193D01*
X-21045Y41295D01*
X-20894D01*
X-20432Y41387D01*
X-20411Y41389D01*
X-20391Y41395D01*
X-19928Y41487D01*
X-19789Y41545D01*
X-19641Y41574D01*
X-19206Y41755D01*
X-19186Y41761D01*
X-19167Y41771D01*
X-18731Y41951D01*
X-18606Y42035D01*
X-18467Y42093D01*
X-18075Y42355D01*
X-18056Y42365D01*
X-18040Y42378D01*
X-17648Y42640D01*
X-17542Y42746D01*
X-17416Y42830D01*
X-17083Y43164D01*
X-17067Y43177D01*
X-17053Y43193D01*
X-16720Y43527D01*
X-16636Y43652D01*
X-16530Y43758D01*
X-16268Y44150D01*
X-16254Y44167D01*
X-16244Y44185D01*
X-15982Y44577D01*
X-15925Y44716D01*
X-15841Y44842D01*
X-15661Y45277D01*
X-15651Y45296D01*
X-15645Y45316D01*
X-15464Y45752D01*
X-15435Y45899D01*
X-15377Y46038D01*
X-15285Y46501D01*
X-15279Y46521D01*
X-15277Y46542D01*
X-15185Y47005D01*
Y47155D01*
X-15156Y47303D01*
Y47774D01*
X-15154Y47795D01*
X-15156D01*
Y103295D01*
Y126795D01*
X-15154D01*
X-15156Y126816D01*
Y127288D01*
X-15185Y127436D01*
Y127586D01*
X-15277Y128049D01*
X-15279Y128069D01*
X-15285Y128090D01*
X-15377Y128552D01*
X-15435Y128691D01*
X-15464Y128839D01*
X-15645Y129275D01*
X-15651Y129295D01*
X-15661Y129313D01*
X-15841Y129749D01*
X-15925Y129874D01*
X-15982Y130013D01*
X-16244Y130405D01*
X-16254Y130424D01*
X-16268Y130440D01*
X-16530Y130832D01*
X-16636Y130939D01*
X-16720Y131064D01*
X-17053Y131397D01*
X-17067Y131414D01*
X-17083Y131427D01*
X-17416Y131761D01*
X-17541Y131844D01*
X-17648Y131951D01*
X-18040Y132213D01*
X-18056Y132226D01*
X-18075Y132236D01*
X-18467Y132498D01*
X-18606Y132555D01*
X-18731Y132639D01*
X-19167Y132820D01*
X-19186Y132829D01*
X-19206Y132836D01*
X-19641Y133016D01*
X-19789Y133045D01*
X-19928Y133103D01*
X-20391Y133195D01*
X-20411Y133201D01*
X-20432Y133203D01*
X-20894Y133295D01*
X-21045D01*
X-21193Y133325D01*
X-21664D01*
X-21685Y133327D01*
D02*
G37*
G36*
X-90685D02*
Y133325D01*
X-136685D01*
Y133327D01*
X-136706Y133325D01*
X-137178D01*
X-137325Y133295D01*
X-137476D01*
X-137938Y133203D01*
X-137959Y133201D01*
X-137979Y133195D01*
X-138442Y133103D01*
X-138581Y133045D01*
X-138729Y133016D01*
X-139164Y132836D01*
X-139184Y132829D01*
X-139203Y132820D01*
X-139639Y132639D01*
X-139764Y132555D01*
X-139903Y132498D01*
X-140295Y132236D01*
X-140314Y132226D01*
X-140330Y132213D01*
X-140722Y131951D01*
X-140829Y131844D01*
X-140954Y131761D01*
X-141287Y131427D01*
X-141304Y131414D01*
X-141317Y131397D01*
X-141650Y131064D01*
X-141734Y130939D01*
X-141840Y130832D01*
X-142102Y130440D01*
X-142116Y130424D01*
X-142126Y130405D01*
X-142388Y130013D01*
X-142445Y129874D01*
X-142529Y129749D01*
X-142709Y129313D01*
X-142719Y129295D01*
X-142725Y129275D01*
X-142906Y128839D01*
X-142935Y128691D01*
X-142993Y128552D01*
X-143085Y128090D01*
X-143091Y128069D01*
X-143093Y128049D01*
X-143185Y127586D01*
Y127435D01*
X-143214Y127288D01*
Y126816D01*
X-143217Y126795D01*
X-143214D01*
Y47795D01*
X-143217D01*
X-143214Y47774D01*
Y47303D01*
X-143185Y47155D01*
Y47005D01*
X-143093Y46542D01*
X-143091Y46521D01*
X-143085Y46501D01*
X-142993Y46038D01*
X-142935Y45899D01*
X-142906Y45752D01*
X-142725Y45316D01*
X-142719Y45296D01*
X-142709Y45277D01*
X-142529Y44842D01*
X-142445Y44716D01*
X-142388Y44577D01*
X-142126Y44185D01*
X-142116Y44167D01*
X-142102Y44150D01*
X-141840Y43758D01*
X-141734Y43652D01*
X-141650Y43527D01*
X-141317Y43193D01*
X-141304Y43177D01*
X-141287Y43164D01*
X-140954Y42830D01*
X-140829Y42746D01*
X-140722Y42640D01*
X-140330Y42378D01*
X-140314Y42365D01*
X-140295Y42355D01*
X-139903Y42093D01*
X-139764Y42035D01*
X-139639Y41951D01*
X-139203Y41771D01*
X-139184Y41761D01*
X-139164Y41755D01*
X-138729Y41574D01*
X-138581Y41545D01*
X-138442Y41487D01*
X-137979Y41395D01*
X-137959Y41389D01*
X-137938Y41387D01*
X-137476Y41295D01*
X-137325D01*
X-137178Y41266D01*
X-136706D01*
X-136685Y41264D01*
Y41266D01*
X-125185D01*
Y41264D01*
X-125164Y41266D01*
X-124693D01*
X-124545Y41295D01*
X-102976D01*
X-102976Y41295D01*
X-102825D01*
X-102678Y41266D01*
X-102206D01*
X-102185Y41264D01*
Y41266D01*
X-90685D01*
Y41264D01*
X-90664Y41266D01*
X-90193D01*
X-90045Y41295D01*
X-89894D01*
X-89432Y41387D01*
X-89411Y41389D01*
X-89391Y41395D01*
X-88928Y41487D01*
X-88789Y41545D01*
X-88641Y41574D01*
X-88206Y41755D01*
X-88186Y41761D01*
X-88167Y41771D01*
X-87731Y41951D01*
X-87606Y42035D01*
X-87467Y42093D01*
X-87075Y42355D01*
X-87056Y42365D01*
X-87040Y42378D01*
X-86648Y42640D01*
X-86542Y42746D01*
X-86416Y42830D01*
X-86083Y43164D01*
X-86067Y43177D01*
X-86053Y43193D01*
X-85720Y43527D01*
X-85636Y43652D01*
X-85530Y43758D01*
X-85268Y44150D01*
X-85254Y44167D01*
X-85244Y44185D01*
X-84983Y44577D01*
X-84925Y44716D01*
X-84841Y44842D01*
X-84661Y45277D01*
X-84651Y45296D01*
X-84645Y45316D01*
X-84464Y45752D01*
X-84435Y45899D01*
X-84377Y46038D01*
X-84285Y46501D01*
X-84279Y46521D01*
X-84277Y46542D01*
X-84185Y47005D01*
Y47155D01*
X-84156Y47303D01*
Y47774D01*
X-84154Y47795D01*
X-84156D01*
Y126795D01*
X-84154D01*
X-84156Y126816D01*
Y127288D01*
X-84185Y127436D01*
Y127586D01*
X-84277Y128049D01*
X-84279Y128069D01*
X-84285Y128090D01*
X-84377Y128552D01*
X-84435Y128691D01*
X-84464Y128839D01*
X-84645Y129275D01*
X-84651Y129295D01*
X-84661Y129313D01*
X-84841Y129749D01*
X-84925Y129874D01*
X-84983Y130013D01*
X-85244Y130405D01*
X-85254Y130424D01*
X-85268Y130440D01*
X-85530Y130832D01*
X-85636Y130939D01*
X-85720Y131064D01*
X-86053Y131397D01*
X-86067Y131414D01*
X-86083Y131427D01*
X-86416Y131761D01*
X-86541Y131844D01*
X-86648Y131951D01*
X-87040Y132213D01*
X-87056Y132226D01*
X-87075Y132236D01*
X-87467Y132498D01*
X-87606Y132555D01*
X-87731Y132639D01*
X-88167Y132820D01*
X-88186Y132829D01*
X-88206Y132836D01*
X-88641Y133016D01*
X-88789Y133045D01*
X-88928Y133103D01*
X-89391Y133195D01*
X-89411Y133201D01*
X-89432Y133203D01*
X-89894Y133295D01*
X-90045D01*
X-90193Y133325D01*
X-90664D01*
X-90685Y133327D01*
D02*
G37*
G36*
X-117212Y34673D02*
X-118158D01*
X-119032Y34311D01*
X-119701Y33642D01*
X-120063Y32768D01*
Y31822D01*
X-119701Y30948D01*
X-119032Y30279D01*
X-118158Y29917D01*
X-117212D01*
X-116338Y30279D01*
X-115669Y30948D01*
X-115307Y31822D01*
Y32768D01*
X-115669Y33642D01*
X-116338Y34311D01*
X-117212Y34673D01*
D02*
G37*
G36*
X-29717Y29354D02*
X-30654D01*
X-31559Y29112D01*
X-32370Y28643D01*
X-33033Y27981D01*
X-33501Y27169D01*
X-33744Y26264D01*
Y25327D01*
X-33501Y24421D01*
X-33033Y23610D01*
X-32370Y22947D01*
X-31559Y22479D01*
X-30654Y22236D01*
X-29717D01*
X-28811Y22479D01*
X-28000Y22947D01*
X-27337Y23610D01*
X-26869Y24421D01*
X-26626Y25327D01*
Y26264D01*
X-26869Y27169D01*
X-27337Y27981D01*
X-28000Y28643D01*
X-28811Y29112D01*
X-29717Y29354D01*
D02*
G37*
G36*
X-4371Y40592D02*
X-5999D01*
X-6147Y40563D01*
X-6298D01*
X-7895Y40245D01*
X-8034Y40188D01*
X-8182Y40158D01*
X-9686Y39535D01*
X-9812Y39451D01*
X-9951Y39394D01*
X-11305Y38489D01*
X-11412Y38382D01*
X-11537Y38299D01*
X-12688Y37147D01*
X-12772Y37022D01*
X-12879Y36915D01*
X-13783Y35561D01*
X-13841Y35422D01*
X-13925Y35297D01*
X-14548Y33792D01*
X-14577Y33644D01*
X-14635Y33505D01*
X-14953Y31908D01*
Y31757D01*
X-14982Y31610D01*
Y30795D01*
Y29981D01*
X-14953Y29833D01*
Y29683D01*
X-14635Y28085D01*
X-14577Y27946D01*
X-14548Y27798D01*
X-13925Y26294D01*
X-13841Y26169D01*
X-13783Y26029D01*
X-12879Y24675D01*
X-12772Y24569D01*
X-12688Y24443D01*
X-11537Y23292D01*
X-11412Y23208D01*
X-11305Y23102D01*
X-9951Y22197D01*
X-9812Y22139D01*
X-9686Y22055D01*
X-8182Y21432D01*
X-8034Y21403D01*
X-7895Y21345D01*
X-6298Y21028D01*
X-6147D01*
X-5999Y20998D01*
X-4371D01*
X-4223Y21028D01*
X-4072D01*
X-2475Y21345D01*
X-2336Y21403D01*
X-2188Y21432D01*
X-684Y22055D01*
X-558Y22139D01*
X-419Y22197D01*
X935Y23102D01*
X1041Y23208D01*
X1167Y23292D01*
X2318Y24443D01*
X2402Y24569D01*
X2509Y24675D01*
X3413Y26029D01*
X3471Y26169D01*
X3555Y26294D01*
X4178Y27798D01*
X4207Y27946D01*
X4265Y28085D01*
X4583Y29683D01*
Y29833D01*
X4612Y29981D01*
Y30795D01*
Y31610D01*
X4583Y31757D01*
Y31908D01*
X4265Y33505D01*
X4207Y33644D01*
X4178Y33792D01*
X3555Y35297D01*
X3471Y35422D01*
X3413Y35561D01*
X2509Y36915D01*
X2402Y37022D01*
X2318Y37147D01*
X1167Y38299D01*
X1041Y38382D01*
X935Y38489D01*
X-419Y39394D01*
X-558Y39451D01*
X-684Y39535D01*
X-2188Y40158D01*
X-2336Y40188D01*
X-2475Y40245D01*
X-4072Y40563D01*
X-4223D01*
X-4371Y40592D01*
D02*
G37*
G36*
X-152371D02*
X-153999D01*
X-154147Y40563D01*
X-154298D01*
X-155895Y40245D01*
X-156034Y40188D01*
X-156182Y40158D01*
X-157687Y39535D01*
X-157812Y39451D01*
X-157951Y39394D01*
X-159305Y38489D01*
X-159412Y38382D01*
X-159537Y38299D01*
X-160688Y37147D01*
X-160772Y37022D01*
X-160879Y36915D01*
X-161783Y35561D01*
X-161841Y35422D01*
X-161925Y35297D01*
X-162548Y33792D01*
X-162577Y33644D01*
X-162635Y33505D01*
X-162953Y31908D01*
Y31757D01*
X-162982Y31610D01*
Y30795D01*
Y29981D01*
X-162953Y29833D01*
Y29683D01*
X-162635Y28085D01*
X-162577Y27946D01*
X-162548Y27798D01*
X-161925Y26294D01*
X-161841Y26169D01*
X-161783Y26029D01*
X-160879Y24675D01*
X-160772Y24569D01*
X-160688Y24443D01*
X-159537Y23292D01*
X-159412Y23208D01*
X-159305Y23102D01*
X-157951Y22197D01*
X-157812Y22139D01*
X-157687Y22055D01*
X-156182Y21432D01*
X-156034Y21403D01*
X-155895Y21345D01*
X-154298Y21028D01*
X-154147D01*
X-153999Y20998D01*
X-152371D01*
X-152223Y21028D01*
X-152072D01*
X-150475Y21345D01*
X-150336Y21403D01*
X-150188Y21432D01*
X-148684Y22055D01*
X-148558Y22139D01*
X-148419Y22197D01*
X-147065Y23102D01*
X-146958Y23208D01*
X-146833Y23292D01*
X-145682Y24443D01*
X-145598Y24569D01*
X-145492Y24675D01*
X-144587Y26029D01*
X-144529Y26169D01*
X-144445Y26294D01*
X-143822Y27798D01*
X-143793Y27946D01*
X-143735Y28085D01*
X-143417Y29683D01*
Y29833D01*
X-143388Y29981D01*
Y30795D01*
Y31610D01*
X-143417Y31757D01*
Y31908D01*
X-143735Y33505D01*
X-143793Y33644D01*
X-143822Y33792D01*
X-144445Y35297D01*
X-144529Y35422D01*
X-144587Y35561D01*
X-145492Y36915D01*
X-145598Y37022D01*
X-145682Y37147D01*
X-146833Y38299D01*
X-146958Y38382D01*
X-147065Y38489D01*
X-148419Y39394D01*
X-148558Y39451D01*
X-148684Y39535D01*
X-150188Y40158D01*
X-150336Y40188D01*
X-150475Y40245D01*
X-152072Y40563D01*
X-152223D01*
X-152371Y40592D01*
D02*
G37*
G36*
X-94217Y27854D02*
X-95154D01*
X-96059Y27612D01*
X-96870Y27143D01*
X-97533Y26481D01*
X-98001Y25669D01*
X-98244Y24764D01*
Y23827D01*
X-98001Y22921D01*
X-97533Y22110D01*
X-96870Y21447D01*
X-96059Y20979D01*
X-95154Y20736D01*
X-94217D01*
X-93311Y20979D01*
X-92500Y21447D01*
X-91837Y22110D01*
X-91369Y22921D01*
X-91126Y23827D01*
Y24764D01*
X-91369Y25669D01*
X-91837Y26481D01*
X-92500Y27143D01*
X-93311Y27612D01*
X-94217Y27854D01*
D02*
G37*
G36*
X-73019Y-12366D02*
X-73965D01*
X-74839Y-12728D01*
X-75508Y-13397D01*
X-75870Y-14271D01*
Y-15217D01*
X-75508Y-16091D01*
X-74839Y-16760D01*
X-73965Y-17122D01*
X-73019D01*
X-72145Y-16760D01*
X-71476Y-16091D01*
X-71114Y-15217D01*
Y-14271D01*
X-71476Y-13397D01*
X-72145Y-12728D01*
X-73019Y-12366D01*
D02*
G37*
G36*
X-87027Y-13622D02*
X-87973D01*
X-88847Y-13984D01*
X-89516Y-14653D01*
X-89878Y-15527D01*
Y-16473D01*
X-89516Y-17347D01*
X-88847Y-18016D01*
X-87973Y-18378D01*
X-87027D01*
X-86153Y-18016D01*
X-85484Y-17347D01*
X-85122Y-16473D01*
Y-15527D01*
X-85484Y-14653D01*
X-86153Y-13984D01*
X-87027Y-13622D01*
D02*
G37*
G36*
X-78712Y62173D02*
X-79658D01*
X-80532Y61811D01*
X-81201Y61142D01*
X-81563Y60268D01*
Y59322D01*
X-81201Y58448D01*
X-81007Y58255D01*
Y16295D01*
Y-3205D01*
Y-17815D01*
X-81007Y-17815D01*
X-80869Y-18512D01*
X-80474Y-19104D01*
X-79878Y-19699D01*
Y-19973D01*
X-79516Y-20847D01*
X-78847Y-21516D01*
X-77973Y-21878D01*
X-77027D01*
X-76153Y-21516D01*
X-75484Y-20847D01*
X-75122Y-19973D01*
Y-19027D01*
X-75484Y-18153D01*
X-76153Y-17484D01*
X-77027Y-17122D01*
X-77301D01*
X-77363Y-17060D01*
Y-3205D01*
Y-2244D01*
Y16295D01*
Y17574D01*
D01*
Y58255D01*
X-77169Y58448D01*
X-76807Y59322D01*
Y60268D01*
X-77169Y61142D01*
X-77838Y61811D01*
X-78712Y62173D01*
D02*
G37*
G36*
X-68019Y-19366D02*
X-68965D01*
X-69839Y-19728D01*
X-70508Y-20397D01*
X-70870Y-21271D01*
Y-22217D01*
X-70508Y-23091D01*
X-69839Y-23760D01*
X-68965Y-24122D01*
X-68019D01*
X-67145Y-23760D01*
X-66476Y-23091D01*
X-66114Y-22217D01*
Y-21271D01*
X-66476Y-20397D01*
X-67145Y-19728D01*
X-68019Y-19366D01*
D02*
G37*
G36*
X-53019Y-19866D02*
X-53965D01*
X-54839Y-20228D01*
X-55508Y-20897D01*
X-55870Y-21771D01*
Y-22717D01*
X-55508Y-23591D01*
X-54839Y-24260D01*
X-53965Y-24622D01*
X-53019D01*
X-52145Y-24260D01*
X-51476Y-23591D01*
X-51114Y-22717D01*
Y-21771D01*
X-51476Y-20897D01*
X-52145Y-20228D01*
X-53019Y-19866D01*
D02*
G37*
G36*
X-57519Y-24866D02*
X-58465D01*
X-59339Y-25228D01*
X-60008Y-25897D01*
X-60370Y-26771D01*
Y-27717D01*
X-60008Y-28591D01*
X-59339Y-29260D01*
X-58465Y-29622D01*
X-57519D01*
X-56645Y-29260D01*
X-55976Y-28591D01*
X-55614Y-27717D01*
Y-26771D01*
X-55976Y-25897D01*
X-56645Y-25228D01*
X-57519Y-24866D01*
D02*
G37*
G36*
X-48019Y-25366D02*
X-48965D01*
X-49839Y-25728D01*
X-50508Y-26397D01*
X-50870Y-27271D01*
Y-28217D01*
X-50508Y-29091D01*
X-49839Y-29760D01*
X-48965Y-30122D01*
X-48019D01*
X-47145Y-29760D01*
X-46476Y-29091D01*
X-46114Y-28217D01*
Y-27271D01*
X-46476Y-26397D01*
X-47145Y-25728D01*
X-48019Y-25366D01*
D02*
G37*
G36*
X-68519Y-30366D02*
X-69465D01*
X-70339Y-30728D01*
X-71008Y-31397D01*
X-71370Y-32271D01*
Y-33217D01*
X-71008Y-34091D01*
X-70339Y-34760D01*
X-69465Y-35122D01*
X-68519D01*
X-67645Y-34760D01*
X-66976Y-34091D01*
X-66614Y-33217D01*
Y-32271D01*
X-66976Y-31397D01*
X-67645Y-30728D01*
X-68519Y-30366D01*
D02*
G37*
G36*
X-64019Y-48366D02*
X-64965D01*
X-65839Y-48728D01*
X-66508Y-49397D01*
X-66870Y-50271D01*
Y-51217D01*
X-66508Y-52091D01*
X-65839Y-52760D01*
X-64965Y-53122D01*
X-64019D01*
X-63145Y-52760D01*
X-62476Y-52091D01*
X-62114Y-51217D01*
Y-50271D01*
X-62476Y-49397D01*
X-63145Y-48728D01*
X-64019Y-48366D01*
D02*
G37*
G36*
X-33019Y-69866D02*
X-33965D01*
X-34839Y-70228D01*
X-35508Y-70897D01*
X-35870Y-71771D01*
Y-72717D01*
X-35508Y-73591D01*
X-34839Y-74260D01*
X-33965Y-74622D01*
X-33019D01*
X-32145Y-74260D01*
X-31476Y-73591D01*
X-31114Y-72717D01*
Y-71771D01*
X-31476Y-70897D01*
X-32145Y-70228D01*
X-33019Y-69866D01*
D02*
G37*
G36*
X-42519D02*
X-43465D01*
X-44339Y-70228D01*
X-45008Y-70897D01*
X-45370Y-71771D01*
Y-72717D01*
X-45008Y-73591D01*
X-44339Y-74260D01*
X-43465Y-74622D01*
X-42519D01*
X-41645Y-74260D01*
X-40976Y-73591D01*
X-40614Y-72717D01*
Y-71771D01*
X-40976Y-70897D01*
X-41645Y-70228D01*
X-42519Y-69866D01*
D02*
G37*
G36*
X-65585Y-70366D02*
X-66531D01*
X-67405Y-70728D01*
X-68074Y-71397D01*
X-68436Y-72271D01*
Y-73217D01*
X-68074Y-74091D01*
X-67405Y-74760D01*
X-66531Y-75122D01*
X-65585D01*
X-64711Y-74760D01*
X-64042Y-74091D01*
X-63680Y-73217D01*
Y-72271D01*
X-64042Y-71397D01*
X-64711Y-70728D01*
X-65585Y-70366D01*
D02*
G37*
G36*
X-59019Y-75366D02*
X-59965D01*
X-60839Y-75728D01*
X-61508Y-76397D01*
X-61731Y-76935D01*
X-62116Y-77208D01*
X-62322Y-77155D01*
X-63019Y-76866D01*
X-63965D01*
X-64839Y-77228D01*
X-65508Y-77897D01*
X-65870Y-78771D01*
Y-79717D01*
X-65508Y-80591D01*
X-64839Y-81260D01*
X-63965Y-81622D01*
X-63019D01*
X-62145Y-81260D01*
X-61476Y-80591D01*
X-61253Y-80053D01*
X-60868Y-79780D01*
X-60662Y-79833D01*
X-59965Y-80122D01*
X-59019D01*
X-58145Y-79760D01*
X-57476Y-79091D01*
X-57114Y-78217D01*
Y-77271D01*
X-57476Y-76397D01*
X-58145Y-75728D01*
X-59019Y-75366D01*
D02*
G37*
G36*
X-38019D02*
X-38965D01*
X-39839Y-75728D01*
X-40508Y-76397D01*
X-40870Y-77271D01*
Y-78217D01*
X-40508Y-79091D01*
X-39839Y-79760D01*
X-38965Y-80122D01*
X-38019D01*
X-37145Y-79760D01*
X-36476Y-79091D01*
X-36114Y-78217D01*
Y-77271D01*
X-36476Y-76397D01*
X-37145Y-75728D01*
X-38019Y-75366D01*
D02*
G37*
%LPD*%
G36*
X-45114Y103600D02*
X-45576Y103409D01*
X-45604Y103437D01*
X-46377Y103883D01*
X-47239Y104114D01*
X-48131D01*
X-48993Y103883D01*
X-49766Y103437D01*
X-50397Y102806D01*
X-50844Y102033D01*
X-51075Y101171D01*
Y100278D01*
X-50844Y99416D01*
X-50397Y98643D01*
X-49766Y98012D01*
X-48993Y97566D01*
X-48131Y97334D01*
X-47239D01*
X-46377Y97566D01*
X-45604Y98012D01*
X-45576Y98040D01*
X-45114Y97848D01*
Y83295D01*
X-53185D01*
Y111295D01*
X-45114D01*
Y103600D01*
D02*
G37*
G36*
X-35185Y83295D02*
X-43114D01*
Y97799D01*
X-42614Y97965D01*
X-41922Y97566D01*
X-41060Y97334D01*
X-40168D01*
X-39306Y97566D01*
X-38533Y98012D01*
X-37901Y98643D01*
X-37455Y99416D01*
X-37224Y100278D01*
Y101171D01*
X-37455Y102033D01*
X-37901Y102806D01*
X-38533Y103437D01*
X-39306Y103883D01*
X-40168Y104114D01*
X-41060D01*
X-41922Y103883D01*
X-42614Y103484D01*
X-43114Y103650D01*
Y106795D01*
Y111295D01*
X-35185D01*
Y83295D01*
D02*
G37*
G36*
X-114185Y103600D02*
X-114647Y103409D01*
X-114675Y103437D01*
X-115448Y103883D01*
X-116310Y104114D01*
X-117202D01*
X-118064Y103883D01*
X-118837Y103437D01*
X-119469Y102806D01*
X-119915Y102033D01*
X-120146Y101171D01*
Y100278D01*
X-119915Y99416D01*
X-119469Y98643D01*
X-118837Y98012D01*
X-118064Y97566D01*
X-117202Y97334D01*
X-116310D01*
X-115448Y97566D01*
X-114675Y98012D01*
X-114647Y98040D01*
X-114185Y97848D01*
Y83295D01*
X-121685D01*
Y110795D01*
X-114185D01*
Y103600D01*
D02*
G37*
G36*
X-104685Y83295D02*
X-112185D01*
Y97799D01*
X-111685Y97965D01*
X-110993Y97566D01*
X-110131Y97334D01*
X-109239D01*
X-108377Y97566D01*
X-107604Y98012D01*
X-106973Y98643D01*
X-106526Y99416D01*
X-106295Y100278D01*
Y101171D01*
X-106526Y102033D01*
X-106973Y102806D01*
X-107604Y103437D01*
X-108377Y103883D01*
X-109239Y104114D01*
X-110131D01*
X-110993Y103883D01*
X-111685Y103484D01*
X-112185Y103650D01*
Y106795D01*
Y110795D01*
X-104685D01*
Y83295D01*
D02*
G37*
D11*
X-55073Y-105244D02*
G03*
X-56185Y-105705I0J-1573D01*
G01*
X-55073Y-105244D02*
X-49992D01*
X-79185Y-17815D02*
Y59795D01*
Y-17815D02*
X-77500Y-19500D01*
D40*
X-33799Y-153175D02*
X-32979Y-156825D01*
X-32055Y-159521D01*
X-33799Y-153175D02*
X-33185Y-152205D01*
D41*
X-163760Y190921D02*
D03*
Y180921D02*
D03*
X-153760Y190921D02*
D03*
Y180921D02*
D03*
X-143760Y190921D02*
D03*
Y180921D02*
D03*
X-133760Y190921D02*
D03*
Y180921D02*
D03*
X-123760Y190921D02*
D03*
Y180921D02*
D03*
X-113760Y190921D02*
D03*
Y180921D02*
D03*
X-103760Y190921D02*
D03*
Y180921D02*
D03*
X-93760Y190921D02*
D03*
Y180921D02*
D03*
X-83760Y190921D02*
D03*
Y180921D02*
D03*
X-73760Y190921D02*
D03*
Y180921D02*
D03*
X-63760Y190921D02*
D03*
Y180921D02*
D03*
X-53760Y190921D02*
D03*
Y180921D02*
D03*
X-43760Y190921D02*
D03*
Y180921D02*
D03*
X-33760Y190921D02*
D03*
Y180921D02*
D03*
X-23760Y190921D02*
D03*
Y180921D02*
D03*
X-13760Y190921D02*
D03*
Y180921D02*
D03*
X-3760Y190921D02*
D03*
Y180921D02*
D03*
X6240Y190921D02*
D03*
X-163760Y-177032D02*
D03*
Y-187031D02*
D03*
X-153760Y-177032D02*
D03*
Y-187031D02*
D03*
X-143760Y-177032D02*
D03*
Y-187031D02*
D03*
X-133760Y-177032D02*
D03*
Y-187031D02*
D03*
X-123760Y-177032D02*
D03*
Y-187031D02*
D03*
X-113760Y-177032D02*
D03*
Y-187031D02*
D03*
X-103760Y-177032D02*
D03*
Y-187031D02*
D03*
X-93760Y-177032D02*
D03*
Y-187031D02*
D03*
X-83760Y-177032D02*
D03*
Y-187031D02*
D03*
X-73760Y-177032D02*
D03*
Y-187031D02*
D03*
X-63760Y-177032D02*
D03*
Y-187031D02*
D03*
X-53760Y-177032D02*
D03*
Y-187031D02*
D03*
X-43760Y-177032D02*
D03*
Y-187031D02*
D03*
X-33760Y-177032D02*
D03*
Y-187031D02*
D03*
X-23760Y-177032D02*
D03*
Y-187031D02*
D03*
X-13760Y-177032D02*
D03*
Y-187031D02*
D03*
X-3760Y-177032D02*
D03*
Y-187031D02*
D03*
X6240Y-177032D02*
D03*
D42*
Y180921D02*
D03*
Y-187031D02*
D03*
D43*
X-44992Y-139244D02*
D03*
X-39992Y-144244D02*
D03*
Y-134244D02*
D03*
X-49992D02*
D03*
Y-144244D02*
D03*
D44*
X-116756Y107795D02*
D03*
X-109685D02*
D03*
Y100724D02*
D03*
X-116756D02*
D03*
X-47685Y107795D02*
D03*
X-40614D02*
D03*
Y100724D02*
D03*
X-47685D02*
D03*
D45*
X-78000Y-30000D02*
D03*
X-77000Y-79500D02*
D03*
X-67000Y-79000D02*
D03*
X-87500Y-16000D02*
D03*
X-77500Y-19500D02*
D03*
X-86500Y-4000D02*
D03*
X-39185Y91795D02*
D03*
X-48685D02*
D03*
X-117685D02*
D03*
X-108185D02*
D03*
X-128110Y72441D02*
D03*
X-97756Y72295D02*
D03*
X-59039Y72441D02*
D03*
X-28685Y72295D02*
D03*
X-117685Y32295D02*
D03*
X-29185Y-156205D02*
D03*
X-36185D02*
D03*
X-42185D02*
D03*
X-48185D02*
D03*
X-54185D02*
D03*
X-60185D02*
D03*
X-125685Y-156705D02*
D03*
X-118185Y-89205D02*
D03*
X-124185Y-102705D02*
D03*
X-65492Y-101244D02*
D03*
Y-93244D02*
D03*
X-49992Y-94744D02*
D03*
X-109992Y-105244D02*
D03*
X-108992Y-92244D02*
D03*
X-76992Y-123744D02*
D03*
X-102492Y-119744D02*
D03*
X-66992Y-4744D02*
D03*
X-89992Y-79244D02*
D03*
X-65492Y-106744D02*
D03*
X-78992Y-89244D02*
D03*
X-109992Y-109244D02*
D03*
X-49992Y-89244D02*
D03*
X-109992Y-97744D02*
D03*
X-102992Y-134244D02*
D03*
X-75492Y-110244D02*
D03*
X-49992Y-110744D02*
D03*
Y-100244D02*
D03*
X-120185Y-118205D02*
D03*
X-74457Y-161205D02*
D03*
X-79185Y59795D02*
D03*
X-49992Y-105244D02*
D03*
X-119992Y-35887D02*
D03*
X-73492Y-14744D02*
D03*
X-33492Y-72244D02*
D03*
X-38492Y-77744D02*
D03*
X-42992Y-72244D02*
D03*
X-126492Y-26744D02*
D03*
X-120992Y-21744D02*
D03*
X-115992Y-26744D02*
D03*
X-110992Y-70744D02*
D03*
X-96492Y-112744D02*
D03*
X-41492Y-64244D02*
D03*
X-63992D02*
D03*
X-72492Y-19244D02*
D03*
Y-46744D02*
D03*
X-52492Y-35887D02*
D03*
X-57992Y-27244D02*
D03*
X-68992Y-32744D02*
D03*
X-77492Y-68744D02*
D03*
X-64492Y-50744D02*
D03*
X-108992Y-63744D02*
D03*
X-86492Y-64244D02*
D03*
X-97492Y-35887D02*
D03*
X-93492Y-27244D02*
D03*
X-103492Y-26744D02*
D03*
X-106492Y-77244D02*
D03*
X-88492Y-68744D02*
D03*
X-68492Y-21744D02*
D03*
X-53492Y-22244D02*
D03*
X-48492Y-27744D02*
D03*
X-59492Y-77744D02*
D03*
X-66058Y-72744D02*
D03*
X-63492Y-79244D02*
D03*
D46*
X-112862Y-54360D02*
D03*
X-96500Y-53882D02*
D03*
D47*
X-91185Y6295D02*
D03*
D48*
X-18185Y36295D02*
D03*
X-86685Y37795D02*
D03*
X-30185Y25795D02*
D03*
X-94685Y24295D02*
D03*
D49*
X-80421Y-38816D02*
G03*
X-87492Y-35887I-7071J-7071D01*
G01*
X-57493D02*
G03*
X-64564Y-38816I0J-10000D01*
G01*
X-65080Y-97079D02*
G03*
X-65278Y-97085I9J-3937D01*
G01*
X-62330Y-97091D02*
G03*
X-62755Y-97079I-425J-7946D01*
G01*
X-68397Y-95766D02*
G03*
X-69413Y-94933I-2968J-2587D01*
G01*
X-41158Y-169634D02*
G03*
X-48229Y-166705I-7071J-7071D01*
G01*
X-56185Y-103205D02*
G03*
X-57129Y-99410I-8104J0D01*
G01*
X-57129Y-99410D02*
G03*
X-62330Y-97091I-5627J-5627D01*
G01*
X-63256Y-112776D02*
G03*
X-66185Y-119847I7071J-7071D01*
G01*
X-58160Y-164230D02*
G03*
X-52185Y-166705I5975J5975D01*
G01*
X-71992Y-88708D02*
G03*
X-69413Y-94933I8804J0D01*
G01*
X-33185Y-94619D02*
G03*
X-34185Y-92205I-3414J0D01*
G01*
X-33185Y-153797D02*
G03*
X-33185Y-153791I-3937J15D01*
G01*
X-30057Y-160734D02*
G03*
X-31499Y-159820I-2779J-2788D01*
G01*
X-30048Y-160743D02*
G03*
X-30057Y-160734I-2788J-2779D01*
G01*
X-32105Y-159538D02*
G03*
X-31499Y-159820I1920J3333D01*
G01*
X-120185Y-118205D02*
G03*
X-119832Y-119058I1207J0D01*
G01*
X-66658Y-164134D02*
G03*
X-73729Y-161205I-7071J-7071D01*
G01*
X-97614Y-158276D02*
G03*
X-90543Y-161205I7071J7071D01*
G01*
X-113185Y-138563D02*
G03*
X-110256Y-145634I10000J0D01*
G01*
X-65492Y-97091D02*
G03*
X-65278Y-97085I0J3847D01*
G01*
X-68397Y-95766D02*
G03*
X-65492Y-97091I2905J2521D01*
G01*
X-97492Y-35887D02*
X-87492D01*
X-57493D02*
X-52492D01*
X-65080Y-97079D02*
X-62755D01*
X-69413Y-94933D02*
X-69413Y-94933D01*
X-52185Y-166705D02*
X-48229D01*
X-41158Y-169634D02*
X-33760Y-177032D01*
X-56185Y-105705D02*
Y-103205D01*
X-63256Y-112776D02*
X-56185Y-105705D01*
X-66185Y-156205D02*
Y-119847D01*
X-72492Y-46744D02*
X-64564Y-38816D01*
X-80421D02*
X-72492Y-46744D01*
X-71992Y-88708D02*
Y-47244D01*
X-90968Y467D02*
Y6078D01*
Y467D02*
X-86500Y-4000D01*
X-91185Y6295D02*
X-90968Y6078D01*
X-93324Y-10824D02*
X-93324D01*
X-97492Y-14992D02*
X-93324Y-10824D01*
X-93324D02*
X-86500Y-4000D01*
X-97492Y-20886D02*
Y-14992D01*
X-97492Y-35887D02*
Y-20886D01*
X-33185Y-152205D02*
Y-94619D01*
Y-153791D02*
Y-153791D01*
Y-152205D01*
X-33185Y-153797D02*
X-33185Y-153797D01*
X-28886Y-161906D02*
X-13760Y-177032D01*
X-30048Y-160743D02*
X-28886Y-161906D01*
X-66185Y-156205D02*
X-58160Y-164230D01*
X-66658Y-164134D02*
X-53760Y-177032D01*
X-113185Y-138563D02*
Y-125705D01*
X-63099Y-97091D02*
X-63099D01*
X-119832Y-119058D02*
X-113185Y-125705D01*
X-74457Y-161205D02*
X-73729D01*
X-53760Y-177032D02*
X-43760D01*
X-90543Y-161205D02*
X-74457D01*
X-110256Y-145634D02*
X-97614Y-158276D01*
X-72492Y-46744D02*
X-71992Y-47244D01*
X-119992Y-35887D02*
X-97492D01*
X-33760Y-177032D02*
X-23760D01*
X-13760D02*
X-3760D01*
M02*
