M48
;Layer_Color=9474304
;FILE_FORMAT=2:5
INCH,LZ
;TYPE=PLATED
T1F00S00C0.01000
T2F00S00C0.01181
T3F00S00C0.01968
T4F00S00C0.02787
T5F00S00C0.03346
T6F00S00C0.03543
T7F00S00C0.03937
%
T01
X-0112862Y-005436
X-00965Y-0053882
T02
X-0125685Y-0156705
X-0120185Y-0118205
X-0102492Y-0119744
X-0102992Y-0134244
X-0076992Y-0123744
X-0074457Y-0161205
X-0060185Y-0156205
X-0054185
X-0048185
X-0042185
X-0036185
X-0029185
X-0049992Y-0110744
Y-0105244
Y-0100244
Y-0094744
Y-0089244
X-0065492Y-0093244
Y-0101244
Y-0106744
X-0075492Y-0110244
X-0096492Y-0112744
X-0109992Y-0109244
Y-0105244
Y-0097744
X-0108992Y-0092244
X-0118185Y-0089205
X-0124185Y-0102705
X-0106492Y-0077244
X-0110992Y-0070744
X-0108992Y-0063744
X-0086492Y-0064244
X-0088492Y-0068744
X-0077492
X-0077Y-00795
X-0067Y-0079
X-0063492Y-0079244
X-0059492Y-0077744
X-0066058Y-0072744
X-0063992Y-0064244
X-0064492Y-0050744
X-0072492Y-0046744
X-0068992Y-0032744
X-0068492Y-0021744
X-0072492Y-0019244
X-00775Y-00195
X-0073492Y-0014744
X-00875Y-0016
X-00865Y-0004
X-0066992Y-0004744
X-0053492Y-0022244
X-0057992Y-0027244
X-0048492Y-0027744
X-0052492Y-0035887
X-0078Y-003
X-0093492Y-0027244
X-0103492Y-0026744
X-0115992
X-0120992Y-0021744
X-0126492Y-0026744
X-0119992Y-0035887
X-0097492
X-0089992Y-0079244
X-0078992Y-0089244
X-0038492Y-0077744
X-0042992Y-0072244
X-0033492
X-0041492Y-0064244
X-0117685Y0032295
X-012811Y0072441
X-0117685Y0091795
X-0108185
X-0097756Y0072295
X-0079185Y0059795
X-0059039Y0072441
X-0048685Y0091795
X-0039185
X-0028685Y0072295
T03
X-0018185Y0036295
X-0030185Y0025795
X-0094685Y0024295
X-0086685Y0037795
T04
X-0116756Y0100724
Y0107795
X-0109685
Y0100724
X-0047685
Y0107795
X-0040614
Y0100724
T05
X-0049992Y-0144244
X-0044992Y-0139244
X-0039992Y-0144244
Y-0134244
X-0049992
T06
X-016376Y-0187031
Y-0177032
X-015376
Y-0187031
X-014376
Y-0177032
X-013376
Y-0187031
X-012376
Y-0177032
X-011376
Y-0187031
X-010376
Y-0177032
X-009376
Y-0187031
X-008376
Y-0177032
X-007376
Y-0187031
X-006376
Y-0177032
X-005376
Y-0187031
X-004376
Y-0177032
X-003376
Y-0187031
X-002376
Y-0177032
X-001376
Y-0187031
X-000376
Y-0177032
X000624
Y-0187031
X-002376Y0180921
X-003376
X-004376
X-005376
X-006376
X-007376
X-008376
X-009376
X-010376
X-011376
X-012376
X-013376
X-014376
X-015376
X-016376
Y0190921
X-015376
X-014376
X-013376
X-012376
X-011376
X-010376
X-009376
X-008376
X-007376
X-006376
X-005376
X-004376
X-003376
X-002376
X-001376
Y0180921
X-000376
Y0190921
X000624
Y0180921
T07
X-0091185Y0006295
M30
