G04*
G04 #@! TF.GenerationSoftware,Altium Limited,Altium Designer,22.4.2 (48)*
G04*
G04 Layer_Color=32896*
%FSLAX25Y25*%
%MOIN*%
G70*
G04*
G04 #@! TF.SameCoordinates,F473D59A-574F-4481-BB9C-DFA0211E3A26*
G04*
G04*
G04 #@! TF.FilePolarity,Positive*
G04*
G01*
G75*
%ADD10C,0.00984*%
%ADD11C,0.01575*%
%ADD14C,0.00787*%
%ADD17C,0.00591*%
D10*
X-50768Y-38512D02*
G03*
X-50768Y-38512I-492J0D01*
G01*
X-69161Y-55252D02*
G03*
X-69161Y-55252I-492J0D01*
G01*
D11*
X-73020Y-46787D02*
G03*
X-73020Y-46787I-787J0D01*
G01*
D14*
X-57756Y-39595D02*
X-55787D01*
X-57756Y-42843D02*
Y-39595D01*
Y-51406D02*
X-55787D01*
X-57756D02*
Y-48158D01*
X-90342Y-49937D02*
Y-42063D01*
X-70657Y-49937D02*
Y-42063D01*
X-90342D02*
X-70657D01*
X-90342Y-49937D02*
X-70657D01*
X-66567Y-88358D02*
X-63417D01*
X-66567Y-94263D02*
X-63417D01*
X-66567Y-100225D02*
X-63417D01*
X-66567Y-106131D02*
X-63417D01*
X-168760Y175921D02*
X11240D01*
X-168760Y195921D02*
X11240D01*
Y175921D02*
Y195921D01*
X-168760Y175921D02*
Y195921D01*
Y-192032D02*
X11240D01*
X-168760Y-172031D02*
X11240D01*
Y-192032D02*
Y-172031D01*
X-168760Y-192032D02*
Y-172031D01*
X-115154Y87339D02*
X-111216D01*
X-115154Y80252D02*
X-111216D01*
X-46154Y87339D02*
X-42217D01*
X-46154Y80252D02*
X-42217D01*
D17*
X-169760Y191381D02*
X-170252Y191873D01*
X-171236D01*
X-171728Y191381D01*
Y190889D01*
X-171236Y190397D01*
X-170744D01*
X-171236D01*
X-171728Y189905D01*
Y189413D01*
X-171236Y188921D01*
X-170252D01*
X-169760Y189413D01*
X-174680Y191873D02*
X-173696Y191381D01*
X-172712Y190397D01*
Y189413D01*
X-173204Y188921D01*
X-174188D01*
X-174680Y189413D01*
Y189905D01*
X-174188Y190397D01*
X-172712D01*
X-169760Y181381D02*
X-170252Y181873D01*
X-171236D01*
X-171728Y181381D01*
Y180889D01*
X-171236Y180397D01*
X-170744D01*
X-171236D01*
X-171728Y179905D01*
Y179413D01*
X-171236Y178921D01*
X-170252D01*
X-169760Y179413D01*
X-174680Y181873D02*
X-172712D01*
Y180397D01*
X-173696Y180889D01*
X-174188D01*
X-174680Y180397D01*
Y179413D01*
X-174188Y178921D01*
X-173204D01*
X-172712Y179413D01*
X16240Y178921D02*
X15256D01*
X15748D01*
Y181873D01*
X16240Y181381D01*
X14847Y188795D02*
X16815D01*
X14847Y190763D01*
Y191255D01*
X15339Y191747D01*
X16323D01*
X16815Y191255D01*
X-169760Y-176572D02*
X-170252Y-176080D01*
X-171236D01*
X-171728Y-176572D01*
Y-177064D01*
X-171236Y-177556D01*
X-170744D01*
X-171236D01*
X-171728Y-178048D01*
Y-178540D01*
X-171236Y-179032D01*
X-170252D01*
X-169760Y-178540D01*
X-174680Y-176080D02*
X-173696Y-176572D01*
X-172712Y-177556D01*
Y-178540D01*
X-173204Y-179032D01*
X-174188D01*
X-174680Y-178540D01*
Y-178048D01*
X-174188Y-177556D01*
X-172712D01*
X-169760Y-186572D02*
X-170252Y-186080D01*
X-171236D01*
X-171728Y-186572D01*
Y-187064D01*
X-171236Y-187556D01*
X-170744D01*
X-171236D01*
X-171728Y-188048D01*
Y-188540D01*
X-171236Y-189032D01*
X-170252D01*
X-169760Y-188540D01*
X-174680Y-186080D02*
X-172712D01*
Y-187556D01*
X-173696Y-187064D01*
X-174188D01*
X-174680Y-187556D01*
Y-188540D01*
X-174188Y-189032D01*
X-173204D01*
X-172712Y-188540D01*
X15240Y-187531D02*
X14256D01*
X14748D01*
Y-184580D01*
X15240Y-185072D01*
X13772Y-178032D02*
X15740D01*
X13772Y-176064D01*
Y-175572D01*
X14264Y-175080D01*
X15248D01*
X15740Y-175572D01*
X-64024Y-53960D02*
X-66484D01*
X-66976Y-53468D01*
Y-52484D01*
X-66484Y-51992D01*
X-64024D01*
Y-51008D02*
Y-49040D01*
X-64516D01*
X-66484Y-51008D01*
X-66976D01*
X-92476Y-72190D02*
X-89524D01*
Y-70714D01*
X-90016Y-70222D01*
X-91000D01*
X-91492Y-70714D01*
Y-72190D01*
Y-71206D02*
X-92476Y-70222D01*
Y-69238D02*
Y-68254D01*
Y-68746D01*
X-89524D01*
X-90016Y-69238D01*
X-89524Y-64810D02*
Y-66778D01*
X-91000D01*
X-90508Y-65794D01*
Y-65302D01*
X-91000Y-64810D01*
X-91984D01*
X-92476Y-65302D01*
Y-66286D01*
X-91984Y-66778D01*
X-46976Y-48690D02*
X-44024D01*
Y-47214D01*
X-44516Y-46722D01*
X-45500D01*
X-45992Y-47214D01*
Y-48690D01*
Y-47706D02*
X-46976Y-46722D01*
Y-45738D02*
Y-44754D01*
Y-45246D01*
X-44024D01*
X-44516Y-45738D01*
X-46976Y-41802D02*
X-44024D01*
X-45500Y-43278D01*
Y-41310D01*
X-33008Y-71466D02*
X-32516Y-71958D01*
Y-72942D01*
X-33008Y-73434D01*
X-34976D01*
X-35468Y-72942D01*
Y-71958D01*
X-34976Y-71466D01*
X-35468Y-70482D02*
Y-69498D01*
Y-69990D01*
X-32516D01*
X-33008Y-70482D01*
X-34976Y-68022D02*
X-35468Y-67530D01*
Y-66546D01*
X-34976Y-66054D01*
X-33008D01*
X-32516Y-66546D01*
Y-67530D01*
X-33008Y-68022D01*
X-33500D01*
X-33992Y-67530D01*
Y-66054D01*
X-55508Y-71712D02*
X-55016Y-72204D01*
Y-73188D01*
X-55508Y-73680D01*
X-57476D01*
X-57968Y-73188D01*
Y-72204D01*
X-57476Y-71712D01*
X-57968Y-68760D02*
Y-70728D01*
X-56000Y-68760D01*
X-55508D01*
X-55016Y-69252D01*
Y-70236D01*
X-55508Y-70728D01*
Y-67776D02*
X-55016Y-67284D01*
Y-66300D01*
X-55508Y-65808D01*
X-57476D01*
X-57968Y-66300D01*
Y-67284D01*
X-57476Y-67776D01*
X-55508D01*
X-78008Y-70220D02*
X-77516Y-70712D01*
Y-71696D01*
X-78008Y-72188D01*
X-79976D01*
X-80468Y-71696D01*
Y-70712D01*
X-79976Y-70220D01*
X-80468Y-67268D02*
Y-69236D01*
X-78500Y-67268D01*
X-78008D01*
X-77516Y-67760D01*
Y-68744D01*
X-78008Y-69236D01*
X-80468Y-66284D02*
Y-65300D01*
Y-65792D01*
X-77516D01*
X-78008Y-66284D01*
X-100508Y-71712D02*
X-100016Y-72204D01*
Y-73188D01*
X-100508Y-73680D01*
X-102476D01*
X-102968Y-73188D01*
Y-72204D01*
X-102476Y-71712D01*
X-102968Y-68760D02*
Y-70728D01*
X-101000Y-68760D01*
X-100508D01*
X-100016Y-69252D01*
Y-70236D01*
X-100508Y-70728D01*
X-102968Y-65808D02*
Y-67776D01*
X-101000Y-65808D01*
X-100508D01*
X-100016Y-66300D01*
Y-67284D01*
X-100508Y-67776D01*
X-63217Y-84221D02*
X-62725Y-83729D01*
X-61741D01*
X-61249Y-84221D01*
Y-86189D01*
X-61741Y-86681D01*
X-62725D01*
X-63217Y-86189D01*
X-64201Y-84221D02*
X-64693Y-83729D01*
X-65677D01*
X-66169Y-84221D01*
Y-84713D01*
X-65677Y-85205D01*
X-65185D01*
X-65677D01*
X-66169Y-85697D01*
Y-86189D01*
X-65677Y-86681D01*
X-64693D01*
X-64201Y-86189D01*
X-68629Y-86681D02*
Y-83729D01*
X-67153Y-85205D01*
X-69121D01*
X-62717Y-96221D02*
X-62225Y-95729D01*
X-61241D01*
X-60749Y-96221D01*
Y-98189D01*
X-61241Y-98681D01*
X-62225D01*
X-62717Y-98189D01*
X-63701Y-96221D02*
X-64193Y-95729D01*
X-65177D01*
X-65669Y-96221D01*
Y-96713D01*
X-65177Y-97205D01*
X-64685D01*
X-65177D01*
X-65669Y-97697D01*
Y-98189D01*
X-65177Y-98681D01*
X-64193D01*
X-63701Y-98189D01*
X-68621Y-95729D02*
X-67637Y-96221D01*
X-66653Y-97205D01*
Y-98189D01*
X-67145Y-98681D01*
X-68129D01*
X-68621Y-98189D01*
Y-97697D01*
X-68129Y-97205D01*
X-66653D01*
X-58508Y-19212D02*
X-58016Y-19704D01*
Y-20688D01*
X-58508Y-21180D01*
X-60476D01*
X-60968Y-20688D01*
Y-19704D01*
X-60476Y-19212D01*
X-60968Y-16260D02*
Y-18228D01*
X-59000Y-16260D01*
X-58508D01*
X-58016Y-16752D01*
Y-17736D01*
X-58508Y-18228D01*
Y-15276D02*
X-58016Y-14784D01*
Y-13800D01*
X-58508Y-13308D01*
X-59000D01*
X-59492Y-13800D01*
Y-14292D01*
Y-13800D01*
X-59984Y-13308D01*
X-60476D01*
X-60968Y-13800D01*
Y-14784D01*
X-60476Y-15276D01*
X-76717Y-5221D02*
X-76225Y-4729D01*
X-75241D01*
X-74749Y-5221D01*
Y-7189D01*
X-75241Y-7681D01*
X-76225D01*
X-76717Y-7189D01*
X-79669Y-7681D02*
X-77701D01*
X-79669Y-5713D01*
Y-5221D01*
X-79177Y-4729D01*
X-78193D01*
X-77701Y-5221D01*
X-80653Y-7189D02*
X-81145Y-7681D01*
X-82129D01*
X-82621Y-7189D01*
Y-5221D01*
X-82129Y-4729D01*
X-81145D01*
X-80653Y-5221D01*
Y-5713D01*
X-81145Y-6205D01*
X-82621D01*
X-48008Y-32212D02*
X-47516Y-32704D01*
Y-33688D01*
X-48008Y-34180D01*
X-49976D01*
X-50468Y-33688D01*
Y-32704D01*
X-49976Y-32212D01*
X-48008Y-31228D02*
X-47516Y-30736D01*
Y-29752D01*
X-48008Y-29260D01*
X-48500D01*
X-48992Y-29752D01*
Y-30244D01*
Y-29752D01*
X-49484Y-29260D01*
X-49976D01*
X-50468Y-29752D01*
Y-30736D01*
X-49976Y-31228D01*
X-48008Y-28276D02*
X-47516Y-27784D01*
Y-26800D01*
X-48008Y-26308D01*
X-49976D01*
X-50468Y-26800D01*
Y-27784D01*
X-49976Y-28276D01*
X-48008D01*
X-59508Y-31720D02*
X-59016Y-32212D01*
Y-33196D01*
X-59508Y-33688D01*
X-61476D01*
X-61968Y-33196D01*
Y-32212D01*
X-61476Y-31720D01*
X-59508Y-30736D02*
X-59016Y-30244D01*
Y-29260D01*
X-59508Y-28768D01*
X-60000D01*
X-60492Y-29260D01*
Y-29752D01*
Y-29260D01*
X-60984Y-28768D01*
X-61476D01*
X-61968Y-29260D01*
Y-30244D01*
X-61476Y-30736D01*
X-61968Y-27784D02*
Y-26800D01*
Y-27292D01*
X-59016D01*
X-59508Y-27784D01*
X-93008Y-32712D02*
X-92516Y-33204D01*
Y-34188D01*
X-93008Y-34680D01*
X-94976D01*
X-95468Y-34188D01*
Y-33204D01*
X-94976Y-32712D01*
X-93008Y-31728D02*
X-92516Y-31236D01*
Y-30252D01*
X-93008Y-29760D01*
X-93500D01*
X-93992Y-30252D01*
Y-30744D01*
Y-30252D01*
X-94484Y-29760D01*
X-94976D01*
X-95468Y-30252D01*
Y-31236D01*
X-94976Y-31728D01*
X-95468Y-26808D02*
Y-28776D01*
X-93500Y-26808D01*
X-93008D01*
X-92516Y-27300D01*
Y-28284D01*
X-93008Y-28776D01*
X-115508Y-32212D02*
X-115016Y-32704D01*
Y-33688D01*
X-115508Y-34180D01*
X-117476D01*
X-117968Y-33688D01*
Y-32704D01*
X-117476Y-32212D01*
X-115508Y-31228D02*
X-115016Y-30736D01*
Y-29752D01*
X-115508Y-29260D01*
X-116000D01*
X-116492Y-29752D01*
Y-30244D01*
Y-29752D01*
X-116984Y-29260D01*
X-117476D01*
X-117968Y-29752D01*
Y-30736D01*
X-117476Y-31228D01*
X-115508Y-28276D02*
X-115016Y-27784D01*
Y-26800D01*
X-115508Y-26308D01*
X-116000D01*
X-116492Y-26800D01*
Y-27292D01*
Y-26800D01*
X-116984Y-26308D01*
X-117476D01*
X-117968Y-26800D01*
Y-27784D01*
X-117476Y-28276D01*
X9275Y169819D02*
Y172771D01*
X7799D01*
X7307Y172279D01*
Y171295D01*
X7799Y170803D01*
X9275D01*
X6323Y172279D02*
X5831Y172771D01*
X4847D01*
X4355Y172279D01*
Y171787D01*
X4847Y171295D01*
X5339D01*
X4847D01*
X4355Y170803D01*
Y170311D01*
X4847Y169819D01*
X5831D01*
X6323Y170311D01*
X15715Y-169005D02*
Y-166053D01*
X14239D01*
X13747Y-166545D01*
Y-167529D01*
X14239Y-168021D01*
X15715D01*
X10795Y-169005D02*
X12763D01*
X10795Y-167037D01*
Y-166545D01*
X11287Y-166053D01*
X12271D01*
X12763Y-166545D01*
X-77225Y60319D02*
Y63271D01*
X-78701D01*
X-79193Y62779D01*
Y61795D01*
X-78701Y61303D01*
X-77225D01*
X-78209D02*
X-79193Y60319D01*
X-82145Y63271D02*
X-81161Y62779D01*
X-80177Y61795D01*
Y60811D01*
X-80669Y60319D01*
X-81653D01*
X-82145Y60811D01*
Y61303D01*
X-81653Y61795D01*
X-80177D01*
X-111717Y92779D02*
X-111225Y93271D01*
X-110241D01*
X-109749Y92779D01*
Y90811D01*
X-110241Y90319D01*
X-111225D01*
X-111717Y90811D01*
X-114177Y90319D02*
Y93271D01*
X-112701Y91795D01*
X-114669D01*
X-115653Y92779D02*
X-116145Y93271D01*
X-117129D01*
X-117621Y92779D01*
Y90811D01*
X-117129Y90319D01*
X-116145D01*
X-115653Y90811D01*
Y92779D01*
X-42217D02*
X-41725Y93271D01*
X-40741D01*
X-40249Y92779D01*
Y90811D01*
X-40741Y90319D01*
X-41725D01*
X-42217Y90811D01*
X-43201Y92779D02*
X-43693Y93271D01*
X-44677D01*
X-45169Y92779D01*
Y92287D01*
X-44677Y91795D01*
X-44185D01*
X-44677D01*
X-45169Y91303D01*
Y90811D01*
X-44677Y90319D01*
X-43693D01*
X-43201Y90811D01*
X-46153Y92779D02*
X-46645Y93271D01*
X-47629D01*
X-48121Y92779D01*
Y92287D01*
X-47629Y91795D01*
X-48121Y91303D01*
Y90811D01*
X-47629Y90319D01*
X-46645D01*
X-46153Y90811D01*
Y91303D01*
X-46645Y91795D01*
X-46153Y92287D01*
Y92779D01*
X-46645Y91795D02*
X-47629D01*
M02*
