G04*
G04 #@! TF.GenerationSoftware,Altium Limited,Altium Designer,22.4.2 (48)*
G04*
G04 Layer_Physical_Order=3*
G04 Layer_Color=16440176*
%FSLAX25Y25*%
%MOIN*%
G70*
G04*
G04 #@! TF.SameCoordinates,F956CD7A-ACF5-426A-BAEE-EF4E17F90500*
G04*
G04*
G04 #@! TF.FilePolarity,Positive*
G04*
G01*
G75*
%ADD33C,0.01968*%
%ADD34C,0.01575*%
%ADD36C,0.05906*%
%ADD37R,0.05906X0.05906*%
%ADD38C,0.09843*%
%ADD39C,0.04724*%
%ADD40C,0.06693*%
G36*
X95000Y3962D02*
X94504Y3953D01*
X94500Y3953D01*
X86598D01*
Y-3953D01*
X94500D01*
X94504Y-3953D01*
X95000Y-3962D01*
Y-9470D01*
X94504Y-9480D01*
X94235Y-8474D01*
X93714Y-7573D01*
X92978Y-6837D01*
X92077Y-6317D01*
X91072Y-6047D01*
X90031D01*
X89025Y-6317D01*
X88124Y-6837D01*
X87388Y-7573D01*
X86868Y-8474D01*
X86598Y-9480D01*
Y-10520D01*
X86868Y-11526D01*
X87388Y-12427D01*
X88124Y-13163D01*
X89025Y-13683D01*
X90031Y-13953D01*
X91072D01*
X92077Y-13683D01*
X92978Y-13163D01*
X93714Y-12427D01*
X94235Y-11526D01*
X94504Y-10520D01*
X95000Y-10530D01*
Y-19470D01*
X94504Y-19480D01*
X94235Y-18474D01*
X93714Y-17573D01*
X92978Y-16837D01*
X92077Y-16317D01*
X91072Y-16047D01*
X90031D01*
X89025Y-16317D01*
X88124Y-16837D01*
X87388Y-17573D01*
X86868Y-18474D01*
X86598Y-19480D01*
Y-20520D01*
X86868Y-21526D01*
X87388Y-22427D01*
X88124Y-23163D01*
X89025Y-23683D01*
X90031Y-23953D01*
X91072D01*
X92077Y-23683D01*
X92978Y-23163D01*
X93714Y-22427D01*
X94235Y-21526D01*
X94504Y-20520D01*
X95000Y-20530D01*
Y-25000D01*
X15000D01*
X5000Y-35000D01*
X-10000D01*
Y-35500D01*
X-11152D01*
X-11202Y-35399D01*
X-11253Y-35355D01*
X-11290Y-35299D01*
X-11401Y-35225D01*
X-11501Y-35137D01*
X-11565Y-35115D01*
X-11621Y-35078D01*
X-11752Y-35052D01*
X-11878Y-35009D01*
X-11945Y-35013D01*
X-12011Y-35000D01*
X-15000D01*
X-15390Y-35078D01*
X-15721Y-35299D01*
X-15942Y-35629D01*
X-16020Y-36020D01*
X-45000Y-65000D01*
X-108500D01*
Y-66047D01*
X-108946D01*
X-109951Y-66317D01*
X-110852Y-66837D01*
X-111588Y-67573D01*
X-112109Y-68474D01*
X-112378Y-69480D01*
Y-70520D01*
X-112109Y-71526D01*
X-111588Y-72427D01*
X-111258Y-72758D01*
X-126868Y-88368D01*
X-127316Y-88109D01*
X-127138Y-87443D01*
Y-86557D01*
X-127367Y-85702D01*
X-127810Y-84936D01*
X-128436Y-84310D01*
X-129202Y-83867D01*
X-130057Y-83638D01*
X-130943D01*
X-131798Y-83867D01*
X-132564Y-84310D01*
X-133190Y-84936D01*
X-133633Y-85702D01*
X-133862Y-86557D01*
Y-87443D01*
X-133633Y-88298D01*
X-133190Y-89064D01*
X-132564Y-89690D01*
X-131798Y-90133D01*
X-130943Y-90362D01*
X-130057D01*
X-129391Y-90184D01*
X-129132Y-90632D01*
X-146000Y-107500D01*
Y-181896D01*
X-267500D01*
Y-115000D01*
X-245500D01*
Y-163640D01*
X-196000D01*
Y-115000D01*
X-166000Y-85000D01*
X-148500D01*
X-112806Y-49306D01*
X-112378Y-49585D01*
Y-50520D01*
X-112109Y-51526D01*
X-111588Y-52427D01*
X-110852Y-53163D01*
X-110500Y-53366D01*
X-109951Y-53683D01*
X-108946Y-53953D01*
X-107905D01*
X-106899Y-53683D01*
X-105998Y-53163D01*
X-105262Y-52427D01*
X-104742Y-51526D01*
X-104472Y-50520D01*
Y-49480D01*
X-104742Y-48474D01*
X-105262Y-47573D01*
X-105835Y-47000D01*
X-105628Y-46500D01*
X-101222D01*
X-101015Y-47000D01*
X-101588Y-47573D01*
X-102109Y-48474D01*
X-102378Y-49480D01*
Y-50520D01*
X-102109Y-51526D01*
X-101588Y-52427D01*
X-100852Y-53163D01*
X-99951Y-53683D01*
X-98946Y-53953D01*
X-97905D01*
X-96899Y-53683D01*
X-95998Y-53163D01*
X-95262Y-52427D01*
X-94742Y-51526D01*
X-94472Y-50520D01*
Y-49480D01*
X-94742Y-48474D01*
X-95262Y-47573D01*
X-95835Y-47000D01*
X-95628Y-46500D01*
X-89500D01*
X-31104Y11896D01*
X95000D01*
Y3962D01*
D02*
G37*
G36*
X-91000Y-25000D02*
X-153519D01*
X-153542Y-24975D01*
X-153632Y-24483D01*
X-153608Y-24383D01*
X-153058Y-23832D01*
X-152607Y-23953D01*
X-151567D01*
X-150561Y-23683D01*
X-149660Y-23163D01*
X-148924Y-22427D01*
X-148404Y-21526D01*
X-148134Y-20520D01*
Y-19480D01*
X-148404Y-18474D01*
X-148924Y-17573D01*
X-149660Y-16837D01*
X-150561Y-16317D01*
X-151567Y-16047D01*
X-152607D01*
X-153613Y-16317D01*
X-154514Y-16837D01*
X-155250Y-17573D01*
X-155770Y-18474D01*
X-156040Y-19480D01*
Y-20520D01*
X-155919Y-20971D01*
X-157649Y-22701D01*
X-158522D01*
X-158793Y-22201D01*
X-158404Y-21526D01*
X-158134Y-20520D01*
Y-19480D01*
X-158404Y-18474D01*
X-158924Y-17573D01*
X-159660Y-16837D01*
X-160561Y-16317D01*
X-161566Y-16047D01*
X-162607D01*
X-163613Y-16317D01*
X-164514Y-16837D01*
X-165250Y-17573D01*
X-165770Y-18474D01*
X-166040Y-19480D01*
Y-20520D01*
X-165770Y-21526D01*
X-165380Y-22201D01*
X-165651Y-22701D01*
X-180239D01*
X-180446Y-22201D01*
X-180310Y-22064D01*
X-179867Y-21298D01*
X-179638Y-20443D01*
Y-19557D01*
X-179867Y-18702D01*
X-180310Y-17936D01*
X-180936Y-17310D01*
X-181702Y-16867D01*
X-182557Y-16638D01*
X-183443D01*
X-184298Y-16867D01*
X-185064Y-17310D01*
X-185690Y-17936D01*
X-186133Y-18702D01*
X-186362Y-19557D01*
Y-20443D01*
X-186133Y-21298D01*
X-185690Y-22064D01*
X-185554Y-22201D01*
X-185761Y-22701D01*
X-187224D01*
X-187999Y-22855D01*
X-188655Y-23294D01*
X-190361Y-25000D01*
X-200878D01*
X-200950Y-24928D01*
X-201920Y-24280D01*
X-202997Y-23834D01*
X-204141Y-23606D01*
X-205308D01*
X-206452Y-23834D01*
X-207529Y-24280D01*
X-208499Y-24928D01*
X-208571Y-25000D01*
X-220563D01*
X-220635Y-24928D01*
X-221605Y-24280D01*
X-222682Y-23834D01*
X-223826Y-23606D01*
X-224993D01*
X-226137Y-23834D01*
X-227214Y-24280D01*
X-228184Y-24928D01*
X-228256Y-25000D01*
X-267000D01*
Y11896D01*
X-91000D01*
Y-25000D01*
D02*
G37*
G36*
X95003Y-26022D02*
X95321Y-126317D01*
X95470Y-173683D01*
X95495Y-181542D01*
X95142Y-181896D01*
X-113500D01*
Y-181500D01*
Y-85355D01*
Y-85000D01*
X-89029D01*
Y-85254D01*
D01*
Y-111000D01*
X-88913Y-111585D01*
X-88581Y-112081D01*
X-88085Y-112413D01*
X-87500Y-112529D01*
X-38500D01*
X-37915Y-112413D01*
X-37419Y-112081D01*
X-22419Y-97081D01*
X-22087Y-96585D01*
X-21971Y-96000D01*
X-22087Y-95415D01*
X-22419Y-94919D01*
X-22915Y-94587D01*
X-23500Y-94471D01*
X-41000D01*
X-41585Y-94587D01*
X-42081Y-94919D01*
X-47633Y-100471D01*
X-75971D01*
Y-81029D01*
X-46633D01*
X-41581Y-86081D01*
X-41085Y-86413D01*
X-40500Y-86529D01*
X-24000D01*
X-23415Y-86413D01*
X-22919Y-86081D01*
X-22587Y-85585D01*
X-22471Y-85000D01*
X-22587Y-84415D01*
X-22919Y-83919D01*
X-37919Y-68919D01*
X-38415Y-68587D01*
X-39000Y-68471D01*
X-42317D01*
X-42509Y-68009D01*
X-15000Y-40500D01*
Y-36120D01*
Y-36020D01*
X-12011D01*
X-11877Y-36520D01*
X-12427Y-36837D01*
X-13163Y-37573D01*
X-13683Y-38474D01*
X-13953Y-39480D01*
Y-40520D01*
X-13683Y-41526D01*
X-13163Y-42427D01*
X-12427Y-43163D01*
X-11526Y-43683D01*
X-10520Y-43953D01*
X-9480D01*
X-8474Y-43683D01*
X-7573Y-43163D01*
X-6837Y-42427D01*
X-6317Y-41526D01*
X-6047Y-40520D01*
Y-39480D01*
X-6317Y-38474D01*
X-6837Y-37573D01*
X-7573Y-36837D01*
X-8123Y-36520D01*
X-7989Y-36020D01*
X-2011D01*
X-1877Y-36520D01*
X-2427Y-36837D01*
X-3163Y-37573D01*
X-3683Y-38474D01*
X-3953Y-39480D01*
Y-40520D01*
X-3683Y-41526D01*
X-3163Y-42427D01*
X-2427Y-43163D01*
X-1526Y-43683D01*
X-520Y-43953D01*
X520D01*
X1526Y-43683D01*
X2427Y-43163D01*
X3163Y-42427D01*
X3683Y-41526D01*
X3953Y-40520D01*
Y-39480D01*
X3683Y-38474D01*
X3163Y-37573D01*
X2427Y-36837D01*
X1877Y-36520D01*
X2011Y-36020D01*
X5000D01*
X5390Y-35942D01*
X5721Y-35721D01*
X15422Y-26020D01*
X67018D01*
X67225Y-26520D01*
X66810Y-26936D01*
X66367Y-27702D01*
X66138Y-28557D01*
Y-29443D01*
X66367Y-30298D01*
X66810Y-31064D01*
X67436Y-31690D01*
X68202Y-32133D01*
X69057Y-32362D01*
X69943D01*
X70798Y-32133D01*
X71564Y-31690D01*
X72190Y-31064D01*
X72633Y-30298D01*
X72862Y-29443D01*
Y-28557D01*
X72633Y-27702D01*
X72190Y-26936D01*
X71775Y-26520D01*
X71982Y-26020D01*
X78540D01*
X78674Y-26520D01*
X78124Y-26837D01*
X77388Y-27573D01*
X76868Y-28474D01*
X76598Y-29480D01*
Y-30520D01*
X76868Y-31526D01*
X77388Y-32427D01*
X78124Y-33163D01*
X79026Y-33683D01*
X80031Y-33953D01*
X81072D01*
X82077Y-33683D01*
X82978Y-33163D01*
X83714Y-32427D01*
X84235Y-31526D01*
X84504Y-30520D01*
Y-29480D01*
X84235Y-28474D01*
X83714Y-27573D01*
X82978Y-26837D01*
X82428Y-26520D01*
X82562Y-26020D01*
X88540D01*
X88674Y-26520D01*
X88124Y-26837D01*
X87388Y-27573D01*
X86868Y-28474D01*
X86598Y-29480D01*
Y-30520D01*
X86868Y-31526D01*
X87388Y-32427D01*
X88124Y-33163D01*
X89025Y-33683D01*
X90031Y-33953D01*
X91072D01*
X92077Y-33683D01*
X92978Y-33163D01*
X93714Y-32427D01*
X94235Y-31526D01*
X94504Y-30520D01*
Y-29480D01*
X94235Y-28474D01*
X93714Y-27573D01*
X92978Y-26837D01*
X92428Y-26520D01*
X92562Y-26020D01*
X95000D01*
X95003Y-26022D01*
D02*
G37*
G36*
X-154293Y-25721D02*
X-153963Y-25942D01*
X-153876Y-26469D01*
X-154514Y-26837D01*
X-155250Y-27573D01*
X-155770Y-28474D01*
X-156040Y-29480D01*
Y-30520D01*
X-155770Y-31526D01*
X-155250Y-32427D01*
X-154514Y-33163D01*
X-153613Y-33683D01*
X-152607Y-33953D01*
X-151567D01*
X-150561Y-33683D01*
X-149660Y-33163D01*
X-148924Y-32427D01*
X-148404Y-31526D01*
X-148134Y-30520D01*
Y-29480D01*
X-148404Y-28474D01*
X-148924Y-27573D01*
X-149660Y-26837D01*
X-150210Y-26520D01*
X-150076Y-26020D01*
X-110436D01*
X-110302Y-26520D01*
X-110852Y-26837D01*
X-111588Y-27573D01*
X-112109Y-28474D01*
X-112378Y-29480D01*
Y-30520D01*
X-112109Y-31526D01*
X-111588Y-32427D01*
X-110852Y-33163D01*
X-109951Y-33683D01*
X-108946Y-33953D01*
X-107905D01*
X-106899Y-33683D01*
X-105998Y-33163D01*
X-105262Y-32427D01*
X-104742Y-31526D01*
X-104472Y-30520D01*
Y-29480D01*
X-104742Y-28474D01*
X-105262Y-27573D01*
X-105998Y-26837D01*
X-106548Y-26520D01*
X-106414Y-26020D01*
X-100436D01*
X-100303Y-26520D01*
X-100852Y-26837D01*
X-101588Y-27573D01*
X-102109Y-28474D01*
X-102378Y-29480D01*
Y-30520D01*
X-102109Y-31526D01*
X-101588Y-32427D01*
X-100852Y-33163D01*
X-99951Y-33683D01*
X-98946Y-33953D01*
X-97905D01*
X-96899Y-33683D01*
X-95998Y-33163D01*
X-95262Y-32427D01*
X-94742Y-31526D01*
X-94472Y-30520D01*
Y-29480D01*
X-94742Y-28474D01*
X-95262Y-27573D01*
X-95998Y-26837D01*
X-96548Y-26520D01*
X-96414Y-26020D01*
X-91000D01*
X-90500Y-26424D01*
Y-44000D01*
X-96448D01*
X-96582Y-43500D01*
X-95998Y-43163D01*
X-95262Y-42427D01*
X-94742Y-41526D01*
X-94472Y-40520D01*
Y-39480D01*
X-94742Y-38474D01*
X-95262Y-37573D01*
X-95998Y-36837D01*
X-96899Y-36317D01*
X-97905Y-36047D01*
X-98946D01*
X-99951Y-36317D01*
X-100852Y-36837D01*
X-101588Y-37573D01*
X-102109Y-38474D01*
X-102378Y-39480D01*
Y-40520D01*
X-102109Y-41526D01*
X-101588Y-42427D01*
X-100852Y-43163D01*
X-100268Y-43500D01*
X-100402Y-44000D01*
X-106448D01*
X-106582Y-43500D01*
X-105998Y-43163D01*
X-105262Y-42427D01*
X-104742Y-41526D01*
X-104472Y-40520D01*
Y-39480D01*
X-104742Y-38474D01*
X-105262Y-37573D01*
X-105998Y-36837D01*
X-106899Y-36317D01*
X-107905Y-36047D01*
X-108946D01*
X-109951Y-36317D01*
X-110852Y-36837D01*
X-111588Y-37573D01*
X-112109Y-38474D01*
X-112378Y-39480D01*
Y-40520D01*
X-112109Y-41526D01*
X-111588Y-42427D01*
X-110852Y-43163D01*
X-110268Y-43500D01*
X-110403Y-44000D01*
X-111000D01*
X-131500Y-64500D01*
X-267500D01*
Y-44500D01*
X-228778D01*
X-228571Y-45000D01*
X-229009Y-45438D01*
X-229657Y-46408D01*
X-230103Y-47485D01*
X-230331Y-48629D01*
Y-49796D01*
X-230103Y-50940D01*
X-229657Y-52017D01*
X-229009Y-52987D01*
X-228184Y-53812D01*
X-227214Y-54460D01*
X-226137Y-54906D01*
X-224993Y-55134D01*
X-223826D01*
X-222682Y-54906D01*
X-221605Y-54460D01*
X-220635Y-53812D01*
X-219810Y-52987D01*
X-219162Y-52017D01*
X-218716Y-50940D01*
X-218488Y-49796D01*
Y-48629D01*
X-218716Y-47485D01*
X-219162Y-46408D01*
X-219810Y-45438D01*
X-220248Y-45000D01*
X-220041Y-44500D01*
X-217547D01*
X-217372Y-44617D01*
X-216294Y-45064D01*
X-215150Y-45291D01*
X-213984D01*
X-212840Y-45064D01*
X-211762Y-44617D01*
X-211586Y-44500D01*
X-209093D01*
X-208886Y-45000D01*
X-209324Y-45438D01*
X-209972Y-46408D01*
X-210418Y-47485D01*
X-210646Y-48629D01*
Y-49796D01*
X-210418Y-50940D01*
X-209972Y-52017D01*
X-209324Y-52987D01*
X-208499Y-53812D01*
X-207529Y-54460D01*
X-206452Y-54906D01*
X-205308Y-55134D01*
X-204141D01*
X-202997Y-54906D01*
X-201920Y-54460D01*
X-200950Y-53812D01*
X-200125Y-52987D01*
X-199477Y-52017D01*
X-199031Y-50940D01*
X-198803Y-49796D01*
Y-48629D01*
X-199031Y-47485D01*
X-199477Y-46408D01*
X-200125Y-45438D01*
X-200563Y-45000D01*
X-200356Y-44500D01*
X-197000D01*
X-179247Y-26748D01*
X-173918D01*
X-173852Y-27248D01*
X-174298Y-27367D01*
X-175064Y-27810D01*
X-175690Y-28436D01*
X-176133Y-29202D01*
X-176362Y-30057D01*
Y-30943D01*
X-176133Y-31798D01*
X-175690Y-32564D01*
X-175064Y-33190D01*
X-174298Y-33633D01*
X-173443Y-33862D01*
X-172557D01*
X-171702Y-33633D01*
X-170936Y-33190D01*
X-170310Y-32564D01*
X-169867Y-31798D01*
X-169638Y-30943D01*
Y-30057D01*
X-169867Y-29202D01*
X-170310Y-28436D01*
X-170936Y-27810D01*
X-171702Y-27367D01*
X-172148Y-27248D01*
X-172082Y-26748D01*
X-165131D01*
X-164924Y-27248D01*
X-165250Y-27573D01*
X-165770Y-28474D01*
X-166040Y-29480D01*
Y-30520D01*
X-165770Y-31526D01*
X-165250Y-32427D01*
X-164514Y-33163D01*
X-163613Y-33683D01*
X-162607Y-33953D01*
X-161566D01*
X-160561Y-33683D01*
X-159660Y-33163D01*
X-158924Y-32427D01*
X-158404Y-31526D01*
X-158134Y-30520D01*
Y-29480D01*
X-158404Y-28474D01*
X-158924Y-27573D01*
X-159249Y-27248D01*
X-159042Y-26748D01*
X-156811D01*
X-156037Y-26594D01*
X-155381Y-26155D01*
X-154915Y-25690D01*
X-154293Y-25721D01*
D02*
G37*
%LPC*%
G36*
X69443Y5362D02*
X68557D01*
X67702Y5133D01*
X66936Y4690D01*
X66310Y4064D01*
X65867Y3298D01*
X65638Y2443D01*
Y1557D01*
X65867Y702D01*
X66310Y-64D01*
X66936Y-690D01*
X67702Y-1133D01*
X68557Y-1362D01*
X69443D01*
X70298Y-1133D01*
X71064Y-690D01*
X71690Y-64D01*
X72133Y702D01*
X72362Y1557D01*
Y2443D01*
X72133Y3298D01*
X71690Y4064D01*
X71064Y4690D01*
X70298Y5133D01*
X69443Y5362D01*
D02*
G37*
G36*
X81072Y3953D02*
X80031D01*
X79026Y3683D01*
X78124Y3163D01*
X77388Y2427D01*
X76868Y1526D01*
X76598Y520D01*
Y-520D01*
X76868Y-1526D01*
X77388Y-2427D01*
X78124Y-3163D01*
X79026Y-3683D01*
X80031Y-3953D01*
X81072D01*
X82077Y-3683D01*
X82978Y-3163D01*
X83714Y-2427D01*
X84235Y-1526D01*
X84504Y-520D01*
Y520D01*
X84235Y1526D01*
X83714Y2427D01*
X82978Y3163D01*
X82077Y3683D01*
X81072Y3953D01*
D02*
G37*
G36*
X3953D02*
X-3953D01*
Y-3953D01*
X3953D01*
Y3953D01*
D02*
G37*
G36*
X-9480D02*
X-10520D01*
X-11526Y3683D01*
X-12427Y3163D01*
X-13163Y2427D01*
X-13683Y1526D01*
X-13953Y520D01*
Y-520D01*
X-13683Y-1526D01*
X-13163Y-2427D01*
X-12427Y-3163D01*
X-11526Y-3683D01*
X-10520Y-3953D01*
X-9480D01*
X-8474Y-3683D01*
X-7573Y-3163D01*
X-6837Y-2427D01*
X-6317Y-1526D01*
X-6047Y-520D01*
Y520D01*
X-6317Y1526D01*
X-6837Y2427D01*
X-7573Y3163D01*
X-8474Y3683D01*
X-9480Y3953D01*
D02*
G37*
G36*
X81072Y-6047D02*
X80031D01*
X79026Y-6317D01*
X78124Y-6837D01*
X77388Y-7573D01*
X76868Y-8474D01*
X76598Y-9480D01*
Y-10520D01*
X76868Y-11526D01*
X77388Y-12427D01*
X78124Y-13163D01*
X79026Y-13683D01*
X80031Y-13953D01*
X81072D01*
X82077Y-13683D01*
X82978Y-13163D01*
X83714Y-12427D01*
X84235Y-11526D01*
X84504Y-10520D01*
Y-9480D01*
X84235Y-8474D01*
X83714Y-7573D01*
X82978Y-6837D01*
X82077Y-6317D01*
X81072Y-6047D01*
D02*
G37*
G36*
X520D02*
X-520D01*
X-1526Y-6317D01*
X-2427Y-6837D01*
X-3163Y-7573D01*
X-3683Y-8474D01*
X-3953Y-9480D01*
Y-10520D01*
X-3683Y-11526D01*
X-3163Y-12427D01*
X-2427Y-13163D01*
X-1526Y-13683D01*
X-520Y-13953D01*
X520D01*
X1526Y-13683D01*
X2427Y-13163D01*
X3163Y-12427D01*
X3683Y-11526D01*
X3953Y-10520D01*
Y-9480D01*
X3683Y-8474D01*
X3163Y-7573D01*
X2427Y-6837D01*
X1526Y-6317D01*
X520Y-6047D01*
D02*
G37*
G36*
X-9480D02*
X-10520D01*
X-11526Y-6317D01*
X-12427Y-6837D01*
X-13163Y-7573D01*
X-13683Y-8474D01*
X-13953Y-9480D01*
Y-10520D01*
X-13683Y-11526D01*
X-13163Y-12427D01*
X-12427Y-13163D01*
X-11526Y-13683D01*
X-10520Y-13953D01*
X-9480D01*
X-8474Y-13683D01*
X-7573Y-13163D01*
X-6837Y-12427D01*
X-6317Y-11526D01*
X-6047Y-10520D01*
Y-9480D01*
X-6317Y-8474D01*
X-6837Y-7573D01*
X-7573Y-6837D01*
X-8474Y-6317D01*
X-9480Y-6047D01*
D02*
G37*
G36*
X-24057Y-14638D02*
X-24943D01*
X-25798Y-14867D01*
X-26564Y-15310D01*
X-27190Y-15936D01*
X-27633Y-16702D01*
X-27862Y-17557D01*
Y-18443D01*
X-27633Y-19298D01*
X-27190Y-20064D01*
X-26564Y-20690D01*
X-25798Y-21133D01*
X-24943Y-21362D01*
X-24057D01*
X-23202Y-21133D01*
X-22436Y-20690D01*
X-21810Y-20064D01*
X-21367Y-19298D01*
X-21138Y-18443D01*
Y-17557D01*
X-21367Y-16702D01*
X-21810Y-15936D01*
X-22436Y-15310D01*
X-23202Y-14867D01*
X-24057Y-14638D01*
D02*
G37*
G36*
X56943Y-16638D02*
X56057D01*
X55202Y-16867D01*
X54436Y-17310D01*
X53810Y-17936D01*
X53367Y-18702D01*
X53138Y-19557D01*
Y-20443D01*
X53367Y-21298D01*
X53810Y-22064D01*
X54436Y-22690D01*
X55202Y-23133D01*
X56057Y-23362D01*
X56943D01*
X57798Y-23133D01*
X58564Y-22690D01*
X59190Y-22064D01*
X59633Y-21298D01*
X59862Y-20443D01*
Y-19557D01*
X59633Y-18702D01*
X59190Y-17936D01*
X58564Y-17310D01*
X57798Y-16867D01*
X56943Y-16638D01*
D02*
G37*
G36*
X81072Y-16047D02*
X80031D01*
X79026Y-16317D01*
X78124Y-16837D01*
X77388Y-17573D01*
X76868Y-18474D01*
X76598Y-19480D01*
Y-20520D01*
X76868Y-21526D01*
X77388Y-22427D01*
X78124Y-23163D01*
X79026Y-23683D01*
X80031Y-23953D01*
X81072D01*
X82077Y-23683D01*
X82978Y-23163D01*
X83714Y-22427D01*
X84235Y-21526D01*
X84504Y-20520D01*
Y-19480D01*
X84235Y-18474D01*
X83714Y-17573D01*
X82978Y-16837D01*
X82077Y-16317D01*
X81072Y-16047D01*
D02*
G37*
G36*
X520D02*
X-520D01*
X-1526Y-16317D01*
X-2427Y-16837D01*
X-3163Y-17573D01*
X-3683Y-18474D01*
X-3953Y-19480D01*
Y-20520D01*
X-3683Y-21526D01*
X-3163Y-22427D01*
X-2427Y-23163D01*
X-1526Y-23683D01*
X-520Y-23953D01*
X520D01*
X1526Y-23683D01*
X2427Y-23163D01*
X3163Y-22427D01*
X3683Y-21526D01*
X3953Y-20520D01*
Y-19480D01*
X3683Y-18474D01*
X3163Y-17573D01*
X2427Y-16837D01*
X1526Y-16317D01*
X520Y-16047D01*
D02*
G37*
G36*
X-9480D02*
X-10520D01*
X-11526Y-16317D01*
X-12427Y-16837D01*
X-13163Y-17573D01*
X-13683Y-18474D01*
X-13953Y-19480D01*
Y-20520D01*
X-13683Y-21526D01*
X-13163Y-22427D01*
X-12427Y-23163D01*
X-11526Y-23683D01*
X-10520Y-23953D01*
X-9480D01*
X-8474Y-23683D01*
X-7573Y-23163D01*
X-6837Y-22427D01*
X-6317Y-21526D01*
X-6047Y-20520D01*
Y-19480D01*
X-6317Y-18474D01*
X-6837Y-17573D01*
X-7573Y-16837D01*
X-8474Y-16317D01*
X-9480Y-16047D01*
D02*
G37*
G36*
X520Y-26047D02*
X-520D01*
X-1526Y-26317D01*
X-2427Y-26837D01*
X-3163Y-27573D01*
X-3683Y-28474D01*
X-3953Y-29480D01*
Y-30520D01*
X-3683Y-31526D01*
X-3163Y-32427D01*
X-2427Y-33163D01*
X-1526Y-33683D01*
X-520Y-33953D01*
X520D01*
X1526Y-33683D01*
X2427Y-33163D01*
X3163Y-32427D01*
X3683Y-31526D01*
X3953Y-30520D01*
Y-29480D01*
X3683Y-28474D01*
X3163Y-27573D01*
X2427Y-26837D01*
X1526Y-26317D01*
X520Y-26047D01*
D02*
G37*
G36*
X-9480D02*
X-10520D01*
X-11526Y-26317D01*
X-12427Y-26837D01*
X-13163Y-27573D01*
X-13683Y-28474D01*
X-13953Y-29480D01*
Y-30520D01*
X-13683Y-31526D01*
X-13163Y-32427D01*
X-12427Y-33163D01*
X-11526Y-33683D01*
X-10520Y-33953D01*
X-9480D01*
X-8474Y-33683D01*
X-7573Y-33163D01*
X-6837Y-32427D01*
X-6317Y-31526D01*
X-6047Y-30520D01*
Y-29480D01*
X-6317Y-28474D01*
X-6837Y-27573D01*
X-7573Y-26837D01*
X-8474Y-26317D01*
X-9480Y-26047D01*
D02*
G37*
G36*
X-97905Y-56047D02*
X-98946D01*
X-99951Y-56317D01*
X-100852Y-56837D01*
X-101588Y-57573D01*
X-102109Y-58474D01*
X-102378Y-59480D01*
Y-60520D01*
X-102109Y-61526D01*
X-101588Y-62427D01*
X-100852Y-63163D01*
X-99951Y-63683D01*
X-98946Y-63953D01*
X-97905D01*
X-96899Y-63683D01*
X-95998Y-63163D01*
X-95262Y-62427D01*
X-94742Y-61526D01*
X-94472Y-60520D01*
Y-59480D01*
X-94742Y-58474D01*
X-95262Y-57573D01*
X-95998Y-56837D01*
X-96899Y-56317D01*
X-97905Y-56047D01*
D02*
G37*
G36*
X-107905D02*
X-108946D01*
X-109951Y-56317D01*
X-110852Y-56837D01*
X-111588Y-57573D01*
X-112109Y-58474D01*
X-112378Y-59480D01*
Y-60520D01*
X-112109Y-61526D01*
X-111588Y-62427D01*
X-110852Y-63163D01*
X-110500Y-63366D01*
X-109951Y-63683D01*
X-108946Y-63953D01*
X-107905D01*
X-106899Y-63683D01*
X-105998Y-63163D01*
X-105262Y-62427D01*
X-104742Y-61526D01*
X-104472Y-60520D01*
Y-59480D01*
X-104742Y-58474D01*
X-105262Y-57573D01*
X-105998Y-56837D01*
X-106899Y-56317D01*
X-107905Y-56047D01*
D02*
G37*
G36*
X-151567Y-86047D02*
X-152607D01*
X-153613Y-86317D01*
X-154514Y-86837D01*
X-155250Y-87573D01*
X-155770Y-88474D01*
X-156040Y-89480D01*
Y-90520D01*
X-155770Y-91526D01*
X-155250Y-92427D01*
X-154514Y-93163D01*
X-153613Y-93683D01*
X-152607Y-93953D01*
X-151567D01*
X-150561Y-93683D01*
X-149660Y-93163D01*
X-148924Y-92427D01*
X-148404Y-91526D01*
X-148134Y-90520D01*
Y-89480D01*
X-148404Y-88474D01*
X-148924Y-87573D01*
X-149660Y-86837D01*
X-150561Y-86317D01*
X-151567Y-86047D01*
D02*
G37*
G36*
X-161566D02*
X-162607D01*
X-163613Y-86317D01*
X-164514Y-86837D01*
X-165250Y-87573D01*
X-165770Y-88474D01*
X-166040Y-89480D01*
Y-90520D01*
X-165770Y-91526D01*
X-165250Y-92427D01*
X-164514Y-93163D01*
X-163613Y-93683D01*
X-162607Y-93953D01*
X-161566D01*
X-160561Y-93683D01*
X-159660Y-93163D01*
X-158924Y-92427D01*
X-158404Y-91526D01*
X-158134Y-90520D01*
Y-89480D01*
X-158404Y-88474D01*
X-158924Y-87573D01*
X-159660Y-86837D01*
X-160561Y-86317D01*
X-161566Y-86047D01*
D02*
G37*
G36*
X-151567Y-96047D02*
X-152607D01*
X-153613Y-96317D01*
X-154514Y-96837D01*
X-155250Y-97573D01*
X-155770Y-98474D01*
X-156040Y-99480D01*
Y-100520D01*
X-155770Y-101526D01*
X-155250Y-102427D01*
X-154514Y-103163D01*
X-153613Y-103683D01*
X-152607Y-103953D01*
X-151567D01*
X-150561Y-103683D01*
X-149660Y-103163D01*
X-148924Y-102427D01*
X-148404Y-101526D01*
X-148134Y-100520D01*
Y-99480D01*
X-148404Y-98474D01*
X-148924Y-97573D01*
X-149660Y-96837D01*
X-150561Y-96317D01*
X-151567Y-96047D01*
D02*
G37*
G36*
X-161566D02*
X-162607D01*
X-163613Y-96317D01*
X-164514Y-96837D01*
X-165250Y-97573D01*
X-165770Y-98474D01*
X-166040Y-99480D01*
Y-100520D01*
X-165770Y-101526D01*
X-165250Y-102427D01*
X-164514Y-103163D01*
X-163613Y-103683D01*
X-162607Y-103953D01*
X-161566D01*
X-160561Y-103683D01*
X-159660Y-103163D01*
X-158924Y-102427D01*
X-158404Y-101526D01*
X-158134Y-100520D01*
Y-99480D01*
X-158404Y-98474D01*
X-158924Y-97573D01*
X-159660Y-96837D01*
X-160561Y-96317D01*
X-161566Y-96047D01*
D02*
G37*
G36*
X-151567Y-106047D02*
X-152607D01*
X-153613Y-106317D01*
X-154514Y-106837D01*
X-155250Y-107573D01*
X-155770Y-108474D01*
X-156040Y-109480D01*
Y-110520D01*
X-155770Y-111526D01*
X-155250Y-112427D01*
X-154514Y-113163D01*
X-153613Y-113683D01*
X-152607Y-113953D01*
X-151567D01*
X-150561Y-113683D01*
X-149660Y-113163D01*
X-148924Y-112427D01*
X-148404Y-111526D01*
X-148134Y-110520D01*
Y-109480D01*
X-148404Y-108474D01*
X-148924Y-107573D01*
X-149660Y-106837D01*
X-150561Y-106317D01*
X-151567Y-106047D01*
D02*
G37*
G36*
X-161566D02*
X-162607D01*
X-163613Y-106317D01*
X-164514Y-106837D01*
X-165250Y-107573D01*
X-165770Y-108474D01*
X-166040Y-109480D01*
Y-110520D01*
X-165770Y-111526D01*
X-165250Y-112427D01*
X-164514Y-113163D01*
X-163613Y-113683D01*
X-162607Y-113953D01*
X-161566D01*
X-160561Y-113683D01*
X-159660Y-113163D01*
X-158924Y-112427D01*
X-158404Y-111526D01*
X-158134Y-110520D01*
Y-109480D01*
X-158404Y-108474D01*
X-158924Y-107573D01*
X-159660Y-106837D01*
X-160561Y-106317D01*
X-161566Y-106047D01*
D02*
G37*
G36*
X-185557Y-112638D02*
X-186443D01*
X-187298Y-112867D01*
X-188064Y-113310D01*
X-188690Y-113936D01*
X-189133Y-114702D01*
X-189362Y-115557D01*
Y-116443D01*
X-189133Y-117298D01*
X-188690Y-118064D01*
X-188064Y-118690D01*
X-187298Y-119133D01*
X-186443Y-119362D01*
X-185557D01*
X-184702Y-119133D01*
X-183936Y-118690D01*
X-183310Y-118064D01*
X-182867Y-117298D01*
X-182638Y-116443D01*
Y-115557D01*
X-182867Y-114702D01*
X-183310Y-113936D01*
X-183936Y-113310D01*
X-184702Y-112867D01*
X-185557Y-112638D01*
D02*
G37*
G36*
X-151567Y-116047D02*
X-152607D01*
X-153613Y-116317D01*
X-154514Y-116837D01*
X-155250Y-117573D01*
X-155770Y-118474D01*
X-156040Y-119480D01*
Y-120520D01*
X-155770Y-121526D01*
X-155250Y-122427D01*
X-154514Y-123163D01*
X-153613Y-123683D01*
X-152607Y-123953D01*
X-151567D01*
X-150561Y-123683D01*
X-149660Y-123163D01*
X-148924Y-122427D01*
X-148404Y-121526D01*
X-148134Y-120520D01*
Y-119480D01*
X-148404Y-118474D01*
X-148924Y-117573D01*
X-149660Y-116837D01*
X-150561Y-116317D01*
X-151567Y-116047D01*
D02*
G37*
G36*
X-161566D02*
X-162607D01*
X-163613Y-116317D01*
X-164514Y-116837D01*
X-165250Y-117573D01*
X-165770Y-118474D01*
X-166040Y-119480D01*
Y-120520D01*
X-165770Y-121526D01*
X-165250Y-122427D01*
X-164514Y-123163D01*
X-163613Y-123683D01*
X-162607Y-123953D01*
X-161566D01*
X-160561Y-123683D01*
X-159660Y-123163D01*
X-158924Y-122427D01*
X-158404Y-121526D01*
X-158134Y-120520D01*
Y-119480D01*
X-158404Y-118474D01*
X-158924Y-117573D01*
X-159660Y-116837D01*
X-160561Y-116317D01*
X-161566Y-116047D01*
D02*
G37*
G36*
X-251251D02*
X-252292D01*
X-253297Y-116317D01*
X-254199Y-116837D01*
X-254935Y-117573D01*
X-255455Y-118474D01*
X-255724Y-119480D01*
Y-120520D01*
X-255455Y-121526D01*
X-254935Y-122427D01*
X-254199Y-123163D01*
X-253297Y-123683D01*
X-252292Y-123953D01*
X-251251D01*
X-250246Y-123683D01*
X-249345Y-123163D01*
X-248609Y-122427D01*
X-248088Y-121526D01*
X-247819Y-120520D01*
Y-119480D01*
X-248088Y-118474D01*
X-248609Y-117573D01*
X-249345Y-116837D01*
X-250246Y-116317D01*
X-251251Y-116047D01*
D02*
G37*
G36*
X-261251D02*
X-262292D01*
X-263297Y-116317D01*
X-264199Y-116837D01*
X-264935Y-117573D01*
X-265455Y-118474D01*
X-265724Y-119480D01*
Y-120520D01*
X-265455Y-121526D01*
X-264935Y-122427D01*
X-264199Y-123163D01*
X-263297Y-123683D01*
X-262292Y-123953D01*
X-261251D01*
X-260246Y-123683D01*
X-259345Y-123163D01*
X-258609Y-122427D01*
X-258088Y-121526D01*
X-257819Y-120520D01*
Y-119480D01*
X-258088Y-118474D01*
X-258609Y-117573D01*
X-259345Y-116837D01*
X-260246Y-116317D01*
X-261251Y-116047D01*
D02*
G37*
G36*
X-181557Y-120638D02*
X-182443D01*
X-183298Y-120867D01*
X-184064Y-121310D01*
X-184690Y-121936D01*
X-185133Y-122702D01*
X-185362Y-123557D01*
Y-124443D01*
X-185133Y-125298D01*
X-184690Y-126064D01*
X-184064Y-126690D01*
X-183298Y-127133D01*
X-182443Y-127362D01*
X-181557D01*
X-180702Y-127133D01*
X-179936Y-126690D01*
X-179310Y-126064D01*
X-178867Y-125298D01*
X-178638Y-124443D01*
Y-123557D01*
X-178867Y-122702D01*
X-179310Y-121936D01*
X-179936Y-121310D01*
X-180702Y-120867D01*
X-181557Y-120638D01*
D02*
G37*
G36*
X-151567Y-126047D02*
X-152607D01*
X-153613Y-126317D01*
X-154514Y-126837D01*
X-155250Y-127573D01*
X-155770Y-128474D01*
X-156040Y-129480D01*
Y-130520D01*
X-155770Y-131526D01*
X-155250Y-132427D01*
X-154514Y-133163D01*
X-153613Y-133683D01*
X-152607Y-133953D01*
X-151567D01*
X-150561Y-133683D01*
X-149660Y-133163D01*
X-148924Y-132427D01*
X-148404Y-131526D01*
X-148134Y-130520D01*
Y-129480D01*
X-148404Y-128474D01*
X-148924Y-127573D01*
X-149660Y-126837D01*
X-150561Y-126317D01*
X-151567Y-126047D01*
D02*
G37*
G36*
X-161566D02*
X-162607D01*
X-163613Y-126317D01*
X-164514Y-126837D01*
X-165250Y-127573D01*
X-165770Y-128474D01*
X-166040Y-129480D01*
Y-130520D01*
X-165770Y-131526D01*
X-165250Y-132427D01*
X-164514Y-133163D01*
X-163613Y-133683D01*
X-162607Y-133953D01*
X-161566D01*
X-160561Y-133683D01*
X-159660Y-133163D01*
X-158924Y-132427D01*
X-158404Y-131526D01*
X-158134Y-130520D01*
Y-129480D01*
X-158404Y-128474D01*
X-158924Y-127573D01*
X-159660Y-126837D01*
X-160561Y-126317D01*
X-161566Y-126047D01*
D02*
G37*
G36*
X-251251D02*
X-252292D01*
X-253297Y-126317D01*
X-254199Y-126837D01*
X-254935Y-127573D01*
X-255455Y-128474D01*
X-255724Y-129480D01*
Y-130520D01*
X-255455Y-131526D01*
X-254935Y-132427D01*
X-254199Y-133163D01*
X-253297Y-133683D01*
X-252292Y-133953D01*
X-251251D01*
X-250246Y-133683D01*
X-249345Y-133163D01*
X-248609Y-132427D01*
X-248088Y-131526D01*
X-247819Y-130520D01*
Y-129480D01*
X-248088Y-128474D01*
X-248609Y-127573D01*
X-249345Y-126837D01*
X-250246Y-126317D01*
X-251251Y-126047D01*
D02*
G37*
G36*
X-261251D02*
X-262292D01*
X-263297Y-126317D01*
X-264199Y-126837D01*
X-264935Y-127573D01*
X-265455Y-128474D01*
X-265724Y-129480D01*
Y-130520D01*
X-265455Y-131526D01*
X-264935Y-132427D01*
X-264199Y-133163D01*
X-263297Y-133683D01*
X-262292Y-133953D01*
X-261251D01*
X-260246Y-133683D01*
X-259345Y-133163D01*
X-258609Y-132427D01*
X-258088Y-131526D01*
X-257819Y-130520D01*
Y-129480D01*
X-258088Y-128474D01*
X-258609Y-127573D01*
X-259345Y-126837D01*
X-260246Y-126317D01*
X-261251Y-126047D01*
D02*
G37*
G36*
X-151567Y-136047D02*
X-152607D01*
X-153613Y-136317D01*
X-154514Y-136837D01*
X-155250Y-137573D01*
X-155770Y-138474D01*
X-156040Y-139480D01*
Y-140520D01*
X-155770Y-141526D01*
X-155250Y-142427D01*
X-154514Y-143163D01*
X-153613Y-143683D01*
X-152607Y-143953D01*
X-151567D01*
X-150561Y-143683D01*
X-149660Y-143163D01*
X-148924Y-142427D01*
X-148404Y-141526D01*
X-148134Y-140520D01*
Y-139480D01*
X-148404Y-138474D01*
X-148924Y-137573D01*
X-149660Y-136837D01*
X-150561Y-136317D01*
X-151567Y-136047D01*
D02*
G37*
G36*
X-161566D02*
X-162607D01*
X-163613Y-136317D01*
X-164514Y-136837D01*
X-165250Y-137573D01*
X-165770Y-138474D01*
X-166040Y-139480D01*
Y-140520D01*
X-165770Y-141526D01*
X-165250Y-142427D01*
X-164514Y-143163D01*
X-163613Y-143683D01*
X-162607Y-143953D01*
X-161566D01*
X-160561Y-143683D01*
X-159660Y-143163D01*
X-158924Y-142427D01*
X-158404Y-141526D01*
X-158134Y-140520D01*
Y-139480D01*
X-158404Y-138474D01*
X-158924Y-137573D01*
X-159660Y-136837D01*
X-160561Y-136317D01*
X-161566Y-136047D01*
D02*
G37*
G36*
X-251251D02*
X-252292D01*
X-253297Y-136317D01*
X-254199Y-136837D01*
X-254935Y-137573D01*
X-255455Y-138474D01*
X-255724Y-139480D01*
Y-140520D01*
X-255455Y-141526D01*
X-254935Y-142427D01*
X-254199Y-143163D01*
X-253297Y-143683D01*
X-252292Y-143953D01*
X-251251D01*
X-250246Y-143683D01*
X-249345Y-143163D01*
X-248609Y-142427D01*
X-248088Y-141526D01*
X-247819Y-140520D01*
Y-139480D01*
X-248088Y-138474D01*
X-248609Y-137573D01*
X-249345Y-136837D01*
X-250246Y-136317D01*
X-251251Y-136047D01*
D02*
G37*
G36*
X-261251D02*
X-262292D01*
X-263297Y-136317D01*
X-264199Y-136837D01*
X-264935Y-137573D01*
X-265455Y-138474D01*
X-265724Y-139480D01*
Y-140520D01*
X-265455Y-141526D01*
X-264935Y-142427D01*
X-264199Y-143163D01*
X-263297Y-143683D01*
X-262292Y-143953D01*
X-261251D01*
X-260246Y-143683D01*
X-259345Y-143163D01*
X-258609Y-142427D01*
X-258088Y-141526D01*
X-257819Y-140520D01*
Y-139480D01*
X-258088Y-138474D01*
X-258609Y-137573D01*
X-259345Y-136837D01*
X-260246Y-136317D01*
X-261251Y-136047D01*
D02*
G37*
G36*
X-174057Y-142138D02*
X-174943D01*
X-175798Y-142367D01*
X-176564Y-142810D01*
X-177190Y-143436D01*
X-177633Y-144202D01*
X-177862Y-145057D01*
Y-145943D01*
X-177633Y-146798D01*
X-177190Y-147564D01*
X-176564Y-148190D01*
X-175798Y-148633D01*
X-174943Y-148862D01*
X-174057D01*
X-173202Y-148633D01*
X-172436Y-148190D01*
X-171810Y-147564D01*
X-171367Y-146798D01*
X-171138Y-145943D01*
Y-145057D01*
X-171367Y-144202D01*
X-171810Y-143436D01*
X-172436Y-142810D01*
X-173202Y-142367D01*
X-174057Y-142138D01*
D02*
G37*
G36*
X-151567Y-146047D02*
X-152607D01*
X-153613Y-146317D01*
X-154514Y-146837D01*
X-155250Y-147573D01*
X-155770Y-148474D01*
X-156040Y-149480D01*
Y-150520D01*
X-155770Y-151526D01*
X-155250Y-152427D01*
X-154514Y-153163D01*
X-153613Y-153683D01*
X-152607Y-153953D01*
X-151567D01*
X-150561Y-153683D01*
X-149660Y-153163D01*
X-148924Y-152427D01*
X-148404Y-151526D01*
X-148134Y-150520D01*
Y-149480D01*
X-148404Y-148474D01*
X-148924Y-147573D01*
X-149660Y-146837D01*
X-150561Y-146317D01*
X-151567Y-146047D01*
D02*
G37*
G36*
X-161566D02*
X-162607D01*
X-163613Y-146317D01*
X-164514Y-146837D01*
X-165250Y-147573D01*
X-165770Y-148474D01*
X-166040Y-149480D01*
Y-150520D01*
X-165770Y-151526D01*
X-165250Y-152427D01*
X-164514Y-153163D01*
X-163613Y-153683D01*
X-162607Y-153953D01*
X-161566D01*
X-160561Y-153683D01*
X-159660Y-153163D01*
X-158924Y-152427D01*
X-158404Y-151526D01*
X-158134Y-150520D01*
Y-149480D01*
X-158404Y-148474D01*
X-158924Y-147573D01*
X-159660Y-146837D01*
X-160561Y-146317D01*
X-161566Y-146047D01*
D02*
G37*
G36*
X-251251D02*
X-252292D01*
X-253297Y-146317D01*
X-254199Y-146837D01*
X-254935Y-147573D01*
X-255455Y-148474D01*
X-255724Y-149480D01*
Y-150520D01*
X-255455Y-151526D01*
X-254935Y-152427D01*
X-254199Y-153163D01*
X-253297Y-153683D01*
X-252292Y-153953D01*
X-251251D01*
X-250246Y-153683D01*
X-249345Y-153163D01*
X-248609Y-152427D01*
X-248088Y-151526D01*
X-247819Y-150520D01*
Y-149480D01*
X-248088Y-148474D01*
X-248609Y-147573D01*
X-249345Y-146837D01*
X-250246Y-146317D01*
X-251251Y-146047D01*
D02*
G37*
G36*
X-261251D02*
X-262292D01*
X-263297Y-146317D01*
X-264199Y-146837D01*
X-264935Y-147573D01*
X-265455Y-148474D01*
X-265724Y-149480D01*
Y-150520D01*
X-265455Y-151526D01*
X-264935Y-152427D01*
X-264199Y-153163D01*
X-263297Y-153683D01*
X-262292Y-153953D01*
X-261251D01*
X-260246Y-153683D01*
X-259345Y-153163D01*
X-258609Y-152427D01*
X-258088Y-151526D01*
X-257819Y-150520D01*
Y-149480D01*
X-258088Y-148474D01*
X-258609Y-147573D01*
X-259345Y-146837D01*
X-260246Y-146317D01*
X-261251Y-146047D01*
D02*
G37*
G36*
X-151567Y-156047D02*
X-152607D01*
X-153613Y-156317D01*
X-154514Y-156837D01*
X-155250Y-157573D01*
X-155770Y-158474D01*
X-156040Y-159480D01*
Y-160520D01*
X-155770Y-161526D01*
X-155250Y-162427D01*
X-154514Y-163163D01*
X-153613Y-163683D01*
X-152607Y-163953D01*
X-151567D01*
X-150561Y-163683D01*
X-149660Y-163163D01*
X-148924Y-162427D01*
X-148404Y-161526D01*
X-148134Y-160520D01*
Y-159480D01*
X-148404Y-158474D01*
X-148924Y-157573D01*
X-149660Y-156837D01*
X-150561Y-156317D01*
X-151567Y-156047D01*
D02*
G37*
G36*
X-161566D02*
X-162607D01*
X-163613Y-156317D01*
X-164514Y-156837D01*
X-165250Y-157573D01*
X-165770Y-158474D01*
X-166040Y-159480D01*
Y-160520D01*
X-165770Y-161526D01*
X-165250Y-162427D01*
X-164514Y-163163D01*
X-163613Y-163683D01*
X-162607Y-163953D01*
X-161566D01*
X-160561Y-163683D01*
X-159660Y-163163D01*
X-158924Y-162427D01*
X-158404Y-161526D01*
X-158134Y-160520D01*
Y-159480D01*
X-158404Y-158474D01*
X-158924Y-157573D01*
X-159660Y-156837D01*
X-160561Y-156317D01*
X-161566Y-156047D01*
D02*
G37*
G36*
X-151567Y-166047D02*
X-152607D01*
X-153613Y-166317D01*
X-154514Y-166837D01*
X-155250Y-167573D01*
X-155770Y-168474D01*
X-156040Y-169480D01*
Y-170520D01*
X-155770Y-171526D01*
X-155250Y-172427D01*
X-154514Y-173163D01*
X-153613Y-173683D01*
X-152607Y-173953D01*
X-151567D01*
X-150561Y-173683D01*
X-149660Y-173163D01*
X-148924Y-172427D01*
X-148404Y-171526D01*
X-148134Y-170520D01*
Y-169480D01*
X-148404Y-168474D01*
X-148924Y-167573D01*
X-149660Y-166837D01*
X-150561Y-166317D01*
X-151567Y-166047D01*
D02*
G37*
G36*
X-158134D02*
X-166040D01*
Y-173953D01*
X-158134D01*
Y-166047D01*
D02*
G37*
G36*
X-183057Y-168638D02*
X-183943D01*
X-184798Y-168867D01*
X-185564Y-169310D01*
X-186190Y-169936D01*
X-186633Y-170702D01*
X-186862Y-171557D01*
Y-172443D01*
X-186633Y-173298D01*
X-186190Y-174064D01*
X-185564Y-174690D01*
X-184798Y-175133D01*
X-183943Y-175362D01*
X-183057D01*
X-182202Y-175133D01*
X-181436Y-174690D01*
X-180810Y-174064D01*
X-180367Y-173298D01*
X-180138Y-172443D01*
Y-171557D01*
X-180367Y-170702D01*
X-180810Y-169936D01*
X-181436Y-169310D01*
X-182202Y-168867D01*
X-183057Y-168638D01*
D02*
G37*
G36*
X-94472Y3953D02*
X-102378D01*
Y-3953D01*
X-94472D01*
Y3953D01*
D02*
G37*
G36*
X-107905D02*
X-108946D01*
X-109951Y3683D01*
X-110852Y3163D01*
X-111588Y2427D01*
X-112109Y1526D01*
X-112378Y520D01*
Y-520D01*
X-112109Y-1526D01*
X-111588Y-2427D01*
X-110852Y-3163D01*
X-109951Y-3683D01*
X-108946Y-3953D01*
X-107905D01*
X-106899Y-3683D01*
X-105998Y-3163D01*
X-105262Y-2427D01*
X-104742Y-1526D01*
X-104472Y-520D01*
Y520D01*
X-104742Y1526D01*
X-105262Y2427D01*
X-105998Y3163D01*
X-106899Y3683D01*
X-107905Y3953D01*
D02*
G37*
G36*
X-151567D02*
X-152607D01*
X-153613Y3683D01*
X-154514Y3163D01*
X-155250Y2427D01*
X-155770Y1526D01*
X-156040Y520D01*
Y-520D01*
X-155770Y-1526D01*
X-155250Y-2427D01*
X-154514Y-3163D01*
X-153613Y-3683D01*
X-152607Y-3953D01*
X-151567D01*
X-150561Y-3683D01*
X-149660Y-3163D01*
X-148924Y-2427D01*
X-148404Y-1526D01*
X-148134Y-520D01*
Y520D01*
X-148404Y1526D01*
X-148924Y2427D01*
X-149660Y3163D01*
X-150561Y3683D01*
X-151567Y3953D01*
D02*
G37*
G36*
X-161566D02*
X-162607D01*
X-163613Y3683D01*
X-164514Y3163D01*
X-165250Y2427D01*
X-165770Y1526D01*
X-166040Y520D01*
Y-520D01*
X-165770Y-1526D01*
X-165250Y-2427D01*
X-164514Y-3163D01*
X-163613Y-3683D01*
X-162607Y-3953D01*
X-161566D01*
X-160561Y-3683D01*
X-159660Y-3163D01*
X-158924Y-2427D01*
X-158404Y-1526D01*
X-158134Y-520D01*
Y520D01*
X-158404Y1526D01*
X-158924Y2427D01*
X-159660Y3163D01*
X-160561Y3683D01*
X-161566Y3953D01*
D02*
G37*
G36*
X-251251D02*
X-252292D01*
X-253297Y3683D01*
X-254199Y3163D01*
X-254935Y2427D01*
X-255455Y1526D01*
X-255724Y520D01*
Y-520D01*
X-255455Y-1526D01*
X-254935Y-2427D01*
X-254199Y-3163D01*
X-253297Y-3683D01*
X-252292Y-3953D01*
X-251251D01*
X-250246Y-3683D01*
X-249345Y-3163D01*
X-248609Y-2427D01*
X-248088Y-1526D01*
X-247819Y-520D01*
Y520D01*
X-248088Y1526D01*
X-248609Y2427D01*
X-249345Y3163D01*
X-250246Y3683D01*
X-251251Y3953D01*
D02*
G37*
G36*
X-257819D02*
X-265724D01*
Y-3953D01*
X-257819D01*
Y3953D01*
D02*
G37*
G36*
X-182557Y-138D02*
X-183443D01*
X-184298Y-367D01*
X-185064Y-810D01*
X-185690Y-1436D01*
X-186133Y-2202D01*
X-186362Y-3057D01*
Y-3943D01*
X-186133Y-4798D01*
X-185690Y-5564D01*
X-185064Y-6190D01*
X-184298Y-6633D01*
X-183443Y-6862D01*
X-182557D01*
X-181702Y-6633D01*
X-180936Y-6190D01*
X-180310Y-5564D01*
X-179867Y-4798D01*
X-179638Y-3943D01*
Y-3057D01*
X-179867Y-2202D01*
X-180310Y-1436D01*
X-180936Y-810D01*
X-181702Y-367D01*
X-182557Y-138D01*
D02*
G37*
G36*
X-128557Y-3638D02*
X-129443D01*
X-130298Y-3867D01*
X-131064Y-4310D01*
X-131690Y-4936D01*
X-132133Y-5702D01*
X-132362Y-6557D01*
Y-7443D01*
X-132133Y-8298D01*
X-131690Y-9064D01*
X-131064Y-9690D01*
X-130298Y-10133D01*
X-129443Y-10362D01*
X-128557D01*
X-127702Y-10133D01*
X-126936Y-9690D01*
X-126310Y-9064D01*
X-125867Y-8298D01*
X-125638Y-7443D01*
Y-6557D01*
X-125867Y-5702D01*
X-126310Y-4936D01*
X-126936Y-4310D01*
X-127702Y-3867D01*
X-128557Y-3638D01*
D02*
G37*
G36*
X-208557Y-6638D02*
X-209443D01*
X-210298Y-6867D01*
X-211064Y-7310D01*
X-211690Y-7936D01*
X-212133Y-8702D01*
X-212362Y-9557D01*
Y-10443D01*
X-212133Y-11298D01*
X-211690Y-12064D01*
X-211064Y-12690D01*
X-210298Y-13133D01*
X-209443Y-13362D01*
X-208557D01*
X-207702Y-13133D01*
X-206936Y-12690D01*
X-206310Y-12064D01*
X-205867Y-11298D01*
X-205638Y-10443D01*
Y-9557D01*
X-205867Y-8702D01*
X-206310Y-7936D01*
X-206936Y-7310D01*
X-207702Y-6867D01*
X-208557Y-6638D01*
D02*
G37*
G36*
X-97905Y-6047D02*
X-98946D01*
X-99951Y-6317D01*
X-100852Y-6837D01*
X-101588Y-7573D01*
X-102109Y-8474D01*
X-102378Y-9480D01*
Y-10520D01*
X-102109Y-11526D01*
X-101588Y-12427D01*
X-100852Y-13163D01*
X-99951Y-13683D01*
X-98946Y-13953D01*
X-97905D01*
X-96899Y-13683D01*
X-95998Y-13163D01*
X-95262Y-12427D01*
X-94742Y-11526D01*
X-94472Y-10520D01*
Y-9480D01*
X-94742Y-8474D01*
X-95262Y-7573D01*
X-95998Y-6837D01*
X-96899Y-6317D01*
X-97905Y-6047D01*
D02*
G37*
G36*
X-107905D02*
X-108946D01*
X-109951Y-6317D01*
X-110852Y-6837D01*
X-111588Y-7573D01*
X-112109Y-8474D01*
X-112378Y-9480D01*
Y-10520D01*
X-112109Y-11526D01*
X-111588Y-12427D01*
X-110852Y-13163D01*
X-109951Y-13683D01*
X-108946Y-13953D01*
X-107905D01*
X-106899Y-13683D01*
X-105998Y-13163D01*
X-105262Y-12427D01*
X-104742Y-11526D01*
X-104472Y-10520D01*
Y-9480D01*
X-104742Y-8474D01*
X-105262Y-7573D01*
X-105998Y-6837D01*
X-106899Y-6317D01*
X-107905Y-6047D01*
D02*
G37*
G36*
X-151567D02*
X-152607D01*
X-153613Y-6317D01*
X-154514Y-6837D01*
X-155250Y-7573D01*
X-155770Y-8474D01*
X-156040Y-9480D01*
Y-10520D01*
X-155770Y-11526D01*
X-155250Y-12427D01*
X-154514Y-13163D01*
X-153613Y-13683D01*
X-152607Y-13953D01*
X-151567D01*
X-150561Y-13683D01*
X-149660Y-13163D01*
X-148924Y-12427D01*
X-148404Y-11526D01*
X-148134Y-10520D01*
Y-9480D01*
X-148404Y-8474D01*
X-148924Y-7573D01*
X-149660Y-6837D01*
X-150561Y-6317D01*
X-151567Y-6047D01*
D02*
G37*
G36*
X-161566D02*
X-162607D01*
X-163613Y-6317D01*
X-164514Y-6837D01*
X-165250Y-7573D01*
X-165770Y-8474D01*
X-166040Y-9480D01*
Y-10520D01*
X-165770Y-11526D01*
X-165250Y-12427D01*
X-164514Y-13163D01*
X-163613Y-13683D01*
X-162607Y-13953D01*
X-161566D01*
X-160561Y-13683D01*
X-159660Y-13163D01*
X-158924Y-12427D01*
X-158404Y-11526D01*
X-158134Y-10520D01*
Y-9480D01*
X-158404Y-8474D01*
X-158924Y-7573D01*
X-159660Y-6837D01*
X-160561Y-6317D01*
X-161566Y-6047D01*
D02*
G37*
G36*
X-97905Y-16047D02*
X-98946D01*
X-99951Y-16317D01*
X-100852Y-16837D01*
X-101588Y-17573D01*
X-102109Y-18474D01*
X-102378Y-19480D01*
Y-20520D01*
X-102109Y-21526D01*
X-101588Y-22427D01*
X-100852Y-23163D01*
X-99951Y-23683D01*
X-98946Y-23953D01*
X-97905D01*
X-96899Y-23683D01*
X-95998Y-23163D01*
X-95262Y-22427D01*
X-94742Y-21526D01*
X-94472Y-20520D01*
Y-19480D01*
X-94742Y-18474D01*
X-95262Y-17573D01*
X-95998Y-16837D01*
X-96899Y-16317D01*
X-97905Y-16047D01*
D02*
G37*
G36*
X-107905D02*
X-108946D01*
X-109951Y-16317D01*
X-110852Y-16837D01*
X-111588Y-17573D01*
X-112109Y-18474D01*
X-112378Y-19480D01*
Y-20520D01*
X-112109Y-21526D01*
X-111588Y-22427D01*
X-110852Y-23163D01*
X-109951Y-23683D01*
X-108946Y-23953D01*
X-107905D01*
X-106899Y-23683D01*
X-105998Y-23163D01*
X-105262Y-22427D01*
X-104742Y-21526D01*
X-104472Y-20520D01*
Y-19480D01*
X-104742Y-18474D01*
X-105262Y-17573D01*
X-105998Y-16837D01*
X-106899Y-16317D01*
X-107905Y-16047D01*
D02*
G37*
G36*
X91072Y-36047D02*
X90031D01*
X89025Y-36317D01*
X88124Y-36837D01*
X87388Y-37573D01*
X86868Y-38474D01*
X86598Y-39480D01*
Y-40520D01*
X86868Y-41526D01*
X87388Y-42427D01*
X88124Y-43163D01*
X89025Y-43683D01*
X90031Y-43953D01*
X91072D01*
X92077Y-43683D01*
X92978Y-43163D01*
X93714Y-42427D01*
X94235Y-41526D01*
X94504Y-40520D01*
Y-39480D01*
X94235Y-38474D01*
X93714Y-37573D01*
X92978Y-36837D01*
X92077Y-36317D01*
X91072Y-36047D01*
D02*
G37*
G36*
X81072D02*
X80031D01*
X79026Y-36317D01*
X78124Y-36837D01*
X77388Y-37573D01*
X76868Y-38474D01*
X76598Y-39480D01*
Y-40520D01*
X76868Y-41526D01*
X77388Y-42427D01*
X78124Y-43163D01*
X79026Y-43683D01*
X80031Y-43953D01*
X81072D01*
X82077Y-43683D01*
X82978Y-43163D01*
X83714Y-42427D01*
X84235Y-41526D01*
X84504Y-40520D01*
Y-39480D01*
X84235Y-38474D01*
X83714Y-37573D01*
X82978Y-36837D01*
X82077Y-36317D01*
X81072Y-36047D01*
D02*
G37*
G36*
X91072Y-46047D02*
X90031D01*
X89025Y-46317D01*
X88124Y-46837D01*
X87388Y-47573D01*
X86868Y-48474D01*
X86598Y-49480D01*
Y-50520D01*
X86868Y-51526D01*
X87388Y-52427D01*
X88124Y-53163D01*
X89025Y-53683D01*
X90031Y-53953D01*
X91072D01*
X92077Y-53683D01*
X92978Y-53163D01*
X93714Y-52427D01*
X94235Y-51526D01*
X94504Y-50520D01*
Y-49480D01*
X94235Y-48474D01*
X93714Y-47573D01*
X92978Y-46837D01*
X92077Y-46317D01*
X91072Y-46047D01*
D02*
G37*
G36*
X81072D02*
X80031D01*
X79026Y-46317D01*
X78124Y-46837D01*
X77388Y-47573D01*
X76868Y-48474D01*
X76598Y-49480D01*
Y-50520D01*
X76868Y-51526D01*
X77388Y-52427D01*
X78124Y-53163D01*
X79026Y-53683D01*
X80031Y-53953D01*
X81072D01*
X82077Y-53683D01*
X82978Y-53163D01*
X83714Y-52427D01*
X84235Y-51526D01*
X84504Y-50520D01*
Y-49480D01*
X84235Y-48474D01*
X83714Y-47573D01*
X82978Y-46837D01*
X82077Y-46317D01*
X81072Y-46047D01*
D02*
G37*
G36*
X520D02*
X-520D01*
X-1526Y-46317D01*
X-2427Y-46837D01*
X-3163Y-47573D01*
X-3683Y-48474D01*
X-3953Y-49480D01*
Y-50520D01*
X-3683Y-51526D01*
X-3163Y-52427D01*
X-2427Y-53163D01*
X-1526Y-53683D01*
X-520Y-53953D01*
X520D01*
X1526Y-53683D01*
X2427Y-53163D01*
X3163Y-52427D01*
X3683Y-51526D01*
X3953Y-50520D01*
Y-49480D01*
X3683Y-48474D01*
X3163Y-47573D01*
X2427Y-46837D01*
X1526Y-46317D01*
X520Y-46047D01*
D02*
G37*
G36*
X57943Y-48638D02*
X57057D01*
X56202Y-48867D01*
X55436Y-49310D01*
X54810Y-49936D01*
X54367Y-50702D01*
X54138Y-51557D01*
Y-52443D01*
X54367Y-53298D01*
X54810Y-54064D01*
X55436Y-54690D01*
X56202Y-55133D01*
X57057Y-55362D01*
X57943D01*
X58798Y-55133D01*
X59564Y-54690D01*
X60190Y-54064D01*
X60633Y-53298D01*
X60862Y-52443D01*
Y-51557D01*
X60633Y-50702D01*
X60190Y-49936D01*
X59564Y-49310D01*
X58798Y-48867D01*
X57943Y-48638D01*
D02*
G37*
G36*
X-9480Y-46047D02*
X-10520D01*
X-11526Y-46317D01*
X-12427Y-46837D01*
X-13163Y-47573D01*
X-13683Y-48474D01*
X-13953Y-49480D01*
Y-50520D01*
X-13683Y-51526D01*
X-13163Y-52427D01*
X-12427Y-53163D01*
X-11526Y-53683D01*
X-10520Y-53953D01*
X-9480D01*
X-9029Y-53832D01*
X-7023Y-55838D01*
Y-56734D01*
X-7485Y-56925D01*
X-7573Y-56837D01*
X-8474Y-56317D01*
X-9480Y-56047D01*
X-10520D01*
X-11526Y-56317D01*
X-12427Y-56837D01*
X-13163Y-57573D01*
X-13683Y-58474D01*
X-13953Y-59480D01*
Y-60520D01*
X-13683Y-61526D01*
X-13163Y-62427D01*
X-12427Y-63163D01*
X-11526Y-63683D01*
X-10520Y-63953D01*
X-9480D01*
X-8474Y-63683D01*
X-7573Y-63163D01*
X-7513Y-63103D01*
X-6970Y-63267D01*
X-6869Y-63774D01*
X-6431Y-64431D01*
X-4155Y-66706D01*
X-3499Y-67145D01*
X-3391Y-67166D01*
X-3240Y-67706D01*
X-3683Y-68474D01*
X-3953Y-69480D01*
Y-70520D01*
X-3683Y-71526D01*
X-3291Y-72205D01*
X-3559Y-72705D01*
X-4718D01*
X-6228Y-71195D01*
X-6047Y-70520D01*
Y-69480D01*
X-6317Y-68474D01*
X-6837Y-67573D01*
X-7573Y-66837D01*
X-8474Y-66317D01*
X-9480Y-66047D01*
X-10520D01*
X-11526Y-66317D01*
X-12427Y-66837D01*
X-13163Y-67573D01*
X-13683Y-68474D01*
X-13953Y-69480D01*
Y-70520D01*
X-13683Y-71526D01*
X-13163Y-72427D01*
X-12427Y-73163D01*
X-11526Y-73683D01*
X-10520Y-73953D01*
X-9480D01*
X-8805Y-73772D01*
X-6761Y-75816D01*
X-6761Y-75816D01*
X-6170Y-76211D01*
X-5472Y-76350D01*
X-5472Y-76350D01*
X-2549D01*
X-2444Y-76744D01*
X-2440Y-76850D01*
X-3163Y-77573D01*
X-3683Y-78474D01*
X-3953Y-79480D01*
Y-80520D01*
X-3683Y-81526D01*
X-3163Y-82427D01*
X-2427Y-83163D01*
X-1526Y-83683D01*
X-520Y-83953D01*
X520D01*
X1526Y-83683D01*
X2427Y-83163D01*
X3163Y-82427D01*
X3195Y-82372D01*
X3678Y-82502D01*
Y-87498D01*
X3195Y-87628D01*
X3163Y-87573D01*
X2427Y-86837D01*
X1526Y-86317D01*
X520Y-86047D01*
X-520D01*
X-1526Y-86317D01*
X-2427Y-86837D01*
X-3163Y-87573D01*
X-3683Y-88474D01*
X-3953Y-89480D01*
Y-90520D01*
X-3683Y-91526D01*
X-3163Y-92427D01*
X-2427Y-93163D01*
X-1526Y-93683D01*
X-520Y-93953D01*
X520D01*
X1526Y-93683D01*
X2427Y-93163D01*
X3163Y-92427D01*
X3195Y-92372D01*
X3678Y-92502D01*
Y-97498D01*
X3195Y-97628D01*
X3163Y-97573D01*
X2427Y-96837D01*
X1526Y-96317D01*
X520Y-96047D01*
X-520D01*
X-1526Y-96317D01*
X-2427Y-96837D01*
X-3163Y-97573D01*
X-3683Y-98474D01*
X-3953Y-99480D01*
Y-100520D01*
X-3683Y-101526D01*
X-3163Y-102427D01*
X-2427Y-103163D01*
X-1526Y-103683D01*
X-520Y-103953D01*
X520D01*
X1526Y-103683D01*
X2427Y-103163D01*
X3163Y-102427D01*
X3195Y-102372D01*
X3678Y-102502D01*
Y-107498D01*
X3195Y-107628D01*
X3163Y-107573D01*
X2427Y-106837D01*
X1526Y-106317D01*
X520Y-106047D01*
X-520D01*
X-1526Y-106317D01*
X-2427Y-106837D01*
X-3163Y-107573D01*
X-3683Y-108474D01*
X-3953Y-109480D01*
Y-110520D01*
X-3683Y-111526D01*
X-3163Y-112427D01*
X-2427Y-113163D01*
X-1526Y-113683D01*
X-520Y-113953D01*
X520D01*
X1526Y-113683D01*
X2427Y-113163D01*
X3163Y-112427D01*
X3195Y-112372D01*
X3678Y-112502D01*
Y-117498D01*
X3195Y-117628D01*
X3163Y-117573D01*
X2427Y-116837D01*
X1526Y-116317D01*
X520Y-116047D01*
X-520D01*
X-1526Y-116317D01*
X-2427Y-116837D01*
X-3163Y-117573D01*
X-3683Y-118474D01*
X-3953Y-119480D01*
Y-120520D01*
X-3683Y-121526D01*
X-3163Y-122427D01*
X-2427Y-123163D01*
X-1526Y-123683D01*
X-520Y-123953D01*
X520D01*
X1526Y-123683D01*
X2427Y-123163D01*
X3163Y-122427D01*
X3195Y-122372D01*
X3678Y-122502D01*
Y-127498D01*
X3195Y-127628D01*
X3163Y-127573D01*
X2427Y-126837D01*
X1526Y-126317D01*
X520Y-126047D01*
X-520D01*
X-1526Y-126317D01*
X-2427Y-126837D01*
X-3163Y-127573D01*
X-3683Y-128474D01*
X-3953Y-129480D01*
Y-130520D01*
X-3683Y-131526D01*
X-3163Y-132427D01*
X-2427Y-133163D01*
X-1526Y-133683D01*
X-520Y-133953D01*
X520D01*
X1526Y-133683D01*
X2427Y-133163D01*
X3163Y-132427D01*
X3195Y-132372D01*
X3678Y-132502D01*
Y-137498D01*
X3195Y-137628D01*
X3163Y-137573D01*
X2427Y-136837D01*
X1526Y-136317D01*
X520Y-136047D01*
X-520D01*
X-1526Y-136317D01*
X-2427Y-136837D01*
X-3163Y-137573D01*
X-3683Y-138474D01*
X-3953Y-139480D01*
Y-140520D01*
X-3683Y-141526D01*
X-3163Y-142427D01*
X-2427Y-143163D01*
X-1526Y-143683D01*
X-520Y-143953D01*
X520D01*
X1526Y-143683D01*
X2427Y-143163D01*
X3163Y-142427D01*
X3195Y-142372D01*
X3678Y-142502D01*
Y-147498D01*
X3195Y-147628D01*
X3163Y-147573D01*
X2427Y-146837D01*
X1526Y-146317D01*
X520Y-146047D01*
X-520D01*
X-1526Y-146317D01*
X-2427Y-146837D01*
X-3163Y-147573D01*
X-3683Y-148474D01*
X-3953Y-149480D01*
Y-150520D01*
X-3683Y-151526D01*
X-3163Y-152427D01*
X-2662Y-152928D01*
X-2870Y-153428D01*
X-7130D01*
X-7338Y-152928D01*
X-6837Y-152427D01*
X-6317Y-151526D01*
X-6047Y-150520D01*
Y-149480D01*
X-6317Y-148474D01*
X-6837Y-147573D01*
X-7573Y-146837D01*
X-8474Y-146317D01*
X-9480Y-146047D01*
X-10520D01*
X-11526Y-146317D01*
X-12427Y-146837D01*
X-13163Y-147573D01*
X-13683Y-148474D01*
X-13953Y-149480D01*
Y-150520D01*
X-13683Y-151526D01*
X-13163Y-152427D01*
X-12663Y-152928D01*
X-12870Y-153428D01*
X-95556D01*
X-95763Y-152928D01*
X-95262Y-152427D01*
X-94742Y-151526D01*
X-94472Y-150520D01*
Y-149480D01*
X-94742Y-148474D01*
X-95262Y-147573D01*
X-95998Y-146837D01*
X-96899Y-146317D01*
X-97905Y-146047D01*
X-98946D01*
X-99951Y-146317D01*
X-100852Y-146837D01*
X-101588Y-147573D01*
X-102109Y-148474D01*
X-102378Y-149480D01*
Y-150520D01*
X-102109Y-151526D01*
X-101588Y-152427D01*
X-101088Y-152928D01*
X-101295Y-153428D01*
X-103675D01*
X-104373Y-153566D01*
X-104964Y-153961D01*
X-104964Y-153961D01*
X-107230Y-156228D01*
X-107905Y-156047D01*
X-108946D01*
X-109951Y-156317D01*
X-110852Y-156837D01*
X-111588Y-157573D01*
X-112109Y-158474D01*
X-112378Y-159480D01*
Y-160520D01*
X-112109Y-161526D01*
X-111588Y-162427D01*
X-110852Y-163163D01*
X-109951Y-163683D01*
X-108946Y-163953D01*
X-107905D01*
X-106899Y-163683D01*
X-105998Y-163163D01*
X-105262Y-162427D01*
X-104742Y-161526D01*
X-104472Y-160520D01*
Y-159480D01*
X-104653Y-158805D01*
X-102920Y-157072D01*
X-101741D01*
X-101550Y-157534D01*
X-101588Y-157573D01*
X-102109Y-158474D01*
X-102378Y-159480D01*
Y-160520D01*
X-102109Y-161526D01*
X-101588Y-162427D01*
X-100852Y-163163D01*
X-99951Y-163683D01*
X-98946Y-163953D01*
X-97905D01*
X-96899Y-163683D01*
X-95998Y-163163D01*
X-95262Y-162427D01*
X-94742Y-161526D01*
X-94472Y-160520D01*
Y-159480D01*
X-94742Y-158474D01*
X-95262Y-157573D01*
X-95301Y-157534D01*
X-95109Y-157072D01*
X-13316D01*
X-13124Y-157534D01*
X-13163Y-157573D01*
X-13683Y-158474D01*
X-13953Y-159480D01*
Y-160520D01*
X-13683Y-161526D01*
X-13163Y-162427D01*
X-12427Y-163163D01*
X-11526Y-163683D01*
X-10520Y-163953D01*
X-9480D01*
X-8474Y-163683D01*
X-7573Y-163163D01*
X-6837Y-162427D01*
X-6317Y-161526D01*
X-6047Y-160520D01*
Y-159480D01*
X-6317Y-158474D01*
X-6837Y-157573D01*
X-6876Y-157534D01*
X-6684Y-157072D01*
X-3316D01*
X-3124Y-157534D01*
X-3163Y-157573D01*
X-3683Y-158474D01*
X-3953Y-159480D01*
Y-160520D01*
X-3683Y-161526D01*
X-3163Y-162427D01*
X-2838Y-162752D01*
X-3045Y-163252D01*
X-5276D01*
X-6050Y-163407D01*
X-6706Y-163845D01*
X-9029Y-166168D01*
X-9480Y-166047D01*
X-10520D01*
X-11526Y-166317D01*
X-12427Y-166837D01*
X-13163Y-167573D01*
X-13683Y-168474D01*
X-13953Y-169480D01*
Y-170520D01*
X-13683Y-171526D01*
X-13163Y-172427D01*
X-12427Y-173163D01*
X-11526Y-173683D01*
X-10520Y-173953D01*
X-9480D01*
X-8474Y-173683D01*
X-7573Y-173163D01*
X-6837Y-172427D01*
X-6317Y-171526D01*
X-6047Y-170520D01*
Y-169480D01*
X-6168Y-169029D01*
X-4438Y-167299D01*
X-3564D01*
X-3293Y-167799D01*
X-3683Y-168474D01*
X-3953Y-169480D01*
Y-170520D01*
X-3683Y-171526D01*
X-3163Y-172427D01*
X-2427Y-173163D01*
X-1526Y-173683D01*
X-520Y-173953D01*
X520D01*
X1526Y-173683D01*
X2427Y-173163D01*
X3163Y-172427D01*
X3683Y-171526D01*
X3953Y-170520D01*
Y-169480D01*
X3683Y-168474D01*
X3293Y-167799D01*
X3564Y-167299D01*
X5724D01*
X6499Y-167145D01*
X7155Y-166706D01*
X9931Y-163931D01*
X10369Y-163274D01*
X10523Y-162500D01*
Y-71000D01*
X10369Y-70226D01*
X9931Y-69569D01*
X4206Y-63845D01*
X3550Y-63406D01*
X3000Y-63297D01*
X2819Y-62779D01*
X2819Y-62771D01*
X3163Y-62427D01*
X3683Y-61526D01*
X3953Y-60520D01*
Y-59480D01*
X3683Y-58474D01*
X3163Y-57573D01*
X2427Y-56837D01*
X1526Y-56317D01*
X520Y-56047D01*
X-520D01*
X-1526Y-56317D01*
X-2427Y-56837D01*
X-2515Y-56925D01*
X-2977Y-56734D01*
Y-55000D01*
X-3131Y-54226D01*
X-3569Y-53569D01*
X-6168Y-50971D01*
X-6047Y-50520D01*
Y-49480D01*
X-6317Y-48474D01*
X-6837Y-47573D01*
X-7573Y-46837D01*
X-8474Y-46317D01*
X-9480Y-46047D01*
D02*
G37*
G36*
X-25557Y-55154D02*
X-26443D01*
X-27298Y-55383D01*
X-28064Y-55825D01*
X-28690Y-56451D01*
X-29133Y-57218D01*
X-29362Y-58073D01*
Y-58958D01*
X-29133Y-59813D01*
X-28690Y-60580D01*
X-28064Y-61206D01*
X-27298Y-61649D01*
X-26443Y-61878D01*
X-25557D01*
X-24702Y-61649D01*
X-23936Y-61206D01*
X-23310Y-60580D01*
X-22867Y-59813D01*
X-22638Y-58958D01*
Y-58073D01*
X-22867Y-57218D01*
X-23310Y-56451D01*
X-23936Y-55825D01*
X-24702Y-55383D01*
X-25557Y-55154D01*
D02*
G37*
G36*
X91072Y-56047D02*
X90031D01*
X89025Y-56317D01*
X88124Y-56837D01*
X87388Y-57573D01*
X86868Y-58474D01*
X86598Y-59480D01*
Y-60520D01*
X86868Y-61526D01*
X87388Y-62427D01*
X88124Y-63163D01*
X89025Y-63683D01*
X90031Y-63953D01*
X91072D01*
X92077Y-63683D01*
X92978Y-63163D01*
X93714Y-62427D01*
X94235Y-61526D01*
X94504Y-60520D01*
Y-59480D01*
X94235Y-58474D01*
X93714Y-57573D01*
X92978Y-56837D01*
X92077Y-56317D01*
X91072Y-56047D01*
D02*
G37*
G36*
X81072D02*
X80031D01*
X79026Y-56317D01*
X78124Y-56837D01*
X77388Y-57573D01*
X76868Y-58474D01*
X76598Y-59480D01*
Y-60520D01*
X76868Y-61526D01*
X77388Y-62427D01*
X78124Y-63163D01*
X79026Y-63683D01*
X80031Y-63953D01*
X81072D01*
X82077Y-63683D01*
X82978Y-63163D01*
X83714Y-62427D01*
X84235Y-61526D01*
X84504Y-60520D01*
Y-59480D01*
X84235Y-58474D01*
X83714Y-57573D01*
X82978Y-56837D01*
X82077Y-56317D01*
X81072Y-56047D01*
D02*
G37*
G36*
X91072Y-66047D02*
X90031D01*
X89025Y-66317D01*
X88124Y-66837D01*
X87388Y-67573D01*
X86868Y-68474D01*
X86598Y-69480D01*
Y-70520D01*
X86868Y-71526D01*
X87388Y-72427D01*
X88124Y-73163D01*
X89025Y-73683D01*
X90031Y-73953D01*
X91072D01*
X92077Y-73683D01*
X92978Y-73163D01*
X93714Y-72427D01*
X94235Y-71526D01*
X94504Y-70520D01*
Y-69480D01*
X94235Y-68474D01*
X93714Y-67573D01*
X92978Y-66837D01*
X92077Y-66317D01*
X91072Y-66047D01*
D02*
G37*
G36*
X81072D02*
X80031D01*
X79026Y-66317D01*
X78124Y-66837D01*
X77388Y-67573D01*
X76868Y-68474D01*
X76598Y-69480D01*
Y-70520D01*
X76868Y-71526D01*
X77388Y-72427D01*
X78124Y-73163D01*
X79026Y-73683D01*
X80031Y-73953D01*
X81072D01*
X82077Y-73683D01*
X82978Y-73163D01*
X83714Y-72427D01*
X84235Y-71526D01*
X84504Y-70520D01*
Y-69480D01*
X84235Y-68474D01*
X83714Y-67573D01*
X82978Y-66837D01*
X82077Y-66317D01*
X81072Y-66047D01*
D02*
G37*
G36*
X91072Y-76047D02*
X90031D01*
X89025Y-76317D01*
X88124Y-76837D01*
X87388Y-77573D01*
X86868Y-78474D01*
X86598Y-79480D01*
Y-80520D01*
X86868Y-81526D01*
X87388Y-82427D01*
X88124Y-83163D01*
X89025Y-83683D01*
X90031Y-83953D01*
X91072D01*
X92077Y-83683D01*
X92978Y-83163D01*
X93714Y-82427D01*
X94235Y-81526D01*
X94504Y-80520D01*
Y-79480D01*
X94235Y-78474D01*
X93714Y-77573D01*
X92978Y-76837D01*
X92077Y-76317D01*
X91072Y-76047D01*
D02*
G37*
G36*
X81072D02*
X80031D01*
X79026Y-76317D01*
X78124Y-76837D01*
X77388Y-77573D01*
X76868Y-78474D01*
X76598Y-79480D01*
Y-80520D01*
X76868Y-81526D01*
X77388Y-82427D01*
X78124Y-83163D01*
X79026Y-83683D01*
X80031Y-83953D01*
X81072D01*
X82077Y-83683D01*
X82978Y-83163D01*
X83714Y-82427D01*
X84235Y-81526D01*
X84504Y-80520D01*
Y-79480D01*
X84235Y-78474D01*
X83714Y-77573D01*
X82978Y-76837D01*
X82077Y-76317D01*
X81072Y-76047D01*
D02*
G37*
G36*
X91072Y-86047D02*
X90031D01*
X89025Y-86317D01*
X88124Y-86837D01*
X87388Y-87573D01*
X86868Y-88474D01*
X86598Y-89480D01*
Y-90520D01*
X86868Y-91526D01*
X87388Y-92427D01*
X88124Y-93163D01*
X89025Y-93683D01*
X90031Y-93953D01*
X91072D01*
X92077Y-93683D01*
X92978Y-93163D01*
X93714Y-92427D01*
X94235Y-91526D01*
X94504Y-90520D01*
Y-89480D01*
X94235Y-88474D01*
X93714Y-87573D01*
X92978Y-86837D01*
X92077Y-86317D01*
X91072Y-86047D01*
D02*
G37*
G36*
X81072D02*
X80031D01*
X79026Y-86317D01*
X78124Y-86837D01*
X77388Y-87573D01*
X76868Y-88474D01*
X76598Y-89480D01*
Y-90520D01*
X76868Y-91526D01*
X77388Y-92427D01*
X78124Y-93163D01*
X79026Y-93683D01*
X80031Y-93953D01*
X81072D01*
X82077Y-93683D01*
X82978Y-93163D01*
X83714Y-92427D01*
X84235Y-91526D01*
X84504Y-90520D01*
Y-89480D01*
X84235Y-88474D01*
X83714Y-87573D01*
X82978Y-86837D01*
X82077Y-86317D01*
X81072Y-86047D01*
D02*
G37*
G36*
X-9480Y-76047D02*
X-10520D01*
X-11526Y-76317D01*
X-12427Y-76837D01*
X-13163Y-77573D01*
X-13683Y-78474D01*
X-13953Y-79480D01*
Y-80520D01*
X-13787Y-81138D01*
X-13935Y-81617D01*
X-14128Y-81688D01*
X-14500Y-81788D01*
X-14796Y-81867D01*
X-15563Y-82310D01*
X-16189Y-82936D01*
X-16632Y-83702D01*
X-16861Y-84557D01*
Y-85443D01*
X-16632Y-86298D01*
X-16189Y-87064D01*
X-15563Y-87690D01*
X-14796Y-88133D01*
X-14500Y-88212D01*
X-14128Y-88312D01*
X-13935Y-88383D01*
X-13787Y-88862D01*
X-13953Y-89480D01*
Y-90520D01*
X-13683Y-91526D01*
X-13163Y-92427D01*
X-12427Y-93163D01*
X-11526Y-93683D01*
X-10520Y-93953D01*
X-9480D01*
X-8474Y-93683D01*
X-7573Y-93163D01*
X-6837Y-92427D01*
X-6317Y-91526D01*
X-6047Y-90520D01*
Y-89480D01*
X-6317Y-88474D01*
X-6837Y-87573D01*
X-7573Y-86837D01*
X-8474Y-86317D01*
X-9480Y-86047D01*
X-9888D01*
X-10192Y-85651D01*
X-10136Y-85443D01*
Y-84557D01*
X-10192Y-84349D01*
X-9888Y-83953D01*
X-9480D01*
X-8474Y-83683D01*
X-7573Y-83163D01*
X-6837Y-82427D01*
X-6317Y-81526D01*
X-6047Y-80520D01*
Y-79480D01*
X-6317Y-78474D01*
X-6837Y-77573D01*
X-7573Y-76837D01*
X-8474Y-76317D01*
X-9480Y-76047D01*
D02*
G37*
G36*
X-97905Y-86047D02*
X-98946D01*
X-99951Y-86317D01*
X-100852Y-86837D01*
X-101588Y-87573D01*
X-102109Y-88474D01*
X-102378Y-89480D01*
Y-90520D01*
X-102109Y-91526D01*
X-101588Y-92427D01*
X-100852Y-93163D01*
X-99951Y-93683D01*
X-98946Y-93953D01*
X-97905D01*
X-96899Y-93683D01*
X-95998Y-93163D01*
X-95262Y-92427D01*
X-94742Y-91526D01*
X-94472Y-90520D01*
Y-89480D01*
X-94742Y-88474D01*
X-95262Y-87573D01*
X-95998Y-86837D01*
X-96899Y-86317D01*
X-97905Y-86047D01*
D02*
G37*
G36*
X-107905D02*
X-108946D01*
X-109951Y-86317D01*
X-110852Y-86837D01*
X-111588Y-87573D01*
X-112109Y-88474D01*
X-112378Y-89480D01*
Y-90520D01*
X-112109Y-91526D01*
X-111588Y-92427D01*
X-110852Y-93163D01*
X-109951Y-93683D01*
X-108946Y-93953D01*
X-107905D01*
X-106899Y-93683D01*
X-105998Y-93163D01*
X-105262Y-92427D01*
X-104742Y-91526D01*
X-104472Y-90520D01*
Y-89480D01*
X-104742Y-88474D01*
X-105262Y-87573D01*
X-105998Y-86837D01*
X-106899Y-86317D01*
X-107905Y-86047D01*
D02*
G37*
G36*
X-53922Y-89502D02*
X-54807D01*
X-55662Y-89731D01*
X-56429Y-90174D01*
X-57055Y-90800D01*
X-57497Y-91566D01*
X-57726Y-92422D01*
Y-93307D01*
X-57497Y-94162D01*
X-57055Y-94929D01*
X-56429Y-95555D01*
X-55662Y-95997D01*
X-54807Y-96226D01*
X-53922D01*
X-53066Y-95997D01*
X-52300Y-95555D01*
X-51674Y-94929D01*
X-51231Y-94162D01*
X-51002Y-93307D01*
Y-92422D01*
X-51231Y-91566D01*
X-51674Y-90800D01*
X-52300Y-90174D01*
X-53066Y-89731D01*
X-53922Y-89502D01*
D02*
G37*
G36*
X91072Y-96047D02*
X90031D01*
X89025Y-96317D01*
X88124Y-96837D01*
X87388Y-97573D01*
X86868Y-98474D01*
X86598Y-99480D01*
Y-100520D01*
X86868Y-101526D01*
X87388Y-102427D01*
X88124Y-103163D01*
X89025Y-103683D01*
X90031Y-103953D01*
X91072D01*
X92077Y-103683D01*
X92978Y-103163D01*
X93714Y-102427D01*
X94235Y-101526D01*
X94504Y-100520D01*
Y-99480D01*
X94235Y-98474D01*
X93714Y-97573D01*
X92978Y-96837D01*
X92077Y-96317D01*
X91072Y-96047D01*
D02*
G37*
G36*
X81072D02*
X80031D01*
X79026Y-96317D01*
X78124Y-96837D01*
X77388Y-97573D01*
X76868Y-98474D01*
X76598Y-99480D01*
Y-100520D01*
X76868Y-101526D01*
X77388Y-102427D01*
X78124Y-103163D01*
X79026Y-103683D01*
X80031Y-103953D01*
X81072D01*
X82077Y-103683D01*
X82978Y-103163D01*
X83714Y-102427D01*
X84235Y-101526D01*
X84504Y-100520D01*
Y-99480D01*
X84235Y-98474D01*
X83714Y-97573D01*
X82978Y-96837D01*
X82077Y-96317D01*
X81072Y-96047D01*
D02*
G37*
G36*
X-9480D02*
X-10520D01*
X-11526Y-96317D01*
X-12427Y-96837D01*
X-13163Y-97573D01*
X-13683Y-98474D01*
X-13953Y-99480D01*
Y-100520D01*
X-13683Y-101526D01*
X-13163Y-102427D01*
X-12427Y-103163D01*
X-11526Y-103683D01*
X-10520Y-103953D01*
X-9480D01*
X-8474Y-103683D01*
X-7573Y-103163D01*
X-6837Y-102427D01*
X-6317Y-101526D01*
X-6047Y-100520D01*
Y-99480D01*
X-6317Y-98474D01*
X-6837Y-97573D01*
X-7573Y-96837D01*
X-8474Y-96317D01*
X-9480Y-96047D01*
D02*
G37*
G36*
X-97905D02*
X-98946D01*
X-99951Y-96317D01*
X-100852Y-96837D01*
X-101588Y-97573D01*
X-102109Y-98474D01*
X-102378Y-99480D01*
Y-100520D01*
X-102109Y-101526D01*
X-101588Y-102427D01*
X-100852Y-103163D01*
X-99951Y-103683D01*
X-98946Y-103953D01*
X-97905D01*
X-96899Y-103683D01*
X-95998Y-103163D01*
X-95262Y-102427D01*
X-94742Y-101526D01*
X-94472Y-100520D01*
Y-99480D01*
X-94742Y-98474D01*
X-95262Y-97573D01*
X-95998Y-96837D01*
X-96899Y-96317D01*
X-97905Y-96047D01*
D02*
G37*
G36*
X-107905D02*
X-108946D01*
X-109951Y-96317D01*
X-110852Y-96837D01*
X-111588Y-97573D01*
X-112109Y-98474D01*
X-112378Y-99480D01*
Y-100520D01*
X-112109Y-101526D01*
X-111588Y-102427D01*
X-110852Y-103163D01*
X-109951Y-103683D01*
X-108946Y-103953D01*
X-107905D01*
X-106899Y-103683D01*
X-105998Y-103163D01*
X-105262Y-102427D01*
X-104742Y-101526D01*
X-104472Y-100520D01*
Y-99480D01*
X-104742Y-98474D01*
X-105262Y-97573D01*
X-105998Y-96837D01*
X-106899Y-96317D01*
X-107905Y-96047D01*
D02*
G37*
G36*
X91072Y-106047D02*
X90031D01*
X89025Y-106317D01*
X88124Y-106837D01*
X87388Y-107573D01*
X86868Y-108474D01*
X86598Y-109480D01*
Y-110520D01*
X86868Y-111526D01*
X87388Y-112427D01*
X88124Y-113163D01*
X89025Y-113683D01*
X90031Y-113953D01*
X91072D01*
X92077Y-113683D01*
X92978Y-113163D01*
X93714Y-112427D01*
X94235Y-111526D01*
X94504Y-110520D01*
Y-109480D01*
X94235Y-108474D01*
X93714Y-107573D01*
X92978Y-106837D01*
X92077Y-106317D01*
X91072Y-106047D01*
D02*
G37*
G36*
X81072D02*
X80031D01*
X79026Y-106317D01*
X78124Y-106837D01*
X77388Y-107573D01*
X76868Y-108474D01*
X76598Y-109480D01*
Y-110520D01*
X76868Y-111526D01*
X77388Y-112427D01*
X78124Y-113163D01*
X79026Y-113683D01*
X80031Y-113953D01*
X81072D01*
X82077Y-113683D01*
X82978Y-113163D01*
X83714Y-112427D01*
X84235Y-111526D01*
X84504Y-110520D01*
Y-109480D01*
X84235Y-108474D01*
X83714Y-107573D01*
X82978Y-106837D01*
X82077Y-106317D01*
X81072Y-106047D01*
D02*
G37*
G36*
X-9480D02*
X-10520D01*
X-11526Y-106317D01*
X-12427Y-106837D01*
X-13163Y-107573D01*
X-13683Y-108474D01*
X-13953Y-109480D01*
Y-110520D01*
X-13683Y-111526D01*
X-13163Y-112427D01*
X-12427Y-113163D01*
X-11526Y-113683D01*
X-10520Y-113953D01*
X-9480D01*
X-8474Y-113683D01*
X-7573Y-113163D01*
X-6837Y-112427D01*
X-6317Y-111526D01*
X-6047Y-110520D01*
Y-109480D01*
X-6317Y-108474D01*
X-6837Y-107573D01*
X-7573Y-106837D01*
X-8474Y-106317D01*
X-9480Y-106047D01*
D02*
G37*
G36*
X-97905D02*
X-98946D01*
X-99951Y-106317D01*
X-100852Y-106837D01*
X-101588Y-107573D01*
X-102109Y-108474D01*
X-102378Y-109480D01*
Y-110520D01*
X-102109Y-111526D01*
X-101588Y-112427D01*
X-100852Y-113163D01*
X-99951Y-113683D01*
X-98946Y-113953D01*
X-97905D01*
X-96899Y-113683D01*
X-95998Y-113163D01*
X-95262Y-112427D01*
X-94742Y-111526D01*
X-94472Y-110520D01*
Y-109480D01*
X-94742Y-108474D01*
X-95262Y-107573D01*
X-95998Y-106837D01*
X-96899Y-106317D01*
X-97905Y-106047D01*
D02*
G37*
G36*
X-107905D02*
X-108946D01*
X-109951Y-106317D01*
X-110852Y-106837D01*
X-111588Y-107573D01*
X-112109Y-108474D01*
X-112378Y-109480D01*
Y-110520D01*
X-112109Y-111526D01*
X-111588Y-112427D01*
X-110852Y-113163D01*
X-109951Y-113683D01*
X-108946Y-113953D01*
X-107905D01*
X-106899Y-113683D01*
X-105998Y-113163D01*
X-105262Y-112427D01*
X-104742Y-111526D01*
X-104472Y-110520D01*
Y-109480D01*
X-104742Y-108474D01*
X-105262Y-107573D01*
X-105998Y-106837D01*
X-106899Y-106317D01*
X-107905Y-106047D01*
D02*
G37*
G36*
X91072Y-116047D02*
X90031D01*
X89025Y-116317D01*
X88124Y-116837D01*
X87388Y-117573D01*
X86868Y-118474D01*
X86598Y-119480D01*
Y-120520D01*
X86868Y-121526D01*
X87388Y-122427D01*
X88124Y-123163D01*
X89025Y-123683D01*
X90031Y-123953D01*
X91072D01*
X92077Y-123683D01*
X92978Y-123163D01*
X93714Y-122427D01*
X94235Y-121526D01*
X94504Y-120520D01*
Y-119480D01*
X94235Y-118474D01*
X93714Y-117573D01*
X92978Y-116837D01*
X92077Y-116317D01*
X91072Y-116047D01*
D02*
G37*
G36*
X81072D02*
X80031D01*
X79026Y-116317D01*
X78124Y-116837D01*
X77388Y-117573D01*
X76868Y-118474D01*
X76598Y-119480D01*
Y-120520D01*
X76868Y-121526D01*
X77388Y-122427D01*
X78124Y-123163D01*
X79026Y-123683D01*
X80031Y-123953D01*
X81072D01*
X82077Y-123683D01*
X82978Y-123163D01*
X83714Y-122427D01*
X84235Y-121526D01*
X84504Y-120520D01*
Y-119480D01*
X84235Y-118474D01*
X83714Y-117573D01*
X82978Y-116837D01*
X82077Y-116317D01*
X81072Y-116047D01*
D02*
G37*
G36*
X-9480D02*
X-10520D01*
X-11526Y-116317D01*
X-12427Y-116837D01*
X-13163Y-117573D01*
X-13683Y-118474D01*
X-13953Y-119480D01*
Y-120520D01*
X-13683Y-121526D01*
X-13163Y-122427D01*
X-12427Y-123163D01*
X-11526Y-123683D01*
X-10520Y-123953D01*
X-9480D01*
X-8474Y-123683D01*
X-7573Y-123163D01*
X-6837Y-122427D01*
X-6317Y-121526D01*
X-6047Y-120520D01*
Y-119480D01*
X-6317Y-118474D01*
X-6837Y-117573D01*
X-7573Y-116837D01*
X-8474Y-116317D01*
X-9480Y-116047D01*
D02*
G37*
G36*
X-97905D02*
X-98946D01*
X-99951Y-116317D01*
X-100852Y-116837D01*
X-101588Y-117573D01*
X-102109Y-118474D01*
X-102378Y-119480D01*
Y-120520D01*
X-102109Y-121526D01*
X-101588Y-122427D01*
X-100852Y-123163D01*
X-99951Y-123683D01*
X-98946Y-123953D01*
X-97905D01*
X-96899Y-123683D01*
X-95998Y-123163D01*
X-95262Y-122427D01*
X-94742Y-121526D01*
X-94472Y-120520D01*
Y-119480D01*
X-94742Y-118474D01*
X-95262Y-117573D01*
X-95998Y-116837D01*
X-96899Y-116317D01*
X-97905Y-116047D01*
D02*
G37*
G36*
X-107905D02*
X-108946D01*
X-109951Y-116317D01*
X-110852Y-116837D01*
X-111588Y-117573D01*
X-112109Y-118474D01*
X-112378Y-119480D01*
Y-120520D01*
X-112109Y-121526D01*
X-111588Y-122427D01*
X-110852Y-123163D01*
X-109951Y-123683D01*
X-108946Y-123953D01*
X-107905D01*
X-106899Y-123683D01*
X-105998Y-123163D01*
X-105262Y-122427D01*
X-104742Y-121526D01*
X-104472Y-120520D01*
Y-119480D01*
X-104742Y-118474D01*
X-105262Y-117573D01*
X-105998Y-116837D01*
X-106899Y-116317D01*
X-107905Y-116047D01*
D02*
G37*
G36*
X91072Y-126047D02*
X90031D01*
X89025Y-126317D01*
X88124Y-126837D01*
X87388Y-127573D01*
X86868Y-128474D01*
X86598Y-129480D01*
Y-130520D01*
X86868Y-131526D01*
X87388Y-132427D01*
X88124Y-133163D01*
X89025Y-133683D01*
X90031Y-133953D01*
X91072D01*
X92077Y-133683D01*
X92978Y-133163D01*
X93714Y-132427D01*
X94235Y-131526D01*
X94504Y-130520D01*
Y-129480D01*
X94235Y-128474D01*
X93714Y-127573D01*
X92978Y-126837D01*
X92077Y-126317D01*
X91072Y-126047D01*
D02*
G37*
G36*
X81072D02*
X80031D01*
X79026Y-126317D01*
X78124Y-126837D01*
X77388Y-127573D01*
X76868Y-128474D01*
X76598Y-129480D01*
Y-130520D01*
X76868Y-131526D01*
X77388Y-132427D01*
X78124Y-133163D01*
X79026Y-133683D01*
X80031Y-133953D01*
X81072D01*
X82077Y-133683D01*
X82978Y-133163D01*
X83714Y-132427D01*
X84235Y-131526D01*
X84504Y-130520D01*
Y-129480D01*
X84235Y-128474D01*
X83714Y-127573D01*
X82978Y-126837D01*
X82077Y-126317D01*
X81072Y-126047D01*
D02*
G37*
G36*
X-9480D02*
X-10520D01*
X-11526Y-126317D01*
X-12427Y-126837D01*
X-13163Y-127573D01*
X-13683Y-128474D01*
X-13953Y-129480D01*
Y-130520D01*
X-13683Y-131526D01*
X-13163Y-132427D01*
X-12427Y-133163D01*
X-11526Y-133683D01*
X-10520Y-133953D01*
X-9480D01*
X-8474Y-133683D01*
X-7573Y-133163D01*
X-6837Y-132427D01*
X-6317Y-131526D01*
X-6047Y-130520D01*
Y-129480D01*
X-6317Y-128474D01*
X-6837Y-127573D01*
X-7573Y-126837D01*
X-8474Y-126317D01*
X-9480Y-126047D01*
D02*
G37*
G36*
X-97905D02*
X-98946D01*
X-99951Y-126317D01*
X-100852Y-126837D01*
X-101588Y-127573D01*
X-102109Y-128474D01*
X-102378Y-129480D01*
Y-130520D01*
X-102109Y-131526D01*
X-101588Y-132427D01*
X-100852Y-133163D01*
X-99951Y-133683D01*
X-98946Y-133953D01*
X-97905D01*
X-96899Y-133683D01*
X-95998Y-133163D01*
X-95262Y-132427D01*
X-94742Y-131526D01*
X-94472Y-130520D01*
Y-129480D01*
X-94742Y-128474D01*
X-95262Y-127573D01*
X-95998Y-126837D01*
X-96899Y-126317D01*
X-97905Y-126047D01*
D02*
G37*
G36*
X-107905D02*
X-108946D01*
X-109951Y-126317D01*
X-110852Y-126837D01*
X-111588Y-127573D01*
X-112109Y-128474D01*
X-112378Y-129480D01*
Y-130520D01*
X-112109Y-131526D01*
X-111588Y-132427D01*
X-110852Y-133163D01*
X-109951Y-133683D01*
X-108946Y-133953D01*
X-107905D01*
X-106899Y-133683D01*
X-105998Y-133163D01*
X-105262Y-132427D01*
X-104742Y-131526D01*
X-104472Y-130520D01*
Y-129480D01*
X-104742Y-128474D01*
X-105262Y-127573D01*
X-105998Y-126837D01*
X-106899Y-126317D01*
X-107905Y-126047D01*
D02*
G37*
G36*
X91072Y-136047D02*
X90031D01*
X89025Y-136317D01*
X88124Y-136837D01*
X87388Y-137573D01*
X86868Y-138474D01*
X86598Y-139480D01*
Y-140520D01*
X86868Y-141526D01*
X87388Y-142427D01*
X88124Y-143163D01*
X89025Y-143683D01*
X90031Y-143953D01*
X91072D01*
X92077Y-143683D01*
X92978Y-143163D01*
X93714Y-142427D01*
X94235Y-141526D01*
X94504Y-140520D01*
Y-139480D01*
X94235Y-138474D01*
X93714Y-137573D01*
X92978Y-136837D01*
X92077Y-136317D01*
X91072Y-136047D01*
D02*
G37*
G36*
X81072D02*
X80031D01*
X79026Y-136317D01*
X78124Y-136837D01*
X77388Y-137573D01*
X76868Y-138474D01*
X76598Y-139480D01*
Y-140520D01*
X76868Y-141526D01*
X77388Y-142427D01*
X78124Y-143163D01*
X79026Y-143683D01*
X80031Y-143953D01*
X81072D01*
X82077Y-143683D01*
X82978Y-143163D01*
X83714Y-142427D01*
X84235Y-141526D01*
X84504Y-140520D01*
Y-139480D01*
X84235Y-138474D01*
X83714Y-137573D01*
X82978Y-136837D01*
X82077Y-136317D01*
X81072Y-136047D01*
D02*
G37*
G36*
X-9480D02*
X-10520D01*
X-11526Y-136317D01*
X-12427Y-136837D01*
X-13163Y-137573D01*
X-13683Y-138474D01*
X-13953Y-139480D01*
Y-140520D01*
X-13683Y-141526D01*
X-13163Y-142427D01*
X-12427Y-143163D01*
X-11526Y-143683D01*
X-10520Y-143953D01*
X-9480D01*
X-8474Y-143683D01*
X-7573Y-143163D01*
X-6837Y-142427D01*
X-6317Y-141526D01*
X-6047Y-140520D01*
Y-139480D01*
X-6317Y-138474D01*
X-6837Y-137573D01*
X-7573Y-136837D01*
X-8474Y-136317D01*
X-9480Y-136047D01*
D02*
G37*
G36*
X-97905D02*
X-98946D01*
X-99951Y-136317D01*
X-100852Y-136837D01*
X-101588Y-137573D01*
X-102109Y-138474D01*
X-102378Y-139480D01*
Y-140520D01*
X-102109Y-141526D01*
X-101588Y-142427D01*
X-100852Y-143163D01*
X-99951Y-143683D01*
X-98946Y-143953D01*
X-97905D01*
X-96899Y-143683D01*
X-95998Y-143163D01*
X-95262Y-142427D01*
X-94742Y-141526D01*
X-94472Y-140520D01*
Y-139480D01*
X-94742Y-138474D01*
X-95262Y-137573D01*
X-95998Y-136837D01*
X-96899Y-136317D01*
X-97905Y-136047D01*
D02*
G37*
G36*
X-107905D02*
X-108946D01*
X-109951Y-136317D01*
X-110852Y-136837D01*
X-111588Y-137573D01*
X-112109Y-138474D01*
X-112378Y-139480D01*
Y-140520D01*
X-112109Y-141526D01*
X-111588Y-142427D01*
X-110852Y-143163D01*
X-109951Y-143683D01*
X-108946Y-143953D01*
X-107905D01*
X-106899Y-143683D01*
X-105998Y-143163D01*
X-105262Y-142427D01*
X-104742Y-141526D01*
X-104472Y-140520D01*
Y-139480D01*
X-104742Y-138474D01*
X-105262Y-137573D01*
X-105998Y-136837D01*
X-106899Y-136317D01*
X-107905Y-136047D01*
D02*
G37*
G36*
X91072Y-146047D02*
X90031D01*
X89025Y-146317D01*
X88124Y-146837D01*
X87388Y-147573D01*
X86868Y-148474D01*
X86598Y-149480D01*
Y-150520D01*
X86868Y-151526D01*
X87388Y-152427D01*
X88124Y-153163D01*
X89025Y-153683D01*
X90031Y-153953D01*
X91072D01*
X92077Y-153683D01*
X92978Y-153163D01*
X93714Y-152427D01*
X94235Y-151526D01*
X94504Y-150520D01*
Y-149480D01*
X94235Y-148474D01*
X93714Y-147573D01*
X92978Y-146837D01*
X92077Y-146317D01*
X91072Y-146047D01*
D02*
G37*
G36*
X81072D02*
X80031D01*
X79026Y-146317D01*
X78124Y-146837D01*
X77388Y-147573D01*
X76868Y-148474D01*
X76598Y-149480D01*
Y-150520D01*
X76868Y-151526D01*
X77388Y-152427D01*
X78124Y-153163D01*
X79026Y-153683D01*
X80031Y-153953D01*
X81072D01*
X82077Y-153683D01*
X82978Y-153163D01*
X83714Y-152427D01*
X84235Y-151526D01*
X84504Y-150520D01*
Y-149480D01*
X84235Y-148474D01*
X83714Y-147573D01*
X82978Y-146837D01*
X82077Y-146317D01*
X81072Y-146047D01*
D02*
G37*
G36*
X-107905D02*
X-108946D01*
X-109951Y-146317D01*
X-110852Y-146837D01*
X-111588Y-147573D01*
X-112109Y-148474D01*
X-112378Y-149480D01*
Y-150520D01*
X-112109Y-151526D01*
X-111588Y-152427D01*
X-110852Y-153163D01*
X-109951Y-153683D01*
X-108946Y-153953D01*
X-107905D01*
X-106899Y-153683D01*
X-105998Y-153163D01*
X-105262Y-152427D01*
X-104742Y-151526D01*
X-104472Y-150520D01*
Y-149480D01*
X-104742Y-148474D01*
X-105262Y-147573D01*
X-105998Y-146837D01*
X-106899Y-146317D01*
X-107905Y-146047D01*
D02*
G37*
G36*
X91072Y-156047D02*
X90031D01*
X89025Y-156317D01*
X88124Y-156837D01*
X87388Y-157573D01*
X86868Y-158474D01*
X86598Y-159480D01*
Y-160520D01*
X86868Y-161526D01*
X87388Y-162427D01*
X88124Y-163163D01*
X89025Y-163683D01*
X90031Y-163953D01*
X91072D01*
X92077Y-163683D01*
X92978Y-163163D01*
X93714Y-162427D01*
X94235Y-161526D01*
X94504Y-160520D01*
Y-159480D01*
X94235Y-158474D01*
X93714Y-157573D01*
X92978Y-156837D01*
X92077Y-156317D01*
X91072Y-156047D01*
D02*
G37*
G36*
X81072D02*
X80031D01*
X79026Y-156317D01*
X78124Y-156837D01*
X77388Y-157573D01*
X76868Y-158474D01*
X76598Y-159480D01*
Y-160520D01*
X76868Y-161526D01*
X77388Y-162427D01*
X78124Y-163163D01*
X79026Y-163683D01*
X80031Y-163953D01*
X81072D01*
X82077Y-163683D01*
X82978Y-163163D01*
X83714Y-162427D01*
X84235Y-161526D01*
X84504Y-160520D01*
Y-159480D01*
X84235Y-158474D01*
X83714Y-157573D01*
X82978Y-156837D01*
X82077Y-156317D01*
X81072Y-156047D01*
D02*
G37*
G36*
X91072Y-166047D02*
X90031D01*
X89025Y-166317D01*
X88124Y-166837D01*
X87388Y-167573D01*
X86868Y-168474D01*
X86598Y-169480D01*
Y-170520D01*
X86868Y-171526D01*
X87388Y-172427D01*
X88124Y-173163D01*
X89025Y-173683D01*
X90031Y-173953D01*
X91072D01*
X92077Y-173683D01*
X92978Y-173163D01*
X93714Y-172427D01*
X94235Y-171526D01*
X94504Y-170520D01*
Y-169480D01*
X94235Y-168474D01*
X93714Y-167573D01*
X92978Y-166837D01*
X92077Y-166317D01*
X91072Y-166047D01*
D02*
G37*
G36*
X81072D02*
X80031D01*
X79026Y-166317D01*
X78124Y-166837D01*
X77388Y-167573D01*
X76868Y-168474D01*
X76598Y-169480D01*
Y-170520D01*
X76868Y-171526D01*
X77388Y-172427D01*
X78124Y-173163D01*
X79026Y-173683D01*
X80031Y-173953D01*
X81072D01*
X82077Y-173683D01*
X82978Y-173163D01*
X83714Y-172427D01*
X84235Y-171526D01*
X84504Y-170520D01*
Y-169480D01*
X84235Y-168474D01*
X83714Y-167573D01*
X82978Y-166837D01*
X82077Y-166317D01*
X81072Y-166047D01*
D02*
G37*
G36*
X-97905D02*
X-98946D01*
X-99951Y-166317D01*
X-100852Y-166837D01*
X-101588Y-167573D01*
X-102109Y-168474D01*
X-102378Y-169480D01*
Y-170520D01*
X-102109Y-171526D01*
X-101588Y-172427D01*
X-100852Y-173163D01*
X-99951Y-173683D01*
X-98946Y-173953D01*
X-97905D01*
X-96899Y-173683D01*
X-95998Y-173163D01*
X-95262Y-172427D01*
X-94742Y-171526D01*
X-94472Y-170520D01*
Y-169480D01*
X-94742Y-168474D01*
X-95262Y-167573D01*
X-95998Y-166837D01*
X-96899Y-166317D01*
X-97905Y-166047D01*
D02*
G37*
G36*
X-107905D02*
X-108946D01*
X-109951Y-166317D01*
X-110852Y-166837D01*
X-111588Y-167573D01*
X-112109Y-168474D01*
X-112378Y-169480D01*
Y-170520D01*
X-112109Y-171526D01*
X-111588Y-172427D01*
X-110852Y-173163D01*
X-109951Y-173683D01*
X-108946Y-173953D01*
X-107905D01*
X-106899Y-173683D01*
X-105998Y-173163D01*
X-105262Y-172427D01*
X-104742Y-171526D01*
X-104472Y-170520D01*
Y-169480D01*
X-104742Y-168474D01*
X-105262Y-167573D01*
X-105998Y-166837D01*
X-106899Y-166317D01*
X-107905Y-166047D01*
D02*
G37*
G36*
X-151567Y-36047D02*
X-152607D01*
X-153613Y-36317D01*
X-154514Y-36837D01*
X-155250Y-37573D01*
X-155770Y-38474D01*
X-156040Y-39480D01*
Y-40520D01*
X-155770Y-41526D01*
X-155250Y-42427D01*
X-154514Y-43163D01*
X-153613Y-43683D01*
X-152607Y-43953D01*
X-151567D01*
X-150561Y-43683D01*
X-149660Y-43163D01*
X-148924Y-42427D01*
X-148404Y-41526D01*
X-148134Y-40520D01*
Y-39480D01*
X-148404Y-38474D01*
X-148924Y-37573D01*
X-149660Y-36837D01*
X-150561Y-36317D01*
X-151567Y-36047D01*
D02*
G37*
G36*
X-161566D02*
X-162607D01*
X-163613Y-36317D01*
X-164514Y-36837D01*
X-165250Y-37573D01*
X-165770Y-38474D01*
X-166040Y-39480D01*
Y-40520D01*
X-165770Y-41526D01*
X-165250Y-42427D01*
X-164514Y-43163D01*
X-163613Y-43683D01*
X-162607Y-43953D01*
X-161566D01*
X-160561Y-43683D01*
X-159660Y-43163D01*
X-158924Y-42427D01*
X-158404Y-41526D01*
X-158134Y-40520D01*
Y-39480D01*
X-158404Y-38474D01*
X-158924Y-37573D01*
X-159660Y-36837D01*
X-160561Y-36317D01*
X-161566Y-36047D01*
D02*
G37*
G36*
X-129057Y-44138D02*
X-129943D01*
X-130798Y-44367D01*
X-131564Y-44810D01*
X-132190Y-45436D01*
X-132633Y-46202D01*
X-132862Y-47057D01*
Y-47943D01*
X-132633Y-48798D01*
X-132190Y-49564D01*
X-131564Y-50190D01*
X-130798Y-50633D01*
X-129943Y-50862D01*
X-129057D01*
X-128202Y-50633D01*
X-127436Y-50190D01*
X-126810Y-49564D01*
X-126367Y-48798D01*
X-126138Y-47943D01*
Y-47057D01*
X-126367Y-46202D01*
X-126810Y-45436D01*
X-127436Y-44810D01*
X-128202Y-44367D01*
X-129057Y-44138D01*
D02*
G37*
G36*
X-151567Y-46047D02*
X-152607D01*
X-153613Y-46317D01*
X-154514Y-46837D01*
X-155250Y-47573D01*
X-155770Y-48474D01*
X-156040Y-49480D01*
Y-50520D01*
X-155770Y-51526D01*
X-155250Y-52427D01*
X-154514Y-53163D01*
X-153613Y-53683D01*
X-152607Y-53953D01*
X-151567D01*
X-150561Y-53683D01*
X-149660Y-53163D01*
X-148924Y-52427D01*
X-148404Y-51526D01*
X-148134Y-50520D01*
Y-49480D01*
X-148404Y-48474D01*
X-148924Y-47573D01*
X-149660Y-46837D01*
X-150561Y-46317D01*
X-151567Y-46047D01*
D02*
G37*
G36*
X-161566D02*
X-162607D01*
X-163613Y-46317D01*
X-164514Y-46837D01*
X-165250Y-47573D01*
X-165770Y-48474D01*
X-166040Y-49480D01*
Y-50520D01*
X-165770Y-51526D01*
X-165250Y-52427D01*
X-164514Y-53163D01*
X-163613Y-53683D01*
X-162607Y-53953D01*
X-161566D01*
X-160561Y-53683D01*
X-159660Y-53163D01*
X-158924Y-52427D01*
X-158404Y-51526D01*
X-158134Y-50520D01*
Y-49480D01*
X-158404Y-48474D01*
X-158924Y-47573D01*
X-159660Y-46837D01*
X-160561Y-46317D01*
X-161566Y-46047D01*
D02*
G37*
G36*
X-151567Y-56047D02*
X-152607D01*
X-153613Y-56317D01*
X-154514Y-56837D01*
X-155250Y-57573D01*
X-155770Y-58474D01*
X-156040Y-59480D01*
Y-60520D01*
X-155770Y-61526D01*
X-155250Y-62427D01*
X-154514Y-63163D01*
X-153613Y-63683D01*
X-152607Y-63953D01*
X-151567D01*
X-150561Y-63683D01*
X-149660Y-63163D01*
X-148924Y-62427D01*
X-148404Y-61526D01*
X-148134Y-60520D01*
Y-59480D01*
X-148404Y-58474D01*
X-148924Y-57573D01*
X-149660Y-56837D01*
X-150561Y-56317D01*
X-151567Y-56047D01*
D02*
G37*
G36*
X-161566D02*
X-162607D01*
X-163613Y-56317D01*
X-164514Y-56837D01*
X-165250Y-57573D01*
X-165770Y-58474D01*
X-166040Y-59480D01*
Y-60520D01*
X-165770Y-61526D01*
X-165250Y-62427D01*
X-164514Y-63163D01*
X-163613Y-63683D01*
X-162607Y-63953D01*
X-161566D01*
X-160561Y-63683D01*
X-159660Y-63163D01*
X-158924Y-62427D01*
X-158404Y-61526D01*
X-158134Y-60520D01*
Y-59480D01*
X-158404Y-58474D01*
X-158924Y-57573D01*
X-159660Y-56837D01*
X-160561Y-56317D01*
X-161566Y-56047D01*
D02*
G37*
%LPD*%
D33*
X-214409Y-39370D02*
X-201870D01*
X-187224Y-24724D02*
X-156811D01*
X-201870Y-39370D02*
X-187224Y-24724D01*
X-156811D02*
X-152087Y-20000D01*
X-5000Y-63000D02*
Y-55000D01*
Y-63000D02*
X-2724Y-65276D01*
X2776D01*
X-10000Y-50000D02*
X-5000Y-55000D01*
X2776Y-65276D02*
X8500Y-71000D01*
Y-162500D02*
Y-71000D01*
X5724Y-165276D02*
X8500Y-162500D01*
X-5276Y-165276D02*
X5724D01*
X-10000Y-170000D02*
X-5276Y-165276D01*
D34*
X-108425Y-160000D02*
X-103675Y-155250D01*
X3750D01*
X5500Y-153500D01*
Y-78000D01*
X2028Y-74528D02*
X5500Y-78000D01*
X-10000Y-70000D02*
X-5472Y-74528D01*
X2028D01*
D36*
X-152087Y0D02*
D03*
X-162087D02*
D03*
X-152087Y-10000D02*
D03*
X-162087D02*
D03*
X-152087Y-20000D02*
D03*
X-162087D02*
D03*
X-152087Y-30000D02*
D03*
X-162087D02*
D03*
X-152087Y-40000D02*
D03*
X-162087D02*
D03*
X-152087Y-50000D02*
D03*
X-162087D02*
D03*
X-152087Y-60000D02*
D03*
X-162087D02*
D03*
X-152087Y-70000D02*
D03*
X-162087D02*
D03*
X-152087Y-80000D02*
D03*
X-162087D02*
D03*
X-152087Y-90000D02*
D03*
X-162087D02*
D03*
X-152087Y-100000D02*
D03*
X-162087D02*
D03*
X-152087Y-110000D02*
D03*
X-162087D02*
D03*
X-152087Y-120000D02*
D03*
X-162087D02*
D03*
X-152087Y-130000D02*
D03*
X-162087D02*
D03*
X-152087Y-140000D02*
D03*
X-162087D02*
D03*
X-152087Y-150000D02*
D03*
X-162087D02*
D03*
X-152087Y-160000D02*
D03*
X-162087D02*
D03*
X-152087Y-170000D02*
D03*
X80551Y0D02*
D03*
Y-10000D02*
D03*
Y-20000D02*
D03*
X-261772Y-160000D02*
D03*
X-251772D02*
D03*
X-261772Y-170000D02*
D03*
X-251772D02*
D03*
X80551D02*
D03*
X90551D02*
D03*
X80551Y-160000D02*
D03*
X90551Y-130000D02*
D03*
X80551Y-90000D02*
D03*
X90551Y-70000D02*
D03*
Y-50000D02*
D03*
Y-40000D02*
D03*
Y-30000D02*
D03*
Y-20000D02*
D03*
Y-10000D02*
D03*
X-98425Y-90000D02*
D03*
X-108425D02*
D03*
X-98425Y-100000D02*
D03*
Y-110000D02*
D03*
Y-120000D02*
D03*
Y-130000D02*
D03*
Y-140000D02*
D03*
Y-150000D02*
D03*
Y-160000D02*
D03*
Y-170000D02*
D03*
X0Y-10000D02*
D03*
Y-20000D02*
D03*
Y-30000D02*
D03*
Y-40000D02*
D03*
Y-50000D02*
D03*
Y-60000D02*
D03*
Y-70000D02*
D03*
Y-80000D02*
D03*
Y-90000D02*
D03*
Y-100000D02*
D03*
Y-110000D02*
D03*
Y-120000D02*
D03*
Y-130000D02*
D03*
X-10000D02*
D03*
X0Y-140000D02*
D03*
Y-150000D02*
D03*
Y-160000D02*
D03*
Y-170000D02*
D03*
X-261772Y-120000D02*
D03*
X-251772D02*
D03*
X-261772Y-130000D02*
D03*
X-251772D02*
D03*
X80551Y-30000D02*
D03*
Y-40000D02*
D03*
Y-50000D02*
D03*
X90551Y-60000D02*
D03*
X80551D02*
D03*
Y-70000D02*
D03*
X90551Y-80000D02*
D03*
X80551D02*
D03*
X90551Y-90000D02*
D03*
Y-100000D02*
D03*
X80551D02*
D03*
X90551Y-110000D02*
D03*
X80551D02*
D03*
X90551Y-120000D02*
D03*
X80551D02*
D03*
Y-130000D02*
D03*
X90551Y-140000D02*
D03*
X80551D02*
D03*
X90551Y-150000D02*
D03*
X80551D02*
D03*
X90551Y-160000D02*
D03*
X-10000Y-170000D02*
D03*
Y-160000D02*
D03*
Y-150000D02*
D03*
Y-140000D02*
D03*
Y-120000D02*
D03*
Y-110000D02*
D03*
Y-100000D02*
D03*
Y-90000D02*
D03*
Y-80000D02*
D03*
Y-70000D02*
D03*
Y-60000D02*
D03*
Y-50000D02*
D03*
Y-40000D02*
D03*
Y-30000D02*
D03*
Y-20000D02*
D03*
Y-10000D02*
D03*
Y0D02*
D03*
X-108425Y-170000D02*
D03*
Y-160000D02*
D03*
Y-150000D02*
D03*
Y-140000D02*
D03*
Y-130000D02*
D03*
Y-120000D02*
D03*
Y-110000D02*
D03*
Y-100000D02*
D03*
Y-80000D02*
D03*
X-98425D02*
D03*
X-108425Y-70000D02*
D03*
X-98425D02*
D03*
X-108425Y-60000D02*
D03*
X-98425D02*
D03*
X-108425Y-50000D02*
D03*
X-98425D02*
D03*
X-108425Y-40000D02*
D03*
X-98425D02*
D03*
X-108425Y-30000D02*
D03*
X-98425D02*
D03*
X-108425Y-20000D02*
D03*
X-98425D02*
D03*
X-108425Y-10000D02*
D03*
X-98425D02*
D03*
X-108425Y0D02*
D03*
X-251772Y-150000D02*
D03*
X-261772D02*
D03*
X-251772Y-140000D02*
D03*
X-261772D02*
D03*
X-251772Y-110000D02*
D03*
X-261772D02*
D03*
X-251772Y-100000D02*
D03*
X-261772D02*
D03*
X-251772Y-90000D02*
D03*
X-261772D02*
D03*
X-251772Y-80000D02*
D03*
X-261772D02*
D03*
X-251772Y-70000D02*
D03*
X-261772D02*
D03*
X-251772Y-60000D02*
D03*
X-261772D02*
D03*
X-251772Y-50000D02*
D03*
X-261772D02*
D03*
X-251772Y-40000D02*
D03*
X-261772D02*
D03*
X-251772Y-30000D02*
D03*
X-261772D02*
D03*
X-251772Y-20000D02*
D03*
X-261772D02*
D03*
X-251772Y-10000D02*
D03*
X-261772D02*
D03*
X-251772Y0D02*
D03*
D37*
X-162087Y-170000D02*
D03*
X90551Y0D02*
D03*
X0D02*
D03*
X-98425D02*
D03*
X-261772D02*
D03*
D38*
X-204724Y-29528D02*
D03*
X-224410D02*
D03*
Y-49213D02*
D03*
X-204724D02*
D03*
X-214567Y-39370D02*
D03*
D39*
X-129000Y-7000D02*
D03*
X-129500Y-47500D02*
D03*
X-130500Y-87000D02*
D03*
X-140500Y-154500D02*
D03*
X-128500Y-158500D02*
D03*
X-24500Y-18000D02*
D03*
X-26000Y-58516D02*
D03*
X56500Y-20000D02*
D03*
X57500Y-52000D02*
D03*
X-174500Y-145500D02*
D03*
X-186000Y-116000D02*
D03*
X-182000Y-124000D02*
D03*
X-157000Y-74000D02*
D03*
X-173000Y-30500D02*
D03*
X-183500Y-172000D02*
D03*
X-183000Y-20000D02*
D03*
Y-3500D02*
D03*
X-209000Y-10000D02*
D03*
X-140500Y-88500D02*
D03*
X-141000Y-1500D02*
D03*
X27500Y-9000D02*
D03*
X28500Y-41000D02*
D03*
X-13498Y-85000D02*
D03*
X-54364Y-92864D02*
D03*
X-54154Y-87347D02*
D03*
X-15500Y-46000D02*
D03*
X69500Y-29000D02*
D03*
X69000Y2000D02*
D03*
D40*
X-141000Y-53500D02*
D03*
X-45000Y-21000D02*
D03*
M02*
