G04*
G04 #@! TF.GenerationSoftware,Altium Limited,Altium Designer,22.4.2 (48)*
G04*
G04 Layer_Color=65535*
%FSLAX25Y25*%
%MOIN*%
G70*
G04*
G04 #@! TF.SameCoordinates,F956CD7A-ACF5-426A-BAEE-EF4E17F90500*
G04*
G04*
G04 #@! TF.FilePolarity,Positive*
G04*
G01*
G75*
%ADD10C,0.00984*%
%ADD11C,0.00787*%
%ADD12C,0.00800*%
G36*
X-231547Y-101920D02*
X-241151D01*
Y-70080D01*
X-231547D01*
Y-101920D01*
D02*
G37*
G36*
X71341Y-89702D02*
Y-99038D01*
Y-114500D01*
X12659D01*
Y-99038D01*
Y-89702D01*
Y-75500D01*
X71341D01*
Y-89702D01*
D02*
G37*
G36*
X-230849Y-56710D02*
X-241151D01*
Y-21290D01*
X-230849D01*
Y-56710D01*
D02*
G37*
G36*
X-231547Y-155633D02*
X-241151D01*
Y-121367D01*
X-231547D01*
Y-155633D01*
D02*
G37*
G36*
X-54468Y-114419D02*
X-54435D01*
X-54353Y-114430D01*
X-54261Y-114441D01*
X-54157Y-114462D01*
X-54053Y-114495D01*
X-53949Y-114533D01*
X-53944D01*
X-53939Y-114539D01*
X-53906Y-114555D01*
X-53857Y-114582D01*
X-53791Y-114615D01*
X-53726Y-114664D01*
X-53655Y-114714D01*
X-53589Y-114774D01*
X-53535Y-114845D01*
X-53529Y-114855D01*
X-53513Y-114877D01*
X-53491Y-114921D01*
X-53458Y-114976D01*
X-53425Y-115041D01*
X-53398Y-115118D01*
X-53365Y-115205D01*
X-53343Y-115303D01*
Y-115309D01*
X-53338Y-115336D01*
X-53333Y-115380D01*
X-53322Y-115440D01*
X-53316Y-115522D01*
Y-115571D01*
X-53311Y-115625D01*
Y-115685D01*
X-53305Y-115756D01*
Y-115827D01*
Y-115904D01*
Y-118148D01*
X-53922D01*
Y-115926D01*
Y-115920D01*
Y-115909D01*
Y-115887D01*
Y-115866D01*
Y-115833D01*
X-53928Y-115795D01*
X-53933Y-115713D01*
X-53939Y-115620D01*
X-53955Y-115527D01*
X-53971Y-115440D01*
X-53999Y-115363D01*
X-54004Y-115352D01*
X-54015Y-115331D01*
X-54031Y-115298D01*
X-54059Y-115254D01*
X-54092Y-115205D01*
X-54135Y-115156D01*
X-54190Y-115107D01*
X-54255Y-115063D01*
X-54261Y-115058D01*
X-54288Y-115047D01*
X-54326Y-115025D01*
X-54375Y-115003D01*
X-54441Y-114987D01*
X-54512Y-114965D01*
X-54594Y-114954D01*
X-54687Y-114948D01*
X-54725D01*
X-54752Y-114954D01*
X-54785D01*
X-54829Y-114959D01*
X-54921Y-114981D01*
X-55025Y-115008D01*
X-55140Y-115052D01*
X-55254Y-115118D01*
X-55314Y-115156D01*
X-55369Y-115199D01*
X-55375Y-115205D01*
X-55380Y-115210D01*
X-55396Y-115227D01*
X-55413Y-115249D01*
X-55435Y-115281D01*
X-55457Y-115314D01*
X-55484Y-115358D01*
X-55511Y-115412D01*
X-55538Y-115472D01*
X-55566Y-115543D01*
X-55588Y-115620D01*
X-55609Y-115707D01*
X-55626Y-115805D01*
X-55642Y-115909D01*
X-55648Y-116029D01*
X-55653Y-116155D01*
Y-118148D01*
X-56270D01*
Y-114495D01*
X-55713D01*
Y-115019D01*
X-55708Y-115014D01*
X-55697Y-114992D01*
X-55669Y-114965D01*
X-55637Y-114926D01*
X-55598Y-114877D01*
X-55549Y-114828D01*
X-55489Y-114774D01*
X-55418Y-114714D01*
X-55342Y-114659D01*
X-55254Y-114604D01*
X-55162Y-114555D01*
X-55058Y-114506D01*
X-54943Y-114468D01*
X-54823Y-114441D01*
X-54692Y-114419D01*
X-54556Y-114413D01*
X-54501D01*
X-54468Y-114419D01*
D02*
G37*
G36*
X-66595D02*
X-66562D01*
X-66480Y-114430D01*
X-66387Y-114441D01*
X-66284Y-114462D01*
X-66180Y-114495D01*
X-66076Y-114533D01*
X-66071D01*
X-66065Y-114539D01*
X-66032Y-114555D01*
X-65983Y-114582D01*
X-65918Y-114615D01*
X-65852Y-114664D01*
X-65781Y-114714D01*
X-65716Y-114774D01*
X-65661Y-114845D01*
X-65656Y-114855D01*
X-65639Y-114877D01*
X-65618Y-114921D01*
X-65585Y-114976D01*
X-65552Y-115041D01*
X-65525Y-115118D01*
X-65492Y-115205D01*
X-65470Y-115303D01*
Y-115309D01*
X-65465Y-115336D01*
X-65459Y-115380D01*
X-65448Y-115440D01*
X-65443Y-115522D01*
Y-115571D01*
X-65437Y-115625D01*
Y-115685D01*
X-65432Y-115756D01*
Y-115827D01*
Y-115904D01*
Y-118148D01*
X-66049D01*
Y-115926D01*
Y-115920D01*
Y-115909D01*
Y-115887D01*
Y-115866D01*
Y-115833D01*
X-66054Y-115795D01*
X-66060Y-115713D01*
X-66065Y-115620D01*
X-66082Y-115527D01*
X-66098Y-115440D01*
X-66125Y-115363D01*
X-66131Y-115352D01*
X-66142Y-115331D01*
X-66158Y-115298D01*
X-66185Y-115254D01*
X-66218Y-115205D01*
X-66262Y-115156D01*
X-66316Y-115107D01*
X-66382Y-115063D01*
X-66387Y-115058D01*
X-66415Y-115047D01*
X-66453Y-115025D01*
X-66502Y-115003D01*
X-66568Y-114987D01*
X-66638Y-114965D01*
X-66720Y-114954D01*
X-66813Y-114948D01*
X-66852D01*
X-66879Y-114954D01*
X-66912D01*
X-66955Y-114959D01*
X-67048Y-114981D01*
X-67152Y-115008D01*
X-67266Y-115052D01*
X-67381Y-115118D01*
X-67441Y-115156D01*
X-67496Y-115199D01*
X-67501Y-115205D01*
X-67507Y-115210D01*
X-67523Y-115227D01*
X-67539Y-115249D01*
X-67561Y-115281D01*
X-67583Y-115314D01*
X-67610Y-115358D01*
X-67638Y-115412D01*
X-67665Y-115472D01*
X-67692Y-115543D01*
X-67714Y-115620D01*
X-67736Y-115707D01*
X-67752Y-115805D01*
X-67769Y-115909D01*
X-67774Y-116029D01*
X-67780Y-116155D01*
Y-118148D01*
X-68397D01*
Y-114495D01*
X-67840D01*
Y-115019D01*
X-67834Y-115014D01*
X-67823Y-114992D01*
X-67796Y-114965D01*
X-67763Y-114926D01*
X-67725Y-114877D01*
X-67676Y-114828D01*
X-67616Y-114774D01*
X-67545Y-114714D01*
X-67469Y-114659D01*
X-67381Y-114604D01*
X-67288Y-114555D01*
X-67185Y-114506D01*
X-67070Y-114468D01*
X-66950Y-114441D01*
X-66819Y-114419D01*
X-66682Y-114413D01*
X-66628D01*
X-66595Y-114419D01*
D02*
G37*
G36*
X-57220D02*
X-57193D01*
X-57160Y-114424D01*
X-57078Y-114441D01*
X-56980Y-114462D01*
X-56876Y-114500D01*
X-56756Y-114550D01*
X-56636Y-114615D01*
X-56854Y-115189D01*
X-56865Y-115183D01*
X-56892Y-115167D01*
X-56936Y-115145D01*
X-56996Y-115118D01*
X-57062Y-115096D01*
X-57138Y-115074D01*
X-57220Y-115058D01*
X-57307Y-115052D01*
X-57340D01*
X-57378Y-115058D01*
X-57428Y-115068D01*
X-57488Y-115085D01*
X-57548Y-115107D01*
X-57608Y-115134D01*
X-57673Y-115178D01*
X-57679Y-115183D01*
X-57701Y-115199D01*
X-57728Y-115227D01*
X-57761Y-115265D01*
X-57799Y-115314D01*
X-57837Y-115369D01*
X-57870Y-115440D01*
X-57902Y-115516D01*
Y-115522D01*
X-57908Y-115533D01*
X-57914Y-115549D01*
X-57919Y-115571D01*
X-57924Y-115603D01*
X-57935Y-115642D01*
X-57952Y-115729D01*
X-57968Y-115838D01*
X-57984Y-115958D01*
X-57995Y-116095D01*
X-58001Y-116237D01*
Y-118148D01*
X-58618D01*
Y-114495D01*
X-58061D01*
Y-115047D01*
X-58050Y-115036D01*
X-58039Y-115014D01*
X-58023Y-114992D01*
X-57984Y-114921D01*
X-57930Y-114845D01*
X-57870Y-114757D01*
X-57804Y-114670D01*
X-57739Y-114599D01*
X-57701Y-114566D01*
X-57668Y-114539D01*
X-57657Y-114533D01*
X-57635Y-114517D01*
X-57597Y-114500D01*
X-57553Y-114473D01*
X-57493Y-114451D01*
X-57428Y-114435D01*
X-57351Y-114419D01*
X-57275Y-114413D01*
X-57242D01*
X-57220Y-114419D01*
D02*
G37*
G36*
X-47840Y-118148D02*
X-48457D01*
Y-113108D01*
X-47840D01*
Y-118148D01*
D02*
G37*
G36*
X-50695Y-114419D02*
X-50646D01*
X-50542Y-114430D01*
X-50422Y-114441D01*
X-50297Y-114462D01*
X-50171Y-114490D01*
X-50056Y-114528D01*
X-50051D01*
X-50046Y-114533D01*
X-50029Y-114539D01*
X-50007Y-114550D01*
X-49958Y-114571D01*
X-49893Y-114604D01*
X-49822Y-114643D01*
X-49751Y-114692D01*
X-49685Y-114746D01*
X-49625Y-114806D01*
X-49620Y-114812D01*
X-49603Y-114834D01*
X-49576Y-114872D01*
X-49549Y-114921D01*
X-49516Y-114981D01*
X-49483Y-115052D01*
X-49450Y-115134D01*
X-49429Y-115227D01*
Y-115232D01*
X-49423Y-115260D01*
X-49418Y-115298D01*
X-49412Y-115358D01*
X-49407Y-115434D01*
X-49401Y-115533D01*
Y-115593D01*
X-49396Y-115653D01*
Y-115718D01*
Y-115795D01*
Y-116619D01*
Y-116630D01*
Y-116657D01*
Y-116701D01*
Y-116755D01*
Y-116826D01*
Y-116903D01*
X-49390Y-116990D01*
Y-117078D01*
X-49385Y-117263D01*
Y-117356D01*
X-49380Y-117444D01*
X-49374Y-117525D01*
X-49369Y-117596D01*
X-49363Y-117662D01*
X-49358Y-117711D01*
Y-117722D01*
X-49352Y-117749D01*
X-49341Y-117793D01*
X-49325Y-117853D01*
X-49303Y-117919D01*
X-49276Y-117990D01*
X-49243Y-118071D01*
X-49205Y-118148D01*
X-49849D01*
X-49854Y-118137D01*
X-49865Y-118115D01*
X-49882Y-118071D01*
X-49898Y-118017D01*
X-49920Y-117951D01*
X-49942Y-117875D01*
X-49958Y-117788D01*
X-49969Y-117689D01*
X-49975Y-117695D01*
X-49986Y-117700D01*
X-50002Y-117717D01*
X-50029Y-117738D01*
X-50062Y-117760D01*
X-50095Y-117793D01*
X-50182Y-117853D01*
X-50286Y-117924D01*
X-50395Y-117995D01*
X-50515Y-118055D01*
X-50635Y-118110D01*
X-50641D01*
X-50652Y-118115D01*
X-50668Y-118121D01*
X-50690Y-118126D01*
X-50717Y-118137D01*
X-50755Y-118148D01*
X-50837Y-118170D01*
X-50941Y-118192D01*
X-51056Y-118213D01*
X-51181Y-118224D01*
X-51318Y-118230D01*
X-51378D01*
X-51416Y-118224D01*
X-51465Y-118219D01*
X-51525Y-118213D01*
X-51591Y-118208D01*
X-51656Y-118192D01*
X-51809Y-118159D01*
X-51962Y-118110D01*
X-52033Y-118077D01*
X-52109Y-118033D01*
X-52175Y-117990D01*
X-52241Y-117940D01*
X-52246Y-117935D01*
X-52257Y-117924D01*
X-52268Y-117908D01*
X-52290Y-117886D01*
X-52317Y-117858D01*
X-52344Y-117820D01*
X-52372Y-117782D01*
X-52399Y-117733D01*
X-52459Y-117629D01*
X-52513Y-117498D01*
X-52535Y-117427D01*
X-52546Y-117351D01*
X-52557Y-117269D01*
X-52563Y-117187D01*
Y-117181D01*
Y-117176D01*
Y-117143D01*
X-52557Y-117089D01*
X-52546Y-117023D01*
X-52535Y-116947D01*
X-52513Y-116865D01*
X-52481Y-116783D01*
X-52443Y-116695D01*
X-52437Y-116684D01*
X-52421Y-116657D01*
X-52393Y-116619D01*
X-52355Y-116564D01*
X-52311Y-116510D01*
X-52257Y-116450D01*
X-52197Y-116395D01*
X-52126Y-116341D01*
X-52115Y-116335D01*
X-52088Y-116319D01*
X-52049Y-116291D01*
X-51995Y-116264D01*
X-51929Y-116231D01*
X-51853Y-116199D01*
X-51766Y-116166D01*
X-51678Y-116139D01*
X-51667D01*
X-51645Y-116128D01*
X-51602Y-116122D01*
X-51542Y-116106D01*
X-51465Y-116095D01*
X-51367Y-116078D01*
X-51258Y-116062D01*
X-51127Y-116046D01*
X-51116D01*
X-51094Y-116040D01*
X-51056Y-116035D01*
X-51007Y-116029D01*
X-50941Y-116018D01*
X-50870Y-116007D01*
X-50794Y-115997D01*
X-50706Y-115986D01*
X-50526Y-115953D01*
X-50346Y-115915D01*
X-50258Y-115893D01*
X-50171Y-115871D01*
X-50095Y-115849D01*
X-50024Y-115827D01*
Y-115822D01*
Y-115805D01*
Y-115784D01*
X-50018Y-115762D01*
Y-115707D01*
Y-115685D01*
Y-115669D01*
Y-115664D01*
Y-115653D01*
Y-115631D01*
Y-115609D01*
X-50029Y-115543D01*
X-50040Y-115462D01*
X-50062Y-115374D01*
X-50095Y-115287D01*
X-50138Y-115205D01*
X-50199Y-115139D01*
X-50209Y-115128D01*
X-50220Y-115118D01*
X-50242Y-115107D01*
X-50270Y-115090D01*
X-50297Y-115074D01*
X-50373Y-115030D01*
X-50472Y-114992D01*
X-50592Y-114959D01*
X-50734Y-114937D01*
X-50897Y-114926D01*
X-50968D01*
X-51007Y-114932D01*
X-51045D01*
X-51143Y-114943D01*
X-51247Y-114965D01*
X-51350Y-114992D01*
X-51454Y-115030D01*
X-51542Y-115079D01*
X-51553Y-115085D01*
X-51574Y-115107D01*
X-51613Y-115150D01*
X-51656Y-115205D01*
X-51705Y-115276D01*
X-51760Y-115374D01*
X-51804Y-115483D01*
X-51826Y-115549D01*
X-51847Y-115620D01*
X-52454Y-115538D01*
Y-115533D01*
X-52448Y-115522D01*
X-52443Y-115500D01*
X-52437Y-115472D01*
X-52426Y-115440D01*
X-52415Y-115401D01*
X-52388Y-115314D01*
X-52350Y-115216D01*
X-52306Y-115112D01*
X-52251Y-115008D01*
X-52186Y-114916D01*
Y-114910D01*
X-52175Y-114905D01*
X-52148Y-114877D01*
X-52104Y-114834D01*
X-52044Y-114779D01*
X-51968Y-114719D01*
X-51875Y-114659D01*
X-51766Y-114599D01*
X-51640Y-114544D01*
X-51635D01*
X-51623Y-114539D01*
X-51602Y-114533D01*
X-51574Y-114522D01*
X-51542Y-114512D01*
X-51503Y-114500D01*
X-51454Y-114490D01*
X-51400Y-114479D01*
X-51345Y-114468D01*
X-51280Y-114457D01*
X-51138Y-114435D01*
X-50979Y-114419D01*
X-50810Y-114413D01*
X-50734D01*
X-50695Y-114419D01*
D02*
G37*
G36*
X-69494Y-118148D02*
X-70160D01*
Y-113108D01*
X-69494D01*
Y-118148D01*
D02*
G37*
G36*
X-63761Y-114495D02*
X-63133D01*
Y-114976D01*
X-63761D01*
Y-117116D01*
Y-117121D01*
Y-117127D01*
Y-117160D01*
Y-117203D01*
X-63756Y-117258D01*
Y-117312D01*
X-63745Y-117367D01*
X-63739Y-117416D01*
X-63728Y-117454D01*
Y-117460D01*
X-63723Y-117465D01*
X-63701Y-117498D01*
X-63668Y-117536D01*
X-63625Y-117575D01*
X-63619D01*
X-63608Y-117580D01*
X-63592Y-117585D01*
X-63570Y-117596D01*
X-63537Y-117602D01*
X-63504Y-117613D01*
X-63461Y-117618D01*
X-63368D01*
X-63335Y-117613D01*
X-63297D01*
X-63248Y-117607D01*
X-63193Y-117602D01*
X-63133Y-117596D01*
X-63051Y-118142D01*
X-63062D01*
X-63095Y-118153D01*
X-63144Y-118159D01*
X-63210Y-118170D01*
X-63281Y-118181D01*
X-63357Y-118186D01*
X-63521Y-118197D01*
X-63576D01*
X-63635Y-118192D01*
X-63712Y-118186D01*
X-63799Y-118170D01*
X-63887Y-118153D01*
X-63969Y-118126D01*
X-64045Y-118093D01*
X-64051Y-118088D01*
X-64072Y-118071D01*
X-64105Y-118050D01*
X-64149Y-118017D01*
X-64192Y-117979D01*
X-64236Y-117929D01*
X-64274Y-117875D01*
X-64307Y-117815D01*
X-64313Y-117804D01*
X-64318Y-117777D01*
X-64324Y-117755D01*
X-64329Y-117727D01*
X-64334Y-117695D01*
X-64340Y-117656D01*
X-64351Y-117613D01*
X-64356Y-117558D01*
X-64362Y-117498D01*
X-64367Y-117433D01*
X-64373Y-117356D01*
Y-117274D01*
X-64378Y-117181D01*
Y-117083D01*
Y-114976D01*
X-64837D01*
Y-114495D01*
X-64378D01*
Y-113594D01*
X-63761Y-113223D01*
Y-114495D01*
D02*
G37*
G36*
X-60960Y-114419D02*
X-60911D01*
X-60846Y-114430D01*
X-60774Y-114441D01*
X-60693Y-114457D01*
X-60605Y-114473D01*
X-60512Y-114500D01*
X-60420Y-114533D01*
X-60316Y-114577D01*
X-60218Y-114626D01*
X-60119Y-114681D01*
X-60021Y-114752D01*
X-59923Y-114828D01*
X-59835Y-114916D01*
X-59830Y-114921D01*
X-59813Y-114937D01*
X-59792Y-114965D01*
X-59764Y-115008D01*
X-59726Y-115058D01*
X-59688Y-115118D01*
X-59644Y-115194D01*
X-59601Y-115276D01*
X-59562Y-115369D01*
X-59519Y-115472D01*
X-59481Y-115587D01*
X-59442Y-115713D01*
X-59415Y-115849D01*
X-59393Y-115997D01*
X-59377Y-116149D01*
X-59371Y-116313D01*
Y-116324D01*
Y-116351D01*
Y-116406D01*
X-59377Y-116477D01*
X-62101D01*
Y-116482D01*
Y-116504D01*
X-62096Y-116537D01*
X-62090Y-116575D01*
X-62085Y-116630D01*
X-62074Y-116684D01*
X-62063Y-116750D01*
X-62047Y-116821D01*
X-62003Y-116969D01*
X-61943Y-117127D01*
X-61905Y-117198D01*
X-61866Y-117274D01*
X-61817Y-117340D01*
X-61763Y-117405D01*
X-61757Y-117411D01*
X-61746Y-117416D01*
X-61730Y-117433D01*
X-61708Y-117454D01*
X-61675Y-117476D01*
X-61643Y-117503D01*
X-61599Y-117536D01*
X-61550Y-117564D01*
X-61441Y-117624D01*
X-61310Y-117673D01*
X-61239Y-117695D01*
X-61162Y-117706D01*
X-61080Y-117717D01*
X-60998Y-117722D01*
X-60966D01*
X-60944Y-117717D01*
X-60878Y-117711D01*
X-60796Y-117700D01*
X-60709Y-117678D01*
X-60611Y-117646D01*
X-60512Y-117607D01*
X-60420Y-117547D01*
X-60414D01*
X-60409Y-117536D01*
X-60381Y-117515D01*
X-60338Y-117471D01*
X-60283Y-117405D01*
X-60223Y-117329D01*
X-60158Y-117225D01*
X-60092Y-117105D01*
X-60037Y-116969D01*
X-59393Y-117050D01*
Y-117056D01*
X-59399Y-117078D01*
X-59409Y-117105D01*
X-59426Y-117143D01*
X-59442Y-117192D01*
X-59464Y-117247D01*
X-59491Y-117307D01*
X-59519Y-117373D01*
X-59595Y-117509D01*
X-59693Y-117656D01*
X-59754Y-117727D01*
X-59813Y-117798D01*
X-59879Y-117864D01*
X-59956Y-117924D01*
X-59961Y-117929D01*
X-59972Y-117935D01*
X-59999Y-117951D01*
X-60027Y-117973D01*
X-60070Y-117995D01*
X-60119Y-118022D01*
X-60174Y-118050D01*
X-60239Y-118077D01*
X-60310Y-118104D01*
X-60392Y-118131D01*
X-60474Y-118159D01*
X-60567Y-118181D01*
X-60665Y-118202D01*
X-60769Y-118219D01*
X-60884Y-118224D01*
X-60998Y-118230D01*
X-61031D01*
X-61075Y-118224D01*
X-61129D01*
X-61200Y-118213D01*
X-61277Y-118202D01*
X-61364Y-118186D01*
X-61457Y-118170D01*
X-61555Y-118142D01*
X-61659Y-118110D01*
X-61768Y-118071D01*
X-61872Y-118022D01*
X-61981Y-117968D01*
X-62079Y-117902D01*
X-62178Y-117826D01*
X-62270Y-117738D01*
X-62276Y-117733D01*
X-62292Y-117717D01*
X-62314Y-117689D01*
X-62341Y-117646D01*
X-62380Y-117596D01*
X-62418Y-117536D01*
X-62462Y-117465D01*
X-62500Y-117383D01*
X-62543Y-117291D01*
X-62587Y-117187D01*
X-62625Y-117072D01*
X-62664Y-116947D01*
X-62691Y-116816D01*
X-62713Y-116674D01*
X-62729Y-116521D01*
X-62735Y-116357D01*
Y-116346D01*
Y-116319D01*
X-62729Y-116270D01*
Y-116204D01*
X-62718Y-116128D01*
X-62707Y-116040D01*
X-62696Y-115937D01*
X-62675Y-115833D01*
X-62653Y-115718D01*
X-62620Y-115603D01*
X-62582Y-115483D01*
X-62538Y-115363D01*
X-62484Y-115249D01*
X-62418Y-115134D01*
X-62347Y-115025D01*
X-62265Y-114926D01*
X-62260Y-114921D01*
X-62243Y-114905D01*
X-62216Y-114877D01*
X-62178Y-114845D01*
X-62134Y-114806D01*
X-62074Y-114763D01*
X-62009Y-114719D01*
X-61932Y-114670D01*
X-61850Y-114621D01*
X-61757Y-114577D01*
X-61654Y-114533D01*
X-61544Y-114495D01*
X-61424Y-114462D01*
X-61304Y-114435D01*
X-61168Y-114419D01*
X-61031Y-114413D01*
X-60998D01*
X-60960Y-114419D01*
D02*
G37*
G36*
X-62847Y-120548D02*
X-62803D01*
X-62754Y-120554D01*
X-62705Y-120564D01*
X-62645Y-120575D01*
X-62514Y-120603D01*
X-62377Y-120646D01*
X-62235Y-120706D01*
X-62164Y-120745D01*
X-62099Y-120788D01*
X-62093D01*
X-62082Y-120799D01*
X-62066Y-120816D01*
X-62038Y-120832D01*
X-61973Y-120887D01*
X-61897Y-120963D01*
X-61809Y-121061D01*
X-61716Y-121176D01*
X-61634Y-121312D01*
X-61558Y-121465D01*
Y-121471D01*
X-61553Y-121487D01*
X-61542Y-121509D01*
X-61531Y-121542D01*
X-61514Y-121580D01*
X-61498Y-121629D01*
X-61482Y-121689D01*
X-61465Y-121749D01*
X-61449Y-121820D01*
X-61432Y-121891D01*
X-61400Y-122055D01*
X-61378Y-122235D01*
X-61372Y-122426D01*
Y-122432D01*
Y-122454D01*
Y-122481D01*
X-61378Y-122519D01*
Y-122568D01*
X-61383Y-122628D01*
X-61389Y-122694D01*
X-61400Y-122765D01*
X-61422Y-122918D01*
X-61460Y-123087D01*
X-61509Y-123262D01*
X-61574Y-123436D01*
Y-123442D01*
X-61585Y-123458D01*
X-61596Y-123480D01*
X-61613Y-123507D01*
X-61634Y-123546D01*
X-61656Y-123589D01*
X-61722Y-123688D01*
X-61804Y-123802D01*
X-61907Y-123917D01*
X-62022Y-124026D01*
X-62159Y-124124D01*
X-62164D01*
X-62175Y-124135D01*
X-62197Y-124146D01*
X-62224Y-124163D01*
X-62262Y-124179D01*
X-62301Y-124201D01*
X-62350Y-124217D01*
X-62404Y-124239D01*
X-62524Y-124283D01*
X-62661Y-124321D01*
X-62808Y-124348D01*
X-62885Y-124354D01*
X-62967Y-124359D01*
X-63021D01*
X-63076Y-124354D01*
X-63152Y-124343D01*
X-63240Y-124326D01*
X-63332Y-124304D01*
X-63431Y-124277D01*
X-63524Y-124233D01*
X-63534Y-124228D01*
X-63562Y-124212D01*
X-63611Y-124179D01*
X-63666Y-124141D01*
X-63731Y-124097D01*
X-63797Y-124037D01*
X-63862Y-123971D01*
X-63922Y-123900D01*
Y-125675D01*
X-64539D01*
Y-120624D01*
X-63977D01*
Y-121099D01*
X-63966Y-121094D01*
X-63944Y-121061D01*
X-63900Y-121007D01*
X-63846Y-120947D01*
X-63780Y-120881D01*
X-63704Y-120810D01*
X-63622Y-120745D01*
X-63529Y-120685D01*
X-63524D01*
X-63518Y-120679D01*
X-63485Y-120663D01*
X-63431Y-120641D01*
X-63360Y-120614D01*
X-63273Y-120586D01*
X-63169Y-120564D01*
X-63049Y-120548D01*
X-62923Y-120543D01*
X-62879D01*
X-62847Y-120548D01*
D02*
G37*
G36*
X-43191D02*
X-43163D01*
X-43130Y-120554D01*
X-43049Y-120570D01*
X-42950Y-120592D01*
X-42847Y-120630D01*
X-42726Y-120679D01*
X-42606Y-120745D01*
X-42825Y-121318D01*
X-42836Y-121312D01*
X-42863Y-121296D01*
X-42907Y-121274D01*
X-42967Y-121247D01*
X-43032Y-121225D01*
X-43109Y-121203D01*
X-43191Y-121187D01*
X-43278Y-121181D01*
X-43311D01*
X-43349Y-121187D01*
X-43398Y-121198D01*
X-43458Y-121214D01*
X-43518Y-121236D01*
X-43578Y-121263D01*
X-43644Y-121307D01*
X-43649Y-121312D01*
X-43671Y-121329D01*
X-43698Y-121356D01*
X-43731Y-121394D01*
X-43769Y-121443D01*
X-43808Y-121498D01*
X-43840Y-121569D01*
X-43873Y-121645D01*
Y-121651D01*
X-43878Y-121662D01*
X-43884Y-121678D01*
X-43889Y-121700D01*
X-43895Y-121733D01*
X-43906Y-121771D01*
X-43922Y-121858D01*
X-43939Y-121968D01*
X-43955Y-122088D01*
X-43966Y-122224D01*
X-43971Y-122366D01*
Y-124277D01*
X-44588D01*
Y-120624D01*
X-44031D01*
Y-121176D01*
X-44021Y-121165D01*
X-44010Y-121143D01*
X-43993Y-121121D01*
X-43955Y-121050D01*
X-43900Y-120974D01*
X-43840Y-120887D01*
X-43775Y-120799D01*
X-43709Y-120728D01*
X-43671Y-120695D01*
X-43638Y-120668D01*
X-43627Y-120663D01*
X-43606Y-120646D01*
X-43567Y-120630D01*
X-43524Y-120603D01*
X-43464Y-120581D01*
X-43398Y-120564D01*
X-43322Y-120548D01*
X-43245Y-120543D01*
X-43212D01*
X-43191Y-120548D01*
D02*
G37*
G36*
X-55317D02*
X-55290D01*
X-55257Y-120554D01*
X-55175Y-120570D01*
X-55077Y-120592D01*
X-54973Y-120630D01*
X-54853Y-120679D01*
X-54733Y-120745D01*
X-54951Y-121318D01*
X-54962Y-121312D01*
X-54990Y-121296D01*
X-55033Y-121274D01*
X-55093Y-121247D01*
X-55159Y-121225D01*
X-55235Y-121203D01*
X-55317Y-121187D01*
X-55405Y-121181D01*
X-55437D01*
X-55476Y-121187D01*
X-55525Y-121198D01*
X-55585Y-121214D01*
X-55645Y-121236D01*
X-55705Y-121263D01*
X-55770Y-121307D01*
X-55776Y-121312D01*
X-55798Y-121329D01*
X-55825Y-121356D01*
X-55858Y-121394D01*
X-55896Y-121443D01*
X-55934Y-121498D01*
X-55967Y-121569D01*
X-56000Y-121645D01*
Y-121651D01*
X-56005Y-121662D01*
X-56011Y-121678D01*
X-56016Y-121700D01*
X-56022Y-121733D01*
X-56033Y-121771D01*
X-56049Y-121858D01*
X-56065Y-121968D01*
X-56082Y-122088D01*
X-56093Y-122224D01*
X-56098Y-122366D01*
Y-124277D01*
X-56715D01*
Y-120624D01*
X-56158D01*
Y-121176D01*
X-56147Y-121165D01*
X-56136Y-121143D01*
X-56120Y-121121D01*
X-56082Y-121050D01*
X-56027Y-120974D01*
X-55967Y-120887D01*
X-55901Y-120799D01*
X-55836Y-120728D01*
X-55798Y-120695D01*
X-55765Y-120668D01*
X-55754Y-120663D01*
X-55732Y-120646D01*
X-55694Y-120630D01*
X-55650Y-120603D01*
X-55590Y-120581D01*
X-55525Y-120564D01*
X-55448Y-120548D01*
X-55372Y-120543D01*
X-55339D01*
X-55317Y-120548D01*
D02*
G37*
G36*
X-66499D02*
X-66450Y-120554D01*
X-66401Y-120559D01*
X-66341Y-120570D01*
X-66276Y-120581D01*
X-66144Y-120619D01*
X-66002Y-120674D01*
X-65937Y-120706D01*
X-65871Y-120745D01*
X-65806Y-120794D01*
X-65751Y-120848D01*
X-65746Y-120854D01*
X-65740Y-120865D01*
X-65724Y-120881D01*
X-65708Y-120903D01*
X-65680Y-120936D01*
X-65658Y-120974D01*
X-65631Y-121023D01*
X-65604Y-121078D01*
X-65577Y-121138D01*
X-65549Y-121203D01*
X-65522Y-121280D01*
X-65500Y-121362D01*
X-65484Y-121454D01*
X-65467Y-121553D01*
X-65462Y-121656D01*
X-65456Y-121771D01*
Y-124277D01*
X-66073D01*
Y-121979D01*
Y-121973D01*
Y-121962D01*
Y-121940D01*
Y-121918D01*
X-66079Y-121853D01*
Y-121771D01*
X-66090Y-121684D01*
X-66101Y-121596D01*
X-66112Y-121514D01*
X-66133Y-121443D01*
Y-121438D01*
X-66144Y-121416D01*
X-66161Y-121389D01*
X-66183Y-121351D01*
X-66215Y-121307D01*
X-66248Y-121263D01*
X-66297Y-121220D01*
X-66352Y-121181D01*
X-66357Y-121176D01*
X-66379Y-121165D01*
X-66412Y-121149D01*
X-66456Y-121127D01*
X-66510Y-121110D01*
X-66576Y-121094D01*
X-66647Y-121083D01*
X-66723Y-121078D01*
X-66761D01*
X-66789Y-121083D01*
X-66821D01*
X-66860Y-121089D01*
X-66947Y-121110D01*
X-67051Y-121138D01*
X-67160Y-121187D01*
X-67264Y-121247D01*
X-67318Y-121291D01*
X-67367Y-121334D01*
Y-121340D01*
X-67378Y-121345D01*
X-67389Y-121362D01*
X-67406Y-121383D01*
X-67427Y-121411D01*
X-67449Y-121443D01*
X-67471Y-121487D01*
X-67493Y-121531D01*
X-67520Y-121585D01*
X-67542Y-121645D01*
X-67564Y-121716D01*
X-67586Y-121788D01*
X-67602Y-121869D01*
X-67613Y-121962D01*
X-67619Y-122055D01*
X-67624Y-122159D01*
Y-124277D01*
X-68241D01*
Y-121908D01*
Y-121902D01*
Y-121891D01*
Y-121869D01*
Y-121837D01*
X-68247Y-121804D01*
Y-121766D01*
X-68257Y-121673D01*
X-68279Y-121574D01*
X-68307Y-121471D01*
X-68345Y-121372D01*
X-68394Y-121285D01*
X-68399Y-121274D01*
X-68421Y-121252D01*
X-68459Y-121220D01*
X-68509Y-121181D01*
X-68580Y-121143D01*
X-68661Y-121110D01*
X-68765Y-121089D01*
X-68885Y-121078D01*
X-68929D01*
X-68978Y-121083D01*
X-69044Y-121094D01*
X-69120Y-121110D01*
X-69202Y-121138D01*
X-69284Y-121170D01*
X-69371Y-121220D01*
X-69382Y-121225D01*
X-69410Y-121247D01*
X-69448Y-121274D01*
X-69491Y-121323D01*
X-69546Y-121378D01*
X-69601Y-121449D01*
X-69650Y-121531D01*
X-69693Y-121624D01*
Y-121629D01*
X-69699Y-121635D01*
X-69704Y-121651D01*
X-69710Y-121673D01*
X-69715Y-121700D01*
X-69726Y-121733D01*
X-69732Y-121771D01*
X-69743Y-121815D01*
X-69753Y-121869D01*
X-69759Y-121924D01*
X-69770Y-121984D01*
X-69775Y-122055D01*
X-69781Y-122126D01*
X-69786Y-122208D01*
X-69792Y-122290D01*
Y-122383D01*
Y-124277D01*
X-70409D01*
Y-120624D01*
X-69857D01*
Y-121132D01*
X-69846Y-121127D01*
X-69824Y-121094D01*
X-69786Y-121045D01*
X-69732Y-120985D01*
X-69666Y-120914D01*
X-69590Y-120843D01*
X-69502Y-120772D01*
X-69399Y-120706D01*
X-69393D01*
X-69388Y-120701D01*
X-69371Y-120690D01*
X-69349Y-120679D01*
X-69322Y-120668D01*
X-69289Y-120652D01*
X-69213Y-120624D01*
X-69115Y-120592D01*
X-69005Y-120570D01*
X-68880Y-120548D01*
X-68749Y-120543D01*
X-68683D01*
X-68645Y-120548D01*
X-68607Y-120554D01*
X-68514Y-120564D01*
X-68410Y-120586D01*
X-68301Y-120614D01*
X-68192Y-120657D01*
X-68088Y-120712D01*
X-68083D01*
X-68077Y-120717D01*
X-68045Y-120745D01*
X-68001Y-120783D01*
X-67941Y-120832D01*
X-67881Y-120903D01*
X-67821Y-120979D01*
X-67766Y-121072D01*
X-67717Y-121181D01*
X-67711Y-121176D01*
X-67695Y-121154D01*
X-67673Y-121121D01*
X-67635Y-121083D01*
X-67597Y-121034D01*
X-67542Y-120979D01*
X-67482Y-120919D01*
X-67411Y-120859D01*
X-67335Y-120805D01*
X-67247Y-120745D01*
X-67155Y-120690D01*
X-67056Y-120641D01*
X-66947Y-120603D01*
X-66832Y-120570D01*
X-66712Y-120548D01*
X-66587Y-120543D01*
X-66532D01*
X-66499Y-120548D01*
D02*
G37*
G36*
X-45555Y-124277D02*
X-46106D01*
Y-123742D01*
X-46112Y-123748D01*
X-46128Y-123769D01*
X-46150Y-123797D01*
X-46183Y-123840D01*
X-46226Y-123884D01*
X-46281Y-123939D01*
X-46341Y-123993D01*
X-46412Y-124048D01*
X-46494Y-124108D01*
X-46581Y-124163D01*
X-46674Y-124217D01*
X-46778Y-124261D01*
X-46892Y-124304D01*
X-47007Y-124332D01*
X-47133Y-124354D01*
X-47269Y-124359D01*
X-47324D01*
X-47384Y-124354D01*
X-47466Y-124343D01*
X-47559Y-124332D01*
X-47662Y-124310D01*
X-47766Y-124277D01*
X-47875Y-124239D01*
X-47881D01*
X-47886Y-124233D01*
X-47919Y-124217D01*
X-47968Y-124190D01*
X-48034Y-124152D01*
X-48099Y-124108D01*
X-48170Y-124053D01*
X-48236Y-123993D01*
X-48290Y-123928D01*
X-48296Y-123917D01*
X-48312Y-123895D01*
X-48334Y-123851D01*
X-48361Y-123797D01*
X-48394Y-123731D01*
X-48427Y-123655D01*
X-48454Y-123567D01*
X-48481Y-123469D01*
Y-123458D01*
X-48487Y-123436D01*
X-48492Y-123387D01*
X-48498Y-123327D01*
X-48503Y-123245D01*
X-48509Y-123147D01*
X-48514Y-123027D01*
Y-122890D01*
Y-120624D01*
X-47897D01*
Y-122650D01*
Y-122656D01*
Y-122672D01*
Y-122694D01*
Y-122727D01*
Y-122770D01*
Y-122814D01*
X-47892Y-122912D01*
Y-123021D01*
X-47881Y-123131D01*
X-47875Y-123229D01*
X-47870Y-123273D01*
X-47864Y-123305D01*
X-47859Y-123316D01*
X-47853Y-123344D01*
X-47837Y-123393D01*
X-47810Y-123447D01*
X-47777Y-123507D01*
X-47733Y-123567D01*
X-47679Y-123633D01*
X-47613Y-123688D01*
X-47602Y-123693D01*
X-47580Y-123709D01*
X-47537Y-123731D01*
X-47482Y-123753D01*
X-47417Y-123780D01*
X-47335Y-123802D01*
X-47242Y-123819D01*
X-47144Y-123824D01*
X-47095D01*
X-47045Y-123819D01*
X-46974Y-123808D01*
X-46892Y-123791D01*
X-46805Y-123764D01*
X-46718Y-123731D01*
X-46625Y-123682D01*
X-46619D01*
X-46614Y-123677D01*
X-46587Y-123655D01*
X-46543Y-123622D01*
X-46488Y-123578D01*
X-46434Y-123524D01*
X-46374Y-123458D01*
X-46319Y-123382D01*
X-46275Y-123294D01*
Y-123289D01*
X-46270Y-123284D01*
X-46265Y-123267D01*
X-46259Y-123251D01*
X-46254Y-123223D01*
X-46243Y-123191D01*
X-46232Y-123158D01*
X-46221Y-123114D01*
X-46205Y-123011D01*
X-46188Y-122890D01*
X-46177Y-122748D01*
X-46172Y-122585D01*
Y-120624D01*
X-45555D01*
Y-124277D01*
D02*
G37*
G36*
X-52707Y-120548D02*
X-52658D01*
X-52555Y-120559D01*
X-52434Y-120570D01*
X-52309Y-120592D01*
X-52183Y-120619D01*
X-52069Y-120657D01*
X-52063D01*
X-52058Y-120663D01*
X-52041Y-120668D01*
X-52019Y-120679D01*
X-51970Y-120701D01*
X-51905Y-120734D01*
X-51834Y-120772D01*
X-51763Y-120821D01*
X-51697Y-120876D01*
X-51637Y-120936D01*
X-51632Y-120941D01*
X-51615Y-120963D01*
X-51588Y-121001D01*
X-51561Y-121050D01*
X-51528Y-121110D01*
X-51495Y-121181D01*
X-51463Y-121263D01*
X-51441Y-121356D01*
Y-121362D01*
X-51435Y-121389D01*
X-51430Y-121427D01*
X-51424Y-121487D01*
X-51419Y-121564D01*
X-51413Y-121662D01*
Y-121722D01*
X-51408Y-121782D01*
Y-121847D01*
Y-121924D01*
Y-122748D01*
Y-122759D01*
Y-122787D01*
Y-122830D01*
Y-122885D01*
Y-122956D01*
Y-123032D01*
X-51402Y-123120D01*
Y-123207D01*
X-51397Y-123393D01*
Y-123486D01*
X-51392Y-123573D01*
X-51386Y-123655D01*
X-51381Y-123726D01*
X-51375Y-123791D01*
X-51370Y-123840D01*
Y-123851D01*
X-51364Y-123879D01*
X-51353Y-123922D01*
X-51337Y-123982D01*
X-51315Y-124048D01*
X-51288Y-124119D01*
X-51255Y-124201D01*
X-51217Y-124277D01*
X-51861D01*
X-51867Y-124266D01*
X-51877Y-124244D01*
X-51894Y-124201D01*
X-51910Y-124146D01*
X-51932Y-124081D01*
X-51954Y-124004D01*
X-51970Y-123917D01*
X-51981Y-123819D01*
X-51987Y-123824D01*
X-51998Y-123829D01*
X-52014Y-123846D01*
X-52041Y-123868D01*
X-52074Y-123890D01*
X-52107Y-123922D01*
X-52194Y-123982D01*
X-52298Y-124053D01*
X-52407Y-124124D01*
X-52527Y-124184D01*
X-52647Y-124239D01*
X-52653D01*
X-52664Y-124244D01*
X-52680Y-124250D01*
X-52702Y-124255D01*
X-52729Y-124266D01*
X-52767Y-124277D01*
X-52849Y-124299D01*
X-52953Y-124321D01*
X-53068Y-124343D01*
X-53193Y-124354D01*
X-53330Y-124359D01*
X-53390D01*
X-53428Y-124354D01*
X-53477Y-124348D01*
X-53537Y-124343D01*
X-53603Y-124337D01*
X-53668Y-124321D01*
X-53821Y-124288D01*
X-53974Y-124239D01*
X-54045Y-124206D01*
X-54122Y-124163D01*
X-54187Y-124119D01*
X-54252Y-124070D01*
X-54258Y-124064D01*
X-54269Y-124053D01*
X-54280Y-124037D01*
X-54302Y-124015D01*
X-54329Y-123988D01*
X-54356Y-123950D01*
X-54384Y-123911D01*
X-54411Y-123862D01*
X-54471Y-123758D01*
X-54526Y-123627D01*
X-54547Y-123556D01*
X-54558Y-123480D01*
X-54569Y-123398D01*
X-54575Y-123316D01*
Y-123311D01*
Y-123305D01*
Y-123273D01*
X-54569Y-123218D01*
X-54558Y-123152D01*
X-54547Y-123076D01*
X-54526Y-122994D01*
X-54493Y-122912D01*
X-54454Y-122825D01*
X-54449Y-122814D01*
X-54433Y-122787D01*
X-54405Y-122748D01*
X-54367Y-122694D01*
X-54324Y-122639D01*
X-54269Y-122579D01*
X-54209Y-122525D01*
X-54138Y-122470D01*
X-54127Y-122465D01*
X-54100Y-122448D01*
X-54061Y-122421D01*
X-54007Y-122394D01*
X-53941Y-122361D01*
X-53865Y-122328D01*
X-53777Y-122295D01*
X-53690Y-122268D01*
X-53679D01*
X-53657Y-122257D01*
X-53614Y-122252D01*
X-53554Y-122235D01*
X-53477Y-122224D01*
X-53379Y-122208D01*
X-53270Y-122192D01*
X-53139Y-122175D01*
X-53128D01*
X-53106Y-122170D01*
X-53068Y-122164D01*
X-53019Y-122159D01*
X-52953Y-122148D01*
X-52882Y-122137D01*
X-52806Y-122126D01*
X-52718Y-122115D01*
X-52538Y-122082D01*
X-52358Y-122044D01*
X-52271Y-122022D01*
X-52183Y-122000D01*
X-52107Y-121979D01*
X-52036Y-121957D01*
Y-121951D01*
Y-121935D01*
Y-121913D01*
X-52030Y-121891D01*
Y-121837D01*
Y-121815D01*
Y-121798D01*
Y-121793D01*
Y-121782D01*
Y-121760D01*
Y-121738D01*
X-52041Y-121673D01*
X-52052Y-121591D01*
X-52074Y-121503D01*
X-52107Y-121416D01*
X-52150Y-121334D01*
X-52210Y-121269D01*
X-52221Y-121258D01*
X-52232Y-121247D01*
X-52254Y-121236D01*
X-52281Y-121220D01*
X-52309Y-121203D01*
X-52385Y-121160D01*
X-52483Y-121121D01*
X-52604Y-121089D01*
X-52746Y-121067D01*
X-52909Y-121056D01*
X-52980D01*
X-53019Y-121061D01*
X-53057D01*
X-53155Y-121072D01*
X-53259Y-121094D01*
X-53363Y-121121D01*
X-53466Y-121160D01*
X-53554Y-121209D01*
X-53565Y-121214D01*
X-53586Y-121236D01*
X-53625Y-121280D01*
X-53668Y-121334D01*
X-53717Y-121405D01*
X-53772Y-121503D01*
X-53816Y-121613D01*
X-53838Y-121678D01*
X-53859Y-121749D01*
X-54466Y-121667D01*
Y-121662D01*
X-54460Y-121651D01*
X-54454Y-121629D01*
X-54449Y-121602D01*
X-54438Y-121569D01*
X-54427Y-121531D01*
X-54400Y-121443D01*
X-54362Y-121345D01*
X-54318Y-121241D01*
X-54264Y-121138D01*
X-54198Y-121045D01*
Y-121039D01*
X-54187Y-121034D01*
X-54160Y-121007D01*
X-54116Y-120963D01*
X-54056Y-120908D01*
X-53979Y-120848D01*
X-53887Y-120788D01*
X-53777Y-120728D01*
X-53652Y-120674D01*
X-53646D01*
X-53636Y-120668D01*
X-53614Y-120663D01*
X-53586Y-120652D01*
X-53554Y-120641D01*
X-53515Y-120630D01*
X-53466Y-120619D01*
X-53412Y-120608D01*
X-53357Y-120597D01*
X-53292Y-120586D01*
X-53150Y-120564D01*
X-52991Y-120548D01*
X-52822Y-120543D01*
X-52746D01*
X-52707Y-120548D01*
D02*
G37*
G36*
X-74929Y-119833D02*
X-76589D01*
Y-124277D01*
X-77255D01*
Y-119833D01*
X-78915D01*
Y-119238D01*
X-74929D01*
Y-119833D01*
D02*
G37*
G36*
X-49732Y-120624D02*
X-49104D01*
Y-121105D01*
X-49732D01*
Y-123245D01*
Y-123251D01*
Y-123256D01*
Y-123289D01*
Y-123333D01*
X-49726Y-123387D01*
Y-123442D01*
X-49715Y-123496D01*
X-49710Y-123546D01*
X-49699Y-123584D01*
Y-123589D01*
X-49693Y-123595D01*
X-49672Y-123627D01*
X-49639Y-123666D01*
X-49595Y-123704D01*
X-49590D01*
X-49579Y-123709D01*
X-49562Y-123715D01*
X-49541Y-123726D01*
X-49508Y-123731D01*
X-49475Y-123742D01*
X-49431Y-123748D01*
X-49338D01*
X-49306Y-123742D01*
X-49268D01*
X-49218Y-123737D01*
X-49164Y-123731D01*
X-49104Y-123726D01*
X-49022Y-124272D01*
X-49033D01*
X-49066Y-124283D01*
X-49115Y-124288D01*
X-49180Y-124299D01*
X-49251Y-124310D01*
X-49328Y-124316D01*
X-49491Y-124326D01*
X-49546D01*
X-49606Y-124321D01*
X-49683Y-124316D01*
X-49770Y-124299D01*
X-49857Y-124283D01*
X-49939Y-124255D01*
X-50016Y-124223D01*
X-50021Y-124217D01*
X-50043Y-124201D01*
X-50076Y-124179D01*
X-50119Y-124146D01*
X-50163Y-124108D01*
X-50207Y-124059D01*
X-50245Y-124004D01*
X-50278Y-123944D01*
X-50283Y-123933D01*
X-50289Y-123906D01*
X-50294Y-123884D01*
X-50300Y-123857D01*
X-50305Y-123824D01*
X-50310Y-123786D01*
X-50321Y-123742D01*
X-50327Y-123688D01*
X-50332Y-123627D01*
X-50338Y-123562D01*
X-50343Y-123486D01*
Y-123404D01*
X-50349Y-123311D01*
Y-123213D01*
Y-121105D01*
X-50807D01*
Y-120624D01*
X-50349D01*
Y-119724D01*
X-49732Y-119352D01*
Y-120624D01*
D02*
G37*
G36*
X-40674Y-120548D02*
X-40624D01*
X-40559Y-120559D01*
X-40488Y-120570D01*
X-40406Y-120586D01*
X-40319Y-120603D01*
X-40226Y-120630D01*
X-40133Y-120663D01*
X-40029Y-120706D01*
X-39931Y-120756D01*
X-39833Y-120810D01*
X-39734Y-120881D01*
X-39636Y-120958D01*
X-39549Y-121045D01*
X-39543Y-121050D01*
X-39527Y-121067D01*
X-39505Y-121094D01*
X-39478Y-121138D01*
X-39440Y-121187D01*
X-39401Y-121247D01*
X-39358Y-121323D01*
X-39314Y-121405D01*
X-39276Y-121498D01*
X-39232Y-121602D01*
X-39194Y-121716D01*
X-39156Y-121842D01*
X-39128Y-121979D01*
X-39107Y-122126D01*
X-39090Y-122279D01*
X-39085Y-122443D01*
Y-122454D01*
Y-122481D01*
Y-122536D01*
X-39090Y-122607D01*
X-41815D01*
Y-122612D01*
Y-122634D01*
X-41809Y-122667D01*
X-41804Y-122705D01*
X-41798Y-122759D01*
X-41787Y-122814D01*
X-41776Y-122880D01*
X-41760Y-122950D01*
X-41716Y-123098D01*
X-41656Y-123256D01*
X-41618Y-123327D01*
X-41580Y-123404D01*
X-41531Y-123469D01*
X-41476Y-123535D01*
X-41471Y-123540D01*
X-41460Y-123546D01*
X-41443Y-123562D01*
X-41421Y-123584D01*
X-41389Y-123606D01*
X-41356Y-123633D01*
X-41312Y-123666D01*
X-41263Y-123693D01*
X-41154Y-123753D01*
X-41023Y-123802D01*
X-40952Y-123824D01*
X-40876Y-123835D01*
X-40794Y-123846D01*
X-40712Y-123851D01*
X-40679D01*
X-40657Y-123846D01*
X-40592Y-123840D01*
X-40510Y-123829D01*
X-40422Y-123808D01*
X-40324Y-123775D01*
X-40226Y-123737D01*
X-40133Y-123677D01*
X-40128D01*
X-40122Y-123666D01*
X-40095Y-123644D01*
X-40051Y-123600D01*
X-39996Y-123535D01*
X-39936Y-123458D01*
X-39871Y-123354D01*
X-39805Y-123234D01*
X-39751Y-123098D01*
X-39107Y-123180D01*
Y-123185D01*
X-39112Y-123207D01*
X-39123Y-123234D01*
X-39139Y-123273D01*
X-39156Y-123322D01*
X-39178Y-123376D01*
X-39205Y-123436D01*
X-39232Y-123502D01*
X-39309Y-123638D01*
X-39407Y-123786D01*
X-39467Y-123857D01*
X-39527Y-123928D01*
X-39592Y-123993D01*
X-39669Y-124053D01*
X-39674Y-124059D01*
X-39685Y-124064D01*
X-39713Y-124081D01*
X-39740Y-124102D01*
X-39783Y-124124D01*
X-39833Y-124152D01*
X-39887Y-124179D01*
X-39953Y-124206D01*
X-40024Y-124233D01*
X-40106Y-124261D01*
X-40188Y-124288D01*
X-40280Y-124310D01*
X-40379Y-124332D01*
X-40482Y-124348D01*
X-40597Y-124354D01*
X-40712Y-124359D01*
X-40745D01*
X-40788Y-124354D01*
X-40843D01*
X-40914Y-124343D01*
X-40990Y-124332D01*
X-41078Y-124316D01*
X-41170Y-124299D01*
X-41269Y-124272D01*
X-41372Y-124239D01*
X-41482Y-124201D01*
X-41585Y-124152D01*
X-41695Y-124097D01*
X-41793Y-124031D01*
X-41891Y-123955D01*
X-41984Y-123868D01*
X-41989Y-123862D01*
X-42006Y-123846D01*
X-42028Y-123819D01*
X-42055Y-123775D01*
X-42093Y-123726D01*
X-42131Y-123666D01*
X-42175Y-123595D01*
X-42213Y-123513D01*
X-42257Y-123420D01*
X-42301Y-123316D01*
X-42339Y-123202D01*
X-42377Y-123076D01*
X-42404Y-122945D01*
X-42426Y-122803D01*
X-42443Y-122650D01*
X-42448Y-122486D01*
Y-122475D01*
Y-122448D01*
X-42443Y-122399D01*
Y-122334D01*
X-42432Y-122257D01*
X-42421Y-122170D01*
X-42410Y-122066D01*
X-42388Y-121962D01*
X-42366Y-121847D01*
X-42333Y-121733D01*
X-42295Y-121613D01*
X-42251Y-121493D01*
X-42197Y-121378D01*
X-42131Y-121263D01*
X-42060Y-121154D01*
X-41978Y-121056D01*
X-41973Y-121050D01*
X-41957Y-121034D01*
X-41929Y-121007D01*
X-41891Y-120974D01*
X-41847Y-120936D01*
X-41787Y-120892D01*
X-41722Y-120848D01*
X-41645Y-120799D01*
X-41563Y-120750D01*
X-41471Y-120706D01*
X-41367Y-120663D01*
X-41258Y-120624D01*
X-41138Y-120592D01*
X-41017Y-120564D01*
X-40881Y-120548D01*
X-40745Y-120543D01*
X-40712D01*
X-40674Y-120548D01*
D02*
G37*
G36*
X-59057D02*
X-59008D01*
X-58943Y-120559D01*
X-58872Y-120570D01*
X-58790Y-120586D01*
X-58702Y-120603D01*
X-58610Y-120630D01*
X-58517Y-120663D01*
X-58413Y-120706D01*
X-58315Y-120756D01*
X-58217Y-120810D01*
X-58118Y-120881D01*
X-58020Y-120958D01*
X-57933Y-121045D01*
X-57927Y-121050D01*
X-57911Y-121067D01*
X-57889Y-121094D01*
X-57862Y-121138D01*
X-57823Y-121187D01*
X-57785Y-121247D01*
X-57741Y-121323D01*
X-57698Y-121405D01*
X-57660Y-121498D01*
X-57616Y-121602D01*
X-57578Y-121716D01*
X-57539Y-121842D01*
X-57512Y-121979D01*
X-57490Y-122126D01*
X-57474Y-122279D01*
X-57468Y-122443D01*
Y-122454D01*
Y-122481D01*
Y-122536D01*
X-57474Y-122607D01*
X-60198D01*
Y-122612D01*
Y-122634D01*
X-60193Y-122667D01*
X-60188Y-122705D01*
X-60182Y-122759D01*
X-60171Y-122814D01*
X-60160Y-122880D01*
X-60144Y-122950D01*
X-60100Y-123098D01*
X-60040Y-123256D01*
X-60002Y-123327D01*
X-59964Y-123404D01*
X-59914Y-123469D01*
X-59860Y-123535D01*
X-59855Y-123540D01*
X-59844Y-123546D01*
X-59827Y-123562D01*
X-59805Y-123584D01*
X-59773Y-123606D01*
X-59740Y-123633D01*
X-59696Y-123666D01*
X-59647Y-123693D01*
X-59538Y-123753D01*
X-59407Y-123802D01*
X-59336Y-123824D01*
X-59259Y-123835D01*
X-59177Y-123846D01*
X-59096Y-123851D01*
X-59063D01*
X-59041Y-123846D01*
X-58975Y-123840D01*
X-58894Y-123829D01*
X-58806Y-123808D01*
X-58708Y-123775D01*
X-58610Y-123737D01*
X-58517Y-123677D01*
X-58511D01*
X-58506Y-123666D01*
X-58479Y-123644D01*
X-58435Y-123600D01*
X-58380Y-123535D01*
X-58320Y-123458D01*
X-58255Y-123354D01*
X-58189Y-123234D01*
X-58135Y-123098D01*
X-57490Y-123180D01*
Y-123185D01*
X-57496Y-123207D01*
X-57507Y-123234D01*
X-57523Y-123273D01*
X-57539Y-123322D01*
X-57561Y-123376D01*
X-57589Y-123436D01*
X-57616Y-123502D01*
X-57692Y-123638D01*
X-57791Y-123786D01*
X-57851Y-123857D01*
X-57911Y-123928D01*
X-57976Y-123993D01*
X-58053Y-124053D01*
X-58058Y-124059D01*
X-58069Y-124064D01*
X-58096Y-124081D01*
X-58124Y-124102D01*
X-58167Y-124124D01*
X-58217Y-124152D01*
X-58271Y-124179D01*
X-58337Y-124206D01*
X-58408Y-124233D01*
X-58490Y-124261D01*
X-58571Y-124288D01*
X-58664Y-124310D01*
X-58763Y-124332D01*
X-58866Y-124348D01*
X-58981Y-124354D01*
X-59096Y-124359D01*
X-59128D01*
X-59172Y-124354D01*
X-59227D01*
X-59298Y-124343D01*
X-59374Y-124332D01*
X-59461Y-124316D01*
X-59554Y-124299D01*
X-59653Y-124272D01*
X-59756Y-124239D01*
X-59865Y-124201D01*
X-59969Y-124152D01*
X-60078Y-124097D01*
X-60177Y-124031D01*
X-60275Y-123955D01*
X-60368Y-123868D01*
X-60373Y-123862D01*
X-60390Y-123846D01*
X-60411Y-123819D01*
X-60439Y-123775D01*
X-60477Y-123726D01*
X-60515Y-123666D01*
X-60559Y-123595D01*
X-60597Y-123513D01*
X-60641Y-123420D01*
X-60684Y-123316D01*
X-60723Y-123202D01*
X-60761Y-123076D01*
X-60788Y-122945D01*
X-60810Y-122803D01*
X-60826Y-122650D01*
X-60832Y-122486D01*
Y-122475D01*
Y-122448D01*
X-60826Y-122399D01*
Y-122334D01*
X-60815Y-122257D01*
X-60804Y-122170D01*
X-60794Y-122066D01*
X-60772Y-121962D01*
X-60750Y-121847D01*
X-60717Y-121733D01*
X-60679Y-121613D01*
X-60635Y-121493D01*
X-60581Y-121378D01*
X-60515Y-121263D01*
X-60444Y-121154D01*
X-60362Y-121056D01*
X-60357Y-121050D01*
X-60340Y-121034D01*
X-60313Y-121007D01*
X-60275Y-120974D01*
X-60231Y-120936D01*
X-60171Y-120892D01*
X-60106Y-120848D01*
X-60029Y-120799D01*
X-59947Y-120750D01*
X-59855Y-120706D01*
X-59751Y-120663D01*
X-59641Y-120624D01*
X-59521Y-120592D01*
X-59401Y-120564D01*
X-59265Y-120548D01*
X-59128Y-120543D01*
X-59096D01*
X-59057Y-120548D01*
D02*
G37*
G36*
X-72751D02*
X-72702D01*
X-72636Y-120559D01*
X-72565Y-120570D01*
X-72483Y-120586D01*
X-72396Y-120603D01*
X-72303Y-120630D01*
X-72211Y-120663D01*
X-72107Y-120706D01*
X-72009Y-120756D01*
X-71910Y-120810D01*
X-71812Y-120881D01*
X-71714Y-120958D01*
X-71626Y-121045D01*
X-71621Y-121050D01*
X-71604Y-121067D01*
X-71583Y-121094D01*
X-71555Y-121138D01*
X-71517Y-121187D01*
X-71479Y-121247D01*
X-71435Y-121323D01*
X-71391Y-121405D01*
X-71353Y-121498D01*
X-71310Y-121602D01*
X-71271Y-121716D01*
X-71233Y-121842D01*
X-71206Y-121979D01*
X-71184Y-122126D01*
X-71168Y-122279D01*
X-71162Y-122443D01*
Y-122454D01*
Y-122481D01*
Y-122536D01*
X-71168Y-122607D01*
X-73892D01*
Y-122612D01*
Y-122634D01*
X-73887Y-122667D01*
X-73881Y-122705D01*
X-73876Y-122759D01*
X-73865Y-122814D01*
X-73854Y-122880D01*
X-73838Y-122950D01*
X-73794Y-123098D01*
X-73734Y-123256D01*
X-73696Y-123327D01*
X-73657Y-123404D01*
X-73608Y-123469D01*
X-73554Y-123535D01*
X-73548Y-123540D01*
X-73537Y-123546D01*
X-73521Y-123562D01*
X-73499Y-123584D01*
X-73466Y-123606D01*
X-73434Y-123633D01*
X-73390Y-123666D01*
X-73341Y-123693D01*
X-73232Y-123753D01*
X-73101Y-123802D01*
X-73030Y-123824D01*
X-72953Y-123835D01*
X-72871Y-123846D01*
X-72789Y-123851D01*
X-72756D01*
X-72735Y-123846D01*
X-72669Y-123840D01*
X-72587Y-123829D01*
X-72500Y-123808D01*
X-72402Y-123775D01*
X-72303Y-123737D01*
X-72211Y-123677D01*
X-72205D01*
X-72199Y-123666D01*
X-72172Y-123644D01*
X-72129Y-123600D01*
X-72074Y-123535D01*
X-72014Y-123458D01*
X-71948Y-123354D01*
X-71883Y-123234D01*
X-71828Y-123098D01*
X-71184Y-123180D01*
Y-123185D01*
X-71189Y-123207D01*
X-71200Y-123234D01*
X-71217Y-123273D01*
X-71233Y-123322D01*
X-71255Y-123376D01*
X-71282Y-123436D01*
X-71310Y-123502D01*
X-71386Y-123638D01*
X-71484Y-123786D01*
X-71544Y-123857D01*
X-71604Y-123928D01*
X-71670Y-123993D01*
X-71746Y-124053D01*
X-71752Y-124059D01*
X-71763Y-124064D01*
X-71790Y-124081D01*
X-71817Y-124102D01*
X-71861Y-124124D01*
X-71910Y-124152D01*
X-71965Y-124179D01*
X-72030Y-124206D01*
X-72101Y-124233D01*
X-72183Y-124261D01*
X-72265Y-124288D01*
X-72358Y-124310D01*
X-72456Y-124332D01*
X-72560Y-124348D01*
X-72675Y-124354D01*
X-72789Y-124359D01*
X-72822D01*
X-72866Y-124354D01*
X-72920D01*
X-72991Y-124343D01*
X-73068Y-124332D01*
X-73155Y-124316D01*
X-73248Y-124299D01*
X-73346Y-124272D01*
X-73450Y-124239D01*
X-73559Y-124201D01*
X-73663Y-124152D01*
X-73772Y-124097D01*
X-73870Y-124031D01*
X-73969Y-123955D01*
X-74061Y-123868D01*
X-74067Y-123862D01*
X-74083Y-123846D01*
X-74105Y-123819D01*
X-74132Y-123775D01*
X-74171Y-123726D01*
X-74209Y-123666D01*
X-74252Y-123595D01*
X-74291Y-123513D01*
X-74334Y-123420D01*
X-74378Y-123316D01*
X-74416Y-123202D01*
X-74454Y-123076D01*
X-74482Y-122945D01*
X-74504Y-122803D01*
X-74520Y-122650D01*
X-74525Y-122486D01*
Y-122475D01*
Y-122448D01*
X-74520Y-122399D01*
Y-122334D01*
X-74509Y-122257D01*
X-74498Y-122170D01*
X-74487Y-122066D01*
X-74465Y-121962D01*
X-74444Y-121847D01*
X-74411Y-121733D01*
X-74373Y-121613D01*
X-74329Y-121493D01*
X-74274Y-121378D01*
X-74209Y-121263D01*
X-74138Y-121154D01*
X-74056Y-121056D01*
X-74050Y-121050D01*
X-74034Y-121034D01*
X-74007Y-121007D01*
X-73969Y-120974D01*
X-73925Y-120936D01*
X-73865Y-120892D01*
X-73799Y-120848D01*
X-73723Y-120799D01*
X-73641Y-120750D01*
X-73548Y-120706D01*
X-73444Y-120663D01*
X-73335Y-120624D01*
X-73215Y-120592D01*
X-73095Y-120564D01*
X-72958Y-120548D01*
X-72822Y-120543D01*
X-72789D01*
X-72751Y-120548D01*
D02*
G37*
G36*
X-67938Y-126688D02*
X-67878Y-126694D01*
X-67818Y-126699D01*
X-67747Y-126705D01*
X-67594Y-126727D01*
X-67425Y-126759D01*
X-67256Y-126809D01*
X-67092Y-126869D01*
X-67086D01*
X-67075Y-126880D01*
X-67048Y-126885D01*
X-67021Y-126901D01*
X-66988Y-126923D01*
X-66944Y-126945D01*
X-66852Y-127000D01*
X-66742Y-127076D01*
X-66633Y-127169D01*
X-66529Y-127273D01*
X-66436Y-127398D01*
X-66431Y-127404D01*
X-66426Y-127415D01*
X-66415Y-127431D01*
X-66398Y-127458D01*
X-66382Y-127491D01*
X-66360Y-127529D01*
X-66344Y-127578D01*
X-66316Y-127628D01*
X-66273Y-127742D01*
X-66234Y-127879D01*
X-66202Y-128026D01*
X-66185Y-128190D01*
X-66824Y-128239D01*
Y-128234D01*
X-66830Y-128217D01*
Y-128195D01*
X-66835Y-128163D01*
X-66846Y-128119D01*
X-66857Y-128075D01*
X-66890Y-127971D01*
X-66933Y-127857D01*
X-66999Y-127737D01*
X-67075Y-127622D01*
X-67124Y-127573D01*
X-67179Y-127524D01*
X-67185Y-127518D01*
X-67190Y-127513D01*
X-67212Y-127502D01*
X-67234Y-127486D01*
X-67266Y-127469D01*
X-67305Y-127447D01*
X-67348Y-127426D01*
X-67397Y-127398D01*
X-67457Y-127376D01*
X-67523Y-127355D01*
X-67594Y-127333D01*
X-67671Y-127316D01*
X-67758Y-127300D01*
X-67851Y-127289D01*
X-67949Y-127278D01*
X-68107D01*
X-68151Y-127284D01*
X-68200D01*
X-68255Y-127289D01*
X-68320Y-127294D01*
X-68386Y-127305D01*
X-68533Y-127333D01*
X-68675Y-127371D01*
X-68812Y-127426D01*
X-68877Y-127464D01*
X-68932Y-127502D01*
X-68937D01*
X-68943Y-127513D01*
X-68975Y-127540D01*
X-69019Y-127589D01*
X-69068Y-127655D01*
X-69117Y-127731D01*
X-69161Y-127824D01*
X-69194Y-127922D01*
X-69199Y-127977D01*
X-69205Y-128037D01*
Y-128042D01*
Y-128048D01*
X-69199Y-128081D01*
X-69194Y-128130D01*
X-69183Y-128190D01*
X-69156Y-128261D01*
X-69123Y-128337D01*
X-69079Y-128408D01*
X-69014Y-128479D01*
X-69003Y-128485D01*
X-68992Y-128496D01*
X-68970Y-128512D01*
X-68943Y-128528D01*
X-68910Y-128545D01*
X-68866Y-128567D01*
X-68817Y-128594D01*
X-68757Y-128621D01*
X-68686Y-128648D01*
X-68604Y-128676D01*
X-68511Y-128709D01*
X-68402Y-128741D01*
X-68287Y-128774D01*
X-68156Y-128812D01*
X-68009Y-128845D01*
X-67998D01*
X-67971Y-128850D01*
X-67933Y-128861D01*
X-67878Y-128878D01*
X-67812Y-128889D01*
X-67736Y-128911D01*
X-67654Y-128927D01*
X-67567Y-128954D01*
X-67381Y-129003D01*
X-67195Y-129052D01*
X-67108Y-129080D01*
X-67032Y-129107D01*
X-66955Y-129134D01*
X-66895Y-129162D01*
X-66890D01*
X-66873Y-129173D01*
X-66852Y-129184D01*
X-66824Y-129200D01*
X-66786Y-129216D01*
X-66742Y-129244D01*
X-66650Y-129304D01*
X-66540Y-129375D01*
X-66436Y-129462D01*
X-66333Y-129566D01*
X-66289Y-129620D01*
X-66245Y-129675D01*
Y-129680D01*
X-66234Y-129691D01*
X-66224Y-129708D01*
X-66213Y-129730D01*
X-66196Y-129757D01*
X-66180Y-129795D01*
X-66136Y-129883D01*
X-66098Y-129986D01*
X-66065Y-130106D01*
X-66043Y-130243D01*
X-66032Y-130390D01*
Y-130396D01*
Y-130407D01*
Y-130429D01*
X-66038Y-130456D01*
Y-130494D01*
X-66043Y-130532D01*
X-66060Y-130636D01*
X-66087Y-130751D01*
X-66131Y-130876D01*
X-66191Y-131007D01*
X-66224Y-131078D01*
X-66267Y-131144D01*
Y-131149D01*
X-66278Y-131160D01*
X-66289Y-131176D01*
X-66311Y-131204D01*
X-66360Y-131264D01*
X-66436Y-131346D01*
X-66529Y-131433D01*
X-66644Y-131526D01*
X-66775Y-131613D01*
X-66928Y-131695D01*
X-66933D01*
X-66950Y-131706D01*
X-66972Y-131712D01*
X-67004Y-131728D01*
X-67043Y-131739D01*
X-67092Y-131755D01*
X-67146Y-131777D01*
X-67212Y-131793D01*
X-67277Y-131810D01*
X-67354Y-131832D01*
X-67518Y-131859D01*
X-67698Y-131881D01*
X-67894Y-131892D01*
X-67960D01*
X-68009Y-131886D01*
X-68069D01*
X-68135Y-131881D01*
X-68211Y-131875D01*
X-68298Y-131865D01*
X-68479Y-131843D01*
X-68670Y-131810D01*
X-68861Y-131761D01*
X-69046Y-131695D01*
X-69052D01*
X-69068Y-131684D01*
X-69090Y-131673D01*
X-69123Y-131657D01*
X-69161Y-131635D01*
X-69205Y-131613D01*
X-69309Y-131548D01*
X-69423Y-131466D01*
X-69543Y-131362D01*
X-69663Y-131242D01*
X-69767Y-131100D01*
X-69773Y-131095D01*
X-69778Y-131084D01*
X-69789Y-131062D01*
X-69805Y-131029D01*
X-69827Y-130991D01*
X-69849Y-130947D01*
X-69876Y-130893D01*
X-69898Y-130833D01*
X-69925Y-130772D01*
X-69947Y-130701D01*
X-69991Y-130543D01*
X-70024Y-130374D01*
X-70035Y-130281D01*
X-70040Y-130188D01*
X-69412Y-130134D01*
Y-130139D01*
Y-130150D01*
X-69407Y-130172D01*
X-69401Y-130199D01*
X-69396Y-130232D01*
X-69390Y-130265D01*
X-69368Y-130358D01*
X-69341Y-130456D01*
X-69309Y-130560D01*
X-69265Y-130663D01*
X-69210Y-130762D01*
X-69205Y-130772D01*
X-69177Y-130800D01*
X-69139Y-130843D01*
X-69085Y-130898D01*
X-69014Y-130964D01*
X-68926Y-131024D01*
X-68822Y-131089D01*
X-68702Y-131149D01*
X-68697D01*
X-68686Y-131155D01*
X-68670Y-131160D01*
X-68642Y-131171D01*
X-68610Y-131182D01*
X-68571Y-131198D01*
X-68528Y-131209D01*
X-68479Y-131220D01*
X-68364Y-131247D01*
X-68227Y-131275D01*
X-68085Y-131291D01*
X-67927Y-131297D01*
X-67862D01*
X-67829Y-131291D01*
X-67791D01*
X-67703Y-131280D01*
X-67599Y-131269D01*
X-67485Y-131253D01*
X-67370Y-131226D01*
X-67261Y-131187D01*
X-67256D01*
X-67250Y-131182D01*
X-67234Y-131176D01*
X-67212Y-131166D01*
X-67163Y-131138D01*
X-67097Y-131105D01*
X-67026Y-131062D01*
X-66950Y-131007D01*
X-66884Y-130947D01*
X-66824Y-130876D01*
X-66819Y-130865D01*
X-66802Y-130843D01*
X-66775Y-130800D01*
X-66748Y-130745D01*
X-66726Y-130680D01*
X-66699Y-130609D01*
X-66682Y-130527D01*
X-66677Y-130445D01*
Y-130439D01*
Y-130434D01*
Y-130407D01*
X-66682Y-130358D01*
X-66693Y-130303D01*
X-66710Y-130237D01*
X-66737Y-130166D01*
X-66770Y-130095D01*
X-66819Y-130030D01*
X-66824Y-130024D01*
X-66846Y-130003D01*
X-66879Y-129970D01*
X-66928Y-129926D01*
X-66988Y-129883D01*
X-67070Y-129833D01*
X-67163Y-129784D01*
X-67272Y-129735D01*
X-67283Y-129730D01*
X-67294Y-129724D01*
X-67316Y-129719D01*
X-67337Y-129713D01*
X-67370Y-129702D01*
X-67414Y-129686D01*
X-67457Y-129675D01*
X-67518Y-129659D01*
X-67578Y-129637D01*
X-67654Y-129620D01*
X-67736Y-129599D01*
X-67829Y-129571D01*
X-67927Y-129549D01*
X-68042Y-129517D01*
X-68167Y-129489D01*
X-68173D01*
X-68195Y-129484D01*
X-68233Y-129473D01*
X-68277Y-129462D01*
X-68337Y-129446D01*
X-68402Y-129429D01*
X-68468Y-129407D01*
X-68544Y-129386D01*
X-68708Y-129337D01*
X-68866Y-129282D01*
X-68943Y-129255D01*
X-69014Y-129227D01*
X-69079Y-129200D01*
X-69134Y-129173D01*
X-69139D01*
X-69150Y-129162D01*
X-69166Y-129151D01*
X-69194Y-129140D01*
X-69259Y-129102D01*
X-69336Y-129047D01*
X-69429Y-128976D01*
X-69516Y-128900D01*
X-69603Y-128807D01*
X-69674Y-128709D01*
Y-128703D01*
X-69680Y-128698D01*
X-69691Y-128681D01*
X-69702Y-128659D01*
X-69729Y-128599D01*
X-69762Y-128523D01*
X-69794Y-128430D01*
X-69822Y-128321D01*
X-69844Y-128201D01*
X-69849Y-128075D01*
Y-128070D01*
Y-128059D01*
Y-128037D01*
X-69844Y-128010D01*
Y-127977D01*
X-69838Y-127939D01*
X-69822Y-127840D01*
X-69794Y-127731D01*
X-69762Y-127617D01*
X-69707Y-127491D01*
X-69636Y-127365D01*
Y-127360D01*
X-69625Y-127349D01*
X-69614Y-127333D01*
X-69598Y-127311D01*
X-69543Y-127251D01*
X-69472Y-127174D01*
X-69385Y-127092D01*
X-69276Y-127011D01*
X-69150Y-126929D01*
X-69003Y-126858D01*
X-68997D01*
X-68986Y-126852D01*
X-68959Y-126841D01*
X-68932Y-126830D01*
X-68893Y-126819D01*
X-68844Y-126803D01*
X-68790Y-126787D01*
X-68730Y-126770D01*
X-68664Y-126754D01*
X-68593Y-126737D01*
X-68440Y-126710D01*
X-68266Y-126688D01*
X-68080Y-126683D01*
X-67987D01*
X-67938Y-126688D01*
D02*
G37*
G36*
X-59486Y-128081D02*
X-59453D01*
X-59371Y-128092D01*
X-59279Y-128103D01*
X-59175Y-128124D01*
X-59071Y-128157D01*
X-58967Y-128195D01*
X-58962D01*
X-58956Y-128201D01*
X-58924Y-128217D01*
X-58874Y-128244D01*
X-58809Y-128277D01*
X-58743Y-128326D01*
X-58672Y-128375D01*
X-58607Y-128436D01*
X-58552Y-128507D01*
X-58547Y-128517D01*
X-58530Y-128539D01*
X-58509Y-128583D01*
X-58476Y-128638D01*
X-58443Y-128703D01*
X-58416Y-128779D01*
X-58383Y-128867D01*
X-58361Y-128965D01*
Y-128971D01*
X-58356Y-128998D01*
X-58350Y-129042D01*
X-58339Y-129102D01*
X-58334Y-129184D01*
Y-129233D01*
X-58328Y-129287D01*
Y-129347D01*
X-58323Y-129418D01*
Y-129489D01*
Y-129566D01*
Y-131810D01*
X-58940D01*
Y-129588D01*
Y-129582D01*
Y-129571D01*
Y-129549D01*
Y-129528D01*
Y-129495D01*
X-58945Y-129457D01*
X-58951Y-129375D01*
X-58956Y-129282D01*
X-58973Y-129189D01*
X-58989Y-129102D01*
X-59016Y-129025D01*
X-59022Y-129014D01*
X-59033Y-128992D01*
X-59049Y-128960D01*
X-59076Y-128916D01*
X-59109Y-128867D01*
X-59153Y-128818D01*
X-59207Y-128769D01*
X-59273Y-128725D01*
X-59279Y-128719D01*
X-59306Y-128709D01*
X-59344Y-128687D01*
X-59393Y-128665D01*
X-59459Y-128648D01*
X-59530Y-128627D01*
X-59611Y-128616D01*
X-59704Y-128610D01*
X-59743D01*
X-59770Y-128616D01*
X-59803D01*
X-59846Y-128621D01*
X-59939Y-128643D01*
X-60043Y-128670D01*
X-60158Y-128714D01*
X-60272Y-128779D01*
X-60332Y-128818D01*
X-60387Y-128861D01*
X-60392Y-128867D01*
X-60398Y-128872D01*
X-60414Y-128889D01*
X-60431Y-128911D01*
X-60452Y-128943D01*
X-60474Y-128976D01*
X-60501Y-129020D01*
X-60529Y-129074D01*
X-60556Y-129134D01*
X-60583Y-129205D01*
X-60605Y-129282D01*
X-60627Y-129369D01*
X-60644Y-129467D01*
X-60660Y-129571D01*
X-60665Y-129691D01*
X-60671Y-129817D01*
Y-131810D01*
X-61288D01*
Y-128157D01*
X-60731D01*
Y-128681D01*
X-60725Y-128676D01*
X-60714Y-128654D01*
X-60687Y-128627D01*
X-60654Y-128588D01*
X-60616Y-128539D01*
X-60567Y-128490D01*
X-60507Y-128436D01*
X-60436Y-128375D01*
X-60360Y-128321D01*
X-60272Y-128266D01*
X-60179Y-128217D01*
X-60076Y-128168D01*
X-59961Y-128130D01*
X-59841Y-128103D01*
X-59710Y-128081D01*
X-59573Y-128075D01*
X-59519D01*
X-59486Y-128081D01*
D02*
G37*
G36*
X-48544D02*
X-48517D01*
X-48484Y-128086D01*
X-48402Y-128103D01*
X-48304Y-128124D01*
X-48200Y-128163D01*
X-48080Y-128212D01*
X-47960Y-128277D01*
X-48178Y-128850D01*
X-48189Y-128845D01*
X-48217Y-128829D01*
X-48260Y-128807D01*
X-48320Y-128779D01*
X-48386Y-128758D01*
X-48462Y-128736D01*
X-48544Y-128719D01*
X-48632Y-128714D01*
X-48664D01*
X-48702Y-128719D01*
X-48752Y-128730D01*
X-48812Y-128747D01*
X-48872Y-128769D01*
X-48932Y-128796D01*
X-48997Y-128840D01*
X-49003Y-128845D01*
X-49025Y-128861D01*
X-49052Y-128889D01*
X-49085Y-128927D01*
X-49123Y-128976D01*
X-49161Y-129031D01*
X-49194Y-129102D01*
X-49227Y-129178D01*
Y-129184D01*
X-49232Y-129194D01*
X-49237Y-129211D01*
X-49243Y-129233D01*
X-49248Y-129265D01*
X-49259Y-129304D01*
X-49276Y-129391D01*
X-49292Y-129500D01*
X-49308Y-129620D01*
X-49319Y-129757D01*
X-49325Y-129899D01*
Y-131810D01*
X-49942D01*
Y-128157D01*
X-49385D01*
Y-128709D01*
X-49374Y-128698D01*
X-49363Y-128676D01*
X-49347Y-128654D01*
X-49308Y-128583D01*
X-49254Y-128507D01*
X-49194Y-128419D01*
X-49128Y-128332D01*
X-49063Y-128261D01*
X-49025Y-128228D01*
X-48992Y-128201D01*
X-48981Y-128195D01*
X-48959Y-128179D01*
X-48921Y-128163D01*
X-48877Y-128135D01*
X-48817Y-128113D01*
X-48752Y-128097D01*
X-48675Y-128081D01*
X-48599Y-128075D01*
X-48566D01*
X-48544Y-128081D01*
D02*
G37*
G36*
X-56063D02*
X-56019D01*
X-55915Y-128092D01*
X-55800Y-128108D01*
X-55669Y-128130D01*
X-55544Y-128157D01*
X-55418Y-128201D01*
X-55413D01*
X-55402Y-128206D01*
X-55386Y-128212D01*
X-55364Y-128223D01*
X-55309Y-128250D01*
X-55233Y-128288D01*
X-55156Y-128337D01*
X-55080Y-128397D01*
X-55003Y-128463D01*
X-54938Y-128539D01*
X-54932Y-128550D01*
X-54910Y-128577D01*
X-54883Y-128627D01*
X-54850Y-128687D01*
X-54812Y-128769D01*
X-54779Y-128867D01*
X-54747Y-128976D01*
X-54719Y-129102D01*
X-55325Y-129184D01*
Y-129178D01*
Y-129173D01*
X-55336Y-129140D01*
X-55347Y-129085D01*
X-55369Y-129025D01*
X-55402Y-128954D01*
X-55445Y-128883D01*
X-55500Y-128812D01*
X-55566Y-128747D01*
X-55577Y-128741D01*
X-55604Y-128719D01*
X-55648Y-128692D01*
X-55708Y-128665D01*
X-55790Y-128632D01*
X-55888Y-128610D01*
X-55997Y-128588D01*
X-56128Y-128583D01*
X-56199D01*
X-56232Y-128588D01*
X-56270D01*
X-56363Y-128599D01*
X-56461Y-128616D01*
X-56565Y-128643D01*
X-56658Y-128676D01*
X-56696Y-128698D01*
X-56734Y-128725D01*
X-56740Y-128730D01*
X-56761Y-128752D01*
X-56789Y-128779D01*
X-56822Y-128818D01*
X-56860Y-128867D01*
X-56887Y-128927D01*
X-56909Y-128987D01*
X-56914Y-129058D01*
Y-129063D01*
Y-129080D01*
X-56909Y-129102D01*
X-56903Y-129129D01*
X-56881Y-129200D01*
X-56865Y-129238D01*
X-56843Y-129276D01*
X-56838Y-129282D01*
X-56827Y-129293D01*
X-56810Y-129309D01*
X-56783Y-129331D01*
X-56751Y-129358D01*
X-56707Y-129386D01*
X-56658Y-129413D01*
X-56603Y-129440D01*
X-56598D01*
X-56581Y-129446D01*
X-56549Y-129457D01*
X-56499Y-129473D01*
X-56467Y-129484D01*
X-56428Y-129495D01*
X-56385Y-129506D01*
X-56336Y-129522D01*
X-56275Y-129539D01*
X-56210Y-129555D01*
X-56139Y-129577D01*
X-56057Y-129599D01*
X-56052D01*
X-56030Y-129604D01*
X-55997Y-129615D01*
X-55948Y-129626D01*
X-55899Y-129642D01*
X-55839Y-129659D01*
X-55768Y-129680D01*
X-55697Y-129702D01*
X-55544Y-129746D01*
X-55396Y-129795D01*
X-55325Y-129817D01*
X-55260Y-129844D01*
X-55200Y-129866D01*
X-55145Y-129888D01*
X-55140D01*
X-55134Y-129893D01*
X-55102Y-129910D01*
X-55052Y-129932D01*
X-54998Y-129970D01*
X-54932Y-130014D01*
X-54861Y-130068D01*
X-54796Y-130134D01*
X-54736Y-130210D01*
X-54730Y-130221D01*
X-54714Y-130248D01*
X-54687Y-130292D01*
X-54659Y-130358D01*
X-54632Y-130434D01*
X-54605Y-130521D01*
X-54588Y-130625D01*
X-54583Y-130740D01*
Y-130745D01*
Y-130756D01*
Y-130772D01*
Y-130794D01*
X-54594Y-130854D01*
X-54605Y-130931D01*
X-54627Y-131018D01*
X-54659Y-131116D01*
X-54708Y-131220D01*
X-54769Y-131324D01*
Y-131329D01*
X-54779Y-131335D01*
X-54801Y-131368D01*
X-54845Y-131417D01*
X-54900Y-131477D01*
X-54976Y-131548D01*
X-55063Y-131619D01*
X-55167Y-131684D01*
X-55287Y-131744D01*
X-55293D01*
X-55304Y-131750D01*
X-55320Y-131755D01*
X-55347Y-131766D01*
X-55380Y-131777D01*
X-55418Y-131793D01*
X-55462Y-131804D01*
X-55511Y-131815D01*
X-55626Y-131843D01*
X-55757Y-131870D01*
X-55899Y-131886D01*
X-56057Y-131892D01*
X-56128D01*
X-56177Y-131886D01*
X-56232Y-131881D01*
X-56303Y-131875D01*
X-56379Y-131870D01*
X-56461Y-131853D01*
X-56636Y-131821D01*
X-56822Y-131772D01*
X-56909Y-131739D01*
X-56996Y-131695D01*
X-57073Y-131651D01*
X-57149Y-131602D01*
X-57155Y-131597D01*
X-57165Y-131586D01*
X-57182Y-131570D01*
X-57209Y-131548D01*
X-57236Y-131515D01*
X-57269Y-131477D01*
X-57307Y-131433D01*
X-57346Y-131384D01*
X-57389Y-131324D01*
X-57428Y-131258D01*
X-57466Y-131187D01*
X-57504Y-131105D01*
X-57537Y-131024D01*
X-57569Y-130931D01*
X-57597Y-130827D01*
X-57619Y-130723D01*
X-57007Y-130625D01*
Y-130631D01*
X-57002Y-130641D01*
Y-130658D01*
X-56996Y-130685D01*
X-56991Y-130718D01*
X-56980Y-130751D01*
X-56953Y-130833D01*
X-56914Y-130925D01*
X-56865Y-131024D01*
X-56805Y-131111D01*
X-56723Y-131193D01*
X-56718D01*
X-56712Y-131198D01*
X-56679Y-131220D01*
X-56625Y-131253D01*
X-56549Y-131286D01*
X-56456Y-131324D01*
X-56341Y-131351D01*
X-56210Y-131373D01*
X-56063Y-131384D01*
X-56019D01*
X-55992Y-131378D01*
X-55953D01*
X-55915Y-131373D01*
X-55822Y-131362D01*
X-55718Y-131340D01*
X-55609Y-131313D01*
X-55511Y-131269D01*
X-55424Y-131215D01*
X-55413Y-131209D01*
X-55391Y-131182D01*
X-55358Y-131149D01*
X-55320Y-131100D01*
X-55282Y-131040D01*
X-55249Y-130969D01*
X-55227Y-130893D01*
X-55216Y-130805D01*
Y-130794D01*
Y-130772D01*
X-55227Y-130729D01*
X-55238Y-130685D01*
X-55260Y-130631D01*
X-55293Y-130576D01*
X-55342Y-130521D01*
X-55402Y-130472D01*
X-55407Y-130467D01*
X-55429Y-130456D01*
X-55467Y-130439D01*
X-55495Y-130429D01*
X-55527Y-130418D01*
X-55571Y-130401D01*
X-55615Y-130385D01*
X-55664Y-130368D01*
X-55724Y-130352D01*
X-55790Y-130330D01*
X-55866Y-130308D01*
X-55948Y-130287D01*
X-56035Y-130265D01*
X-56041D01*
X-56063Y-130259D01*
X-56101Y-130248D01*
X-56144Y-130237D01*
X-56199Y-130221D01*
X-56265Y-130205D01*
X-56336Y-130183D01*
X-56412Y-130161D01*
X-56565Y-130112D01*
X-56723Y-130063D01*
X-56800Y-130041D01*
X-56865Y-130014D01*
X-56931Y-129986D01*
X-56985Y-129964D01*
X-56991D01*
X-56996Y-129959D01*
X-57029Y-129943D01*
X-57073Y-129915D01*
X-57133Y-129872D01*
X-57198Y-129822D01*
X-57264Y-129768D01*
X-57329Y-129697D01*
X-57384Y-129620D01*
X-57389Y-129610D01*
X-57406Y-129582D01*
X-57428Y-129533D01*
X-57449Y-129473D01*
X-57471Y-129402D01*
X-57493Y-129320D01*
X-57509Y-129227D01*
X-57515Y-129129D01*
Y-129123D01*
Y-129118D01*
Y-129085D01*
X-57509Y-129042D01*
X-57499Y-128982D01*
X-57488Y-128911D01*
X-57471Y-128834D01*
X-57444Y-128752D01*
X-57406Y-128676D01*
X-57400Y-128665D01*
X-57384Y-128643D01*
X-57362Y-128605D01*
X-57324Y-128556D01*
X-57286Y-128501D01*
X-57231Y-128441D01*
X-57171Y-128386D01*
X-57100Y-128332D01*
X-57095Y-128326D01*
X-57073Y-128315D01*
X-57040Y-128294D01*
X-56996Y-128272D01*
X-56942Y-128244D01*
X-56876Y-128212D01*
X-56794Y-128179D01*
X-56707Y-128152D01*
X-56701D01*
X-56696Y-128146D01*
X-56663Y-128141D01*
X-56614Y-128130D01*
X-56543Y-128113D01*
X-56467Y-128097D01*
X-56374Y-128086D01*
X-56275Y-128081D01*
X-56172Y-128075D01*
X-56101D01*
X-56063Y-128081D01*
D02*
G37*
G36*
X-52301D02*
X-52246D01*
X-52180Y-128092D01*
X-52109Y-128103D01*
X-52028Y-128119D01*
X-51935Y-128135D01*
X-51842Y-128163D01*
X-51738Y-128195D01*
X-51640Y-128239D01*
X-51536Y-128283D01*
X-51432Y-128343D01*
X-51334Y-128408D01*
X-51236Y-128485D01*
X-51143Y-128572D01*
X-51138Y-128577D01*
X-51121Y-128594D01*
X-51099Y-128621D01*
X-51067Y-128665D01*
X-51034Y-128714D01*
X-50990Y-128774D01*
X-50946Y-128845D01*
X-50903Y-128927D01*
X-50859Y-129020D01*
X-50815Y-129123D01*
X-50772Y-129233D01*
X-50739Y-129353D01*
X-50706Y-129484D01*
X-50684Y-129626D01*
X-50668Y-129779D01*
X-50663Y-129937D01*
Y-129943D01*
Y-129970D01*
Y-130003D01*
X-50668Y-130052D01*
Y-130112D01*
X-50674Y-130183D01*
X-50679Y-130259D01*
X-50690Y-130341D01*
X-50712Y-130516D01*
X-50750Y-130701D01*
X-50805Y-130882D01*
X-50837Y-130964D01*
X-50876Y-131045D01*
Y-131051D01*
X-50886Y-131062D01*
X-50897Y-131084D01*
X-50914Y-131111D01*
X-50936Y-131144D01*
X-50963Y-131187D01*
X-51034Y-131275D01*
X-51121Y-131378D01*
X-51225Y-131482D01*
X-51350Y-131580D01*
X-51493Y-131673D01*
X-51498D01*
X-51509Y-131684D01*
X-51531Y-131695D01*
X-51564Y-131706D01*
X-51602Y-131722D01*
X-51645Y-131744D01*
X-51695Y-131761D01*
X-51755Y-131782D01*
X-51815Y-131804D01*
X-51886Y-131821D01*
X-52033Y-131859D01*
X-52197Y-131881D01*
X-52372Y-131892D01*
X-52404D01*
X-52443Y-131886D01*
X-52497D01*
X-52563Y-131875D01*
X-52639Y-131865D01*
X-52721Y-131848D01*
X-52814Y-131832D01*
X-52912Y-131804D01*
X-53010Y-131772D01*
X-53114Y-131733D01*
X-53218Y-131684D01*
X-53322Y-131630D01*
X-53420Y-131564D01*
X-53518Y-131488D01*
X-53611Y-131400D01*
X-53616Y-131395D01*
X-53633Y-131378D01*
X-53655Y-131351D01*
X-53682Y-131307D01*
X-53720Y-131258D01*
X-53758Y-131198D01*
X-53802Y-131122D01*
X-53846Y-131040D01*
X-53889Y-130942D01*
X-53933Y-130838D01*
X-53971Y-130723D01*
X-54010Y-130598D01*
X-54037Y-130461D01*
X-54059Y-130314D01*
X-54075Y-130156D01*
X-54080Y-129986D01*
Y-129981D01*
Y-129975D01*
Y-129943D01*
X-54075Y-129888D01*
X-54070Y-129822D01*
X-54064Y-129735D01*
X-54053Y-129637D01*
X-54031Y-129533D01*
X-54010Y-129418D01*
X-53982Y-129298D01*
X-53944Y-129173D01*
X-53895Y-129047D01*
X-53846Y-128921D01*
X-53780Y-128801D01*
X-53704Y-128687D01*
X-53616Y-128583D01*
X-53518Y-128485D01*
X-53513Y-128479D01*
X-53496Y-128468D01*
X-53469Y-128446D01*
X-53436Y-128419D01*
X-53387Y-128392D01*
X-53333Y-128354D01*
X-53272Y-128315D01*
X-53196Y-128277D01*
X-53120Y-128239D01*
X-53032Y-128206D01*
X-52939Y-128168D01*
X-52836Y-128141D01*
X-52727Y-128113D01*
X-52617Y-128092D01*
X-52497Y-128081D01*
X-52372Y-128075D01*
X-52339D01*
X-52301Y-128081D01*
D02*
G37*
G36*
X-63635D02*
X-63586D01*
X-63521Y-128092D01*
X-63450Y-128103D01*
X-63368Y-128119D01*
X-63281Y-128135D01*
X-63188Y-128163D01*
X-63095Y-128195D01*
X-62991Y-128239D01*
X-62893Y-128288D01*
X-62795Y-128343D01*
X-62696Y-128414D01*
X-62598Y-128490D01*
X-62511Y-128577D01*
X-62505Y-128583D01*
X-62489Y-128599D01*
X-62467Y-128627D01*
X-62440Y-128670D01*
X-62402Y-128719D01*
X-62363Y-128779D01*
X-62320Y-128856D01*
X-62276Y-128938D01*
X-62238Y-129031D01*
X-62194Y-129134D01*
X-62156Y-129249D01*
X-62118Y-129375D01*
X-62090Y-129511D01*
X-62068Y-129659D01*
X-62052Y-129812D01*
X-62047Y-129975D01*
Y-129986D01*
Y-130014D01*
Y-130068D01*
X-62052Y-130139D01*
X-64777D01*
Y-130145D01*
Y-130166D01*
X-64771Y-130199D01*
X-64766Y-130237D01*
X-64760Y-130292D01*
X-64749Y-130347D01*
X-64739Y-130412D01*
X-64722Y-130483D01*
X-64678Y-130631D01*
X-64618Y-130789D01*
X-64580Y-130860D01*
X-64542Y-130936D01*
X-64493Y-131002D01*
X-64438Y-131067D01*
X-64433Y-131073D01*
X-64422Y-131078D01*
X-64405Y-131095D01*
X-64384Y-131116D01*
X-64351Y-131138D01*
X-64318Y-131166D01*
X-64274Y-131198D01*
X-64225Y-131226D01*
X-64116Y-131286D01*
X-63985Y-131335D01*
X-63914Y-131357D01*
X-63838Y-131368D01*
X-63756Y-131378D01*
X-63674Y-131384D01*
X-63641D01*
X-63619Y-131378D01*
X-63554Y-131373D01*
X-63472Y-131362D01*
X-63384Y-131340D01*
X-63286Y-131307D01*
X-63188Y-131269D01*
X-63095Y-131209D01*
X-63090D01*
X-63084Y-131198D01*
X-63057Y-131176D01*
X-63013Y-131133D01*
X-62959Y-131067D01*
X-62898Y-130991D01*
X-62833Y-130887D01*
X-62767Y-130767D01*
X-62713Y-130631D01*
X-62068Y-130712D01*
Y-130718D01*
X-62074Y-130740D01*
X-62085Y-130767D01*
X-62101Y-130805D01*
X-62118Y-130854D01*
X-62139Y-130909D01*
X-62167Y-130969D01*
X-62194Y-131035D01*
X-62270Y-131171D01*
X-62369Y-131318D01*
X-62429Y-131389D01*
X-62489Y-131460D01*
X-62555Y-131526D01*
X-62631Y-131586D01*
X-62636Y-131591D01*
X-62647Y-131597D01*
X-62675Y-131613D01*
X-62702Y-131635D01*
X-62746Y-131657D01*
X-62795Y-131684D01*
X-62849Y-131712D01*
X-62915Y-131739D01*
X-62986Y-131766D01*
X-63068Y-131793D01*
X-63150Y-131821D01*
X-63242Y-131843D01*
X-63341Y-131865D01*
X-63444Y-131881D01*
X-63559Y-131886D01*
X-63674Y-131892D01*
X-63706D01*
X-63750Y-131886D01*
X-63805D01*
X-63876Y-131875D01*
X-63952Y-131865D01*
X-64040Y-131848D01*
X-64132Y-131832D01*
X-64231Y-131804D01*
X-64334Y-131772D01*
X-64444Y-131733D01*
X-64547Y-131684D01*
X-64657Y-131630D01*
X-64755Y-131564D01*
X-64853Y-131488D01*
X-64946Y-131400D01*
X-64951Y-131395D01*
X-64968Y-131378D01*
X-64990Y-131351D01*
X-65017Y-131307D01*
X-65055Y-131258D01*
X-65093Y-131198D01*
X-65137Y-131127D01*
X-65175Y-131045D01*
X-65219Y-130953D01*
X-65263Y-130849D01*
X-65301Y-130734D01*
X-65339Y-130609D01*
X-65366Y-130478D01*
X-65388Y-130336D01*
X-65405Y-130183D01*
X-65410Y-130019D01*
Y-130008D01*
Y-129981D01*
X-65405Y-129932D01*
Y-129866D01*
X-65394Y-129790D01*
X-65383Y-129702D01*
X-65372Y-129599D01*
X-65350Y-129495D01*
X-65328Y-129380D01*
X-65295Y-129265D01*
X-65257Y-129145D01*
X-65214Y-129025D01*
X-65159Y-128911D01*
X-65093Y-128796D01*
X-65022Y-128687D01*
X-64941Y-128588D01*
X-64935Y-128583D01*
X-64919Y-128567D01*
X-64891Y-128539D01*
X-64853Y-128507D01*
X-64809Y-128468D01*
X-64749Y-128425D01*
X-64684Y-128381D01*
X-64607Y-128332D01*
X-64526Y-128283D01*
X-64433Y-128239D01*
X-64329Y-128195D01*
X-64220Y-128157D01*
X-64100Y-128124D01*
X-63980Y-128097D01*
X-63843Y-128081D01*
X-63706Y-128075D01*
X-63674D01*
X-63635Y-128081D01*
D02*
G37*
G36*
X-134522Y-133640D02*
X-139478D01*
Y-100359D01*
X-134522D01*
Y-133640D01*
D02*
G37*
%LPC*%
G36*
X-233829Y-74359D02*
X-238869D01*
Y-74998D01*
X-234910D01*
X-238869Y-77646D01*
Y-78329D01*
X-233829D01*
Y-74359D01*
D02*
G37*
G36*
Y-79497D02*
X-238869D01*
Y-80163D01*
X-233829D01*
Y-79497D01*
D02*
G37*
G36*
X-235342Y-81037D02*
X-235964D01*
Y-82942D01*
X-235342D01*
Y-81037D01*
D02*
G37*
G36*
X-233829Y-83150D02*
X-238869Y-85214D01*
Y-83150D01*
X-233829D01*
X-238869D01*
Y-87862D01*
D01*
Y-85935D01*
X-233829Y-87862D01*
Y-87157D01*
X-235352Y-86611D01*
Y-84493D01*
X-233829Y-83909D01*
Y-83150D01*
D02*
G37*
G36*
Y-88233D02*
X-236373D01*
X-236619Y-88244D01*
X-236734Y-88249D01*
X-236843Y-88266D01*
X-236947Y-88282D01*
X-237045Y-88299D01*
X-237138Y-88315D01*
X-237225Y-88331D01*
X-237302Y-88353D01*
X-237367Y-88370D01*
X-237427Y-88386D01*
X-237476Y-88402D01*
X-237515Y-88419D01*
X-237547Y-88424D01*
X-237564Y-88435D01*
X-237569D01*
X-237755Y-88517D01*
X-237924Y-88610D01*
X-238000Y-88659D01*
X-238071Y-88708D01*
X-238137Y-88757D01*
X-238197Y-88806D01*
X-238252Y-88850D01*
X-238295Y-88894D01*
X-238339Y-88932D01*
X-238372Y-88965D01*
X-238399Y-88992D01*
X-238416Y-89014D01*
X-238426Y-89025D01*
X-238432Y-89030D01*
X-238525Y-89150D01*
X-238601Y-89276D01*
X-238661Y-89396D01*
X-238710Y-89511D01*
X-238749Y-89614D01*
X-238759Y-89658D01*
X-238770Y-89696D01*
X-238781Y-89724D01*
X-238787Y-89745D01*
X-238792Y-89762D01*
Y-89767D01*
X-238803Y-89827D01*
X-238820Y-89893D01*
X-238836Y-90040D01*
X-238852Y-90188D01*
X-238858Y-90335D01*
X-238863Y-90401D01*
Y-90466D01*
X-238869Y-90521D01*
Y-88233D01*
D01*
Y-92399D01*
X-233829D01*
Y-90581D01*
X-233835Y-90417D01*
X-233840Y-90264D01*
X-233856Y-90128D01*
X-233873Y-90008D01*
X-233878Y-89959D01*
X-233884Y-89915D01*
X-233895Y-89871D01*
X-233900Y-89838D01*
X-233906Y-89811D01*
Y-89795D01*
X-233911Y-89784D01*
Y-89778D01*
X-233949Y-89653D01*
X-233987Y-89533D01*
X-234031Y-89429D01*
X-234069Y-89341D01*
X-234107Y-89271D01*
X-234135Y-89216D01*
X-234157Y-89183D01*
X-234162Y-89178D01*
Y-89172D01*
X-234233Y-89079D01*
X-234304Y-88992D01*
X-234381Y-88916D01*
X-234457Y-88850D01*
X-234523Y-88790D01*
X-234572Y-88752D01*
X-234594Y-88735D01*
X-234610Y-88724D01*
X-234615Y-88714D01*
X-234621D01*
X-234735Y-88637D01*
X-234856Y-88572D01*
X-234981Y-88512D01*
X-235096Y-88462D01*
X-235199Y-88424D01*
X-235243Y-88408D01*
X-235281Y-88391D01*
X-235309Y-88386D01*
X-235331Y-88375D01*
X-235347Y-88370D01*
X-235352D01*
X-235527Y-88326D01*
X-235702Y-88293D01*
X-235871Y-88266D01*
X-236030Y-88249D01*
X-236100Y-88244D01*
X-236166Y-88239D01*
X-236226D01*
X-236275Y-88233D01*
X-233829D01*
D02*
G37*
G36*
Y-92929D02*
D01*
X-238869Y-94993D01*
Y-95713D01*
X-233829Y-97641D01*
X-238869D01*
X-233829D01*
Y-92929D01*
D02*
G37*
%LPD*%
G36*
Y-77690D02*
X-237782D01*
X-233829Y-75047D01*
Y-77690D01*
D02*
G37*
G36*
X-235893Y-86420D02*
X-237373Y-85864D01*
X-237553Y-85803D01*
X-237727Y-85749D01*
X-237891Y-85700D01*
X-237968Y-85678D01*
X-238039Y-85662D01*
X-238104Y-85645D01*
X-238164Y-85629D01*
X-238213Y-85618D01*
X-238263Y-85607D01*
X-238295Y-85601D01*
X-238323Y-85596D01*
X-238339Y-85590D01*
X-238345D01*
X-238181Y-85541D01*
X-238006Y-85481D01*
X-237831Y-85421D01*
X-237662Y-85367D01*
X-237586Y-85339D01*
X-237515Y-85312D01*
X-237449Y-85290D01*
X-237400Y-85268D01*
X-237351Y-85252D01*
X-237318Y-85241D01*
X-237296Y-85230D01*
X-237291D01*
X-235893Y-84701D01*
Y-86420D01*
D02*
G37*
G36*
X-236177Y-88927D02*
X-235991Y-88943D01*
X-235904Y-88954D01*
X-235827Y-88965D01*
X-235751Y-88976D01*
X-235685Y-88987D01*
X-235625Y-89003D01*
X-235571Y-89014D01*
X-235522Y-89025D01*
X-235484Y-89036D01*
X-235451Y-89047D01*
X-235429Y-89052D01*
X-235418Y-89058D01*
X-235413D01*
X-235271Y-89112D01*
X-235145Y-89172D01*
X-235036Y-89232D01*
X-234943Y-89287D01*
X-234872Y-89341D01*
X-234817Y-89385D01*
X-234785Y-89412D01*
X-234779Y-89418D01*
X-234774Y-89423D01*
X-234714Y-89489D01*
X-234659Y-89565D01*
X-234615Y-89642D01*
X-234577Y-89713D01*
X-234550Y-89778D01*
X-234528Y-89827D01*
X-234523Y-89849D01*
X-234517Y-89866D01*
X-234512Y-89871D01*
Y-89877D01*
X-234484Y-89991D01*
X-234462Y-90117D01*
X-234446Y-90248D01*
X-234435Y-90373D01*
X-234430Y-90483D01*
Y-90532D01*
X-234424Y-90575D01*
Y-91733D01*
X-238274D01*
Y-90570D01*
X-238268Y-90472D01*
X-238263Y-90379D01*
X-238257Y-90292D01*
X-238252Y-90215D01*
X-238241Y-90144D01*
X-238230Y-90079D01*
X-238224Y-90024D01*
X-238213Y-89975D01*
X-238203Y-89931D01*
X-238192Y-89898D01*
X-238186Y-89866D01*
X-238181Y-89844D01*
X-238175Y-89827D01*
X-238170Y-89822D01*
Y-89816D01*
X-238137Y-89745D01*
X-238104Y-89680D01*
X-238017Y-89560D01*
X-237924Y-89451D01*
X-237826Y-89358D01*
X-237738Y-89287D01*
X-237700Y-89254D01*
X-237667Y-89232D01*
X-237635Y-89210D01*
X-237613Y-89194D01*
X-237602Y-89189D01*
X-237597Y-89183D01*
X-237515Y-89139D01*
X-237422Y-89096D01*
X-237231Y-89030D01*
X-237029Y-88987D01*
X-236832Y-88954D01*
X-236739Y-88943D01*
X-236657Y-88932D01*
X-236581Y-88927D01*
X-236515D01*
X-236461Y-88921D01*
X-236417D01*
X-236395D01*
X-236384D01*
X-236177Y-88927D01*
D02*
G37*
G36*
X-235893Y-96199D02*
X-237373Y-95642D01*
X-237553Y-95582D01*
X-237727Y-95528D01*
X-237891Y-95478D01*
X-237968Y-95457D01*
X-238039Y-95440D01*
X-238104Y-95424D01*
X-238164Y-95408D01*
X-238213Y-95397D01*
X-238263Y-95386D01*
X-238295Y-95380D01*
X-238323Y-95375D01*
X-238339Y-95369D01*
X-238345D01*
X-238181Y-95320D01*
X-238006Y-95260D01*
X-237831Y-95200D01*
X-237662Y-95145D01*
X-237586Y-95118D01*
X-237515Y-95091D01*
X-237449Y-95069D01*
X-237400Y-95047D01*
X-237351Y-95031D01*
X-237318Y-95020D01*
X-237296Y-95009D01*
X-237291D01*
X-235893Y-94479D01*
Y-96199D01*
D02*
G37*
G36*
X-233829Y-96936D02*
X-235352Y-96390D01*
Y-94272D01*
X-233829Y-93688D01*
Y-96936D01*
D02*
G37*
%LPC*%
G36*
X64542Y-81879D02*
X64402D01*
X64124Y-81887D01*
X63861Y-81920D01*
X63632Y-81961D01*
X63525Y-81986D01*
X63427Y-82010D01*
X63336Y-82035D01*
X63254Y-82060D01*
X63181Y-82084D01*
X63123Y-82101D01*
X63082Y-82117D01*
X63041Y-82133D01*
X63025Y-82142D01*
X63017D01*
X62795Y-82248D01*
X62607Y-82371D01*
X62443Y-82494D01*
X62311Y-82617D01*
X62205Y-82732D01*
X62123Y-82822D01*
X62098Y-82855D01*
X62082Y-82880D01*
X62065Y-82896D01*
Y-82904D01*
X61959Y-83093D01*
X61877Y-83281D01*
X61828Y-83454D01*
X61787Y-83618D01*
X61762Y-83765D01*
X61754Y-83823D01*
Y-83872D01*
X61746Y-83913D01*
Y-83946D01*
Y-83962D01*
Y-83970D01*
X61754Y-84159D01*
X61787Y-84339D01*
X61828Y-84503D01*
X61877Y-84643D01*
X61926Y-84757D01*
X61967Y-84848D01*
X61983Y-84880D01*
X62000Y-84905D01*
X62008Y-84913D01*
Y-84921D01*
X62115Y-85069D01*
X62246Y-85208D01*
X62377Y-85323D01*
X62516Y-85430D01*
X62631Y-85512D01*
X62730Y-85569D01*
X62771Y-85586D01*
X62795Y-85602D01*
X62812Y-85618D01*
X62820D01*
X62902Y-85659D01*
X63000Y-85700D01*
X63107Y-85741D01*
X63222Y-85782D01*
X63459Y-85864D01*
X63705Y-85938D01*
X63820Y-85971D01*
X63919Y-86004D01*
X64017Y-86028D01*
X64107Y-86053D01*
X64173Y-86069D01*
X64230Y-86086D01*
X64263Y-86094D01*
X64271D01*
X64460Y-86135D01*
X64632Y-86184D01*
X64780Y-86217D01*
X64919Y-86258D01*
X65042Y-86291D01*
X65157Y-86315D01*
X65247Y-86348D01*
X65337Y-86373D01*
X65403Y-86389D01*
X65468Y-86414D01*
X65518Y-86430D01*
X65550Y-86438D01*
X65583Y-86447D01*
X65600Y-86455D01*
X65616Y-86463D01*
X65780Y-86537D01*
X65919Y-86611D01*
X66042Y-86684D01*
X66133Y-86750D01*
X66206Y-86816D01*
X66256Y-86865D01*
X66288Y-86898D01*
X66297Y-86906D01*
X66370Y-87004D01*
X66420Y-87111D01*
X66461Y-87217D01*
X66485Y-87316D01*
X66502Y-87398D01*
X66510Y-87472D01*
Y-87513D01*
Y-87521D01*
Y-87529D01*
X66502Y-87652D01*
X66477Y-87775D01*
X66436Y-87882D01*
X66403Y-87980D01*
X66362Y-88062D01*
X66321Y-88128D01*
X66297Y-88160D01*
X66288Y-88177D01*
X66198Y-88283D01*
X66100Y-88374D01*
X65985Y-88456D01*
X65878Y-88521D01*
X65780Y-88570D01*
X65706Y-88611D01*
X65673Y-88628D01*
X65649Y-88636D01*
X65641Y-88644D01*
X65632D01*
X65468Y-88702D01*
X65296Y-88743D01*
X65124Y-88767D01*
X64968Y-88784D01*
X64837Y-88800D01*
X64780D01*
X64730Y-88808D01*
X64632D01*
X64394Y-88800D01*
X64181Y-88775D01*
X63976Y-88734D01*
X63804Y-88693D01*
X63730Y-88677D01*
X63664Y-88661D01*
X63607Y-88636D01*
X63558Y-88620D01*
X63517Y-88603D01*
X63492Y-88595D01*
X63476Y-88587D01*
X63468D01*
X63287Y-88497D01*
X63131Y-88398D01*
X63000Y-88308D01*
X62894Y-88210D01*
X62812Y-88128D01*
X62754Y-88062D01*
X62713Y-88021D01*
X62705Y-88005D01*
X62623Y-87857D01*
X62557Y-87701D01*
X62508Y-87545D01*
X62467Y-87398D01*
X62434Y-87258D01*
X62426Y-87209D01*
X62418Y-87160D01*
X62410Y-87119D01*
X62402Y-87086D01*
Y-87070D01*
Y-87062D01*
X61459Y-87144D01*
X61467Y-87283D01*
X61483Y-87422D01*
X61532Y-87677D01*
X61598Y-87914D01*
X61631Y-88021D01*
X61672Y-88111D01*
X61705Y-88201D01*
X61746Y-88283D01*
X61778Y-88349D01*
X61811Y-88406D01*
X61836Y-88456D01*
X61852Y-88488D01*
X61860Y-88505D01*
X61869Y-88513D01*
X62024Y-88726D01*
X62205Y-88907D01*
X62385Y-89062D01*
X62557Y-89185D01*
X62713Y-89284D01*
X62779Y-89317D01*
X62836Y-89349D01*
X62885Y-89374D01*
X62918Y-89390D01*
X62943Y-89407D01*
X62951D01*
X63230Y-89505D01*
X63517Y-89579D01*
X63804Y-89628D01*
X64074Y-89661D01*
X64206Y-89677D01*
X64320Y-89686D01*
X64419Y-89694D01*
X64509D01*
X64583Y-89702D01*
X64681D01*
X64976Y-89686D01*
X65247Y-89653D01*
X65493Y-89612D01*
X65608Y-89579D01*
X65706Y-89554D01*
X65805Y-89530D01*
X65887Y-89497D01*
X65960Y-89472D01*
X66018Y-89456D01*
X66067Y-89431D01*
X66100Y-89423D01*
X66124Y-89407D01*
X66133D01*
X66362Y-89284D01*
X66559Y-89153D01*
X66731Y-89013D01*
X66871Y-88882D01*
X66985Y-88759D01*
X67059Y-88669D01*
X67092Y-88628D01*
X67108Y-88603D01*
X67125Y-88587D01*
Y-88579D01*
X67190Y-88480D01*
X67240Y-88374D01*
X67330Y-88177D01*
X67395Y-87988D01*
X67436Y-87816D01*
X67461Y-87660D01*
X67469Y-87603D01*
Y-87545D01*
X67477Y-87504D01*
Y-87447D01*
X67461Y-87226D01*
X67428Y-87021D01*
X67379Y-86840D01*
X67322Y-86684D01*
X67256Y-86553D01*
X67231Y-86496D01*
X67207Y-86455D01*
X67190Y-86422D01*
X67174Y-86397D01*
X67158Y-86381D01*
Y-86373D01*
X67092Y-86291D01*
X67026Y-86209D01*
X66871Y-86053D01*
X66715Y-85922D01*
X66551Y-85815D01*
X66411Y-85725D01*
X66346Y-85684D01*
X66288Y-85659D01*
X66247Y-85635D01*
X66215Y-85618D01*
X66190Y-85602D01*
X66182D01*
X66092Y-85561D01*
X65977Y-85520D01*
X65862Y-85479D01*
X65731Y-85438D01*
X65452Y-85364D01*
X65173Y-85290D01*
X65042Y-85249D01*
X64919Y-85225D01*
X64804Y-85192D01*
X64706Y-85176D01*
X64624Y-85151D01*
X64566Y-85135D01*
X64525Y-85126D01*
X64509D01*
X64288Y-85077D01*
X64091Y-85020D01*
X63919Y-84971D01*
X63755Y-84921D01*
X63615Y-84872D01*
X63492Y-84831D01*
X63386Y-84790D01*
X63295Y-84749D01*
X63222Y-84708D01*
X63156Y-84675D01*
X63107Y-84651D01*
X63066Y-84626D01*
X63033Y-84602D01*
X63017Y-84585D01*
X63000Y-84577D01*
X62902Y-84470D01*
X62836Y-84364D01*
X62787Y-84249D01*
X62746Y-84142D01*
X62730Y-84052D01*
X62721Y-83978D01*
X62713Y-83929D01*
Y-83921D01*
Y-83913D01*
X62721Y-83823D01*
X62730Y-83741D01*
X62779Y-83593D01*
X62844Y-83454D01*
X62918Y-83339D01*
X62992Y-83240D01*
X63058Y-83167D01*
X63107Y-83126D01*
X63115Y-83109D01*
X63123D01*
X63205Y-83052D01*
X63304Y-82994D01*
X63509Y-82912D01*
X63722Y-82855D01*
X63943Y-82814D01*
X64042Y-82798D01*
X64140Y-82789D01*
X64222Y-82781D01*
X64296D01*
X64361Y-82773D01*
X64599D01*
X64747Y-82789D01*
X64886Y-82806D01*
X65017Y-82830D01*
X65132Y-82855D01*
X65239Y-82888D01*
X65337Y-82921D01*
X65427Y-82953D01*
X65501Y-82994D01*
X65567Y-83027D01*
X65624Y-83060D01*
X65673Y-83085D01*
X65706Y-83109D01*
X65739Y-83126D01*
X65747Y-83134D01*
X65755Y-83142D01*
X65837Y-83216D01*
X65911Y-83290D01*
X66026Y-83462D01*
X66124Y-83642D01*
X66190Y-83814D01*
X66239Y-83970D01*
X66256Y-84036D01*
X66272Y-84101D01*
X66280Y-84151D01*
Y-84183D01*
X66288Y-84208D01*
Y-84216D01*
X67248Y-84142D01*
X67223Y-83896D01*
X67174Y-83675D01*
X67117Y-83470D01*
X67051Y-83298D01*
X67010Y-83224D01*
X66985Y-83150D01*
X66953Y-83093D01*
X66928Y-83044D01*
X66903Y-83003D01*
X66887Y-82978D01*
X66879Y-82962D01*
X66871Y-82953D01*
X66731Y-82765D01*
X66575Y-82609D01*
X66411Y-82470D01*
X66247Y-82355D01*
X66108Y-82273D01*
X66042Y-82240D01*
X65993Y-82207D01*
X65952Y-82183D01*
X65911Y-82174D01*
X65895Y-82158D01*
X65887D01*
X65641Y-82068D01*
X65386Y-81994D01*
X65132Y-81945D01*
X64903Y-81912D01*
X64796Y-81904D01*
X64706Y-81896D01*
X64616Y-81887D01*
X64542Y-81879D01*
D02*
G37*
G36*
X23755Y-82010D02*
X22402D01*
X20582Y-87275D01*
X20532Y-87422D01*
X20483Y-87554D01*
X20442Y-87685D01*
X20401Y-87800D01*
X20368Y-87914D01*
X20336Y-88013D01*
X20303Y-88103D01*
X20278Y-88185D01*
X20254Y-88251D01*
X20237Y-88316D01*
X20221Y-88365D01*
X20204Y-88415D01*
X20196Y-88447D01*
X20188Y-88472D01*
X20180Y-88480D01*
Y-88488D01*
X20155Y-88415D01*
X20131Y-88333D01*
X20073Y-88160D01*
X20016Y-87972D01*
X19958Y-87791D01*
X19901Y-87627D01*
X19876Y-87554D01*
X19860Y-87496D01*
X19844Y-87447D01*
X19827Y-87406D01*
X19819Y-87381D01*
Y-87373D01*
X18023Y-82010D01*
X16523D01*
Y-89579D01*
X17490D01*
Y-83134D01*
X19671Y-89579D01*
X20573D01*
X22787Y-83240D01*
Y-89579D01*
X23755D01*
Y-82010D01*
D02*
G37*
G36*
X47191D02*
X46190D01*
Y-86381D01*
X46182Y-86635D01*
X46174Y-86873D01*
X46149Y-87086D01*
X46116Y-87283D01*
X46084Y-87455D01*
X46043Y-87611D01*
X45993Y-87750D01*
X45952Y-87873D01*
X45911Y-87980D01*
X45862Y-88070D01*
X45821Y-88144D01*
X45788Y-88201D01*
X45756Y-88242D01*
X45739Y-88275D01*
X45723Y-88292D01*
X45715Y-88300D01*
X45616Y-88390D01*
X45510Y-88464D01*
X45395Y-88529D01*
X45272Y-88587D01*
X45141Y-88636D01*
X45009Y-88677D01*
X44755Y-88734D01*
X44632Y-88759D01*
X44517Y-88775D01*
X44411Y-88784D01*
X44321Y-88792D01*
X44247Y-88800D01*
X44140D01*
X43911Y-88792D01*
X43697Y-88759D01*
X43509Y-88718D01*
X43345Y-88677D01*
X43279Y-88652D01*
X43222Y-88628D01*
X43164Y-88611D01*
X43123Y-88595D01*
X43091Y-88579D01*
X43066Y-88562D01*
X43050Y-88554D01*
X43041D01*
X42886Y-88447D01*
X42754Y-88333D01*
X42648Y-88218D01*
X42566Y-88095D01*
X42500Y-87996D01*
X42451Y-87906D01*
X42435Y-87873D01*
X42426Y-87849D01*
X42418Y-87841D01*
Y-87832D01*
X42385Y-87742D01*
X42361Y-87636D01*
X42312Y-87406D01*
X42279Y-87168D01*
X42262Y-86930D01*
X42254Y-86824D01*
X42246Y-86717D01*
Y-86627D01*
X42238Y-86545D01*
Y-86471D01*
Y-86422D01*
Y-86389D01*
Y-86381D01*
Y-82010D01*
X41237D01*
Y-86602D01*
X41254Y-86807D01*
X41262Y-87004D01*
X41287Y-87185D01*
X41303Y-87357D01*
X41328Y-87513D01*
X41352Y-87652D01*
X41385Y-87783D01*
X41410Y-87898D01*
X41434Y-87996D01*
X41459Y-88087D01*
X41483Y-88152D01*
X41500Y-88210D01*
X41516Y-88251D01*
X41524Y-88275D01*
Y-88283D01*
X41582Y-88406D01*
X41647Y-88529D01*
X41795Y-88743D01*
X41951Y-88923D01*
X42115Y-89071D01*
X42189Y-89136D01*
X42254Y-89185D01*
X42320Y-89235D01*
X42377Y-89276D01*
X42418Y-89300D01*
X42451Y-89325D01*
X42476Y-89333D01*
X42484Y-89341D01*
X42615Y-89407D01*
X42754Y-89456D01*
X43041Y-89546D01*
X43337Y-89612D01*
X43615Y-89653D01*
X43738Y-89669D01*
X43861Y-89686D01*
X43960Y-89694D01*
X44050D01*
X44124Y-89702D01*
X44230D01*
X44427Y-89694D01*
X44616Y-89686D01*
X44796Y-89661D01*
X44968Y-89636D01*
X45124Y-89604D01*
X45272Y-89571D01*
X45403Y-89530D01*
X45518Y-89489D01*
X45633Y-89456D01*
X45723Y-89415D01*
X45805Y-89382D01*
X45870Y-89349D01*
X45928Y-89325D01*
X45961Y-89300D01*
X45985Y-89292D01*
X45993Y-89284D01*
X46116Y-89202D01*
X46231Y-89120D01*
X46330Y-89030D01*
X46428Y-88939D01*
X46510Y-88849D01*
X46592Y-88751D01*
X46658Y-88669D01*
X46715Y-88579D01*
X46813Y-88431D01*
X46846Y-88365D01*
X46879Y-88308D01*
X46904Y-88259D01*
X46920Y-88226D01*
X46928Y-88201D01*
Y-88193D01*
X46977Y-88062D01*
X47018Y-87923D01*
X47084Y-87627D01*
X47125Y-87324D01*
X47158Y-87037D01*
X47166Y-86898D01*
X47174Y-86775D01*
X47182Y-86668D01*
X47191Y-86570D01*
Y-82010D01*
D02*
G37*
G36*
X60237D02*
X54759D01*
Y-89579D01*
X60409D01*
Y-88685D01*
X55760D01*
Y-86110D01*
X59950D01*
Y-85217D01*
X55760D01*
Y-82904D01*
X60237D01*
Y-82010D01*
D02*
G37*
G36*
X49815D02*
X48814D01*
Y-89579D01*
X53546D01*
Y-88685D01*
X49815D01*
Y-82010D01*
D02*
G37*
G36*
X36408D02*
X33587D01*
Y-89579D01*
X36317D01*
X36563Y-89571D01*
X36793Y-89563D01*
X36998Y-89538D01*
X37178Y-89513D01*
X37252Y-89505D01*
X37318Y-89497D01*
X37383Y-89481D01*
X37433Y-89472D01*
X37474Y-89464D01*
X37498D01*
X37515Y-89456D01*
X37523D01*
X37711Y-89399D01*
X37892Y-89341D01*
X38048Y-89276D01*
X38179Y-89218D01*
X38285Y-89161D01*
X38367Y-89120D01*
X38417Y-89087D01*
X38425Y-89079D01*
X38433D01*
X38572Y-88972D01*
X38704Y-88866D01*
X38818Y-88751D01*
X38917Y-88636D01*
X39007Y-88538D01*
X39064Y-88464D01*
X39089Y-88431D01*
X39105Y-88406D01*
X39122Y-88398D01*
Y-88390D01*
X39237Y-88218D01*
X39335Y-88037D01*
X39425Y-87849D01*
X39499Y-87677D01*
X39556Y-87521D01*
X39581Y-87455D01*
X39606Y-87398D01*
X39614Y-87357D01*
X39630Y-87324D01*
X39638Y-87299D01*
Y-87291D01*
X39704Y-87029D01*
X39753Y-86766D01*
X39794Y-86512D01*
X39819Y-86274D01*
X39827Y-86168D01*
X39835Y-86069D01*
Y-85979D01*
X39843Y-85905D01*
Y-85758D01*
X39827Y-85389D01*
X39819Y-85217D01*
X39794Y-85053D01*
X39770Y-84897D01*
X39745Y-84749D01*
X39720Y-84610D01*
X39696Y-84479D01*
X39663Y-84364D01*
X39638Y-84265D01*
X39614Y-84175D01*
X39589Y-84101D01*
X39565Y-84044D01*
X39556Y-83995D01*
X39540Y-83970D01*
Y-83962D01*
X39417Y-83683D01*
X39278Y-83429D01*
X39204Y-83314D01*
X39130Y-83208D01*
X39056Y-83109D01*
X38982Y-83019D01*
X38917Y-82937D01*
X38851Y-82871D01*
X38794Y-82806D01*
X38745Y-82757D01*
X38704Y-82716D01*
X38671Y-82691D01*
X38654Y-82675D01*
X38646Y-82666D01*
X38466Y-82527D01*
X38277Y-82412D01*
X38097Y-82322D01*
X37925Y-82248D01*
X37769Y-82191D01*
X37703Y-82174D01*
X37646Y-82158D01*
X37605Y-82142D01*
X37572Y-82133D01*
X37547Y-82125D01*
X37539D01*
X37449Y-82109D01*
X37351Y-82084D01*
X37129Y-82060D01*
X36908Y-82035D01*
X36686Y-82027D01*
X36588Y-82019D01*
X36490D01*
X36408Y-82010D01*
D02*
G37*
G36*
X28782Y-81879D02*
X28683D01*
X28388Y-81887D01*
X28109Y-81928D01*
X27847Y-81978D01*
X27601Y-82043D01*
X27363Y-82125D01*
X27150Y-82215D01*
X26953Y-82314D01*
X26773Y-82412D01*
X26609Y-82511D01*
X26469Y-82609D01*
X26354Y-82699D01*
X26248Y-82781D01*
X26174Y-82847D01*
X26117Y-82896D01*
X26076Y-82937D01*
X26067Y-82945D01*
X25887Y-83150D01*
X25731Y-83380D01*
X25600Y-83609D01*
X25485Y-83855D01*
X25387Y-84101D01*
X25305Y-84347D01*
X25239Y-84585D01*
X25182Y-84823D01*
X25141Y-85044D01*
X25116Y-85241D01*
X25092Y-85430D01*
X25075Y-85586D01*
X25067Y-85717D01*
Y-85766D01*
X25059Y-85815D01*
Y-85897D01*
X25067Y-86078D01*
X25075Y-86266D01*
X25124Y-86611D01*
X25157Y-86775D01*
X25190Y-86930D01*
X25231Y-87078D01*
X25272Y-87209D01*
X25313Y-87340D01*
X25354Y-87447D01*
X25387Y-87545D01*
X25420Y-87627D01*
X25444Y-87693D01*
X25469Y-87742D01*
X25477Y-87775D01*
X25485Y-87783D01*
X25575Y-87947D01*
X25666Y-88103D01*
X25764Y-88242D01*
X25871Y-88382D01*
X25977Y-88505D01*
X26084Y-88620D01*
X26182Y-88726D01*
X26289Y-88825D01*
X26387Y-88907D01*
X26477Y-88980D01*
X26559Y-89046D01*
X26625Y-89095D01*
X26682Y-89136D01*
X26732Y-89169D01*
X26756Y-89185D01*
X26764Y-89194D01*
X26928Y-89284D01*
X27092Y-89358D01*
X27256Y-89431D01*
X27420Y-89489D01*
X27584Y-89538D01*
X27740Y-89579D01*
X27896Y-89612D01*
X28035Y-89636D01*
X28175Y-89661D01*
X28290Y-89677D01*
X28404Y-89686D01*
X28495Y-89694D01*
X28568Y-89702D01*
X28675D01*
X28855Y-89694D01*
X29036Y-89686D01*
X29380Y-89628D01*
X29536Y-89595D01*
X29692Y-89554D01*
X29831Y-89513D01*
X29962Y-89472D01*
X30085Y-89431D01*
X30192Y-89390D01*
X30282Y-89349D01*
X30364Y-89317D01*
X30430Y-89284D01*
X30471Y-89259D01*
X30504Y-89251D01*
X30512Y-89243D01*
X30668Y-89153D01*
X30815Y-89046D01*
X30955Y-88939D01*
X31078Y-88833D01*
X31192Y-88718D01*
X31307Y-88603D01*
X31406Y-88488D01*
X31496Y-88382D01*
X31570Y-88275D01*
X31643Y-88177D01*
X31701Y-88087D01*
X31750Y-88013D01*
X31783Y-87955D01*
X31807Y-87906D01*
X31824Y-87873D01*
X31832Y-87865D01*
X31914Y-87693D01*
X31988Y-87513D01*
X32045Y-87340D01*
X32103Y-87160D01*
X32152Y-86988D01*
X32185Y-86816D01*
X32217Y-86652D01*
X32242Y-86496D01*
X32258Y-86348D01*
X32275Y-86217D01*
X32283Y-86102D01*
X32291Y-86004D01*
X32299Y-85922D01*
Y-85807D01*
X32291Y-85594D01*
X32283Y-85397D01*
X32258Y-85200D01*
X32234Y-85012D01*
X32201Y-84839D01*
X32160Y-84667D01*
X32119Y-84511D01*
X32078Y-84372D01*
X32037Y-84241D01*
X31996Y-84126D01*
X31963Y-84019D01*
X31922Y-83937D01*
X31898Y-83872D01*
X31873Y-83823D01*
X31865Y-83790D01*
X31857Y-83782D01*
X31766Y-83618D01*
X31676Y-83462D01*
X31570Y-83314D01*
X31471Y-83183D01*
X31365Y-83060D01*
X31258Y-82945D01*
X31151Y-82839D01*
X31045Y-82740D01*
X30946Y-82658D01*
X30856Y-82584D01*
X30782Y-82519D01*
X30709Y-82470D01*
X30651Y-82429D01*
X30610Y-82404D01*
X30577Y-82388D01*
X30569Y-82379D01*
X30405Y-82289D01*
X30249Y-82215D01*
X30085Y-82150D01*
X29921Y-82092D01*
X29757Y-82043D01*
X29602Y-82002D01*
X29454Y-81969D01*
X29306Y-81945D01*
X29175Y-81920D01*
X29060Y-81904D01*
X28954Y-81896D01*
X28855Y-81887D01*
X28782Y-81879D01*
D02*
G37*
G36*
X33271Y-91216D02*
X33132D01*
X32853Y-91224D01*
X32590Y-91257D01*
X32361Y-91298D01*
X32254Y-91322D01*
X32156Y-91347D01*
X32066Y-91372D01*
X31984Y-91396D01*
X31910Y-91421D01*
X31852Y-91437D01*
X31811Y-91453D01*
X31771Y-91470D01*
X31754Y-91478D01*
X31746D01*
X31525Y-91585D01*
X31336Y-91708D01*
X31172Y-91831D01*
X31041Y-91954D01*
X30934Y-92068D01*
X30852Y-92159D01*
X30828Y-92191D01*
X30811Y-92216D01*
X30795Y-92233D01*
Y-92241D01*
X30688Y-92429D01*
X30606Y-92618D01*
X30557Y-92790D01*
X30516Y-92954D01*
X30491Y-93102D01*
X30483Y-93159D01*
Y-93208D01*
X30475Y-93249D01*
Y-93282D01*
Y-93299D01*
Y-93307D01*
X30483Y-93495D01*
X30516Y-93676D01*
X30557Y-93840D01*
X30606Y-93979D01*
X30655Y-94094D01*
X30696Y-94184D01*
X30713Y-94217D01*
X30729Y-94241D01*
X30737Y-94250D01*
Y-94258D01*
X30844Y-94406D01*
X30975Y-94545D01*
X31106Y-94660D01*
X31246Y-94766D01*
X31361Y-94848D01*
X31459Y-94906D01*
X31500Y-94922D01*
X31525Y-94938D01*
X31541Y-94955D01*
X31549D01*
X31631Y-94996D01*
X31730Y-95037D01*
X31836Y-95078D01*
X31951Y-95119D01*
X32189Y-95201D01*
X32435Y-95275D01*
X32550Y-95307D01*
X32648Y-95340D01*
X32746Y-95365D01*
X32836Y-95389D01*
X32902Y-95406D01*
X32959Y-95422D01*
X32992Y-95430D01*
X33000D01*
X33189Y-95472D01*
X33361Y-95521D01*
X33509Y-95553D01*
X33648Y-95595D01*
X33771Y-95627D01*
X33886Y-95652D01*
X33976Y-95685D01*
X34067Y-95709D01*
X34132Y-95726D01*
X34198Y-95750D01*
X34247Y-95767D01*
X34280Y-95775D01*
X34312Y-95783D01*
X34329Y-95791D01*
X34345Y-95799D01*
X34509Y-95873D01*
X34649Y-95947D01*
X34772Y-96021D01*
X34862Y-96087D01*
X34936Y-96152D01*
X34985Y-96201D01*
X35018Y-96234D01*
X35026Y-96242D01*
X35100Y-96341D01*
X35149Y-96447D01*
X35190Y-96554D01*
X35214Y-96652D01*
X35231Y-96734D01*
X35239Y-96808D01*
Y-96849D01*
Y-96857D01*
Y-96865D01*
X35231Y-96988D01*
X35206Y-97111D01*
X35165Y-97218D01*
X35133Y-97316D01*
X35092Y-97399D01*
X35050Y-97464D01*
X35026Y-97497D01*
X35018Y-97513D01*
X34927Y-97620D01*
X34829Y-97710D01*
X34714Y-97792D01*
X34608Y-97858D01*
X34509Y-97907D01*
X34435Y-97948D01*
X34403Y-97964D01*
X34378Y-97973D01*
X34370Y-97981D01*
X34362D01*
X34198Y-98038D01*
X34025Y-98079D01*
X33853Y-98104D01*
X33698Y-98120D01*
X33566Y-98137D01*
X33509D01*
X33460Y-98145D01*
X33361D01*
X33123Y-98137D01*
X32910Y-98112D01*
X32705Y-98071D01*
X32533Y-98030D01*
X32459Y-98014D01*
X32394Y-97997D01*
X32336Y-97973D01*
X32287Y-97956D01*
X32246Y-97940D01*
X32221Y-97931D01*
X32205Y-97923D01*
X32197D01*
X32017Y-97833D01*
X31861Y-97735D01*
X31730Y-97645D01*
X31623Y-97546D01*
X31541Y-97464D01*
X31484Y-97399D01*
X31442Y-97357D01*
X31434Y-97341D01*
X31352Y-97193D01*
X31287Y-97038D01*
X31238Y-96882D01*
X31196Y-96734D01*
X31164Y-96595D01*
X31155Y-96546D01*
X31147Y-96496D01*
X31139Y-96456D01*
X31131Y-96423D01*
Y-96406D01*
Y-96398D01*
X30188Y-96480D01*
X30196Y-96619D01*
X30213Y-96759D01*
X30262Y-97013D01*
X30327Y-97251D01*
X30360Y-97357D01*
X30401Y-97448D01*
X30434Y-97538D01*
X30475Y-97620D01*
X30508Y-97685D01*
X30540Y-97743D01*
X30565Y-97792D01*
X30582Y-97825D01*
X30590Y-97841D01*
X30598Y-97850D01*
X30754Y-98063D01*
X30934Y-98243D01*
X31115Y-98399D01*
X31287Y-98522D01*
X31442Y-98620D01*
X31508Y-98653D01*
X31565Y-98686D01*
X31615Y-98711D01*
X31648Y-98727D01*
X31672Y-98743D01*
X31680D01*
X31959Y-98842D01*
X32246Y-98915D01*
X32533Y-98965D01*
X32804Y-98997D01*
X32935Y-99014D01*
X33050Y-99022D01*
X33148Y-99030D01*
X33238D01*
X33312Y-99038D01*
X33411D01*
X33706Y-99022D01*
X33976Y-98989D01*
X34222Y-98948D01*
X34337Y-98915D01*
X34435Y-98891D01*
X34534Y-98866D01*
X34616Y-98834D01*
X34690Y-98809D01*
X34747Y-98792D01*
X34796Y-98768D01*
X34829Y-98760D01*
X34854Y-98743D01*
X34862D01*
X35092Y-98620D01*
X35288Y-98489D01*
X35460Y-98350D01*
X35600Y-98219D01*
X35715Y-98096D01*
X35789Y-98005D01*
X35821Y-97964D01*
X35838Y-97940D01*
X35854Y-97923D01*
Y-97915D01*
X35920Y-97817D01*
X35969Y-97710D01*
X36059Y-97513D01*
X36125Y-97325D01*
X36166Y-97153D01*
X36190Y-96997D01*
X36198Y-96939D01*
Y-96882D01*
X36207Y-96841D01*
Y-96784D01*
X36190Y-96562D01*
X36158Y-96357D01*
X36108Y-96177D01*
X36051Y-96021D01*
X35985Y-95890D01*
X35961Y-95832D01*
X35936Y-95791D01*
X35920Y-95758D01*
X35903Y-95734D01*
X35887Y-95718D01*
Y-95709D01*
X35821Y-95627D01*
X35756Y-95545D01*
X35600Y-95389D01*
X35444Y-95258D01*
X35280Y-95152D01*
X35141Y-95061D01*
X35075Y-95021D01*
X35018Y-94996D01*
X34977Y-94971D01*
X34944Y-94955D01*
X34919Y-94938D01*
X34911D01*
X34821Y-94898D01*
X34706Y-94857D01*
X34591Y-94815D01*
X34460Y-94775D01*
X34181Y-94701D01*
X33902Y-94627D01*
X33771Y-94586D01*
X33648Y-94561D01*
X33533Y-94529D01*
X33435Y-94512D01*
X33353Y-94488D01*
X33296Y-94471D01*
X33255Y-94463D01*
X33238D01*
X33017Y-94414D01*
X32820Y-94356D01*
X32648Y-94307D01*
X32484Y-94258D01*
X32344Y-94209D01*
X32221Y-94168D01*
X32115Y-94127D01*
X32025Y-94086D01*
X31951Y-94045D01*
X31885Y-94012D01*
X31836Y-93987D01*
X31795Y-93963D01*
X31762Y-93938D01*
X31746Y-93922D01*
X31730Y-93914D01*
X31631Y-93807D01*
X31565Y-93700D01*
X31516Y-93585D01*
X31475Y-93479D01*
X31459Y-93389D01*
X31451Y-93315D01*
X31442Y-93266D01*
Y-93257D01*
Y-93249D01*
X31451Y-93159D01*
X31459Y-93077D01*
X31508Y-92930D01*
X31574Y-92790D01*
X31648Y-92675D01*
X31721Y-92577D01*
X31787Y-92503D01*
X31836Y-92462D01*
X31844Y-92446D01*
X31852D01*
X31934Y-92388D01*
X32033Y-92331D01*
X32238Y-92249D01*
X32451Y-92191D01*
X32673Y-92150D01*
X32771Y-92134D01*
X32869Y-92126D01*
X32951Y-92118D01*
X33025D01*
X33091Y-92110D01*
X33329D01*
X33476Y-92126D01*
X33615Y-92142D01*
X33747Y-92167D01*
X33862Y-92191D01*
X33968Y-92224D01*
X34067Y-92257D01*
X34157Y-92290D01*
X34231Y-92331D01*
X34296Y-92364D01*
X34354Y-92396D01*
X34403Y-92421D01*
X34435Y-92446D01*
X34468Y-92462D01*
X34477Y-92470D01*
X34485Y-92479D01*
X34567Y-92552D01*
X34640Y-92626D01*
X34755Y-92798D01*
X34854Y-92979D01*
X34919Y-93151D01*
X34969Y-93307D01*
X34985Y-93372D01*
X35001Y-93438D01*
X35010Y-93487D01*
Y-93520D01*
X35018Y-93545D01*
Y-93553D01*
X35977Y-93479D01*
X35952Y-93233D01*
X35903Y-93011D01*
X35846Y-92807D01*
X35780Y-92634D01*
X35739Y-92560D01*
X35715Y-92487D01*
X35682Y-92429D01*
X35657Y-92380D01*
X35633Y-92339D01*
X35616Y-92314D01*
X35608Y-92298D01*
X35600Y-92290D01*
X35460Y-92101D01*
X35305Y-91945D01*
X35141Y-91806D01*
X34977Y-91691D01*
X34837Y-91609D01*
X34772Y-91576D01*
X34723Y-91544D01*
X34681Y-91519D01*
X34640Y-91511D01*
X34624Y-91495D01*
X34616D01*
X34370Y-91404D01*
X34116Y-91330D01*
X33862Y-91281D01*
X33632Y-91249D01*
X33525Y-91240D01*
X33435Y-91232D01*
X33345Y-91224D01*
X33271Y-91216D01*
D02*
G37*
G36*
X53640Y-91347D02*
X48162D01*
Y-98915D01*
X53812D01*
Y-98022D01*
X49163D01*
Y-95447D01*
X53353D01*
Y-94553D01*
X49163D01*
Y-92241D01*
X53640D01*
Y-91347D01*
D02*
G37*
G36*
X43324D02*
X40503D01*
Y-98915D01*
X43234D01*
X43480Y-98907D01*
X43710Y-98899D01*
X43915Y-98874D01*
X44095Y-98850D01*
X44169Y-98842D01*
X44234Y-98834D01*
X44300Y-98817D01*
X44349Y-98809D01*
X44390Y-98801D01*
X44415D01*
X44431Y-98792D01*
X44440D01*
X44628Y-98735D01*
X44809Y-98678D01*
X44964Y-98612D01*
X45096Y-98555D01*
X45202Y-98497D01*
X45284Y-98456D01*
X45333Y-98423D01*
X45342Y-98415D01*
X45350D01*
X45489Y-98309D01*
X45620Y-98202D01*
X45735Y-98087D01*
X45834Y-97973D01*
X45924Y-97874D01*
X45981Y-97800D01*
X46006Y-97768D01*
X46022Y-97743D01*
X46038Y-97735D01*
Y-97727D01*
X46153Y-97554D01*
X46252Y-97374D01*
X46342Y-97185D01*
X46416Y-97013D01*
X46473Y-96857D01*
X46498Y-96792D01*
X46522Y-96734D01*
X46531Y-96693D01*
X46547Y-96661D01*
X46555Y-96636D01*
Y-96628D01*
X46621Y-96365D01*
X46670Y-96103D01*
X46711Y-95849D01*
X46736Y-95611D01*
X46744Y-95504D01*
X46752Y-95406D01*
Y-95316D01*
X46760Y-95242D01*
Y-95094D01*
X46744Y-94725D01*
X46736Y-94553D01*
X46711Y-94389D01*
X46686Y-94233D01*
X46662Y-94086D01*
X46637Y-93946D01*
X46613Y-93815D01*
X46580Y-93700D01*
X46555Y-93602D01*
X46531Y-93512D01*
X46506Y-93438D01*
X46481Y-93380D01*
X46473Y-93331D01*
X46457Y-93307D01*
Y-93299D01*
X46334Y-93020D01*
X46194Y-92765D01*
X46121Y-92651D01*
X46047Y-92544D01*
X45973Y-92446D01*
X45899Y-92356D01*
X45834Y-92273D01*
X45768Y-92208D01*
X45711Y-92142D01*
X45661Y-92093D01*
X45620Y-92052D01*
X45588Y-92027D01*
X45571Y-92011D01*
X45563Y-92003D01*
X45382Y-91864D01*
X45194Y-91749D01*
X45013Y-91659D01*
X44841Y-91585D01*
X44686Y-91527D01*
X44620Y-91511D01*
X44563Y-91495D01*
X44521Y-91478D01*
X44489Y-91470D01*
X44464Y-91462D01*
X44456D01*
X44366Y-91445D01*
X44267Y-91421D01*
X44046Y-91396D01*
X43824Y-91372D01*
X43603Y-91363D01*
X43505Y-91355D01*
X43406D01*
X43324Y-91347D01*
D02*
G37*
G36*
X38741D02*
X37740D01*
Y-98915D01*
X38741D01*
Y-91347D01*
D02*
G37*
G36*
X33952Y-100552D02*
X32951D01*
Y-103660D01*
X29024D01*
Y-100552D01*
X28023D01*
Y-108121D01*
X29024D01*
Y-104554D01*
X32951D01*
Y-108121D01*
X33952D01*
Y-100552D01*
D02*
G37*
G36*
X55805D02*
X50327D01*
Y-108121D01*
X55977D01*
Y-107227D01*
X51328D01*
Y-104652D01*
X55518D01*
Y-103758D01*
X51328D01*
Y-101446D01*
X55805D01*
Y-100552D01*
D02*
G37*
G36*
X46202D02*
X42685D01*
Y-108121D01*
X43685D01*
Y-104759D01*
X44973D01*
X45087Y-104767D01*
X45186Y-104775D01*
X45268D01*
X45325Y-104783D01*
X45366Y-104792D01*
X45391Y-104800D01*
X45399D01*
X45489Y-104824D01*
X45571Y-104857D01*
X45645Y-104890D01*
X45719Y-104923D01*
X45776Y-104956D01*
X45817Y-104980D01*
X45850Y-104997D01*
X45858Y-105005D01*
X45940Y-105062D01*
X46030Y-105144D01*
X46121Y-105226D01*
X46194Y-105308D01*
X46268Y-105382D01*
X46317Y-105448D01*
X46350Y-105489D01*
X46367Y-105497D01*
Y-105505D01*
X46481Y-105653D01*
X46604Y-105817D01*
X46719Y-105989D01*
X46834Y-106161D01*
X46932Y-106309D01*
X46981Y-106374D01*
X47014Y-106432D01*
X47047Y-106481D01*
X47072Y-106514D01*
X47080Y-106538D01*
X47088Y-106546D01*
X48088Y-108121D01*
X49343D01*
X48031Y-106063D01*
X47883Y-105849D01*
X47736Y-105653D01*
X47596Y-105480D01*
X47473Y-105333D01*
X47367Y-105218D01*
X47318Y-105169D01*
X47277Y-105128D01*
X47244Y-105095D01*
X47219Y-105070D01*
X47211Y-105062D01*
X47203Y-105054D01*
X47121Y-104988D01*
X47023Y-104915D01*
X46924Y-104857D01*
X46826Y-104800D01*
X46736Y-104751D01*
X46662Y-104710D01*
X46613Y-104685D01*
X46604Y-104677D01*
X46596D01*
X46793Y-104644D01*
X46981Y-104603D01*
X47154Y-104554D01*
X47309Y-104505D01*
X47457Y-104447D01*
X47588Y-104390D01*
X47703Y-104332D01*
X47810Y-104275D01*
X47908Y-104218D01*
X47990Y-104160D01*
X48056Y-104111D01*
X48113Y-104070D01*
X48154Y-104029D01*
X48187Y-104004D01*
X48203Y-103988D01*
X48212Y-103980D01*
X48302Y-103873D01*
X48384Y-103767D01*
X48458Y-103652D01*
X48515Y-103537D01*
X48564Y-103422D01*
X48605Y-103307D01*
X48671Y-103094D01*
X48695Y-102996D01*
X48712Y-102906D01*
X48720Y-102824D01*
X48728Y-102750D01*
X48736Y-102701D01*
Y-102651D01*
Y-102627D01*
Y-102619D01*
X48720Y-102389D01*
X48687Y-102176D01*
X48638Y-101987D01*
X48581Y-101815D01*
X48548Y-101741D01*
X48515Y-101676D01*
X48490Y-101618D01*
X48466Y-101569D01*
X48449Y-101528D01*
X48433Y-101503D01*
X48417Y-101487D01*
Y-101479D01*
X48294Y-101298D01*
X48154Y-101151D01*
X48015Y-101020D01*
X47875Y-100921D01*
X47760Y-100847D01*
X47662Y-100798D01*
X47621Y-100782D01*
X47596Y-100765D01*
X47580Y-100757D01*
X47572D01*
X47465Y-100724D01*
X47359Y-100692D01*
X47113Y-100642D01*
X46859Y-100601D01*
X46613Y-100577D01*
X46490Y-100569D01*
X46383Y-100560D01*
X46293D01*
X46202Y-100552D01*
D02*
G37*
G36*
X41118D02*
X35641D01*
Y-108121D01*
X41291D01*
Y-107227D01*
X36641D01*
Y-104652D01*
X40832D01*
Y-103758D01*
X36641D01*
Y-101446D01*
X41118D01*
Y-100552D01*
D02*
G37*
%LPD*%
G36*
X36481Y-82912D02*
X36621Y-82921D01*
X36752Y-82929D01*
X36867Y-82937D01*
X36973Y-82953D01*
X37072Y-82970D01*
X37154Y-82978D01*
X37228Y-82994D01*
X37293Y-83011D01*
X37342Y-83027D01*
X37392Y-83035D01*
X37424Y-83044D01*
X37449Y-83052D01*
X37457Y-83060D01*
X37465D01*
X37572Y-83109D01*
X37670Y-83158D01*
X37851Y-83290D01*
X38015Y-83429D01*
X38154Y-83577D01*
X38261Y-83708D01*
X38310Y-83765D01*
X38343Y-83814D01*
X38376Y-83864D01*
X38400Y-83896D01*
X38408Y-83913D01*
X38417Y-83921D01*
X38482Y-84044D01*
X38548Y-84183D01*
X38646Y-84470D01*
X38712Y-84774D01*
X38761Y-85069D01*
X38777Y-85208D01*
X38794Y-85331D01*
X38802Y-85446D01*
Y-85545D01*
X38810Y-85627D01*
Y-85692D01*
Y-85725D01*
Y-85741D01*
X38802Y-86053D01*
X38777Y-86332D01*
X38761Y-86463D01*
X38745Y-86578D01*
X38728Y-86693D01*
X38712Y-86791D01*
X38687Y-86881D01*
X38671Y-86963D01*
X38654Y-87037D01*
X38638Y-87094D01*
X38622Y-87144D01*
X38613Y-87176D01*
X38605Y-87193D01*
Y-87201D01*
X38523Y-87414D01*
X38433Y-87603D01*
X38343Y-87767D01*
X38261Y-87906D01*
X38179Y-88013D01*
X38113Y-88095D01*
X38072Y-88144D01*
X38064Y-88152D01*
X38056Y-88160D01*
X37957Y-88251D01*
X37843Y-88333D01*
X37728Y-88398D01*
X37621Y-88456D01*
X37523Y-88497D01*
X37449Y-88529D01*
X37416Y-88538D01*
X37392Y-88546D01*
X37383Y-88554D01*
X37375D01*
X37203Y-88595D01*
X37014Y-88628D01*
X36818Y-88652D01*
X36629Y-88669D01*
X36465Y-88677D01*
X36391D01*
X36326Y-88685D01*
X34587D01*
Y-82904D01*
X36334D01*
X36481Y-82912D01*
D02*
G37*
G36*
X28962Y-82757D02*
X29216Y-82798D01*
X29446Y-82863D01*
X29544Y-82896D01*
X29643Y-82929D01*
X29733Y-82970D01*
X29807Y-83003D01*
X29872Y-83035D01*
X29930Y-83068D01*
X29979Y-83093D01*
X30012Y-83109D01*
X30028Y-83117D01*
X30036Y-83126D01*
X30249Y-83281D01*
X30430Y-83454D01*
X30586Y-83626D01*
X30717Y-83798D01*
X30815Y-83954D01*
X30856Y-84019D01*
X30889Y-84077D01*
X30914Y-84126D01*
X30930Y-84159D01*
X30946Y-84183D01*
Y-84192D01*
X31053Y-84462D01*
X31135Y-84733D01*
X31192Y-85003D01*
X31225Y-85258D01*
X31242Y-85372D01*
X31250Y-85479D01*
X31258Y-85569D01*
Y-85651D01*
X31266Y-85717D01*
Y-85766D01*
Y-85799D01*
Y-85807D01*
X31258Y-86069D01*
X31233Y-86324D01*
X31201Y-86553D01*
X31151Y-86775D01*
X31094Y-86980D01*
X31037Y-87160D01*
X30963Y-87332D01*
X30897Y-87480D01*
X30832Y-87619D01*
X30766Y-87734D01*
X30700Y-87832D01*
X30643Y-87914D01*
X30594Y-87980D01*
X30561Y-88021D01*
X30536Y-88054D01*
X30528Y-88062D01*
X30389Y-88201D01*
X30241Y-88324D01*
X30085Y-88423D01*
X29930Y-88513D01*
X29774Y-88595D01*
X29618Y-88661D01*
X29470Y-88710D01*
X29323Y-88751D01*
X29192Y-88784D01*
X29060Y-88808D01*
X28954Y-88825D01*
X28855Y-88833D01*
X28773Y-88841D01*
X28716Y-88849D01*
X28667D01*
X28462Y-88841D01*
X28273Y-88816D01*
X28085Y-88775D01*
X27912Y-88726D01*
X27748Y-88669D01*
X27601Y-88603D01*
X27453Y-88529D01*
X27330Y-88456D01*
X27215Y-88390D01*
X27117Y-88316D01*
X27027Y-88251D01*
X26953Y-88193D01*
X26896Y-88144D01*
X26855Y-88103D01*
X26830Y-88078D01*
X26822Y-88070D01*
X26691Y-87914D01*
X26584Y-87750D01*
X26486Y-87578D01*
X26404Y-87398D01*
X26330Y-87217D01*
X26272Y-87045D01*
X26223Y-86865D01*
X26182Y-86693D01*
X26149Y-86537D01*
X26133Y-86389D01*
X26117Y-86258D01*
X26100Y-86143D01*
Y-86045D01*
X26092Y-85971D01*
Y-85930D01*
Y-85914D01*
X26100Y-85602D01*
X26125Y-85315D01*
X26166Y-85053D01*
X26215Y-84815D01*
X26272Y-84593D01*
X26330Y-84397D01*
X26404Y-84216D01*
X26477Y-84052D01*
X26543Y-83921D01*
X26617Y-83798D01*
X26674Y-83700D01*
X26740Y-83618D01*
X26781Y-83560D01*
X26822Y-83511D01*
X26846Y-83486D01*
X26855Y-83478D01*
X27002Y-83347D01*
X27158Y-83232D01*
X27314Y-83134D01*
X27470Y-83052D01*
X27617Y-82978D01*
X27773Y-82921D01*
X27921Y-82871D01*
X28060Y-82830D01*
X28191Y-82806D01*
X28306Y-82781D01*
X28413Y-82765D01*
X28503Y-82748D01*
X28585D01*
X28634Y-82740D01*
X28823D01*
X28962Y-82757D01*
D02*
G37*
G36*
X43398Y-92249D02*
X43538Y-92257D01*
X43669Y-92265D01*
X43784Y-92273D01*
X43890Y-92290D01*
X43988Y-92306D01*
X44071Y-92314D01*
X44144Y-92331D01*
X44210Y-92347D01*
X44259Y-92364D01*
X44308Y-92372D01*
X44341Y-92380D01*
X44366Y-92388D01*
X44374Y-92396D01*
X44382D01*
X44489Y-92446D01*
X44587Y-92495D01*
X44767Y-92626D01*
X44932Y-92765D01*
X45071Y-92913D01*
X45178Y-93044D01*
X45227Y-93102D01*
X45259Y-93151D01*
X45292Y-93200D01*
X45317Y-93233D01*
X45325Y-93249D01*
X45333Y-93257D01*
X45399Y-93380D01*
X45465Y-93520D01*
X45563Y-93807D01*
X45628Y-94110D01*
X45678Y-94406D01*
X45694Y-94545D01*
X45711Y-94668D01*
X45719Y-94783D01*
Y-94881D01*
X45727Y-94963D01*
Y-95029D01*
Y-95061D01*
Y-95078D01*
X45719Y-95389D01*
X45694Y-95668D01*
X45678Y-95799D01*
X45661Y-95914D01*
X45645Y-96029D01*
X45628Y-96127D01*
X45604Y-96218D01*
X45588Y-96300D01*
X45571Y-96373D01*
X45555Y-96431D01*
X45538Y-96480D01*
X45530Y-96513D01*
X45522Y-96529D01*
Y-96538D01*
X45440Y-96751D01*
X45350Y-96939D01*
X45259Y-97103D01*
X45178Y-97243D01*
X45096Y-97349D01*
X45030Y-97431D01*
X44989Y-97480D01*
X44981Y-97489D01*
X44973Y-97497D01*
X44874Y-97587D01*
X44759Y-97669D01*
X44644Y-97735D01*
X44538Y-97792D01*
X44440Y-97833D01*
X44366Y-97866D01*
X44333Y-97874D01*
X44308Y-97882D01*
X44300Y-97891D01*
X44292D01*
X44120Y-97931D01*
X43931Y-97964D01*
X43734Y-97989D01*
X43546Y-98005D01*
X43382Y-98014D01*
X43308D01*
X43242Y-98022D01*
X41504D01*
Y-92241D01*
X43251D01*
X43398Y-92249D01*
D02*
G37*
G36*
X46375Y-101405D02*
X46506Y-101421D01*
X46629Y-101446D01*
X46736Y-101471D01*
X46834Y-101503D01*
X46924Y-101528D01*
X47006Y-101561D01*
X47080Y-101594D01*
X47137Y-101626D01*
X47195Y-101659D01*
X47236Y-101684D01*
X47269Y-101708D01*
X47293Y-101725D01*
X47301Y-101733D01*
X47309Y-101741D01*
X47375Y-101807D01*
X47441Y-101881D01*
X47539Y-102020D01*
X47605Y-102168D01*
X47654Y-102307D01*
X47687Y-102430D01*
X47695Y-102487D01*
Y-102528D01*
X47703Y-102569D01*
Y-102594D01*
Y-102610D01*
Y-102619D01*
X47695Y-102750D01*
X47670Y-102881D01*
X47638Y-102996D01*
X47605Y-103094D01*
X47564Y-103184D01*
X47531Y-103242D01*
X47506Y-103283D01*
X47498Y-103299D01*
X47416Y-103406D01*
X47318Y-103504D01*
X47219Y-103578D01*
X47129Y-103644D01*
X47039Y-103693D01*
X46973Y-103726D01*
X46924Y-103742D01*
X46916Y-103750D01*
X46908D01*
X46752Y-103799D01*
X46580Y-103832D01*
X46399Y-103857D01*
X46227Y-103873D01*
X46071Y-103881D01*
X46006D01*
X45948Y-103890D01*
X43685D01*
Y-101389D01*
X46235D01*
X46375Y-101405D01*
D02*
G37*
%LPC*%
G36*
X-233428Y-24160D02*
X-238402D01*
Y-25945D01*
D01*
Y-24870D01*
X-238031Y-25486D01*
X-237130D01*
Y-25945D01*
X-233428D01*
X-236650D01*
Y-25486D01*
X-234542D01*
X-234444D01*
X-234351Y-25481D01*
X-234269D01*
X-234193Y-25476D01*
X-234127Y-25470D01*
X-234067Y-25465D01*
X-234013Y-25459D01*
X-233969Y-25448D01*
X-233931Y-25443D01*
X-233898Y-25437D01*
X-233871Y-25432D01*
X-233849Y-25427D01*
X-233822Y-25421D01*
X-233811Y-25416D01*
X-233751Y-25383D01*
X-233696Y-25345D01*
X-233647Y-25301D01*
X-233609Y-25257D01*
X-233576Y-25214D01*
X-233554Y-25181D01*
X-233538Y-25159D01*
X-233532Y-25153D01*
X-233499Y-25077D01*
X-233472Y-24995D01*
X-233456Y-24908D01*
X-233439Y-24820D01*
X-233434Y-24744D01*
X-233428Y-24684D01*
Y-24629D01*
X-233439Y-24465D01*
X-233445Y-24389D01*
X-233456Y-24318D01*
X-233467Y-24253D01*
X-233472Y-24203D01*
X-233483Y-24171D01*
Y-24160D01*
X-234029Y-24242D01*
X-234023Y-24302D01*
X-234018Y-24356D01*
X-234013Y-24406D01*
Y-24444D01*
X-234007Y-24476D01*
Y-24569D01*
X-234013Y-24613D01*
X-234023Y-24646D01*
X-234029Y-24678D01*
X-234040Y-24700D01*
X-234045Y-24717D01*
X-234051Y-24728D01*
Y-24733D01*
X-234089Y-24777D01*
X-234127Y-24810D01*
X-234160Y-24831D01*
X-234166Y-24837D01*
X-234171D01*
X-234209Y-24848D01*
X-234258Y-24853D01*
X-234313Y-24864D01*
X-234367D01*
X-234422Y-24870D01*
X-234466D01*
X-234499D01*
X-234504D01*
X-234509D01*
X-236650D01*
Y-24242D01*
X-237130D01*
Y-24870D01*
X-238402D01*
Y-24160D01*
X-233428D01*
D02*
G37*
G36*
X-233477Y-26562D02*
X-237130D01*
Y-29522D01*
X-233396D01*
D01*
X-234728D01*
X-234608Y-29516D01*
X-234509Y-29511D01*
X-234428Y-29505D01*
X-234367Y-29500D01*
X-234318Y-29494D01*
X-234296Y-29489D01*
X-234286D01*
X-234187Y-29461D01*
X-234100Y-29434D01*
X-234023Y-29401D01*
X-233958Y-29369D01*
X-233903Y-29341D01*
X-233860Y-29320D01*
X-233838Y-29303D01*
X-233827Y-29298D01*
X-233761Y-29243D01*
X-233701Y-29177D01*
X-233647Y-29107D01*
X-233603Y-29041D01*
X-233565Y-28975D01*
X-233538Y-28926D01*
X-233521Y-28894D01*
X-233516Y-28888D01*
Y-28883D01*
X-233477Y-28773D01*
X-233445Y-28670D01*
X-233423Y-28566D01*
X-233412Y-28473D01*
X-233401Y-28391D01*
X-233396Y-28331D01*
Y-28277D01*
X-233401Y-28140D01*
X-233423Y-28014D01*
X-233450Y-27900D01*
X-233494Y-27785D01*
X-233538Y-27681D01*
X-233592Y-27589D01*
X-233647Y-27501D01*
X-233707Y-27419D01*
X-233761Y-27348D01*
X-233816Y-27288D01*
X-233871Y-27234D01*
X-233914Y-27190D01*
X-233958Y-27157D01*
X-233985Y-27136D01*
X-234007Y-27119D01*
X-234013Y-27114D01*
X-233477D01*
Y-26562D01*
D02*
G37*
G36*
X-235913Y-30286D02*
X-235989D01*
X-236131Y-30291D01*
X-236262Y-30297D01*
X-236393Y-30313D01*
X-236519Y-30330D01*
X-236633Y-30351D01*
X-236748Y-30379D01*
X-236852Y-30406D01*
X-236945Y-30433D01*
X-237032Y-30461D01*
X-237108Y-30488D01*
X-237179Y-30510D01*
X-237234Y-30537D01*
X-237278Y-30553D01*
X-237310Y-30570D01*
X-237332Y-30575D01*
X-237338Y-30581D01*
X-237447Y-30641D01*
X-237551Y-30701D01*
X-237649Y-30772D01*
X-237736Y-30837D01*
X-237818Y-30908D01*
X-237895Y-30979D01*
X-237966Y-31050D01*
X-238031Y-31121D01*
X-238086Y-31187D01*
X-238135Y-31247D01*
X-238179Y-31296D01*
X-238211Y-31345D01*
X-238239Y-31383D01*
X-238255Y-31411D01*
X-238266Y-31433D01*
X-238271Y-31438D01*
X-238332Y-31547D01*
X-238381Y-31651D01*
X-238424Y-31760D01*
X-238462Y-31869D01*
X-238495Y-31978D01*
X-238523Y-32082D01*
X-238544Y-32181D01*
X-238561Y-32279D01*
X-238577Y-32366D01*
X-238588Y-32443D01*
X-238594Y-32514D01*
X-238599Y-32579D01*
X-238604Y-32628D01*
Y-30286D01*
D01*
Y-35107D01*
D01*
Y-32694D01*
X-238599Y-32890D01*
X-238572Y-33076D01*
X-238539Y-33251D01*
X-238495Y-33415D01*
X-238441Y-33573D01*
X-238381Y-33715D01*
X-238315Y-33846D01*
X-238250Y-33966D01*
X-238184Y-34075D01*
X-238119Y-34168D01*
X-238058Y-34244D01*
X-238004Y-34315D01*
X-237960Y-34365D01*
X-237927Y-34403D01*
X-237900Y-34430D01*
X-237895Y-34435D01*
X-237758Y-34556D01*
X-237605Y-34659D01*
X-237452Y-34747D01*
X-237289Y-34823D01*
X-237125Y-34889D01*
X-236961Y-34943D01*
X-236803Y-34987D01*
X-236644Y-35025D01*
X-236497Y-35052D01*
X-236366Y-35069D01*
X-236240Y-35085D01*
X-236137Y-35096D01*
X-236049Y-35102D01*
X-236016D01*
X-235984Y-35107D01*
X-238604D01*
X-233396D01*
D01*
X-235929D01*
X-235809Y-35102D01*
X-235683Y-35096D01*
X-235454Y-35063D01*
X-235345Y-35041D01*
X-235241Y-35020D01*
X-235143Y-34992D01*
X-235055Y-34965D01*
X-234968Y-34938D01*
X-234897Y-34911D01*
X-234832Y-34889D01*
X-234777Y-34867D01*
X-234733Y-34850D01*
X-234701Y-34834D01*
X-234679Y-34829D01*
X-234673Y-34823D01*
X-234564Y-34763D01*
X-234460Y-34703D01*
X-234367Y-34637D01*
X-234275Y-34567D01*
X-234193Y-34495D01*
X-234116Y-34425D01*
X-234045Y-34359D01*
X-233980Y-34288D01*
X-233925Y-34222D01*
X-233876Y-34163D01*
X-233832Y-34108D01*
X-233800Y-34064D01*
X-233772Y-34026D01*
X-233751Y-33993D01*
X-233740Y-33977D01*
X-233734Y-33971D01*
X-233674Y-33862D01*
X-233625Y-33753D01*
X-233576Y-33644D01*
X-233538Y-33535D01*
X-233505Y-33425D01*
X-233477Y-33322D01*
X-233456Y-33218D01*
X-233439Y-33125D01*
X-233423Y-33032D01*
X-233412Y-32956D01*
X-233406Y-32879D01*
X-233401Y-32819D01*
X-233396Y-32770D01*
Y-32699D01*
X-233401Y-32579D01*
X-233406Y-32459D01*
X-233445Y-32230D01*
X-233467Y-32126D01*
X-233494Y-32022D01*
X-233521Y-31929D01*
X-233548Y-31842D01*
X-233576Y-31760D01*
X-233603Y-31689D01*
X-233630Y-31629D01*
X-233652Y-31574D01*
X-233674Y-31531D01*
X-233691Y-31503D01*
X-233696Y-31482D01*
X-233701Y-31476D01*
X-233761Y-31372D01*
X-233832Y-31274D01*
X-233903Y-31181D01*
X-233974Y-31099D01*
X-234051Y-31023D01*
X-234127Y-30946D01*
X-234204Y-30881D01*
X-234275Y-30821D01*
X-234346Y-30772D01*
X-234411Y-30723D01*
X-234471Y-30685D01*
X-234520Y-30652D01*
X-234559Y-30630D01*
X-234591Y-30613D01*
X-234613Y-30603D01*
X-234619Y-30597D01*
X-234733Y-30542D01*
X-234853Y-30493D01*
X-234968Y-30455D01*
X-235088Y-30417D01*
X-235203Y-30384D01*
X-235317Y-30362D01*
X-235427Y-30340D01*
X-235530Y-30324D01*
X-235629Y-30313D01*
X-235716Y-30302D01*
X-235793Y-30297D01*
X-235858Y-30291D01*
X-235913Y-30286D01*
D02*
G37*
G36*
X-234990Y-35664D02*
X-235612D01*
Y-37569D01*
X-234990D01*
Y-35664D01*
D02*
G37*
G36*
X-233477Y-38367D02*
X-238517D01*
Y-42336D01*
X-233477D01*
Y-41697D01*
X-237431D01*
X-233477Y-39055D01*
Y-38367D01*
D02*
G37*
G36*
Y-43505D02*
X-238517D01*
Y-44171D01*
X-233477D01*
Y-43505D01*
D02*
G37*
G36*
Y-45077D02*
X-235058D01*
X-234073D01*
Y-47561D01*
X-238517D01*
Y-45077D01*
D01*
Y-48227D01*
X-233477D01*
Y-45077D01*
D02*
G37*
G36*
X-233396Y-49183D02*
X-238604D01*
Y-53840D01*
D01*
Y-51323D01*
X-238599Y-51460D01*
X-238594Y-51596D01*
X-238577Y-51727D01*
X-238555Y-51847D01*
X-238533Y-51968D01*
X-238506Y-52077D01*
X-238479Y-52180D01*
X-238452Y-52273D01*
X-238419Y-52355D01*
X-238391Y-52432D01*
X-238364Y-52497D01*
X-238342Y-52552D01*
X-238320Y-52595D01*
X-238304Y-52628D01*
X-238299Y-52650D01*
X-238293Y-52656D01*
X-238233Y-52759D01*
X-238162Y-52858D01*
X-238091Y-52950D01*
X-238015Y-53032D01*
X-237933Y-53114D01*
X-237856Y-53185D01*
X-237780Y-53251D01*
X-237704Y-53311D01*
X-237627Y-53360D01*
X-237562Y-53409D01*
X-237502Y-53447D01*
X-237447Y-53480D01*
X-237403Y-53502D01*
X-237370Y-53518D01*
X-237349Y-53529D01*
X-237343Y-53535D01*
X-237223Y-53589D01*
X-237103Y-53633D01*
X-236983Y-53676D01*
X-236863Y-53709D01*
X-236633Y-53764D01*
X-236524Y-53786D01*
X-236420Y-53802D01*
X-236328Y-53813D01*
X-236240Y-53824D01*
X-236164Y-53829D01*
X-236098Y-53835D01*
X-236044Y-53840D01*
X-235973D01*
X-235836Y-53835D01*
X-235700Y-53829D01*
X-235574Y-53813D01*
X-235449Y-53791D01*
X-235334Y-53769D01*
X-235219Y-53742D01*
X-235116Y-53715D01*
X-235023Y-53687D01*
X-234935Y-53660D01*
X-234859Y-53633D01*
X-234793Y-53606D01*
X-234733Y-53584D01*
X-234690Y-53562D01*
X-234657Y-53545D01*
X-234635Y-53540D01*
X-234630Y-53535D01*
X-234520Y-53474D01*
X-234417Y-53404D01*
X-234324Y-53333D01*
X-234231Y-53262D01*
X-234149Y-53185D01*
X-234078Y-53109D01*
X-234007Y-53032D01*
X-233947Y-52961D01*
X-233892Y-52890D01*
X-233843Y-52825D01*
X-233805Y-52765D01*
X-233772Y-52716D01*
X-233745Y-52677D01*
X-233729Y-52645D01*
X-233718Y-52623D01*
X-233712Y-52617D01*
X-233658Y-52503D01*
X-233609Y-52382D01*
X-233565Y-52268D01*
X-233532Y-52153D01*
X-233499Y-52033D01*
X-233472Y-51924D01*
X-233450Y-51815D01*
X-233434Y-51716D01*
X-233423Y-51624D01*
X-233412Y-51536D01*
X-233406Y-51460D01*
X-233401Y-51394D01*
X-233396Y-51340D01*
Y-51269D01*
X-233406Y-51067D01*
X-233428Y-50870D01*
X-233456Y-50690D01*
X-233477Y-50608D01*
X-233494Y-50526D01*
X-233510Y-50455D01*
X-233532Y-50395D01*
X-233548Y-50335D01*
X-233559Y-50291D01*
X-233576Y-50248D01*
X-233581Y-50220D01*
X-233592Y-50204D01*
Y-50199D01*
X-233674Y-50002D01*
X-233767Y-49816D01*
X-233865Y-49647D01*
X-233914Y-49565D01*
X-233958Y-49494D01*
X-234002Y-49429D01*
X-234045Y-49369D01*
X-234078Y-49314D01*
X-234111Y-49270D01*
X-234138Y-49232D01*
X-234160Y-49205D01*
X-234171Y-49188D01*
X-234176Y-49183D01*
X-233396D01*
D02*
G37*
%LPD*%
G36*
X-235006Y-27185D02*
X-234864Y-27196D01*
X-234744Y-27212D01*
X-234641Y-27228D01*
X-234597Y-27239D01*
X-234564Y-27250D01*
X-234531Y-27261D01*
X-234504Y-27266D01*
X-234488Y-27272D01*
X-234471Y-27277D01*
X-234466Y-27283D01*
X-234460D01*
X-234373Y-27327D01*
X-234296Y-27381D01*
X-234231Y-27441D01*
X-234176Y-27496D01*
X-234133Y-27550D01*
X-234100Y-27594D01*
X-234078Y-27621D01*
X-234073Y-27627D01*
Y-27632D01*
X-234023Y-27725D01*
X-233991Y-27812D01*
X-233963Y-27900D01*
X-233947Y-27982D01*
X-233936Y-28053D01*
X-233931Y-28102D01*
Y-28151D01*
X-233936Y-28249D01*
X-233952Y-28342D01*
X-233974Y-28424D01*
X-234002Y-28490D01*
X-234023Y-28544D01*
X-234045Y-28588D01*
X-234062Y-28610D01*
X-234067Y-28621D01*
X-234122Y-28686D01*
X-234187Y-28741D01*
X-234247Y-28784D01*
X-234307Y-28817D01*
X-234362Y-28844D01*
X-234411Y-28861D01*
X-234438Y-28866D01*
X-234449Y-28872D01*
X-234482Y-28877D01*
X-234526Y-28883D01*
X-234624Y-28888D01*
X-234733Y-28899D01*
X-234842D01*
X-234941Y-28905D01*
X-234984D01*
X-235028D01*
X-235061D01*
X-235083D01*
X-235099D01*
X-235105D01*
X-237130D01*
Y-27179D01*
X-235170D01*
X-235006Y-27185D01*
D02*
G37*
G36*
X-235814Y-30979D02*
X-235645Y-30996D01*
X-235492Y-31018D01*
X-235345Y-31050D01*
X-235208Y-31089D01*
X-235088Y-31127D01*
X-234974Y-31176D01*
X-234875Y-31220D01*
X-234783Y-31263D01*
X-234706Y-31307D01*
X-234641Y-31351D01*
X-234586Y-31389D01*
X-234542Y-31422D01*
X-234515Y-31443D01*
X-234493Y-31460D01*
X-234488Y-31465D01*
X-234395Y-31558D01*
X-234313Y-31656D01*
X-234247Y-31760D01*
X-234187Y-31864D01*
X-234133Y-31968D01*
X-234089Y-32071D01*
X-234056Y-32170D01*
X-234029Y-32268D01*
X-234007Y-32355D01*
X-233991Y-32443D01*
X-233980Y-32514D01*
X-233974Y-32579D01*
X-233969Y-32634D01*
X-233963Y-32672D01*
Y-32705D01*
X-233969Y-32841D01*
X-233985Y-32967D01*
X-234013Y-33092D01*
X-234045Y-33207D01*
X-234084Y-33316D01*
X-234127Y-33415D01*
X-234176Y-33513D01*
X-234226Y-33595D01*
X-234269Y-33671D01*
X-234318Y-33737D01*
X-234362Y-33797D01*
X-234400Y-33846D01*
X-234433Y-33884D01*
X-234460Y-33911D01*
X-234477Y-33928D01*
X-234482Y-33933D01*
X-234586Y-34021D01*
X-234695Y-34091D01*
X-234810Y-34157D01*
X-234930Y-34212D01*
X-235050Y-34261D01*
X-235165Y-34299D01*
X-235285Y-34332D01*
X-235399Y-34359D01*
X-235503Y-34381D01*
X-235601Y-34392D01*
X-235689Y-34403D01*
X-235765Y-34414D01*
X-235831D01*
X-235880Y-34419D01*
X-235907D01*
X-235918D01*
X-236126Y-34414D01*
X-236317Y-34397D01*
X-236491Y-34370D01*
X-236650Y-34337D01*
X-236797Y-34299D01*
X-236928Y-34261D01*
X-237048Y-34212D01*
X-237158Y-34163D01*
X-237245Y-34119D01*
X-237327Y-34070D01*
X-237392Y-34031D01*
X-237447Y-33988D01*
X-237485Y-33961D01*
X-237518Y-33933D01*
X-237534Y-33917D01*
X-237540Y-33911D01*
X-237627Y-33813D01*
X-237704Y-33709D01*
X-237769Y-33606D01*
X-237824Y-33502D01*
X-237873Y-33404D01*
X-237911Y-33300D01*
X-237944Y-33202D01*
X-237971Y-33109D01*
X-237987Y-33021D01*
X-238004Y-32945D01*
X-238015Y-32874D01*
X-238026Y-32814D01*
Y-32759D01*
X-238031Y-32726D01*
Y-32601D01*
X-238020Y-32508D01*
X-237993Y-32339D01*
X-237949Y-32186D01*
X-237927Y-32120D01*
X-237906Y-32055D01*
X-237878Y-31995D01*
X-237856Y-31946D01*
X-237835Y-31902D01*
X-237813Y-31864D01*
X-237796Y-31831D01*
X-237786Y-31809D01*
X-237780Y-31798D01*
X-237774Y-31793D01*
X-237671Y-31651D01*
X-237556Y-31531D01*
X-237441Y-31427D01*
X-237327Y-31340D01*
X-237223Y-31274D01*
X-237179Y-31247D01*
X-237141Y-31225D01*
X-237108Y-31209D01*
X-237087Y-31198D01*
X-237070Y-31187D01*
X-237065D01*
X-236885Y-31116D01*
X-236704Y-31061D01*
X-236524Y-31023D01*
X-236355Y-31001D01*
X-236279Y-30990D01*
X-236208Y-30985D01*
X-236147Y-30979D01*
X-236093D01*
X-236049Y-30974D01*
X-236016D01*
X-235995D01*
X-235989D01*
X-235814Y-30979D01*
D02*
G37*
G36*
X-238517Y-41654D02*
Y-39006D01*
X-234559D01*
X-238517Y-41654D01*
D02*
G37*
G36*
X-236049Y-51318D02*
X-235454D01*
Y-49838D01*
X-234509D01*
X-234438Y-49926D01*
X-234378Y-50024D01*
X-234318Y-50128D01*
X-234264Y-50231D01*
X-234220Y-50324D01*
X-234198Y-50362D01*
X-234182Y-50395D01*
X-234171Y-50428D01*
X-234160Y-50450D01*
X-234155Y-50461D01*
Y-50466D01*
X-234100Y-50619D01*
X-234062Y-50772D01*
X-234029Y-50914D01*
X-234013Y-51039D01*
X-234007Y-51099D01*
X-234002Y-51148D01*
X-233996Y-51192D01*
Y-51230D01*
X-233991Y-51263D01*
Y-51307D01*
X-234002Y-51493D01*
X-234023Y-51667D01*
X-234062Y-51826D01*
X-234078Y-51902D01*
X-234100Y-51968D01*
X-234122Y-52028D01*
X-234138Y-52082D01*
X-234160Y-52131D01*
X-234176Y-52175D01*
X-234187Y-52208D01*
X-234198Y-52230D01*
X-234209Y-52246D01*
Y-52251D01*
X-234253Y-52333D01*
X-234302Y-52410D01*
X-234406Y-52541D01*
X-234520Y-52656D01*
X-234630Y-52754D01*
X-234728Y-52825D01*
X-234771Y-52858D01*
X-234804Y-52879D01*
X-234837Y-52901D01*
X-234859Y-52912D01*
X-234875Y-52918D01*
X-234881Y-52923D01*
X-235061Y-53000D01*
X-235252Y-53054D01*
X-235438Y-53098D01*
X-235618Y-53125D01*
X-235700Y-53131D01*
X-235776Y-53141D01*
X-235842Y-53147D01*
X-235902D01*
X-235945Y-53152D01*
X-235984D01*
X-236005D01*
X-236011D01*
X-236213Y-53141D01*
X-236404Y-53120D01*
X-236573Y-53092D01*
X-236655Y-53076D01*
X-236726Y-53054D01*
X-236792Y-53038D01*
X-236852Y-53021D01*
X-236901Y-53005D01*
X-236945Y-52989D01*
X-236983Y-52978D01*
X-237005Y-52967D01*
X-237021Y-52961D01*
X-237027D01*
X-237125Y-52918D01*
X-237218Y-52868D01*
X-237305Y-52814D01*
X-237376Y-52765D01*
X-237436Y-52721D01*
X-237485Y-52683D01*
X-237512Y-52661D01*
X-237523Y-52650D01*
X-237605Y-52568D01*
X-237676Y-52475D01*
X-237742Y-52388D01*
X-237796Y-52301D01*
X-237840Y-52224D01*
X-237867Y-52164D01*
X-237878Y-52142D01*
X-237889Y-52126D01*
X-237895Y-52115D01*
Y-52109D01*
X-237944Y-51978D01*
X-237977Y-51847D01*
X-238004Y-51711D01*
X-238020Y-51591D01*
X-238026Y-51531D01*
X-238031Y-51482D01*
Y-51433D01*
X-238037Y-51394D01*
Y-51318D01*
X-238031Y-51181D01*
X-238015Y-51050D01*
X-237993Y-50936D01*
X-237971Y-50832D01*
X-237944Y-50750D01*
X-237933Y-50712D01*
X-237922Y-50684D01*
X-237911Y-50663D01*
X-237906Y-50646D01*
X-237900Y-50635D01*
Y-50630D01*
X-237845Y-50521D01*
X-237791Y-50422D01*
X-237731Y-50340D01*
X-237676Y-50270D01*
X-237622Y-50220D01*
X-237583Y-50182D01*
X-237556Y-50155D01*
X-237545Y-50149D01*
X-237458Y-50089D01*
X-237360Y-50035D01*
X-237261Y-49986D01*
X-237163Y-49942D01*
X-237076Y-49909D01*
X-237037Y-49898D01*
X-237010Y-49887D01*
X-236983Y-49876D01*
X-236961Y-49871D01*
X-236950Y-49865D01*
X-236945D01*
X-237108Y-49259D01*
X-237289Y-49314D01*
X-237452Y-49374D01*
X-237523Y-49407D01*
X-237594Y-49440D01*
X-237654Y-49467D01*
X-237709Y-49500D01*
X-237764Y-49527D01*
X-237807Y-49554D01*
X-237845Y-49582D01*
X-237878Y-49598D01*
X-237900Y-49620D01*
X-237916Y-49631D01*
X-237927Y-49636D01*
X-237933Y-49642D01*
X-238048Y-49745D01*
X-238146Y-49854D01*
X-238228Y-49969D01*
X-238299Y-50084D01*
X-238353Y-50182D01*
X-238375Y-50226D01*
X-238391Y-50264D01*
X-238408Y-50291D01*
X-238419Y-50313D01*
X-238424Y-50330D01*
Y-50335D01*
X-238484Y-50504D01*
X-238528Y-50674D01*
X-238561Y-50843D01*
X-238583Y-50996D01*
X-238588Y-51067D01*
X-238594Y-51127D01*
X-238599Y-51181D01*
X-238604Y-51230D01*
Y-49183D01*
X-236049D01*
Y-51318D01*
D02*
G37*
%LPC*%
G36*
X-233826Y-122734D02*
Y-124394D01*
X-238271D01*
Y-122734D01*
X-233826D01*
X-238866D01*
Y-126720D01*
X-238271D01*
Y-125060D01*
X-233826D01*
Y-122734D01*
D02*
G37*
G36*
X-233745Y-127452D02*
X-238866D01*
Y-128118D01*
X-235956D01*
X-235787Y-128123D01*
X-235628Y-128129D01*
X-235486Y-128145D01*
X-235355Y-128167D01*
X-235241Y-128189D01*
X-235137Y-128216D01*
X-235044Y-128249D01*
X-234962Y-128276D01*
X-234891Y-128304D01*
X-234831Y-128336D01*
X-234782Y-128364D01*
X-234744Y-128385D01*
X-234716Y-128407D01*
X-234695Y-128418D01*
X-234684Y-128429D01*
X-234678Y-128435D01*
X-234618Y-128500D01*
X-234569Y-128571D01*
X-234525Y-128647D01*
X-234487Y-128729D01*
X-234454Y-128817D01*
X-234427Y-128904D01*
X-234389Y-129073D01*
X-234372Y-129155D01*
X-234362Y-129232D01*
X-234356Y-129303D01*
X-234351Y-129363D01*
X-234345Y-129412D01*
Y-129483D01*
X-234351Y-129636D01*
X-234372Y-129778D01*
X-234400Y-129903D01*
X-234427Y-130013D01*
X-234443Y-130056D01*
X-234460Y-130094D01*
X-234471Y-130133D01*
X-234482Y-130160D01*
X-234492Y-130182D01*
X-234504Y-130198D01*
X-234509Y-130209D01*
Y-130215D01*
X-234580Y-130318D01*
X-234656Y-130406D01*
X-234733Y-130477D01*
X-234815Y-130531D01*
X-234880Y-130575D01*
X-234940Y-130608D01*
X-234962Y-130619D01*
X-234979Y-130624D01*
X-234984Y-130629D01*
X-234989D01*
X-235050Y-130651D01*
X-235120Y-130668D01*
X-235273Y-130700D01*
X-235432Y-130722D01*
X-235590Y-130733D01*
X-235661Y-130739D01*
X-235732Y-130744D01*
X-235792D01*
X-235847Y-130750D01*
X-235896D01*
X-235929D01*
X-235950D01*
X-235956D01*
X-238866D01*
Y-131416D01*
X-233745D01*
X-235808D01*
X-235672Y-131405D01*
X-235541Y-131399D01*
X-235421Y-131383D01*
X-235306Y-131372D01*
X-235202Y-131356D01*
X-235109Y-131339D01*
X-235022Y-131317D01*
X-234946Y-131301D01*
X-234880Y-131285D01*
X-234820Y-131268D01*
X-234776Y-131252D01*
X-234738Y-131241D01*
X-234711Y-131230D01*
X-234695Y-131225D01*
X-234689D01*
X-234607Y-131186D01*
X-234525Y-131143D01*
X-234383Y-131044D01*
X-234263Y-130941D01*
X-234165Y-130832D01*
X-234121Y-130782D01*
X-234088Y-130739D01*
X-234056Y-130695D01*
X-234028Y-130657D01*
X-234012Y-130629D01*
X-233996Y-130608D01*
X-233990Y-130591D01*
X-233985Y-130586D01*
X-233941Y-130498D01*
X-233908Y-130406D01*
X-233848Y-130215D01*
X-233805Y-130018D01*
X-233777Y-129832D01*
X-233766Y-129750D01*
X-233755Y-129668D01*
X-233750Y-129603D01*
Y-129543D01*
X-233745Y-129494D01*
Y-129423D01*
X-233750Y-129292D01*
X-233755Y-129166D01*
X-233772Y-129046D01*
X-233788Y-128931D01*
X-233810Y-128828D01*
X-233832Y-128729D01*
X-233859Y-128642D01*
X-233887Y-128566D01*
X-233908Y-128489D01*
X-233936Y-128429D01*
X-233958Y-128375D01*
X-233979Y-128331D01*
X-233996Y-128293D01*
X-234012Y-128271D01*
X-234017Y-128254D01*
X-234023Y-128249D01*
X-234078Y-128167D01*
X-234132Y-128091D01*
X-234192Y-128025D01*
X-234252Y-127960D01*
X-234312Y-127905D01*
X-234378Y-127850D01*
X-234433Y-127807D01*
X-234492Y-127768D01*
X-234591Y-127703D01*
X-234634Y-127681D01*
X-234673Y-127659D01*
X-234705Y-127643D01*
X-234727Y-127632D01*
X-234744Y-127626D01*
X-234749D01*
X-234837Y-127594D01*
X-234929Y-127566D01*
X-235126Y-127523D01*
X-235328Y-127495D01*
X-235519Y-127474D01*
X-235612Y-127468D01*
X-235694Y-127463D01*
X-235765Y-127457D01*
X-235830Y-127452D01*
X-233745D01*
D02*
G37*
G36*
Y-132284D02*
D01*
Y-134697D01*
X-233750Y-134577D01*
X-233755Y-134457D01*
X-233794Y-134228D01*
X-233816Y-134124D01*
X-233843Y-134020D01*
X-233870Y-133927D01*
X-233897Y-133840D01*
X-233925Y-133758D01*
X-233952Y-133687D01*
X-233979Y-133627D01*
X-234001Y-133572D01*
X-234023Y-133529D01*
X-234039Y-133501D01*
X-234045Y-133480D01*
X-234050Y-133474D01*
X-234110Y-133370D01*
X-234181Y-133272D01*
X-234252Y-133179D01*
X-234323Y-133097D01*
X-234400Y-133021D01*
X-234476Y-132945D01*
X-234553Y-132879D01*
X-234624Y-132819D01*
X-234695Y-132770D01*
X-234760Y-132721D01*
X-234820Y-132682D01*
X-234869Y-132650D01*
X-234908Y-132628D01*
X-234940Y-132611D01*
X-234962Y-132600D01*
X-234968Y-132595D01*
X-235082Y-132541D01*
X-235202Y-132491D01*
X-235317Y-132453D01*
X-235437Y-132415D01*
X-235552Y-132382D01*
X-235666Y-132360D01*
X-235776Y-132338D01*
X-235879Y-132322D01*
X-235978Y-132311D01*
X-236065Y-132300D01*
X-236141Y-132295D01*
X-236207Y-132289D01*
X-236262Y-132284D01*
X-236338D01*
X-236480Y-132289D01*
X-236611Y-132295D01*
X-236742Y-132311D01*
X-236868Y-132327D01*
X-236982Y-132349D01*
X-237097Y-132377D01*
X-237201Y-132404D01*
X-237294Y-132431D01*
X-237381Y-132458D01*
X-237457Y-132486D01*
X-237528Y-132508D01*
X-237583Y-132535D01*
X-237627Y-132551D01*
X-237659Y-132568D01*
X-237681Y-132573D01*
X-237687Y-132579D01*
X-237796Y-132639D01*
X-237900Y-132699D01*
X-237998Y-132770D01*
X-238085Y-132835D01*
X-238167Y-132906D01*
X-238244Y-132977D01*
X-238315Y-133048D01*
X-238380Y-133119D01*
X-238435Y-133185D01*
X-238484Y-133245D01*
X-238527Y-133294D01*
X-238560Y-133343D01*
X-238587Y-133381D01*
X-238604Y-133409D01*
X-238615Y-133430D01*
X-238620Y-133436D01*
X-238680Y-133545D01*
X-238730Y-133649D01*
X-238773Y-133758D01*
X-238811Y-133867D01*
X-238844Y-133976D01*
X-238872Y-134080D01*
X-238893Y-134178D01*
X-238910Y-134277D01*
X-238926Y-134364D01*
X-238937Y-134441D01*
X-238942Y-134511D01*
X-238948Y-134577D01*
X-238953Y-134626D01*
Y-134692D01*
X-238948Y-134888D01*
X-238921Y-135074D01*
X-238888Y-135249D01*
X-238844Y-135412D01*
X-238790Y-135571D01*
X-238730Y-135713D01*
X-238664Y-135844D01*
X-238598Y-135964D01*
X-238533Y-136073D01*
X-238467Y-136166D01*
X-238407Y-136242D01*
X-238353Y-136313D01*
X-238309Y-136362D01*
X-238276Y-136401D01*
X-238249Y-136428D01*
X-238244Y-136433D01*
X-238107Y-136554D01*
X-237954Y-136657D01*
X-237801Y-136745D01*
X-237637Y-136821D01*
X-237474Y-136887D01*
X-237310Y-136941D01*
X-237152Y-136985D01*
X-236993Y-137023D01*
X-236846Y-137050D01*
X-236715Y-137067D01*
X-236589Y-137083D01*
X-236485Y-137094D01*
X-236398Y-137100D01*
X-236365D01*
X-236333Y-137105D01*
X-238953D01*
D01*
X-233745D01*
Y-132284D01*
D02*
G37*
G36*
X-235339Y-137662D02*
X-235961D01*
Y-139567D01*
X-235339D01*
Y-137662D01*
D02*
G37*
G36*
X-233826Y-139775D02*
X-238866Y-141839D01*
Y-139775D01*
D01*
Y-144487D01*
X-233826D01*
X-238866D01*
Y-142560D01*
X-233826Y-144487D01*
Y-143783D01*
X-235350Y-143237D01*
Y-141118D01*
X-233826Y-140534D01*
Y-139775D01*
D02*
G37*
G36*
Y-144858D02*
D01*
Y-147206D01*
X-233832Y-147042D01*
X-233837Y-146889D01*
X-233854Y-146753D01*
X-233870Y-146633D01*
X-233876Y-146584D01*
X-233881Y-146540D01*
X-233892Y-146496D01*
X-233897Y-146463D01*
X-233903Y-146436D01*
Y-146420D01*
X-233908Y-146409D01*
Y-146403D01*
X-233946Y-146278D01*
X-233985Y-146158D01*
X-234028Y-146054D01*
X-234067Y-145967D01*
X-234105Y-145896D01*
X-234132Y-145841D01*
X-234154Y-145808D01*
X-234159Y-145803D01*
Y-145797D01*
X-234230Y-145704D01*
X-234301Y-145617D01*
X-234378Y-145541D01*
X-234454Y-145475D01*
X-234520Y-145415D01*
X-234569Y-145377D01*
X-234591Y-145361D01*
X-234607Y-145350D01*
X-234613Y-145339D01*
X-234618D01*
X-234733Y-145262D01*
X-234853Y-145197D01*
X-234979Y-145137D01*
X-235093Y-145088D01*
X-235197Y-145049D01*
X-235241Y-145033D01*
X-235279Y-145017D01*
X-235306Y-145011D01*
X-235328Y-145000D01*
X-235344Y-144995D01*
X-235350D01*
X-235525Y-144951D01*
X-235699Y-144918D01*
X-235869Y-144891D01*
X-236027Y-144875D01*
X-236098Y-144869D01*
X-236163Y-144864D01*
X-236223D01*
X-236273Y-144858D01*
X-236371D01*
X-236616Y-144869D01*
X-236731Y-144875D01*
X-236840Y-144891D01*
X-236944Y-144907D01*
X-237042Y-144924D01*
X-237135Y-144940D01*
X-237223Y-144957D01*
X-237299Y-144978D01*
X-237365Y-144995D01*
X-237425Y-145011D01*
X-237474Y-145027D01*
X-237512Y-145044D01*
X-237545Y-145049D01*
X-237561Y-145060D01*
X-237566D01*
X-237752Y-145142D01*
X-237921Y-145235D01*
X-237998Y-145284D01*
X-238069Y-145333D01*
X-238134Y-145382D01*
X-238194Y-145431D01*
X-238249Y-145475D01*
X-238293Y-145519D01*
X-238336Y-145557D01*
X-238369Y-145590D01*
X-238396Y-145617D01*
X-238413Y-145639D01*
X-238424Y-145650D01*
X-238429Y-145655D01*
X-238522Y-145775D01*
X-238598Y-145901D01*
X-238658Y-146021D01*
X-238708Y-146136D01*
X-238746Y-146240D01*
X-238757Y-146283D01*
X-238768Y-146321D01*
X-238779Y-146349D01*
X-238784Y-146371D01*
X-238790Y-146387D01*
Y-146393D01*
X-238801Y-146452D01*
X-238817Y-146518D01*
X-238833Y-146666D01*
X-238850Y-146813D01*
X-238855Y-146960D01*
X-238861Y-147026D01*
Y-147091D01*
X-238866Y-147146D01*
Y-149024D01*
X-233826D01*
Y-144858D01*
D02*
G37*
G36*
Y-149554D02*
X-238866Y-151618D01*
Y-150897D01*
Y-151618D01*
Y-152338D01*
X-233826Y-154266D01*
X-238866D01*
D01*
X-233826D01*
Y-153561D01*
X-235350Y-153015D01*
Y-150897D01*
X-233826Y-150313D01*
Y-149554D01*
D02*
G37*
%LPD*%
G36*
X-236163Y-132977D02*
X-235994Y-132994D01*
X-235841Y-133016D01*
X-235694Y-133048D01*
X-235557Y-133086D01*
X-235437Y-133125D01*
X-235322Y-133174D01*
X-235224Y-133218D01*
X-235131Y-133261D01*
X-235055Y-133305D01*
X-234989Y-133349D01*
X-234935Y-133387D01*
X-234891Y-133420D01*
X-234864Y-133441D01*
X-234842Y-133458D01*
X-234837Y-133463D01*
X-234744Y-133556D01*
X-234662Y-133654D01*
X-234596Y-133758D01*
X-234536Y-133862D01*
X-234482Y-133966D01*
X-234438Y-134069D01*
X-234405Y-134168D01*
X-234378Y-134266D01*
X-234356Y-134353D01*
X-234340Y-134441D01*
X-234329Y-134511D01*
X-234323Y-134577D01*
X-234318Y-134632D01*
X-234312Y-134670D01*
Y-134703D01*
X-234318Y-134839D01*
X-234334Y-134965D01*
X-234362Y-135090D01*
X-234394Y-135205D01*
X-234433Y-135314D01*
X-234476Y-135412D01*
X-234525Y-135511D01*
X-234574Y-135593D01*
X-234618Y-135669D01*
X-234667Y-135734D01*
X-234711Y-135795D01*
X-234749Y-135844D01*
X-234782Y-135882D01*
X-234809Y-135909D01*
X-234826Y-135926D01*
X-234831Y-135931D01*
X-234935Y-136019D01*
X-235044Y-136090D01*
X-235159Y-136155D01*
X-235279Y-136210D01*
X-235399Y-136259D01*
X-235514Y-136297D01*
X-235634Y-136330D01*
X-235748Y-136357D01*
X-235852Y-136379D01*
X-235950Y-136390D01*
X-236038Y-136401D01*
X-236114Y-136412D01*
X-236180D01*
X-236229Y-136417D01*
X-236256D01*
X-236267D01*
X-236474Y-136412D01*
X-236666Y-136395D01*
X-236840Y-136368D01*
X-236999Y-136335D01*
X-237146Y-136297D01*
X-237277Y-136259D01*
X-237397Y-136210D01*
X-237507Y-136160D01*
X-237594Y-136117D01*
X-237676Y-136068D01*
X-237741Y-136029D01*
X-237796Y-135986D01*
X-237834Y-135958D01*
X-237867Y-135931D01*
X-237883Y-135915D01*
X-237889Y-135909D01*
X-237976Y-135811D01*
X-238053Y-135707D01*
X-238118Y-135603D01*
X-238173Y-135500D01*
X-238222Y-135401D01*
X-238260Y-135298D01*
X-238293Y-135199D01*
X-238320Y-135107D01*
X-238336Y-135019D01*
X-238353Y-134943D01*
X-238364Y-134872D01*
X-238375Y-134812D01*
Y-134757D01*
X-238380Y-134724D01*
Y-134599D01*
X-238369Y-134506D01*
X-238342Y-134337D01*
X-238298Y-134184D01*
X-238276Y-134118D01*
X-238254Y-134053D01*
X-238227Y-133993D01*
X-238205Y-133944D01*
X-238183Y-133900D01*
X-238162Y-133862D01*
X-238145Y-133829D01*
X-238134Y-133807D01*
X-238129Y-133796D01*
X-238123Y-133791D01*
X-238020Y-133649D01*
X-237905Y-133529D01*
X-237790Y-133425D01*
X-237676Y-133338D01*
X-237572Y-133272D01*
X-237528Y-133245D01*
X-237490Y-133223D01*
X-237457Y-133207D01*
X-237436Y-133196D01*
X-237419Y-133185D01*
X-237414D01*
X-237233Y-133114D01*
X-237053Y-133059D01*
X-236873Y-133021D01*
X-236704Y-132999D01*
X-236627Y-132988D01*
X-236556Y-132983D01*
X-236496Y-132977D01*
X-236442D01*
X-236398Y-132972D01*
X-236365D01*
X-236344D01*
X-236338D01*
X-236163Y-132977D01*
D02*
G37*
G36*
X-233745Y-137105D02*
X-236278D01*
X-236158Y-137100D01*
X-236032Y-137094D01*
X-235803Y-137061D01*
X-235694Y-137039D01*
X-235590Y-137018D01*
X-235492Y-136990D01*
X-235404Y-136963D01*
X-235317Y-136936D01*
X-235246Y-136908D01*
X-235180Y-136887D01*
X-235126Y-136865D01*
X-235082Y-136848D01*
X-235050Y-136832D01*
X-235028Y-136827D01*
X-235022Y-136821D01*
X-234913Y-136761D01*
X-234809Y-136701D01*
X-234716Y-136635D01*
X-234624Y-136565D01*
X-234542Y-136494D01*
X-234465Y-136423D01*
X-234394Y-136357D01*
X-234329Y-136286D01*
X-234274Y-136221D01*
X-234225Y-136160D01*
X-234181Y-136106D01*
X-234149Y-136062D01*
X-234121Y-136024D01*
X-234099Y-135991D01*
X-234088Y-135975D01*
X-234083Y-135969D01*
X-234023Y-135860D01*
X-233974Y-135751D01*
X-233925Y-135642D01*
X-233887Y-135532D01*
X-233854Y-135423D01*
X-233826Y-135320D01*
X-233805Y-135216D01*
X-233788Y-135123D01*
X-233772Y-135030D01*
X-233761Y-134954D01*
X-233755Y-134877D01*
X-233750Y-134817D01*
X-233745Y-134768D01*
Y-137105D01*
D02*
G37*
G36*
X-235890Y-143045D02*
X-237370Y-142489D01*
X-237550Y-142429D01*
X-237725Y-142374D01*
X-237889Y-142325D01*
X-237965Y-142303D01*
X-238036Y-142287D01*
X-238102Y-142270D01*
X-238162Y-142254D01*
X-238211Y-142243D01*
X-238260Y-142232D01*
X-238293Y-142227D01*
X-238320Y-142221D01*
X-238336Y-142216D01*
X-238342D01*
X-238178Y-142166D01*
X-238003Y-142106D01*
X-237829Y-142046D01*
X-237659Y-141992D01*
X-237583Y-141964D01*
X-237512Y-141937D01*
X-237446Y-141915D01*
X-237397Y-141893D01*
X-237348Y-141877D01*
X-237315Y-141866D01*
X-237294Y-141855D01*
X-237288D01*
X-235890Y-141326D01*
Y-143045D01*
D02*
G37*
G36*
X-236174Y-145552D02*
X-235989Y-145568D01*
X-235901Y-145579D01*
X-235825Y-145590D01*
X-235748Y-145601D01*
X-235683Y-145612D01*
X-235623Y-145628D01*
X-235568Y-145639D01*
X-235519Y-145650D01*
X-235481Y-145661D01*
X-235448Y-145672D01*
X-235426Y-145677D01*
X-235415Y-145683D01*
X-235410D01*
X-235268Y-145737D01*
X-235142Y-145797D01*
X-235033Y-145857D01*
X-234940Y-145912D01*
X-234869Y-145967D01*
X-234815Y-146010D01*
X-234782Y-146038D01*
X-234776Y-146043D01*
X-234771Y-146048D01*
X-234711Y-146114D01*
X-234656Y-146191D01*
X-234613Y-146267D01*
X-234574Y-146338D01*
X-234547Y-146403D01*
X-234525Y-146452D01*
X-234520Y-146474D01*
X-234514Y-146491D01*
X-234509Y-146496D01*
Y-146502D01*
X-234482Y-146616D01*
X-234460Y-146742D01*
X-234443Y-146873D01*
X-234433Y-146999D01*
X-234427Y-147108D01*
Y-147157D01*
X-234422Y-147201D01*
Y-148358D01*
X-238271D01*
Y-147195D01*
X-238265Y-147097D01*
X-238260Y-147004D01*
X-238254Y-146917D01*
X-238249Y-146840D01*
X-238238Y-146769D01*
X-238227Y-146704D01*
X-238222Y-146649D01*
X-238211Y-146600D01*
X-238200Y-146556D01*
X-238189Y-146523D01*
X-238183Y-146491D01*
X-238178Y-146469D01*
X-238173Y-146452D01*
X-238167Y-146447D01*
Y-146442D01*
X-238134Y-146371D01*
X-238102Y-146305D01*
X-238014Y-146185D01*
X-237921Y-146076D01*
X-237823Y-145983D01*
X-237736Y-145912D01*
X-237698Y-145879D01*
X-237665Y-145857D01*
X-237632Y-145835D01*
X-237610Y-145819D01*
X-237599Y-145814D01*
X-237594Y-145808D01*
X-237512Y-145765D01*
X-237419Y-145721D01*
X-237228Y-145655D01*
X-237026Y-145612D01*
X-236829Y-145579D01*
X-236737Y-145568D01*
X-236655Y-145557D01*
X-236578Y-145552D01*
X-236513D01*
X-236458Y-145546D01*
X-236415D01*
X-236393D01*
X-236382D01*
X-236174Y-145552D01*
D02*
G37*
G36*
X-235890Y-152824D02*
X-237370Y-152267D01*
X-237550Y-152207D01*
X-237725Y-152153D01*
X-237889Y-152104D01*
X-237965Y-152082D01*
X-238036Y-152065D01*
X-238102Y-152049D01*
X-238162Y-152033D01*
X-238211Y-152022D01*
X-238260Y-152011D01*
X-238293Y-152005D01*
X-238320Y-152000D01*
X-238336Y-151994D01*
X-238342D01*
X-238178Y-151945D01*
X-238003Y-151885D01*
X-237829Y-151825D01*
X-237659Y-151771D01*
X-237583Y-151743D01*
X-237512Y-151716D01*
X-237446Y-151694D01*
X-237397Y-151672D01*
X-237348Y-151656D01*
X-237315Y-151645D01*
X-237294Y-151634D01*
X-237288D01*
X-235890Y-151104D01*
Y-152824D01*
D02*
G37*
%LPC*%
G36*
X-50018Y-116313D02*
X-50024D01*
X-50035Y-116319D01*
X-50056Y-116324D01*
X-50084Y-116335D01*
X-50117Y-116351D01*
X-50160Y-116362D01*
X-50215Y-116379D01*
X-50270Y-116395D01*
X-50340Y-116412D01*
X-50417Y-116433D01*
X-50499Y-116450D01*
X-50592Y-116472D01*
X-50690Y-116493D01*
X-50794Y-116510D01*
X-50908Y-116532D01*
X-51034Y-116548D01*
X-51050D01*
X-51072Y-116553D01*
X-51094Y-116559D01*
X-51165Y-116570D01*
X-51247Y-116586D01*
X-51334Y-116603D01*
X-51421Y-116624D01*
X-51503Y-116646D01*
X-51574Y-116674D01*
X-51580Y-116679D01*
X-51602Y-116684D01*
X-51629Y-116701D01*
X-51662Y-116723D01*
X-51705Y-116755D01*
X-51744Y-116788D01*
X-51782Y-116826D01*
X-51820Y-116876D01*
X-51826Y-116881D01*
X-51831Y-116897D01*
X-51847Y-116925D01*
X-51858Y-116963D01*
X-51875Y-117007D01*
X-51891Y-117056D01*
X-51897Y-117110D01*
X-51902Y-117171D01*
Y-117181D01*
X-51897Y-117209D01*
X-51891Y-117258D01*
X-51880Y-117312D01*
X-51858Y-117378D01*
X-51826Y-117449D01*
X-51776Y-117515D01*
X-51716Y-117580D01*
X-51705Y-117585D01*
X-51684Y-117607D01*
X-51640Y-117629D01*
X-51580Y-117662D01*
X-51503Y-117689D01*
X-51405Y-117717D01*
X-51296Y-117738D01*
X-51170Y-117744D01*
X-51110D01*
X-51078Y-117738D01*
X-51039Y-117733D01*
X-50957Y-117722D01*
X-50854Y-117706D01*
X-50750Y-117678D01*
X-50641Y-117640D01*
X-50532Y-117591D01*
X-50526D01*
X-50521Y-117585D01*
X-50488Y-117564D01*
X-50439Y-117525D01*
X-50373Y-117476D01*
X-50308Y-117416D01*
X-50242Y-117340D01*
X-50177Y-117258D01*
X-50122Y-117160D01*
X-50117Y-117149D01*
X-50106Y-117121D01*
X-50089Y-117072D01*
X-50073Y-117007D01*
X-50056Y-116919D01*
X-50040Y-116810D01*
X-50029Y-116684D01*
X-50024Y-116543D01*
X-50018Y-116313D01*
D02*
G37*
G36*
X-61031Y-114921D02*
X-61075D01*
X-61102Y-114926D01*
X-61140Y-114932D01*
X-61178Y-114937D01*
X-61282Y-114959D01*
X-61392Y-114992D01*
X-61517Y-115041D01*
X-61577Y-115074D01*
X-61637Y-115112D01*
X-61697Y-115161D01*
X-61752Y-115210D01*
X-61757Y-115216D01*
X-61763Y-115221D01*
X-61779Y-115238D01*
X-61796Y-115260D01*
X-61817Y-115292D01*
X-61845Y-115325D01*
X-61872Y-115363D01*
X-61899Y-115412D01*
X-61927Y-115462D01*
X-61954Y-115522D01*
X-62009Y-115653D01*
X-62047Y-115800D01*
X-62058Y-115882D01*
X-62068Y-115969D01*
X-60027D01*
Y-115964D01*
Y-115947D01*
X-60032Y-115926D01*
X-60037Y-115893D01*
X-60043Y-115855D01*
X-60048Y-115811D01*
X-60070Y-115713D01*
X-60103Y-115598D01*
X-60141Y-115483D01*
X-60196Y-115374D01*
X-60261Y-115281D01*
X-60267Y-115276D01*
X-60272Y-115265D01*
X-60294Y-115249D01*
X-60316Y-115227D01*
X-60343Y-115199D01*
X-60381Y-115167D01*
X-60425Y-115134D01*
X-60469Y-115101D01*
X-60523Y-115068D01*
X-60583Y-115036D01*
X-60714Y-114976D01*
X-60785Y-114954D01*
X-60862Y-114937D01*
X-60944Y-114926D01*
X-61031Y-114921D01*
D02*
G37*
G36*
X-62983Y-121028D02*
X-63021D01*
X-63049Y-121034D01*
X-63081Y-121039D01*
X-63125Y-121050D01*
X-63218Y-121072D01*
X-63327Y-121121D01*
X-63382Y-121149D01*
X-63442Y-121187D01*
X-63502Y-121225D01*
X-63562Y-121280D01*
X-63622Y-121334D01*
X-63682Y-121400D01*
X-63687Y-121405D01*
X-63693Y-121416D01*
X-63709Y-121438D01*
X-63731Y-121471D01*
X-63753Y-121509D01*
X-63775Y-121553D01*
X-63802Y-121607D01*
X-63829Y-121673D01*
X-63862Y-121744D01*
X-63889Y-121826D01*
X-63911Y-121913D01*
X-63933Y-122011D01*
X-63955Y-122115D01*
X-63971Y-122224D01*
X-63977Y-122344D01*
X-63982Y-122475D01*
Y-122481D01*
Y-122508D01*
Y-122541D01*
X-63977Y-122590D01*
X-63971Y-122650D01*
X-63966Y-122716D01*
X-63960Y-122792D01*
X-63944Y-122869D01*
X-63911Y-123038D01*
X-63862Y-123213D01*
X-63829Y-123294D01*
X-63791Y-123376D01*
X-63748Y-123453D01*
X-63698Y-123518D01*
X-63693Y-123524D01*
X-63687Y-123535D01*
X-63671Y-123551D01*
X-63649Y-123567D01*
X-63622Y-123595D01*
X-63589Y-123622D01*
X-63507Y-123682D01*
X-63403Y-123748D01*
X-63289Y-123797D01*
X-63223Y-123819D01*
X-63158Y-123835D01*
X-63087Y-123846D01*
X-63010Y-123851D01*
X-62972D01*
X-62939Y-123846D01*
X-62907Y-123840D01*
X-62863Y-123835D01*
X-62765Y-123808D01*
X-62656Y-123769D01*
X-62595Y-123737D01*
X-62535Y-123704D01*
X-62475Y-123666D01*
X-62415Y-123622D01*
X-62355Y-123567D01*
X-62301Y-123507D01*
X-62295Y-123502D01*
X-62290Y-123491D01*
X-62273Y-123469D01*
X-62257Y-123442D01*
X-62230Y-123404D01*
X-62208Y-123360D01*
X-62180Y-123305D01*
X-62153Y-123240D01*
X-62126Y-123169D01*
X-62099Y-123092D01*
X-62071Y-123000D01*
X-62049Y-122901D01*
X-62033Y-122798D01*
X-62017Y-122683D01*
X-62011Y-122557D01*
X-62006Y-122426D01*
Y-122421D01*
Y-122394D01*
Y-122361D01*
X-62011Y-122312D01*
X-62017Y-122252D01*
X-62022Y-122186D01*
X-62028Y-122115D01*
X-62044Y-122033D01*
X-62077Y-121864D01*
X-62126Y-121689D01*
X-62159Y-121602D01*
X-62197Y-121525D01*
X-62246Y-121449D01*
X-62295Y-121378D01*
X-62301Y-121372D01*
X-62306Y-121362D01*
X-62322Y-121345D01*
X-62344Y-121323D01*
X-62372Y-121296D01*
X-62410Y-121269D01*
X-62492Y-121203D01*
X-62590Y-121138D01*
X-62705Y-121083D01*
X-62770Y-121061D01*
X-62841Y-121045D01*
X-62912Y-121034D01*
X-62983Y-121028D01*
D02*
G37*
G36*
X-52030Y-122443D02*
X-52036D01*
X-52047Y-122448D01*
X-52069Y-122454D01*
X-52096Y-122465D01*
X-52129Y-122481D01*
X-52172Y-122492D01*
X-52227Y-122508D01*
X-52281Y-122525D01*
X-52352Y-122541D01*
X-52429Y-122563D01*
X-52511Y-122579D01*
X-52604Y-122601D01*
X-52702Y-122623D01*
X-52806Y-122639D01*
X-52920Y-122661D01*
X-53046Y-122677D01*
X-53062D01*
X-53084Y-122683D01*
X-53106Y-122688D01*
X-53177Y-122699D01*
X-53259Y-122716D01*
X-53346Y-122732D01*
X-53434Y-122754D01*
X-53515Y-122776D01*
X-53586Y-122803D01*
X-53592Y-122809D01*
X-53614Y-122814D01*
X-53641Y-122830D01*
X-53674Y-122852D01*
X-53717Y-122885D01*
X-53756Y-122918D01*
X-53794Y-122956D01*
X-53832Y-123005D01*
X-53838Y-123011D01*
X-53843Y-123027D01*
X-53859Y-123054D01*
X-53870Y-123092D01*
X-53887Y-123136D01*
X-53903Y-123185D01*
X-53909Y-123240D01*
X-53914Y-123300D01*
Y-123311D01*
X-53909Y-123338D01*
X-53903Y-123387D01*
X-53892Y-123442D01*
X-53870Y-123507D01*
X-53838Y-123578D01*
X-53788Y-123644D01*
X-53728Y-123709D01*
X-53717Y-123715D01*
X-53696Y-123737D01*
X-53652Y-123758D01*
X-53592Y-123791D01*
X-53515Y-123819D01*
X-53417Y-123846D01*
X-53308Y-123868D01*
X-53182Y-123873D01*
X-53122D01*
X-53089Y-123868D01*
X-53051Y-123862D01*
X-52969Y-123851D01*
X-52866Y-123835D01*
X-52762Y-123808D01*
X-52653Y-123769D01*
X-52544Y-123720D01*
X-52538D01*
X-52533Y-123715D01*
X-52500Y-123693D01*
X-52451Y-123655D01*
X-52385Y-123606D01*
X-52320Y-123546D01*
X-52254Y-123469D01*
X-52189Y-123387D01*
X-52134Y-123289D01*
X-52129Y-123278D01*
X-52118Y-123251D01*
X-52101Y-123202D01*
X-52085Y-123136D01*
X-52069Y-123049D01*
X-52052Y-122940D01*
X-52041Y-122814D01*
X-52036Y-122672D01*
X-52030Y-122443D01*
D02*
G37*
G36*
X-40745Y-121050D02*
X-40788D01*
X-40815Y-121056D01*
X-40854Y-121061D01*
X-40892Y-121067D01*
X-40996Y-121089D01*
X-41105Y-121121D01*
X-41230Y-121170D01*
X-41291Y-121203D01*
X-41350Y-121241D01*
X-41411Y-121291D01*
X-41465Y-121340D01*
X-41471Y-121345D01*
X-41476Y-121351D01*
X-41493Y-121367D01*
X-41509Y-121389D01*
X-41531Y-121422D01*
X-41558Y-121454D01*
X-41585Y-121493D01*
X-41613Y-121542D01*
X-41640Y-121591D01*
X-41667Y-121651D01*
X-41722Y-121782D01*
X-41760Y-121929D01*
X-41771Y-122011D01*
X-41782Y-122099D01*
X-39740D01*
Y-122093D01*
Y-122077D01*
X-39745Y-122055D01*
X-39751Y-122022D01*
X-39756Y-121984D01*
X-39762Y-121940D01*
X-39783Y-121842D01*
X-39816Y-121727D01*
X-39854Y-121613D01*
X-39909Y-121503D01*
X-39975Y-121411D01*
X-39980Y-121405D01*
X-39986Y-121394D01*
X-40007Y-121378D01*
X-40029Y-121356D01*
X-40056Y-121329D01*
X-40095Y-121296D01*
X-40138Y-121263D01*
X-40182Y-121230D01*
X-40237Y-121198D01*
X-40297Y-121165D01*
X-40428Y-121105D01*
X-40499Y-121083D01*
X-40575Y-121067D01*
X-40657Y-121056D01*
X-40745Y-121050D01*
D02*
G37*
G36*
X-59128D02*
X-59172D01*
X-59199Y-121056D01*
X-59237Y-121061D01*
X-59276Y-121067D01*
X-59380Y-121089D01*
X-59489Y-121121D01*
X-59614Y-121170D01*
X-59674Y-121203D01*
X-59734Y-121241D01*
X-59794Y-121291D01*
X-59849Y-121340D01*
X-59855Y-121345D01*
X-59860Y-121351D01*
X-59876Y-121367D01*
X-59893Y-121389D01*
X-59914Y-121422D01*
X-59942Y-121454D01*
X-59969Y-121493D01*
X-59996Y-121542D01*
X-60024Y-121591D01*
X-60051Y-121651D01*
X-60106Y-121782D01*
X-60144Y-121929D01*
X-60155Y-122011D01*
X-60166Y-122099D01*
X-58124D01*
Y-122093D01*
Y-122077D01*
X-58129Y-122055D01*
X-58135Y-122022D01*
X-58140Y-121984D01*
X-58145Y-121940D01*
X-58167Y-121842D01*
X-58200Y-121727D01*
X-58238Y-121613D01*
X-58293Y-121503D01*
X-58359Y-121411D01*
X-58364Y-121405D01*
X-58369Y-121394D01*
X-58391Y-121378D01*
X-58413Y-121356D01*
X-58440Y-121329D01*
X-58479Y-121296D01*
X-58522Y-121263D01*
X-58566Y-121230D01*
X-58621Y-121198D01*
X-58681Y-121165D01*
X-58812Y-121105D01*
X-58883Y-121083D01*
X-58959Y-121067D01*
X-59041Y-121056D01*
X-59128Y-121050D01*
D02*
G37*
G36*
X-72822D02*
X-72866D01*
X-72893Y-121056D01*
X-72931Y-121061D01*
X-72969Y-121067D01*
X-73073Y-121089D01*
X-73182Y-121121D01*
X-73308Y-121170D01*
X-73368Y-121203D01*
X-73428Y-121241D01*
X-73488Y-121291D01*
X-73543Y-121340D01*
X-73548Y-121345D01*
X-73554Y-121351D01*
X-73570Y-121367D01*
X-73586Y-121389D01*
X-73608Y-121422D01*
X-73636Y-121454D01*
X-73663Y-121493D01*
X-73690Y-121542D01*
X-73717Y-121591D01*
X-73745Y-121651D01*
X-73799Y-121782D01*
X-73838Y-121929D01*
X-73848Y-122011D01*
X-73859Y-122099D01*
X-71817D01*
Y-122093D01*
Y-122077D01*
X-71823Y-122055D01*
X-71828Y-122022D01*
X-71834Y-121984D01*
X-71839Y-121940D01*
X-71861Y-121842D01*
X-71894Y-121727D01*
X-71932Y-121613D01*
X-71987Y-121503D01*
X-72052Y-121411D01*
X-72058Y-121405D01*
X-72063Y-121394D01*
X-72085Y-121378D01*
X-72107Y-121356D01*
X-72134Y-121329D01*
X-72172Y-121296D01*
X-72216Y-121263D01*
X-72260Y-121230D01*
X-72314Y-121198D01*
X-72374Y-121165D01*
X-72505Y-121105D01*
X-72576Y-121083D01*
X-72653Y-121067D01*
X-72735Y-121056D01*
X-72822Y-121050D01*
D02*
G37*
G36*
X-52372Y-128588D02*
X-52415D01*
X-52448Y-128594D01*
X-52486Y-128599D01*
X-52535Y-128605D01*
X-52639Y-128632D01*
X-52765Y-128676D01*
X-52825Y-128703D01*
X-52890Y-128736D01*
X-52956Y-128774D01*
X-53021Y-128823D01*
X-53081Y-128878D01*
X-53141Y-128938D01*
X-53147Y-128943D01*
X-53152Y-128954D01*
X-53169Y-128976D01*
X-53191Y-129003D01*
X-53212Y-129042D01*
X-53240Y-129085D01*
X-53267Y-129140D01*
X-53294Y-129200D01*
X-53322Y-129271D01*
X-53349Y-129347D01*
X-53376Y-129435D01*
X-53398Y-129528D01*
X-53420Y-129631D01*
X-53436Y-129741D01*
X-53442Y-129861D01*
X-53447Y-129986D01*
Y-129992D01*
Y-130019D01*
Y-130052D01*
X-53442Y-130101D01*
X-53436Y-130161D01*
X-53431Y-130226D01*
X-53420Y-130303D01*
X-53409Y-130379D01*
X-53371Y-130554D01*
X-53316Y-130729D01*
X-53283Y-130811D01*
X-53240Y-130893D01*
X-53196Y-130969D01*
X-53141Y-131040D01*
X-53136Y-131045D01*
X-53125Y-131056D01*
X-53109Y-131073D01*
X-53087Y-131095D01*
X-53054Y-131122D01*
X-53021Y-131149D01*
X-52978Y-131182D01*
X-52929Y-131209D01*
X-52819Y-131275D01*
X-52688Y-131329D01*
X-52617Y-131351D01*
X-52535Y-131368D01*
X-52459Y-131378D01*
X-52372Y-131384D01*
X-52328D01*
X-52295Y-131378D01*
X-52257Y-131373D01*
X-52208Y-131368D01*
X-52104Y-131340D01*
X-51984Y-131297D01*
X-51918Y-131269D01*
X-51853Y-131237D01*
X-51793Y-131198D01*
X-51727Y-131149D01*
X-51667Y-131095D01*
X-51607Y-131035D01*
X-51602Y-131029D01*
X-51596Y-131018D01*
X-51580Y-130996D01*
X-51558Y-130969D01*
X-51536Y-130931D01*
X-51509Y-130887D01*
X-51482Y-130833D01*
X-51449Y-130767D01*
X-51421Y-130701D01*
X-51394Y-130620D01*
X-51367Y-130532D01*
X-51345Y-130434D01*
X-51323Y-130330D01*
X-51307Y-130216D01*
X-51301Y-130095D01*
X-51296Y-129964D01*
Y-129959D01*
Y-129937D01*
Y-129899D01*
X-51301Y-129855D01*
X-51307Y-129795D01*
X-51312Y-129730D01*
X-51323Y-129659D01*
X-51334Y-129582D01*
X-51372Y-129418D01*
X-51394Y-129331D01*
X-51427Y-129244D01*
X-51465Y-129162D01*
X-51503Y-129080D01*
X-51553Y-129009D01*
X-51607Y-128938D01*
X-51613Y-128932D01*
X-51623Y-128921D01*
X-51640Y-128905D01*
X-51662Y-128883D01*
X-51695Y-128856D01*
X-51727Y-128829D01*
X-51771Y-128796D01*
X-51815Y-128763D01*
X-51929Y-128698D01*
X-52060Y-128643D01*
X-52131Y-128621D01*
X-52208Y-128605D01*
X-52290Y-128594D01*
X-52372Y-128588D01*
D02*
G37*
G36*
X-63706Y-128583D02*
X-63750D01*
X-63778Y-128588D01*
X-63816Y-128594D01*
X-63854Y-128599D01*
X-63958Y-128621D01*
X-64067Y-128654D01*
X-64192Y-128703D01*
X-64253Y-128736D01*
X-64313Y-128774D01*
X-64373Y-128823D01*
X-64427Y-128872D01*
X-64433Y-128878D01*
X-64438Y-128883D01*
X-64455Y-128900D01*
X-64471Y-128921D01*
X-64493Y-128954D01*
X-64520Y-128987D01*
X-64547Y-129025D01*
X-64575Y-129074D01*
X-64602Y-129123D01*
X-64629Y-129184D01*
X-64684Y-129315D01*
X-64722Y-129462D01*
X-64733Y-129544D01*
X-64744Y-129631D01*
X-62702D01*
Y-129626D01*
Y-129610D01*
X-62707Y-129588D01*
X-62713Y-129555D01*
X-62718Y-129517D01*
X-62724Y-129473D01*
X-62746Y-129375D01*
X-62778Y-129260D01*
X-62817Y-129145D01*
X-62871Y-129036D01*
X-62937Y-128943D01*
X-62942Y-128938D01*
X-62948Y-128927D01*
X-62969Y-128911D01*
X-62991Y-128889D01*
X-63019Y-128861D01*
X-63057Y-128829D01*
X-63100Y-128796D01*
X-63144Y-128763D01*
X-63199Y-128730D01*
X-63259Y-128698D01*
X-63390Y-128638D01*
X-63461Y-128616D01*
X-63537Y-128599D01*
X-63619Y-128588D01*
X-63706Y-128583D01*
D02*
G37*
G36*
X-135106Y-101879D02*
Y-101900D01*
X-135635D01*
Y-102433D01*
X-135106D01*
Y-101879D01*
D02*
G37*
G36*
D02*
X-138890D01*
Y-102453D01*
X-138050D01*
X-136045Y-102310D01*
Y-102014D01*
X-138050Y-101879D01*
X-135106D01*
D02*
G37*
G36*
Y-104659D02*
X-135553D01*
Y-106984D01*
X-136840D01*
Y-104888D01*
X-137287D01*
Y-106984D01*
X-138443D01*
Y-104745D01*
X-138890D01*
Y-104659D01*
Y-107484D01*
X-135106D01*
Y-104659D01*
D02*
G37*
G36*
X-136143Y-108177D02*
X-136172D01*
X-136283Y-108185D01*
X-136385Y-108201D01*
X-136475Y-108226D01*
X-136553Y-108255D01*
X-136619Y-108287D01*
X-136647Y-108300D01*
X-136668Y-108312D01*
X-136684Y-108320D01*
X-136697Y-108328D01*
X-136705Y-108337D01*
X-136709D01*
X-136750Y-108369D01*
X-136791Y-108402D01*
X-136869Y-108480D01*
X-136934Y-108558D01*
X-136988Y-108640D01*
X-137033Y-108710D01*
X-137053Y-108742D01*
X-137066Y-108771D01*
X-137078Y-108792D01*
X-137086Y-108808D01*
X-137094Y-108820D01*
Y-108825D01*
X-137115Y-108870D01*
X-137135Y-108927D01*
X-137156Y-108984D01*
X-137176Y-109050D01*
X-137213Y-109189D01*
X-137250Y-109329D01*
X-137271Y-109394D01*
X-137283Y-109456D01*
X-137299Y-109513D01*
X-137308Y-109563D01*
X-137320Y-109604D01*
X-137328Y-109632D01*
X-137332Y-109653D01*
Y-109661D01*
X-137357Y-109772D01*
X-137385Y-109870D01*
X-137410Y-109956D01*
X-137435Y-110038D01*
X-137459Y-110108D01*
X-137480Y-110169D01*
X-137500Y-110223D01*
X-137521Y-110268D01*
X-137541Y-110305D01*
X-137558Y-110337D01*
X-137570Y-110362D01*
X-137582Y-110382D01*
X-137594Y-110399D01*
X-137603Y-110407D01*
X-137607Y-110415D01*
X-137660Y-110465D01*
X-137713Y-110497D01*
X-137771Y-110522D01*
X-137824Y-110542D01*
X-137869Y-110551D01*
X-137906Y-110555D01*
X-137931Y-110559D01*
X-137935D01*
X-137939D01*
X-137984Y-110555D01*
X-138025Y-110551D01*
X-138099Y-110526D01*
X-138169Y-110493D01*
X-138226Y-110456D01*
X-138275Y-110419D01*
X-138312Y-110387D01*
X-138332Y-110362D01*
X-138341Y-110358D01*
Y-110354D01*
X-138369Y-110313D01*
X-138398Y-110264D01*
X-138439Y-110161D01*
X-138468Y-110055D01*
X-138488Y-109944D01*
X-138496Y-109895D01*
X-138501Y-109845D01*
X-138505Y-109804D01*
Y-109767D01*
X-138509Y-109735D01*
Y-109616D01*
X-138501Y-109542D01*
X-138492Y-109472D01*
X-138480Y-109407D01*
X-138468Y-109349D01*
X-138451Y-109296D01*
X-138435Y-109247D01*
X-138419Y-109202D01*
X-138398Y-109165D01*
X-138382Y-109132D01*
X-138365Y-109103D01*
X-138353Y-109079D01*
X-138341Y-109062D01*
X-138332Y-109046D01*
X-138328Y-109042D01*
X-138324Y-109038D01*
X-138287Y-108997D01*
X-138251Y-108960D01*
X-138164Y-108902D01*
X-138074Y-108853D01*
X-137988Y-108820D01*
X-137910Y-108796D01*
X-137877Y-108788D01*
X-137845Y-108779D01*
X-137820Y-108775D01*
X-137804D01*
X-137791Y-108771D01*
X-137787D01*
X-137824Y-108291D01*
X-137947Y-108304D01*
X-138058Y-108328D01*
X-138160Y-108357D01*
X-138246Y-108390D01*
X-138283Y-108410D01*
X-138320Y-108423D01*
X-138349Y-108439D01*
X-138373Y-108451D01*
X-138394Y-108464D01*
X-138406Y-108472D01*
X-138415Y-108476D01*
X-138419Y-108480D01*
X-138513Y-108550D01*
X-138591Y-108628D01*
X-138661Y-108710D01*
X-138718Y-108792D01*
X-138759Y-108861D01*
X-138775Y-108894D01*
X-138792Y-108919D01*
X-138804Y-108939D01*
X-138808Y-108960D01*
X-138816Y-108968D01*
Y-108972D01*
X-138861Y-109095D01*
X-138898Y-109222D01*
X-138923Y-109349D01*
X-138939Y-109464D01*
X-138943Y-109517D01*
X-138947Y-109563D01*
X-138952Y-109608D01*
X-138956Y-109644D01*
Y-108177D01*
D01*
D01*
Y-111186D01*
Y-109714D01*
X-138952Y-109854D01*
X-138935Y-109985D01*
X-138915Y-110100D01*
X-138902Y-110153D01*
X-138890Y-110202D01*
X-138878Y-110247D01*
X-138865Y-110288D01*
X-138853Y-110325D01*
X-138845Y-110354D01*
X-138837Y-110374D01*
X-138829Y-110395D01*
X-138824Y-110403D01*
Y-110407D01*
X-138771Y-110518D01*
X-138710Y-110612D01*
X-138648Y-110694D01*
X-138587Y-110760D01*
X-138529Y-110813D01*
X-138484Y-110854D01*
X-138468Y-110866D01*
X-138455Y-110874D01*
X-138447Y-110883D01*
X-138443D01*
X-138349Y-110936D01*
X-138255Y-110977D01*
X-138169Y-111002D01*
X-138086Y-111022D01*
X-138013Y-111034D01*
X-137984Y-111038D01*
X-137959D01*
X-137939Y-111043D01*
X-137923D01*
X-137914D01*
X-137910D01*
X-137816Y-111038D01*
X-137726Y-111022D01*
X-137644Y-111002D01*
X-137574Y-110977D01*
X-137517Y-110952D01*
X-137471Y-110932D01*
X-137455Y-110924D01*
X-137443Y-110916D01*
X-137439Y-110911D01*
X-137435D01*
X-137361Y-110858D01*
X-137291Y-110793D01*
X-137234Y-110727D01*
X-137180Y-110657D01*
X-137139Y-110600D01*
X-137111Y-110551D01*
X-137102Y-110530D01*
X-137094Y-110518D01*
X-137086Y-110510D01*
Y-110505D01*
X-137066Y-110465D01*
X-137045Y-110415D01*
X-137025Y-110362D01*
X-137004Y-110305D01*
X-136963Y-110186D01*
X-136926Y-110063D01*
X-136910Y-110005D01*
X-136893Y-109956D01*
X-136881Y-109907D01*
X-136869Y-109862D01*
X-136861Y-109829D01*
X-136852Y-109800D01*
X-136848Y-109784D01*
Y-109780D01*
X-136828Y-109686D01*
X-136803Y-109599D01*
X-136787Y-109526D01*
X-136766Y-109456D01*
X-136750Y-109394D01*
X-136738Y-109337D01*
X-136721Y-109292D01*
X-136709Y-109247D01*
X-136701Y-109214D01*
X-136688Y-109181D01*
X-136680Y-109157D01*
X-136676Y-109140D01*
X-136672Y-109124D01*
X-136668Y-109116D01*
X-136664Y-109107D01*
X-136627Y-109025D01*
X-136590Y-108956D01*
X-136553Y-108894D01*
X-136520Y-108849D01*
X-136487Y-108812D01*
X-136463Y-108788D01*
X-136446Y-108771D01*
X-136442Y-108767D01*
X-136393Y-108730D01*
X-136340Y-108706D01*
X-136287Y-108685D01*
X-136237Y-108673D01*
X-136196Y-108665D01*
X-136160Y-108660D01*
X-136139D01*
X-136135D01*
X-136131D01*
X-136069Y-108665D01*
X-136008Y-108677D01*
X-135954Y-108697D01*
X-135905Y-108714D01*
X-135864Y-108734D01*
X-135831Y-108755D01*
X-135815Y-108767D01*
X-135807Y-108771D01*
X-135754Y-108816D01*
X-135708Y-108865D01*
X-135668Y-108923D01*
X-135635Y-108976D01*
X-135610Y-109025D01*
X-135590Y-109062D01*
X-135581Y-109079D01*
X-135577Y-109091D01*
X-135573Y-109095D01*
Y-109099D01*
X-135545Y-109181D01*
X-135524Y-109267D01*
X-135512Y-109353D01*
X-135503Y-109431D01*
X-135495Y-109497D01*
Y-109526D01*
X-135491Y-109550D01*
Y-109599D01*
X-135495Y-109718D01*
X-135508Y-109825D01*
X-135528Y-109927D01*
X-135549Y-110013D01*
X-135557Y-110050D01*
X-135565Y-110083D01*
X-135577Y-110112D01*
X-135585Y-110136D01*
X-135594Y-110157D01*
X-135598Y-110169D01*
X-135602Y-110178D01*
Y-110182D01*
X-135647Y-110272D01*
X-135696Y-110350D01*
X-135741Y-110415D01*
X-135791Y-110469D01*
X-135831Y-110510D01*
X-135864Y-110538D01*
X-135885Y-110559D01*
X-135893Y-110563D01*
X-135967Y-110604D01*
X-136045Y-110637D01*
X-136123Y-110661D01*
X-136196Y-110682D01*
X-136266Y-110698D01*
X-136291Y-110702D01*
X-136315Y-110706D01*
X-136336Y-110711D01*
X-136352Y-110715D01*
X-136360D01*
X-136364D01*
X-136323Y-111186D01*
X-136254Y-111182D01*
X-136184Y-111174D01*
X-136057Y-111149D01*
X-135938Y-111116D01*
X-135885Y-111100D01*
X-135840Y-111080D01*
X-135795Y-111063D01*
X-135754Y-111043D01*
X-135721Y-111026D01*
X-135692Y-111010D01*
X-135668Y-110997D01*
X-135651Y-110989D01*
X-135643Y-110985D01*
X-135639Y-110981D01*
X-135532Y-110903D01*
X-135442Y-110813D01*
X-135364Y-110723D01*
X-135303Y-110637D01*
X-135253Y-110559D01*
X-135237Y-110526D01*
X-135221Y-110497D01*
X-135208Y-110473D01*
X-135200Y-110456D01*
X-135192Y-110444D01*
Y-110440D01*
X-135143Y-110301D01*
X-135106Y-110157D01*
X-135081Y-110013D01*
X-135065Y-109878D01*
X-135057Y-109813D01*
X-135053Y-109755D01*
X-135048Y-109706D01*
Y-109661D01*
X-135044Y-109624D01*
Y-109575D01*
X-135053Y-109427D01*
X-135069Y-109292D01*
X-135089Y-109169D01*
X-135106Y-109111D01*
X-135118Y-109062D01*
X-135130Y-109013D01*
X-135147Y-108972D01*
X-135159Y-108935D01*
X-135167Y-108906D01*
X-135180Y-108882D01*
X-135184Y-108865D01*
X-135192Y-108853D01*
Y-108849D01*
X-135253Y-108734D01*
X-135319Y-108636D01*
X-135389Y-108550D01*
X-135454Y-108480D01*
X-135516Y-108423D01*
X-135561Y-108386D01*
X-135581Y-108369D01*
X-135594Y-108361D01*
X-135602Y-108353D01*
X-135606D01*
X-135655Y-108320D01*
X-135708Y-108296D01*
X-135807Y-108250D01*
X-135901Y-108218D01*
X-135987Y-108197D01*
X-136065Y-108185D01*
X-136094Y-108181D01*
X-136123D01*
X-136143Y-108177D01*
D02*
G37*
G36*
X-135106Y-111502D02*
X-138890D01*
Y-114831D01*
X-135106D01*
Y-114331D01*
X-136787D01*
Y-113687D01*
X-136783Y-113630D01*
X-136779Y-113581D01*
Y-113540D01*
X-136775Y-113511D01*
X-136770Y-113490D01*
X-136766Y-113478D01*
Y-113474D01*
X-136754Y-113429D01*
X-136738Y-113388D01*
X-136721Y-113351D01*
X-136705Y-113314D01*
X-136688Y-113285D01*
X-136676Y-113265D01*
X-136668Y-113248D01*
X-136664Y-113244D01*
X-136635Y-113203D01*
X-136594Y-113158D01*
X-136553Y-113113D01*
X-136512Y-113076D01*
X-136475Y-113039D01*
X-136442Y-113015D01*
X-136422Y-112998D01*
X-136418Y-112990D01*
X-136414D01*
X-136340Y-112933D01*
X-136258Y-112871D01*
X-136172Y-112814D01*
X-136086Y-112756D01*
X-136012Y-112707D01*
X-135979Y-112683D01*
X-135950Y-112666D01*
X-135926Y-112650D01*
X-135909Y-112637D01*
X-135897Y-112633D01*
X-135893Y-112629D01*
X-135106Y-112129D01*
Y-111502D01*
X-136135Y-112158D01*
X-136241Y-112232D01*
X-136340Y-112305D01*
X-136426Y-112375D01*
X-136500Y-112437D01*
X-136557Y-112490D01*
X-136582Y-112514D01*
X-136602Y-112535D01*
X-136619Y-112551D01*
X-136631Y-112564D01*
X-136635Y-112568D01*
X-136639Y-112572D01*
X-136672Y-112613D01*
X-136709Y-112662D01*
X-136738Y-112711D01*
X-136766Y-112760D01*
X-136791Y-112806D01*
X-136811Y-112843D01*
X-136824Y-112867D01*
X-136828Y-112871D01*
Y-112875D01*
X-136844Y-112777D01*
X-136865Y-112683D01*
X-136889Y-112596D01*
X-136914Y-112519D01*
X-136943Y-112445D01*
X-136971Y-112379D01*
X-137000Y-112322D01*
X-137029Y-112268D01*
X-137057Y-112219D01*
X-137086Y-112178D01*
X-137111Y-112145D01*
X-137131Y-112117D01*
X-137152Y-112096D01*
X-137164Y-112080D01*
X-137172Y-112072D01*
X-137176Y-112068D01*
X-137230Y-112022D01*
X-137283Y-111981D01*
X-137340Y-111945D01*
X-137398Y-111916D01*
X-137455Y-111891D01*
X-137513Y-111871D01*
X-137619Y-111838D01*
X-137668Y-111826D01*
X-137713Y-111818D01*
X-137754Y-111813D01*
X-137791Y-111809D01*
X-137816Y-111805D01*
X-137840D01*
X-137853D01*
X-137857D01*
X-137972Y-111813D01*
X-138078Y-111830D01*
X-138173Y-111854D01*
X-138259Y-111883D01*
X-138296Y-111899D01*
X-138328Y-111916D01*
X-138357Y-111928D01*
X-138382Y-111941D01*
X-138402Y-111949D01*
X-138415Y-111957D01*
X-138423Y-111965D01*
X-138427D01*
X-138517Y-112027D01*
X-138591Y-112096D01*
X-138656Y-112166D01*
X-138706Y-112236D01*
X-138742Y-112293D01*
X-138767Y-112342D01*
X-138775Y-112363D01*
X-138784Y-112375D01*
X-138788Y-112383D01*
Y-112387D01*
X-138804Y-112441D01*
X-138820Y-112494D01*
X-138845Y-112617D01*
X-138865Y-112744D01*
X-138878Y-112867D01*
X-138882Y-112929D01*
X-138886Y-112982D01*
Y-113027D01*
X-138890Y-113072D01*
Y-111502D01*
X-135106D01*
D02*
G37*
G36*
Y-115528D02*
X-135553D01*
Y-117853D01*
X-136840D01*
Y-115758D01*
X-137287D01*
Y-117853D01*
X-138443D01*
Y-115614D01*
X-138890D01*
Y-115528D01*
D01*
Y-118353D01*
X-135106D01*
Y-115528D01*
D02*
G37*
G36*
Y-118816D02*
Y-120292D01*
X-138890Y-118816D01*
D01*
Y-122277D01*
X-135106D01*
D01*
X-138890D01*
X-135106Y-120809D01*
Y-118816D01*
D02*
G37*
G36*
Y-122580D02*
X-135553D01*
Y-124905D01*
X-136840D01*
Y-122810D01*
X-137287D01*
Y-124905D01*
X-138443D01*
Y-122666D01*
X-138890D01*
Y-122580D01*
Y-125405D01*
X-135106D01*
Y-122580D01*
D02*
G37*
G36*
Y-125897D02*
D01*
X-136135Y-126553D01*
X-136241Y-126627D01*
X-136340Y-126700D01*
X-136426Y-126770D01*
X-136500Y-126832D01*
X-136557Y-126885D01*
X-136582Y-126910D01*
X-136602Y-126930D01*
X-136619Y-126946D01*
X-136631Y-126959D01*
X-136635Y-126963D01*
X-136639Y-126967D01*
X-136672Y-127008D01*
X-136709Y-127057D01*
X-136738Y-127106D01*
X-136766Y-127156D01*
X-136791Y-127201D01*
X-136811Y-127238D01*
X-136824Y-127262D01*
X-136828Y-127266D01*
Y-127270D01*
X-136844Y-127172D01*
X-136865Y-127078D01*
X-136889Y-126992D01*
X-136914Y-126914D01*
X-136943Y-126840D01*
X-136971Y-126774D01*
X-137000Y-126717D01*
X-137029Y-126664D01*
X-137057Y-126614D01*
X-137086Y-126573D01*
X-137111Y-126541D01*
X-137131Y-126512D01*
X-137152Y-126491D01*
X-137164Y-126475D01*
X-137172Y-126467D01*
X-137176Y-126463D01*
X-137230Y-126418D01*
X-137283Y-126377D01*
X-137340Y-126340D01*
X-137398Y-126311D01*
X-137455Y-126286D01*
X-137513Y-126266D01*
X-137619Y-126233D01*
X-137668Y-126221D01*
X-137713Y-126213D01*
X-137754Y-126208D01*
X-137791Y-126204D01*
X-137816Y-126200D01*
X-137840D01*
X-137853D01*
X-137857D01*
X-137972Y-126208D01*
X-138078Y-126225D01*
X-138173Y-126250D01*
X-138259Y-126278D01*
X-138296Y-126295D01*
X-138328Y-126311D01*
X-138357Y-126323D01*
X-138382Y-126336D01*
X-138402Y-126344D01*
X-138415Y-126352D01*
X-138423Y-126360D01*
X-138427D01*
X-138517Y-126422D01*
X-138591Y-126491D01*
X-138656Y-126561D01*
X-138706Y-126631D01*
X-138742Y-126688D01*
X-138767Y-126737D01*
X-138775Y-126758D01*
X-138784Y-126770D01*
X-138788Y-126778D01*
Y-126783D01*
X-138804Y-126836D01*
X-138820Y-126889D01*
X-138845Y-127012D01*
X-138865Y-127139D01*
X-138878Y-127262D01*
X-138882Y-127324D01*
X-138886Y-127377D01*
Y-127422D01*
X-138890Y-127467D01*
Y-129226D01*
X-135106D01*
Y-125897D01*
D02*
G37*
G36*
Y-131567D02*
X-135635D01*
Y-132100D01*
X-135106D01*
Y-131567D01*
D02*
G37*
G36*
X-138050Y-131547D02*
X-138890D01*
Y-132121D01*
X-135106D01*
D01*
X-138050D01*
X-136045Y-131977D01*
Y-131682D01*
X-138050Y-131547D01*
D02*
G37*
%LPD*%
G36*
X-137791Y-112326D02*
X-137726Y-112338D01*
X-137668Y-112355D01*
X-137619Y-112371D01*
X-137574Y-112391D01*
X-137545Y-112408D01*
X-137525Y-112420D01*
X-137517Y-112424D01*
X-137463Y-112465D01*
X-137414Y-112514D01*
X-137377Y-112564D01*
X-137344Y-112609D01*
X-137320Y-112654D01*
X-137303Y-112687D01*
X-137295Y-112711D01*
X-137291Y-112715D01*
Y-112720D01*
X-137267Y-112797D01*
X-137250Y-112883D01*
X-137238Y-112974D01*
X-137230Y-113060D01*
X-137225Y-113138D01*
Y-113171D01*
X-137221Y-113199D01*
Y-114331D01*
X-138472D01*
Y-113056D01*
X-138464Y-112986D01*
X-138455Y-112920D01*
X-138443Y-112859D01*
X-138431Y-112806D01*
X-138415Y-112756D01*
X-138402Y-112711D01*
X-138386Y-112670D01*
X-138369Y-112633D01*
X-138353Y-112605D01*
X-138337Y-112576D01*
X-138324Y-112556D01*
X-138312Y-112539D01*
X-138304Y-112527D01*
X-138300Y-112523D01*
X-138296Y-112519D01*
X-138263Y-112486D01*
X-138226Y-112453D01*
X-138156Y-112404D01*
X-138082Y-112371D01*
X-138013Y-112346D01*
X-137951Y-112330D01*
X-137923Y-112326D01*
X-137902D01*
X-137882Y-112322D01*
X-137869D01*
X-137861D01*
X-137857D01*
X-137791Y-112326D01*
D02*
G37*
G36*
X-136139Y-120345D02*
X-136024Y-120387D01*
X-135914Y-120428D01*
X-135807Y-120464D01*
X-135713Y-120493D01*
X-135672Y-120505D01*
X-135635Y-120518D01*
X-135602Y-120526D01*
X-135573Y-120534D01*
X-135553Y-120542D01*
X-135532Y-120546D01*
X-135524Y-120551D01*
X-135520D01*
X-135631Y-120583D01*
X-135741Y-120616D01*
X-135844Y-120649D01*
X-135938Y-120678D01*
X-135983Y-120694D01*
X-136020Y-120706D01*
X-136053Y-120719D01*
X-136082Y-120727D01*
X-136106Y-120735D01*
X-136123Y-120743D01*
X-136135Y-120747D01*
X-136139D01*
X-138890Y-121731D01*
Y-119325D01*
X-136139Y-120345D01*
D02*
G37*
G36*
X-135106Y-128726D02*
X-136787D01*
Y-128082D01*
X-136783Y-128025D01*
X-136779Y-127976D01*
Y-127935D01*
X-136775Y-127906D01*
X-136770Y-127885D01*
X-136766Y-127873D01*
Y-127869D01*
X-136754Y-127824D01*
X-136738Y-127783D01*
X-136721Y-127746D01*
X-136705Y-127709D01*
X-136688Y-127680D01*
X-136676Y-127660D01*
X-136668Y-127644D01*
X-136664Y-127639D01*
X-136635Y-127598D01*
X-136594Y-127553D01*
X-136553Y-127508D01*
X-136512Y-127471D01*
X-136475Y-127434D01*
X-136442Y-127410D01*
X-136422Y-127393D01*
X-136418Y-127385D01*
X-136414D01*
X-136340Y-127328D01*
X-136258Y-127266D01*
X-136172Y-127209D01*
X-136086Y-127152D01*
X-136012Y-127102D01*
X-135979Y-127078D01*
X-135950Y-127061D01*
X-135926Y-127045D01*
X-135909Y-127033D01*
X-135897Y-127029D01*
X-135893Y-127024D01*
X-135106Y-126524D01*
Y-128726D01*
D02*
G37*
G36*
X-137791Y-126721D02*
X-137726Y-126733D01*
X-137668Y-126750D01*
X-137619Y-126766D01*
X-137574Y-126787D01*
X-137545Y-126803D01*
X-137525Y-126815D01*
X-137517Y-126819D01*
X-137463Y-126860D01*
X-137414Y-126910D01*
X-137377Y-126959D01*
X-137344Y-127004D01*
X-137320Y-127049D01*
X-137303Y-127082D01*
X-137295Y-127106D01*
X-137291Y-127111D01*
Y-127115D01*
X-137267Y-127192D01*
X-137250Y-127279D01*
X-137238Y-127369D01*
X-137230Y-127455D01*
X-137225Y-127533D01*
Y-127566D01*
X-137221Y-127594D01*
Y-128726D01*
X-138472D01*
Y-127451D01*
X-138464Y-127381D01*
X-138455Y-127315D01*
X-138443Y-127254D01*
X-138431Y-127201D01*
X-138415Y-127152D01*
X-138402Y-127106D01*
X-138386Y-127065D01*
X-138369Y-127029D01*
X-138353Y-127000D01*
X-138337Y-126971D01*
X-138324Y-126951D01*
X-138312Y-126934D01*
X-138304Y-126922D01*
X-138300Y-126918D01*
X-138296Y-126914D01*
X-138263Y-126881D01*
X-138226Y-126848D01*
X-138156Y-126799D01*
X-138082Y-126766D01*
X-138013Y-126742D01*
X-137951Y-126725D01*
X-137923Y-126721D01*
X-137902D01*
X-137882Y-126717D01*
X-137869D01*
X-137861D01*
X-137857D01*
X-137791Y-126721D01*
D02*
G37*
D10*
X-169626Y-76071D02*
G03*
X-169626Y-76071I-492J0D01*
G01*
X-128496Y-25114D02*
G03*
X-128496Y-25114I-492J0D01*
G01*
X-184390Y-67929D02*
G03*
X-184390Y-67929I-492J0D01*
G01*
X-128496Y-176469D02*
G03*
X-128496Y-176469I-492J0D01*
G01*
X-114520Y-63032D02*
G03*
X-114520Y-63032I-492J0D01*
G01*
X-128496Y-56114D02*
G03*
X-128496Y-56114I-492J0D01*
G01*
X-169039Y-9988D02*
G03*
X-169039Y-9988I-492J0D01*
G01*
X-197976Y-12012D02*
G03*
X-197976Y-12012I-492J0D01*
G01*
X-25520Y-37532D02*
G03*
X-25520Y-37532I-492J0D01*
G01*
X-24520Y-1531D02*
G03*
X-24520Y-1531I-492J0D01*
G01*
X-168020Y-129032D02*
G03*
X-168020Y-129032I-492J0D01*
G01*
X64480Y-35032D02*
G03*
X64480Y-35032I-492J0D01*
G01*
X-196976Y-161012D02*
G03*
X-196976Y-161012I-492J0D01*
G01*
X64480Y-3531D02*
G03*
X64480Y-3531I-492J0D01*
G01*
X-70165Y-95449D02*
G03*
X-70165Y-95449I-492J0D01*
G01*
D11*
X-168445Y-107961D02*
Y-78039D01*
X-186555Y-107961D02*
Y-78039D01*
X-184390D01*
X-170610D02*
X-168445D01*
X-170610Y-107961D02*
X-168445D01*
X-186555D02*
X-184390D01*
X-189047Y-37075D02*
Y-33925D01*
X-194953Y-37075D02*
Y-33925D01*
X-128890Y-23047D02*
Y1756D01*
X-115110Y-23047D02*
Y1756D01*
X-116291Y-23047D02*
X-115110D01*
X-128890D02*
X-127709D01*
X-128890Y1756D02*
X-127709D01*
X-116291D02*
X-115110D01*
X-186555Y-65961D02*
Y-36039D01*
X-168445Y-65961D02*
Y-36039D01*
X-170610Y-65961D02*
X-168445D01*
X-186555D02*
X-184390D01*
X-186555Y-36039D02*
X-184390D01*
X-170610D02*
X-168445D01*
X-128890Y-174402D02*
Y-149598D01*
X-115110Y-174402D02*
Y-149598D01*
X-116291Y-174402D02*
X-115110D01*
X-128890D02*
X-127709D01*
X-128890Y-149598D02*
X-127709D01*
X-116291D02*
X-115110D01*
Y-89902D02*
Y-65098D01*
X-128890Y-89902D02*
Y-65098D01*
X-127709D01*
X-116291D02*
X-115110D01*
X-116291Y-89902D02*
X-115110D01*
X-128890D02*
X-127709D01*
X-128890Y-54047D02*
Y-29244D01*
X-115110Y-54047D02*
Y-29244D01*
X-116291Y-54047D02*
X-115110D01*
X-128890D02*
X-127709D01*
X-128890Y-29244D02*
X-127709D01*
X-116291D02*
X-115110D01*
X-196402Y-9890D02*
X-171598D01*
X-196402Y3890D02*
X-171598D01*
Y2709D02*
Y3890D01*
Y-9890D02*
Y-8709D01*
X-196402Y-9890D02*
Y-8709D01*
Y2709D02*
Y3890D01*
Y-12110D02*
X-171598D01*
X-196402Y-25890D02*
X-171598D01*
X-196402D02*
Y-24709D01*
Y-13291D02*
Y-12110D01*
X-171598Y-13291D02*
Y-12110D01*
Y-25890D02*
Y-24709D01*
X-26110Y-64402D02*
Y-39598D01*
X-39890Y-64402D02*
Y-39598D01*
X-38709D01*
X-27291D02*
X-26110D01*
X-27291Y-64402D02*
X-26110D01*
X-39890D02*
X-38709D01*
X-25110Y-28402D02*
Y-3598D01*
X-38890Y-28402D02*
Y-3598D01*
X-37709D01*
X-26291D02*
X-25110D01*
X-26291Y-28402D02*
X-25110D01*
X-38890D02*
X-37709D01*
X-168610Y-155902D02*
Y-131098D01*
X-182390Y-155902D02*
Y-131098D01*
X-181209D01*
X-169791D02*
X-168610D01*
X-169791Y-155902D02*
X-168610D01*
X-182390D02*
X-181209D01*
X63890Y-61902D02*
Y-37098D01*
X50110Y-61902D02*
Y-37098D01*
X51291D01*
X62709D02*
X63890D01*
X62709Y-61902D02*
X63890D01*
X50110D02*
X51291D01*
X-195402Y-161110D02*
X-170598D01*
X-195402Y-174890D02*
X-170598D01*
X-195402D02*
Y-173709D01*
Y-162291D02*
Y-161110D01*
X-170598Y-162291D02*
Y-161110D01*
Y-174890D02*
Y-173709D01*
X63890Y-30402D02*
Y-5598D01*
X50110Y-30402D02*
Y-5598D01*
X51291D01*
X62709D02*
X63890D01*
X62709Y-30402D02*
X63890D01*
X50110D02*
X51291D01*
X-221575Y-2547D02*
X-218425D01*
X-221575Y-8453D02*
X-218425D01*
X-221575Y-12547D02*
X-218425D01*
X-221575Y-18453D02*
X-218425D01*
X-189047Y-57575D02*
Y-54425D01*
X-194953Y-57575D02*
Y-54425D01*
X-221390Y-168547D02*
X-218240D01*
X-221390Y-174453D02*
X-218240D01*
X-178075Y-112547D02*
X-174925D01*
X-178075Y-118453D02*
X-174925D01*
X-47953Y-11075D02*
Y-7925D01*
X-42047Y-11075D02*
Y-7925D01*
X-138047Y-166575D02*
Y-163425D01*
X-143953Y-166575D02*
Y-163425D01*
X-143953Y-77575D02*
Y-74425D01*
X-138047Y-77575D02*
Y-74425D01*
X-143953Y-43075D02*
Y-39925D01*
X-138047Y-43075D02*
Y-39925D01*
X-138547Y-15075D02*
Y-11925D01*
X-144453Y-15075D02*
Y-11925D01*
X-42547Y-45575D02*
Y-42425D01*
X-48453Y-45575D02*
Y-42425D01*
X38425Y-38047D02*
X41575D01*
X38425Y-43953D02*
X41575D01*
X38425Y-6547D02*
X41575D01*
X38425Y-12453D02*
X41575D01*
X-266772Y-175000D02*
Y5000D01*
X-246772Y-175000D02*
Y5000D01*
X-266772D02*
X-246772D01*
X-266772Y-175000D02*
X-246772D01*
X-74968Y-91264D02*
Y-89952D01*
Y-90608D01*
X-71032D01*
Y-91264D01*
Y-89952D01*
X-74312Y-85360D02*
X-74968Y-86016D01*
Y-87328D01*
X-74312Y-87984D01*
X-71688D01*
X-71032Y-87328D01*
Y-86016D01*
X-71688Y-85360D01*
X-71032Y-84048D02*
Y-82736D01*
Y-83392D01*
X-74968D01*
X-74312Y-84048D01*
X-236280Y-16968D02*
Y-13032D01*
X-234312D01*
X-233656Y-13688D01*
Y-15000D01*
X-234312Y-15656D01*
X-236280D01*
X-234968D02*
X-233656Y-16968D01*
X-232344Y-16312D02*
X-231688Y-16968D01*
X-230376D01*
X-229720Y-16312D01*
Y-13688D01*
X-230376Y-13032D01*
X-231688D01*
X-232344Y-13688D01*
Y-14344D01*
X-231688Y-15000D01*
X-229720D01*
X-139532Y-32420D02*
X-143468D01*
Y-30452D01*
X-142812Y-29796D01*
X-141500D01*
X-140844Y-30452D01*
Y-32420D01*
Y-31108D02*
X-139532Y-29796D01*
Y-28484D02*
Y-27172D01*
Y-27828D01*
X-143468D01*
X-142812Y-28484D01*
X-139532Y-22580D02*
Y-25204D01*
X-142156Y-22580D01*
X-142812D01*
X-143468Y-23236D01*
Y-24548D01*
X-142812Y-25204D01*
X-203780Y-39968D02*
Y-36032D01*
X-201812D01*
X-201156Y-36688D01*
Y-38000D01*
X-201812Y-38656D01*
X-203780D01*
X-202468D02*
X-201156Y-39968D01*
X-199844Y-36032D02*
X-197220D01*
Y-36688D01*
X-199844Y-39312D01*
Y-39968D01*
X-139532Y-155420D02*
X-143468D01*
Y-153452D01*
X-142812Y-152796D01*
X-141500D01*
X-140844Y-153452D01*
Y-155420D01*
Y-154108D02*
X-139532Y-152796D01*
Y-151484D02*
Y-150172D01*
Y-150828D01*
X-143468D01*
X-142812Y-151484D01*
X-139532Y-146236D02*
X-143468D01*
X-141500Y-148204D01*
Y-145580D01*
X-191780Y-117968D02*
Y-114032D01*
X-189812D01*
X-189156Y-114688D01*
Y-116000D01*
X-189812Y-116656D01*
X-191780D01*
X-190468D02*
X-189156Y-117968D01*
X-185876D02*
Y-114032D01*
X-187844Y-116000D01*
X-185220D01*
X-235780Y-172968D02*
Y-169032D01*
X-233812D01*
X-233156Y-169688D01*
Y-171000D01*
X-233812Y-171656D01*
X-235780D01*
X-234468D02*
X-233156Y-172968D01*
X-229220D02*
X-231844D01*
X-229220Y-170344D01*
Y-169688D01*
X-229876Y-169032D01*
X-231188D01*
X-231844Y-169688D01*
X-50532Y-12280D02*
X-54468D01*
Y-10312D01*
X-53812Y-9656D01*
X-52500D01*
X-51844Y-10312D01*
Y-12280D01*
Y-10968D02*
X-50532Y-9656D01*
X-54468Y-5720D02*
X-53812Y-7032D01*
X-52500Y-8344D01*
X-51188D01*
X-50532Y-7688D01*
Y-6376D01*
X-51188Y-5720D01*
X-51844D01*
X-52500Y-6376D01*
Y-8344D01*
X37376Y-3468D02*
Y468D01*
X39344D01*
X40000Y-188D01*
Y-1500D01*
X39344Y-2156D01*
X37376D01*
X38688D02*
X40000Y-3468D01*
X41312D02*
X42624D01*
X41968D01*
Y468D01*
X41312Y-188D01*
X36720Y-35468D02*
Y-31532D01*
X38688D01*
X39344Y-32188D01*
Y-33500D01*
X38688Y-34156D01*
X36720D01*
X38032D02*
X39344Y-35468D01*
X40656Y-32188D02*
X41312Y-31532D01*
X42624D01*
X43280Y-32188D01*
Y-32844D01*
X42624Y-33500D01*
X41968D01*
X42624D01*
X43280Y-34156D01*
Y-34812D01*
X42624Y-35468D01*
X41312D01*
X40656Y-34812D01*
X-139532Y-3264D02*
X-143468D01*
Y-1296D01*
X-142812Y-640D01*
X-141500D01*
X-140844Y-1296D01*
Y-3264D01*
Y-1952D02*
X-139532Y-640D01*
Y672D02*
Y1984D01*
Y1328D01*
X-143468D01*
X-142812Y672D01*
X-139532Y3952D02*
Y5264D01*
Y4608D01*
X-143468D01*
X-142812Y3952D01*
X-203780Y-61968D02*
Y-58032D01*
X-201812D01*
X-201156Y-58688D01*
Y-60000D01*
X-201812Y-60656D01*
X-203780D01*
X-202468D02*
X-201156Y-61968D01*
X-197220Y-58032D02*
X-199844D01*
Y-60000D01*
X-198532Y-59344D01*
X-197876D01*
X-197220Y-60000D01*
Y-61312D01*
X-197876Y-61968D01*
X-199188D01*
X-199844Y-61312D01*
X-51032Y-46780D02*
X-54968D01*
Y-44812D01*
X-54312Y-44156D01*
X-53000D01*
X-52344Y-44812D01*
Y-46780D01*
Y-45468D02*
X-51032Y-44156D01*
X-54312Y-42844D02*
X-54968Y-42188D01*
Y-40876D01*
X-54312Y-40220D01*
X-53656D01*
X-53000Y-40876D01*
X-52344Y-40220D01*
X-51688D01*
X-51032Y-40876D01*
Y-42188D01*
X-51688Y-42844D01*
X-52344D01*
X-53000Y-42188D01*
X-53656Y-42844D01*
X-54312D01*
X-53000Y-42188D02*
Y-40876D01*
X-239920Y-7468D02*
Y-3532D01*
X-237952D01*
X-237296Y-4188D01*
Y-5500D01*
X-237952Y-6156D01*
X-239920D01*
X-238608D02*
X-237296Y-7468D01*
X-235984D02*
X-234672D01*
X-235328D01*
Y-3532D01*
X-235984Y-4188D01*
X-232704D02*
X-232048Y-3532D01*
X-230736D01*
X-230080Y-4188D01*
Y-6812D01*
X-230736Y-7468D01*
X-232048D01*
X-232704Y-6812D01*
Y-4188D01*
X-139032Y-66920D02*
X-142968D01*
Y-64952D01*
X-142312Y-64296D01*
X-141000D01*
X-140344Y-64952D01*
Y-66920D01*
Y-65608D02*
X-139032Y-64296D01*
Y-62984D02*
Y-61672D01*
Y-62328D01*
X-142968D01*
X-142312Y-62984D01*
Y-59704D02*
X-142968Y-59048D01*
Y-57736D01*
X-142312Y-57080D01*
X-141656D01*
X-141000Y-57736D01*
Y-58392D01*
Y-57736D01*
X-140344Y-57080D01*
X-139688D01*
X-139032Y-57736D01*
Y-59048D01*
X-139688Y-59704D01*
X-21312Y-140D02*
X-21968Y-796D01*
Y-2108D01*
X-21312Y-2764D01*
X-18688D01*
X-18032Y-2108D01*
Y-796D01*
X-18688Y-140D01*
X-18032Y1172D02*
Y2484D01*
Y1828D01*
X-21968D01*
X-21312Y1172D01*
X-18032Y4452D02*
Y5764D01*
Y5108D01*
X-21968D01*
X-21312Y4452D01*
X-191156Y-70688D02*
X-191812Y-70032D01*
X-193124D01*
X-193780Y-70688D01*
Y-73312D01*
X-193124Y-73968D01*
X-191812D01*
X-191156Y-73312D01*
X-189844D02*
X-189188Y-73968D01*
X-187876D01*
X-187220Y-73312D01*
Y-70688D01*
X-187876Y-70032D01*
X-189188D01*
X-189844Y-70688D01*
Y-71344D01*
X-189188Y-72000D01*
X-187220D01*
X56344Y1812D02*
X55688Y2468D01*
X54376D01*
X53720Y1812D01*
Y-812D01*
X54376Y-1468D01*
X55688D01*
X56344Y-812D01*
X57656Y1812D02*
X58312Y2468D01*
X59624D01*
X60280Y1812D01*
Y1156D01*
X59624Y500D01*
X58968D01*
X59624D01*
X60280Y-156D01*
Y-812D01*
X59624Y-1468D01*
X58312D01*
X57656Y-812D01*
X-173296Y-29188D02*
X-173952Y-28532D01*
X-175264D01*
X-175920Y-29188D01*
Y-31812D01*
X-175264Y-32468D01*
X-173952D01*
X-173296Y-31812D01*
X-171984Y-32468D02*
X-170672D01*
X-171328D01*
Y-28532D01*
X-171984Y-29188D01*
X-168704D02*
X-168048Y-28532D01*
X-166736D01*
X-166080Y-29188D01*
Y-29844D01*
X-166736Y-30500D01*
X-167392D01*
X-166736D01*
X-166080Y-31156D01*
Y-31812D01*
X-166736Y-32468D01*
X-168048D01*
X-168704Y-31812D01*
X-134812Y-153624D02*
X-135468Y-154280D01*
Y-155592D01*
X-134812Y-156248D01*
X-132188D01*
X-131532Y-155592D01*
Y-154280D01*
X-132188Y-153624D01*
X-131532Y-149688D02*
Y-152312D01*
X-134156Y-149688D01*
X-134812D01*
X-135468Y-150344D01*
Y-151656D01*
X-134812Y-152312D01*
Y-148376D02*
X-135468Y-147720D01*
Y-146408D01*
X-134812Y-145752D01*
X-134156D01*
X-133500Y-146408D01*
X-132844Y-145752D01*
X-132188D01*
X-131532Y-146408D01*
Y-147720D01*
X-132188Y-148376D01*
X-132844D01*
X-133500Y-147720D01*
X-134156Y-148376D01*
X-134812D01*
X-133500Y-147720D02*
Y-146408D01*
X-34296Y-32688D02*
X-34952Y-32032D01*
X-36264D01*
X-36920Y-32688D01*
Y-35312D01*
X-36264Y-35968D01*
X-34952D01*
X-34296Y-35312D01*
X-32984Y-35968D02*
X-31672D01*
X-32328D01*
Y-32032D01*
X-32984Y-32688D01*
X-27080Y-32032D02*
X-28392Y-32688D01*
X-29704Y-34000D01*
Y-35312D01*
X-29048Y-35968D01*
X-27736D01*
X-27080Y-35312D01*
Y-34656D01*
X-27736Y-34000D01*
X-29704D01*
X68188Y-26656D02*
X67532Y-27312D01*
Y-28624D01*
X68188Y-29280D01*
X70812D01*
X71468Y-28624D01*
Y-27312D01*
X70812Y-26656D01*
X67532Y-22720D02*
Y-25344D01*
X69500D01*
X68844Y-24032D01*
Y-23376D01*
X69500Y-22720D01*
X70812D01*
X71468Y-23376D01*
Y-24688D01*
X70812Y-25344D01*
X-185624Y10312D02*
X-186280Y10968D01*
X-187592D01*
X-188248Y10312D01*
Y7688D01*
X-187592Y7032D01*
X-186280D01*
X-185624Y7688D01*
X-181688Y7032D02*
X-184312D01*
X-181688Y9656D01*
Y10312D01*
X-182344Y10968D01*
X-183656D01*
X-184312Y10312D01*
X-180376D02*
X-179720Y10968D01*
X-178408D01*
X-177752Y10312D01*
Y7688D01*
X-178408Y7032D01*
X-179720D01*
X-180376Y7688D01*
Y10312D01*
X-134812Y-32124D02*
X-135468Y-32780D01*
Y-34092D01*
X-134812Y-34748D01*
X-132188D01*
X-131532Y-34092D01*
Y-32780D01*
X-132188Y-32124D01*
X-131532Y-28188D02*
Y-30812D01*
X-134156Y-28188D01*
X-134812D01*
X-135468Y-28844D01*
Y-30156D01*
X-134812Y-30812D01*
Y-26876D02*
X-135468Y-26220D01*
Y-24908D01*
X-134812Y-24252D01*
X-134156D01*
X-133500Y-24908D01*
Y-25564D01*
Y-24908D01*
X-132844Y-24252D01*
X-132188D01*
X-131532Y-24908D01*
Y-26220D01*
X-132188Y-26876D01*
X-205156Y-166188D02*
X-205812Y-165532D01*
X-207124D01*
X-207780Y-166188D01*
Y-168812D01*
X-207124Y-169468D01*
X-205812D01*
X-205156Y-168812D01*
X-201220Y-169468D02*
X-203844D01*
X-201220Y-166844D01*
Y-166188D01*
X-201876Y-165532D01*
X-203188D01*
X-203844Y-166188D01*
X56844Y-66688D02*
X56188Y-66032D01*
X54876D01*
X54220Y-66688D01*
Y-69312D01*
X54876Y-69968D01*
X56188D01*
X56844Y-69312D01*
X58156Y-66032D02*
X60780D01*
Y-66688D01*
X58156Y-69312D01*
Y-69968D01*
X-134773Y-4968D02*
X-135429Y-5624D01*
Y-6936D01*
X-134773Y-7592D01*
X-132149D01*
X-131493Y-6936D01*
Y-5624D01*
X-132149Y-4968D01*
X-131493Y-1032D02*
Y-3656D01*
X-134117Y-1032D01*
X-134773D01*
X-135429Y-1688D01*
Y-3000D01*
X-134773Y-3656D01*
X-131493Y280D02*
Y1592D01*
Y936D01*
X-135429D01*
X-134773Y280D01*
X-209312Y-17796D02*
X-209968Y-18452D01*
Y-19764D01*
X-209312Y-20420D01*
X-206688D01*
X-206032Y-19764D01*
Y-18452D01*
X-206688Y-17796D01*
X-206032Y-16484D02*
Y-15172D01*
Y-15828D01*
X-209968D01*
X-209312Y-16484D01*
X-209968Y-13204D02*
Y-10580D01*
X-209312D01*
X-206688Y-13204D01*
X-206032D01*
X-22312Y-44796D02*
X-22968Y-45452D01*
Y-46764D01*
X-22312Y-47420D01*
X-19688D01*
X-19032Y-46764D01*
Y-45452D01*
X-19688Y-44796D01*
X-19032Y-43484D02*
Y-42172D01*
Y-42828D01*
X-22968D01*
X-22312Y-43484D01*
X-22968Y-37580D02*
Y-40204D01*
X-21000D01*
X-21656Y-38892D01*
Y-38236D01*
X-21000Y-37580D01*
X-19688D01*
X-19032Y-38236D01*
Y-39548D01*
X-19688Y-40204D01*
X-124624Y-142688D02*
X-125280Y-142032D01*
X-126592D01*
X-127248Y-142688D01*
Y-145312D01*
X-126592Y-145968D01*
X-125280D01*
X-124624Y-145312D01*
X-120688Y-145968D02*
X-123312D01*
X-120688Y-143344D01*
Y-142688D01*
X-121344Y-142032D01*
X-122656D01*
X-123312Y-142688D01*
X-119376Y-145312D02*
X-118720Y-145968D01*
X-117408D01*
X-116752Y-145312D01*
Y-142688D01*
X-117408Y-142032D01*
X-118720D01*
X-119376Y-142688D01*
Y-143344D01*
X-118720Y-144000D01*
X-116752D01*
X-189156Y-141688D02*
X-189812Y-141032D01*
X-191124D01*
X-191780Y-141688D01*
Y-144312D01*
X-191124Y-144968D01*
X-189812D01*
X-189156Y-144312D01*
X-187844Y-141688D02*
X-187188Y-141032D01*
X-185876D01*
X-185220Y-141688D01*
Y-142344D01*
X-185876Y-143000D01*
X-185220Y-143656D01*
Y-144312D01*
X-185876Y-144968D01*
X-187188D01*
X-187844Y-144312D01*
Y-143656D01*
X-187188Y-143000D01*
X-187844Y-142344D01*
Y-141688D01*
X-187188Y-143000D02*
X-185876D01*
X-185656Y-122688D02*
X-186312Y-122032D01*
X-187624D01*
X-188280Y-122688D01*
Y-125312D01*
X-187624Y-125968D01*
X-186312D01*
X-185656Y-125312D01*
X-181720Y-122032D02*
X-183032Y-122688D01*
X-184344Y-124000D01*
Y-125312D01*
X-183688Y-125968D01*
X-182376D01*
X-181720Y-125312D01*
Y-124656D01*
X-182376Y-124000D01*
X-184344D01*
X68188Y4500D02*
X67532Y3844D01*
Y2532D01*
X68188Y1876D01*
X70812D01*
X71468Y2532D01*
Y3844D01*
X70812Y4500D01*
X71468Y5812D02*
Y7124D01*
Y6468D01*
X67532D01*
X68188Y5812D01*
X-33796Y4312D02*
X-34452Y4968D01*
X-35764D01*
X-36420Y4312D01*
Y1688D01*
X-35764Y1032D01*
X-34452D01*
X-33796Y1688D01*
X-32484Y1032D02*
X-31172D01*
X-31828D01*
Y4968D01*
X-32484Y4312D01*
X-26580Y1032D02*
X-29204D01*
X-26580Y3656D01*
Y4312D01*
X-27236Y4968D01*
X-28548D01*
X-29204Y4312D01*
X-124624Y-94688D02*
X-125280Y-94032D01*
X-126592D01*
X-127248Y-94688D01*
Y-97312D01*
X-126592Y-97968D01*
X-125280D01*
X-124624Y-97312D01*
X-120688Y-97968D02*
X-123312D01*
X-120688Y-95344D01*
Y-94688D01*
X-121344Y-94032D01*
X-122656D01*
X-123312Y-94688D01*
X-119376Y-94032D02*
X-116752D01*
Y-94688D01*
X-119376Y-97312D01*
Y-97968D01*
X-209312Y-4796D02*
X-209968Y-5452D01*
Y-6764D01*
X-209312Y-7420D01*
X-206688D01*
X-206032Y-6764D01*
Y-5452D01*
X-206688Y-4796D01*
X-206032Y-3484D02*
Y-2172D01*
Y-2828D01*
X-209968D01*
X-209312Y-3484D01*
X-206688Y-204D02*
X-206032Y452D01*
Y1764D01*
X-206688Y2420D01*
X-209312D01*
X-209968Y1764D01*
Y452D01*
X-209312Y-204D01*
X-208656D01*
X-208000Y452D01*
Y2420D01*
X-52812Y-92624D02*
X-53468Y-93280D01*
Y-94592D01*
X-52812Y-95248D01*
X-50188D01*
X-49532Y-94592D01*
Y-93280D01*
X-50188Y-92624D01*
X-49532Y-88688D02*
Y-91312D01*
X-52156Y-88688D01*
X-52812D01*
X-53468Y-89344D01*
Y-90656D01*
X-52812Y-91312D01*
X-53468Y-84752D02*
X-52812Y-86064D01*
X-51500Y-87376D01*
X-50188D01*
X-49532Y-86720D01*
Y-85408D01*
X-50188Y-84752D01*
X-50844D01*
X-51500Y-85408D01*
Y-87376D01*
X-124624Y-58688D02*
X-125280Y-58032D01*
X-126592D01*
X-127248Y-58688D01*
Y-61312D01*
X-126592Y-61968D01*
X-125280D01*
X-124624Y-61312D01*
X-120688Y-61968D02*
X-123312D01*
X-120688Y-59344D01*
Y-58688D01*
X-121344Y-58032D01*
X-122656D01*
X-123312Y-58688D01*
X-117408Y-61968D02*
Y-58032D01*
X-119376Y-60000D01*
X-116752D01*
X-195796Y-104688D02*
X-196452Y-104032D01*
X-197764D01*
X-198420Y-104688D01*
Y-107312D01*
X-197764Y-107968D01*
X-196452D01*
X-195796Y-107312D01*
X-194484Y-107968D02*
X-193172D01*
X-193828D01*
Y-104032D01*
X-194484Y-104688D01*
X-191204D02*
X-190548Y-104032D01*
X-189236D01*
X-188580Y-104688D01*
Y-107312D01*
X-189236Y-107968D01*
X-190548D01*
X-191204Y-107312D01*
Y-104688D01*
X-180296Y-50188D02*
X-180952Y-49532D01*
X-182264D01*
X-182920Y-50188D01*
Y-52812D01*
X-182264Y-53468D01*
X-180952D01*
X-180296Y-52812D01*
X-178984Y-53468D02*
X-177672D01*
X-178328D01*
Y-49532D01*
X-178984Y-50188D01*
X-173736Y-53468D02*
Y-49532D01*
X-175704Y-51500D01*
X-173080D01*
X-133812Y-66624D02*
X-134468Y-67280D01*
Y-68592D01*
X-133812Y-69248D01*
X-131188D01*
X-130532Y-68592D01*
Y-67280D01*
X-131188Y-66624D01*
X-130532Y-62688D02*
Y-65312D01*
X-133156Y-62688D01*
X-133812D01*
X-134468Y-63344D01*
Y-64656D01*
X-133812Y-65312D01*
X-134468Y-58752D02*
Y-61376D01*
X-132500D01*
X-133156Y-60064D01*
Y-59408D01*
X-132500Y-58752D01*
X-131188D01*
X-130532Y-59408D01*
Y-60720D01*
X-131188Y-61376D01*
X-192156Y-156688D02*
X-192812Y-156032D01*
X-194124D01*
X-194780Y-156688D01*
Y-159312D01*
X-194124Y-159968D01*
X-192812D01*
X-192156Y-159312D01*
X-188876Y-159968D02*
Y-156032D01*
X-190844Y-158000D01*
X-188220D01*
X-185312Y-21296D02*
X-185968Y-21952D01*
Y-23264D01*
X-185312Y-23920D01*
X-182688D01*
X-182032Y-23264D01*
Y-21952D01*
X-182688Y-21296D01*
X-182032Y-19984D02*
Y-18672D01*
Y-19328D01*
X-185968D01*
X-185312Y-19984D01*
Y-16704D02*
X-185968Y-16048D01*
Y-14736D01*
X-185312Y-14080D01*
X-184656D01*
X-184000Y-14736D01*
X-183344Y-14080D01*
X-182688D01*
X-182032Y-14736D01*
Y-16048D01*
X-182688Y-16704D01*
X-183344D01*
X-184000Y-16048D01*
X-184656Y-16704D01*
X-185312D01*
X-184000Y-16048D02*
Y-14736D01*
X-125124Y9166D02*
X-125780Y9822D01*
X-127092D01*
X-127748Y9166D01*
Y6542D01*
X-127092Y5886D01*
X-125780D01*
X-125124Y6542D01*
X-121188Y5886D02*
X-123812D01*
X-121188Y8510D01*
Y9166D01*
X-121844Y9822D01*
X-123156D01*
X-123812Y9166D01*
X-117252Y5886D02*
X-119876D01*
X-117252Y8510D01*
Y9166D01*
X-117908Y9822D01*
X-119220D01*
X-119876Y9166D01*
X8204Y-173566D02*
Y-170942D01*
Y-172254D01*
X12140D01*
Y-169631D02*
Y-168319D01*
Y-168974D01*
X9516D01*
Y-169631D01*
X12140Y-166351D02*
X9516D01*
Y-165695D01*
X10172Y-165039D01*
X12140D01*
X10172D01*
X9516Y-164383D01*
X10172Y-163727D01*
X12140D01*
Y-160447D02*
Y-161759D01*
X11484Y-162415D01*
X10172D01*
X9516Y-161759D01*
Y-160447D01*
X10172Y-159791D01*
X10828D01*
Y-162415D01*
X8204Y-158479D02*
X12140D01*
Y-156511D01*
X11484Y-155855D01*
X10828D01*
X10172D01*
X9516Y-156511D01*
Y-158479D01*
Y-153888D02*
Y-152576D01*
X10172Y-151920D01*
X12140D01*
Y-153888D01*
X11484Y-154543D01*
X10828Y-153888D01*
Y-151920D01*
X12140Y-150608D02*
Y-148640D01*
X11484Y-147984D01*
X10828Y-148640D01*
Y-149952D01*
X10172Y-150608D01*
X9516Y-149952D01*
Y-147984D01*
X12140Y-144704D02*
Y-146016D01*
X11484Y-146672D01*
X10172D01*
X9516Y-146016D01*
Y-144704D01*
X10172Y-144048D01*
X10828D01*
Y-146672D01*
X12796Y-142736D02*
Y-140112D01*
X8204Y-138801D02*
X12140D01*
Y-136833D01*
X11484Y-136177D01*
X10828D01*
X10172D01*
X9516Y-136833D01*
Y-138801D01*
X12140Y-134209D02*
Y-132897D01*
X11484Y-132241D01*
X10172D01*
X9516Y-132897D01*
Y-134209D01*
X10172Y-134865D01*
X11484D01*
X12140Y-134209D01*
X9516Y-130273D02*
Y-128961D01*
X10172Y-128305D01*
X12140D01*
Y-130273D01*
X11484Y-130929D01*
X10828Y-130273D01*
Y-128305D01*
X9516Y-126993D02*
X12140D01*
X10828D01*
X10172Y-126337D01*
X9516Y-125681D01*
Y-125025D01*
X8204Y-120434D02*
X12140D01*
Y-122402D01*
X11484Y-123058D01*
X10172D01*
X9516Y-122402D01*
Y-120434D01*
X-145624Y-139335D02*
Y-140647D01*
X-144968Y-141303D01*
X-142344D01*
X-141688Y-140647D01*
Y-139335D01*
X-142344Y-138679D01*
X-144968D01*
X-145624Y-139335D01*
X-144312Y-137367D02*
X-142344D01*
X-141688Y-136711D01*
Y-134743D01*
X-144312D01*
X-144968Y-132775D02*
X-144312D01*
Y-133431D01*
Y-132119D01*
Y-132775D01*
X-142344D01*
X-141688Y-132119D01*
X-140376Y-130151D02*
X-144312D01*
Y-128183D01*
X-143656Y-127527D01*
X-142344D01*
X-141688Y-128183D01*
Y-130151D01*
X-144312Y-126216D02*
X-142344D01*
X-141688Y-125559D01*
Y-123592D01*
X-144312D01*
X-144968Y-121624D02*
X-144312D01*
Y-122280D01*
Y-120968D01*
Y-121624D01*
X-142344D01*
X-141688Y-120968D01*
X-141032Y-119000D02*
Y-116376D01*
X-145624Y-115064D02*
X-141688D01*
Y-113096D01*
X-142344Y-112440D01*
X-143000D01*
X-143656D01*
X-144312Y-113096D01*
Y-115064D01*
X-141688Y-110473D02*
Y-109161D01*
X-142344Y-108505D01*
X-143656D01*
X-144312Y-109161D01*
Y-110473D01*
X-143656Y-111128D01*
X-142344D01*
X-141688Y-110473D01*
X-144312Y-106537D02*
Y-105225D01*
X-143656Y-104569D01*
X-141688D01*
Y-106537D01*
X-142344Y-107193D01*
X-143000Y-106537D01*
Y-104569D01*
X-144312Y-103257D02*
X-141688D01*
X-143000D01*
X-143656Y-102601D01*
X-144312Y-101945D01*
Y-101289D01*
X-145624Y-96697D02*
X-141688D01*
Y-98665D01*
X-142344Y-99321D01*
X-143656D01*
X-144312Y-98665D01*
Y-96697D01*
X-272624Y-163217D02*
Y-161906D01*
Y-162562D01*
X-268688D01*
Y-163217D01*
Y-161906D01*
Y-159938D02*
X-271312D01*
Y-157970D01*
X-270656Y-157314D01*
X-268688D01*
X-271968Y-155346D02*
X-271312D01*
Y-156002D01*
Y-154690D01*
Y-155346D01*
X-269344D01*
X-268688Y-154690D01*
Y-150754D02*
Y-152066D01*
X-269344Y-152722D01*
X-270656D01*
X-271312Y-152066D01*
Y-150754D01*
X-270656Y-150098D01*
X-270000D01*
Y-152722D01*
X-271312Y-148786D02*
X-268688D01*
X-270000D01*
X-270656Y-148131D01*
X-271312Y-147475D01*
Y-146819D01*
X-268688Y-144851D02*
X-271312D01*
Y-142883D01*
X-270656Y-142227D01*
X-268688D01*
X-271312Y-140259D02*
Y-138947D01*
X-270656Y-138291D01*
X-268688D01*
Y-140259D01*
X-269344Y-140915D01*
X-270000Y-140259D01*
Y-138291D01*
X-268688Y-136979D02*
Y-135667D01*
Y-136323D01*
X-272624D01*
Y-136979D01*
X-268032Y-133700D02*
Y-131076D01*
X-267376Y-129764D02*
X-271312D01*
Y-127796D01*
X-270656Y-127140D01*
X-269344D01*
X-268688Y-127796D01*
Y-129764D01*
Y-125172D02*
Y-123860D01*
X-269344Y-123204D01*
X-270656D01*
X-271312Y-123860D01*
Y-125172D01*
X-270656Y-125828D01*
X-269344D01*
X-268688Y-125172D01*
X-271312Y-121892D02*
X-269344D01*
X-268688Y-121236D01*
X-269344Y-120580D01*
X-268688Y-119924D01*
X-269344Y-119268D01*
X-271312D01*
X-268688Y-115989D02*
Y-117300D01*
X-269344Y-117956D01*
X-270656D01*
X-271312Y-117300D01*
Y-115989D01*
X-270656Y-115333D01*
X-270000D01*
Y-117956D01*
X-271312Y-114021D02*
X-268688D01*
X-270000D01*
X-270656Y-113365D01*
X-271312Y-112709D01*
Y-112053D01*
X-268032Y-110085D02*
Y-107461D01*
X-272624Y-106149D02*
X-268688D01*
Y-104181D01*
X-269344Y-103525D01*
X-270000D01*
X-270656D01*
X-271312Y-104181D01*
Y-106149D01*
X-268688Y-101558D02*
Y-100246D01*
X-269344Y-99590D01*
X-270656D01*
X-271312Y-100246D01*
Y-101558D01*
X-270656Y-102214D01*
X-269344D01*
X-268688Y-101558D01*
X-271312Y-97622D02*
Y-96310D01*
X-270656Y-95654D01*
X-268688D01*
Y-97622D01*
X-269344Y-98278D01*
X-270000Y-97622D01*
Y-95654D01*
X-271312Y-94342D02*
X-268688D01*
X-270000D01*
X-270656Y-93686D01*
X-271312Y-93030D01*
Y-92374D01*
X-272624Y-87783D02*
X-268688D01*
Y-89750D01*
X-269344Y-90406D01*
X-270656D01*
X-271312Y-89750D01*
Y-87783D01*
X-91296Y-172055D02*
X-87360D01*
Y-170087D01*
X-88016Y-169431D01*
X-90640D01*
X-91296Y-170087D01*
Y-172055D01*
X-87360Y-168119D02*
X-89984D01*
X-91296Y-166807D01*
X-89984Y-165495D01*
X-87360D01*
X-89328D01*
Y-168119D01*
X-90640Y-161560D02*
X-91296Y-162215D01*
Y-163527D01*
X-90640Y-164183D01*
X-88016D01*
X-87360Y-163527D01*
Y-162215D01*
X-88016Y-161560D01*
X-86704Y-160248D02*
Y-157624D01*
X-91296Y-156312D02*
X-87360D01*
Y-154344D01*
X-88016Y-153688D01*
X-88672D01*
X-89328D01*
X-89984Y-154344D01*
Y-156312D01*
X-87360Y-151720D02*
Y-150408D01*
X-88016Y-149752D01*
X-89328D01*
X-89984Y-150408D01*
Y-151720D01*
X-89328Y-152376D01*
X-88016D01*
X-87360Y-151720D01*
X-89984Y-147784D02*
Y-146473D01*
X-89328Y-145817D01*
X-87360D01*
Y-147784D01*
X-88016Y-148440D01*
X-88672Y-147784D01*
Y-145817D01*
X-89984Y-144505D02*
X-87360D01*
X-88672D01*
X-89328Y-143849D01*
X-89984Y-143193D01*
Y-142537D01*
X-91296Y-137945D02*
X-87360D01*
Y-139913D01*
X-88016Y-140569D01*
X-89328D01*
X-89984Y-139913D01*
Y-137945D01*
X67876Y-173614D02*
X71812D01*
Y-171647D01*
X71156Y-170991D01*
X68532D01*
X67876Y-171647D01*
Y-173614D01*
X71812Y-169679D02*
Y-168367D01*
Y-169023D01*
X69188D01*
Y-169679D01*
X73124Y-165087D02*
Y-164431D01*
X72468Y-163775D01*
X69188D01*
Y-165743D01*
X69844Y-166399D01*
X71156D01*
X71812Y-165743D01*
Y-163775D01*
Y-162463D02*
Y-161151D01*
Y-161807D01*
X69188D01*
Y-162463D01*
X68532Y-158527D02*
X69188D01*
Y-159183D01*
Y-157871D01*
Y-158527D01*
X71156D01*
X71812Y-157871D01*
X69188Y-155248D02*
Y-153936D01*
X69844Y-153280D01*
X71812D01*
Y-155248D01*
X71156Y-155904D01*
X70500Y-155248D01*
Y-153280D01*
X71812Y-151968D02*
Y-150656D01*
Y-151312D01*
X67876D01*
Y-151968D01*
X72468Y-148688D02*
Y-146064D01*
X67876Y-144752D02*
X71812D01*
Y-142785D01*
X71156Y-142129D01*
X70500D01*
X69844D01*
X69188Y-142785D01*
Y-144752D01*
X71812Y-140161D02*
Y-138849D01*
X71156Y-138193D01*
X69844D01*
X69188Y-138849D01*
Y-140161D01*
X69844Y-140817D01*
X71156D01*
X71812Y-140161D01*
X69188Y-136225D02*
Y-134913D01*
X69844Y-134257D01*
X71812D01*
Y-136225D01*
X71156Y-136881D01*
X70500Y-136225D01*
Y-134257D01*
X69188Y-132945D02*
X71812D01*
X70500D01*
X69844Y-132289D01*
X69188Y-131633D01*
Y-130977D01*
X67876Y-126386D02*
X71812D01*
Y-128353D01*
X71156Y-129009D01*
X69844D01*
X69188Y-128353D01*
Y-126386D01*
D12*
X-271500Y1500D02*
X-269834D01*
X-270667D01*
Y6498D01*
X-271500Y5665D01*
X-238668Y0D02*
X-242000D01*
X-238668Y3332D01*
Y4165D01*
X-239501Y4998D01*
X-241167D01*
X-242000Y4165D01*
M02*
