G04*
G04 #@! TF.GenerationSoftware,Altium Limited,Altium Designer,22.4.2 (48)*
G04*
G04 Layer_Physical_Order=1*
G04 Layer_Color=255*
%FSLAX25Y25*%
%MOIN*%
G70*
G04*
G04 #@! TF.SameCoordinates,F956CD7A-ACF5-426A-BAEE-EF4E17F90500*
G04*
G04*
G04 #@! TF.FilePolarity,Positive*
G04*
G01*
G75*
%ADD10C,0.00984*%
%ADD14R,0.09646X0.09252*%
%ADD15R,0.06693X0.04331*%
%ADD16R,0.08858X0.09252*%
%ADD17R,0.03543X0.03150*%
%ADD18R,0.09252X0.08858*%
%ADD19R,0.01378X0.02362*%
%ADD20R,0.04331X0.06693*%
%ADD21R,0.03150X0.03543*%
%ADD33C,0.01968*%
%ADD34C,0.01575*%
%ADD35C,0.03937*%
%ADD36C,0.05906*%
%ADD37R,0.05906X0.05906*%
%ADD38C,0.09843*%
%ADD39C,0.04724*%
%ADD40C,0.06693*%
D10*
X-58621Y-98500D02*
G03*
X-49877Y-94877I7J12346D01*
G01*
X-45793Y-91500D02*
G03*
X-47000Y-92000I0J-1707D01*
G01*
X-49877Y-94877D02*
G03*
X-49875Y-94875I-8737J8723D01*
G01*
X-47713Y-87787D02*
G03*
X-44793Y-89000I2920J2908D01*
G01*
X-50496Y-85004D02*
G03*
X-54121Y-83500I-3625J-3617D01*
G01*
X-67022Y-96366D02*
G03*
X-66466Y-96869I5144J5132D01*
G01*
X-61891Y-98500D02*
G03*
X-61879Y-98500I12J7266D01*
G01*
X-17500Y-80000D02*
X-13000Y-75500D01*
X-21000Y-89000D02*
X-17500Y-85500D01*
Y-80000D01*
X-13000Y-75500D02*
X33250D01*
X75051D01*
X80551Y-70000D01*
X-45793Y-91500D02*
X-19998D01*
X-13498Y-85000D01*
X-49875Y-94875D02*
X-47000Y-92000D01*
X-44789Y-89000D02*
X-21000D01*
X-50495Y-85005D02*
X-47713Y-87787D01*
X-47713Y-87787D01*
X-44793Y-89000D02*
X-44789Y-89000D01*
X-50496Y-85004D02*
X-50495Y-85005D01*
X-66620Y-83500D02*
X-54121D01*
X-61663Y-96728D02*
X-60909Y-96440D01*
X-61879Y-98500D02*
X-61874Y-98500D01*
X-64835D02*
X-61891D01*
X-66466Y-96869D02*
X-64835Y-98500D01*
X-67023Y-96366D02*
X-67022Y-96366D01*
X-67803Y-95585D02*
X-67023Y-96366D01*
X-60909Y-96440D02*
X-57697Y-93228D01*
X-64850Y-95979D02*
X-64101Y-96728D01*
X-61663D01*
X-65244Y-94957D02*
X-64850Y-95979D01*
X-61874Y-98500D02*
X-58627D01*
X-65441Y-94268D02*
X-65244Y-94957D01*
X-57697Y-93228D02*
X-57500D01*
X-54728D01*
X-58627Y-98500D02*
X-58621Y-98500D01*
X-67803Y-95585D02*
Y-94465D01*
X-54728Y-93228D02*
X-54000Y-92500D01*
X-54807Y-86693D02*
X-53500Y-88000D01*
X-57539Y-86693D02*
X-54807D01*
X-68000Y-94268D02*
X-67803Y-94465D01*
Y-85803D02*
Y-84683D01*
X-66620Y-83500D01*
X-68000Y-86000D02*
X-67803Y-85803D01*
X-62882Y-86000D02*
X-58232D01*
X-65441D02*
X-62882D01*
X-58232D02*
X-57539Y-86693D01*
D14*
X-177500Y-80795D02*
D03*
Y-105205D02*
D03*
Y-63205D02*
D03*
Y-38795D02*
D03*
D15*
X-192000Y-30185D02*
D03*
Y-40815D02*
D03*
X-65441Y-90134D02*
D03*
X-192000Y-50685D02*
D03*
Y-61315D02*
D03*
X-45000Y-14815D02*
D03*
Y-4185D02*
D03*
X-141000Y-159685D02*
D03*
Y-170315D02*
D03*
Y-81315D02*
D03*
Y-70685D02*
D03*
Y-46815D02*
D03*
Y-36185D02*
D03*
X-141500Y-8185D02*
D03*
Y-18815D02*
D03*
X-45500Y-38685D02*
D03*
Y-49315D02*
D03*
D16*
X-122000Y-20291D02*
D03*
Y-1000D02*
D03*
Y-171646D02*
D03*
Y-152354D02*
D03*
Y-67854D02*
D03*
Y-87146D02*
D03*
Y-51291D02*
D03*
Y-32000D02*
D03*
X-33000Y-42354D02*
D03*
Y-61646D02*
D03*
X-32000Y-6354D02*
D03*
Y-25646D02*
D03*
X-175500Y-133854D02*
D03*
Y-153146D02*
D03*
X57000Y-39854D02*
D03*
Y-59146D02*
D03*
Y-8354D02*
D03*
Y-27646D02*
D03*
D17*
X-132500Y-79228D02*
D03*
X-132539Y-72693D02*
D03*
X-202539Y807D02*
D03*
X-202500Y-5728D02*
D03*
X-202461Y-19307D02*
D03*
X-202500Y-12772D02*
D03*
X-132961Y-166807D02*
D03*
X-133000Y-160272D02*
D03*
X-133039Y-38193D02*
D03*
X-133000Y-44728D02*
D03*
X-133461Y-16807D02*
D03*
X-133500Y-10272D02*
D03*
X-57539Y-86693D02*
D03*
X-57500Y-93228D02*
D03*
X-21539Y-51193D02*
D03*
X-21500Y-57728D02*
D03*
X-19539Y-7193D02*
D03*
X-19500Y-13728D02*
D03*
X69539Y-39307D02*
D03*
X69500Y-32772D02*
D03*
X69039Y-9307D02*
D03*
X69000Y-2772D02*
D03*
D18*
X-174354Y-3000D02*
D03*
X-193646D02*
D03*
Y-19000D02*
D03*
X-174354D02*
D03*
X-192646Y-168000D02*
D03*
X-173354D02*
D03*
D19*
X-68000Y-94268D02*
D03*
X-65441D02*
D03*
X-62882D02*
D03*
Y-86000D02*
D03*
X-65441D02*
D03*
X-68000D02*
D03*
D20*
X-225315Y-5500D02*
D03*
X-214685D02*
D03*
X-225315Y-15500D02*
D03*
X-214685D02*
D03*
X-225130Y-171500D02*
D03*
X-214500D02*
D03*
X-181815Y-115500D02*
D03*
X-171185D02*
D03*
X34685Y-41000D02*
D03*
X45315D02*
D03*
X34685Y-9500D02*
D03*
X45315D02*
D03*
D21*
X-184807Y-30539D02*
D03*
X-178272Y-30500D02*
D03*
X-183307Y-72039D02*
D03*
X-176772Y-72000D02*
D03*
X-171693Y-123461D02*
D03*
X-178228Y-123500D02*
D03*
X-208307Y-172539D02*
D03*
X-201772Y-172500D02*
D03*
D33*
X-176287Y-36247D02*
G03*
X-172777Y-35000I445J4312D01*
G01*
X-208473Y-9473D02*
G03*
X-205005Y-8036I0J4904D01*
G01*
X-208861Y-10139D02*
G03*
X-203297Y-12736I6361J6368D01*
G01*
X-194362Y-51866D02*
X-192181Y-49685D01*
X-199549Y-59847D02*
X-194362Y-54660D01*
Y-51866D01*
X-192181Y-49685D02*
X-192000D01*
X-233347Y-59847D02*
X-199549D01*
X-235000Y-56500D02*
X-201000D01*
X-197500Y-53000D02*
Y-45134D01*
X-201000Y-56500D02*
X-197500Y-53000D01*
Y-45134D02*
X-193181Y-40815D01*
X-245500Y-73728D02*
Y-67000D01*
X-235000Y-56500D01*
X-261772Y-80000D02*
X-251772D01*
Y-100000D02*
X-246500D01*
X-261772D02*
X-251772D01*
X-242000Y-95500D02*
Y-68500D01*
X-246500Y-100000D02*
X-242000Y-95500D01*
X-251772Y-80000D02*
X-245500Y-73728D01*
X-242000Y-68500D02*
X-233347Y-59847D01*
X-193181Y-40815D02*
X-192000D01*
X-133500Y-10272D02*
X-133303D01*
X-130559Y-7527D02*
X-129527D01*
X-129000Y-7000D01*
X-133303Y-10272D02*
X-130559Y-7527D01*
X-132803Y-44728D02*
X-130032Y-47500D01*
X-122000Y-51146D02*
Y-51095D01*
X-129350Y-47650D02*
X-125445D01*
X-133000Y-44728D02*
X-132803D01*
X-130032Y-47500D02*
X-129500D01*
X-125445Y-47650D02*
X-122000Y-51095D01*
X-129500Y-47500D02*
X-129350Y-47650D01*
X-129246Y-158500D02*
X-127949D01*
X-133000Y-160272D02*
X-132409Y-159681D01*
X-130427D02*
X-129246Y-158500D01*
X-122000Y-152551D02*
Y-152354D01*
X-132409Y-159681D02*
X-130427D01*
X-127949Y-158500D02*
X-122000Y-152551D01*
X-25622Y-58122D02*
X-21894D01*
X-21500Y-57728D01*
X-26000Y-58500D02*
X-25622Y-58122D01*
X-26933Y-45996D02*
X-21736Y-51193D01*
X-30055Y-45996D02*
X-26933D01*
X-33500Y-42551D02*
X-30055Y-45996D01*
X-175500Y-153146D02*
X-174500Y-152146D01*
Y-145500D01*
X-182000Y-124000D02*
X-181750Y-123750D01*
X-178478D01*
X-178228Y-123500D01*
X-177500Y-101705D02*
Y-93000D01*
X-170772Y-86272D02*
Y-82004D01*
X-177500Y-93000D02*
X-170772Y-86272D01*
X-157746Y-74000D02*
X-157000D01*
X-159021Y-75276D02*
X-157746Y-74000D01*
X-170772Y-82004D02*
X-164044Y-75276D01*
X-159021D01*
X-191746Y-30362D02*
X-185484D01*
X-177500Y-64500D02*
Y-63205D01*
X-172777Y-35000D02*
X-157087D01*
X-176807Y-37340D02*
X-176287Y-36247D01*
X-177500Y-38795D02*
X-176807Y-37340D01*
X-157087Y-35000D02*
X-152087Y-40000D01*
X-177697Y-38795D02*
X-177500D01*
X-181339Y-35153D02*
X-177697Y-38795D01*
X-185307Y-30736D02*
X-181339Y-34705D01*
Y-35153D02*
Y-34705D01*
X-185307Y-30736D02*
Y-30539D01*
X-192823Y-30362D02*
X-191746D01*
X-193000Y-30185D02*
X-192823Y-30362D01*
X-185484D02*
X-185307Y-30539D01*
X-205005Y-8036D02*
X-202697Y-5728D01*
X-209000Y-10000D02*
X-208473Y-9473D01*
X-203287Y-12736D02*
X-202500Y-12772D01*
X-202697Y-5728D02*
X-202500D01*
X-203297Y-12736D02*
X-203287D01*
X-213504Y-17862D02*
X-212323D01*
X-210878Y-19307D02*
X-202461D01*
X-212323Y-17862D02*
X-210878Y-19307D01*
X-214685Y-16681D02*
X-213504Y-17862D01*
X-214685Y-16681D02*
Y-15500D01*
X-187248Y-12799D02*
X-168701D01*
X-166776Y-14724D01*
X-193449Y-19000D02*
X-187248Y-12799D01*
X-190004Y-8048D02*
X-188851Y-9201D01*
X-193449Y-3000D02*
X-190004Y-6445D01*
X-188851Y-9201D02*
X-168994D01*
X-193646Y-3000D02*
X-193449D01*
X-190004Y-8048D02*
Y-6445D01*
X-193646Y-19000D02*
X-193449D01*
X-166776Y-14724D02*
X-156811D01*
X-168294Y-8500D02*
X-168276D01*
X-168994Y-9201D02*
X-168294Y-8500D01*
X-168276D02*
X-164500Y-4724D01*
X-254500Y-25000D02*
X-247000D01*
X-244000Y-22000D02*
X-223153D01*
X-247000Y-25000D02*
X-244000Y-22000D01*
X-256772Y-70000D02*
X-251772D01*
X-261772D02*
X-256772D01*
X-220000Y-18847D02*
Y-11996D01*
X-225315Y-6681D02*
Y-5500D01*
Y-6681D02*
X-220000Y-11996D01*
X-223153Y-22000D02*
X-220000Y-18847D01*
X-256772Y-27272D02*
X-254500Y-25000D01*
X-256772Y-70000D02*
Y-27272D01*
X-177551Y-172000D02*
X-173551Y-168000D01*
X-183500Y-172000D02*
X-177551D01*
X-173551Y-168000D02*
X-173354D01*
X-198005Y-174201D02*
X-186446D01*
X-184246Y-172000D02*
X-183500D01*
X-186446Y-174201D02*
X-184246Y-172000D01*
X-201772Y-172697D02*
X-201181Y-173287D01*
X-198919D01*
X-201772Y-172697D02*
Y-172500D01*
X-198919Y-173287D02*
X-198005Y-174201D01*
X-168294Y-161500D02*
X-164794Y-165000D01*
X-157087D01*
X-185949Y-161500D02*
X-168294D01*
X-192449Y-168000D02*
X-185949Y-161500D01*
X-192646Y-168000D02*
X-192449D01*
X-208307Y-172343D02*
X-203965Y-168000D01*
X-192646D01*
X-208307Y-172539D02*
Y-172343D01*
X-214500Y-171500D02*
X-209150D01*
X-164500Y-4724D02*
X-156811D01*
X-182254Y-20000D02*
X-181254Y-19000D01*
X-183000Y-20000D02*
X-182254D01*
X-181254Y-19000D02*
X-173354D01*
X-173854Y-3500D02*
X-173354Y-3000D01*
X-183000Y-3500D02*
X-173854D01*
X-202461Y-19307D02*
X-192953D01*
X-196650Y807D02*
X-192842Y-3000D01*
X-202539Y807D02*
X-196650D01*
X-214685Y-5500D02*
Y-4319D01*
X-209559Y807D01*
X-202539D01*
X-247929Y-571D02*
X-233000Y-15500D01*
X-225315D01*
X-251200Y-571D02*
X-247929D01*
X-251772Y0D02*
X-251200Y-571D01*
X-261772Y0D02*
X-251772D01*
X-142181Y-159685D02*
X-141000D01*
X-142681Y-8185D02*
X-141500D01*
X-45500Y-38685D02*
X-44319D01*
X-39634Y-34000D01*
X-27500D01*
X-15500Y-46000D01*
X-39764Y-49315D02*
X-33500Y-43051D01*
Y-42551D01*
X-45500Y-49315D02*
X-39764D01*
X-20949Y-50602D02*
X-10602D01*
X-21539Y-51193D02*
X-20949Y-50602D01*
X-10602D02*
X-10000Y-50000D01*
X-21736Y-51193D02*
X-21539D01*
X69539Y-40000D02*
X80551D01*
X45508Y-9307D02*
X69039D01*
X69386Y-9653D01*
X45315Y-9500D02*
X45508Y-9307D01*
X28500Y-41000D02*
X34685D01*
X35685Y-40000D01*
X-157087Y-165000D02*
X-152087Y-170000D01*
Y-50000D02*
Y-40000D01*
X-156811Y-14724D02*
X-152087Y-10000D01*
X-156811Y-4724D02*
X-152087Y0D01*
X-45500Y-38685D02*
X-44342Y-37527D01*
X-191746Y-30439D02*
X-190819Y-31366D01*
X-144000Y-19315D02*
X-142819Y-18134D01*
X-133705Y-17398D02*
X-133461Y-17154D01*
X-109491Y-40000D02*
X-108425D01*
X-10000Y-50000D02*
Y-40000D01*
X69500Y-32772D02*
Y-28000D01*
X80551Y-40000D02*
Y-30000D01*
Y-50000D02*
Y-40000D01*
X69000Y-2772D02*
Y2000D01*
X69386Y-9653D02*
X80205D01*
X80551Y-10000D01*
Y0D01*
Y-20000D02*
Y-10000D01*
D34*
X-129000Y-7000D02*
X-128397Y-6397D01*
X-127200D01*
X-122000Y-1197D01*
Y-1000D01*
X-85579Y-54579D02*
X-19076D01*
X-92500Y-61500D02*
X-85579Y-54579D01*
X-19076D02*
X-16500Y-57155D01*
X-5276Y-84724D02*
X85827D01*
X70026Y-70526D02*
X80551Y-60000D01*
X3500Y-65000D02*
X9026Y-70526D01*
X70026D01*
X67388Y-66388D02*
X78500Y-55276D01*
X3000D02*
X14112Y-66388D01*
X67388D01*
X-169331Y-122831D02*
X-167000Y-120500D01*
Y-107000D01*
X-165000Y-105000D01*
X-171063Y-122831D02*
X-169331D01*
X-171693Y-123461D02*
X-171063Y-122831D01*
X-171439Y-123010D02*
Y-115500D01*
X-177411Y-80795D02*
X-173573Y-76957D01*
X-177500Y-80795D02*
X-177411D01*
X-173573Y-75083D02*
X-163490Y-65000D01*
X-173573Y-76957D02*
Y-75083D01*
X-163490Y-65000D02*
X-157087D01*
X-181035Y-76957D02*
X-177250Y-80742D01*
X-177500Y-80795D02*
X-177303D01*
X-157087Y-65000D02*
X-152087Y-60000D01*
X-177500Y-63205D02*
X-174295Y-60000D01*
X-162087D01*
X-177500Y-64500D02*
X-176772Y-65228D01*
Y-72000D02*
Y-65228D01*
X-183898Y-71449D02*
X-183307Y-72039D01*
X-183898Y-71449D02*
Y-67236D01*
X-190819Y-60315D02*
X-183898Y-67236D01*
X-192000Y-60315D02*
X-190819D01*
X-183307Y-72236D02*
Y-72039D01*
X-181035Y-76957D02*
Y-74508D01*
X-183307Y-72236D02*
X-181035Y-74508D01*
X-178772Y-30500D02*
X-173000D01*
X-171439Y-123207D02*
Y-123010D01*
X-171693Y-123461D02*
X-171439Y-123207D01*
X-165000Y-105000D02*
X-157087D01*
X-152087Y-100000D01*
X-171858Y-130213D02*
Y-127760D01*
X-171693Y-127594D02*
Y-123461D01*
X-175500Y-133854D02*
X-171858Y-130213D01*
Y-127760D02*
X-171693Y-127594D01*
X-139568Y-95000D02*
X-106500D01*
X-146695Y-87873D02*
X-139568Y-95000D01*
X-106500D02*
X-103500Y-92000D01*
Y-78522D01*
X-107597Y-74426D02*
X-103500Y-78522D01*
X-152087Y-80000D02*
X-146695Y-85392D01*
Y-87873D02*
Y-85392D01*
X-107597Y-74426D02*
Y-70829D01*
X-108425Y-70000D02*
X-107597Y-70829D01*
X-92500Y-102000D02*
Y-61500D01*
X-147087Y-105000D02*
X-95500D01*
X-152087Y-110000D02*
X-147087Y-105000D01*
X-95500D02*
X-92500Y-102000D01*
X46693Y-39307D02*
X69539D01*
X45315Y-40685D02*
X46693Y-39307D01*
X45315Y-41000D02*
Y-40685D01*
X78500Y-55276D02*
X85827D01*
X-5276D02*
X3000D01*
X-13500Y-65000D02*
X3500D01*
X85827Y-84724D02*
X90551Y-80000D01*
X-10000D02*
X-5276Y-84724D01*
X-147087Y-145000D02*
X-35000D01*
X-152087Y-150000D02*
X-147087Y-145000D01*
X-148000Y-135000D02*
X-35000D01*
X-152087Y-139087D02*
X-148000Y-135000D01*
X-152087Y-140000D02*
Y-139087D01*
X-146000Y-125000D02*
X-35000D01*
X-152087Y-130000D02*
X-151000D01*
X-146000Y-125000D01*
X-147559Y-115472D02*
X-35472D01*
X-152087Y-120000D02*
X-147559Y-115472D01*
X-152087Y-70000D02*
Y-60000D01*
X-16500Y-62000D02*
X-13500Y-65000D01*
X-16500Y-62000D02*
Y-57155D01*
X-35472Y-115472D02*
X-10000Y-90000D01*
X-35000Y-125000D02*
X-10000Y-100000D01*
X-35000Y-145000D02*
X-10000Y-120000D01*
X-178772Y-30500D02*
X-178522Y-30750D01*
X-10000Y-60000D02*
X-5276Y-55276D01*
X85827D02*
X90551Y-60000D01*
X-35000Y-135000D02*
X-10000Y-110000D01*
Y-90000D02*
X-5276Y-94724D01*
X85827D01*
X90551Y-90000D01*
X-10000Y-100000D02*
X-5276Y-104724D01*
X85827D01*
X90551Y-100000D01*
X-5276Y-114724D02*
X85827D01*
X-10000Y-110000D02*
X-5276Y-114724D01*
X85827D02*
X90551Y-110000D01*
X-10000Y-120000D02*
X-5276Y-124724D01*
X85827D02*
X90551Y-120000D01*
X-5276Y-124724D02*
X85827D01*
X-10000Y-140000D02*
X-5276Y-144724D01*
X85827D01*
X90551Y-140000D01*
X-10000Y-150000D02*
X-5276Y-154724D01*
X85827D01*
X90551Y-150000D01*
X-10000Y-160000D02*
X-5276Y-164724D01*
X85827D01*
X90551Y-160000D01*
D35*
X-130651Y-86849D02*
Y-81078D01*
X-122073Y-87073D02*
X-122000Y-87146D01*
X-132500Y-79228D02*
X-130651Y-81078D01*
X-130427Y-87073D02*
X-122073D01*
X-130651Y-86849D02*
X-130427Y-87073D01*
X-140651Y-158336D02*
Y-154651D01*
X-141500Y-159185D02*
X-140651Y-158336D01*
Y-154651D02*
X-140500Y-154500D01*
X-24551Y-18000D02*
X-24287D01*
X-20015Y-13728D02*
X-19500D01*
X-32000Y-25449D02*
X-24551Y-18000D01*
X-24287D02*
X-20015Y-13728D01*
X-30843Y-58988D02*
X-26686D01*
X-26213Y-58516D02*
X-26000D01*
X-33500Y-61646D02*
X-30843Y-58988D01*
X-26686D02*
X-26213Y-58516D01*
X56651Y-27296D02*
X57000Y-27646D01*
X56500Y-20000D02*
X56651Y-20151D01*
Y-27296D02*
Y-20151D01*
X57349Y-58796D02*
Y-52151D01*
X57000Y-59146D02*
X57349Y-58796D01*
Y-52151D02*
X57500Y-52000D01*
X-181815Y-115653D02*
Y-115500D01*
X-182012Y-115849D02*
X-181815Y-115653D01*
X-185849Y-115849D02*
X-182012D01*
X-186000Y-116000D02*
X-185849Y-115849D01*
X-225130Y-171500D02*
Y-170573D01*
Y-171652D02*
Y-171500D01*
X-251772Y-170000D02*
X-251395Y-170377D01*
X-225327D01*
X-225130Y-170573D01*
X-136311Y-166807D02*
X-126642D01*
X-122000Y-171449D01*
X-119539Y-169000D02*
X-109958D01*
X-122000Y-171646D02*
Y-171461D01*
X-119539Y-169000D01*
X-109958D02*
X-108958Y-170000D01*
X-108425D01*
X-122000Y-171646D02*
Y-171449D01*
X-139819Y-170315D02*
X-136311Y-166807D01*
X-141000Y-170315D02*
X-139819D01*
X-140500Y-88500D02*
X-140349Y-88349D01*
X-141000Y-87787D02*
X-140500Y-88287D01*
Y-88500D02*
Y-88287D01*
X-141000Y-87787D02*
Y-81315D01*
X-122000Y-67854D02*
Y-67658D01*
X-114719Y-60377D01*
X-108802D01*
X-108425Y-60000D01*
X-124461Y-70512D02*
X-122000Y-68051D01*
Y-67854D01*
X-132539Y-72693D02*
X-130358Y-70512D01*
X-124461D01*
X-134350Y-70882D02*
X-132539Y-72693D01*
X-141000Y-70685D02*
X-140803Y-70882D01*
X-134350D01*
X-124416Y-34270D02*
X-122000Y-31854D01*
X-133039Y-38193D02*
X-129117Y-34270D01*
X-124416D01*
X-141000Y-53500D02*
Y-46815D01*
X-108425Y-40000D02*
Y-30000D01*
X-108958D02*
X-108425D01*
X-122000Y-31854D02*
X-110812D01*
X-108958Y-30000D01*
X-141000Y-36185D02*
X-140803Y-36382D01*
X-134850D02*
X-133039Y-38193D01*
X-140803Y-36382D02*
X-134850D01*
X-108425Y-20000D02*
Y-10000D01*
X-108571Y-20146D02*
X-108425Y-20000D01*
X-122000Y-20291D02*
X-121854Y-20146D01*
X-108571D01*
X-133161Y-16807D02*
X-132335Y-17634D01*
X-124461D02*
X-122000Y-20095D01*
Y-20291D02*
Y-20095D01*
X-133461Y-16807D02*
X-133161D01*
X-132335Y-17634D02*
X-124461D01*
X-141500Y-18815D02*
X-141303Y-18618D01*
X-134925D01*
X-133705Y-17398D01*
X-141348Y-8185D02*
X-141151Y-7988D01*
Y-1651D01*
X-141500Y-8185D02*
X-141348D01*
X-141151Y-1651D02*
X-141000Y-1500D01*
X-19539Y-7000D02*
X-13533D01*
X-32000D02*
X-19539D01*
X-34169Y-4185D02*
X-32000Y-6354D01*
X-45000Y-4185D02*
X-34169D01*
X-45000Y-21000D02*
Y-14815D01*
X-45151Y-20849D02*
X-45000Y-21000D01*
X-32000Y-25646D02*
Y-25449D01*
X-13533Y-7000D02*
X-10533Y-10000D01*
X-10000D01*
X34488Y-9151D02*
X34685Y-9347D01*
X27651Y-9151D02*
X34488D01*
X34685Y-9500D02*
Y-9347D01*
X27500Y-9000D02*
X27651Y-9151D01*
X-225327Y-171849D02*
X-225130Y-171652D01*
X-108425Y-60000D02*
Y-50000D01*
X-10250Y-20250D02*
X-10000Y-20000D01*
Y-10000D02*
Y0D01*
Y-20000D02*
Y-10000D01*
Y-30000D02*
Y-20000D01*
D36*
X-152087Y0D02*
D03*
X-162087D02*
D03*
X-152087Y-10000D02*
D03*
X-162087D02*
D03*
X-152087Y-20000D02*
D03*
X-162087D02*
D03*
X-152087Y-30000D02*
D03*
X-162087D02*
D03*
X-152087Y-40000D02*
D03*
X-162087D02*
D03*
X-152087Y-50000D02*
D03*
X-162087D02*
D03*
X-152087Y-60000D02*
D03*
X-162087D02*
D03*
X-152087Y-70000D02*
D03*
X-162087D02*
D03*
X-152087Y-80000D02*
D03*
X-162087D02*
D03*
X-152087Y-90000D02*
D03*
X-162087D02*
D03*
X-152087Y-100000D02*
D03*
X-162087D02*
D03*
X-152087Y-110000D02*
D03*
X-162087D02*
D03*
X-152087Y-120000D02*
D03*
X-162087D02*
D03*
X-152087Y-130000D02*
D03*
X-162087D02*
D03*
X-152087Y-140000D02*
D03*
X-162087D02*
D03*
X-152087Y-150000D02*
D03*
X-162087D02*
D03*
X-152087Y-160000D02*
D03*
X-162087D02*
D03*
X-152087Y-170000D02*
D03*
X80551Y0D02*
D03*
Y-10000D02*
D03*
Y-20000D02*
D03*
X-261772Y-160000D02*
D03*
X-251772D02*
D03*
X-261772Y-170000D02*
D03*
X-251772D02*
D03*
X80551D02*
D03*
X90551D02*
D03*
X80551Y-160000D02*
D03*
X90551Y-130000D02*
D03*
X80551Y-90000D02*
D03*
X90551Y-70000D02*
D03*
Y-50000D02*
D03*
Y-40000D02*
D03*
Y-30000D02*
D03*
Y-20000D02*
D03*
Y-10000D02*
D03*
X-98425Y-90000D02*
D03*
X-108425D02*
D03*
X-98425Y-100000D02*
D03*
Y-110000D02*
D03*
Y-120000D02*
D03*
Y-130000D02*
D03*
Y-140000D02*
D03*
Y-150000D02*
D03*
Y-160000D02*
D03*
Y-170000D02*
D03*
X0Y-10000D02*
D03*
Y-20000D02*
D03*
Y-30000D02*
D03*
Y-40000D02*
D03*
Y-50000D02*
D03*
Y-60000D02*
D03*
Y-70000D02*
D03*
Y-80000D02*
D03*
Y-90000D02*
D03*
Y-100000D02*
D03*
Y-110000D02*
D03*
Y-120000D02*
D03*
Y-130000D02*
D03*
X-10000D02*
D03*
X0Y-140000D02*
D03*
Y-150000D02*
D03*
Y-160000D02*
D03*
Y-170000D02*
D03*
X-261772Y-120000D02*
D03*
X-251772D02*
D03*
X-261772Y-130000D02*
D03*
X-251772D02*
D03*
X80551Y-30000D02*
D03*
Y-40000D02*
D03*
Y-50000D02*
D03*
X90551Y-60000D02*
D03*
X80551D02*
D03*
Y-70000D02*
D03*
X90551Y-80000D02*
D03*
X80551D02*
D03*
X90551Y-90000D02*
D03*
Y-100000D02*
D03*
X80551D02*
D03*
X90551Y-110000D02*
D03*
X80551D02*
D03*
X90551Y-120000D02*
D03*
X80551D02*
D03*
Y-130000D02*
D03*
X90551Y-140000D02*
D03*
X80551D02*
D03*
X90551Y-150000D02*
D03*
X80551D02*
D03*
X90551Y-160000D02*
D03*
X-10000Y-170000D02*
D03*
Y-160000D02*
D03*
Y-150000D02*
D03*
Y-140000D02*
D03*
Y-120000D02*
D03*
Y-110000D02*
D03*
Y-100000D02*
D03*
Y-90000D02*
D03*
Y-80000D02*
D03*
Y-70000D02*
D03*
Y-60000D02*
D03*
Y-50000D02*
D03*
Y-40000D02*
D03*
Y-30000D02*
D03*
Y-20000D02*
D03*
Y-10000D02*
D03*
Y0D02*
D03*
X-108425Y-170000D02*
D03*
Y-160000D02*
D03*
Y-150000D02*
D03*
Y-140000D02*
D03*
Y-130000D02*
D03*
Y-120000D02*
D03*
Y-110000D02*
D03*
Y-100000D02*
D03*
Y-80000D02*
D03*
X-98425D02*
D03*
X-108425Y-70000D02*
D03*
X-98425D02*
D03*
X-108425Y-60000D02*
D03*
X-98425D02*
D03*
X-108425Y-50000D02*
D03*
X-98425D02*
D03*
X-108425Y-40000D02*
D03*
X-98425D02*
D03*
X-108425Y-30000D02*
D03*
X-98425D02*
D03*
X-108425Y-20000D02*
D03*
X-98425D02*
D03*
X-108425Y-10000D02*
D03*
X-98425D02*
D03*
X-108425Y0D02*
D03*
X-251772Y-150000D02*
D03*
X-261772D02*
D03*
X-251772Y-140000D02*
D03*
X-261772D02*
D03*
X-251772Y-110000D02*
D03*
X-261772D02*
D03*
X-251772Y-100000D02*
D03*
X-261772D02*
D03*
X-251772Y-90000D02*
D03*
X-261772D02*
D03*
X-251772Y-80000D02*
D03*
X-261772D02*
D03*
X-251772Y-70000D02*
D03*
X-261772D02*
D03*
X-251772Y-60000D02*
D03*
X-261772D02*
D03*
X-251772Y-50000D02*
D03*
X-261772D02*
D03*
X-251772Y-40000D02*
D03*
X-261772D02*
D03*
X-251772Y-30000D02*
D03*
X-261772D02*
D03*
X-251772Y-20000D02*
D03*
X-261772D02*
D03*
X-251772Y-10000D02*
D03*
X-261772D02*
D03*
X-251772Y0D02*
D03*
D37*
X-162087Y-170000D02*
D03*
X90551Y0D02*
D03*
X0D02*
D03*
X-98425D02*
D03*
X-261772D02*
D03*
D38*
X-204724Y-29528D02*
D03*
X-224410D02*
D03*
Y-49213D02*
D03*
X-204724D02*
D03*
X-214567Y-39370D02*
D03*
D39*
X-129000Y-7000D02*
D03*
X-129500Y-47500D02*
D03*
X-130500Y-87000D02*
D03*
X-140500Y-154500D02*
D03*
X-128500Y-158500D02*
D03*
X-24500Y-18000D02*
D03*
X-26000Y-58516D02*
D03*
X56500Y-20000D02*
D03*
X57500Y-52000D02*
D03*
X-174500Y-145500D02*
D03*
X-186000Y-116000D02*
D03*
X-182000Y-124000D02*
D03*
X-157000Y-74000D02*
D03*
X-173000Y-30500D02*
D03*
X-183500Y-172000D02*
D03*
X-183000Y-20000D02*
D03*
Y-3500D02*
D03*
X-209000Y-10000D02*
D03*
X-140500Y-88500D02*
D03*
X-141000Y-1500D02*
D03*
X27500Y-9000D02*
D03*
X28500Y-41000D02*
D03*
X-13498Y-85000D02*
D03*
X-54364Y-92864D02*
D03*
X-54154Y-87347D02*
D03*
X-15500Y-46000D02*
D03*
X69500Y-29000D02*
D03*
X69000Y2000D02*
D03*
D40*
X-141000Y-53500D02*
D03*
X-45000Y-21000D02*
D03*
M02*
