G04*
G04 #@! TF.GenerationSoftware,Altium Limited,Altium Designer,22.4.2 (48)*
G04*
G04 Layer_Physical_Order=4*
G04 Layer_Color=16711680*
%FSLAX25Y25*%
%MOIN*%
G70*
G04*
G04 #@! TF.SameCoordinates,39428C79-78B4-4776-93AB-87EEE93D088D*
G04*
G04*
G04 #@! TF.FilePolarity,Positive*
G04*
G01*
G75*
%ADD10C,0.00984*%
%ADD33C,0.01968*%
%ADD34C,0.01575*%
%ADD36C,0.05906*%
%ADD37R,0.05906X0.05906*%
%ADD38C,0.09843*%
%ADD39C,0.04724*%
%ADD40C,0.06693*%
G36*
X95500Y-181896D02*
X-267500D01*
Y-118000D01*
X-265734D01*
X-265448Y-118403D01*
X-265462Y-118500D01*
X-265724Y-119480D01*
Y-120520D01*
X-265455Y-121526D01*
X-264935Y-122427D01*
X-264199Y-123163D01*
X-263297Y-123683D01*
X-262292Y-123953D01*
X-261251D01*
X-260246Y-123683D01*
X-259345Y-123163D01*
X-258609Y-122427D01*
X-258088Y-121526D01*
X-257819Y-120520D01*
Y-119480D01*
X-258081Y-118500D01*
X-258095Y-118403D01*
X-257810Y-118000D01*
X-255734D01*
X-255448Y-118403D01*
X-255462Y-118500D01*
X-255724Y-119480D01*
Y-120520D01*
X-255455Y-121526D01*
X-254935Y-122427D01*
X-254199Y-123163D01*
X-253297Y-123683D01*
X-252292Y-123953D01*
X-251251D01*
X-250246Y-123683D01*
X-249345Y-123163D01*
X-248609Y-122427D01*
X-248088Y-121526D01*
X-247819Y-120520D01*
Y-119480D01*
X-248081Y-118500D01*
X-248095Y-118403D01*
X-247810Y-118000D01*
X-246500D01*
Y-167000D01*
X-188000D01*
Y-107000D01*
X-166000Y-85000D01*
X-142222Y-85035D01*
X-142089Y-85535D01*
X-142564Y-85810D01*
X-143190Y-86436D01*
X-143633Y-87202D01*
X-143862Y-88057D01*
Y-88943D01*
X-143633Y-89798D01*
X-143190Y-90564D01*
X-142564Y-91190D01*
X-141798Y-91633D01*
X-140943Y-91862D01*
X-140057D01*
X-139202Y-91633D01*
X-138436Y-91190D01*
X-137810Y-90564D01*
X-137367Y-89798D01*
X-137138Y-88943D01*
Y-88057D01*
X-137367Y-87202D01*
X-137810Y-86436D01*
X-138436Y-85810D01*
X-138903Y-85540D01*
X-138769Y-85040D01*
X-133755Y-85047D01*
X-133505Y-85480D01*
X-133633Y-85702D01*
X-133862Y-86557D01*
Y-87443D01*
X-133633Y-88298D01*
X-133190Y-89064D01*
X-132564Y-89690D01*
X-131798Y-90133D01*
X-130943Y-90362D01*
X-130057D01*
X-129202Y-90133D01*
X-128436Y-89690D01*
X-127810Y-89064D01*
X-127367Y-88298D01*
X-127138Y-87443D01*
Y-86557D01*
X-127367Y-85702D01*
X-127490Y-85489D01*
X-127240Y-85057D01*
X-116807Y-85072D01*
X-89029Y-85113D01*
Y-111000D01*
X-88913Y-111585D01*
X-88581Y-112081D01*
X-88085Y-112413D01*
X-87500Y-112529D01*
X-38500D01*
X-37915Y-112413D01*
X-37419Y-112081D01*
X-22419Y-97081D01*
X-22087Y-96585D01*
X-21971Y-96000D01*
X-22087Y-95415D01*
X-22419Y-94919D01*
X-22915Y-94587D01*
X-23500Y-94471D01*
X-41000D01*
X-41585Y-94587D01*
X-42081Y-94919D01*
X-47633Y-100471D01*
X-75971D01*
Y-81029D01*
X-46633D01*
X-41581Y-86081D01*
X-41085Y-86413D01*
X-40500Y-86529D01*
X-24000D01*
X-23415Y-86413D01*
X-22919Y-86081D01*
X-22587Y-85585D01*
X-22471Y-85000D01*
X-22587Y-84415D01*
X-22919Y-83919D01*
X-37919Y-68919D01*
X-38415Y-68587D01*
X-39000Y-68471D01*
X-42317D01*
X-42509Y-68009D01*
X-15000Y-40500D01*
X-15000Y-36500D01*
X-12797D01*
X-12590Y-37000D01*
X-13163Y-37573D01*
X-13683Y-38474D01*
X-13953Y-39480D01*
Y-40520D01*
X-13683Y-41526D01*
X-13163Y-42427D01*
X-12427Y-43163D01*
X-11526Y-43683D01*
X-10520Y-43953D01*
X-9480D01*
X-8474Y-43683D01*
X-7573Y-43163D01*
X-6837Y-42427D01*
X-6317Y-41526D01*
X-6047Y-40520D01*
Y-39480D01*
X-6317Y-38474D01*
X-6837Y-37573D01*
X-7410Y-37000D01*
X-7203Y-36500D01*
X-2797D01*
X-2590Y-37000D01*
X-3163Y-37573D01*
X-3683Y-38474D01*
X-3953Y-39480D01*
Y-40520D01*
X-3683Y-41526D01*
X-3163Y-42427D01*
X-2427Y-43163D01*
X-1526Y-43683D01*
X-520Y-43953D01*
X520D01*
X1526Y-43683D01*
X2427Y-43163D01*
X3163Y-42427D01*
X3683Y-41526D01*
X3953Y-40520D01*
Y-39480D01*
X3683Y-38474D01*
X3163Y-37573D01*
X2590Y-37000D01*
X2797Y-36500D01*
X77754D01*
X77961Y-37000D01*
X77388Y-37573D01*
X76868Y-38474D01*
X76598Y-39480D01*
Y-40520D01*
X76868Y-41526D01*
X77388Y-42427D01*
X78124Y-43163D01*
X79026Y-43683D01*
X80031Y-43953D01*
X81072D01*
X82077Y-43683D01*
X82978Y-43163D01*
X83714Y-42427D01*
X84235Y-41526D01*
X84504Y-40520D01*
Y-39480D01*
X84235Y-38474D01*
X83714Y-37573D01*
X83141Y-37000D01*
X83348Y-36500D01*
X87754D01*
X87961Y-37000D01*
X87388Y-37573D01*
X86868Y-38474D01*
X86598Y-39480D01*
Y-40520D01*
X86868Y-41526D01*
X87388Y-42427D01*
X88124Y-43163D01*
X89025Y-43683D01*
X90031Y-43953D01*
X91072D01*
X92077Y-43683D01*
X92978Y-43163D01*
X93714Y-42427D01*
X94235Y-41526D01*
X94504Y-40520D01*
Y-39480D01*
X94235Y-38474D01*
X93714Y-37573D01*
X93141Y-37000D01*
X93348Y-36500D01*
X95500D01*
Y-181896D01*
D02*
G37*
%LPC*%
G36*
X91072Y-46047D02*
X90031D01*
X89025Y-46317D01*
X88124Y-46837D01*
X87388Y-47573D01*
X86868Y-48474D01*
X86598Y-49480D01*
Y-50520D01*
X86868Y-51526D01*
X87388Y-52427D01*
X88124Y-53163D01*
X89025Y-53683D01*
X90031Y-53953D01*
X91072D01*
X92077Y-53683D01*
X92978Y-53163D01*
X93714Y-52427D01*
X94235Y-51526D01*
X94504Y-50520D01*
Y-49480D01*
X94235Y-48474D01*
X93714Y-47573D01*
X92978Y-46837D01*
X92077Y-46317D01*
X91072Y-46047D01*
D02*
G37*
G36*
X81072D02*
X80031D01*
X79026Y-46317D01*
X78124Y-46837D01*
X77388Y-47573D01*
X76868Y-48474D01*
X76598Y-49480D01*
Y-50520D01*
X76868Y-51526D01*
X77388Y-52427D01*
X78124Y-53163D01*
X79026Y-53683D01*
X80031Y-53953D01*
X81072D01*
X82077Y-53683D01*
X82978Y-53163D01*
X83714Y-52427D01*
X84235Y-51526D01*
X84504Y-50520D01*
Y-49480D01*
X84235Y-48474D01*
X83714Y-47573D01*
X82978Y-46837D01*
X82077Y-46317D01*
X81072Y-46047D01*
D02*
G37*
G36*
X520D02*
X-520D01*
X-1526Y-46317D01*
X-2427Y-46837D01*
X-3163Y-47573D01*
X-3683Y-48474D01*
X-3953Y-49480D01*
Y-50520D01*
X-3683Y-51526D01*
X-3163Y-52427D01*
X-2427Y-53163D01*
X-1526Y-53683D01*
X-520Y-53953D01*
X520D01*
X1526Y-53683D01*
X2427Y-53163D01*
X3163Y-52427D01*
X3683Y-51526D01*
X3953Y-50520D01*
Y-49480D01*
X3683Y-48474D01*
X3163Y-47573D01*
X2427Y-46837D01*
X1526Y-46317D01*
X520Y-46047D01*
D02*
G37*
G36*
X-9480D02*
X-10520D01*
X-11526Y-46317D01*
X-12427Y-46837D01*
X-13163Y-47573D01*
X-13683Y-48474D01*
X-13953Y-49480D01*
Y-50520D01*
X-13683Y-51526D01*
X-13163Y-52427D01*
X-12427Y-53163D01*
X-11526Y-53683D01*
X-10520Y-53953D01*
X-9480D01*
X-8474Y-53683D01*
X-7573Y-53163D01*
X-6837Y-52427D01*
X-6317Y-51526D01*
X-6047Y-50520D01*
Y-49480D01*
X-6317Y-48474D01*
X-6837Y-47573D01*
X-7573Y-46837D01*
X-8474Y-46317D01*
X-9480Y-46047D01*
D02*
G37*
G36*
X57943Y-48638D02*
X57057D01*
X56202Y-48867D01*
X55436Y-49310D01*
X54810Y-49936D01*
X54367Y-50702D01*
X54138Y-51557D01*
Y-52443D01*
X54367Y-53298D01*
X54810Y-54064D01*
X55436Y-54690D01*
X56202Y-55133D01*
X57057Y-55362D01*
X57943D01*
X58798Y-55133D01*
X59564Y-54690D01*
X60190Y-54064D01*
X60633Y-53298D01*
X60862Y-52443D01*
Y-51557D01*
X60633Y-50702D01*
X60190Y-49936D01*
X59564Y-49310D01*
X58798Y-48867D01*
X57943Y-48638D01*
D02*
G37*
G36*
X-25557Y-55154D02*
X-26443D01*
X-27298Y-55383D01*
X-28064Y-55825D01*
X-28690Y-56451D01*
X-29133Y-57218D01*
X-29362Y-58073D01*
Y-58958D01*
X-29133Y-59813D01*
X-28690Y-60580D01*
X-28064Y-61206D01*
X-27298Y-61649D01*
X-26443Y-61878D01*
X-25557D01*
X-24702Y-61649D01*
X-23936Y-61206D01*
X-23310Y-60580D01*
X-22867Y-59813D01*
X-22638Y-58958D01*
Y-58073D01*
X-22867Y-57218D01*
X-23310Y-56451D01*
X-23936Y-55825D01*
X-24702Y-55383D01*
X-25557Y-55154D01*
D02*
G37*
G36*
X91072Y-56047D02*
X90031D01*
X89025Y-56317D01*
X88124Y-56837D01*
X87388Y-57573D01*
X86868Y-58474D01*
X86598Y-59480D01*
Y-60520D01*
X86868Y-61526D01*
X87388Y-62427D01*
X88124Y-63163D01*
X89025Y-63683D01*
X90031Y-63953D01*
X91072D01*
X92077Y-63683D01*
X92978Y-63163D01*
X93714Y-62427D01*
X94235Y-61526D01*
X94504Y-60520D01*
Y-59480D01*
X94235Y-58474D01*
X93714Y-57573D01*
X92978Y-56837D01*
X92077Y-56317D01*
X91072Y-56047D01*
D02*
G37*
G36*
X81072D02*
X80031D01*
X79026Y-56317D01*
X78124Y-56837D01*
X77388Y-57573D01*
X76868Y-58474D01*
X76598Y-59480D01*
Y-60520D01*
X76868Y-61526D01*
X77388Y-62427D01*
X78124Y-63163D01*
X79026Y-63683D01*
X80031Y-63953D01*
X81072D01*
X82077Y-63683D01*
X82978Y-63163D01*
X83714Y-62427D01*
X84235Y-61526D01*
X84504Y-60520D01*
Y-59480D01*
X84235Y-58474D01*
X83714Y-57573D01*
X82978Y-56837D01*
X82077Y-56317D01*
X81072Y-56047D01*
D02*
G37*
G36*
X520D02*
X-520D01*
X-1526Y-56317D01*
X-2427Y-56837D01*
X-3163Y-57573D01*
X-3683Y-58474D01*
X-3953Y-59480D01*
Y-60520D01*
X-3683Y-61526D01*
X-3163Y-62427D01*
X-2427Y-63163D01*
X-1526Y-63683D01*
X-520Y-63953D01*
X520D01*
X1526Y-63683D01*
X2427Y-63163D01*
X3163Y-62427D01*
X3683Y-61526D01*
X3953Y-60520D01*
Y-59480D01*
X3683Y-58474D01*
X3163Y-57573D01*
X2427Y-56837D01*
X1526Y-56317D01*
X520Y-56047D01*
D02*
G37*
G36*
X-9480D02*
X-10520D01*
X-11526Y-56317D01*
X-12427Y-56837D01*
X-13163Y-57573D01*
X-13683Y-58474D01*
X-13953Y-59480D01*
Y-60520D01*
X-13683Y-61526D01*
X-13163Y-62427D01*
X-12427Y-63163D01*
X-11526Y-63683D01*
X-10520Y-63953D01*
X-9480D01*
X-8474Y-63683D01*
X-7573Y-63163D01*
X-6837Y-62427D01*
X-6317Y-61526D01*
X-6047Y-60520D01*
Y-59480D01*
X-6317Y-58474D01*
X-6837Y-57573D01*
X-7573Y-56837D01*
X-8474Y-56317D01*
X-9480Y-56047D01*
D02*
G37*
G36*
X91072Y-66047D02*
X90031D01*
X89025Y-66317D01*
X88124Y-66837D01*
X87388Y-67573D01*
X86868Y-68474D01*
X86598Y-69480D01*
Y-70520D01*
X86868Y-71526D01*
X87388Y-72427D01*
X88124Y-73163D01*
X89025Y-73683D01*
X90031Y-73953D01*
X91072D01*
X92077Y-73683D01*
X92978Y-73163D01*
X93714Y-72427D01*
X94235Y-71526D01*
X94504Y-70520D01*
Y-69480D01*
X94235Y-68474D01*
X93714Y-67573D01*
X92978Y-66837D01*
X92077Y-66317D01*
X91072Y-66047D01*
D02*
G37*
G36*
X81072D02*
X80031D01*
X79026Y-66317D01*
X78124Y-66837D01*
X77388Y-67573D01*
X76868Y-68474D01*
X76598Y-69480D01*
Y-70520D01*
X76868Y-71526D01*
X77388Y-72427D01*
X78124Y-73163D01*
X79026Y-73683D01*
X80031Y-73953D01*
X81072D01*
X82077Y-73683D01*
X82978Y-73163D01*
X83714Y-72427D01*
X84235Y-71526D01*
X84504Y-70520D01*
Y-69480D01*
X84235Y-68474D01*
X83714Y-67573D01*
X82978Y-66837D01*
X82077Y-66317D01*
X81072Y-66047D01*
D02*
G37*
G36*
X520D02*
X-520D01*
X-1526Y-66317D01*
X-2427Y-66837D01*
X-3163Y-67573D01*
X-3683Y-68474D01*
X-3953Y-69480D01*
Y-70520D01*
X-3683Y-71526D01*
X-3163Y-72427D01*
X-2427Y-73163D01*
X-1526Y-73683D01*
X-520Y-73953D01*
X520D01*
X1526Y-73683D01*
X2427Y-73163D01*
X3163Y-72427D01*
X3683Y-71526D01*
X3953Y-70520D01*
Y-69480D01*
X3683Y-68474D01*
X3163Y-67573D01*
X2427Y-66837D01*
X1526Y-66317D01*
X520Y-66047D01*
D02*
G37*
G36*
X-9480D02*
X-10520D01*
X-11526Y-66317D01*
X-12427Y-66837D01*
X-13163Y-67573D01*
X-13683Y-68474D01*
X-13953Y-69480D01*
Y-70520D01*
X-13683Y-71526D01*
X-13163Y-72427D01*
X-12427Y-73163D01*
X-11526Y-73683D01*
X-10520Y-73953D01*
X-9480D01*
X-8474Y-73683D01*
X-7573Y-73163D01*
X-6837Y-72427D01*
X-6317Y-71526D01*
X-6047Y-70520D01*
Y-69480D01*
X-6317Y-68474D01*
X-6837Y-67573D01*
X-7573Y-66837D01*
X-8474Y-66317D01*
X-9480Y-66047D01*
D02*
G37*
G36*
X81072Y-76047D02*
X80031D01*
X79026Y-76317D01*
X78124Y-76837D01*
X77388Y-77573D01*
X76868Y-78474D01*
X76598Y-79480D01*
Y-80520D01*
X76868Y-81526D01*
X76870Y-81530D01*
X74921Y-83479D01*
X2819D01*
X2611Y-82979D01*
X3163Y-82427D01*
X3683Y-81526D01*
X3953Y-80520D01*
Y-79480D01*
X3683Y-78474D01*
X3163Y-77573D01*
X2427Y-76837D01*
X1526Y-76317D01*
X520Y-76047D01*
X-520D01*
X-1526Y-76317D01*
X-2427Y-76837D01*
X-3163Y-77573D01*
X-3683Y-78474D01*
X-3953Y-79480D01*
Y-80520D01*
X-3683Y-81526D01*
X-3163Y-82427D01*
X-2611Y-82979D01*
X-2819Y-83479D01*
X-7181D01*
X-7389Y-82979D01*
X-6837Y-82427D01*
X-6317Y-81526D01*
X-6047Y-80520D01*
Y-79480D01*
X-6317Y-78474D01*
X-6837Y-77573D01*
X-7573Y-76837D01*
X-8474Y-76317D01*
X-9480Y-76047D01*
X-10520D01*
X-11526Y-76317D01*
X-12427Y-76837D01*
X-13163Y-77573D01*
X-13683Y-78474D01*
X-13953Y-79480D01*
Y-80520D01*
X-13787Y-81138D01*
X-13935Y-81617D01*
X-14128Y-81688D01*
X-14796Y-81867D01*
X-15563Y-82310D01*
X-16189Y-82936D01*
X-16632Y-83702D01*
X-16861Y-84557D01*
Y-85443D01*
X-16632Y-86298D01*
X-16189Y-87064D01*
X-15563Y-87690D01*
X-14796Y-88133D01*
X-14128Y-88312D01*
X-13935Y-88383D01*
X-13787Y-88862D01*
X-13953Y-89480D01*
Y-90520D01*
X-13683Y-91526D01*
X-13163Y-92427D01*
X-12427Y-93163D01*
X-11526Y-93683D01*
X-10520Y-93953D01*
X-9480D01*
X-8474Y-93683D01*
X-7573Y-93163D01*
X-6837Y-92427D01*
X-6317Y-91526D01*
X-6047Y-90520D01*
Y-89480D01*
X-6317Y-88474D01*
X-6837Y-87573D01*
X-7389Y-87021D01*
X-7181Y-86521D01*
X-2819D01*
X-2611Y-87021D01*
X-3163Y-87573D01*
X-3683Y-88474D01*
X-3953Y-89480D01*
Y-90520D01*
X-3683Y-91526D01*
X-3163Y-92427D01*
X-2427Y-93163D01*
X-1526Y-93683D01*
X-520Y-93953D01*
X520D01*
X1526Y-93683D01*
X2427Y-93163D01*
X3163Y-92427D01*
X3683Y-91526D01*
X3953Y-90520D01*
Y-89480D01*
X3683Y-88474D01*
X3163Y-87573D01*
X2611Y-87021D01*
X2819Y-86521D01*
X75551D01*
X76133Y-86405D01*
X76627Y-86076D01*
X79022Y-83681D01*
X79026Y-83683D01*
X80031Y-83953D01*
X81072D01*
X82077Y-83683D01*
X82978Y-83163D01*
X83714Y-82427D01*
X84235Y-81526D01*
X84504Y-80520D01*
Y-79480D01*
X84235Y-78474D01*
X83714Y-77573D01*
X82978Y-76837D01*
X82077Y-76317D01*
X81072Y-76047D01*
D02*
G37*
G36*
X91072D02*
X90031D01*
X89025Y-76317D01*
X88124Y-76837D01*
X87388Y-77573D01*
X86868Y-78474D01*
X86598Y-79480D01*
Y-80520D01*
X86868Y-81526D01*
X87388Y-82427D01*
X88124Y-83163D01*
X89025Y-83683D01*
X90031Y-83953D01*
X91072D01*
X92077Y-83683D01*
X92978Y-83163D01*
X93714Y-82427D01*
X94235Y-81526D01*
X94504Y-80520D01*
Y-79480D01*
X94235Y-78474D01*
X93714Y-77573D01*
X92978Y-76837D01*
X92077Y-76317D01*
X91072Y-76047D01*
D02*
G37*
G36*
Y-86047D02*
X90031D01*
X89025Y-86317D01*
X88124Y-86837D01*
X87388Y-87573D01*
X86868Y-88474D01*
X86598Y-89480D01*
Y-90520D01*
X86868Y-91526D01*
X87388Y-92427D01*
X88124Y-93163D01*
X89025Y-93683D01*
X90031Y-93953D01*
X91072D01*
X92077Y-93683D01*
X92978Y-93163D01*
X93714Y-92427D01*
X94235Y-91526D01*
X94504Y-90520D01*
Y-89480D01*
X94235Y-88474D01*
X93714Y-87573D01*
X92978Y-86837D01*
X92077Y-86317D01*
X91072Y-86047D01*
D02*
G37*
G36*
X81072D02*
X80031D01*
X79026Y-86317D01*
X78124Y-86837D01*
X77388Y-87573D01*
X76868Y-88474D01*
X76598Y-89480D01*
Y-90520D01*
X76868Y-91526D01*
X77388Y-92427D01*
X78124Y-93163D01*
X79026Y-93683D01*
X80031Y-93953D01*
X81072D01*
X82077Y-93683D01*
X82978Y-93163D01*
X83714Y-92427D01*
X84235Y-91526D01*
X84504Y-90520D01*
Y-89480D01*
X84235Y-88474D01*
X83714Y-87573D01*
X82978Y-86837D01*
X82077Y-86317D01*
X81072Y-86047D01*
D02*
G37*
G36*
X-97905D02*
X-98946D01*
X-99951Y-86317D01*
X-100852Y-86837D01*
X-101588Y-87573D01*
X-102109Y-88474D01*
X-102378Y-89480D01*
Y-90520D01*
X-102109Y-91526D01*
X-101588Y-92427D01*
X-100852Y-93163D01*
X-99951Y-93683D01*
X-98946Y-93953D01*
X-97905D01*
X-96899Y-93683D01*
X-95998Y-93163D01*
X-95262Y-92427D01*
X-94742Y-91526D01*
X-94472Y-90520D01*
Y-89480D01*
X-94742Y-88474D01*
X-95262Y-87573D01*
X-95998Y-86837D01*
X-96899Y-86317D01*
X-97905Y-86047D01*
D02*
G37*
G36*
X-107905D02*
X-108946D01*
X-109951Y-86317D01*
X-110852Y-86837D01*
X-111588Y-87573D01*
X-112109Y-88474D01*
X-112378Y-89480D01*
Y-90520D01*
X-112109Y-91526D01*
X-111588Y-92427D01*
X-110852Y-93163D01*
X-109951Y-93683D01*
X-108946Y-93953D01*
X-107905D01*
X-106899Y-93683D01*
X-105998Y-93163D01*
X-105262Y-92427D01*
X-104742Y-91526D01*
X-104472Y-90520D01*
Y-89480D01*
X-104742Y-88474D01*
X-105262Y-87573D01*
X-105998Y-86837D01*
X-106899Y-86317D01*
X-107905Y-86047D01*
D02*
G37*
G36*
X-151567D02*
X-152607D01*
X-153613Y-86317D01*
X-154514Y-86837D01*
X-155250Y-87573D01*
X-155770Y-88474D01*
X-156040Y-89480D01*
Y-90520D01*
X-155770Y-91526D01*
X-155250Y-92427D01*
X-154514Y-93163D01*
X-153613Y-93683D01*
X-152607Y-93953D01*
X-151567D01*
X-150561Y-93683D01*
X-149660Y-93163D01*
X-148924Y-92427D01*
X-148404Y-91526D01*
X-148134Y-90520D01*
Y-89480D01*
X-148404Y-88474D01*
X-148924Y-87573D01*
X-149660Y-86837D01*
X-150561Y-86317D01*
X-151567Y-86047D01*
D02*
G37*
G36*
X-161566D02*
X-162607D01*
X-163613Y-86317D01*
X-164514Y-86837D01*
X-165250Y-87573D01*
X-165770Y-88474D01*
X-166040Y-89480D01*
Y-90520D01*
X-165770Y-91526D01*
X-165250Y-92427D01*
X-164514Y-93163D01*
X-163613Y-93683D01*
X-162607Y-93953D01*
X-161566D01*
X-160561Y-93683D01*
X-159660Y-93163D01*
X-158924Y-92427D01*
X-158404Y-91526D01*
X-158134Y-90520D01*
Y-89480D01*
X-158404Y-88474D01*
X-158924Y-87573D01*
X-159660Y-86837D01*
X-160561Y-86317D01*
X-161566Y-86047D01*
D02*
G37*
G36*
X-53922Y-89502D02*
X-54807D01*
X-55662Y-89731D01*
X-56429Y-90174D01*
X-57055Y-90800D01*
X-57497Y-91566D01*
X-57726Y-92422D01*
Y-93307D01*
X-57497Y-94162D01*
X-57055Y-94929D01*
X-56429Y-95555D01*
X-55662Y-95997D01*
X-54807Y-96226D01*
X-53922D01*
X-53066Y-95997D01*
X-52300Y-95555D01*
X-51674Y-94929D01*
X-51231Y-94162D01*
X-51002Y-93307D01*
Y-92422D01*
X-51231Y-91566D01*
X-51674Y-90800D01*
X-52300Y-90174D01*
X-53066Y-89731D01*
X-53922Y-89502D01*
D02*
G37*
G36*
X91072Y-96047D02*
X90031D01*
X89025Y-96317D01*
X88124Y-96837D01*
X87388Y-97573D01*
X86868Y-98474D01*
X86598Y-99480D01*
Y-100520D01*
X86868Y-101526D01*
X87388Y-102427D01*
X88124Y-103163D01*
X89025Y-103683D01*
X90031Y-103953D01*
X91072D01*
X92077Y-103683D01*
X92978Y-103163D01*
X93714Y-102427D01*
X94235Y-101526D01*
X94504Y-100520D01*
Y-99480D01*
X94235Y-98474D01*
X93714Y-97573D01*
X92978Y-96837D01*
X92077Y-96317D01*
X91072Y-96047D01*
D02*
G37*
G36*
X520D02*
X-520D01*
X-1526Y-96317D01*
X-2427Y-96837D01*
X-3163Y-97573D01*
X-3683Y-98474D01*
X-3953Y-99480D01*
Y-100520D01*
X-3683Y-101526D01*
X-3163Y-102427D01*
X-2427Y-103163D01*
X-1526Y-103683D01*
X-520Y-103953D01*
X520D01*
X1526Y-103683D01*
X2427Y-103163D01*
X3163Y-102427D01*
X3683Y-101526D01*
X3953Y-100520D01*
Y-99480D01*
X3683Y-98474D01*
X3163Y-97573D01*
X2427Y-96837D01*
X1526Y-96317D01*
X520Y-96047D01*
D02*
G37*
G36*
X-9480D02*
X-10520D01*
X-11526Y-96317D01*
X-12427Y-96837D01*
X-13163Y-97573D01*
X-13683Y-98474D01*
X-13953Y-99480D01*
Y-100520D01*
X-13683Y-101526D01*
X-13163Y-102427D01*
X-12427Y-103163D01*
X-11526Y-103683D01*
X-10520Y-103953D01*
X-9480D01*
X-8474Y-103683D01*
X-7573Y-103163D01*
X-6837Y-102427D01*
X-6317Y-101526D01*
X-6047Y-100520D01*
Y-99480D01*
X-6317Y-98474D01*
X-6837Y-97573D01*
X-7573Y-96837D01*
X-8474Y-96317D01*
X-9480Y-96047D01*
D02*
G37*
G36*
X-151567D02*
X-152607D01*
X-153613Y-96317D01*
X-154514Y-96837D01*
X-155250Y-97573D01*
X-155770Y-98474D01*
X-156040Y-99480D01*
Y-100520D01*
X-155770Y-101526D01*
X-155250Y-102427D01*
X-154514Y-103163D01*
X-153613Y-103683D01*
X-152607Y-103953D01*
X-151567D01*
X-150561Y-103683D01*
X-149660Y-103163D01*
X-148924Y-102427D01*
X-148404Y-101526D01*
X-148134Y-100520D01*
Y-99480D01*
X-148404Y-98474D01*
X-148924Y-97573D01*
X-149660Y-96837D01*
X-150561Y-96317D01*
X-151567Y-96047D01*
D02*
G37*
G36*
X-161566D02*
X-162607D01*
X-163613Y-96317D01*
X-164514Y-96837D01*
X-165250Y-97573D01*
X-165770Y-98474D01*
X-166040Y-99480D01*
Y-100520D01*
X-165770Y-101526D01*
X-165250Y-102427D01*
X-164514Y-103163D01*
X-163613Y-103683D01*
X-162607Y-103953D01*
X-161566D01*
X-160561Y-103683D01*
X-159660Y-103163D01*
X-158924Y-102427D01*
X-158404Y-101526D01*
X-158134Y-100520D01*
Y-99480D01*
X-158404Y-98474D01*
X-158924Y-97573D01*
X-159660Y-96837D01*
X-160561Y-96317D01*
X-161566Y-96047D01*
D02*
G37*
G36*
X91072Y-106047D02*
X90031D01*
X89025Y-106317D01*
X88124Y-106837D01*
X87388Y-107573D01*
X86868Y-108474D01*
X86598Y-109480D01*
Y-110520D01*
X86868Y-111526D01*
X87388Y-112427D01*
X88124Y-113163D01*
X89025Y-113683D01*
X90031Y-113953D01*
X91072D01*
X92077Y-113683D01*
X92978Y-113163D01*
X93714Y-112427D01*
X94235Y-111526D01*
X94504Y-110520D01*
Y-109480D01*
X94235Y-108474D01*
X93714Y-107573D01*
X92978Y-106837D01*
X92077Y-106317D01*
X91072Y-106047D01*
D02*
G37*
G36*
X520D02*
X-520D01*
X-1526Y-106317D01*
X-2427Y-106837D01*
X-3163Y-107573D01*
X-3683Y-108474D01*
X-3953Y-109480D01*
Y-110520D01*
X-3683Y-111526D01*
X-3163Y-112427D01*
X-2427Y-113163D01*
X-1526Y-113683D01*
X-520Y-113953D01*
X520D01*
X1526Y-113683D01*
X2427Y-113163D01*
X3163Y-112427D01*
X3683Y-111526D01*
X3953Y-110520D01*
Y-109480D01*
X3683Y-108474D01*
X3163Y-107573D01*
X2427Y-106837D01*
X1526Y-106317D01*
X520Y-106047D01*
D02*
G37*
G36*
X-9480D02*
X-10520D01*
X-11526Y-106317D01*
X-12427Y-106837D01*
X-13163Y-107573D01*
X-13683Y-108474D01*
X-13953Y-109480D01*
Y-110520D01*
X-13683Y-111526D01*
X-13163Y-112427D01*
X-12427Y-113163D01*
X-11526Y-113683D01*
X-10520Y-113953D01*
X-9480D01*
X-8474Y-113683D01*
X-7573Y-113163D01*
X-6837Y-112427D01*
X-6317Y-111526D01*
X-6047Y-110520D01*
Y-109480D01*
X-6317Y-108474D01*
X-6837Y-107573D01*
X-7573Y-106837D01*
X-8474Y-106317D01*
X-9480Y-106047D01*
D02*
G37*
G36*
X-151567D02*
X-152607D01*
X-153613Y-106317D01*
X-154514Y-106837D01*
X-155250Y-107573D01*
X-155770Y-108474D01*
X-156040Y-109480D01*
Y-110520D01*
X-155770Y-111526D01*
X-155250Y-112427D01*
X-154514Y-113163D01*
X-153613Y-113683D01*
X-152607Y-113953D01*
X-151567D01*
X-150561Y-113683D01*
X-149660Y-113163D01*
X-148924Y-112427D01*
X-148404Y-111526D01*
X-148134Y-110520D01*
Y-109480D01*
X-148404Y-108474D01*
X-148924Y-107573D01*
X-149660Y-106837D01*
X-150561Y-106317D01*
X-151567Y-106047D01*
D02*
G37*
G36*
X-161566D02*
X-162607D01*
X-163613Y-106317D01*
X-164514Y-106837D01*
X-165250Y-107573D01*
X-165770Y-108474D01*
X-166040Y-109480D01*
Y-110520D01*
X-165770Y-111526D01*
X-165250Y-112427D01*
X-164514Y-113163D01*
X-163613Y-113683D01*
X-162607Y-113953D01*
X-161566D01*
X-160561Y-113683D01*
X-159660Y-113163D01*
X-158924Y-112427D01*
X-158404Y-111526D01*
X-158134Y-110520D01*
Y-109480D01*
X-158404Y-108474D01*
X-158924Y-107573D01*
X-159660Y-106837D01*
X-160561Y-106317D01*
X-161566Y-106047D01*
D02*
G37*
G36*
X91072Y-116047D02*
X90031D01*
X89025Y-116317D01*
X88124Y-116837D01*
X87388Y-117573D01*
X86868Y-118474D01*
X86598Y-119480D01*
Y-120520D01*
X86868Y-121526D01*
X87388Y-122427D01*
X88124Y-123163D01*
X89025Y-123683D01*
X90031Y-123953D01*
X91072D01*
X92077Y-123683D01*
X92978Y-123163D01*
X93714Y-122427D01*
X94235Y-121526D01*
X94504Y-120520D01*
Y-119480D01*
X94235Y-118474D01*
X93714Y-117573D01*
X92978Y-116837D01*
X92077Y-116317D01*
X91072Y-116047D01*
D02*
G37*
G36*
X520D02*
X-520D01*
X-1526Y-116317D01*
X-2427Y-116837D01*
X-3163Y-117573D01*
X-3683Y-118474D01*
X-3953Y-119480D01*
Y-120520D01*
X-3683Y-121526D01*
X-3163Y-122427D01*
X-2427Y-123163D01*
X-1526Y-123683D01*
X-520Y-123953D01*
X520D01*
X1526Y-123683D01*
X2427Y-123163D01*
X3163Y-122427D01*
X3683Y-121526D01*
X3953Y-120520D01*
Y-119480D01*
X3683Y-118474D01*
X3163Y-117573D01*
X2427Y-116837D01*
X1526Y-116317D01*
X520Y-116047D01*
D02*
G37*
G36*
X-9480D02*
X-10520D01*
X-11526Y-116317D01*
X-12427Y-116837D01*
X-13163Y-117573D01*
X-13683Y-118474D01*
X-13953Y-119480D01*
Y-120520D01*
X-13683Y-121526D01*
X-13163Y-122427D01*
X-12427Y-123163D01*
X-11526Y-123683D01*
X-10520Y-123953D01*
X-9480D01*
X-8474Y-123683D01*
X-7573Y-123163D01*
X-6837Y-122427D01*
X-6317Y-121526D01*
X-6047Y-120520D01*
Y-119480D01*
X-6317Y-118474D01*
X-6837Y-117573D01*
X-7573Y-116837D01*
X-8474Y-116317D01*
X-9480Y-116047D01*
D02*
G37*
G36*
X-151567D02*
X-152607D01*
X-153613Y-116317D01*
X-154514Y-116837D01*
X-155250Y-117573D01*
X-155770Y-118474D01*
X-156040Y-119480D01*
Y-120520D01*
X-155770Y-121526D01*
X-155250Y-122427D01*
X-154514Y-123163D01*
X-153613Y-123683D01*
X-152607Y-123953D01*
X-151567D01*
X-150561Y-123683D01*
X-149660Y-123163D01*
X-148924Y-122427D01*
X-148404Y-121526D01*
X-148134Y-120520D01*
Y-119480D01*
X-148404Y-118474D01*
X-148924Y-117573D01*
X-149660Y-116837D01*
X-150561Y-116317D01*
X-151567Y-116047D01*
D02*
G37*
G36*
X-161566D02*
X-162607D01*
X-163613Y-116317D01*
X-164514Y-116837D01*
X-165250Y-117573D01*
X-165770Y-118474D01*
X-166040Y-119480D01*
Y-120520D01*
X-165770Y-121526D01*
X-165250Y-122427D01*
X-164514Y-123163D01*
X-163613Y-123683D01*
X-162607Y-123953D01*
X-161566D01*
X-160561Y-123683D01*
X-159660Y-123163D01*
X-158924Y-122427D01*
X-158404Y-121526D01*
X-158134Y-120520D01*
Y-119480D01*
X-158404Y-118474D01*
X-158924Y-117573D01*
X-159660Y-116837D01*
X-160561Y-116317D01*
X-161566Y-116047D01*
D02*
G37*
G36*
X-181557Y-120638D02*
X-182443D01*
X-183298Y-120867D01*
X-184064Y-121310D01*
X-184690Y-121936D01*
X-185133Y-122702D01*
X-185362Y-123557D01*
Y-124443D01*
X-185133Y-125298D01*
X-184690Y-126064D01*
X-184064Y-126690D01*
X-183298Y-127133D01*
X-182443Y-127362D01*
X-181557D01*
X-180702Y-127133D01*
X-179936Y-126690D01*
X-179310Y-126064D01*
X-178867Y-125298D01*
X-178638Y-124443D01*
Y-123557D01*
X-178867Y-122702D01*
X-179310Y-121936D01*
X-179936Y-121310D01*
X-180702Y-120867D01*
X-181557Y-120638D01*
D02*
G37*
G36*
X81072Y-96047D02*
X80031D01*
X79026Y-96317D01*
X78124Y-96837D01*
X77388Y-97573D01*
X76868Y-98474D01*
X76598Y-99480D01*
Y-100520D01*
X76779Y-101195D01*
X44796Y-133178D01*
X3120D01*
X2912Y-132678D01*
X3163Y-132427D01*
X3683Y-131526D01*
X3953Y-130520D01*
Y-129480D01*
X3683Y-128474D01*
X3163Y-127573D01*
X2427Y-126837D01*
X1526Y-126317D01*
X520Y-126047D01*
X-520D01*
X-1526Y-126317D01*
X-2427Y-126837D01*
X-3163Y-127573D01*
X-3683Y-128474D01*
X-3953Y-129480D01*
Y-130520D01*
X-3683Y-131526D01*
X-3163Y-132427D01*
X-2912Y-132678D01*
X-3120Y-133178D01*
X-6880D01*
X-7087Y-132678D01*
X-6837Y-132427D01*
X-6317Y-131526D01*
X-6047Y-130520D01*
Y-129480D01*
X-6317Y-128474D01*
X-6837Y-127573D01*
X-7573Y-126837D01*
X-8474Y-126317D01*
X-9480Y-126047D01*
X-10520D01*
X-11526Y-126317D01*
X-12427Y-126837D01*
X-13163Y-127573D01*
X-13683Y-128474D01*
X-13953Y-129480D01*
Y-130520D01*
X-13683Y-131526D01*
X-13163Y-132427D01*
X-12912Y-132678D01*
X-13120Y-133178D01*
X-71245D01*
X-90790Y-113633D01*
Y-106612D01*
X-90790Y-106612D01*
X-90929Y-105915D01*
X-91324Y-105324D01*
X-91324Y-105324D01*
X-93211Y-103436D01*
X-93803Y-103041D01*
X-94500Y-102902D01*
X-94500Y-102902D01*
X-95084D01*
X-95181Y-102666D01*
X-95248Y-102402D01*
X-94742Y-101526D01*
X-94472Y-100520D01*
Y-99480D01*
X-94742Y-98474D01*
X-95262Y-97573D01*
X-95998Y-96837D01*
X-96899Y-96317D01*
X-97905Y-96047D01*
X-98946D01*
X-99951Y-96317D01*
X-100852Y-96837D01*
X-101588Y-97573D01*
X-102109Y-98474D01*
X-102378Y-99480D01*
Y-100520D01*
X-102109Y-101526D01*
X-101603Y-102402D01*
X-101669Y-102666D01*
X-101767Y-102902D01*
X-102946D01*
X-104653Y-101195D01*
X-104472Y-100520D01*
Y-99480D01*
X-104742Y-98474D01*
X-105262Y-97573D01*
X-105998Y-96837D01*
X-106899Y-96317D01*
X-107905Y-96047D01*
X-108946D01*
X-109951Y-96317D01*
X-110852Y-96837D01*
X-111588Y-97573D01*
X-112109Y-98474D01*
X-112378Y-99480D01*
Y-100520D01*
X-112109Y-101526D01*
X-111588Y-102427D01*
X-110852Y-103163D01*
X-109951Y-103683D01*
X-108946Y-103953D01*
X-107905D01*
X-107230Y-103772D01*
X-104990Y-106013D01*
X-104989Y-106013D01*
X-104398Y-106408D01*
X-103701Y-106547D01*
X-101269D01*
X-101062Y-107047D01*
X-101588Y-107573D01*
X-102109Y-108474D01*
X-102378Y-109480D01*
Y-110520D01*
X-102109Y-111526D01*
X-101603Y-112402D01*
X-101669Y-112666D01*
X-101767Y-112902D01*
X-102946D01*
X-104653Y-111195D01*
X-104472Y-110520D01*
Y-109480D01*
X-104742Y-108474D01*
X-105262Y-107573D01*
X-105998Y-106837D01*
X-106899Y-106317D01*
X-107905Y-106047D01*
X-108946D01*
X-109951Y-106317D01*
X-110852Y-106837D01*
X-111588Y-107573D01*
X-112109Y-108474D01*
X-112378Y-109480D01*
Y-110520D01*
X-112109Y-111526D01*
X-111588Y-112427D01*
X-110852Y-113163D01*
X-109951Y-113683D01*
X-108946Y-113953D01*
X-107905D01*
X-107230Y-113772D01*
X-104990Y-116013D01*
X-104989Y-116013D01*
X-104398Y-116408D01*
X-103701Y-116547D01*
X-101269D01*
X-101062Y-117047D01*
X-101588Y-117573D01*
X-102109Y-118474D01*
X-102378Y-119480D01*
Y-120520D01*
X-102109Y-121526D01*
X-101603Y-122402D01*
X-101669Y-122667D01*
X-101767Y-122902D01*
X-102946D01*
X-104653Y-121195D01*
X-104472Y-120520D01*
Y-119480D01*
X-104742Y-118474D01*
X-105262Y-117573D01*
X-105998Y-116837D01*
X-106899Y-116317D01*
X-107905Y-116047D01*
X-108946D01*
X-109951Y-116317D01*
X-110852Y-116837D01*
X-111588Y-117573D01*
X-112109Y-118474D01*
X-112378Y-119480D01*
Y-120520D01*
X-112109Y-121526D01*
X-111588Y-122427D01*
X-110852Y-123163D01*
X-109951Y-123683D01*
X-108946Y-123953D01*
X-107905D01*
X-107230Y-123772D01*
X-104990Y-126013D01*
X-104989Y-126013D01*
X-104398Y-126408D01*
X-103701Y-126547D01*
X-101269D01*
X-101062Y-127047D01*
X-101588Y-127573D01*
X-102109Y-128474D01*
X-102378Y-129480D01*
Y-130520D01*
X-102109Y-131526D01*
X-101603Y-132402D01*
X-101669Y-132667D01*
X-101767Y-132902D01*
X-102946D01*
X-104653Y-131195D01*
X-104472Y-130520D01*
Y-129480D01*
X-104742Y-128474D01*
X-105262Y-127573D01*
X-105998Y-126837D01*
X-106899Y-126317D01*
X-107905Y-126047D01*
X-108946D01*
X-109951Y-126317D01*
X-110852Y-126837D01*
X-111588Y-127573D01*
X-112109Y-128474D01*
X-112378Y-129480D01*
Y-130520D01*
X-112109Y-131526D01*
X-111588Y-132427D01*
X-110852Y-133163D01*
X-109951Y-133683D01*
X-108946Y-133953D01*
X-107905D01*
X-107230Y-133772D01*
X-104990Y-136013D01*
X-104989Y-136013D01*
X-104398Y-136408D01*
X-103701Y-136547D01*
X-101269D01*
X-101062Y-137047D01*
X-101588Y-137573D01*
X-102109Y-138474D01*
X-102378Y-139480D01*
Y-140520D01*
X-102109Y-141526D01*
X-101603Y-142402D01*
X-101669Y-142666D01*
X-101767Y-142902D01*
X-102946D01*
X-104653Y-141195D01*
X-104472Y-140520D01*
Y-139480D01*
X-104742Y-138474D01*
X-105262Y-137573D01*
X-105998Y-136837D01*
X-106899Y-136317D01*
X-107905Y-136047D01*
X-108946D01*
X-109951Y-136317D01*
X-110852Y-136837D01*
X-111588Y-137573D01*
X-112109Y-138474D01*
X-112378Y-139480D01*
Y-140520D01*
X-112109Y-141526D01*
X-111588Y-142427D01*
X-110852Y-143163D01*
X-109951Y-143683D01*
X-108946Y-143953D01*
X-107905D01*
X-107230Y-143772D01*
X-104990Y-146013D01*
X-104989Y-146013D01*
X-104398Y-146408D01*
X-103701Y-146547D01*
X-101269D01*
X-101062Y-147047D01*
X-101588Y-147573D01*
X-102109Y-148474D01*
X-102378Y-149480D01*
Y-150520D01*
X-102109Y-151526D01*
X-101603Y-152402D01*
X-101669Y-152666D01*
X-101767Y-152902D01*
X-102946D01*
X-104653Y-151195D01*
X-104472Y-150520D01*
Y-149480D01*
X-104742Y-148474D01*
X-105262Y-147573D01*
X-105998Y-146837D01*
X-106899Y-146317D01*
X-107905Y-146047D01*
X-108946D01*
X-109951Y-146317D01*
X-110852Y-146837D01*
X-111588Y-147573D01*
X-112109Y-148474D01*
X-112378Y-149480D01*
Y-150520D01*
X-112109Y-151526D01*
X-111588Y-152427D01*
X-110852Y-153163D01*
X-109951Y-153683D01*
X-108946Y-153953D01*
X-107905D01*
X-107230Y-153772D01*
X-104990Y-156013D01*
X-104989Y-156013D01*
X-104398Y-156408D01*
X-103701Y-156547D01*
X-101269D01*
X-101062Y-157047D01*
X-101588Y-157573D01*
X-102109Y-158474D01*
X-102378Y-159480D01*
Y-160520D01*
X-102109Y-161526D01*
X-101588Y-162427D01*
X-100852Y-163163D01*
X-99951Y-163683D01*
X-98946Y-163953D01*
X-97905D01*
X-96899Y-163683D01*
X-95998Y-163163D01*
X-95262Y-162427D01*
X-94742Y-161526D01*
X-94472Y-160520D01*
Y-159536D01*
X-94213Y-159330D01*
X-94060Y-159242D01*
X-72513Y-180789D01*
X-72513Y-180789D01*
X-71922Y-181184D01*
X-71224Y-181322D01*
X-71224Y-181322D01*
X51051D01*
X51051Y-181322D01*
X51749Y-181184D01*
X52340Y-180789D01*
X79356Y-153772D01*
X80031Y-153953D01*
X81072D01*
X82077Y-153683D01*
X82978Y-153163D01*
X83714Y-152427D01*
X84235Y-151526D01*
X84504Y-150520D01*
Y-149480D01*
X84235Y-148474D01*
X83714Y-147573D01*
X82978Y-146837D01*
X82077Y-146317D01*
X81072Y-146047D01*
X80031D01*
X79026Y-146317D01*
X78124Y-146837D01*
X77388Y-147573D01*
X76868Y-148474D01*
X76598Y-149480D01*
Y-150520D01*
X76779Y-151195D01*
X50296Y-177678D01*
X46108D01*
X45951Y-177178D01*
X79356Y-143772D01*
X80031Y-143953D01*
X81072D01*
X82077Y-143683D01*
X82978Y-143163D01*
X83714Y-142427D01*
X84235Y-141526D01*
X84504Y-140520D01*
Y-139480D01*
X84235Y-138474D01*
X83714Y-137573D01*
X82978Y-136837D01*
X82077Y-136317D01*
X81072Y-136047D01*
X80031D01*
X79026Y-136317D01*
X78124Y-136837D01*
X77388Y-137573D01*
X76868Y-138474D01*
X76598Y-139480D01*
Y-140520D01*
X76779Y-141195D01*
X43796Y-174178D01*
X1613D01*
X1526Y-173683D01*
X2427Y-173163D01*
X3163Y-172427D01*
X3683Y-171526D01*
X3953Y-170520D01*
Y-169480D01*
X3683Y-168474D01*
X3163Y-167573D01*
X2912Y-167322D01*
X3120Y-166822D01*
X45551D01*
X45551Y-166822D01*
X46249Y-166684D01*
X46840Y-166289D01*
X79356Y-133772D01*
X80031Y-133953D01*
X81072D01*
X82077Y-133683D01*
X82978Y-133163D01*
X83714Y-132427D01*
X84235Y-131526D01*
X84504Y-130520D01*
Y-129480D01*
X84235Y-128474D01*
X83714Y-127573D01*
X82978Y-126837D01*
X82077Y-126317D01*
X81072Y-126047D01*
X80031D01*
X79026Y-126317D01*
X78124Y-126837D01*
X77388Y-127573D01*
X76868Y-128474D01*
X76598Y-129480D01*
Y-130520D01*
X76779Y-131195D01*
X44796Y-163178D01*
X3120D01*
X2912Y-162678D01*
X3163Y-162427D01*
X3683Y-161526D01*
X3953Y-160520D01*
Y-159480D01*
X3683Y-158474D01*
X3163Y-157573D01*
X2912Y-157322D01*
X3120Y-156822D01*
X45551D01*
X45551Y-156822D01*
X46249Y-156684D01*
X46840Y-156289D01*
X79356Y-123772D01*
X80031Y-123953D01*
X81072D01*
X82077Y-123683D01*
X82978Y-123163D01*
X83714Y-122427D01*
X84235Y-121526D01*
X84504Y-120520D01*
Y-119480D01*
X84235Y-118474D01*
X83714Y-117573D01*
X82978Y-116837D01*
X82077Y-116317D01*
X81072Y-116047D01*
X80031D01*
X79026Y-116317D01*
X78124Y-116837D01*
X77388Y-117573D01*
X76868Y-118474D01*
X76598Y-119480D01*
Y-120520D01*
X76779Y-121195D01*
X44796Y-153178D01*
X3120D01*
X2912Y-152678D01*
X3163Y-152427D01*
X3683Y-151526D01*
X3953Y-150520D01*
Y-149480D01*
X3683Y-148474D01*
X3163Y-147573D01*
X2912Y-147322D01*
X3120Y-146822D01*
X45551D01*
X45551Y-146822D01*
X46249Y-146684D01*
X46840Y-146289D01*
X79356Y-113772D01*
X80031Y-113953D01*
X81072D01*
X82077Y-113683D01*
X82978Y-113163D01*
X83714Y-112427D01*
X84235Y-111526D01*
X84504Y-110520D01*
Y-109480D01*
X84235Y-108474D01*
X83714Y-107573D01*
X82978Y-106837D01*
X82077Y-106317D01*
X81072Y-106047D01*
X80031D01*
X79026Y-106317D01*
X78124Y-106837D01*
X77388Y-107573D01*
X76868Y-108474D01*
X76598Y-109480D01*
Y-110520D01*
X76779Y-111195D01*
X44796Y-143178D01*
X3120D01*
X2912Y-142678D01*
X3163Y-142427D01*
X3683Y-141526D01*
X3953Y-140520D01*
Y-139480D01*
X3683Y-138474D01*
X3163Y-137573D01*
X2912Y-137322D01*
X3120Y-136822D01*
X45551D01*
X45551Y-136822D01*
X46249Y-136684D01*
X46840Y-136289D01*
X79356Y-103772D01*
X80031Y-103953D01*
X81072D01*
X82077Y-103683D01*
X82978Y-103163D01*
X83714Y-102427D01*
X84235Y-101526D01*
X84504Y-100520D01*
Y-99480D01*
X84235Y-98474D01*
X83714Y-97573D01*
X82978Y-96837D01*
X82077Y-96317D01*
X81072Y-96047D01*
D02*
G37*
G36*
X91072Y-126047D02*
X90031D01*
X89025Y-126317D01*
X88124Y-126837D01*
X87388Y-127573D01*
X86868Y-128474D01*
X86598Y-129480D01*
Y-130520D01*
X86868Y-131526D01*
X87388Y-132427D01*
X88124Y-133163D01*
X89025Y-133683D01*
X90031Y-133953D01*
X91072D01*
X92077Y-133683D01*
X92978Y-133163D01*
X93714Y-132427D01*
X94235Y-131526D01*
X94504Y-130520D01*
Y-129480D01*
X94235Y-128474D01*
X93714Y-127573D01*
X92978Y-126837D01*
X92077Y-126317D01*
X91072Y-126047D01*
D02*
G37*
G36*
X-151567D02*
X-152607D01*
X-153613Y-126317D01*
X-154514Y-126837D01*
X-155250Y-127573D01*
X-155770Y-128474D01*
X-156040Y-129480D01*
Y-130520D01*
X-155770Y-131526D01*
X-155250Y-132427D01*
X-154514Y-133163D01*
X-153613Y-133683D01*
X-152607Y-133953D01*
X-151567D01*
X-150561Y-133683D01*
X-149660Y-133163D01*
X-148924Y-132427D01*
X-148404Y-131526D01*
X-148134Y-130520D01*
Y-129480D01*
X-148404Y-128474D01*
X-148924Y-127573D01*
X-149660Y-126837D01*
X-150561Y-126317D01*
X-151567Y-126047D01*
D02*
G37*
G36*
X-161566D02*
X-162607D01*
X-163613Y-126317D01*
X-164514Y-126837D01*
X-165250Y-127573D01*
X-165770Y-128474D01*
X-166040Y-129480D01*
Y-130520D01*
X-165770Y-131526D01*
X-165250Y-132427D01*
X-164514Y-133163D01*
X-163613Y-133683D01*
X-162607Y-133953D01*
X-161566D01*
X-160561Y-133683D01*
X-159660Y-133163D01*
X-158924Y-132427D01*
X-158404Y-131526D01*
X-158134Y-130520D01*
Y-129480D01*
X-158404Y-128474D01*
X-158924Y-127573D01*
X-159660Y-126837D01*
X-160561Y-126317D01*
X-161566Y-126047D01*
D02*
G37*
G36*
X-251251D02*
X-252292D01*
X-253297Y-126317D01*
X-254199Y-126837D01*
X-254935Y-127573D01*
X-255455Y-128474D01*
X-255724Y-129480D01*
Y-130520D01*
X-255455Y-131526D01*
X-254935Y-132427D01*
X-254199Y-133163D01*
X-253297Y-133683D01*
X-252292Y-133953D01*
X-251251D01*
X-250246Y-133683D01*
X-249345Y-133163D01*
X-248609Y-132427D01*
X-248088Y-131526D01*
X-247819Y-130520D01*
Y-129480D01*
X-248088Y-128474D01*
X-248609Y-127573D01*
X-249345Y-126837D01*
X-250246Y-126317D01*
X-251251Y-126047D01*
D02*
G37*
G36*
X-261251D02*
X-262292D01*
X-263297Y-126317D01*
X-264199Y-126837D01*
X-264935Y-127573D01*
X-265455Y-128474D01*
X-265724Y-129480D01*
Y-130520D01*
X-265455Y-131526D01*
X-264935Y-132427D01*
X-264199Y-133163D01*
X-263297Y-133683D01*
X-262292Y-133953D01*
X-261251D01*
X-260246Y-133683D01*
X-259345Y-133163D01*
X-258609Y-132427D01*
X-258088Y-131526D01*
X-257819Y-130520D01*
Y-129480D01*
X-258088Y-128474D01*
X-258609Y-127573D01*
X-259345Y-126837D01*
X-260246Y-126317D01*
X-261251Y-126047D01*
D02*
G37*
G36*
X91072Y-136047D02*
X90031D01*
X89025Y-136317D01*
X88124Y-136837D01*
X87388Y-137573D01*
X86868Y-138474D01*
X86598Y-139480D01*
Y-140520D01*
X86868Y-141526D01*
X87388Y-142427D01*
X88124Y-143163D01*
X89025Y-143683D01*
X90031Y-143953D01*
X91072D01*
X92077Y-143683D01*
X92978Y-143163D01*
X93714Y-142427D01*
X94235Y-141526D01*
X94504Y-140520D01*
Y-139480D01*
X94235Y-138474D01*
X93714Y-137573D01*
X92978Y-136837D01*
X92077Y-136317D01*
X91072Y-136047D01*
D02*
G37*
G36*
X-151567D02*
X-152607D01*
X-153613Y-136317D01*
X-154514Y-136837D01*
X-155250Y-137573D01*
X-155770Y-138474D01*
X-156040Y-139480D01*
Y-140520D01*
X-155770Y-141526D01*
X-155250Y-142427D01*
X-154514Y-143163D01*
X-153613Y-143683D01*
X-152607Y-143953D01*
X-151567D01*
X-150561Y-143683D01*
X-149660Y-143163D01*
X-148924Y-142427D01*
X-148404Y-141526D01*
X-148134Y-140520D01*
Y-139480D01*
X-148404Y-138474D01*
X-148924Y-137573D01*
X-149660Y-136837D01*
X-150561Y-136317D01*
X-151567Y-136047D01*
D02*
G37*
G36*
X-161566D02*
X-162607D01*
X-163613Y-136317D01*
X-164514Y-136837D01*
X-165250Y-137573D01*
X-165770Y-138474D01*
X-166040Y-139480D01*
Y-140520D01*
X-165770Y-141526D01*
X-165250Y-142427D01*
X-164514Y-143163D01*
X-163613Y-143683D01*
X-162607Y-143953D01*
X-161566D01*
X-160561Y-143683D01*
X-159660Y-143163D01*
X-158924Y-142427D01*
X-158404Y-141526D01*
X-158134Y-140520D01*
Y-139480D01*
X-158404Y-138474D01*
X-158924Y-137573D01*
X-159660Y-136837D01*
X-160561Y-136317D01*
X-161566Y-136047D01*
D02*
G37*
G36*
X-174057Y-142138D02*
X-174943D01*
X-175798Y-142367D01*
X-176564Y-142810D01*
X-177190Y-143436D01*
X-177633Y-144202D01*
X-177862Y-145057D01*
Y-145943D01*
X-177633Y-146798D01*
X-177190Y-147564D01*
X-176564Y-148190D01*
X-175798Y-148633D01*
X-174943Y-148862D01*
X-174057D01*
X-173202Y-148633D01*
X-172436Y-148190D01*
X-171810Y-147564D01*
X-171367Y-146798D01*
X-171138Y-145943D01*
Y-145057D01*
X-171367Y-144202D01*
X-171810Y-143436D01*
X-172436Y-142810D01*
X-173202Y-142367D01*
X-174057Y-142138D01*
D02*
G37*
G36*
X91072Y-146047D02*
X90031D01*
X89025Y-146317D01*
X88124Y-146837D01*
X87388Y-147573D01*
X86868Y-148474D01*
X86598Y-149480D01*
Y-150520D01*
X86868Y-151526D01*
X87388Y-152427D01*
X88124Y-153163D01*
X89025Y-153683D01*
X90031Y-153953D01*
X91072D01*
X92077Y-153683D01*
X92978Y-153163D01*
X93714Y-152427D01*
X94235Y-151526D01*
X94504Y-150520D01*
Y-149480D01*
X94235Y-148474D01*
X93714Y-147573D01*
X92978Y-146837D01*
X92077Y-146317D01*
X91072Y-146047D01*
D02*
G37*
G36*
X-151567D02*
X-152607D01*
X-153613Y-146317D01*
X-154514Y-146837D01*
X-155250Y-147573D01*
X-155770Y-148474D01*
X-156040Y-149480D01*
Y-150520D01*
X-155770Y-151526D01*
X-155250Y-152427D01*
X-154514Y-153163D01*
X-153613Y-153683D01*
X-152607Y-153953D01*
X-151567D01*
X-150561Y-153683D01*
X-149660Y-153163D01*
X-148924Y-152427D01*
X-148404Y-151526D01*
X-148134Y-150520D01*
Y-149480D01*
X-148404Y-148474D01*
X-148924Y-147573D01*
X-149660Y-146837D01*
X-150561Y-146317D01*
X-151567Y-146047D01*
D02*
G37*
G36*
X-161566D02*
X-162607D01*
X-163613Y-146317D01*
X-164514Y-146837D01*
X-165250Y-147573D01*
X-165770Y-148474D01*
X-166040Y-149480D01*
Y-150520D01*
X-165770Y-151526D01*
X-165250Y-152427D01*
X-164514Y-153163D01*
X-163613Y-153683D01*
X-162607Y-153953D01*
X-161566D01*
X-160561Y-153683D01*
X-159660Y-153163D01*
X-158924Y-152427D01*
X-158404Y-151526D01*
X-158134Y-150520D01*
Y-149480D01*
X-158404Y-148474D01*
X-158924Y-147573D01*
X-159660Y-146837D01*
X-160561Y-146317D01*
X-161566Y-146047D01*
D02*
G37*
G36*
X-128057Y-155138D02*
X-128943D01*
X-129798Y-155367D01*
X-130564Y-155810D01*
X-131190Y-156436D01*
X-131633Y-157202D01*
X-131862Y-158057D01*
Y-158943D01*
X-131633Y-159798D01*
X-131190Y-160564D01*
X-130564Y-161190D01*
X-129798Y-161633D01*
X-128943Y-161862D01*
X-128057D01*
X-127202Y-161633D01*
X-126436Y-161190D01*
X-125810Y-160564D01*
X-125367Y-159798D01*
X-125138Y-158943D01*
Y-158057D01*
X-125367Y-157202D01*
X-125810Y-156436D01*
X-126436Y-155810D01*
X-127202Y-155367D01*
X-128057Y-155138D01*
D02*
G37*
G36*
X91072Y-156047D02*
X90031D01*
X89025Y-156317D01*
X88124Y-156837D01*
X87388Y-157573D01*
X86868Y-158474D01*
X86598Y-159480D01*
Y-160520D01*
X86868Y-161526D01*
X87388Y-162427D01*
X88124Y-163163D01*
X89025Y-163683D01*
X90031Y-163953D01*
X91072D01*
X92077Y-163683D01*
X92978Y-163163D01*
X93714Y-162427D01*
X94235Y-161526D01*
X94504Y-160520D01*
Y-159480D01*
X94235Y-158474D01*
X93714Y-157573D01*
X92978Y-156837D01*
X92077Y-156317D01*
X91072Y-156047D01*
D02*
G37*
G36*
X81072D02*
X80031D01*
X79026Y-156317D01*
X78124Y-156837D01*
X77388Y-157573D01*
X76868Y-158474D01*
X76598Y-159480D01*
Y-160520D01*
X76868Y-161526D01*
X77388Y-162427D01*
X78124Y-163163D01*
X79026Y-163683D01*
X80031Y-163953D01*
X81072D01*
X82077Y-163683D01*
X82978Y-163163D01*
X83714Y-162427D01*
X84235Y-161526D01*
X84504Y-160520D01*
Y-159480D01*
X84235Y-158474D01*
X83714Y-157573D01*
X82978Y-156837D01*
X82077Y-156317D01*
X81072Y-156047D01*
D02*
G37*
G36*
X-107905D02*
X-108946D01*
X-109951Y-156317D01*
X-110852Y-156837D01*
X-111588Y-157573D01*
X-112109Y-158474D01*
X-112378Y-159480D01*
Y-160520D01*
X-112109Y-161526D01*
X-111588Y-162427D01*
X-110852Y-163163D01*
X-109951Y-163683D01*
X-108946Y-163953D01*
X-107905D01*
X-106899Y-163683D01*
X-105998Y-163163D01*
X-105262Y-162427D01*
X-104742Y-161526D01*
X-104472Y-160520D01*
Y-159480D01*
X-104742Y-158474D01*
X-105262Y-157573D01*
X-105998Y-156837D01*
X-106899Y-156317D01*
X-107905Y-156047D01*
D02*
G37*
G36*
X-151567D02*
X-152607D01*
X-153613Y-156317D01*
X-154514Y-156837D01*
X-155250Y-157573D01*
X-155770Y-158474D01*
X-156040Y-159480D01*
Y-160520D01*
X-155770Y-161526D01*
X-155250Y-162427D01*
X-154514Y-163163D01*
X-153613Y-163683D01*
X-152607Y-163953D01*
X-151567D01*
X-150561Y-163683D01*
X-149660Y-163163D01*
X-148924Y-162427D01*
X-148404Y-161526D01*
X-148134Y-160520D01*
Y-159480D01*
X-148404Y-158474D01*
X-148924Y-157573D01*
X-149660Y-156837D01*
X-150561Y-156317D01*
X-151567Y-156047D01*
D02*
G37*
G36*
X-161566D02*
X-162607D01*
X-163613Y-156317D01*
X-164514Y-156837D01*
X-165250Y-157573D01*
X-165770Y-158474D01*
X-166040Y-159480D01*
Y-160520D01*
X-165770Y-161526D01*
X-165250Y-162427D01*
X-164514Y-163163D01*
X-163613Y-163683D01*
X-162607Y-163953D01*
X-161566D01*
X-160561Y-163683D01*
X-159660Y-163163D01*
X-158924Y-162427D01*
X-158404Y-161526D01*
X-158134Y-160520D01*
Y-159480D01*
X-158404Y-158474D01*
X-158924Y-157573D01*
X-159660Y-156837D01*
X-160561Y-156317D01*
X-161566Y-156047D01*
D02*
G37*
G36*
X-251251D02*
X-252292D01*
X-253297Y-156317D01*
X-254199Y-156837D01*
X-254935Y-157573D01*
X-255455Y-158474D01*
X-255724Y-159480D01*
Y-160520D01*
X-255455Y-161526D01*
X-254935Y-162427D01*
X-254199Y-163163D01*
X-253297Y-163683D01*
X-252292Y-163953D01*
X-251251D01*
X-250246Y-163683D01*
X-249345Y-163163D01*
X-248609Y-162427D01*
X-248088Y-161526D01*
X-247819Y-160520D01*
Y-159480D01*
X-248088Y-158474D01*
X-248609Y-157573D01*
X-249345Y-156837D01*
X-250246Y-156317D01*
X-251251Y-156047D01*
D02*
G37*
G36*
X-261251D02*
X-262292D01*
X-263297Y-156317D01*
X-264199Y-156837D01*
X-264935Y-157573D01*
X-265455Y-158474D01*
X-265724Y-159480D01*
Y-160520D01*
X-265455Y-161526D01*
X-264935Y-162427D01*
X-264199Y-163163D01*
X-263297Y-163683D01*
X-262292Y-163953D01*
X-261251D01*
X-260246Y-163683D01*
X-259345Y-163163D01*
X-258609Y-162427D01*
X-258088Y-161526D01*
X-257819Y-160520D01*
Y-159480D01*
X-258088Y-158474D01*
X-258609Y-157573D01*
X-259345Y-156837D01*
X-260246Y-156317D01*
X-261251Y-156047D01*
D02*
G37*
G36*
X91072Y-166047D02*
X90031D01*
X89025Y-166317D01*
X88124Y-166837D01*
X87388Y-167573D01*
X86868Y-168474D01*
X86598Y-169480D01*
Y-170520D01*
X86868Y-171526D01*
X87388Y-172427D01*
X88124Y-173163D01*
X89025Y-173683D01*
X90031Y-173953D01*
X91072D01*
X92077Y-173683D01*
X92978Y-173163D01*
X93714Y-172427D01*
X94235Y-171526D01*
X94504Y-170520D01*
Y-169480D01*
X94235Y-168474D01*
X93714Y-167573D01*
X92978Y-166837D01*
X92077Y-166317D01*
X91072Y-166047D01*
D02*
G37*
G36*
X81072D02*
X80031D01*
X79026Y-166317D01*
X78124Y-166837D01*
X77388Y-167573D01*
X76868Y-168474D01*
X76598Y-169480D01*
Y-170520D01*
X76868Y-171526D01*
X77388Y-172427D01*
X78124Y-173163D01*
X79026Y-173683D01*
X80031Y-173953D01*
X81072D01*
X82077Y-173683D01*
X82978Y-173163D01*
X83714Y-172427D01*
X84235Y-171526D01*
X84504Y-170520D01*
Y-169480D01*
X84235Y-168474D01*
X83714Y-167573D01*
X82978Y-166837D01*
X82077Y-166317D01*
X81072Y-166047D01*
D02*
G37*
G36*
X-97905D02*
X-98946D01*
X-99951Y-166317D01*
X-100852Y-166837D01*
X-101588Y-167573D01*
X-102109Y-168474D01*
X-102378Y-169480D01*
Y-170520D01*
X-102109Y-171526D01*
X-101588Y-172427D01*
X-100852Y-173163D01*
X-99951Y-173683D01*
X-98946Y-173953D01*
X-97905D01*
X-96899Y-173683D01*
X-95998Y-173163D01*
X-95262Y-172427D01*
X-94742Y-171526D01*
X-94472Y-170520D01*
Y-169480D01*
X-94742Y-168474D01*
X-95262Y-167573D01*
X-95998Y-166837D01*
X-96899Y-166317D01*
X-97905Y-166047D01*
D02*
G37*
G36*
X-107905D02*
X-108946D01*
X-109951Y-166317D01*
X-110852Y-166837D01*
X-111588Y-167573D01*
X-112109Y-168474D01*
X-112378Y-169480D01*
Y-170520D01*
X-112109Y-171526D01*
X-111588Y-172427D01*
X-110852Y-173163D01*
X-109951Y-173683D01*
X-108946Y-173953D01*
X-107905D01*
X-106899Y-173683D01*
X-105998Y-173163D01*
X-105262Y-172427D01*
X-104742Y-171526D01*
X-104472Y-170520D01*
Y-169480D01*
X-104742Y-168474D01*
X-105262Y-167573D01*
X-105998Y-166837D01*
X-106899Y-166317D01*
X-107905Y-166047D01*
D02*
G37*
G36*
X-151567D02*
X-152607D01*
X-153613Y-166317D01*
X-154514Y-166837D01*
X-155250Y-167573D01*
X-155770Y-168474D01*
X-156040Y-169480D01*
Y-170520D01*
X-155770Y-171526D01*
X-155250Y-172427D01*
X-154514Y-173163D01*
X-153613Y-173683D01*
X-152607Y-173953D01*
X-151567D01*
X-150561Y-173683D01*
X-149660Y-173163D01*
X-148924Y-172427D01*
X-148404Y-171526D01*
X-148134Y-170520D01*
Y-169480D01*
X-148404Y-168474D01*
X-148924Y-167573D01*
X-149660Y-166837D01*
X-150561Y-166317D01*
X-151567Y-166047D01*
D02*
G37*
G36*
X-158134D02*
X-166040D01*
Y-173953D01*
X-158134D01*
Y-166047D01*
D02*
G37*
G36*
X-251251D02*
X-252292D01*
X-253297Y-166317D01*
X-254199Y-166837D01*
X-254935Y-167573D01*
X-255455Y-168474D01*
X-255724Y-169480D01*
Y-170520D01*
X-255455Y-171526D01*
X-254935Y-172427D01*
X-254199Y-173163D01*
X-253297Y-173683D01*
X-252292Y-173953D01*
X-251251D01*
X-250246Y-173683D01*
X-249345Y-173163D01*
X-248609Y-172427D01*
X-248088Y-171526D01*
X-247819Y-170520D01*
Y-169480D01*
X-248088Y-168474D01*
X-248609Y-167573D01*
X-249345Y-166837D01*
X-250246Y-166317D01*
X-251251Y-166047D01*
D02*
G37*
G36*
X-261251D02*
X-262292D01*
X-263297Y-166317D01*
X-264199Y-166837D01*
X-264935Y-167573D01*
X-265455Y-168474D01*
X-265724Y-169480D01*
Y-170520D01*
X-265455Y-171526D01*
X-264935Y-172427D01*
X-264199Y-173163D01*
X-263297Y-173683D01*
X-262292Y-173953D01*
X-261251D01*
X-260246Y-173683D01*
X-259345Y-173163D01*
X-258609Y-172427D01*
X-258088Y-171526D01*
X-257819Y-170520D01*
Y-169480D01*
X-258088Y-168474D01*
X-258609Y-167573D01*
X-259345Y-166837D01*
X-260246Y-166317D01*
X-261251Y-166047D01*
D02*
G37*
G36*
X-183057Y-168638D02*
X-183943D01*
X-184798Y-168867D01*
X-185564Y-169310D01*
X-186190Y-169936D01*
X-186633Y-170702D01*
X-186862Y-171557D01*
Y-172443D01*
X-186633Y-173298D01*
X-186190Y-174064D01*
X-185564Y-174690D01*
X-184798Y-175133D01*
X-183943Y-175362D01*
X-183057D01*
X-182202Y-175133D01*
X-181436Y-174690D01*
X-180810Y-174064D01*
X-180367Y-173298D01*
X-180138Y-172443D01*
Y-171557D01*
X-180367Y-170702D01*
X-180810Y-169936D01*
X-181436Y-169310D01*
X-182202Y-168867D01*
X-182567Y-168769D01*
D01*
X-183057Y-168638D01*
D02*
G37*
%LPD*%
G36*
X-12912Y-137322D02*
X-13163Y-137573D01*
X-13683Y-138474D01*
X-13953Y-139480D01*
Y-140520D01*
X-13683Y-141526D01*
X-13163Y-142427D01*
X-12912Y-142678D01*
X-13120Y-143178D01*
X-64969D01*
X-70863Y-137284D01*
X-70671Y-136822D01*
X-13120D01*
X-12912Y-137322D01*
D02*
G37*
G36*
X-67013Y-146289D02*
X-66422Y-146684D01*
X-65724Y-146822D01*
X-65724Y-146822D01*
X-13120D01*
X-12912Y-147322D01*
X-13163Y-147573D01*
X-13683Y-148474D01*
X-13953Y-149480D01*
Y-150520D01*
X-13683Y-151526D01*
X-13163Y-152427D01*
X-12912Y-152678D01*
X-13120Y-153178D01*
X-63469D01*
X-93211Y-123436D01*
X-93803Y-123041D01*
X-94500Y-122902D01*
X-94500Y-122902D01*
X-95084D01*
X-95181Y-122667D01*
X-95248Y-122402D01*
X-94742Y-121526D01*
X-94472Y-120520D01*
Y-119536D01*
X-94213Y-119330D01*
X-94060Y-119242D01*
X-67013Y-146289D01*
D02*
G37*
G36*
X-65513Y-156289D02*
X-64922Y-156684D01*
X-64224Y-156822D01*
X-64224Y-156822D01*
X-13120D01*
X-12912Y-157322D01*
X-13163Y-157573D01*
X-13683Y-158474D01*
X-13953Y-159480D01*
Y-160520D01*
X-13683Y-161526D01*
X-13163Y-162427D01*
X-12912Y-162678D01*
X-13120Y-163178D01*
X-64469D01*
X-94211Y-133436D01*
X-94803Y-133041D01*
X-95108Y-132980D01*
X-95273Y-132437D01*
X-95262Y-132427D01*
X-94742Y-131526D01*
X-94472Y-130520D01*
Y-129480D01*
X-94742Y-128474D01*
X-95262Y-127573D01*
X-95585Y-127250D01*
X-95407Y-126721D01*
X-95119Y-126682D01*
X-65513Y-156289D01*
D02*
G37*
G36*
X-2912Y-167322D02*
X-3163Y-167573D01*
X-3683Y-168474D01*
X-3953Y-169480D01*
Y-170520D01*
X-3683Y-171526D01*
X-3163Y-172427D01*
X-2427Y-173163D01*
X-1526Y-173683D01*
X-1613Y-174178D01*
X-8387D01*
X-8474Y-173683D01*
X-7573Y-173163D01*
X-6837Y-172427D01*
X-6317Y-171526D01*
X-6047Y-170520D01*
Y-169480D01*
X-6317Y-168474D01*
X-6837Y-167573D01*
X-7087Y-167322D01*
X-6880Y-166822D01*
X-3120D01*
X-2912Y-167322D01*
D02*
G37*
G36*
X-66513Y-166289D02*
X-65922Y-166684D01*
X-65224Y-166822D01*
X-65224Y-166822D01*
X-13120D01*
X-12912Y-167322D01*
X-13163Y-167573D01*
X-13683Y-168474D01*
X-13953Y-169480D01*
Y-170520D01*
X-13683Y-171526D01*
X-13163Y-172427D01*
X-12427Y-173163D01*
X-11526Y-173683D01*
X-11613Y-174178D01*
X-63469D01*
X-94211Y-143436D01*
X-94803Y-143041D01*
X-95108Y-142980D01*
X-95273Y-142437D01*
X-95262Y-142427D01*
X-94742Y-141526D01*
X-94472Y-140520D01*
Y-139480D01*
X-94635Y-138874D01*
X-94186Y-138615D01*
X-66513Y-166289D01*
D02*
G37*
G36*
X-65624Y-177178D02*
X-65781Y-177678D01*
X-70469D01*
X-94711Y-153436D01*
X-95222Y-153094D01*
X-95388Y-152553D01*
X-95262Y-152427D01*
X-94742Y-151526D01*
X-94472Y-150520D01*
Y-149480D01*
X-94635Y-148874D01*
X-94186Y-148615D01*
X-65624Y-177178D01*
D02*
G37*
D10*
X-13498Y-85000D02*
X75551D01*
X80551Y-80000D01*
D33*
X-108463Y-90000D02*
X-108425D01*
D34*
X-94500Y-104724D02*
X-92612Y-106612D01*
Y-114388D02*
X-72000Y-135000D01*
X45551D01*
X-92612Y-114388D02*
Y-106612D01*
X-94500Y-124724D02*
X-64224Y-155000D01*
X-103701Y-124724D02*
X-94500D01*
X-96000Y-114724D02*
X-65724Y-145000D01*
X-103701Y-114724D02*
X-96000D01*
X-65724Y-145000D02*
X45551D01*
X-64224Y-155000D02*
X45551D01*
X-108425Y-110000D02*
X-103701Y-114724D01*
Y-104724D02*
X-94500D01*
X45551Y-135000D02*
X80551Y-100000D01*
X45551Y-145000D02*
X80551Y-110000D01*
X-65224Y-165000D02*
X45551D01*
X80551Y-130000D01*
X-95500Y-134724D02*
X-65224Y-165000D01*
X-103701Y-134724D02*
X-95500D01*
X-108425Y-120000D02*
X-103701Y-124724D01*
X45551Y-155000D02*
X80551Y-120000D01*
X-103701Y-144724D02*
X-95500D01*
X44551Y-176000D02*
X80551Y-140000D01*
X-64224Y-176000D02*
X44551D01*
X-95500Y-144724D02*
X-64224Y-176000D01*
X-96000Y-154724D02*
X-71224Y-179500D01*
X51051D02*
X80551Y-150000D01*
X-71224Y-179500D02*
X51051D01*
X-103701Y-154724D02*
X-96000D01*
X-108425Y-150000D02*
X-103701Y-154724D01*
X-108425Y-140000D02*
X-103701Y-144724D01*
X-108425Y-130000D02*
X-103701Y-134724D01*
X-108425Y-100000D02*
X-103701Y-104724D01*
D36*
X-152087Y0D02*
D03*
X-162087D02*
D03*
X-152087Y-10000D02*
D03*
X-162087D02*
D03*
X-152087Y-20000D02*
D03*
X-162087D02*
D03*
X-152087Y-30000D02*
D03*
X-162087D02*
D03*
X-152087Y-40000D02*
D03*
X-162087D02*
D03*
X-152087Y-50000D02*
D03*
X-162087D02*
D03*
X-152087Y-60000D02*
D03*
X-162087D02*
D03*
X-152087Y-70000D02*
D03*
X-162087D02*
D03*
X-152087Y-80000D02*
D03*
X-162087D02*
D03*
X-152087Y-90000D02*
D03*
X-162087D02*
D03*
X-152087Y-100000D02*
D03*
X-162087D02*
D03*
X-152087Y-110000D02*
D03*
X-162087D02*
D03*
X-152087Y-120000D02*
D03*
X-162087D02*
D03*
X-152087Y-130000D02*
D03*
X-162087D02*
D03*
X-152087Y-140000D02*
D03*
X-162087D02*
D03*
X-152087Y-150000D02*
D03*
X-162087D02*
D03*
X-152087Y-160000D02*
D03*
X-162087D02*
D03*
X-152087Y-170000D02*
D03*
X80551Y0D02*
D03*
Y-10000D02*
D03*
Y-20000D02*
D03*
X-261772Y-160000D02*
D03*
X-251772D02*
D03*
X-261772Y-170000D02*
D03*
X-251772D02*
D03*
X80551D02*
D03*
X90551D02*
D03*
X80551Y-160000D02*
D03*
X90551Y-130000D02*
D03*
X80551Y-90000D02*
D03*
X90551Y-70000D02*
D03*
Y-50000D02*
D03*
Y-40000D02*
D03*
Y-30000D02*
D03*
Y-20000D02*
D03*
Y-10000D02*
D03*
X-98425Y-90000D02*
D03*
X-108425D02*
D03*
X-98425Y-100000D02*
D03*
Y-110000D02*
D03*
Y-120000D02*
D03*
Y-130000D02*
D03*
Y-140000D02*
D03*
Y-150000D02*
D03*
Y-160000D02*
D03*
Y-170000D02*
D03*
X0Y-10000D02*
D03*
Y-20000D02*
D03*
Y-30000D02*
D03*
Y-40000D02*
D03*
Y-50000D02*
D03*
Y-60000D02*
D03*
Y-70000D02*
D03*
Y-80000D02*
D03*
Y-90000D02*
D03*
Y-100000D02*
D03*
Y-110000D02*
D03*
Y-120000D02*
D03*
Y-130000D02*
D03*
X-10000D02*
D03*
X0Y-140000D02*
D03*
Y-150000D02*
D03*
Y-160000D02*
D03*
Y-170000D02*
D03*
X-261772Y-120000D02*
D03*
X-251772D02*
D03*
X-261772Y-130000D02*
D03*
X-251772D02*
D03*
X80551Y-30000D02*
D03*
Y-40000D02*
D03*
Y-50000D02*
D03*
X90551Y-60000D02*
D03*
X80551D02*
D03*
Y-70000D02*
D03*
X90551Y-80000D02*
D03*
X80551D02*
D03*
X90551Y-90000D02*
D03*
Y-100000D02*
D03*
X80551D02*
D03*
X90551Y-110000D02*
D03*
X80551D02*
D03*
X90551Y-120000D02*
D03*
X80551D02*
D03*
Y-130000D02*
D03*
X90551Y-140000D02*
D03*
X80551D02*
D03*
X90551Y-150000D02*
D03*
X80551D02*
D03*
X90551Y-160000D02*
D03*
X-10000Y-170000D02*
D03*
Y-160000D02*
D03*
Y-150000D02*
D03*
Y-140000D02*
D03*
Y-120000D02*
D03*
Y-110000D02*
D03*
Y-100000D02*
D03*
Y-90000D02*
D03*
Y-80000D02*
D03*
Y-70000D02*
D03*
Y-60000D02*
D03*
Y-50000D02*
D03*
Y-40000D02*
D03*
Y-30000D02*
D03*
Y-20000D02*
D03*
Y-10000D02*
D03*
Y0D02*
D03*
X-108425Y-170000D02*
D03*
Y-160000D02*
D03*
Y-150000D02*
D03*
Y-140000D02*
D03*
Y-130000D02*
D03*
Y-120000D02*
D03*
Y-110000D02*
D03*
Y-100000D02*
D03*
Y-80000D02*
D03*
X-98425D02*
D03*
X-108425Y-70000D02*
D03*
X-98425D02*
D03*
X-108425Y-60000D02*
D03*
X-98425D02*
D03*
X-108425Y-50000D02*
D03*
X-98425D02*
D03*
X-108425Y-40000D02*
D03*
X-98425D02*
D03*
X-108425Y-30000D02*
D03*
X-98425D02*
D03*
X-108425Y-20000D02*
D03*
X-98425D02*
D03*
X-108425Y-10000D02*
D03*
X-98425D02*
D03*
X-108425Y0D02*
D03*
X-251772Y-150000D02*
D03*
X-261772D02*
D03*
X-251772Y-140000D02*
D03*
X-261772D02*
D03*
X-251772Y-110000D02*
D03*
X-261772D02*
D03*
X-251772Y-100000D02*
D03*
X-261772D02*
D03*
X-251772Y-90000D02*
D03*
X-261772D02*
D03*
X-251772Y-80000D02*
D03*
X-261772D02*
D03*
X-251772Y-70000D02*
D03*
X-261772D02*
D03*
X-251772Y-60000D02*
D03*
X-261772D02*
D03*
X-251772Y-50000D02*
D03*
X-261772D02*
D03*
X-251772Y-40000D02*
D03*
X-261772D02*
D03*
X-251772Y-30000D02*
D03*
X-261772D02*
D03*
X-251772Y-20000D02*
D03*
X-261772D02*
D03*
X-251772Y-10000D02*
D03*
X-261772D02*
D03*
X-251772Y0D02*
D03*
D37*
X-162087Y-170000D02*
D03*
X90551Y0D02*
D03*
X0D02*
D03*
X-98425D02*
D03*
X-261772D02*
D03*
D38*
X-204724Y-29528D02*
D03*
X-224410D02*
D03*
Y-49213D02*
D03*
X-204724D02*
D03*
X-214567Y-39370D02*
D03*
D39*
X-129000Y-7000D02*
D03*
X-129500Y-47500D02*
D03*
X-130500Y-87000D02*
D03*
X-140500Y-154500D02*
D03*
X-128500Y-158500D02*
D03*
X-24500Y-18000D02*
D03*
X-26000Y-58516D02*
D03*
X56500Y-20000D02*
D03*
X57500Y-52000D02*
D03*
X-174500Y-145500D02*
D03*
X-186000Y-116000D02*
D03*
X-182000Y-124000D02*
D03*
X-157000Y-74000D02*
D03*
X-173000Y-30500D02*
D03*
X-183500Y-172000D02*
D03*
X-183000Y-20000D02*
D03*
Y-3500D02*
D03*
X-209000Y-10000D02*
D03*
X-140500Y-88500D02*
D03*
X-141000Y-1500D02*
D03*
X27500Y-9000D02*
D03*
X28500Y-41000D02*
D03*
X-13498Y-85000D02*
D03*
X-54364Y-92864D02*
D03*
X-54154Y-87347D02*
D03*
X-15500Y-46000D02*
D03*
X69500Y-29000D02*
D03*
X69000Y2000D02*
D03*
D40*
X-141000Y-53500D02*
D03*
X-45000Y-21000D02*
D03*
M02*
